<?xml version="1.0" encoding="UTF-8"?>
<svg id="Layer_1" data-name="Layer 1" xmlns="http://www.w3.org/2000/svg" viewBox="0 0 282.68 282.67">
  <defs>
    <style>
      .cls-1 {
        fill: #e6e6e6;
        stroke: #000;
        stroke-miterlimit: 10;
        stroke-width: .5px;
      }
    </style>
  </defs>
  <path class="cls-1" d="M197.73,228.36l-.38-6.17,1.36-5.71-3.58-2.47-1.5-7.59-3.09-3.38.47-6.56-4.74-9.46-1.22-11.53-6.17-4.9-1.12-6.67-4.45-4.35,2.28-4.96,5.31-5.61-2.84-7.68.36-11.9,3.24-4.81-3.73-9.51,4.41,3.1-2.08-5.37-3.09-1.94-4.45-13.91-2.49-3.12,4.29-3.31,3.65,8.87,9.15,14.93-.79,10.18-.86,9.03,5.58,5.26-3.13-6.57,2.65-17.83-10.48-17.44,7.55,1.04,2.93,4.47-.98,6.64,3.46-4.24-2.1-5.28-3.42-4.49-6.57-1.92-3.61-4.23,3.86-5.78,1.38-17.23,3.53,1.23-.86-4.34,8.44-3.36,11.7-14.44,2.36-1.44.25-7.65-9.3-16.34-6.78,9.53-.98,3.76-3.54,1.9-.19,4.86-2.28,4.61-7.46,3.86s-9.57,8.51-13.32,9.17l3.01,1.53,3.65-2.32,2.83,2.22.4,8.13-6.13,7.03-.86,6.76-10.04,10.32-9.58-.41s-2.19,3.59-3.62,4.26c-1.43.67-6.34,1.62-6.34,1.62l-2.24,4.47-4.37-1.14,1.84,3.3-12.34,7.38-.48,1.83-9.54.91-5.8,1.78-5.25,6.35-.45,6.98-6.92,7.05-4.9,2.63-11.93,1.01-4.34,2.37-7.45-1.42-3.73.98-2.69,2.7-3.01.14,3.35,1.9,6.74-3.49,6.43,1.98,5.48-1.04,2.61-2.41,5.8.58,7.37-2.09,5.81-3.73,3.76-5.4,1.33-4.18-.1-3.42,1.68-2.65,7.94-3.8,6.39-.7-1.96,8.03-1.57,2.68,2.85,9.07-.44,7.4,1.23,4.33-4.86,2.95-5.92,4.63-4.68,3.21-4.65,1.67-9.88-1.13-4.28,4.03-4.41,3.59-4.65,1.67-4.77-1.24-6.18-2.95-5.09,2.38-3.06.33,3.53,2.15,4.5-1.09,5.53,1.64,4.86,2.29-2.21,2.3-1.28,1.11,4.75-.62,1.88-1.98.38,3.8.05,2.69,2.98-7.15,2.87-2.44,7.26-2.64,1.41,2.22,1.08-3.22,6.22-2.91,7.22-2.96,6.79-3.69,6.32-4.73,3.98.93,1.16,1.74-.26,3.84-1.22,2.77,1.24,3.82-.53,4.9.72,2.96-.79,2.57-2.58,1.8-.67,3.53,4.59-3.33,3.45-4.66-1.15-3.69.37-5.25-.34-2.04.26-3.84-.99-4.78.16-6.34-3.15-1.74,1.49-3.83,3.32-2.74,6.23-3.42,2.12-2.43,2.95.11,6.04,1.57,3.32-6.09,3.2-4.21,3.36-5.3,2.88-.59.48-6.15-1.52-2.76,1.64-5.33.16-3.97,5.1-2.89,5.47,9.03-1.07,3.63,5.49,17.06-2.65,11.14,2.5,8.98-2.84,7.59-5.13,10.19-1.9,6.81v4.73s-8.5,9.82-8.5,9.82l-2.1,7.58-1.38,8.18-3.41,1.17.39,4.22-4.84,1.93-6.98,4.87-1.65,3.48-4.43.8-3.35,4.78,2.47,4.35-4.97,2.41-1.95,3.2-6.5,3.04,4.3,1.12,3.58-2.77,2.42-3.59,4.88-1.1,1.23-3.28-1.54-2.66,1.67-3.58,1.18,4.52.34,4.41,1.1,2.45-1.91,7.83.26,5.21-4.31,4.64-.81,8.84-2.34,4.23-4.11,1.5-.78,4.43,7.02-4.55,2.54-6.44.63-6.73,4.44-5.63,1.43-4.05-1.33-2.51,1.73-8.09-2.3-5.95,1.49-4.76,7.04-3.21,2.4,5.56,4.68,4.92,3.33,2-.38,9.57-4.33,4.74-4.99,4.87,1.31,4.04,1.68-4.09,7.44-7.12,1.93-10.3-2-4.22-3.47-1.93-2.73-5.24.35-6.59,3.21-5.65,4.02,3.62-2.78,9.25,1.5,2.34,2.24-6.21,2.32-4.64-5.09-8.11,2.83-5.64-.9-8.46,4.44-6.56,3.98-1.95,2.26-3.94.29-5.89,2.33-6.08,3.49,4.71,1.3,4.55,6.34,3.3-1.6,5.65,2.29,4.09.47,4.86,3.36,6.63s.85,6.29.81,6.9c-.03.61,1.94,4.93,2.33,5.34.39.41,1.15,7.5,1.15,7.5l4,2.27-2.11,7.17,1.72,2.92,12.51,6.75,3.52-1.14-13.78-6.67ZM83.5,166.6l2.18-2.99,4.77-1.82,2.55.17-9.49,4.65ZM182.26,50.39l9.02-5.78,1.52-5.84,5.61-5.86.51,4.33,3.83,6.01-7.45,7.27-4.89,6.86-2.92-.08-5.85,2.41-1.68-.44.54-4.87,1.77-4.01ZM172.95,74.25l2.68-1.2-.63,2.41-.79,3.05-1.54,1.36-.48-2.7.76-2.92ZM145.02,97.26l4.49-2.76,7.78.72-.79,3.02-3.15,3.91h-6.2s-3.06-1.3-3.06-1.3l.93-3.59ZM154.6,116.98l-3.9.5-6.85,11.31-12.67-.27-7.78,7.27-4.34-11.12,5.31-12.02,6.85-2.05,7.86-7.32,6.94,1.81,7.23-.23.7,3.2,2.35,5.65-1.71,3.28ZM162.7,93.3l-.44-2.53,4.37-2.79,1.41-3.56,5.32-2.65-2.82,3.8-.47,4.31-7.37,3.42ZM146.5,212.01l-5.75,2.96,2.83-3.48,3.49-1.67-.57,2.19Z"/>
</svg>