<?xml version="1.0" encoding="UTF-8"?>
<svg id="Layer_1" data-name="Layer 1" xmlns="http://www.w3.org/2000/svg" viewBox="0 0 282.68 282.67">
  <defs>
    <style>
      .cls-1 {
        fill: none;
        stroke: #000;
        stroke-linecap: round;
        stroke-linejoin: round;
        stroke-width: .5px;
      }

      .cls-2 {
        fill: #b0c3cc;
      }
    </style>
  </defs>
  <line class="cls-1" x1="83.38" y1="89.39" x2="85.75" y2="132.93"/>
  <line class="cls-1" x1="74.52" y1="115.19" x2="74.52" y2="155.93"/>
  <line class="cls-1" x1="69.03" y1="117.18" x2="69.03" y2="149.12"/>
  <line class="cls-1" x1="43.75" y1="126.66" x2="42.25" y2="149.95"/>
  <line class="cls-1" x1="30.45" y1="131.65" x2="31.44" y2="171.4"/>
  <line class="cls-1" x1="20.8" y1="124.5" x2="20.8" y2="152.11"/>
  <line class="cls-1" x1="52.4" y1="149.12" x2="52.4" y2="218.3"/>
  <line class="cls-1" x1="64.87" y1="162.75" x2="64.04" y2="198.01"/>
  <line class="cls-1" x1="70.03" y1="193.02" x2="70.03" y2="232.27"/>
  <line class="cls-1" x1="114.1" y1="119.01" x2="114.1" y2="143.79"/>
  <line class="cls-1" x1="125.25" y1="101.88" x2="123.58" y2="160.26"/>
  <line class="cls-1" x1="133.4" y1="119.01" x2="134.39" y2="194.85"/>
  <line class="cls-1" x1="157.51" y1="181.38" x2="157.51" y2="231.44"/>
  <line class="cls-1" x1="168.32" y1="98.39" x2="167.49" y2="171.4"/>
  <line class="cls-1" x1="174.81" y1="82.26" x2="174.81" y2="117.18"/>
  <line class="cls-1" x1="186.45" y1="84.59" x2="186.45" y2="111.69"/>
  <line class="cls-1" x1="76.45" y1="73.44" x2="76.45" y2="100.54"/>
  <line class="cls-1" x1="197.93" y1="93.4" x2="197.09" y2="123.17"/>
  <line class="cls-1" x1="206.45" y1="50.89" x2="205.62" y2="80.66"/>
  <line class="cls-1" x1="50.81" y1="69.7" x2="49.97" y2="99.47"/>
  <line class="cls-1" x1="208.07" y1="89.39" x2="208.07" y2="122.01"/>
  <line class="cls-1" x1="216.52" y1="63.53" x2="216.52" y2="96.14"/>
  <line class="cls-1" x1="192.77" y1="120.01" x2="189.28" y2="186.04"/>
  <line class="cls-1" x1="197.93" y1="151.61" x2="195.26" y2="197.18"/>
  <line class="cls-1" x1="204.25" y1="162.75" x2="204.25" y2="202"/>
  <line class="cls-1" x1="230.36" y1="87.25" x2="229.53" y2="125.5"/>
  <line class="cls-1" x1="245.82" y1="80.26" x2="243.16" y2="137.97"/>
  <line class="cls-1" x1="254.64" y1="114.19" x2="251.81" y2="192.36"/>
  <line class="cls-1" x1="262.62" y1="61.3" x2="262.62" y2="89.39"/>
  <line class="cls-1" x1="27.66" y1="54.14" x2="27.66" y2="82.23"/>
  <g>
    <g>
      <path class="cls-2" d="M44.3,157.95c-.6,1.55-1.04,3.16-1.26,4.81-.14,1.05-.19,2.12,0,3.15.1.54.28,1.08.65,1.49s.96.65,1.48.48c.47-.15.78-.59,1-1.03.54-1.11.64-2.43.28-3.61-.55-1.79-2.1-3.24-2.24-5.11"/>
      <path d="M44.16,157.91c-.61,1.58-1.05,3.22-1.27,4.89-.11.86-.16,1.72-.07,2.58.08.72.24,1.49.72,2.06.4.47,1.07.78,1.68.58s.97-.81,1.2-1.37c.57-1.38.49-2.9-.13-4.24-.65-1.42-1.8-2.68-1.93-4.29-.02-.19-.32-.19-.3,0,.11,1.26.79,2.33,1.41,3.39.31.54.62,1.09.81,1.69.22.69.29,1.44.19,2.16-.09.67-.32,1.41-.76,1.95-.46.56-1.19.61-1.75.15s-.75-1.31-.84-2.02c-.09-.76-.06-1.54.02-2.3.2-1.76.66-3.49,1.3-5.15.07-.18-.22-.26-.29-.08h0Z"/>
    </g>
    <g>
      <path class="cls-2" d="M17.98,165.99c.03,1.68-.35,3.37-1.11,4.87-.46.91-1.07,1.85-.9,2.86.1.61.51,1.16,1.06,1.44s1.23.27,1.78,0c.6-.31,1.01-.92,1.19-1.56s.18-1.34.11-2.01c-.21-2.02-.94-3.97-2.01-5.7"/>
      <path d="M17.83,165.99c.02,1.63-.33,3.25-1.05,4.72-.59,1.2-1.52,2.64-.58,3.92.82,1.12,2.47,1.14,3.36.1.97-1.14.81-2.79.56-4.16-.31-1.69-.98-3.31-1.89-4.77-.1-.16-.36-.01-.26.15.74,1.2,1.32,2.5,1.67,3.86.18.68.3,1.39.35,2.09s.01,1.44-.3,2.09c-.28.58-.77,1.05-1.42,1.18-.69.13-1.41-.15-1.82-.72-.89-1.25.17-2.67.71-3.82.67-1.45,1-3.04.98-4.64,0-.19-.3-.19-.3,0h0Z"/>
    </g>
    <g>
      <path class="cls-2" d="M27.64,181.65c-1.95,2.5-2.75,5.86-2.14,8.97.13.66.38,1.38.98,1.66.19.09.39.12.6.16.79.14,1.7.26,2.33-.25.76-.61.69-1.78.42-2.71-.37-1.28-1-2.47-1.51-3.71s-.89-2.57-.73-3.9"/>
      <path d="M27.51,181.57c-1.06,1.37-1.78,2.98-2.13,4.68-.17.83-.25,1.68-.23,2.53.02.8.09,1.66.34,2.43s.69,1.22,1.46,1.36,1.63.28,2.33-.11c1.48-.83.78-2.94.3-4.15-.82-2.07-2.09-4.12-1.84-6.44.02-.19-.28-.19-.3,0-.19,1.79.52,3.48,1.23,5.08.38.84.76,1.68,1.02,2.57.19.65.3,1.43,0,2.06-.36.78-1.22.88-1.98.8-.39-.04-.87-.08-1.22-.27-.33-.17-.53-.51-.66-.84-.27-.71-.34-1.52-.37-2.27-.03-.79.02-1.59.15-2.37.31-1.78,1.05-3.48,2.15-4.91.12-.15-.14-.3-.26-.15h0Z"/>
    </g>
    <g>
      <path class="cls-2" d="M35.8,199.8c.25,2.45-.96,4.78-1.62,7.15-.19.67-.33,1.36-.26,2.05s.37,1.38.93,1.8c.33.24.73.38,1.13.49.46.13.95.24,1.39.06.34-.14.6-.43.81-.73.96-1.41,1.1-3.23.92-4.93-.25-2.38-1.21-4.86-3.26-6.1"/>
      <path d="M35.65,199.8c.2,2.12-.65,4.12-1.3,6.09-.52,1.6-1.22,4.06.59,5.15.4.24.89.38,1.34.48.41.09.86.12,1.24-.08.76-.38,1.19-1.35,1.44-2.11.56-1.7.42-3.65-.03-5.36-.46-1.8-1.41-3.52-3.03-4.52-.16-.1-.32.16-.15.26,1.34.83,2.2,2.19,2.69,3.66.52,1.55.73,3.32.45,4.94-.14.84-.44,1.68-.96,2.36-.32.42-.73.65-1.27.6-.47-.04-.98-.2-1.4-.4-1.93-.94-1.1-3.51-.59-5.06.65-1.95,1.46-3.93,1.26-6.02-.02-.19-.32-.19-.3,0h0Z"/>
    </g>
    <g>
      <path class="cls-2" d="M51.66,225.04c0,1.34-.45,2.65-.98,3.88s-1.15,2.44-1.51,3.73-.47,2.71.03,3.96,1.7,2.27,3.04,2.28c.3,0,.62-.05.88-.21.22-.13.39-.34.54-.55.5-.75.7-1.66.79-2.55.24-2.38-.22-4.83-1.32-6.96-.58-1.13-1.35-2.2-1.57-3.45"/>
      <path d="M51.51,225.04c-.03,2.37-1.34,4.41-2.15,6.56-.72,1.88-1.09,4.23.2,5.97.5.67,1.22,1.21,2.04,1.39.42.09.88.11,1.29-.02s.72-.47.95-.84c.55-.88.71-1.94.78-2.96.07-1.07,0-2.14-.2-3.19-.23-1.19-.62-2.34-1.18-3.42s-1.31-2.16-1.55-3.41c-.04-.19-.33-.11-.29.08.18.96.65,1.8,1.12,2.64.51.91.96,1.83,1.27,2.83.58,1.9.79,4.07.3,6.02-.12.48-.3.95-.58,1.36-.36.53-.85.73-1.48.68-.89-.07-1.69-.61-2.21-1.31-1.27-1.68-.85-3.97-.15-5.8.83-2.16,2.11-4.2,2.14-6.58,0-.19-.3-.19-.3,0h0Z"/>
    </g>
    <g>
      <path class="cls-2" d="M70.31,237.22c0,1.85-.51,3.7-1.44,5.3-.42.73-.94,1.42-1.16,2.23-.17.64-.16,1.31-.12,1.97.05.94.14,1.93.7,2.69.87,1.19,2.73,1.38,3.97.58s1.82-2.39,1.67-3.85c-.18-1.69-1.2-3.15-2.01-4.64-.75-1.39-1.35-2.87-1.76-4.4"/>
      <path d="M70.16,237.22c-.01,1.2-.22,2.39-.62,3.52-.2.56-.45,1.1-.74,1.61s-.61.97-.87,1.47c-.53,1.02-.55,2.09-.47,3.22.07.96.23,1.98.92,2.71,1.19,1.26,3.31,1.1,4.5-.05,1.46-1.43,1.45-3.61.71-5.38-.48-1.15-1.19-2.19-1.75-3.3-.64-1.26-1.15-2.58-1.52-3.94-.05-.19-.34-.11-.29.08.29,1.04.65,2.06,1.09,3.05s.98,1.9,1.51,2.84c.98,1.76,1.73,3.82.62,5.71-.46.77-1.19,1.36-2.08,1.53-.82.16-1.74-.01-2.39-.57-.78-.67-.95-1.75-1.01-2.72-.03-.53-.07-1.07,0-1.61.06-.58.26-1.1.54-1.6.56-1.02,1.18-1.96,1.57-3.07s.58-2.3.6-3.49c0-.19-.3-.19-.3,0h0Z"/>
    </g>
    <g>
      <path class="cls-2" d="M78.68,205.87c-.04,3.33-2.63,6.37-2.17,9.67.05.36.14.73.35,1.04.62.93,1.96.93,3.08.83.27-.02.56-.05.79-.21.18-.12.3-.32.4-.51.92-1.71.95-3.8.42-5.67s-1.57-3.55-2.7-5.13"/>
      <path d="M78.53,205.87c-.04,1.9-.86,3.65-1.49,5.41-.3.83-.56,1.69-.68,2.57s-.14,1.9.28,2.67c.36.66,1.08.95,1.8,1.04.42.05.84.04,1.25.01.38-.03.81-.04,1.13-.27.34-.26.53-.72.69-1.1.18-.45.32-.91.4-1.39.17-.94.15-1.9,0-2.84-.38-2.28-1.61-4.31-2.94-6.17-.11-.16-.37,0-.26.15,2.1,2.92,4.13,6.85,2.39,10.43-.1.2-.19.41-.35.57-.2.2-.46.25-.73.28-.38.04-.76.06-1.14.05-.75-.03-1.59-.21-1.98-.93-.41-.77-.35-1.82-.22-2.66s.38-1.62.66-2.39c.64-1.77,1.45-3.53,1.49-5.45,0-.19-.3-.19-.3,0h0Z"/>
    </g>
    <g>
      <path class="cls-2" d="M82.51,180.14c.17,2.28-.15,4.59-.93,6.74-.32.89-.73,1.77-.84,2.71s.14,1.99.9,2.56c.87.64,2.17.43,2.98-.28s1.19-1.81,1.28-2.88c.14-1.61-.28-3.23-.95-4.7s-1.59-2.81-2.51-4.14"/>
      <path d="M82.36,180.14c.15,2.16-.12,4.33-.82,6.38-.55,1.62-1.63,3.62-.47,5.24.98,1.37,2.98,1.05,3.97-.13,1.21-1.44,1.2-3.59.78-5.32-.56-2.32-1.92-4.32-3.25-6.26-.11-.16-.37,0-.26.15,1.1,1.6,2.23,3.23,2.89,5.08.61,1.69.91,3.77.08,5.44-.37.74-.98,1.35-1.79,1.56s-1.7,0-2.18-.71c-1.08-1.58.04-3.52.56-5.08.68-2.04.94-4.21.79-6.36-.01-.19-.31-.19-.3,0h0Z"/>
    </g>
    <g>
      <path class="cls-2" d="M72.55,168.95c.08,1.56-.76,3.01-1.58,4.34-.37.6-.75,1.21-1.02,1.87-.26.64-.4,1.33-.5,2.01-.15,1.02-.22,2.07.04,3.06s.88,1.94,1.81,2.37c.59.28,1.27.34,1.92.36.18,0,.36,0,.52-.06.23-.1.36-.33.47-.55.91-1.83.88-3.98.66-6.02-.2-1.77-.52-3.52-.97-5.24-.22-.84-.51-1.73-1.19-2.27"/>
      <path d="M72.4,168.95c.08,2.42-1.8,4.11-2.62,6.23-.41,1.06-.58,2.26-.61,3.39-.02,1.04.16,2.12.75,3,.54.8,1.32,1.3,2.28,1.46.44.07.99.16,1.43.07s.65-.51.82-.89c.92-2.03.77-4.33.5-6.48-.17-1.35-.42-2.68-.74-4-.26-1.07-.51-2.26-1.4-3-.15-.12-.36.09-.21.21.78.65,1.02,1.66,1.26,2.6.27,1.06.48,2.13.65,3.21.32,2.02.58,4.19.07,6.2-.13.49-.29.99-.54,1.43-.17.3-.36.44-.71.45-.28,0-.57-.02-.85-.05-1.03-.13-1.88-.62-2.42-1.53s-.65-1.97-.58-3c.07-1.09.25-2.23.69-3.23.89-2.02,2.6-3.7,2.52-6.05,0-.19-.31-.19-.3,0h0Z"/>
    </g>
    <g>
      <path class="cls-2" d="M83.19,146.46c.44,2.68-1.51,5.15-1.97,7.83-.23,1.34-.07,2.75.46,4,.3.72.73,1.4,1.34,1.87s1.45.7,2.19.48c.67-.2,1.21-.75,1.51-1.38s.42-1.34.46-2.04c.21-3.92-1.67-7.65-3.9-10.89"/>
      <path d="M83.04,146.5c.34,2.25-.95,4.32-1.62,6.39s-.63,4.52.61,6.41c.54.82,1.37,1.48,2.38,1.56.95.08,1.8-.46,2.29-1.25.57-.92.66-2.08.65-3.14-.01-1.12-.19-2.23-.49-3.31-.69-2.5-1.99-4.79-3.45-6.92-.11-.16-.37,0-.26.15,1.21,1.77,2.31,3.65,3.04,5.68s1.18,4.28.67,6.33c-.24.97-.87,1.96-1.92,2.14-1.16.2-2.18-.61-2.75-1.54-1.17-1.93-1.11-4.24-.4-6.31s1.86-4.04,1.52-6.27c-.03-.19-.32-.11-.29.08h0Z"/>
    </g>
    <g>
      <path class="cls-2" d="M58.5,130.11c-.58,2.27-2.33,4.04-3.28,6.18-.43.96-.68,2.1-.2,3.04.54,1.06,1.83,1.5,3.02,1.57.67.04,1.39-.03,1.91-.45.85-.67.85-1.94.71-3.01-.33-2.52-1.07-4.98-2.17-7.27"/>
      <path d="M58.35,130.07c-.48,1.82-1.68,3.3-2.62,4.9-.81,1.38-1.76,3.38-.58,4.84.48.6,1.22.94,1.96,1.11.78.17,1.69.24,2.44-.08,1.64-.68,1.36-2.77,1.13-4.18-.37-2.28-1.08-4.49-2.07-6.57-.08-.17-.34-.02-.26.15.82,1.71,1.43,3.52,1.83,5.38.18.84.35,1.71.38,2.58.02.72-.08,1.55-.65,2.06-.62.56-1.6.54-2.38.42-.71-.11-1.45-.36-1.98-.88-1.36-1.34-.32-3.43.48-4.77.94-1.59,2.12-3.08,2.6-4.89.05-.19-.24-.27-.29-.08h0Z"/>
    </g>
    <g>
      <path class="cls-2" d="M103.43,133.6c-2.09,1.6-2.95,4.44-2.74,7.06.06.77.21,1.54.58,2.21s.99,1.23,1.75,1.39,1.62-.16,1.98-.84c.4-.75.12-1.66-.2-2.45-.47-1.14-1-2.26-1.35-3.44s-.48-2.46-.13-3.65"/>
      <path d="M103.33,133.5c-1.21.94-2.02,2.28-2.44,3.74s-.54,3.23-.12,4.74c.38,1.4,1.65,2.87,3.26,2.39.7-.21,1.21-.77,1.3-1.51.1-.86-.29-1.69-.61-2.46-.86-2.02-1.88-4.23-1.25-6.47.05-.19-.24-.27-.29-.08-.47,1.68-.05,3.42.57,5,.32.83.71,1.63,1.02,2.46.27.73.5,1.67-.08,2.31-.5.56-1.36.66-2.03.37-.73-.32-1.23-1.01-1.49-1.74-.5-1.4-.44-3.08-.1-4.51.37-1.57,1.19-3.03,2.48-4.03.15-.12-.06-.33-.21-.21h0Z"/>
    </g>
    <g>
      <path class="cls-2" d="M112.77,165.73c0,1.63-.41,3.26-1.19,4.68-.37.68-.82,1.32-1.09,2.04-.22.57-.31,1.19-.33,1.8-.03.76.06,1.54.4,2.22.7,1.42,2.53,2.17,4.03,1.65.3-.11.6-.26.83-.48.47-.45.64-1.12.75-1.76.25-1.35.34-2.77-.04-4.09-.24-.83-.67-1.59-1.09-2.35-.69-1.25-1.39-2.5-2.08-3.75"/>
      <path d="M112.62,165.73c0,1.1-.19,2.19-.55,3.23s-1,1.93-1.49,2.92c-.8,1.62-.93,4.05.39,5.45,1.05,1.11,2.98,1.54,4.3.63.77-.54.96-1.5,1.1-2.37.16-1.03.23-2.08.06-3.11-.2-1.21-.8-2.27-1.38-3.32-.65-1.18-1.31-2.36-1.96-3.53-.09-.17-.35-.02-.26.15.52.93,1.03,1.86,1.55,2.78s1.07,1.82,1.44,2.8.46,1.97.39,2.99c-.03.54-.11,1.07-.21,1.6-.08.43-.19.87-.42,1.25-.46.74-1.4,1-2.22.95-.77-.05-1.54-.39-2.09-.93-1.41-1.38-1.15-3.87-.28-5.46.51-.93,1.06-1.79,1.4-2.8s.52-2.11.53-3.2c0-.19-.3-.19-.3,0h0Z"/>
    </g>
    <g>
      <path class="cls-2" d="M127.71,166.66c.44,2.63-.4,5.31-1.49,7.74-.36.8-.76,1.62-.8,2.5-.04.88.31,1.8,1.02,2.33s1.76.6,2.47.06c.33-.25.56-.6.74-.97.45-.95.54-2.02.62-3.06.12-1.58.25-3.18-.05-4.74s-1.06-3.09-2.38-3.98"/>
      <path d="M127.56,166.7c.36,2.25-.21,4.5-1.04,6.59-.69,1.72-2,3.75-.71,5.52.49.68,1.3,1.08,2.14,1,.9-.08,1.51-.71,1.87-1.5.42-.94.51-1.97.59-2.98.09-1.15.18-2.31.11-3.47-.12-2.07-.84-4.22-2.61-5.43-.16-.11-.31.15-.15.26,1.5,1.03,2.21,2.82,2.41,4.57.12,1.03.08,2.07,0,3.11s-.1,2.02-.35,2.99c-.22.88-.67,1.89-1.64,2.12-.91.21-1.82-.26-2.27-1.05-.49-.85-.41-1.81-.1-2.7s.79-1.81,1.14-2.73c.77-2.03,1.23-4.2.89-6.36-.03-.19-.32-.11-.29.08h0Z"/>
    </g>
    <g>
      <path class="cls-2" d="M145.24,126.94c-.06,1.66-.33,3.33-.98,4.85-.59,1.39-1.52,2.75-1.39,4.26.11,1.26,1.05,2.42,2.27,2.77.22.07.45.11.68.07.26-.05.48-.19.68-.36.77-.68,1.08-1.74,1.17-2.76.28-3.06-1.1-6-2.44-8.76"/>
      <path d="M145.09,126.94c-.04,1.04-.16,2.07-.41,3.08s-.64,1.89-1.08,2.8c-.72,1.49-1.36,3.18-.37,4.72.4.61.98,1.1,1.66,1.36.36.14.77.22,1.15.08s.69-.44.93-.76c1.06-1.38,1-3.44.71-5.06-.38-2.2-1.37-4.24-2.34-6.24-.08-.17-.34-.02-.26.15.8,1.65,1.61,3.33,2.08,5.12.42,1.6.65,3.5,0,5.08-.15.37-.37.73-.65,1.02-.39.39-.81.55-1.34.39-.72-.21-1.34-.72-1.73-1.36-.93-1.53-.15-3.17.55-4.62.43-.89.79-1.79,1.01-2.76s.34-1.99.38-3c0-.19-.29-.19-.3,0h0Z"/>
    </g>
    <g>
      <path class="cls-2" d="M160.12,157.51c.15,1.7-.15,3.44-.85,5-.47,1.04-1.12,2-1.49,3.08s-.4,2.37.29,3.27c.58.75,1.58,1.1,2.53,1.08.43,0,.89-.1,1.19-.41.18-.19.28-.44.36-.7.26-.8.36-1.64.29-2.48-.07-.91-.32-1.8-.58-2.67-.62-2.14-1.24-4.27-1.86-6.41"/>
      <path d="M159.97,157.51c.08,1.03.02,2.06-.21,3.07s-.65,1.95-1.14,2.87c-.8,1.49-1.76,3.29-.98,4.99.33.73.98,1.23,1.74,1.48.69.22,1.63.32,2.27-.08.71-.44.85-1.58.93-2.34.1-1.03-.07-2.05-.34-3.04-.65-2.42-1.39-4.81-2.09-7.21-.05-.19-.34-.11-.29.08.56,1.93,1.13,3.87,1.69,5.8s1.12,3.82.43,5.77c-.17.47-.45.76-.95.86-.4.08-.84.05-1.24-.04-.81-.18-1.54-.65-1.88-1.43-.76-1.72.37-3.51,1.14-4.99.94-1.79,1.4-3.76,1.23-5.79-.02-.19-.32-.19-.3,0h0Z"/>
    </g>
    <g>
      <path class="cls-2" d="M166.35,186.91c-.98,2.77-1.39,5.74-1.21,8.67.07,1.21.28,2.49,1.07,3.41.26.31.6.57,1,.66.74.16,1.5-.38,1.81-1.07s.28-1.49.17-2.24c-.48-3.18-2.24-6.04-2.81-9.21"/>
      <path d="M166.21,186.88c-.68,1.94-1.09,3.98-1.22,6.03-.06,1.01-.06,2.02.02,3.03.07.83.22,1.67.59,2.42.34.67.93,1.38,1.73,1.46.74.07,1.44-.45,1.77-1.08.4-.78.34-1.71.2-2.55-.15-.96-.43-1.89-.74-2.81-.71-2.09-1.65-4.11-2.05-6.29-.03-.19-.32-.11-.29.08.32,1.74.98,3.37,1.59,5.02.31.82.61,1.65.84,2.5s.45,1.74.45,2.63c0,.83-.3,1.73-1.12,2.09-.91.41-1.68-.36-2.08-1.11s-.54-1.59-.6-2.41c-.07-.89-.08-1.79-.04-2.68.1-2.13.52-4.24,1.22-6.25.06-.18-.23-.26-.29-.08h0Z"/>
    </g>
    <g>
      <path class="cls-2" d="M134.19,206.47c-1.22,1.56-2.39,3.2-3.09,5.06s-.9,3.97-.15,5.81c.3.76.83,1.51,1.63,1.71.92.23,1.89-.39,2.34-1.23s.47-1.84.41-2.78c-.18-2.83-1.03-5.59-1.08-8.43"/>
      <path d="M134.08,206.36c-2.31,2.97-4.74,6.79-3.4,10.71.25.73.64,1.48,1.32,1.9s1.47.34,2.11-.07c1.67-1.07,1.45-3.36,1.24-5.05-.29-2.42-.92-4.79-.97-7.23,0-.19-.3-.19-.3,0,.04,1.91.43,3.79.74,5.67.16.98.31,1.97.35,2.97.04.89,0,1.87-.49,2.65-.43.68-1.26,1.21-2.08,1s-1.29-.99-1.56-1.71c-.66-1.7-.5-3.62.08-5.32.67-1.97,1.9-3.68,3.17-5.31.12-.15-.09-.36-.21-.21h0Z"/>
    </g>
    <g>
      <path class="cls-2" d="M111.38,207.87c.01,1.57-.36,3.14-1.07,4.54-.73,1.44-1.81,2.69-2.47,4.17-.23.51-.41,1.08-.3,1.63.09.45.36.84.64,1.21.37.49.78.97,1.33,1.23.38.18.81.24,1.23.3.51.07,1.05.14,1.51-.09.59-.29.87-.98.99-1.63.7-3.78-2.15-7.47-1.78-11.3"/>
      <path d="M111.23,207.87c0,1.17-.19,2.32-.59,3.42s-1,2.02-1.62,2.97c-.59.89-1.23,1.83-1.54,2.86-.13.45-.17.93,0,1.38s.45.82.74,1.19c.31.39.65.76,1.09,1.01.46.26,1,.34,1.51.41.91.13,1.76.02,2.24-.85.44-.8.49-1.83.43-2.72-.05-.97-.27-1.92-.53-2.85-.62-2.21-1.55-4.41-1.34-6.75.02-.19-.28-.19-.3,0-.33,3.75,2.26,7.09,1.84,10.84-.11.98-.47,2.08-1.64,2.1-.52,0-1.09-.08-1.58-.23s-.92-.47-1.27-.87c-.32-.37-.65-.77-.85-1.22-.24-.53-.15-1.09.04-1.62.37-.97.98-1.85,1.54-2.71.62-.94,1.19-1.89,1.56-2.96s.57-2.24.56-3.39c0-.19-.3-.19-.3,0h0Z"/>
    </g>
    <g>
      <path class="cls-2" d="M156.04,238.18c-.04,1.66-.44,3.31-1.16,4.81-.33.69-.73,1.35-.96,2.07-.26.81-.29,1.67-.25,2.52.04.74.15,1.5.55,2.12.48.73,1.36,1.17,2.23,1.12.15,0,.3-.03.43-.09.19-.08.34-.23.48-.38.95-1.05,1.25-2.57,1.11-3.98s-.67-2.75-1.2-4.07-1.08-2.65-1.25-4.05"/>
      <path d="M155.89,238.18c-.03,1.05-.2,2.09-.5,3.1s-.8,1.91-1.25,2.86c-.42.89-.62,1.82-.62,2.8,0,.87.05,1.82.45,2.6.36.69,1.04,1.2,1.8,1.37.37.08.82.11,1.18-.04s.61-.48.83-.78c1.04-1.47,1.03-3.4.61-5.08-.58-2.3-1.89-4.37-2.21-6.75-.03-.19-.33-.19-.3,0,.25,1.89,1.1,3.59,1.75,5.36.61,1.67,1.04,3.53.43,5.27-.13.36-.3.7-.51,1.01-.32.47-.68.79-1.28.78-.83-.02-1.62-.5-2.02-1.23-.43-.79-.46-1.79-.43-2.67.02-1,.28-1.89.73-2.78s.9-1.81,1.18-2.79.43-1.99.46-3.01c0-.19-.29-.19-.3,0h0Z"/>
    </g>
    <g>
      <path class="cls-2" d="M160.73,111.32c-1.48,1.64-2.52,3.68-2.98,5.85-.2.95-.29,1.94-.05,2.88s.85,1.82,1.75,2.2,2.06.14,2.6-.67c.26-.39.36-.86.42-1.32.42-2.99-.36-6.05-1.64-8.8"/>
      <path d="M160.63,111.22c-1.16,1.3-2.06,2.82-2.62,4.47s-.96,3.6-.15,5.2c.66,1.3,2.19,2.14,3.58,1.42.74-.38,1.04-1.13,1.16-1.92.14-.93.17-1.87.1-2.81-.17-2.16-.83-4.24-1.73-6.2-.08-.18-.34-.02-.26.15.73,1.59,1.3,3.27,1.57,5,.13.87.19,1.75.15,2.63-.04.79-.06,1.79-.58,2.44-.44.55-1.21.75-1.89.63-.73-.13-1.32-.64-1.7-1.26-.89-1.46-.55-3.33-.07-4.87.54-1.73,1.45-3.33,2.66-4.68.13-.14-.08-.36-.21-.21h0Z"/>
    </g>
    <g>
      <path class="cls-2" d="M180.98,121.14c-1.03,2.46-1.59,5.11-1.64,7.77-.01.74.02,1.51.36,2.17.29.57.8,1,1.37,1.29.58.29,1.25.43,1.89.31s1.24-.53,1.51-1.11c.46-.99-.04-2.14-.52-3.12-1.13-2.32-2.16-4.69-3.07-7.11"/>
      <path d="M180.84,121.1c-.73,1.75-1.23,3.59-1.47,5.48-.12.96-.2,1.93-.17,2.9.03.83.22,1.64.79,2.27,1.01,1.12,2.97,1.61,4.17.5,1.41-1.3.19-3.31-.46-4.67-.98-2.05-1.87-4.15-2.67-6.27-.07-.18-.36-.1-.29.08.63,1.67,1.31,3.32,2.05,4.94.36.8.75,1.59,1.12,2.38s.78,1.69.52,2.55c-.23.77-.98,1.26-1.76,1.31s-1.65-.28-2.25-.81c-.68-.61-.9-1.45-.93-2.34-.03-.84.04-1.69.13-2.53.23-1.96.74-3.89,1.5-5.71.07-.18-.22-.26-.29-.08h0Z"/>
    </g>
    <g>
      <path class="cls-2" d="M206.46,134.37c-.38,1.98-2.14,3.36-3.17,5.09-.39.66-.69,1.42-.58,2.18.07.51.32.97.56,1.41.64,1.16,1.4,2.38,2.63,2.86.81.32,1.74.26,2.55-.06.32-.13.63-.3.85-.57.38-.47.41-1.12.35-1.72-.32-3.2-2.67-5.9-3.14-9.08"/>
      <path d="M206.31,134.33c-.39,1.9-1.95,3.2-2.97,4.76-.54.82-.98,1.8-.75,2.8.12.5.38.96.63,1.4.23.41.47.81.74,1.19.51.7,1.15,1.33,1.99,1.62.93.33,2.05.2,2.91-.28s1.03-1.43.93-2.36-.39-1.89-.75-2.79c-.83-2.07-2.04-4.01-2.39-6.24-.03-.19-.32-.11-.29.08.28,1.79,1.12,3.41,1.86,5.03.39.84.76,1.7,1,2.6.23.83.51,1.93.13,2.75-.42.91-1.79,1.16-2.69,1.05-.95-.11-1.71-.69-2.29-1.42-.27-.34-.51-.72-.73-1.1-.25-.43-.52-.87-.68-1.34-.36-1.02.08-2.01.63-2.86,1.04-1.58,2.61-2.9,3-4.83.04-.19-.25-.27-.29-.08h0Z"/>
    </g>
    <g>
      <path class="cls-2" d="M221.42,122.22c-.24,2.45-.53,5-1.89,7.05-.29.43-.62.83-.83,1.3-.2.44-.29.93-.31,1.42-.06,1.5.62,3.09,1.94,3.82.65.36,1.47.48,2.15.17.62-.28,1.04-.89,1.24-1.54s.21-1.34.2-2.02c-.1-3.52-.95-7.01-2.48-10.17"/>
      <path d="M221.27,122.22c-.22,2.19-.45,4.48-1.54,6.43-.53.95-1.28,1.71-1.44,2.83-.13.91,0,1.86.38,2.69.7,1.53,2.79,2.93,4.34,1.64.77-.64,1.02-1.67,1.06-2.63.05-1.16-.07-2.35-.23-3.5-.36-2.61-1.13-5.15-2.27-7.52-.08-.17-.34-.02-.26.15.94,1.95,1.62,4.02,2.03,6.15.21,1.08.34,2.17.4,3.26s.15,2.24-.39,3.2-1.55,1.29-2.57.92c-.87-.32-1.52-1.06-1.88-1.89s-.47-1.86-.25-2.77c.25-1.01,1.04-1.77,1.5-2.68.98-1.94,1.21-4.15,1.42-6.28.02-.19-.28-.19-.3,0h0Z"/>
    </g>
    <g>
      <path class="cls-2" d="M227.98,146.14c-.76,1.38-1.51,2.77-2.27,4.15-.62,1.14-1.26,2.31-1.44,3.6-.13.94,0,1.94.55,2.72s1.56,1.25,2.47,1c.61-.17,1.1-.61,1.54-1.07.32-.33.63-.67.85-1.07.46-.8.56-1.76.48-2.67-.2-2.3-1.46-4.35-2.15-6.55"/>
      <path d="M227.85,146.06l-1.54,2.81c-.48.88-.99,1.75-1.42,2.66-.74,1.54-1.27,3.52-.25,5.06.41.62,1.08,1.08,1.82,1.19.81.12,1.52-.25,2.11-.78.65-.59,1.26-1.28,1.55-2.13s.27-1.75.14-2.62c-.33-2.13-1.44-4.02-2.09-6.05-.06-.18-.35-.1-.29.08.51,1.61,1.31,3.12,1.79,4.75s.65,3.58-.57,5c-.52.6-1.15,1.3-1.96,1.45-.76.15-1.55-.22-2.05-.79-1.2-1.38-.67-3.44.02-4.91.43-.92.95-1.81,1.44-2.7l1.57-2.86c.09-.17-.17-.32-.26-.15h0Z"/>
    </g>
    <g>
      <path class="cls-2" d="M246.99,143.2c.09,2.81-1.7,5.29-2.58,7.96-.14.42-.26.86-.18,1.3.06.38.27.73.47,1.06.45.72,1.04,1.51,1.89,1.56.6.04,1.17-.33,1.51-.83s.47-1.1.53-1.7c.15-1.63-.21-3.26-.57-4.85-.34-1.49-.68-2.99-1.02-4.48"/>
      <path d="M246.84,143.2c.04,1.81-.68,3.49-1.41,5.11-.36.79-.72,1.58-1.02,2.39s-.52,1.64-.09,2.48c.34.65.79,1.35,1.42,1.76s1.37.36,1.96-.07c.66-.49.94-1.29,1.04-2.08.12-.94.05-1.9-.09-2.83-.17-1.12-.45-2.23-.7-3.34s-.52-2.3-.79-3.45c-.04-.19-.33-.11-.29.08.42,1.83.86,3.65,1.24,5.49.19.92.36,1.85.38,2.78.02.85-.02,1.82-.49,2.56-.44.7-1.3,1.08-2.05.64-.61-.36-1.03-1.04-1.35-1.65-.25-.47-.31-.93-.18-1.45.1-.4.25-.79.4-1.18.3-.77.65-1.52.99-2.27.71-1.58,1.37-3.22,1.33-4.98,0-.19-.3-.19-.3,0h0Z"/>
    </g>
    <g>
      <path class="cls-2" d="M222.64,180.67c-.8,1.94-1.59,3.89-2.39,5.83-.28.69-.57,1.39-.65,2.14-.11,1.08.27,2.22,1.09,2.92s2.1.87,3.02.31c1.17-.71,1.48-2.27,1.47-3.64-.03-2.72-.89-5.43-2.45-7.67"/>
      <path d="M222.49,180.63c-.85,2.07-1.72,4.13-2.55,6.21-.34.85-.61,1.74-.48,2.67.11.8.47,1.59,1.09,2.12,1.19,1.04,3.07.94,4.01-.37s.84-3.24.63-4.78c-.3-2.15-1.11-4.22-2.34-6.01-.11-.16-.37,0-.26.15,1.01,1.46,1.73,3.1,2.11,4.83.34,1.53.55,3.32.02,4.82-.25.71-.74,1.36-1.47,1.63s-1.61.12-2.26-.32-1.09-1.23-1.22-2.02c-.15-.89.1-1.75.42-2.57.83-2.11,1.72-4.21,2.58-6.31.07-.18-.22-.26-.29-.08h0Z"/>
    </g>
    <g>
      <path class="cls-2" d="M231.94,207.76c.02,1.73-.24,3.47-.75,5.13-.29.94-.67,1.87-.78,2.85s.1,2.06.82,2.74,2.02.75,2.63-.02c.25-.32.36-.72.42-1.12.24-1.66-.3-3.32-.84-4.9-.5-1.48-1-2.96-1.5-4.45"/>
      <path d="M231.79,207.76c.01,1.9-.3,3.76-.89,5.56-.48,1.46-1.04,3.1-.29,4.57.3.58.79,1.02,1.43,1.19.56.15,1.21.09,1.68-.27.6-.46.73-1.27.77-1.98.05-.9-.11-1.8-.34-2.66-.28-1.04-.65-2.06-1-3.09s-.7-2.09-1.06-3.13c-.06-.18-.35-.1-.29.08.57,1.68,1.15,3.35,1.7,5.03.27.83.53,1.68.64,2.55.1.79.14,1.74-.21,2.48-.3.61-.95.85-1.6.75s-1.13-.5-1.43-1.07c-.76-1.42-.13-3.07.33-4.47.59-1.79.89-3.66.87-5.54,0-.19-.3-.19-.3,0h0Z"/>
    </g>
    <g>
      <path class="cls-2" d="M249.02,201l-1.08,7.5c-.27,1.88-.51,3.93.42,5.59.32.56.76,1.05,1.25,1.47.55.47,1.22.87,1.93.82.78-.05,1.46-.63,1.79-1.34s.35-1.53.26-2.31c-.19-1.69-.87-3.28-1.55-4.84-1-2.31-2-4.61-3-6.92"/>
      <path d="M248.88,200.96c-.37,2.56-.74,5.13-1.11,7.69-.29,2.08-.5,4.37.88,6.13.6.76,1.48,1.57,2.48,1.73.89.14,1.71-.37,2.17-1.1.56-.88.55-2,.4-3-.17-1.19-.58-2.34-1.04-3.45-1.12-2.71-2.32-5.38-3.49-8.06-.08-.18-.34-.02-.26.15.94,2.16,1.88,4.33,2.81,6.49.85,1.96,1.95,4.16,1.74,6.36-.1,1-.67,2.1-1.75,2.3s-2.1-.73-2.74-1.49c-1.4-1.67-1.22-3.91-.94-5.92.36-2.59.74-5.17,1.12-7.76.03-.19-.26-.27-.29-.08h0Z"/>
    </g>
    <g>
      <path class="cls-2" d="M223.76,220.06c-1.67,2.6-2.69,5.61-2.95,8.69-.13,1.56-.02,3.25.94,4.48.79,1.01,2.13,1.56,3.41,1.41.26-.03.52-.09.75-.22.59-.33.87-1.03,1.02-1.69.48-2.23-.09-4.56-1.02-6.64-.85-1.89-2.02-3.75-2.01-5.83"/>
      <path d="M223.63,219.98c-1.27,1.99-2.18,4.21-2.65,6.53-.41,2-.74,4.46.33,6.32.49.86,1.3,1.49,2.24,1.79.83.26,1.98.34,2.69-.25.78-.65.94-1.86,1-2.81.07-1.19-.12-2.39-.45-3.53-.38-1.31-.99-2.52-1.58-3.75s-1.15-2.59-1.16-4.01c0-.19-.3-.19-.3,0,.01,2.15,1.18,4,2.03,5.9.92,2.06,1.55,4.49.96,6.73-.13.5-.36,1.04-.81,1.33-.43.28-.99.31-1.48.27-1.03-.08-2.02-.61-2.63-1.44-1.26-1.69-.97-4.15-.62-6.09.44-2.43,1.36-4.75,2.69-6.83.1-.16-.16-.31-.26-.15h0Z"/>
    </g>
    <g>
      <path class="cls-2" d="M62.55,68.3c-.8,1.94-1.59,3.89-2.39,5.83-.28.69-.57,1.39-.65,2.14-.11,1.08.27,2.22,1.09,2.92s2.1.87,3.02.31c1.17-.71,1.48-2.27,1.47-3.64-.03-2.72-.89-5.43-2.45-7.67"/>
      <path d="M62.41,68.26c-.85,2.07-1.72,4.13-2.55,6.21-.34.85-.61,1.74-.48,2.67.11.8.47,1.59,1.09,2.12,1.19,1.04,3.07.94,4.01-.37s.84-3.24.63-4.78c-.3-2.15-1.11-4.22-2.34-6.01-.11-.16-.37,0-.26.15,1.01,1.46,1.73,3.1,2.11,4.83.34,1.53.55,3.32.02,4.82-.25.71-.74,1.36-1.47,1.63s-1.61.12-2.26-.32-1.09-1.23-1.22-2.02c-.15-.89.1-1.75.42-2.57.83-2.11,1.72-4.21,2.58-6.31.07-.18-.22-.26-.29-.08h0Z"/>
    </g>
    <g>
      <path class="cls-2" d="M38.88,87.14c.02,1.73-.24,3.47-.75,5.13-.29.94-.67,1.87-.78,2.85s.1,2.06.82,2.74,2.02.75,2.63-.02c.25-.32.36-.72.42-1.12.24-1.66-.3-3.32-.84-4.9-.5-1.48-1-2.96-1.5-4.45"/>
      <path d="M38.73,87.14c.01,1.9-.3,3.76-.89,5.56-.48,1.46-1.04,3.1-.29,4.57.3.58.79,1.02,1.43,1.19.56.15,1.21.09,1.68-.27.6-.46.73-1.27.77-1.98.05-.9-.11-1.8-.34-2.66-.28-1.04-.65-2.06-1-3.09s-.7-2.09-1.06-3.13c-.06-.18-.35-.1-.29.08.57,1.68,1.15,3.35,1.7,5.03.27.83.53,1.68.64,2.55.1.79.14,1.74-.21,2.48-.3.61-.95.85-1.6.75s-1.13-.5-1.43-1.07c-.76-1.42-.13-3.07.33-4.47.59-1.79.89-3.66.87-5.54,0-.19-.3-.19-.3,0h0Z"/>
    </g>
    <g>
      <path class="cls-2" d="M30.71,99.44c-1.67,2.6-2.69,5.61-2.95,8.69-.13,1.56-.02,3.25.94,4.48.79,1.01,2.13,1.56,3.41,1.41.26-.03.52-.09.75-.22.59-.33.87-1.03,1.02-1.69.48-2.23-.09-4.56-1.02-6.64-.85-1.89-2.02-3.75-2.01-5.83"/>
      <path d="M30.58,99.36c-1.27,1.99-2.18,4.21-2.65,6.53-.41,2-.74,4.46.33,6.32.49.86,1.3,1.49,2.24,1.79.83.26,1.98.34,2.69-.25.78-.65.94-1.86,1-2.81.07-1.19-.12-2.39-.45-3.53-.38-1.31-.99-2.52-1.58-3.75s-1.15-2.59-1.16-4.01c0-.19-.3-.19-.3,0,.01,2.15,1.18,4,2.03,5.9.92,2.06,1.55,4.49.96,6.73-.13.5-.36,1.04-.81,1.33-.43.28-.99.31-1.48.27-1.03-.08-2.02-.61-2.63-1.44-1.26-1.69-.97-4.15-.62-6.09.44-2.43,1.36-4.75,2.69-6.83.1-.16-.16-.31-.26-.15h0Z"/>
    </g>
    <g>
      <path class="cls-2" d="M201.96,230.37c0,1.43-.62,2.79-1.26,4.07s-1.33,2.59-1.49,4.01.35,3.03,1.59,3.73c.48.27,1.03.39,1.58.46.39.05.79.07,1.15-.07.98-.38,1.17-1.67,1.18-2.72.02-3.34-.38-6.96-2.65-9.41"/>
      <path d="M201.81,230.37c-.03,2.35-1.57,4.27-2.34,6.39-.6,1.67-.71,3.8.69,5.12.69.66,1.67.9,2.6.94.87.03,1.53-.41,1.84-1.21s.28-1.69.27-2.53c-.02-.98-.08-1.97-.21-2.94-.3-2.12-1.01-4.21-2.48-5.81-.13-.14-.34.07-.21.21,1.22,1.33,1.9,3.02,2.25,4.77.18.91.28,1.83.32,2.75.04.83.09,1.69,0,2.52-.09.78-.37,1.7-1.23,1.9-.5.12-1.09,0-1.59-.11s-.92-.31-1.28-.64c-1.41-1.26-1.24-3.39-.63-4.99.8-2.12,2.28-4.02,2.31-6.37,0-.19-.3-.19-.3,0h0Z"/>
    </g>
    <g>
      <path class="cls-2" d="M264.01,157.93c.18,1.57-.17,3.19-.97,4.55-.49.83-1.15,1.57-1.43,2.5-.28.93-.14,1.93.19,2.84.27.75.71,1.5,1.42,1.87,1.11.56,2.55-.06,3.23-1.09s.77-2.36.66-3.6c-.24-2.62-1.29-5.17-2.98-7.19"/>
      <path d="M263.86,157.93c.11,1.05,0,2.11-.33,3.11s-.94,1.82-1.5,2.71-.81,1.76-.7,2.77c.1.9.41,1.86.97,2.59.49.63,1.21,1.01,2.02.94s1.53-.48,2.04-1.08c1.22-1.44,1.05-3.62.71-5.35-.43-2.17-1.42-4.21-2.83-5.92-.12-.15-.33.06-.21.21,1.18,1.42,2.04,3.08,2.53,4.86.46,1.66.79,3.76-.01,5.37-.75,1.5-2.83,2.29-4,.78-.56-.72-.87-1.72-.92-2.62-.06-1,.3-1.83.83-2.65s1.1-1.68,1.41-2.67.4-2.02.29-3.04c-.02-.19-.32-.19-.3,0h0Z"/>
    </g>
    <g>
      <path class="cls-2" d="M260.3,95.61c.07,2.8-1.1,5.49-1.26,8.29-.07,1.22.17,2.65,1.24,3.24.68.37,1.55.29,2.2-.12s1.09-1.11,1.29-1.86c.14-.54.16-1.11.13-1.67-.17-2.89-1.71-5.54-3.59-7.74"/>
      <path d="M260.15,95.61c.04,2.11-.6,4.14-.98,6.19-.29,1.51-.64,3.49.35,4.84.46.63,1.2.95,1.97.87s1.5-.56,1.95-1.22c1.02-1.51.67-3.65.14-5.28-.64-2-1.81-3.78-3.16-5.37-.13-.15-.34.07-.21.21,1.12,1.32,2.11,2.77,2.77,4.38.32.77.55,1.57.68,2.39.14.9.19,1.88-.1,2.76-.27.79-.85,1.51-1.67,1.76s-1.67,0-2.15-.7c-.92-1.31-.52-3.26-.24-4.7.4-2.03,1.01-4.03.96-6.12,0-.19-.3-.19-.3,0h0Z"/>
    </g>
    <g>
      <path class="cls-2" d="M253.06,63.32c-1.08,1.78-1.83,3.76-2.19,5.82-.13.76-.21,1.54-.09,2.3s.48,1.51,1.08,1.99c.62.49,1.47.66,2.26.55.99-.14,1.97-.8,2.18-1.77.1-.45.03-.91-.07-1.36-.28-1.24-.8-2.41-1.33-3.58-.56-1.23-1.11-2.47-1.67-3.7"/>
      <path d="M252.93,63.24c-.92,1.53-1.61,3.19-2.01,4.92-.37,1.58-.68,3.5.38,4.89.93,1.21,2.75,1.41,4.03.64.58-.35,1.04-.92,1.15-1.6.13-.88-.2-1.83-.49-2.64-.35-.98-.8-1.93-1.23-2.88-.46-1.03-.93-2.06-1.39-3.08-.08-.18-.34-.02-.26.15.71,1.58,1.45,3.16,2.14,4.76.34.8.65,1.63.84,2.48.18.79.16,1.58-.45,2.19-1.02,1.02-2.91,1.07-3.92.02-1.18-1.22-.9-3.12-.57-4.62.39-1.79,1.09-3.51,2.03-5.08.1-.17-.16-.32-.26-.15h0Z"/>
    </g>
    <g>
      <path class="cls-2" d="M145.07,75.18c-.09,1.77-.47,3.53-1.13,5.18-.3.74-.65,1.46-.83,2.23-.21.88-.2,1.84.17,2.67s1.11,1.51,2.01,1.69,1.9-.22,2.33-1.02c.25-.47.3-1.02.32-1.55.1-2.83-.49-5.68-1.71-8.23-.25-.52-.56-1.07-1.07-1.34"/>
      <path d="M144.92,75.18c-.06,1.08-.22,2.15-.49,3.2s-.66,1.97-1.05,2.93c-.37.9-.64,1.85-.54,2.84.08.83.42,1.64,1.04,2.22.55.51,1.28.83,2.04.76.71-.07,1.4-.43,1.78-1.05.49-.8.42-1.9.39-2.8-.03-.99-.14-1.97-.33-2.94-.22-1.12-.54-2.21-.97-3.27-.35-.85-.72-1.9-1.56-2.39-.17-.1-.32.16-.15.26.75.44,1.09,1.4,1.4,2.16.34.83.62,1.69.83,2.57s.36,1.81.43,2.73.14,1.9-.04,2.8c-.16.82-.71,1.42-1.54,1.6s-1.59-.13-2.15-.69c-.6-.6-.89-1.42-.91-2.26-.03-.98.31-1.89.69-2.77.8-1.89,1.31-3.83,1.42-5.88.01-.19-.29-.19-.3,0h0Z"/>
    </g>
    <g>
      <path class="cls-2" d="M100.39,92.68c-.09,1.77-.47,3.53-1.13,5.18-.3.74-.65,1.46-.83,2.23-.21.88-.2,1.84.17,2.67s1.11,1.51,2.01,1.69,1.9-.22,2.33-1.02c.25-.47.3-1.02.32-1.55.1-2.83-.49-5.68-1.71-8.23-.25-.52-.56-1.07-1.07-1.34"/>
      <path d="M100.24,92.68c-.06,1.08-.22,2.15-.49,3.2s-.66,1.97-1.05,2.93c-.37.9-.64,1.85-.54,2.84.08.83.42,1.64,1.04,2.22.55.51,1.28.83,2.04.76.71-.07,1.4-.43,1.78-1.05.49-.8.42-1.9.39-2.8-.03-.99-.14-1.97-.33-2.94-.22-1.12-.54-2.21-.97-3.27-.35-.85-.72-1.9-1.56-2.39-.17-.1-.32.16-.15.26.75.44,1.09,1.4,1.4,2.16.34.83.62,1.69.83,2.57s.36,1.81.43,2.73.14,1.9-.04,2.8c-.16.82-.71,1.42-1.54,1.6s-1.59-.13-2.15-.69c-.6-.6-.89-1.42-.91-2.26-.03-.98.31-1.89.69-2.77.8-1.89,1.31-3.83,1.42-5.88.01-.19-.29-.19-.3,0h0Z"/>
    </g>
    <g>
      <path class="cls-2" d="M163.72,63.19c-.24,1.44-1.06,2.7-1.81,3.95s-1.46,2.6-1.46,4.06.96,3.01,2.41,3.19c.68.08,1.36-.14,2-.37.9-.32,1.9-.73,2.26-1.62.22-.54.15-1.15.04-1.73-.51-2.76-1.74-5.39-3.53-7.55"/>
      <path d="M163.57,63.15c-.38,2.12-1.9,3.75-2.73,5.68-.68,1.59-.85,3.51.42,4.87.56.6,1.33.91,2.15.84.51-.05,1-.21,1.48-.38.4-.14.79-.29,1.16-.49.74-.4,1.28-1.02,1.34-1.89.04-.48-.06-.97-.15-1.44-.1-.5-.23-1-.37-1.48-.65-2.14-1.72-4.13-3.14-5.85-.12-.15-.33.06-.21.21,1.18,1.43,2.12,3.06,2.76,4.81.31.84.55,1.7.71,2.58.09.49.18,1.02.05,1.51-.1.41-.36.74-.69.99-.65.51-1.54.79-2.33,1-.86.22-1.72.14-2.39-.48-1.36-1.25-1.18-3.21-.49-4.76.85-1.92,2.34-3.55,2.72-5.66.03-.19-.26-.27-.29-.08h0Z"/>
    </g>
    <g>
      <path class="cls-2" d="M153.12,56.41c-.65.81-1.22,1.69-1.68,2.62-.26.53-.49,1.08-.56,1.67-.05.51.03,1.02.14,1.51.17.77.46,1.59,1.13,2.02.82.53,2,.24,2.65-.49s.8-1.8.62-2.76-.68-1.83-1.22-2.65c-.39-.58-.81-1.17-.96-1.85"/>
      <path d="M153.01,56.31c-.46.57-.88,1.18-1.25,1.81s-.73,1.29-.92,2-.13,1.45.04,2.18c.13.58.32,1.17.7,1.63.75.93,2.09.92,3,.22,1.01-.79,1.21-2.23.93-3.41-.18-.77-.55-1.48-.97-2.14s-.98-1.35-1.16-2.16c-.04-.19-.33-.11-.29.08.14.63.49,1.17.84,1.69s.71,1.09.98,1.68c.49,1.1.66,2.46-.04,3.51-.58.88-1.92,1.32-2.8.59-.44-.36-.67-.91-.82-1.44-.18-.64-.31-1.35-.2-2.01.13-.75.5-1.46.88-2.11s.81-1.31,1.29-1.9c.12-.15-.09-.36-.21-.21h0Z"/>
    </g>
    <g>
      <path class="cls-2" d="M118.63,74.01c-.65.81-1.22,1.69-1.68,2.62-.26.53-.49,1.08-.56,1.67-.05.51.03,1.02.14,1.51.17.77.46,1.59,1.13,2.02.82.53,2,.24,2.65-.49s.8-1.8.62-2.76-.68-1.83-1.22-2.65c-.39-.58-.81-1.17-.96-1.85"/>
      <path d="M118.52,73.91c-.46.57-.88,1.18-1.25,1.81s-.73,1.29-.92,2-.13,1.45.04,2.18c.13.58.32,1.17.7,1.63.75.93,2.09.92,3,.22,1.01-.79,1.21-2.23.93-3.41-.18-.77-.55-1.48-.97-2.14s-.98-1.35-1.16-2.16c-.04-.19-.33-.11-.29.08.14.63.49,1.17.84,1.69s.71,1.09.98,1.68c.49,1.1.66,2.46-.04,3.51-.58.88-1.92,1.32-2.8.59-.44-.36-.67-.91-.82-1.44-.18-.64-.31-1.35-.2-2.01.13-.75.5-1.46.88-2.11s.81-1.31,1.29-1.9c.12-.15-.09-.36-.21-.21h0Z"/>
    </g>
  </g>
  <line class="cls-1" x1="203.62" y1="206.41" x2="203.62" y2="223.76"/>
</svg>