<?xml version="1.0" encoding="UTF-8"?>
<svg id="Layer_1" data-name="Layer 1" xmlns="http://www.w3.org/2000/svg" viewBox="0 0 282.68 282.67">
  <defs>
    <style>
      .cls-1 {
        fill: #fff;
        stroke: #000;
        stroke-linecap: round;
        stroke-linejoin: round;
        stroke-width: .5px;
      }
    </style>
  </defs>
  <path class="cls-1" d="M125.33,185.04l-3.3,1.88,1.31-4.79c.36,0,.73-.07,1.07-.26l5.73-3.28c1-.57,1.34-1.85.78-2.85-.57-1-1.85-1.34-2.85-.78l-3.3,1.88,1.72-6.33c.3-1.11-.36-2.26-1.46-2.56s-2.26.36-2.56,1.46l-1.59,5.83-1.52-2.67c-.57-1-1.85-1.34-2.85-.78-1,.57-1.34,1.85-.78,2.85l3.28,5.73c.1.17.22.31.35.44l-1.22,4.49-1.52-2.67c-.57-1-1.85-1.34-2.85-.78-1,.57-1.34,1.85-.78,2.85l3.28,5.73c.1.17.22.31.35.44l-.87,3.19c-.3,1.11.36,2.26,1.46,2.56s2.26-.36,2.56-1.46l.82-2.99c.36,0,.73-.07,1.07-.26l5.73-3.28c1-.57,1.34-1.85.78-2.85-.57-1-1.85-1.34-2.85-.78Z"/>
  <polygon class="cls-1" points="105.15 184.47 110.03 191.02 114.9 197.55 113.88 205.64 112.86 213.74 107.99 207.19 103.11 200.66 104.14 192.57 105.15 184.47"/>
  <path class="cls-1" d="M87.88,194.9l3.8.02-3.5-3.52c-.31.19-.67.3-1.06.3l-6.6-.03c-1.15,0-2.08-.95-2.08-2.09,0-1.15.95-2.08,2.09-2.08l3.8.02-4.62-4.66c-.81-.81-.8-2.14.01-2.95s2.14-.8,2.95.01l4.25,4.29v-3.07c.02-1.15.96-2.08,2.11-2.08,1.15,0,2.08.95,2.08,2.09l-.03,6.6c0,.19-.04.37-.09.55l3.28,3.31v-3.07c.02-1.15.96-2.08,2.11-2.08,1.15,0,2.08.95,2.08,2.09l-.03,6.6c0,.19-.04.37-.09.55l2.33,2.35c.81.81.8,2.14-.01,2.95s-2.14.8-2.95-.01l-2.19-2.2c-.31.19-.67.3-1.06.3l-6.6-.03c-1.15,0-2.08-.95-2.08-2.09,0-1.15.95-2.08,2.09-2.08Z"/>
  <path class="cls-1" d="M147.26,229.5l-1.88-3.3,4.79,1.31c0,.36.07.73.26,1.07l3.28,5.73c.57,1,1.85,1.34,2.85.78,1-.57,1.34-1.85.78-2.85l-1.88-3.3,6.33,1.72c1.11.3,2.26-.36,2.56-1.46.3-1.11-.36-2.26-1.46-2.56l-5.83-1.59,2.67-1.52c1-.57,1.34-1.85.78-2.85-.57-1-1.85-1.34-2.85-.78l-5.73,3.28c-.17.1-.31.22-.44.35l-4.49-1.22,2.67-1.52c1-.57,1.34-1.85.78-2.85-.57-1-1.85-1.34-2.85-.78l-5.73,3.28c-.17.1-.31.22-.44.35l-3.19-.87c-1.11-.3-2.26.36-2.56,1.46s.36,2.26,1.46,2.56l2.99.82c0,.36.07.73.26,1.07l3.28,5.73c.57,1,1.85,1.34,2.85.78,1-.57,1.34-1.85.78-2.85Z"/>
  <polygon class="cls-1" points="147.82 209.32 141.27 214.2 134.74 219.07 126.65 218.05 118.55 217.03 125.1 212.16 131.63 207.28 139.72 208.31 147.82 209.32"/>
  <path class="cls-1" d="M137.39,192.05l-.02,3.8,3.52-3.5c-.19-.31-.3-.67-.3-1.06l.03-6.6c0-1.15.95-2.08,2.09-2.08,1.15,0,2.08.95,2.08,2.09l-.02,3.8,4.66-4.62c.81-.81,2.14-.8,2.95.01s.8,2.14-.01,2.95l-4.29,4.25h3.07c1.15.02,2.08.96,2.08,2.11,0,1.15-.95,2.08-2.09,2.08l-6.6-.03c-.19,0-.37-.04-.55-.09l-3.31,3.28h3.07c1.15.02,2.08.96,2.08,2.11,0,1.15-.95,2.08-2.09,2.08l-6.6-.03c-.19,0-.37-.04-.55-.09l-2.35,2.33c-.81.81-2.14.8-2.95-.01s-.8-2.14.01-2.95l2.2-2.19c-.19-.31-.3-.67-.3-1.06l.03-6.6c0-1.15.95-2.08,2.09-2.08,1.15,0,2.08.95,2.08,2.09Z"/>
  <path class="cls-1" d="M89.31,244.76l.02-3.8-3.52,3.5c.19.31.3.67.3,1.06l-.03,6.6c0,1.15-.95,2.08-2.09,2.08-1.15,0-2.08-.95-2.08-2.09l.02-3.8-4.66,4.62c-.81.81-2.14.8-2.95-.01s-.8-2.14.01-2.95l4.29-4.25h-3.07c-1.15-.02-2.08-.96-2.08-2.11,0-1.15.95-2.08,2.09-2.08l6.6.03c.19,0,.37.04.55.09l3.31-3.28h-3.07c-1.15-.02-2.08-.96-2.08-2.11,0-1.15.95-2.08,2.09-2.08l6.6.03c.19,0,.37.04.55.09l2.35-2.33c.81-.81,2.14-.8,2.95.01s.8,2.14-.01,2.95l-2.2,2.19c.19.31.3.67.3,1.06l-.03,6.6c0,1.15-.95,2.08-2.09,2.08-1.15,0-2.08-.95-2.08-2.09Z"/>
  <polygon class="cls-1" points="78.88 227.48 86.98 228.5 95.07 229.52 101.6 224.65 108.15 219.77 100.05 218.76 91.96 217.73 85.43 222.61 78.88 227.48"/>
  <path class="cls-1" d="M79.44,207.31l1.88,3.3-4.79-1.31c0-.36-.07-.73-.26-1.07l-3.28-5.73c-.57-1-1.85-1.34-2.85-.78-1,.57-1.34,1.85-.78,2.85l1.88,3.3-6.33-1.72c-1.11-.3-2.26.36-2.56,1.46s.36,2.26,1.46,2.56l5.83,1.59-2.67,1.52c-1,.57-1.34,1.85-.78,2.85.57,1,1.85,1.34,2.85.78l5.73-3.28c.17-.1.31-.22.44-.35l4.49,1.22-2.67,1.52c-1,.57-1.34,1.85-.78,2.85.57,1,1.85,1.34,2.85.78l5.73-3.28c.17-.1.31-.22.44-.35l3.19.87c1.11.3,2.26-.36,2.56-1.46s-.36-2.26-1.46-2.56l-2.99-.82c0-.36-.07-.73-.26-1.07l-3.28-5.73c-.57-1-1.85-1.34-2.85-.78-1,.57-1.34,1.85-.78,2.85Z"/>
  <polygon class="cls-1" points="131.62 188.07 130.43 196.15 129.26 204.21 122.82 209.21 116.38 214.22 117.56 206.14 118.73 198.07 125.18 193.08 131.62 188.07"/>
  <polygon class="cls-1" points="110.04 215.89 101.96 214.7 93.9 213.53 88.9 207.09 83.89 200.64 91.97 201.83 100.04 203 105.03 209.44 110.04 215.89"/>
  <path class="cls-1" d="M140.02,240.81l-3.8-.02,3.5,3.52c.31-.19.67-.3,1.06-.3l6.6.03c1.15,0,2.08.95,2.08,2.09,0,1.15-.95,2.08-2.09,2.08l-3.8-.02,4.62,4.66c.81.81.8,2.14-.01,2.95s-2.14.8-2.95-.01l-4.25-4.29v3.07c-.02,1.15-.96,2.08-2.11,2.08-1.15,0-2.08-.95-2.08-2.09l.03-6.6c0-.19.04-.37.09-.55l-3.28-3.31v3.07c-.02,1.15-.96,2.08-2.11,2.08-1.15,0-2.08-.95-2.08-2.09l.03-6.6c0-.19.04-.37.09-.55l-2.33-2.35c-.81-.81-.8-2.14.01-2.95s2.14-.8,2.95.01l2.19,2.2c.31-.19.67-.3,1.06-.3l6.6.03c1.15,0,2.08.95,2.08,2.09,0,1.15-.95,2.08-2.09,2.08Z"/>
  <polygon class="cls-1" points="122.74 251.24 123.75 243.14 124.78 235.05 119.9 228.52 115.03 221.97 114.02 230.07 112.99 238.16 117.87 244.69 122.74 251.24"/>
  <path class="cls-1" d="M102.57,250.67l3.3-1.88-1.31,4.79c-.36,0-.73.07-1.07.26l-5.73,3.28c-1,.57-1.34,1.85-.78,2.85.57,1,1.85,1.34,2.85.78l3.3-1.88-1.72,6.33c-.3,1.11.36,2.26,1.46,2.56s2.26-.36,2.56-1.46l1.59-5.83,1.52,2.67c.57,1,1.85,1.34,2.85.78,1-.57,1.34-1.85.78-2.85l-3.28-5.73c-.1-.17-.22-.31-.35-.44l1.22-4.49,1.52,2.67c.57,1,1.85,1.34,2.85.78,1-.57,1.34-1.85.78-2.85l-3.28-5.73c-.1-.17-.22-.31-.35-.44l.87-3.19c.3-1.11-.36-2.26-1.46-2.56s-2.26.36-2.56,1.46l-.82,2.99c-.36,0-.73.07-1.07.26l-5.73,3.28c-1,.57-1.34,1.85-.78,2.85.57,1,1.85,1.34,2.85.78Z"/>
  <polygon class="cls-1" points="144 235.07 138.99 228.62 134 222.18 125.93 221.01 117.85 219.82 122.86 226.27 127.86 232.71 135.92 233.88 144 235.07"/>
  <polygon class="cls-1" points="111.52 221.49 105.07 226.5 98.63 231.49 97.46 239.56 96.27 247.64 102.72 242.63 109.16 237.63 110.33 229.57 111.52 221.49"/>
  <path class="cls-1" d="M225.18,130.94l-2.46-.4,2.64-1.9c.18.15.4.27.66.31l4.28.7c.74.12,1.45-.39,1.57-1.13.12-.74-.39-1.45-1.13-1.57l-2.46-.4,3.49-2.51c.61-.44.75-1.3.31-1.91s-1.3-.75-1.91-.31l-3.22,2.32.32-1.99c.12-.74-.39-1.45-1.13-1.57-.74-.12-1.45.39-1.57,1.13l-.7,4.28c-.02.12-.02.25,0,.37l-2.48,1.79.32-1.99c.12-.74-.39-1.45-1.13-1.57-.74-.12-1.45.39-1.57,1.13l-.7,4.28c-.02.12-.02.25,0,.37l-1.76,1.27c-.61.44-.75,1.3-.31,1.91s1.3.75,1.91.31l1.65-1.19c.18.15.4.27.66.31l4.28.7c.74.12,1.45-.39,1.57-1.13.12-.74-.39-1.45-1.13-1.57Z"/>
  <polygon class="cls-1" points="215.13 122.32 214.91 127.67 214.7 133.02 210.84 136.72 206.97 140.43 207.19 135.08 207.4 129.73 211.26 126.03 215.13 122.32"/>
  <path class="cls-1" d="M202.01,120.51l1.93,1.58-.33-3.24c-.24-.03-.47-.13-.66-.29l-3.36-2.74c-.58-.48-.67-1.34-.19-1.93.48-.58,1.34-.67,1.93-.19l1.93,1.58-.43-4.28c-.08-.75.48-1.42,1.22-1.5s1.42.48,1.5,1.22l.4,3.94,1.27-1.56c.48-.58,1.34-.67,1.93-.19.58.48.67,1.34.19,1.93l-2.74,3.36c-.08.1-.17.18-.27.25l.31,3.04,1.27-1.56c.48-.58,1.34-.67,1.93-.19.58.48.67,1.34.19,1.93l-2.74,3.36c-.08.1-.17.18-.27.25l.22,2.16c.08.75-.48,1.42-1.22,1.5s-1.42-.48-1.5-1.22l-.2-2.03c-.24-.03-.47-.13-.66-.29l-3.36-2.74c-.58-.48-.67-1.34-.19-1.93.48-.58,1.34-.67,1.93-.19Z"/>
  <path class="cls-1" d="M218.01,162.66l.4-2.46,1.9,2.64c-.15.18-.27.4-.31.66l-.7,4.28c-.12.74.39,1.45,1.13,1.57.74.12,1.45-.39,1.57-1.13l.4-2.46,2.51,3.49c.44.61,1.3.75,1.91.31s.75-1.3.31-1.91l-2.32-3.22,1.99.32c.74.12,1.45-.39,1.57-1.13.12-.74-.39-1.45-1.13-1.57l-4.28-.7c-.12-.02-.25-.02-.37,0l-1.79-2.48,1.99.32c.74.12,1.45-.39,1.57-1.13.12-.74-.39-1.45-1.13-1.57l-4.28-.7c-.12-.02-.25-.02-.37,0l-1.27-1.76c-.44-.61-1.3-.75-1.91-.31s-.75,1.3-.31,1.91l1.19,1.65c-.15.18-.27.4-.31.66l-.7,4.28c-.12.74.39,1.45,1.13,1.57.74.12,1.45-.39,1.57-1.13Z"/>
  <polygon class="cls-1" points="226.63 152.61 221.27 152.39 215.93 152.18 212.23 148.32 208.52 144.46 213.87 144.68 219.21 144.89 222.91 148.75 226.63 152.61"/>
  <path class="cls-1" d="M228.44,139.49l-1.58,1.93,3.24-.33c.03-.24.13-.47.29-.66l2.74-3.36c.48-.58,1.34-.67,1.93-.19.58.48.67,1.34.19,1.93l-1.58,1.93,4.28-.43c.75-.08,1.42.48,1.5,1.22s-.48,1.42-1.22,1.5l-3.94.4,1.56,1.27c.58.48.67,1.34.19,1.93-.48.58-1.34.67-1.93.19l-3.36-2.74c-.1-.08-.18-.17-.25-.27l-3.04.31,1.56,1.27c.58.48.67,1.34.19,1.93-.48.58-1.34.67-1.93.19l-3.36-2.74c-.1-.08-.18-.17-.25-.27l-2.16.22c-.75.08-1.42-.48-1.5-1.22s.48-1.42,1.22-1.5l2.03-.2c.03-.24.13-.47.29-.66l2.74-3.36c.48-.58,1.34-.67,1.93-.19.58.48.67,1.34.19,1.93Z"/>
  <path class="cls-1" d="M182.16,146.53l1.58-1.93-3.24.33c-.03.24-.13.47-.29.66l-2.74,3.36c-.48.58-1.34.67-1.93.19-.58-.48-.67-1.34-.19-1.93l1.58-1.93-4.28.43c-.75.08-1.42-.48-1.5-1.22s.48-1.42,1.22-1.5l3.94-.4-1.56-1.27c-.58-.48-.67-1.34-.19-1.93.48-.58,1.34-.67,1.93-.19l3.36,2.74c.1.08.18.17.25.27l3.04-.31-1.56-1.27c-.58-.48-.67-1.34-.19-1.93.48-.58,1.34-.67,1.93-.19l3.36,2.74c.1.08.18.17.25.27l2.16-.22c.75-.08,1.42.48,1.5,1.22s-.48,1.42-1.22,1.5l-2.03.2c-.03.24-.13.47-.29.66l-2.74,3.36c-.48.58-1.34.67-1.93.19-.58-.48-.67-1.34-.19-1.93Z"/>
  <polygon class="cls-1" points="183.97 133.41 187.68 137.27 191.38 141.13 196.73 141.34 202.08 141.56 198.37 137.7 194.67 133.84 189.32 133.63 183.97 133.41"/>
  <path class="cls-1" d="M192.59,123.35l-.4,2.46-1.9-2.64c.15-.18.27-.4.31-.66l.7-4.28c.12-.74-.39-1.45-1.13-1.57-.74-.12-1.45.39-1.57,1.13l-.4,2.46-2.51-3.49c-.44-.61-1.3-.75-1.91-.31s-.75,1.3-.31,1.91l2.32,3.22-1.99-.32c-.74-.12-1.45.39-1.57,1.13-.12.74.39,1.45,1.13,1.57l4.28.7c.12.02.25.02.37,0l1.79,2.48-1.99-.32c-.74-.12-1.45.39-1.57,1.13-.12.74.39,1.45,1.13,1.57l4.28.7c.12.02.25.02.37,0l1.27,1.76c.44.61,1.3.75,1.91.31s.75-1.3.31-1.91l-1.19-1.65c.15-.18.27-.4.31-.66l.7-4.28c.12-.74-.39-1.45-1.13-1.57-.74-.12-1.45.39-1.57,1.13Z"/>
  <polygon class="cls-1" points="227.14 135.08 223.2 138.71 219.27 142.34 213.92 142.23 208.57 142.12 212.51 138.5 216.44 134.87 221.78 134.98 227.14 135.08"/>
  <polygon class="cls-1" points="204.65 140.36 201.02 136.42 197.39 132.49 197.5 127.15 197.61 121.79 201.24 125.73 204.87 129.66 204.75 135 204.65 140.36"/>
  <path class="cls-1" d="M209.65,165.45l-1.93-1.58.33,3.24c.24.03.47.13.66.29l3.36,2.74c.58.48.67,1.34.19,1.93-.48.58-1.34.67-1.93.19l-1.93-1.58.43,4.28c.08.75-.48,1.42-1.22,1.5s-1.42-.48-1.5-1.22l-.4-3.94-1.27,1.56c-.48.58-1.34.67-1.93.19-.58-.48-.67-1.34-.19-1.93l2.74-3.36c.08-.1.17-.18.27-.25l-.31-3.04-1.27,1.56c-.48.58-1.34.67-1.93.19-.58-.48-.67-1.34-.19-1.93l2.74-3.36c.08-.1.17-.18.27-.25l-.22-2.16c-.08-.75.48-1.42,1.22-1.5s1.42.48,1.5,1.22l.2,2.03c.24.03.47.13.66.29l3.36,2.74c.58.48.67,1.34.19,1.93-.48.58-1.34.67-1.93.19Z"/>
  <polygon class="cls-1" points="196.53 163.63 200.39 159.92 204.25 156.22 204.46 150.87 204.68 145.52 200.82 149.23 196.96 152.94 196.75 158.28 196.53 163.63"/>
  <path class="cls-1" d="M186.48,155.02l2.46.4-2.64,1.9c-.18-.15-.4-.27-.66-.31l-4.28-.7c-.74-.12-1.45.39-1.57,1.13-.12.74.39,1.45,1.13,1.57l2.46.4-3.49,2.51c-.61.44-.75,1.3-.31,1.91s1.3.75,1.91.31l3.22-2.32-.32,1.99c-.12.74.39,1.45,1.13,1.57.74.12,1.45-.39,1.57-1.13l.7-4.28c.02-.12.02-.25,0-.37l2.48-1.79-.32,1.99c-.12.74.39,1.45,1.13,1.57.74.12,1.45-.39,1.57-1.13l.7-4.28c.02-.12.02-.25,0-.37l1.76-1.27c.61-.44.75-1.3.31-1.91s-1.3-.75-1.91-.31l-1.65,1.19c-.18-.15-.4-.27-.66-.31l-4.28-.7c-.74-.12-1.45.39-1.57,1.13-.12.74.39,1.45,1.13,1.57Z"/>
  <polygon class="cls-1" points="214.05 164.16 214.15 158.81 214.27 153.46 210.64 149.53 207.01 145.59 206.9 150.95 206.79 156.29 210.42 160.22 214.05 164.16"/>
  <polygon class="cls-1" points="203.09 143.83 197.73 143.72 192.39 143.61 188.46 147.24 184.52 150.87 189.87 150.97 195.22 151.09 199.15 147.46 203.09 143.83"/>
  <path class="cls-1" d="M142.17,45.37l-2.29-.67,2.74-1.5c.16.17.35.3.59.37l3.98,1.17c.69.2,1.42-.2,1.63-.89.2-.69-.2-1.42-.89-1.63l-2.29-.67,3.62-1.98c.63-.35.87-1.15.52-1.78-.35-.63-1.15-.87-1.78-.52l-3.33,1.82.54-1.85c.2-.69-.2-1.42-.89-1.63-.69-.2-1.42.2-1.63.89l-1.17,3.98c-.03.12-.05.23-.05.35l-2.57,1.4.54-1.85c.2-.69-.2-1.42-.89-1.63-.69-.2-1.42.2-1.63.89l-1.17,3.98c-.03.12-.05.23-.05.35l-1.83,1c-.63.35-.87,1.15-.52,1.78s1.15.87,1.78.52l1.71-.94c.16.17.35.3.59.37l3.98,1.17c.69.2,1.42-.2,1.63-.89.2-.69-.2-1.42-.89-1.63Z"/>
  <polygon class="cls-1" points="133.64 35.98 132.79 41.04 131.96 46.1 127.85 49.16 123.73 52.23 124.58 47.16 125.42 42.11 129.53 39.05 133.64 35.98"/>
  <path class="cls-1" d="M121.38,32.69l1.65,1.73.07-3.12c-.22-.06-.43-.18-.6-.35l-2.87-3.01c-.5-.52-.48-1.36.04-1.85.52-.5,1.36-.48,1.85.04l1.65,1.73.1-4.12c.02-.72.62-1.3,1.34-1.28s1.3.62,1.28,1.34l-.09,3.8,1.4-1.33c.52-.5,1.36-.48,1.85.04.5.52.48,1.36-.04,1.85l-3.01,2.86c-.09.08-.19.15-.29.2l-.07,2.93,1.4-1.33c.52-.5,1.36-.48,1.85.04.5.52.48,1.36-.04,1.85l-3.01,2.86c-.09.08-.19.15-.29.2l-.05,2.08c-.02.72-.62,1.3-1.34,1.28s-1.3-.62-1.28-1.34l.05-1.95c-.22-.06-.43-.18-.6-.35l-2.87-3.01c-.5-.52-.48-1.36.04-1.85.52-.5,1.36-.48,1.85.04Z"/>
  <path class="cls-1" d="M131.58,74.68l.67-2.29,1.5,2.74c-.17.16-.3.35-.37.59l-1.17,3.98c-.2.69.2,1.42.89,1.63.69.2,1.42-.2,1.63-.89l.67-2.29,1.98,3.62c.35.63,1.15.87,1.78.52s.87-1.15.52-1.78l-1.82-3.33,1.85.54c.69.2,1.42-.2,1.63-.89.2-.69-.2-1.42-.89-1.63l-3.98-1.17c-.12-.03-.23-.05-.35-.05l-1.4-2.57,1.85.54c.69.2,1.42-.2,1.63-.89.2-.69-.2-1.42-.89-1.63l-3.98-1.17c-.12-.03-.23-.05-.35-.05l-1-1.83c-.35-.63-1.15-.87-1.78-.52s-.87,1.15-.52,1.78l.94,1.71c-.17.16-.3.35-.37.59l-1.17,3.98c-.2.69.2,1.42.89,1.63.69.2,1.42-.2,1.63-.89Z"/>
  <polygon class="cls-1" points="140.97 66.14 135.91 65.3 130.85 64.46 127.79 60.35 124.72 56.24 129.78 57.08 134.84 57.92 137.9 62.03 140.97 66.14"/>
  <path class="cls-1" d="M144.25,53.89l-1.73,1.65,3.12.07c.06-.22.18-.43.35-.6l3.01-2.87c.52-.5,1.36-.48,1.85.04.5.52.48,1.36-.04,1.85l-1.73,1.65,4.12.1c.72.02,1.3.62,1.28,1.34s-.62,1.3-1.34,1.28l-3.8-.09,1.33,1.4c.5.52.48,1.36-.04,1.85-.52.5-1.36.48-1.85-.04l-2.86-3.01c-.08-.09-.15-.19-.2-.29l-2.93-.07,1.33,1.4c.5.52.48,1.36-.04,1.85-.52.5-1.36.48-1.85-.04l-2.86-3.01c-.08-.09-.15-.19-.2-.29l-2.08-.05c-.72-.02-1.3-.62-1.28-1.34s.62-1.3,1.34-1.28l1.95.05c.06-.22.18-.43.35-.6l3.01-2.87c.52-.5,1.36-.48,1.85.04.5.52.48,1.36-.04,1.85Z"/>
  <path class="cls-1" d="M99.41,55.07l1.73-1.65-3.12-.07c-.06.22-.18.43-.35.6l-3.01,2.87c-.52.5-1.36.48-1.85-.04-.5-.52-.48-1.36.04-1.85l1.73-1.65-4.12-.1c-.72-.02-1.3-.62-1.28-1.34s.62-1.3,1.34-1.28l3.8.09-1.33-1.4c-.5-.52-.48-1.36.04-1.85.52-.5,1.36-.48,1.85.04l2.86,3.01c.08.09.15.19.2.29l2.93.07-1.33-1.4c-.5-.52-.48-1.36.04-1.85.52-.5,1.36-.48,1.85.04l2.86,3.01c.08.09.15.19.2.29l2.08.05c.72.02,1.3.62,1.28,1.34s-.62,1.3-1.34,1.28l-1.95-.05c-.06.22-.18.43-.35.6l-3.01,2.87c-.52.5-1.36.48-1.85-.04-.5-.52-.48-1.36.04-1.85Z"/>
  <polygon class="cls-1" points="102.7 42.81 105.77 46.93 108.83 51.04 113.88 51.87 118.95 52.72 115.88 48.61 112.82 44.49 107.76 43.66 102.7 42.81"/>
  <path class="cls-1" d="M112.09,34.28l-.67,2.29-1.5-2.74c.17-.16.3-.35.37-.59l1.17-3.98c.2-.69-.2-1.42-.89-1.63-.69-.2-1.42.2-1.63.89l-.67,2.29-1.98-3.62c-.35-.63-1.15-.87-1.78-.52s-.87,1.15-.52,1.78l1.82,3.33-1.85-.54c-.69-.2-1.42.2-1.63.89-.2.69.2,1.42.89,1.63l3.98,1.17c.12.03.23.05.35.05l1.4,2.57-1.85-.54c-.69-.2-1.42.2-1.63.89-.2.69.2,1.42.89,1.63l3.98,1.17c.12.03.23.05.35.05l1,1.83c.35.63,1.15.87,1.78.52s.87-1.15.52-1.78l-.94-1.71c.17-.16.3-.35.37-.59l1.17-3.98c.2-.69-.2-1.42-.89-1.63-.69-.2-1.42.2-1.63.89Z"/>
  <polygon class="cls-1" points="143.54 49.54 139.36 52.52 135.2 55.51 130.13 54.76 125.05 54.03 129.23 51.04 133.39 48.06 138.46 48.8 143.54 49.54"/>
  <polygon class="cls-1" points="121.53 51.88 118.55 47.71 115.57 43.54 116.31 38.47 117.05 33.39 120.03 37.57 123.01 41.73 122.27 46.8 121.53 51.88"/>
  <path class="cls-1" d="M123.3,76.33l-1.65-1.73-.07,3.12c.22.06.43.18.6.35l2.87,3.01c.5.52.48,1.36-.04,1.85-.52.5-1.36.48-1.85-.04l-1.65-1.73-.1,4.12c-.02.72-.62,1.3-1.34,1.28s-1.3-.62-1.28-1.34l.09-3.8-1.4,1.33c-.52.5-1.36.48-1.85-.04-.5-.52-.48-1.36.04-1.85l3.01-2.86c.09-.08.19-.15.29-.2l.07-2.93-1.4,1.33c-.52.5-1.36.48-1.85-.04-.5-.52-.48-1.36.04-1.85l3.01-2.86c.09-.08.19-.15.29-.2l.05-2.08c.02-.72.62-1.3,1.34-1.28s1.3.62,1.28,1.34l-.05,1.95c.22.06.43.18.6.35l2.87,3.01c.5.52.48,1.36-.04,1.85-.52.5-1.36.48-1.85-.04Z"/>
  <polygon class="cls-1" points="111.05 73.04 115.16 69.97 119.27 66.91 120.11 61.86 120.95 56.79 116.84 59.86 112.73 62.92 111.89 67.98 111.05 73.04"/>
  <path class="cls-1" d="M102.51,63.65l2.29.67-2.74,1.5c-.16-.17-.35-.3-.59-.37l-3.98-1.17c-.69-.2-1.42.2-1.63.89-.2.69.2,1.42.89,1.63l2.29.67-3.62,1.98c-.63.35-.87,1.15-.52,1.78s1.15.87,1.78.52l3.33-1.82-.54,1.85c-.2.69.2,1.42.89,1.63.69.2,1.42-.2,1.63-.89l1.17-3.98c.03-.12.05-.23.05-.35l2.57-1.4-.54,1.85c-.2.69.2,1.42.89,1.63.69.2,1.42-.2,1.63-.89l1.17-3.98c.03-.12.05-.23.05-.35l1.83-1c.63-.35.87-1.15.52-1.78s-1.15-.87-1.78-.52l-1.71.94c-.16-.17-.35-.3-.59-.37l-3.98-1.17c-.69-.2-1.42.2-1.63.89-.2.69.2,1.42.89,1.63Z"/>
  <polygon class="cls-1" points="127.64 75.63 128.37 70.55 129.12 65.48 126.13 61.31 123.15 57.14 122.42 62.22 121.67 67.29 124.66 71.45 127.64 75.63"/>
  <polygon class="cls-1" points="119.64 54.99 114.56 54.26 109.49 53.51 105.32 56.5 101.14 59.48 106.22 60.22 111.29 60.96 115.46 57.98 119.64 54.99"/>
  <circle class="cls-1" cx="38.53" cy="199.86" r="2.49"/>
  <circle class="cls-1" cx="146.68" cy="122.9" r="3.24"/>
  <circle class="cls-1" cx="178.06" cy="58.69" r="3.24"/>
  <circle class="cls-1" cx="68.36" cy="231.36" r="2.49"/>
  <circle class="cls-1" cx="161.82" cy="141.34" r="2.08"/>
  <circle class="cls-1" cx="243.64" cy="167.88" r="2.47"/>
  <circle class="cls-1" cx="166.7" cy="131.28" r="2.08"/>
  <circle class="cls-1" cx="118.43" cy="90.4" r="2.08"/>
  <circle class="cls-1" cx="167.17" cy="61.08" r="2.08"/>
  <circle class="cls-1" cx="114.49" cy="104.57" r="2.08"/>
  <circle class="cls-1" cx="52.14" cy="227.42" r="1.74"/>
  <circle class="cls-1" cx="196.2" cy="215.58" r="2.06"/>
  <circle class="cls-1" cx="186.9" cy="217.92" r="1.83"/>
  <circle class="cls-1" cx="239.38" cy="190.32" r="1.83"/>
  <circle class="cls-1" cx="238.35" cy="197.72" r="1.83"/>
  <circle class="cls-1" cx="57.78" cy="230.29" r="1.09"/>
  <circle class="cls-1" cx="38.14" cy="216.18" r="1.09"/>
  <circle class="cls-1" cx="38.14" cy="192.75" r="1.09"/>
  <circle class="cls-1" cx="239.46" cy="157.04" r="1.29"/>
  <circle class="cls-1" cx="251.4" cy="168.04" r="1.29"/>
  <circle class="cls-1" cx="235.26" cy="181.96" r="1.29"/>
  <circle class="cls-1" cx="215.79" cy="207.9" r="1.29"/>
  <circle class="cls-1" cx="39.23" cy="188.13" r="1.09"/>
  <circle class="cls-1" cx="159.74" cy="131.28" r="1.09"/>
  <circle class="cls-1" cx="143.02" cy="115.89" r="1.09"/>
  <circle class="cls-1" cx="125.56" cy="107.8" r="1.09"/>
  <circle class="cls-1" cx="113.7" cy="94.31" r="1.09"/>
  <circle class="cls-1" cx="195.3" cy="56.15" r="1.8"/>
  <circle class="cls-1" cx="198.35" cy="50.83" r="1.31"/>
  <circle class="cls-1" cx="200.26" cy="43.96" r=".81"/>
  <circle class="cls-1" cx="203.41" cy="34.14" r="1.31"/>
  <circle class="cls-1" cx="198.35" cy="19.94" r=".88"/>
  <circle class="cls-1" cx="161.28" cy="57.24" r="1.09"/>
  <circle class="cls-1" cx="47.62" cy="173.34" r="1.09"/>
</svg>