<?xml version="1.0" encoding="UTF-8"?>
<svg id="Layer_1" data-name="Layer 1" xmlns="http://www.w3.org/2000/svg" viewBox="0 0 282.68 282.67">
  <defs>
    <style>
      .cls-1 {
        fill: #fceba4;
        stroke: #000;
        stroke-linecap: round;
        stroke-linejoin: round;
        stroke-width: .5px;
      }
    </style>
  </defs>
  <g>
    <path class="cls-1" d="M136.6,111.86s-2.78-14.44,0-20.55c2.78-6.11,6.74-13.07,6.66-18.6s.1-14.71.1-14.71c0,0,4.9,8.88,4.07,17.21s-4.02,14.92-3.33,20.27c.72,5.62,2.69,14.71,3.43,16.38h-10.92Z"/>
    <line class="cls-1" x1="141.44" y1="53.39" x2="141.44" y2="37.63"/>
    <ellipse class="cls-1" cx="159.47" cy="96" rx="11.22" ry="2.77" transform="translate(12.95 210.8) rotate(-69.13)"/>
    <circle class="cls-1" cx="153.83" cy="111.68" r="3.24"/>
    <circle class="cls-1" cx="166.19" cy="77.32" r="1.8"/>
  </g>
  <g>
    <path class="cls-1" d="M147.25,178.65s2.78,14.44,0,20.55-6.74,13.07-6.66,18.6-.1,14.71-.1,14.71c0,0-4.9-8.88-4.07-17.21.83-8.33,4.02-14.92,3.33-20.27-.72-5.62-2.69-14.71-3.43-16.38h10.92Z"/>
    <line class="cls-1" x1="142.4" y1="237.11" x2="142.4" y2="252.88"/>
    <ellipse class="cls-1" cx="124.37" cy="194.51" rx="11.22" ry="2.77" transform="translate(-101.68 241.41) rotate(-69.13)"/>
    <circle class="cls-1" cx="130.01" cy="178.83" r="3.24"/>
    <circle class="cls-1" cx="117.66" cy="213.19" r="1.8"/>
  </g>
  <g>
    <path class="cls-1" d="M161.77,117.88s8.25-12.17,14.53-14.53c6.28-2.36,14.01-4.47,17.86-8.44s10.47-10.34,10.47-10.34c0,0-2.82,9.75-9.3,15.05s-13.39,7.71-16.69,11.98c-3.46,4.48-8.5,12.31-9.16,14.01l-7.72-7.72Z"/>
    <line class="cls-1" x1="206.54" y1="79.96" x2="217.69" y2="68.81"/>
    <ellipse class="cls-1" cx="189.16" cy="122.83" rx="11.22" ry="2.77" transform="translate(-33.68 88.04) rotate(-24.13)"/>
    <circle class="cls-1" cx="174.08" cy="129.94" r="3.24"/>
    <circle class="cls-1" cx="207.12" cy="114.37" r="1.8"/>
  </g>
  <g>
    <path class="cls-1" d="M122.07,172.63s-8.25,12.17-14.53,14.53-14.01,4.47-17.86,8.44c-3.91,4.03-10.47,10.34-10.47,10.34,0,0,2.82-9.75,9.3-15.05s13.39-7.71,16.69-11.98c3.46-4.48,8.5-12.31,9.16-14.01l7.72,7.72Z"/>
    <line class="cls-1" x1="77.31" y1="210.55" x2="66.16" y2="221.7"/>
    <ellipse class="cls-1" cx="94.69" cy="167.67" rx="11.22" ry="2.77" transform="translate(-60.26 53.35) rotate(-24.13)"/>
    <circle class="cls-1" cx="109.76" cy="160.57" r="3.24"/>
    <circle class="cls-1" cx="76.73" cy="176.14" r="1.8"/>
  </g>
  <g>
    <path class="cls-1" d="M175.31,139.93s14.44-2.78,20.55,0,13.07,6.74,18.6,6.66c5.61-.08,14.71.1,14.71.1,0,0-8.88,4.9-17.21,4.07-8.33-.83-14.92-4.02-20.27-3.33-5.62.72-14.71,2.69-16.38,3.43v-10.92Z"/>
    <line class="cls-1" x1="233.78" y1="144.78" x2="249.55" y2="144.78"/>
    <ellipse class="cls-1" cx="191.17" cy="162.8" rx="2.77" ry="11.22" transform="translate(-29.06 283.42) rotate(-69.13)"/>
    <circle class="cls-1" cx="175.49" cy="157.17" r="3.24"/>
    <circle class="cls-1" cx="209.86" cy="169.52" r="1.8"/>
  </g>
  <g>
    <path class="cls-1" d="M108.53,150.58s-14.44,2.78-20.55,0c-6.11-2.78-13.07-6.74-18.6-6.66-5.61.08-14.71-.1-14.71-.1,0,0,8.88-4.9,17.21-4.07,8.33.83,14.92,4.02,20.27,3.33,5.62-.72,14.71-2.69,16.38-3.43v10.92Z"/>
    <line class="cls-1" x1="50.06" y1="145.73" x2="34.29" y2="145.73"/>
    <ellipse class="cls-1" cx="92.67" cy="127.71" rx="2.77" ry="11.22" transform="translate(-59.67 168.79) rotate(-69.13)"/>
    <circle class="cls-1" cx="108.35" cy="133.34" r="3.24"/>
    <circle class="cls-1" cx="73.98" cy="120.99" r="1.8"/>
  </g>
  <g>
    <path class="cls-1" d="M169.3,165.1s12.17,8.25,14.53,14.53,4.47,14.01,8.44,17.86,10.34,10.47,10.34,10.47c0,0-9.75-2.82-15.05-9.3-5.3-6.48-7.71-13.39-11.98-16.69-4.48-3.46-12.31-8.5-14.01-9.16l7.72-7.72Z"/>
    <line class="cls-1" x1="207.21" y1="209.87" x2="218.37" y2="221.02"/>
    <ellipse class="cls-1" cx="164.34" cy="192.49" rx="2.77" ry="11.22" transform="translate(-64.32 83.98) rotate(-24.13)"/>
    <circle class="cls-1" cx="157.24" cy="177.42" r="3.24"/>
    <circle class="cls-1" cx="172.8" cy="210.45" r="1.8"/>
  </g>
  <g>
    <path class="cls-1" d="M114.55,125.41s-12.17-8.25-14.53-14.53c-2.36-6.28-4.47-14.01-8.44-17.86-4.03-3.91-10.34-10.47-10.34-10.47,0,0,9.75,2.82,15.05,9.3,5.3,6.48,7.71,13.39,11.98,16.69,4.48,3.46,12.31,8.5,14.01,9.16l-7.72,7.72Z"/>
    <line class="cls-1" x1="76.63" y1="80.64" x2="65.48" y2="69.49"/>
    <ellipse class="cls-1" cx="119.5" cy="98.02" rx="2.77" ry="11.22" transform="translate(-29.63 57.41) rotate(-24.13)"/>
    <circle class="cls-1" cx="126.61" cy="113.09" r="3.24"/>
    <circle class="cls-1" cx="111.04" cy="80.06" r="1.8"/>
  </g>
  <path class="cls-1" d="M171,144.78h0c-5.63-.39-12.86-2.97-14.32-4.53-1.7-1.82,2.06-10.44,2.06-10.44,0,0-6.07,4.98-10.92,3.28-4.85-1.7-5.7-16.26-5.7-16.26,0,0-.85,14.56-5.7,16.26-4.85,1.7-10.92-3.28-10.92-3.28,0,0,3.76,8.62,2.06,10.44-1.45,1.56-8.69,4.14-14.32,4.53h0c5.63.39,12.86,2.97,14.32,4.53,1.7,1.82-2.06,10.44-2.06,10.44,0,0,6.07-4.98,10.92-3.28,4.85,1.7,5.7,16.26,5.7,16.26,0,0,.85-14.56,5.7-16.26,4.85-1.7,10.92,3.28,10.92,3.28,0,0-3.76-8.62-2.06-10.44,1.45-1.56,8.69-4.14,14.32-4.53Z"/>
</svg>