<?xml version="1.0" encoding="UTF-8"?>
<svg id="Layer_1" data-name="Layer 1" xmlns="http://www.w3.org/2000/svg" viewBox="0 0 289.13 430.87">
  <defs>
    <style>
      .cls-1, .cls-2 {
        fill: #f9f1b7;
      }

      .cls-1, .cls-3, .cls-4 {
        stroke: #000;
        stroke-miterlimit: 10;
        stroke-width: .5px;
      }

      .cls-3 {
        fill: #ced38d;
      }

      .cls-4 {
        fill: #fff6e3;
      }
    </style>
  </defs>
  <g>
    <path class="cls-3" d="M142.52,385.91c.33,3.05,4.96,2.83,5.67,0,.71-2.83,1.89-9.45,4.25-12.52s9.92-16.77,13.93-17.95c4.01-1.18,36.26-2.16,39.03-4.16l-1-1s16.99-7.84,16.69-10.69c0,0,16.45-9.77,18.38-9.92s1.77-4.31-13.84-4.23c-15.61.08-18.3,1.08-18.3,1.08l-1.31-2.08s-17.3,2.31-38.21,22.22c0,0,7.46-17.84,15.53-20.91s32.83-12.3,33.29-16.45l-4.15-1.85s23.45-12.61,21.68-19.3l-5.38-.15s20.3-25.22,23.84-26.3c0,0-6.54-2.08-15.61-.54l.15-2.46s-16.07,3.85-19.68,7.15l-.38-4.15s-11.07,8-12.76,11.76l-.31-6.07s-8.61.54-11.3,11.23l-2.69-3.54s-5.43,3.94-6.42,10c0,0-17.71,19.7-16.36,46.45,0,0-2.44,9.67-4.61,13.47-2.17,3.8-13.65,25.21-13.65,25.21,0,0,.18-30.1,1.63-39.77,1.45-9.67,1.81-32.63,6.78-38.32,4.97-5.69,26.03-47.99,33.98-52.24,7.95-4.25,32.08-22.5,40.22-24.13l-.36-2.54s-32.54,14.02-44.1,24.59c0,0,9.49-19.34,8.4-25.94l2.63-9.95,16.4-5.85s5.65-6.29,11.72-6.95,40.49-8.49,40.49-8.49l-4.96-1.7s-33.1,6.44-39.16,6.88l23.83-25.48-4.19-1.11-20.08,21.4-1.32-27.47-3.31.55s1.86,30.56.49,33.21-10.97,8.94-10.97,8.94l-12.47,7.17-3.42,7.28s-.22,4.96-2.98,11.03c-2.76,6.07-26.37,61.67-33.32,64.76,0,0-7.83-59.57-7.17-65.09.66-5.52,4.08-56.6,7.06-61.12,0,0,6.51-24.96,11.8-28.48s13.57-11.24,13.57-11.24c0,0,11.36-.11,15.89-2.43,4.52-2.32,17.1-13.57,17.1-13.57l-2.98-2s-8.16,9.61-14.01,11.93c-5.85,2.32-16.77,5.05-16.77,5.05l-10.26-1.29s2.98-7.61,6.95-9.16c3.97-1.54,16.88-9.39,16.88-9.39l-1.65-1.97-12.58,6.73s3.53-19.42,11.14-22.73l-4.08-3.09s-11.48,17.43-12.41,28.46l-5.57,8.95-2.87,1.31s-4.41-21.58-2.65-24.25l-3.97,3.57s1.65,17.82,3.64,19.91l.77,12.14s-7.83,8.38-9.6,21.18c0,0-5.49-33.63-10.37-39.16,0,0-.2-36.41,5.28-45.56l-4.4-1.88s-1.32,18.14-3.86,19.99c0,0-11.53-16.9-11.56-18.89l-6.53,1.32s15.58,16.11,16.72,24.6l-8.02,11.61s-13.68-7.31-14.34-10.84l-2.08,2.01s10.25,12.16,13.78,12.14l10.66,4.28s10.41,30.41,10.3,41.29c-.11,10.89-1.77,30.19-3.2,36.7-1.43,6.51-3.53,22.62-3.53,22.62,0,0-22.17-31.11-22.4-33.43s4.98-28.9,7.24-30.45l-2.73-1.43s-7.59,19.28-6.82,26.96c0,0-12.58-16.03-15.78-34.79l-2.98,3.4s3.41,16.67,9.43,24.72c0,0-19.48-14.69-24.05-24.72-4.57-10.03-6.23-16.65-5.34-18.97.88-2.32,7.28-16.19,7.28-16.19l-3.09-1.6s-7.17,14.16-7.06,17.03c0,0-10.26-10.39-11.03-10.1l-2.98,2.6s8.5,3.86,12.47,13.13c3.97,9.27,7.39,15.89,8.72,17.76,0,0-23.83-2.65-24.93-2.87s-1.04,2.87-1.04,2.87c0,0,25.13,3.2,27.01,4.48,1.89,1.28,2.37,1.8,3.08,2.28s20.18,20.98,28.58,26.5c0,0,24.6,36.96,25.44,40.09.84,3.12,9.06,73.23,8.35,77.96s-4.49,30.94-4.72,40.15c-.12,4.84-.19,19.54-.86,31.2l-1.25-10.12c-.13-1.05-.33-2.09-.59-3.11l-3.83-14.95c-4.41-15.79-9.15-28.4-9.15-28.4-4.85-11.11-13.55-22.45-18.02-32.14-4.56-9.89-7.61-41.87-7.61-41.87l7.96-8.29c3.23-1.43,7.56-16.73,7.56-16.73l-2.72-.97c.85,3.49-8.61,15.78-8.61,15.78l-12.09-7.29c-2.46-8.21,5.12-29.3,5.12-29.3l-6.49,1.48c.79,1.82-2.76,21.97-2.76,21.97-3.07-.64-11.75-16.63-11.75-16.63l-3.24,3.52c8.77,6.09,23.56,39.35,23.56,39.35-2.18,7.05,6.66,39.96,6.66,39.96-6.87-10.94-17.46-15.36-17.46-15.36l-4.29-11.38c.95-2.73-4.88-19.65-4.88-19.65l-5.09-1.62c2.71,1.7,7.57,23.19,7.57,23.19h-3.15s-8.76-5.88-8.76-5.88c-5.39-9.67-23.03-20.83-23.03-20.83l-2.45,4.5c8.3-.12,19.51,16.13,19.51,16.13l-14.23-.96-.7,2.48s14.99,1.84,19.25,1.61,10.1,5.49,10.1,5.49l-8.82,5.4s-11.08,2.01-17.36,2.3c-6.28.29-17.68-5.11-17.68-5.11l-1.89,3.05s16.09,5.08,21.17,5.33c5.08.25,15.48-4.32,15.48-4.32,0,0,10.72,3.63,16.99,4.66,15.21,2.49,12.55,8.81,22.48,21.1,2.12,1.34,10.23,10.88,14.88,22.99,0,0,16.71,47.07,15.59,57.37l-5.66-5.43c-2.82-2.33-3.1-3.08-5-5.21l-10.13-11.35c-2.04-26.41-19.02-43.99-19.02-43.99-1.54-5.85-6.49-9.18-6.49-9.18l-1.81,3.74c-3.49-10.23-10.68-9.9-10.68-9.9l.46,6c-1.84-3.53-11.95-10.28-11.95-10.28l.17,4.12c-3.38-2.89-17.13-5.07-17.13-5.07l.42,2.4c-7.69-.61-12.85,2.08-12.85,2.08,3.05.71,22.82,23.45,22.82,23.45l-4.43.69c-.67,6.75,20.22,16.8,20.22,16.8l-3.22,2.23c.87,4.03,22.44,10.63,29.49,12.85,0,0,6.05,5.49,11.01,8.33,2.36,1.35,4.65,4.66,6.22,6.19,2.85,2.78,10.59,11.58,13.31,14.48,3.71,3.95,6.38,8.38,6.98,13.89Z"/>
    <g>
      <path class="cls-4" d="M185.6,179.98s-2.77-8.4,2.44-8.57c5.21-.17,7.4,3.7,6.64,11.26,0,0,.42-11.93,8.74-8.91,0,0,4.87,3.36.42,8.91,0,0,7.23-3.53,9.33.67s-4.45,8.66-4.45,8.66c0,0,8.32.25,7.65,5.21-.67,4.96-3.61,5.21-8.66,5.29,0,0,2.86,5.55.67,7.23s-6.14,2.52-9.75-3.36c0,0,3.36,10.17-3.19,10.09-6.56-.08-5.63-8.24-5.63-8.24,0,0-.59,5.71-6.3,4.87-5.71-.84-2.27-8.74-2.27-8.74,0,0-6.81,1.09-7.98-3.19-1.18-4.29,4.62-6.98,7.56-6.14,0,0-10.25,1.18-10.25-5.21s4.96-5.04,8.07-3.87c0,0-3.46-7.78-.25-9.75s5.46-.5,7.23,3.78Z"/>
      <path class="cls-4" d="M241.7,200.17s-1.74-10.46-6.57-7.38-3.35,13.01,1.88,16.1c0,0-8.45-7.24-9.93,2.55-1.48,9.79,10.2,5.02,10.2,5.02,0,0-11.54,10.55-4.43,14.44,7.11,3.89,8.85-11.27,8.85-11.27,0,0-5.1,13.68,4.29,14.62,0,0,5.23-.94,2.28-10.87,0,0,.67,12.07,9.79,6.04,0,0,4.16-5.1-2.41-9.39,0,0,7.24,3.05,7.78-3.57.54-6.63-7.65-6.36-7.65-6.36,0,0,7.11-1.34,4.56-10.73,0,0-4.16-6.31-11.27,4.43,0,0,6.98-8.38.13-11.57,0,0-4.83-2.78-7.51,7.95Z"/>
      <path class="cls-4" d="M211.67,140.07s-5.68-4.78-2.69-7.33c2.99-2.54,4.93,1.64,4.93,1.64,0,0-.15-5.08,4.04-3.74,4.19,1.35,3.74,7.03,3.74,7.03,0,0,9.72-2.99,10.02.6.3,3.59-4.75,6.28-4.75,6.28,0,0,4.3,1.94,3.26,6.13-1.05,4.19-3.29,6.73-7.92,3.89,0,0,.19,6.58-2.37,5.68s-1.52-4.64-1.52-4.64c0,0-.9,6.43-6.28,3.29-5.38-3.14-1.64-8.52-1.64-8.52,0,0-7.03,1.5-7.03-1.5s4.19-4.64,4.19-4.64c0,0-6.73.45-5.53-3.14,1.2-3.59,4.78-3.44,9.57-1.05Z"/>
      <path class="cls-4" d="M255.55,145.38s4.76-1.85,5.19.75c.43,2.6.78,4.76-2.6,5.88,0,0,3.22.95,2.86,3.03s-3.82,2.42-3.82,2.42c0,0,2.25,3.46-1.64,5.19s-3.37-.09-6.92.61-6.66-.26-6.49-2.25c0,0-4.33-1.38-2.25-6.14,0,0-7.09-3.55-1.73-7.53,0,0,1.38-.78,2.42,1.04,0,0-2.67-3.85-1.56-5.8,1.49-2.6,4.76-4.07,7.27-.87,0,0,1.56-3.46,4.93-1.6s4.33,5.26,4.33,5.26Z"/>
      <path class="cls-4" d="M259.98,178.4s.79-3.64,0-6c-.79-2.36-1.61-5.31,1.06-6.98s4.44-3.93,6.9-.59l.98,2.46s3.44-1.87,5.9.79,4.42,4.03,2.56,7.86-2.85,4.82-2.85,4.82c0,0,1.67,3.73-5.11,3.24s-8.37-2.46-8.37-2.46c0,0-1.33-1.35-1.06-3.15Z"/>
      <path class="cls-4" d="M126.13,131.23s1.8-6.53,6.25-3.03c0,0,11.27,6.25,2.94,9.56,0,0,6.25,3.31-.28,8.05,0,0-2.37,1.33-5.68.66,0,0-1.7,4.92-4.55,3.79-2.84-1.14-1.89-5.02-1.89-5.02,0,0-2.56,5.3-5.68,3.5s-1.99-6.06,0-6.82c0,0-4.55-.39-4.17-3.13.38-2.74,1.42-5.11,5.21-4.07,0,0-2.94-5.02,1.14-6.25s6.72,2.75,6.72,2.75Z"/>
      <path class="cls-4" d="M99.24,124.63s3.55-4.86,6.16-1.68c2.61,3.17.65,5.6-1.4,6.16,0,0,5.79,3.83,3.36,7.19-2.43,3.36-5.6,2.51-5.6,2.51,0,0,1.49,4.96-2.52,4.87s-4.86-2.24-4.86-2.24c0,0-3.92,2.33-6.16-2.24,0,0-4.58-.65-3.17-3.55,1.4-2.89,4.01-2.87,4.01-2.87,0,0-6.63-.02-4.86-3.38,1.77-3.36,3.17-3.83,5.79-1.77,0,0-2.43-5.42.65-5.75s3.92,1.73,3.92,1.73c0,0-1.76-5.04,1.36-4.39,3.12.65,4.06,4.01,3.31,5.42Z"/>
      <path class="cls-4" d="M90.65,99.14s4.67-3.27,4.01,1.03-5.98,7.84-9.9,6.91-7.1-6.53-4.67-10.78,6.68-6.18,9.62-3.97c2.17,1.63,2.61,4.3.93,6.82Z"/>
      <path class="cls-4" d="M56.48,98.39s-3.83-6.26,2.33-6.07,12.32,6.35,8.03,16.71c-4.3,10.36-13.35,8.31-13.35,4.76,0,0-8.59.75-7.94-3.27.65-4.01,3.17-4.48,3.17-4.48,0,0-3.55-3.17-.37-5.88,3.17-2.71,4.76-3.83,8.12-1.77Z"/>
      <path class="cls-4" d="M59.37,139.47s3.83-7.1-1.49-9.43-6.82.56-6.82.56c0,0-3.21-4.44-5.88-2.89-3.61,2.08-3.17,5.14-1.12,7.47,0,0-5.98.65-4.67,5.14s5.98,1.68,5.98,1.68c0,0-8.59,3.64-5.23,6.07s5.7,0,5.7,0c0,0-2.73,3.35,1.68,3.08s5.04-4.3,5.04-4.3c0,0-.75,3.08,2.52,1.68s3.21-3.08,3.21-3.08c0,0,4.44-2.99,1.08-5.97Z"/>
      <g>
        <path class="cls-4" d="M162.04,122.06s-3.56-3.06-4.96,1.49c-1.4,4.55,2.01,5.77,4.11,5.42,0,0-2.27,5.25,2.45,6.47,0,0,2.19,0,2.97-.96,0,0-.09,3.15,3.06,2.54s2.27-2.71,2.27-2.71c0,0,.61,5.67,4.46,2.79,3.85-2.88,1.92-6.29,1.92-6.29,0,0,6.74,1.49,6.82-2.89.09-4.37-5.77-4.2-5.77-4.2,0,0,4.37-3.5,2.54-5.51s-4.72,0-4.72,0c0,0,4.11-4.99-.17-6.21s-5.16,1.57-5.34,4.29c0,0-.26-6.39-3.94-5.25-3.67,1.14-2.62,4.11-2.62,4.11,0,0-2.93-3.64-5.69-1.05-1.98,1.86-1.33,4.04,2.59,7.96Z"/>
        <path class="cls-4" d="M158.27,75.73s1.39-4.26,4.9-2.88,2.45,5.01,2.45,5.01c0,0,8.32-2.77,8.42,3.2,0,0,.02,3.09-3.08,3.41,0,0,3.74,3.31,0,5.22,0,0-1.94.69-4.07.4,0,0,2.99,1.67,1.73,3.34s-2.88,2.36-4.95,2.13c0,0,.17,2.82-2.25,2.88s-5.47-1.15-6.39-3.51c0,0-5.24,1.55-6.62-2.59s1.73-3.92,1.73-3.92c0,0-3.74-5.76.46-7.03l1.73-.29s-4.38-6.84.92-8.54c0,0,3.36-1.25,5.02,3.16Z"/>
        <path class="cls-4" d="M185.57,81.6c.01-.75-.16-1.48-.66-2.04-.73-.82-1.86-1.92-3.15-2.57-2.27-1.13-6.8-4.28-5.04-7.56,1.76-3.27,4.33-2.27,4.33-2.27,0,0-2.07-4.79,1.58-5.04,0,0,2.27.13,3.15,2.14,0,0,.5-3.27,2.52-2.77s2.39,3.4,2.27,4.66c0,0,4.28-5.29,7.68-.63,0,0,6.8,3.78,1.01,8.44,0,0,3.4,6.67-5.04,6.67,0,0-3.1,2.27-5.26,2.27-1.8,0-3.42,0-3.39-1.31Z"/>
        <path class="cls-4" d="M209.63,103.4s-4.91-6.36-1-9.49c0,0-3.57-6.89.45-8.47,4.02-1.58,5.25,2.89,5.25,2.89,0,0-1.45-4.69,2.57-4.02s4.69,7.48,4.69,7.48c0,0,6.81-2.12,7.37,3.35.56,5.47-4.13,4.8-4.13,4.8,0,0,5.25,5.36-2.01,7.03-7.26,1.67-11.05-1.34-13.18-3.57Z"/>
        <path class="cls-4" d="M136.94,110.32s2.01,6.59,5.81,5.14c3.8-1.45,1.45-7.15,1.45-7.15,0,0,3.01,5.36,5.58,1.56,2.57-3.8-1.12-4.91-1.12-4.91,0,0,3.46-1.34,2.57-3.68s-4.47-2.82-4.47-2.82c0,0,4.63-3.75,1.65-6.11-2.99-2.35-6,.66-6,.66,0,0,1.9-5.58-3.01-5.47,0,0-2.46-.89-3.68,3.13,0,0-2.23-2.68-4.35-.89s1.45,5.69,1.45,5.69c0,0-6.48-1.79-6.81,1.12s2.79,4.98,2.79,4.98c0,0-7.59,1.72-5.92,6.08,1.67,4.35,6.92,1.23,6.92,1.23,0,0-2.12,5.14,1.9,6.03s5.25-4.58,5.25-4.58Z"/>
        <path class="cls-4" d="M117.11,86.75s7.64-3.22,3.22-7.88-7.88-.84-7.88-.84c0,0,.48-4.89-4.78-3.46-5.25,1.43-7.16,3.44-6.69,5.96,0,0-7.52,1.92-1.91,7.65,0,0-3.22,5.01,2.63,4.89,0,0,.12,5.01,8.24,2.51l3.34-1.31s1.67,1.07,4.06-.48c2.39-1.55,4.18-6.57-.24-7.04Z"/>
        <path class="cls-4" d="M121.08,55.7s-3.67-7.17,2.75-7.51c0,0,2.92-.75,4.59,2.17,0,0,8.34-2.17,6.76,5.34-1.58,7.51-2.75,9.84-8.76,11.26-6,1.42-10.18,1.25-11.76-3.67,0,0-4.42-3.92-.67-7.26,3.91-3.47,7.09-.33,7.09-.33Z"/>
        <path class="cls-4" d="M147.72,67.07c-.58.17-1.21.1-1.73-.22-1.53-.93-4.85-3.29-5.23-6.48-.5-4.17.92-8.26,6-7.92s7.67,1.33,6.84,6.59c-.75,4.75-2.94,7.18-5.88,8.04Z"/>
        <path class="cls-4" d="M188.49,98.45s1.02-2.4,4.1-3.61,2.61-2.61,5.12-1.96,3.07,4.66-1.02,6.7-9.03,1.91-8.19-1.14Z"/>
        <path class="cls-1" d="M170.56,127.66s-3.33-1.16-1.84-3.25c1.49-2.09,1.62-2.34,3.6-.85s1.07,3.48-1.76,4.1Z"/>
        <path class="cls-1" d="M214.5,102.23s-4.73-3.88-2.08-4.16,4.99,2.16,5.1,3.49-1.5,1.14-3.01.67Z"/>
        <path class="cls-1" d="M161.05,88.98s-4.12-.09-3.17-2.56c.95-2.46,2.84-3.14,4.45-2.19s1.8,3.99-1.28,4.74Z"/>
        <path class="cls-1" d="M137.89,104.83s-2.88-.25-2.25-3.27c.63-3.01,4.03-2.03,4.66-1.4s1.92,2.91,0,4.09c-1.36.83-2.42.58-2.42.58Z"/>
        <path class="cls-1" d="M128.23,59.42c-.04.9-.78,1.63-1.69,1.7-1.19.09-2.76-.03-2.62-1.32.22-2.06,1.22-2.61,1.95-2.49.59.1,2.44.32,2.36,2.11Z"/>
        <path class="cls-1" d="M111.05,88.55c-.83-.11-1.6-.47-2.18-1.07-.68-.7-1.32-1.65-.39-2.18,1.58-.9,3.11-1.69,4.56.13,1.32,1.66,1.76,3.61-1.98,3.12Z"/>
        <path class="cls-1" d="M187.63,75.51s-4.06-1.28-3.49-2.64c.57-1.35,1-1.78,3.49-1s4.21,1.14,4.14,2.21c-.07,1.07-1.35,2.07-4.14,1.43Z"/>
      </g>
      <g>
        <path class="cls-4" d="M87.15,257.22s1.98-4.25,5.13-.68c3.15,3.57.54,6.09-1.52,6.64,0,0,4.23,3.85.43,6.91,0,0-1.99.9-3.11.35,0,0,1.38,2.83-1.75,3.57s-3.19-1.54-3.19-1.54c0,0,1.77,5.42-2.92,4.38-4.69-1.04-4.34-4.94-4.34-4.94,0,0-5.53,4.13-7.41.18-1.88-3.95,3.53-6.2,3.53-6.2,0,0-5.43-1.39-4.58-3.98s4.31-1.94,4.31-1.94c0,0-5.8-2.85-2.4-5.73,3.4-2.88,5.35-.69,6.63,1.71,0,0-2.39-5.93,1.43-6.4,3.82-.48,4.08,2.67,4.08,2.67,0,0,1.17-4.52,4.75-3.3,2.57.88,2.87,3.14.91,8.32Z"/>
        <path class="cls-4" d="M71.53,213.44s-3.02-3.32-5.65-.61c-2.64,2.71-.17,5.58-.17,5.58,0,0-8.72.9-6.36,6.38,0,0,1.25,2.83,4.21,1.84,0,0-2.05,4.55,2.15,4.76,0,0,2.05-.17,3.88-1.31,0,0-2.04,2.75-.2,3.75s3.6.97,5.39-.1c0,0,1,2.64,3.23,1.7,2.23-.94,4.51-3.3,4.38-5.83,0,0,5.42-.74,4.97-5.09s-3.19-2.86-3.19-2.86c0,0,1.04-6.79-3.31-6.21l-1.69.45s1.18-8.03-4.36-7.41c0,0-3.58.24-3.28,4.94Z"/>
        <path class="cls-4" d="M49.06,230.02c-.32-.67-.46-1.42-.24-2.13.33-1.05.91-2.51,1.82-3.64,1.6-1.97,4.44-6.7,1.48-8.96s-4.88-.28-4.88-.28c0,0-.08-5.21-3.52-3.94,0,0-2.01,1.05-1.99,3.25,0,0-1.81-2.78-3.44-1.49-1.63,1.29-.78,4.08-.15,5.18,0,0-6.08-3.06-7.26,2.59,0,0-4.64,6.24,2.55,8.1,0,0-.35,7.48,7.34,4.01,0,0,3.76.79,5.73-.1,1.65-.74,3.11-1.41,2.55-2.59Z"/>
        <path class="cls-4" d="M36.1,259.79s1.86-7.82-2.99-9.06c0,0,.42-7.75-3.89-7.54-4.31.22-3.59,4.79-3.59,4.79,0,0-.61-4.87-3.99-2.61-3.39,2.26-1.2,8.75-1.2,8.75,0,0-7.08.87-5.34,6.09,1.74,5.22,5.74,2.68,5.74,2.68,0,0-2.58,7.04,4.73,5.58,7.3-1.46,9.52-5.77,10.54-8.68Z"/>
        <path class="cls-4" d="M105.2,236.19s.88,6.83-3.18,7.07-4.26-5.92-4.26-5.92c0,0-.54,6.13-4.45,3.72-3.9-2.4-1-4.94-1-4.94,0,0-3.71.2-3.86-2.3s2.91-4.41,2.91-4.41c0,0-5.77-1.52-4.01-4.89,1.75-3.37,5.74-1.86,5.74-1.86,0,0-4.03-4.31.5-6.23,0,0,1.87-1.83,4.64,1.33,0,0,.93-3.36,3.6-2.61,2.67.76,1.02,5.79,1.02,5.79,0,0,5.17-4.29,6.67-1.79s-.5,5.68-.5,5.68c0,0,7.63-1.55,7.9,3.11.27,4.66-5.8,3.97-5.8,3.97,0,0,4.05,3.81.75,6.28s-6.67-2.01-6.67-2.01Z"/>
        <path class="cls-4" d="M113.57,206.55s-8.29.21-6.18-5.86c2.11-6.06,6.84-4,6.84-4,0,0-2.45-4.26,2.93-5.12,5.38-.86,7.94.19,8.55,2.68,0,0,7.65-1.34,4.89,6.19,0,0,5,3.24-.38,5.54,0,0,1.95,4.62-6.48,5.67l-3.59.18s-1.08,1.67-3.9,1.24c-2.81-.43-6.51-4.27-2.68-6.52Z"/>
        <path class="cls-4" d="M97.18,179.88s.39-8.05-5.6-5.71c0,0-2.97.52-3.29,3.86,0,0-8.49,1.46-3.96,7.64s6.56,7.84,12.61,6.66,9.79-3.05,9.21-8.18c0,0,2.42-5.39-2.38-6.89-4.99-1.56-6.6,2.61-6.6,2.61Z"/>
        <path class="cls-4" d="M77.57,201.21c.6-.09,1.15-.41,1.49-.91,1.01-1.48,3.06-5,2.1-8.06-1.26-4.01-4.23-7.15-8.73-4.75-4.5,2.4-6.44,4.37-3.52,8.82,2.64,4.02,5.64,5.34,8.67,4.91Z"/>
        <path class="cls-4" d="M53.33,246.59s-1.92-1.76-5.22-1.6-3.45-1.3-5.47.33-.88,5.51,3.69,5.69,9.02-1.98,7-4.41Z"/>
        <path class="cls-1" d="M81.69,265.83s2.56-2.43.34-3.72c-2.22-1.29-2.44-1.47-3.63.71-1.2,2.18.46,3.61,3.29,3.01Z"/>
        <path class="cls-1" d="M31.18,260.73s2.72-5.48.18-4.65-3.66,4.02-3.21,5.28,1.84.43,3.02-.63Z"/>
        <path class="cls-1" d="M74.44,226.66s3.71-1.78,1.84-3.63c-1.88-1.85-3.88-1.7-4.95-.16-1.07,1.53,0,4.37,3.12,3.8Z"/>
        <path class="cls-1" d="M102.07,231.57s2.52-1.42.7-3.9c-1.82-2.48-4.51-.19-4.83.64s-.55,3.44,1.68,3.73c1.58.2,2.44-.47,2.44-.47Z"/>
        <path class="cls-1" d="M92.19,186.21c.41.81,1.38,1.16,2.23.85,1.12-.41,2.51-1.16,1.85-2.28-1.05-1.78-2.18-1.88-2.8-1.47-.5.33-2.09,1.3-1.29,2.89Z"/>
        <path class="cls-1" d="M119.83,205.7c.71-.44,1.26-1.09,1.55-1.87.33-.92.52-2.05-.54-2.15-1.81-.17-3.53-.26-4.1,2-.52,2.06-.12,4.02,3.09,2.03Z"/>
        <path class="cls-1" d="M44.68,225.32s3.18-2.84,2.1-3.84-1.64-1.21-3.6.53c-1.95,1.74-3.36,2.77-2.86,3.72s2.09,1.33,4.36-.4Z"/>
      </g>
    </g>
    <path class="cls-1" d="M193.48,198.37s-5.8-1.9-4.73-5.48,1.12-5.59,4.73-4.64,4.79,2.86,4.68,4.94-1.14,5.06-4.68,5.18Z"/>
    <path class="cls-1" d="M239.46,215.04s-1.67-5.36,2.26-6.43c3.93-1.07,6.07,1.55,6.19,3.93.12,2.38-1.52,5.86-4.4,5.5s-3.12-1.58-4.05-3Z"/>
    <path class="cls-1" d="M218.49,149.79s-5.17-.76-3.64-3.05c1.53-2.29,0-3.14,3.22-2.46s4.15,2.63,3.05,3.81-.42,1.69-2.63,1.69Z"/>
    <path class="cls-1" d="M246.88,156.4s-1.86-2.8,0-3.39l1.86-.59s2.2.17,2.88.93-.08,3.64-1.78,3.56-1.78.17-2.97-.51Z"/>
    <path class="cls-1" d="M262.97,176.23s-1.02-2.54.42-3.39c1.44-.85,3.56,0,4.07,1.69.51,1.69.93,3.98-.93,4.32s-3.25-.37-3.56-2.63Z"/>
    <path class="cls-1" d="M126.8,141.43c-.74-.14-1.4-.56-1.87-1.14-.6-.74-1.22-1.78-.5-2.31,1.18-.89,2.86-2.07,4.04-.79s1.58,3.45.39,3.94c-.83.35-1.32.45-2.06.31Z"/>
    <path class="cls-1" d="M96.57,134.95s-2.59-.52-1.84-2.2,2.82-1.88,3.6-1.34,1.38,1.63.69,2.52c-.69.89-.93,1.17-2.46,1.02Z"/>
    <path class="cls-1" d="M62.25,109.83c-.93.64-2.29.38-2.81-.63-.25-.48-.33-1.13.02-1.98.95-2.28,1.68-4.07,3.16-3.96s1.9,2.66,1.16,3.96c-.52.93-.64,2-1.53,2.61Z"/>
    <path class="cls-1" d="M54.47,141.63c-.48.94-1.75,1.13-2.6.49-.77-.58-1.56-1.57-.61-2.85,1.56-2.13,2.52-2.07,3.06-.98.36.73.7,2.27.15,3.34Z"/>
  </g>
  <path d="M178.21,324.25c5.61-7.55,11.11-15.19,16.89-22.61,2.69-3.45,5.49-6.83,8.54-9.98,3.09-3.2,6.45-6.11,10.01-8.77,4.03-3.01,8.25-5.74,12.47-8.47.16-.1.01-.36-.15-.26-7.5,4.85-15,9.76-21.36,16.08-6.31,6.27-11.54,13.51-16.83,20.63-3.28,4.41-6.56,8.82-9.83,13.23-.12.16.15.3.26.15h0Z"/>
  <path d="M189.67,315.72c1.36-1.12,3.22-1.63,4.83-2.27,1.74-.7,3.48-1.4,5.22-2.1,3.45-1.39,6.9-2.77,10.35-4.16.18-.07.1-.36-.08-.29-3.58,1.44-7.15,2.87-10.73,4.31-1.77.71-3.54,1.42-5.32,2.14-1.52.61-3.21,1.11-4.49,2.16-.15.12.06.33.21.21h0Z"/>
  <path d="M206.86,293.99c4.42-2.03,9.05-3.6,13.8-4.68.19-.04.11-.33-.08-.29-4.77,1.09-9.42,2.67-13.87,4.71-.18.08-.02.34.15.26h0Z"/>
  <path d="M198.36,303.58c.51-.75,1.3-1.19,2.1-1.57s1.67-.75,2.52-1.12c1.82-.78,3.65-1.52,5.5-2.22,3.63-1.38,7.32-2.59,11.05-3.65.19-.05.11-.34-.08-.29-3.93,1.12-7.8,2.4-11.62,3.87-1.84.71-3.66,1.45-5.47,2.24-1.47.64-3.32,1.2-4.26,2.59-.11.16.15.31.26.15h0Z"/>
  <path d="M206.76,276.59c-1.99,3.95-3.23,8.24-3.66,12.64-.02.19.28.19.3,0,.43-4.34,1.66-8.59,3.62-12.49.09-.17-.17-.32-.26-.15h0Z"/>
  <path d="M200.6,281.81c-2.23,4.42-4.52,9.03-4.67,14.08,0,.19.29.19.3,0,.16-4.99,2.43-9.55,4.63-13.92.09-.17-.17-.32-.26-.15h0Z"/>
  <path d="M189.58,286.79c-.51,4.66-.47,9.36.12,14.01.02.19.32.19.3,0-.6-4.65-.64-9.35-.12-14.01.02-.19-.28-.19-.3,0h0Z"/>
  <path d="M182.77,296.12c-.68,4.94-.38,9.99.88,14.82.05.19.34.11.29-.08-1.25-4.77-1.55-9.77-.88-14.66.03-.19-.26-.27-.29-.08h0Z"/>
  <path d="M177.49,304.54c-.21,1.61-.04,3.22.12,4.82s.23,3.06.09,4.6c-.3,3.14-1.28,6.16-2.25,9.14-.06.18.23.26.29.08.96-2.95,1.93-5.94,2.24-9.05.16-1.6.09-3.18-.07-4.77s-.33-3.21-.12-4.82c.02-.19-.28-.19-.3,0h0Z"/>
  <path d="M172.53,318.08c-.59,3.5-1.17,7-1.76,10.51-.03.19.26.27.29.08.59-3.5,1.17-7,1.76-10.51.03-.19-.26-.27-.29-.08h0Z"/>
  <path d="M181.74,323.82c3.12-2.71,6.77-4.81,10.68-6.14,1.11-.38,2.24-.69,3.39-.94.19-.04.11-.33-.08-.29-4.09.91-8,2.61-11.45,5.01-.96.67-1.88,1.39-2.76,2.15-.15.13.07.34.21.21h0Z"/>
  <path d="M216.01,278c4.24-3.75,8.59-7.58,13.8-9.94,1.47-.67,3-1.19,4.57-1.56.19-.04.11-.33-.08-.29-5.61,1.32-10.4,4.69-14.76,8.33-1.27,1.06-2.51,2.15-3.74,3.25-.14.13.07.34.21.21h0Z"/>
  <path d="M215.66,285.07c3.98-1.81,8.15-3.19,12.42-4.13.19-.04.11-.33-.08-.29-4.3.95-8.49,2.35-12.5,4.16-.18.08-.02.34.15.26h0Z"/>
  <path d="M162.44,355.27c10.01-7.87,21.8-13.01,33.72-17.23,3.37-1.19,6.76-2.32,10.15-3.43.18-.06.1-.35-.08-.29-12.09,3.94-24.24,8.16-35.2,14.71-3.06,1.82-6,3.83-8.8,6.03-.15.12.06.33.21.21h0Z"/>
  <path d="M195.11,345.37c7.24-3.32,14.95-5.58,22.84-6.7.19-.03.11-.32-.08-.29-7.92,1.13-15.64,3.4-22.91,6.73-.18.08-.02.34.15.26h0Z"/>
  <path d="M176.63,350.74c7.28-2.01,14.85-2.88,22.4-2.57.19,0,.19-.29,0-.3-7.58-.31-15.17.57-22.48,2.58-.19.05-.11.34.08.29h0Z"/>
  <path d="M211.52,335.82c4.62-1.42,9.3-2.6,14.04-3.55.19-.04.11-.33-.08-.29-4.74.95-9.42,2.13-14.04,3.55-.18.06-.11.35.08.29h0Z"/>
  <path d="M194.28,334.74c7.4-2.57,15.09-4.27,22.88-5.07.19-.02.19-.32,0-.3-7.82.8-15.53,2.5-22.96,5.08-.18.06-.1.35.08.29h0Z"/>
  <path d="M61.72,299.23c8.77,4.09,16.42,10.28,24,16.2,6.96,5.43,13.8,11.14,19.53,17.88,3.23,3.8,6.08,7.93,8.31,12.4.09.17.35.02.26-.15-3.97-7.95-9.86-14.72-16.36-20.7-3.31-3.04-6.78-5.9-10.3-8.68-3.65-2.87-7.32-5.72-11.06-8.47-4.49-3.3-9.16-6.38-14.22-8.74-.17-.08-.33.18-.15.26h0Z"/>
  <path d="M94.46,309.88c4.09,5.94,7.43,12.37,9.94,19.12.07.18.36.1.29-.08-2.52-6.78-5.87-13.23-9.97-19.19-.11-.16-.37,0-.26.15h0Z"/>
  <path d="M78.07,295.49c3.56,2.26,6.44,5.52,8.26,9.32.52,1.08.95,2.2,1.29,3.35.05.18.34.11.29-.08-1.21-4.1-3.59-7.84-6.79-10.67-.9-.8-1.87-1.53-2.89-2.17-.16-.1-.31.16-.15.26h0Z"/>
  <path d="M64.77,291.01c1.96,1.34,3.62,3.1,4.85,5.12.35.57.66,1.16.93,1.77.08.18.34.02.26-.15-1-2.19-2.47-4.17-4.28-5.75-.51-.45-1.05-.86-1.61-1.25-.16-.11-.31.15-.15.26h0Z"/>
  <path d="M66.22,313.26c4.65,1.66,9.52,2.66,14.45,2.96.19.01.19-.29,0-.3-4.9-.3-9.74-1.29-14.37-2.94-.18-.07-.26.22-.08.29h0Z"/>
  <path d="M76.17,321.61c4.35,1.5,8.95,2.23,13.55,2.14.19,0,.19-.3,0-.3-4.58.09-9.15-.63-13.47-2.13-.18-.06-.26.23-.08.29h0Z"/>
  <path d="M85.61,331.66c5.33,1.09,10.76,1.67,16.2,1.73.19,0,.19-.3,0-.3-5.42-.06-10.82-.63-16.12-1.71-.19-.04-.27.25-.08.29h0Z"/>
  <path d="M188.1,183.73c.85,1.01,1.56,2.14,2.09,3.35.15.34.29.69.41,1.05.06.18.35.1.29-.08-.44-1.28-1.07-2.5-1.86-3.61-.23-.32-.47-.62-.72-.92-.12-.15-.34.07-.21.21h0Z"/>
  <path d="M183.5,194.4c1.17-.59,2.39-1.09,3.64-1.49.18-.06.1-.35-.08-.29-1.27.41-2.51.92-3.71,1.52-.17.09-.02.35.15.26h0Z"/>
  <path d="M184.8,201.02c.86-.94,1.71-1.88,2.57-2.82l.73-.8c.13-.14-.08-.36-.21-.21-.86.94-1.71,1.88-2.57,2.82l-.73.8c-.13.14.08.36.21.21h0Z"/>
  <path d="M187.71,201.95c.47-1.19,1.09-2.32,1.83-3.36.21-.3.44-.59.67-.87.12-.15-.09-.36-.21-.21-.84,1.02-1.56,2.14-2.13,3.34-.16.34-.31.68-.45,1.03-.07.18.22.26.29.08h0Z"/>
  <path d="M191.29,204.11c.17-1.65.29-3.3.34-4.96,0-.19-.29-.19-.3,0-.05,1.66-.17,3.31-.34,4.96-.02.19.28.19.3,0h0Z"/>
  <path d="M198.52,202.57l-2.02-3.51c-.1-.17-.36-.02-.26.15l2.02,3.51c.1.17.36.02.26-.15h0Z"/>
  <path d="M200.14,201.76c-.41-.83-.88-1.63-1.42-2.38-.16-.22-.32-.44-.48-.65-.05-.06-.16-.05-.21,0-.06.06-.05.15,0,.21.72.92,1.34,1.92,1.86,2.97.04.07.14.09.21.05.07-.04.09-.13.05-.21h0Z"/>
  <path d="M203.54,199.46c-1.28-.71-2.59-1.44-3.62-2.5-.29-.3-.55-.62-.77-.97-.1-.16-.36-.01-.26.15.83,1.27,2.08,2.17,3.37,2.93.37.22.75.43,1.13.64.17.09.32-.17.15-.26h0Z"/>
  <path d="M199.52,193.69c1.06,0,2.11,0,3.17,0,.19,0,.19-.3,0-.3-1.06,0-2.11,0-3.17,0-.19,0-.19.3,0,.3h0Z"/>
  <path d="M199.23,190.23c.71-.63,1.46-1.23,2.23-1.79.22-.16.44-.31.66-.46.07-.05.1-.13.05-.21-.04-.07-.14-.1-.21-.05-.81.55-1.59,1.14-2.33,1.76-.21.18-.42.36-.62.54-.14.13.07.34.21.21h0Z"/>
  <path d="M196.2,187.74c.82-1.17,1.86-2.17,2.93-3.11.31-.27.62-.53.93-.8.15-.13-.07-.34-.21-.21-1.1.94-2.21,1.89-3.15,2.99-.27.31-.52.64-.76.98-.11.16.15.31.26.15h0Z"/>
  <path d="M192.36,183.62l.48,3.82c.01.08.06.15.15.15.07,0,.16-.07.15-.15l-.48-3.82c-.01-.08-.06-.15-.15-.15-.07,0-.16.07-.15.15h0Z"/>
  <path d="M183.5,189.22c1.43-.08,2.86-.01,4.28.2.08.01.16-.02.18-.1.02-.07-.02-.17-.1-.18-1.44-.22-2.9-.29-4.36-.21-.19.01-.19.31,0,.3h0Z"/>
  <path d="M238.4,204.49c.61.72,1.25,1.42,1.92,2.08.19.19.39.38.58.56.14.13.35-.08.21-.21-.69-.65-1.35-1.32-1.98-2.03-.18-.2-.36-.41-.53-.61-.05-.06-.16-.05-.21,0-.06.06-.05.15,0,.21h0Z"/>
  <path d="M242.84,203.6c-.05,1.12,0,2.24.13,3.35,0,.08.06.15.15.15.07,0,.16-.07.15-.15-.14-1.11-.18-2.23-.13-3.35,0-.19-.29-.19-.3,0h0Z"/>
  <path d="M247.23,204.3c-.54,1.01-.94,2.1-1.2,3.22-.04.19.25.27.29.08.25-1.09.65-2.15,1.17-3.14.09-.17-.17-.32-.26-.15h0Z"/>
  <path d="M248.29,208.69l2.67-1.44c.17-.09.02-.35-.15-.26l-2.67,1.44c-.17.09-.02.35.15.26h0Z"/>
  <path d="M249.67,214.2c1.39-.6,2.76-1.22,4.12-1.88.17-.08.02-.34-.15-.26-1.36.66-2.74,1.28-4.12,1.88-.08.03-.09.14-.05.21.04.08.13.09.21.05h0Z"/>
  <path d="M248.65,217.3l4.55.45c.19.02.19-.28,0-.3l-4.55-.45c-.19-.02-.19.28,0,.3h0Z"/>
  <path d="M246.99,218.74c.96.86,1.95,1.7,2.96,2.5.29.23.58.45.87.68.06.05.17,0,.21-.05.05-.08.01-.16-.05-.21-1.01-.78-2-1.58-2.96-2.42-.27-.24-.54-.47-.81-.71-.14-.13-.36.08-.21.21h0Z"/>
  <path d="M243.69,219.39v2.83c0,.19.3.19.3,0v-2.83c0-.19-.3-.19-.3,0h0Z"/>
  <path d="M237.21,219.28c.67-.58,1.42-1.07,2.22-1.45.23-.11.46-.21.69-.3.08-.03.13-.1.1-.18-.02-.07-.11-.13-.18-.1-.86.34-1.68.78-2.42,1.34-.21.16-.42.32-.62.5-.06.05-.05.16,0,.21.06.06.15.05.21,0h0Z"/>
  <g>
    <path class="cls-2" d="M234.31,212.77c1.27.03,2.54.21,3.78.53"/>
    <path d="M234.31,212.92c1.26.03,2.51.21,3.74.53.19.05.27-.24.08-.29-1.25-.33-2.53-.51-3.82-.54-.19,0-.19.3,0,.3h0Z"/>
  </g>
  <path d="M269.26,175.08c1.41-.51,2.91-.72,4.4-.61.19.01.19-.29,0-.3-1.52-.11-3.05.1-4.48.62-.18.07-.1.36.08.29h0Z"/>
  <path d="M268.15,173.48c1.41-.74,2.89-1.33,4.43-1.76.19-.05.11-.34-.08-.29-1.56.43-3.07,1.03-4.5,1.79-.17.09-.02.35.15.26h0Z"/>
  <path d="M264.51,171.07c-.06-1.28.28-2.57.99-3.64.11-.16-.15-.31-.26-.15-.73,1.12-1.09,2.46-1.03,3.79,0,.19.31.19.3,0h0Z"/>
  <path d="M268.89,179.9c1.13.46,2.35.67,3.57.61.19,0,.19-.31,0-.3-1.19.05-2.38-.15-3.49-.6-.08-.03-.16.03-.18.1-.02.09.03.15.1.18h0Z"/>
  <path d="M266.34,181.19c.91.51,1.91.82,2.95.93.08,0,.15-.07.15-.15,0-.09-.07-.14-.15-.15-.98-.1-1.94-.41-2.8-.89-.17-.09-.32.16-.15.26h0Z"/>
  <path d="M246.61,147.69c-.14,1.16-.07,2.35.21,3.49.05.19.34.11.29-.08-.27-1.11-.34-2.27-.2-3.41,0-.08-.08-.15-.15-.15-.09,0-.14.07-.15.15h0Z"/>
  <path d="M250.4,146.53c.35,1.57.04,3.25-.83,4.6-.1.16.15.31.26.15.91-1.42,1.22-3.18.86-4.83-.04-.19-.33-.11-.29.08h0Z"/>
  <path d="M252.17,149.24c.05.79-.09,1.59-.4,2.32-.03.07-.02.16.05.21.06.04.17.02.21-.05.33-.78.49-1.63.44-2.47,0-.08-.07-.15-.15-.15-.08,0-.15.07-.15.15h0Z"/>
  <path d="M241.69,152.08c1.02.57,2.2.82,3.37.72.08,0,.15-.06.15-.15,0-.08-.07-.16-.15-.15-1.11.09-2.24-.14-3.22-.68-.17-.09-.32.17-.15.26h0Z"/>
  <path d="M242.64,157.06c.87-.2,1.7-.56,2.44-1.06.07-.05.1-.13.05-.21-.04-.07-.14-.1-.21-.05-.72.48-1.52.83-2.37,1.03-.08.02-.13.11-.1.18.02.08.11.12.18.1h0Z"/>
  <path d="M243.89,160.53c.82-.68,1.68-1.31,2.58-1.88.26-.16.52-.32.78-.48.17-.1.02-.36-.15-.26-.94.55-1.84,1.16-2.7,1.82-.25.19-.49.38-.73.58-.06.05-.05.16,0,.21.06.06.15.05.21,0h0Z"/>
  <path d="M249.92,158.25c-.03.94.22,1.88.71,2.69.1.16.36.01.26-.15-.46-.76-.69-1.64-.67-2.53,0-.19-.29-.19-.3,0h0Z"/>
  <path d="M252.74,157.91c.97.03,1.91.37,2.68.95.22.16.42.35.6.55.13.14.34-.07.21-.21-.69-.75-1.63-1.27-2.62-1.48-.29-.06-.58-.09-.87-.1-.19,0-.19.29,0,.3h0Z"/>
  <path d="M253.56,154.81c1.38-.51,2.85-.74,4.33-.67.19,0,.19-.29,0-.3-1.5-.07-3,.16-4.41.68-.18.07-.1.36.08.29h0Z"/>
  <path d="M254.04,156.11c.9-.14,1.8-.22,2.71-.22.19,0,.19-.3,0-.3-.94,0-1.87.09-2.79.23-.08.01-.12.11-.1.18.02.09.1.12.18.1h0Z"/>
  <path d="M216.31,138.39c.08,1.79.42,3.56,1.01,5.25.06.18.35.1.29-.08-.58-1.66-.92-3.4-1-5.17,0-.19-.31-.19-.3,0h0Z"/>
  <path d="M221.53,144.15c1.48-.81,2.92-1.7,4.3-2.68.16-.11,0-.37-.15-.26-1.38.97-2.82,1.86-4.3,2.68-.17.09-.02.35.15.26h0Z"/>
  <path d="M222.42,147.7c1.3-.3,2.69-.16,3.89.41.17.08.33-.18.15-.26-1.28-.61-2.74-.76-4.12-.44-.19.04-.11.33.08.29h0Z"/>
  <path d="M221.97,150c.66.63,1.38,1.2,2.15,1.69.22.14.44.27.66.4.17.1.32-.16.15-.26-.77-.44-1.51-.96-2.19-1.54-.19-.17-.38-.34-.57-.51-.14-.13-.35.08-.21.21h0Z"/>
  <path d="M216.51,150.73c-.51.8-.83,1.71-.94,2.66,0,.08.08.15.15.15.09,0,.14-.07.15-.15.1-.89.41-1.75.9-2.5.1-.16-.15-.31-.26-.15h0Z"/>
  <path d="M215.08,149.94c-.81,1.15-1.65,2.44-1.43,3.91.01.08.11.12.18.1.09-.02.12-.1.1-.18-.2-1.38.65-2.61,1.4-3.68.11-.16-.15-.31-.26-.15h0Z"/>
  <path d="M209.73,148.09c1.15-.4,2.35-.63,3.56-.7.19-.01.19-.31,0-.3-1.24.07-2.47.3-3.64.71-.18.06-.1.35.08.29h0Z"/>
  <path d="M210.47,142.83c1.16.07,2.3.5,3.22,1.21.26.2.51.43.73.68.13.14.34-.07.21-.21-.83-.9-1.94-1.55-3.13-1.83-.34-.08-.69-.13-1.03-.15-.19-.01-.19.29,0,.3h0Z"/>
  <path d="M172,119.14l-.49,2.18c-.02.08.02.16.1.18.08.02.17-.03.18-.1l.49-2.18c.02-.08-.02-.16-.1-.18-.08-.02-.17.03-.18.1h0Z"/>
  <path d="M169.56,118.74c-.22.85-.09,1.78.34,2.55.12.22.27.42.43.6.13.14.34-.07.21-.21-.53-.6-.8-1.4-.78-2.19,0-.23.04-.45.09-.67.05-.19-.24-.27-.29-.08h0Z"/>
  <path d="M164.77,121.37c1.18.68,2.37,1.36,3.55,2.04.17.1.32-.16.15-.26-1.18-.68-2.37-1.36-3.55-2.04-.17-.1-.32.16-.15.26h0Z"/>
  <path d="M165.17,129.77c1.01-.37,1.96-.88,2.83-1.51.25-.18.49-.37.72-.57.15-.13-.07-.34-.21-.21-.78.67-1.66,1.23-2.6,1.66-.27.12-.54.24-.82.34-.08.03-.13.1-.1.18.02.07.11.13.18.1h0Z"/>
  <path d="M168.06,130.29c.61-.3,1.13-.77,1.5-1.33.1-.16.19-.32.27-.49.03-.07.02-.17-.05-.21-.07-.04-.17-.02-.21.05-.07.15-.15.29-.23.42-.04.07-.09.14-.14.21-.01.01-.02.03-.03.04,0,0-.01.01-.02.02.02-.02,0,0,0,0-.03.03-.05.06-.08.1-.1.12-.22.24-.33.35-.06.06-.12.11-.19.16-.01.01-.03.02-.04.03.02-.02-.02.01-.02.02-.03.02-.07.05-.1.07-.15.11-.31.2-.47.28-.07.03-.1.14-.05.21.05.07.13.09.21.05h0Z"/>
  <path d="M173.35,128.55c.57.68,1.23,1.28,1.95,1.79.2.14.41.28.63.4.17.1.32-.16.15-.26-.75-.44-1.43-.97-2.03-1.6-.17-.18-.33-.36-.49-.55-.05-.06-.16-.05-.21,0-.06.06-.05.15,0,.21h0Z"/>
  <path d="M175.37,126.05c.22.25.54.38.85.48.38.12.76.23,1.14.34.76.2,1.54.37,2.32.49.08.01.16-.02.18-.1.02-.07-.02-.17-.1-.18-.75-.12-1.5-.28-2.24-.47-.37-.1-.73-.2-1.09-.32-.3-.1-.63-.19-.84-.44-.13-.15-.34.07-.21.21h0Z"/>
  <path d="M174.3,124.29c1.22-.2,2.41-.53,3.55-.99.08-.03.13-.1.1-.18-.02-.07-.11-.14-.18-.1-1.14.46-2.34.79-3.55.99-.08.01-.12.11-.1.18.02.09.1.12.18.1h0Z"/>
  <path d="M173.58,122.63c.71,0,1.42-.22,2.01-.63.07-.05.1-.13.05-.21-.04-.07-.14-.1-.21-.05-.14.1-.28.18-.43.26s-.29.13-.45.18c-.33.1-.63.15-.97.15-.08,0-.15.07-.15.15s.07.15.15.15h0Z"/>
  <path d="M163.52,125.44c1.19.41,2.54.84,3.77.37.08-.03.13-.1.1-.18-.02-.07-.11-.13-.18-.1-1.19.45-2.47.02-3.61-.37-.18-.06-.26.23-.08.29h0Z"/>
  <g>
    <path class="cls-2" d="M171.81,128.93c.38.86.89,1.67,1.49,2.39"/>
    <path d="M171.68,129c.3.67.68,1.32,1.11,1.91.13.17.26.34.4.51.05.06.16.05.21,0,.06-.06.05-.15,0-.21-.46-.56-.86-1.16-1.19-1.8-.1-.18-.19-.37-.27-.56-.03-.07-.14-.09-.21-.05-.08.04-.09.13-.05.21h0Z"/>
  </g>
  <path d="M211.79,93.16c.81,1.12,1.22,2.48,1.18,3.86,0,.19.29.19.3,0,.05-1.42-.38-2.86-1.22-4.01-.05-.07-.13-.1-.21-.05-.07.04-.1.14-.05.21h0Z"/>
  <path d="M217.18,92.57c-.1,1.78-.5,3.53-1.18,5.18-.07.18.22.26.29.08.69-1.67,1.09-3.45,1.19-5.26.01-.19-.29-.19-.3,0h0Z"/>
  <path d="M217.5,98.85c.69-.74,1.43-1.43,2.21-2.06.22-.18.45-.35.68-.52.06-.05.1-.13.05-.21-.04-.06-.14-.1-.21-.05-.82.61-1.6,1.28-2.33,2-.21.21-.41.42-.61.63-.13.14.08.35.21.21h0Z"/>
  <path d="M218.48,100.34c.94-1.01,2.05-1.84,3.28-2.46.35-.17.7-.33,1.06-.47.18-.07.1-.36-.08-.29-1.32.5-2.55,1.23-3.62,2.16-.3.26-.59.54-.86.84-.13.14.08.35.21.21h0Z"/>
  <path d="M218.47,102.5c1.74.18,3.5.03,5.18-.44.19-.05.11-.34-.08-.29-1.66.47-3.39.61-5.1.43-.19-.02-.19.28,0,.3h0Z"/>
  <path d="M216.21,104.2c1.76.51,3.61.69,5.43.54.19-.02.19-.32,0-.3-1.8.15-3.62-.03-5.36-.53-.19-.05-.27.24-.08.29h0Z"/>
  <path d="M210.31,95.39c-.14.91-.13,1.84,0,2.75.01.08.11.12.18.1.09-.02.12-.1.1-.18-.13-.86-.13-1.73,0-2.59.01-.08-.02-.16-.1-.18-.07-.02-.17.02-.18.1h0Z"/>
  <path d="M182.33,69.35c.25.53.6,1.02,1.02,1.42.12.11.24.22.37.32.06.05.15.06.21,0,.05-.05.07-.16,0-.21-.23-.18-.43-.37-.62-.59-.05-.05-.09-.11-.14-.16-.02-.03-.04-.05-.06-.08.01.02-.02-.02-.02-.03-.01-.02-.02-.03-.03-.05-.08-.12-.16-.23-.24-.36-.08-.14-.16-.28-.23-.43-.03-.07-.14-.1-.21-.05-.07.05-.09.13-.05.21h0Z"/>
  <path d="M188.32,68.16c.17,1.02.23,2.05.19,3.08,0,.19.29.19.3,0,.04-1.06-.03-2.12-.2-3.16-.01-.08-.11-.12-.18-.1-.08.02-.12.1-.1.18h0Z"/>
  <path d="M190,69.85l.18.99c.01.08.03.16.04.23,0,.02,0,.04,0,.06,0,0,0,.05,0,.02,0,.03,0,.07,0,.1s0,.07,0,.1c0,.01,0,.03,0,.04,0-.03,0,.02,0,.03,0,.01,0,.03-.01.04,0,0,0,.02,0,.03,0-.02,0-.02,0,0,0,.01-.01.02-.02.03,0,0,0,.02-.01.02,0-.01,0-.01,0,0-.05.06-.06.15,0,.21.06.05.16.06.21,0,.23-.26.15-.61.09-.92l-.2-1.07c-.01-.08-.11-.13-.18-.1-.08.03-.12.1-.1.18h0Z"/>
  <path d="M191.73,76.17c1.44.33,2.94.39,4.4.18.08-.01.12-.11.1-.18-.02-.09-.1-.12-.18-.1-1.41.2-2.86.14-4.24-.18-.19-.04-.27.25-.08.29h0Z"/>
  <path d="M189.17,77.33c1.35.59,2.83.83,4.3.67.08,0,.15-.06.15-.15,0-.07-.07-.16-.15-.15-1.41.16-2.85-.06-4.15-.63-.07-.03-.16-.02-.21.05-.04.06-.02.17.05.21h0Z"/>
  <path d="M179.33,71.88c1.08.68,2.27,1.19,3.52,1.5.19.05.27-.24.08-.29-1.22-.3-2.38-.8-3.44-1.47-.16-.1-.31.16-.15.26h0Z"/>
  <path d="M192.52,73.06c1.07-.4,1.99-1.15,2.59-2.12.17-.27.31-.56.43-.86.03-.08-.03-.16-.1-.18-.08-.02-.16.03-.18.1-.38.98-1.1,1.83-2,2.38-.25.15-.52.29-.8.39-.08.03-.13.1-.1.18.02.07.11.13.18.1h0Z"/>
  <path d="M155.03,82.19c1.04.12,2.06.53,2.88,1.17.06.05.15.06.21,0,.05-.05.06-.16,0-.21-.69-.54-1.5-.93-2.35-1.13-.25-.06-.49-.1-.74-.13-.08,0-.15.08-.15.15,0,.09.07.14.15.15h0Z"/>
  <path d="M159.67,79.96c.53.6.95,1.31,1.21,2.06.08.22.14.45.2.67.04.19.33.11.29-.08-.2-.82-.55-1.61-1.04-2.3-.14-.2-.29-.39-.45-.57-.05-.06-.16-.05-.21,0-.06.06-.05.15,0,.21h0Z"/>
  <path d="M153.03,85.06c.73.57,1.58.99,2.49,1.21.26.06.53.11.8.14.08,0,.15-.08.15-.15,0-.09-.07-.14-.15-.15-1.11-.13-2.19-.57-3.07-1.26-.06-.05-.15-.06-.21,0-.05.05-.06.16,0,.21h0Z"/>
  <path d="M153.14,91.38c1.59-.39,3.1-1.07,4.44-2,.16-.11,0-.37-.15-.26-1.32.92-2.8,1.59-4.36,1.97-.19.05-.11.34.08.29h0Z"/>
  <path d="M161.48,90.16c.29.95.39,1.95.3,2.94,0,.08.07.15.15.15.09,0,.14-.07.15-.15.09-1.01-.02-2.04-.31-3.02-.06-.18-.35-.11-.29.08h0Z"/>
  <path d="M164.88,86.86c.21-.1.46-.03.67.02.25.06.5.14.75.23.48.18.94.41,1.38.68.16.1.31-.16.15-.26-.47-.29-.97-.54-1.5-.73-.26-.09-.52-.17-.78-.23s-.55-.09-.81.03c-.07.03-.09.14-.05.21.04.08.13.09.21.05h0Z"/>
  <path d="M164.17,83.59c1.39-.72,2.92-1.16,4.48-1.29.19-.02.19-.32,0-.3-1.62.13-3.19.59-4.63,1.33-.17.09-.02.35.15.26h0Z"/>
  <path d="M163.51,81.68c.33-.73,1.1-1.08,1.83-1.27.25-.06.49-.11.74-.16.08-.02.13-.11.1-.18-.02-.08-.1-.12-.18-.1-.85.17-1.75.37-2.37,1.02-.16.16-.29.35-.38.55-.03.07-.02.16.05.21.06.04.17.02.21-.05h0Z"/>
  <path d="M159.57,91.44c-.06.59-.28,1.18-.62,1.69-.1.14-.2.27-.31.4-.05.06-.06.15,0,.21.05.05.16.06.21,0,.44-.49.76-1.09.92-1.73.05-.19.08-.38.1-.57,0-.08-.07-.15-.15-.15-.09,0-.14.07-.15.15h0Z"/>
  <path d="M128.45,56.43c.23-1.31,1.18-2.32,2.22-3.08.31-.23.63-.44.96-.65.16-.1.01-.36-.15-.26-1.15.74-2.33,1.59-2.95,2.85-.17.34-.29.69-.36,1.06-.01.08.02.16.1.18.07.02.17-.02.18-.1h0Z"/>
  <path d="M129.67,58.4c.26-.86.84-1.63,1.6-2.12.21-.14.44-.26.68-.35.08-.03.13-.1.1-.18-.02-.07-.11-.13-.18-.1-.92.35-1.7,1.04-2.17,1.91-.13.24-.24.5-.32.77-.06.19.23.26.29.08h0Z"/>
  <path d="M121.8,59.49c-1.93-.14-3.87-.12-5.8.04-.19.02-.19.32,0,.3,1.93-.17,3.87-.18,5.8-.04.19.01.19-.29,0-.3h0Z"/>
  <path d="M123.04,61.83c-1.91-.65-4.03-.53-5.86.31-.18.08-.02.34.15.26,1.76-.81,3.8-.9,5.63-.28.18.06.26-.23.08-.29h0Z"/>
  <path d="M126.11,63.42c-1.93-.1-3.96-.19-5.78.57-.18.07-.1.36.08.29,1.8-.76,3.79-.66,5.7-.56.19.01.19-.29,0-.3h0Z"/>
  <path d="M128.91,62.18c.64-.96,1.48-1.8,2.45-2.43.28-.18.56-.35.86-.5.17-.09.02-.35-.15-.26-1.07.54-2.02,1.3-2.79,2.21-.22.26-.43.54-.62.82-.11.16.15.31.26.15h0Z"/>
  <path d="M124.67,55.93c-.24-.98-.09-2.03.41-2.9.1-.17-.16-.32-.26-.15-.54.94-.69,2.08-.44,3.13.05.19.33.11.29-.08h0Z"/>
  <path d="M150.88,57.59c.07,1.27.14,2.6-.39,3.78-.47,1.07-1.3,1.92-2.16,2.69-.14.13.07.34.21.21.7-.62,1.37-1.3,1.86-2.1.52-.85.76-1.79.81-2.78.03-.6,0-1.2-.03-1.79-.01-.19-.31-.19-.3,0h0Z"/>
  <path d="M146.51,59.03c-.25,1.38-.06,2.8.54,4.07.08.17.34.02.26-.15-.56-1.19-.74-2.55-.51-3.84.03-.19-.26-.27-.29-.08h0Z"/>
  <path d="M143.95,56.06c-.29,1.97-.55,4.11.45,5.93.09.17.35.02.26-.15-.95-1.75-.69-3.81-.42-5.7.03-.19-.26-.27-.29-.08h0Z"/>
  <path d="M111.16,80.41c-.05.87-.06,1.74-.03,2.62,0,.19.31.19.3,0-.03-.87-.02-1.75.03-2.62,0-.08-.07-.15-.15-.15-.09,0-.15.07-.15.15h0Z"/>
  <path d="M105.7,78.93c-.18,1.4.31,2.85,1.25,3.9.27.3.57.56.9.78.16.11.31-.15.15-.26-1.1-.74-1.84-1.98-2-3.29-.05-.38-.05-.76,0-1.13.01-.08-.08-.15-.15-.15-.09,0-.14.07-.15.15h0Z"/>
  <path d="M100.97,85.78c1.71.35,3.47.35,5.18,0,.19-.04.11-.33-.08-.29-1.65.33-3.37.33-5.02,0-.19-.04-.27.25-.08.29h0Z"/>
  <path d="M103.33,91.11c1.49-.1,3.15-.25,4.25-1.39.13-.14-.08-.35-.21-.21-1.04,1.08-2.63,1.2-4.04,1.3-.19.01-.19.31,0,.3h0Z"/>
  <path d="M109.7,89.72c-.46,1.04-1.28,1.89-2.3,2.4-.29.14-.59.25-.89.33-.19.05-.11.34.08.29,1.16-.3,2.18-1.02,2.88-1.99.2-.27.36-.56.5-.87.03-.07.02-.16-.05-.21-.06-.04-.17-.02-.21.05h0Z"/>
  <path d="M112.92,90.5c.59.5,1.09,1.09,1.49,1.76.11.19.22.38.31.58.04.07.14.09.21.05.07-.04.09-.13.05-.21-.35-.71-.81-1.37-1.36-1.94-.16-.16-.32-.31-.49-.46-.06-.05-.15-.06-.21,0-.05.05-.06.16,0,.21h0Z"/>
  <path d="M115.26,89.4c.89.22,1.66.84,2.1,1.64.13.23.22.46.28.72.05.19.34.11.29-.08-.25-.96-.93-1.8-1.8-2.26-.25-.13-.52-.24-.79-.31-.19-.05-.27.24-.08.29h0Z"/>
  <path d="M114.76,84.7c1.25-.51,2.3-1.45,2.94-2.63.18-.33.33-.68.44-1.05.06-.19-.23-.26-.29-.08-.37,1.21-1.17,2.27-2.22,2.97-.3.2-.61.37-.94.5-.07.03-.13.1-.1.18.02.07.11.14.18.1h0Z"/>
  <path d="M84.73,95.5c-1.62,1.57-2.39,3.85-2.07,6.09.1.67.3,1.32.58,1.94.08.18.34.02.26-.15-1.18-2.59-.59-5.68,1.45-7.66.14-.13-.07-.35-.21-.21h0Z"/>
  <path d="M86.94,98.62c-1.16,1.07-2.06,2.47-2.18,4.08-.03.46,0,.93.11,1.38.04.19.33.11.29-.08-.47-1.97.58-3.86,1.99-5.16.14-.13-.07-.34-.21-.21h0Z"/>
  <path d="M87.17,103.9c1.6-.09,3.14-.71,4.37-1.73.35-.29.67-.61.96-.96.12-.15-.09-.36-.21-.21-.98,1.19-2.33,2.04-3.83,2.41-.42.1-.85.17-1.28.19-.19.01-.19.31,0,.3h0Z"/>
  <path d="M62.04,97.79c.81.69,1.36,1.66,1.55,2.72.05.3.08.6.07.9,0,.19.3.19.3,0,.02-1.13-.36-2.25-1.05-3.14-.2-.25-.42-.48-.66-.69-.15-.12-.36.09-.21.21h0Z"/>
  <path d="M59.82,100.17c.3.94.73,1.84,1.27,2.66.04.07.13.1.21.05.07-.04.1-.14.05-.21-.53-.8-.95-1.67-1.24-2.59-.06-.18-.35-.1-.29.08h0Z"/>
  <path d="M57.37,101.41c.41.61.9,1.18,1.44,1.68.15.14.31.28.48.41.06.05.15.06.21,0,.05-.05.06-.16,0-.21-.57-.45-1.08-.98-1.53-1.55-.12-.15-.24-.32-.35-.48-.05-.07-.13-.1-.21-.05-.07.04-.1.14-.05.21h0Z"/>
  <path d="M52.1,105.58c1.82.67,3.77,1.36,5.73.92.19-.04.11-.33-.08-.29-1.9.43-3.81-.27-5.57-.92-.18-.07-.26.22-.08.29h0Z"/>
  <path d="M52.52,109.51c1.7.32,3.47.19,5.11-.37.18-.06.1-.35-.08-.29-1.58.55-3.3.68-4.95.37-.19-.04-.27.25-.08.29h0Z"/>
  <path d="M56.51,113.77c1.19-.1,2.32-.65,3.13-1.53.23-.25.43-.52.6-.81.1-.17-.16-.32-.26-.15-.56.96-1.49,1.68-2.55,2.01-.3.09-.61.15-.92.18-.19.02-.19.32,0,.3h0Z"/>
  <path d="M61.78,111.17c-.2.82-.62,1.58-1.2,2.19-.17.17-.34.34-.53.49-.06.05-.05.16,0,.21.06.06.15.05.21,0,.7-.55,1.24-1.28,1.57-2.1.09-.23.17-.46.23-.7.05-.19-.24-.27-.29-.08h0Z"/>
  <path d="M53.1,135.95c-.14-1.46.14-2.95.8-4.26.09-.17-.17-.32-.26-.15-.69,1.35-.99,2.89-.84,4.41.02.19.32.19.3,0h0Z"/>
  <path d="M54.55,136.07c.3-.93.75-1.81,1.32-2.61.16-.23.34-.45.52-.66.13-.15-.09-.36-.21-.21-.67.77-1.21,1.65-1.61,2.59-.11.27-.22.54-.31.82-.06.18.23.26.29.08h0Z"/>
  <path d="M50.23,136.87c.07-1.16-.47-2.34-1.36-3.08-.25-.21-.53-.39-.83-.52-.07-.03-.16-.02-.21.05-.04.06-.02.17.05.21,1,.44,1.74,1.37,1.97,2.43.07.3.09.61.07.91-.01.19.29.19.3,0h0Z"/>
  <path d="M49.23,139.45c-1.01.02-2.02-.12-2.99-.42-.18-.06-.26.23-.08.29.99.31,2.03.45,3.07.43.19,0,.19-.3,0-.3h0Z"/>
  <path d="M49.42,142.01c-1.23,1-2.59,1.83-4.04,2.47-.41.18-.83.34-1.26.49-.18.06-.1.35.08.29,1.53-.53,3-1.27,4.33-2.2.38-.26.75-.54,1.1-.83.15-.12-.06-.33-.21-.21h0Z"/>
  <path d="M50.62,143.98c-.68.63-1.09,1.53-1.15,2.45-.02.27,0,.53.04.79.01.08.11.12.18.1.09-.02.12-.1.1-.18-.13-.84.09-1.71.57-2.41.14-.2.29-.38.47-.54.14-.13-.07-.34-.21-.21h0Z"/>
  <path d="M54.67,143.13c.19.81.19,1.66,0,2.46-.02.08.02.16.1.18.08.02.17-.03.18-.1.2-.86.2-1.76,0-2.62-.04-.19-.33-.11-.29.08h0Z"/>
  <path d="M56.44,140.91c.76,1.08,1,2.49.63,3.76-.05.19.24.27.29.08.31-1.05.22-2.19-.21-3.19-.12-.28-.27-.55-.45-.8-.11-.16-.37,0-.26.15h0Z"/>
  <path d="M97.19,129.88c-.3-.84-.22-1.79.2-2.58.12-.22.26-.43.43-.62.13-.14-.08-.36-.21-.21-.64.72-.97,1.72-.87,2.68.03.28.08.55.18.81.06.18.35.1.29-.08h0Z"/>
  <path d="M95.37,130.39c-.55-.51-1.07-1.04-1.56-1.6-.14-.16-.28-.32-.41-.48-.05-.06-.16-.05-.21,0-.06.06-.05.15,0,.21.48.57.99,1.12,1.52,1.64.15.15.3.29.46.44.06.06.15.06.21,0,.06-.06.06-.16,0-.21h0Z"/>
  <path d="M93.39,131.56c-1.32-.37-2.63-.81-3.91-1.31-.08-.03-.16.03-.18.1-.02.08.03.16.1.18,1.28.5,2.59.94,3.91,1.31.19.05.27-.24.08-.29h0Z"/>
  <path d="M94.9,136.03c-1,.36-1.88,1.02-2.51,1.89-.17.24-.33.49-.46.76-.04.07-.02.16.05.21.07.04.17.02.21-.05.44-.9,1.15-1.65,2.02-2.15.24-.14.5-.26.77-.35.08-.03.13-.1.1-.18-.02-.07-.11-.13-.18-.1h0Z"/>
  <path d="M100.57,134.6c.83-.34,1.75-.43,2.64-.26.08.02.16-.02.18-.1.02-.07-.02-.17-.1-.18-.93-.18-1.91-.1-2.8.26-.08.03-.13.1-.1.18.02.07.11.14.18.1h0Z"/>
  <path d="M98.45,135.86c-.15.99.04,2.02.54,2.89.1.17.36.02.26-.15-.46-.8-.65-1.75-.51-2.66.01-.08-.02-.16-.1-.18-.07-.02-.17.02-.18.1h0Z"/>
  <path d="M99.96,131.02c.07-.32.18-.6.34-.88s.34-.51.57-.74c.14-.13.26-.23.41-.33.07-.05.1-.13.05-.21-.04-.07-.14-.1-.21-.05-.57.39-1.02.94-1.28,1.58-.07.18-.13.36-.17.54-.02.08.02.16.1.18.08.02.17-.03.18-.1h0Z"/>
  <path d="M123.57,136.55c-.97-.58-1.9-1.21-2.8-1.9-.06-.05-.17,0-.21.05-.05.08-.01.16.05.21.89.69,1.83,1.32,2.8,1.9.17.1.32-.16.15-.26h0Z"/>
  <path d="M128,135.69c-.08-.98.29-1.98.97-2.69.19-.2.41-.38.65-.53.16-.1.01-.36-.15-.26-.9.56-1.54,1.53-1.72,2.58-.05.3-.07.6-.05.9,0,.08.06.15.15.15.08,0,.16-.07.15-.15h0Z"/>
  <path d="M131.24,139.91c.82-.41,1.84-.39,2.64.06.17.09.32-.16.15-.26-.69-.39-1.53-.49-2.3-.3-.22.06-.44.14-.64.24-.07.04-.09.14-.05.21.04.07.13.09.21.05h0Z"/>
  <path d="M129.64,143.12c1.36-.45,2.82-.52,4.22-.2.19.04.27-.25.08-.29-1.44-.33-2.97-.27-4.38.2-.18.06-.1.35.08.29h0Z"/>
  <path d="M122.45,139.19c-.99-.27-2.08-.21-3.03.18-.27.11-.53.24-.78.4-.16.1-.01.36.15.26,1.05-.68,2.37-.88,3.58-.55.19.05.27-.24.08-.29h0Z"/>
  <path d="M123.62,141.6c-.79.57-1.48,1.28-2.03,2.08-.15.23-.3.46-.43.7-.09.17.17.32.26.15.45-.82,1.03-1.56,1.73-2.19.19-.17.4-.34.61-.49.07-.05.1-.13.05-.21-.04-.06-.14-.1-.21-.05h0Z"/>
  <path d="M126.17,142.77c-.43,1.65-.31,3.43.33,5.02.07.18.36.1.29-.08-.63-1.54-.75-3.25-.33-4.86.05-.19-.24-.27-.29-.08h0Z"/>
  <path d="M129.72,136.75c.09-.13.17-.23.28-.35s.23-.22.35-.32c0,0,.01,0,.02-.01.02-.02-.01.01,0,0,.01-.01.03-.02.04-.03.03-.02.07-.05.1-.07.06-.04.13-.09.2-.12s.14-.08.21-.11c.08-.04.12-.06.19-.08.17-.06.34-.11.52-.15.08-.02.13-.11.1-.18-.02-.08-.1-.12-.18-.1-.66.13-1.27.47-1.74.95-.14.14-.26.29-.37.45-.05.07-.01.17.05.21.07.04.16.01.21-.05h0Z"/>
  <path d="M123.29,132.22c.31.92.78,1.78,1.37,2.55.17.22.34.42.53.62.13.14.34-.07.21-.21-.64-.68-1.16-1.46-1.54-2.31-.11-.24-.2-.48-.29-.73-.06-.18-.35-.1-.29.08h0Z"/>
  <path d="M137.16,98.44c-.34-1.08-.42-2.23-.24-3.34.01-.08-.02-.16-.1-.18-.07-.02-.17.02-.18.1-.19,1.17-.11,2.37.24,3.5.06.18.35.11.29-.08h0Z"/>
  <path d="M139.62,98.28l.21-2.05c0-.08-.07-.15-.15-.15-.09,0-.14.07-.15.15l-.21,2.05c0,.08.07.15.15.15.09,0,.14-.07.15-.15h0Z"/>
  <path d="M142.26,99.69c.81-.86,1.49-1.84,2.01-2.89.15-.3.29-.61.41-.92.03-.08-.03-.16-.1-.18-.09-.02-.15.03-.18.1-.42,1.06-1,2.06-1.71,2.95-.2.25-.41.5-.64.73-.13.14.08.35.21.21h0Z"/>
  <path d="M142.7,102.13c1.66-.04,3.32.02,4.97.2.19.02.19-.28,0-.3-1.65-.17-3.31-.24-4.97-.2-.19,0-.19.31,0,.3h0Z"/>
  <path d="M143.22,104.44c1.37.66,2.67,1.45,3.89,2.37.07.05.17.01.21-.05.05-.08.01-.16-.05-.21-1.22-.91-2.52-1.7-3.89-2.37-.17-.08-.33.17-.15.26h0Z"/>
  <path d="M140.41,106.41c.29,1.66.97,3.26,1.95,4.63.11.16.37,0,.26-.15-.98-1.35-1.63-2.91-1.92-4.56-.03-.19-.32-.11-.29.08h0Z"/>
  <path d="M136.08,106.03c-.94,1.45-1.75,2.99-2.42,4.58-.03.08.03.16.1.18.09.02.15-.03.18-.1.66-1.57,1.46-3.08,2.39-4.51.11-.16-.15-.31-.26-.15h0Z"/>
  <path d="M134.44,105.04c-.64.53-1.23,1.1-1.79,1.71-.16.17-.31.35-.46.53-.05.06-.06.15,0,.21.05.05.16.06.21,0,.53-.63,1.1-1.23,1.72-1.78.17-.16.35-.31.53-.46.06-.05.05-.16,0-.21-.06-.06-.15-.05-.21,0h0Z"/>
  <path d="M133.01,102.92c-1.89.64-3.69,1.56-5.31,2.72-.16.11,0,.37.15.26,1.6-1.15,3.37-2.06,5.24-2.69.18-.06.1-.35-.08-.29h0Z"/>
  <path d="M134.74,99.9c-1.24-.42-2.47-.84-3.71-1.26-.18-.06-.26.23-.08.29,1.24.42,2.47.84,3.71,1.26.18.06.26-.23.08-.29h0Z"/>
  <path d="M93.68,181.51c-.73-.92-1.01-2.18-.75-3.32.04-.19-.25-.27-.29-.08-.22.98-.08,2.01.37,2.91.13.25.28.49.46.71.05.06.16.05.21,0,.06-.06.05-.15,0-.21h0Z"/>
  <path d="M91.88,182.5c-.41-.71-.82-1.42-1.23-2.12-.04-.07-.14-.09-.21-.05s-.09.13-.05.21c.41.71.82,1.42,1.23,2.12.04.07.14.09.21.05s.09-.13.05-.21h0Z"/>
  <path d="M97.87,183.15c1.09-.7,2.05-1.59,2.82-2.62.22-.29.42-.6.61-.91.1-.17-.16-.32-.26-.15-.64,1.08-1.48,2.03-2.46,2.81-.28.22-.56.42-.86.61-.16.1-.01.36.15.26h0Z"/>
  <path d="M98.12,185.72c1.7-.65,3.39-1.35,5.05-2.1.18-.08.02-.34-.15-.26-1.64.74-3.3,1.43-4.98,2.07-.18.07-.1.36.08.29h0Z"/>
  <path d="M95.31,189c1.8-.86,3.76-1.35,5.76-1.45.19,0,.19-.31,0-.3-2.05.09-4.06.6-5.91,1.49-.17.08-.02.34.15.26h0Z"/>
  <path d="M90.4,187.64c-.51-1.34-1.22-2.59-2.11-3.72-.25-.32-.52-.63-.8-.92-.13-.14-.34.07-.21.21.95,1.01,1.75,2.17,2.36,3.42.17.35.33.72.47,1.08.07.18.36.1.29-.08h0Z"/>
  <path d="M119.57,199.84c-.57-1.54-1.01-3.13-1.31-4.74-.04-.19-.32-.11-.29.08.3,1.61.74,3.2,1.31,4.74.07.18.36.1.29-.08h0Z"/>
  <path d="M121.6,199.21c.26-.99.36-2.02.28-3.04,0-.08-.06-.15-.15-.15-.08,0-.16.07-.15.15.07.99-.02,1.99-.27,2.96-.05.19.24.27.29.08h0Z"/>
  <path d="M124.48,201.3c.59-.96,1.39-1.79,2.33-2.4.27-.17.55-.33.84-.47.07-.04.09-.14.05-.21-.04-.07-.13-.09-.21-.05-1.05.51-1.98,1.25-2.7,2.16-.21.26-.4.53-.57.82-.1.17.16.32.26.15h0Z"/>
  <path d="M123.44,204.19c1.35-.14,2.68-.47,3.93-1,.07-.03.13-.1.1-.18-.02-.07-.11-.14-.18-.1-1.23.51-2.53.85-3.85.98-.08,0-.15.06-.15.15,0,.07.07.16.15.15h0Z"/>
  <path d="M121.92,206.66c.85.8,1.94,1.34,3.1,1.52.33.05.67.08,1,.07.19,0,.19-.3,0-.3-1.11.02-2.22-.31-3.15-.92-.26-.17-.51-.37-.74-.59-.14-.13-.35.08-.21.21h0Z"/>
  <path d="M118.36,208.16c-.3.93-.9,1.76-1.7,2.33-.23.16-.47.3-.72.42-.07.03-.09.14-.05.21.04.08.13.09.21.05.94-.44,1.73-1.2,2.22-2.11.14-.26.25-.53.34-.82.06-.18-.23-.26-.29-.08h0Z"/>
  <path d="M114.96,203.69c-1.56.02-3.11-.3-4.53-.93-.17-.08-.33.18-.15.26,1.47.65,3.07.99,4.68.97.19,0,.19-.3,0-.3h0Z"/>
  <path d="M115.01,201.05c-.3-.29-.7-.41-1.08-.54-.45-.15-.91-.29-1.37-.42-.92-.26-1.86-.49-2.8-.68-.19-.04-.27.25-.08.29.91.18,1.81.4,2.71.65.44.12.88.26,1.32.4.38.12.81.22,1.1.51.14.14.35-.08.21-.21h0Z"/>
  <path d="M98.61,225.34c-1.15-1.53-1.87-3.36-2.07-5.26-.02-.19-.32-.19-.3,0,.16,1.52.63,3,1.39,4.33.22.38.46.74.72,1.09.11.15.38,0,.26-.15h0Z"/>
  <path d="M102.13,225.66c.62-.51,1.12-1.16,1.46-1.89.1-.21.18-.43.25-.65.06-.18-.23-.26-.29-.08-.23.73-.63,1.4-1.15,1.96-.15.16-.31.31-.48.45-.06.05-.05.16,0,.21.06.06.15.05.21,0h0Z"/>
  <path d="M104.86,228.78c1.58.1,3.17-.21,4.6-.9.17-.08.02-.34-.15-.26-1.38.66-2.92.96-4.45.86-.19-.01-.19.29,0,.3h0Z"/>
  <path d="M104.57,233.1c1.22.35,2.39.86,3.49,1.5.17.1.32-.16.15-.26-1.12-.65-2.32-1.16-3.56-1.53-.19-.05-.27.24-.08.29h0Z"/>
  <path d="M101.32,233.77c.36,1.9.54,3.84.55,5.77,0,.19.3.19.3,0,0-1.96-.19-3.92-.56-5.85-.04-.19-.32-.11-.29.08h0Z"/>
  <path d="M97.63,232.92c-.06.77-.38,1.54-.88,2.14-.05.06-.06.15,0,.21.05.05.16.06.21,0,.43-.52.74-1.13.88-1.79.04-.19.07-.38.08-.57,0-.08-.07-.15-.15-.15-.09,0-.14.07-.15.15h0Z"/>
  <path d="M95.96,231c-.69,1.09-1.9,1.67-3.09,2.05-.38.12-.76.23-1.15.34-.19.05-.11.34.08.29,1.32-.37,2.68-.76,3.72-1.7.27-.24.5-.52.7-.82.1-.16-.16-.31-.26-.15h0Z"/>
  <path d="M96.32,227.82c-1.44-.71-2.88-1.41-4.31-2.12-.17-.08-.32.17-.15.26,1.44.71,2.88,1.41,4.31,2.12.17.08.32-.17.15-.26h0Z"/>
  <path d="M70.9,193.65c1.12,1.97,2.36,4.09,4.56,5.01.57.24,1.18.37,1.8.38.19,0,.19-.3,0-.3-2.27,0-3.97-1.79-5.11-3.57-.35-.54-.67-1.1-.98-1.67-.1-.17-.35-.02-.26.15h0Z"/>
  <path d="M75.7,192.71c.51.65.99,1.31,1.46,1.99.23.33.45.66.67,1,.2.31.38.65.41,1.03.01.19.31.19.3,0-.05-.63-.43-1.17-.77-1.68-.37-.56-.76-1.11-1.16-1.65-.23-.31-.46-.61-.69-.91-.05-.06-.16-.05-.21,0-.06.06-.05.15,0,.21h0Z"/>
  <path d="M75.89,189.63c1.14.48,2.14,1.29,2.85,2.3.2.29.39.6.54.92.08.17.34.02.26-.15-.56-1.16-1.46-2.14-2.55-2.83-.3-.19-.63-.36-.96-.5-.07-.03-.16-.02-.21.05-.04.06-.02.17.05.21h0Z"/>
  <path d="M74.72,213.75c-.48,2.3-.41,4.69.2,6.96.05.19.34.11.29-.08-.6-2.21-.67-4.55-.2-6.8.04-.19-.25-.27-.29-.08h0Z"/>
  <path d="M68.27,216.33c.45,1.19,1.12,2.3,1.97,3.25.24.27.5.52.76.77.14.13.36-.08.21-.21-.92-.83-1.68-1.82-2.24-2.93-.16-.31-.3-.63-.42-.96-.07-.18-.36-.1-.29.08h0Z"/>
  <path d="M63.92,222.96c1.99.2,3.98.24,5.98.11.19-.01.19-.31,0-.3-1.99.12-3.99.09-5.98-.11-.19-.02-.19.28,0,.3h0Z"/>
  <path d="M66.5,228.05c1.1-.54,2.2-1.09,3.31-1.63.17-.09.02-.34-.15-.26-1.1.54-2.2,1.09-3.31,1.63-.17.09-.02.34.15.26h0Z"/>
  <path d="M72.9,228.64c0,1.03-.22,2.05-.65,2.99-.03.07-.02.16.05.21.06.04.17.02.21-.05.45-.98.69-2.05.69-3.14,0-.19-.3-.19-.3,0h0Z"/>
  <path d="M77.12,227.49c.82,1.22,1.28,2.66,1.31,4.13,0,.19.3.19.3,0-.03-1.52-.5-3.02-1.35-4.28-.11-.16-.37,0-.26.15h0Z"/>
  <path d="M78.89,225.62c1.44-.52,2.88-1.07,4.31-1.63.18-.07.1-.36-.08-.29-1.43.56-2.86,1.11-4.31,1.63-.18.07-.1.36.08.29h0Z"/>
  <path d="M78,222.69c.9-.81,1.68-1.75,2.32-2.77.18-.29.36-.59.52-.9.09-.17-.17-.32-.26-.15-.55,1.06-1.24,2.03-2.06,2.9-.23.25-.48.49-.73.72-.14.13.07.34.21.21h0Z"/>
  <path d="M40.32,216.44c.18,1.45.66,2.86,1.42,4.11.1.16.36.01.26-.15-.74-1.2-1.21-2.56-1.38-3.96,0-.08-.06-.15-.15-.15-.07,0-.16.07-.15.15h0Z"/>
  <path d="M45,215.42c-.48,1.55-.48,3.23-.02,4.79.06.18.34.11.29-.08-.45-1.51-.44-3.13.02-4.63.06-.19-.23-.26-.29-.08h0Z"/>
  <path d="M33.35,222.7c1.98.34,4,.35,5.98,0,.19-.03.11-.32-.08-.29-1.92.33-3.9.33-5.82,0-.19-.03-.27.26-.08.29h0Z"/>
  <path d="M35.09,225.62c1.18.15,2.38.05,3.52-.27.19-.05.11-.34-.08-.29-1.12.32-2.29.4-3.44.26-.08-.01-.15.08-.15.15,0,.09.07.14.15.15h0Z"/>
  <path d="M36.61,231.35c1.5-.19,2.91-.97,3.86-2.14.27-.33.5-.69.69-1.07.09-.17-.17-.32-.26-.15-.64,1.28-1.78,2.28-3.12,2.77-.38.14-.78.24-1.18.29-.08.01-.15.06-.15.15,0,.07.07.16.15.15h0Z"/>
  <path d="M44.46,227.91c.09.76.45,1.49,1.01,2.02.16.15.33.28.51.4.07.04.17.01.21-.05.04-.07.01-.16-.05-.21-.58-.37-1.02-.95-1.24-1.6-.03-.09-.06-.19-.08-.29s-.04-.2-.05-.28-.06-.15-.15-.15c-.07,0-.16.07-.15.15h0Z"/>
  <path d="M50.22,218.83c-.12.62-.38,1.2-.77,1.7-.11.14-.23.27-.35.4-.14.14.07.35.21.21.48-.47.84-1.05,1.06-1.69.06-.18.11-.36.14-.54.02-.08-.02-.16-.1-.18-.07-.02-.17.02-.18.1h0Z"/>
  <path d="M49.05,221.28c.19,0,.19-.3,0-.3s-.19.3,0,.3h0Z"/>
  <path d="M28.38,248.46c-.43,1.95.21,4.03,1.68,5.39.38.36.82.66,1.29.9.17.09.32-.17.15-.26-1.63-.83-2.76-2.45-2.93-4.28-.05-.56-.02-1.12.1-1.66.04-.19-.25-.27-.29-.08h0Z"/>
  <path d="M24.05,252.67c.89.91,1.83,1.77,2.82,2.58.28.23.57.45.86.67.06.05.17.01.21-.05.05-.08.01-.16-.05-.21-1-.76-1.95-1.58-2.86-2.45-.26-.25-.51-.5-.76-.75-.14-.14-.35.07-.21.21h0Z"/>
  <path d="M18.8,259.19c2.12-.57,4.33-.75,6.51-.53.19.02.19-.28,0-.3-2.21-.22-4.45-.03-6.59.54-.19.05-.11.34.08.29h0Z"/>
  <path d="M24.56,264.99c.29-.4.7-.7,1.1-.99s.79-.61,1.09-1.01c.16-.22.29-.47.36-.73.05-.19-.24-.27-.29-.08-.26.95-1.23,1.45-1.93,2.04-.22.19-.42.39-.59.62-.05.07-.01.17.05.21.08.04.16.01.21-.05h0Z"/>
  <path d="M77.35,266.66c-1.55,1.03-3.14,2-4.78,2.89-.17.09-.02.35.15.26,1.64-.89,3.23-1.85,4.78-2.89.16-.11,0-.37-.15-.26h0Z"/>
  <path d="M79.94,267.99c-.53,2.06-.32,4.26.58,6.19.08.17.34.02.26-.15-.87-1.85-1.06-3.98-.55-5.96.05-.19-.24-.27-.29-.08h0Z"/>
  <path d="M83.52,267.43c.55.61,1.08,1.24,1.58,1.9.14.19.29.38.42.57.05.07.13.1.21.05.06-.04.1-.14.05-.21-.5-.68-1.02-1.35-1.57-1.99-.16-.18-.32-.36-.48-.54-.05-.06-.16-.06-.21,0-.06.06-.05.15,0,.21h0Z"/>
  <path d="M85.16,264.73c1.17.1,2.31.5,3.28,1.14.16.11.31-.15.15-.26-1.02-.68-2.21-1.08-3.44-1.19-.08,0-.15.07-.15.15,0,.09.07.14.15.15h0Z"/>
  <path d="M84.87,261.82c1.62-1.09,3.51-1.76,5.46-1.93.19-.02.19-.32,0-.3-2,.17-3.94.85-5.61,1.97-.16.11,0,.37.15.26h0Z"/>
  <path d="M83.13,254.22c-1.07,1.61-1.58,3.58-1.41,5.52.02.19.32.19.3,0-.16-1.88.33-3.79,1.37-5.36.11-.16-.15-.31-.26-.15h0Z"/>
  <path d="M83.88,257.75c-.17.81-.46,1.59-.86,2.31-.09.17.17.32.26.15.41-.75.71-1.55.89-2.39.02-.08-.02-.16-.1-.18-.07-.02-.17.03-.18.1h0Z"/>
  <path d="M77.62,254.51c.43,1.51.86,3.05,1.65,4.42.22.39.47.75.74,1.1.12.15.33-.06.21-.21-1.23-1.56-1.78-3.51-2.31-5.39-.05-.19-.34-.11-.29.08h0Z"/>
  <path d="M72.29,257.53c1.02,1.34,2.33,2.45,3.83,3.22.42.22.86.4,1.3.57.18.07.26-.22.08-.29-1.52-.55-2.91-1.45-4.05-2.6-.32-.33-.63-.68-.91-1.05-.12-.15-.38,0-.26.15h0Z"/>
  <path d="M71.58,263.42c1.61.18,3.23.29,4.85.33.19,0,.19-.3,0-.3-1.62-.04-3.24-.15-4.85-.33-.19-.02-.19.28,0,.3h0Z"/>
  <path d="M74.25,266.11c.86,0,1.71-.12,2.54-.34.19-.05.11-.34-.08-.29-.8.21-1.63.32-2.46.33-.19,0-.19.3,0,.3h0Z"/>
</svg>