<?xml version="1.0" encoding="UTF-8"?>
<svg id="Layer_1" data-name="Layer 1" xmlns="http://www.w3.org/2000/svg" viewBox="0 0 289.13 430.87">
  <defs>
    <style>
      .cls-1 {
        fill: #fffff3;
      }

      .cls-1, .cls-2, .cls-3 {
        stroke: #000;
        stroke-miterlimit: 10;
        stroke-width: .5px;
      }

      .cls-2 {
        fill: #f9f1b7;
      }

      .cls-3 {
        fill: #ced38d;
      }
    </style>
  </defs>
  <g>
    <path class="cls-3" d="M81.27,247.04s16.95,23.69,35.95,72.51c0,0-31.78-41.5-42.86-39.09,0,0-.75,3,.33,4.58,0,0-8.33-6.25-22.5-1.25,0,0,.58,11.83,20.75,14.33,0,0,4.5,1.08,6.75,3.17,0,0-5.83,3-12.17,3.33,0,0,3.4,7.52,11.65,8.19,8.25.67,10.84-1.15,17.17.58,6.11,1.67,31.83,12.42,36.53,60.92.3,3.05,2.87,5.37,5.93,5.37h0c3.33,0,6.02-2.72,5.96-6.06-.17-10.58,2.02-32.64,21.29-46.63,0,0,4.04-1.16,15.89-.13,0,0,5.67-.52,9.66-2.96,3.99-2.45,5.92-3.48,5.92-3.48,0,0,.26-5.87-13.26-7.06,0,0,16.24.77,22.35-7.86l-2.06-.76s12.07-4.89,10.39-11.61c0,0-2.9-5.04-14.59-.61,0,0-1.83-3.36-.92-4.28,0,0-7.94,1.6-12.91,10.08,0,0-1.15-4.89-.15-6.19,0,0-2.6,1.15-3.51,3.21,0,0-1.07-1.68-.76-3.44,0,0-14.21,1.99-22.68,28.56,0,0-1.45,5.19-11.99,19.63,0,0,.97-43.48,37.96-69.3,0,0,30.61,2.07,37.64-17.31,0,0-9,1.08-11.53,0,0,0,24.34-16.86,23.87-22.8,0,0-6.56-6.4-15.46-1.25,0,0-2.19-1.51-1.25-3.33,0,0-12.18.83-20.31,20.83,0,0-.4-7.63,1.68-9.71,0,0-14.69-2.54-20.85,29.72,0,0-18.87,19.02-21.45,23.16,0,0,15.29-47.72,39.15-91.87l-11.14,4.57s-25.29,57.72-26.29,64.01c0,0-2.59-19-.97-23.45,1.62-4.45,7.38-18.6-3.03-21.23,0,0-2.53,1.21-3.44,6.07,0,0-3.13-.12-4.25-2.08,0,0-3.84,5.52,1.21,15.73,0,0-3.94-1.01-4.35-2.93,0,0-2.83,4.55,3.94,15.06,6.77,10.51,7.28,15.77,7.28,18.7s-6.56,31.94-7.65,35.9c-1.08,3.97-6.53,29.89-7.15,38.72,0,0,0-54.53-.15-60.58-.15-6.04-10.99-85.89-14.92-99.01-3.93-13.12-7.86-32.39-7.86-32.39l-7.3-6.73,1.02,7.68s2.07,9.73,7.02,25.76c5.38,17.43,13.98,69.34,15.45,93.46.81,13.37,1.2,25.07,2.14,77.71,0,0-10.51-16.04-9.38-33.92,1.13-17.88,6.33-19.7,5.35-27.45,0,0-.42-4.36-4.22-4.79,0,0-.14-15.34-5.63-15.76,0,0-5.63,2.81-4.64,12.95,0,0-3.24.56-3.66-1.27s-2.26,9.35,3.63,14.52c0,0,2.99,7.44,2.36,16.05,0,0-27.11-65.37-30.98-68.16s-9.96-5.26-9.96-5.26l1.97,6.93Z"/>
    <g>
      <path class="cls-1" d="M68.88,237.33s-1.89,33.61,10.41,30.17c12.3-3.44.66-28.86.66-28.86l-8.53-6.39-2.54,5.08Z"/>
      <path class="cls-1" d="M79.3,221.59s33.53-11.72,34.1,1.15c.57,12.87-34.1,13.53-34.1,13.53v-14.67Z"/>
      <path class="cls-1" d="M68.56,200.2s4.35-15.74,13.2-14.35,5.82,19.1,5.82,19.1l-12.46,14.26-5.25-3.44-1.31-15.58Z"/>
      <path class="cls-1" d="M184.34,167.87s-24.49-4.72-22.41-13.48,13.35-7.66,18.17-7.31,20.87,5.4,20.87,5.4l2.3,6.82-4.8,8.58h-14.13Z"/>
      <path class="cls-1" d="M199.04,164s-33.15-2.92-35.32,16.95,48.78-10.45,48.78-10.45l-13.47-6.5Z"/>
      <path class="cls-1" d="M201.48,171.63s-29.5,21.08-20.06,33.34c7.35,9.54,30.07-18.84,30.07-18.84l-4.45-16.2-5.56,1.7Z"/>
      <path class="cls-1" d="M206.19,174.92s-11.3,38.99-.66,40.5c10.64,1.51,16.48-25.52,16.48-25.52l-7.35-19.97-8.48,4.99Z"/>
      <path class="cls-1" d="M234.07,182.02c.19.44,10.89,23.79,2.05,27.56-8.84,3.77-13.92-6.31-14.87-9.89s-6.03-25.62-6.03-25.62l13.09.47,5.75,7.47Z"/>
      <path class="cls-1" d="M213.16,151.47s-2.64-32.49,13.56-34.28c16.2-1.79.57,39.27.57,39.27l-11.4,2.83-2.73-7.82Z"/>
      <path class="cls-1" d="M103.54,109.78s-6.52-33.09-19.56-28.71c-13.04,4.39,6.02,34.17,6.02,34.17l11.41,2.09,2.13-7.55Z"/>
      <path class="cls-1" d="M91.88,119.31s-34.97-7.9-38.23,5.39c-3.26,13.29,30.96,9.53,30.96,9.53l10.91-6.64-3.64-8.27Z"/>
      <path class="cls-1" d="M90,128.96s-33.85,2.24-29.71,24.31c0,0,13.12,14.66,33.47-20.92l-3.76-3.38Z"/>
      <path class="cls-1" d="M93.13,133.85s-26.07,26.83-14.17,34.85,22.94-20.97,22.94-20.97l-1.25-14.88-7.52,1Z"/>
      <path class="cls-1" d="M100.53,135.61s-11.78,38.86,3.26,39.24,7.77-29.21,7.77-29.21c0,0-6.02-13.54-6.83-13.91s-4.2,3.89-4.2,3.89Z"/>
      <path class="cls-1" d="M104.92,135.73s8.77,36.48,24.44,31.71c15.67-4.76-9.78-34.72-9.78-34.72l-10.03-5.14-4.64,8.15Z"/>
      <path class="cls-1" d="M113.44,130.59s24.95,28.83,34.35,20.31c9.4-8.52-15.54-23.07-15.54-23.07l-14.79-2.38-4.01,5.14Z"/>
      <path class="cls-1" d="M115.7,127.96s41.62,9.28,42.87-3.51c1.25-12.79-33.59-8.52-33.59-8.52l-10.03,3.26.75,8.77Z"/>
      <path class="cls-1" d="M116.57,120.69s42.12-8.52,35.98-21.06c-6.14-12.54-35.48,11.41-35.48,11.41l-7.52,9.15,7.02.5Z"/>
      <path class="cls-1" d="M112.56,111.54s8.4-37.23-6.14-36.35-3.51,42.14-3.51,42.14l9.65-5.79Z"/>
      <path class="cls-1" d="M109.56,110.43s7.89-33.11,21.46-29.72-11.63,34.33-15.68,35.03l-6.36,1.59.58-6.9Z"/>
      <path class="cls-1" d="M96.14,115.24s-19.54-26.82-32.21-16.87c-11.74,9.22,16.58,24.69,29.83,27.47l2.38-10.61Z"/>
      <ellipse class="cls-2" cx="104.18" cy="124.91" rx="15.9" ry="12.81" transform="translate(-33.03 37.56) rotate(-17.69)"/>
      <path class="cls-1" d="M225.59,169.18s30.46,4.93,30.56,20.38c.01,1.79-1.02,3.46-2.62,4.26-4.28,2.14-14.36,3.08-30.48-19.09l-6.03-2.83,8.57-2.73Z"/>
      <path class="cls-1" d="M61.33,217.44s-13.87-30.01-3.22-32.2c13.39-2.76,13.89,28.89,13.89,28.89l-.87,4.11-9.79-.8Z"/>
      <path class="cls-1" d="M75.69,215.85s14.51-23.77,27.05-17.71c12.54,6.07-11.64,22.05-14.02,23.36-2.38,1.31-11.72,4.59-11.72,4.59l-1.31-10.25Z"/>
      <path class="cls-1" d="M79.05,228.89s33.28,3.44,26.56,19.68c-6.72,16.23-33.61-12.95-33.61-12.95l7.05-6.72Z"/>
      <path class="cls-1" d="M60.11,233.15s-19.5,26.7-4.75,33.28c14.96,6.67,18.29-28.49,16.64-30.82l-11.89-2.46Z"/>
      <path class="cls-1" d="M219.94,154.96s16.04-29.85,31.44-21.55c12.37,6.67-18.94,28.8-18.94,28.8h-14.46l1.96-7.25Z"/>
      <path class="cls-1" d="M225.5,160.33s32.4-9.7,36.73,4.24c4.33,13.94-42.66,6.5-42.66,6.5l5.93-10.74Z"/>
      <path class="cls-1" d="M200.35,157.04s-34.75-16.4-24.11-28.74c10.64-12.34,32.4,22.04,32.4,22.04l-2.83,7.35-5.46-.65Z"/>
      <path class="cls-1" d="M206.1,153.36s-20.65-34.89-5.56-39.37c19.02-5.65,16.48,40.04,16.48,40.04l-7.16,3.66-3.77-4.33Z"/>
      <ellipse class="cls-2" cx="212.54" cy="165.1" rx="13.53" ry="14.51" transform="translate(25.31 358.44) rotate(-83.76)"/>
      <path class="cls-1" d="M47.98,220.2s-17.13-12.38-11.15-19.59c5.98-7.21,25.13,6.07,26.22,14.92l-.29,6.23-10.76,3.03-4.02-4.59Z"/>
      <path class="cls-1" d="M50.49,233.73s-20.46,2.3-23.58-8.12c-3.12-10.41,20-8.77,25.58-6.39,5.57,2.38,10.27,5.41,10.27,5.41l-8.71,10.08-3.56-.98Z"/>
      <path class="cls-1" d="M56.26,230.94s-22.91.69-24.15,16c-.24,3.02,1.73,5.82,4.68,6.53,5.29,1.28,14.5-.31,23.32-20.32l-3.85-2.21Z"/>
      <ellipse class="cls-2" cx="68.93" cy="226.92" rx="12.96" ry="12.31" transform="translate(-99.81 60.28) rotate(-28.46)"/>
    </g>
  </g>
  <path d="M159.43,327.26c6.85-4.66,14.38-8.28,22.29-10.73.18-.06.11-.35-.08-.29-7.94,2.45-15.49,6.08-22.36,10.76-.16.11,0,.37.15.26h0Z"/>
  <path d="M168.28,317.55c6.88-4.68,14.42-8.37,22.35-10.9,2.25-.72,4.52-1.34,6.82-1.88.19-.04.11-.33-.08-.29-8.1,1.88-15.91,4.92-23.15,9.01-2.09,1.18-4.12,2.45-6.1,3.8-.16.11,0,.37.15.26h0Z"/>
  <path d="M182.45,306.36c.34-.99,1.16-1.62,2.01-2.17.81-.52,1.65-1,2.49-1.49,1.82-1.06,3.67-2.06,5.58-2.96,3.83-1.81,7.91-3.15,12.16-3.46.19-.01.19-.31,0-.3-6.92.5-13.23,3.68-19.1,7.17-1.32.78-2.9,1.57-3.43,3.12-.06.18.23.26.29.08h0Z"/>
  <path d="M170.91,309.76c1.49-3.25,4.19-5.72,7.09-7.72.82-.57,1.67-1.11,2.52-1.63.16-.1.01-.36-.15-.26-3.04,1.86-6.04,3.97-8.18,6.86-.6.81-1.12,1.68-1.54,2.6-.08.17.18.33.26.15h0Z"/>
  <path d="M76.88,307.07c3.87.74,7.82.75,11.74,1.08,2.04.17,4.08.43,6.06.94,1.99.51,3.89,1.29,5.72,2.24,1.96,1.02,3.84,2.2,5.71,3.38.16.1.31-.16.15-.26-3.29-2.08-6.64-4.19-10.39-5.34-3.83-1.17-7.88-1.31-11.85-1.56-2.36-.14-4.73-.33-7.05-.77-.19-.04-.27.25-.08.29h0Z"/>
  <path d="M67.87,290.48c2.8,2.46,6.27,3.86,9.71,5.15,3.76,1.41,7.46,2.83,10.73,5.2,1.9,1.37,3.61,2.98,5.13,4.76.13.15.34-.07.21-.21-2.56-3-5.7-5.49-9.23-7.26-3.46-1.74-7.22-2.78-10.74-4.37-2.01-.91-3.94-2.01-5.6-3.47-.14-.13-.36.08-.21.21h0Z"/>
  <path d="M76.9,290.45c7.56,1.8,14.52,5.82,19.9,11.43,1.55,1.62,2.97,3.37,4.23,5.23.11.16.37,0,.26-.15-4.42-6.53-10.75-11.69-18.01-14.75-2.04-.86-4.14-1.54-6.29-2.06-.19-.04-.27.24-.08.29h0Z"/>
  <path d="M118.03,289.79c.39,2.4,1.28,4.72,2.59,6.77.1.16.36.01.26-.15-1.3-2.03-2.17-4.31-2.56-6.7-.03-.19-.32-.11-.29.08h0Z"/>
  <path d="M121.44,284.02c2.73,7.78,2.67,16.12,2.59,24.27,0,.19.3.19.3,0,.08-8.17.13-16.54-2.6-24.35-.06-.18-.35-.1-.29.08h0Z"/>
  <path d="M127.68,294.27c-.08,2.64-.45,5.26-1.08,7.82-.05.19.24.27.29.08.64-2.59,1-5.24,1.09-7.9,0-.19-.29-.19-.3,0h0Z"/>
  <path d="M185.61,264.67c.14-3.37,1.12-6.64,2.2-9.8.89-2.59,2.06-5.33,4.44-6.88.16-.1.01-.36-.15-.26-1.85,1.2-3.01,3.11-3.84,5.1-.98,2.33-1.74,4.82-2.3,7.28-.35,1.5-.58,3.03-.65,4.57,0,.19.29.19.3,0h0Z"/>
  <path d="M210.41,235.96c-2.72,6.53-6.92,12.42-12.19,17.13-1.52,1.36-3.12,2.61-4.8,3.76-.16.11,0,.37.15.26,5.93-4.05,10.91-9.45,14.48-15.68,1-1.74,1.88-3.54,2.65-5.39.07-.18-.22-.26-.29-.08h0Z"/>
  <path d="M222.08,237.7c-4.26,3.49-8.53,6.99-12.51,10.8s-7.29,7.79-11.78,10.66c-2.42,1.55-5.1,2.69-7.97,3.04-.19.02-.19.32,0,.3,5.05-.62,9.34-3.56,13-6.93,1.99-1.83,3.85-3.81,5.77-5.71,2.03-2,4.14-3.92,6.29-5.78,2.43-2.1,4.91-4.14,7.4-6.17.15-.12-.06-.33-.21-.21h0Z"/>
  <path d="M212.42,258.73c-4.33,5.38-11.54,6.49-17.97,7.38-.19.03-.11.32.08.29,5.23-.73,10.72-1.53,15.13-4.68,1.11-.79,2.11-1.72,2.97-2.78.12-.15-.09-.36-.21-.21h0Z"/>
  <path d="M148.32,246.2c1.36,2.28,2.73,4.55,4.09,6.83.65,1.09,1.32,2.17,1.96,3.27.63,1.08,1.21,2.19,1.54,3.4.05.19.34.11.29-.08-.32-1.16-.85-2.23-1.45-3.26-.65-1.13-1.34-2.25-2.01-3.37-1.39-2.31-2.78-4.63-4.16-6.94-.1-.17-.36-.01-.26.15h0Z"/>
  <path d="M150.36,234.9c.15,3.2.56,6.42,1.84,9.38,1.22,2.8,3.1,5.32,3.67,8.37.04.19.32.11.29-.08-.54-2.92-2.29-5.38-3.52-8.03-1.39-3.02-1.83-6.34-1.99-9.64,0-.19-.31-.19-.3,0h0Z"/>
  <path d="M155.16,230.77c.33,1.06.67,2.12.89,3.21s.32,2.25.32,3.39c0,2.29-.36,4.55-.73,6.81-.03.19.26.27.29.08.37-2.28.74-4.57.74-6.88,0-1.12-.09-2.24-.31-3.34-.22-1.13-.57-2.24-.92-3.34-.06-.18-.35-.11-.29.08h0Z"/>
  <path d="M223.26,182.25c3.32,6,6.25,12.22,8.76,18.61.07.18.36.1.29-.08-2.52-6.41-5.45-12.66-8.79-18.68-.09-.17-.35-.02-.26.15h0Z"/>
  <path d="M231.45,176.49c6.22,3.91,13.07,6.78,20.22,8.48.19.04.27-.24.08-.29-7.13-1.7-13.94-4.56-20.15-8.45-.16-.1-.31.16-.15.26h0Z"/>
  <path d="M230.64,166.62c7.77-.15,15.54-.3,23.32-.45.19,0,.19-.3,0-.3-7.77.15-15.54.3-23.32.45-.19,0-.19.3,0,.3h0Z"/>
  <path d="M228.27,154.98c4.06-4.58,8.4-8.91,13.01-12.94,1.3-1.14,2.62-2.25,3.96-3.34.15-.12-.06-.33-.21-.21-4.75,3.86-9.26,8.03-13.47,12.46-1.19,1.25-2.36,2.52-3.5,3.82-.13.14.08.36.21.21h0Z"/>
  <path d="M224.8,126c-.86,3.51-1.78,7.01-2.57,10.54-.77,3.47-.9,6.96-.76,10.5,0,.19.31.19.3,0-.14-3.59,0-7.11.79-10.62s1.68-6.9,2.52-10.34c.05-.19-.24-.27-.29-.08h0Z"/>
  <path d="M203.19,122.62c.99,8.1,3.01,16.06,6.01,23.66.07.18.36.1.29-.08-2.99-7.57-5.01-15.5-6-23.58-.02-.19-.32-.19-.3,0h0Z"/>
  <path d="M181.35,135.63c2.41,2.37,4.88,4.71,7.45,6.91,2.36,2.03,4.85,3.94,7.61,5.4,1.55.82,3.18,1.48,4.87,1.95.19.05.27-.24.08-.29-6.09-1.68-10.97-5.9-15.5-10.11-1.45-1.34-2.89-2.69-4.3-4.08-.14-.14-.35.08-.21.21h0Z"/>
  <path d="M170.58,156.63c7.69.91,15.4,1.61,23.12,2.11.19.01.19-.29,0-.3-7.72-.5-15.44-1.2-23.12-2.11-.19-.02-.19.28,0,.3h0Z"/>
  <path d="M172.36,179.79c7.1-4.51,14.93-7.79,23.12-9.68.19-.04.11-.33-.08-.29-8.22,1.9-16.08,5.19-23.2,9.71-.16.1-.01.36.15.26h0Z"/>
  <path d="M199.74,181.61c-1.78,2.02-3.5,4.08-5.15,6.2-1.56,2-3.18,4.02-4.46,6.22-.69,1.18-1.25,2.44-1.54,3.78-.04.19.25.27.29.08.53-2.4,1.9-4.46,3.32-6.41,1.56-2.14,3.18-4.23,4.86-6.27.94-1.15,1.91-2.27,2.89-3.39.13-.14-.08-.36-.21-.21h0Z"/>
  <path d="M207.32,206.85c1.83-3.08,3.1-6.45,3.75-9.97.69-3.74.73-7.55.77-11.33,0-.19-.3-.19-.3,0-.04,3.76-.08,7.54-.76,11.25-.64,3.5-1.9,6.85-3.72,9.9-.1.17.16.32.26.15h0Z"/>
  <path d="M115.22,109.34c2.75-5.48,5.93-10.74,9.51-15.71,1.04-1.45,2.12-2.87,3.23-4.28.12-.15-.09-.36-.21-.21-3.83,4.84-7.28,9.98-10.3,15.36-.87,1.54-1.69,3.11-2.49,4.69-.09.17.17.32.26.15h0Z"/>
  <path d="M121.09,115.6c6.38-4.68,13.49-8.32,21.02-10.74.18-.06.1-.35-.08-.29-7.55,2.43-14.69,6.08-21.09,10.77-.15.11,0,.37.15.26h0Z"/>
  <path d="M123.65,123.85c8.44-.73,16.93-.69,25.36.12.19.02.19-.28,0-.3-8.43-.81-16.92-.85-25.36-.12-.19.02-.19.32,0,.3h0Z"/>
  <path d="M121.7,134.05c7.17,3.14,13.97,7.08,20.26,11.73.16.11.31-.15.15-.26-6.29-4.65-13.09-8.59-20.26-11.73-.18-.08-.33.18-.15.26h0Z"/>
  <path d="M113.66,140.43c2.51,5.84,5.59,11.42,9.2,16.64,1.01,1.46,2.06,2.89,3.15,4.29.12.15.33-.06.21-.21-4.97-6.4-9.11-13.42-12.31-20.86-.08-.18-.33-.02-.26.15h0Z"/>
  <path d="M103.73,145.13c-1.03,7.21-.99,14.55.14,21.75.03.19.32.11.29-.08-1.12-7.14-1.16-14.43-.14-21.59.03-.19-.26-.27-.29-.08h0Z"/>
  <path d="M81.66,162.26c3.71-4.49,7.07-9.28,10.01-14.32.84-1.45,1.65-2.91,2.43-4.39.09-.17-.17-.32-.26-.15-2.69,5.13-5.78,10.04-9.25,14.67-1.01,1.35-2.06,2.68-3.14,3.98-.12.15.09.36.21.21h0Z"/>
  <path d="M66.86,148.39c5.87-4.17,11.95-8.04,18.22-11.57.17-.09.02-.35-.15-.26-6.27,3.53-12.35,7.4-18.22,11.57-.16.11,0,.37.15.26h0Z"/>
  <path d="M60.55,126.38c7.47.12,14.95.25,22.42.37.19,0,.19-.3,0-.3-7.47-.12-14.95-.25-22.42-.37-.19,0-.19.3,0,.3h0Z"/>
  <path d="M70.37,105.37c4.45,2.53,8.29,5.94,12.42,8.93,1.18.86,2.39,1.69,3.64,2.45.17.1.32-.16.15-.26-4.37-2.66-8.18-6.1-12.36-9.03-1.2-.84-2.43-1.63-3.7-2.36-.17-.1-.32.16-.15.26h0Z"/>
  <path d="M86.72,88.14c1.9,8.16,5.14,15.98,9.58,23.08.1.16.36.01.26-.15-4.43-7.09-7.66-14.87-9.55-23.01-.04-.19-.33-.11-.29.08h0Z"/>
  <path d="M106.17,86.25c.33,6.86.16,13.73-.5,20.56-.02.19.28.19.3,0,.66-6.83.83-13.71.5-20.56,0-.19-.31-.19-.3,0h0Z"/>
  <path d="M59.96,191.89c1.04,3.36,2.1,6.71,3.13,10.07s1.98,6.74,2.29,10.25c.02.19.32.19.3,0-.3-3.47-1.22-6.83-2.24-10.14-1.05-3.42-2.12-6.84-3.19-10.26-.06-.18-.35-.11-.29.08h0Z"/>
  <path d="M79.79,193.78c-1.55,6.16-3.55,12.2-5.98,18.07-.07.18.22.26.29.08,2.42-5.87,4.42-11.91,5.98-18.07.05-.19-.24-.27-.29-.08h0Z"/>
  <path d="M82.86,217.35c3.23-3.95,7.06-7.4,11.32-10.21,1.21-.8,2.46-1.54,3.73-2.23.17-.09.02-.35-.15-.26-4.51,2.44-8.65,5.56-12.22,9.24-1.01,1.04-1.97,2.12-2.89,3.24-.12.15.09.36.21.21h0Z"/>
  <path d="M85.08,226.78c6.82-1.06,13.72-1.59,20.62-1.59.19,0,.19-.3,0-.3-6.93,0-13.85.54-20.7,1.6-.19.03-.11.32.08.29h0Z"/>
  <path d="M81.34,236.65c2.48,1.2,5.17,1.86,7.69,2.97,2.41,1.07,4.72,2.39,6.86,3.93,1.27.91,2.47,1.89,3.62,2.94.14.13.35-.08.21-.21-3.91-3.58-8.52-6.34-13.53-8.1-1.58-.56-3.19-1.06-4.7-1.79-.17-.08-.33.17-.15.26h0Z"/>
  <path d="M74.83,245.76c.3,3.03.87,6.03,1.49,9.01.31,1.49.63,2.98.95,4.48.28,1.32.57,2.66,1.3,3.82.1.16.36.01.26-.15-.75-1.19-1.02-2.57-1.3-3.92-.31-1.44-.62-2.87-.92-4.31-.62-2.96-1.18-5.93-1.48-8.93-.02-.19-.32-.19-.3,0h0Z"/>
  <path d="M57.77,258.84c1.85-5.08,4.02-10.05,6.5-14.85.09-.17-.17-.32-.26-.15-2.5,4.83-4.68,9.81-6.53,14.92-.07.18.22.26.29.08h0Z"/>
  <path d="M38.43,246.33c3.59-3.01,7.48-5.65,11.6-7.86,1.18-.63,2.38-1.23,3.59-1.79.17-.08.02-.34-.15-.26-4.3,2-8.39,4.43-12.19,7.27-1.05.78-2.07,1.59-3.07,2.43-.15.12.07.34.21.21h0Z"/>
  <path d="M31.99,225.29c6.97-.61,13.99-.52,20.95.25.19.02.19-.28,0-.3-6.96-.77-13.98-.85-20.95-.25-.19.02-.19.32,0,.3h0Z"/>
  <path d="M43.21,205.51c1.9,1.12,3.82,2.21,5.7,3.36s3.4,2.37,4.88,3.86c.81.82,1.59,1.68,2.37,2.53.13.14.34-.07.21-.21-1.38-1.52-2.77-3.05-4.35-4.36s-3.5-2.41-5.34-3.49l-3.32-1.95c-.17-.1-.32.16-.15.26h0Z"/>
</svg>