<?xml version="1.0" encoding="UTF-8"?>
<svg id="Layer_1" data-name="Layer 1" xmlns="http://www.w3.org/2000/svg" viewBox="0 0 289.13 430.87">
  <defs>
    <style>
      .cls-1 {
        fill: #cea865;
      }

      .cls-1, .cls-2, .cls-3, .cls-4, .cls-5 {
        stroke: #000;
        stroke-linecap: round;
        stroke-linejoin: round;
        stroke-width: .5px;
      }

      .cls-6, .cls-4 {
        fill: #c1d5e8;
      }

      .cls-2 {
        fill: #ffeb99;
      }

      .cls-3 {
        fill: #94a9a4;
      }

      .cls-5 {
        fill: #c8cc8f;
      }
    </style>
  </defs>
  <path class="cls-5" d="M152.8,398.86h0c-2.55,0-4.69-1.92-4.95-4.46-1.37-13.39-8.54-53.76-45.84-76.57-36.85-22.54-60.55-52.07-68.03-62.19-1.35-1.82-.46-4.43,1.72-5.03,15.42-4.23,69.07-10.31,103.89,94.75,0,0-8.63-81.54-15.59-95.22-6.96-13.67-24.7-37.17-24.7-37.17l3.6-3.36s22.06,28.54,23.02,32.38c0,0-7.2-65.72-5.76-74.59,0,0-17.03-25.18-33.82-31.18l7.14-4.44s25.01,19.11,27.25,22.65l-.89-53.77,5.83-2.08s1.8,66.91,2.02,80.18c.22,13.26,6.29,73.96,6.29,73.96l19.33-34.92s2.02-23.75,3.37-31.61c1.35-7.87-2.25-27.2-2.25-27.2l6.52.67s.45,38.44-2.7,49.68c0,0,34.84-76.43,41.14-78.45l4.95,3.82s-24.73,34.4-38.21,68.45l30.12-19.45,8.77,3.37s-43.16,15.06-57.77,55.07c0,0-8.99,19.78-8.54,34.62.45,14.84,6.29,53.05,6.29,53.05,0,0,8.09-46.98,29.9-70.36h8.09s-16.63,15.51-24.05,43.83c-7.42,28.32-11.91,54.96-5.84,76.2,0,0,.9-53.39,30.8-81.26,29.9-27.87,44.73-32.59,44.73-32.59,0,0,23.15-15.74,29-12.36,5.84,3.37-17.76,34.39-21.8,39.79s-34.84,39.34-44.73,49c-9.89,9.67-22.25,21.8-26.75,33.94-3.71,10.02-5.44,13.49-6.7,19-.52,2.26-2.54,3.85-4.85,3.85Z"/>
  <g>
    <path class="cls-4" d="M109.97,80.63s-17.57-7.81-7.08-17.57c0,0,2.85-3.27,9.41-1.82,0,0,14.56-5.33,12.45,7.78,0,0,9.11-12.78,16.56-4.56,7.45,8.22-.67,15-4.44,16.17,0,0,18.89,3.61,12.89,14.84-6,11.22-20.56,3.31-23.67-4.11,1.6.9-.72,21.18-15.11,16.56-12.55-4.03-7-17,.78-20.78,0,0-13.33,10.82-21.44.94-1.32-1.61-1.82-3.73-1.31-5.74,1.08-4.25,5.22-10.21,20.98-1.7Z"/>
    <path class="cls-4" d="M72.75,114.61s-.55-13.32,8.46-10.82c0,0,12.21-10.96,15.12,8.19,0,0,19.7.83,10.96,16.65,0,0-5.13,2.5-5.97,5.27-.83,2.77-9.3,4.72-12.07,2.77,0,0,8.32,10.96-.83,17.06-9.16,6.1-17.48-3.75-17.48-3.75,0,0-11.93,5.83-14.57-2.22-2.64-8.05,3.88-14.15,6.52-16.23,0,0-11.24-3.33-8.74-10.13,2.5-6.8,6.38-11.93,18.59-6.8Z"/>
    <path class="cls-4" d="M136.98,134.45s-6.94-9.71-1.39-13.46c5.55-3.75,17.9-2.91,22.06,8.6,0,0,7.49-11.79,17.34-.28s.97,15.4-2.22,18.17c0,0,8.6,12.21,5.27,16.23-3.33,4.02-13.59,9.85-21.57,0,0,0-7.98,12.62-12.7,10.41-4.72-2.22-9.85-6.52-12.49-8.6-2.64-2.08-1.8-9.3,3.05-11.1,0,0-19.56-4.02-17.34-12.21s7.08-12.49,19.98-7.77Z"/>
    <path class="cls-4" d="M81.07,183.01s-5.27-14.29-16.65-5.97c-11.38,8.32-4.3,16.93,0,20.26,0,0-7.91,1.8-9.85,5.97,0,0-9.57.97-5.97,9.57,3.61,8.6,15.83,5.13,15.83,5.13,0,0-1.95,14.71,10.4,13.87,12.35-.83,12.76-11.38,12.21-14.01,0,0,14.57,5.69,19.01-5.97,4.44-11.65-10.27-16.09-10.27-16.09,0,0,17.9-9.3,5.69-14.98,0,0-11.52-14.01-20.39,2.22Z"/>
    <path class="cls-4" d="M219.67,165.94s-4.44-14.57-10.41-11.79c0,0-12.49-1.8-9.85,8.46,2.64,10.27,8.32,11.78,8.32,11.78,0,0-20.26-8.72-18.31,7.09,1.94,15.82,17.76,9.3,17.76,9.3,0,0-7.08,15.68,6.66,16.23,13.73.55,14.43-10.68,14.43-10.68,0,0,11.52,10.13,15.4.14,3.88-9.99-10.13-16.05-10.13-16.05,0,0,12.07-8.51,3.75-16.69-8.32-8.19-14.98-3.05-17.62,2.22Z"/>
    <path class="cls-4" d="M192.75,227.12s8.6-11.65,16.93-5.27c8.32,6.38,0,18.73,0,18.73,0,0,14.84,1.39,8.32,13.32,0,0,1.11,15.12-17.62,6.38,0,0,1.66,14.57-8.88,14.43s-13.18-6.94-13.46-12.35c0,0-15.95.83-17.9-9.85s10.27-13.18,14.98-13.73c0,0-11.79-8.74-.42-19.56,0,0,10.27-6.38,18.04,7.91Z"/>
    <path class="cls-4" d="M195.23,119s-7.81,10.71,3.49,16.57c11.3,5.86,16.89-8.29,16.89-8.29,0,0,5.3,17.64,17.03,10.38,11.72-7.26-1.4-17.44-1.4-17.44,0,0,12.98.42,7.81-10.33-5.16-10.75-12.64-8.66-18.64-6.56,0,0-2.99-11.86-11.92-9.9-8.93,1.95-9.49,6.42-9.49,6.42,0,0-13.4-5.86-15.77,2.51-2.37,8.37,12,16.64,12,16.64Z"/>
    <path class="cls-4" d="M124.74,69.02s-.5,1.7-1.09,3.56c0,0-.21,3.03-1.42,3.67"/>
    <path class="cls-4" d="M96.33,111.97s-16.12,16.56-16.5,18.07c-.38,1.52-5.52,17.4-8.89,19.94"/>
    <path class="cls-4" d="M62.9,131.54s13.9.15,16.93-1.49"/>
    <path class="cls-4" d="M95.78,195.77s-6.85-.56-11.53,3.48c-4.67,4.04-8.08,7.7-8.08,7.7,0,0-6.8,7.37-11.73,11.01"/>
    <line class="cls-4" x1="64.42" y1="197.3" x2="70.61" y2="197.99"/>
    <path class="cls-4" d="M200.38,260.28s-3.94-3.54-5.84-7.43c-1.9-3.89-2.75-6.6-2.75-6.6,0,0,2-5.14,17.88-5.67"/>
    <path class="cls-4" d="M192.75,227.12s-2.85,8.38-1.43,11.7c1.42,3.32-5.03,4.84-5.03,4.84,0,0-4.59-2.74-11.16-4.88"/>
    <path class="cls-4" d="M195.23,119s9.82.06,14.48-.69c4.66-.76,3.02-2.52,3.02-2.52,0,0-12.86-5.2-13.73-15.94"/>
    <path class="cls-4" d="M231.23,120.22s-7.31-.78-11.71-.53"/>
    <g>
      <path class="cls-6" d="M165.87,250.27c4.66-1.58,9.36-3.03,14.09-4.36"/>
      <path d="M165.91,250.42c4.66-1.58,9.36-3.03,14.09-4.36.19-.05.11-.34-.08-.29-4.74,1.33-9.44,2.79-14.09,4.36-.18.06-.1.35.08.29h0Z"/>
    </g>
    <g>
      <path class="cls-6" d="M171.91,255.86c2.52-2.64,5.75-4.6,9.25-5.62"/>
      <path d="M172.02,255.97c1.96-2.05,4.34-3.69,6.95-4.79.73-.31,1.48-.57,2.24-.79.19-.05.11-.34-.08-.29-2.75.8-5.32,2.16-7.53,3.99-.63.52-1.23,1.08-1.79,1.67-.13.14.08.35.21.21h0Z"/>
    </g>
    <g>
      <path class="cls-6" d="M191.94,255.46c-.59,3.69.08,7.57,1.89,10.83"/>
      <path d="M191.8,255.42c-.59,3.74.08,7.63,1.91,10.95.09.17.35.02.26-.15-1.78-3.25-2.45-7.06-1.88-10.72.03-.19-.26-.27-.29-.08h0Z"/>
    </g>
    <g>
      <path class="cls-6" d="M187.09,255.45c-2.29,3.23-2.68,7.71-.98,11.29"/>
      <path d="M186.96,255.37c-1.8,2.57-2.44,5.87-1.81,8.93.18.87.46,1.71.84,2.51.08.17.34.02.26-.15-1.29-2.75-1.35-6.01-.26-8.84.32-.81.73-1.58,1.24-2.3.11-.16-.15-.31-.26-.15h0Z"/>
    </g>
    <g>
      <path class="cls-6" d="M201.93,250.02c1.56.95,2.75,2.39,4.1,3.62,1.35,1.23,3.03,2.3,4.86,2.22"/>
      <path d="M201.85,250.15c2.48,1.52,4.03,4.24,6.75,5.41.72.31,1.49.48,2.28.45.19,0,.19-.31,0-.3-2.99.11-5.02-2.52-7-4.35-.58-.54-1.2-1.05-1.88-1.47-.16-.1-.32.16-.15.26h0Z"/>
    </g>
    <g>
      <path class="cls-6" d="M202.99,248.38c3.08,1.11,6.21,2.08,9.38,2.9"/>
      <path d="M202.95,248.53c3.08,1.11,6.21,2.07,9.38,2.9.19.05.27-.24.08-.29-3.17-.82-6.3-1.79-9.38-2.9-.18-.07-.26.22-.08.29h0Z"/>
    </g>
    <g>
      <path class="cls-6" d="M202.41,244.76c4.07.04,8.14.29,12.18.74"/>
      <path d="M202.41,244.91c4.07.04,8.14.29,12.18.74.19.02.19-.28,0-.3-4.05-.45-8.11-.7-12.18-.74-.19,0-.19.3,0,.3h0Z"/>
    </g>
    <g>
      <path class="cls-6" d="M198.12,236.92c2.76-2.16,5.25-4.68,7.37-7.48"/>
      <path d="M198.23,237.03c2.17-1.7,4.16-3.61,5.95-5.71.5-.58.98-1.18,1.44-1.79.12-.15-.14-.3-.26-.15-1.65,2.16-3.51,4.16-5.55,5.96-.58.51-1.18,1.01-1.79,1.49-.15.12.06.33.21.21h0Z"/>
    </g>
    <g>
      <path class="cls-6" d="M194.84,234.82c1.78-3.05,3.98-5.87,6.52-8.33"/>
      <path d="M194.97,234.9c1.39-2.37,3.02-4.59,4.87-6.62.53-.58,1.07-1.14,1.63-1.68.14-.13-.07-.35-.21-.21-1.98,1.93-3.75,4.06-5.28,6.35-.44.66-.86,1.33-1.26,2.01-.1.17.16.32.26.15h0Z"/>
    </g>
    <g>
      <path class="cls-6" d="M177.69,228.59c1.27,3.28,2.89,6.74,5.99,8.42"/>
      <path d="M177.54,228.63c.99,2.57,2.16,5.24,4.21,7.16.56.52,1.18.98,1.85,1.34.17.09.32-.17.15-.26-2.42-1.32-3.92-3.72-5.02-6.16-.32-.71-.62-1.44-.9-2.16-.07-.18-.36-.1-.29.08h0Z"/>
    </g>
    <g>
      <path class="cls-6" d="M183.31,224.8c2.18,2.35,3.48,5.49,3.6,8.68"/>
      <path d="M183.21,224.91c1.67,1.81,2.82,4.07,3.31,6.49.14.69.22,1.39.25,2.09,0,.19.31.19.3,0-.1-2.52-.91-5-2.32-7.1-.4-.6-.84-1.16-1.33-1.69-.13-.14-.34.07-.21.21h0Z"/>
    </g>
    <g>
      <path class="cls-6" d="M78.2,108.61c-.48,2.24-.94,4.66-.03,6.76"/>
      <path d="M78.05,108.57c-.48,2.25-.96,4.68-.01,6.87.08.18.33.02.26-.15-.91-2.11-.42-4.49.04-6.64.04-.19-.25-.27-.29-.08h0Z"/>
    </g>
    <g>
      <path class="cls-6" d="M82.86,109.52c-.06,2.58-.34,5.15-.84,7.68"/>
      <path d="M82.71,109.52c-.06,2.57-.34,5.12-.84,7.64-.04.19.25.27.29.08.5-2.54.79-5.13.85-7.72,0-.19-.3-.19-.3,0h0Z"/>
    </g>
    <g>
      <path class="cls-6" d="M88.09,107.92c.17,3.21-.42,6.45-1.7,9.39"/>
      <path d="M87.94,107.92c.16,3.19-.41,6.39-1.68,9.32-.08.18.18.33.26.15,1.29-2.98,1.89-6.23,1.73-9.47,0-.19-.31-.19-.3,0h0Z"/>
    </g>
    <g>
      <path class="cls-6" d="M62.16,118.87c2.9,2.23,6.49,3.55,10.14,3.72"/>
      <path d="M62.09,119c2.29,1.75,4.99,2.94,7.82,3.46.79.15,1.59.24,2.4.28.19,0,.19-.29,0-.3-3.64-.18-7.17-1.49-10.06-3.7-.15-.12-.3.14-.15.26h0Z"/>
    </g>
    <g>
      <path class="cls-6" d="M67.71,117.69c2.09.2,4.11,1.07,5.68,2.45"/>
      <path d="M67.71,117.84c1.59.15,3.14.7,4.48,1.58.39.25.75.53,1.1.83.14.13.36-.08.21-.21-1.26-1.1-2.77-1.88-4.4-2.27-.46-.11-.92-.18-1.39-.23-.19-.02-.19.28,0,.3h0Z"/>
    </g>
    <g>
      <path class="cls-6" d="M59.17,124.54c1.78.77,3.57,1.55,5.48,1.89,2.45.43,4.97.09,7.43-.34"/>
      <path d="M59.09,124.67c2.01.87,4.04,1.74,6.24,2s4.56-.06,6.79-.44c.19-.03.11-.32-.08-.29-2.17.38-4.38.69-6.59.45s-4.21-1.11-6.21-1.98c-.18-.08-.33.18-.15.26h0Z"/>
    </g>
    <g>
      <path class="cls-6" d="M60.89,142.35c4.07-2.24,7.79-5.1,11-8.46"/>
      <path d="M60.97,142.48c3.18-1.75,6.14-3.87,8.82-6.32.76-.7,1.5-1.42,2.21-2.16.13-.14-.08-.35-.21-.21-2.5,2.61-5.31,4.93-8.35,6.88-.86.55-1.73,1.07-2.62,1.56-.17.09-.02.35.15.26h0Z"/>
    </g>
    <g>
      <path class="cls-6" d="M64.29,145.89c3.97-3.47,7.82-7.07,11.55-10.81"/>
      <path d="M64.4,146c3.09-2.7,6.11-5.48,9.05-8.34.84-.82,1.67-1.64,2.5-2.47.14-.14-.08-.35-.21-.21-2.9,2.9-5.87,5.73-8.92,8.48-.87.78-1.74,1.56-2.63,2.33-.15.13.07.34.21.21h0Z"/>
    </g>
    <g>
      <path class="cls-6" d="M81.08,137.45c1.53,1.55,1.97,3.85,2.27,6.01.34,2.37.62,4.75.83,7.14"/>
      <path d="M80.97,137.55c1.44,1.48,1.88,3.57,2.18,5.54.38,2.49.66,4.99.89,7.5.02.19.32.19.3,0-.23-2.57-.52-5.13-.91-7.68-.31-1.99-.79-4.08-2.24-5.57-.13-.14-.35.07-.21.21h0Z"/>
    </g>
    <g>
      <path class="cls-6" d="M85.81,140.28c1.49,2.69,2.33,5.74,2.42,8.82"/>
      <path d="M85.68,140.35c1.47,2.68,2.3,5.69,2.4,8.75,0,.19.31.19.3,0-.1-3.11-.95-6.17-2.44-8.9-.09-.17-.35-.02-.26.15h0Z"/>
    </g>
    <g>
      <path class="cls-6" d="M78.52,139.58c-.65,2.9-.53,5.98.34,8.82"/>
      <path d="M78.37,139.54c-.65,2.94-.53,6.02.34,8.9.06.18.35.11.29-.08-.86-2.83-.98-5.85-.34-8.74.04-.19-.25-.27-.29-.08h0Z"/>
    </g>
    <g>
      <path class="cls-6" d="M88.9,126.42c3.5-1.29,7.08-2.35,10.71-3.18"/>
      <path d="M88.94,126.57c3.5-1.29,7.08-2.35,10.71-3.18.19-.04.11-.33-.08-.29-3.63.83-7.21,1.89-10.71,3.18-.18.07-.1.36.08.29h0Z"/>
    </g>
    <g>
      <path class="cls-6" d="M90.41,122.46c3.34-1.92,7.17-2.97,11.03-3.02"/>
      <path d="M90.48,122.59c3.33-1.9,7.12-2.94,10.95-3,.19,0,.19-.3,0-.3-3.89.06-7.73,1.12-11.1,3.04-.17.1-.02.36.15.26h0Z"/>
    </g>
    <g>
      <path class="cls-6" d="M88.59,131.14c4.12-.35,8.15-1.76,11.58-4.06"/>
      <path d="M88.59,131.29c4.16-.36,8.19-1.77,11.66-4.08.16-.11,0-.37-.15-.26-3.43,2.28-7.41,3.69-11.51,4.04-.19.02-.19.32,0,.3h0Z"/>
    </g>
    <g>
      <path class="cls-6" d="M115.5,88.95c-2.53,2.65-4.76,5.59-6.62,8.75"/>
      <path d="M115.4,88.85c-1.97,2.07-3.77,4.32-5.34,6.7-.45.68-.88,1.38-1.3,2.08-.1.17.16.32.26.15,1.45-2.45,3.11-4.78,4.98-6.93.53-.61,1.07-1.2,1.62-1.79.13-.14-.08-.35-.21-.21h0Z"/>
    </g>
    <g>
      <path class="cls-6" d="M118.09,91.64c-.97,1.98-2.13,3.86-3.45,5.62"/>
      <path d="M117.96,91.56c-.97,1.98-2.13,3.86-3.45,5.62-.12.15.14.3.26.15,1.32-1.76,2.48-3.64,3.45-5.62.08-.17-.17-.32-.26-.15h0Z"/>
    </g>
    <g>
      <path class="cls-6" d="M120.59,91.51c-.6,4.5-2.37,8.84-5.09,12.47"/>
      <path d="M120.45,91.47c-.61,4.5-2.36,8.8-5.07,12.44-.12.15.14.3.26.15,2.72-3.66,4.49-7.99,5.1-12.51.03-.19-.26-.27-.29-.08h0Z"/>
    </g>
    <g>
      <path class="cls-6" d="M93.64,84.77c4.65-.48,9.32-.7,13.99-.67"/>
      <path d="M93.64,84.92c4.65-.48,9.32-.7,13.99-.67.19,0,.19-.3,0-.3-4.67-.03-9.34.19-13.99.67-.19.02-.19.32,0,.3h0Z"/>
    </g>
    <g>
      <path class="cls-6" d="M99.25,81c3.57.09,7.13.38,10.67.88"/>
      <path d="M99.25,81.15c3.56.09,7.11.38,10.63.88.19.03.27-.26.08-.29-3.55-.5-7.12-.8-10.71-.89-.19,0-.19.3,0,.3h0Z"/>
    </g>
    <g>
      <path class="cls-6" d="M100.17,87.78c1.82.02,3.65.04,5.46-.21s3.6-.77,5.13-1.76"/>
      <path d="M100.17,87.93c3.62.04,7.49.04,10.66-1.99.16-.1.01-.36-.15-.26-3.12,2-6.94,1.98-10.51,1.95-.19,0-.19.3,0,.3h0Z"/>
    </g>
    <g>
      <path class="cls-6" d="M105.19,70.33c2.32,2.02,4.83,3.82,7.49,5.35"/>
      <path d="M105.08,70.44c1.81,1.58,3.73,3.02,5.75,4.31.58.37,1.17.73,1.76,1.07.17.1.32-.16.15-.26-2.06-1.19-4.04-2.54-5.9-4.03-.53-.42-1.05-.86-1.56-1.3-.14-.13-.36.09-.21.21h0Z"/>
    </g>
    <g>
      <path class="cls-6" d="M107.75,64.56c2.57,3.25,5.32,6.36,8.23,9.31"/>
      <path d="M107.64,64.66c2.01,2.54,4.12,4.99,6.34,7.34.62.66,1.26,1.32,1.9,1.97.14.14.35-.07.21-.21-2.27-2.3-4.45-4.7-6.51-7.19-.58-.7-1.16-1.41-1.72-2.12-.12-.15-.33.06-.21.21h0Z"/>
    </g>
    <g>
      <path class="cls-6" d="M115.71,65.42c1.82,2.14,2.98,4.84,3.29,7.63"/>
      <path d="M115.6,65.52c1.39,1.65,2.39,3.62,2.92,5.71.15.6.26,1.2.33,1.81.02.19.32.19.3,0-.25-2.21-1.01-4.35-2.21-6.22-.34-.53-.72-1.04-1.12-1.52-.12-.15-.34.07-.21.21h0Z"/>
    </g>
    <g>
      <path class="cls-6" d="M127.67,73.49c1.79-2.76,4.03-5.23,6.59-7.3"/>
      <path d="M127.8,73.56c1.4-2.14,3.05-4.11,4.93-5.85.53-.49,1.08-.96,1.64-1.42.15-.12-.06-.33-.21-.21-2,1.62-3.8,3.48-5.35,5.53-.44.58-.86,1.18-1.26,1.8-.11.16.15.31.26.15h0Z"/>
    </g>
    <g>
      <path class="cls-6" d="M132.82,72.87c1.93-1.43,3.54-3.3,4.66-5.43"/>
      <path d="M132.89,73c1.52-1.13,2.84-2.52,3.89-4.1.3-.45.57-.91.82-1.38.09-.17-.17-.32-.26-.15-.87,1.63-2.01,3.11-3.38,4.36-.39.36-.8.7-1.23,1.01-.15.11,0,.37.15.26h0Z"/>
    </g>
    <g>
      <path class="cls-6" d="M131.46,78.63c1.48-.82,2.97-1.64,4.31-2.68s2.53-2.31,3.25-3.85"/>
      <path d="M131.54,78.76c2.35-1.3,4.78-2.65,6.48-4.78.44-.56.83-1.16,1.14-1.8.08-.17-.18-.33-.26-.15-1.13,2.37-3.27,4.01-5.47,5.32-.67.4-1.35.77-2.03,1.15-.17.09-.02.35.15.26h0Z"/>
    </g>
    <g>
      <path class="cls-6" d="M131.23,89.82c2.43,2.46,5.59,4.19,8.97,4.91"/>
      <path d="M131.12,89.93c1.91,1.92,4.24,3.4,6.8,4.31.73.26,1.48.47,2.24.64.19.04.27-.25.08-.29-2.62-.57-5.1-1.72-7.22-3.37-.59-.46-1.16-.97-1.69-1.5-.14-.14-.35.07-.21.21h0Z"/>
    </g>
    <g>
      <path class="cls-6" d="M136.54,86.68c3.65.99,7.12,2.64,10.2,4.84"/>
      <path d="M136.5,86.82c3.64,1,7.09,2.64,10.16,4.83.16.11.31-.15.15-.26-3.09-2.21-6.57-3.86-10.23-4.86-.19-.05-.27.24-.08.29h0Z"/>
    </g>
    <g>
      <path class="cls-6" d="M144.89,126.39c.53,3.91,1.83,7.71,3.81,11.12"/>
      <path d="M144.74,126.43c.53,3.93,1.84,7.73,3.83,11.16.1.17.36.02.26-.15-1.97-3.41-3.27-7.18-3.8-11.09-.03-.19-.32-.11-.29.08h0Z"/>
    </g>
    <g>
      <path class="cls-6" d="M148.93,124.58c1.96,2.38,3.22,5.35,3.57,8.42"/>
      <path d="M148.83,124.69c1.94,2.36,3.17,5.28,3.52,8.31.02.19.32.19.3,0-.28-2.43-1.1-4.78-2.4-6.84-.37-.58-.77-1.14-1.21-1.68-.12-.15-.33.06-.21.21h0Z"/>
    </g>
    <g>
      <path class="cls-6" d="M139.29,124.18c.59,3.65,2.1,7.15,4.36,10.09"/>
      <path d="M139.15,124.22c.46,2.85,1.48,5.61,2.98,8.08.43.7.89,1.38,1.4,2.04.12.15.38,0,.26-.15-2.25-2.93-3.75-6.4-4.34-10.05-.03-.19-.32-.11-.29.08h0Z"/>
    </g>
    <g>
      <path class="cls-6" d="M124.56,141.58c5.3,1.33,10.68,2.39,16.09,3.18"/>
      <path d="M124.52,141.72c5.31,1.33,10.67,2.39,16.09,3.18.19.03.27-.26.08-.29-5.41-.79-10.78-1.85-16.09-3.18-.19-.05-.27.24-.08.29h0Z"/>
    </g>
    <g>
      <path class="cls-6" d="M131.01,138.67c2.49.1,4.96.76,7.16,1.92"/>
      <path d="M131.01,138.82c2.47.1,4.9.75,7.09,1.9.17.09.32-.17.15-.26-2.24-1.17-4.72-1.83-7.24-1.94-.19,0-.19.29,0,.3h0Z"/>
    </g>
    <g>
      <path class="cls-6" d="M127.7,148.2c3.7.65,7.55.41,11.14-.69"/>
      <path d="M127.66,148.34c3.73.65,7.59.41,11.22-.69.18-.06.11-.35-.08-.29-3.57,1.09-7.38,1.33-11.06.69-.19-.03-.27.26-.08.29h0Z"/>
    </g>
    <g>
      <path class="cls-6" d="M136.97,163.1c1.78-2.88,3.87-5.57,6.22-8.01"/>
      <path d="M137.1,163.18c1.38-2.23,2.95-4.35,4.68-6.32.49-.56,1-1.12,1.52-1.66.13-.14-.08-.35-.21-.21-1.84,1.91-3.52,3.97-5.02,6.16-.42.62-.83,1.25-1.23,1.88-.1.16.16.32.26.15h0Z"/>
    </g>
    <g>
      <path class="cls-6" d="M148.55,156.39c-.86,4.1-1.81,8.38-4.51,11.58"/>
      <path d="M148.41,156.35c-.66,3.14-1.34,6.37-2.9,9.21-.45.82-.97,1.59-1.57,2.3-.12.15.09.36.21.21,2.13-2.53,3.18-5.71,3.94-8.88.22-.92.41-1.84.61-2.76.04-.19-.25-.27-.29-.08h0Z"/>
    </g>
    <g>
      <path class="cls-6" d="M161.04,153.55c1.92-.13,3.85.41,5.57,1.27s3.27,2.05,4.74,3.28"/>
      <path d="M161.04,153.7c3.93-.24,7.33,2.1,10.21,4.51.15.12.36-.09.21-.21-2.94-2.46-6.4-4.84-10.42-4.6-.19.01-.19.31,0,.3h0Z"/>
    </g>
    <g>
      <path class="cls-6" d="M161.18,158.07c1.63,1.08,3.26,2.16,4.92,3.19,2.07,1.28,4.38,2.54,6.8,2.27"/>
      <path d="M161.11,158.2c1.95,1.29,3.88,2.61,5.9,3.78,1.79,1.03,3.78,1.92,5.89,1.7.19-.02.19-.32,0-.3-2.13.22-4.13-.71-5.92-1.77-1.95-1.15-3.83-2.42-5.72-3.67-.16-.11-.31.15-.15.26h0Z"/>
    </g>
    <g>
      <path class="cls-6" d="M159.9,142.42c3.4-1.78,6.5-4.14,9.12-6.95"/>
      <path d="M159.97,142.55c2.66-1.4,5.13-3.14,7.33-5.17.63-.58,1.24-1.18,1.82-1.81.13-.14-.08-.35-.21-.21-2.04,2.18-4.36,4.09-6.9,5.67-.72.44-1.45.86-2.19,1.25-.17.09-.02.35.15.26h0Z"/>
    </g>
    <g>
      <path class="cls-6" d="M156.35,141.29c2.12-3.36,5.45-5.73,8.7-8.01"/>
      <path d="M156.48,141.37c1.65-2.61,4.04-4.62,6.51-6.43.71-.52,1.42-1.02,2.14-1.53.16-.11,0-.37-.15-.26-2.55,1.79-5.14,3.62-7.19,5.99-.57.65-1.09,1.35-1.56,2.08-.1.16.16.31.26.15h0Z"/>
    </g>
    <g>
      <path class="cls-6" d="M162,144.85c5.14-1.63,9.41-5.19,13.53-8.68"/>
      <path d="M162.04,145c4.04-1.29,7.54-3.75,10.81-6.4.94-.76,1.86-1.54,2.79-2.32.15-.12-.07-.34-.21-.21-3.17,2.68-6.4,5.39-10.13,7.27-1.08.54-2.19,1-3.33,1.37-.18.06-.1.35.08.29h0Z"/>
    </g>
    <g>
      <path class="cls-6" d="M144.91,158.34c-.95,3.2-3.27,5.79-5.51,8.26"/>
      <path d="M144.76,158.3c-.75,2.49-2.32,4.61-4.01,6.55-.48.56-.98,1.1-1.47,1.64-.13.14.08.36.21.21,1.76-1.94,3.55-3.92,4.73-6.27.33-.66.61-1.35.82-2.05.06-.19-.23-.26-.29-.08h0Z"/>
    </g>
    <g>
      <path class="cls-6" d="M197.72,124.8c2.74-1.7,5.62-3.15,8.62-4.32"/>
      <path d="M197.79,124.93c2.73-1.69,5.6-3.13,8.58-4.31.18-.07.1-.36-.08-.29-3.01,1.19-5.91,2.64-8.66,4.34-.16.1-.01.36.15.26h0Z"/>
    </g>
    <g>
      <path class="cls-6" d="M207.58,122.43c-2.15,2.12-4.29,4.24-6.44,6.36"/>
      <path d="M207.47,122.32c-1.67,1.65-3.35,3.31-5.02,4.96l-1.42,1.4c-.14.14.07.35.21.21,1.67-1.65,3.35-3.31,5.02-4.96l1.42-1.4c.14-.14-.07-.35-.21-.21h0Z"/>
    </g>
    <g>
      <path class="cls-6" d="M210.04,124.07c-.97,2.53-2.25,4.94-3.78,7.17"/>
      <path d="M209.89,124.03c-.97,2.51-2.24,4.91-3.77,7.13-.11.16.15.31.26.15,1.54-2.24,2.82-4.66,3.8-7.2.07-.18-.22-.26-.29-.08h0Z"/>
    </g>
    <g>
      <path class="cls-6" d="M219.99,126.66c1.77,2.49,4.28,4.45,7.12,5.56"/>
      <path d="M219.86,126.74c1.4,1.97,3.25,3.61,5.36,4.77.6.33,1.22.61,1.85.86.18.07.26-.22.08-.29-2.18-.86-4.16-2.21-5.76-3.93-.46-.49-.89-1.02-1.28-1.57-.11-.16-.37,0-.26.15h0Z"/>
    </g>
    <g>
      <path class="cls-6" d="M223.72,123.92c1.91.48,3.62,1.59,5.03,2.96s2.54,3.01,3.55,4.7"/>
      <path d="M223.68,124.07c2.96.76,5.28,2.92,7.03,5.34.52.73,1.01,1.48,1.47,2.25.1.17.36.01.26-.15-1.61-2.67-3.55-5.27-6.34-6.8-.74-.4-1.52-.72-2.34-.93-.19-.05-.27.24-.08.29h0Z"/>
    </g>
    <g>
      <path class="cls-6" d="M222.95,116.01c3-.66,5.89-1.79,8.54-3.33"/>
      <path d="M222.99,116.15c3.01-.67,5.91-1.8,8.58-3.35.17-.1.02-.36-.15-.26-2.65,1.54-5.52,2.66-8.51,3.32-.19.04-.11.33.08.29h0Z"/>
    </g>
    <g>
      <path class="cls-6" d="M221.77,111.35c3.15-2.06,6.99-3.07,10.75-2.81"/>
      <path d="M221.85,111.48c3.15-2.05,6.92-3.03,10.67-2.79.19.01.19-.29,0-.3-3.8-.25-7.63.75-10.82,2.83-.16.1-.01.36.15.26h0Z"/>
    </g>
    <g>
      <path class="cls-6" d="M205.58,104.15c.8,2.06,2.1,3.93,3.77,5.38"/>
      <path d="M205.44,104.19c.63,1.63,1.56,3.13,2.75,4.42.33.36.69.71,1.06,1.03.14.13.36-.08.21-.21-1.28-1.12-2.34-2.48-3.13-3.99-.22-.43-.43-.88-.6-1.33-.07-.18-.36-.1-.29.08h0Z"/>
    </g>
    <g>
      <path class="cls-6" d="M207.66,97.99c1.02,3.39,2.49,6.64,4.36,9.64"/>
      <path d="M207.52,98.03c1.03,3.4,2.5,6.66,4.37,9.68.1.16.36.01.26-.15-1.86-3-3.32-6.23-4.34-9.61-.06-.18-.35-.11-.29.08h0Z"/>
    </g>
    <g>
      <path class="cls-6" d="M212.29,99.2c1.65,2.33,2.53,5.19,2.48,8.04"/>
      <path d="M212.16,99.27c1.63,2.32,2.5,5.13,2.46,7.96,0,.19.3.19.3,0,.04-2.88-.84-5.75-2.5-8.11-.11-.16-.37,0-.26.15h0Z"/>
    </g>
    <g>
      <path class="cls-6" d="M192.23,107.28c3.38,3,7.66,4.76,11.85,6.46"/>
      <path d="M192.12,107.39c2.67,2.36,5.88,3.96,9.14,5.35.92.39,1.85.77,2.78,1.15.18.07.26-.22.08-.29-3.23-1.31-6.49-2.65-9.4-4.59-.83-.56-1.63-1.17-2.38-1.83-.14-.13-.36.08-.21.21h0Z"/>
    </g>
    <g>
      <path class="cls-6" d="M194.59,113.96c3.91,1.12,7.96,2.24,11.98,1.65"/>
      <path d="M194.55,114.11c3.91,1.12,7.96,2.24,12.06,1.65.19-.03.11-.32-.08-.29-4.04.58-8.05-.55-11.9-1.65-.19-.05-.27.24-.08.29h0Z"/>
    </g>
    <g>
      <path class="cls-6" d="M191.92,101.6c2.98,2.43,6.27,4.48,9.78,6.07"/>
      <path d="M191.81,101.71c2.32,1.89,4.82,3.55,7.47,4.95.77.4,1.54.78,2.33,1.14.17.08.33-.18.15-.26-2.7-1.23-5.28-2.72-7.68-4.46-.7-.51-1.39-1.04-2.07-1.59-.15-.12-.36.09-.21.21h0Z"/>
    </g>
    <g>
      <path class="cls-6" d="M215.89,189.63c-1.6,2.49-2.67,5.31-3.13,8.24"/>
      <path d="M215.76,189.55c-1.6,2.51-2.68,5.33-3.14,8.27-.03.19.26.27.29.08.46-2.91,1.52-5.71,3.11-8.2.1-.16-.16-.31-.26-.15h0Z"/>
    </g>
    <g>
      <path class="cls-6" d="M220.71,191.03c.97,3.38,1.45,6.9,1.41,10.41"/>
      <path d="M220.57,191.07c.97,3.37,1.44,6.87,1.41,10.37,0,.19.3.19.3,0,.03-3.53-.45-7.06-1.42-10.45-.05-.19-.34-.11-.29.08h0Z"/>
    </g>
    <g>
      <path class="cls-6" d="M227.92,191.09c2.37,2.86,5.62,4.97,9.19,5.96"/>
      <path d="M227.81,191.19c1.87,2.24,4.27,4.03,6.95,5.19.75.32,1.52.59,2.31.82.19.05.27-.24.08-.29-2.76-.78-5.33-2.21-7.44-4.15-.6-.55-1.16-1.15-1.68-1.77-.12-.15-.33.06-.21.21h0Z"/>
    </g>
    <g>
      <path class="cls-6" d="M230.23,185.95c2.57,1.69,4.99,3.62,7.21,5.75"/>
      <path d="M230.16,186.08c1.99,1.32,3.9,2.77,5.69,4.36.51.45,1,.91,1.49,1.37.14.13.35-.08.21-.21-1.74-1.66-3.59-3.2-5.54-4.61-.56-.4-1.12-.79-1.7-1.17-.16-.11-.31.15-.15.26h0Z"/>
    </g>
    <g>
      <path class="cls-6" d="M227.79,178.97c2.44-1.21,5.06-2.59,6.17-5.07"/>
      <path d="M227.87,179.1c1.91-.94,3.91-1.96,5.29-3.63.38-.46.69-.96.94-1.49.08-.17-.18-.33-.26-.15-.88,1.95-2.69,3.2-4.51,4.19-.53.29-1.07.56-1.61.83-.17.09-.02.34.15.26h0Z"/>
    </g>
    <g>
      <path class="cls-6" d="M224.92,174.43c2.37-2.71,5.2-5.02,8.35-6.77"/>
      <path d="M225.03,174.53c1.84-2.11,3.96-3.97,6.29-5.51.66-.44,1.34-.85,2.03-1.24.17-.09.02-.35-.15-.26-2.45,1.37-4.72,3.07-6.73,5.04-.57.56-1.12,1.15-1.65,1.76-.13.14.08.36.21.21h0Z"/>
    </g>
    <g>
      <path class="cls-6" d="M223.71,170.21c1.2-2.01,2.87-3.73,4.85-4.98"/>
      <path d="M223.84,170.28c.93-1.55,2.13-2.92,3.55-4.05.4-.32.82-.61,1.25-.88.16-.1.01-.36-.15-.26-1.56.99-2.93,2.26-4.03,3.73-.31.42-.6.85-.87,1.3-.1.17.16.32.26.15h0Z"/>
    </g>
    <g>
      <path class="cls-6" d="M205.42,161.09c1.36,3.59,3.37,6.93,5.89,9.82"/>
      <path d="M205.27,161.13c1.08,2.82,2.54,5.49,4.34,7.92.5.68,1.03,1.33,1.59,1.97.13.15.34-.07.21-.21-1.94-2.23-3.57-4.71-4.84-7.38-.37-.78-.71-1.57-1.01-2.37-.07-.18-.36-.1-.29.08h0Z"/>
    </g>
    <g>
      <path class="cls-6" d="M212.09,162.96c1.14,2.31,2.27,4.62,3.41,6.92"/>
      <path d="M211.96,163.04c1.14,2.31,2.27,4.62,3.41,6.92.09.17.34.02.26-.15-1.14-2.31-2.27-4.62-3.41-6.92-.09-.17-.34-.02-.26.15h0Z"/>
    </g>
    <g>
      <path class="cls-6" d="M196.89,178.2c3.28-.05,6.56-.04,9.84.03"/>
      <path d="M196.89,178.35c3.28-.05,6.56-.04,9.84.03.19,0,.19-.3,0-.3-3.28-.07-6.56-.08-9.84-.03-.19,0-.19.3,0,.3h0Z"/>
    </g>
    <g>
      <path class="cls-6" d="M199.03,182.18c3.42.29,6.91-.2,10.12-1.43"/>
      <path d="M199.03,182.33c3.44.29,6.93-.2,10.16-1.43.18-.07.1-.36-.08-.29-3.21,1.22-6.66,1.71-10.08,1.42-.19-.02-.19.28,0,.3h0Z"/>
    </g>
    <g>
      <path class="cls-6" d="M195.27,185.26c2.45,1.1,5.19,1.46,7.88,1.42s5.35-.48,8.01-.93"/>
      <path d="M195.2,185.39c5.08,2.25,10.71,1.39,16,.51.19-.03.11-.32-.08-.29-5.19.86-10.78,1.73-15.77-.48-.17-.08-.33.18-.15.26h0Z"/>
    </g>
    <g>
      <path class="cls-6" d="M85.88,205.9c2.39,2.18,5.26,3.84,8.35,4.82"/>
      <path d="M85.78,206.01c1.89,1.72,4.06,3.11,6.4,4.11.66.28,1.33.53,2.01.75.18.06.26-.23.08-.29-2.38-.76-4.63-1.92-6.63-3.42-.57-.43-1.12-.88-1.65-1.36-.14-.13-.36.08-.21.21h0Z"/>
    </g>
    <g>
      <path class="cls-6" d="M82.37,209.83c3.18,2.83,6.99,4.92,11.08,6.09"/>
      <path d="M82.26,209.94c2.48,2.2,5.34,3.97,8.42,5.2.89.36,1.8.67,2.72.93.19.05.27-.24.08-.29-3.15-.91-6.14-2.36-8.8-4.28-.77-.55-1.51-1.15-2.22-1.78-.14-.13-.36.08-.21.21h0Z"/>
    </g>
    <g>
      <path class="cls-6" d="M90.47,203.32c3.16.68,6.17,2.02,8.81,3.89"/>
      <path d="M90.43,203.46c3.15.69,6.14,2.01,8.77,3.87.16.11.31-.15.15-.26-2.65-1.88-5.67-3.21-8.84-3.9-.19-.04-.27.25-.08.29h0Z"/>
    </g>
    <g>
      <path class="cls-6" d="M86.67,193.34c2.32-3.36,5.13-6.39,8.33-8.93"/>
      <path d="M86.8,193.42c1.81-2.62,3.91-5.03,6.27-7.17.66-.6,1.34-1.18,2.03-1.73.15-.12-.06-.33-.21-.21-2.5,1.99-4.76,4.27-6.74,6.78-.56.71-1.09,1.44-1.61,2.18-.11.16.15.31.26.15h0Z"/>
    </g>
    <g>
      <path class="cls-6" d="M83.81,188.99c1.26-2.9,3.34-5.44,5.94-7.24"/>
      <path d="M83.94,189.06c.97-2.24,2.43-4.26,4.24-5.89.52-.47,1.07-.9,1.65-1.3.16-.11,0-.37-.15-.26-2.04,1.42-3.77,3.28-5.04,5.42-.36.61-.68,1.23-.96,1.88-.08.18.18.33.26.15h0Z"/>
    </g>
    <g>
      <path class="cls-6" d="M94.45,192.57c2.61-1.89,4.61-4.6,5.64-7.65"/>
      <path d="M94.53,192.7c2.06-1.5,3.74-3.49,4.88-5.76.32-.64.6-1.3.83-1.98.06-.18-.23-.26-.29-.08-.8,2.35-2.17,4.49-3.96,6.21-.5.49-1.04.94-1.61,1.35-.15.11,0,.37.15.26h0Z"/>
    </g>
    <g>
      <path class="cls-6" d="M74.08,192.6c-2.42-3.26-4.37-6.86-5.76-10.68"/>
      <path d="M74.21,192.52c-2.41-3.25-4.35-6.84-5.74-10.64-.07-.18-.36-.1-.29.08,1.4,3.83,3.34,7.44,5.77,10.71.11.15.37,0,.26-.15h0Z"/>
    </g>
    <g>
      <path class="cls-6" d="M75.8,188.33c.14-3.63-1.75-6.99-3.58-10.13"/>
      <path d="M75.95,188.33c.12-3.73-1.79-7.09-3.6-10.21-.1-.17-.36-.02-.26.15,1.79,3.07,3.69,6.38,3.56,10.06,0,.19.29.19.3,0h0Z"/>
    </g>
    <g>
      <path class="cls-6" d="M72.23,195.3c-3.46-1.36-6.59-3.56-9.03-6.37"/>
      <path d="M72.27,195.15c-2.68-1.06-5.15-2.61-7.26-4.57-.6-.56-1.17-1.14-1.71-1.76-.13-.15-.34.07-.21.21,1.93,2.21,4.27,4.05,6.87,5.39.73.38,1.47.71,2.23,1.01.18.07.26-.22.08-.29h0Z"/>
    </g>
    <g>
      <path class="cls-6" d="M56.39,213.28c5.33-.36,10.49-2.79,14.16-6.66"/>
      <path d="M56.39,213.43c4.2-.29,8.28-1.83,11.64-4.36.94-.71,1.82-1.49,2.63-2.34.13-.14-.08-.35-.21-.21-2.84,2.98-6.54,5.1-10.54,6.07-1.15.28-2.33.46-3.52.54-.19.01-.19.31,0,.3h0Z"/>
    </g>
    <g>
      <path class="cls-6" d="M59.04,207.26c2.26-2.88,5.95-4.16,9.49-5.08"/>
      <path d="M59.15,207.37c1.78-2.25,4.43-3.51,7.1-4.38.77-.25,1.54-.46,2.32-.67.19-.05.11-.34-.08-.29-2.75.72-5.57,1.63-7.83,3.41-.64.5-1.22,1.07-1.72,1.71-.12.15.09.36.21.21h0Z"/>
    </g>
    <g>
      <path class="cls-6" d="M71.1,217.28c.1,2.67.78,5.32,1.96,7.71"/>
      <path d="M70.95,217.28c.11,2.7.79,5.36,1.98,7.79.09.17.34.02.26-.15-1.17-2.38-1.83-4.99-1.94-7.64,0-.19-.31-.19-.3,0h0Z"/>
    </g>
    <g>
      <path class="cls-6" d="M75.2,211.86c1.3,4.3,2.02,8.77,2.14,13.26"/>
      <path d="M75.05,211.9c1.29,4.29,2.01,8.74,2.13,13.22,0,.19.31.19.3,0-.12-4.51-.84-8.98-2.14-13.3-.06-.18-.35-.11-.29.08h0Z"/>
    </g>
    <g>
      <path class="cls-6" d="M79.16,212.33c2.04,2.57,3.23,5.81,3.34,9.09"/>
      <path d="M79.05,212.43c2.01,2.55,3.17,5.73,3.3,8.98,0,.19.31.19.3,0-.1-2.59-.84-5.15-2.15-7.39-.37-.63-.78-1.23-1.24-1.81-.12-.15-.33.06-.21.21h0Z"/>
    </g>
    <path class="cls-4" d="M157.65,129.59s-3.21,8.84-4.11,12.82l-1.05,8.17s1.43,10.55,3.98,13.13"/>
    <path class="cls-4" d="M134.35,154.43s9.59-3.77,14.59-3.84"/>
    <path class="cls-4" d="M136.98,134.45s7.16,5.43,10.54,9.54"/>
    <path class="cls-4" d="M172.78,147.49s-10.88,1.4-11.73,1.61"/>
    <path class="cls-4" d="M87.04,217.83s-5.16-6.17-6.21-9.52"/>
    <path class="cls-4" d="M81.07,183.01s.22,8.46,0,11.26"/>
    <path class="cls-4" d="M126.08,91.36s-1.71-2.72-1.88-4.68"/>
    <path class="cls-4" d="M111.74,87.14s4.37-3.21,6.35-3.03"/>
    <path class="cls-4" d="M136.85,80.63s-7.68.67-9.18,1.25"/>
    <path class="cls-4" d="M109.97,80.63s3.39,1.25,6.39.36"/>
    <path class="cls-4" d="M219.67,165.94s-1.19,4.43-.59,6.47"/>
    <path class="cls-4" d="M233.54,180.41s-7.48,2.25-9.09,1.85"/>
    <path class="cls-4" d="M228.27,196.32s-2.49-7.63-4.56-9.64"/>
    <path class="cls-4" d="M207.18,190.78s8.22-4.58,8.32-6.53"/>
  </g>
  <path class="cls-2" d="M217.59,124.18c-.73.18-1.49.11-2.2-.14-1.51-.54-4.27-1.67-4.95-2.96-.96-1.81-4.25-6.49-.53-9.15s8.37-2.66,9.61,0c1.17,2.51,4.37,10.73-1.93,12.25Z"/>
  <path class="cls-2" d="M73.83,123.7s-2.68,7.45,2.77,9.96c5.46,2.51,9.61-1.31,10.22-5.46.61-4.15.52-6.92-2.42-8.31-2.94-1.39-7.27-2.51-10.56,3.81Z"/>
  <ellipse class="cls-1" cx="215.19" cy="116.39" rx="1.43" ry="2.56" transform="translate(-19.27 186.25) rotate(-45)"/>
  <ellipse class="cls-1" cx="80.14" cy="126.54" rx="2.19" ry="2.74"/>
  <path d="M163.42,362.04c2.86-7.49,6.3-14.76,10.29-21.72,3.95-6.9,8.44-13.49,13.4-19.7,4.86-6.1,10.13-11.86,15.49-17.51,5.37-5.66,10.85-11.23,16.17-16.95s10.36-11.48,15-17.66c.57-.76,1.13-1.53,1.69-2.3.11-.16-.15-.31-.26-.15-4.62,6.4-9.75,12.4-15.08,18.21-5.28,5.75-10.75,11.32-16.14,16.97-5.38,5.64-10.69,11.36-15.63,17.4-5,6.1-9.56,12.55-13.6,19.33s-7.55,13.88-10.51,21.2c-.38.94-.75,1.87-1.11,2.82-.07.18.22.26.29.08h0Z"/>
  <path d="M170.19,355.98c6.74-9.25,14.84-17.36,22.54-25.8,3.81-4.17,7.51-8.44,10.92-12.94,3.64-4.82,7.13-9.7,11.28-14.1,4.55-4.83,9.52-9.22,14.49-13.61.15-.13-.07-.34-.21-.21-4.45,3.93-8.91,7.86-13.06,12.11-4.12,4.22-7.69,8.83-11.2,13.57s-7.22,9.21-11.15,13.56c-3.84,4.25-7.79,8.39-11.66,12.61-4.29,4.7-8.47,9.51-12.22,14.65-.11.16.15.31.26.15h0Z"/>
  <path d="M231.2,284.22c3.06-2.35,5.77-5.1,8.29-8.01s4.91-5.9,7.2-8.97c1.3-1.75,2.47-3.58,3.26-5.62.07-.18-.22-.26-.29-.08-1.4,3.61-4.02,6.61-6.4,9.61-2.33,2.94-4.71,5.84-7.35,8.5-1.53,1.54-3.14,2.99-4.86,4.32-.15.12,0,.38.15.26h0Z"/>
  <path d="M167.52,339.38c3.2-8,7.61-15.44,12.69-22.38,5.11-6.98,10.87-13.45,16.83-19.72,3.36-3.53,6.78-6.99,10.2-10.45.14-.14-.08-.35-.21-.21-6.16,6.21-12.31,12.44-18.06,19.03-5.67,6.49-10.97,13.34-15.36,20.76-2.44,4.13-4.59,8.42-6.37,12.88-.07.18.22.26.29.08h0Z"/>
  <path d="M47.78,263.65c8.98,3.24,17.45,7.82,25.07,13.57,2.17,1.64,4.26,3.37,6.28,5.18.14.13.36-.08.21-.21-7.17-6.44-15.31-11.79-24.07-15.8-2.43-1.11-4.9-2.12-7.42-3.02-.18-.07-.26.22-.08.29h0Z"/>
  <path d="M78.31,287.91c2.78.61,4.93,2.56,6.92,4.47,2.4,2.29,4.79,4.59,7.18,6.88,4.75,4.55,9.5,9.1,14.25,13.65,2.71,2.59,5.41,5.18,8.12,7.78.14.13.35-.08.21-.21-9.74-9.33-19.48-18.67-29.23-28-2.14-2.05-4.4-4.21-7.38-4.86-.19-.04-.27.25-.08.29h0Z"/>
  <path d="M88.19,283.76c7.7,6.14,14.9,12.9,21.5,20.21,3.35,3.71,6.69,7.52,9.49,11.67,2.82,4.18,4.72,8.89,7.22,13.25,2.85,4.99,6.18,9.68,9.5,14.36.11.16.37,0,.26-.15-2.96-4.17-5.92-8.35-8.55-12.74s-4.57-9.09-7.23-13.41c-2.59-4.2-5.86-7.98-9.12-11.66s-6.69-7.28-10.25-10.7c-4.03-3.87-8.23-7.55-12.6-11.03-.15-.12-.36.09-.21.21h0Z"/>
  <path d="M71.89,260.86c8.8,1.61,15.62,7.88,21.37,14.35,2.96,3.33,5.84,6.73,8.68,10.15,2.83,3.41,5.59,6.88,8.14,10.5,2.84,4.04,5.41,8.28,7.5,12.76.08.17.34.02.26-.15-3.77-8.06-9.06-15.27-14.69-22.12-2.87-3.49-5.8-6.92-8.77-10.32-2.95-3.38-6.05-6.68-9.62-9.43-3.77-2.9-8.08-5.16-12.79-6.03-.19-.03-.27.25-.08.29h0Z"/>
  <path d="M46.03,254.5c5.72,1.06,11.17,3.43,15.86,6.88,1.35.99,2.63,2.08,3.83,3.24.14.13.35-.08.21-.21-4.22-4.06-9.35-7.15-14.92-8.96-1.61-.52-3.24-.94-4.9-1.24-.19-.04-.27.25-.08.29h0Z"/>
  <path class="cls-2" d="M154.33,153.33c-1.23.5-2.61.48-3.89.1-2.26-.67-6.27-2.36-6.13-5.89.19-4.91,2.26-6.4,4.91-7.05,2.65-.65,8.08.71,8.92,4.27.7,2.96-.35,7.17-3.83,8.57Z"/>
  <ellipse class="cls-1" cx="150.7" cy="146.69" rx="1.97" ry="1.43" transform="translate(-20.32 24.29) rotate(-8.64)"/>
  <path class="cls-2" d="M74.39,194.99s-3.33,2.79-3.18,6.12c.15,3.33,2.32,7.28,7.75,6.27,5.42-1.01,7.67-7.64,5.89-11.64s-5.89-4.93-10.46-.75Z"/>
  <ellipse class="cls-1" cx="77.87" cy="199.36" rx="2.19" ry="1.73" transform="translate(-123.58 127.08) rotate(-48.93)"/>
  <path class="cls-2" d="M117.06,77.83s-3.29.87-2.42,4.26,1.45,6.48,7.06,6.38c5.61-.1,9-3.19,8.13-6.77s-3.19-7.35-6.77-7.26c-3.58.1-4.26,2.32-6,3.39Z"/>
  <path class="cls-3" d="M207.74,174.39s4.33.83,5.03,1.68"/>
  <path class="cls-2" d="M211.72,173.94s-3.51,6.38,2.98,11.49c6.49,5.11,12.23,2.77,11.7-.85-.53-3.62-2.02-3.94-3.19-6.59-1.17-2.66-.91-6.49-4.6-6.7s-5.71,1.06-6.88,2.66Z"/>
  <ellipse class="cls-1" cx="219.08" cy="180.41" rx="1.49" ry="2.45" transform="translate(-64.68 185.56) rotate(-40.51)"/>
  <path class="cls-3" d="M178.05,262.36s8.6-11.56,8.87-13.64"/>
  <path class="cls-2" d="M183.22,245.41s-.05,5.53,5.64,6.49,9.57-3.84,10.42-5.64.43-6.16-2.45-7.97-7.34-3.94-10.85-.64-2.77,7.76-2.77,7.76Z"/>
  <ellipse class="cls-1" cx="192.15" cy="242.81" rx="2.04" ry="2.89" transform="translate(-117.15 228.14) rotate(-48.93)"/>
  <ellipse class="cls-1" cx="122.75" cy="81.31" rx="2.16" ry="1.95"/>
</svg>