<?xml version="1.0" encoding="UTF-8"?>
<svg id="Layer_1" data-name="Layer 1" xmlns="http://www.w3.org/2000/svg" viewBox="0 0 289.13 430.87">
  <defs>
    <style>
      .cls-1 {
        fill: #c5d190;
      }

      .cls-1, .cls-2 {
        stroke: #000;
        stroke-miterlimit: 10;
        stroke-width: .5px;
      }

      .cls-3, .cls-2 {
        fill: #f4ed98;
      }
    </style>
  </defs>
  <g>
    <path class="cls-2" d="M210.72,193.9s32.25.39,37.49-1.36c5.24-1.75,28.17-15.82,16.71-25.59,0,0,.78-13.18-11.27-14s-17.68-.26-21.37,2.09c-6.38,4.07-12.82,19.23-12.82,19.23l-8.74,14.76v4.86Z"/>
    <g>
      <path class="cls-3" d="M214.33,190.09c4.11-3.37,8.85-5.98,13.9-7.65"/>
      <path d="M214.44,190.2c3.17-2.6,6.71-4.74,10.48-6.34,1.1-.47,2.22-.89,3.36-1.26.18-.06.1-.35-.08-.29-3.97,1.32-7.75,3.2-11.19,5.59-.95.66-1.88,1.36-2.78,2.1-.15.12.06.33.21.21h0Z"/>
    </g>
    <g>
      <path class="cls-3" d="M218.9,181.5c1.39-.21,2.66-.86,3.91-1.5,3.85-1.99,7.67-4.04,11.46-6.15"/>
      <path d="M218.94,181.64c1.32-.21,2.52-.79,3.69-1.39,1.32-.68,2.63-1.37,3.93-2.06,2.61-1.38,5.2-2.79,7.78-4.22.17-.09.02-.35-.15-.26-2.54,1.41-5.08,2.79-7.65,4.15-1.27.67-2.54,1.34-3.82,2s-2.49,1.26-3.87,1.49c-.19.03-.11.32.08.29h0Z"/>
    </g>
    <path class="cls-2" d="M175.56,169.43s-14.96-4.66-20.59-12.04c-5.63-7.38-10.69-15.93-2.53-20.59,0,0,1.36-6.99,10.3-8.16,8.94-1.17,20.78-1.17,24.09,10.1s4.66,32.63,4.66,32.63l-11.65,6.41-4.27-8.35Z"/>
    <g>
      <path class="cls-3" d="M178.49,146.99c2.72,2.32,4.98,5.18,6.61,8.36"/>
      <path d="M178.38,147.1c2.11,1.81,3.95,3.94,5.43,6.3.41.66.8,1.34,1.16,2.04.09.17.35.02.26-.15-1.28-2.49-2.93-4.78-4.89-6.77-.56-.57-1.14-1.11-1.74-1.62-.15-.12-.36.09-.21.21h0Z"/>
    </g>
    <path class="cls-2" d="M186.63,178.75s-5.05-33.8,0-43.51c5.05-9.71,10.3-14.57,16.32-13.99s7.77,7.96,7.77,7.96c0,0,5.63-8.94,15.15,4.08s-1.36,40.6-1.36,40.6l-11.85,21.76h-15.54l-10.49-16.9Z"/>
    <g>
      <path class="cls-3" d="M209.69,134.1c.22,5.45-.25,10.94-1.4,16.27-.22,1.04-.47,2.09-.43,3.15"/>
      <path d="M209.54,134.1c.13,3.26.01,6.53-.35,9.77-.19,1.67-.44,3.33-.75,4.98-.29,1.54-.77,3.09-.73,4.67,0,.19.31.19.3,0-.04-1.67.49-3.33.79-4.96s.52-3.12.69-4.69c.36-3.24.47-6.51.35-9.77,0-.19-.31-.19-.3,0h0Z"/>
    </g>
    <g>
      <path class="cls-3" d="M198.88,145.87c-1.11,5.16-1.54,10.47-1.27,15.74"/>
      <path d="M198.74,145.83c-1.11,5.18-1.54,10.49-1.28,15.78,0,.19.31.19.3,0-.26-5.26.16-10.55,1.27-15.7.04-.19-.25-.27-.29-.08h0Z"/>
    </g>
    <g>
      <path class="cls-3" d="M214.52,150.93c.44,3.57.72,7.17.84,10.77.03.86-.02,1.87-.73,2.36"/>
      <path d="M214.37,150.93c.29,2.33.51,4.66.66,7,.07,1.17.13,2.34.17,3.51.03.83.1,1.93-.65,2.5-.15.11,0,.38.15.26.67-.5.8-1.34.81-2.13,0-1.2-.08-2.41-.15-3.61-.15-2.51-.38-5.02-.69-7.52-.02-.19-.32-.19-.3,0h0Z"/>
    </g>
    <g>
      <path class="cls-3" d="M204.81,140.52c.6,4.93.38,9.96-.65,14.82"/>
      <path d="M204.66,140.52c.59,4.92.37,9.92-.64,14.78-.04.19.25.27.29.08,1.02-4.88,1.24-9.91.65-14.86-.02-.19-.32-.19-.3,0h0Z"/>
    </g>
    <path class="cls-2" d="M202.88,169.22s-1.89-11.84,1.89-11.64,5.37,1.49,5.87,6.47-3.08,15.12-3.08,15.12"/>
    <path class="cls-2" d="M173.03,202.45s-6.6,28.17-8.35,30.11c-1.75,1.94.97,14.37,2.91,14.57s14.37-11.85,18.26-13.79,32.25-26.22,32.25-27.58-40.6-7.58-40.6-7.58l-4.47,4.27Z"/>
    <path class="cls-2" d="M196.92,205.17s13.79.78,16.12,3.88c2.33,3.11,5.83,14.96,14.96,18.26s23.89,5.24,25.45,0c0,0,11.46-2.53,7.96-13.6-3.5-11.07-4.47-19.62-16.12-22.92-11.65-3.3-39.43,3.14-39.43,3.14l-8.94,11.23Z"/>
    <path class="cls-2" d="M199.19,188.89s-7.78-4.48-9.43-9.19-5.19-12.49-11.55-12.49-13.2-1.65-18.15,3.54c-4.95,5.19-4.71,12.49-6.84,15.09s0,10.14,6.84,13.2c0,0-2.36,8.01,6.84,8.25s33.47-1.41,36.3-1.18,10.14-12.96,3.06-15.09l-7.07-2.12Z"/>
    <path class="cls-2" d="M201.35,187.69s-1.43-9.72-3.24-13.35c-1.81-3.63-2.85-10.5,0-10.76s5.18,1.56,6.61,6.48c1.43,4.92,0,17.63,0,17.63"/>
    <path class="cls-2" d="M210.69,190.71s11.89-14.11,9.9-17.11-6.47,2.69-6.47,2.69l-4.77,8.36"/>
    <path class="cls-2" d="M207.26,184.14s6.07-16.86,9.45-17.18,1.79,6.04,0,9.13c-1.79,3.08-8.85,13.77-8.85,13.77"/>
    <path class="cls-2" d="M94.61,235.95s-13.75-31.33-27.49-36.06-21.18-5.46-25.24-1.72.23,17.04,2.93,20.87,20.28,17.13,27.04,18.71c6.76,1.58,19.83,13.52,19.83,13.52l10.59,1.8-7.66-17.13Z"/>
    <g>
      <path class="cls-2" d="M77.17,163.87s19.27,10.94,25.57,22.44c6.3,11.5,12.34,30.55,12.34,30.55l12.64,9.24,6.6-2.64s-5.47-19.91-7.17-27.68c-1.7-7.78-2.8-25.5-4.61-30.97-1.81-5.47,5.36-34.75,7.81-38.31,2.45-3.56-57.71,28.12-57.71,28.12l4.53,9.24Z"/>
      <path class="cls-2" d="M77.94,150.67l-16.81-19.8s-12.26-15.65-6.41-23.95c0,0,2.64-6.79,7.92-4.53,0,0,9.62-10.37,26.78,2.26s12.83,40.36,12.83,40.36"/>
      <path class="cls-2" d="M121.87,83.72s3.3-7.17,7.12-7.36,10.99,2.83,11.36,11.32c.38,8.49-7.36,16.6-7.36,16.6l-9.81-2.45-1.32-18.11Z"/>
      <path class="cls-2" d="M91.13,118.42s-6.6-14.33.75-23.95,17.73-17.73,23.01-16.6c5.28,1.13,4.34,2.45,4.34,2.45,0,0,5.85-7.17,8.68,3.21,2.83,10.37-.19,25.84-5.47,32.82-5.28,6.98-17.35,22.44-17.35,22.44l-9.28,1.3-4.67-21.66Z"/>
      <path class="cls-2" d="M76.23,135.77s-22.82-17.15-36.02-7.63-10.56,18.2-10.56,18.2c0,0-6.79,3.82-4.53,6.63s24.06,3.56,25.32,2.43l40.69-13.77-14.9-5.85Z"/>
      <path class="cls-2" d="M90.62,152.2c.31-2.36,2.7-13.2-6.48-11.63-10.63,1.83-11.07,4.25-16.6,4.81,0,0-11.93.19-14.52,5.09s-5.28,11.26-4.53,16.48.38,9.08,6.6,10.82,15.09,1.56,19.99-5.8c3.2-4.81,5.59-16.07,11.27-19.37"/>
      <path class="cls-2" d="M139.03,113.89s4.34-6.6,7.73-8.3,12.07-13.58,10-19.43c-2.07-5.85-12.26-1.13-12.26-1.13,0,0-12.45-1.03-17.92,13.35l-5.47,14.38,17.92,1.13Z"/>
      <path class="cls-2" d="M101.84,148.83c.96-2.9,5.12-6.47,7.76-8.25,3.21-2.16,11.6-7.82,19.38-8.58s17.61-6.36,14.95-13.77c-2.66-7.41-6.4-12.83-12.82-12.07s-13.4,6.04-14.91,9.24-5.22,9.76-7.51,11.1-8.52,5.87-7.95,15.68"/>
      <path class="cls-2" d="M94.91,141.33s-2.54-15.26-.16-16.84c2.38-1.58,4.55,2.29,5.87,7.31,1.33,5.02,0,10.8,0,10.8"/>
      <path class="cls-2" d="M87.79,144.06s-16.18-15.6-9.83-18.3,8.2,6.35,9.42,7.86,8.89,7.86,8.89,7.86"/>
    </g>
    <g>
      <path class="cls-3" d="M179.1,211.36c-2.81,6.25-6.96,12.04-8.15,18.79"/>
      <path d="M178.98,211.28c-2.81,6.23-6.94,11.99-8.16,18.83-.03.19.26.27.29.08,1.22-6.81,5.34-12.55,8.13-18.76.08-.17-.18-.33-.26-.15h0Z"/>
    </g>
    <g>
      <path class="cls-3" d="M198.73,210.09c-3.93,4.64-7.91,9.25-11.93,13.81-1.13,1.28-2.27,2.57-3.6,3.65-1.17.96-2.47,1.74-3.62,2.71-4.1,3.43-6.03,8.77-9.38,12.94"/>
      <path d="M198.63,209.99c-4.07,4.81-8.18,9.6-12.38,14.31-.96,1.08-1.95,2.15-3.07,3.08s-2.4,1.71-3.54,2.64c-1.91,1.55-3.38,3.55-4.69,5.61-1.6,2.5-3,5.14-4.86,7.47-.12.15.09.36.21.21,3.16-3.96,5.03-8.92,8.79-12.41,1.1-1.02,2.37-1.82,3.56-2.72,1.12-.84,2.11-1.8,3.06-2.83,2.07-2.25,4.06-4.59,6.07-6.9,2.37-2.73,4.72-5.48,7.06-8.24.12-.15-.09-.36-.21-.21h0Z"/>
    </g>
    <g>
      <path class="cls-3" d="M206.67,208.42c-2,1.2-3.09,3.42-4.23,5.44-3.4,5.99-8.21,11.18-13.92,15.03"/>
      <path d="M206.6,208.29c-1.41.87-2.39,2.21-3.22,3.61-.92,1.55-1.76,3.13-2.76,4.62-2.05,3.07-4.48,5.87-7.21,8.35-1.56,1.41-3.22,2.71-4.97,3.89-.16.11,0,.37.15.26,6.02-4.07,10.86-9.52,14.41-15.85.97-1.74,2.01-3.55,3.75-4.62.16-.1.01-.36-.15-.26h0Z"/>
    </g>
    <g>
      <path class="cls-3" d="M175.74,229.3c-1.94,2.69-3.92,5.45-4.86,8.64-.28.94-.48,1.96-1.11,2.71"/>
      <path d="M175.61,229.23c-1.96,2.72-3.96,5.51-4.9,8.77-.25.88-.45,1.82-1.05,2.55-.12.15.09.36.21.21.49-.6.74-1.32.95-2.06.23-.81.47-1.62.8-2.4.67-1.6,1.57-3.08,2.54-4.51.55-.81,1.13-1.61,1.7-2.41.11-.16-.15-.31-.26-.15h0Z"/>
    </g>
    <g>
      <path class="cls-3" d="M239.69,198.49c5.5,4.96,9.59,11.47,11.69,18.57.81,2.73,1.37,5.64,3.13,7.88"/>
      <path d="M239.58,198.6c2.96,2.69,5.52,5.81,7.58,9.24,2.08,3.48,3.5,7.19,4.58,11.08.6,2.15,1.26,4.31,2.64,6.1.12.15.38,0,.26-.15-1.28-1.66-1.93-3.63-2.49-5.62s-1.11-3.92-1.87-5.81c-1.46-3.62-3.43-7.03-5.85-10.09-1.4-1.78-2.95-3.43-4.63-4.96-.14-.13-.36.08-.21.21h0Z"/>
    </g>
    <g>
      <path class="cls-3" d="M213.54,200.24c5.66-.27,11.52.49,16.44,3.29,1.98,1.13,3.92,2.61,6.19,2.74"/>
      <path d="M213.54,200.39c4.08-.19,8.23.13,12.14,1.41,1.96.64,3.75,1.56,5.51,2.62,1.55.94,3.14,1.86,4.99,1.99.19.01.19-.29,0-.3-2.05-.14-3.77-1.32-5.48-2.34s-3.45-1.8-5.31-2.38c-3.82-1.19-7.87-1.49-11.85-1.31-.19,0-.19.31,0,.3h0Z"/>
    </g>
    <g>
      <path class="cls-3" d="M210.14,202.59c3.4,1.15,6.95,1.85,10.53,2.07.59.04,1.18.06,1.74.24.54.17,1.02.48,1.5.79.87.56,1.75,1.12,2.62,1.68"/>
      <path d="M210.1,202.73c2.7.91,5.49,1.54,8.32,1.87.7.08,1.4.15,2.1.19.75.05,1.51.07,2.21.38.64.28,1.21.7,1.79,1.08.64.41,1.29.82,1.93,1.24.16.1.31-.16.15-.26-.64-.41-1.29-.82-1.93-1.24-.58-.37-1.16-.79-1.79-1.08-.56-.25-1.16-.34-1.77-.38-.74-.05-1.49-.1-2.23-.18-2.96-.31-5.88-.96-8.7-1.92-.18-.06-.26.23-.08.29h0Z"/>
    </g>
    <g>
      <path class="cls-3" d="M225.72,188.27c7.81-3.61,15.61-7.22,23.42-10.84"/>
      <path d="M225.79,188.4c7.81-3.61,15.61-7.22,23.42-10.84.18-.08.02-.34-.15-.26-7.81,3.61-15.61,7.22-23.42,10.84-.18.08-.02.34.15.26h0Z"/>
    </g>
    <g>
      <path class="cls-3" d="M234.68,177.65c5.86-3.8,11.75-7.55,17.65-11.3"/>
      <path d="M234.75,177.78c5.86-3.8,11.75-7.55,17.65-11.3.16-.1.01-.36-.15-.26-5.89,3.75-11.78,7.5-17.65,11.3-.16.1-.01.36.15.26h0Z"/>
    </g>
    <g>
      <path class="cls-3" d="M228.62,172.12c3.86-3.44,7.33-7.3,10.34-11.51"/>
      <path d="M228.73,172.23c3.03-2.7,5.82-5.66,8.34-8.85.7-.88,1.37-1.78,2.02-2.69.11-.16-.15-.31-.26-.15-2.34,3.26-4.95,6.32-7.81,9.13-.82.8-1.65,1.58-2.51,2.35-.14.13.07.34.21.21h0Z"/>
    </g>
    <g>
      <path class="cls-3" d="M172.4,187.6c6.64-1.88,13.63-2.52,20.5-1.88"/>
      <path d="M172.44,187.74c6.64-1.87,13.59-2.5,20.46-1.87.19.02.19-.28,0-.3-6.9-.63-13.88,0-20.54,1.88-.19.05-.11.34.08.29h0Z"/>
    </g>
    <g>
      <path class="cls-3" d="M168.13,195.28c3.95-.69,7.91-1.38,11.86-2.07,1.59-.28,3.2-.55,4.8-.38"/>
      <path d="M168.17,195.42c2.76-.48,5.52-.96,8.29-1.44,1.35-.24,2.7-.47,4.05-.71,1.42-.24,2.85-.43,4.28-.29.19.02.19-.28,0-.3-1.36-.13-2.71.03-4.05.25-1.4.23-2.81.49-4.21.73-2.82.49-5.63.98-8.45,1.47-.19.03-.11.32.08.29h0Z"/>
    </g>
    <g>
      <path class="cls-3" d="M172.41,201.05c7.73.01,15.46-.94,22.96-2.81"/>
      <path d="M172.41,201.2c7.75,0,15.48-.95,23-2.82.19-.05.11-.34-.08-.29-7.49,1.87-15.19,2.81-22.92,2.81-.19,0-.19.3,0,.3h0Z"/>
    </g>
    <g>
      <path class="cls-3" d="M159.04,186.16c1.96-1.91,3.97-3.85,6.47-4.96,2.58-1.14,5.48-1.3,8.29-1.43,1.53-.07,3.05-.15,4.58-.22"/>
      <path d="M159.14,186.27c2.44-2.38,4.96-4.7,8.35-5.59,1.72-.45,3.5-.6,5.27-.7,1.87-.1,3.74-.18,5.62-.28.19,0,.19-.31,0-.3-1.99.1-3.98.18-5.96.3-1.74.1-3.49.27-5.17.73-3.36.93-5.88,3.25-8.31,5.63-.14.13.07.35.21.21h0Z"/>
    </g>
    <g>
      <path class="cls-3" d="M157.23,148.83c2.15,1.98,4.58,3.66,7.18,4.99.75.38,1.51.74,2.17,1.25,1.51,1.19,2.4,3.17,4.16,3.93"/>
      <path d="M157.12,148.93c1.75,1.6,3.68,3.02,5.73,4.21,1.04.6,2.16,1.07,3.16,1.71.89.57,1.55,1.38,2.22,2.18s1.43,1.64,2.43,2.09c.17.08.33-.18.15-.26-1.8-.81-2.65-2.75-4.16-3.93-.95-.73-2.09-1.19-3.13-1.76s-2.04-1.2-3-1.88c-1.12-.79-2.18-1.65-3.19-2.58-.14-.13-.35.08-.21.21h0Z"/>
    </g>
    <g>
      <path class="cls-3" d="M156.06,140.26c5.59.77,11.03,2.59,15.95,5.35"/>
      <path d="M156.02,140.41c5.58.77,10.99,2.59,15.91,5.33.17.09.32-.16.15-.26-4.94-2.76-10.38-4.59-15.98-5.36-.19-.03-.27.26-.08.29h0Z"/>
    </g>
    <g>
      <path class="cls-3" d="M91.54,164.75c3.01,6.28,7.36,11.91,12.67,16.41,1.73,1.47,3.61,2.86,4.76,4.81"/>
      <path d="M91.41,164.82c3.12,6.49,7.63,12.22,13.17,16.83,1.57,1.31,3.2,2.61,4.27,4.39.1.16.36.01.26-.15-.9-1.49-2.19-2.66-3.51-3.77-1.38-1.16-2.76-2.33-4.04-3.6-2.6-2.56-4.91-5.41-6.88-8.48-1.11-1.73-2.11-3.52-3-5.37-.08-.17-.34-.02-.26.15h0Z"/>
    </g>
    <g>
      <path class="cls-3" d="M94.01,161.27c4.11,3.32,7.45,7.58,9.68,12.37"/>
      <path d="M93.9,161.38c3.19,2.58,5.92,5.72,8.02,9.25.6,1,1.14,2.03,1.64,3.09.08.17.34.02.26-.15-1.75-3.74-4.17-7.16-7.1-10.07-.83-.82-1.7-1.6-2.61-2.33-.15-.12-.36.09-.21.21h0Z"/>
    </g>
    <g>
      <path class="cls-3" d="M110.42,190.02c2.49,3.86,5.1,7.65,7.82,11.36,1.45,1.98,2.95,3.97,3.84,6.25"/>
      <path d="M110.29,190.1c1.96,3.03,3.98,6.01,6.07,8.95,1.97,2.76,4.3,5.45,5.57,8.63.07.18.36.1.29-.08-.96-2.41-2.53-4.48-4.05-6.56-1.69-2.32-3.34-4.66-4.94-7.04-.91-1.34-1.8-2.69-2.67-4.05-.1-.16-.36-.01-.26.15h0Z"/>
    </g>
    <g>
      <path class="cls-3" d="M110.14,162.38l1.43,10.3c.44,3.18.89,6.39,1.92,9.44,1.22,3.61,3.25,6.93,4.17,10.63"/>
      <path d="M110,162.42c.59,4.21,1.13,8.43,1.77,12.63.3,2.01.67,4.03,1.24,5.98.54,1.86,1.32,3.64,2.11,5.41.92,2.07,1.85,4.14,2.41,6.34.05.19.34.11.29-.08-.97-3.79-3.03-7.16-4.24-10.86-1.3-3.96-1.7-8.17-2.27-12.28-.34-2.41-.67-4.82-1.01-7.24-.03-.19-.32-.11-.29.08h0Z"/>
    </g>
    <g>
      <path class="cls-3" d="M119.18,179.58c.65,6.78,1.69,13.52,3.11,20.18"/>
      <path d="M119.03,179.58c.66,6.79,1.7,13.55,3.12,20.22.04.19.33.11.29-.08-1.41-6.65-2.45-13.38-3.11-20.14-.02-.19-.32-.19-.3,0h0Z"/>
    </g>
    <g>
      <path class="cls-3" d="M117.1,152.2c-.49,6.14-.55,12.31-.17,18.46"/>
      <path d="M116.95,152.2c-.48,6.14-.54,12.31-.17,18.46.01.19.31.19.3,0-.37-6.15-.31-12.32.17-18.46.02-.19-.28-.19-.3,0h0Z"/>
    </g>
    <g>
      <path class="cls-3" d="M118.58,138.62c-.5,3.23-.8,6.49-.92,9.76"/>
      <path d="M118.44,138.58c-.5,3.25-.8,6.52-.92,9.8,0,.19.29.19.3,0,.12-3.25.42-6.5.91-9.72.03-.19-.26-.27-.29-.08h0Z"/>
    </g>
    <g>
      <path class="cls-3" d="M95.95,150.33c1.85,4.6,4.36,8.93,7.42,12.82"/>
      <path d="M95.81,150.37c1.46,3.6,3.3,7.04,5.51,10.24.62.9,1.28,1.79,1.96,2.65.12.15.33-.06.21-.21-3.04-3.88-5.54-8.19-7.38-12.76-.07-.18-.36-.1-.29.08h0Z"/>
    </g>
    <g>
      <path class="cls-3" d="M57.24,172.8c.8-3.65,2.08-7.19,3.81-10.51"/>
      <path d="M57.39,172.84c.8-3.64,2.07-7.16,3.79-10.47.09-.17-.17-.32-.26-.15-1.73,3.33-3.02,6.88-3.82,10.54-.04.19.25.27.29.08h0Z"/>
    </g>
    <g>
      <path class="cls-3" d="M64.76,158.76c1.59-6.46,6.34-12.07,12.45-14.7"/>
      <path d="M64.91,158.8c1.25-5.03,4.38-9.52,8.61-12.5,1.18-.83,2.45-1.54,3.77-2.11.18-.08.02-.33-.15-.26-4.79,2.07-8.75,5.94-11.02,10.64-.64,1.33-1.15,2.72-1.5,4.15-.05.19.24.27.29.08h0Z"/>
    </g>
    <g>
      <path class="cls-3" d="M33.39,145.84c6.93-2.39,13.96-4.8,21.27-5.26"/>
      <path d="M33.43,145.99c6.9-2.38,13.9-4.77,21.23-5.26.19-.01.19-.31,0-.3-7.36.49-14.39,2.88-21.31,5.27-.18.06-.1.35.08.29h0Z"/>
    </g>
    <g>
      <path class="cls-3" d="M61.44,139.2c4.67-.28,9.35-.26,14.01.05"/>
      <path d="M61.44,139.35c4.67-.28,9.35-.26,14.01.05.19.01.19-.29,0-.3-4.66-.32-9.35-.33-14.01-.05-.19.01-.19.31,0,.3h0Z"/>
    </g>
    <g>
      <path class="cls-3" d="M55.07,133.29c4.19-.51,8.49-.15,12.53,1.05"/>
      <path d="M55.07,133.44c4.19-.5,8.45-.14,12.49,1.05.19.05.26-.23.08-.29-4.07-1.2-8.36-1.56-12.57-1.06-.19.02-.19.32,0,.3h0Z"/>
    </g>
    <g>
      <path class="cls-3" d="M67.42,120.91c2.6.95,5.03,2.38,7.12,4.2"/>
      <path d="M67.38,121.05c2,.73,3.89,1.75,5.6,3,.5.36.98.75,1.45,1.15.15.13.36-.09.21-.21-1.65-1.43-3.5-2.62-5.49-3.53-.56-.26-1.12-.49-1.7-.7-.18-.07-.26.22-.08.29h0Z"/>
    </g>
    <g>
      <path class="cls-3" d="M79.27,111.59c.89.1,1.58.81,2.17,1.48,2.94,3.3,5.61,6.85,7.97,10.58"/>
      <path d="M79.23,111.73c.93.13,1.59.85,2.18,1.52.7.79,1.39,1.6,2.06,2.42,1.35,1.64,2.63,3.34,3.84,5.08.68.98,1.34,1.97,1.97,2.97.1.16.36.01.26-.15-2.32-3.67-4.94-7.15-7.81-10.4-.66-.74-1.38-1.58-2.42-1.72-.19-.03-.27.26-.08.29h0Z"/>
    </g>
    <g>
      <path class="cls-3" d="M70.12,114.3c3.62,1.07,6.93,3.17,9.44,5.99"/>
      <path d="M70.08,114.45c2.8.84,5.41,2.28,7.61,4.21.62.55,1.21,1.13,1.76,1.75.13.14.34-.07.21-.21-1.97-2.21-4.42-3.98-7.14-5.17-.77-.34-1.56-.62-2.37-.87-.19-.06-.26.23-.08.29h0Z"/>
    </g>
    <g>
      <path class="cls-3" d="M115.05,87.09c-3.93,5.64-4.58,12.86-5.1,19.71"/>
      <path d="M114.93,87.01c-3.99,5.77-4.6,13-5.12,19.79-.01.19.29.19.3,0,.51-6.74,1.12-13.91,5.08-19.64.11-.16-.15-.31-.26-.15h0Z"/>
    </g>
    <g>
      <path class="cls-3" d="M112.95,111.33c-1.47,1.78-2.54,3.9-3.09,6.14-.66,2.7-.62,5.65-2.07,8.02"/>
      <path d="M112.84,111.23c-1.62,1.97-2.73,4.29-3.26,6.79s-.58,5.16-1.92,7.4c-.1.17.16.32.26.15,1.29-2.16,1.41-4.71,1.88-7.12.5-2.57,1.58-4.98,3.25-7.01.12-.15-.09-.36-.21-.21h0Z"/>
    </g>
    <g>
      <path class="cls-3" d="M120.36,103.19c-.97,3.77-2.46,7.4-4.41,10.77"/>
      <path d="M120.22,103.15c-.97,3.76-2.45,7.37-4.4,10.73-.1.17.16.32.26.15,1.96-3.38,3.45-7.02,4.43-10.81.05-.19-.24-.27-.29-.08h0Z"/>
    </g>
    <g>
      <path class="cls-3" d="M149.68,93.36c-2.85,5.44-6.55,10.42-10.93,14.72"/>
      <path d="M149.55,93.28c-2.22,4.23-4.95,8.18-8.11,11.75-.9,1.01-1.83,1.99-2.79,2.94-.14.14.07.35.21.21,3.41-3.35,6.41-7.11,8.92-11.17.72-1.17,1.4-2.36,2.04-3.58.09-.17-.17-.32-.26-.15h0Z"/>
    </g>
    <g>
      <path class="cls-3" d="M106.6,134.55c2.62-5.75,7.09-10.64,12.59-13.76"/>
      <path d="M106.73,134.63c2.05-4.47,5.19-8.42,9.09-11.42,1.09-.84,2.25-1.61,3.45-2.29.17-.1.02-.35-.15-.26-4.29,2.44-7.95,5.94-10.61,10.09-.76,1.19-1.44,2.44-2.03,3.73-.08.17.18.33.26.15h0Z"/>
    </g>
    <g>
      <path class="cls-3" d="M49.62,200.81c4.62,1.88,9.25,3.86,13.35,6.7s7.69,6.62,9.56,11.24"/>
      <path d="M49.58,200.96c7.19,2.92,14.63,6.25,19.6,12.45,1.31,1.64,2.4,3.44,3.2,5.39.07.18.36.1.29-.08-2.96-7.26-9.63-11.96-16.48-15.23-2.14-1.02-4.33-1.93-6.53-2.83-.18-.07-.26.22-.08.29h0Z"/>
    </g>
    <g>
      <path class="cls-3" d="M77.79,224.37c.85,2.17,2.17,4.1,3.49,6.02,2.51,3.66,5.02,7.32,7.53,10.98"/>
      <path d="M77.64,224.41c1.21,3.03,3.24,5.68,5.08,8.35,1.98,2.9,3.97,5.79,5.95,8.69.11.16.37,0,.26-.15-1.95-2.85-3.91-5.7-5.86-8.55-1.85-2.69-3.92-5.36-5.14-8.42-.07-.18-.36-.1-.29.08h0Z"/>
    </g>
    <g>
      <path class="cls-3" d="M71.27,225.38c2.57,2.82,5,5.77,7.28,8.83"/>
      <path d="M71.17,225.49c1.98,2.18,3.88,4.43,5.69,6.76.53.68,1.05,1.36,1.56,2.04.11.15.37,0,.26-.15-1.78-2.38-3.64-4.7-5.59-6.94-.56-.65-1.13-1.28-1.71-1.92-.13-.14-.34.07-.21.21h0Z"/>
    </g>
    <g>
      <path class="cls-3" d="M55.67,221.93c1.91,2.98,4.85,5.13,7.77,7.12,4.89,3.33,9.93,6.43,15.11,9.29"/>
      <path d="M55.54,222c1.86,2.85,4.58,4.94,7.35,6.85,3.2,2.2,6.47,4.29,9.8,6.29,1.91,1.14,3.84,2.25,5.79,3.33.17.09.32-.17.15-.26-3.32-1.84-6.59-3.77-9.8-5.8s-6.27-3.94-9.1-6.28c-1.5-1.24-2.86-2.64-3.93-4.27-.11-.16-.36-.01-.26.15h0Z"/>
    </g>
    <g>
      <path class="cls-3" d="M80.49,219.53c3.52,6.12,6.73,12.42,9.61,18.86"/>
      <path d="M80.36,219.6c3.52,6.12,6.73,12.42,9.61,18.86.08.18.34.02.26-.15-2.88-6.45-6.09-12.74-9.61-18.86-.1-.17-.36-.02-.26.15h0Z"/>
    </g>
  </g>
  <path class="cls-1" d="M157.59,258.59s-3.3-6.41,0-11.46c0,0-.58-17.48,3.5-18.46,4.08-.97,7.38,4.66,7.38,4.66l2.91,6.41s9.5-.14,9.95,1.75c.88,3.7-9.56,15.73-9.56,15.73,0,0-4.23,5.63-7.17,6.99,0,0-14.2,38.27-16.34,59.05-2.14,20.78,0,44.09,0,44.09,0,0,15.35-54.39,29.91-74.59,14.57-20.2,33.41-36.71,59.25-43.51,0,0-18.65,13.4-26.81,26.81-8.16,13.4-33.02,52.45-41.18,62.35-6.22,7.55-13.78,29.3-17.04,39.24-.99,3.02-3.8,5.05-6.98,5.05h0c-3.12,0-5.89-1.96-6.93-4.9-3.29-9.28-11.68-29.58-25.58-41.72-18.45-16.12-38.85-48.95-38.85-48.95,0,0-25.06-28.55-30.5-30.89,0,0,16.12-3.5,38.66,14.57,22.53,18.07,40.79,47.2,44.09,57.3s13.01,38.07,13.01,38.07c0,0,1.55-38.46-2.72-49.73-4.27-11.27-14.76-45.26-30.89-58.08,0,0-17.87-1.94-19.04-7.77-1.17-5.83.97-5.05,3.69-5.05s7.77,4.08,7.77,4.08c0,0-10.68-16.71-4.47-17.87,6.22-1.17,9.52-.4,15.15,17.87,0,0,6.41,11.65,10.68,16.12,4.27,4.47,14.37,27.39,14.37,27.39,0,0-1.75-45.07-5.63-52.25-3.88-7.19-21.76-23.92-16.9-30.7s18.26,14.39,18.26,14.39c0,0-2.91-22.92,2.91-22.53s7.38,19.43,2.53,32.83c0,0,5.63,75.56,7.19,78.48l15.35-54.78Z"/>
  <path d="M160.71,345.52c4.46-11.27,8.85-22.6,14.31-33.44,5.02-9.97,10.98-19.53,18.52-27.8,4.08-4.48,8.61-8.55,13.59-12.01.16-.11,0-.37-.15-.26-8.88,6.17-16.27,14.25-22.38,23.12-6.71,9.74-11.87,20.44-16.48,31.3-2.67,6.29-5.17,12.65-7.68,19-.07.18.22.26.29.08h0Z"/>
  <path d="M178.35,314.47c2.87-7.03,6.9-13.58,11.89-19.31,1.4-1.61,2.88-3.15,4.43-4.62.14-.13-.07-.35-.21-.21-5.53,5.27-10.18,11.44-13.7,18.22-.99,1.9-1.89,3.86-2.7,5.84-.07.18.22.26.29.08h0Z"/>
  <path d="M73.97,274.13c4.68,2.05,8.12,6.07,11.47,9.79,3.56,3.96,7,8.04,10.3,12.22,6.64,8.42,12.74,17.26,18.24,26.46,3.14,5.25,6.08,10.65,8.01,16.47.06.18.35.1.29-.08-1.71-5.15-4.21-9.98-6.93-14.66-2.72-4.67-5.62-9.25-8.66-13.73-6.05-8.93-12.68-17.47-19.83-25.54-3.7-4.18-7.51-8.91-12.75-11.2-.18-.08-.33.18-.15.26h0Z"/>
  <path d="M91.81,286.31c8.23,8.98,16.55,18.06,22.75,28.61,1.76,2.99,3.33,6.08,4.66,9.28.07.18.36.1.29-.08-4.73-11.34-12.36-21.1-20.43-30.23-2.32-2.63-4.69-5.21-7.06-7.79-.13-.14-.34.07-.21.21h0Z"/>
  <path d="M88.98,295.31c-7.09-8.62-14.58-16.9-22.45-24.8-2.22-2.23-4.47-4.42-6.74-6.59-.14-.13-.35.08-.21.21,8.08,7.69,15.8,15.77,23.11,24.19,2.06,2.37,4.09,4.77,6.08,7.2.12.15.33-.06.21-.21h0Z"/>
  <path d="M111.44,325.94c-5.3-4.97-10.08-10.49-14.19-16.48-1.16-1.68-2.26-3.4-3.32-5.15-.1-.17-.36-.01-.26.15,3.75,6.22,8.16,12.03,13.15,17.3,1.43,1.51,2.9,2.97,4.41,4.39.14.13.35-.08.21-.21h0Z"/>
</svg>