<?xml version="1.0" encoding="UTF-8"?>
<svg id="Layer_1" data-name="Layer 1" xmlns="http://www.w3.org/2000/svg" viewBox="0 0 289.13 430.87">
  <defs>
    <style>
      .cls-1 {
        fill: #bac689;
      }

      .cls-1, .cls-2 {
        stroke: #000;
        stroke-linecap: round;
        stroke-linejoin: round;
        stroke-width: .5px;
      }

      .cls-3, .cls-2 {
        fill: #cebaca;
      }
    </style>
  </defs>
  <path class="cls-1" d="M141.64,406.44c-5.87.48-7.81-5.14-7.81-5.14,0,0-12.4-23.37-29.76-33.89-17.37-10.52-56.57-40.44-56.31-47.45s7.89-4.12,12.1-2.54c4.21,1.58,28.5,16.31,32.93,22.1s30.74,32.63,33.9,39.2c0,0-11.02-36.05-30.24-56.57s-63.69-89.61-61.32-95.19c2.37-5.58,36.57,27.31,40.26,33.1,3.68,5.79,14.11,25.78,18.24,34.73,4.12,8.95,20.44,43.94,20.44,43.94,0,0-22.59-113.21-16.26-115.42l6.05-2.62s1.99,72.33,10.28,90.67c0,0,.22-59.52,13.86-72.45,1.22-1.15,3.24-.52,3.64,1.11,1.8,7.32,4.79,29.44-5.2,79.38,0,0-4.77,47.23,12.56,79.9,0,0,21.06-161.65,13.42-166l11.21,1.95s-3.54,1-4.5,15.56c-.96,14.56-6.93,107.13-9.03,118.44l-3.76,30.64,5.62-6.42c18.41-26.24,15.61-60.61,15.61-60.61-5-43.29-.49-61.83,1.75-67.9.5-1.35,2.39-1.71,3.41-.62,11.33,12.18,6.68,62.76,6.68,62.76,9.03-14.86,16.73-76.15,16.73-76.15l5.28,2.75c5.57,2.43-24.18,96.66-24.18,96.66,0,0,17.67-28.31,22.15-35.56,4.48-7.24,15.58-23.32,19.4-27.92s37.57-29.56,39.27-24.62-44.33,59.78-63.47,75.54c-19.14,15.76-32.09,45.43-32.09,45.43,3.4-5.31,29.49-25.83,33.99-30.36s27.77-14.94,31.72-15.91c3.95-.97,11.12-2.77,10.79,3.21-.33,5.98-38.39,27.98-55.02,35.41-13.31,5.94-24.4,19.15-28.3,24.19-1.97,2.55-4.51,4.64-7.48,5.89-.86.36-1.8.68-2.8.91l-3.77-.15Z"/>
  <path d="M65.23,265.15c6.84,9.38,13.67,18.77,20.51,28.15,1.95,2.68,3.91,5.36,5.86,8.04.11.15.37,0,.26-.15-6.84-9.38-13.67-18.77-20.51-28.15l-5.86-8.04c-.11-.15-.37,0-.26.15h0Z"/>
  <path d="M68.47,278.48c7.64,9.51,15.29,19.01,22.93,28.52,2.18,2.72,4.37,5.43,6.55,8.15.12.15.33-.06.21-.21-7.64-9.51-15.29-19.01-22.93-28.52-2.18-2.72-4.37-5.43-6.55-8.15-.12-.15-.33.06-.21.21h0Z"/>
  <path d="M63.19,255.52c5.72,5.79,10.59,12.42,14.38,19.63,1.07,2.03,2.04,4.1,2.94,6.2.08.18.33.02.26-.15-3.18-7.49-7.46-14.49-12.67-20.74-1.49-1.78-3.06-3.5-4.69-5.16-.14-.14-.35.07-.21.21h0Z"/>
  <path d="M50.33,246.57c4.61,8.01,9.21,16.01,13.82,24.02.1.17.36.02.26-.15-4.61-8.01-9.21-16.01-13.82-24.02-.1-.17-.36-.02-.26.15h0Z"/>
  <path d="M127.59,248.97c-3.31,9.19-6.63,18.49-7.58,28.27-.02.19.28.19.3,0,.94-9.75,4.27-19.03,7.57-28.19.07-.18-.22-.26-.29-.08h0Z"/>
  <path d="M127.7,267.17c-1.35,5.6-2.7,11.2-4.05,16.8s-2.76,10.96-3.75,16.51c-.54,3.01-.92,6.05-1.04,9.11,0,.19.29.19.3,0,.22-5.61,1.34-11.13,2.62-16.58s2.62-10.89,3.93-16.34c.76-3.14,1.51-6.29,2.27-9.43.05-.19-.24-.27-.29-.08h0Z"/>
  <path d="M126.12,294.18c-2.24,9.81-4.49,19.72-4.79,29.82-.09,2.88,0,5.76.28,8.63.02.19.32.19.3,0-.98-10.08.57-20.15,2.64-29.99.59-2.8,1.22-5.59,1.86-8.37.04-.19-.25-.27-.29-.08h0Z"/>
  <path d="M115.82,314.86c.53,9.13,2.12,18.19,4.75,26.94.75,2.49,1.58,4.95,2.48,7.38.07.18.36.1.29-.08-3.19-8.54-5.39-17.44-6.52-26.49-.32-2.58-.56-5.16-.71-7.76-.01-.19-.31-.19-.3,0h0Z"/>
  <path d="M59.43,324.29c7.79,2.46,15.04,6.55,21.17,11.95,1.72,1.52,3.35,3.14,4.88,4.85.13.14.34-.07.21-.21-5.5-6.13-12.29-11.09-19.81-14.46-2.08-.93-4.2-1.74-6.37-2.42-.18-.06-.26.23-.08.29h0Z"/>
  <path d="M71.06,336.43c6.79,5.34,14.05,10.07,21.7,14.11,2.21,1.17,4.45,2.27,6.71,3.32.17.08.33-.18.15-.26-7.79-3.61-15.26-7.91-22.28-12.86-2.06-1.45-4.08-2.96-6.07-4.52-.15-.12-.36.09-.21.21h0Z"/>
  <path d="M97.48,357.99c3.83,2.43,7.59,4.97,11.27,7.63,3.51,2.53,7.08,5.08,10.25,8.03,1.74,1.61,3.31,3.39,4.55,5.42.1.16.36.01.26-.15-2.15-3.54-5.31-6.27-8.54-8.79-3.6-2.8-7.29-5.49-11.05-8.06-2.17-1.48-4.36-2.93-6.58-4.33-.16-.1-.31.16-.15.26h0Z"/>
  <path d="M169.69,275.35c-1.13,7.82-.76,15.81,1.11,23.48.05.19.33.11.29-.08-1.85-7.62-2.23-15.56-1.11-23.32.03-.19-.26-.27-.29-.08h0Z"/>
  <path d="M174.77,288.84c1.3,10.38,1.66,20.86,1.06,31.3-.17,2.94-.41,5.87-.73,8.79-.02.19.28.19.3,0,1.13-10.4,1.32-20.89.54-31.32-.22-2.93-.51-5.86-.88-8.78-.02-.19-.32-.19-.3,0h0Z"/>
  <path d="M170.83,309.93c-.74,10.15-.17,20.38,1.71,30.39.04.19.32.11.29-.08-1.87-9.98-2.44-20.18-1.7-30.31.01-.19-.29-.19-.3,0h0Z"/>
  <path d="M209.28,316.01c6.09-8.49,12.95-16.42,20.49-23.66,2.1-2.02,4.26-3.98,6.46-5.89.15-.13-.07-.34-.21-.21-7.9,6.86-15.17,14.43-21.7,22.61-1.82,2.29-3.59,4.63-5.29,7-.11.16.15.31.26.15h0Z"/>
  <path d="M215,300.54c5.75-7.8,12.82-14.63,20.9-19.98,2.23-1.48,4.54-2.84,6.9-4.08.17-.09.02-.35-.15-.26-8.55,4.49-16.23,10.55-22.67,17.73-1.85,2.06-3.59,4.21-5.24,6.44-.11.16.15.31.26.15h0Z"/>
  <path d="M196.6,328.92c2.5-6.06,5.86-11.75,9.99-16.84,1.16-1.43,2.38-2.82,3.66-4.15.13-.14-.08-.35-.21-.21-4.57,4.79-8.43,10.23-11.43,16.13-.83,1.63-1.59,3.3-2.29,5-.07.18.22.26.29.08h0Z"/>
  <path d="M199.31,358.17c4.54-4.02,9.73-7.29,15.3-9.67,1.63-.7,3.29-1.31,4.98-1.86.18-.06.1-.35-.08-.29-5.87,1.9-11.43,4.72-16.4,8.37-1.39,1.02-2.72,2.1-4.01,3.24-.14.13.07.34.21.21h0Z"/>
  <path d="M210.88,356.32c3.77-3.03,7.92-5.57,12.34-7.54,1.27-.57,2.57-1.09,3.88-1.56.18-.07.1-.36-.08-.29-4.62,1.67-9.01,3.92-13.05,6.72-1.13.78-2.23,1.61-3.3,2.47-.15.12.06.33.21.21h0Z"/>
  <path d="M184.07,371.03c2.66-2.63,6.28-3.94,9.7-5.29,3.79-1.49,7.63-2.87,11.5-4.15.18-.06.1-.35-.08-.29-4,1.32-7.96,2.76-11.88,4.3-3.34,1.32-6.84,2.64-9.45,5.21-.14.14.07.35.21.21h0Z"/>
  <g>
    <g>
      <path class="cls-2" d="M67.82,141.64s-5.89-5.4-1.07-6.81c0,0-13.5-12.22-4.81-15.27s16.91,0,16.91,0c0,0,9.63-5.4,14.1-.23s-.98,12.22-.98,12.22l-6.77,19.03-17.38-8.93Z"/>
      <path class="cls-2" d="M80.97,163.96s-6.18,0-8.14-1.88-11.99-7.94-10.65-13.14c.8-3.11,2.88-4.86,2.79-7.26s-2.11-6.97,2.65-7.59c5.17-.68,12.96,4.22,12.96,4.22,0,0-1.09-4.47,3.44-5.59,7.8-1.91,9.86-.23,10.69,3.52,0,0,9.52-7.99,7.17,7.75s-9.91,11.75-9.91,11.75l-1.28,8.22h-9.72Z"/>
      <path class="cls-2" d="M80.27,193.64s-12.98-6.22-13.52-13.74c-.54-7.51-2.28-12.71,2.54-13.29,4.82-.58,5.94.96,5.94.96,0,0-1.12-5.78,2.73-6.36s4.99,6.97,4.99,6.97c0,0-3.95-10.29,0-10.65s8.7.84,9.02,8.26c0,0,.55-7.78,6.42-6.7s11.73,4.91,10.77,11.37-9.33,12.92-9.33,12.92c0,0,2.87,2.87,1.68,7.06s-11.37,11.73-11.37,11.73l-9.86-8.53Z"/>
      <path class="cls-2" d="M68.91,97.7s-7.93-4.05-4.61-11.66c3.33-7.6,4.09-11.53,6.65-11.04s6.4,7.86,6.14,9.57c0,0,6.91-.49,4.61,13.12l-4.35,7.55-8.44-7.55Z"/>
      <path class="cls-2" d="M75.53,121.22s-17.96-5.46-15.54-15.54c1.24-5.17,6.14-1.27,8.24,1.52,0,0-5.1-6.68-.81-9.21,3.43-2.02,8.11,3.85,8.11,3.85,0,0,.17-5.75,4.19-4.53s4.19,4.71,4.19,4.71c0,0,1.75-3.84,4.19-2.09s5.24,10.82-2.27,17.46c-7.51,6.63-10.3,3.84-10.3,3.84Z"/>
      <path class="cls-2" d="M77.54,203.2s-5.95-1.15-7.31-2.51-3.95,1.97-3.4,4.52,3.97,7.09,9.13,10.19c0,0,1.96,5.42,7.37,7.46,5.41,2.04,15.89,4.22,21.06,0,5.17-4.22,12.93-9.93,11.16-12.52s-2.99-3.17-2.99-3.17c0,0,7.73-10.28,3.25-13.56s-9.37,3.74-11.42,5.06c0,0,5.72-13.03-3.54-12.93-9.25.1-10.75,12.93-10.75,12.93,0,0,2.03-9.82-8.97-7.9-6.51,1.14-4.29,9.07-3.58,12.41Z"/>
      <g>
        <path class="cls-3" d="M96.42,218.54c.69-2.51,2.62-4.53,4.79-5.96s4.63-2.39,6.96-3.54"/>
        <path d="M96.56,218.58c1.11-3.97,4.9-6.22,8.39-7.86,1.1-.52,2.21-1.01,3.3-1.55.17-.08.02-.34-.15-.26-3.71,1.82-7.89,3.28-10.43,6.75-.63.86-1.11,1.82-1.4,2.84-.05.19.24.27.29.08h0Z"/>
      </g>
      <g>
        <path class="cls-3" d="M101.99,201.16c-2.79,1.55-4.34,4.6-5.59,7.53-1.02,2.41-1.95,4.86-2.77,7.34"/>
        <path d="M101.91,201.03c-1.8,1.02-3.11,2.65-4.12,4.42-1.13,2-1.97,4.17-2.8,6.31-.54,1.4-1.04,2.81-1.51,4.23-.06.18.23.26.29.08.8-2.43,1.7-4.82,2.7-7.17.8-1.89,1.68-3.79,2.99-5.39.73-.89,1.59-1.65,2.6-2.22.17-.09.02-.35-.15-.26h0Z"/>
      </g>
      <g>
        <path class="cls-3" d="M80.46,206.34c2.85,3.75,6.73,6.7,11.11,8.44"/>
        <path d="M80.33,206.41c2.25,2.95,5.12,5.41,8.38,7.18.91.5,1.86.94,2.82,1.32.18.07.26-.22.08-.29-3.37-1.35-6.44-3.41-8.97-6-.73-.75-1.41-1.54-2.04-2.37-.12-.15-.38,0-.26.15h0Z"/>
      </g>
      <g>
        <path class="cls-3" d="M96.45,221.91c-4.18-5.04-10.89-7.85-17.41-7.3"/>
        <path d="M96.56,221.8c-3.29-3.94-8.08-6.53-13.16-7.22-1.44-.2-2.9-.24-4.36-.12-.19.02-.19.32,0,.3,5.06-.41,10.2,1.16,14.21,4.27,1.14.88,2.17,1.88,3.09,2.98.12.15.34-.06.21-.21h0Z"/>
      </g>
      <g>
        <path class="cls-3" d="M89.87,200.35c.09,3.56,1.11,7.09,2.92,10.16"/>
        <path d="M89.72,200.35c.1,3.6,1.12,7.14,2.94,10.23.1.17.36.02.26-.15-1.8-3.05-2.81-6.54-2.9-10.08,0-.19-.31-.19-.3,0h0Z"/>
      </g>
      <g>
        <path class="cls-3" d="M70.56,178.67c4.64,2.91,9.71,5.15,14.99,6.61"/>
        <path d="M70.49,178.8c4.66,2.92,9.73,5.15,15.03,6.63.19.05.27-.24.08-.29-5.27-1.47-10.32-3.69-14.95-6.6-.16-.1-.31.16-.15.26h0Z"/>
      </g>
      <g>
        <path class="cls-3" d="M75.83,174.25c2.01,2.96,3.88,6.01,5.61,9.14"/>
        <path d="M75.7,174.32c2.01,2.96,3.88,6.01,5.61,9.14.09.17.35.02.26-.15-1.73-3.13-3.6-6.18-5.61-9.14-.11-.16-.37,0-.26.15h0Z"/>
      </g>
      <g>
        <path class="cls-3" d="M81.19,172.76c4.45,4.73,7.54,10.73,8.81,17.1"/>
        <path d="M81.09,172.86c3.46,3.68,6.09,8.11,7.68,12.91.45,1.35.81,2.73,1.09,4.12.04.19.33.11.29-.08-1-4.99-3.09-9.75-6.1-13.86-.85-1.16-1.77-2.26-2.75-3.31-.13-.14-.34.07-.21.21h0Z"/>
      </g>
      <g>
        <path class="cls-3" d="M90.1,170.65c1.03,4.38,1.42,8.92,1.15,13.42"/>
        <path d="M89.95,170.69c1.03,4.38,1.41,8.89,1.14,13.38-.01.19.29.19.3,0,.27-4.51-.12-9.05-1.15-13.46-.04-.19-.33-.11-.29.08h0Z"/>
      </g>
      <g>
        <path class="cls-3" d="M102.49,170.09c-1.87,1.57-3.75,3.21-5.04,5.29-2.48,4.01-2.52,9.31-5.56,12.91"/>
        <path d="M102.38,169.98c-2.23,1.87-4.4,3.83-5.7,6.48-1.18,2.41-1.72,5.05-2.63,7.55-.55,1.49-1.24,2.94-2.26,4.17-.12.15.09.36.21.21,1.69-2.03,2.48-4.56,3.23-7.05.83-2.74,1.72-5.41,3.61-7.62,1.12-1.31,2.43-2.43,3.75-3.54.15-.12-.07-.34-.21-.21h0Z"/>
      </g>
      <g>
        <path class="cls-3" d="M70.46,146.24c2.28,4.01,6.31,6.66,10.18,9.16"/>
        <path d="M70.33,146.31c1.81,3.15,4.68,5.48,7.64,7.5.86.58,1.73,1.15,2.6,1.71.16.11.31-.15.15-.26-2.99-1.93-6.04-3.91-8.38-6.64-.66-.77-1.24-1.59-1.74-2.46-.1-.17-.36-.02-.26.15h0Z"/>
      </g>
      <g>
        <path class="cls-3" d="M94.9,139.82c-1.64,4.94-4.41,9.49-8.03,13.22"/>
        <path d="M94.76,139.78c-1.28,3.83-3.23,7.43-5.74,10.59-.71.89-1.46,1.75-2.26,2.57-.13.14.08.35.21.21,2.85-2.94,5.17-6.38,6.84-10.12.46-1.04.87-2.1,1.23-3.17.06-.18-.23-.26-.29-.08h0Z"/>
      </g>
      <g>
        <path class="cls-3" d="M73.88,140.54c1.85,1.25,3.73,2.51,5.22,4.18,1.47,1.65,2.52,3.66,3.03,5.8"/>
        <path d="M73.81,140.67c1.45.98,2.91,1.96,4.2,3.15s2.28,2.52,3.02,4.06c.41.86.73,1.76.95,2.68.05.19.33.11.29-.08-.4-1.65-1.1-3.23-2.08-4.63s-2.3-2.62-3.7-3.67c-.82-.62-1.68-1.2-2.54-1.77-.16-.11-.31.15-.15.26h0Z"/>
      </g>
      <g>
        <path class="cls-3" d="M69.93,154.64c3.03,2.85,7.09,4.58,11.24,4.78"/>
        <path d="M69.82,154.75c2.39,2.24,5.4,3.8,8.61,4.47.9.19,1.82.31,2.74.35.19,0,.19-.29,0-.3-3.19-.16-6.31-1.22-8.96-3.01-.77-.52-1.49-1.1-2.17-1.73-.14-.13-.35.08-.21.21h0Z"/>
      </g>
      <g>
        <path class="cls-3" d="M98.14,143.3c-.83,2.92-2.49,5.59-4.74,7.63"/>
        <path d="M98,143.26c-.65,2.26-1.79,4.37-3.32,6.15-.43.5-.89.97-1.38,1.41-.14.13.07.34.21.21,1.77-1.61,3.18-3.6,4.11-5.8.26-.62.49-1.25.67-1.9.05-.19-.24-.27-.29-.08h0Z"/>
      </g>
      <g>
        <path class="cls-3" d="M66.89,128.02c3.33,1.74,6.23,4.27,8.36,7.31"/>
        <path d="M66.81,128.15c2.56,1.34,4.86,3.14,6.77,5.31.54.62,1.05,1.27,1.53,1.94.11.16.37,0,.26-.15-1.69-2.4-3.82-4.46-6.26-6.09-.69-.46-1.41-.89-2.15-1.28-.17-.09-.32.17-.15.26h0Z"/>
      </g>
      <g>
        <path class="cls-3" d="M72.38,124.82c2.16,3.85,6.38,6.38,7.95,10.51"/>
        <path d="M72.25,124.9c1.71,3.02,4.55,5.13,6.54,7.93.56.79,1.04,1.63,1.39,2.54.07.18.36.1.29-.08-1.25-3.26-4.05-5.5-6.24-8.11-.64-.76-1.23-1.56-1.72-2.43-.1-.17-.35-.02-.26.15h0Z"/>
      </g>
      <g>
        <path class="cls-3" d="M80.01,125.4c.51.66,1.2,1.18,1.72,1.83,1.12,1.4,1.4,3.27,1.64,5.05"/>
        <path d="M79.91,125.51c.65.83,1.52,1.44,2.08,2.35.52.85.79,1.82.98,2.79.11.56.19,1.12.26,1.68.03.19.31.11.29-.08-.14-1.02-.28-2.04-.59-3.02s-.81-1.85-1.52-2.59c-.43-.44-.9-.85-1.28-1.34-.12-.15-.33.06-.21.21h0Z"/>
      </g>
      <g>
        <path class="cls-3" d="M89.01,120.49c-1.68,3.57-2.45,7.56-2.22,11.49"/>
        <path d="M88.88,120.42c-1.69,3.6-2.47,7.6-2.24,11.57.01.19.31.19.3,0-.23-3.92.53-7.86,2.2-11.42.08-.17-.18-.33-.26-.15h0Z"/>
      </g>
      <g>
        <path class="cls-3" d="M65.02,109.38c2.6,3.04,5.89,5.5,9.54,7.13"/>
        <path d="M64.92,109.49c2.03,2.37,4.47,4.39,7.18,5.94.78.44,1.57.85,2.39,1.21.17.08.33-.18.15-.26-2.84-1.27-5.45-3.03-7.7-5.19-.64-.61-1.24-1.25-1.81-1.92-.13-.15-.34.07-.21.21h0Z"/>
      </g>
      <g>
        <path class="cls-3" d="M72.08,106.28c1.89,2.35,3.51,4.93,4.79,7.66"/>
        <path d="M71.97,106.39c1.46,1.82,2.76,3.78,3.87,5.84.32.59.62,1.19.9,1.79.08.17.34.02.26-.15-1.01-2.14-2.21-4.18-3.6-6.1-.39-.54-.8-1.07-1.22-1.6-.12-.15-.33.06-.21.21h0Z"/>
      </g>
      <g>
        <path class="cls-3" d="M81.14,105.93c-.81,4.02-.83,8.36-2.94,11.88"/>
        <path d="M81,105.89c-.79,3.97-.81,8.27-2.93,11.84-.1.17.16.32.26.15,2.13-3.6,2.16-7.92,2.96-11.92.04-.19-.25-.27-.29-.08h0Z"/>
      </g>
      <g>
        <path class="cls-3" d="M85.99,105.74c.02,1.58-.25,3.16-.81,4.63-.62,1.63-1.58,3.14-1.91,4.84"/>
        <path d="M85.84,105.74c.02,1.71-.31,3.4-.96,4.98-.61,1.48-1.44,2.87-1.76,4.46-.04.19.25.27.29.08.32-1.61,1.17-3.03,1.79-4.54s.96-3.27.94-4.98c0-.19-.3-.19-.3,0h0Z"/>
      </g>
      <g>
        <path class="cls-3" d="M67.42,90.59c1.02,2.39,2.9,4.4,5.21,5.58"/>
        <path d="M67.29,90.67c.81,1.88,2.13,3.52,3.79,4.72.47.34.96.65,1.48.91.17.09.32-.17.15-.26-1.79-.92-3.31-2.32-4.37-4.03-.3-.48-.56-.98-.79-1.5-.08-.18-.33-.02-.26.15h0Z"/>
      </g>
      <g>
        <path class="cls-3" d="M71.44,82.65c.33,3.84,1.43,7.62,3.22,11.03"/>
        <path d="M71.29,82.65c.34,3.88,1.44,7.66,3.25,11.11.09.17.35.02.26-.15-1.78-3.4-2.87-7.14-3.2-10.96-.02-.19-.32-.19-.3,0h0Z"/>
      </g>
      <g>
        <path class="cls-3" d="M78.34,90.17c.21,2.37.39,4.88-.97,6.98"/>
        <path d="M78.19,90.17c.21,2.34.37,4.84-.95,6.9-.1.16.16.31.26.15,1.35-2.11,1.2-4.66.99-7.05-.02-.19-.32-.19-.3,0h0Z"/>
      </g>
    </g>
    <g>
      <path class="cls-2" d="M158.93,201.36s1.76-7.92,7.25-7.72c5.49.2,6.27,7.72,6.27,7.72l-10,8.35-3.53-8.35Z"/>
      <path class="cls-2" d="M154.31,68.02s1.01-14.01,3.11-14.25,8.99,1.99,9.23,8.36-5.22,12.83-5.22,12.83l-7.12-6.94Z"/>
      <path class="cls-2" d="M148.26,103.7s-7.5-12.91-9.91-16.51-2.7-10.96.6-11.11,6.9,2.55,6.9,2.55c0,0-.15-3.15.15-4.35,0,0-6.9-12.76.45-13.06,0,0,3.66-1.78,5.91,2.22,0,0,5.16-1.76,6.91,4.17,0,0,3.03-6.57,5.91-7.69s3.53,2.2,3.53,2.2c0,0,5.61-1.24,4.65,4.37-.96,5.61-3.04,6.36-2.24,8.47s.16,5.91-1.44,6.74c0,0,8.01-1.42,8.17,4.19.16,5.61-1.76,7.77-6.09,11.26,0,0,3.85-.68,3.69,2.05s-4.01,3.37-4.01,3.37c0,0,.96.48-.32,4.97l-8.97,7.37-12.18-6.41-1.7-4.78Z"/>
      <path class="cls-2" d="M155.27,198.28v-11.26s-7.59,3.09-16.41-7.27-10.04-14.03-6.86-15.74,13.47,1.47,13.47,1.47c0,0,0-1.44,1.47-2.56,0,0-13.96-11.99-5.14-22.35,0,0,5.88-3.09,10.53,4.54,0,0-.98-8.29,7.59-6.57,8.57,1.71,9.55,4.16,7.84,10.28,0,0,5.88-10.55,10.53-2.95,4.65,7.6,0,10.78,0,10.78,0,0,.49,2.58-.49,4.47s2.56,3.12,2.56,3.12c0,0,8.95,1.22,6.75,6.37-2.2,5.14-10.24,18.36-21.4,14.2,0,0-3.31,2.62-2.84,6.08s1.47,7.38,1.47,7.38l1.37,11.44-11.16-2.87.73-8.57Z"/>
      <path class="cls-2" d="M157.95,61.93c-4.16.2-8.69-8.77-9.66-14.2-.8-4.44.85-10.06,4.83-9.46,0,0-3.13-11.83,3.7-11.24,6.82.59,3.98,12.13,3.98,12.13,0,0,13.08,3.25,8.81,11.53-4.26,8.28-11.65,11.24-11.65,11.24Z"/>
      <path class="cls-2" d="M150.66,235.25s-12.13-2.07-17.15-19.82c0,0,.89-5.62,10.65,4.44,0,0-20.11-16.27-6.21-27.21,0,0,11.24-4.44,15.08,10.35,0,0-1.73-9.5,3.41-7.69s7.46,9.01,7.46,9.01c0,0,5.15-8.24,7.21-8.49s7.46-6.19,6.95,5.53c0,0,21.88-8.1,3.6,14.03,0,0,12.87,1.88-18.02,19.86,0,0-5.27,4.07-12.99,0Z"/>
      <path class="cls-2" d="M154.78,145.11s-3.67-6.52-6.61-8.02c-2.94-1.49-14.69-9-16.16-15.29s9.55-7.51,11.39-8.24c0,0,.86-12.98,7.47-14.2s8.07,9.06,8.07,9.06c0,0,0-13.25,4.91-11.28s1.86,12.33,1.86,12.33c0,0,4.12-6.91,6.76-4.23,2.64,2.68,1.17,10.03,1.17,10.03l2.94,2.06s5.63-3.81,6.37,0-11.26,14.64-14.2,19.75c0,0-.27,9.16-4.26,11.34s-9.7-3.32-9.7-3.32Z"/>
      <g>
        <path class="cls-3" d="M166.7,96.1c1.24-3.16,3.06-6.14,5.37-8.81"/>
        <path d="M166.84,96.14c.97-2.46,2.28-4.78,3.86-6.9.47-.63.96-1.24,1.47-1.84.13-.15-.09-.36-.21-.21-1.78,2.07-3.31,4.35-4.5,6.81-.33.68-.63,1.36-.9,2.06-.07.18.22.26.29.08h0Z"/>
      </g>
      <g>
        <path class="cls-3" d="M144.15,86.52c3.24,2.33,6.11,5.16,8.5,8.36.22.29.44.61.42.97"/>
        <path d="M144.08,86.65c2.7,1.94,5.14,4.23,7.26,6.8.31.38.62.76.91,1.15.28.36.67.77.67,1.25,0,.19.3.19.3,0,0-.4-.21-.73-.44-1.05-.25-.34-.51-.67-.77-1-.55-.69-1.12-1.36-1.71-2.01-1.17-1.28-2.43-2.49-3.76-3.6-.75-.63-1.52-1.23-2.31-1.8-.16-.11-.31.15-.15.26h0Z"/>
      </g>
      <g>
        <path class="cls-3" d="M147.57,79.97c5.1,4.27,8.63,10.37,9.8,16.91"/>
        <path d="M147.46,80.08c3.96,3.33,6.97,7.73,8.66,12.61.48,1.38.84,2.8,1.1,4.23.03.19.32.11.29-.08-.92-5.12-3.26-9.94-6.67-13.87-.97-1.12-2.03-2.16-3.17-3.11-.15-.12-.36.09-.21.21h0Z"/>
      </g>
      <g>
        <path class="cls-3" d="M150.97,75.3c3.75,4.65,6.94,9.75,9.47,15.15"/>
        <path d="M150.86,75.4c2.91,3.61,5.48,7.49,7.67,11.58.62,1.17,1.22,2.35,1.78,3.54.08.17.34.02.26-.15-1.99-4.23-4.37-8.27-7.11-12.06-.77-1.06-1.57-2.11-2.39-3.13-.12-.15-.33.06-.21.21h0Z"/>
      </g>
      <g>
        <path class="cls-3" d="M151.19,69.82c2.82,3.67,5.34,7.56,7.53,11.62"/>
        <path d="M151.06,69.89c2.81,3.67,5.33,7.56,7.53,11.62.09.17.35.02.26-.15-2.2-4.07-4.72-7.96-7.53-11.62-.12-.15-.38,0-.26.15h0Z"/>
      </g>
      <g>
        <path class="cls-3" d="M153.02,129.44c.23-2.46.45-5.02-.39-7.35-.72-1.99-2.16-3.66-3.83-4.96s-3.56-2.28-5.45-3.26"/>
        <path d="M153.17,129.44c.25-2.67.48-5.48-.64-8-1.01-2.28-2.92-4.03-4.97-5.38-1.32-.87-2.73-1.59-4.13-2.31-.17-.09-.32.17-.15.26,2.31,1.19,4.66,2.4,6.55,4.21.86.82,1.61,1.76,2.17,2.82.63,1.19.94,2.49,1.04,3.83.11,1.53-.03,3.06-.17,4.58-.02.19.28.19.3,0h0Z"/>
      </g>
      <g>
        <path class="cls-3" d="M141.33,121.37c1.02,1.88,2.67,3.32,4.28,4.73,1.49,1.3,2.99,2.61,4.48,3.91"/>
        <path d="M141.2,121.45c.72,1.31,1.74,2.42,2.82,3.44,1.21,1.13,2.47,2.19,3.72,3.28.75.65,1.49,1.3,2.24,1.96.14.13.36-.08.21-.21-1.31-1.14-2.61-2.28-3.92-3.42-1.14-1-2.31-1.98-3.32-3.11-.57-.64-1.08-1.32-1.49-2.07-.09-.17-.35-.02-.26.15h0Z"/>
      </g>
      <g>
        <path class="cls-3" d="M139.55,125.79c4.02,3.59,8.42,6.75,13.1,9.41"/>
        <path d="M139.44,125.89c3.13,2.79,6.48,5.33,10.02,7.57,1.02.65,2.06,1.27,3.11,1.87.17.1.32-.16.15-.26-3.64-2.07-7.1-4.44-10.35-7.08-.92-.75-1.83-1.52-2.71-2.31-.14-.13-.36.08-.21.21h0Z"/>
      </g>
      <g>
        <path class="cls-3" d="M163.77,106.5c.46,1.93-1.03,3.71-2.06,5.4-2.21,3.61-2.54,8.31-.86,12.19"/>
        <path d="M163.63,106.54c.28,1.31-.32,2.53-.99,3.62s-1.38,2.08-1.88,3.24c-.94,2.16-1.3,4.57-1.05,6.91.14,1.33.48,2.62,1.01,3.85.08.18.33.02.26-.15-.98-2.31-1.27-4.89-.87-7.36.2-1.23.57-2.43,1.11-3.56s1.25-2.06,1.86-3.1,1.1-2.27.83-3.54c-.04-.19-.33-.11-.29.08h0Z"/>
      </g>
      <g>
        <path class="cls-3" d="M155.46,130.11c-.16-1.8,1.23-3.37,2.74-4.36s3.25-1.66,4.53-2.93c1.75-1.74,2.36-4.31,3.8-6.32,1.27-1.77,3.2-3.06,5.32-3.55"/>
        <path d="M155.61,130.11c-.11-1.68,1.05-3.07,2.35-4.01s2.91-1.57,4.22-2.59c2.53-1.97,3-5.37,5.09-7.68,1.23-1.36,2.85-2.31,4.62-2.74.19-.05.11-.33-.08-.29-1.54.37-2.97,1.13-4.15,2.2s-1.99,2.54-2.71,4.02-1.48,3.04-2.79,4.13-3.05,1.73-4.46,2.77c-1.33.99-2.51,2.44-2.39,4.19.01.19.31.19.3,0h0Z"/>
      </g>
      <g>
        <path class="cls-3" d="M147.62,111c2.16.55,4.1,1.79,5.66,3.37s2.75,3.51,3.67,5.53"/>
        <path d="M147.58,111.15c3.36.86,6.03,3.32,7.84,6.21.53.84.99,1.72,1.4,2.62.08.18.34.02.26-.15-1.46-3.2-3.63-6.18-6.76-7.91-.84-.46-1.73-.82-2.66-1.06-.19-.05-.27.24-.08.29h0Z"/>
      </g>
      <g>
        <path class="cls-3" d="M154.05,106.19c1.43,3.4,1.6,7.18,1.74,10.87"/>
        <path d="M153.9,106.23c1.43,3.43,1.59,7.17,1.74,10.83,0,.19.31.19.3,0-.15-3.68-.31-7.47-1.75-10.91-.07-.18-.36-.1-.29.08h0Z"/>
      </g>
      <g>
        <path class="cls-3" d="M159.88,132.63c.43-1.36,1.59-2.38,2.83-3.08s2.62-1.15,3.89-1.8c2.74-1.4,4.98-3.75,6.24-6.55"/>
        <path d="M160.03,132.67c.81-2.43,3.45-3.36,5.57-4.28s3.96-2.22,5.42-3.99c.79-.95,1.44-1.99,1.95-3.11.08-.17-.18-.33-.26-.15-.96,2.1-2.44,3.95-4.3,5.32-.95.71-1.99,1.25-3.08,1.72-1.15.5-2.34.95-3.38,1.67s-1.83,1.59-2.22,2.75c-.06.18.23.26.29.08h0Z"/>
      </g>
      <g>
        <path class="cls-3" d="M160.75,145.03c-.22-2.6.4-5.27,1.74-7.51s3.39-4.05,5.78-5.1"/>
        <path d="M160.9,145.03c-.32-4.12,1.42-8.19,4.64-10.78.85-.69,1.8-1.25,2.8-1.69.18-.08.02-.34-.15-.26-3.74,1.66-6.52,5.07-7.36,9.08-.25,1.2-.33,2.44-.23,3.66.02.19.32.19.3,0h0Z"/>
      </g>
      <g>
        <path class="cls-3" d="M138.18,170.82c6.06,2.96,12.31,6.24,16.2,11.75"/>
        <path d="M138.1,170.95c4.66,2.28,9.41,4.7,13.2,8.31,1.08,1.03,2.08,2.16,2.94,3.38.11.16.37,0,.26-.15-3.06-4.31-7.54-7.27-12.15-9.73-1.35-.72-2.73-1.4-4.1-2.08-.17-.08-.33.17-.15.26h0Z"/>
      </g>
      <g>
        <path class="cls-3" d="M147.97,167.08c3.59,1.12,6.31,4.18,7.9,7.58s2.19,7.17,2.76,10.89"/>
        <path d="M147.93,167.22c5.66,1.82,8.41,7.66,9.61,13.05.39,1.76.67,3.54.94,5.31.03.19.32.11.29-.08-.89-5.9-2.06-12.41-6.92-16.44-1.14-.95-2.43-1.68-3.84-2.13-.18-.06-.26.23-.08.29h0Z"/>
      </g>
      <g>
        <path class="cls-3" d="M162.79,183.06c.99-2.43,2.87-4.37,4.71-6.24,3.47-3.54,7.12-7.19,11.79-8.86"/>
        <path d="M162.94,183.1c1.16-2.78,3.42-4.91,5.5-7.01s4.12-4.08,6.52-5.71c1.37-.93,2.83-1.71,4.38-2.27.18-.07.1-.36-.08-.29-2.77,1-5.21,2.69-7.42,4.61-1.13.99-2.21,2.04-3.28,3.11s-2.19,2.18-3.2,3.34c-1.1,1.25-2.07,2.61-2.71,4.15-.07.18.22.26.29.08h0Z"/>
      </g>
      <g>
        <path class="cls-3" d="M169.04,181.17c4.07-2.33,7.82-5.22,11.11-8.57"/>
        <path d="M169.12,181.3c3.17-1.82,6.15-3.97,8.87-6.41.78-.7,1.54-1.43,2.28-2.18.14-.14-.08-.35-.21-.21-2.56,2.6-5.39,4.92-8.44,6.92-.86.57-1.75,1.11-2.64,1.62-.17.1-.02.36.15.26h0Z"/>
      </g>
      <g>
        <path class="cls-3" d="M162.38,176.4c.58-3.14,1.84-6.2,3.91-8.63s5-4.2,8.17-4.57"/>
        <path d="M162.52,176.44c.91-4.86,3.5-9.56,8.02-11.88,1.22-.63,2.55-1.05,3.91-1.21.19-.02.19-.32,0-.3-5.09.62-9.04,4.45-10.96,9.04-.58,1.37-.99,2.81-1.26,4.28-.04.19.25.27.29.08h0Z"/>
      </g>
      <g>
        <path class="cls-3" d="M143.96,149.85c.51,1.5,1.64,2.69,2.77,3.79,2.07,2,4.29,3.84,6.63,5.52"/>
        <path d="M143.82,149.89c.55,1.57,1.7,2.79,2.87,3.91,1.32,1.27,2.7,2.48,4.13,3.62.81.64,1.63,1.26,2.46,1.86.16.11.31-.15.15-.26-1.45-1.04-2.86-2.15-4.22-3.32-1.28-1.1-2.58-2.24-3.68-3.52-.61-.71-1.13-1.49-1.44-2.37-.06-.18-.35-.1-.29.08h0Z"/>
      </g>
      <g>
        <path class="cls-3" d="M148.77,161.88c3.24.62,6.13,2.87,7.54,5.85"/>
        <path d="M148.73,162.03c2.51.49,4.8,1.93,6.35,3.96.43.57.8,1.18,1.11,1.82.08.17.34.02.26-.15-1.12-2.36-3.13-4.26-5.53-5.28-.68-.29-1.38-.51-2.1-.65-.19-.04-.27.25-.08.29h0Z"/>
      </g>
      <g>
        <path class="cls-3" d="M153.42,150.12c2.23,4.09,3.48,8.72,3.59,13.39"/>
        <path d="M153.29,150.19c2.22,4.08,3.45,8.67,3.57,13.31,0,.19.31.19.3,0-.13-4.7-1.37-9.33-3.61-13.46-.09-.17-.35-.02-.26.15h0Z"/>
      </g>
      <g>
        <path class="cls-3" d="M160.84,167.43c.37-2.49.74-5,1.51-7.4.77-2.4,1.98-4.71,3.8-6.45"/>
        <path d="M160.98,167.47c.72-4.87,1.55-10.2,5.27-13.78.14-.13-.07-.35-.21-.21-3.76,3.62-4.63,8.98-5.35,13.91-.03.19.26.27.29.08h0Z"/>
      </g>
      <g>
        <path class="cls-3" d="M164.08,163.74c1.09-1.46,2.65-2.51,4.2-3.47,1.57-.97,3.3-1.91,5.14-1.74"/>
        <path d="M164.21,163.82c.84-1.11,1.95-1.98,3.11-2.75s2.38-1.56,3.71-2.03c.77-.28,1.58-.42,2.4-.35.19.02.19-.28,0-.3-1.48-.13-2.9.44-4.17,1.15s-2.51,1.49-3.63,2.4c-.62.51-1.19,1.08-1.67,1.73-.12.15.14.3.26.15h0Z"/>
      </g>
      <g>
        <path class="cls-3" d="M159.14,229.84c1.36-2.67,3.72-4.67,6.02-6.59,1.32-1.1,2.65-2.2,3.97-3.31,2.36-1.97,4.96-4.03,8.03-4.15"/>
        <path d="M159.27,229.92c1.34-2.59,3.56-4.53,5.77-6.37,1.31-1.09,2.62-2.18,3.93-3.27,1.14-.95,2.29-1.91,3.55-2.7,1.41-.89,2.97-1.55,4.65-1.63.19,0,.19-.31,0-.3-2.96.15-5.41,1.95-7.62,3.76-1.34,1.1-2.67,2.22-4.01,3.34-1.2,1-2.41,1.99-3.53,3.09-1.18,1.16-2.24,2.45-3,3.93-.09.17.17.32.26.15h0Z"/>
      </g>
      <g>
        <path class="cls-3" d="M162.79,231.71c2.1-1.18,4.22-2.37,6.06-3.93.98-.83,1.86-1.75,2.75-2.67,1.42-1.47,2.84-2.95,4.26-4.42"/>
        <path d="M162.86,231.84c1.86-1.04,3.72-2.09,5.4-3.39,1.8-1.39,3.32-3.1,4.89-4.73.94-.97,1.87-1.95,2.81-2.92.13-.14-.08-.35-.21-.21-1.62,1.68-3.23,3.37-4.86,5.05-.76.78-1.54,1.55-2.38,2.24s-1.75,1.31-2.68,1.89c-1.02.64-2.08,1.23-3.13,1.82-.17.09-.02.35.15.26h0Z"/>
      </g>
      <g>
        <path class="cls-3" d="M182.15,205.5c-2.55,4.15-6.08,7.69-10.22,10.25"/>
        <path d="M182.02,205.42c-1.98,3.21-4.54,6.06-7.53,8.37-.85.65-1.73,1.26-2.64,1.82-.16.1-.01.36.15.26,3.24-2.01,6.1-4.59,8.42-7.61.66-.86,1.28-1.76,1.85-2.69.1-.16-.16-.32-.26-.15h0Z"/>
      </g>
      <g>
        <path class="cls-3" d="M158.27,225.7c.97-3.55,3.16-6.66,5.78-9.24s5.66-4.68,8.69-6.76"/>
        <path d="M158.41,225.74c1.54-5.55,5.83-9.69,10.31-13.02,1.34-.99,2.71-1.94,4.09-2.88.16-.11,0-.37-.15-.26-4.78,3.29-9.75,6.74-12.74,11.86-.77,1.33-1.39,2.74-1.8,4.23-.05.19.24.27.29.08h0Z"/>
      </g>
      <g>
        <path class="cls-3" d="M141.02,202.51c2.79,3.08,4.94,6.73,6.27,10.66.81,2.38,1.35,4.92,2.82,6.96"/>
        <path d="M140.91,202.62c1.75,1.94,3.25,4.1,4.46,6.42.6,1.17,1.13,2.37,1.58,3.6s.78,2.45,1.19,3.67c.46,1.37,1.01,2.7,1.84,3.89.11.16.37,0,.26-.15-1.55-2.19-2.06-4.86-2.95-7.34s-2.05-4.77-3.5-6.91c-.81-1.19-1.7-2.32-2.66-3.39-.13-.14-.34.07-.21.21h0Z"/>
      </g>
      <g>
        <path class="cls-3" d="M142.44,222.3c.97,1.5,2.15,2.87,3.48,4.06,1.5,1.34,3.2,2.45,4.89,3.55.87.57,1.74,1.14,2.62,1.71"/>
        <path d="M142.31,222.38c1,1.54,2.21,2.94,3.58,4.15s2.98,2.29,4.55,3.31c.97.63,1.94,1.27,2.91,1.9.16.11.31-.15.15-.26-3.14-2.05-6.49-3.96-9.03-6.78-.7-.78-1.33-1.61-1.91-2.48-.11-.16-.37-.01-.26.15h0Z"/>
      </g>
      <g>
        <path class="cls-3" d="M150.58,205.07c2.33,2.73,3.02,6.46,3.36,10.03.28,2.93.38,5.88.3,8.83"/>
        <path d="M150.47,205.18c1.98,2.36,2.76,5.42,3.15,8.41.45,3.42.56,6.9.47,10.34,0,.19.3.19.3,0,.09-3.56-.03-7.16-.52-10.69-.41-2.96-1.23-5.95-3.19-8.28-.12-.15-.34.07-.21.21h0Z"/>
      </g>
      <g>
        <path class="cls-3" d="M158.55,202.82c.6,5.46.33,11.01-.79,16.38"/>
        <path d="M158.4,202.82c.59,5.45.33,10.97-.79,16.34-.04.19.25.27.29.08,1.12-5.39,1.39-10.94.8-16.42-.02-.19-.32-.19-.3,0h0Z"/>
      </g>
      <g>
        <path class="cls-3" d="M173.73,199.9c-4.58,3.77-8.47,8.37-11.41,13.52"/>
        <path d="M173.62,199.79c-3.57,2.94-6.72,6.39-9.33,10.2-.74,1.09-1.44,2.21-2.1,3.35-.1.17.16.32.26.15,2.3-4.01,5.15-7.69,8.48-10.9.93-.9,1.9-1.77,2.91-2.59.15-.12-.06-.33-.21-.21h0Z"/>
      </g>
      <g>
        <path class="cls-3" d="M166.84,76.06c-1.03,1.02-2.04,2.14-2.49,3.52-.67,2.03-.06,4.36-.92,6.32"/>
        <path d="M166.73,75.96c-.96.95-1.89,1.97-2.4,3.24s-.47,2.77-.55,4.17c-.05.84-.15,1.68-.49,2.46-.08.18.18.33.26.15.72-1.68.43-3.53.69-5.29.13-.9.45-1.73.95-2.49s1.11-1.4,1.75-2.03c.14-.14-.07-.35-.21-.21h0Z"/>
      </g>
      <g>
        <path class="cls-3" d="M153.27,42.29c-.25,1.2-.08,2.45.27,3.62s.89,2.28,1.4,3.39c.31.67.6,1.35.89,2.03"/>
        <path d="M153.12,42.25c-.31,1.57.03,3.16.59,4.63s1.34,3.01,1.99,4.53c.08.18.33.02.26-.15-.62-1.47-1.35-2.89-1.93-4.38s-.93-3.01-.62-4.55c.04-.19-.25-.27-.29-.08h0Z"/>
      </g>
      <g>
        <path class="cls-3" d="M160.66,42.88c-1.52,1.95-1.86,4.75-.86,7.01"/>
        <path d="M160.56,42.77c-1.22,1.57-1.7,3.63-1.37,5.58.09.56.26,1.09.49,1.61.08.18.34.02.26-.15-.75-1.71-.73-3.74.02-5.45.21-.49.49-.96.82-1.38.12-.15-.09-.36-.21-.21h0Z"/>
      </g>
      <g>
        <path class="cls-3" d="M164.48,46.91c-.06,3.86-1.71,7.67-4.47,10.36"/>
        <path d="M164.33,46.91c-.05,2.97-1.04,5.9-2.76,8.31-.5.7-1.06,1.34-1.67,1.94-.14.14.07.35.21.21,2.18-2.13,3.68-4.93,4.25-7.93.16-.84.25-1.69.26-2.54,0-.19-.3-.19-.3,0h0Z"/>
      </g>
    </g>
    <g>
      <path class="cls-2" d="M235.33,186.92s5.79-4.08,1.52-5.7c0,0,13.26-9.2,5.61-12.56s-15.37-1.47-15.37-1.47c0,0-8.31-5.43-12.79-1.43-4.48,4-.11,10.47-.11,10.47l4.6,16.76,16.52-6.07Z"/>
      <path class="cls-2" d="M221.56,204.74s5.61.54,7.55-.89,11.54-5.7,10.75-10.24c-.47-2.71-2.22-4.38-1.94-6.42s2.48-5.74-1.79-6.68c-4.64-1.03-12.12,2.46-12.12,2.46,0,0,1.36-3.7-2.67-5.05-6.93-2.31-8.94-1.06-9.99,2.06,0,0-8-7.62-7.14,5.96.85,13.58,8.04,10.84,8.04,10.84l.49,7.1,8.83.85Z"/>
      <path class="cls-2" d="M219.78,230.02s12.3-4.16,13.4-10.49,3.1-10.61-1.22-11.52-5.47.3-5.47.3c0,0,1.49-4.81-1.96-5.64s-5.1,5.48-5.1,5.48c0,0,4.43-8.4.87-9.05s-7.97-.05-8.87,6.23c0,0,.13-6.66-5.28-6.25-5.41.4-11.05,3.15-10.71,8.72.34,5.57,7.43,11.8,7.43,11.8,0,0-2.84,2.19-2.1,5.85.75,3.66,9.37,10.96,9.37,10.96l9.66-6.39Z"/>
      <path class="cls-2" d="M237.92,149.48s7.54-2.75,5.13-9.5c-2.4-6.75-2.78-10.15-5.14-9.96s-6.45,6.12-6.36,7.6c0,0-6.24-1.02-5.25,10.75l3.34,6.8,8.29-5.68Z"/>
      <path class="cls-2" d="M229.99,168.9s16.76-3.08,15.38-11.85c-.71-4.5-5.48-1.62-7.61.57,0,0,5.18-5.23,1.48-7.75-2.95-2.02-7.68,2.56-7.68,2.56,0,0,.31-4.9-3.44-4.22s-4.19,3.64-4.19,3.64c0,0-1.27-3.42-3.64-2.15-2.36,1.27-5.64,8.74.64,15.03,6.28,6.29,9.04,4.16,9.04,4.16Z"/>
      <path class="cls-2" d="M221.48,238.38s5.5-.46,6.85-1.5,3.42,2.02,2.72,4.14-4.18,5.67-9.12,7.87c0,0-2.22,4.44-7.3,5.7-5.08,1.26-14.78,2.2-19.13-1.84s-10.93-9.57-9.12-11.61,2.98-2.44,2.98-2.44c0,0-6.18-9.41-1.85-11.8,4.33-2.39,8.21,3.99,9.96,5.3,0,0-4.13-11.57,4.27-10.68s8.71,11.92,8.71,11.92c0,0-1.04-8.52,8.8-5.93,5.82,1.53,3.16,8.08,2.24,10.86Z"/>
      <g>
        <path class="cls-3" d="M203.08,249.77c-.42-2.2-2.01-4.07-3.87-5.48-1.86-1.41-4.01-2.43-6.04-3.61"/>
        <path d="M203.23,249.73c-.71-3.61-4.06-5.87-7.05-7.56-.97-.55-1.96-1.07-2.93-1.63-.17-.1-.32.16-.15.26,3.11,1.81,6.73,3.33,8.77,6.45.51.78.89,1.64,1.07,2.55.04.19.33.11.29-.08h0Z"/>
      </g>
      <g>
        <path class="cls-3" d="M199.44,234.52c2.41,1.56,3.57,4.29,4.46,6.89.73,2.13,1.37,4.3,1.92,6.48"/>
        <path d="M199.37,234.65c1.51.99,2.55,2.47,3.32,4.08.85,1.77,1.43,3.68,1.99,5.56.36,1.2.69,2.41,1,3.63.05.19.34.11.29-.08-.56-2.23-1.21-4.45-1.96-6.62-.58-1.68-1.26-3.36-2.33-4.79-.6-.8-1.32-1.5-2.15-2.05-.16-.11-.31.15-.15.26h0Z"/>
      </g>
      <g>
        <path class="cls-3" d="M218.58,240.79c-2.89,2.93-6.66,5.1-10.78,6.2"/>
        <path d="M218.47,240.68c-2.28,2.3-5.04,4.1-8.05,5.29-.87.34-1.76.63-2.66.88-.19.05-.11.34.08.29,3.18-.86,6.19-2.34,8.78-4.39.73-.57,1.41-1.19,2.06-1.85.14-.14-.08-.35-.21-.21h0Z"/>
      </g>
      <g>
        <path class="cls-3" d="M202.78,252.63c4.21-3.91,10.53-5.72,16.41-4.68"/>
        <path d="M202.88,252.73c3.33-3.08,7.83-4.77,12.34-4.92,1.31-.04,2.63.05,3.92.27.19.03.27-.26.08-.29-4.6-.79-9.46.07-13.49,2.44-1.1.65-2.13,1.42-3.07,2.28-.14.13.07.34.21.21h0Z"/>
      </g>
      <g>
        <path class="cls-3" d="M210.51,234.89c-.37,3.02-1.58,5.93-3.48,8.38"/>
        <path d="M210.36,234.89c-.38,3-1.59,5.88-3.44,8.27-.12.15.09.36.21.21,1.48-1.92,2.58-4.13,3.16-6.48.16-.66.28-1.33.37-2,.02-.19-.28-.19-.3,0h0Z"/>
      </g>
      <g>
        <path class="cls-3" d="M229.82,218.15c-4.45,2.07-9.24,3.53-14.16,4.31"/>
        <path d="M229.74,218.02c-4.48,2.08-9.24,3.51-14.12,4.3-.19.03-.11.32.08.29,4.9-.79,9.69-2.24,14.19-4.33.17-.08.02-.34-.15-.26h0Z"/>
      </g>
      <g>
        <path class="cls-3" d="M225.4,213.93c-2.07,2.34-4.02,4.77-5.84,7.28"/>
        <path d="M225.29,213.82c-1.61,1.82-3.16,3.71-4.63,5.65-.42.55-.83,1.1-1.24,1.66-.11.16.15.31.26.15,1.42-1.95,2.92-3.86,4.48-5.7.44-.52.89-1.03,1.34-1.55.13-.14-.08-.36-.21-.21h0Z"/>
      </g>
      <g>
        <path class="cls-3" d="M220.64,212.2c-4.43,3.63-7.73,8.46-9.39,13.76"/>
        <path d="M220.54,212.09c-3.42,2.81-6.23,6.37-8.1,10.39-.52,1.12-.97,2.26-1.34,3.44-.06.18.23.26.29.08,1.32-4.16,3.61-7.99,6.62-11.15.86-.9,1.77-1.75,2.74-2.54.15-.12-.06-.33-.21-.21h0Z"/>
      </g>
      <g>
        <path class="cls-3" d="M212.73,209.63c-1.3,3.63-2.02,7.46-2.14,11.3"/>
        <path d="M212.58,209.59c-1.29,3.64-2.02,7.47-2.14,11.34,0,.19.29.19.3,0,.12-3.84.85-7.64,2.13-11.26.06-.18-.22-.26-.29-.08h0Z"/>
      </g>
      <g>
        <path class="cls-3" d="M201.52,208.07c1.57,1.5,3.15,3.05,4.15,4.93,1.92,3.62,1.53,8.13,4,11.46"/>
        <path d="M201.41,208.17c1.89,1.8,3.75,3.69,4.7,6.17.83,2.18,1.09,4.51,1.77,6.73.38,1.23.89,2.41,1.65,3.45.11.15.37,0,.26-.15-1.43-1.96-1.91-4.35-2.43-6.67s-1.22-4.62-2.74-6.57c-.89-1.15-1.95-2.18-3-3.18-.14-.13-.35.08-.21.21h0Z"/>
      </g>
      <g>
        <path class="cls-3" d="M232.56,190.6c-2.4,3.21-6.27,5.11-9.99,6.9"/>
        <path d="M232.43,190.52c-1.91,2.54-4.71,4.22-7.5,5.64-.81.41-1.63.81-2.45,1.2-.17.08-.02.34.15.26,2.89-1.39,5.86-2.81,8.26-4.99.66-.6,1.26-1.25,1.79-1.96.12-.15-.14-.3-.26-.15h0Z"/>
      </g>
      <g>
        <path class="cls-3" d="M210.88,183.01c1.09,4.34,3.23,8.45,6.22,11.94"/>
        <path d="M210.74,183.05c.87,3.44,2.38,6.7,4.4,9.61.58.83,1.2,1.63,1.85,2.4.13.15.34-.07.21-.21-2.29-2.68-4.11-5.76-5.32-9.07-.33-.92-.62-1.85-.86-2.8-.05-.19-.34-.11-.29.08h0Z"/>
      </g>
      <g>
        <path class="cls-3" d="M229.91,185.45c-1.79.9-3.59,1.81-5.08,3.09-1.47,1.27-2.59,2.89-3.22,4.67"/>
        <path d="M229.84,185.32c-1.44.72-2.89,1.45-4.19,2.39-1.22.88-2.28,1.97-3.09,3.24-.44.7-.81,1.44-1.09,2.22-.07.18.22.26.29.08.49-1.36,1.26-2.62,2.24-3.69,1.04-1.13,2.3-2,3.63-2.75.77-.44,1.57-.84,2.36-1.24.17-.09.02-.35-.15-.26h0Z"/>
      </g>
      <g>
        <path class="cls-3" d="M231.39,198.02c-2.65,2.13-6.03,3.25-9.37,3.1"/>
        <path d="M231.28,197.91c-2.6,2.08-5.93,3.19-9.26,3.05-.19,0-.19.29,0,.3,2.64.11,5.29-.55,7.59-1.86.66-.38,1.29-.81,1.88-1.28.15-.12-.06-.33-.21-.21h0Z"/>
      </g>
      <g>
        <path class="cls-3" d="M207.65,185.69c.52,2.55,1.81,4.97,3.68,6.9"/>
        <path d="M207.5,185.73c.42,2.03,1.31,3.96,2.56,5.61.36.47.75.93,1.16,1.35.13.14.35-.07.21-.21-1.43-1.47-2.54-3.25-3.2-5.19-.18-.54-.33-1.09-.44-1.64-.04-.19-.33-.11-.29.08h0Z"/>
      </g>
      <g>
        <path class="cls-3" d="M237.29,175.43c-3.66,1.27-6.93,3.3-9.44,5.88"/>
        <path d="M237.25,175.28c-2.79.97-5.43,2.39-7.71,4.27-.63.52-1.23,1.06-1.8,1.65-.14.14.08.35.21.21,2.01-2.05,4.41-3.69,7.02-4.89.77-.36,1.56-.67,2.36-.95.18-.06.1-.35-.08-.29h0Z"/>
      </g>
      <g>
        <path class="cls-3" d="M232.56,172.23c-2.28,3.08-6.32,4.86-8.08,8.23"/>
        <path d="M232.43,172.16c-1.83,2.46-4.61,3.97-6.65,6.23-.55.61-1.04,1.27-1.42,2-.09.17.17.32.26.15,1.43-2.72,4.21-4.34,6.39-6.38.61-.57,1.18-1.18,1.68-1.86.12-.16-.15-.3-.26-.15h0Z"/>
      </g>
      <g>
        <path class="cls-3" d="M225.58,172.06c-.52.52-1.18.9-1.71,1.41-1.13,1.09-1.54,2.66-1.9,4.15"/>
        <path d="M225.47,171.95c-.67.66-1.52,1.11-2.11,1.85-.54.68-.89,1.49-1.15,2.32-.15.48-.27.97-.39,1.45-.05.19.24.27.29.08.2-.83.41-1.67.76-2.45.17-.39.38-.76.63-1.1.27-.36.59-.67.95-.94.42-.33.86-.63,1.24-1,.14-.14-.07-.35-.21-.21h0Z"/>
      </g>
      <g>
        <path class="cls-3" d="M217.8,167.1c1.24,3.18,1.61,6.64,1.08,9.96"/>
        <path d="M217.66,167.14c1.21,3.13,1.6,6.56,1.08,9.88-.03.19.26.27.29.08.53-3.38.16-6.85-1.08-10.04-.07-.18-.36-.1-.29.08h0Z"/>
      </g>
      <g>
        <path class="cls-3" d="M240.5,159.75c-2.61,2.36-5.8,4.16-9.25,5.23"/>
        <path d="M240.39,159.65c-2.05,1.85-4.43,3.33-6.98,4.39-.72.3-1.46.56-2.21.8-.18.06-.11.35.08.29,2.69-.84,5.24-2.11,7.51-3.79.63-.46,1.23-.96,1.81-1.48.14-.13-.07-.34-.21-.21h0Z"/>
      </g>
      <g>
        <path class="cls-3" d="M234.35,156.51c-1.91,1.83-3.59,3.88-4.98,6.09"/>
        <path d="M234.24,156.4c-1.49,1.43-2.84,2.99-4.03,4.67-.34.47-.66.96-.97,1.45-.1.16.16.31.26.15,1.09-1.72,2.34-3.34,3.74-4.83.4-.42.8-.83,1.22-1.23.14-.13-.07-.35-.21-.21h0Z"/>
      </g>
      <g>
        <path class="cls-3" d="M226.14,155.41c.41,3.49.08,7.17,1.7,10.35"/>
        <path d="M225.99,155.41c.4,3.5.09,7.19,1.72,10.43.09.17.35.02.26-.15-1.61-3.18-1.29-6.84-1.68-10.28-.02-.19-.32-.19-.3,0h0Z"/>
      </g>
      <g>
        <path class="cls-3" d="M221.75,154.83c-.15,1.34-.03,2.7.36,4.01.43,1.44,1.18,2.8,1.34,4.28"/>
        <path d="M221.6,154.83c-.16,1.44,0,2.91.44,4.29s1.1,2.6,1.26,4c.02.19.32.19.3,0-.16-1.38-.78-2.63-1.22-3.94-.47-1.4-.64-2.88-.48-4.35.02-.19-.28-.19-.3,0h0Z"/>
      </g>
      <g>
        <path class="cls-3" d="M239.86,143.58c-1.12,1.94-2.99,3.48-5.19,4.29"/>
        <path d="M239.73,143.5c-.88,1.51-2.19,2.75-3.72,3.59-.44.24-.91.46-1.38.63-.18.07-.1.36.08.29,1.71-.63,3.26-1.7,4.42-3.12.32-.39.61-.8.86-1.24.1-.17-.16-.32-.26-.15h0Z"/>
      </g>
      <g>
        <path class="cls-3" d="M236.85,136.48c-.61,3.24-1.92,6.35-3.83,9.1"/>
        <path d="M236.71,136.44c-.62,3.25-1.93,6.34-3.81,9.06-.11.16.15.31.26.15,1.9-2.74,3.22-5.86,3.84-9.13.04-.19-.25-.27-.29-.08h0Z"/>
      </g>
      <g>
        <path class="cls-3" d="M229.97,142.27c-.6,1.3-1.16,3.56-.14,5.88"/>
        <path d="M229.84,142.2c-.64,1.39-.89,2.97-.61,4.49.1.53.26,1.05.48,1.54.08.18.34.02.26-.15-.8-1.82-.69-3.93.14-5.73.08-.17-.18-.33-.26-.15h0Z"/>
      </g>
    </g>
  </g>
</svg>