<?xml version="1.0" encoding="UTF-8"?>
<svg id="Layer_1" data-name="Layer 1" xmlns="http://www.w3.org/2000/svg" viewBox="0 0 289.13 430.87">
  <defs>
    <style>
      .cls-1, .cls-2 {
        fill: #c6acc3;
      }

      .cls-3 {
        fill: #c6ce7c;
      }

      .cls-3, .cls-4, .cls-2 {
        stroke: #000;
        stroke-miterlimit: 10;
        stroke-width: .5px;
      }

      .cls-4, .cls-5 {
        fill: #d1bacd;
      }
    </style>
  </defs>
  <path class="cls-3" d="M153.31,378.02h-5.35s1.01-24.56-24.81-40.27c0,0-38.14,7.88-53.3-.69l3.25-2.14s-11.33-2.47-14.79-5.44l5.11-.99s-14.5-4.62-15.16-6.43l4.45-1.48s-11.7-4.45-13.35-6.26c0,0-4.12-1.98-9.07-1.81,0,0,7.42-11.54,15.99-14.67,0,0,5.16-8.57,19.39-8.57l-.68-3.7s9.65-.09,11.63,1.4v-2.8s9.31,1.48,11.58,3.79l.61-2.39s16.09,4.53,19.99,10.13c3.91,5.6,15.11,16.65,16.27,33.62,0,0,14.83,15.99,16.98,18.95,0,0-7.42-35.6-11.21-42.85-3.79-7.25-11.54-32.18-10.22-35.95h10.69s-2.55,8.63.42,19.95c2.97,11.32,15.42,45.69,16.41,56.3,0,0,6.14-45.25,9.7-55.54,3.56-10.29,15.55-49.86,15.55-49.86l5.82-25.31,5.82,1.41-6.94,30.67,8.73-8.65s-.45-33.53,24.64-46.14l-1.12,3.54s12.09-9.31,23.96-9.49l-2.02,3.1s14.78-3.37,19.71-3.1l-2.91,3.1s10.97-1.65,18.14,0c0,0-4.7,7.64-10.08,9.46l4.03.86s-6.94,11.49-10.97,13.5l5.38-.45s-10.3,22.33-25.31,26.62c-15.01,4.29-41.43,4.8-41.43,4.8l-14.33,14.02s-18.22,60.5-17.51,78.87l13.25-17.47s-4.26-28.95,14.56-50.2l1.12,3.61s5.38-9.61,7.84-10.63l.67,4.64s4.7-9.01,8.06-10.47l1.12,3.94s6.5-7.35,12.54-7.05l-.67,3.11s20.16-8.57,47.93,3.94c0,0-17.69,9.8-18.81,16.53l4.48-2.46s-4.03,9.07-7.62,10.92h4.93s-8.51,13.28-16.57,16.19l6.5-.67s-16.28,28.64-52.59,24.66c-3.58-.39-7.2.41-10.24,2.36-5.53,3.56-13.76,10.31-17.53,20.63-3.96,10.84-3.01,22.14-2.65,29.3Z"/>
  <path d="M174.79,322.67c2.46-4.52,7.77-6.14,12.56-6.7,2.77-.32,5.55-.39,8.31-.76,2.61-.35,5.17-.96,7.66-1.82,2.77-.96,5.42-2.24,7.91-3.8.16-.1.01-.36-.15-.26-4.69,2.93-9.98,4.86-15.46,5.58-5.24.7-10.77.33-15.66,2.69-2.25,1.08-4.23,2.7-5.43,4.91-.09.17.17.32.26.15h0Z"/>
  <path d="M174.27,316.62c7.07-10.25,15.6-19.47,25.21-27.39s20.18-14.45,31.5-19.48c6.4-2.84,13.03-5.18,19.8-6.98.19-.05.11-.34-.08-.29-12.06,3.21-23.64,8.13-34.36,14.52-10.71,6.39-20.56,14.24-29.16,23.27-4.8,5.05-9.21,10.47-13.16,16.2-.11.16.15.31.26.15h0Z"/>
  <path d="M205.5,287.87c8.35-1.95,16.81-3.95,24.56-7.74,2.19-1.07,4.3-2.29,6.32-3.67.16-.11,0-.37-.15-.26-7.13,4.88-15.43,7.57-23.73,9.68-2.35.6-4.71,1.15-7.07,1.7-.19.04-.11.33.08.29h0Z"/>
  <path d="M195,301.36c10.73-1.33,21.18-4.69,30.67-9.87,2.71-1.48,5.33-3.1,7.86-4.87.16-.11,0-.37-.15-.26-8.81,6.13-18.76,10.57-29.21,13.05-3.02.72-6.09,1.26-9.17,1.64-.19.02-.19.32,0,.3h0Z"/>
  <path d="M199.14,270.57c-4.68,6.61-9.67,13.86-9.42,22.33,0,.19.31.19.3,0-.25-8.41,4.73-15.61,9.38-22.17.11-.16-.15-.31-.26-.15h0Z"/>
  <path d="M223.72,262.12c-2.26,2.01-4.55,3.99-6.78,6.03-2.01,1.83-3.85,3.83-5.45,6.02-.91,1.24-1.75,2.54-2.5,3.88-.1.17.16.32.26.15,1.33-2.35,2.89-4.56,4.68-6.58,1.89-2.14,4.05-4,6.18-5.89l3.83-3.4c.14-.13-.07-.34-.21-.21h0Z"/>
  <path d="M181.48,290.12c-2.68,4.83-4.01,10.35-3.8,15.87,0,.19.31.19.3,0-.2-5.47,1.1-10.94,3.76-15.72.09-.17-.17-.32-.26-.15h0Z"/>
  <path d="M44.14,305.06c11.23-1.42,22.64-1.38,33.86.16,2.8.38,5.56.9,8.24,1.81s5.09,1.95,7.6,3.01,4.84,2.13,7.1,3.51c2.27,1.39,4.32,3.1,6.26,4.92,4.62,4.35,9.03,8.95,13.5,13.46.14.14.35-.07.21-.21-4.06-4.11-8.12-8.23-12.25-12.27-1.87-1.83-3.81-3.6-5.95-5.11s-4.53-2.72-6.94-3.8c-5-2.23-10.09-4.39-15.52-5.29-5.55-.92-11.2-1.36-16.82-1.49-6.44-.15-12.89.19-19.28,1-.19.02-.19.32,0,.3h0Z"/>
  <path d="M72.16,294.61c3.11.03,6.2.8,8.96,2.25,2.81,1.48,5.17,3.68,7.23,6.07,1.21,1.4,2.3,2.89,3.27,4.46.1.16.36.01.26-.15-3.38-5.41-8.18-10.39-14.47-12.18-1.71-.49-3.48-.74-5.26-.76-.19,0-.19.3,0,.3h0Z"/>
  <path d="M90.92,295.31c3.94,1.53,7.52,3.93,10.43,7.01s5,7.14,7.07,11.01c1.15,2.15,2.38,4.27,3.89,6.19.12.15.33-.06.21-.21-2.85-3.6-4.6-7.89-6.94-11.81-2.15-3.6-4.95-6.74-8.39-9.16-1.92-1.35-4.01-2.46-6.2-3.31-.18-.07-.26.22-.08.29h0Z"/>
  <path d="M54.1,314.29c8.72,1.17,17.58,1.12,26.28-.17,2.52-.37,5.03-.85,7.51-1.43.19-.04.11-.33-.08-.29-8.53,1.98-17.32,2.77-26.06,2.31-2.53-.13-5.06-.37-7.57-.71-.19-.03-.27.26-.08.29h0Z"/>
  <path d="M64.76,326.01c9.9.24,19.82-1.12,29.29-4.02,2.71-.83,5.37-1.79,7.99-2.86.18-.07.1-.36-.08-.29-9.17,3.76-18.94,6.04-28.83,6.7-2.79.19-5.58.24-8.37.17-.19,0-.19.3,0,.3h0Z"/>
  <path d="M83.23,333.8c8.09-.02,16.17-.75,24.13-2.18,2.3-.41,4.6-.89,6.88-1.42.19-.04.11-.33-.08-.29-10.14,2.35-20.52,3.55-30.93,3.58-.19,0-.19.3,0,.3h0Z"/>
  <path d="M190.92,239.05c2.3-3.66,5.16-6.91,8.19-9.99s5.98-5.83,9.14-8.56c6.35-5.49,13.13-10.47,20.26-14.89,3.98-2.46,8.06-4.75,12.24-6.85.17-.09.02-.35-.15-.26-7.54,3.8-14.77,8.19-21.61,13.13-6.79,4.91-13.2,10.35-19.13,16.26-3.39,3.38-6.63,6.94-9.18,11-.1.16.16.31.26.15h0Z"/>
  <path d="M210.69,223.37c7.68-.22,15.28-2.02,22.24-5.28,2.02-.95,3.98-2.02,5.88-3.2.16-.1.01-.36-.15-.26-6.49,4.04-13.78,6.73-21.34,7.86-2.2.33-4.41.52-6.63.58-.19,0-.19.31,0,.3h0Z"/>
  <path d="M205.95,232.81c8.5.3,16.72-2.19,24.75-4.66.18-.06.11-.35-.08-.29-8.01,2.46-16.2,4.95-24.67,4.65-.19,0-.19.29,0,.3h0Z"/>
  <path d="M227.02,209.87c7.25-1.2,14.19-4,20.24-8.17.16-.11,0-.37-.15-.26-6.03,4.15-12.94,6.94-20.17,8.14-.19.03-.11.32.08.29h0Z"/>
  <g>
    <g>
      <path class="cls-2" d="M176.69,152.03s-5.59-4.79-1.97-8.29c3.62-3.5,9.14.48,9.14.48l.4,6.84-2.33,2.59-5.24-1.62Z"/>
      <path class="cls-2" d="M170.26,171.28s-5.59-4.79-1.97-8.29,9.14.48,9.14.48l.4,6.84-2.33,2.59-5.24-1.62Z"/>
      <path class="cls-2" d="M176.99,210.78s3.25-5.53,1.13-8.1c-2.12-2.57-5.42-3.1-6.26-2.22s-3.19,6.86-2.32,8.61,4.24,4,7.45,1.71Z"/>
      <path class="cls-2" d="M164.62,256.93s9.02-.65,11.01-4.42c1.99-3.77.67-7.28-.96-7.49s-10.68,1.6-12.39,3.63c-1.71,2.02-2.52,6.77,2.34,8.29Z"/>
      <path class="cls-2" d="M167.4,209.05s1.5-6.64-.28-8.32c-1.78-1.68-3.45-6.22-7.15-4.42s-3.55,8.46-3.07,10.17-.12,7.67-.12,7.67c0,0,8.46-2.01,8.76-2.11s1.85-2.99,1.85-2.99Z"/>
      <path class="cls-2" d="M182.52,228.69s-5.74,8.69-14.99,2.87c-9.25-5.82,3.56-9.7,3.56-9.7,0,0,4.74-1.57,8.21-.47,3.47,1.1,3.22,7.3,3.22,7.3Z"/>
      <path class="cls-2" d="M161.28,234.25s4.33-8.58-2.51-9.74c-6.85-1.16-8.22,8.14-8.22,8.14l-.62,11.28,7.3,1.64,4.06-11.32Z"/>
      <path class="cls-2" d="M152.23,239.14s1.16-13.79-4.94-13.52c-6.09.28-8.18,5.01-5.35,10.41,2.83,5.4,9.03,5.6,10.01,5.11s.28-2,.28-2Z"/>
      <path class="cls-2" d="M148.78,250.99s-6.81,1.99-9.54-1.29c-2.73-3.27-2.7-10.36,5.4-11.91,8.1-1.55,9.71,9.32,9.71,9.32l-5.57,3.88Z"/>
      <path class="cls-2" d="M182.19,253.61s-14.26-.53-12.89-6.41c1.38-5.88,7.38-7.26,9.58-7.05,2.2.22,5.5,0,7.04,3.2s1.56,9.42,1.56,9.42l-5.3.83Z"/>
      <path class="cls-2" d="M193.27,251.82s11.64-3.54,6.84-9.67c-4.8-6.13-12.82-4.06-15.48,1.92-2.66,5.98.58,8.39.58,8.39l8.05-.65Z"/>
      <path class="cls-2" d="M212.59,229.21s.2-6.27-4.79-5.77-9.75,2.68-9.99,8.37,10.88,8.83,10.88,8.83l3.86-.81.05-10.62Z"/>
      <path class="cls-2" d="M217.94,238.84s9.48-5.15,8.27-11.89c-1.21-6.75-13.35-.79-13.88.16s-3.03,9.19-3.03,9.19l8.65,2.54Z"/>
      <path class="cls-2" d="M192.7,217.28s5.81-11.29-.99-13.7c-6.8-2.42-10.54,4.89-10.54,4.89l-2.75,7.68,3.45,6.86,8.93-.77,1.91-4.95Z"/>
      <path class="cls-2" d="M184.34,221.91s10.34-12.17,16.33-5.92c5.99,6.25-7.7,12.45-7.7,12.45l-9.25-2.11.61-4.41Z"/>
      <path class="cls-2" d="M208.22,208.92s-9.6,10.51-13.76-.03,16-4.58,16-4.58l-2.24,4.61Z"/>
      <path class="cls-2" d="M213.98,208.44s17.05-6.03,9.11-15.22c0,0-7.24-4.12-12.12,3.85-4.89,7.97-.87,10.84-.87,10.84l3.89.52Z"/>
      <path class="cls-2" d="M211.53,199.45s.81-11.32-3.95-10.95-7.62,3.02-7.81,6.21,1.9,13.04,6.8,11.86,4.96-7.12,4.96-7.12Z"/>
      <path class="cls-2" d="M214.22,207.27s9.63,1.11,10.78,9.39-17.15.4-17.15.4l-.05-8.71c0-.99.87-1.75,1.87-1.63l4.55.56Z"/>
      <path class="cls-2" d="M207.63,222.32s7.81-.9,4.13-8.51c-2.03-4.21-3.89-5.78-5.15-6.34-.82-.37-1.79.02-2.14.84-1.47,3.42-5.18,13.72,3.16,14.01Z"/>
      <path class="cls-2" d="M213.04,178.78s12.45-2.13,8.79-11.98c0,0-5.09-6.43-12.44,2.49l-2.22,8.03,5.87,1.46Z"/>
      <path class="cls-2" d="M173.48,180.8s3.21-11.43-4.06-11.53c-7.27-.1-7.61,6.21-6.61,9.32,1.01,3.11,4.84,9.56,4.84,9.56l5.83-7.35Z"/>
      <path class="cls-2" d="M172.54,191.65s7.09,1.95,7.1-2.74-6.02-5-6.02-5l-4.74.46-3.13,3.94,6.79,3.34Z"/>
      <path class="cls-2" d="M191.08,177.2s7.47,14.15-2.12,15.25-5.96-11.87-5.96-11.87l2.91-6.9,5.18,3.53Z"/>
      <path class="cls-2" d="M179.05,167.25s-4.1-6.23-7.71-7.62c-3.61-1.39-1.32-5.1-.13-5.68,1.19-.58,6.36-2.9,8.6-2.3s6.22,4.22,7.38,8.24.81,6.57.42,7.12-8.57.23-8.57.23Z"/>
      <path class="cls-2" d="M196.44,136.2c-.11,1.59,2.03,3.02,3.59,2.4,4.77-1.89,14.91-5.13,10.06-10.1-5.37-5.51-10.78-3.08-12.53,2.71-.69,2.28-1.04,3.85-1.12,5Z"/>
      <path class="cls-2" d="M196.63,132.13s4.88-3.12,2.62-7.8-4.04-7.19-7.63-3.95c-3.59,3.24-2.18,7.7-1.23,8.82s1.29,3.99,6.24,2.93Z"/>
      <path class="cls-2" d="M192.02,145.85s6.52.91,7.17-4.36c1.06-8.61-1.32-9.34-6.34-8.6s-7.19,5.52-6.81,7.03.71,4.02,5.99,5.93Z"/>
      <path class="cls-2" d="M193.49,137.27s-1.86,2.55-5.75,1.73c-4.93-1.03-5.63-3.94-4.98-5.3s2.91-3.98,5.81-3.4c2.9.58,5.31.36,5.81,3.43.4,2.41-.89,3.54-.89,3.54Z"/>
      <path class="cls-2" d="M204.69,150.97s6.7.02,7.52-4.44c.81-4.46,1.95-8.01-.23-9.02-2.18-1.01-5.2-1.1-6.94.76-1.74,1.86-3.28,5.96-3.32,7.16s-.12,5.06,2.97,5.54Z"/>
      <path class="cls-2" d="M202.54,153.12c1.13-.37,1.98-1.3,2.26-2.42.61-2.35,1.23-6.9-2.09-9.36-4.61-3.41-4.9-3.03-6.87-2s-2.96,3.35-3.05,5.13-.45,4.55,2.98,6.71c2.72,1.7,4.61,2.63,6.77,1.93Z"/>
      <path class="cls-2" d="M182.11,151.24s-3.22-9.91,2.92-11.26c6.14-1.35,6.72,3.32,6.88,4.37s-.8,5.33-1.42,6.21-4.18,4.03-6.46,3.17-1.92-2.49-1.92-2.49Z"/>
      <path class="cls-2" d="M190.2,163.92s6.14-2.67,5.37-7.31-1.63-6.38-3.66-7.22c-2.03-.85-4.96.02-5.88.81s-3.46,2.79-3.39,4.49,2.72,9.55,7.55,9.23Z"/>
      <path class="cls-2" d="M204.46,152.01s-1.01,6.38,4.61,7.44,9.33-1.76,8.63-3.36-2.46-4.37-4.9-5.51-5.07-2.17-6.19-1.6-2.07,2.16-2.14,3.04Z"/>
      <path class="cls-2" d="M201.8,164.28s4.88-.25,5.7-3.94-1.19-7.1-2.24-7.69c-1.06-.59-2.49-2.43-4.88-1.54-2.39.88-5.18,4.59-5.32,6.06s1.37,7.78,6.74,7.11Z"/>
      <path class="cls-2" d="M190.92,171.93s1.73-8.78-4.1-9.47-10.11.48-10.75,2.75-2.57,8.83,3.38,10.24,9.62.81,10.45-.4,1.02-3.12,1.02-3.12Z"/>
      <path class="cls-2" d="M209.96,173.53s2.25-8.69-2.87-10.05c-5.11-1.35-6.45,1.36-6.83,2.7s-1.51,7.83-1.24,8.89,4.59,4.79,5.82,4.59c1.23-.2,4.68-1.02,5.12-6.13Z"/>
      <path class="cls-2" d="M199.59,162.08s2,2.8,1.3,6.1c-.7,3.3-1.57,5.51-4.24,6.61s-6.15,1.43-7.46.66-1.48-11.97.56-13.76,6.66-3.23,9.84.4Z"/>
      <path class="cls-2" d="M216.22,177.09s8.62-1.07,9.33,6.15-13.47,1.99-13.47,1.99l-2.23-6.04,6.37-2.1Z"/>
      <path class="cls-2" d="M208.19,191.11s8.62-.85,5.23-6.96c-3.39-6.11-5.77-6.33-7.6-5.98s-4.04,2.59-3.98,6.11,1.31,6.88,6.35,6.83Z"/>
      <path class="cls-2" d="M188.91,177.55s5.92,8.62,9.96,7.35,6.32-6.63,3.46-9.01c-2.86-2.38-5.83-4.89-9.48-2.91s-4.43,2.3-3.95,4.57Z"/>
      <path class="cls-2" d="M192.37,203.35s11.8-6.14,11.14-9.95-4.39-6.37-7.16-6.45c-2.78-.08-5.37,3.19-6.11,5.44s-1.64,10.26-.4,10.62,2.53.34,2.53.34Z"/>
      <path class="cls-2" d="M168.17,186.27s15.59,1.13,17.11-6.19-5.27-6.49-6.47-6.54c-1.2-.05-7.16,4.17-9.35,8.48s-1.29,4.25-1.29,4.25Z"/>
      <path class="cls-2" d="M168.45,185.83s8.22,4.12,7.27,8.91-.88,8.01-6.24,7.16-6.45-10.88-5.26-13.11,4.23-2.95,4.23-2.95Z"/>
      <path class="cls-2" d="M183.15,204.23c.97.04,1.94-.22,2.76-.73,2.5-1.56,7.32-5.4,3.19-10.01-5.39-6.02-8.2-4.43-9.4-4.18s-3.48,1.61-4.24,2.97-2.03,6.55,1.4,9.07c2.92,2.15,3.82,2.78,6.29,2.88Z"/>
      <path class="cls-2" d="M183.54,227.64s8.18-4.18,13.65,1.84,5.99,9.33,5.02,10.14-4.8,2.98-9.14-.37c-4.34-3.35-10.56-10.5-10.56-10.5l1.04-1.12Z"/>
      <path class="cls-2" d="M180.2,242.48s11-4.2,7.59-12.51c-3.41-8.31-7.88-5.94-8.47-5.29s-6.18,5.12-5.99,9.75,3,8.26,6.87,8.06Z"/>
      <path class="cls-2" d="M182.51,218.98s1.95-8.49-5.87-8.92-8.24,2.56-7.89,3.49,2.64,8.74,8.12,9.95,6.3.53,6.3.53l-.66-5.06Z"/>
      <path class="cls-2" d="M159.15,212.74s1.34-7.96-2.97-9.65c-3.7-1.45-5.15-2.5-7.33-1.67-1.11.42-3.22,4.75-1.84,6.55s3,5.88,5.17,5.58,6.96-.81,6.96-.81Z"/>
      <path class="cls-2" d="M159.15,212.26s1.65,10.06-6.24,12.01c-7.89,1.96-6.74-4.02-6.74-4.02,0,0-1-7.57,6.23-8.49,7.23-.92,6.75.5,6.75.5Z"/>
      <path class="cls-2" d="M162.46,223.63s7.31.5,7.58-4.36-2.54-8.81-5.75-8.8-7.59,1.55-7.1,6.67c.49,5.12,3.1,5.97,5.27,6.49Z"/>
      <path class="cls-2" d="M213.18,236.94s15.77.59,12.75,7.97c-3.02,7.37-8.39,5.32-9.58,4.14s-6.57-7.16-6.18-8.83,1.59-3.38,3.01-3.28Z"/>
      <path class="cls-2" d="M210.73,255.65s6.48-4.61,5.12-9.26c-1.35-4.65-4.37-7.49-6.09-7.17-1.73.32-7.91,8.89-6.59,10.79s.97,6.09,7.56,5.64Z"/>
      <path class="cls-2" d="M208.76,246.43s-2.94,8.64-7.06,6.12-3.4-11.12-1.31-13.03c2.1-1.91,6.35-2.11,7.46-1.49s2.4,5.18.91,8.4Z"/>
      <path class="cls-2" d="M187.61,250.11s10.46-1.33,11.76,7.07c1.3,8.4-4.19,6.1-4.19,6.1,0,0-5.12,1.9-7.78-4.73s-5.18-6.81-4.26-7.71,4.48-.73,4.48-.73Z"/>
      <path class="cls-2" d="M186.66,264.4s-1.14,3.77-5.94,2.73-9.51-6.14-4.79-11.46,8.88-5.46,10.74-4.51c1.86.96.83,10.61-.01,13.24Z"/>
      <path class="cls-2" d="M156.18,240.23s.91-12.5,14.91-5.92c0,0,4.81,8.56-4.52,10.05-9.33,1.48-10.38-4.13-10.38-4.13Z"/>
      <path class="cls-2" d="M154.59,243.52s2.57-3.38,5.67-1.99,6.5,2.86,5.71,6.99-1.97,9.37-6.1,9.52-9.28-5.8-9.19-7.59,1.05-5.87,3.9-6.93Z"/>
      <ellipse class="cls-2" cx="210.2" cy="177.74" rx="2.11" ry="1.89" transform="translate(-40.11 63.21) rotate(-15.63)"/>
      <ellipse class="cls-2" cx="197.02" cy="132.44" rx="2.11" ry="1.89" transform="translate(-28.4 57.98) rotate(-15.63)"/>
      <ellipse class="cls-2" cx="208.42" cy="207.05" rx="1.93" ry="1.58" transform="translate(-78.28 271.2) rotate(-57.42)"/>
      <ellipse class="cls-2" cx="209.1" cy="237.64" rx="1.84" ry="2.64" transform="translate(-68.52 389.71) rotate(-77.37)"/>
      <ellipse class="cls-2" cx="182.9" cy="223.14" rx="2.61" ry="1.86" transform="translate(-105.62 223.95) rotate(-50.82)"/>
      <ellipse class="cls-2" cx="188.31" cy="191.91" rx="1.87" ry="1.76" transform="translate(-46.94 61.73) rotate(-16.58)"/>
      <ellipse class="cls-2" cx="184.52" cy="249.81" rx="2.31" ry="1.52" transform="translate(-78.35 84.43) rotate(-21.37)"/>
      <ellipse class="cls-2" cx="153.54" cy="241.82" rx="1.92" ry="2.88" transform="translate(-106.22 362.55) rotate(-82.52)"/>
      <path class="cls-2" d="M167.94,185.55c.15.68.02,1.38-.34,2-1.27,2.2-4.74,7.49-8.54,6.94-4.79-.7-2.81-7.48-1.98-8.5,0,0-4.61-2.64-1.69-5.18,2.92-2.54,8.19-.55,9.94.67,1.45,1.01,2.25,2.43,2.6,4.07Z"/>
    </g>
    <g>
      <path class="cls-1" d="M196.88,129.17c.2-1.09.38-2.19.37-3.3s-.24-2.24-.83-3.19"/>
      <path d="M197.02,129.21c.39-2.19.74-4.6-.48-6.6-.1-.16-.36-.01-.26.15,1.17,1.93.82,4.27.45,6.37-.03.19.26.27.29.08h0Z"/>
    </g>
    <g>
      <path class="cls-1" d="M195.48,128.79c-1.21-2.21-1.53-4.76-1.83-7.25"/>
      <path d="M195.61,128.72c-1.2-2.2-1.51-4.72-1.81-7.17-.02-.19-.32-.19-.3,0,.3,2.5.63,5.07,1.85,7.32.09.17.35.02.26-.15h0Z"/>
    </g>
    <g>
      <path class="cls-1" d="M194.11,129.73c-.98-1.37-1.63-2.96-1.89-4.62"/>
      <path d="M194.24,129.65c-.97-1.36-1.61-2.93-1.88-4.58-.03-.19-.32-.11-.29.08.27,1.67.93,3.27,1.91,4.65.11.16.37,0,.26-.15h0Z"/>
    </g>
    <g>
      <path class="cls-1" d="M192.54,133.4c-.7-.45-1.53-.65-2.36-.71s-1.66.03-2.49.11"/>
      <path d="M192.61,133.27c-1.47-.93-3.28-.78-4.93-.62-.19.02-.19.32,0,.3,1.6-.16,3.35-.32,4.78.58.16.1.31-.16.15-.26h0Z"/>
    </g>
    <g>
      <path class="cls-1" d="M191.96,135.48c-2.2.17-4.42.11-6.61-.15"/>
      <path d="M191.96,135.33c-2.2.16-4.42.11-6.61-.15-.19-.02-.19.28,0,.3,2.19.27,4.41.32,6.61.15.19-.01.19-.31,0-.3h0Z"/>
    </g>
    <g>
      <path class="cls-1" d="M206.04,129.69c-2.13.11-4.24.57-6.23,1.35"/>
      <path d="M206.04,129.54c-2.15.11-4.27.57-6.27,1.36-.18.07-.1.36.08.29,1.97-.78,4.07-1.23,6.19-1.34.19-.01.19-.31,0-.3h0Z"/>
    </g>
    <g>
      <path class="cls-1" d="M208,131.64c-2.19.91-4.61,1.25-6.97.98"/>
      <path d="M207.96,131.49c-2.19.9-4.58,1.23-6.93.97-.19-.02-.19.28,0,.3,2.37.26,4.8-.08,7.01-.98.18-.07.1-.36-.08-.29h0Z"/>
    </g>
    <g>
      <path class="cls-1" d="M195.33,136.45c-.13,1.49-.18,1.94-.78,3.87"/>
      <path d="M195.18,136.45c-.04.46-.08.93-.15,1.39s-.18.91-.3,1.35c-.1.36-.21.73-.32,1.09-.06.18.23.26.29.08.18-.58.35-1.15.49-1.74.1-.43.17-.86.21-1.3.03-.29.06-.58.08-.87.02-.19-.28-.19-.3,0h0Z"/>
    </g>
    <g>
      <path class="cls-1" d="M192.54,139.09c-.51,1.46-.6,1.41-1.46,2.7"/>
      <path d="M192.39,139.05c-.08.24-.17.47-.26.71-.04.09-.06.14-.1.23-.03.08-.07.15-.11.22-.15.29-.33.55-.51.82-.16.23-.31.46-.47.69-.11.16.15.31.26.15.24-.36.49-.71.73-1.07.18-.28.33-.58.46-.89.11-.26.2-.52.29-.78.03-.08-.03-.16-.1-.18-.08-.02-.16.03-.18.1h0Z"/>
    </g>
    <g>
      <path class="cls-1" d="M202.52,149.22c-.6-2.61-1.89-5.07-3.71-7.07"/>
      <path d="M202.66,149.18c-.48-2.06-1.38-4.03-2.62-5.74-.35-.48-.73-.95-1.13-1.39-.13-.14-.34.07-.21.21,1.4,1.54,2.49,3.36,3.18,5.33.19.55.36,1.11.49,1.68.04.19.33.11.29-.08h0Z"/>
    </g>
    <g>
      <path class="cls-1" d="M199.6,149.22c-1.78-2.14-3.03-4.71-3.61-7.42"/>
      <path d="M199.71,149.11c-1.37-1.65-2.43-3.56-3.1-5.59-.19-.58-.35-1.17-.48-1.76-.04-.19-.33-.11-.29.08.46,2.14,1.33,4.19,2.55,6.01.34.51.71,1,1.1,1.47.12.15.33-.06.21-.21h0Z"/>
    </g>
    <g>
      <path class="cls-1" d="M209.96,141.23c-.06,2-.77,3.97-2,5.56"/>
      <path d="M209.81,141.23c-.07,1.98-.77,3.91-1.98,5.48-.12.15.14.3.26.15.96-1.25,1.62-2.75,1.88-4.31.07-.44.12-.88.14-1.33,0-.19-.29-.19-.3,0h0Z"/>
    </g>
    <g>
      <path class="cls-1" d="M208.17,139.94c-.5.97-.97,1.96-1.4,2.96"/>
      <path d="M208.04,139.87c-.5.97-.96,1.96-1.4,2.96-.03.07-.02.16.05.21.06.04.17.02.21-.05.43-1,.9-1.99,1.4-2.96.09-.17-.17-.32-.26-.15h0Z"/>
    </g>
    <g>
      <path class="cls-1" d="M214.31,154.82c-1.41-1.23-3.09-2.17-4.88-2.73"/>
      <path d="M214.42,154.72c-1.12-.98-2.39-1.76-3.76-2.34-.39-.16-.79-.31-1.19-.43-.18-.06-.26.23-.08.29,1.37.43,2.67,1.08,3.84,1.92.34.24.66.5.97.77.15.13.36-.09.21-.21h0Z"/>
    </g>
    <g>
      <path class="cls-1" d="M213.96,156.98c-1.09-.22-2.21-.44-3.15-1.04-.54-.34-1-.8-1.45-1.25"/>
      <path d="M214,156.83c-.84-.17-1.7-.33-2.48-.68-.39-.18-.76-.4-1.1-.67s-.65-.58-.96-.89c-.14-.14-.35.08-.21.21.5.49,1,.99,1.6,1.34s1.24.57,1.9.73c.39.1.78.17,1.17.25.19.04.27-.25.08-.29h0Z"/>
    </g>
    <g>
      <path class="cls-1" d="M205.05,155.41c.3,2.24-.67,4.61-2.46,6.03"/>
      <path d="M204.9,155.41c.23,1.72-.29,3.51-1.37,4.87-.31.39-.66.74-1.05,1.05-.15.12.06.33.21.21,1.42-1.12,2.33-2.82,2.52-4.61.06-.51.05-1.02-.02-1.52-.02-.19-.33-.19-.3,0h0Z"/>
    </g>
    <g>
      <path class="cls-1" d="M201.76,155.62c-.26.87-.76,1.65-1.15,2.47s-.65,1.77-.37,2.63"/>
      <path d="M201.62,155.58c-.51,1.7-2.1,3.29-1.52,5.18.06.18.35.11.29-.08-.27-.88.01-1.8.4-2.6s.87-1.56,1.12-2.42c.06-.19-.23-.26-.29-.08h0Z"/>
    </g>
    <g>
      <path class="cls-1" d="M201.68,152.7c-1.86,1.47-3.3,3.45-4.12,5.65"/>
      <path d="M201.57,152.59c-1.46,1.16-2.67,2.62-3.52,4.28-.24.47-.45.95-.63,1.44-.07.18.22.26.29.08.64-1.71,1.64-3.27,2.93-4.56.36-.37.75-.71,1.15-1.03.15-.12-.06-.33-.21-.21h0Z"/>
    </g>
    <g>
      <path class="cls-1" d="M192.34,154.83c-1.62-.67-3.37-1.03-5.13-1.05"/>
      <path d="M192.38,154.69c-1.64-.68-3.4-1.04-5.17-1.06-.19,0-.19.3,0,.3,1.75.02,3.48.38,5.09,1.05.18.07.26-.22.08-.29h0Z"/>
    </g>
    <g>
      <path class="cls-1" d="M191.22,157.52c-.62-.05-1.23-.21-1.81-.46-1.44-.62-2.59-1.74-3.7-2.84"/>
      <path d="M191.22,157.37c-1.73-.16-3.16-1.14-4.41-2.29-.34-.31-.67-.64-1-.96-.14-.14-.35.08-.21.21,1.21,1.19,2.47,2.42,4.1,3,.49.18,1,.29,1.52.33.19.02.19-.28,0-.3h0Z"/>
    </g>
    <g>
      <path class="cls-1" d="M186.91,159.2c-.21-.37-.57-.64-.87-.94-.8-.79-1.28-1.88-1.34-2.99"/>
      <path d="M187.04,159.12c-.31-.52-.83-.86-1.21-1.32s-.65-1-.82-1.56c-.09-.32-.15-.65-.17-.98-.01-.19-.31-.19-.3,0,.07,1.24.63,2.4,1.54,3.24.25.24.52.47.7.77.1.17.36.02.26-.15h0Z"/>
    </g>
    <g>
      <path class="cls-1" d="M189.04,145.16c-.35,1.39-.98,2.72-1.84,3.89"/>
      <path d="M188.9,145.12c-.35,1.39-.98,2.7-1.82,3.85-.05.07-.01.17.05.21.08.05.16.01.21-.05.86-1.17,1.49-2.51,1.85-3.92.05-.19-.24-.27-.29-.08h0Z"/>
    </g>
    <g>
      <path class="cls-1" d="M186.06,145.1c-.68.88-1.37,1.78-1.85,2.78s-.75,2.14-.54,3.23"/>
      <path d="M185.95,145c-1.36,1.76-2.87,3.8-2.43,6.16.04.19.32.11.29-.08-.42-2.23,1.07-4.21,2.35-5.87.12-.15-.09-.36-.21-.21h0Z"/>
    </g>
    <g>
      <path class="cls-1" d="M180.56,149.9c-1.32-.71-2.67-1.35-4.05-1.92"/>
      <path d="M180.64,149.78c-1.33-.71-2.69-1.36-4.08-1.94-.08-.03-.16.03-.18.1-.02.09.03.15.1.18,1.37.57,2.71,1.21,4.01,1.91.17.09.32-.17.15-.26h0Z"/>
    </g>
    <g>
      <path class="cls-1" d="M180.31,148.39c-.73-.91-1.41-1.86-2.04-2.84"/>
      <path d="M180.42,148.28c-.56-.7-1.09-1.42-1.59-2.17-.14-.21-.28-.43-.42-.64-.1-.16-.36-.01-.26.15.49.77,1.01,1.52,1.57,2.25.16.21.32.42.49.62.05.06.16.05.21,0,.06-.06.05-.15,0-.21h0Z"/>
    </g>
    <g>
      <path class="cls-1" d="M181.06,155.38c-1.48.67-2.52,2.19-2.6,3.8"/>
      <path d="M180.98,155.25c-1.18.54-2.1,1.61-2.49,2.85-.11.35-.17.71-.19,1.08-.01.19.29.19.3,0,.07-1.22.7-2.37,1.65-3.13.27-.21.57-.39.88-.53.07-.03.09-.14.05-.21-.04-.08-.13-.09-.21-.05h0Z"/>
    </g>
    <g>
      <path class="cls-1" d="M179.53,153.89c-.6.18-1.2.33-1.81.45-.61.12-1.23.2-1.83.39s-1.17.5-1.55.99"/>
      <path d="M179.49,153.75c-.5.15-1,.28-1.52.39s-.98.17-1.46.28c-.85.18-1.72.5-2.28,1.2-.12.15.09.36.21.21.55-.69,1.41-.97,2.24-1.14.47-.1.94-.17,1.41-.27.49-.1.98-.23,1.47-.38.18-.06.11-.35-.08-.29h0Z"/>
    </g>
    <g>
      <path class="cls-1" d="M187.29,173.82c-.62-1.41-1.66-2.61-2.84-3.62s-2.5-1.85-3.81-2.68"/>
      <path d="M187.42,173.75c-.99-2.22-2.9-3.84-4.87-5.17-.6-.41-1.22-.8-1.83-1.19-.16-.1-.31.16-.15.26,2.03,1.29,4.14,2.62,5.6,4.58.39.52.72,1.08.99,1.67.08.18.34.02.26-.15h0Z"/>
    </g>
    <g>
      <path class="cls-1" d="M185,173.33c-1.74-1.17-3.72-1.99-5.79-2.39"/>
      <path d="M185.07,173.2c-1.76-1.18-3.75-2-5.82-2.41-.19-.04-.27.25-.08.29,2.05.41,4.01,1.21,5.75,2.38.16.11.31-.15.15-.26h0Z"/>
    </g>
    <g>
      <path class="cls-1" d="M186.59,170.37c-.35-1.42-1.15-2.73-2.25-3.71"/>
      <path d="M186.74,170.33c-.28-1.13-.83-2.18-1.59-3.07-.22-.25-.45-.49-.7-.71-.14-.13-.36.08-.21.21.84.75,1.5,1.69,1.91,2.73.12.3.22.6.29.92.05.19.34.11.29-.08h0Z"/>
    </g>
    <g>
      <path class="cls-1" d="M190.78,171.15c.17-2.21.47-4.4.92-6.57"/>
      <path d="M190.93,171.15c.17-2.19.47-4.37.91-6.53.04-.19-.25-.27-.29-.08-.44,2.18-.75,4.39-.92,6.61-.01.19.29.19.3,0h0Z"/>
    </g>
    <g>
      <path class="cls-1" d="M193.23,168.75c.69-2.04,1.23-4.13,1.6-6.25"/>
      <path d="M193.37,168.79c.69-2.04,1.23-4.13,1.6-6.25.03-.19-.26-.27-.29-.08-.38,2.12-.91,4.21-1.6,6.25-.06.18.23.26.29.08h0Z"/>
    </g>
    <g>
      <path class="cls-1" d="M194.69,170.2c1.67-1.26,2.85-3.13,3.27-5.16"/>
      <path d="M194.77,170.33c1.32-1,2.35-2.36,2.94-3.9.17-.44.3-.89.39-1.34.04-.19-.25-.27-.29-.08-.32,1.56-1.09,3.01-2.19,4.17-.31.33-.65.63-1.01.9-.15.12,0,.38.15.26h0Z"/>
    </g>
    <g>
      <path class="cls-1" d="M200.13,177.46c-1.98-.93-4.1-1.54-6.27-1.82"/>
      <path d="M200.2,177.33c-2.01-.94-4.15-1.56-6.35-1.84-.19-.02-.19.28,0,.3,2.14.27,4.24.88,6.2,1.8.17.08.33-.18.15-.26h0Z"/>
    </g>
    <g>
      <path class="cls-1" d="M197.62,179.11c-2.62-.21-4.94-1.65-7.15-3.05"/>
      <path d="M197.62,178.96c-2.62-.22-4.91-1.66-7.07-3.03-.16-.1-.31.16-.15.26,2.22,1.4,4.55,2.84,7.22,3.07.19.02.19-.28,0-.3h0Z"/>
    </g>
    <g>
      <path class="cls-1" d="M198.13,181.94c-1.94-.31-3.77-1.21-5.19-2.54"/>
      <path d="M198.17,181.8c-1.49-.24-2.91-.82-4.14-1.7-.35-.25-.67-.52-.98-.81-.14-.13-.35.08-.21.21,1.13,1.05,2.49,1.84,3.97,2.28.42.13.85.22,1.28.3.19.03.27-.26.08-.29h0Z"/>
    </g>
    <g>
      <path class="cls-1" d="M189.8,178.7c.51,2.74.32,5.61-.56,8.26"/>
      <path d="M189.66,178.74c.5,2.72.31,5.55-.56,8.18-.06.18.23.26.29.08.88-2.68,1.07-5.56.56-8.34-.04-.19-.32-.11-.29.08h0Z"/>
    </g>
    <g>
      <path class="cls-1" d="M188.41,179.7c-.53,1.38-.64,2.92-.32,4.36"/>
      <path d="M188.26,179.66c-.53,1.41-.64,2.97-.32,4.44.04.19.33.11.29-.08-.31-1.42-.19-2.92.32-4.28.07-.18-.22-.26-.29-.08h0Z"/>
    </g>
    <g>
      <path class="cls-1" d="M187.27,178.11c-1.31,2.45-2.64,5.01-2.72,7.77"/>
      <path d="M187.14,178.04c-1.31,2.45-2.65,5.01-2.74,7.85,0,.19.29.19.3,0,.09-2.78,1.42-5.3,2.7-7.69.09-.17-.17-.32-.26-.15h0Z"/>
    </g>
    <g>
      <path class="cls-1" d="M208.25,175.08c-.15-1.31-1-2.42-1.84-3.44-.48-.58-.97-1.16-1.46-1.74"/>
      <path d="M208.4,175.08c-.19-1.62-1.33-2.89-2.34-4.08-.33-.4-.67-.8-1.01-1.19-.13-.15-.34.07-.21.21.56.65,1.11,1.31,1.66,1.97.47.58.93,1.19,1.25,1.88.18.38.31.79.36,1.21.02.19.32.19.3,0h0Z"/>
    </g>
    <g>
      <path class="cls-1" d="M206.98,176.03c-.71-.57-1.44-1.12-2.09-1.75s-1.22-1.37-1.54-2.21"/>
      <path d="M207.09,175.92c-1.09-.88-2.27-1.72-3.06-2.9-.21-.31-.39-.64-.53-1-.03-.08-.1-.13-.18-.1-.07.02-.13.11-.1.18.51,1.34,1.56,2.34,2.65,3.22.33.27.67.54,1.01.8.06.05.15.06.21,0,.05-.05.06-.16,0-.21h0Z"/>
    </g>
    <g>
      <path class="cls-1" d="M212.37,174.07c.29-1.88,1.06-3.69,2.22-5.22"/>
      <path d="M212.51,174.11c.29-1.88,1.05-3.67,2.2-5.18.12-.15-.14-.3-.26-.15-.91,1.19-1.58,2.56-1.97,4.01-.11.41-.2.83-.26,1.24-.03.19.26.27.29.08h0Z"/>
    </g>
    <g>
      <path class="cls-1" d="M219.91,170.28l-3.18,2.89c-.72.65-1.45,1.31-2.3,1.77"/>
      <path d="M219.81,170.17l-2.17,1.97c-.68.61-1.34,1.25-2.05,1.82-.39.31-.79.6-1.23.84-.17.09-.02.35.15.26.77-.42,1.45-1,2.1-1.59.72-.65,1.44-1.31,2.17-1.96l1.25-1.13c.14-.13-.07-.34-.21-.21h0Z"/>
    </g>
    <g>
      <path class="cls-1" d="M221.12,180.83c-2.09-.74-4.26-1.26-6.47-1.56"/>
      <path d="M221.16,180.69c-2.1-.74-4.26-1.26-6.47-1.56-.19-.03-.27.26-.08.29,2.2.3,4.37.82,6.47,1.56.18.06.26-.23.08-.29h0Z"/>
    </g>
    <g>
      <path class="cls-1" d="M221.36,184.04c-1.92.06-3.73-.82-5.45-1.67-.97-.49-1.95-.97-2.92-1.46"/>
      <path d="M221.36,183.89c-1.48.04-2.88-.47-4.21-1.09s-2.73-1.35-4.08-2.03c-.17-.09-.32.17-.15.26,1.4.7,2.8,1.44,4.22,2.09,1.33.61,2.74,1.1,4.22,1.06.19,0,.19-.31,0-.3h0Z"/>
    </g>
    <g>
      <path class="cls-1" d="M210.4,180.83c-.29,1.15-.42,2.33-.68,3.48s-.65,2.31-1.41,3.23"/>
      <path d="M210.26,180.79c-.57,2.22-.53,4.78-2.05,6.64-.12.15.09.36.21.21,1.56-1.92,1.54-4.48,2.13-6.77.05-.19-.24-.27-.29-.08h0Z"/>
    </g>
    <g>
      <path class="cls-1" d="M207.78,181.21c-1.28,1.79-2.3,3.75-3.04,5.81"/>
      <path d="M207.66,181.14c-1.28,1.8-2.31,3.77-3.05,5.85-.07.18.22.26.29.08.74-2.05,1.76-4,3.02-5.77.11-.16-.15-.31-.26-.15h0Z"/>
    </g>
    <g>
      <path class="cls-1" d="M175.69,166.36c-1.51-.91-3.19-1.56-4.93-1.9"/>
      <path d="M175.77,166.23c-1.53-.92-3.21-1.57-4.96-1.92-.19-.04-.27.25-.08.29,1.72.35,3.38.99,4.89,1.89.17.1.32-.16.15-.26h0Z"/>
    </g>
    <g>
      <path class="cls-1" d="M175.09,168.61c-2.21-.73-4.33-1.71-6.31-2.92"/>
      <path d="M175.13,168.46c-2.19-.73-4.3-1.71-6.27-2.91-.17-.1-.32.16-.15.26,2,1.21,4.13,2.2,6.34,2.94.18.06.26-.23.08-.29h0Z"/>
    </g>
    <g>
      <path class="cls-1" d="M170.01,180.47c.56-1.8.54-3.77-.05-5.56"/>
      <path d="M170.15,180.51c.56-1.83.54-3.82-.05-5.64-.06-.18-.35-.1-.29.08.58,1.77.6,3.7.05,5.48-.06.18.23.26.29.08h0Z"/>
    </g>
    <g>
      <path class="cls-1" d="M167.32,181.95c-1.04-3.05-1.25-6.38-.6-9.54"/>
      <path d="M167.47,181.91c-1.03-3.04-1.24-6.32-.6-9.46.04-.19-.25-.27-.29-.08-.65,3.19-.45,6.53.6,9.62.06.18.35.1.29-.08h0Z"/>
    </g>
    <g>
      <path class="cls-1" d="M179.49,178.72c-1.81.31-3.71.65-5.15,1.78-.49.39-.92.86-1.34,1.32"/>
      <path d="M179.45,178.57c-1.84.31-3.79.67-5.29,1.88-.47.38-.87.82-1.27,1.27-.13.14.08.36.21.21.67-.74,1.35-1.43,2.24-1.9.82-.43,1.72-.68,2.62-.88.52-.11,1.04-.2,1.57-.29.19-.03.11-.32-.08-.29h0Z"/>
    </g>
    <g>
      <path class="cls-1" d="M178.97,182.17c-2.32,1.07-4.68,2.16-7.22,2.48"/>
      <path d="M178.9,182.04c-2.29,1.06-4.62,2.14-7.15,2.46-.19.02-.19.32,0,.3,2.58-.33,4.96-1.42,7.3-2.5.17-.08.02-.34-.15-.26h0Z"/>
    </g>
    <g>
      <path class="cls-1" d="M166.15,183.78c-1.88-.47-3.82-.73-5.77-.78"/>
      <path d="M166.19,183.64c-1.9-.47-3.85-.74-5.81-.79-.19,0-.19.29,0,.3,1.93.05,3.85.31,5.73.78.19.05.27-.24.08-.29h0Z"/>
    </g>
    <g>
      <path class="cls-1" d="M165.28,186.09c-1.52.03-3.04.02-4.55-.02"/>
      <path d="M165.28,185.94c-1.52.03-3.04.02-4.55-.02-.19,0-.19.3,0,.3,1.52.04,3.04.04,4.55.02.19,0,.19-.3,0-.3h0Z"/>
    </g>
    <g>
      <path class="cls-1" d="M164.99,188.66c-1.67,1.22-3.52,2.21-5.47,2.93"/>
      <path d="M164.91,188.53c-1.67,1.21-3.5,2.19-5.43,2.91-.18.07-.1.36.08.29,1.96-.73,3.81-1.71,5.5-2.94.15-.11,0-.37-.15-.26h0Z"/>
    </g>
    <g>
      <path class="cls-1" d="M169.58,188.98c1.98,1.56,3.04,4.18,2.68,6.65"/>
      <path d="M169.48,189.08c1.5,1.19,2.48,2.99,2.67,4.9.05.54.04,1.08-.03,1.61-.03.19.26.27.29.08.28-1.97-.29-4.01-1.51-5.58-.35-.45-.76-.86-1.21-1.22-.15-.12-.36.09-.21.21h0Z"/>
    </g>
    <g>
      <path class="cls-1" d="M168.99,190.7c-.43,2.1-.27,4.32.44,6.34"/>
      <path d="M168.85,190.66c-.43,2.13-.28,4.36.44,6.42.06.18.35.1.29-.08-.71-2-.86-4.18-.44-6.26.04-.19-.25-.27-.29-.08h0Z"/>
    </g>
    <g>
      <path class="cls-1" d="M166.96,191.4c-.42,2.21-.83,4.51-.29,6.69"/>
      <path d="M166.82,191.36c-.42,2.22-.84,4.53-.29,6.77.05.19.34.11.29-.08-.54-2.18-.12-4.44.29-6.61.04-.19-.25-.27-.29-.08h0Z"/>
    </g>
    <g>
      <path class="cls-1" d="M177.06,188.36c-1.01-.71-2.22-1.09-3.4-1.46-.47-.15-.94-.29-1.4-.44"/>
      <path d="M177.13,188.23c-.69-.48-1.47-.82-2.27-1.09-.85-.3-1.71-.55-2.57-.82-.18-.06-.26.23-.08.29.85.26,1.7.51,2.53.8.78.27,1.55.6,2.23,1.08.16.11.31-.15.15-.26h0Z"/>
    </g>
    <g>
      <path class="cls-1" d="M175.17,189.17c-.94-.19-1.86-.5-2.72-.92"/>
      <path d="M175.21,189.02c-.93-.19-1.83-.49-2.69-.91-.07-.04-.16-.02-.21.05-.04.07-.02.17.05.21.87.43,1.8.75,2.76.94.08.02.16-.02.18-.1.02-.07-.02-.17-.1-.18h0Z"/>
    </g>
    <g>
      <path class="cls-1" d="M186.91,194.59c-1.07,2.47-2.81,4.66-4.98,6.28"/>
      <path d="M186.78,194.51c-.83,1.91-2.05,3.64-3.56,5.07-.43.41-.89.8-1.36,1.15-.15.11,0,.38.15.26,1.7-1.28,3.14-2.88,4.21-4.72.31-.52.58-1.06.82-1.62.08-.18-.18-.33-.26-.15h0Z"/>
    </g>
    <g>
      <path class="cls-1" d="M184.19,193.91c-2.18,1.02-4.82,1.15-6.67,2.68"/>
      <path d="M184.12,193.78c-1.72.8-3.65,1.03-5.36,1.86-.48.23-.93.51-1.34.85-.15.12.06.33.21.21,1.46-1.2,3.4-1.52,5.15-2.09.51-.16,1-.35,1.49-.57.17-.08.02-.34-.15-.26h0Z"/>
    </g>
    <g>
      <path class="cls-1" d="M199.64,192.41c-2.63-.48-5.33-.56-7.99-.24"/>
      <path d="M199.68,192.26c-2.65-.48-5.36-.56-8.03-.25-.19.02-.19.32,0,.3,2.64-.31,5.33-.24,7.95.24.19.03.27-.26.08-.29h0Z"/>
    </g>
    <g>
      <path class="cls-1" d="M198.79,195.34c-2.6-.32-5.16-1.04-7.55-2.1"/>
      <path d="M198.79,195.19c-2.57-.32-5.1-1.03-7.47-2.08-.17-.08-.33.18-.15.26,2.42,1.08,4.99,1.79,7.62,2.12.19.02.19-.28,0-.3h0Z"/>
    </g>
    <g>
      <path class="cls-1" d="M192.14,195.11c.71.83,1.3,1.76,1.76,2.75.39.84.69,1.74,1.34,2.4"/>
      <path d="M192.03,195.22c.53.63.99,1.3,1.38,2.02.37.68.63,1.41.99,2.1.2.37.43.73.72,1.03.13.14.35-.07.21-.21-.53-.55-.82-1.26-1.12-1.94-.32-.74-.69-1.45-1.14-2.11-.26-.38-.53-.75-.83-1.1-.12-.15-.34.07-.21.21h0Z"/>
    </g>
    <g>
      <path class="cls-1" d="M207.93,203.41c.62-2.54.71-5.21.27-7.79"/>
      <path d="M208.07,203.45c.63-2.58.71-5.26.27-7.87-.03-.19-.32-.11-.29.08.44,2.56.35,5.19-.27,7.71-.05.19.24.27.29.08h0Z"/>
    </g>
    <g>
      <path class="cls-1" d="M206.14,203.52c-.99-1.57-1.63-3.36-1.85-5.19"/>
      <path d="M206.27,203.45c-.97-1.55-1.61-3.3-1.83-5.12-.02-.19-.32-.19-.3,0,.23,1.87.86,3.67,1.87,5.27.1.16.36.01.26-.15h0Z"/>
    </g>
    <g>
      <path class="cls-1" d="M216.34,197.96c-1.57,2.03-3.01,4.17-4.3,6.38"/>
      <path d="M216.23,197.86c-1.23,1.59-2.38,3.24-3.44,4.95-.3.49-.59.98-.88,1.47-.1.17.16.32.26.15,1.28-2.21,2.71-4.33,4.27-6.35.12-.15-.09-.36-.21-.21h0Z"/>
    </g>
    <g>
      <path class="cls-1" d="M220.71,199.87c-1.28,1.27-2.74,2.36-4.33,3.23"/>
      <path d="M220.6,199.76c-.99.98-2.09,1.86-3.27,2.6-.34.21-.68.41-1.03.61-.17.09-.02.35.15.26,1.24-.68,2.41-1.5,3.47-2.43.3-.27.6-.54.88-.82.14-.14-.07-.35-.21-.21h0Z"/>
    </g>
    <g>
      <path class="cls-1" d="M220.55,212.53c-3.32-1.08-6.59-2.28-9.81-3.61"/>
      <path d="M220.59,212.38c-3.32-1.08-6.59-2.28-9.81-3.61-.18-.07-.26.22-.08.29,3.22,1.33,6.5,2.54,9.81,3.61.18.06.26-.23.08-.29h0Z"/>
    </g>
    <g>
      <path class="cls-1" d="M219.12,216.12c-2.12-.65-4.1-1.76-5.75-3.23"/>
      <path d="M219.16,215.97c-1.63-.5-3.17-1.27-4.55-2.27-.39-.29-.77-.59-1.14-.91-.14-.13-.36.08-.21.21,1.3,1.15,2.79,2.09,4.4,2.76.46.19.93.36,1.41.51.18.06.26-.23.08-.29h0Z"/>
    </g>
    <g>
      <path class="cls-1" d="M208.23,210.47c.36,1.94.25,3.96-.34,5.85"/>
      <path d="M208.09,210.51c.35,1.92.23,3.91-.34,5.77-.06.18.23.26.29.08.59-1.92.7-3.96.34-5.93-.04-.19-.32-.11-.29.08h0Z"/>
    </g>
    <g>
      <path class="cls-1" d="M206.56,210.35c-.72,2.07-1.19,4.22-1.38,6.39-.08.96-.11,1.96.32,2.82"/>
      <path d="M206.42,210.31c-.55,1.57-.95,3.19-1.19,4.83-.11.77-.21,1.55-.23,2.32s.06,1.49.39,2.18c.08.17.34.02.26-.15-.33-.68-.37-1.44-.34-2.19.04-.78.13-1.57.26-2.34.25-1.56.63-3.09,1.15-4.57.06-.18-.23-.26-.29-.08h0Z"/>
    </g>
    <g>
      <path class="cls-1" d="M202.87,208.74c-.9.46-1.94.55-2.96.5s-2.01-.22-3.02-.27"/>
      <path d="M202.8,208.61c-1.84.92-3.96.31-5.9.21-.19,0-.19.29,0,.3,2.01.1,4.15.7,6.05-.25.17-.09.02-.35-.15-.26h0Z"/>
    </g>
    <g>
      <path class="cls-1" d="M203.63,206.76c-1.5-.1-3.02-.07-4.52.1"/>
      <path d="M203.63,206.61c-1.5-.1-3.02-.07-4.52.1-.19.02-.19.32,0,.3,1.5-.17,3.01-.2,4.52-.1.19.01.19-.29,0-.3h0Z"/>
    </g>
    <g>
      <path class="cls-1" d="M180.68,219.68c-.55-1.5-1.52-2.83-2.66-3.97-1.13-1.15-2.42-2.13-3.7-3.11"/>
      <path d="M180.82,219.64c-.88-2.38-2.71-4.21-4.64-5.78-.59-.47-1.19-.93-1.79-1.39-.15-.12-.3.14-.15.26,1.98,1.51,4.01,3.06,5.38,5.18.37.57.68,1.17.91,1.81.07.18.36.1.29-.08h0Z"/>
    </g>
    <g>
      <path class="cls-1" d="M177.67,220.12c-2.47-1.38-4.66-3.26-6.38-5.49"/>
      <path d="M177.74,219.99c-1.92-1.07-3.66-2.44-5.15-4.05-.42-.45-.82-.93-1.2-1.42-.12-.15-.33.06-.21.21,1.35,1.75,2.98,3.27,4.8,4.52.52.36,1.06.69,1.61,1,.17.09.32-.16.15-.26h0Z"/>
    </g>
    <g>
      <path class="cls-1" d="M186.54,216.35c1.52-1.79,2.67-3.9,3.34-6.14"/>
      <path d="M186.64,216.46c1.19-1.41,2.16-3,2.85-4.71.2-.49.37-.99.53-1.49.06-.19-.23-.26-.29-.08-.52,1.73-1.32,3.37-2.35,4.84-.3.42-.61.83-.95,1.23-.12.15.09.36.21.21h0Z"/>
    </g>
    <g>
      <path class="cls-1" d="M185.03,213.87c.72-2.41,2.02-4.66,3.76-6.5"/>
      <path d="M185.18,213.91c.56-1.86,1.46-3.62,2.64-5.16.34-.44.7-.86,1.08-1.27.13-.14-.08-.35-.21-.21-1.36,1.45-2.46,3.13-3.22,4.97-.22.52-.41,1.06-.57,1.6-.06.19.23.26.29.08h0Z"/>
    </g>
    <g>
      <path class="cls-1" d="M194.63,218.59c-2.74.36-5.39,1.38-7.66,2.95"/>
      <path d="M194.59,218.45c-2.75.37-5.41,1.39-7.7,2.96-.16.11,0,.37.15.26,2.27-1.56,4.89-2.56,7.63-2.93.19-.03.11-.31-.08-.29h0Z"/>
    </g>
    <g>
      <path class="cls-1" d="M196.32,221.83c-2.21,1.16-4.72,1.75-7.21,1.7"/>
      <path d="M196.24,221.7c-2.2,1.15-4.66,1.72-7.14,1.67-.19,0-.19.3,0,.3,2.53.05,5.05-.55,7.29-1.72.17-.09.02-.35-.15-.26h0Z"/>
    </g>
    <g>
      <path class="cls-1" d="M181.75,227.36c.36,3.05-.28,6.2-1.8,8.88"/>
      <path d="M181.6,227.36c.35,3.04-.28,6.14-1.78,8.81-.09.17.16.32.26.15,1.53-2.71,2.18-5.87,1.82-8.96-.02-.19-.32-.19-.3,0h0Z"/>
    </g>
    <g>
      <path class="cls-1" d="M179.18,231.2c-.92,1.5-1.86,3.07-2.03,4.82-.1.99.06,1.99.28,2.96"/>
      <path d="M179.05,231.13c-.71,1.16-1.42,2.34-1.81,3.66-.41,1.41-.27,2.83.04,4.24.04.19.33.11.29-.08-.3-1.39-.44-2.77-.02-4.15.38-1.26,1.07-2.4,1.76-3.52.1-.17-.16-.32-.26-.15h0Z"/>
    </g>
    <g>
      <path class="cls-1" d="M185.04,229c-.35,3.38-.76,6.94-2.84,9.65"/>
      <path d="M184.89,229c-.34,3.31-.74,6.84-2.82,9.58-.12.15.14.3.26.15,1.63-2.14,2.25-4.82,2.6-7.43.1-.76.18-1.53.26-2.29.02-.19-.28-.19-.3,0h0Z"/>
    </g>
    <g>
      <path class="cls-1" d="M176.14,224.78c-2.1-.21-4.23-.19-6.32.07"/>
      <path d="M176.14,224.63c-2.1-.21-4.22-.19-6.32.07-.19.02-.19.32,0,.3,2.1-.26,4.22-.28,6.32-.07.19.02.19-.28,0-.3h0Z"/>
    </g>
    <g>
      <path class="cls-1" d="M175.09,227.68c-1.2.68-2.65.74-4.03.66-1.84-.12-3.67-.47-5.42-1.06"/>
      <path d="M175.02,227.55c-1.36.75-2.98.73-4.48.6-1.65-.15-3.28-.49-4.85-1.02-.18-.06-.26.23-.08.29,1.62.54,3.31.89,5.02,1.04,1.53.13,3.16.12,4.55-.64.17-.09.02-.35-.15-.26h0Z"/>
    </g>
    <g>
      <path class="cls-1" d="M189.34,228.08c3.77.87,7.17,3.17,9.35,6.32"/>
      <path d="M189.3,228.23c2.9.68,5.59,2.19,7.67,4.32.58.6,1.12,1.24,1.59,1.93.11.16.37,0,.26-.15-1.73-2.49-4.17-4.43-6.96-5.59-.8-.33-1.63-.6-2.47-.8-.19-.04-.27.25-.08.29h0Z"/>
    </g>
    <g>
      <path class="cls-1" d="M192.69,231.95c1.99,1.59,4.09,3.06,6.27,4.37"/>
      <path d="M192.58,232.06c1.56,1.25,3.18,2.42,4.85,3.5.48.31.96.61,1.45.9.17.1.32-.16.15-.26-1.69-1.02-3.33-2.12-4.9-3.31-.45-.34-.9-.69-1.34-1.04-.15-.12-.36.09-.21.21h0Z"/>
    </g>
    <g>
      <path class="cls-1" d="M190.09,232.22c1.11,2.21,3.05,4,5.36,4.95"/>
      <path d="M189.96,232.3c.89,1.76,2.28,3.24,3.96,4.27.48.29.97.54,1.49.75.18.07.26-.22.08-.29-1.76-.73-3.32-1.96-4.43-3.5-.32-.44-.6-.9-.84-1.38-.09-.17-.35-.02-.26.15h0Z"/>
    </g>
    <g>
      <path class="cls-1" d="M207.73,234.44c.31-1.77.29-3.6-.07-5.36"/>
      <path d="M207.88,234.48c.31-1.8.29-3.65-.07-5.44-.04-.19-.33-.11-.29.08.35,1.74.38,3.53.07,5.28-.03.19.26.27.29.08h0Z"/>
    </g>
    <g>
      <path class="cls-1" d="M205.61,234.6c-1.44-2.17-2.36-4.66-2.68-7.23"/>
      <path d="M205.74,234.53c-1.42-2.15-2.34-4.6-2.66-7.16-.02-.19-.32-.19-.3,0,.33,2.61,1.25,5.11,2.7,7.31.11.16.37.01.26-.15h0Z"/>
    </g>
    <g>
      <path class="cls-1" d="M204.21,236.06c-1.16-.38-2.26-.94-3.25-1.64"/>
      <path d="M204.25,235.91c-1.14-.38-2.23-.93-3.21-1.62-.07-.05-.17-.01-.21.05-.04.08-.01.16.05.21,1.01.71,2.12,1.27,3.28,1.65.18.06.26-.23.08-.29h0Z"/>
    </g>
    <g>
      <path class="cls-1" d="M215.75,234.98c2.8-.79,5.36-2.4,7.26-4.58"/>
      <path d="M215.79,235.12c2.19-.62,4.24-1.73,5.95-3.24.49-.43.95-.89,1.37-1.38.13-.14-.08-.36-.21-.21-1.47,1.68-3.33,3.02-5.38,3.9-.59.25-1.19.46-1.81.64-.19.05-.11.34.08.29h0Z"/>
    </g>
    <g>
      <path class="cls-1" d="M213.87,233.2c1.62-1.3,3.34-2.49,5.13-3.55"/>
      <path d="M213.98,233.31c1.26-1.01,2.57-1.95,3.93-2.81.39-.24.78-.48,1.17-.71.17-.1.02-.36-.15-.26-1.41.83-2.77,1.73-4.07,2.72-.37.28-.73.56-1.09.85-.15.12.06.33.21.21h0Z"/>
    </g>
    <g>
      <path class="cls-1" d="M223.36,242.82c-2.56-1.66-5.45-2.83-8.46-3.43"/>
      <path d="M223.43,242.69c-2.59-1.67-5.48-2.84-8.5-3.45-.19-.04-.27.25-.08.29,3,.6,5.86,1.76,8.43,3.42.16.11.31-.15.15-.26h0Z"/>
    </g>
    <g>
      <path class="cls-1" d="M220.04,246.44c-1.44-1.98-3.13-3.79-5.02-5.37"/>
      <path d="M220.17,246.36c-1.13-1.56-2.41-3.01-3.82-4.32-.4-.37-.81-.73-1.22-1.08-.15-.12-.36.09-.21.21,1.46,1.22,2.8,2.57,4,4.04.34.42.68.85,1,1.29.11.15.37,0,.26-.15h0Z"/>
    </g>
    <g>
      <path class="cls-1" d="M211.66,242.25c.57,2.54.6,5.19.09,7.74"/>
      <path d="M211.51,242.29c.56,2.52.59,5.14.09,7.66-.04.19.25.27.29.08.51-2.58.48-5.25-.09-7.82-.04-.19-.33-.11-.29.08h0Z"/>
    </g>
    <g>
      <path class="cls-1" d="M209.85,246.61c-.38,1.86-.75,3.74-.71,5.63"/>
      <path d="M209.71,246.57c-.38,1.87-.75,3.76-.71,5.67,0,.19.3.19.3,0-.04-1.89.33-3.75.7-5.59.04-.19-.25-.27-.29-.08h0Z"/>
    </g>
    <g>
      <path class="cls-1" d="M207.56,241.92c-.97,2.62-2.63,4.99-4.78,6.82"/>
      <path d="M207.41,241.88c-.76,2.03-1.93,3.9-3.41,5.48-.42.45-.87.87-1.33,1.27-.15.13.07.34.21.21,1.68-1.43,3.07-3.2,4.07-5.17.28-.56.53-1.13.75-1.71.07-.18-.22-.26-.29-.08h0Z"/>
    </g>
    <g>
      <path class="cls-1" d="M206.53,239.97c-1.12.44-2.28.91-3.12,1.76-.57.58-.96,1.3-1.34,2.01"/>
      <path d="M206.49,239.83c-.73.29-1.47.58-2.14.99s-1.25.96-1.7,1.63c-.26.39-.48.8-.7,1.22-.09.17.17.32.26.15.37-.7.75-1.41,1.31-1.97.53-.53,1.18-.91,1.86-1.22.39-.18.79-.34,1.19-.5.18-.07.1-.36-.08-.29h0Z"/>
    </g>
    <g>
      <path class="cls-1" d="M187.85,247.43c.62-1.88,2.06-3.48,3.89-4.31"/>
      <path d="M188,247.47c.48-1.44,1.44-2.71,2.68-3.57.36-.25.74-.47,1.14-.65.18-.08.02-.34-.15-.26-1.44.65-2.66,1.79-3.43,3.17-.22.39-.39.8-.53,1.22-.06.18.23.26.29.08h0Z"/>
    </g>
    <g>
      <path class="cls-1" d="M191.26,246.99c1.35-.46,2.71-.93,3.93-1.66.79-.47,1.57-1.13,1.73-2.03"/>
      <path d="M191.3,247.13c.96-.33,1.92-.66,2.84-1.09.82-.38,1.68-.82,2.29-1.5.31-.34.55-.75.64-1.21.04-.19-.25-.27-.29-.08-.15.81-.8,1.39-1.46,1.82-.79.51-1.67.89-2.55,1.22-.51.19-1.03.37-1.55.55-.18.06-.1.35.08.29h0Z"/>
    </g>
    <g>
      <path class="cls-1" d="M197.31,258.82c-.18-.97-.54-1.91-1.09-2.73-1.43-2.1-3.97-3.14-6.36-4.07"/>
      <path d="M197.45,258.78c-.27-1.45-.94-2.78-1.99-3.81-.97-.95-2.17-1.63-3.4-2.19-.71-.33-1.44-.61-2.17-.9-.18-.07-.26.22-.08.29,2.41.94,5.11,2.01,6.49,4.36.43.72.7,1.52.85,2.34.04.19.32.11.29-.08h0Z"/>
    </g>
    <g>
      <path class="cls-1" d="M190.25,254.94c.16,1.32.84,2.55,1.72,3.56s1.95,1.85,3.01,2.68"/>
      <path d="M190.1,254.94c.27,2.13,1.71,3.81,3.29,5.16.48.41.99.81,1.49,1.2.15.12.36-.09.21-.21-1.63-1.27-3.33-2.61-4.22-4.53-.23-.51-.4-1.05-.47-1.61-.02-.19-.32-.19-.3,0h0Z"/>
    </g>
    <g>
      <path class="cls-1" d="M184.4,254.57c-.43,2.85-1.33,5.62-2.67,8.18"/>
      <path d="M184.26,254.53c-.43,2.84-1.33,5.6-2.65,8.14-.09.17.17.32.26.15,1.33-2.57,2.25-5.35,2.68-8.22.03-.19-.26-.27-.29-.08h0Z"/>
    </g>
    <g>
      <path class="cls-1" d="M181.65,255.38c-2.12,2-3.53,4.72-3.94,7.58"/>
      <path d="M181.54,255.27c-1.65,1.57-2.89,3.56-3.56,5.74-.19.62-.33,1.26-.43,1.91-.03.19.26.27.29.08.32-2.22,1.23-4.34,2.62-6.11.39-.5.82-.97,1.28-1.41.14-.13-.07-.35-.21-.21h0Z"/>
    </g>
    <g>
      <path class="cls-1" d="M181.79,247.51c-.64-1.86-2.04-3.46-3.82-4.36"/>
      <path d="M181.93,247.47c-.52-1.49-1.49-2.8-2.75-3.74-.36-.27-.74-.5-1.14-.71-.17-.09-.32.17-.15.26,1.36.69,2.5,1.78,3.24,3.11.21.37.38.76.52,1.16.06.18.35.1.29-.08h0Z"/>
    </g>
    <g>
      <path class="cls-1" d="M180.28,249.08c-2.49-1.24-4.87-2.71-7.08-4.39"/>
      <path d="M180.36,248.95c-2.49-1.24-4.86-2.71-7.08-4.39-.15-.12-.3.14-.15.26,2.22,1.68,4.59,3.15,7.08,4.39.17.09.32-.17.15-.26h0Z"/>
    </g>
    <g>
      <path class="cls-1" d="M179.71,251.15c-1.85-.17-3.68-.56-5.44-1.14"/>
      <path d="M179.71,251c-1.84-.18-3.65-.56-5.4-1.14-.18-.06-.26.23-.08.29,1.78.59,3.62.97,5.48,1.15.19.02.19-.28,0-.3h0Z"/>
    </g>
    <g>
      <path class="cls-1" d="M149.37,241.93c-2.44-.71-5.1-.64-7.5.18"/>
      <path d="M149.41,241.79c-2.47-.71-5.15-.65-7.58.18-.18.06-.1.35.08.29,2.39-.81,5-.88,7.42-.18.19.05.27-.24.08-.29h0Z"/>
    </g>
    <g>
      <path class="cls-1" d="M148.23,244.15c-2.73,1.17-5.66,1.88-8.63,2.08"/>
      <path d="M148.16,244.02c-2.71,1.16-5.61,1.85-8.55,2.06-.19.01-.19.31,0,.3,3-.21,5.94-.93,8.7-2.11.18-.08.02-.33-.15-.26h0Z"/>
    </g>
    <g>
      <path class="cls-1" d="M150.18,246.08c-1.84,1.78-4.01,3.23-6.37,4.26"/>
      <path d="M150.08,245.97c-1.43,1.38-3.05,2.56-4.8,3.49-.5.27-1.02.51-1.54.74-.18.08-.02.34.15.26,1.85-.8,3.58-1.86,5.13-3.14.44-.36.86-.74,1.27-1.13.14-.13-.07-.35-.21-.21h0Z"/>
    </g>
    <g>
      <path class="cls-1" d="M159.49,244.48c.99.9,1.9,1.9,2.56,3.05s1.07,2.47,1.02,3.8"/>
      <path d="M159.39,244.58c1.5,1.36,2.84,3,3.35,5,.14.57.21,1.16.19,1.74,0,.19.29.19.3,0,.06-2.14-.98-4.12-2.36-5.68-.4-.45-.82-.87-1.27-1.27-.14-.13-.36.08-.21.21h0Z"/>
    </g>
    <g>
      <path class="cls-1" d="M157.5,247.02c.37,2.21,1.16,4.36,2.32,6.28"/>
      <path d="M157.36,247.06c.37,2.23,1.17,4.38,2.33,6.32.1.17.36.01.26-.15-1.15-1.92-1.94-4.04-2.3-6.25-.03-.19-.32-.11-.29.08h0Z"/>
    </g>
    <g>
      <path class="cls-1" d="M155.23,245.84c-.38.78-.76,1.56-.91,2.41-.23,1.35.21,2.78,1.14,3.79"/>
      <path d="M155.1,245.76c-.42.85-.84,1.73-.95,2.68-.1.85.05,1.72.41,2.5.2.44.47.84.8,1.2.13.14.34-.07.21-.21-.7-.76-1.11-1.77-1.15-2.8-.04-1.16.44-2.2.94-3.22.08-.17-.17-.33-.26-.15h0Z"/>
    </g>
    <g>
      <path class="cls-1" d="M168.39,235.91c-1.21-.31-2.43-.63-3.68-.67s-2.54.2-3.56.92"/>
      <path d="M168.43,235.76c-2.37-.61-5.17-1.26-7.35.26-.16.11,0,.37.15.26,2.12-1.47,4.82-.82,7.12-.23.19.05.27-.24.08-.29h0Z"/>
    </g>
    <g>
      <path class="cls-1" d="M168.15,239.16c-1.47-.09-2.9-.47-4.36-.65s-3.01-.14-4.31.54"/>
      <path d="M168.15,239.01c-2.88-.2-5.98-1.52-8.75-.09-.17.09-.02.35.15.26,2.7-1.39,5.79-.06,8.59.13.19.01.19-.29,0-.3h0Z"/>
    </g>
    <g>
      <path class="cls-1" d="M159.07,229.98c-.28,1.95-1.05,3.84-2.23,5.43"/>
      <path d="M158.92,229.94c-.28,1.95-1.05,3.81-2.22,5.4-.11.16.15.31.26.15,1.18-1.6,1.96-3.49,2.25-5.47.03-.19-.26-.27-.29-.08h0Z"/>
    </g>
    <g>
      <path class="cls-1" d="M156.86,228.22c-1.46,3.04-2.28,6.37-2.38,9.73"/>
      <path d="M156.73,228.14c-1.47,3.06-2.29,6.41-2.4,9.81,0,.19.29.19.3,0,.11-3.34.91-6.64,2.36-9.66.08-.17-.18-.33-.26-.15h0Z"/>
    </g>
    <g>
      <path class="cls-1" d="M149.99,236.58c-.55-2.8-1.91-5.43-3.89-7.51"/>
      <path d="M150.13,236.54c-.43-2.2-1.36-4.3-2.69-6.11-.38-.52-.79-1.01-1.23-1.47-.13-.14-.34.07-.21.21,1.52,1.6,2.68,3.54,3.38,5.64.2.59.35,1.2.47,1.81.04.19.33.11.29-.08h0Z"/>
    </g>
    <g>
      <path class="cls-1" d="M146.84,235.68c-1.75-1.61-3.18-3.56-4.19-5.7"/>
      <path d="M146.95,235.57c-1.35-1.25-2.52-2.7-3.44-4.3-.26-.45-.5-.91-.72-1.38-.08-.17-.34-.02-.26.15.79,1.68,1.84,3.24,3.09,4.61.36.39.73.77,1.12,1.13.14.13.35-.08.21-.21h0Z"/>
    </g>
    <g>
      <path class="cls-1" d="M172.53,252.01c-2.03,1.27-4.37,2.07-6.76,2.32"/>
      <path d="M172.46,251.88c-2.02,1.25-4.32,2.05-6.68,2.3-.19.02-.19.32,0,.3,2.42-.26,4.77-1.06,6.83-2.34.16-.1.01-.36-.15-.26h0Z"/>
    </g>
    <g>
      <path class="cls-1" d="M169.53,249.81c-.65.13-1.3.29-1.94.47"/>
      <path d="M169.49,249.67c-.65.13-1.3.29-1.94.47-.08.02-.13.11-.1.18s.1.13.18.1c.64-.18,1.29-.34,1.94-.47.08-.02.13-.11.1-.18-.03-.08-.1-.12-.18-.1h0Z"/>
    </g>
    <g>
      <path class="cls-1" d="M176.23,203.22c-.55,2.44-1.69,4.75-3.32,6.67"/>
      <path d="M176.09,203.19c-.43,1.88-1.2,3.67-2.27,5.27-.31.46-.65.91-1.01,1.34-.12.15.09.36.21.21,1.27-1.51,2.26-3.25,2.9-5.13.18-.53.33-1.07.46-1.61.04-.19-.25-.27-.29-.08h0Z"/>
    </g>
    <g>
      <path class="cls-1" d="M173.11,203.77c-1.02.88-1.7,2.14-1.87,3.46"/>
      <path d="M173,203.66c-.8.7-1.4,1.63-1.72,2.65-.09.29-.15.58-.19.88-.01.08.02.16.1.18.07.02.17-.02.18-.1.14-1.01.56-1.99,1.22-2.77.19-.22.39-.43.61-.63.15-.13-.07-.34-.21-.21h0Z"/>
    </g>
    <g>
      <path class="cls-1" d="M162.73,208.19c1.25-1.84,1.68-4.2,1.18-6.36"/>
      <path d="M162.86,208.26c.98-1.46,1.48-3.24,1.4-5-.02-.5-.09-.99-.2-1.47-.04-.19-.33-.11-.29.08.49,2.13.06,4.43-1.16,6.24-.11.16.15.31.26.15h0Z"/>
    </g>
    <g>
      <path class="cls-1" d="M160.35,204.74c-.34-1.87-.48-3.78-.4-5.68"/>
      <path d="M160.49,204.7c-.34-1.86-.47-3.75-.4-5.64,0-.19-.29-.19-.3,0-.07,1.92.07,3.84.41,5.72.03.19.32.11.29-.08h0Z"/>
    </g>
    <g>
      <path class="cls-1" d="M161.57,213.64c2.21.37,4.12,2.11,4.66,4.25"/>
      <path d="M161.53,213.78c1.68.29,3.18,1.36,4.02,2.83.24.41.42.85.53,1.31.05.19.34.11.29-.08-.44-1.72-1.72-3.17-3.32-3.91-.46-.21-.95-.37-1.45-.45-.19-.03-.27.26-.08.29h0Z"/>
    </g>
    <g>
      <path class="cls-1" d="M160.36,215.04c.6,1.06.95,2.25,1.55,3.31s1.54,2.05,2.76,2.25"/>
      <path d="M160.24,215.12c.96,1.71,1.36,3.83,3.05,5.04.4.29.86.5,1.35.58.19.03.27-.26.08-.29-1.91-.33-2.79-2.29-3.46-3.88-.23-.55-.47-1.09-.76-1.61-.09-.17-.35-.02-.26.15h0Z"/>
    </g>
    <g>
      <path class="cls-1" d="M156.15,215.11c-.12.67-.45,1.29-.83,1.87-1.17,1.77-2.84,3.21-4.78,4.12"/>
      <path d="M156,215.07c-.2,1.09-.91,2.07-1.61,2.9s-1.48,1.52-2.36,2.11c-.5.33-1.02.63-1.56.88-.17.08-.02.34.15.26,1.97-.93,3.69-2.41,4.87-4.24.36-.56.68-1.17.8-1.84.04-.19-.25-.27-.29-.08h0Z"/>
    </g>
    <g>
      <path class="cls-1" d="M154.87,213.33c-1.98.94-4.16,1.73-5.51,3.43"/>
      <path d="M154.8,213.2c-1.55.73-3.18,1.35-4.53,2.44-.37.3-.71.64-1.01,1.01-.12.15.09.36.21.21,1.07-1.33,2.64-2.1,4.17-2.8.44-.2.88-.4,1.32-.6.17-.08.02-.34-.15-.26h0Z"/>
    </g>
    <g>
      <path class="cls-1" d="M156.43,209.1c-.03-.53-.37-.99-.73-1.39-1.31-1.45-2.96-2.57-4.59-3.67"/>
      <path d="M156.58,209.1c-.03-.47-.26-.87-.55-1.23-.31-.39-.68-.75-1.04-1.09-.74-.69-1.55-1.3-2.37-1.89-.47-.34-.95-.66-1.43-.99-.16-.11-.31.15-.15.26,1.6,1.08,3.22,2.18,4.53,3.61.34.37.69.8.72,1.31.01.19.31.19.3,0h0Z"/>
    </g>
    <g>
      <path class="cls-1" d="M154.48,209.07c-2.07-.34-4-1.43-5.35-3.01"/>
      <path d="M154.52,208.92c-1.59-.27-3.1-.96-4.32-2.01-.34-.29-.66-.62-.96-.96-.13-.15-.34.07-.21.21,1.07,1.25,2.49,2.19,4.05,2.71.45.15.9.26,1.37.34.19.03.27-.26.08-.29h0Z"/>
    </g>
  </g>
  <g>
    <g>
      <path class="cls-4" d="M126.79,130.03s8.36-5.48,4.18-10.89c-4.18-5.41-12.29-1.02-12.29-1.02l-1.8,9.21,2.62,3.95,7.29-1.24Z"/>
      <path class="cls-4" d="M131.81,157.33s8.36-5.48,4.18-10.89c-4.18-5.41-12.29-1.02-12.29-1.02l-1.8,9.21,2.62,3.95,7.29-1.24Z"/>
      <path class="cls-4" d="M115.47,209.72s-3.31-8.1,0-11.2,7.81-3.22,8.77-1.87c.96,1.34,2.99,9.89,1.5,12.12s-6.41,4.65-10.27.95Z"/>
      <path class="cls-4" d="M123.39,274.63s-11.93-2.53-13.88-8.02c-1.95-5.48.46-10.01,2.68-10,2.22.01,13.96,4.13,15.87,7.19,1.91,3.06,2.11,9.65-4.67,10.82Z"/>
      <path class="cls-4" d="M128.59,209.13s-.77-9.29,1.92-11.24,5.76-7.82,10.37-4.69c4.61,3.13,3.17,12.13,2.21,14.37s-1.27,10.43-1.27,10.43c0,0-10.93-4.28-11.31-4.47s-1.92-4.4-1.92-4.4Z"/>
      <path class="cls-4" d="M104.75,233.01s6.05,12.85,19.48,6.64c13.43-6.21-2.95-13.81-2.95-13.81,0,0-6.04-3-10.87-2.14-4.83.86-5.66,9.32-5.66,9.32Z"/>
      <path class="cls-4" d="M132.08,244.45s-4.19-12.45,5.17-12.76,9.47,12.55,9.47,12.55l-1.28,15.42-10.05.89-3.31-16.11Z"/>
      <path class="cls-4" d="M143.25,252.75s1.02-18.93,9.11-17.45c8.08,1.49,10,8.3,5.21,15.11s-13.11,5.95-14.32,5.1c-1.21-.85,0-2.76,0-2.76Z"/>
      <path class="cls-4" d="M145.65,269.46s8.72,3.94,12.98,0c4.25-3.94,5.53-13.57-5-17.16-10.53-3.59-14.7,10.88-14.7,10.88l6.72,6.28Z"/>
      <path class="cls-4" d="M100.55,266.9s19.15,1.89,18.4-6.34c-.74-8.23-8.51-11.21-11.49-11.32-2.98-.11-7.34-1.01-10,3.06s-3.84,12.5-3.84,12.5l6.92,2.1Z"/>
      <path class="cls-4" d="M86.09,262.45s-14.89-6.93-7.34-14.38c7.55-7.45,17.87-3.16,20.32,5.44s-2.34,11.29-2.34,11.29l-10.64-2.35Z"/>
      <path class="cls-4" d="M64.49,228.22s.9-8.55,7.47-6.95,12.53,5.43,11.78,13.19-16.17,10-16.17,10l-5-1.81,1.91-14.43Z"/>
      <path class="cls-4" d="M55.56,240.31s-11.7-8.72-8.83-17.66,17.98,1.38,18.51,2.76,2.34,13.03,2.34,13.03l-12.02,1.87Z"/>
      <path class="cls-4" d="M93.27,215.67s-5.66-16.38,3.87-18.42,13.17,8.57,13.17,8.57l2.25,10.92-5.89,8.67-11.78-2.68-1.63-7.07Z"/>
      <path class="cls-4" d="M103.57,223.48s-11.55-18.41-20.71-11.03,7.97,18.31,7.97,18.31l12.74-1.18v-6.1Z"/>
      <path class="cls-4" d="M74.1,201.48s10.87,16.03,18.38,2.48c7.52-13.55-20.52-9.15-20.52-9.15l2.14,6.67Z"/>
      <path class="cls-4" d="M66.5,199.77s-21.64-11.3-9.33-22.32c0,0,10.43-4.27,15.48,7.45s-.86,14.88-.86,14.88h-5.29Z"/>
      <path class="cls-4" d="M71.45,188.02s1.02-15.52,7.31-14.14,9.62,5.49,9.28,9.86-4.96,17.35-11.29,14.86-5.3-10.58-5.3-10.58Z"/>
      <path class="cls-4" d="M66.39,198.15s-13.07-.26-16.15,10.77c-3.08,11.03,22.83,3.68,22.83,3.68l1.69-11.81c.19-1.34-.84-2.54-2.19-2.56l-6.18-.08Z"/>
      <path class="cls-4" d="M72.39,219.78s-10.26-2.65-3.93-12.31c3.5-5.34,6.27-7.13,8.06-7.66,1.17-.35,2.39.36,2.7,1.54,1.32,4.91,4.36,19.57-6.83,18.43Z"/>
      <path class="cls-4" d="M73.27,159.68s-16.23-5.16-9.51-17.87c0,0,8-7.8,16.15,5.66l1.48,11.3-8.11.9Z"/>
      <path class="cls-4" d="M125.72,169.67s-2.16-16.11,7.57-14.9c9.73,1.2,9.01,9.82,7.09,13.86-1.92,4.04-8.24,12.09-8.24,12.09l-6.42-11.05Z"/>
      <path class="cls-4" d="M124.97,184.57s-9.83,1.35-8.98-5.02c.86-6.36,8.98-5.69,8.98-5.69l6.24,1.5,3.45,5.91-9.69,3.29Z"/>
      <path class="cls-4" d="M102.9,161.56s-12.62,17.84,0,21.08c12.62,3.24,10.17-15.02,10.17-15.02l-2.6-9.9-7.57,3.84Z"/>
      <path class="cls-4" d="M120.81,150.26s6.64-7.7,11.72-8.93,2.7-6.68,1.23-7.68-7.95-5.1-11.06-4.69-9.1,4.59-11.39,9.84c-2.29,5.25-2.31,8.77-1.89,9.59s11.4,1.89,11.4,1.89Z"/>
      <path class="cls-4" d="M103.37,104.92c-.15,2.17-3.27,3.72-5.24,2.6-6.02-3.44-18.96-9.69-11.56-15.56,8.2-6.5,14.98-2.2,16.23,5.97.49,3.22.67,5.42.57,6.99Z"/>
      <path class="cls-4" d="M103.86,99.36s-5.94-5.13-2.05-11.07c3.89-5.94,6.73-9.02,10.92-3.97,4.19,5.05,1.48,10.85,0,12.2s-2.47,5.18-8.87,2.83Z"/>
      <path class="cls-4" d="M107.47,118.84s-8.88.05-8.76-7.24c.19-11.88,3.51-12.43,10.07-10.51,6.57,1.92,8.57,8.81,7.79,10.79s-1.7,5.32-9.1,6.95Z"/>
      <path class="cls-4" d="M107.1,106.93s2.01,3.8,7.36,3.41c6.77-.5,8.26-4.31,7.64-6.29s-3.15-5.93-7.13-5.68-7.15-.48-8.4,3.59c-.98,3.2.53,4.97.53,4.97Z"/>
      <path class="cls-4" d="M89.59,123.47s-8.95-1.21-9.21-7.4-1.12-11.23,1.98-12.2c3.1-.97,7.15-.54,9.13,2.3s3.27,8.7,3.1,10.33-.77,6.89-4.99,6.97Z"/>
      <path class="cls-4" d="M92.07,126.78c-1.44-.71-2.4-2.13-2.58-3.7-.37-3.3-.36-9.59,4.54-12.32,6.8-3.79,7.11-3.22,9.55-1.45s3.33,5.09,3.12,7.53-.24,6.27-5.23,8.56c-3.94,1.82-6.65,2.73-9.4,1.37Z"/>
      <path class="cls-4" d="M119.71,127.97s6.15-12.87-1.8-15.82c-7.95-2.95-9.59,3.28-10,4.67s.08,7.38.74,8.69,4.84,6.23,8.03,5.49c3.2-.74,3.03-3.03,3.03-3.03Z"/>
      <path class="cls-4" d="M106.55,143.7s-7.7-4.75-5.82-10.9,3.36-8.36,6.23-9.14,6.62.94,7.7,2.17,4.1,4.43,3.7,6.72-5.42,12.46-11.81,11.15Z"/>
      <path class="cls-4" d="M89.71,124.92s.16,8.84-7.54,9.25c-7.7.41-12.13-4.1-10.9-6.15s4.11-5.48,7.58-6.58,7.18-2.02,8.57-1.04,2.37,3.31,2.29,4.52Z"/>
      <path class="cls-4" d="M90.98,142.06s-6.47-1.23-6.88-6.39,2.91-9.42,4.43-10.03,3.77-2.84,6.8-1.2,6.06,7.18,5.98,9.2-3.28,10.3-10.33,8.42Z"/>
      <path class="cls-4" d="M104.09,154.44s-.68-12.23,7.23-12.1c7.92.13,13.42,2.51,13.84,5.71.42,3.2,1.79,12.46-6.42,13.28-8.21.82-13-.66-13.88-2.46s-.78-4.43-.78-4.43Z"/>
      <path class="cls-4" d="M78.35,153.13s-1.38-12.21,5.7-13.11c7.08-.9,8.36,3.03,8.62,4.92s.56,10.9,0,12.29-7.02,5.66-8.62,5.16c-1.6-.49-6.05-2.25-5.7-9.26Z"/>
      <path class="cls-4" d="M94.34,139.48s-3.2,3.43-2.87,8.04,1.07,7.77,4.43,9.75,7.95,3.07,9.84,2.26,4.21-15.98,1.82-18.78c-2.39-2.8-8.29-5.6-13.21-1.26Z"/>
      <path class="cls-4" d="M69.34,156.82s-11.31-3.03-13.61,6.64,17.62,5.16,17.62,5.16l4.1-7.79-8.11-4.02Z"/>
      <path class="cls-4" d="M77.45,177.31s-11.36-2.73-5.69-10.41c5.67-7.67,8.89-7.54,11.27-6.72s4.92,4.26,4.18,9.02-3.03,9.1-9.75,8.11Z"/>
      <path class="cls-4" d="M105.73,162.43s-9.51,10.62-14.67,8.16-7.21-10.16-2.95-12.87c4.26-2.71,8.69-5.57,13.2-2.21,4.51,3.36,5.49,3.93,4.42,6.92Z"/>
      <path class="cls-4" d="M96.31,196.82s-14.62-10.5-13.03-15.55c1.59-5.05,7.04-7.84,10.77-7.44s6.58,5.32,7.14,8.51.28,14.22-1.44,14.49c-1.72.27-3.45,0-3.45,0Z"/>
      <path class="cls-4" d="M131.81,178.07s-21.03-1.32-21.7-11.53,8.24-7.85,9.85-7.69c1.61.16,8.79,6.97,10.92,13.22,2.13,6.25.93,6.01.93,6.01Z"/>
      <path class="cls-4" d="M131.51,177.42s-11.74,4.09-11.37,10.76c.37,6.67-.31,11.03,7.01,10.86,7.32-.17,10.64-13.58,9.47-16.84-1.17-3.26-5.1-4.78-5.1-4.78Z"/>
      <path class="cls-4" d="M108.45,199.7c-1.31-.12-2.55-.65-3.55-1.5-3.05-2.57-8.77-8.67-2.4-14.17,8.32-7.19,11.78-4.52,13.34-3.96,1.56.56,4.35,2.82,5.11,4.81s1.49,9.26-3.56,12.05c-4.3,2.38-5.62,3.08-8.94,2.76Z"/>
      <path class="cls-4" d="M103.57,231.41s-10.15-7.17-18.57,0c-8.42,7.17-9.74,11.57-8.6,12.85,1.14,1.29,5.86,4.93,12.28,1.18s16.06-12.31,16.06-12.31l-1.18-1.71Z"/>
      <path class="cls-4" d="M105.27,252.16s-13.91-7.72-7.81-18.37c6.1-10.66,11.63-6.61,12.29-5.63s7.31,8.08,6.18,14.33c-1.13,6.25-5.54,10.66-10.67,9.68Z"/>
      <path class="cls-4" d="M106.57,219.84s-1.02-11.89,9.5-11.03c10.52.86,10.52,4.98,9.88,6.18s-5.15,11.38-12.69,12.02c-7.55.64-8.51-.43-8.51-.43l1.82-6.75Z"/>
      <path class="cls-4" d="M138.93,215.65s-.31-11.06,5.76-12.56c5.21-1.29,7.35-2.45,10.11-.92,1.4.78,3.41,7.03,1.23,9.22s-5.09,7.43-7.95,6.62-9.15-2.37-9.15-2.37Z"/>
      <path class="cls-4" d="M139.01,215s-4.07,13.35,6.1,17.45c10.17,4.1,9.74-4.23,9.74-4.23,0,0,2.74-10.09-6.75-12.66-9.49-2.57-9.1-.56-9.1-.56Z"/>
      <path class="cls-4" d="M132.48,229.82s-9.85-.66-9.32-7.3,5.03-11.49,9.32-10.89c4.28.61,9.85,3.5,8.25,10.35s-5.25,7.54-8.25,7.84Z"/>
      <path class="cls-4" d="M62.26,238.6s-21.17-2.08-18.51,8.48,10.21,8.75,12.02,7.37,10.11-8.51,9.89-10.85-1.5-4.88-3.4-5Z"/>
      <path class="cls-4" d="M62.04,264.45s-7.79-7.45-5.12-13.51,7.22-9.36,9.47-8.62,8.9,13.51,6.8,15.85-2.42,8.08-11.15,6.28Z"/>
      <path class="cls-4" d="M66.39,252.3s2.31,12.26,8.29,9.6c5.98-2.66,6.61-14.47,4.17-17.45s-8.08-4.02-9.68-3.39c-1.6.63-4.17,6.6-2.78,11.24Z"/>
      <path class="cls-4" d="M93.96,261.16s-13.72-3.72-17.02,7.45c-3.3,11.17,4.47,9.04,4.47,9.04,0,0,6.49,3.51,11.28-5s8.19-8.3,7.13-9.68-5.85-1.81-5.85-1.81Z"/>
      <path class="cls-4" d="M92.57,280.73s.82,5.32,7.43,4.79,13.85-6.6,8.53-14.68c-5.32-8.08-10.85-9.04-13.51-8.08s-3.08,14.25-2.45,17.98Z"/>
      <path class="cls-4" d="M137.78,253.51s1.11-17.14-18.81-10.76c0,0-8.02,10.74,4.17,14.47,12.19,3.72,14.64-3.71,14.64-3.71Z"/>
      <path class="cls-4" d="M139.28,258.26s-2.8-5.06-7.2-3.74c-4.4,1.31-9.21,2.7-8.93,8.44s.88,13.08,6.38,14.04c5.49.96,13.47-6.17,13.68-8.62s-.3-8.16-3.92-10.13Z"/>
      <ellipse class="cls-4" cx="77.25" cy="158.8" rx="2.59" ry="2.84" transform="translate(-99.34 158.58) rotate(-63.99)"/>
      <ellipse class="cls-4" cx="103.29" cy="99.72" rx="2.59" ry="2.84" transform="translate(-31.63 148.81) rotate(-63.99)"/>
      <ellipse class="cls-4" cx="74.18" cy="198.91" rx="2.13" ry="2.63" transform="translate(-71.08 44.09) rotate(-22.72)"/>
      <ellipse class="cls-4" cx="67.58" cy="240.31" rx="3.56" ry="2.52" transform="translate(-22.43 7.47) rotate(-5.43)"/>
      <ellipse class="cls-4" cx="105.27" cy="225.41" rx="2.52" ry="3.56" transform="translate(-98.6 82.84) rotate(-30)"/>
      <ellipse class="cls-4" cx="103.86" cy="182.03" rx="2.41" ry="2.52" transform="translate(-105.71 180.96) rotate(-60)"/>
      <ellipse class="cls-4" cx="98.14" cy="261.32" rx="2.08" ry="3.12" transform="translate(-177.24 215.65) rotate(-60)"/>
      <ellipse class="cls-4" cx="141.01" cy="256.14" rx="3.89" ry="2.63"/>
      <path class="cls-4" d="M132.25,177.14c-.32.89-.28,1.87.08,2.77,1.28,3.22,4.93,11.03,10.12,10.98,6.53-.07,5.15-9.64,4.22-11.17,0,0,6.65-2.74,3.22-6.72-3.43-3.98-10.84-2.24-13.41-.91-2.12,1.1-3.45,2.89-4.24,5.05Z"/>
    </g>
    <g>
      <path class="cls-5" d="M104.09,95.3c-.06-1.52-.1-3.05.12-4.55s.74-2.99,1.7-4.17"/>
      <path d="M104.24,95.3c-.11-2.93-.15-6.2,1.78-8.62.12-.15-.09-.36-.21-.21-1.99,2.49-1.98,5.8-1.87,8.83,0,.19.31.19.3,0h0Z"/>
    </g>
    <g>
      <path class="cls-5" d="M106.02,95.05c2.02-2.77,2.93-6.18,3.8-9.5"/>
      <path d="M106.15,95.12c2.04-2.81,2.95-6.23,3.81-9.54.05-.19-.24-.27-.29-.08-.86,3.29-1.75,6.67-3.78,9.47-.11.16.15.31.26.15h0Z"/>
    </g>
    <g>
      <path class="cls-5" d="M107.68,96.57c1.56-1.68,2.73-3.72,3.38-5.92"/>
      <path d="M107.78,96.68c1.22-1.32,2.21-2.86,2.9-4.52.2-.48.37-.97.52-1.46.06-.19-.23-.26-.29-.08-.51,1.69-1.31,3.28-2.37,4.69-.3.4-.63.79-.97,1.16-.13.14.08.35.21.21h0Z"/>
    </g>
    <g>
      <path class="cls-5" d="M109.1,101.84c1.01-.48,2.17-.6,3.29-.53s2.22.34,3.3.6"/>
      <path d="M109.17,101.97c2.06-.96,4.38-.42,6.47.09.19.05.27-.24.08-.29-2.19-.53-4.57-1.06-6.71-.06-.17.08-.02.34.15.26h0Z"/>
    </g>
    <g>
      <path class="cls-5" d="M109.49,104.77c2.91.63,5.88.96,8.86,1"/>
      <path d="M109.45,104.91c2.92.63,5.91.97,8.9,1.01.19,0,.19-.3,0-.3-2.96-.04-5.92-.37-8.82-1-.19-.04-.27.25-.08.29h0Z"/>
    </g>
    <g>
      <path class="cls-5" d="M91.75,94.34c2.83.54,5.56,1.55,8.06,2.97"/>
      <path d="M91.72,94.49c2.82.54,5.53,1.54,8.03,2.96.17.1.32-.16.15-.26-2.51-1.43-5.26-2.44-8.1-2.99-.19-.04-.27.25-.08.29h0Z"/>
    </g>
    <g>
      <path class="cls-5" d="M88.77,96.62c2.75,1.63,5.93,2.54,9.13,2.6"/>
      <path d="M88.69,96.74c2.79,1.64,5.97,2.55,9.2,2.63.19,0,.19-.3,0-.3-3.18-.08-6.31-.97-9.05-2.58-.17-.1-.32.16-.15.26h0Z"/>
    </g>
    <g>
      <path class="cls-5" d="M104.79,105.47c-.29,3.46-.38,1.76-.24,4.71"/>
      <path d="M104.64,105.47c-.06.75-.14,1.52-.24,2.24-.05.36-.07.72-.06,1.08.01.46.04.92.06,1.38,0,.19.31.19.3,0-.03-.63-.08-1.28-.06-1.91,0-.08,0-.15.02-.23,0-.03,0-.07.01-.1,0-.02,0-.04,0-.05,0,0,0-.05,0,0,0-.01,0-.02,0-.03.03-.24.07-.48.1-.73.07-.55.12-1.1.16-1.65.02-.19-.28-.19-.3,0h0Z"/>
    </g>
    <g>
      <path class="cls-5" d="M108.04,109.57c.41,2.08.26,2.41,1.16,4.32"/>
      <path d="M107.89,109.61c.21,1.1.31,2.22.71,3.27.14.37.3.73.47,1.08.08.17.34.02.26-.15-.26-.55-.5-1.1-.66-1.69-.13-.47-.2-.96-.28-1.44-.06-.39-.13-.77-.21-1.16-.04-.19-.33-.11-.29.08h0Z"/>
    </g>
    <g>
      <path class="cls-5" d="M92.82,121.48c1.29-3.44,3.47-6.54,6.27-8.91"/>
      <path d="M92.97,121.52c1-2.66,2.54-5.11,4.48-7.18.55-.59,1.14-1.15,1.75-1.67.15-.13-.07-.34-.21-.21-2.2,1.88-4.02,4.19-5.33,6.76-.37.72-.69,1.46-.98,2.22-.07.18.22.26.29.08h0Z"/>
    </g>
    <g>
      <path class="cls-5" d="M96.71,122.02c2.78-2.58,4.93-5.84,6.2-9.41"/>
      <path d="M96.82,122.12c2.18-2.03,3.98-4.47,5.27-7.16.36-.75.68-1.53.97-2.32.07-.18-.22-.26-.29-.08-.99,2.77-2.51,5.35-4.44,7.57-.54.62-1.12,1.21-1.72,1.77-.14.13.07.34.21.21h0Z"/>
    </g>
    <g>
      <path class="cls-5" d="M84.37,109.28c-.29,2.72.29,5.53,1.63,7.91"/>
      <path d="M84.22,109.28c-.29,2.76.3,5.57,1.65,7.99.09.17.35.02.26-.15-1.33-2.37-1.89-5.13-1.61-7.84.02-.19-.28-.19-.3,0h0Z"/>
    </g>
    <g>
      <path class="cls-5" d="M87.01,107.86c.49,1.41.93,2.83,1.31,4.27"/>
      <path d="M86.86,107.9c.49,1.41.92,2.83,1.31,4.27.05.19.34.11.29-.08-.39-1.44-.83-2.86-1.31-4.27-.06-.18-.35-.1-.29.08h0Z"/>
    </g>
    <g>
      <path class="cls-5" d="M76.03,126.93c2.11-1.41,4.52-2.38,7.03-2.81"/>
      <path d="M76.1,127.06c2.11-1.41,4.5-2.36,6.99-2.8.19-.03.11-.32-.08-.29-2.52.44-4.94,1.41-7.07,2.83-.16.11,0,.37.15.26h0Z"/>
    </g>
    <g>
      <path class="cls-5" d="M76.09,129.92c1.5-.09,3.04-.2,4.4-.83.79-.37,1.48-.9,2.17-1.43"/>
      <path d="M76.09,130.07c1.19-.07,2.41-.15,3.56-.5s2.13-1.05,3.09-1.78c.15-.12,0-.38-.15-.26-.94.72-1.88,1.4-3.02,1.75s-2.31.42-3.48.49c-.19.01-.19.31,0,.3h0Z"/>
    </g>
    <g>
      <path class="cls-5" d="M88.29,129.42c-.82,2.99.03,6.38,2.17,8.63"/>
      <path d="M88.15,129.38c-.64,2.37-.27,4.98.96,7.1.35.6.77,1.17,1.25,1.67.13.14.34-.07.21-.21-1.63-1.73-2.5-4.12-2.43-6.5.02-.67.12-1.34.3-1.99.05-.19-.24-.27-.29-.08h0Z"/>
    </g>
    <g>
      <path class="cls-5" d="M92.64,130.31c.18,1.23.71,2.37,1.07,3.56s.53,2.52,0,3.64"/>
      <path d="M92.5,130.35c.19,1.25.72,2.39,1.08,3.59.34,1.12.52,2.39.01,3.5-.08.17.18.33.26.15,1.12-2.46-.7-4.92-1.07-7.32-.03-.19-.32-.11-.29.08h0Z"/>
    </g>
    <g>
      <path class="cls-5" d="M93.3,126.36c2.21,2.34,3.77,5.28,4.45,8.43"/>
      <path d="M93.19,126.47c1.71,1.81,3.02,3.98,3.84,6.33.23.67.42,1.34.57,2.03.04.19.33.11.29-.08-.54-2.47-1.6-4.81-3.11-6.84-.43-.58-.89-1.13-1.38-1.65-.13-.14-.34.07-.21.21h0Z"/>
    </g>
    <g>
      <path class="cls-5" d="M105.37,130.97c2.29-.62,4.7-.79,7.05-.49"/>
      <path d="M105.41,131.12c2.28-.61,4.66-.78,7.01-.48.19.02.19-.28,0-.3-2.37-.29-4.78-.12-7.09.49-.19.05-.11.34.08.29h0Z"/>
    </g>
    <g>
      <path class="cls-5" d="M106.37,134.82c.84.04,1.69-.06,2.5-.29,2.04-.57,3.79-1.89,5.47-3.17"/>
      <path d="M106.37,134.97c1.54.07,3.03-.34,4.39-1.03,1.31-.67,2.49-1.56,3.65-2.45.15-.12,0-.38-.15-.26-1.13.86-2.27,1.73-3.53,2.39-1.35.71-2.83,1.12-4.37,1.06-.19,0-.19.29,0,.3h0Z"/>
    </g>
    <g>
      <path class="cls-5" d="M111.81,137.89c.35-.47.88-.77,1.34-1.12,1.21-.93,2.06-2.31,2.35-3.81"/>
      <path d="M111.92,138c.27-.35.63-.6.98-.86s.66-.5.96-.79c.58-.58,1.05-1.27,1.38-2.03.18-.43.32-.87.41-1.33.04-.19-.25-.27-.29-.08-.15.79-.46,1.54-.89,2.22s-1.02,1.25-1.68,1.73c-.39.28-.78.55-1.08.93-.05.06-.06.15,0,.21.05.05.16.06.21,0h0Z"/>
    </g>
    <g>
      <path class="cls-5" d="M111.58,118.45c.21,1.96.8,3.87,1.73,5.61"/>
      <path d="M111.43,118.45c.22,1.99.81,3.92,1.75,5.69.09.17.35.02.26-.15-.91-1.72-1.5-3.6-1.71-5.54-.02-.19-.32-.19-.3,0h0Z"/>
    </g>
    <g>
      <path class="cls-5" d="M115.57,118.91c.75,1.32,1.5,2.66,1.96,4.11s.6,3.04.11,4.49"/>
      <path d="M115.44,118.99c1.43,2.54,3.04,5.49,2.06,8.48-.06.18.23.26.29.08,1.01-3.07-.61-6.11-2.09-8.71-.09-.17-.35-.02-.26.15h0Z"/>
    </g>
    <g>
      <path class="cls-5" d="M122.02,126.44c1.89-.72,3.81-1.34,5.76-1.87"/>
      <path d="M122.06,126.58c1.89-.72,3.81-1.34,5.76-1.87.19-.05.11-.34-.08-.29-1.95.53-3.87,1.15-5.76,1.87-.18.07-.1.36.08.29h0Z"/>
    </g>
    <g>
      <path class="cls-5" d="M122.64,124.42c1.15-1.1,2.23-2.26,3.25-3.49"/>
      <path d="M122.74,124.53c.89-.86,1.75-1.75,2.57-2.69.23-.26.46-.53.68-.8.05-.06.06-.15,0-.21-.05-.05-.16-.06-.21,0-.79.95-1.63,1.87-2.5,2.75-.25.25-.5.49-.75.74-.14.13.07.35.21.21h0Z"/>
    </g>
    <g>
      <path class="cls-5" d="M120.34,133.78c1.85,1.18,2.96,3.44,2.77,5.63"/>
      <path d="M120.26,133.91c1.41.91,2.37,2.44,2.64,4.09.08.47.09.94.05,1.41-.02.19.28.19.3,0,.15-1.75-.51-3.53-1.7-4.8-.34-.36-.73-.68-1.14-.95-.16-.1-.31.15-.15.26h0Z"/>
    </g>
    <g>
      <path class="cls-5" d="M122.65,132.04c.76.36,1.54.67,2.34.94.8.27,1.61.5,2.37.86s1.46.89,1.88,1.62"/>
      <path d="M122.58,132.17c.6.28,1.22.54,1.84.77s1.24.41,1.85.62c1.1.39,2.23.94,2.85,1.98.1.17.36.02.26-.15-1.02-1.74-3.19-2.12-4.93-2.76-.58-.21-1.15-.45-1.71-.71-.17-.08-.33.18-.15.26h0Z"/>
    </g>
    <g>
      <path class="cls-5" d="M108.59,157.67c1.1-1.8,2.7-3.24,4.46-4.4,1.76-1.16,3.68-2.05,5.59-2.94"/>
      <path d="M108.72,157.75c1.71-2.77,4.51-4.59,7.36-6.02.87-.44,1.76-.85,2.64-1.26.17-.08.02-.34-.15-.26-3.04,1.41-6.16,2.88-8.51,5.34-.6.63-1.14,1.32-1.6,2.06-.1.16.16.32.26.15h0Z"/>
    </g>
    <g>
      <path class="cls-5" d="M111.74,157.42c2.54-1.27,5.34-2.02,8.17-2.19"/>
      <path d="M111.81,157.55c2.52-1.25,5.29-1.99,8.1-2.17.19-.01.19-.31,0-.3-2.87.18-5.68.93-8.25,2.21-.17.09-.02.34.15.26h0Z"/>
    </g>
    <g>
      <path class="cls-5" d="M110.16,153.11c.73-1.86,2.04-3.5,3.69-4.63"/>
      <path d="M110.3,153.15c.57-1.43,1.47-2.71,2.61-3.74.32-.29.66-.56,1.02-.8.16-.11,0-.37-.15-.26-1.31.9-2.41,2.1-3.18,3.5-.22.4-.41.81-.58,1.23-.07.18.22.26.29.08h0Z"/>
    </g>
    <g>
      <path class="cls-5" d="M104.42,153.41c.19-3.02.19-6.06,0-9.08"/>
      <path d="M104.57,153.41c.19-3.03.19-6.06,0-9.08-.01-.19-.31-.19-.3,0,.19,3.03.19,6.06,0,9.08-.01.19.29.19.3,0h0Z"/>
    </g>
    <g>
      <path class="cls-5" d="M101.6,149.7c-.54-2.9-.87-5.83-.98-8.78"/>
      <path d="M101.74,149.66c-.54-2.89-.86-5.81-.97-8.74,0-.19-.31-.19-.3,0,.11,2.96.44,5.91.98,8.82.04.19.32.11.29-.08h0Z"/>
    </g>
    <g>
      <path class="cls-5" d="M99.37,151.39c-2-2.02-3.23-4.77-3.41-7.6"/>
      <path d="M99.48,151.29c-1.53-1.56-2.61-3.53-3.1-5.66-.14-.6-.23-1.21-.27-1.83-.01-.19-.31-.19-.3,0,.15,2.24.92,4.43,2.23,6.25.37.52.78,1,1.22,1.45.14.14.35-.07.21-.21h0Z"/>
    </g>
    <g>
      <path class="cls-5" d="M90.76,160.25c2.81-.9,5.77-1.35,8.72-1.32"/>
      <path d="M90.8,160.4c2.8-.89,5.74-1.34,8.68-1.32.19,0,.19-.3,0-.3-2.97-.02-5.93.43-8.76,1.33-.18.06-.1.35.08.29h0Z"/>
    </g>
    <g>
      <path class="cls-5" d="M93.8,162.96c3.53.19,6.91-1.34,10.12-2.83"/>
      <path d="M93.8,163.11c3.61.18,6.99-1.36,10.19-2.85.17-.08.02-.34-.15-.26-3.15,1.46-6.48,2.98-10.04,2.81-.19,0-.19.29,0,.3h0Z"/>
    </g>
    <g>
      <path class="cls-5" d="M92.59,166.71c2.64-.07,5.26-.95,7.4-2.5"/>
      <path d="M92.59,166.86c2.67-.07,5.3-.96,7.48-2.52.16-.11,0-.37-.15-.26-2.13,1.53-4.7,2.4-7.32,2.48-.19,0-.19.31,0,.3h0Z"/>
    </g>
    <g>
      <path class="cls-5" d="M104.32,163.83c-1.2,3.63-1.47,7.55-.79,11.31"/>
      <path d="M104.18,163.79c-1.2,3.66-1.47,7.59-.79,11.39.03.19.32.11.29-.08-.66-3.74-.39-7.62.79-11.23.06-.18-.23-.26-.29-.08h0Z"/>
    </g>
    <g>
      <path class="cls-5" d="M106,165.44c.44,1.98.31,4.08-.39,5.98"/>
      <path d="M105.85,165.48c.44,1.96.3,4.02-.39,5.9-.07.18.22.26.29.08.7-1.93.83-4.05.39-6.06-.04-.19-.33-.11-.29.08h0Z"/>
    </g>
    <g>
      <path class="cls-5" d="M107.81,163.5c1.29,3.56,2.6,7.28,2.19,11.05"/>
      <path d="M107.67,163.54c1.27,3.52,2.58,7.2,2.18,11.01-.02.19.28.19.3,0,.4-3.83-.91-7.54-2.19-11.09-.07-.18-.36-.1-.29.08h0Z"/>
    </g>
    <g>
      <path class="cls-5" d="M80.35,155.53c.44-1.75,1.78-3.1,3.1-4.33.75-.7,1.51-1.4,2.27-2.09"/>
      <path d="M80.5,155.57c.53-2.07,2.27-3.54,3.78-4.92.52-.48,1.04-.95,1.56-1.42.14-.13-.07-.34-.21-.21-.91.83-1.82,1.65-2.71,2.5-.75.72-1.48,1.49-2.02,2.39-.3.49-.53,1.03-.68,1.59-.05.19.24.27.29.08h0Z"/>
    </g>
    <g>
      <path class="cls-5" d="M81.87,157.06c1.05-.64,2.13-1.25,3.11-1.99s1.88-1.63,2.46-2.72"/>
      <path d="M81.95,157.19c1.67-1.02,3.44-1.99,4.74-3.49.34-.39.64-.82.89-1.27.09-.17-.17-.32-.26-.15-.9,1.66-2.47,2.8-4.05,3.77-.49.3-.98.59-1.47.89-.16.1-.01.36.15.26h0Z"/>
    </g>
    <g>
      <path class="cls-5" d="M75.05,153.41c-.03-2.61-.72-5.21-1.99-7.49"/>
      <path d="M75.2,153.41c-.04-2.64-.73-5.25-2.01-7.56-.09-.17-.35-.02-.26.15,1.25,2.27,1.93,4.82,1.97,7.41,0,.19.3.19.3,0h0Z"/>
    </g>
    <g>
      <path class="cls-5" d="M65.67,146.88c1.24,1.5,2.47,3,3.71,4.5.84,1.02,1.69,2.04,2.74,2.83"/>
      <path d="M65.56,146.99c.86,1.04,1.72,2.08,2.57,3.12.8.97,1.57,1.96,2.43,2.88.46.49.95.95,1.48,1.35.15.12.3-.14.15-.26-.95-.71-1.73-1.62-2.49-2.53-.84-1.01-1.67-2.02-2.5-3.03-.48-.58-.96-1.16-1.44-1.74-.12-.15-.33.06-.21.21h0Z"/>
    </g>
    <g>
      <path class="cls-5" d="M62.09,161c2.93-.62,5.93-.93,8.93-.93"/>
      <path d="M62.13,161.14c2.92-.61,5.9-.92,8.89-.93.19,0,.19-.3,0-.3-3.01,0-6.02.32-8.97.94-.19.04-.11.33.08.29h0Z"/>
    </g>
    <g>
      <path class="cls-5" d="M61.18,165.31c2.56.44,5.14-.43,7.59-1.28,1.39-.48,2.78-.96,4.17-1.45"/>
      <path d="M61.14,165.45c1.98.32,3.96-.08,5.86-.67,2.01-.62,3.99-1.36,5.98-2.05.18-.06.1-.35-.08-.29-1.92.67-3.83,1.37-5.76,1.98s-3.91,1.07-5.92.74c-.19-.03-.27.26-.08.29h0Z"/>
    </g>
    <g>
      <path class="cls-5" d="M76.41,162.95c.18,1.61.13,3.23.26,4.85s.44,3.25,1.28,4.64"/>
      <path d="M76.26,162.95c.35,3.19-.16,6.68,1.56,9.56.1.17.36.01.26-.15-1.69-2.83-1.18-6.27-1.52-9.41-.02-.19-.32-.19-.3,0h0Z"/>
    </g>
    <g>
      <path class="cls-5" d="M79.84,163.95c1.37,2.66,2.38,5.51,2.98,8.44"/>
      <path d="M79.71,164.03c1.36,2.65,2.36,5.49,2.96,8.41.04.19.33.11.29-.08-.61-2.95-1.62-5.8-2.99-8.48-.09-.17-.35-.02-.26.15h0Z"/>
    </g>
    <g>
      <path class="cls-5" d="M125.46,149.66c2.19-.96,4.55-1.53,6.93-1.68"/>
      <path d="M125.53,149.79c2.17-.94,4.5-1.51,6.86-1.66.19-.01.19-.31,0-.3-2.42.16-4.79.74-7.01,1.7-.18.08-.02.34.15.26h0Z"/>
    </g>
    <g>
      <path class="cls-5" d="M125.85,152.83c3.08-.59,6.1-1.54,8.97-2.81"/>
      <path d="M125.89,152.97c3.1-.6,6.12-1.55,9-2.83.18-.08.02-.34-.15-.26-2.86,1.27-5.86,2.2-8.93,2.8-.19.04-.11.33.08.29h0Z"/>
    </g>
    <g>
      <path class="cls-5" d="M130.43,169.86c-.41-2.55-.02-5.22,1.11-7.54"/>
      <path d="M130.57,169.82c-.4-2.51-.01-5.13,1.09-7.42.08-.17-.18-.33-.26-.15-1.14,2.37-1.54,5.06-1.12,7.66.03.19.32.11.29-.08h0Z"/>
    </g>
    <g>
      <path class="cls-5" d="M133.74,172.36c1.96-3.95,2.86-8.43,2.58-12.84"/>
      <path d="M133.87,172.44c1.97-3.99,2.87-8.47,2.6-12.91-.01-.19-.31-.19-.3,0,.27,4.39-.61,8.81-2.56,12.76-.09.17.17.32.26.15h0Z"/>
    </g>
    <g>
      <path class="cls-5" d="M118.09,165.74c2.37.75,4.84,1.57,6.55,3.37.59.62,1.07,1.33,1.54,2.04"/>
      <path d="M118.05,165.89c2.34.74,4.84,1.55,6.56,3.41.55.59.99,1.26,1.44,1.93.11.16.37,0,.26-.15-.76-1.14-1.55-2.21-2.66-3.03-1.04-.76-2.22-1.3-3.42-1.74-.69-.25-1.39-.48-2.09-.7-.18-.06-.26.23-.08.29h0Z"/>
    </g>
    <g>
      <path class="cls-5" d="M118.14,170.52c2.89,1.88,5.85,3.79,9.18,4.69"/>
      <path d="M118.07,170.65c2.89,1.88,5.85,3.79,9.22,4.7.19.05.27-.24.08-.29-3.34-.91-6.28-2.8-9.15-4.67-.16-.11-.31.15-.15.26h0Z"/>
    </g>
    <g>
      <path class="cls-5" d="M134.96,175.06c2.6-.29,5.24-.3,7.85,0"/>
      <path d="M134.96,175.21c2.61-.29,5.24-.29,7.85,0,.19.02.19-.28,0-.3-2.61-.29-5.24-.28-7.85,0-.19.02-.19.32,0,.3h0Z"/>
    </g>
    <g>
      <path class="cls-5" d="M135.7,178.35c2.02.31,4.05.58,6.08.81"/>
      <path d="M135.66,178.49c2.04.32,4.08.59,6.12.82.19.02.19-.28,0-.3-2.02-.22-4.04-.49-6.04-.8-.19-.03-.27.26-.08.29h0Z"/>
    </g>
    <g>
      <path class="cls-5" d="M135.61,181.9c2.01,1.96,4.29,3.64,6.76,4.97"/>
      <path d="M135.5,182c1.57,1.53,3.31,2.9,5.18,4.06.53.33,1.06.64,1.61.94.17.09.32-.17.15-.26-1.91-1.04-3.71-2.27-5.35-3.69-.47-.41-.93-.83-1.37-1.26-.14-.13-.35.08-.21.21h0Z"/>
    </g>
    <g>
      <path class="cls-5" d="M129.41,181.48c-2.94,1.75-4.83,5.12-4.81,8.54"/>
      <path d="M129.34,181.35c-2.32,1.4-4.01,3.76-4.63,6.4-.17.74-.26,1.51-.26,2.27,0,.19.3.19.3,0,0-2.63,1.11-5.22,2.99-7.06.53-.52,1.11-.97,1.75-1.35.17-.1.01-.36-.15-.26h0Z"/>
    </g>
    <g>
      <path class="cls-5" d="M129.88,183.94c.18,2.93-.44,5.91-1.77,8.52"/>
      <path d="M129.73,183.94c.17,2.91-.43,5.85-1.75,8.45-.09.17.17.32.26.15,1.34-2.65,1.97-5.63,1.79-8.6-.01-.19-.31-.19-.3,0h0Z"/>
    </g>
    <g>
      <path class="cls-5" d="M132.46,185.25c.15,3.08.28,6.27-.86,9.13"/>
      <path d="M132.31,185.25c.14,3.04.28,6.2-.86,9.09-.07.18.22.26.29.08,1.15-2.91,1.01-6.1.87-9.17,0-.19-.31-.19-.3,0h0Z"/>
    </g>
    <g>
      <path class="cls-5" d="M119.55,179.28c1.48-.78,3.16-1.07,4.81-1.35.65-.11,1.3-.22,1.96-.34"/>
      <path d="M119.62,179.41c1.01-.53,2.11-.83,3.22-1.06,1.16-.24,2.34-.42,3.51-.62.19-.03.11-.32-.08-.29-1.19.2-2.38.39-3.57.63-1.12.23-2.22.55-3.23,1.07-.17.09-.02.35.15.26h0Z"/>
    </g>
    <g>
      <path class="cls-5" d="M121.91,180.72c1.29-.08,2.58-.34,3.81-.75"/>
      <path d="M121.91,180.87c1.31-.08,2.6-.34,3.85-.76.18-.06.1-.35-.08-.29-1.22.41-2.48.67-3.77.75-.19.01-.19.31,0,.3h0Z"/>
    </g>
    <g>
      <path class="cls-5" d="M105.22,185.93c.97,3.55,2.88,6.83,5.48,9.44"/>
      <path d="M105.08,185.97c.77,2.78,2.09,5.38,3.87,7.65.51.65,1.06,1.27,1.65,1.86.14.14.35-.08.21-.21-2.01-2.02-3.61-4.45-4.68-7.09-.3-.74-.55-1.5-.77-2.28-.05-.19-.34-.11-.29.08h0Z"/>
    </g>
    <g>
      <path class="cls-5" d="M108.98,185.51c2.72,1.79,6.22,2.45,8.41,4.86"/>
      <path d="M108.91,185.64c2.12,1.39,4.63,2.06,6.74,3.45.6.4,1.15.85,1.64,1.38.13.14.34-.07.21-.21-1.74-1.91-4.25-2.73-6.52-3.82-.66-.32-1.31-.66-1.92-1.06-.16-.11-.31.15-.15.26h0Z"/>
    </g>
    <g>
      <path class="cls-5" d="M88.63,180.63c3.6-.17,7.23.22,10.71,1.14"/>
      <path d="M88.63,180.78c3.59-.16,7.2.22,10.67,1.13.19.05.27-.24.08-.29-3.5-.92-7.14-1.3-10.75-1.14-.19,0-.19.31,0,.3h0Z"/>
    </g>
    <g>
      <path class="cls-5" d="M89.21,184.77c3.54.04,7.08-.46,10.47-1.47"/>
      <path d="M89.21,184.92c3.55.03,7.1-.47,10.51-1.48.18-.05.11-.34-.08-.29-3.38,1.01-6.9,1.5-10.43,1.47-.19,0-.19.3,0,.3h0Z"/>
    </g>
    <g>
      <path class="cls-5" d="M98.14,185.68c-1.1,1-2.06,2.15-2.86,3.41-.67,1.06-1.25,2.23-2.24,3.02"/>
      <path d="M98.04,185.57c-.82.75-1.56,1.58-2.22,2.47s-1.12,1.8-1.72,2.67c-.33.48-.7.92-1.15,1.28-.15.12.06.33.21.21.8-.64,1.34-1.53,1.86-2.39.57-.95,1.19-1.85,1.91-2.68.41-.47.85-.92,1.32-1.35.14-.13-.07-.34-.21-.21h0Z"/>
    </g>
    <g>
      <path class="cls-5" d="M75.51,194.05c-.36-3.57.02-7.21,1.1-10.63"/>
      <path d="M75.66,194.05c-.35-3.56.02-7.17,1.09-10.59.06-.18-.23-.26-.29-.08-1.08,3.44-1.45,7.08-1.1,10.67.02.19.32.19.3,0h0Z"/>
    </g>
    <g>
      <path class="cls-5" d="M77.89,194.54c1.62-1.95,2.8-4.26,3.43-6.71"/>
      <path d="M77.99,194.64c1.27-1.54,2.28-3.28,2.97-5.15.2-.53.36-1.07.51-1.62.05-.19-.24-.27-.29-.08-.49,1.88-1.3,3.68-2.38,5.29-.31.47-.65.92-1.01,1.35-.12.15.09.36.21.21h0Z"/>
    </g>
    <g>
      <path class="cls-5" d="M65.29,185.12c1.72,3.05,3.25,6.21,4.55,9.45"/>
      <path d="M65.16,185.2c1.72,3.04,3.23,6.18,4.54,9.42.07.18.36.1.29-.08-1.31-3.26-2.84-6.43-4.57-9.49-.1-.17-.35-.02-.26.15h0Z"/>
    </g>
    <g>
      <path class="cls-5" d="M59.11,186.9c1.47,1.96,3.22,3.7,5.18,5.17"/>
      <path d="M58.98,186.98c1.16,1.54,2.49,2.96,3.95,4.21.41.35.84.69,1.28,1.02.15.12.3-.14.15-.26-1.51-1.14-2.89-2.44-4.12-3.87-.35-.41-.68-.82-1-1.25-.11-.15-.38,0-.26.15h0Z"/>
    </g>
    <g>
      <path class="cls-5" d="M56.96,204.12c4.63-.85,9.23-1.89,13.78-3.11"/>
      <path d="M57,204.26c4.63-.86,9.23-1.89,13.78-3.11.19-.05.11-.34-.08-.29-4.55,1.22-9.15,2.25-13.78,3.11-.19.04-.11.32.08.29h0Z"/>
    </g>
    <g>
      <path class="cls-5" d="M58.21,209.25c2.96-.5,5.8-1.64,8.28-3.33"/>
      <path d="M58.25,209.4c2.97-.5,5.82-1.65,8.31-3.34.16-.11,0-.37-.15-.26-2.47,1.68-5.29,2.81-8.24,3.31-.19.03-.11.32.08.29h0Z"/>
    </g>
    <g>
      <path class="cls-5" d="M73.79,203.58c-.85,2.56-1.07,5.33-.64,8"/>
      <path d="M73.65,203.54c-.85,2.6-1.06,5.38-.64,8.08.03.19.32.11.29-.08-.42-2.65-.2-5.37.64-7.92.06-.18-.23-.26-.29-.08h0Z"/>
    </g>
    <g>
      <path class="cls-5" d="M76.05,203.72c.58,2.94.8,5.94.65,8.93-.07,1.31-.22,2.68-.95,3.77"/>
      <path d="M75.9,203.76c.43,2.18.66,4.39.69,6.62.01,1.04,0,2.09-.1,3.13s-.32,1.99-.87,2.84c-.11.16.15.31.26.15.52-.8.76-1.73.88-2.67.14-1.1.15-2.22.14-3.33-.02-2.29-.26-4.57-.7-6.82-.04-.19-.33-.11-.29.08h0Z"/>
    </g>
    <g>
      <path class="cls-5" d="M81.27,202.22c1.11.79,2.49,1.1,3.85,1.23s2.73.07,4.09.19"/>
      <path d="M81.2,202.35c2.34,1.63,5.33,1.2,8.01,1.43.19.02.19-.28,0-.3-2.63-.22-5.57.2-7.86-1.39-.16-.11-.31.15-.15.26h0Z"/>
    </g>
    <g>
      <path class="cls-5" d="M80.64,199.39c2.03.14,4.04.46,6.01.96"/>
      <path d="M80.64,199.54c2.02.14,4.01.46,5.97.95.19.05.27-.24.08-.29-1.98-.5-4.01-.83-6.05-.96-.19-.01-.19.29,0,.3h0Z"/>
    </g>
    <g>
      <path class="cls-5" d="M108.88,221.12c1.01-1.94,2.56-3.56,4.29-4.91,1.72-1.35,3.63-2.45,5.52-3.54"/>
      <path d="M109.01,221.2c1.58-3,4.33-5.12,7.16-6.86.85-.53,1.72-1.03,2.59-1.53.17-.1.02-.36-.15-.26-3.01,1.73-6.09,3.52-8.34,6.23-.58.7-1.1,1.46-1.53,2.27-.09.17.17.32.26.15h0Z"/>
    </g>
    <g>
      <path class="cls-5" d="M112.82,222.27c3.56-1.42,6.83-3.58,9.55-6.28"/>
      <path d="M112.86,222.42c2.79-1.12,5.4-2.67,7.71-4.59.66-.55,1.29-1.13,1.9-1.73.14-.14-.08-.35-.21-.21-2.1,2.08-4.51,3.84-7.14,5.18-.76.39-1.55.75-2.34,1.06-.18.07-.1.36.08.29h0Z"/>
    </g>
    <g>
      <path class="cls-5" d="M101.68,215.53c-1.7-2.71-2.84-5.78-3.32-8.94"/>
      <path d="M101.81,215.46c-1.69-2.71-2.82-5.75-3.31-8.91-.03-.19-.32-.11-.29.08.49,3.18,1.63,6.25,3.34,8.98.1.16.36.01.26-.15h0Z"/>
    </g>
    <g>
      <path class="cls-5" d="M104.14,212.45c-.51-3.41-1.83-6.69-3.81-9.51"/>
      <path d="M104.29,212.41c-.52-3.42-1.84-6.71-3.82-9.54-.11-.16-.37,0-.26.15,1.97,2.82,3.27,6.07,3.79,9.47.03.19.32.11.29-.08h0Z"/>
    </g>
    <g>
      <path class="cls-5" d="M90.45,217.09c3.6,1,6.95,2.87,9.68,5.4"/>
      <path d="M90.41,217.24c2.77.77,5.39,2.06,7.7,3.77.67.5,1.31,1.03,1.92,1.59.14.13.35-.08.21-.21-2.14-1.98-4.64-3.55-7.35-4.63-.78-.31-1.59-.58-2.4-.81-.19-.05-.27.24-.08.29h0Z"/>
    </g>
    <g>
      <path class="cls-5" d="M87.6,221.19c2.73,1.97,5.97,3.23,9.32,3.62"/>
      <path d="M87.52,221.32c2.76,1.99,6.02,3.24,9.4,3.64.19.02.19-.28,0-.3-3.33-.39-6.53-1.65-9.24-3.6-.16-.11-.31.15-.15.26h0Z"/>
    </g>
    <g>
      <path class="cls-5" d="M106.03,231.36c-1.05,4.07-.78,8.47.75,12.39"/>
      <path d="M105.88,231.32c-1.04,4.11-.78,8.51.75,12.47.07.18.36.1.29-.08-1.52-3.91-1.79-8.24-.75-12.31.05-.19-.24-.27-.29-.08h0Z"/>
    </g>
    <g>
      <path class="cls-5" d="M108.74,237.04c.94,2.21,1.91,4.51,1.81,6.91-.06,1.36-.45,2.69-.92,3.97"/>
      <path d="M108.61,237.12c.72,1.7,1.46,3.43,1.71,5.27s-.19,3.72-.84,5.5c-.07.18.22.26.29.08.66-1.82,1.11-3.67.84-5.62s-1.01-3.65-1.75-5.38c-.08-.18-.33-.02-.26.15h0Z"/>
    </g>
    <g>
      <path class="cls-5" d="M101.32,232.98c-.17,4.65-.27,9.57,2,13.62"/>
      <path d="M101.17,232.98c-.17,4.61-.29,9.54,2.02,13.7.09.17.35.02.26-.15-2.28-4.12-2.14-8.99-1.98-13.55,0-.19-.29-.19-.3,0h0Z"/>
    </g>
    <g>
      <path class="cls-5" d="M114,228.87c2.85.1,5.68.52,8.43,1.26"/>
      <path d="M114,229.02c2.83.1,5.65.52,8.39,1.25.19.05.27-.24.08-.29-2.76-.74-5.61-1.16-8.47-1.26-.19,0-.19.29,0,.3h0Z"/>
    </g>
    <g>
      <path class="cls-5" d="M114.85,233.01c1.47,1.14,3.4,1.49,5.25,1.63,2.49.18,5,.03,7.44-.45"/>
      <path d="M114.78,233.14c1.64,1.25,3.75,1.56,5.76,1.68,2.36.14,4.73-.03,7.05-.48.19-.04.11-.33-.08-.29-2.25.44-4.56.6-6.85.48-2-.11-4.09-.4-5.73-1.64-.15-.12-.3.14-.15.26h0Z"/>
    </g>
    <g>
      <path class="cls-5" d="M95.75,230.95c-5.19.49-10.17,2.99-13.66,6.86"/>
      <path d="M95.75,230.8c-4.06.39-7.96,1.97-11.17,4.48-.93.73-1.8,1.54-2.6,2.42-.13.14.08.36.21.21,2.71-2.99,6.27-5.15,10.16-6.2,1.11-.3,2.25-.51,3.4-.62.19-.02.19-.32,0-.3h0Z"/>
    </g>
    <g>
      <path class="cls-5" d="M90.56,235.58c-2.95,1.8-6.02,3.4-9.19,4.79"/>
      <path d="M90.48,235.46c-2.95,1.8-6.03,3.4-9.19,4.79-.18.08-.02.34.15.26,3.17-1.39,6.24-2.99,9.19-4.79.16-.1.01-.36-.15-.26h0Z"/>
    </g>
    <g>
      <path class="cls-5" d="M93.98,236.43c-1.9,2.79-4.82,4.87-8.08,5.74"/>
      <path d="M93.85,236.36c-1.46,2.14-3.52,3.85-5.89,4.92-.68.31-1.39.55-2.11.75-.19.05-.11.34.08.29,2.57-.69,4.94-2.11,6.76-4.05.51-.55.98-1.13,1.41-1.75.11-.16-.15-.31-.26-.15h0Z"/>
    </g>
    <g>
      <path class="cls-5" d="M70,236.21c-.09-2.46.29-4.94,1.1-7.26"/>
      <path d="M70.15,236.21c-.08-2.45.29-4.9,1.09-7.22.06-.18-.23-.26-.29-.08-.81,2.34-1.19,4.82-1.1,7.3,0,.19.31.19.3,0h0Z"/>
    </g>
    <g>
      <path class="cls-5" d="M72.81,236.82c2.32-2.68,4.02-5.9,4.92-9.33"/>
      <path d="M72.91,236.92c1.82-2.11,3.26-4.52,4.24-7.13.28-.74.52-1.5.72-2.27.05-.19-.24-.27-.29-.08-.7,2.64-1.86,5.14-3.42,7.38-.45.65-.94,1.28-1.46,1.88-.13.15.09.36.21.21h0Z"/>
    </g>
    <g>
      <path class="cls-5" d="M74.4,239.05c1.62-.31,3.19-.86,4.64-1.63"/>
      <path d="M74.44,239.19c1.63-.31,3.21-.87,4.68-1.64.17-.09.02-.35-.15-.26-1.45.76-3,1.31-4.61,1.61-.19.04-.11.33.08.29h0Z"/>
    </g>
    <g>
      <path class="cls-5" d="M59.2,235.47c-3.6-1.58-6.71-4.24-8.84-7.54"/>
      <path d="M59.27,235.34c-2.78-1.23-5.27-3.09-7.25-5.41-.56-.66-1.07-1.35-1.54-2.08-.1-.16-.36-.01-.26.15,1.68,2.59,3.94,4.78,6.57,6.38.75.46,1.53.86,2.33,1.21.17.08.33-.18.15-.26h0Z"/>
    </g>
    <g>
      <path class="cls-5" d="M62.03,233.41c-1.92-2.07-3.99-3.99-6.2-5.75"/>
      <path d="M62.14,233.3c-1.5-1.61-3.08-3.13-4.75-4.56-.47-.41-.96-.8-1.44-1.19-.15-.12-.36.09-.21.21,1.72,1.37,3.35,2.84,4.9,4.4.44.44.87.89,1.3,1.35.13.14.34-.07.21-.21h0Z"/>
    </g>
    <g>
      <path class="cls-5" d="M47.58,244.73c3.73-1.79,7.81-2.85,11.94-3.11"/>
      <path d="M47.65,244.86c3.72-1.77,7.76-2.82,11.87-3.09.19-.01.19-.31,0-.3-4.16.27-8.25,1.34-12.02,3.13-.17.08-.02.34.15.26h0Z"/>
    </g>
    <g>
      <path class="cls-5" d="M51.33,250.24c2.29-2.43,4.88-4.57,7.7-6.36"/>
      <path d="M51.44,250.34c1.78-1.88,3.73-3.59,5.84-5.1.6-.43,1.21-.84,1.83-1.24.16-.1.01-.36-.15-.26-2.2,1.4-4.26,3.01-6.15,4.8-.54.51-1.07,1.05-1.59,1.59-.13.14.08.35.21.21h0Z"/>
    </g>
    <g>
      <path class="cls-5" d="M63.3,246.1c-1.23,3.34-1.77,6.94-1.56,10.49"/>
      <path d="M63.16,246.06c-1.23,3.36-1.77,6.96-1.57,10.53.01.19.31.19.3,0-.2-3.55.33-7.12,1.56-10.45.07-.18-.22-.26-.29-.08h0Z"/>
    </g>
    <g>
      <path class="cls-5" d="M64.91,252.34c.16,2.59.31,5.21-.1,7.77"/>
      <path d="M64.76,252.34c.15,2.57.31,5.17-.1,7.73-.03.19.26.27.29.08.41-2.59.26-5.21.11-7.81-.01-.19-.31-.19-.3,0h0Z"/>
    </g>
    <g>
      <path class="cls-5" d="M68.84,246.4c.81,3.74,2.59,7.26,5.11,10.13"/>
      <path d="M68.7,246.44c.65,2.94,1.87,5.75,3.6,8.21.48.69,1,1.35,1.55,1.98.13.15.34-.07.21-.21-1.95-2.22-3.45-4.83-4.4-7.63-.27-.8-.49-1.61-.67-2.43-.04-.19-.33-.11-.29.08h0Z"/>
    </g>
    <g>
      <path class="cls-5" d="M70.58,243.93c1.42.8,2.87,1.65,3.84,2.96.65.89,1.04,1.93,1.41,2.97"/>
      <path d="M70.5,244.06c.89.51,1.79,1.02,2.58,1.67.39.32.75.67,1.06,1.06.34.42.61.89.84,1.37.27.56.48,1.15.7,1.74.07.18.36.1.29-.08-.38-1.05-.78-2.13-1.46-3.04-.63-.84-1.45-1.49-2.32-2.06-.5-.32-1.02-.62-1.54-.92-.17-.1-.32.16-.15.26h0Z"/>
    </g>
    <g>
      <path class="cls-5" d="M94.14,257.48c-.47-2.67-2.11-5.11-4.4-6.56"/>
      <path d="M94.28,257.44c-.38-2.11-1.47-4.08-3.04-5.55-.44-.41-.92-.78-1.42-1.1-.16-.1-.31.16-.15.26,1.75,1.12,3.12,2.82,3.86,4.77.21.55.36,1.12.47,1.7.03.19.32.11.29-.08h0Z"/>
    </g>
    <g>
      <path class="cls-5" d="M89.67,256.26c-1.72-.88-3.45-1.76-4.95-2.97-.97-.79-1.89-1.83-1.93-3.07"/>
      <path d="M89.75,256.13c-1.14-.58-2.27-1.16-3.35-1.84-1.01-.64-2.06-1.36-2.77-2.33-.38-.51-.65-1.1-.68-1.75,0-.19-.31-.19-.3,0,.05,1.19.82,2.17,1.68,2.93.98.86,2.11,1.56,3.26,2.19.66.37,1.34.71,2.01,1.06.17.09.32-.17.15-.26h0Z"/>
    </g>
    <g>
      <path class="cls-5" d="M79.39,271.21c.42-1.28,1.07-2.5,1.97-3.5,2.3-2.59,5.88-3.54,9.25-4.36"/>
      <path d="M79.53,271.25c.62-1.86,1.72-3.51,3.3-4.69,1.44-1.07,3.12-1.75,4.83-2.27.99-.3,1.99-.55,2.99-.8.19-.05.11-.34-.08-.29-3.53.87-7.41,1.89-9.74,4.91-.7.92-1.22,1.96-1.58,3.06-.06.18.23.26.29.08h0Z"/>
    </g>
    <g>
      <path class="cls-5" d="M89.54,267.24c-.46,1.77-1.6,3.3-2.96,4.52-1.36,1.22-2.94,2.16-4.52,3.09"/>
      <path d="M89.39,267.2c-.73,2.76-2.97,4.72-5.27,6.22-.7.45-1.42.88-2.13,1.31-.17.1-.02.36.15.26,2.49-1.48,5.1-3.05,6.64-5.59.4-.66.71-1.37.91-2.11.05-.19-.24-.27-.29-.08h0Z"/>
    </g>
    <g>
      <path class="cls-5" d="M97.42,267.81c.04,3.94.73,7.87,2.04,11.59"/>
      <path d="M97.27,267.81c.05,3.96.74,7.89,2.04,11.63.06.18.35.1.29-.08-1.3-3.71-1.98-7.62-2.03-11.55,0-.19-.3-.19-.3,0h0Z"/>
    </g>
    <g>
      <path class="cls-5" d="M100.95,269.41c2.46,3.11,3.84,7.05,3.86,11.01"/>
      <path d="M100.84,269.51c2.43,3.09,3.79,6.98,3.81,10.91,0,.19.3.19.3,0-.02-3.13-.86-6.23-2.42-8.94-.44-.76-.94-1.49-1.48-2.18-.12-.15-.33.06-.21.21h0Z"/>
    </g>
    <g>
      <path class="cls-5" d="M102.22,258.7c1.2-2.41,3.37-4.33,5.92-5.22"/>
      <path d="M102.35,258.77c.93-1.86,2.42-3.41,4.23-4.43.51-.29,1.04-.53,1.6-.72.18-.06.1-.35-.08-.29-2.01.71-3.78,2.03-5.06,3.74-.36.49-.68,1-.95,1.55-.09.17.17.32.26.15h0Z"/>
    </g>
    <g>
      <path class="cls-5" d="M103.94,261.11c3.56-1.23,7.01-2.79,10.27-4.66"/>
      <path d="M103.98,261.25c3.57-1.23,7.03-2.8,10.31-4.68.17-.1.02-.36-.15-.26-3.26,1.87-6.69,3.42-10.24,4.65-.18.06-.1.35.08.29h0Z"/>
    </g>
    <g>
      <path class="cls-5" d="M104.32,264.02c2.5.1,5.02-.09,7.48-.56"/>
      <path d="M104.32,264.17c2.52.1,5.04-.09,7.52-.56.19-.04.11-.33-.08-.29-2.45.47-4.95.65-7.44.55-.19,0-.19.29,0,.3h0Z"/>
    </g>
    <g>
      <path class="cls-5" d="M146.55,257.06c3.39-.52,6.93.06,9.98,1.62"/>
      <path d="M146.59,257.21c3.36-.5,6.84.07,9.87,1.61.17.09.32-.17.15-.26-3.1-1.58-6.66-2.15-10.1-1.64-.19.03-.11.32.08.29h0Z"/>
    </g>
    <g>
      <path class="cls-5" d="M147.66,260.28c3.43,2.09,7.21,3.58,11.14,4.41"/>
      <path d="M147.59,260.41c3.44,2.09,7.23,3.59,11.17,4.42.19.04.27-.25.08-.29-3.92-.83-7.68-2.32-11.1-4.39-.17-.1-.32.16-.15.26h0Z"/>
    </g>
    <g>
      <path class="cls-5" d="M144.7,262.54c2.12,2.76,4.76,5.12,7.72,6.94"/>
      <path d="M144.59,262.65c1.67,2.16,3.63,4.07,5.83,5.68.62.46,1.26.88,1.92,1.29.16.1.32-.16.15-.26-2.3-1.41-4.39-3.15-6.21-5.15-.52-.57-1.01-1.16-1.48-1.77-.12-.15-.33.06-.21.21h0Z"/>
    </g>
    <g>
      <path class="cls-5" d="M132.56,258.66c-1.49,1.03-2.89,2.23-3.99,3.67-1.1,1.45-1.89,3.16-2.07,4.97"/>
      <path d="M132.48,258.53c-2.35,1.63-4.51,3.7-5.57,6.42-.29.76-.49,1.54-.57,2.35-.02.19.28.19.3,0,.3-2.82,2.02-5.23,4.1-7.05.6-.52,1.24-1.01,1.89-1.46.16-.11,0-.37-.15-.26h0Z"/>
    </g>
    <g>
      <path class="cls-5" d="M134.75,262.48c-.9,2.94-2.36,5.7-4.27,8.11"/>
      <path d="M134.6,262.44c-.9,2.91-2.33,5.65-4.23,8.04-.12.15.09.36.21.21,1.49-1.88,2.71-3.97,3.61-6.2.26-.65.49-1.3.7-1.97.06-.18-.23-.26-.29-.08h0Z"/>
    </g>
    <g>
      <path class="cls-5" d="M138.01,261.3c.36,1.12.73,2.26.76,3.44.05,1.87-.79,3.74-2.22,4.94"/>
      <path d="M137.86,261.34c.49,1.51.96,3.07.65,4.67-.27,1.38-1,2.65-2.08,3.56-.15.12.07.34.21.21.86-.73,1.51-1.68,1.89-2.74.41-1.15.46-2.36.23-3.55-.15-.76-.38-1.5-.62-2.24-.06-.18-.35-.1-.29.08h0Z"/>
    </g>
    <g>
      <path class="cls-5" d="M122.28,245.4c1.67-.2,3.36-.4,5.03-.24s3.36.74,4.58,1.89"/>
      <path d="M122.28,245.55c3.19-.39,6.96-.78,9.51,1.61.14.13.35-.08.21-.21-2.62-2.45-6.44-2.1-9.72-1.7-.19.02-.19.32,0,.3h0Z"/>
    </g>
    <g>
      <path class="cls-5" d="M121.99,249.86c1.98.14,3.96-.11,5.95-.09s4.05.36,5.65,1.52"/>
      <path d="M121.99,250.01c3.8.26,8.17-.97,11.52,1.41.16.11.31-.15.15-.26-3.41-2.43-7.82-1.2-11.68-1.46-.19-.01-.19.29,0,.3h0Z"/>
    </g>
    <g>
      <path class="cls-5" d="M135.83,239.07c0,2.7.69,5.4,1.97,7.78"/>
      <path d="M135.68,239.07c.01,2.74.7,5.45,1.99,7.86.09.17.35.02.26-.15-1.27-2.36-1.94-5.02-1.95-7.71,0-.19-.3-.19-.3,0h0Z"/>
    </g>
    <g>
      <path class="cls-5" d="M139.1,237.08c1.39,4.39,1.86,9.07,1.36,13.65"/>
      <path d="M138.96,237.12c1.38,4.39,1.84,9.03,1.36,13.61-.02.19.28.19.3,0,.48-4.6.02-9.27-1.37-13.69-.06-.18-.35-.11-.29.08h0Z"/>
    </g>
    <g>
      <path class="cls-5" d="M146.73,249.69c1.25-3.7,3.56-7.03,6.59-9.49"/>
      <path d="M146.87,249.73c.98-2.87,2.59-5.51,4.69-7.7.59-.61,1.21-1.18,1.87-1.72.15-.12-.06-.33-.21-.21-2.38,1.94-4.32,4.4-5.65,7.17-.37.77-.7,1.57-.98,2.39-.06.18.23.26.29.08h0Z"/>
    </g>
    <g>
      <path class="cls-5" d="M151.09,249.04c2.64-1.87,4.91-4.25,6.65-6.98"/>
      <path d="M151.17,249.17c2.07-1.47,3.91-3.24,5.46-5.26.44-.57.86-1.17,1.25-1.78.1-.16-.15-.31-.26-.15-1.35,2.1-3.01,4-4.91,5.61-.54.46-1.1.9-1.68,1.31-.16.11,0,.37.15.26h0Z"/>
    </g>
    <g>
      <path class="cls-5" d="M113.74,266.51c2.48,2.09,5.45,3.61,8.6,4.39"/>
      <path d="M113.64,266.61c1.95,1.64,4.18,2.93,6.58,3.8.68.25,1.38.46,2.08.63.19.05.27-.24.08-.29-2.42-.61-4.73-1.64-6.8-3.04-.6-.41-1.18-.85-1.73-1.31-.15-.12-.36.09-.21.21h0Z"/>
    </g>
    <g>
      <path class="cls-5" d="M118.16,264.07c.85.3,1.68.63,2.5.99"/>
      <path d="M118.12,264.21c.84.29,1.66.62,2.47.98.07.03.16.02.21-.05.04-.06.02-.17-.05-.21-.83-.37-1.68-.71-2.54-1.01-.08-.03-.16.03-.18.1-.02.08.03.16.1.18h0Z"/>
    </g>
    <g>
      <path class="cls-5" d="M117.88,199.61c.28,3.41,1.38,6.76,3.19,9.67"/>
      <path d="M117.73,199.61c.29,3.45,1.39,6.8,3.21,9.74.1.16.36.01.26-.15-1.79-2.9-2.88-6.2-3.17-9.59-.02-.19-.32-.19-.3,0h0Z"/>
    </g>
    <g>
      <path class="cls-5" d="M121.95,200.92c1.2,1.39,1.87,3.21,1.86,5.04"/>
      <path d="M121.84,201.02c1.17,1.36,1.82,3.14,1.81,4.94,0,.19.3.19.3,0,0-1.46-.41-2.91-1.17-4.16-.22-.35-.46-.68-.73-.99-.13-.15-.34.07-.21.21h0Z"/>
    </g>
    <g>
      <path class="cls-5" d="M134.99,208.81c-1.32-2.73-1.47-6.01-.39-8.84"/>
      <path d="M135.12,208.73c-1.3-2.71-1.43-5.92-.38-8.73.07-.18-.22-.26-.29-.08-1.09,2.89-.93,6.18.41,8.96.08.17.34.02.26-.15h0Z"/>
    </g>
    <g>
      <path class="cls-5" d="M138.81,204.57c.81-2.48,1.34-5.04,1.6-7.64"/>
      <path d="M138.96,204.61c.81-2.49,1.34-5.07,1.6-7.68.02-.19-.28-.19-.3,0-.26,2.58-.79,5.13-1.59,7.6-.06.18.23.26.29.08h0Z"/>
    </g>
    <g>
      <path class="cls-5" d="M135.53,216.42c-3.02.1-5.89,2.11-7.02,4.92"/>
      <path d="M135.53,216.27c-2.42.09-4.71,1.35-6.17,3.27-.41.54-.74,1.13-1,1.76-.07.18.22.26.29.08.86-2.14,2.76-3.81,4.95-4.48.62-.19,1.27-.3,1.92-.33.19,0,.19-.31,0-.3h0Z"/>
    </g>
    <g>
      <path class="cls-5" d="M136.87,218.55c-1,1.33-1.69,2.88-2.69,4.21s-2.44,2.49-4.1,2.54"/>
      <path d="M136.75,218.48c-1.54,2.06-2.42,4.78-4.77,6.12-.58.33-1.22.54-1.89.56-.19,0-.19.31,0,.3,1.24-.04,2.35-.66,3.24-1.49,1-.93,1.69-2.12,2.37-3.28.41-.7.83-1.4,1.31-2.05.12-.15-.14-.3-.26-.15h0Z"/>
    </g>
    <g>
      <path class="cls-5" d="M142.5,219.41c.04.94.36,1.84.76,2.69,1.23,2.62,3.19,4.88,5.61,6.47"/>
      <path d="M142.35,219.41c.07,1.56.84,3.05,1.64,4.36s1.74,2.41,2.84,3.41c.61.56,1.27,1.06,1.96,1.52.16.11.31-.15.15-.26-2.39-1.57-4.32-3.79-5.54-6.38-.39-.83-.71-1.72-.75-2.64,0-.19-.31-.19-.3,0h0Z"/>
    </g>
    <g>
      <path class="cls-5" d="M144.53,217.24c2.47,1.63,5.23,3.1,6.73,5.66"/>
      <path d="M144.45,217.37c1.9,1.26,3.95,2.39,5.52,4.07.44.47.82.98,1.15,1.53.1.17.36.02.26-.15-1.19-2.02-3.16-3.38-5.1-4.63-.56-.36-1.12-.72-1.68-1.08-.16-.11-.31.15-.15.26h0Z"/>
    </g>
    <g>
      <path class="cls-5" d="M143.24,211.21c.13-.72.68-1.27,1.24-1.75,2.03-1.73,4.43-2.95,6.81-4.14"/>
      <path d="M143.38,211.25c.12-.61.53-1.08.98-1.49.5-.45,1.03-.86,1.58-1.25,1.08-.76,2.23-1.42,3.4-2.03.67-.35,1.35-.69,2.02-1.04.17-.09.02-.35-.15-.26-2.44,1.23-4.94,2.47-6.99,4.29-.51.46-.99,1-1.13,1.69-.04.19.25.27.29.08h0Z"/>
    </g>
    <g>
      <path class="cls-5" d="M145.85,211.52c2.83-.08,5.61-1.21,7.7-3.11"/>
      <path d="M145.85,211.67c2.24-.07,4.44-.77,6.32-2,.53-.34,1.02-.73,1.49-1.15.14-.13-.07-.34-.21-.21-1.61,1.45-3.61,2.44-5.74,2.86-.61.12-1.23.19-1.86.21-.19,0-.19.31,0,.3h0Z"/>
    </g>
  </g>
</svg>