<?xml version="1.0" encoding="UTF-8"?>
<svg id="Layer_1" data-name="Layer 1" xmlns="http://www.w3.org/2000/svg" viewBox="0 0 289.13 430.87">
  <defs>
    <style>
      .cls-1 {
        fill: #f5c7bc;
      }

      .cls-1, .cls-2 {
        stroke: #000;
        stroke-linecap: round;
        stroke-linejoin: round;
        stroke-width: .5px;
      }

      .cls-2 {
        fill: #d1d88d;
      }
    </style>
  </defs>
  <g>
    <path class="cls-2" d="M133.76,295.6l-.45,81.14c-.02,3.59,2.89,6.52,6.48,6.52h0c3.6,0,6.51-2.93,6.48-6.53l-.56-81.32"/>
    <path class="cls-1" d="M114.89,90.22s23.05-37.54,25.69-37.54c7.23,0,28.23,34.23,27.61,40.49s-26.64,27.01-26.64,27.01l-26.66-29.97Z"/>
    <path class="cls-2" d="M136.75,249.84s-15.87-8.14-23.6-8.14-17.7.61-27.47,0c-9.77-.61-13.02,4.88-18.92,6.51-5.9,1.63-21.98,1.63-26.25,12.82-4.27,11.19-1.63,17.7,2.44,19.53,4.07,1.83,16.07-.81,19.94,2.65s6.76,13.23,18.85,14.65c12.08,1.42,34.87-.84,43.42,1.22,8.55,2.06,32.96,13.02,41.92,13.02s36.42-5.09,41.31-12.62c4.88-7.53,9.97-14.65,25.03-16.28,15.06-1.63,8.95-16.28,3.66-19.33-5.29-3.05-13.23-10.17-19.33-11.39-6.1-1.22-17.7.2-22.59-2.44-4.88-2.65-8.75-5.29-18.72-5.29s-39.68,5.09-39.68,5.09Z"/>
    <polyline class="cls-2" points="145.41 277.03 144.49 222.19 134.71 224.26 134.01 277.03"/>
    <path class="cls-1" d="M117.24,211.14s-6.14,13.05,20.63,18.31c6.09,1.2,9.41-3.28,14.41-3.77,12.51-1.22,8.6-20.27,8.6-20.27l-18.9-28.82-24.74,34.55Z"/>
    <path class="cls-1" d="M209.73,133.68s36.17-27.66,48.68-20.91c1.06,7.19-6.91,10.44-11.8,23.22-5.6,14.62-25.36,54.33-67.51,50.71l30.62-53.02Z"/>
    <path class="cls-1" d="M68.79,126.44s-29.14-21.76-37.54-17.78c-6.82,3.23,24.7,58.61,30.95,62.9,6.26,4.28,30.62,19.1,55.65,20.75l-49.06-65.86Z"/>
    <path class="cls-1" d="M185.03,104.71s29.64-33.26,36.88-29.31c7.24,3.95,3.29,34.77,1.65,40.6-1.65,5.83-13.17,25.92-24.37,32.17-11.2,6.26-14.16-43.47-14.16-43.47Z"/>
    <path class="cls-1" d="M96.45,100.75s-25.72-30.09-33.92-23.05c-6.68,5.74,3.62,74.09,24.37,76.4l9.55-53.35Z"/>
    <path class="cls-1" d="M150.46,110.63s11.2-39.19,27.99-39.19,11.2,72.11,11.2,72.11l-29.31,10.54-14.49-30.62,4.61-12.84Z"/>
    <path class="cls-1" d="M91.84,121.17s2.31-53.02,12.18-54.66c9.88-1.65,31.61,36.55,27.66,54.66-3.95,18.11-8.89,36.14-8.89,36.14l-30.95-36.14Z"/>
    <path class="cls-1" d="M119.18,146.53s2.63-24.04,10.54-34.91c7.9-10.87,8.56-18.77,10.54-18.44,1.98.33,29.64,25.03,23.71,54.99-5.93,29.97-21.07,45.77-21.07,45.77l-20.42-14.16-3.29-33.26Z"/>
    <path class="cls-1" d="M203.99,180.11s21.88-.33,31.1,4.94c9.22,5.27,22.6,7.89,23.42,12.75.89,5.28-17.82,7.99-24.41,13.59-6.59,5.6-34.58,13.5-49.06,9.88-14.49-3.62-35.56-18.44-44.45-22.72l31.94-15.15,31.47-3.29Z"/>
    <path class="cls-1" d="M76.65,178.83c-11.75-2.55-40.65-6.54-54.62,11.83,0,0,18.59,7.57,29.88,16.79,11.29,9.22,32.69,12.51,44.55,9.55,11.85-2.96,27.66-12.18,33.92-12.84,0,0,8.97-2.55,10.87-7.83l-41.19-18.76-12.23,1.71c-3.72.52-7.49.35-11.16-.44Z"/>
    <path class="cls-1" d="M140.58,189.99s-11.62-60.25-51.08-73.76c-2.47-.85-5.12.69-5.64,3.25-3.47,17.11-10.62,76.54,56.72,79.07,67.92,2.56,64.72-61.59,62.56-79.22-.29-2.35-2.74-3.79-4.93-2.89-11.79,4.83-44.76,22.59-57.64,73.55Z"/>
  </g>
  <g>
    <path d="M160.79,200.75c11.03,4.39,22.57,8.21,34.54,8.57,11.62.34,22.65-3.39,33.83-5.97,6.27-1.45,12.68-2.48,19.13-2.1.19.01.19-.29,0-.3-11.43-.68-22.43,3.05-33.41,5.65-5.62,1.33-11.32,2.37-17.11,2.44-5.98.07-11.93-.79-17.73-2.21-6.55-1.6-12.92-3.88-19.18-6.37-.18-.07-.26.22-.08.29h0Z"/>
    <path d="M166.21,198.1c4.48-.87,8.94.45,13.28,1.43,4.36.99,8.79,1.6,13.26,1.83,2.55.13,5.1.13,7.65.01.19,0,.19-.31,0-.3-4.57.21-9.16.03-13.7-.56-2.32-.3-4.62-.71-6.9-1.22s-4.39-1.07-6.61-1.43c-2.34-.38-4.71-.5-7.05-.05-.19.04-.11.33.08.29h0Z"/>
    <path d="M178.44,193.84c6.81-1.15,13.83-.79,20.5,1.02.19.05.27-.24.08-.29-6.72-1.83-13.79-2.18-20.66-1.02-.19.03-.11.32.08.29h0Z"/>
    <path d="M159.3,205.18c11.43,6.99,24.93,10.44,38.31,9.91,3.76-.15,7.5-.62,11.17-1.39.19-.04.11-.33-.08-.29-12.99,2.74-26.73,1.5-39.07-3.39-3.54-1.4-6.95-3.11-10.19-5.09-.17-.1-.32.16-.15.26h0Z"/>
    <path d="M41.73,194.42c9.94.02,18.69,5.46,27.73,8.84,4.57,1.71,9.32,2.9,14.23,2.77,5.28-.13,10.41-1.54,15.47-2.93,5.81-1.61,11.69-3.28,17.77-3.18.19,0,.19-.3,0-.3-10.8-.17-20.67,5.14-31.32,6.01-5.08.41-9.99-.51-14.77-2.18s-9.05-3.79-13.59-5.64c-4.95-2.02-10.12-3.67-15.52-3.68-.19,0-.19.3,0,.3h0Z"/>
    <path d="M64.64,191.87c8.57,2.83,17.68,3.04,26.61,2.64,2.56-.11,5.12-.28,7.67-.44.19-.01.19-.31,0-.3-8.92.58-17.97,1.16-26.83-.36-2.5-.43-4.97-1.03-7.38-1.83-.18-.06-.26.23-.08.29h0Z"/>
    <path d="M46.54,185.64c9.43-1.65,19.13-1.51,28.51.41.19.04.27-.25.08-.29-9.44-1.93-19.18-2.07-28.67-.41-.19.03-.11.32.08.29h0Z"/>
    <path d="M69.01,211.18c11.26,2.23,22.71-.22,33.49-3.56,3.11-.96,6.2-2.01,9.28-3.06.18-.06.1-.35-.08-.29-10.65,3.63-21.62,7.34-33,7.47-3.23.04-6.45-.23-9.61-.86-.19-.04-.27.25-.08.29h0Z"/>
    <path d="M202.79,162.38c7.08-5.27,10.46-13.73,15.63-20.61,1.51-2.01,3.19-3.88,5.11-5.49.15-.12-.06-.34-.21-.21-6.77,5.65-10.01,14.13-15.43,20.89-1.54,1.92-3.27,3.69-5.25,5.17-.15.11,0,.37.15.26h0Z"/>
    <path d="M248.38,121.3c-6.06,6.55-10.46,14.35-15.35,21.75-2.51,3.8-5.18,7.52-8.26,10.88-3.1,3.39-6.57,6.44-10.19,9.26-4.18,3.26-8.58,6.24-12.97,9.21-.16.11,0,.37.15.26,7.65-5.18,15.39-10.42,21.86-17.08,6.3-6.49,10.85-14.32,15.76-21.85,2.79-4.28,5.74-8.47,9.22-12.23.13-.14-.08-.35-.21-.21h0Z"/>
    <path d="M196.52,178.36c7.29-2.78,14.26-6.36,20.75-10.69.16-.11,0-.37-.15-.26-6.47,4.31-13.41,7.89-20.68,10.66-.18.07-.1.36.08.29h0Z"/>
    <path d="M137.45,206.61c.08,4.07-.03,8.14-.34,12.2-.01.19.29.19.3,0,.31-4.06.43-8.13.34-12.2,0-.19-.3-.19-.3,0h0Z"/>
    <path d="M141.29,204.48c-.87,4.82-.26,9.84,1.74,14.32.08.18.34.02.26-.15-1.96-4.4-2.56-9.35-1.71-14.09.03-.19-.26-.27-.29-.08h0Z"/>
    <path d="M147.63,209.02c.97,3.57,1.35,7.29,1.12,10.98-.01.19.29.19.3,0,.23-3.72-.15-7.47-1.13-11.06-.05-.19-.34-.11-.29.08h0Z"/>
    <path d="M151.46,207.58c2.1,3.85,2.67,8.46,1.56,12.7-.05.19.24.27.29.08,1.13-4.32.55-9.01-1.59-12.93-.09-.17-.35-.02-.26.15h0Z"/>
    <path d="M128.63,209.87c-.94,3.85-.34,8,1.64,11.43.1.17.36.02.26-.15-1.95-3.36-2.53-7.43-1.61-11.2.05-.19-.24-.27-.29-.08h0Z"/>
    <path d="M92.21,292.19c5-3.1,10.05-6.22,15.52-8.42,2.64-1.06,5.38-1.91,8.18-2.4,3.17-.56,6.39-.61,9.6-.56,6.48.11,12.96.32,19.45.48,3.21.08,6.44.09,9.65.31,3.08.21,6.06.81,9.01,1.69,5.95,1.78,11.96,4.39,18.31,3.5.19-.03.11-.32-.08-.29-5.9.83-11.57-1.45-17.09-3.17-2.78-.87-5.58-1.58-8.49-1.88-3.17-.33-6.38-.33-9.57-.41-6.53-.16-13.07-.34-19.6-.49-3.22-.08-6.46-.12-9.66.29-2.79.36-5.52,1.06-8.16,2.02-6.13,2.22-11.72,5.66-17.23,9.08-.16.1-.01.36.15.26h0Z"/>
    <path d="M156.46,277.63c7.18-4.13,15.09-6.42,23.32-7.17,4.29-.39,8.61-.52,12.91-.73s8.73-.41,13.09-.61c4.95-.23,9.89-.46,14.84-.7.19,0,.19-.31,0-.3-8.89.42-17.79.83-26.68,1.25-8.46.4-17.06.44-25.26,2.77-4.32,1.23-8.47,2.99-12.36,5.23-.17.1-.02.36.15.26h0Z"/>
    <path d="M149.04,271.85c4.05-5.31,8.95-9.98,14.45-13.76,1.54-1.06,3.14-2.05,4.77-2.97.17-.09.02-.35-.15-.26-5.85,3.31-11.17,7.54-15.7,12.5-1.27,1.39-2.48,2.84-3.62,4.34-.12.15.14.3.26.15h0Z"/>
    <path d="M93.23,255.55c8.93,2.72,17.38,6.91,24.95,12.38,2.19,1.58,4.29,3.27,6.32,5.05.14.13.36-.08.21-.21-7.04-6.19-15.08-11.2-23.74-14.77-2.5-1.03-5.06-1.94-7.65-2.73-.19-.06-.26.23-.08.29h0Z"/>
    <path d="M116.22,252.95c4.58,1.62,8.68,4.48,11.82,8.19.9,1.06,1.71,2.19,2.43,3.38.1.16.36.01.26-.15-2.56-4.2-6.26-7.69-10.6-10.02-1.23-.66-2.51-1.22-3.82-1.69-.18-.06-.26.23-.08.29h0Z"/>
    <path d="M56.42,267.25c8.4-1.58,17-2.08,25.53-1.49,8.57.59,17.06,2.26,25.2,4.97,4.61,1.53,9.09,3.4,13.43,5.59.17.09.32-.17.15-.26-7.69-3.88-15.87-6.76-24.3-8.57-8.42-1.81-17.07-2.55-25.68-2.2-4.84.2-9.66.76-14.42,1.65-.19.04-.11.32.08.29h0Z"/>
    <path d="M74.52,278.23c8.96-.74,17.94-.61,26.89.22,2.17.2,4.42.33,6.47-.53.18-.07.1-.36-.08-.29-1.89.8-3.95.74-5.96.56-2.18-.19-4.35-.39-6.53-.52-4.41-.26-8.84-.32-13.25-.17-2.52.08-5.03.23-7.55.44-.19.02-.19.32,0,.3h0Z"/>
    <path d="M152.95,290.44c2.6,1.54,4.95,3.49,6.94,5.77.97,1.11,1.81,2.3,2.63,3.52.71,1.05,1.42,2.11,2.29,3.03.94,1,2.07,1.8,3.42,2.11.19.04.27-.25.08-.29-2.62-.6-4.19-3.01-5.6-5.09-1.6-2.38-3.41-4.57-5.6-6.44-1.25-1.07-2.6-2.03-4.01-2.87-.17-.1-.32.16-.15.26h0Z"/>
    <path d="M109,292.06c5.81-5.3,14.4-3.73,21.53-4.86.19-.03.11-.32-.08-.29-7.21,1.14-15.8-.42-21.67,4.94-.14.13.07.34.21.21h0Z"/>
    <path d="M160.21,289.04c3.05,2.57,6.58,4.45,10.22,6.03,3.89,1.69,7.89,3.13,11.85,4.65,2.46.94,4.92,1.89,7.38,2.83.18.07.26-.22.08-.29-4.19-1.61-8.38-3.21-12.57-4.82-3.75-1.44-7.53-2.86-11.07-4.79-2.01-1.09-3.92-2.35-5.67-3.82-.15-.12-.36.09-.21.21h0Z"/>
    <path d="M187.17,150.63c-1.83,7.18-4.72,14.07-8.54,20.43-3.81,6.35-8.53,12.16-13.97,17.19-3.09,2.85-6.41,5.43-9.93,7.73-.16.11-.01.36.15.26,6.26-4.08,11.89-9.09,16.7-14.8,4.79-5.68,8.78-12.05,11.78-18.85,1.69-3.84,3.06-7.81,4.1-11.88.05-.19-.24-.27-.29-.08h0Z"/>
    <path d="M174,163.94c-4.78,9.53-11.65,17.96-20,24.59-2.39,1.9-4.9,3.63-7.5,5.22-.16.1-.01.36.15.26,9.17-5.56,17.09-13.15,23.05-22.07,1.68-2.52,3.2-5.14,4.56-7.84.09-.17-.17-.32-.26-.15h0Z"/>
    <path d="M172.39,145.88c-5.1,9.85-11.05,19.26-17.78,28.09-1.96,2.57-3.99,5.09-6.07,7.56-.12.15.09.36.21.21,7.22-8.54,13.7-17.71,19.33-27.37,1.6-2.74,3.12-5.52,4.58-8.34.09-.17-.17-.32-.26-.15h0Z"/>
    <path d="M166.75,166.27c-3.87,7.52-8.97,14.37-15.08,20.21-1.72,1.64-3.51,3.2-5.38,4.68-.15.12.06.33.21.21,6.62-5.24,12.35-11.57,16.9-18.68,1.3-2.03,2.5-4.12,3.6-6.27.09-.17-.17-.32-.26-.15h0Z"/>
    <path d="M186.75,134.17c-3.73,8.32-8.13,16.33-13.14,23.95-.11.16.15.31.26.15,5.01-7.62,9.4-15.63,13.14-23.95.08-.17-.18-.33-.26-.15h0Z"/>
    <path d="M140.79,114.96c-.81,12.96-.77,25.98.12,38.94.26,3.69.58,7.38.98,11.05.02.19.32.19.3,0-1.38-12.92-1.92-25.92-1.59-38.91.09-3.7.26-7.39.49-11.09.01-.19-.29-.19-.3,0h0Z"/>
    <path d="M147.85,124.22c1.51,8.99,1.85,18.16,1.01,27.23-.24,2.61-.58,5.21-1.01,7.8-.03.19.26.27.29.08,1.52-9.09,1.87-18.37,1-27.55-.24-2.56-.58-5.1-1-7.63-.03-.19-.32-.11-.29.08h0Z"/>
    <path d="M132.36,133.2c1.41,9.02,3.16,17.99,5.25,26.88.6,2.54,1.23,5.07,1.88,7.6.05.19.34.11.29-.08-2.29-8.84-4.24-17.77-5.84-26.76-.46-2.57-.89-5.14-1.29-7.72-.03-.19-.32-.11-.29.08h0Z"/>
    <path d="M153.25,118.26c2.63,8.64,3.41,17.78,2.26,26.74-.02.19.28.19.3,0,1.15-8.98.37-18.16-2.27-26.82-.06-.18-.35-.11-.29.08h0Z"/>
    <path d="M107.23,146.19c1.27,11.5,5.08,22.68,11.09,32.57,1.68,2.77,3.54,5.43,5.55,7.98.12.15.33-.06.21-.21-7.11-9.01-12.22-19.57-14.88-30.73-.75-3.16-1.31-6.37-1.67-9.6-.02-.19-.32-.19-.3,0h0Z"/>
    <path d="M108.51,139.77c5.37,12.08,11.37,23.88,17.98,35.33,1.85,3.2,3.75,6.38,5.69,9.52.1.16.36.01.26-.15-6.95-11.25-13.3-22.86-19.02-34.78-1.6-3.33-3.15-6.69-4.65-10.07-.08-.18-.34-.02-.26.15h0Z"/>
    <path d="M89.49,136.09c.41,6.77,1.81,13.46,4.13,19.83,2.32,6.37,5.54,12.41,9.55,17.87,2.25,3.06,4.75,5.94,7.47,8.6.14.14.35-.08.21-.21-9.62-9.4-16.4-21.6-19.42-34.7-.86-3.75-1.41-7.56-1.64-11.39-.01-.19-.31-.19-.3,0h0Z"/>
    <path d="M91.43,165.53c5.44,8.54,11.5,17.23,20.57,22.24,2.37,1.31,4.9,2.32,7.53,2.94.19.04.27-.24.08-.29-9.85-2.34-17.32-9.78-23.05-17.75-1.71-2.37-3.3-4.82-4.87-7.29-.1-.16-.36-.01-.26.15h0Z"/>
    <path d="M94.72,136.19c2.3,7.03,4.78,14,7.31,20.94,2.01,5.53,4.06,11.13,7.26,16.11,1.77,2.76,3.91,5.27,6.48,7.32.15.12.36-.09.21-.21-4.6-3.67-7.68-8.78-10.05-14.09-2.68-6-4.76-12.3-6.95-18.49-1.37-3.87-2.7-7.76-3.98-11.66-.06-.18-.35-.1-.29.08h0Z"/>
    <path d="M208.31,95.57c-2.42,7.33-6.48,13.94-10.51,20.47-.1.16.16.32.26.15,4.04-6.55,8.12-13.19,10.54-20.55.06-.18-.23-.26-.29-.08h0Z"/>
    <path d="M215.79,89.07c-.34,4.99-1.39,9.92-3.13,14.61-.86,2.32-1.94,4.56-2.89,6.84s-1.58,4.51-2.17,6.85c-.66,2.6-1.33,5.22-2.63,7.59-.09.17.17.32.26.15,2.31-4.2,2.71-9.11,4.44-13.54.91-2.35,2.03-4.6,2.95-6.95s1.68-4.81,2.25-7.29c.63-2.72,1.03-5.49,1.22-8.27.01-.19-.29-.19-.3,0h0Z"/>
    <path d="M219.27,104.45c-2.38,3.38-2.79,7.58-3.84,11.47s-2.83,7.97-5.12,11.52c-1.32,2.05-2.83,3.97-4.49,5.75-.13.14.08.35.21.21,2.85-3.05,5.24-6.52,7.05-10.29.88-1.84,1.63-3.75,2.23-5.7.63-2.04,1.03-4.13,1.53-6.2.56-2.33,1.29-4.64,2.68-6.62.11-.16-.15-.31-.26-.15h0Z"/>
    <path d="M46.59,128.31c4.69,8.1,9.39,16.21,14.82,23.85,4.84,6.81,10.23,13.35,16.56,18.83,3.47,3,7.24,5.65,11.26,7.87.17.09.32-.17.15-.26-7.14-3.93-13.33-9.25-18.75-15.3-5.97-6.67-11.09-14.03-15.79-21.63-2.75-4.45-5.37-8.97-7.99-13.5-.1-.17-.36-.02-.26.15h0Z"/>
    <path d="M62.69,139.01c4.81,7.74,10.43,14.97,16.76,21.52,1.82,1.88,3.69,3.7,5.62,5.47.14.13.35-.08.21-.21-6.73-6.16-12.8-13.03-18.07-20.48-1.49-2.11-2.91-4.26-4.27-6.45-.1-.16-.36-.01-.26.15h0Z"/>
    <path d="M58.48,159.51c3.24,3.63,6.77,7,10.68,9.9,3.59,2.66,7.49,4.82,11.37,7.03,1.81,1.03,3.65,2.01,5.5,2.97.17.09.32-.17.15-.26-3.41-1.77-6.75-3.67-10.08-5.58-4.08-2.34-7.92-5.06-11.42-8.2-2.12-1.91-4.1-3.95-6-6.07-.13-.14-.34.07-.21.21h0Z"/>
    <path d="M67.43,95.38c2.92,11.05,6.47,21.94,10.65,32.58,1.16,2.97,2.38,5.92,3.64,8.85.08.18.33.02.26-.15-4.49-10.45-8.38-21.17-11.64-32.07-.92-3.08-1.79-6.18-2.61-9.28-.05-.19-.34-.11-.29.08h0Z"/>
    <path d="M75.11,95.98c1.49,7.66,4.05,15.08,7.6,22.03.09.17.35.02.26-.15-3.54-6.93-6.08-14.33-7.57-21.96-.04-.19-.33-.11-.29.08h0Z"/>
    <path d="M75.85,90.06c4.82,7.43,8.51,15.55,10.93,24.08.05.19.34.11.29-.08-2.42-8.54-6.12-16.7-10.96-24.15-.1-.16-.36-.01-.26.15h0Z"/>
    <path d="M105.64,81.6c-1.17,10.93-.91,21.99.77,32.86.48,3.09,1.07,6.15,1.78,9.2.04.19.33.11.29-.08-2.48-10.72-3.56-21.75-3.19-32.75.1-3.08.32-6.16.65-9.23.02-.19-.28-.19-.3,0h0Z"/>
    <path d="M111.54,95.62c.74,8.3,1.15,16.63,1.23,24.96.02,2.39.02,4.78-.02,7.18,0,.19.3.19.3,0,.11-8.33-.1-16.67-.65-24.98-.16-2.39-.34-4.77-.56-7.16-.02-.19-.32-.19-.3,0h0Z"/>
    <path d="M118.71,100.12c2.41,8.58,3.28,17.55,2.57,26.44-.02.19.28.19.3,0,.71-8.91-.17-17.91-2.58-26.52-.05-.19-.34-.11-.29.08h0Z"/>
    <path d="M100.82,92.64c-.4,9.99.37,20.01,2.28,29.83.04.19.33.11.29-.08-1.91-9.79-2.67-19.78-2.27-29.75,0-.19-.29-.19-.3,0h0Z"/>
    <path d="M137.2,66.12c-1.21,8.36-.73,16.91,1.42,25.08.05.19.34.11.29-.08-2.14-8.11-2.62-16.62-1.42-24.92.03-.19-.26-.27-.29-.08h0Z"/>
    <path d="M143.95,69.18c1.26,8.55,1.57,17.22.93,25.84-.01.19.29.19.3,0,.64-8.65.32-17.34-.94-25.92-.03-.19-.32-.11-.29.08h0Z"/>
    <path d="M150.77,72.12c1.18,9.17,1.59,18.43,1.23,27.66,0,.19.29.19.3,0,.36-9.24-.05-18.49-1.23-27.66-.02-.19-.32-.19-.3,0h0Z"/>
    <path d="M130.2,78.05c-.74,7.62-.06,15.35,2,22.73.05.19.34.11.29-.08-2.05-7.35-2.72-15.05-1.99-22.65.02-.19-.28-.19-.3,0h0Z"/>
    <path d="M208.14,199.85c4.31-1.08,8.82-1.27,13.23-1.69s9.02-.84,13.53-1.27c.19-.02.19-.32,0-.3-4.59.43-9.19.86-13.78,1.29-4.35.41-8.8.6-13.06,1.67-.19.05-.11.34.08.29h0Z"/>
    <path d="M206.62,191.15c4.72-.22,9.45-.45,14.17-.65,2.23-.09,4.46-.13,6.68.15,2.32.3,4.6.92,6.75,1.84.18.07.33-.18.15-.26-2.06-.87-4.2-1.49-6.41-1.81-2.22-.32-4.46-.32-6.69-.24-4.89.18-9.77.45-14.65.67-.19,0-.19.31,0,.3h0Z"/>
    <path d="M173.29,89.38c-2.23,9.89-3.57,19.97-3.99,30.09-.12,2.91-.16,5.83-.13,8.74,0,.19.3.19.3,0-.1-10.15.7-20.3,2.42-30.3.49-2.83,1.05-5.65,1.68-8.45.04-.19-.25-.27-.29-.08h0Z"/>
    <path d="M179.09,82.93c.36,8.6.06,17.23-.92,25.78-.29,2.51-.64,5.02-1.04,7.51-.03.19.26.27.29.08,1.38-8.55,2.1-17.21,2.12-25.87,0-2.5-.05-5-.15-7.5,0-.19-.31-.19-.3,0h0Z"/>
    <path d="M165.63,94.42c-2.96,6.08-3.16,12.97-3.3,19.6,0,.19.3.19.3,0,.14-6.58.33-13.42,3.26-19.45.08-.17-.17-.33-.26-.15h0Z"/>
    <path d="M184.31,99.12c.24,7.61-.74,15.22-2.89,22.53-.05.19.23.26.29.08,2.15-7.33,3.13-14.97,2.9-22.61,0-.19-.31-.19-.3,0h0Z"/>
    <path d="M165.79,264.8c8.59-3.74,18.19-2.5,27.29-3.12,2.54-.17,5.07-.49,7.55-1.07.19-.04.11-.33-.08-.29-9.1,2.13-18.54.55-27.71,2.12-2.48.42-4.9,1.1-7.21,2.1-.18.08-.02.34.15.26h0Z"/>
    <path d="M179.62,280.41c10.28-1.26,20.72-1,30.92.79.19.03.27-.26.08-.29-7.95-1.39-16.05-1.88-24.11-1.42-2.3.13-4.6.34-6.89.62-.19.02-.19.32,0,.3h0Z"/>
    <path d="M54.83,254.28c9.18.03,18.33,1.12,27.27,3.25.19.04.27-.24.08-.29-8.96-2.13-18.14-3.22-27.34-3.26-.19,0-.19.3,0,.3h0Z"/>
    <path d="M87.7,246.11c6.54.61,13,1.95,19.25,3.96.18.06.26-.23.08-.29-6.28-2.03-12.76-3.36-19.33-3.97-.19-.02-.19.28,0,.3h0Z"/>
    <path d="M139.15,290.92c2.61,2.51,5.22,5.02,7.83,7.53.75.72,1.5,1.44,2.25,2.16.14.13.35-.08.21-.21-2.61-2.51-5.22-5.02-7.83-7.53-.75-.72-1.5-1.44-2.25-2.16-.14-.13-.35.08-.21.21h0Z"/>
  </g>
</svg>