<?xml version="1.0" encoding="UTF-8"?>
<svg id="Layer_1" data-name="Layer 1" xmlns="http://www.w3.org/2000/svg" viewBox="0 0 289.13 430.87">
  <defs>
    <style>
      .cls-1 {
        fill: #c8cc7a;
      }

      .cls-1, .cls-2, .cls-3 {
        stroke: #000;
        stroke-linecap: round;
        stroke-linejoin: round;
        stroke-width: .5px;
      }

      .cls-2 {
        fill: #f2beaa;
      }

      .cls-3 {
        fill: #df9471;
      }
    </style>
  </defs>
  <g>
    <path class="cls-1" d="M103.28,173.05s-14.48,28.19-3.39,35.28c0,0,7.55-22.49,11.4-24.19,0,0,6.01,6.93,8.63,9.71s1.08,9.55,4.62,16.64,16.74,99.63,14.67,107.51c0,0-5.11-5.87-12.39-19.82,0,0,3.21-37.36-1.83-42.75l-1.26,2.34s-7.38-18.89-9.53-20.69l-1.08,2.88s-10.61-20.69-22.31-22.49l-.4,2.63s-6.62-10.76-28.54-12.05l1.28,2.17s-12.29-3.46-40.59-3.95c0,0,4.1,13.33,11.7,20.44l-3.75.49s4.15,13.23,10.07,17.08l-3.36.49s6.73,8.59,7.8,11.53,2.8,5.87,4.4,6.94l-1.47,4.4s13.21,12.95,19.62,14.82l-1.6,2.4s4,1.87,6.81,1.74l-3.34,1.6s12.28,7.47,26.43,8.81c14.15,1.33,21.76,2.4,23.36,4.81,1.6,2.4,17.49,24.83,17.08,38.17-.27,9.16.08,21.02.33,27.56.1,2.72,2.34,4.87,5.06,4.87h0c2.24,0,4.21-1.46,4.85-3.61,2.68-8.94,10.26-31.65,19.12-34.97,11.08-4.14,22.16,1.2,34.44-4.4,12.28-5.61,18.02-11.61,18.02-11.61l-2.67-.67s12.68-5.87,19.49-15.88l-2.67-1.33s10.28-11.21,10.94-14.28l-2.8-2s15.62-22.42,18.42-23.22c0,0-2.27-1.74-11.75-.8l1.74-2s-8.94-.67-15.48.8l1.47-1.6s-12.41-.13-19.35,1.87l.93-1.87s-17.62-1.33-29.36,9.48l-.4-2.67s-33.1,17.49-27.23,65.94c0,0-8.21,7.81-13.85,23.62,0,0-3.58-22.69,1.8-42.46,5.37-19.77,12.66-45.95,19.94-56.18,7.28-10.23,20.29-30.86,20.29-30.86,0,0,3.29,22.89,2.25,30.86,0,0,18.73-6.59,15.43-26.01-3.29-19.42-12.83-27.74-12.83-27.74l-21.67,6.76s-13-1.21-20.46,16.99c0,0,24.79-3.99,30.17-2.6,0,0-32.25,39.18-34.68,67.79,0,0-7.11-46.29-6.94-50.11s-5.2-29.13-7.98-34.85c-2.77-5.72-1.56-18.2-3.12-22.02-1.56-3.81-2.77-6.59-2.77-6.59,0,0,18.95,8.79,22.64,9.94,0,0,1.47-11.83-17.87-20.07-19.34-8.24-26.48,6.97-26.48,6.97Z"/>
    <path class="cls-2" d="M252.65,222.08s17.69-5.22,18.44-16.98,5.22-11.57,2.24-18.1c-2.98-6.53-11.31-6.72-11.31-6.72l-15.74,23.69-10.26,15.61,16.63,2.49Z"/>
    <path class="cls-2" d="M241.84,150.26s9.29-3.89,12.28-1.01,10.82,5.67,12.13,11.46c1.31,5.78-.35,15.83-1.12,19.77-1.03,5.27-7.49,13.54-7.49,13.54l-6.69,2.5-5.04-26.67-4.07-19.59Z"/>
    <path class="cls-2" d="M210.65,132.52s21.64-4.68,28.73,0c7.09,4.68,4.66,24.08,3.73,25.95s-21.45-1.68-21.45-1.68l-14.55-13.48,3.54-10.79Z"/>
    <path class="cls-2" d="M211.29,150.63s10.55-9.33,20.44-2.98c0,0,4.29,4.29,7.09,5.22s10.07,1.68,12.13,9.7c2.05,8.02,2.98,22.95-1.49,25.18-4.48,2.24-25.93,0-25.93,0l-13.99-23.88,1.76-13.24Z"/>
    <path class="cls-2" d="M217.81,168.63s3.31-7.52,9.23-7.52,10.31,1.83,13.02,5.99c2.7,4.16,5.07,11.34,3.21,16.5-1.86,5.15-14.71,2.15-14.71,2.15l-10.75-17.12Z"/>
    <path class="cls-2" d="M233.97,184.77s9.51-3.54,12.87-3.54,5.04-4.85,8.58,0c3.54,4.85,4.1,10.26,0,18.28-4.1,8.02-4.4,11.57-9.29,13.24s-15.52,1.12-15.52,1.12l-5.22-12.16,8.58-16.94Z"/>
    <path class="cls-2" d="M186.21,131.6s12.69-10.26,20.71-8.21c4.8,1.23,6.79,4.87,7.62,7.59.53,1.73.48,3.58-.1,5.29-1.28,3.76-3.93,11.41-4.35,11.55-.56.19-23.88,4.29-23.88,4.29l-5.78-4.1,5.78-16.42Z"/>
    <path class="cls-2" d="M186.65,211.54c-6.99.64-32.63-11.98-30.24-37.99,2.57-27.95,5.95-26.5,9.19-26.17s7.98,15.62,7.98,15.62c0,0,17.22,42.11,13.07,48.53Z"/>
    <path class="cls-2" d="M101.4,109.32s-16.61-11.07-10.76-16.77c5.84-5.69,10.46-10,19.38-8.46,8.92,1.54,13.07,7.18,12.46,16.13-.62,8.95-21.08,9.1-21.08,9.1Z"/>
    <path class="cls-2" d="M73.01,108.74s-6.06-13.87,7.29-14.78c13.35-.91,17.36,5.71,17.36,5.71l8.81,10.87-18.62,3.49-14.84-5.3Z"/>
    <path class="cls-2" d="M61.72,134.24s-10.46-3.23-4.61-20.46c0,0-1.78-6.61,1.42-8.92,3.19-2.31,4.89-4.92,7.96-4.61s9.66,4.61,12.06,9.38c2.4,4.77-.68,14.77-.68,14.77l-16.15,9.84Z"/>
    <path class="cls-2" d="M72.93,122.08s-2.91-15.54,10.17-15.38c13.07.15,13.69,2.46,17.38,8.77,3.69,6.31-4.92,12.77-4.92,12.77l-18.61.92-4.02-7.08Z"/>
    <path class="cls-2" d="M45.87,139.77s-3.23-19.84,2.46-22.46c1.43-.66,2.86-.93,4.21-.98,3.94-.14,7.55,2.23,9.27,5.78l4.67,9.66-6.46,9.69-12.46,2.61-1.69-4.31Z"/>
    <path class="cls-2" d="M44.8,164.08s-15.54-16.15-13.69-22.46,6-8.66,8.31-9.1c2.31-.44,16.15,8.79,17.38,11.71s4,21.84,4,21.84l-16-2Z"/>
    <path class="cls-2" d="M119.81,100.22s-4.26-22.16,9.95-17.09c0,0,4.86,2.73,6.41,5.65,0,0,11.88.19,15,13.24,3.12,13.05-4.48,15.21-4.48,15.21l-19.28-3.29-7.6-13.71Z"/>
    <path class="cls-2" d="M104.15,124.97s-7.12-7.74-6.11-12.01c1.02-4.27,3.87-6.31,3.87-6.31,0,0-1.42-6.11,3.05-7.53,0,0,1.85-.8,3.57-.71,0,0-.45-3.72,9.25-3.17,9.7.54,10.61,4.08,10.61,4.08,0,0,4.99-2.54,8.71,6.8,3.72,9.34,1.36,19.77,1.36,19.77l-5.8,17.41-10.7-.54-17.81-17.79Z"/>
    <path class="cls-2" d="M57.26,166.54s-6.61-11.23-4-20.61c0,0-1.08-10.31,6.46-12.77,0,0,1.13-11.78,9.49-13.35,8.36-1.57,10.2,1.97,10.2,1.97,0,0,9.54,0,12.92,8.61,3.38,8.61-4,36.15-4,36.15l-18.46,5.38-12.61-5.38Z"/>
    <line class="cls-3" x1="145.55" y1="353.21" x2="145.55" y2="364.38"/>
    <path class="cls-2" d="M192.55,153.24s-4.29-9.24,1.12-9.94,9.51.05,11.01-1.63c1.49-1.68,2.88-3.27,5.6-2.24s8.21,3.95,7.46,9.81c-.75,5.86-3.54,19.38-3.54,19.38l-19.96-.83-1.68-14.55Z"/>
    <path class="cls-2" d="M190.94,168.63s12.81-11.28,19.9-8.11c7.09,3.17,11.19,2.05,11.19,12.31,0,0,16.6,6.4,15.48,16.63s-1.87,17.88-15.86,17.88-29.1,3.92-29.1,3.92c0,0-6.49,1.87-7.44-4.1-.95-5.97,5.83-38.53,5.83-38.53Z"/>
    <path class="cls-2" d="M126.95,149.25s5.09-13.69,5.7-16.95c.61-3.26.2-9.51,5.29-12.49,0,0-.41-13.36,11.4-10.71,0,0-2.04-12.82,1.63-13.03s13.44,6.51,11.4,31.35c0,0-.41,17.91-15.88,30.33-15.47,12.42-23.21,11.2-23.21,11.2l3.66-19.7Z"/>
    <path class="cls-2" d="M106.48,176.07s-9.23,6.77-14.92,8.46c-5.69,1.69-4,5.08-15.07,4.92-11.07-.15-20.46-1.38-31.07-9.23-10.61-7.84-15.84-12.46-12.46-16s7.84-2.92,12.77-2.15c4.92.77,7.84,2,15.54,1.23,7.69-.77,14.77-.62,25.07,6.46,10.31,7.08,20.15,6.31,20.15,6.31Z"/>
    <path class="cls-2" d="M115.69,177.29s-36.78,9.64-37.14-21.78c0,0,2.5-16.43,9.64-21.07,0,0,1.79-22.86,21.07-11.43,0,0,29.28-9.64,17.86,45,0,0-1.43,4.29-11.43,9.28Z"/>
    <path class="cls-2" d="M188.75,211.04s10.24-16.3,30.03-5.82c0,0,22.58.47,24.44,11.17,0,0,14.83-1.04,18.17,1.72,3.97,3.28-18.4,25.28-42.15,17.83-23.75-7.45-30.5-24.91-30.5-24.91Z"/>
    <path class="cls-2" d="M195.96,189.46s10.01-11.33,4.66-20.48c0,0,.23-22.11-10.24-23.31,0,0-5.02.19-7.17,1.82,0,0,4.25-16.55,7.02-18.75,0,0-5.61-4.93-15.22,12.23-11.03,19.72-6.07,37.72-6.07,37.72,0,0,11.92,33.43,17.71,32.85,9.27-.94,5.86-15.17,9.31-22.08Z"/>
  </g>
  <path d="M163.66,329.85c2.56-5.47,6.52-10.1,10.75-14.36,4.24-4.27,8.7-8.33,13.27-12.25,9.28-7.96,19.15-15.25,29.5-21.78,5.8-3.66,11.75-7.08,17.83-10.26.17-.09.02-.35-.15-.26-10.92,5.71-21.42,12.21-31.39,19.45-9.85,7.15-19.2,15.01-27.89,23.52-4.76,4.66-9.33,9.69-12.18,15.79-.08.17.18.33.26.15h0Z"/>
  <path d="M171.44,325.62c4.47-2.69,9.86-2.46,14.89-2.63,5.3-.18,10.54-1.08,15.56-2.81,2.84-.98,5.6-2.2,8.23-3.65.17-.09.02-.35-.15-.26-4.78,2.63-9.96,4.5-15.31,5.52-2.68.51-5.39.79-8.12.89-2.53.09-5.06.07-7.58.34-2.69.29-5.34.93-7.67,2.33-.17.1-.01.36.15.26h0Z"/>
  <path d="M182.52,309.91c11.55-1.21,22.89-4.22,33.52-8.92,3.03-1.34,5.99-2.81,8.89-4.41.17-.09.02-.35-.15-.26-10.13,5.6-21.12,9.6-32.48,11.83-3.23.63-6.5,1.12-9.78,1.46-.19.02-.19.32,0,.3h0Z"/>
  <path d="M208.54,290.36c4.19-1.21,8.39-2.41,12.58-3.63,3.39-.99,6.81-2.03,9.94-3.71,1.75-.94,3.39-2.09,4.81-3.48.14-.13-.07-.35-.21-.21-2.6,2.54-5.87,4.18-9.26,5.41-3.57,1.3-7.27,2.25-10.92,3.31-2.34.67-4.68,1.35-7.02,2.02-.19.05-.11.34.08.29h0Z"/>
  <path d="M188.19,297.5c1.32-5.94,4.35-11.46,8.62-15.78,1.23-1.25,2.57-2.39,3.98-3.42.15-.11,0-.37-.15-.26-4.98,3.61-8.88,8.62-11.18,14.33-.66,1.64-1.18,3.33-1.56,5.05-.04.19.25.27.29.08h0Z"/>
  <path d="M166.31,317.81c1.79-10.91,5.96-21.39,12.15-30.55,1.76-2.6,3.68-5.09,5.74-7.45.13-.14-.08-.36-.21-.21-7.3,8.35-12.74,18.28-15.87,28.93-.89,3.02-1.59,6.1-2.09,9.21-.03.19.26.27.29.08h0Z"/>
  <path d="M204.63,284.36c3.82-5.96,8.57-11.31,14.05-15.79,1.58-1.29,3.22-2.51,4.91-3.65.16-.11,0-.37-.15-.26-5.95,4.03-11.25,9-15.64,14.69-1.21,1.57-2.35,3.19-3.42,4.87-.1.16.16.31.26.15h0Z"/>
  <path d="M178.38,304.13c1.12-5.49,3.4-10.72,6.65-15.28.93-1.31,1.95-2.56,3.04-3.75.13-.14-.08-.35-.21-.21-3.81,4.16-6.72,9.12-8.51,14.47-.51,1.54-.93,3.11-1.26,4.7-.04.19.25.27.29.08h0Z"/>
  <path d="M191.64,279.8c2.77-4.35,6.42-8.12,10.68-11.03,1.2-.82,2.44-1.57,3.73-2.24.17-.09.02-.35-.15-.26-4.59,2.42-8.68,5.78-11.95,9.82-.92,1.14-1.78,2.33-2.57,3.56-.1.16.16.31.26.15h0Z"/>
  <path d="M30.9,215.01c.19,0,.19-.3,0-.3s-.19.3,0,.3h0Z"/>
  <path d="M32.62,215.85c8.16,1.79,15.61,5.76,22.65,10.14,6.4,3.99,12.54,8.39,18.38,13.15,5.83,4.75,11.35,9.87,16.54,15.31,5.2,5.46,10.07,11.24,14.55,17.3s8.52,12.31,12.18,18.84c.47.83.92,1.67,1.38,2.5.09.17.35.02.26-.15-3.61-6.68-7.63-13.12-12.06-19.29-4.39-6.12-9.17-11.96-14.28-17.49s-10.66-10.81-16.47-15.69-11.79-9.28-18.09-13.34c-6.85-4.41-14.05-8.56-21.93-10.83-1.01-.29-2.02-.54-3.04-.77-.19-.04-.27.25-.08.29h0Z"/>
  <path d="M115.56,278.89c-1.18-8.12-3.22-16.11-6.12-23.79-.8-2.11-1.66-4.2-2.57-6.26-.08-.18-.34-.02-.26.15,3.31,7.45,5.83,15.25,7.48,23.24.46,2.24.85,4.49,1.18,6.75.03.19.32.11.29-.08h0Z"/>
  <path d="M98.02,256.01c-3.99-10.47-8.11-21.18-15.02-30.13-1.93-2.49-4.06-4.81-6.42-6.9-.14-.13-.36.08-.21.21,8.46,7.5,13.68,17.75,17.91,28.06,1.2,2.93,2.33,5.88,3.46,8.83.07.18.36.1.29-.08h0Z"/>
  <path d="M74.84,237.12c-3.98-6.96-9.29-13.15-15.58-18.13-1.76-1.39-3.59-2.69-5.48-3.88-.16-.1-.31.16-.15.26,6.75,4.26,12.66,9.82,17.34,16.29,1.3,1.81,2.51,3.68,3.61,5.61.1.17.36.02.26-.15h0Z"/>
  <path d="M41.75,236.9c8.56,3.15,16.57,8.1,25.72,9.46,2.46.37,4.95.45,7.43.16.19-.02.19-.32,0-.3-9.23,1.09-17.86-3.06-26.06-6.71-2.31-1.03-4.63-2.03-7-2.9-.18-.07-.26.22-.08.29h0Z"/>
  <path d="M60.89,259.97c8.73,3.67,18.09,5.77,27.55,6.18,2.69.12,5.38.09,8.06-.06.19-.01.19-.31,0-.3-9.43.54-18.93-.6-27.96-3.36-2.57-.79-5.1-1.71-7.58-2.75-.18-.07-.26.22-.08.29h0Z"/>
  <path d="M72.98,280.13c8.9,4.25,18.75,5.73,28.49,6.5,2.84.23,5.69.4,8.53.56.19.01.19-.29,0-.3-9.74-.57-19.62-1.16-29.02-4-2.69-.81-5.32-1.81-7.86-3.03-.17-.08-.33.18-.15.26h0Z"/>
  <path d="M195.62,213.6c3.41.89,6.94,1.33,10.45,1.58,3.83.27,7.69.28,11.52.01,1.92-.13,3.83-.34,5.73-.67.19-.03.11-.32-.08-.29-3.49.6-7.04.82-10.58.85-3.79.03-7.59-.17-11.35-.68-1.89-.26-3.77-.6-5.62-1.08-.19-.05-.27.24-.08.29h0Z"/>
  <path d="M197.52,218.97c4.36,1.06,8.86,1.58,13.34,1.9,4.99.35,10.03.42,15.01,0,2.31-.2,4.63-.5,6.88-1.05.19-.05.11-.33-.08-.29-4.35,1.06-8.9,1.29-13.35,1.32-4.89.03-9.8-.26-14.66-.89-2.37-.31-4.74-.7-7.06-1.27-.19-.05-.27.24-.08.29h0Z"/>
  <path d="M204.79,224.76c10.72,1.97,21.56,4.92,32.47,2.46,3.41-.77,6.68-2.05,9.74-3.76.17-.09.02-.35-.15-.26-5.29,2.96-11.16,4.47-17.21,4.66-5.49.17-10.95-.67-16.32-1.72-2.82-.55-5.62-1.15-8.45-1.67-.19-.03-.27.25-.08.29h0Z"/>
  <path d="M86,160.63c1.6,1.44,3.08,3.01,4.62,4.5,1.87,1.82,3.85,3.52,5.95,5.06,1.55,1.14,3.17,2.18,4.82,3.16.17.1.32-.16.15-.26-2.73-1.62-5.34-3.42-7.76-5.48-1.75-1.49-3.39-3.11-5.02-4.74-.84-.84-1.69-1.67-2.57-2.47-.14-.13-.36.08-.21.21h0Z"/>
  <path d="M91.25,143.31c-.06,4.23.99,8.5,2.66,12.36.87,2.03,2.02,3.84,3.23,5.68,1.3,1.98,2.56,3.99,3.91,5.94,1.49,2.14,3.09,4.21,4.96,6.04.14.14.35-.08.21-.21-3.32-3.25-5.77-7.24-8.3-11.11-1.15-1.77-2.35-3.49-3.26-5.4-.95-1.99-1.69-4.09-2.22-6.23-.58-2.31-.92-4.68-.89-7.06,0-.19-.3-.19-.3,0h0Z"/>
  <path d="M101.25,152.09c1.6,4.76,3.47,9.46,5.86,13.88.67,1.24,1.38,2.45,2.15,3.62.11.16.37.01.26-.15-3.52-5.34-5.95-11.39-7.98-17.43-.06-.18-.35-.1-.29.08h0Z"/>
  <path d="M101.34,132.68c1.1,1.86,1.91,3.89,2.67,5.9.98,2.58,1.86,5.21,2.7,7.84,1.61,5.04,3.05,10.13,4.61,15.18,1.13,3.65,2.39,7.25,2.51,11.11,0,.19.31.19.3,0-.11-3.59-1.19-6.96-2.26-10.35-.7-2.23-1.36-4.48-2.03-6.72-1.63-5.48-3.25-10.98-5.24-16.35-.85-2.3-1.75-4.64-3-6.76-.1-.17-.36-.02-.26.15h0Z"/>
  <path d="M113.84,137.66c1.44,3.87,2.65,7.84,3.67,11.84,1.12,4.39,2.05,8.87,2.43,13.39.18,2.15.23,4.31-.03,6.45-.02.19.28.19.3,0,.49-4.02-.02-8.16-.71-12.13-.78-4.51-1.91-8.96-3.25-13.34-.65-2.12-1.35-4.22-2.12-6.29-.07-.18-.36-.1-.29.08h0Z"/>
  <path d="M122.84,140.69c.46,4.26,1.05,8.51,1.36,12.78.31,4.26.26,8.52-.28,12.76-.02.19.28.19.3,0,.54-4.24.59-8.5.28-12.76-.31-4.27-.9-8.52-1.36-12.78-.02-.19-.32-.19-.3,0h0Z"/>
  <path d="M137.75,139.69c.02,2.88-.51,5.77-1.14,8.57-.7,3.13-1.58,6.21-2.6,9.25-.49,1.45-1.01,2.9-1.58,4.32-.07.18.22.26.29.08,1.09-2.71,2.01-5.49,2.82-8.3.89-3.09,1.67-6.23,2.14-9.41.22-1.49.38-3,.37-4.51,0-.19-.3-.19-.3,0h0Z"/>
  <path d="M143.79,129.2c.43,1.56.3,3.28.15,4.87-.22,2.32-.64,4.61-1.15,6.88-1.05,4.72-2.43,9.42-4.26,13.9-.7,1.71-1.44,3.52-2.58,4.99-.12.15.09.36.21.21.98-1.26,1.66-2.76,2.28-4.22.92-2.13,1.7-4.33,2.4-6.55,1.5-4.7,2.76-9.56,3.32-14.47.21-1.85.41-3.87-.09-5.69-.05-.19-.34-.11-.29.08h0Z"/>
  <path d="M149.66,120.06c.73,5.12.81,10.29.2,15.43-.58,4.9-1.53,9.81-3.43,14.39-1.14,2.74-2.61,5.33-4.45,7.66-.12.15.09.36.21.21,3.21-4.07,5.28-8.9,6.51-13.91,1.16-4.73,1.81-9.69,1.88-14.56.04-3.12-.19-6.22-.63-9.31-.03-.19-.32-.11-.29.08h0Z"/>
  <path d="M154.97,111.22c.47,5.05.56,10.14.26,15.21-.32,5.29-1.05,10.61-2.53,15.71-.76,2.62-1.73,5.19-3.02,7.6-.09.17.17.32.26.15,2.36-4.42,3.7-9.33,4.55-14.24.91-5.27,1.26-10.64,1.22-15.99-.02-2.82-.16-5.63-.43-8.44-.02-.19-.32-.19-.3,0h0Z"/>
  <path d="M52.18,174.8c5.58,2.31,11.37,4.21,17.37,5.03,4.31.59,8.65.54,12.96.04,2.27-.26,4.52-.62,6.77-.97.19-.03.11-.32-.08-.29-4.05.63-8.1,1.26-12.21,1.35-4.85.1-9.66-.59-14.34-1.85-3.55-.95-7.01-2.2-10.4-3.61-.18-.07-.26.22-.08.29h0Z"/>
  <path d="M55.68,169.66c7.32,2.37,14.67,4.87,22.24,6.33,1.8.35,3.62.63,5.46.71.19,0,.19-.29,0-.3-3.61-.15-7.21-1.02-10.7-1.91-3.88-.99-7.71-2.16-11.52-3.37-1.8-.57-3.6-1.16-5.4-1.74-.18-.06-.26.23-.08.29h0Z"/>
  <path d="M41.42,172.84c3.93,1.77,7.3,4.43,11,6.59,4.91,2.88,10.34,4.41,15.96,5.17,5.38.73,10.83.85,16.25.76.19,0,.19-.3,0-.3-8.24.14-16.84-.07-24.76-2.61-2.34-.75-4.59-1.74-6.73-2.94-1.81-1.02-3.53-2.2-5.27-3.34-2.02-1.33-4.09-2.59-6.31-3.59-.17-.08-.33.18-.15.26h0Z"/>
  <path d="M65.43,144.91c.3,2.85,2.04,5.16,3.75,7.34.91,1.16,1.82,2.33,2.6,3.58.75,1.2,1.42,2.45,2.24,3.6.86,1.21,1.89,2.29,3.22,2.97.17.09.32-.17.15-.26-2.46-1.26-3.75-3.82-5.12-6.08-1.44-2.37-3.35-4.38-4.84-6.72-.86-1.35-1.53-2.83-1.7-4.44-.02-.19-.32-.19-.3,0h0Z"/>
  <path d="M71.03,140.73c.71,3.36,2.18,6.55,4.26,9.27.58.76,1.21,1.48,1.87,2.16.14.14.35-.07.21-.21-2.37-2.41-4.19-5.34-5.3-8.53-.31-.9-.57-1.83-.77-2.76-.04-.19-.33-.11-.29.08h0Z"/>
  <path d="M56.83,150.46c2.32,3.73,5.66,6.79,9.57,8.79,1.09.56,2.21,1.03,3.37,1.41.18.06.26-.23.08-.29-4.09-1.36-7.77-3.85-10.58-7.1-.8-.93-1.53-1.92-2.18-2.96-.1-.16-.36-.01-.26.15h0Z"/>
  <path d="M73.76,131.37c.95,3,2.39,5.85,4.24,8.39.11.15.37,0,.26-.15-1.84-2.53-3.27-5.34-4.21-8.32-.06-.18-.35-.11-.29.08h0Z"/>
  <path d="M38.07,140.73c.63,1.82,1.66,3.47,2.83,4.99s2.59,3,4.13,4.23c.73.58,1.49,1.12,2.31,1.56.17.09.32-.17.15-.26-1.52-.82-2.86-1.95-4.08-3.15-1.4-1.39-2.67-2.93-3.69-4.61-.55-.9-1.02-1.84-1.36-2.84-.06-.18-.35-.1-.29.08h0Z"/>
  <path d="M38.11,149.4c2.42,2.74,5.45,4.93,8.74,6.49.79.37,1.61.71,2.44,1,.18.06.26-.23.08-.29-3.2-1.12-6.2-2.91-8.76-5.14-.81-.71-1.58-1.47-2.29-2.28-.13-.14-.34.07-.21.21h0Z"/>
  <path d="M107.67,111.29c.89,1.2,1.57,2.58,2.25,3.9.83,1.63,1.62,3.28,2.32,4.96.28.68.56,1.36.77,2.06.05.18.34.11.29-.08-.42-1.44-1.08-2.82-1.7-4.18-.78-1.68-1.6-3.34-2.51-4.95-.36-.64-.73-1.28-1.16-1.87-.11-.15-.37,0-.26.15h0Z"/>
  <path d="M113.86,105.46c1.5,2.27,2.67,4.8,3.84,7.26,1.45,3.04,2.82,6.12,4.07,9.24.5,1.24.99,2.49,1.37,3.77.06.18.35.11.29-.08-.79-2.63-1.92-5.17-3.02-7.68-1.34-3.08-2.76-6.13-4.3-9.12-.62-1.2-1.25-2.41-2-3.54-.11-.16-.37-.01-.26.15h0Z"/>
  <path d="M122.89,106.81c1.99,2.57,3.1,5.83,4.06,8.9,1.08,3.48,1.91,7.04,2.59,10.62.32,1.66.6,3.33.84,5.01.03.19.32.11.29-.08-.47-3.3-1.09-6.58-1.86-9.82-.84-3.58-1.83-7.16-3.29-10.54-.65-1.51-1.4-2.99-2.41-4.29-.12-.15-.33.06-.21.21h0Z"/>
  <path d="M133.53,92.76c1.72,3.64,3.33,7.36,4.65,11.16.32.93.63,1.87.87,2.82.05.19.34.11.29-.08-.48-1.86-1.16-3.66-1.85-5.45-.77-1.98-1.6-3.93-2.46-5.87-.41-.92-.82-1.83-1.25-2.74-.08-.17-.34-.02-.26.15h0Z"/>
  <path d="M140.6,96.65c1.57,3.34,2.29,6.96,3.19,10.52.05.19.34.11.29-.08-.91-3.58-1.64-7.22-3.22-10.59-.08-.17-.34-.02-.26.15h0Z"/>
  <path d="M100.31,94.59c1.14,1.15,1.85,2.6,2.55,4.03.21.42.42.84.64,1.26.09.17.35.02.26-.15-.76-1.43-1.37-2.95-2.33-4.27-.28-.38-.58-.74-.91-1.07-.14-.14-.35.07-.21.21h0Z"/>
  <path d="M124.27,88.13c.88.89,1.59,1.97,2.27,3.02.85,1.34,1.63,2.73,2.26,4.19.31.73.58,1.47.75,2.25.04.19.33.11.29-.08-.31-1.46-.97-2.84-1.66-4.15-.73-1.39-1.56-2.73-2.49-3.99-.37-.5-.76-1-1.2-1.45-.14-.14-.35.07-.21.21h0Z"/>
  <path d="M101.91,89.65c.99.9,1.81,2,2.56,3.11.82,1.21,1.56,2.48,2.24,3.77.34.65.66,1.3.96,1.97.08.18.34.02.26-.15-1.16-2.57-2.58-5.1-4.34-7.31-.45-.57-.93-1.11-1.46-1.6-.14-.13-.36.08-.21.21h0Z"/>
  <path d="M61.71,109.42c.14,3.32,1.21,6.57,3.07,9.32.11.16.37,0,.26-.15-1.84-2.71-2.9-5.9-3.03-9.17,0-.19-.31-.19-.3,0h0Z"/>
  <path d="M64.95,105.99c.64,2.47.94,5.07,2.05,7.4.32.68.71,1.32,1.16,1.92.11.15.38,0,.26-.15-.77-1.03-1.34-2.18-1.75-3.39s-.66-2.43-.92-3.66c-.16-.73-.32-1.47-.51-2.19-.05-.19-.34-.11-.29.08h0Z"/>
  <path d="M87.64,101.35c.23.89.42,1.79.58,2.7.1.57.22,1.13.43,1.68.18.47.39.93.61,1.39.08.17.34.02.26-.15-.33-.68-.65-1.37-.83-2.11-.15-.59-.22-1.2-.34-1.8s-.26-1.2-.41-1.79c-.05-.19-.34-.11-.29.08h0Z"/>
  <path d="M80.98,99.84c.26,1.02.47,2.04.68,3.07.15.78.33,1.54.61,2.29.2.54.44,1.06.7,1.58.09.17.35.02.26-.15-.41-.82-.77-1.67-1.01-2.56-.21-.79-.34-1.6-.51-2.4-.13-.64-.28-1.27-.44-1.9-.05-.19-.34-.11-.29.08h0Z"/>
  <path d="M82.58,114.42c.44,1.99,1.25,3.9,2.39,5.59.32.47.66.93,1.03,1.37.12.15.33-.06.21-.21-1.27-1.53-2.26-3.3-2.89-5.19-.18-.54-.33-1.09-.45-1.64-.04-.19-.33-.11-.29.08h0Z"/>
  <path d="M87.67,111.29c1.65,2.6,2.52,5.65,2.48,8.73,0,.19.3.19.3,0,.03-3.13-.85-6.24-2.53-8.88-.1-.16-.36-.01-.26.15h0Z"/>
  <path d="M48.33,126.1c.41,2.34,1.4,4.55,2.86,6.42.41.53.87,1.03,1.35,1.5.14.13.35-.08.21-.21-1.68-1.62-2.94-3.64-3.66-5.86-.2-.63-.36-1.28-.47-1.93-.03-.19-.32-.11-.29.08h0Z"/>
  <path d="M51.48,121.75c1.09,1.75,2.47,3.35,3.25,5.27.21.52.37,1.06.45,1.61.03.19.32.11.29-.08-.29-2.07-1.63-3.85-2.78-5.52-.33-.47-.65-.95-.95-1.43-.1-.16-.36-.01-.26.15h0Z"/>
  <path d="M197.14,201.52c1.95-1.47,4.28-2.48,6.54-3.36,2.63-1.03,5.35-1.87,8.12-2.42,1.33-.26,2.67-.46,4.03-.47.19,0,.19-.3,0-.3-2.56.01-5.12.62-7.56,1.33-2.74.79-5.44,1.78-8,3.03-1.14.56-2.26,1.17-3.27,1.94-.15.11,0,.38.15.26h0Z"/>
  <path d="M197.09,198.02c1.99-2.78,4.55-5.19,7.02-7.54,2.89-2.75,5.87-5.4,8.9-7.98,1.32-1.13,2.66-2.24,4.02-3.32.15-.12-.06-.33-.21-.21-2.71,2.16-5.35,4.42-7.94,6.73-3,2.67-5.96,5.39-8.74,8.3-1.17,1.23-2.33,2.49-3.32,3.88-.11.16.15.31.26.15h0Z"/>
  <path d="M210.52,192.14c2.45-1.14,4.72-2.67,6.8-4.38,1.74-1.43,3.39-2.99,4.84-4.71.49-.58.99-1.19,1.37-1.86.1-.17-.16-.32-.26-.15-.8,1.4-1.99,2.61-3.12,3.74-1.78,1.78-3.72,3.41-5.8,4.82-1.27.86-2.6,1.63-3.98,2.28-.17.08-.02.34.15.26h0Z"/>
  <path d="M201.69,179.52c1.69-1.05,3.42-2.05,5.28-2.77,1.44-.57,2.94-.98,4.41-1.46,1.2-.39,2.39-.82,3.56-1.28.18-.07.1-.36-.08-.29-1.86.73-3.75,1.34-5.66,1.94-1.49.47-2.94,1-4.34,1.7-1.14.57-2.24,1.22-3.33,1.9-.16.1-.01.36.15.26h0Z"/>
  <path d="M179.62,155.17c-4.16,12.09-4.01,25.54.24,37.58,1.2,3.41,2.73,6.69,4.57,9.8.1.17.36.02.26-.15-6.51-11-9.05-24.22-7.26-36.87.49-3.5,1.32-6.94,2.47-10.28.06-.18-.23-.26-.29-.08h0Z"/>
  <path d="M185.91,165.56c-2.57,8.98-1.86,18.42-1.13,27.61.02.19.32.19.3,0-.73-9.16-1.45-18.57,1.12-27.53.05-.19-.24-.27-.29-.08h0Z"/>
  <path d="M164.92,164.23c-1.11,9.28,1.1,18.48,3.29,27.43.05.19.34.11.29-.08-2.18-8.93-4.38-18.1-3.28-27.35.02-.19-.28-.19-.3,0h0Z"/>
  <path d="M161.76,177.18c.25,8.42,4.22,15.98,8.14,23.22.09.17.35.02.26-.15-3.9-7.2-7.85-14.7-8.1-23.07,0-.19-.31-.19-.3,0h0Z"/>
  <path d="M190.13,157.4c1.73,9.34,2.52,18.85,2.35,28.35,0,.19.3.19.3,0,.17-9.53-.63-19.06-2.36-28.43-.04-.19-.32-.11-.29.08h0Z"/>
  <path d="M176.05,146.5c-2.75,4.48-2.94,9.96-3.5,15.04-.54,4.97-.99,9.96-.45,14.95.34,3.17,1.05,6.27,2.05,9.29.06.18.35.1.29-.08-1.71-5.13-2.44-10.44-2.27-15.84.07-2.36.29-4.72.54-7.07.27-2.51.49-5.04.85-7.54.43-3,1.14-6,2.74-8.61.1-.17-.16-.32-.26-.15h0Z"/>
  <path d="M195.53,131.82c-.57,1.25-.89,2.61-1.1,3.96-.23,1.49-.33,3.01-.23,4.51.05.73.15,1.47.34,2.18.05.19.34.11.29-.08-.35-1.3-.4-2.67-.35-4.01.05-1.47.25-2.93.61-4.36.18-.7.4-1.4.7-2.06.08-.17-.18-.33-.26-.15h0Z"/>
  <path d="M201.48,128.46c1.29,3.03,1.61,6.43.9,9.65-.04.19.25.27.29.08.73-3.3.4-6.77-.93-9.88-.08-.18-.33-.02-.26.15h0Z"/>
  <path d="M227.96,137.43c-1.61.48-3.25.98-4.58,2.04-1.16.93-2.01,2.18-2.99,3.29-.56.63-1.17,1.22-1.9,1.66-.16.1-.01.36.15.26,1.25-.77,2.16-1.94,3.08-3.05.47-.57.95-1.13,1.49-1.62.61-.55,1.31-.99,2.06-1.33.89-.4,1.83-.68,2.76-.96.18-.05.11-.34-.08-.29h0Z"/>
  <path d="M235.94,137.52c-.46,2.48-2.92,3.75-4.89,4.92-.63.37-1.24.76-1.81,1.22-.15.12.06.33.21.21,1.96-1.56,4.54-2.35,6.01-4.48.37-.54.64-1.14.76-1.78.04-.19-.25-.27-.29-.08h0Z"/>
  <path d="M255.22,157.87c-.33,1.09-.68,2.19-1.12,3.25-.4.96-.88,1.88-1.45,2.76-.37.57-.77,1.12-1.18,1.66-.12.15.14.3.26.15.7-.91,1.35-1.86,1.9-2.87.5-.92.9-1.9,1.24-2.89.23-.65.43-1.31.63-1.97.06-.19-.23-.26-.29-.08h0Z"/>
  <path d="M259.35,162.45c-1.01,5.25-3.1,10.25-6.12,14.66-.11.16.15.31.26.15,3.03-4.43,5.13-9.46,6.15-14.73.04-.19-.25-.27-.29-.08h0Z"/>
  <path d="M250.63,209.41c3.69-.61,7.34-1.34,10.7-3.07,1.03-.53,2.02-1.13,2.99-1.76.16-.11.01-.37-.15-.26-1.63,1.06-3.33,2.02-5.14,2.73-1.65.65-3.36,1.1-5.09,1.45-1.12.23-2.25.42-3.39.61-.19.03-.11.32.08.29h0Z"/>
  <path d="M255.46,199.65c1.64-.58,3.27-1.2,4.82-2.01,1.36-.71,2.63-1.56,3.85-2.47.85-.64,1.69-1.29,2.53-1.95.15-.12-.06-.33-.21-.21-1.37,1.08-2.74,2.16-4.2,3.13-1.24.81-2.54,1.5-3.9,2.09-.98.42-1.97.79-2.98,1.14-.18.06-.1.35.08.29h0Z"/>
  <path d="M236.5,197.2c1.17-.8,2.32-1.65,3.32-2.65.83-.83,1.53-1.76,2.23-2.7.53-.72,1.06-1.43,1.61-2.14.12-.15-.14-.3-.26-.15-.85,1.12-1.66,2.27-2.54,3.37-.72.9-1.51,1.72-2.4,2.46-.67.56-1.39,1.07-2.11,1.56-.16.11,0,.37.15.26h0Z"/>
  <path d="M235.64,205.07c4.19-2.15,7.59-5.47,10.69-8.95.9-1.01,1.78-2.03,2.65-3.06.12-.15-.09-.36-.21-.21-3.03,3.55-6.11,7.15-9.92,9.9-1.07.77-2.19,1.47-3.37,2.07-.17.09-.02.35.15.26h0Z"/>
  <path d="M242.83,205.78c2.59-1.85,4.9-4.09,6.84-6.63.55-.72,1.07-1.47,1.56-2.24.1-.16-.16-.31-.26-.15-1.69,2.66-3.77,5.06-6.17,7.1-.68.58-1.39,1.14-2.12,1.66-.16.11,0,.37.15.26h0Z"/>
  <path d="M228.71,167.91c.37,1.34.6,2.72.52,4.11s-.48,2.74-.98,4.04c-.07.18.22.26.29.08.51-1.32.9-2.7.99-4.12.08-1.42-.15-2.83-.53-4.19-.05-.19-.34-.11-.29.08h0Z"/>
  <path d="M235.36,168.08c.59,3.77,1.19,7.9-.52,11.48-.08.17.18.33.26.15,1.76-3.66,1.16-7.85.55-11.71-.03-.19-.32-.11-.29.08h0Z"/>
  <path d="M218.45,160.88c4.04-5.51,11.25-6.66,17.55-7.57.19-.03.11-.32-.08-.29-5.19.75-10.66,1.58-14.94,4.87-1.06.81-2,1.76-2.79,2.84-.11.16.15.31.26.15h0Z"/>
  <path d="M217,154.22c.81-.58,1.65-1.22,2.6-1.56.7-.26,1.45-.32,2.18-.41.68-.09,1.35-.2,2.02-.33.19-.04.11-.33-.08-.29-1.03.2-2.07.31-3.1.48-.74.12-1.41.36-2.06.73-.59.34-1.15.73-1.71,1.13-.16.11,0,.37.15.26h0Z"/>
  <path d="M205.04,145.63c-1.19.99-2.39,1.97-3.45,3.1-.91.98-1.67,2.08-2.23,3.3-.38.83-.68,1.69-.93,2.57-.05.19.24.27.29.08.41-1.43.95-2.83,1.77-4.08.74-1.12,1.68-2.08,2.67-2.98.68-.61,1.38-1.19,2.08-1.78.15-.12-.06-.33-.21-.21h0Z"/>
  <path d="M211.12,146.72c-1.58,1.49-3.24,2.9-4.63,4.57-1.26,1.5-2.42,3.15-3.36,4.87-.43.79-.95,1.72-.95,2.65,0,.19.3.19.3,0,0-.82.45-1.65.83-2.36.45-.84.96-1.64,1.5-2.42,1.12-1.64,2.35-3.16,3.78-4.54.9-.87,1.83-1.7,2.74-2.56.14-.13-.07-.34-.21-.21h0Z"/>
  <path d="M201.47,170.85c1.18-.49,2.3-1.08,3.42-1.69.94-.52,1.91-.93,2.95-1.2.94-.24,1.9-.41,2.86-.55.19-.03.11-.32-.08-.29-1.46.21-2.95.47-4.32,1.02-.94.38-1.81.9-2.7,1.38-.72.38-1.46.73-2.22,1.04-.18.07-.1.36.08.29h0Z"/>
  <path d="M215.91,201.02c4.73-3.04,9.57-6.17,13.22-10.51,1.01-1.21,1.92-2.5,2.69-3.87.09-.17-.16-.32-.26-.15-2.76,4.92-7.22,8.53-11.82,11.66-1.31.89-2.65,1.75-3.98,2.61-.16.1-.01.36.15.26h0Z"/>
</svg>