<?xml version="1.0" encoding="UTF-8"?>
<svg id="Layer_1" data-name="Layer 1" xmlns="http://www.w3.org/2000/svg" viewBox="0 0 289.13 430.87">
  <defs>
    <style>
      .cls-1 {
        fill: #c4c66a;
      }

      .cls-1, .cls-2, .cls-3, .cls-4 {
        stroke: #000;
        stroke-miterlimit: 10;
        stroke-width: .5px;
      }

      .cls-2 {
        fill: #f9e48f;
      }

      .cls-3 {
        fill: #7f7061;
      }

      .cls-4 {
        fill: #89796a;
      }
    </style>
  </defs>
  <g>
    <path class="cls-2" d="M72.19,122.12s-15.98-18.69-14.95-22.56,29.64-1.29,29.64-1.29l27.71,20.62-11.11,14.52-31.29-11.3Z"/>
    <path class="cls-2" d="M75.79,166.07s-29.52-3.09-33.77-8.25c0,0,15.98-16.37,31.58-17.92,15.6-1.55,31.06,4.9,31.06,4.9l-4.25,21.27h-24.62Z"/>
    <path class="cls-2" d="M100.67,160.27s-30.29-4.38-51.43,26.16c0,0,7.99,9.15,41.5,1.16l24.88-14.82-14.95-12.5Z"/>
    <path class="cls-1" d="M139.65,150.6s-6.05,145.81-4.11,162.66c0,0-9.07-12.31-14.69-16.2,0,0-2.38-42.34-18.15-47.31,0,0-3.89-5.62-16.63-6.7,0,0-9.93-5.12-15.02-5.36l.97,3.76s-9.09-4.24-12.96-3.88v3.27s-12.72-.24-17.93.73l.61,2.79s-20.47-1.57-27.99,4.12c0,0,7.54,4.34,8.57,7.04s6.85,3.95,10.59,7.27,6.69,5.42,6.69,5.42l-2.99,1.49s2.24,3.29,6.13,4.33l-2.84,3.14s7.62,4.78,13.3,5.23l-2.99,2.69s3.44,2.69,7.02,2.99l-2.39,2.09s11.51,8.07,20.17,8.67l-2.84,1.34s14.49,9.26,35.41,2.84c0,0,7.88-1.57,14.63,2.88,4.77,3.14,12.34,11.48,12.45,16.65.64,29.04.74,67.01,1.91,76.46.38,3.08,2.95,5.41,6.05,5.41h0c3.42,0,6.18-2.81,6.09-6.23-.17-6.74-1.08-75.77,1.15-79.17,3.44-5.23,14.34-23.01,21.22-25.7,0,0,29.29,12.4,46.47,3.74l.3-2.09s17.63-8.81,19.42-11.43l-3.14-1.27s14.79-11.8,15.69-13.9l-2.84-1.05s29.59-28.99,30.93-31.98c0,0-14.25-3.88-32.98-1.05v-4.18s-10.95-.45-15.14,1.05v-2.84s-8.52,0-11.36,1.64c0,0-22.11-1.49-34.37,12.1l-1.34-2.24s-27.34,20.47-15.84,46.92c0,0-14.79,14.79-18.68,23.01,0,0-.65-120.18,8.46-155.74l-11.15-10.71-5.9,7.29Z"/>
    <path class="cls-2" d="M167.56,237.09s-15.08-7.35-16.37-20.49-6.09-29.57-.55-30.99c5.54-1.42,23.37,8.3,23.82,16.04s1.48,32.09-6.9,35.44Z"/>
    <path class="cls-2" d="M243.62,164.83s-13.04-14.36-29.15-16.41c-16.11-2.05-40.01.73-40.01.73v12.89s31.08,10.99,43.09,10.55c12.01-.44,19.19-.44,26.07-7.76Z"/>
    <path class="cls-2" d="M204.95,124.11s34.86-3.08,40.28,7.47c0,0-15.23,11.28-17.14,14.21-1.9,2.93-15.82,6.45-24.46,5.86-8.64-.59-23.29-1.9-23.29-1.9l-2.05-16.99,10.11-5.86,16.55-2.78Z"/>
    <path class="cls-2" d="M181.66,132.75s28.42-3.88,38.96-14.97,15.38-14.76,15.23-16.37-5.71-4.85-17.72-3.52c-12.01,1.33-21.68,10.11-21.68,10.11l-23.58,14.06,4.83,7.62,3.95,3.08Z"/>
    <path class="cls-2" d="M170.82,75.33s16.41-16.99,22.12-13.18c5.71,3.81,0,20.95,0,20.95l-17.72,25.63-10.55,6.3-6.88-7.03,13.04-32.67Z"/>
    <path class="cls-2" d="M146.8,80.46s15.23-29.59,22.56-27.98c7.32,1.61,5.13,28.86,3.37,32.81-1.76,3.95-8.37,23.73-12.1,25.49s-11.63-.73-11.63-.73l-3.37-19.04,1.17-10.55Z"/>
    <path class="cls-2" d="M164.67,115.03s4.39-20.21,19.48-28.42c15.09-8.2,27.68-15.67,30.91-14.5,3.22,1.17-.73,14.5-2.93,17.87s-11.28,19.92-24.32,26.51c-13.04,6.59-14.94,5.57-14.94,5.57l-8.2-7.03Z"/>
    <path class="cls-2" d="M229.27,195.88s-2.2-23.44-45.12-33.1l-13.92-1.9,2.49,12.74s20.66,22.41,34.06,24.61c13.4,2.2,22.48-2.34,22.48-2.34Z"/>
    <path class="cls-2" d="M202.17,223.13s.44-23.44-12.74-36.33c-13.18-12.89-20.21-15.38-20.21-15.38l-9.08,14.06s1.61,13.77,14.94,22.85c13.33,9.08,24.9,13.18,27.1,14.79Z"/>
    <path class="cls-2" d="M127.74,187.08s-6.44,17.79-4.51,28.87,8.51,24.88,8.51,24.88c0,0,21.01-11.21,19.85-32.74-1.16-21.52-4.51-21.01-4.51-21.01h-19.33Z"/>
    <path class="cls-2" d="M130.44,191.97s-7.48,34.16-32.87,41.24c0,0-9.54-20.49,14.18-53.36l18.69,12.12Z"/>
    <path class="cls-2" d="M105.18,172.77s-36.86,21.01-34.03,43.69c0,0,23.07,5.93,44.47-36.6l-10.44-7.09Z"/>
    <path class="cls-2" d="M100.28,144.8s-29.52,5.8-54.78-15.21c0,0,1.16-12.63,26.42-10.44,25.26,2.19,34.93,11.34,34.93,11.34l-6.57,14.31Z"/>
    <path class="cls-2" d="M110.98,124.95s-35.39-10.91-37.47-45.96c0,0,15.29-1.56,29.74,12.48,14.45,14.04,22.07,23.35,22.07,23.35l-14.34,10.13Z"/>
    <path class="cls-2" d="M121.55,114.82s-30.99-21.27-22.88-54.03c0,0,23.61,4.78,28.18,20.17,4.58,15.39,11.13,31.82,11.13,31.82l-16.43,2.03Z"/>
    <path class="cls-2" d="M133.44,107.33s-21.78-35.96,6-57.49c0,0,13.01-1.45,10.99,29.92-2.02,31.37-4.63,38.02-4.63,38.02h-7.82l-4.54-10.45Z"/>
    <ellipse class="cls-2" cx="142.64" cy="149.94" rx="45.23" ry="45.31"/>
    <ellipse class="cls-4" cx="142.64" cy="149.94" rx="45.23" ry="45.31"/>
    <ellipse class="cls-3" cx="142.64" cy="149.94" rx="24.55" ry="24.59"/>
  </g>
  <path d="M172.87,283.15c8.03-8.72,17.65-15.94,28.28-21.2,5.84-2.89,11.94-5.26,17.98-7.69,5.97-2.4,11.97-4.74,18.1-6.7,6.9-2.22,13.97-3.96,21.18-4.78.19-.02.19-.32,0-.3-12.89,1.47-25.19,5.85-37.18,10.62-6.06,2.41-12.16,4.79-18.07,7.56-5.5,2.57-10.75,5.62-15.68,9.16-5.37,3.86-10.35,8.26-14.83,13.13-.13.14.08.35.21.21h0Z"/>
  <path d="M209.08,262.49c8.44-1.29,16.98-1.87,25.52-1.75.19,0,.19-.3,0-.3-8.57-.12-17.13.47-25.6,1.76-.19.03-.11.32.08.29h0Z"/>
  <path d="M187.28,279.45c9.85,1.29,19.83,1.56,29.74.79,2.74-.21,5.48-.51,8.21-.87.19-.03.11-.31-.08-.29-9.79,1.32-19.72,1.63-29.57.91-2.77-.2-5.54-.48-8.29-.84-.19-.02-.19.28,0,.3h0Z"/>
  <path d="M196.14,270.41c8.58-1.59,17.31-2.38,26.04-2.33,2.48.01,4.96.09,7.44.24.19.01.19-.29,0-.3-8.77-.51-17.58-.2-26.29.95-2.43.32-4.85.71-7.27,1.15-.19.04-.11.32.08.29h0Z"/>
  <path d="M179.52,288.14c8.35,2.56,17.14,3.04,25.82,3.03,2.51,0,5.03-.05,7.54-.09.19,0,.19-.3,0-.3-8.71.16-17.5.31-26.11-1.21-2.42-.43-4.82-.99-7.17-1.71-.19-.06-.26.23-.08.29h0Z"/>
  <path d="M232.25,252.77c4-.02,8-.16,11.99-.42,1.92-.12,3.85-.25,5.76-.46,1.71-.19,3.4-.53,4.96-1.26.17-.08.02-.34-.15-.26-1.7.8-3.56,1.1-5.42,1.29-1.86.18-3.73.31-5.6.43-3.84.24-7.69.37-11.54.39-.19,0-.19.3,0,.3h0Z"/>
  <path d="M214.65,250.86c2.88-3.7,6.31-6.96,10.16-9.64,1.09-.76,2.2-1.47,3.35-2.13.17-.1.02-.36-.15-.26-4.06,2.35-7.77,5.31-10.96,8.75-.91.98-1.78,2.01-2.61,3.07-.12.15.09.36.21.21h0Z"/>
  <path d="M194.65,258.18c1.83-4.16,4.63-7.87,8.12-10.77,1-.83,2.05-1.59,3.15-2.27.16-.1.01-.36-.15-.26-3.88,2.43-7.18,5.77-9.56,9.68-.68,1.12-1.29,2.28-1.81,3.48-.08.18.18.33.26.15h0Z"/>
  <path d="M179.42,270.28c2.38-10,9.07-18.23,16.77-24.75,2.27-1.93,4.65-3.73,7.08-5.46.16-.11,0-.37-.15-.26-8.41,6.02-16.45,13.11-21.11,22.52-1.25,2.51-2.22,5.15-2.87,7.88-.04.19.24.27.29.08h0Z"/>
  <path d="M171.71,274.63c1.45-7.64,4.63-14.92,9.23-21.2,1.34-1.82,2.8-3.55,4.36-5.19.13-.14-.08-.35-.21-.21-5.41,5.65-9.51,12.49-11.96,19.92-.71,2.16-1.28,4.36-1.7,6.6-.04.19.25.27.29.08h0Z"/>
  <path d="M26.87,254.37c13.44.19,27.02,1.6,40.12,4.64,3.23.75,6.35,1.77,9.27,3.36s5.57,3.27,8.42,4.8,5.44,2.98,7.96,4.79,4.66,3.66,6.8,5.72c4.79,4.61,8.97,9.8,13.12,14.97.12.15.33-.06.21-.21-3.75-4.68-7.52-9.36-11.75-13.62s-8.99-7.97-14.32-10.89c-2.81-1.54-5.61-3.09-8.37-4.72-2.78-1.64-5.63-2.97-8.75-3.85s-6.54-1.52-9.83-2.11c-3.3-.6-6.62-1.11-9.95-1.54-7.6-.98-15.26-1.53-22.93-1.64-.19,0-.19.3,0,.3h0Z"/>
  <path d="M75.6,248.47c4.56,3.51,8.52,7.8,11.66,12.62.87,1.34,1.68,2.72,2.42,4.14.09.17.35.02.26-.15-2.69-5.13-6.26-9.8-10.5-13.75-1.18-1.1-2.41-2.14-3.69-3.12-.15-.12-.3.14-.15.26h0Z"/>
  <path d="M92.71,254.4c1.52,2.81,3.8,5.12,5.5,7.81s3.12,5.71,4.11,8.8c.55,1.72.98,3.47,1.28,5.25.03.19.32.11.29-.08-1.08-6.3-3.73-12.21-7.64-17.26-1.17-1.51-2.38-2.98-3.28-4.67-.09-.17-.35-.02-.26.15h0Z"/>
  <path d="M104.59,261.14c4.76,7.63,7.86,16.24,9.02,25.16.02.19.33.19.3,0-1.17-8.97-4.27-17.63-9.06-25.31-.1-.16-.36-.01-.26.15h0Z"/>
  <path d="M62.74,250.45c3,.82,5.46,2.82,7.65,4.95.63.61,1.24,1.24,1.86,1.87.13.14.35-.07.21-.21-2.17-2.23-4.43-4.53-7.24-5.96-.77-.39-1.57-.71-2.41-.93-.19-.05-.27.24-.08.29h0Z"/>
  <path d="M47.28,268.67c9.12.86,18.32.61,27.39-.72.19-.03.11-.32-.08-.29-9.04,1.33-18.21,1.56-27.31.71-.19-.02-.19.28,0,.3h0Z"/>
  <path d="M63.55,284.93c8.13.34,16.29-.51,24.18-2.53,2.24-.57,4.46-1.25,6.64-2,.18-.06.1-.35-.08-.29-7.66,2.66-15.7,4.19-23.8,4.53-2.31.1-4.63.09-6.94,0-.19,0-.19.29,0,.3h0Z"/>
  <path d="M82.11,293.88c8.32.03,16.59-1.03,24.83-2.1.19-.02.19-.32,0-.3-8.24,1.07-16.5,2.12-24.83,2.1-.19,0-.19.3,0,.3h0Z"/>
  <path d="M137.1,103.94c-1.58-8.84-2.36-17.8-2.32-26.78,0-.19-.3-.19-.3,0-.04,9,.74,18,2.33,26.86.03.19.32.11.29-.08h0Z"/>
  <path d="M140.66,103.43c-1.58-3.75-2.59-7.74-2.98-11.79-.02-.19-.32-.19-.3,0,.4,4.11,1.42,8.14,3.02,11.94.07.18.33.02.26-.15h0Z"/>
  <path d="M142.45,60.28c.72.65.92,1.59,1.06,2.51.17,1.1.3,2.21.43,3.32.26,2.16.48,4.33.66,6.5.37,4.38.57,8.77.61,13.17,0,.19.3.19.3,0-.04-4.64-.27-9.28-.67-13.9-.2-2.29-.45-4.58-.74-6.86-.2-1.59-.15-3.77-1.44-4.94-.14-.13-.36.08-.21.21h0Z"/>
  <path d="M142.55,91.31c.67,3.72.7,7.54.09,11.27-.03.19.26.27.29.08.61-3.79.58-7.65-.09-11.43-.03-.19-.32-.11-.29.08h0Z"/>
  <path d="M155.84,86.3c1.04-4.48,2.17-8.94,3.31-13.4.92-3.58,1.82-7.47,4.64-10.08.14-.13-.07-.34-.21-.21-2.74,2.54-3.71,6.27-4.6,9.76-1.18,4.61-2.35,9.22-3.42,13.85-.04.19.25.27.29.08h0Z"/>
  <path d="M153.89,101.97c1.21-7.59,6-13.84,9.22-20.63.9-1.9,1.68-3.85,2.24-5.87.05-.19-.24-.27-.29-.08-2.03,7.33-6.88,13.38-9.71,20.37-.8,1.98-1.42,4.02-1.75,6.13-.03.19.26.27.29.08h0Z"/>
  <path d="M157.7,102.12c2.33-7.28,4.97-14.46,7.92-21.51.07-.18-.22-.26-.29-.08-2.95,7.05-5.59,14.23-7.92,21.51-.06.18.23.26.29.08h0Z"/>
  <path d="M166.69,103.17c1.97-3.38,3.98-6.74,5.9-10.14,1.74-3.1,3.32-6.36,3.86-9.91.03-.19-.26-.27-.29-.08-.55,3.59-2.15,6.87-3.91,10-1.89,3.35-3.87,6.66-5.81,9.99-.1.17.16.32.26.15h0Z"/>
  <path d="M179.38,84.58c1.82-3.13,3.9-6.11,6.24-8.87.67-.79,1.35-1.56,2.05-2.31.13-.14-.08-.35-.21-.21-2.48,2.65-4.72,5.52-6.7,8.57-.57.88-1.12,1.77-1.64,2.68-.1.17.16.32.26.15h0Z"/>
  <path d="M177.46,78.39c.84-1.65,2.06-3.05,3.33-4.39s2.66-2.74,3.83-4.26c.7-.9,1.34-1.83,1.94-2.79.1-.16-.16-.32-.26-.15-1.08,1.72-2.31,3.34-3.68,4.84-1.24,1.35-2.58,2.61-3.74,4.04-.65.8-1.23,1.64-1.69,2.56-.09.17.17.32.26.15h0Z"/>
  <path d="M170.92,111.12c6.68-8.67,14.53-16.43,23.27-23.01,2.44-1.84,4.96-3.58,7.53-5.23.16-.1.01-.36-.15-.26-9.25,5.93-17.69,13.1-25.02,21.27-2.05,2.28-4.01,4.65-5.88,7.08-.12.15.14.3.26.15h0Z"/>
  <path d="M200.47,93.54c3.42-5.65,7.1-11.13,11.03-16.44.11-.16-.15-.31-.26-.15-3.93,5.3-7.61,10.79-11.03,16.44-.1.17.16.32.26.15h0Z"/>
  <path d="M174.62,116.45l8.75-8.43c2.59-2.5,5.18-5.01,8-7.26,1.64-1.32,3.36-2.53,5.17-3.61.17-.1.02-.36-.15-.26-6.41,3.8-11.6,9.36-16.93,14.49-1.68,1.62-3.36,3.24-5.04,4.86-.14.13.07.35.21.21h0Z"/>
  <path d="M178.68,117.78c.92-1.34,2.57-2.09,3.91-2.96,1.43-.93,2.82-1.91,4.19-2.93,2.67-2,5.21-4.17,7.61-6.48,1.37-1.32,2.69-2.7,3.97-4.12.13-.14-.08-.36-.21-.21-4.61,5.13-9.87,9.66-15.63,13.44-1.4.92-3.11,1.7-4.09,3.11-.11.16.15.31.26.15h0Z"/>
  <path d="M186.75,121.69c5.69-3.96,12.32-6.17,18.84-8.33.18-.06.1-.35-.08-.29-6.55,2.16-13.2,4.39-18.91,8.36-.16.11,0,.37.15.26h0Z"/>
  <path d="M196.39,113.88c7.88-2.3,15.58-5.2,23.01-8.68,2.15-1,4.27-2.06,6.37-3.16.17-.09.02-.35-.15-.26-7.29,3.81-14.86,7.06-22.64,9.71-2.21.75-4.43,1.45-6.67,2.1-.18.05-.11.34.08.29h0Z"/>
  <path d="M182.54,126.35c6.69-3.11,13.9-5.05,21.24-5.74.19-.02.19-.32,0-.3-7.4.7-14.65,2.65-21.4,5.78-.17.08-.02.34.15.26h0Z"/>
  <path d="M186.88,135.66c2.12-.87,4.45-1.09,6.7-1.39,2.56-.35,5.13-.66,7.7-.95,4.96-.55,9.93-1,14.91-1.34.19-.01.19-.31,0-.3-5.06.34-10.12.8-15.16,1.36-2.43.27-4.86.57-7.29.9s-4.75.53-6.95,1.43c-.18.07-.1.36.08.29h0Z"/>
  <path d="M188.15,141.69c7.22-.18,14.45-.07,21.66.33.19.01.19-.29,0-.3-7.21-.4-14.44-.51-21.66-.33-.19,0-.19.3,0,.3h0Z"/>
  <path d="M187.96,144.53c6.53,1.46,13.2,2.29,19.89,2.46.19,0,.19-.3,0-.3-6.67-.17-13.31-.99-19.81-2.45-.19-.04-.27.25-.08.29h0Z"/>
  <path d="M212.64,146.76c6.47-.23,11.82-4.26,16.73-8.05.15-.12,0-.38-.15-.26-4.87,3.76-10.17,7.78-16.58,8.01-.19,0-.19.31,0,.3h0Z"/>
  <path d="M208.73,137.09c9.69.18,19.06-3.98,28.78-2.74.19.02.19-.28,0-.3-9.72-1.24-19.09,2.92-28.78,2.74-.19,0-.19.3,0,.3h0Z"/>
  <path d="M188.2,155.57c9.68,4.5,20.1,7.33,30.73,8.34,3.05.29,6.11.42,9.17.41.19,0,.19-.3,0-.3-10.63.04-21.24-1.75-31.28-5.26-2.88-1.01-5.7-2.16-8.47-3.45-.17-.08-.33.18-.15.26h0Z"/>
  <path d="M188.94,160.85c6.95,2.24,14.03,4.04,21.21,5.4.19.04.27-.25.08-.29-7.17-1.36-14.26-3.16-21.21-5.4-.18-.06-.26.23-.08.29h0Z"/>
  <path d="M197.34,154.1c7.7,1.07,15.24,3.19,22.37,6.29.18.08.33-.18.15-.26-7.15-3.11-14.71-5.24-22.44-6.32-.19-.03-.27.26-.08.29h0Z"/>
  <path d="M182.63,169.38c4.17,3.85,8.47,7.8,13.67,10.23,1.43.67,2.91,1.21,4.45,1.6.19.05.27-.24.08-.29-5.54-1.4-10.22-4.84-14.45-8.55-1.2-1.05-2.37-2.12-3.53-3.2-.14-.13-.35.08-.21.21h0Z"/>
  <path d="M181.04,174c3.81,3.47,8.34,6,12.24,9.34,1.1.94,2.14,1.95,3.09,3.05.13.15.34-.07.21-.21-3.36-3.88-7.81-6.53-11.88-9.57-1.19-.89-2.35-1.82-3.45-2.82-.14-.13-.36.08-.21.21h0Z"/>
  <path d="M190.09,170.25c9.23,4,18.35,8.64,26.03,15.23,2.14,1.84,4.14,3.82,5.99,5.95.13.15.34-.07.21-.21-6.62-7.64-15.25-13.17-24.24-17.62-2.58-1.27-5.19-2.47-7.83-3.61-.18-.08-.33.18-.15.26h0Z"/>
  <path d="M198.85,184.86c5.24,3.64,10.79,6.81,16.58,9.48.17.08.33-.18.15-.26-5.79-2.67-11.34-5.84-16.58-9.48-.16-.11-.31.15-.15.26h0Z"/>
  <path d="M167.16,185.68c2.5,3.5,5.31,6.77,8.41,9.75.88.85,1.78,1.67,2.7,2.47.15.13.36-.09.21-.21-3.22-2.8-6.19-5.89-8.85-9.23-.76-.96-1.5-1.94-2.22-2.94-.11-.16-.37,0-.26.15h0Z"/>
  <path d="M173.96,183.84c3.83,2.93,7.2,6.46,9.95,10.41.77,1.11,1.5,2.26,2.17,3.43.1.17.36.02.26-.15-2.43-4.21-5.5-8.04-9.09-11.32-1.01-.92-2.06-1.8-3.14-2.63-.15-.12-.3.14-.15.26h0Z"/>
  <path d="M174.39,188.11c4.95,5.42,9.43,11.27,13.37,17.46,1.11,1.74,2.17,3.51,3.19,5.3.1.17.35.02.26-.15-3.63-6.37-7.81-12.42-12.49-18.07-1.34-1.62-2.71-3.2-4.13-4.74-.13-.14-.34.07-.21.21h0Z"/>
  <path d="M190.93,198.82c2.95,4.72,5.24,9.83,6.8,15.18.05.19.34.11.29-.08-1.56-5.37-3.86-10.51-6.83-15.25-.1-.16-.36-.01-.26.15h0Z"/>
  <path d="M176.48,202.18c2.45,2.88,4.9,5.76,7.36,8.64.71.83,1.41,1.66,2.12,2.49.13.15.34-.07.21-.21-2.45-2.88-4.9-5.76-7.36-8.64l-2.12-2.49c-.13-.15-.34.07-.21.21h0Z"/>
  <path d="M155.95,194.3c1.66,6.21,3.71,12.31,6.14,18.26.07.18.36.1.29-.08-2.44-5.95-4.49-12.05-6.14-18.26-.05-.19-.34-.11-.29.08h0Z"/>
  <path d="M165.16,203.8c1.96,3.34,2.98,7.09,3.69,10.87.76,4.02,1.3,8.08,1.92,12.12.03.19.32.11.29-.08-.63-4.11-1.18-8.24-1.96-12.32-.71-3.74-1.75-7.44-3.68-10.74-.1-.17-.36-.02-.26.15h0Z"/>
  <path d="M154.15,202.22c.41,6.16,2,12.21,4.68,17.78.08.17.34.02.26-.15-2.65-5.52-4.23-11.52-4.64-17.63-.01-.19-.31-.19-.3,0h0Z"/>
  <path d="M160.14,216.47c.66,4,1.85,7.9,3.53,11.59.08.18.34.02.26-.15-1.67-3.66-2.85-7.54-3.5-11.52-.03-.19-.32-.11-.29.08h0Z"/>
  <path d="M140.18,198.15c.47,7.89-.66,15.85-3.32,23.29-.79,2.22-1.75,4.36-2.74,6.5-.08.17.18.33.26.15,1.7-3.67,3.2-7.39,4.24-11.3,1.01-3.84,1.64-7.77,1.87-11.74.13-2.3.13-4.61-.01-6.91-.01-.19-.31-.19-.3,0h0Z"/>
  <path d="M144.63,201.16c.42,8.23.19,16.48-.7,24.67-.02.19.28.19.3,0,.88-8.19,1.11-16.44.7-24.67,0-.19-.31-.19-.3,0h0Z"/>
  <path d="M136.44,197.42c-2.34,6.99-3.63,14.3-3.83,21.67,0,.19.29.19.3,0,.2-7.34,1.49-14.62,3.82-21.59.06-.18-.23-.26-.29-.08h0Z"/>
  <path d="M132.7,196.89c-2.32,5.83-3.64,12.02-3.89,18.29,0,.19.29.19.3,0,.25-6.24,1.57-12.41,3.88-18.21.07-.18-.22-.26-.29-.08h0Z"/>
  <path d="M117.48,189.43c-2.55,4.79-4.93,9.67-7.11,14.64-.08.18.18.33.26.15,2.18-4.97,4.56-9.85,7.11-14.64.09-.17-.17-.32-.26-.15h0Z"/>
  <path d="M121.34,190.81c-1.78,3.76-3.55,7.51-5.33,11.27-1.66,3.51-3.31,7.04-5.24,10.42-1.08,1.89-2.25,3.73-3.53,5.49-.11.16.15.31.26.15,4.65-6.33,7.72-13.69,11.06-20.76,1.01-2.14,2.03-4.28,3.04-6.42.08-.17-.18-.33-.26-.15h0Z"/>
  <path d="M118.06,206.23c-2.63,5.41-6,10.44-10.01,14.92-1.13,1.26-2.3,2.46-3.52,3.63-.14.13.07.35.21.21,4.35-4.15,8.12-8.89,11.16-14.07.87-1.48,1.67-2.99,2.42-4.53.08-.17-.17-.33-.26-.15h0Z"/>
  <path d="M115.07,187.61c-4.02,5.28-7.49,10.98-10.31,16.99-.78,1.66-1.5,3.34-2.18,5.03-.07.18.22.26.29.08,3.14-7.84,7.34-15.24,12.46-21.95.12-.15-.14-.3-.26-.15h0Z"/>
  <path d="M82.93,205.47c5.49-5.1,11.23-9.94,17.19-14.49,1.69-1.29,3.41-2.56,5.14-3.8.16-.11,0-.37-.15-.26-6.08,4.37-11.95,9.04-17.57,13.98-1.63,1.43-3.23,2.88-4.82,4.36-.14.13.07.34.21.21h0Z"/>
  <path d="M85.39,195.36c2.15-2.7,4.83-4.89,7.55-6.98,3-2.31,6.02-4.59,9.03-6.89,1.73-1.31,3.46-2.63,5.19-3.94.15-.12,0-.38-.15-.26-3.11,2.36-6.23,4.73-9.34,7.1-2.83,2.16-5.74,4.25-8.43,6.58-1.47,1.27-2.86,2.65-4.07,4.17-.12.15.09.36.21.21h0Z"/>
  <path d="M81.85,210.98c4.79-2.32,9.22-5.35,13.12-8.97,1.12-1.04,2.2-2.14,3.23-3.28.13-.14-.08-.36-.21-.21-3.57,3.94-7.72,7.34-12.3,10.05-1.3.77-2.63,1.49-3.99,2.15-.17.08-.02.34.15.26h0Z"/>
  <path d="M53.58,186.17c3.4-.22,6.79-.55,10.16-.98,1.6-.21,3.2-.44,4.79-.7,1.43-.23,2.87-.53,4.1-1.34.16-.11.01-.37-.15-.26-1.25.83-2.73,1.1-4.19,1.34-1.64.26-3.28.5-4.92.71-3.25.42-6.52.73-9.79.94-.19.01-.19.31,0,.3h0Z"/>
  <path d="M77.39,182.62c6.22-1.56,11.48-5.38,17.12-8.25,1.65-.84,3.35-1.6,5.1-2.21.18-.06.1-.35-.08-.29-6.05,2.08-11.22,5.99-17.02,8.61-1.68.76-3.42,1.4-5.21,1.85-.19.05-.11.34.08.29h0Z"/>
  <path d="M78.43,176.43c4.35-.95,8.61-2.28,12.73-3.99,3.99-1.66,7.96-3.6,12.32-4.01.19-.02.19-.32,0-.3-4.32.41-8.24,2.29-12.19,3.94-4.18,1.75-8.51,3.12-12.94,4.08-.19.04-.11.33.08.29h0Z"/>
  <path d="M65.66,177.17c7.04-5.47,15.4-9.14,24.18-10.63.19-.03.11-.32-.08-.29-6.9,1.17-13.57,3.68-19.52,7.36-1.66,1.03-3.26,2.14-4.8,3.34-.15.12.06.33.21.21h0Z"/>
  <path d="M85.75,169.7c3.69-1.27,7.49-2.17,11.36-2.69.19-.03.11-.31-.08-.29-3.86.52-7.67,1.42-11.36,2.69-.18.06-.1.35.08.29h0Z"/>
  <path d="M64.02,159.01c7.77,2.25,15.75,3.75,23.8,4.47,2.31.21,4.62.35,6.94.42.19,0,.19-.29,0-.3-8.1-.28-16.16-1.33-24.05-3.16-2.22-.51-4.42-1.09-6.61-1.72-.19-.05-.27.24-.08.29h0Z"/>
  <path d="M68.85,155.61c7.63-.14,15.27-.27,22.9-.41.19,0,.19-.3,0-.3-7.63.14-15.27.27-22.9.41-.19,0-.19.3,0,.3h0Z"/>
  <path d="M60.5,151.15c9.35-.62,18.73-.79,28.1-.5,2.65.08,5.3.2,7.95.36.19.01.19-.29,0-.3-9.36-.55-18.74-.64-28.1-.28-2.65.1-5.3.25-7.95.42-.19.01-.19.31,0,.3h0Z"/>
  <path d="M67.85,131.24c9.72,2.78,19.69,4.66,29.76,5.62.19.02.19-.28,0-.3-10.04-.96-19.98-2.84-29.68-5.61-.19-.05-.27.24-.08.29h0Z"/>
  <path d="M72.74,126.51c8.48.85,16.8,3.02,24.61,6.44.18.08.33-.18.15-.26-7.86-3.44-16.22-5.63-24.76-6.48-.19-.02-.19.28,0,.3h0Z"/>
  <path d="M66.15,135.95c8.79,2.73,18,4.01,27.2,3.78.19,0,.19-.3,0-.3-9.18.23-18.35-1.04-27.12-3.76-.18-.06-.26.23-.08.29h0Z"/>
  <path d="M50.56,126.78c6.62-.55,13.29-.38,19.88.5.19.03.19-.27,0-.3-6.59-.88-13.26-1.05-19.88-.5-.19.02-.19.32,0,.3h0Z"/>
  <path d="M65.69,103.87c6.84,4.73,13.76,9.5,21.46,12.74,2.2.93,4.46,1.72,6.77,2.34.19.05.27-.24.08-.29-8.08-2.18-15.37-6.43-22.28-11.04-1.97-1.31-3.93-2.66-5.88-4.01-.16-.11-.31.15-.15.26h0Z"/>
  <path d="M78.16,105.63c5.65,3.28,11.12,6.87,16.39,10.75.16.11.31-.15.15-.26-5.26-3.88-10.73-7.47-16.39-10.75-.17-.1-.32.16-.15.26h0Z"/>
  <path d="M89.55,106.16c4.01,5.29,9.16,9.67,15.03,12.77,1.64.86,3.33,1.62,5.06,2.28.18.07.26-.22.08-.29-6.1-2.32-11.67-5.97-16.24-10.64-1.32-1.34-2.54-2.77-3.68-4.27-.12-.15-.38,0-.26.15h0Z"/>
  <path d="M96.2,109.11c4.13,2.46,8.14,5.13,12,7.99.16.12.3-.15.15-.26-3.86-2.87-7.87-5.54-12-7.99-.17-.1-.32.16-.15.26h0Z"/>
  <path d="M87.86,93.89c5.65,6.34,12.86,10.93,19.93,15.51,2.03,1.31,4.06,2.64,6.05,4,.16.11.31-.15.15-.26-6.98-4.79-14.41-8.98-20.85-14.51-1.79-1.54-3.49-3.19-5.07-4.96-.13-.14-.34.07-.21.21h0Z"/>
  <path d="M100.57,99.36c2.73,1.74,5.26,3.8,7.51,6.13.64.66,1.26,1.34,1.85,2.04.13.15.34-.07.21-.21-2.11-2.48-4.5-4.71-7.12-6.63-.75-.55-1.52-1.08-2.31-1.58-.16-.1-.31.16-.15.26h0Z"/>
  <path d="M115.74,76.22c1.87,7.84,5.12,15.34,9.57,22.07,1.25,1.89,2.59,3.72,4.02,5.47.12.15.33-.06.21-.21-5.06-6.23-9.01-13.34-11.63-20.92-.73-2.13-1.36-4.3-1.88-6.49-.04-.19-.33-.11-.29.08h0Z"/>
  <path d="M117.92,93.46c1.98,4.66,4.03,9.28,6.13,13.88.08.18.34.02.26-.15-2.11-4.6-4.15-9.23-6.13-13.88-.08-.18-.33-.02-.26.15h0Z"/>
  <path d="M109.68,89.01c2.91,7.19,6.44,14.13,10.55,20.71.1.16.36.01.26-.15-4.1-6.56-7.62-13.47-10.52-20.64-.07-.18-.36-.1-.29.08h0Z"/>
  <path d="M104.45,69.27c1.43,3.75,4.3,6.67,6.31,10.1,2.17,3.7,3.64,7.76,5.09,11.79.07.18.36.1.29-.08-1.42-3.93-2.85-7.88-4.93-11.52-2.02-3.53-5.02-6.53-6.48-10.37-.07-.18-.36-.1-.29.08h0Z"/>
  <path d="M102.71,73.7c.51,4.76,1.99,9.39,4.35,13.56.1.17.35.02.26-.15-2.33-4.12-3.81-8.7-4.31-13.41-.02-.19-.32-.19-.3,0h0Z"/>
</svg>