<?xml version="1.0" encoding="UTF-8"?>
<svg id="Layer_1" data-name="Layer 1" xmlns="http://www.w3.org/2000/svg" viewBox="0 0 289.13 430.87">
  <defs>
    <style>
      .cls-1, .cls-2 {
        fill: #fffae6;
      }

      .cls-3, .cls-4 {
        fill: #c5d190;
      }

      .cls-5 {
        fill: #f9f1b7;
      }

      .cls-5, .cls-4, .cls-2 {
        stroke: #000;
        stroke-miterlimit: 10;
        stroke-width: .5px;
      }
    </style>
  </defs>
  <g>
    <path class="cls-4" d="M133.7,378.19h0c3.81,0,6.96-2.92,7.29-6.72.85-9.74,4.17-28.2,16.82-42.68,18.05-20.66,21.61-28.74,32.06-34.91s17.34-19,38.95-12.35c21.61,6.65,16.15,9.26,19.71,7.36s-12.11-24.23-31.83-24.7-27.79-3.8-44.89,13.06c-17.1,16.86-29.67,36.81-33.96,59.61,0,0,.61-29.93,5.53-45.36s23.72-54.24,26.91-55.27l-6.79,1.59s-11.4,9.98-18.53,33.01c0,0-.7-51.06-7.12-57.24l-9.27-4.04s10.23,11.4,9.27,36.58c-.96,25.18-7.37,84.32-7.37,84.32,0,0-15.91-68.4-40.85-83.84-24.94-15.44-42.04-28.5-48.69-28.74-6.65-.24.95,6.34,2.14,7.8,1.19,1.46,16.15,20.46,19.24,22.84,3.09,2.38,34.91,45.36,34.91,45.36,0,0,30.4,41.09,30.88,62.7,0,0-30.4-74.34-93.34-69.83,0,0-4.75,1.9,9.74,9.5,14.49,7.6,37.53,31.35,41.09,32.78s22.33,19.95,25.41,21.85c2.61,1.61,12.03,14.28,16.02,23.03,1.19,2.61,3.79,4.29,6.66,4.29Z"/>
    <path class="cls-2" d="M115.04,185.71s16.22,35.63,22.02,34.62c5.79-1.01,6.95-13.76,6.08-20.57-.87-6.81-3.04-24.33-2.03-28.24,1.01-3.91-31.14,9.12-31.14,9.12l5.07,5.07Z"/>
    <path class="cls-2" d="M18.63,173.25s-.89-14.34,12.74-23.36c13.63-9.03,27.08-13.28,47.97-4.96,20.89,8.32,25.84,13.45,25.84,13.45l-11.86,14.87s-32.88-.58-48-4.33c-3.68-.91-7.54-.89-11.16.21s-8.18,3.05-10.57,6.07c-4.78,6.02-4.96-1.95-4.96-1.95Z"/>
    <path class="cls-2" d="M231.09,173.28s9.18-21.53,5.72-24.22c-3.46-2.69-6.15,8.06-6.92,9.89-.77,1.83-7.5,18.49-7.5,18.49l8.7-4.17Z"/>
    <path class="cls-2" d="M185.66,165.97s20.3-22.46,20.77-25.51,1.65-15.8,6.61-16.04,10.39,2.36,12.04,12.51c0,0,3.57,25.78-1.28,35.08,0,0,32.83-11.67,37.87-1.23,5.63,11.65-40.13,53.25-46.51,54.91-6.37,1.65-26.91,9.91-30.92,12.28s-17.23,8.5-21.95,6.14c-4.72-2.36-2.36-7.32-2.12-12.04.24-4.72,6.85-14.16,8.97-19.36s9.68-37.06,9.68-37.06c0,0,2.94-9.18,6.85-9.67Z"/>
    <path class="cls-2" d="M168.22,239.35s11.59-18.73,22.39-21.91c10.8-3.18,14.77-14.13,21.75-15.4s29.05-.95,37.15,2.22c8.1,3.18,18.89,12.7,20.48,20.96,1.59,8.26-.64,24.45-3.97,24.77s-6.83-9.05-10.32-10.16c-3.49-1.11-7.94-6.03-14.29-5.72s-14.61-3.65-18.1-6.51c-3.49-2.86-12.86-8-16.35-7.25-3.49.74-9.68-2.48-19.37,5.32-9.68,7.81-15.4,13.2-15.4,13.2"/>
    <path class="cls-2" d="M223.8,172.01s-12.15,28.79-27.08,39.08"/>
    <path class="cls-2" d="M108.27,100.8s-4.83-28.98,16.85-40.84c0,0,3.32-.26,4.34,2.3,0,0,4.09-8.17,10.22-5.36,0,0,2.04-.51,0,14.81,0,0,9.19,14.3,8.17,19.92s-6.9,15.32-6.9,15.32c0,0,18.65-32.18,59.51-28.86,0,0,18.39,3.32,7.92,11.49-10.47,8.17-10.22,4.85-15.32,16.35-5.11,11.49-15.32,35.25-23.24,38.06,0,0,23.5-3.83,31.93,24.01,0,0,3.58,12-6.13,24.26,0,0-.26,5.87-2.04,6.13s-1.53-8.43-12.77-15.07c-11.24-6.64-26.22-10.3-39.33-6.64-10.83,3.02-11.41-3.22-11.41-3.22h-11.31l-13.82-11.05c-42.88-10.07-52.87-58.37-52.87-58.37,0,0-6.62-11.46-.9-18.98,5.73-7.52,11.64-8.42,22.56-6.45,10.92,1.97,31.87,19.52,31.87,19.52l2.69,2.66Z"/>
    <g>
      <path class="cls-3" d="M142.29,346.16c.19-8.54,4-16.55,8.08-24.06,5.09-9.34,10.76-18.41,17.75-26.42s15.35-14.96,24.98-19.47"/>
      <path d="M142.44,346.16c.16-6.03,2.09-11.81,4.62-17.23s5.47-10.58,8.56-15.64c6.02-9.87,13.09-19.21,21.91-26.73,4.76-4.06,9.99-7.55,15.65-10.21.17-.08.02-.34-.15-.26-10.22,4.8-18.96,12.28-26.2,20.87-3.85,4.57-7.29,9.46-10.46,14.53-3.19,5.1-6.2,10.36-8.84,15.76-2.9,5.93-5.22,12.26-5.39,18.92,0,.19.29.19.3,0h0Z"/>
    </g>
    <g>
      <path class="cls-3" d="M152.72,327.89c7.06-14.66,18.89-26.46,31.45-36.8,6.16-5.07,12.67-9.93,20.17-12.64"/>
      <path d="M152.85,327.96c4.05-8.38,9.68-15.88,16.06-22.63,3.19-3.38,6.57-6.57,10.06-9.64,3.6-3.17,7.3-6.26,11.16-9.11,4.4-3.24,9.1-6.12,14.25-8,.18-.07.1-.36-.08-.29-9.07,3.3-16.72,9.58-23.95,15.8-7.11,6.12-13.85,12.75-19.5,20.26-3.17,4.21-5.97,8.7-8.27,13.45-.08.17.17.33.26.15h0Z"/>
    </g>
    <g>
      <path class="cls-3" d="M194.32,273.41c9.66-3.35,20.2-4.15,30.25-2.27"/>
      <path d="M194.36,273.55c7.48-2.58,15.45-3.65,23.35-3.13,2.29.15,4.57.44,6.82.86.19.03.27-.25.08-.29-7.82-1.44-15.91-1.31-23.68.4-2.25.49-4.48,1.12-6.66,1.88-.18.06-.1.35.08.29h0Z"/>
    </g>
    <g>
      <path class="cls-3" d="M60.22,298.7c11.15,3.51,20,12,27.49,20.98"/>
      <path d="M60.18,298.84c8.75,2.78,16.08,8.61,22.32,15.19,1.77,1.86,3.46,3.79,5.1,5.76.12.15.34-.06.21-.21-5.84-7-12.44-13.69-20.54-18.04-2.24-1.2-4.59-2.2-7.01-2.98-.18-.06-.26.23-.08.29h0Z"/>
    </g>
    <g>
      <path class="cls-3" d="M94.39,322.85c6.57,6.33,12.87,12.93,18.89,19.78"/>
      <path d="M94.28,322.96c5.11,4.92,10.06,10.01,14.84,15.25,1.37,1.5,2.72,3.01,4.06,4.53.13.15.34-.07.21-.21-4.69-5.32-9.54-10.5-14.56-15.52-1.43-1.43-2.88-2.85-4.34-4.26-.14-.13-.35.08-.21.21h0Z"/>
    </g>
    <g>
      <path class="cls-3" d="M94.22,332.13c10.68,4.24,18.75,13.09,26.43,21.65"/>
      <path d="M94.18,332.28c8.37,3.35,15.15,9.52,21.25,16.01,1.73,1.84,3.42,3.72,5.11,5.6.13.14.34-.07.21-.21-6.01-6.71-12.17-13.54-19.89-18.34-2.1-1.31-4.31-2.43-6.6-3.35-.18-.07-.26.22-.08.29h0Z"/>
    </g>
    <g>
      <path class="cls-3" d="M88.63,312.37c2.1,2.06,4.92,3.23,7.16,5.14,3.3,2.81,5.17,7.05,8.61,9.68"/>
      <path d="M88.52,312.47c2.13,2.06,4.91,3.23,7.16,5.14,2.11,1.79,3.62,4.15,5.32,6.3.98,1.24,2.04,2.41,3.29,3.38.15.12.36-.09.21-.21-2.22-1.72-3.79-4.08-5.5-6.28-.84-1.09-1.72-2.15-2.74-3.07s-2.23-1.73-3.42-2.48c-1.44-.91-2.89-1.8-4.11-2.99-.14-.13-.35.08-.21.21h0Z"/>
    </g>
    <g>
      <path class="cls-3" d="M64.49,236.44c4.36,2.71,8.77,5.44,12.44,9.04,1.7,1.66,3.22,3.49,4.71,5.33,14.85,18.38,26.94,38.98,35.73,60.91"/>
      <path d="M64.42,236.57c5.22,3.24,10.35,6.55,14.46,11.18,4.05,4.56,7.72,9.53,11.26,14.5,6.99,9.8,13.23,20.13,18.66,30.87,3.08,6.09,5.89,12.31,8.43,18.64.07.18.36.1.29-.08-4.53-11.29-9.92-22.22-16.12-32.69-6.18-10.43-13.13-20.48-20.89-29.8-2.19-2.63-4.58-5.03-7.3-7.12-2.75-2.11-5.7-3.94-8.64-5.77-.16-.1-.32.16-.15.26h0Z"/>
    </g>
    <g>
      <path class="cls-3" d="M103.61,271.98c8.01,14.5,16.07,29.13,20.85,44.98"/>
      <path d="M103.48,272.05c6.24,11.3,12.5,22.64,17.25,34.67,1.33,3.38,2.54,6.81,3.59,10.28.06.18.35.11.29-.08-3.75-12.4-9.49-24.06-15.62-35.44-1.73-3.21-3.49-6.39-5.25-9.58-.09-.17-.35-.02-.26.15h0Z"/>
    </g>
    <g>
      <path class="cls-3" d="M58.76,238.25c10.09,6.44,18.44,15.58,23.93,26.22"/>
      <path d="M58.68,238.38c7.86,5.03,14.66,11.67,19.87,19.41,1.46,2.17,2.8,4.43,4,6.75.09.17.35.02.26-.15-4.32-8.35-10.37-15.78-17.67-21.72-2.02-1.64-4.12-3.16-6.31-4.56-.16-.1-.31.16-.15.26h0Z"/>
    </g>
    <g>
      <path class="cls-3" d="M120.25,319.18c2.83,3.91,4.51,8.5,6.16,13.04.92,2.53,1.84,5.06,2.76,7.59"/>
      <path d="M120.12,319.25c2.14,2.97,3.63,6.32,4.93,9.73,1.38,3.6,2.65,7.24,3.97,10.87.07.18.36.1.29-.08-1.34-3.68-2.63-7.38-4.03-11.04-1.29-3.37-2.78-6.69-4.9-9.63-.11-.16-.37,0-.26.15h0Z"/>
    </g>
    <path class="cls-4" d="M130.5,330.45s.04,32.09,1.11,42.76"/>
    <path class="cls-4" d="M137.87,336.86s-1.64,23.13-.84,30.45"/>
    <path class="cls-2" d="M108.27,100.8s16.02,10.36,19.75,51.93"/>
    <path class="cls-2" d="M169.81,143.99s-28.4,19.26-36.07,22.6"/>
    <g>
      <path class="cls-1" d="M200.26,85.87c-2.57.17-4.98,1.24-7.31,2.35-3.91,1.86-7.76,3.87-11.34,6.31-5.96,4.05-11.09,9.2-16.18,14.32-3.83,3.85-7.69,7.74-10.46,12.41-1.48,2.49-2.63,5.16-3.77,7.83-4.2,9.8-8.39,19.59-12.59,29.39"/>
      <path d="M200.26,85.72c-3.08.24-5.9,1.64-8.64,2.97-2.88,1.4-5.72,2.91-8.44,4.62-5.33,3.37-10,7.62-14.47,12.04-4.35,4.29-8.91,8.56-12.42,13.58-1.87,2.67-3.27,5.58-4.57,8.56s-2.66,6.21-3.99,9.32c-3.08,7.19-6.16,14.39-9.24,21.58-.08.18.18.33.26.15,2.69-6.28,5.38-12.55,8.06-18.83,1.34-3.14,2.69-6.28,4.03-9.41,1.27-2.97,2.5-5.98,4.14-8.77,3.09-5.28,7.56-9.57,11.85-13.87,4.44-4.45,8.96-8.86,14.11-12.48,2.91-2.04,6-3.8,9.17-5.4s6.53-3.47,10.15-3.75c.19-.01.19-.31,0-.3h0Z"/>
    </g>
    <g>
      <path class="cls-1" d="M134.32,65.56c-.07,8.11.75,16.23,2.44,24.17"/>
      <path d="M134.17,65.56c-.07,8.13.76,16.25,2.45,24.21.04.19.33.11.29-.08-1.69-7.93-2.5-16.02-2.44-24.13,0-.19-.3-.19-.3,0h0Z"/>
    </g>
    <g>
      <path class="cls-1" d="M126.49,69.51c-.72,4.73-1.44,9.46-2.17,14.19"/>
      <path d="M126.35,69.47c-.72,4.73-1.44,9.46-2.17,14.19-.03.19.26.27.29.08.72-4.73,1.44-9.46,2.17-14.19.03-.19-.26-.27-.29-.08h0Z"/>
    </g>
    <g>
      <path class="cls-1" d="M118.51,84.78c-.46,7.91-.48,15.85-.06,23.77"/>
      <path d="M118.36,84.78c-.45,7.91-.48,15.85-.06,23.77,0,.19.31.19.3,0-.41-7.92-.39-15.85.06-23.77.01-.19-.29-.19-.3,0h0Z"/>
    </g>
    <g>
      <path class="cls-1" d="M121.87,88.88c-.63,7.19-.61,14.44.06,21.63"/>
      <path d="M121.72,88.88c-.63,7.2-.6,14.44.06,21.63.02.19.32.19.3,0-.67-7.19-.69-14.44-.06-21.63.02-.19-.28-.19-.3,0h0Z"/>
    </g>
    <g>
      <path class="cls-1" d="M135.26,98.7l-.11,16.19"/>
      <path d="M135.11,98.7c-.04,5.4-.07,10.8-.11,16.19,0,.19.3.19.3,0,.04-5.4.07-10.8.11-16.19,0-.19-.3-.19-.3,0h0Z"/>
    </g>
    <g>
      <path class="cls-1" d="M125.08,119.3c.39,2.72.78,5.43,1.17,8.15.2,1.36.39,2.74.24,4.11"/>
      <path d="M124.94,119.34c.29,2.04.58,4.07.88,6.11.29,2,.74,4.07.52,6.1-.02.19.28.19.3,0,.21-2.02-.23-4.07-.52-6.06-.3-2.08-.6-4.15-.89-6.23-.03-.19-.32-.11-.29.08h0Z"/>
    </g>
    <g>
      <path class="cls-1" d="M129.58,121.87c1.42,8.08-.36,16.43.73,24.56"/>
      <path d="M129.43,121.91c1.4,8.12-.34,16.37.72,24.52.02.19.32.19.3,0-1.06-8.17.67-16.45-.73-24.6-.03-.19-.32-.11-.29.08h0Z"/>
    </g>
    <g>
      <path class="cls-1" d="M127.97,133.81c-.29,6.73.11,13.49,1.21,20.14"/>
      <path d="M127.82,133.81c-.29,6.75.12,13.52,1.21,20.18.03.19.32.11.29-.08-1.09-6.64-1.49-13.38-1.2-20.1,0-.19-.29-.19-.3,0h0Z"/>
    </g>
    <g>
      <path class="cls-1" d="M132.79,140.17c-.07,4.9-.42,9.8-1.04,14.67"/>
      <path d="M132.64,140.17c-.08,4.9-.42,9.8-1.04,14.67-.02.19.28.19.3,0,.62-4.87.97-9.76,1.04-14.67,0-.19-.3-.19-.3,0h0Z"/>
    </g>
    <g>
      <path class="cls-1" d="M135.81,140.47c.02,6.21-.24,12.42-.78,18.61"/>
      <path d="M135.66,140.47c.02,6.21-.24,12.42-.78,18.61-.02.19.28.19.3,0,.54-6.19.8-12.4.78-18.61,0-.19-.3-.19-.3,0h0Z"/>
    </g>
    <g>
      <path class="cls-1" d="M119.35,134.49c1.72,8.22,3.48,16.55,7.26,24.05"/>
      <path d="M119.21,134.53c1.72,8.22,3.49,16.53,7.28,24.09.09.17.35.02.26-.15-3.78-7.53-5.54-15.83-7.25-24.02-.04-.19-.33-.11-.29.08h0Z"/>
    </g>
    <g>
      <path class="cls-1" d="M111.31,121.08c3.34,12.55,6.71,25.2,12.38,36.89"/>
      <path d="M111.16,121.12c2.62,9.85,5.25,19.72,9.01,29.2,1.04,2.61,2.16,5.19,3.38,7.72.08.17.34.02.26-.15-4.42-9.14-7.45-18.85-10.15-28.62-.76-2.74-1.49-5.49-2.22-8.23-.05-.19-.34-.11-.29.08h0Z"/>
    </g>
    <g>
      <path class="cls-1" d="M107.53,135.6c4.61,7.96,9.74,15.62,15.34,22.92"/>
      <path d="M107.4,135.68c4.62,7.96,9.74,15.61,15.34,22.92.12.15.38,0,.26-.15-5.59-7.3-10.72-14.96-15.34-22.92-.1-.17-.36-.02-.26.15h0Z"/>
    </g>
    <g>
      <path class="cls-1" d="M100.24,147.57c6.22,6.59,13.2,12.44,20.77,17.42"/>
      <path d="M100.13,147.68c4.84,5.12,10.13,9.8,15.8,13.97,1.64,1.2,3.3,2.36,5,3.48.16.11.31-.15.15-.26-5.88-3.88-11.42-8.28-16.51-13.15-1.44-1.38-2.85-2.8-4.23-4.25-.13-.14-.34.07-.21.21h0Z"/>
    </g>
    <g>
      <path class="cls-1" d="M102.52,142.39l14.78,14.31c2.45,2.37,5.22,4.89,8.63,5.07"/>
      <path d="M102.42,142.49c3.19,3.09,6.38,6.18,9.58,9.27,1.57,1.52,3.14,3.04,4.7,4.55,1.29,1.24,2.57,2.5,4.03,3.55,1.55,1.11,3.29,1.93,5.21,2.06.19.01.19-.29,0-.3-3.67-.24-6.44-3.02-8.94-5.44-3.05-2.96-6.1-5.91-9.16-8.87-1.74-1.68-3.47-3.36-5.21-5.04-.14-.13-.35.08-.21.21h0Z"/>
    </g>
    <g>
      <path class="cls-1" d="M141.63,157.02c2.62-5.36,7.95-8.72,12.57-12.49,3.13-2.55,6.02-5.39,8.9-8.22,2.52-2.48,5.04-4.95,7.55-7.43"/>
      <path d="M141.76,157.09c2.15-4.33,6.01-7.35,9.75-10.25,2.04-1.58,4.04-3.19,5.94-4.92,2.12-1.92,4.15-3.93,6.19-5.94,2.37-2.33,4.74-4.66,7.11-7,.14-.14-.07-.35-.21-.21-4.18,4.11-8.3,8.31-12.6,12.29-1.98,1.83-4.05,3.55-6.17,5.2-1.88,1.46-3.77,2.91-5.51,4.53-1.9,1.78-3.59,3.79-4.76,6.14-.09.17.17.32.26.15h0Z"/>
    </g>
    <g>
      <path class="cls-1" d="M150.49,139c3.27-1.82,5.79-4.69,8.25-7.5,8.27-9.46,16.6-19.02,22.68-30.03"/>
      <path d="M150.56,139.13c2.61-1.47,4.75-3.57,6.74-5.78,2.15-2.38,4.23-4.81,6.32-7.24,4.2-4.89,8.31-9.88,12.02-15.16,2.13-3.03,4.12-6.16,5.91-9.4.09-.17-.17-.32-.26-.15-6.23,11.26-14.76,21.01-23.21,30.63-2.27,2.58-4.64,5.14-7.67,6.84-.17.09-.02.35.15.26h0Z"/>
    </g>
    <g>
      <path class="cls-1" d="M190.04,98.37c-3.19,8.47-7.59,16.48-13.03,23.72"/>
      <path d="M189.89,98.33c-3.2,8.46-7.59,16.45-13.01,23.68-.12.15.14.3.26.15,4.27-5.69,7.9-11.84,10.81-18.33.8-1.79,1.54-3.6,2.24-5.43.07-.18-.22-.26-.29-.08h0Z"/>
    </g>
    <g>
      <path class="cls-1" d="M152.32,113.92c-2.61,2.01-3.64,5.41-4.52,8.59-.87,3.13-1.74,6.26-2.61,9.39-1.38,4.97-2.78,9.98-5.13,14.57"/>
      <path d="M152.21,113.82c-3.2,2.53-4.06,6.86-5.09,10.58-1.33,4.79-2.56,9.62-4.1,14.34-.85,2.62-1.85,5.2-3.1,7.66-.09.17.17.32.26.15,2.11-4.14,3.46-8.59,4.71-13.05.69-2.44,1.36-4.89,2.04-7.33.59-2.13,1.12-4.28,1.84-6.37s1.8-4.3,3.65-5.75c.15-.12-.06-.33-.21-.21h0Z"/>
    </g>
    <g>
      <path class="cls-1" d="M53.72,84.38c7.28,3.97,12.2,11.09,16.85,17.96"/>
      <path d="M53.64,84.51c5.71,3.14,9.98,8.21,13.71,13.45,1.05,1.47,2.06,2.96,3.08,4.46.11.16.37,0,.26-.15-3.64-5.37-7.38-10.87-12.45-15-1.39-1.13-2.87-2.15-4.44-3.01-.17-.09-.32.17-.15.26h0Z"/>
    </g>
    <g>
      <path class="cls-1" d="M74.94,104.92c4.38,5.51,9.1,10.75,14.13,15.69"/>
      <path d="M74.83,105.02c3.42,4.3,7.04,8.43,10.85,12.38,1.08,1.12,2.17,2.22,3.28,3.3.14.14.35-.08.21-.21-3.92-3.85-7.65-7.88-11.18-12.09-1-1.19-1.98-2.39-2.94-3.6-.12-.15-.33.06-.21.21h0Z"/>
    </g>
    <g>
      <path class="cls-1" d="M85.61,98.52c3.25,6.51,7.15,12.7,11.61,18.44"/>
      <path d="M85.48,98.6c2.55,5.1,5.48,10,8.79,14.64.92,1.3,1.87,2.57,2.85,3.83.12.15.33-.06.21-.21-4.46-5.74-8.34-11.91-11.59-18.41-.09-.17-.35-.02-.26.15h0Z"/>
    </g>
    <g>
      <path class="cls-1" d="M81.23,86.33c9.81,6.62,19.15,13.95,27.91,21.91"/>
      <path d="M81.16,86.46c7.64,5.16,14.99,10.74,22.01,16.72,1.99,1.69,3.94,3.42,5.88,5.17.14.13.36-.08.21-.21-6.82-6.19-13.97-12-21.43-17.39-2.15-1.55-4.32-3.07-6.51-4.55-.16-.11-.31.15-.15.26h0Z"/>
    </g>
    <g>
      <path class="cls-1" d="M60.62,113.88c2.5,7.32,8.74,12.61,13.3,18.86"/>
      <path d="M60.48,113.92c1.98,5.72,6.17,10.21,10.01,14.75,1.14,1.35,2.26,2.72,3.31,4.14.11.15.37,0,.26-.15-3.55-4.84-8.01-9-11.1-14.18-.88-1.47-1.62-3.02-2.19-4.64-.06-.18-.35-.1-.29.08h0Z"/>
    </g>
    <g>
      <path class="cls-1" d="M76.16,131.09c3.06,4.9,7.12,9.18,11.85,12.5"/>
      <path d="M76.03,131.16c2.41,3.85,5.42,7.32,8.9,10.24.97.81,1.97,1.58,3,2.31.16.11.31-.15.15-.26-3.67-2.58-6.93-5.73-9.63-9.31-.76-1.01-1.48-2.06-2.16-3.13-.1-.16-.36-.01-.26.15h0Z"/>
    </g>
    <g>
      <path class="cls-1" d="M65.62,101.41c3.27,9.25,8.55,17.79,15.37,24.85"/>
      <path d="M65.47,101.45c2.57,7.22,6.32,13.99,11.08,19.98,1.36,1.71,2.81,3.36,4.33,4.94.13.14.35-.07.21-.21-5.26-5.47-9.6-11.78-12.82-18.65-.94-2-1.77-4.05-2.51-6.14-.06-.18-.35-.1-.29.08h0Z"/>
    </g>
    <path d="M54.67,91.29c.19,0,.19-.3,0-.3s-.19.3,0,.3h0Z"/>
    <g>
      <path class="cls-1" d="M54.74,91.09c2.04,2.95,3.55,6.27,4.42,9.74"/>
      <path d="M54.61,91.17c2.03,2.94,3.53,6.24,4.41,9.71.05.19.34.11.29-.08-.88-3.49-2.39-6.81-4.44-9.78-.11-.16-.37,0-.26.15h0Z"/>
    </g>
    <path d="M59.36,101.27c.19,0,.19-.3,0-.3s-.19.3,0,.3h0Z"/>
    <g>
      <path class="cls-1" d="M67.29,82.49c6.39,2.78,10.89,8.57,15,14.19"/>
      <path d="M67.22,82.62c4.98,2.18,8.8,6.18,12.11,10.38.97,1.23,1.91,2.5,2.83,3.76.11.15.37,0,.26-.15-3.2-4.38-6.57-8.82-11.05-11.98-1.26-.89-2.59-1.65-4-2.27-.18-.08-.33.18-.15.26h0Z"/>
    </g>
    <g>
      <path class="cls-1" d="M144.58,163.14c7.44-1.08,15.12-1.43,22.38.53s14.08,6.46,17.48,13.16"/>
      <path d="M144.62,163.29c11.71-1.68,24.86-1.43,34.27,6.76,2.22,1.93,4.08,4.24,5.43,6.86.09.17.35.02.26-.15-2.45-4.76-6.59-8.43-11.32-10.84-5.41-2.75-11.5-3.77-17.53-3.8-3.74-.01-7.48.35-11.18.88-.19.03-.11.32.08.29h0Z"/>
    </g>
    <g>
      <path class="cls-1" d="M181.8,166.23c2.4,1.84,4.86,3.75,6.44,6.33.36.59.68,1.21.99,1.83.88,1.73,1.75,3.47,2.63,5.2"/>
      <path d="M181.72,166.36c1.64,1.26,3.29,2.54,4.7,4.06.71.77,1.35,1.61,1.88,2.52.57.99,1.06,2.03,1.58,3.05.62,1.22,1.24,2.44,1.85,3.67.09.17.35.02.26-.15-1.09-2.15-2.11-4.34-3.28-6.45-1.03-1.85-2.49-3.4-4.09-4.77-.89-.76-1.82-1.48-2.75-2.19-.15-.12-.3.14-.15.26h0Z"/>
    </g>
    <g>
      <path class="cls-1" d="M193.4,173.35c2,4.76,4.03,9.68,4.09,14.84"/>
      <path d="M193.26,173.39c1.98,4.72,4.01,9.6,4.09,14.8,0,.19.3.19.3,0-.08-5.23-2.11-10.13-4.1-14.88-.07-.18-.36-.1-.29.08h0Z"/>
    </g>
    <g>
      <path class="cls-1" d="M186.27,161.01c2.54.56,4.36,2.75,5.79,4.92,1.65,2.5,3.09,5.18,3.9,8.06"/>
      <path d="M186.23,161.15c2.01.46,3.55,1.93,4.77,3.53,1.32,1.74,2.47,3.66,3.41,5.63.57,1.2,1.05,2.44,1.41,3.72.05.19.34.11.29-.08-.65-2.3-1.69-4.47-2.92-6.52-1.09-1.82-2.3-3.7-3.95-5.07-.86-.71-1.84-1.25-2.93-1.5-.19-.04-.27.25-.08.29h0Z"/>
    </g>
    <g>
      <path class="cls-1" d="M150.3,157.13c8.81-1.26,17.85-.89,26.53,1.08"/>
      <path d="M150.34,157.27c8.8-1.25,17.78-.88,26.45,1.08.19.04.27-.25.08-.29-8.72-1.97-17.75-2.34-26.61-1.08-.19.03-.11.32.08.29h0Z"/>
    </g>
    <g>
      <path class="cls-1" d="M160.73,152.85c2.8-.71,5.84-.4,8.44.85"/>
      <path d="M160.77,153c2.77-.69,5.75-.39,8.32.84.17.08.33-.18.15-.26-2.65-1.27-5.7-1.58-8.56-.87-.19.05-.11.34.08.29h0Z"/>
    </g>
    <g>
      <path class="cls-1" d="M168.24,150.16c4.19-1.08,8.76-.68,12.7,1.12"/>
      <path d="M168.28,150.3c4.17-1.06,8.66-.67,12.58,1.1.17.08.33-.18.15-.26-4-1.81-8.56-2.22-12.81-1.13-.19.05-.11.34.08.29h0Z"/>
    </g>
    <g>
      <path class="cls-1" d="M19.21,172.34c7.66-10.86,20.81-17.62,34.1-17.53"/>
      <path d="M19.34,172.41c5.97-8.43,15.2-14.37,25.28-16.55,2.85-.62,5.77-.92,8.69-.91.19,0,.19-.3,0-.3-10.44-.05-20.75,4.05-28.45,11.07-2.15,1.96-4.09,4.15-5.77,6.53-.11.16.15.31.26.15h0Z"/>
    </g>
    <g>
      <path class="cls-1" d="M57.11,155.03c9.67-1.82,19.84-.86,28.99,2.73"/>
      <path d="M57.15,155.18c9.67-1.8,19.75-.84,28.91,2.73.18.07.26-.22.08-.29-7.17-2.79-14.93-4.01-22.62-3.53-2.17.13-4.32.41-6.45.8-.19.04-.11.32.08.29h0Z"/>
    </g>
    <g>
      <path class="cls-1" d="M66.01,162.2c6.64-.23,13.31.12,19.89,1.05"/>
      <path d="M66.01,162.35c6.63-.22,13.28.12,19.85,1.04.19.03.27-.26.08-.29-6.6-.92-13.27-1.28-19.93-1.05-.19,0-.19.31,0,.3h0Z"/>
    </g>
    <g>
      <path class="cls-1" d="M38.89,162.84c1.44-.5,2.99-.63,4.51-.72,4.94-.28,9.9-.13,14.81.45"/>
      <path d="M38.93,162.99c1.51-.51,3.08-.64,4.66-.72s3.23-.13,4.85-.12c3.27,0,6.53.21,9.78.59.19.02.19-.28,0-.3-3.31-.39-6.64-.59-9.97-.59-1.65,0-3.29.05-4.94.14-1.51.09-3.02.23-4.46.72-.18.06-.1.35.08.29h0Z"/>
    </g>
    <g>
      <path class="cls-1" d="M53.02,147.88c8.59-1.32,17.44-.94,25.89,1.12"/>
      <path d="M53.06,148.02c8.58-1.3,17.37-.92,25.81,1.12.19.05.27-.24.08-.29-8.49-2.05-17.33-2.43-25.97-1.12-.19.03-.11.32.08.29h0Z"/>
    </g>
    <g>
      <path class="cls-1" d="M198.55,215.86c13.03-.48,26.1.46,38.93,2.81,3.48.64,6.98,1.4,10.12,3.03,2.61,1.36,4.89,3.29,7.04,5.31,3.3,3.09,6.39,6.42,9.22,9.94"/>
      <path d="M198.55,216.01c9.61-.35,19.24.06,28.78,1.25,4.71.59,9.47,1.25,14.09,2.38,2.24.55,4.46,1.28,6.49,2.4,1.96,1.08,3.73,2.47,5.39,3.95,3.79,3.37,7.26,7.11,10.44,11.06.12.15.33-.06.21-.21-2.9-3.61-6.06-7.02-9.46-10.17-1.58-1.46-3.21-2.87-5.02-4.04-1.83-1.19-3.82-2.07-5.91-2.71-4.53-1.39-9.34-2.03-14.02-2.67-4.78-.65-9.58-1.12-14.39-1.39-5.53-.31-11.08-.36-16.61-.15-.19,0-.19.31,0,.3h0Z"/>
    </g>
    <g>
      <path class="cls-1" d="M204.97,212.44c14.85-4.37,30.69-5.34,45.96-2.81"/>
      <path d="M205.01,212.58c11.55-3.38,23.66-4.73,35.67-3.97,3.42.22,6.83.61,10.21,1.16.19.03.27-.26.08-.29-11.91-1.96-24.15-1.83-36.01.4-3.38.63-6.73,1.44-10.03,2.41-.18.05-.11.34.08.29h0Z"/>
    </g>
    <path d="M180.32,229.18c1.66-1.24,3.32-2.47,4.99-3.71,1.55-1.15,3.08-2.37,4.73-3.38,3.24-1.98,7.19-2.67,10.91-3.15,6.98-.9,14.16-.43,20.92,1.57,3.79,1.12,7.43,2.73,10.8,4.81.16.1.32-.16.15-.26-6.02-3.72-12.9-5.9-19.93-6.6-3.59-.36-7.21-.34-10.79.04-3.56.38-7.37.94-10.63,2.47-1.96.92-3.68,2.29-5.41,3.57l-5.88,4.37c-.15.11,0,.37.15.26h0Z"/>
    <g>
      <path class="cls-1" d="M244.11,193.29c-4.61,2.24-9.13,4.68-13.53,7.3"/>
      <path d="M244.03,193.16c-4.61,2.24-9.13,4.68-13.53,7.3-.17.1-.02.36.15.26,4.41-2.62,8.92-5.06,13.53-7.3.17-.08.02-.34-.15-.26h0Z"/>
    </g>
    <g>
      <path class="cls-1" d="M259.17,171.06c-3.67,3.33-8.31,5.34-12.86,7.3-2.27.98-4.54,1.95-6.82,2.93"/>
      <path d="M259.07,170.95c-2.66,2.39-5.81,4.11-9.03,5.6-3.5,1.62-7.07,3.08-10.62,4.61-.18.08-.02.33.15.26,3.59-1.55,7.22-3.03,10.77-4.68,3.2-1.48,6.31-3.21,8.94-5.58.14-.13-.07-.34-.21-.21h0Z"/>
    </g>
    <g>
      <path class="cls-1" d="M211.9,197.86c3.03-4.09,6.98-7.5,11.47-9.91"/>
      <path d="M212.03,197.94c2.35-3.17,5.25-5.93,8.53-8.12.93-.62,1.89-1.2,2.88-1.73.17-.09.02-.35-.15-.26-3.53,1.89-6.72,4.39-9.4,7.36-.75.83-1.46,1.7-2.12,2.59-.12.16.15.3.26.15h0Z"/>
    </g>
    <g>
      <path class="cls-1" d="M214.46,197.66c3.47-2.18,6.72-4.69,9.72-7.48"/>
      <path d="M214.53,197.79c2.7-1.7,5.27-3.59,7.69-5.66.7-.6,1.38-1.21,2.06-1.84.14-.13-.07-.34-.21-.21-2.32,2.17-4.8,4.16-7.42,5.97-.75.51-1.5,1.01-2.27,1.49-.16.1-.01.36.15.26h0Z"/>
    </g>
    <g>
      <path class="cls-1" d="M214.27,199.89c9.06-4.41,18-9.07,26.81-13.97"/>
      <path d="M214.34,200.02c9.06-4.41,18-9.07,26.81-13.97.17-.09.02-.35-.15-.26-8.81,4.9-17.75,9.56-26.81,13.97-.17.08-.02.34.15.26h0Z"/>
    </g>
    <g>
      <path class="cls-1" d="M168.73,232.12c3.53-3.6,7.07-7.19,10.6-10.79,2.59-2.64,5.21-5.3,7.14-8.45"/>
      <path d="M168.84,232.23l7.52-7.65c2.36-2.4,4.8-4.76,7.02-7.3,1.18-1.36,2.28-2.79,3.23-4.32.1-.16-.16-.32-.26-.15-1.72,2.77-3.94,5.17-6.21,7.49-2.42,2.48-4.86,4.94-7.29,7.41-1.41,1.43-2.82,2.87-4.23,4.3-.14.14.08.35.21.21h0Z"/>
    </g>
    <g>
      <path class="cls-1" d="M178.57,215.73c2.68-4.28,5.86-8.24,9.46-11.78"/>
      <path d="M178.7,215.8c2.09-3.32,4.47-6.46,7.12-9.35.75-.82,1.52-1.62,2.32-2.4.14-.14-.07-.35-.21-.21-2.8,2.76-5.35,5.77-7.61,8.99-.65.92-1.27,1.87-1.87,2.82-.1.16.16.31.26.15h0Z"/>
    </g>
    <g>
      <path class="cls-1" d="M164.54,235.77c2.66-4.52,5.32-9.03,7.98-13.55,1.1-1.87,2.2-3.74,3.14-5.7,2.51-5.24,3.92-11.18,7.83-15.48"/>
      <path d="M164.67,235.84c2.86-4.86,5.74-9.72,8.59-14.59,1.31-2.23,2.52-4.5,3.53-6.89.91-2.16,1.72-4.37,2.68-6.52,1.08-2.41,2.36-4.73,4.13-6.71.13-.14-.08-.36-.21-.21-3.08,3.42-4.63,7.8-6.33,12-2.05,5.07-4.94,9.68-7.71,14.38-1.65,2.8-3.29,5.59-4.94,8.39-.1.17.16.32.26.15h0Z"/>
    </g>
    <g>
      <path class="cls-1" d="M163.82,234.21c.43-6.23,2.6-12.34,6.2-17.44,3.43-4.85,8.2-8.98,9.97-14.65"/>
      <path d="M163.97,234.21c.36-5.07,1.84-10.03,4.34-14.45,2.28-4.05,5.55-7.32,8.29-11.03,1.49-2.01,2.77-4.17,3.53-6.57.06-.18-.23-.26-.29-.08-1.44,4.53-4.73,8.06-7.68,11.67-3.05,3.73-5.49,7.8-6.96,12.41-.83,2.62-1.34,5.32-1.54,8.06-.01.19.29.19.3,0h0Z"/>
    </g>
    <g>
      <path class="cls-1" d="M172.87,208.63c1.87-7.58,7.67-13.8,9.17-21.46"/>
      <path d="M173.02,208.67c1.49-5.96,5.28-10.93,7.63-16.53.67-1.59,1.21-3.23,1.55-4.92.04-.19-.25-.27-.29-.08-1.22,6.07-5.01,11.13-7.49,16.7-.69,1.54-1.27,3.12-1.68,4.76-.05.19.24.27.29.08h0Z"/>
    </g>
    <g>
      <path class="cls-1" d="M187.85,214.79c1.12-4.26,4.18-7.71,7.14-10.97,1.67-1.84,3.35-3.69,5.02-5.53"/>
      <path d="M188,214.83c1.36-5.08,5.31-8.93,8.74-12.71,1.13-1.24,2.25-2.49,3.38-3.73.13-.14-.08-.36-.21-.21-1.98,2.19-3.98,4.36-5.94,6.56-1.7,1.9-3.35,3.86-4.62,6.08-.7,1.24-1.27,2.55-1.64,3.93-.05.19.24.27.29.08h0Z"/>
    </g>
    <g>
      <path class="cls-1" d="M183.8,198.42c1.49-2.88,2.45-6.03,2.81-9.25"/>
      <path d="M183.93,198.49c1.5-2.91,2.46-6.07,2.83-9.33.02-.19-.28-.19-.3,0-.36,3.2-1.31,6.32-2.79,9.18-.09.17.17.32.26.15h0Z"/>
    </g>
    <g>
      <path class="cls-1" d="M194.6,201.9c4.45-6.03,8.92-12.08,12.5-18.66,3.59-6.58,6.29-13.74,6.96-21.21.2-2.28.22-4.57.44-6.85.72-7.56,3.69-15.03,2.6-22.55"/>
      <path d="M194.72,201.97c5.82-7.88,11.7-15.86,15.55-24.93,1.79-4.23,3.13-8.66,3.73-13.22.34-2.54.36-5.1.55-7.65s.63-5.03,1.12-7.51c1.05-5.28,2.31-10.64,1.55-16.05-.03-.19-.32-.11-.29.08.69,4.92-.32,9.82-1.3,14.63-.47,2.35-.94,4.7-1.22,7.07-.29,2.5-.29,5.03-.51,7.53-.83,9.56-4.98,18.47-10.04,26.49-2.92,4.62-6.17,9.02-9.41,13.42-.11.16.15.31.26.15h0Z"/>
    </g>
    <g>
      <path class="cls-1" d="M219.51,153.68c-.84,8.14-2.54,16.16-4.23,24.16"/>
      <path d="M219.36,153.68c-.84,8.13-2.53,16.13-4.23,24.12-.04.19.25.27.29.08,1.7-8.01,3.39-16.04,4.24-24.2.02-.19-.28-.19-.3,0h0Z"/>
    </g>
    <g>
      <path class="cls-1" d="M213.12,182.61c-2.42,4.94-5.1,9.76-8.02,14.42-1.13,1.8-2.31,3.6-3.86,5.06"/>
      <path d="M212.99,182.54c-1.7,3.47-3.52,6.88-5.48,10.21-.96,1.64-1.94,3.26-2.96,4.86-1,1.56-2.08,3.08-3.42,4.37-.14.13.07.35.21.21,1.3-1.24,2.35-2.71,3.33-4.21,1.04-1.61,2.04-3.26,3.01-4.92,1.99-3.39,3.84-6.85,5.57-10.37.08-.17-.17-.32-.26-.15h0Z"/>
    </g>
    <g>
      <path class="cls-1" d="M213.35,133.96c-3.12,6.15-3.73,13.3-6.57,19.59-1.63,3.61-4.02,7.05-4.23,11"/>
      <path d="M213.22,133.88c-1.93,3.83-2.91,8.02-4.04,12.13-.58,2.12-1.21,4.24-2.03,6.29-.81,2.02-1.88,3.92-2.83,5.87s-1.78,4.12-1.93,6.38c-.01.19.29.19.3,0,.27-4.23,2.87-7.76,4.48-11.55s2.52-8,3.69-12.03c.69-2.38,1.5-4.73,2.61-6.94.09-.17-.17-.32-.26-.15h0Z"/>
    </g>
    <g>
      <path class="cls-1" d="M211.54,150.76c-1.23,10.73-4.03,21.28-8.29,31.2"/>
      <path d="M211.39,150.76c-.96,8.29-2.84,16.46-5.61,24.32-.81,2.3-1.7,4.56-2.65,6.8-.08.18.18.33.26.15,3.34-7.8,5.79-15.97,7.29-24.32.41-2.31.75-4.63,1.02-6.96.02-.19-.28-.19-.3,0h0Z"/>
    </g>
    <g>
      <path class="cls-1" d="M220.5,141.29c3.21,10.16,3.4,21.25.53,31.51"/>
      <path d="M220.35,141.33c2.49,7.91,3.17,16.36,1.98,24.58-.34,2.31-.82,4.6-1.45,6.86-.05.19.24.27.29.08,2.22-8.01,2.62-16.49,1.17-24.68-.42-2.34-.99-4.65-1.7-6.92-.06-.18-.35-.11-.29.08h0Z"/>
    </g>
    <ellipse class="cls-5" cx="227.95" cy="182.61" rx="6.5" ry="3.07" transform="translate(-58.74 238.45) rotate(-49.72)"/>
    <ellipse class="cls-5" cx="229.54" cy="193.92" rx="5.27" ry="2.49" transform="translate(-66.81 243.65) rotate(-49.72)"/>
    <ellipse class="cls-5" cx="93.46" cy="137.49" rx="2.72" ry="8.35" transform="translate(-56.22 65.15) rotate(-30)"/>
    <ellipse class="cls-5" cx="104.45" cy="122.81" rx="3.27" ry="11.01" transform="translate(-24.24 25.69) rotate(-12.58)"/>
    <ellipse class="cls-5" cx="128.02" cy="104.64" rx="3.48" ry="9.83" transform="translate(-5.87 7.62) rotate(-3.33)"/>
    <path class="cls-2" d="M140.95,106.96s-7.53,11.21-7.19,29.08"/>
    <ellipse class="cls-5" cx="137.66" cy="124.17" rx="12.05" ry="3.66" transform="translate(7.46 256.14) rotate(-87.44)"/>
    <ellipse class="cls-5" cx="118.43" cy="122.81" rx="2.95" ry="9.27" transform="translate(-14.23 15.53) rotate(-7.08)"/>
    <path class="cls-2" d="M100.4,160.47c-11.88-1.2-22.91,6.08-22.91,6.08-9,4.44-14.73,16.83-12.86,30.98,1.87,14.14,7.83,23.38,13.56,28.64,5.73,5.26,12.62,1.17,13.79-.58,1.17-1.75.94-17.3,7.6-21.16,6.66-3.86,20.81-15.78,25.6-19.4s20.82-17.38,7.54-20.37c0,0-8.76-.4-14.16,3.24,0,0-10.16-6.61-18.16-7.42Z"/>
    <g>
      <path class="cls-1" d="M81.76,216.34c-1.45-3.25-1.68-6.95-1.24-10.48.44-3.53,1.51-6.95,2.58-10.35.59-1.87,1.18-3.76,2.2-5.43.87-1.43,2.03-2.67,3.22-3.85,6.82-6.76,15-12.14,23.92-15.7"/>
      <path d="M81.89,216.26c-1.67-3.81-1.68-8.09-.96-12.12.37-2.06.93-4.09,1.53-6.1.6-1.97,1.16-3.99,1.96-5.89,1.52-3.62,4.58-6.33,7.48-8.87s5.91-4.76,9.12-6.78c3.64-2.28,7.47-4.23,11.46-5.83.18-.07.1-.36-.08-.29-7.22,2.9-13.96,6.95-19.9,11.99-1.49,1.27-2.94,2.59-4.32,3.98s-2.67,2.87-3.55,4.63-1.49,3.87-2.1,5.84c-.64,2.08-1.26,4.17-1.7,6.3-.91,4.41-1.03,9.09.81,13.28.08.18.34.02.26-.15h0Z"/>
    </g>
    <g>
      <path class="cls-1" d="M89.69,212.99c-.87-5.43.41-11.04,2.7-16.05s5.53-9.5,8.8-13.94c2.62-3.56,5.33-7.17,8.96-9.7"/>
      <path d="M89.83,212.95c-.95-6.14.78-12.34,3.58-17.79,2.72-5.3,6.35-10.19,10-14.88,1.98-2.55,4.15-4.97,6.8-6.84.16-.11,0-.37-.15-.26-2.38,1.67-4.38,3.79-6.2,6.04s-3.64,4.79-5.38,7.24c-3.56,5.03-6.85,10.39-8.37,16.42-.83,3.32-1.1,6.76-.58,10.14.03.19.32.11.29-.08h0Z"/>
    </g>
    <g>
      <path class="cls-1" d="M104.8,184.32c1.1-1.91,2.39-3.72,3.83-5.4"/>
      <path d="M104.93,184.39c.86-1.48,1.82-2.9,2.88-4.24.3-.38.61-.76.93-1.13.13-.15-.09-.36-.21-.21-1.13,1.31-2.16,2.7-3.08,4.16-.27.42-.52.84-.77,1.27-.1.17.16.32.26.15h0Z"/>
    </g>
    <g>
      <path class="cls-1" d="M110.03,183.29c-.18-2.25.74-4.48,2.09-6.29s3.11-3.27,4.85-4.7c1.65-1.36,3.31-2.73,4.99-4.06"/>
      <path d="M110.18,183.29c-.38-5.38,4.57-8.97,8.25-12,1.2-.99,2.41-1.98,3.63-2.95.15-.12-.06-.33-.21-.21-2.2,1.75-4.39,3.51-6.52,5.35-1.91,1.64-3.73,3.49-4.73,5.84-.54,1.26-.82,2.61-.73,3.98.01.19.31.19.3,0h0Z"/>
    </g>
    <g>
      <path class="cls-1" d="M114.1,187.03c5.67-4.13,10.46-9.48,13.93-15.58"/>
      <path d="M114.18,187.16c4.43-3.23,8.31-7.18,11.46-11.66.9-1.28,1.74-2.61,2.52-3.97.1-.17-.16-.32-.26-.15-2.7,4.72-6.17,8.99-10.24,12.6-1.17,1.03-2.38,2.01-3.64,2.92-.15.11,0,.37.15.26h0Z"/>
    </g>
    <g>
      <path class="cls-1" d="M75.15,203.2c1.83-7.75,3.87-15.91,9.43-21.62,4.01-4.11,9.46-6.5,14.95-8.2"/>
      <path d="M75.29,203.24c1.2-5.08,2.44-10.23,4.79-14.93,1.18-2.35,2.64-4.57,4.47-6.48s4.05-3.5,6.39-4.78c2.74-1.49,5.66-2.6,8.63-3.53.18-.06.11-.35-.08-.29-5.18,1.62-10.35,3.82-14.35,7.59-3.86,3.65-6.19,8.53-7.79,13.52-.93,2.9-1.65,5.86-2.35,8.82-.04.19.24.27.29.08h0Z"/>
    </g>
    <g>
      <path class="cls-1" d="M77.09,180.75c7-8.21,18.31-12.52,29-11.03"/>
      <path d="M77.2,180.86c5.46-6.37,13.45-10.39,21.79-11.15,2.35-.21,4.72-.16,7.06.15.19.03.27-.26.08-.29-8.39-1.14-17.12,1.18-23.92,6.21-1.92,1.42-3.67,3.05-5.23,4.86-.13.15.09.36.21.21h0Z"/>
    </g>
    <g>
      <path class="cls-1" d="M89.26,168.43c4.6-1.96,9.74-2.63,14.69-1.93"/>
      <path d="M89.33,168.56c4.58-1.93,9.66-2.6,14.58-1.92.19.03.27-.26.08-.29-5.01-.7-10.15-.02-14.81,1.95-.18.07-.02.33.15.26h0Z"/>
    </g>
    <g>
      <path class="cls-1" d="M77.99,214.96c.61,4.35,3,8.22,5.34,11.94"/>
      <path d="M77.85,215c.64,4.41,3.03,8.27,5.35,11.98.1.16.36.01.26-.15-2.31-3.69-4.69-7.52-5.32-11.91-.03-.19-.32-.11-.29.08h0Z"/>
    </g>
    <g>
      <path class="cls-1" d="M73.46,184.79c-1.79,2.29-2.7,5.24-2.52,8.14"/>
      <path d="M73.35,184.68c-1.41,1.81-2.28,4-2.52,6.28-.07.65-.08,1.31-.04,1.97.01.19.31.19.3,0-.17-2.87.72-5.77,2.48-8.04.12-.15-.09-.36-.21-.21h0Z"/>
    </g>
  </g>
  <path d="M175.81,237.19c6.62-4.87,13.62-9.22,20.93-12.98,2.07-1.07,4.17-2.08,6.29-3.05.18-.08.02-.34-.15-.26-7.47,3.43-14.67,7.44-21.5,12.01-1.94,1.3-3.84,2.64-5.72,4.02-.15.11,0,.37.15.26h0Z"/>
  <path d="M178.99,237.16c7.17-4.87,15.09-8.46,23.1-11.72,2.28-.93,4.57-1.83,6.87-2.73.18-.07.1-.36-.08-.29-8.04,3.17-16.11,6.35-23.67,10.57-2.18,1.22-4.3,2.52-6.37,3.92-.16.11,0,.37.15.26h0Z"/>
  <path d="M128.85,186.2c4.13,9.23,7.54,18.76,10.21,28.51.05.19.34.11.29-.08-2.1-7.66-4.65-15.2-7.66-22.55-.83-2.02-1.69-4.03-2.58-6.03-.08-.18-.34-.02-.26.15h0Z"/>
  <path d="M130.81,184.36c2.23,2.2,3.34,5.19,4.12,8.16.9,3.41,1.6,6.88,2.39,10.32.04.19.33.11.29-.08-.81-3.54-1.52-7.11-2.46-10.61-.79-2.92-1.93-5.84-4.12-8-.14-.14-.35.08-.21.21h0Z"/>
  <path d="M134.93,181.55c1.95,6.31,3.52,12.74,4.71,19.24.03.19.32.11.29-.08-1.19-6.5-2.76-12.93-4.71-19.24-.06-.18-.35-.11-.29.08h0Z"/>
  <path d="M124.51,187.53c.9,2.51,1.84,5,2.81,7.49.48,1.22.96,2.44,1.46,3.65.4.98.81,1.99,1.62,2.71.14.13.36-.08.21-.21-.87-.78-1.27-1.9-1.69-2.95-.48-1.17-.94-2.35-1.4-3.53-.94-2.4-1.84-4.81-2.71-7.23-.06-.18-.35-.1-.29.08h0Z"/>
  <path d="M122.86,191.98c2.73,6.32,6.11,12.34,10.08,17.96.11.16.37,0,.26-.15-3.98-5.62-7.36-11.64-10.08-17.96-.08-.18-.33-.02-.26.15h0Z"/>
  <path d="M131.5,203.97c1.54,2.54,3.09,5.07,4.63,7.61.1.16.36.01.26-.15-1.54-2.54-3.09-5.07-4.63-7.61-.1-.16-.36-.01-.26.15h0Z"/>
</svg>