<?xml version="1.0" encoding="UTF-8"?>
<svg id="Layer_1" data-name="Layer 1" xmlns="http://www.w3.org/2000/svg" viewBox="0 0 289.13 430.87">
  <defs>
    <style>
      .cls-1 {
        fill: #fff8dc;
      }

      .cls-1, .cls-2, .cls-3 {
        stroke: #000;
        stroke-miterlimit: 10;
        stroke-width: .5px;
      }

      .cls-2 {
        fill: #d3e29a;
      }

      .cls-3 {
        fill: none;
      }
    </style>
  </defs>
  <g>
    <path class="cls-1" d="M208.6,118.83s7.58-17.28,18.39-13.38c10.8,3.9,12.32,27.72,12.32,27.72l-24.64,9.16-6.07-23.5Z"/>
    <path class="cls-1" d="M187.56,124.52s7.39-23.5,20.09-21.99c12.7,1.52,12.7,38.86,12.7,38.86l-22.37,21.23-12.48-13.78,2.06-24.32Z"/>
    <path class="cls-2" d="M162.06,379.87h0c2.13,0,4.05-1.29,4.86-3.26,3.36-8.24,12.26-29.46,16.18-32.4,4.88-3.66,36.62-37.43,44.35-66.32,6.78-25.35,27.35-84.84,36.41-103.44.93-1.91-1.05-3.91-2.97-3-6.75,3.19-18.01,10.67-27.74,27.5-15.05,26.04-27.67,41.91-35.4,59.81s-17.09,26.85-17.09,26.85c0,0,9.77-79.77,17.5-90.95l-9.5-2.86s-7.99,34-12.88,57.19c-4.53,21.51-18.85,99.11-18.96,125.63-.01,2.9,2.35,5.24,5.25,5.24Z"/>
    <path class="cls-2" d="M135.52,379.87h0c-2.63,0-4.91-1.78-5.57-4.32-2.47-9.51-10.81-33.12-36.07-54.7-32.56-27.81-32.22-86.83-40.7-102.43-6.07-11.16-13.35-23.88-17-30.22-.97-1.68.53-3.72,2.42-3.28,9.09,2.1,29.58,10.01,47.02,39.61,23.19,39.34,40.48,84.79,40.48,84.79,0,0-9.97-100.85-22.91-119.04l14.75-5.33s2.7,8.82,12.96,83.16c0,0,11.72-80.93,23.7-80.56,6.65.21,18.32,80.04,8.82,106.84-8.57,24.18-19.62,62.99-22.2,80.56-.41,2.82-2.84,4.91-5.69,4.91Z"/>
    <path class="cls-1" d="M68.99,124.13s-3.85-29.64,12.3-30.53c16.16-.89,21.35,19.42,21.35,19.42l-12.46,19.42-21.2-8.3Z"/>
    <path class="cls-1" d="M95.67,111.08s.14-22.16,12.87-23.72c16.41-2.01,25.07,22.83,25.07,22.83l-16.01,22.97-21.94-22.09Z"/>
    <path class="cls-1" d="M118.79,131.39s3.26-39.72,18.23-41.8c14.97-2.08,16.01,44.02,15.71,47.73s3.71,42.39-25.35,51.88-15.86-25.64-15.86-25.64l7.26-32.16Z"/>
    <path class="cls-1" d="M79.22,130.35s-14.53-29.35-26.09-26.24c0,0-5.19.44.59,19.42s.74,27.12,8.75,43.13c8,16.01,21.94,31.57,42.84,25.94l-26.09-62.25Z"/>
    <path class="cls-1" d="M193.9,167.5s6.63-64.46-10.54-62.05c-20.83,2.93-15.28,66.65-14.05,73.05,1.65,8.59,8.24,23.67,25.9,24.01s-1.31-35.02-1.31-35.02Z"/>
    <path class="cls-1" d="M189.21,201.66s-14.04-28.3,11.72-54.76c25.76-26.46,30.67-32.78,39.1-28.8,8.43,3.98,6.32,32.78,4.21,44.02-2.11,11.24-11.09,36.84-31.38,40.74-8.25,1.59-12.75.89-23.66-1.2Z"/>
    <path class="cls-1" d="M118.98,191.45c-2.37,1.78-9.02,3.19-11.96,2.77-3.09-.45-5.07-.68-7.51-.68-4.06,0-24.06-11.56-25-39.37-.94-27.81,4.06-45.31,15.62-46.87,11.56-1.56,16.8,2.91,19.76,7.21,2.96,4.3,16.01,20.31,19.27,30.98s1.63,31.87-2.82,37.94c-2.76,3.77-4.56,5.91-7.37,8.03Z"/>
  </g>
  <path class="cls-3" d="M180.66,285.62s-9.96,61.46-11.08,65.94"/>
  <path class="cls-3" d="M126.1,309.33s6.43,63.06,6.98,66.65"/>
  <path class="cls-3" d="M130.88,268.12s9.36,75.6,9.59,86.57"/>
  <path d="M225.46,225.89c-.53,6.72-2.66,13.24-5.12,19.48-2.65,6.72-5.81,13.21-8.88,19.74-1.39,2.94-2.76,5.89-4.03,8.89-1.51,3.56-2.84,7.19-4.24,10.79s-2.93,7.39-4.74,10.93c-1.8,3.53-3.97,6.84-6.19,10.12-2.21,3.28-4.42,6.57-6.28,10.07s-3.3,6.95-4.49,10.6c-.31.95-.59,1.9-.86,2.86-.05.19.24.27.29.08,1.07-3.86,2.48-7.63,4.23-11.24s3.82-6.92,6.02-10.21,4.47-6.54,6.4-10,3.45-6.95,4.89-10.55c1.47-3.67,2.82-7.39,4.3-11.05,1.28-3.18,2.69-6.3,4.14-9.41,2.99-6.41,6.11-12.76,8.82-19.29,2.58-6.24,4.88-12.72,5.78-19.44.1-.78.19-1.56.25-2.35.02-.19-.28-.19-.3,0h0Z"/>
  <path d="M218.08,278.07c-1.87,7.01-5.25,13.46-9.16,19.53s-8.39,11.91-12.54,17.9c-2.34,3.37-4.58,6.82-6.57,10.41-.09.17.17.32.26.15,3.57-6.43,7.93-12.38,12.22-18.34,4.23-5.89,8.45-11.84,11.72-18.34,1.81-3.59,3.31-7.34,4.35-11.24.05-.19-.24-.27-.29-.08h0Z"/>
  <path d="M239.33,203.72c-.78,9.36-3.21,18.58-5.88,27.56-2.45,8.25-5.21,16.41-7.96,24.56-1.73,5.15-3.66,10.25-6.2,15.06-.09.17.17.32.26.15,4.11-7.76,6.57-16.24,9.35-24.53,3.06-9.11,6.01-18.29,8.19-27.66,1.16-4.98,2.12-10.03,2.54-15.13.02-.19-.28-.19-.3,0h0Z"/>
  <path d="M202.6,266.27c-5.61,10.28-10.85,20.86-15.23,31.74-1.1,2.74-2.14,5.51-3.01,8.34-.06.19.23.26.29.08,1.64-5.36,3.85-10.55,6.13-15.66,2.49-5.57,5.15-11.06,7.93-16.48,1.35-2.64,2.73-5.26,4.15-7.86.09-.17-.17-.32-.26-.15h0Z"/>
  <path d="M49.32,198.85c4.72,6.87,9.35,13.8,13.88,20.8,4.55,7.03,9,14.13,13.35,21.29,2.45,4.03,4.86,8.07,7.24,12.14.1.17.36.02.26-.15-4.21-7.19-8.53-14.33-12.94-21.4-4.44-7.11-8.97-14.15-13.61-21.12-2.61-3.92-5.25-7.83-7.92-11.71-.11-.16-.37,0-.26.15h0Z"/>
  <path d="M85.32,261.69c2.89,6.31,5.78,12.62,8.67,18.93,2.86,6.24,5.61,12.56,8.63,18.72,2.88,5.86,6.12,11.54,9.27,17.26,1.6,2.9,3.19,5.81,4.68,8.77,1.27,2.53,2.35,5.15,3.41,7.78,1.22,3.03,2.45,6.05,3.64,9.1s2.59,6.19,4.48,8.98c.11.16.37,0,.26-.15-1.75-2.59-3.07-5.41-4.21-8.31s-2.16-5.51-3.29-8.26c-.99-2.42-1.93-4.86-3.03-7.23-1.38-2.98-2.96-5.87-4.54-8.76-3.13-5.73-6.4-11.39-9.36-17.22s-5.77-12.29-8.6-18.45c-3.25-7.1-6.51-14.21-9.76-21.31-.08-.18-.34-.02-.26.15h0Z"/>
  <path d="M81.3,280.75c4.68,11.1,10.59,21.67,17.61,31.45,1.96,2.72,4,5.39,6.12,7.98.12.15.33-.06.21-.21-7.55-9.25-14.07-19.34-19.4-30.02-1.52-3.05-2.94-6.14-4.26-9.27-.07-.18-.36-.1-.29.08h0Z"/>
  <path d="M87.62,242.32c6.45,13.58,13,27.11,19.65,40.59,1.86,3.78,3.73,7.55,5.61,11.32.09.17.34.02.26-.15-6.7-13.45-13.31-26.96-19.82-40.51-1.82-3.8-3.64-7.6-5.45-11.4-.08-.17-.34-.02-.26.15h0Z"/>
  <path d="M62.13,235.44c4.56,9.54,8.68,19.28,13.21,28.84,1.47,3.11,2.95,6.21,4.51,9.27.09.17.35.02.26-.15-4.91-9.66-9.21-19.61-13.69-29.48-1.31-2.89-2.66-5.77-4.02-8.64-.08-.17-.34-.02-.26.15h0Z"/>
  <path d="M149.85,218.18c-.2,13.38-1.17,26.73-2.56,40.03-.69,6.63-1.49,13.26-2.35,19.87-.42,3.21-.83,6.42-1.28,9.62-.41,2.96-.97,5.88-1.56,8.81-1.35,6.79-1.92,13.72-2.92,20.57-.03.19.26.27.29.08.91-6.21,1.47-12.47,2.56-18.65.52-2.92,1.18-5.82,1.63-8.75s.82-5.91,1.21-8.86c1.76-13.3,3.3-26.64,4.27-40.03.54-7.55.9-15.12,1.02-22.69,0-.19-.3-.19-.3,0h0Z"/>
  <path d="M153.4,280.11c-2,13.25-4.32,26.44-6.96,39.57-.75,3.71-1.52,7.41-2.32,11.1-.04.19.25.27.29.08,2.83-13.09,5.34-26.26,7.52-39.47.61-3.73,1.2-7.46,1.77-11.2.03-.19-.26-.27-.29-.08h0Z"/>
  <path d="M156.67,230.36c.92,11.84-.04,23.81-.93,35.63-.24,3.19-.49,6.37-.72,9.56-.01.19.29.19.3,0,.86-11.86,1.97-23.73,1.98-35.63,0-3.19-.08-6.38-.33-9.56-.01-.19-.31-.19-.3,0h0Z"/>
  <path d="M142.32,239.4c-1.61,11.36-2.84,22.78-3.69,34.22-.24,3.29-.45,6.58-.63,9.87-.01.19.29.19.3,0,.62-11.44,1.63-22.87,3.02-34.25.4-3.26.83-6.52,1.29-9.77.03-.19-.26-.27-.29-.08h0Z"/>
  <path d="M234.98,126.21c-1.58,10.7-4.12,21.26-7.01,31.67-1.37,4.92-2.83,9.82-4.36,14.69-1.61,5.11-3.05,10.42-6.01,14.95-3.21,4.93-7.7,8.83-12.1,12.66-.15.13.07.34.21.21,3.9-3.39,7.84-6.83,10.94-11,1.56-2.1,2.85-4.36,3.85-6.78s1.85-5.11,2.67-7.7c3.23-10.12,6.18-20.34,8.6-30.68,1.39-5.94,2.6-11.93,3.49-17.96.03-.19-.26-.27-.29-.08h0Z"/>
  <path d="M239.16,141.05c-1.03,7.71-1.84,15.46-3.35,23.1-.72,3.63-1.6,7.23-2.91,10.7-1.51,4-3.36,7.88-5.62,11.52-2.54,4.09-5.59,7.86-9.19,11.07-.14.13.07.34.21.21,6.38-5.7,11-13.1,14.2-20.99,2.98-7.34,4.24-15.21,5.32-23.02.58-4.2,1.07-8.41,1.63-12.61.03-.19-.27-.19-.3,0h0Z"/>
  <path d="M223.8,135.24c-.68,7.58-2.14,15.11-4.01,22.47-2.08,8.21-4.71,16.36-8.43,23.99-1.81,3.71-3.9,7.33-6.53,10.52-.12.15.09.36.21.21,4.92-5.97,8.13-13.31,10.74-20.53,2.91-8.03,5.07-16.34,6.63-24.74.73-3.95,1.33-7.93,1.69-11.93.02-.19-.28-.19-.3,0h0Z"/>
  <path d="M212.36,146.21c-1.85,4.91-3.23,10-4.42,15.11s-2.28,10.71-3.11,16.12c-.4,2.61-.75,5.22-1.02,7.85-.02.19.28.19.3,0,1.09-10.43,3.09-20.87,5.94-30.96.77-2.71,1.61-5.4,2.61-8.03.07-.18-.22-.26-.29-.08h0Z"/>
  <path d="M201.35,156.66c-1.79,5.67-3.16,11.46-3.93,17.36-.67,5.15-.9,10.33-1.08,15.51-.11,3.14-.21,6.28-.38,9.42-.01.19.29.19.3,0,.56-10.68.44-21.39,2.64-31.91.73-3.48,1.66-6.91,2.73-10.3.06-.18-.23-.26-.29-.08h0Z"/>
  <path d="M183.21,127.2c-.96,8.75-1.85,17.51-2.26,26.3s-.35,17.79.71,26.62c.58,4.79,1.45,9.55,2.71,14.21.05.19.34.11.29-.08-2.28-8.45-3.29-17.19-3.56-25.92-.28-8.85.19-17.7.95-26.52.42-4.88.93-9.74,1.47-14.61.02-.19-.28-.19-.3,0h0Z"/>
  <path d="M173.42,137.24c-1.77,13.28-.93,26.81,1.2,40,.6,3.75,1.32,7.49,2.12,11.21.04.19.33.11.29-.08-2.84-13.12-4.62-26.58-4.2-40.03.11-3.71.4-7.41.89-11.09.03-.19-.27-.19-.3,0h0Z"/>
  <path d="M180.64,114.55c-1.15,3.7-1.69,7.56-2.1,11.4s-.64,7.5-.52,11.27c.07,2.25.16,4.49.15,6.74,0,.19.3.19.3,0,.02-3.8-.3-7.6-.16-11.4s.55-7.69,1.16-11.47c.35-2.18.8-4.35,1.45-6.46.06-.18-.23-.26-.29-.08h0Z"/>
  <path d="M188.45,132.14c-.17,4.35-.38,8.7-.32,13.05.04,3.1.31,6.19.57,9.29.25,2.92.5,5.85.73,8.77.02.19.32.19.3,0-.59-7.5-1.44-14.96-1.27-22.49.06-2.87.18-5.75.29-8.62,0-.19-.29-.19-.3,0h0Z"/>
  <path d="M204.19,123.93c-1.99,7.19-2.94,14.65-2.81,22.11,0,.19.3.19.3,0-.13-7.44.82-14.87,2.8-22.03.05-.19-.24-.27-.29-.08h0Z"/>
  <path d="M209.19,109.12c1.35,8.65,1.1,17.52-.74,26.08-.04.19.25.27.29.08,1.84-8.62,2.09-17.53.74-26.24-.03-.19-.32-.11-.29.08h0Z"/>
  <path d="M202.16,112.64c-2.91,6.86-4.67,14.16-5.21,21.59-.01.19.29.19.3,0,.54-7.37,2.28-14.63,5.17-21.44.07-.18-.18-.33-.26-.15h0Z"/>
  <path d="M222.79,110.07c-.51,3.21-1.16,6.39-1.97,9.53-.05.19.24.27.29.08.81-3.15,1.47-6.33,1.97-9.53.03-.19-.26-.27-.29-.08h0Z"/>
  <path d="M225.4,112.74c.16,3.27-.03,6.56-.57,9.79-.03.19.26.27.29.08.55-3.26.75-6.57.59-9.87,0-.19-.31-.19-.3,0h0Z"/>
  <path d="M93.21,117.65c1.03,9,2.37,17.95,4.03,26.85,1.67,8.97,3.66,17.87,5.97,26.7,1.3,4.98,2.7,9.93,4.2,14.85.06.18.35.11.29-.08-2.64-8.69-4.98-17.47-7.01-26.32s-3.72-17.7-5.11-26.63c-.79-5.11-1.48-10.23-2.07-15.37-.02-.19-.32-.19-.3,0h0Z"/>
  <path d="M109.84,159.84c2.75,8.17,3.87,16.84,3.28,25.44-.01.19.29.19.3,0,.59-8.63-.53-17.33-3.29-25.52-.06-.18-.35-.1-.29.08h0Z"/>
  <path d="M114.18,139.52c3.54,11.23,5.07,23.07,4.49,34.83-.16,3.37-.5,6.72-1,10.05-.03.19.26.27.29.08,1.77-11.68,1.45-23.65-.93-35.22-.68-3.31-1.54-6.59-2.56-9.82-.06-.18-.35-.11-.29.08h0Z"/>
  <path d="M124.97,156.74c1.43,7.99.63,16.3-2.29,23.87-.07.18.22.26.29.08,2.94-7.62,3.73-15.99,2.29-24.03-.03-.19-.32-.11-.29.08h0Z"/>
  <path d="M87.02,152.59c2.21,10.86,4.54,22.12,11.12,31.3,1.66,2.31,3.56,4.44,5.72,6.29.15.13.36-.09.21-.21-8.25-7.09-12.21-17.6-14.69-27.9-.76-3.17-1.41-6.36-2.06-9.56-.04-.19-.33-.11-.29.08h0Z"/>
  <path d="M79.65,150.81c1.81,10.79,6.06,21.14,12.36,30.09,1.77,2.51,3.7,4.91,5.77,7.19.13.14.34-.07.21-.21-7.35-8.06-12.83-17.77-15.97-28.21-.88-2.93-1.57-5.92-2.08-8.94-.03-.19-.32-.11-.29.08h0Z"/>
  <path d="M85.46,125.12c.18,8.92,3.43,17.44,6.17,25.82.81,2.5,1.63,4.99,2.44,7.49.06.18.35.1.29-.08-1.41-4.32-2.82-8.64-4.23-12.96s-2.7-8.38-3.54-12.7c-.48-2.5-.78-5.03-.83-7.57,0-.19-.3-.19-.3,0h0Z"/>
  <path d="M101.31,125.34c3.07,9.18,5.11,18.69,6.08,28.33.02.19.32.19.3,0-.97-9.66-3.01-19.2-6.09-28.41-.06-.18-.35-.1-.29.08h0Z"/>
  <path d="M143.57,114.59c.71,8.95,1.42,17.96.76,26.94-.33,4.48-1.02,8.93-2.18,13.27-1.1,4.12-2.57,8.14-4.29,12.04-1.93,4.38-4.16,8.62-6.54,12.78-.1.17.16.32.26.15,4.22-7.38,8.01-15.07,10.4-23.25,2.51-8.6,3.11-17.53,2.86-26.45-.15-5.17-.55-10.32-.97-15.48-.02-.19-.32-.19-.3,0h0Z"/>
  <path d="M146.33,153.79c-1.17,9.12-5.51,17.38-9.75,25.4-.09.17.17.32.26.15,4.27-8.07,8.61-16.37,9.79-25.55.02-.19-.28-.19-.3,0h0Z"/>
  <path d="M135.97,115.19c-.88,14.02.64,28.08-.56,42.09-.34,3.99-.91,7.95-1.81,11.85-.04.19.25.27.29.08,3.17-13.79,2.16-28,2.09-42.02-.02-4,.04-8,.29-12,.01-.19-.29-.19-.3,0h0Z"/>
  <path d="M129.09,110.29c.69,8.77.61,17.59-.25,26.35-.02.19.28.19.3,0,.86-8.76.94-17.58.25-26.35-.02-.19-.32-.19-.3,0h0Z"/>
  <path d="M138.32,99.91c2.1,9.48,1.78,19.12,2.28,28.75,0,.19.31.19.3,0-.5-9.66-.19-19.33-2.29-28.83-.04-.19-.33-.11-.29.08h0Z"/>
  <path d="M62.02,120.47c1.8,3.72,3.38,7.54,4.73,11.44.67,1.92,1.28,3.86,1.83,5.81.52,1.85.95,3.72,1.51,5.55s1.33,3.73,2.53,5.31c.12.15.38,0,.26-.15-2.28-2.99-2.9-6.81-3.89-10.34-1.1-3.95-2.44-7.84-3.99-11.64-.85-2.07-1.76-4.12-2.74-6.14-.08-.17-.34-.02-.26.15h0Z"/>
  <path d="M60.31,125.39c2.05,6.16,4.1,12.31,6.15,18.47,1.01,3.04,2.02,6.08,3.03,9.11.7,2.09,1.33,4.21,2.26,6.22,1.04,2.26,2.26,4.45,3.35,6.69.08.17.34.02.26-.15-.99-2.03-2.06-4.02-3.05-6.05-.93-1.92-1.58-3.93-2.26-5.96-2.01-6.04-4.02-12.07-6.03-18.11-1.14-3.43-2.29-6.87-3.43-10.3-.06-.18-.35-.1-.29.08h0Z"/>
  <path d="M63.43,155.3c3.75,7.9,7.56,15.9,13.07,22.76,1.55,1.93,3.24,3.76,5.06,5.44.14.13.35-.08.21-.21-6.48-5.97-10.96-13.66-14.86-21.47-1.1-2.21-2.16-4.44-3.22-6.67-.08-.17-.34-.02-.26.15h0Z"/>
  <path d="M75.87,102.7c.72,4.05,2.06,7.99,3.96,11.64.09.17.35.02.26-.15-1.88-3.63-3.21-7.54-3.93-11.57-.03-.19-.32-.11-.29.08h0Z"/>
  <path d="M82.68,97.93c1.2,2.11,2.06,4.41,2.55,6.79.04.19.33.11.29-.08-.49-2.41-1.37-4.73-2.58-6.86-.1-.17-.35-.02-.26.15h0Z"/>
  <path d="M106.66,99.89c.07,4.5.95,8.96,2.6,13.14.07.18.36.1.29-.08-1.64-4.16-2.52-8.59-2.59-13.06,0-.19-.3-.19-.3,0h0Z"/>
  <path d="M111.62,95.82c2.95,6.54,4.64,13.6,4.98,20.76,0,.19.31.19.3,0-.34-7.22-2.05-14.32-5.02-20.91-.08-.18-.34-.02-.26.15h0Z"/>
  <path d="M118,98.85c1.38,3.38,2.21,6.98,2.44,10.62.01.19.31.19.3,0-.23-3.67-1.05-7.3-2.45-10.7-.07-.18-.36-.1-.29.08h0Z"/>
</svg>