<?xml version="1.0" encoding="UTF-8"?>
<svg id="Layer_1" data-name="Layer 1" xmlns="http://www.w3.org/2000/svg" viewBox="0 0 128.18 128.18">
  <defs>
    <style>
      .cls-1 {
        fill: #fff0f0;
      }

      .cls-1, .cls-2 {
        stroke: #000;
        stroke-linecap: round;
        stroke-linejoin: round;
        stroke-width: .5px;
      }

      .cls-2 {
        fill: none;
      }
    </style>
  </defs>
  <path class="cls-1" d="M45.27,82.98S26.45,28.22,49.49,13.85c0,0,4.86-.21,5.29,10.36.42,10.57,11.42,17.13,11.42,17.13,0,0,10.15-15.22,14.17-1.27,0,0,4.78,6.87,12.27,12.61,0,0,7.84,9.48-2.34,18.73,0,0,12.99,2.69,14.28,18.15s-5.39,18.97-14.63,17.21c0,0-7.96,11-31.61-10.65,0,0-9.04-6.23-13.07-13.12Z"/>
  <path class="cls-1" d="M66.2,41.33s-14.59,17.2-11.09,41.59c.24,1.66,2.17,2.46,3.48,1.42,7.68-6.1,26.93-24.48,7.61-43.01Z"/>
  <path class="cls-1" d="M90.29,71.4s-13.93.91-26.2,13.22c-.23.23,0,.63.31.54,3.72-1.02,16.05-4.89,25.89-13.76Z"/>
  <path class="cls-1" d="M89.94,106.76s1.41-17.79-4.38-25.94c-.42-.59.33-1.35.99-1.07,3.74,1.56,12.63,8.65,3.38,27.01Z"/>
  <path class="cls-2" d="M45.27,82.98s-12.72-13.43-16.28-6.6c0,0-.91,3.84,2.56,5.39"/>
  <path class="cls-1" d="M47.3,85.93s5.99,22.57,10.72,22.27-1.58-9.83-1.58-9.83l-9.14-12.44Z"/>
  <circle class="cls-1" cx="35.56" cy="106.39" r="2.77"/>
  <circle class="cls-1" cx="102.17" cy="27.86" r="4.21"/>
  <circle class="cls-1" cx="104.95" cy="39.68" r="1.65"/>
</svg>