<?xml version="1.0" encoding="UTF-8"?>
<svg id="Layer_1" data-name="Layer 1" xmlns="http://www.w3.org/2000/svg" viewBox="0 0 128.18 128.18">
  <defs>
    <style>
      .cls-1 {
        fill: #fff0f0;
      }
    </style>
  </defs>
  <g>
    <g>
      <path class="cls-1" d="M64.09,58.68S26.93,19.17,11.72,26.53c0,0,9.88,12.25,10.03,15.61.16,3.36-.78,14.96,5.49,16.53,6.27,1.57,30.26,4.98,30.26,4.98,0,0-24.46,3.02-21.48,11.01,0,0,3.76,3.45,4.08,9.88s.62,11.22,6.27,11.76c7.41.7,17.64-33.05,17.64-33.05l.08-4.58Z"/>
      <path d="M64.07,58.69c-11.16-11.23-22.98-22.42-37.12-29.8-4.61-2.18-10.19-4.39-15.17-2.23,0,0,.05-.2.05-.2,1.77,2.22,3.49,4.47,5.14,6.78,1.78,2.62,3.8,5.22,4.83,8.27.08.37.15.73.13,1.09.04,3.49-.04,7.12.9,10.51.54,1.99,1.53,3.99,3.39,5.01.6.24,1.36.5,1.98.61,4.15.89,8.35,1.54,12.54,2.22,5.59.89,11.2,1.72,16.8,2.52.12.02.2.13.18.24-.01.1-.09.17-.19.18-4.33.6-8.66,1.48-12.83,2.83-3.28,1.22-9.84,3.34-8.46,7.88,1.61,1.47,3.18,4.57,3.7,7.07,1.11,5.07-.72,14.25,6.75,14.43,6.98-.96,14.99-26.18,17.26-32.84,0,.07.1-4.57.1-4.56h0ZM64.11,58.67s-.04,4.59-.05,4.61c-2.18,6.77-10.1,32.38-17.35,33.22-7.81-.07-6.19-9.46-7.25-14.74-.57-2.62-1.85-5.09-3.67-7.01-1.5-4.97,5.19-7.17,8.76-8.48,4.21-1.36,8.54-2.23,12.92-2.83,0,0,0,.43,0,.43-5.61-.81-11.21-1.65-16.8-2.55-4.54-.77-9.11-1.42-13.59-2.51,0,0-1.03-.39-1.03-.39-.6-.36-1.21-.83-1.69-1.38-2.66-3.48-2.63-8.15-2.74-12.33-.05-1.42.17-2.85-.48-4.11-1.18-2.55-2.81-4.89-4.42-7.2-1.64-2.31-3.35-4.56-5.11-6.78-.05-.06-.04-.14.02-.19,5.1-2.23,10.73.04,15.41,2.26,14.15,7.45,25.92,18.67,37.07,29.98h0Z"/>
    </g>
    <g>
      <path class="cls-1" d="M64.09,65.27S23.49,26.12,6.87,33.42c0,0,10.79,12.14,10.96,15.47.17,3.33-.86,14.82,6,16.38,6.85,1.55,33.67-1.61,33.67-1.61,0,0-27.34,9.53-24.08,17.46,0,0,4.11,3.42,4.45,9.79.34,6.37.67,11.12,6.85,11.65,8.1.7,19.28-32.74,19.28-32.74l.08-4.54Z"/>
      <path d="M64.07,65.28c-12.41-11.34-25.55-22.52-40.89-29.68-5.03-2.1-10.92-4.15-16.25-2.05,0,0,.05-.21.05-.21,1.97,2.24,3.9,4.53,5.74,6.89,1.81,2.38,3.7,4.72,4.95,7.49.33.68.36,1.5.35,2.25-.03,5.96.11,15.62,8.24,15.43,4.46.28,8.94-.01,13.4-.29,5.95-.41,11.9-.98,17.83-1.66.12-.01.23.07.24.19.01.1-.05.2-.14.23-4.93,1.79-9.78,3.87-14.38,6.38-3.68,2.19-10.8,5.98-9.61,10.69,2.06,1.91,3.44,4.42,4.12,7.11,1.18,5.42-.63,14.18,7.36,14.3,7.59-.85,16.3-25.56,18.9-32.54,0,.08.11-4.53.11-4.51h0ZM64.11,65.26s-.05,4.55-.06,4.57c-2.51,7.09-11.16,32.17-18.99,32.91-8.36-.16-6.68-8.87-7.86-14.58-.63-2.65-2.07-5.1-4.01-6.95-1.66-5.14,6.15-9.2,9.77-11.37,4.64-2.52,9.5-4.59,14.46-6.39,0,0,.1.42.1.42-5.94.67-11.89,1.23-17.85,1.63-4.47.27-8.97.55-13.45.25-7.42.17-8.52-7.76-8.52-13.56-.07-1.23.2-3.22-.34-4.38-2.63-5.3-6.81-9.79-10.6-14.31,14.18-6.97,46.92,21.94,57.34,31.75h0Z"/>
    </g>
    <path d="M64.02,58.68c0-7.08-.64-19.47-8.96-21.61-1.17-.26-2.42-.17-3.6-.1,1.14-.33,2.44-.4,3.66-.24,8.62,1.59,9.32,15.13,8.9,21.96h0Z"/>
    <g>
      <path class="cls-1" d="M64.09,58.68s37.16-39.51,52.37-32.14c0,0-9.88,12.25-10.03,15.61s.78,14.96-5.49,16.53c-6.27,1.57-30.26,4.98-30.26,4.98,0,0,24.46,3.02,21.48,11.01,0,0-3.76,3.45-4.08,9.88-.31,6.43-.62,11.22-6.27,11.76-7.41.7-17.64-33.05-17.64-33.05l-.08-4.58Z"/>
      <path d="M64.07,58.67c11.15-11.31,22.92-22.52,37.07-29.98,4.68-2.22,10.28-4.47,15.38-2.28.07.03.1.11.06.18-1.76,2.23-3.48,4.49-5.13,6.81-1.61,2.32-3.25,4.65-4.42,7.2-.65,1.26-.43,2.69-.48,4.11-.1,4.18-.07,8.85-2.74,12.33-.26.26-.51.53-.78.77l-.92.6-1.03.39c-4.48,1.09-9.05,1.74-13.59,2.51-5.59.9-11.2,1.74-16.8,2.55v-.43c4.37.6,8.7,1.47,12.91,2.83,3.57,1.32,10.26,3.51,8.76,8.48-1.82,1.92-3.1,4.39-3.67,7.01-1.05,5.28.56,14.67-7.25,14.73-7.24-.83-15.17-26.45-17.35-33.22,0-.01-.05-4.59-.05-4.61h0ZM64.11,58.69s.11,4.63.1,4.56c2.27,6.67,10.28,31.87,17.26,32.84,7.47-.19,5.64-9.36,6.75-14.43.52-2.5,2.09-5.6,3.7-7.07,1.39-4.54-5.18-6.66-8.46-7.88-4.16-1.35-8.49-2.23-12.83-2.83-.12-.01-.2-.12-.19-.24.01-.1.09-.17.18-.19,5.61-.8,11.21-1.63,16.8-2.52,4.19-.68,8.39-1.33,12.54-2.22.62-.11,1.4-.37,1.98-.61,1.86-1.02,2.85-3.01,3.39-5.01.94-3.38.86-7.02.9-10.51-.01-.35.06-.72.13-1.09,1.04-3.05,3.05-5.65,4.83-8.27,1.65-2.31,3.37-4.56,5.14-6.78l.05.2c-4.98-2.16-10.56.06-15.17,2.23-14.14,7.38-25.96,18.57-37.12,29.8h0Z"/>
    </g>
    <g>
      <path class="cls-1" d="M64.09,65.27s40.6-39.15,57.22-31.85c0,0-10.79,12.14-10.96,15.47s.86,14.82-6,16.38-33.67-1.61-33.67-1.61c0,0,27.34,9.53,24.08,17.46,0,0-4.11,3.42-4.45,9.79-.34,6.37-.67,11.12-6.85,11.65-8.1.7-19.28-32.74-19.28-32.74l-.08-4.54Z"/>
      <path d="M64.07,65.26c10.37-9.77,43.19-38.73,57.34-31.75-3.79,4.52-7.97,9.01-10.6,14.31-.54,1.15-.26,3.12-.34,4.38,0,5.8-1.09,13.72-8.52,13.56-4.48.3-8.98.01-13.45-.25-5.96-.4-11.91-.96-17.85-1.63l.1-.42c4.96,1.8,9.82,3.87,14.46,6.39,3.61,2.17,11.43,6.22,9.77,11.37-1.94,1.85-3.38,4.3-4.01,6.95-1.17,5.7.49,14.44-7.86,14.58-7.83-.74-16.47-25.81-18.99-32.91,0-.01-.05-4.55-.06-4.57h0ZM64.11,65.28s.12,4.59.11,4.51c2.59,6.97,11.32,31.7,18.9,32.54,8.01-.14,6.17-8.87,7.36-14.3.68-2.69,2.05-5.2,4.12-7.11,1.19-4.71-5.93-8.49-9.61-10.69-4.61-2.51-9.46-4.59-14.38-6.38-.11-.04-.17-.16-.13-.28.03-.1.13-.15.23-.14,5.93.68,11.87,1.25,17.83,1.66,4.46.28,8.94.57,13.4.29,8.13.19,8.27-9.46,8.24-15.43,0-.75.02-1.57.35-2.25,1.26-2.77,3.14-5.11,4.95-7.49,1.84-2.35,3.77-4.64,5.74-6.89l.05.21c-5.33-2.1-11.22-.05-16.25,2.05-15.34,7.16-28.48,18.33-40.89,29.68h0Z"/>
    </g>
    <path d="M64.11,58.68c-.23-7.09.22-20.24,8.95-21.96,1.22-.16,2.53-.09,3.66.25-1.19-.07-2.43-.16-3.6.1-8.45,2.2-8.84,14.63-9.01,21.62h0Z"/>
    <path d="M64.12,59.08c0,5.86.53,14.14-.03,19.88-.33-3.28-.26-6.64-.2-9.95.05,0,.08-10.09.23-9.93h0Z"/>
  </g>
  <g>
    <polygon class="cls-1" points="85.55 12.21 87.1 20.81 95.71 22.36 87.1 23.91 85.55 32.52 84 23.91 75.4 22.36 84 20.81 85.55 12.21"/>
    <path d="M85.55,12.18l1.62,8.62-.06-.06,8.61,1.5c.13.02.14.23,0,.25,0,0-8.6,1.59-8.6,1.59l.13-.13-1.51,8.61c-.02.11-.12.18-.23.16-.08-.01-.15-.08-.16-.16l-1.57-8.6.18.18-8.61-1.52c-.27-.04-.27-.45,0-.49,0,0,8.63-1.44,8.63-1.44l-.11.11c.56-2.92,1.17-5.79,1.68-8.61h0ZM85.55,12.23c-.61,2.92-.8,6-1.52,8.72,0,0-8.59,1.66-8.59,1.66v-.49l8.6,1.57c.09.02.17.09.18.18l1.52,8.61h-.39l1.59-8.6c.01-.07.07-.12.13-.13l8.61-1.51v.25l-8.6-1.6s-.05-.03-.06-.06l-1.48-8.59h0Z"/>
  </g>
</svg>