<?xml version="1.0" encoding="UTF-8"?>
<svg id="Layer_1" data-name="Layer 1" xmlns="http://www.w3.org/2000/svg" viewBox="0 0 128.18 128.18">
  <defs>
    <style>
      .cls-1 {
        fill: #fff0f0;
      }
    </style>
  </defs>
  <g>
    <path class="cls-1" d="M45.27,82.98S26.45,28.22,49.49,13.85c0,0,4.86-.21,5.29,10.36.42,10.57,11.42,17.13,11.42,17.13,0,0,10.15-15.22,14.17-1.27,0,0,4.78,6.87,12.27,12.61,0,0,7.84,9.48-2.34,18.73,0,0,12.99,2.69,14.28,18.15,1.29,15.45-5.39,18.97-14.63,17.21,0,0-7.96,11-31.61-10.65,0,0-9.04-6.23-13.07-13.12Z"/>
    <path d="M45.24,82.99c-5.78-18.18-14.96-56.89,4.25-69.28,1.54.08,2.71,1.2,3.47,2.39,1.95,3.07,1.71,6.87,2.23,10.32.66,3.45,2.43,6.62,4.73,9.27,1.85,2.11,3.99,4,6.36,5.5l-.23.05c.97-1.4,2.05-2.71,3.25-3.92,4.94-5.07,9.31-4.36,11.24,2.69,1.54,2.09,3.67,4.62,5.66,6.64,2.04,2.11,4.24,4.07,6.56,5.86,1.1,1.42,1.89,3.05,2.41,4.75,1.06,3.4.53,7.23-1.36,10.24-.33.66-1.1,1.56-1.54,2.16-.58.66-1.23,1.27-1.84,1.9l-.1-.38c4.32,1.12,8.12,3.83,10.71,7.43,2.59,3.61,3.68,8.11,3.85,12.49.48,6.31-.88,14.9-8.39,16.06-2.2.41-4.45.19-6.61-.21l.2-.08c-4.54,4.83-12.01,2.58-17.17.02-5.33-2.75-10.21-6.73-14.66-10.73-4.93-3.63-9.79-7.86-13.03-13.18h0ZM45.29,82.97c3.27,5.29,8.11,9.44,13.1,13.07,4.46,3.94,9.35,7.9,14.67,10.6,5.03,2.46,12.32,4.65,16.71,0,7.55,1.09,13.04-.63,14.36-9.02.85-6.33.29-13.37-3.47-18.74-2.5-3.51-6.26-6.17-10.42-7.26-.12-.03-.19-.16-.16-.28.55-.7,1.28-1.28,1.86-1.96.43-.58,1.18-1.45,1.5-2.1,1.84-2.91,2.35-6.6,1.33-9.9-.44-1.59-1.4-3.38-2.27-4.55-2.33-1.81-4.54-3.78-6.59-5.91-2.05-2.12-3.98-4.36-5.72-6.76-.49-1.61-1.1-3.24-2.2-4.49-4.05-4.13-9.35,2.59-11.67,5.75-.05.08-.15.1-.23.05-2.41-1.53-4.55-3.44-6.43-5.58-1.86-2.15-3.37-4.63-4.25-7.35-.96-2.65-.67-5.66-1.26-8.39-.51-2.54-1.74-5.85-4.67-6.19-18.89,12.53-9.96,50.64-4.21,69h0Z"/>
  </g>
  <g>
    <path class="cls-1" d="M66.2,41.33s-14.59,17.2-11.09,41.59c.24,1.66,2.17,2.46,3.48,1.42,7.68-6.1,26.93-24.48,7.61-43.01Z"/>
    <path d="M66.2,41.36c-8.75,11.53-12.92,26.62-10.97,40.99-.09,1.54,1.49,2.8,2.9,2.05,3.69-2.77,7-6.17,9.82-9.81,8.75-11.23,8.63-23.14-1.75-33.23h0ZM66.2,41.31c10.85,9.81,11.02,22.35,2.15,33.58-2.92,3.7-6.25,7.07-10.04,9.86-1.65.87-3.54-.58-3.44-2.35-1.86-14.46,2.38-29.58,11.33-41.09h0Z"/>
  </g>
  <g>
    <path class="cls-1" d="M90.29,71.4s-13.93.91-26.2,13.22c-.23.23,0,.63.31.54,3.72-1.02,16.05-4.89,25.89-13.76Z"/>
    <path d="M90.27,71.41c-9.84,1.32-19.19,6.36-26.07,13.44.04.15.1.13.27.08,0,0,.23-.07.23-.07l.9-.27c8.94-2.81,17.48-7.16,24.68-13.19h0ZM90.32,71.39c-7.15,6.73-16.13,11.21-25.51,13.87-.18.04-.29.11-.53.11-.27-.02-.47-.26-.48-.51-.02-.38.44-.61.65-.85,7.01-6.73,16.12-11.58,25.86-12.63h0Z"/>
  </g>
  <g>
    <path class="cls-1" d="M89.94,106.76s1.41-17.79-4.38-25.94c-.42-.59.33-1.35.99-1.07,3.74,1.56,12.63,8.65,3.38,27.01Z"/>
    <path d="M89.93,106.78c.19-8.48.22-17.68-4.11-25.19,0,0-.5-.81-.5-.81-.18-.38,0-.83.29-1.05.6-.52,1.34-.02,1.91.27,2.22,1.2,3.99,3.13,5.16,5.35,3.4,6.95.6,15.02-2.76,21.44h0ZM89.95,106.73c2.91-6.53,5.58-14.31,2.3-21.16-1.24-2.41-3.22-4.51-5.72-5.62-.23-.12-.48-.08-.67.08-.55.44.07.93.27,1.37,4.27,7.52,4.22,16.95,3.82,25.34h0Z"/>
  </g>
  <path d="M45.25,83c-3.23-2.99-9.75-9.41-14.42-8.07-.72.28-1.25.88-1.62,1.57-.14.68-.17,2.11.24,2.99.36,1.03,1.24,1.75,2.12,2.29-.5-.14-1.02-.47-1.44-.83-1.31-1.13-1.69-3.03-1.37-4.68.74-1.68,2.76-2.42,4.46-1.93,4.79,1.38,8.8,5.21,12.02,8.65h0Z"/>
  <g>
    <path class="cls-1" d="M47.3,85.93s5.99,22.57,10.72,22.27c4.73-.3-1.58-9.83-1.58-9.83l-9.14-12.44Z"/>
    <path d="M47.31,85.95c1.57,4.85,5.71,20.22,10.34,22.02,1.81.23,2.17-1.34,1.77-2.8-.83-3.11-2.6-5.96-4.53-8.51-2.48-3.5-4.93-7.05-7.58-10.72h0ZM47.29,85.91c2.53,3.38,5.26,6.87,7.96,10.41,1.36,1.76,2.55,3.62,3.49,5.63.66,1.51,1.41,3.13,1.21,4.84-.08.94-1,1.6-1.91,1.6-4.87-.29-9.48-18.02-10.74-22.49h0Z"/>
  </g>
  <g>
    <circle class="cls-1" cx="35.56" cy="106.39" r="2.77"/>
    <path d="M38.35,106.39c-.12,3.82-5.61,3.81-5.77,0,.06-3.98,5.73-4,5.77,0h0ZM38.3,106.39c-.15-3.33-5.17-3.34-5.32,0,.03,3.5,5.26,3.49,5.32,0h0Z"/>
  </g>
  <g>
    <circle class="cls-1" cx="102.17" cy="27.86" r="4.21"/>
    <path d="M106.41,27.86c-.21,5.73-8.41,5.72-8.65,0,.12-5.87,8.56-5.9,8.65,0h0ZM106.36,27.86c-.24-5.24-7.98-5.26-8.2,0,.11,5.41,8.06,5.4,8.2,0h0Z"/>
  </g>
  <g>
    <circle class="cls-1" cx="104.95" cy="39.68" r="1.65"/>
    <path d="M106.62,39.68c-.08,2.32-3.38,2.36-3.52,0,0-2.48,3.53-2.54,3.52,0h0ZM106.57,39.68c-.07-1.84-2.99-1.85-3.07,0-.04,2,3.06,2.02,3.07,0h0Z"/>
  </g>
</svg>