<?xml version="1.0" encoding="UTF-8"?>
<svg id="Layer_1" data-name="Layer 1" xmlns="http://www.w3.org/2000/svg" viewBox="0 0 128.18 128.18">
  <defs>
    <style>
      .cls-1 {
        fill: #fff0f0;
      }
    </style>
  </defs>
  <g>
    <path class="cls-1" d="M58.96,74.73s-14.99-38.09,1.09-49.49c0,0,2.03,5.93,6.24,12.64,4.21,6.71,4.53,10.3,4.53,10.3,0,0,12.33-21.23,19.2-21.23,0,0,2.34,4.21,0,16.55,0,0,.94,5.93,4.21,10.62,3.28,4.68,2.5,11.55,0,12.96,0,0,16.39,3.75,11.24,14.05,0,0-.31,4.53.16,6.4s-4.2,10.47-11.4,10.62c-3.25.07-7.45-1.66-11.25-3.69-5.04-2.7-9.65-6.13-13.8-10.06l-10.23-9.67Z"/>
    <path d="M58.94,74.75c-4.77-13.21-12.23-39.57,1.05-49.59.06-.04.15-.02.17.06,1.46,3.97,3.35,7.78,5.52,11.42,2.21,3.61,4.52,7.31,5.29,11.55,0,0-.28-.06-.28-.06,2.5-4.2,5.19-8.28,8.17-12.16,2.27-2.87,4.64-5.76,7.68-7.87,1.03-.67,2.18-1.27,3.48-1.32.07,0,.13.04.15.1,1.94,5.35.91,11.21.04,16.68.33,1.71,1.01,4.14,1.79,5.99.78,2.01,1.93,3.72,3.07,5.56,1.51,2.87,1.99,6.32,1.1,9.45-.32,1.03-.84,2.09-1.84,2.73l-.06-.42c4.88,1.39,10.92,3.68,12.3,9.13.35,1.81-.11,3.66-.9,5.25-.04,1.51-.21,4.2.14,6.05.19.76-.07,1.51-.3,2.16-1.62,3.86-4.76,7.25-8.82,8.52-4.14,1.17-8.37-.71-12.05-2.45-10.12-4.8-17.72-13.21-25.73-20.76h0ZM58.98,74.72c8.11,7.44,15.73,15.75,25.84,20.49,3.37,1.57,7.03,3.19,10.8,2.6,4.36-.88,7.8-4.53,9.46-8.53.22-.64.43-1.27.27-1.88-.35-2.08-.22-4.18-.12-6.27.73-1.57,1.24-3.32.89-5.03-1.33-5.21-7.25-7.44-11.93-8.78-.2-.04-.23-.32-.06-.42,3.11-2.55,2.27-8.38.58-11.58-2.39-3.54-4.2-7.58-4.88-11.83.87-5.35,1.89-11.2.04-16.42,0,0,.16.1.16.1-1.16.04-2.28.59-3.28,1.25-6.8,5.15-11.3,12.75-15.8,19.87-.06.13-.27.07-.28-.06-.75-4.15-3.05-7.88-5.23-11.44-2.16-3.66-4.05-7.48-5.51-11.48l.17.06c-13.2,9.91-5.83,36.26-1.14,49.38h0Z"/>
  </g>
  <g>
    <path class="cls-1" d="M70.82,48.2s-8.03,13.78-6.24,24.86c.39,2.41,3.61,3.03,4.89.95,2.7-4.38,5.67-14.49,1.35-25.81Z"/>
    <path d="M70.82,48.22c-3.39,6.45-6.11,13.61-6.31,20.99-.03,1.07.1,2.58.24,3.66.07.59.31,1.13.73,1.52,1.47,1.32,3.5.59,4.19-1.18,3.93-7.67,3.91-16.94,1.15-24.99h0ZM70.82,48.17c3.29,8,3.33,17.54-.76,25.25-.81,1.97-3.19,2.77-4.84,1.24-.48-.45-.76-1.11-.83-1.74-.13-1.1-.25-2.62-.21-3.72.3-7.45,3.05-14.57,6.64-21.03h0Z"/>
  </g>
  <g>
    <path class="cls-1" d="M94.24,67.08s-14.39,2.3-22.65,10.42c-.86.85,0,2.3,1.16,1.98,4.15-1.16,13.06-5.1,21.49-12.4Z"/>
    <path d="M94.21,67.09c-7.51,1.57-15.12,4.3-21.09,9.26,0,0-1.22,1.11-1.22,1.11-.96.61-.28,2.1.75,1.81,7.91-2.53,15.08-7.08,21.56-12.19h0ZM94.26,67.07c-3.28,3.06-6.94,5.63-10.78,7.92-3.4,1.92-6.95,3.65-10.72,4.71-1.01.29-1.99-.78-1.66-1.76.16-.6,1.38-1.42,1.8-1.86,6.1-4.93,13.7-7.61,21.37-9.01h0Z"/>
  </g>
  <g>
    <path class="cls-1" d="M58.96,74.73s4.74,13.32,9.71,18.8c1.21,1.33,3.38.15,2.96-1.59-.71-2.94-4.52-9.93-12.66-17.21Z"/>
    <path d="M58.97,74.75c2.15,5.45,4.5,11,7.74,15.93.82,1.04,1.6,2.65,2.83,3.18.86.24,1.83-.42,1.91-1.31-.53-3.29-2.8-6.25-4.67-8.97-2.29-3.22-5-6.06-7.81-8.83h0ZM58.94,74.71c3.1,2.54,5.8,5.43,8.24,8.58,1.89,2.76,4.32,5.92,4.69,9.31-.13,1.13-1.34,1.94-2.44,1.63-1.34-.52-2.15-2.27-3-3.37-3.2-5.04-5.48-10.53-7.49-16.15h0Z"/>
  </g>
  <path d="M58.94,74.75c-3.77-2.95-8.44-4.9-13.28-4.7-.03,0-.04-.04,0-.05,4.79-1.19,9.96,1.72,13.29,4.75h0Z"/>
  <g>
    <circle class="cls-1" cx="83.49" cy="15.45" r="2.72"/>
    <path d="M86.24,15.45c-.12,3.75-5.51,3.74-5.66,0,.04-3.9,5.66-3.92,5.66,0h0ZM86.19,15.45c-.13-3.25-5.09-3.26-5.21,0,.01,3.41,5.15,3.44,5.21,0h0Z"/>
  </g>
  <path d="M38.19,81.55c.03,3.51.53,7.11-.03,10.57-.49-3.42-.15-7.26.03-10.57h0Z"/>
  <path d="M38.19,104.9c.03,3.51.53,7.11-.03,10.57-.49-3.42-.15-7.26.03-10.57h0Z"/>
  <path d="M54.63,98.03c-3.51.03-7.11.53-10.57-.03,3.42-.49,7.26-.15,10.57.03h0Z"/>
  <path d="M32.26,98.03c-3.51.03-7.11.53-10.57-.03,3.42-.49,7.26-.15,10.57.03h0Z"/>
  <g>
    <line class="cls-1" x1="46.42" y1="90.24" x2="41.29" y2="95.38"/>
    <path d="M46.44,90.26c-1.68,1.73-3.12,3.87-5.17,5.13,1.31-1.98,3.47-3.69,5.17-5.13h0Z"/>
  </g>
  <g>
    <line class="cls-1" x1="35.05" y1="101.62" x2="29.91" y2="106.76"/>
    <path d="M35.07,101.64c-1.68,1.73-3.12,3.87-5.17,5.13,1.31-1.98,3.47-3.69,5.17-5.13h0Z"/>
  </g>
  <g>
    <line class="cls-1" x1="46.42" y1="106.28" x2="41.29" y2="101.14"/>
    <path d="M46.41,106.3c-1.73-1.68-3.87-3.12-5.13-5.17,1.98,1.31,3.69,3.47,5.13,5.17h0Z"/>
  </g>
  <g>
    <line class="cls-1" x1="35.53" y1="95.38" x2="30.39" y2="90.24"/>
    <path d="M35.51,95.4c-1.73-1.68-3.87-3.12-5.13-5.17,1.98,1.31,3.69,3.47,5.13,5.17h0Z"/>
  </g>
</svg>