<?xml version="1.0" encoding="UTF-8"?>
<svg id="Layer_1" data-name="Layer 1" xmlns="http://www.w3.org/2000/svg" viewBox="0 0 128.18 128.18">
  <defs>
    <style>
      .cls-1 {
        fill: #fff0f0;
      }
    </style>
  </defs>
  <g>
    <path class="cls-1" d="M64.09,57.33S32.93,9.22,14.34,18.51c0,0-3.69,2.19,1.64,6.7,0,0,1.37,3.69.14,9.02s3.42,5.88,3.55,7.38-1.64,5.6.27,7.52c1.91,1.91,8.47,3.14,10.39,6.42,1.91,3.28,5.74,5.6,10.66,5.19,0,0-10.66,3.28-12.98,12.16,0,0-5.71,6.28-4.37,10.52,1.58,5.03,5.47,3.96,5.47,3.96,0,0-2.32,3.96-.82,5.33,1.5,1.37,5.6,0,5.6,0,0,0-1.64,4.65,1.23,4.78,2.87.14,4.24-2.46,4.24-2.46,0,0-.41,5.33,2.87,5.06s5.84-3.78,5.84-3.78c0,0,12.61-.07,16.03-30.53h0v-8.47Z"/>
    <path d="M64.07,57.34c-6.21-9.22-13.11-18.08-20.96-25.97-3.94-3.91-8.17-7.62-12.96-10.46-2.4-1.39-4.96-2.56-7.67-3.12-5.94-1.23-13.46,1.27-6.36,7.38.65,2.05.76,4.21.59,6.32-.09,2.11-1.14,4.21-.31,6.16.55,1.56,2.1,2.23,3.19,3.38.39.48.24,1.11.17,1.65-.29,1.96-1.09,4.26.06,6.03.61.78,1.6,1.24,2.53,1.69,2.75,1.33,6.26,2.31,8.07,4.95,2.08,3.69,6.41,5.61,10.56,5.2.23-.02.3.33.08.4-5.64,1.99-11.2,6.02-12.83,12.02-1.97,2.44-4.04,5.18-4.5,8.35-.43,2.96,2.1,6.6,5.33,5.85.13-.03.25.05.28.18-.33.9-.91,1.79-1.12,2.75-1.25,3.93,3.3,3.11,5.6,2.39.13-.04.27.03.31.16-.25,1.26-.78,2.71-.18,3.94.71,1.1,2.39.66,3.38.14.75-.42,1.39-1.08,1.82-1.8.12-.24.48-.11.46.13-.42,7.28,5.18,5.11,8.3,1.14,6.21-1.05,9.79-7.26,12.03-12.66,2.19-5.59,3.31-11.81,4.09-17.76,0,0,.07.08.07.08-.04,0-.07-.03-.07-.07l.05-8.47h0ZM64.12,57.32l.05,8.48-.07-.07s.07.03.07.07c-.7,5.99-1.8,12.23-3.96,17.86-2.03,5.3-6.41,12.31-11.98,12.79-3.38,4.4-9.49,6.36-9.11-1.42,0,0,.46.13.46.13-1.11,2.47-6.35,4.23-6.39.25,0-.96.19-1.87.48-2.76l.31.31c-2.71.9-7.57,1.4-6.21-2.98.27-.95.67-1.84,1.15-2.7l.26.34c-3.58.83-6.36-3.1-5.89-6.36.5-3.28,2.51-6.02,4.58-8.5.95-4.12,4.84-8.17,8.84-10.3,1.36-.76,2.76-1.42,4.25-1.91l.08.4c-4.27.43-8.79-1.6-10.91-5.4-1.82-2.6-5.16-3.48-7.9-4.83-2.31-.96-3.62-2.3-3.28-4.97.09-1.07.34-2.1.51-3.13.07-.51.19-1.05-.11-1.4-1.07-1.1-2.68-1.87-3.22-3.46-.85-2.07.19-4.21.3-6.3.21-2-.04-4.49-.52-6.14-2-1.59-4.49-4.92-1.62-6.92,8.14-3.71,16.62,2.22,22.78,7.19,10.64,9.04,19.26,20.2,27.06,31.73h0Z"/>
  </g>
  <path d="M54.56,35.91c7.72,2.21,9.21,14.61,9.73,21.45.09,8.27.07,16.55-.18,24.82,0,.03-.05.03-.05,0-.25-8.27-.26-16.54-.18-24.82-.45-6.97-1.76-18.95-9.33-21.46h0Z"/>
  <g>
    <path class="cls-1" d="M40.99,60.74s5.63-7.68,14.67-3.17c1.41.7,1.6,2.71.31,3.61-2.48,1.73-7.25,3.33-14.98-.44Z"/>
    <path d="M40.97,60.75c2.79-3.66,7.76-5.66,12.24-4.28,1.4.48,3.35.8,3.77,2.49.51,1.79-1.33,2.87-2.73,3.45-4.36,1.86-9.31.52-13.28-1.66h0ZM41.02,60.74c4.07,1.71,8.8,2.98,13.04,1.21,1.23-.53,2.92-1.29,2.53-2.91-.34-1.48-2.22-1.81-3.47-2.26-4.36-1.43-9.26.47-12.1,3.96h0Z"/>
  </g>
  <g>
    <path class="cls-1" d="M64.09,57.33s31.16-48.11,49.75-38.81c0,0,3.69,2.19-1.64,6.7,0,0-1.37,3.69-.14,9.02,1.23,5.33-3.42,5.88-3.55,7.38s1.64,5.6-.27,7.52c-1.91,1.91-8.47,3.14-10.39,6.42-1.91,3.28-5.74,5.6-10.66,5.19,0,0,10.66,3.28,12.98,12.16,0,0,5.71,6.28,4.37,10.52-1.58,5.03-5.47,3.96-5.47,3.96,0,0,2.32,3.96.82,5.33-1.5,1.37-5.6,0-5.6,0,0,0,1.64,4.65-1.23,4.78s-4.24-2.46-4.24-2.46c0,0,.41,5.33-2.87,5.06s-5.84-3.78-5.84-3.78c0,0-12.61-.07-16.03-30.53h0v-8.47Z"/>
    <path d="M64.07,57.32c7.79-11.53,16.42-22.68,27.06-31.73,6.16-4.98,14.65-10.9,22.78-7.19,2.87,2.02.38,5.32-1.62,6.92-.49,1.66-.73,4.14-.52,6.14.11,2.09,1.16,4.23.3,6.3-.55,1.59-2.15,2.35-3.22,3.45-.29.35-.18.89-.11,1.4.18,1.03.42,2.07.51,3.13.32,2.68-.95,3.99-3.28,4.97-1.9.89-3.89,1.62-5.67,2.75-.87.56-1.69,1.22-2.23,2.08-1.06,1.85-2.71,3.39-4.65,4.31-1.94.94-4.13,1.27-6.26,1.1l.08-.4c1.49.5,2.89,1.16,4.25,1.91,4.07,2.26,7.65,5.79,8.88,10.39,2.14,2.53,5.51,6.91,4.29,10.88-.69,2.42-3,4.52-5.66,3.88,0,0,.26-.34.26-.34.48.86.88,1.75,1.15,2.7,1.33,4.39-3.46,3.88-6.21,2.98,0,0,.31-.31.31-.31.4,1.34.79,2.85.15,4.2-1.53,2.16-5.12.22-6.06-1.68,0,0,.46-.13.46-.13.39,7.73-5.7,5.86-9.11,1.42-5.57-.49-9.94-7.48-11.98-12.79-2.17-5.62-3.26-11.87-3.96-17.85,0-.04.02-.08.06-.08.04-.01-.07.07-.06.07,0,0,.05-8.48.05-8.48h0ZM64.12,57.34l.05,8.47s-.03.07-.07.07l.07-.08c.79,5.95,1.9,12.16,4.09,17.76,2.24,5.4,5.82,11.62,12.03,12.66,3.09,3.92,8.71,6.18,8.3-1.14-.02-.27.34-.34.46-.13.43.73,1.07,1.38,1.82,1.8.99.53,2.67.95,3.38-.14.54-1.17.18-2.59-.18-3.79-.04-.13.03-.27.15-.31,2.33.57,7,1.7,5.75-2.4-.25-.89-.64-1.77-1.1-2.59-.1-.17.07-.39.26-.34,3.22.75,5.75-2.89,5.33-5.85-.46-3.17-2.53-5.92-4.5-8.35-1.64-6.01-7.19-10.04-12.83-12.02-.23-.06-.16-.42.08-.4,4.15.41,8.48-1.5,10.56-5.2,1.8-2.64,5.33-3.63,8.07-4.95.93-.45,1.92-.91,2.53-1.69,1.15-1.78.35-4.07.06-6.03-.07-.54-.22-1.17.17-1.65,1.08-1.15,2.64-1.82,3.19-3.38.83-1.95-.22-4.05-.31-6.16-.17-2.12-.06-4.27.59-6.32,7.06-6.08-.32-8.61-6.36-7.38-2.72.56-5.27,1.73-7.67,3.12-4.79,2.84-9.01,6.55-12.96,10.46-7.86,7.89-14.75,16.75-20.96,25.97h0Z"/>
  </g>
  <path d="M73.63,35.96c-7.59,2.3-8.91,14.65-9.34,21.41.09,8.27.07,16.54-.17,24.82,0,.03-.05.03-.05,0-.25-8.27-.26-16.55-.18-24.82.47-6.72,2.13-19.53,9.74-21.4h0Z"/>
  <g>
    <path class="cls-1" d="M87.19,60.74s-5.63-7.68-14.67-3.17c-1.41.7-1.6,2.71-.31,3.61,2.48,1.73,7.25,3.33,14.98-.44Z"/>
    <path d="M87.16,60.74c-2.84-3.48-7.74-5.39-12.1-3.96-1.25.45-3.12.79-3.47,2.26-.39,1.62,1.3,2.38,2.53,2.91,4.24,1.77,8.97.5,13.04-1.21h0ZM87.21,60.75c-3.97,2.17-8.92,3.51-13.28,1.66-1.39-.58-3.24-1.66-2.73-3.45.42-1.69,2.37-2.01,3.77-2.49,4.48-1.38,9.45.62,12.24,4.28h0Z"/>
  </g>
  <g>
    <circle class="cls-1" cx="64.09" cy="94.76" r="2.08"/>
    <path d="M66.2,94.76c-.1,2.89-4.23,2.93-4.39,0,.02-3.06,4.4-3.08,4.39,0h0ZM66.15,94.76c-.1-2.41-3.83-2.42-3.94,0,0,2.57,3.9,2.59,3.94,0h0Z"/>
  </g>
  <g>
    <circle class="cls-1" cx="64.09" cy="108.78" r="2.08"/>
    <path d="M66.2,108.78c-.1,2.89-4.23,2.93-4.39,0,.02-3.06,4.4-3.08,4.39,0h0ZM66.15,108.78c-.1-2.41-3.83-2.42-3.94,0,0,2.57,3.9,2.59,3.94,0h0Z"/>
  </g>
</svg>