<?xml version="1.0" encoding="UTF-8"?>
<svg id="Layer_1" data-name="Layer 1" xmlns="http://www.w3.org/2000/svg" viewBox="0 0 128.18 128.18">
  <defs>
    <style>
      .cls-1 {
        fill: #fff0f0;
      }

      .cls-1, .cls-2 {
        stroke: #000;
        stroke-linecap: round;
        stroke-linejoin: round;
        stroke-width: .5px;
      }

      .cls-2 {
        fill: none;
      }
    </style>
  </defs>
  <path class="cls-1" d="M64.09,57.33S32.93,9.22,14.34,18.51c0,0-3.69,2.19,1.64,6.7,0,0,1.37,3.69.14,9.02s3.42,5.88,3.55,7.38-1.64,5.6.27,7.52,8.47,3.14,10.39,6.42,5.74,5.6,10.66,5.19c0,0-10.66,3.28-12.98,12.16,0,0-5.71,6.28-4.37,10.52,1.58,5.03,5.47,3.96,5.47,3.96,0,0-2.32,3.96-.82,5.33s5.6,0,5.6,0c0,0-1.64,4.65,1.23,4.78,2.87.14,4.24-2.46,4.24-2.46,0,0-.41,5.33,2.87,5.06s5.84-3.78,5.84-3.78c0,0,12.61-.07,16.03-30.53h0v-8.47Z"/>
  <path class="cls-2" d="M54.56,35.94c8.97,2.14,9.53,21.39,9.53,21.39v24.86"/>
  <path class="cls-1" d="M40.99,60.74s5.63-7.68,14.67-3.17c1.41.7,1.6,2.71.31,3.61-2.48,1.73-7.25,3.33-14.98-.44Z"/>
  <path class="cls-1" d="M64.09,57.33s31.16-48.11,49.75-38.81c0,0,3.69,2.19-1.64,6.7,0,0-1.37,3.69-.14,9.02s-3.42,5.88-3.55,7.38,1.64,5.6-.27,7.52-8.47,3.14-10.39,6.42-5.74,5.6-10.66,5.19c0,0,10.66,3.28,12.98,12.16,0,0,5.71,6.28,4.37,10.52-1.58,5.03-5.47,3.96-5.47,3.96,0,0,2.32,3.96.82,5.33s-5.6,0-5.6,0c0,0,1.64,4.65-1.23,4.78-2.87.14-4.24-2.46-4.24-2.46,0,0,.41,5.33-2.87,5.06s-5.84-3.78-5.84-3.78c0,0-12.61-.07-16.03-30.53h0v-8.47Z"/>
  <path class="cls-2" d="M73.63,35.94c-8.97,2.14-9.53,21.39-9.53,21.39v24.86"/>
  <path class="cls-1" d="M87.19,60.74s-5.63-7.68-14.67-3.17c-1.41.7-1.6,2.71-.31,3.61,2.48,1.73,7.25,3.33,14.98-.44Z"/>
  <circle class="cls-1" cx="64.09" cy="94.76" r="2.08"/>
  <circle class="cls-1" cx="64.09" cy="108.78" r="2.08"/>
</svg>