<?xml version="1.0" encoding="UTF-8"?>
<svg id="Layer_1" data-name="Layer 1" xmlns="http://www.w3.org/2000/svg" viewBox="0 0 128.18 128.18">
  <defs>
    <style>
      .cls-1 {
        fill: #fff0f0;
      }

      .cls-1, .cls-2 {
        stroke: #000;
        stroke-linecap: round;
        stroke-linejoin: round;
        stroke-width: .5px;
      }

      .cls-2 {
        fill: none;
      }
    </style>
  </defs>
  <path class="cls-1" d="M58.96,74.73s-14.99-38.09,1.09-49.49c0,0,2.03,5.93,6.24,12.64s4.53,10.3,4.53,10.3c0,0,12.33-21.23,19.2-21.23,0,0,2.34,4.21,0,16.55,0,0,.94,5.93,4.21,10.62,3.28,4.68,2.5,11.55,0,12.96,0,0,16.39,3.75,11.24,14.05,0,0-.31,4.53.16,6.4s-4.2,10.47-11.4,10.62c-3.25.07-7.45-1.66-11.25-3.69-5.04-2.7-9.65-6.13-13.8-10.06l-10.23-9.67Z"/>
  <path class="cls-1" d="M70.82,48.2s-8.03,13.78-6.24,24.86c.39,2.41,3.61,3.03,4.89.95,2.7-4.38,5.67-14.49,1.35-25.81Z"/>
  <path class="cls-1" d="M94.24,67.08s-14.39,2.3-22.65,10.42c-.86.85,0,2.3,1.16,1.98,4.15-1.16,13.06-5.1,21.49-12.4Z"/>
  <path class="cls-1" d="M58.96,74.73s4.74,13.32,9.71,18.8c1.21,1.33,3.38.15,2.96-1.59-.71-2.94-4.52-9.93-12.66-17.21Z"/>
  <path class="cls-2" d="M58.96,74.73s-6.6-5.82-13.3-4.7"/>
  <circle class="cls-1" cx="83.49" cy="15.45" r="2.72"/>
  <line class="cls-1" x1="38.17" y1="81.55" x2="38.17" y2="92.1"/>
  <line class="cls-1" x1="38.17" y1="104.9" x2="38.17" y2="115.45"/>
  <line class="cls-1" x1="54.63" y1="98.01" x2="44.08" y2="98.01"/>
  <line class="cls-1" x1="32.26" y1="98.01" x2="21.71" y2="98.01"/>
  <line class="cls-1" x1="46.42" y1="90.24" x2="41.29" y2="95.38"/>
  <line class="cls-1" x1="35.05" y1="101.62" x2="29.91" y2="106.76"/>
  <line class="cls-1" x1="46.42" y1="106.28" x2="41.29" y2="101.14"/>
  <line class="cls-1" x1="35.53" y1="95.38" x2="30.39" y2="90.24"/>
</svg>