<?xml version="1.0" encoding="UTF-8"?>
<svg id="Layer_1" data-name="Layer 1" xmlns="http://www.w3.org/2000/svg" viewBox="0 0 128.18 128.18">
  <defs>
    <style>
      .cls-1 {
        fill: #fff0f0;
      }

      .cls-1, .cls-2 {
        stroke: #000;
        stroke-linecap: round;
        stroke-linejoin: round;
        stroke-width: .5px;
      }

      .cls-2 {
        fill: none;
      }
    </style>
  </defs>
  <g>
    <path class="cls-1" d="M64.09,58.68S26.93,19.17,11.72,26.53c0,0,9.88,12.25,10.03,15.61.16,3.36-.78,14.96,5.49,16.53s30.26,4.98,30.26,4.98c0,0-24.46,3.02-21.48,11.01,0,0,3.76,3.45,4.08,9.88.31,6.43.62,11.22,6.27,11.76,7.41.7,17.64-33.05,17.64-33.05l.08-4.58Z"/>
    <path class="cls-1" d="M64.09,65.27S23.49,26.12,6.87,33.42c0,0,10.79,12.14,10.96,15.47.17,3.33-.86,14.82,6,16.38,6.85,1.55,33.67-1.61,33.67-1.61,0,0-27.34,9.53-24.08,17.46,0,0,4.11,3.42,4.45,9.79.34,6.37.67,11.12,6.85,11.65,8.1.7,19.28-32.74,19.28-32.74l.08-4.54Z"/>
    <path class="cls-2" d="M64.05,58.68s1.44-24.41-12.56-21.72"/>
    <path class="cls-1" d="M64.09,58.68s37.16-39.51,52.37-32.14c0,0-9.88,12.25-10.03,15.61-.16,3.36.78,14.96-5.49,16.53s-30.26,4.98-30.26,4.98c0,0,24.46,3.02,21.48,11.01,0,0-3.76,3.45-4.08,9.88-.31,6.43-.62,11.22-6.27,11.76-7.41.7-17.64-33.05-17.64-33.05l-.08-4.58Z"/>
    <path class="cls-1" d="M64.09,65.27s40.6-39.15,57.22-31.85c0,0-10.79,12.14-10.96,15.47-.17,3.33.86,14.82-6,16.38-6.85,1.55-33.67-1.61-33.67-1.61,0,0,27.34,9.53,24.08,17.46,0,0-4.11,3.42-4.45,9.79-.34,6.37-.67,11.12-6.85,11.65-8.1.7-19.28-32.74-19.28-32.74l-.08-4.54Z"/>
    <path class="cls-2" d="M64.13,58.68s-1.44-24.41,12.56-21.72"/>
    <line class="cls-1" x1="64.09" y1="59.08" x2="64.09" y2="78.94"/>
  </g>
  <polygon class="cls-1" points="85.55 12.21 87.1 20.81 95.71 22.36 87.1 23.91 85.55 32.52 84 23.91 75.4 22.36 84 20.81 85.55 12.21"/>
</svg>