<?xml version="1.0" encoding="UTF-8"?>
<svg id="Layer_1" data-name="Layer 1" xmlns="http://www.w3.org/2000/svg" viewBox="0 0 282.68 128.18">
  <defs>
    <style>
      .cls-1 {
        fill: #fff;
      }
    </style>
  </defs>
  <rect class="cls-1" x="4.44" y="92.32" width="273.51" height="17.97" rx="8.99" ry="8.99"/>
  <g>
    <path class="cls-1" d="M74.87,102.67c0-4.3,2.6-7.78,5.81-7.78,2.24,0,4.19,1.7,5.16,4.2"/>
    <path class="cls-1" d="M83.91,95.82c1.98-3.68,5.52-6.14,9.56-6.14,6.21,0,11.25,5.81,11.25,12.98"/>
    <path class="cls-1" d="M59.86,88.58c-1.47-2.64-4.28-4.43-7.52-4.43-4.74,0-8.59,3.85-8.59,8.59v5.05h195.4l-.21-6.77-18.8-2.26-9.19-14.17-19.5.7-12.8,8.81-9.58-9.51-7.34-2.4-8.85-1.11-12.16-15.64-12.52-1.87-13.47,12.15-7.87,8.51-12.55-5.41-6.34,1.08-7.62,4.62-19.03,6.88-1.47,7.16Z"/>
    <path class="cls-1" d="M88.92,75.26c-2.81-5.06-8.21-8.48-14.4-8.48-9.09,0-16.46,7.37-16.46,16.46v3.09"/>
    <path class="cls-1" d="M85.48,70.96c2.44-3.88,6.47-6.28,11.16-6.28,5.11,0,9.57,3.04,11.88,7.52v7.55"/>
    <path class="cls-1" d="M83.04,82.69c0-3.97,2.86-7.19,6.39-7.19s6.39,3.22,6.39,7.19"/>
    <path class="cls-1" d="M133.16,51.81c-21.19,0-24.64,20.39-24.64,20.39"/>
    <path class="cls-1" d="M133.48,51.81c21.19,0,24.64,20.39,24.64,20.39v4.72"/>
    <path class="cls-1" d="M158.19,71.82c2.06-2.81,5.78-4.68,10.02-4.68,6.49,0,11.75,4.37,11.75,9.77v8.62"/>
    <path class="cls-1" d="M179.96,85.54c0-8.95,8.99-16.21,20.09-16.21s20.09,7.26,20.09,16.21v5.61"/>
    <path class="cls-1" d="M220.14,91.03c0-3.82,4.21-6.91,9.4-6.91s9.4,3.1,9.4,6.91v2.4h21.04"/>
    <path class="cls-1" d="M135.88,89.05c0-2.67,2.17-4.84,4.84-4.84s4.84,2.17,4.84,4.84"/>
    <path class="cls-1" d="M162.47,91.2c1.11-1.5,2.98-2.49,5.11-2.49,3.4,0,6.16,2.53,6.16,5.65h14.2"/>
    <path class="cls-1" d="M141.71,84.3c1.78-4.65,6.28-7.96,11.56-7.96,6.83,0,12.37,5.54,12.37,12.37"/>
    <circle class="cls-1" cx="200.35" cy="94.59" r="2.75"/>
    <circle class="cls-1" cx="184.34" cy="59.26" r="2.75"/>
    <circle class="cls-1" cx="105.26" cy="56.82" r="2.75"/>
    <path class="cls-1" d="M136.37,59.26s13.27.89,13.27,12.95"/>
    <path class="cls-1" d="M209.94,78.39c2.16,2.01,4.09,5.05,4.6,9.61"/>
    <path class="cls-1" d="M202.63,74.61s1.74.28,3.9,1.4"/>
  </g>
  <polygon class="cls-1" points="54.92 89.05 61.06 82.69 69.19 83.39 61.35 92.32 54.92 89.05"/>
  <polygon class="cls-1" points="127.1 54.07 134.4 57.82 140.72 55.94 133.16 51.81 127.1 54.07"/>
  <g>
    <path d="M264.44,92.59c2.52-.03,5.15-.53,7.61.03-2.43.48-5.28.15-7.61-.03h0Z"/>
    <path d="M35.92,109.46c56.62-.04,139.84-.45,195.69,0,.03,0,.03.05,0,.05-55.51.4-139.59.14-195.69-.05h0Z"/>
    <path d="M5.44,101.84c15.53-.04,37.31-.46,52.61,0,.03,0,.03.05,0,.05-15.16.41-37.38.14-52.61-.05h0Z"/>
    <path d="M104.71,101.84c30.01-.04,74.13-.45,103.73,0,.03,0,.03.05,0,.05-29.4.4-74.09.14-103.73-.05h0Z"/>
    <path d="M29.3,92.29c4.26,0,10.31-.53,14.47.03-2.38.33-4.84.26-7.25.2,0-.05-7.38-.09-7.22-.23h0Z"/>
    <path d="M215.77,101.84c1.86-.03,3.85-.53,5.64.03-1.67.47-4.04.15-5.64-.03h0Z"/>
    <path d="M225.99,101.84c15.13-.04,36.35-.46,51.25,0,.03,0,.03.05,0,.05-14.77.41-36.42.14-51.25-.05h0Z"/>
    <path d="M63.65,101.84c3.69-.03,7.47-.53,11.11.03-3.61.49-7.62.15-11.11-.03h0Z"/>
    <path d="M74.85,101.86c-.36-7.44,8.03-11.82,11.02-3.59,0,.03-.03.04-.05.02-3.88-7.43-10.71-3.37-10.97,3.57h0Z"/>
    <path d="M83.89,95c4.02-7.99,14.5-8.42,19.04-.66,1.29,2.27,1.99,4.97,1.79,7.54-.22-2.53-.84-5.1-2.22-7.28-4.64-7.72-14.31-7.14-18.61.4h0Z"/>
    <path d="M59.84,87.78c-4.48-7.51-15.5-4.37-16.06,4.15,0,.03-.05.03-.05,0-.44-9.19,12.18-12.01,16.11-4.15h0Z"/>
    <path d="M88.89,74.46c-6.18-11.01-22.26-11.05-28.46-.06-2.12,3.33-2.31,7.33-2.39,11.14-.35-3.84-.03-7.94,1.95-11.39,6.28-11.24,23.07-10.99,28.89.31h0Z"/>
    <path d="M85.46,70.14c5.39-9.09,18.7-8.25,23.27,1.15.02,2.54-.04,5.16-.2,7.68-.14-2.31-.23-5.53-.2-7.47-4.82-9.29-17.17-10-22.86-1.36h0Z"/>
    <path d="M83.02,81.89c-.26-6.12,6.96-10.18,11.25-5.09,1.13,1.43,1.78,3.36,1.55,5.11-.2-1.75-.77-3.5-1.94-4.79-4.37-4.91-10.67-.98-10.87,4.77h0Z"/>
    <path d="M108.5,71.39c2.5-12.17,11.91-21.01,24.66-20.41.03,0,.03.05,0,.05l-2.16.22c-11.66.85-19.87,9.16-22.5,20.14h0Z"/>
    <path d="M133.48,50.98c1.3.12,3.09.05,4.35.29,4.3.6,8.57,2.29,11.86,5.17,4.49,3.77,7.5,9.18,8.6,14.92-.05,1.58-.04,3.22-.17,4.77-.12-1.5-.12-3.3-.17-4.71-1.35-5.55-4.15-10.92-8.5-14.7-3.77-3.35-8.81-5.22-13.8-5.54,0,0-2.17-.15-2.17-.15-.03,0-.03-.05,0-.05h0Z"/>
    <path d="M158.17,71c5.47-7.83,20.91-5.79,22,4.46,0,3.12-.01,6.24-.21,9.3-.23-3.05-.14-6.21-.29-9.26-1.24-10.11-15.9-11.79-21.5-4.5h0Z"/>
    <path d="M179.94,84.73c.12-11.31,12.83-17.55,22.94-16.23,7.71.71,15.95,5.83,17.21,13.98.34,2.28.13,5.59.05,7.88-.22-2.27.07-5.6-.37-7.83-1.48-7.88-9.39-12.79-16.94-13.64-10.1-1.42-22.53,4.75-22.89,15.83h0Z"/>
    <path d="M220.11,90.22c.69-9.65,19.22-9.29,19.04.63,0,0,.01,1.76.01,1.76l-.23-.23c6.93-.05,14.13,0,21.04.2-6.71.35-14.16.25-21.04.25-.13,0-.23-.1-.23-.23v-1.76c.14-9.71-17.76-9.83-18.6-.64h0Z"/>
    <path d="M135.86,88.24c-.2-4.36,5.44-6.76,8.47-3.6.87.91,1.54,2.51,1.22,3.6-.79-6.16-9.14-6.11-9.69,0h0Z"/>
    <path d="M162.45,90.38c3.18-4.6,11.41-2.65,11.49,3.18,0,0-.21-.21-.21-.21,4.73-.06,9.52-.12,14.22.21-4.71.32-9.49.27-14.22.21-.11,0-.2-.09-.21-.21-.13-5.79-7.84-7.31-11.08-3.18h0Z"/>
    <path d="M141.69,83.49c3.16-8.88,15.32-10.98,21.28-3.66,1.82,2.26,2.89,5.26,2.67,8.1-.22-2.83-1.19-5.64-3.06-7.78-6.1-7.24-17.37-5.17-20.89,3.34h0Z"/>
    <path d="M203.13,93.79c-.12,3.79-5.57,3.78-5.73,0,.04-3.94,5.72-3.96,5.73,0h0ZM203.08,93.79c-.15-3.3-5.13-3.31-5.28,0,.03,3.47,5.22,3.47,5.28,0h0Z"/>
    <path d="M187.12,58.45c-.12,3.79-5.57,3.78-5.73,0,.04-3.94,5.72-3.96,5.73,0h0ZM187.07,58.45c-.15-3.3-5.13-3.31-5.28,0,.03,3.47,5.22,3.47,5.28,0h0Z"/>
    <path d="M108.03,56.01c-.12,3.79-5.57,3.78-5.73,0,.04-3.94,5.72-3.96,5.73,0h0ZM107.98,56.01c-.15-3.3-5.13-3.31-5.28,0,.03,3.47,5.22,3.47,5.28,0h0Z"/>
    <path d="M136.37,58.42c6.99.48,14,5.28,13.29,12.97,0,.03-.05.03-.05,0-.46-7.77-6.1-11.92-13.24-12.97h0Z"/>
    <path d="M209.96,77.57c2.69,2.37,4.78,6,4.58,9.65-.89-3.58-2.03-7.02-4.58-9.65h0Z"/>
    <path d="M202.63,73.77c1.29.21,3.11.36,3.88,1.44-.72-.07-1.33-.34-1.96-.67-.63-.27-1.27-.53-1.93-.73-.03,0-.02-.05,0-.05h0Z"/>
  </g>
</svg>