<?xml version="1.0" encoding="UTF-8"?>
<svg id="Layer_1" data-name="Layer 1" xmlns="http://www.w3.org/2000/svg" viewBox="0 0 282.68 128.18">
  <defs>
    <style>
      .cls-1 {
        fill: #fff;
      }

      .cls-2 {
        fill: none;
        stroke: #000;
        stroke-linecap: round;
        stroke-linejoin: round;
        stroke-width: .5px;
      }
    </style>
  </defs>
  <rect class="cls-1" x="4.44" y="91.77" width="273.51" height="17.97" rx="8.99" ry="8.99"/>
  <g>
    <path class="cls-1" d="M74.87,102.13c0-4.3,2.6-7.78,5.81-7.78,2.24,0,4.19,1.7,5.16,4.2"/>
    <path class="cls-1" d="M83.91,95.28c1.98-3.68,5.52-6.14,9.56-6.14,6.21,0,11.25,5.81,11.25,12.98"/>
    <path class="cls-1" d="M59.86,88.04c-1.47-2.64-4.28-4.43-7.52-4.43-4.74,0-8.59,3.85-8.59,8.59v5.05h195.4l-.21-6.77-18.8-2.26-9.19-14.17-19.5.7-12.8,8.81-9.58-9.51-7.34-2.4-8.85-1.11-12.16-15.64-12.52-1.87-13.47,12.15-7.87,8.51-12.55-5.41-6.34,1.08-7.62,4.62-19.03,6.88-1.47,7.16Z"/>
    <path class="cls-1" d="M88.92,74.71c-2.81-5.06-8.21-8.48-14.4-8.48-9.09,0-16.46,7.37-16.46,16.46v3.09"/>
    <path class="cls-1" d="M85.48,70.41c2.44-3.88,6.47-6.28,11.16-6.28,5.11,0,9.57,3.04,11.88,7.52v7.55"/>
    <path class="cls-1" d="M83.04,82.15c0-3.97,2.86-7.19,6.39-7.19s6.39,3.22,6.39,7.19"/>
    <path class="cls-1" d="M133.16,51.27c-21.19,0-24.64,20.39-24.64,20.39"/>
    <path class="cls-1" d="M133.48,51.27c21.19,0,24.64,20.39,24.64,20.39v4.72"/>
    <path class="cls-1" d="M158.19,71.28c2.06-2.81,5.78-4.68,10.02-4.68,6.49,0,11.75,4.37,11.75,9.77v8.62"/>
    <path class="cls-1" d="M179.96,85c0-8.95,8.99-16.21,20.09-16.21s20.09,7.26,20.09,16.21v5.61"/>
    <path class="cls-1" d="M220.14,90.49c0-3.82,4.21-6.91,9.4-6.91s9.4,3.1,9.4,6.91v2.4h21.04"/>
    <path class="cls-1" d="M135.88,88.5c0-2.67,2.17-4.84,4.84-4.84s4.84,2.17,4.84,4.84"/>
    <path class="cls-1" d="M162.47,90.66c1.11-1.5,2.98-2.49,5.11-2.49,3.4,0,6.16,2.53,6.16,5.65h14.2"/>
    <path class="cls-1" d="M141.71,83.76c1.78-4.65,6.28-7.96,11.56-7.96,6.83,0,12.37,5.54,12.37,12.37"/>
    <circle class="cls-1" cx="200.35" cy="94.05" r="2.75"/>
    <circle class="cls-1" cx="184.34" cy="58.71" r="2.75"/>
    <circle class="cls-1" cx="105.26" cy="56.28" r="2.75"/>
    <path class="cls-1" d="M136.37,58.71s13.27.89,13.27,12.95"/>
    <path class="cls-1" d="M209.94,77.85c2.16,2.01,4.09,5.05,4.6,9.61"/>
    <path class="cls-1" d="M202.63,74.06s1.74.28,3.9,1.4"/>
  </g>
  <polygon class="cls-1" points="54.92 88.5 61.06 82.15 69.19 82.85 61.35 91.77 54.92 88.5"/>
  <polygon class="cls-1" points="127.1 53.52 134.4 57.27 140.72 55.4 133.16 51.27 127.1 53.52"/>
  <g>
    <line class="cls-2" x1="264.44" y1="92.08" x2="272.03" y2="92.08"/>
    <line class="cls-2" x1="35.92" y1="108.94" x2="231.61" y2="108.94"/>
    <line class="cls-2" x1="5.44" y1="101.32" x2="58.05" y2="101.32"/>
    <line class="cls-2" x1="104.71" y1="101.32" x2="208.45" y2="101.32"/>
    <line class="cls-2" x1="29.3" y1="91.77" x2="43.75" y2="91.77"/>
    <line class="cls-2" x1="215.77" y1="101.32" x2="221.39" y2="101.32"/>
    <line class="cls-2" x1="225.99" y1="101.32" x2="277.24" y2="101.32"/>
    <line class="cls-2" x1="63.65" y1="101.32" x2="74.74" y2="101.32"/>
    <path class="cls-2" d="M74.87,101.32c0-4.3,2.6-7.78,5.81-7.78,2.24,0,4.19,1.7,5.16,4.2"/>
    <path class="cls-2" d="M83.91,94.47c1.98-3.68,5.52-6.14,9.56-6.14,6.21,0,11.25,5.81,11.25,12.98"/>
    <path class="cls-2" d="M59.86,87.23c-1.47-2.64-4.28-4.43-7.52-4.43-4.74,0-8.59,3.85-8.59,8.59h0"/>
    <path class="cls-2" d="M88.92,73.91c-2.81-5.06-8.21-8.48-14.4-8.48-9.09,0-16.46,7.37-16.46,16.46v3.09"/>
    <path class="cls-2" d="M85.48,69.61c2.44-3.88,6.47-6.28,11.16-6.28,5.11,0,9.57,3.04,11.88,7.52v7.55"/>
    <path class="cls-2" d="M83.04,81.35c0-3.97,2.86-7.19,6.39-7.19s6.39,3.22,6.39,7.19"/>
    <path class="cls-2" d="M108.52,70.85s3.45-20.39,24.64-20.39"/>
    <path class="cls-2" d="M133.48,50.46c21.19,0,24.64,20.39,24.64,20.39v4.72"/>
    <path class="cls-2" d="M158.19,70.48c2.06-2.81,5.78-4.68,10.02-4.68,6.49,0,11.75,4.37,11.75,9.77v8.62"/>
    <path class="cls-2" d="M179.96,84.19c0-8.95,8.99-16.21,20.09-16.21s20.09,7.26,20.09,16.21v5.61"/>
    <path class="cls-2" d="M220.14,89.68c0-3.82,4.21-6.91,9.4-6.91s9.4,3.1,9.4,6.91v2.4h21.04"/>
    <path class="cls-2" d="M135.88,87.7c0-2.67,2.17-4.84,4.84-4.84s4.84,2.17,4.84,4.84"/>
    <path class="cls-2" d="M162.47,89.86c1.11-1.5,2.98-2.49,5.11-2.49,3.4,0,6.16,2.53,6.16,5.65h14.2"/>
    <path class="cls-2" d="M141.71,82.96c1.78-4.65,6.28-7.96,11.56-7.96,6.83,0,12.37,5.54,12.37,12.37"/>
    <circle class="cls-2" cx="200.35" cy="93.25" r="2.75"/>
    <circle class="cls-2" cx="184.34" cy="57.91" r="2.75"/>
    <circle class="cls-2" cx="105.26" cy="55.47" r="2.75"/>
    <path class="cls-2" d="M136.37,57.91s13.27.89,13.27,12.95"/>
    <path class="cls-2" d="M209.94,77.05c2.16,2.01,4.09,5.05,4.6,9.61"/>
    <path class="cls-2" d="M202.63,73.26s1.74.28,3.9,1.4"/>
  </g>
</svg>