<?xml version="1.0" encoding="UTF-8"?>
<svg id="Layer_1" data-name="Layer 1" xmlns="http://www.w3.org/2000/svg" viewBox="0 0 282.68 128.18">
  <defs>
    <style>
      .cls-1 {
        fill: #fff;
      }
    </style>
  </defs>
  <rect class="cls-1" x="3.99" y="97.31" width="270.96" height="12.98" rx="6.43" ry="6.43"/>
  <g>
    <path class="cls-1" d="M128.18,89.29c0-1.53-.21-6.74-6.09-6.74s-6.05,6.69-6.05,6.69l12.13.04Z"/>
    <path class="cls-1" d="M168.19,89.29c.66-3.54.67-7.03.43-10.02-.62-7.61-4.45-14.7-10.75-19.03-4.04-2.77-9.59-5.06-17.01-5.29-19.8-.61-26.12,15.87-26.12,15.87l53.46,18.46Z"/>
    <path class="cls-1" d="M29.89,103.6h55.62s-.09-5.54,8.74-5.54l18.31,5.54"/>
    <path class="cls-1" d="M94.25,102.21s-1.79-9.6,9.28-9.6c2.91,0,9.62.9,9.03,10.99h14.91"/>
    <circle class="cls-1" cx="179.9" cy="67.38" r="3.59"/>
    <path class="cls-1" d="M230.03,97.38h-16.78c0-.63-.14-1.35-.36-2.09-1.58-5.36-6.47-9.18-12.06-9.24-.06,0-.12,0-.19,0-6.22,0-10.57,3.71-10.57,3.71l23.18,7.62-120.59.67h-43.34l14.58-6.73,21.83-2.26,35.01-7.22c-1.62-15.07-17.95-14.8-17.95-14.8-20.12.45-17.05,22.02-17.05,22.02-.72-3.52-3.07-8.93-12.63-8.12-9.56.81-9.2,10.38-9.2,10.38-12.27-5.86-14.58,6.73-14.58,6.73h-26.34"/>
    <path class="cls-1" d="M169.38,81.75l20.58,13.4c.15-2.2.2-3.74.1-5.4-.33-5.71-4.88-10.32-10.59-10.72-.08,0-.17-.01-.25-.02-8.38-.53-10.47,3.54-10.47,3.54"/>
    <polygon class="cls-1" points="213.25 97.38 161.51 78.97 120.74 69.4 104.47 74.36 85.73 89.07 66.5 87.06 63.9 91.32 51.28 95.16 49.32 98.05 213.25 97.38"/>
    <polygon class="cls-1" points="85.51 103.6 112.55 103.6 101.53 91.02 89.7 102.02 85.51 103.6"/>
  </g>
  <g>
    <path d="M8.17,98.03c2.99-.03,6.08-.53,9.01.03-2.9.48-6.21.15-9.01-.03h0Z"/>
    <path d="M120.71,81.86c-.53-4.79-3.01-9.35-7.27-11.78-7.99-4.83-20.58-3.88-25.25,5.04-2.24,4.22-2.78,9.22-2.29,13.92.01.1-.06.19-.15.2-.09.01-.18-.05-.2-.14-.51-2.57-1.84-5.07-4.14-6.45-4.23-2.41-11.23-2.3-14.69,1.42-1.77,1.93-2.55,4.65-2.58,7.23,0,.14-.12.25-.26.25-.03,0-.07,0-.1-.02l-2.19-.89-1.14-.29c-5.53-1.65-9.86,2.52-10.93,7.72-.02.1-.11.17-.21.17-8.73-.1-17.76.02-26.34-.23,8.78-.11,17.56-.13,26.34-.19l-.21.17c.34-1.6.96-3.11,1.83-4.5,1.9-3.27,6.04-4.73,9.62-3.64,0,0,1.18.3,1.18.3l2.25.91-.36.23c.05-8.3,6.58-11.76,14.17-10.44,4.18.59,7.45,4,8.09,8.14,0,0-.35.06-.35.06-.27-2.42-.2-4.84.16-7.24.68-4.75,2.93-9.55,7.09-12.18,10.32-6.47,27.22-.91,27.9,12.18h0Z"/>
    <path d="M116.02,89.25c.04-1.7.48-3.45,1.56-4.83,2.17-2.76,7.15-2.8,9.37-.09,1.08,1.43,1.45,3.34,1.22,4.99-.2-1.66-.52-3.43-1.61-4.67-2.11-2.45-6.68-2.61-8.79-.07-1.14,1.24-1.53,3.18-1.75,4.67h0Z"/>
    <path d="M114.71,70.83c2.8-6.35,8.12-11.6,14.63-14.11,12.87-4.85,29.94-.53,36.51,12.2,3.26,6.21,3.67,13.59,2.36,20.38.84-6.64.63-14.11-2.8-20.15-6.49-12.52-23.24-16.91-35.98-12.2-6.51,2.36-11.84,7.79-14.72,13.88h0Z"/>
    <path d="M168.74,82.55c1.57-2.42,4.61-3.35,7.35-3.62,5.73-.81,11.85,2.05,13.65,7.81.85,2.73.59,5.69.23,8.45-.06-2.74.25-5.66-.7-8.29-1.79-5.59-7.52-8.41-13.15-7.72-2.74.13-5.78,1.22-7.37,3.37h0Z"/>
    <path d="M190.05,89.74c3.92-3.05,9.27-4.67,14.17-3.32,4.87,1.36,8.87,5.86,9.28,10.96,0,0-.25-.25-.25-.25,5.52,0,11.33,0,16.81.25-5.48.24-11.28.24-16.81.25-.14,0-.25-.11-.25-.25-.35-4.9-4.17-9.32-8.86-10.68-4.8-1.46-10.24.29-14.08,3.04h0Z"/>
    <path d="M234.21,97.36c1.92-.03,3.97-.53,5.81.03-1.74.47-4.15.15-5.81-.03h0Z"/>
    <path d="M242.56,97.36c6.39,0,15.41-.53,21.66.03-6.13.49-15.55.13-21.66-.03h0Z"/>
    <path d="M29.89,103.58c16.12-.04,39.72-.33,55.62-.17,0,0-.19.2-.19.2.23-3.74,4.21-5.47,7.5-5.55,0,0,1.44-.03,1.44-.03.01,0,.03.01.03.02,0,.01-.01.02-.03.03l-1.43.09c-3.11.23-6.96,1.87-7.12,5.43,0,.11-.09.19-.19.2-15.76.12-39.81-.04-55.62-.22h0Z"/>
    <path d="M94.22,102.22c-.73-4.17,1.45-8.33,5.72-9.32,3.83-.88,8.66-.61,11.11,2.92,1.62,2.25,1.86,5.12,1.75,7.8,0,0-.25-.26-.25-.26,4.97.02,10,.03,14.94.25-4.94.22-9.97.23-14.94.25-.14,0-.26-.12-.25-.26.26-3.8-.67-8.35-4.55-9.99-3.57-1.4-8.19-1.17-11.23,1.32-2.06,1.79-2.51,4.87-2.3,7.3h0Z"/>
    <path d="M133.27,103.58c1.71-.04,3.56-.53,5.2.03-1.4.46-3.83.16-5.2-.03h0Z"/>
    <path d="M149.34,103.58c36.22-.04,89.44-.45,125.17,0,.03,0,.03.05,0,.05-35.49.4-89.36.14-125.17-.05h0Z"/>
    <path d="M113.6,110.13c32.12-.04,79.33-.45,111.02,0,.03,0,.03.05,0,.05-31.47.4-79.28.14-111.02-.05h0Z"/>
    <path d="M145.53,61.99c1.5.22,3.05.48,4.4,1.22.4.28.96.72.97,1.25-1.48-1.29-3.68-1.83-5.37-2.47h0Z"/>
    <path d="M154.49,66.73c4.04,3.2,7.5,7.96,7.59,13.28,0,.03-.04.03-.05,0-.98-5.1-3.75-9.94-7.54-13.29h0Z"/>
    <path d="M183.51,67.38c-.18,4.9-7.18,4.89-7.4,0,.1-5.06,7.33-5.07,7.4,0h0ZM183.46,67.38c-.19-4.41-6.78-4.41-6.95,0,.06,4.57,6.86,4.57,6.95,0h0Z"/>
  </g>
</svg>