<?xml version="1.0" encoding="UTF-8"?>
<svg id="Layer_1" data-name="Layer 1" xmlns="http://www.w3.org/2000/svg" viewBox="0 0 282.68 128.18">
  <defs>
    <style>
      .cls-1 {
        fill: #fff;
      }

      .cls-2 {
        fill: none;
        stroke: #000;
        stroke-linecap: round;
        stroke-linejoin: round;
        stroke-width: .5px;
      }
    </style>
  </defs>
  <rect class="cls-1" x="4.11" y="102.5" width="274.52" height="7.79" rx="3.89" ry="3.89"/>
  <g>
    <path class="cls-1" d="M18.1,103.77s33.22.75,36.78,0,15.79-2.82,19.39-4.82c4.34-2.41,9.38-.07,9.38,4.63"/>
    <path class="cls-1" d="M74.28,98.95s-3.29-14.2,13.18-14.2c0,0,12.45-1.37,12.45,12.9,0,0,.27-4.83,5.27-4.83s5.81,3.47,5.81,7"/>
    <path class="cls-1" d="M138.3,87.31v-2.59c0-11.11-10.26-20.12-22.92-20.12s-22.92,9.01-22.92,20.12"/>
    <path class="cls-1" d="M129.02,100.32c.81-3.35,3.45-5.8,6.58-5.8,3.78,0,6.84,3.57,6.84,7.98v1.03"/>
    <path class="cls-1" d="M123.06,103.55c0-2.06,1.88-3.72,4.2-3.72s4.2,1.67,4.2,3.72"/>
    <path class="cls-1" d="M138.03,81.62c2.39-2.39,5.89-3.9,9.8-3.9,7.19,0,13.02,5.12,13.02,11.43v3.9"/>
    <path class="cls-1" d="M142.44,101.69s21.25,2.34,29.17-1.85v-2.92c0-4.72-4.36-8.55-9.74-8.55-.37,0-.73.02-1.08.05"/>
    <circle class="cls-1" cx="238.84" cy="100.99" r="2.51"/>
    <circle class="cls-1" cx="177.04" cy="85.38" r="2.51"/>
    <circle class="cls-1" cx="81.15" cy="72.85" r="2.51"/>
    <path class="cls-1" d="M116.25,70.34s3.28-.23,4.68.43"/>
    <path class="cls-1" d="M124.45,72.41s6.97,3.7,7.47,10.46"/>
    <path class="cls-1" d="M49.89,104.06h178.82v-1.71h-19.64l-6.02-3.32-6.71,1.13-24.73-.3s5.37-6.8,13.32-6.8,11.41,7.1,11.41,7.1c0,0,1.11-3.55,5.74-3.55s6.98,5.75,6.98,5.75h12.58"/>
    <polygon class="cls-1" points="54.89 103.77 69.43 102.35 78.63 96.05 86.38 87.9 98.45 82.87 126.54 81.39 152.81 82.87 167.78 97.43 171.61 99.85 188.24 97.73 196.34 100.15 202.08 96.6 206.71 99.83 209.07 102.35 207.33 103.77 54.89 103.77"/>
  </g>
  <g>
    <line class="cls-2" x1="5.47" y1="109.88" x2="91.96" y2="109.88"/>
    <line class="cls-2" x1="100.17" y1="109.88" x2="104.25" y2="109.88"/>
    <line class="cls-2" x1="255.27" y1="109.88" x2="259.36" y2="109.88"/>
    <line class="cls-2" x1="263.48" y1="109.88" x2="277.21" y2="109.88"/>
    <line class="cls-2" x1="109.76" y1="109.88" x2="186.01" y2="109.88"/>
    <line class="cls-2" x1="190.91" y1="109.88" x2="251.36" y2="109.88"/>
    <path class="cls-2" d="M17.34,102.5s31.94.33,42.52,0c3.64-.11,10.82-1.41,14.42-3.41,4.34-2.41,9.38-.07,9.38,4.63"/>
    <path class="cls-2" d="M74.28,99.09s-3.29-14.2,13.18-14.2c0,0,12.45-1.37,12.45,12.9,0,0,.27-4.83,5.27-4.83s5.81,3.47,5.81,7"/>
    <path class="cls-2" d="M92.45,84.86c0-11.11,10.26-20.12,22.92-20.12s22.92,9.01,22.92,20.12v2.59"/>
    <path class="cls-2" d="M129.02,100.46c.81-3.35,3.45-5.8,6.58-5.8,3.78,0,6.84,3.57,6.84,7.98v1.03"/>
    <path class="cls-2" d="M123.06,103.69c0-2.06,1.88-3.72,4.2-3.72s4.2,1.67,4.2,3.72"/>
    <path class="cls-2" d="M138.03,81.75c2.39-2.39,5.89-3.9,9.8-3.9,7.19,0,13.02,5.12,13.02,11.43v3.9"/>
    <path class="cls-2" d="M142.44,101.83s21.25,2.34,29.17-1.85v-2.92c0-4.72-4.36-8.55-9.74-8.55-.37,0-.73.02-1.08.05"/>
    <path class="cls-2" d="M171.61,99.98s5.37-6.8,13.32-6.8,11.41,7.1,11.41,7.1c0,0,1.11-3.55,5.74-3.55s6.98,5.75,6.98,5.75h12.58"/>
    <line class="cls-2" x1="224.42" y1="102.48" x2="228.7" y2="102.48"/>
    <circle class="cls-2" cx="238.84" cy="101.13" r="2.51"/>
    <circle class="cls-2" cx="177.04" cy="85.52" r="2.51"/>
    <circle class="cls-2" cx="81.15" cy="72.99" r="2.51"/>
    <path class="cls-2" d="M116.25,70.47s3.28-.23,4.68.43"/>
    <path class="cls-2" d="M124.45,72.54s6.97,3.7,7.47,10.46"/>
  </g>
</svg>