<?xml version="1.0" encoding="UTF-8"?>
<svg id="Layer_1" data-name="Layer 1" xmlns="http://www.w3.org/2000/svg" viewBox="0 0 282.68 128.18">
  <defs>
    <style>
      .cls-1 {
        fill: #fff;
      }

      .cls-2 {
        fill: none;
        stroke: #000;
        stroke-linecap: round;
        stroke-linejoin: round;
        stroke-width: .5px;
      }
    </style>
  </defs>
  <rect class="cls-1" x="3.99" y="96.9" width="270.96" height="12.98" rx="6.43" ry="6.43"/>
  <g>
    <path class="cls-1" d="M128.18,88.88c0-1.53-.21-6.74-6.09-6.74s-6.05,6.69-6.05,6.69l12.13.04Z"/>
    <path class="cls-1" d="M168.19,88.88c.66-3.54.67-7.03.43-10.02-.62-7.61-4.45-14.7-10.75-19.03-4.04-2.77-9.59-5.06-17.01-5.29-19.8-.61-26.12,15.87-26.12,15.87l53.46,18.46Z"/>
    <path class="cls-1" d="M29.89,103.19h55.62s-.09-5.54,8.74-5.54l18.31,5.54"/>
    <path class="cls-1" d="M94.25,101.81s-1.79-9.6,9.28-9.6c2.91,0,9.62.9,9.03,10.99h14.91"/>
    <circle class="cls-1" cx="179.9" cy="66.97" r="3.59"/>
    <path class="cls-1" d="M230.03,96.97h-16.78c0-.63-.14-1.35-.36-2.09-1.58-5.36-6.47-9.18-12.06-9.24-.06,0-.12,0-.19,0-6.22,0-10.57,3.71-10.57,3.71l23.18,7.62-120.59.67h-43.34l14.58-6.73,21.83-2.26,35.01-7.22c-1.62-15.07-17.95-14.8-17.95-14.8-20.12.45-17.05,22.02-17.05,22.02-.72-3.52-3.07-8.93-12.63-8.12s-9.2,10.38-9.2,10.38c-12.27-5.86-14.58,6.73-14.58,6.73h-26.34"/>
    <path class="cls-1" d="M169.38,81.35l20.58,13.4c.15-2.2.2-3.74.1-5.4-.33-5.71-4.88-10.32-10.59-10.72-.08,0-.17-.01-.25-.02-8.38-.53-10.47,3.54-10.47,3.54"/>
    <polygon class="cls-1" points="213.25 96.97 161.51 78.56 120.74 69 104.47 73.95 85.73 88.66 66.5 86.66 63.9 90.92 51.28 94.75 49.32 97.65 213.25 96.97"/>
    <polygon class="cls-1" points="85.51 103.19 112.55 103.19 101.53 90.61 89.7 101.62 85.51 103.19"/>
  </g>
  <g>
    <line class="cls-2" x1="8.17" y1="97.65" x2="17.15" y2="97.65"/>
    <path class="cls-2" d="M120.74,81.45c-1.62-15.07-17.95-14.8-17.95-14.8-20.12.45-17.05,22.02-17.05,22.02-.72-3.52-3.07-8.93-12.63-8.12s-9.2,10.38-9.2,10.38c-12.27-5.86-14.58,6.73-14.58,6.73h-26.34"/>
    <path class="cls-2" d="M116.05,88.85s0-6.69,6.05-6.69,6.09,5.2,6.09,6.74"/>
    <path class="cls-2" d="M114.74,70.43s6.33-16.48,26.12-15.87c7.42.23,12.97,2.52,17.01,5.29,6.3,4.32,10.13,11.41,10.75,19.03.24,2.98.23,6.48-.43,10.02"/>
    <path class="cls-2" d="M168.77,82.15s2.09-4.07,10.47-3.54c.08,0,.17.01.25.02,5.71.4,10.26,5.01,10.59,10.72.1,1.66.04,3.2-.1,5.4"/>
    <path class="cls-2" d="M190.07,89.36s4.35-3.71,10.57-3.71c.06,0,.12,0,.19,0,5.59.06,10.49,3.87,12.06,9.24.22.75.36,1.47.36,2.09h16.78"/>
    <line class="cls-2" x1="234.21" y1="96.98" x2="240" y2="96.98"/>
    <line class="cls-2" x1="242.56" y1="96.98" x2="264.19" y2="96.98"/>
    <path class="cls-2" d="M29.89,103.2h55.62s-.09-5.54,8.74-5.54"/>
    <path class="cls-2" d="M94.25,101.81s-1.79-9.6,9.28-9.6c2.91,0,9.62.9,9.03,10.99h14.91"/>
    <line class="cls-2" x1="133.27" y1="103.2" x2="138.45" y2="103.2"/>
    <line class="cls-2" x1="149.34" y1="103.2" x2="274.51" y2="103.2"/>
    <line class="cls-2" x1="113.6" y1="109.75" x2="224.62" y2="109.75"/>
    <path class="cls-2" d="M145.53,61.61s4.63.84,5.37,2.42"/>
    <path class="cls-2" d="M154.48,66.35s6.74,5.05,7.58,13.27"/>
    <circle class="cls-2" cx="179.9" cy="66.98" r="3.59"/>
  </g>
</svg>