<?xml version="1.0" encoding="UTF-8"?>
<svg id="Layer_1" data-name="Layer 1" xmlns="http://www.w3.org/2000/svg" viewBox="0 0 282.68 128.18">
  <defs>
    <style>
      .cls-1 {
        fill: #fff;
      }

      .cls-2 {
        fill: none;
        stroke: #000;
        stroke-linecap: round;
        stroke-linejoin: round;
        stroke-width: .5px;
      }
    </style>
  </defs>
  <rect class="cls-1" x="1.23" y="98.86" width="280.56" height="10.6" rx="5.3" ry="5.3"/>
  <g>
    <path class="cls-1" d="M203.03,70.11v-12.27c0-22.82-18.5-41.32-41.32-41.32s-41.32,18.5-41.32,41.32"/>
    <path class="cls-1" d="M84.56,74.55c3.56-11.14,13.32-19.14,24.81-19.14,12.78,0,23.43,9.9,25.77,23"/>
    <path class="cls-1" d="M64.39,87.89c0-8.44,5.93-15.28,13.24-15.28,6.18,0,11.36,4.88,12.83,11.49"/>
    <path class="cls-1" d="M137.53,80.45c2.77-2.91,6.55-4.7,10.73-4.7,8.48,0,15.35,7.4,15.35,16.53"/>
    <path class="cls-1" d="M35.83,102.53h211.42v-3.26l-20.39-16.95c0-8.61-6.48-15.59-14.48-15.59s-14.48,6.98-14.48,15.59"/>
    <path class="cls-1" d="M219.5,99.28c0-10.26,6.26-18.57,13.97-18.57s13.97,8.31,13.97,18.57h11.97"/>
    <path class="cls-1" d="M128.42,83.43c0-2.77,2.17-5.02,4.86-5.02s4.86,2.25,4.86,5.02"/>
    <path class="cls-1" d="M76.99,95.44c0-2.77-2.17-5.02-4.86-5.02-1.51,0-2.86.71-3.75,1.83"/>
    <path class="cls-1" d="M86.2,90.42c0-3.86,3.8-6.99,8.49-6.99s8.49,3.13,8.49,6.99"/>
    <path class="cls-1" d="M24.53,102.53h11.3v-2.61c0-8.44,7.75-15.28,17.32-15.28,6.48,0,12.13,3.14,15.1,7.8,1.41,2.21,2.22,4.76,2.22,7.48"/>
    <path class="cls-1" d="M111.67,62.72s5.1,0,7.27,2.22"/>
    <path class="cls-1" d="M121.29,66.91s3.6,2.54,4.82,8.84"/>
    <path class="cls-1" d="M172.36,26.36s5.92,1.57,8.49,4.57"/>
    <path class="cls-1" d="M183.92,33.21s13.41,10.84,8.99,31.18"/>
    <circle class="cls-1" cx="181.11" cy="92.37" r="2.98"/>
    <circle class="cls-1" cx="57.57" cy="75.75" r="3.08"/>
    <circle class="cls-1" cx="248.75" cy="54.44" r="4.05"/>
    <circle class="cls-1" cx="233.32" cy="69.53" r="2.4"/>
    <circle class="cls-1" cx="134.45" cy="48.8" r="2.4"/>
  </g>
  <path class="cls-1" d="M229.73,96.93l-26.7-26.83-33.48-14.7s-28.57.28-32.7,0-12.53-2.45-12.53-2.45l-12.64,13.78-15.77,5.19-25.44,6.91-11.11,16.61-23.52,7.1"/>
  <g>
    <path class="cls-2" d="M120.4,57.42c0-22.82,18.5-41.32,41.32-41.32s41.32,18.5,41.32,41.32v12.27"/>
    <path class="cls-2" d="M84.56,74.13c3.56-11.14,13.32-19.14,24.81-19.14,12.78,0,23.43,9.9,25.77,23"/>
    <path class="cls-2" d="M64.39,87.47c0-8.44,5.93-15.28,13.24-15.28,6.18,0,11.36,4.88,12.83,11.49"/>
    <path class="cls-2" d="M137.53,80.04c2.77-2.91,6.55-4.7,10.73-4.7,8.48,0,15.35,7.4,15.35,16.53"/>
    <path class="cls-2" d="M197.91,81.91c0-8.61,6.48-15.59,14.48-15.59s14.48,6.98,14.48,15.59"/>
    <path class="cls-2" d="M219.5,98.86c0-10.26,6.26-18.57,13.97-18.57s13.97,8.31,13.97,18.57h11.97"/>
    <path class="cls-2" d="M128.42,83.02c0-2.77,2.17-5.02,4.86-5.02s4.86,2.25,4.86,5.02"/>
    <path class="cls-2" d="M76.99,95.03c0-2.77-2.17-5.02-4.86-5.02-1.51,0-2.86.71-3.75,1.83"/>
    <path class="cls-2" d="M86.2,90.01c0-3.86,3.8-6.99,8.49-6.99s8.49,3.13,8.49,6.99"/>
    <line class="cls-2" x1="263.59" y1="98.86" x2="271.14" y2="98.86"/>
    <line class="cls-2" x1="124.31" y1="102.12" x2="217.86" y2="102.12"/>
    <line class="cls-2" x1="50.18" y1="102.12" x2="107.37" y2="102.12"/>
    <path class="cls-2" d="M24.53,98.86h11.3v.65c0-8.44,7.75-15.28,17.32-15.28,6.48,0,12.13,3.14,15.1,7.8,1.41,2.21,2.22,4.76,2.22,7.48"/>
    <line class="cls-2" x1="12.99" y1="98.86" x2="20.3" y2="98.86"/>
    <line class="cls-2" x1="113.14" y1="102.12" x2="117.14" y2="102.12"/>
    <path class="cls-2" d="M111.67,62.31s5.1,0,7.27,2.22"/>
    <path class="cls-2" d="M121.29,66.5s3.6,2.54,4.82,8.84"/>
    <path class="cls-2" d="M172.36,25.95s5.92,1.57,8.49,4.57"/>
    <path class="cls-2" d="M183.92,32.8s13.41,10.84,8.99,31.18"/>
    <line class="cls-2" x1="5.82" y1="109.33" x2="144.83" y2="109.33"/>
    <line class="cls-2" x1="151.08" y1="109.33" x2="178.71" y2="109.33"/>
    <line class="cls-2" x1="182.78" y1="109.33" x2="187.43" y2="109.33"/>
    <line class="cls-2" x1="192.81" y1="109.33" x2="276.86" y2="109.33"/>
    <circle class="cls-2" cx="181.11" cy="91.96" r="2.98"/>
    <circle class="cls-2" cx="57.57" cy="75.33" r="3.08"/>
    <circle class="cls-2" cx="248.75" cy="54.03" r="4.05"/>
    <circle class="cls-2" cx="233.32" cy="69.11" r="2.4"/>
    <circle class="cls-2" cx="134.45" cy="48.39" r="2.4"/>
  </g>
</svg>