<?xml version="1.0" encoding="UTF-8"?>
<svg id="Layer_1" data-name="Layer 1" xmlns="http://www.w3.org/2000/svg" viewBox="0 0 282.68 128.18">
  <defs>
    <style>
      .cls-1 {
        fill: #fff;
      }
    </style>
  </defs>
  <rect class="cls-1" x="4.11" y="102.5" width="274.52" height="7.79" rx="3.89" ry="3.89"/>
  <g>
    <path class="cls-1" d="M18.1,103.77s33.22.75,36.78,0,15.79-2.82,19.39-4.82c4.34-2.41,9.38-.07,9.38,4.63"/>
    <path class="cls-1" d="M74.28,98.95s-3.29-14.2,13.18-14.2c0,0,12.45-1.37,12.45,12.9,0,0,.27-4.83,5.27-4.83s5.81,3.47,5.81,7"/>
    <path class="cls-1" d="M138.3,87.31v-2.59c0-11.11-10.26-20.12-22.92-20.12s-22.92,9.01-22.92,20.12"/>
    <path class="cls-1" d="M129.02,100.32c.81-3.35,3.45-5.8,6.58-5.8,3.78,0,6.84,3.57,6.84,7.98v1.03"/>
    <path class="cls-1" d="M123.06,103.55c0-2.06,1.88-3.72,4.2-3.72s4.2,1.67,4.2,3.72"/>
    <path class="cls-1" d="M138.03,81.62c2.39-2.39,5.89-3.9,9.8-3.9,7.19,0,13.02,5.12,13.02,11.43v3.9"/>
    <path class="cls-1" d="M142.44,101.69s21.25,2.34,29.17-1.85v-2.92c0-4.72-4.36-8.55-9.74-8.55-.37,0-.73.02-1.08.05"/>
    <circle class="cls-1" cx="238.84" cy="100.99" r="2.51"/>
    <circle class="cls-1" cx="177.04" cy="85.38" r="2.51"/>
    <circle class="cls-1" cx="81.15" cy="72.85" r="2.51"/>
    <path class="cls-1" d="M116.25,70.34s3.28-.23,4.68.43"/>
    <path class="cls-1" d="M124.45,72.41s6.97,3.7,7.47,10.46"/>
    <path class="cls-1" d="M49.89,104.06h178.82v-1.71h-19.64l-6.02-3.32-6.71,1.13-24.73-.3s5.37-6.8,13.32-6.8,11.41,7.1,11.41,7.1c0,0,1.11-3.55,5.74-3.55s6.98,5.75,6.98,5.75h12.58"/>
    <polygon class="cls-1" points="54.89 103.77 69.43 102.35 78.63 96.05 86.38 87.9 98.45 82.87 126.54 81.39 152.81 82.87 167.78 97.43 171.61 99.85 188.24 97.73 196.34 100.15 202.08 96.6 206.71 99.83 209.07 102.35 207.33 103.77 54.89 103.77"/>
  </g>
  <g>
    <path d="M5.47,109.86c25.02-.04,61.8-.45,86.49,0,.03,0,.03.05,0,.05-24.5.4-61.81.14-86.49-.05h0Z"/>
    <path d="M100.17,109.86c1.34-.04,2.85-.53,4.1.04-.66.29-1.36.27-2.06.19-.63-.09-1.55-.02-2.04-.22h0Z"/>
    <path d="M255.27,109.86c1.34-.04,2.85-.53,4.1.04-.66.29-1.36.27-2.06.19-.63-.09-1.55-.02-2.04-.22h0Z"/>
    <path d="M263.48,109.86c4.05,0,9.81-.53,13.75.03-2.26.32-4.6.26-6.89.2,0-.05-7.02-.09-6.87-.23h0Z"/>
    <path d="M109.76,109.86c22.5-.04,54.08-.46,76.25,0,.03,0,.03.05,0,.05-22,.41-54.09.14-76.25-.05h0Z"/>
    <path d="M190.91,109.86c17.84-.04,42.87-.46,60.45,0,.03,0,.03.05,0,.05-17.43.41-42.92.14-60.45-.05h0Z"/>
    <path d="M17.34,102.48c11.7.03,23.4.06,35.09-.06,5.84-.02,11.69-.14,17.32-1.84,2.18-.48,4.05-1.6,6.13-2.35,2.15-.58,4.66-.18,6.26,1.46,1.06,1.05,1.63,2.63,1.53,4.06-.11-1.43-.58-2.93-1.69-3.9-1.56-1.53-3.96-1.87-6-1.27-2.02.79-3.95,1.96-6.09,2.48-5.65,1.73-11.6,1.82-17.45,1.76-11.65-.02-23.6-.02-35.09-.34h0Z"/>
    <path d="M74.25,99.09c-1.49-7.6,2.58-13.35,10.33-14.19,0,0,2.87-.17,2.87-.17,5.84-.55,11.41,3.18,12.31,9.19,0,0,.24,1.28.24,1.28l.15,2.59h-.5c.16-1.61.89-3.19,2.24-4.11,2.61-1.64,6.88-1.16,8.35,1.75.71,1.42.78,3.02.76,4.54-.17-2.96-.88-6.4-4.58-6.73-3.16-.59-6.02,1.32-6.27,4.57-.03.3-.49.29-.5-.01,0,0-.15-2.53-.15-2.53-.63-6.48-5.54-10.68-12.06-10.21,0,0-2.83.14-2.83.14-7.9.84-11.53,6.37-10.37,13.9h0Z"/>
    <path d="M92.43,84.86c.12-16.11,19.24-24.3,32.86-18.39,8.54,3.41,14.11,11.76,13.01,21,.78-12.66-9.43-21.84-21.64-22.48-11.77-.87-24,7.59-24.23,19.86h0Z"/>
    <path d="M129,100.45c1.84-8.15,12.11-7.78,13.44.42.13.93.13,1.93,0,2.81-.12-.9-.11-1.87-.34-2.75-1.87-7.87-10.83-8.11-13.1-.49h0Z"/>
    <path d="M123.03,103.69c-.01-5.11,8.73-5.27,8.45,0,0,.03-.05.03-.05,0-.75-4.66-7.89-4.65-8.4,0h0Z"/>
    <path d="M138.01,81.74c7.03-7.52,22.67-3.98,22.99,7.2-.04,1.38.01,3.03-.18,4.25,0,0-.17-4.24-.17-4.24-.9-10.97-15.42-14.21-22.64-7.21h0Z"/>
    <path d="M142.44,101.8c4.9.45,9.82.63,14.73.51,4.82-.21,9.94-.41,14.33-2.54,0,0-.13.22-.13.22-.05-1.52.11-3.09-.19-4.52-1-4.65-6.07-7.13-10.39-6.91,5.4-.85,11.51,3.32,11.07,9.14,0,0,0,2.3,0,2.3,0,.09-.05.17-.13.21-2.26,1.13-4.73,1.57-7.17,1.91-7.28.85-15,.57-22.11-.3h0Z"/>
    <path d="M171.59,99.97c6.74-8.25,19.18-10.07,24.93.23,0,0-.37.03-.37.03,1.02-2.84,4.31-4.19,7.15-3.6,2.88.66,4.84,3.19,5.97,5.76,0,0-.21-.14-.21-.14,4.19.09,8.45.03,12.61.22-4.17.19-8.41.14-12.61.22-.09,0-.17-.06-.21-.14-1.14-2.36-2.98-4.85-5.66-5.45-2.59-.56-5.7.64-6.66,3.23-.04.11-.16.16-.27.12-5.9-10.37-17.7-8.41-24.68-.5h0Z"/>
    <path d="M224.42,102.46c1.41-.04,2.98-.53,4.3.03-.69.29-1.43.27-2.16.19-.67-.09-1.62-.02-2.14-.22h0Z"/>
    <path d="M241.38,101.13c-.11,3.48-5.11,3.47-5.25,0,.03-3.63,5.26-3.65,5.25,0h0ZM241.33,101.13c-.12-2.98-4.69-2.99-4.8,0,0,3.15,4.75,3.17,4.8,0h0Z"/>
    <path d="M179.58,85.52c-.11,3.48-5.11,3.47-5.25,0,.03-3.63,5.26-3.65,5.25,0h0ZM179.53,85.52c-.12-2.98-4.69-2.99-4.8,0,0,3.15,4.75,3.17,4.8,0h0Z"/>
    <path d="M83.69,72.99c-.11,3.48-5.11,3.47-5.25,0,.03-3.63,5.26-3.65,5.25,0h0ZM83.64,72.99c-.12-2.98-4.69-2.99-4.8,0,0,3.14,4.75,3.17,4.8,0h0Z"/>
    <path d="M116.25,70.45c1.36-.11,3.72-.61,4.67.48-.69-.04-1.64-.13-2.31-.26-.73-.14-1.75-.05-2.35-.22h0Z"/>
    <path d="M124.46,72.52c3.8,2.1,7.61,5.83,7.48,10.48,0,.03-.04.03-.05,0-.77-4.41-3.85-8.18-7.43-10.49h0Z"/>
  </g>
</svg>