<?xml version="1.0" encoding="UTF-8"?>
<svg id="Layer_1" data-name="Layer 1" xmlns="http://www.w3.org/2000/svg" viewBox="0 0 282.68 128.18">
  <defs>
    <style>
      .cls-1 {
        fill: #fff;
      }
    </style>
  </defs>
  <rect class="cls-1" x="2.59" y="99.4" width="280.56" height="10.6" rx="5.3" ry="5.3"/>
  <g>
    <path class="cls-1" d="M204.38,70.65v-12.27c0-22.82-18.5-41.32-41.32-41.32s-41.32,18.5-41.32,41.32"/>
    <path class="cls-1" d="M85.92,75.09c3.56-11.14,13.32-19.14,24.81-19.14,12.78,0,23.43,9.9,25.77,23"/>
    <path class="cls-1" d="M65.75,88.43c0-8.44,5.93-15.28,13.24-15.28,6.18,0,11.36,4.88,12.83,11.49"/>
    <path class="cls-1" d="M138.88,80.99c2.77-2.91,6.55-4.7,10.73-4.7,8.48,0,15.35,7.4,15.35,16.53"/>
    <path class="cls-1" d="M37.18,103.08h211.42v-3.26l-20.39-16.95c0-8.61-6.48-15.59-14.48-15.59s-14.48,6.98-14.48,15.59"/>
    <path class="cls-1" d="M220.85,99.82c0-10.26,6.26-18.57,13.97-18.57s13.97,8.31,13.97,18.57h11.97"/>
    <path class="cls-1" d="M129.78,83.97c0-2.77,2.17-5.02,4.86-5.02s4.86,2.25,4.86,5.02"/>
    <path class="cls-1" d="M78.34,95.98c0-2.77-2.17-5.02-4.86-5.02-1.51,0-2.86.71-3.75,1.83"/>
    <path class="cls-1" d="M87.55,90.96c0-3.86,3.8-6.99,8.49-6.99s8.49,3.13,8.49,6.99"/>
    <path class="cls-1" d="M25.88,103.08h11.3v-2.61c0-8.44,7.75-15.28,17.32-15.28,6.48,0,12.13,3.14,15.1,7.8,1.41,2.21,2.22,4.76,2.22,7.48"/>
    <path class="cls-1" d="M113.02,63.26s5.1,0,7.27,2.22"/>
    <path class="cls-1" d="M122.64,67.45s3.6,2.54,4.82,8.84"/>
    <path class="cls-1" d="M173.72,26.9s5.92,1.57,8.49,4.57"/>
    <path class="cls-1" d="M185.27,33.75s13.41,10.84,8.99,31.18"/>
    <circle class="cls-1" cx="182.46" cy="92.91" r="2.98"/>
    <circle class="cls-1" cx="58.93" cy="76.29" r="3.08"/>
    <circle class="cls-1" cx="250.1" cy="54.99" r="4.05"/>
    <circle class="cls-1" cx="234.67" cy="70.07" r="2.4"/>
    <circle class="cls-1" cx="135.8" cy="49.34" r="2.4"/>
  </g>
  <path class="cls-1" d="M231.08,97.47l-26.7-26.83-33.48-14.7s-28.57.28-32.7,0-12.53-2.45-12.53-2.45l-12.64,13.78-15.77,5.19-25.44,6.91-11.11,16.61-23.52,7.1"/>
  <g>
    <path d="M121.72,57.96c-.22-25,22.75-44.94,47.48-41.01,18.01,2.39,32.84,17.49,34.94,35.53.69,5.12.23,12.54.27,17.76-.29-5.03.16-12.65-.59-17.71-2.24-17.71-16.97-32.75-34.68-35.18-24.8-3.96-47.3,15.8-47.42,40.62h0Z"/>
    <path d="M85.89,74.67c5.68-18.74,28.41-26.08,42.73-11.82,4.16,4.25,7.05,9.87,7.88,15.71-1.26-5.75-3.97-11.27-8.23-15.36-14.42-14.19-36.31-6.9-42.37,11.46h0Z"/>
    <path d="M65.72,88.01c-.33-11.23,11.3-20.4,21.09-12.63,2.64,2.25,4.5,5.51,5,8.86-.92-3.26-2.66-6.38-5.32-8.48-9.88-7.6-20.6,1.3-20.77,12.25h0Z"/>
    <path d="M138.87,80.56c6.78-7.54,18.99-5.87,23.92,2.88,1.55,2.71,2.37,5.93,2.18,8.99-.24-3.06-.98-6.14-2.61-8.74-5.08-8.75-16.46-10.23-23.49-3.13h0Z"/>
    <path d="M199.23,82.46c-.28-10.52,10.26-19.17,20.33-14.55,5.48,2.48,8.99,8.67,8.65,14.57-.16-7.81-6.34-15.43-14.48-15.42-8.29-.15-14.43,7.62-14.5,15.39h0Z"/>
    <path d="M220.83,99.4c0-6.33,2.39-13.22,7.87-16.84,5.88-4.02,13.31-1.19,16.86,4.52,2.38,3.63,3.49,8.01,3.45,12.32l-.21-.21c3.99.07,8.04.02,11.99.21-3.96.18-8,.13-11.99.21-.11,0-.2-.09-.21-.2-.13-6.25-2.44-12.98-7.82-16.55-5.73-3.92-12.92-1.14-16.38,4.42-2.41,3.52-3.38,8.05-3.56,12.13h0Z"/>
    <path d="M129.75,83.56c-.23-4.44,5.45-7.06,8.52-3.69.86.95,1.5,2.58,1.19,3.69-.83-6.41-9.12-6.36-9.71,0h0Z"/>
    <path d="M78.32,95.57c-.16-4.52-5.45-6.31-8.56-3.18-.02.02-.06,0-.04-.03,2.68-4.25,9.08-1.28,8.6,3.21h0Z"/>
    <path d="M87.53,90.55c.26-9.43,17.03-9.62,17.03,0,0,.03-.05.03-.05,0-.97-8.98-16.26-8.97-16.98,0h0Z"/>
    <path d="M264.94,99.38c2.51-.03,5.13-.53,7.57.03-2.42.48-5.25.15-7.57-.03h0Z"/>
    <path d="M125.67,102.64c27.07-.04,66.85-.45,93.55,0,.03,0,.03.05,0,.05-26.51.4-66.84.14-93.55-.05h0Z"/>
    <path d="M51.53,102.64c16.88-.04,40.56-.46,57.19,0,.03,0,.03.05,0,.05-16.49.41-40.62.14-57.19-.05h0Z"/>
    <path d="M25.88,99.38l11.3-.07c.05,0,.1.04.1.1v.65s-.2,0-.2,0c.16-14.36,19.37-20.12,29.41-11.29,3.28,2.75,5.56,7.01,5.32,11.32-.14-4.25-2.25-8.35-5.6-10.99-10.04-8.41-28.49-3.23-28.93,10.96,0,.13-.21.13-.2,0,0,0,0-.65,0-.65,0,0,.1.1.1.1,0-.05-11.46.02-11.3-.12h0Z"/>
    <path d="M14.34,99.38c2.43-.03,4.97-.53,7.33.03-2.34.48-5.09.15-7.33-.03h0Z"/>
    <path d="M114.49,102.64c1.32-.04,2.79-.53,4.02.04-.64.29-1.33.27-2.01.19-.67-.04-1.33-.1-2-.18-.03,0-.03-.05,0-.05h0Z"/>
    <path d="M113.02,62.82c2.46.04,5.76.04,7.28,2.26-2.17-1.37-4.9-1.97-7.28-2.26h0Z"/>
    <path d="M122.65,67.02c2.66,2.09,4.71,5.47,4.81,8.88-1.12-3.15-2.34-6.65-4.81-8.88h0Z"/>
    <path d="M173.72,26.47c3.03.87,6.71,1.82,8.49,4.61-2.5-2.02-5.61-3.54-8.49-4.61h0Z"/>
    <path d="M185.29,33.32c8.61,7.58,12.04,20.27,8.97,31.22-.01,0-.02-.02-.02-.03l.27-2.11c1.63-10.48-1.47-21.81-9.22-29.08h0Z"/>
    <path d="M7.17,109.85c40.22-.04,99.33-.45,139.01,0,.03,0,.03.05,0,.05-39.41.4-99.22.14-139.01-.05h0Z"/>
    <path d="M152.43,109.85c8.15,0,19.65-.53,27.65.03-7.91.49-19.76.13-27.65-.03h0Z"/>
    <path d="M184.13,109.85c1.54-.04,3.22-.53,4.67.03-.75.3-1.56.27-2.34.19-.73-.09-1.74-.02-2.33-.22h0Z"/>
    <path d="M194.16,109.85c24.32-.04,60.06-.45,84.04,0,.03,0,.03.05,0,.05-23.81.4-60.07.14-84.04-.05h0Z"/>
    <path d="M185.46,92.5c-.13,4.09-6.02,4.08-6.18,0,.07-4.25,6.14-4.27,6.18,0h0ZM185.41,92.5c-.16-3.6-5.58-3.61-5.73,0,.04,3.77,5.66,3.77,5.73,0h0Z"/>
    <path d="M62.03,75.88c-.13,4.23-6.23,4.22-6.39,0,.08-4.39,6.34-4.41,6.39,0h0ZM61.98,75.88c-.16-3.74-5.79-3.75-5.94,0,.04,3.91,5.87,3.9,5.94,0h0Z"/>
    <path d="M254.17,54.57c-.2,5.52-8.09,5.51-8.32,0,.12-5.66,8.24-5.68,8.32,0h0ZM254.12,54.57c-.23-5.02-7.66-5.04-7.87,0,.07,5.18,7.77,5.18,7.87,0h0Z"/>
    <path d="M237.1,69.66c-.13,3.33-4.86,3.33-5.02,0,.03-3.48,5.03-3.49,5.02,0h0ZM237.05,69.66c-.12-2.83-4.46-2.84-4.57,0,0,2.99,4.52,3.02,4.57,0h0Z"/>
    <path d="M138.22,48.93c-.12,3.33-4.86,3.33-5.02,0,.03-3.48,5.03-3.49,5.02,0h0ZM138.17,48.93c-.12-2.83-4.46-2.84-4.57,0,0,2.99,4.52,3.02,4.57,0h0Z"/>
  </g>
</svg>