<?xml version="1.0" encoding="UTF-8"?>
<svg id="Layer_1" data-name="Layer 1" xmlns="http://www.w3.org/2000/svg" viewBox="0 0 128.18 128.18">
  <defs>
    <style>
      .cls-1 {
        fill: #e0c3a9;
      }
    </style>
  </defs>
  <g>
    <rect class="cls-1" x="61.68" y="46.01" width="7.21" height="50.47"/>
    <path d="M61.67,96.5c.19-.22-.52-50.68.02-50.67,0,0,7.21-.02,7.21-.02.11,0,.2.09.2.2.09,12.15.05,25.63,0,37.85l-.08,12.62c0,.06-.05.11-.11.11,0,0-7.23-.1-7.23-.1h0ZM61.7,96.46l7.2-.1-.11.11-.08-12.62c-.06-12.24-.1-25.68,0-37.85,0,0,.2.2.2.2l-7.21-.02c.5-1.12-.14,50.5.02,50.27h0Z"/>
  </g>
  <g>
    <rect class="cls-1" x="38.2" y="46.01" width="7.21" height="50.47"/>
    <path d="M38.18,96.5c.19-.22-.52-50.68.02-50.67,0,0,7.21-.02,7.21-.02.11,0,.2.09.2.2.09,12.15.05,25.63,0,37.85l-.08,12.62c0,.06-.05.11-.11.11,0,0-7.23-.1-7.23-.1h0ZM38.22,96.46l7.2-.1-.11.11-.08-12.62c-.06-12.24-.1-25.68,0-37.85,0,0,.2.2.2.2l-7.21-.02c.5-1.12-.14,50.5.02,50.27h0Z"/>
  </g>
  <g>
    <rect class="cls-1" x="83.97" y="46.01" width="7.21" height="50.47"/>
    <path d="M83.95,96.5c.19-.22-.52-50.68.02-50.67,0,0,7.21-.02,7.21-.02.11,0,.2.09.2.2.09,12.15.05,25.63,0,37.85l-.08,12.62c0,.06-.05.11-.11.11,0,0-7.23-.1-7.23-.1h0ZM83.99,96.46l7.2-.1-.11.11-.08-12.62c-.06-12.24-.1-25.68,0-37.85,0,0,.2.2.2.2l-7.21-.02c.5-1.12-.14,50.5.02,50.27h0Z"/>
  </g>
  <g>
    <rect class="cls-1" x="16.9" y="91.23" width="94.38" height="7.21"/>
    <path d="M111.3,98.46c-.19-.19-94.63.54-94.58-.02,0,0-.01-7.21-.01-7.21,0-.11.09-.2.2-.2,23.52-.07,70.86-.01,94.38.12.04,0,.08.03.08.08l-.06,7.23h0ZM111.26,98.43l-.06-7.2.08.08c-23.53.14-70.86.2-94.38.12,0,0,.2-.2.2-.2v7.21c-1.21-.53,94.43.16,94.16-.02h0Z"/>
  </g>
  <g>
    <rect class="cls-1" x="11.87" y="38.98" width="10.06" height="63.18"/>
    <path d="M21.95,102.17l-10.07.03c.05-.19-.53-63.42,0-63.43,0,0,10.06-.05,10.06-.05.14,0,.25.11.25.24.01,15.75-.1,47.45-.23,63.2h0ZM21.91,102.14c-.13-15.75-.24-47.42-.23-63.16,0,0,.25.25.25.25l-10.06-.05c.51-1.28-.03,63.48,0,62.92,0,0,10.04.03,10.04.03h0Z"/>
  </g>
  <g>
    <rect class="cls-1" x="106.25" y="38.98" width="10.06" height="63.18"/>
    <path d="M116.33,102.17l-10.07.03c.05-.19-.53-63.42,0-63.43,0,0,10.06-.05,10.06-.05.14,0,.25.11.25.24.01,15.75-.1,47.45-.23,63.2h0ZM116.29,102.14c-.13-15.75-.24-47.42-.23-63.16,0,0,.25.25.25.25l-10.06-.05c.51-1.28-.03,63.48,0,62.92,0,0,10.04.03,10.04.03h0Z"/>
  </g>
  <g>
    <circle class="cls-1" cx="16.9" cy="33.45" r="7.42"/>
    <path d="M24.35,33.45c.07,6.6-8.15,10.07-12.81,5.36-2.96-2.81-2.99-7.93-.06-10.79,4.74-4.83,12.99-1.28,12.87,5.42h0ZM24.3,33.45c.04-6.34-8.09-9.57-12.47-5.07-2.82,2.66-2.84,7.51-.06,10.21,4.45,4.62,12.62,1.31,12.53-5.13h0Z"/>
  </g>
  <g>
    <circle class="cls-1" cx="111.28" cy="33.45" r="7.42"/>
    <path d="M118.73,33.45c.07,6.6-8.15,10.07-12.81,5.36-2.96-2.81-2.99-7.93-.06-10.79,4.74-4.83,12.99-1.28,12.87,5.42h0ZM118.68,33.45c.04-6.34-8.09-9.57-12.47-5.07-2.82,2.66-2.84,7.51-.06,10.21,4.45,4.62,12.62,1.31,12.53-5.13h0Z"/>
  </g>
  <g>
    <path class="cls-1" d="M116.31,55.31l-30.02-5.69c-14.67-2.78-29.72-2.78-44.39,0l-30.02,5.69v-6.66l30.02-5.69c14.67-2.78,29.72-2.78,44.39,0l30.02,5.69v6.66Z"/>
    <path d="M116.32,55.33c-15.41-2.61-36.72-7.99-52.23-7.67-15.41-.29-36.91,5.2-52.18,7.84-.11.02-.23-.07-.23-.19,0,0,0-6.66,0-6.66,0-.1.07-.18.16-.2,9.25-1.6,30.01-6.12,39.03-7.08,13.17-1.54,26.55-.59,39.49,2.19.03.07,26.06,4.93,26.01,5.09,0,0-.05,6.68-.05,6.68h0ZM116.29,55.29l-.05-6.64c.34.22-26-4.81-25.94-4.75-12.93-2.68-26.24-3.53-39.37-2.04-8.9.96-29.93,5.43-39.01,6.98,0,0,.17-.21.16-.19,0,0,0,6.66,0,6.66l-.23-.19c15.4-2.62,36.74-8.03,52.25-7.7,15.45-.28,36.9,5.21,52.2,7.87h0Z"/>
  </g>
</svg>