<?xml version="1.0" encoding="UTF-8"?>
<svg id="Layer_1" data-name="Layer 1" xmlns="http://www.w3.org/2000/svg" viewBox="0 0 128.18 128.18">
  <defs>
    <style>
      .cls-1 {
        fill: #e0c3a9;
      }
    </style>
  </defs>
  <g>
    <rect class="cls-1" x="57.19" y="24.39" width="12.67" height="80.87" transform="translate(-26.97 71.82) rotate(-50)"/>
    <path d="M90.43,95.7c-.02-.25-62.46-51.75-62.09-52.12,0,0,8.13-9.72,8.13-9.72.07-.08.2-.1.28-.02l31.01,25.95c-.01.17,31.16,26,30.91,26.26,0,0-8.23,9.65-8.23,9.65h0ZM90.43,95.65l8.05-9.75c.4.76-31.13-25.93-31.04-25.72.24,0-31.89-26.39-30.66-26.05,0,0-8.16,9.69-8.16,9.69-.55-1.11,61.9,52.12,61.81,51.84h0Z"/>
  </g>
  <g>
    <polygon class="cls-1" points="27.7 112.04 13.57 112.04 13.57 25.55 20.66 16.14 27.7 25.55 27.7 112.04"/>
    <path d="M27.72,112.06l-14.15.03c-.13.02-.2-86.58-.15-86.65,0,0,7.09-9.42,7.09-9.42.08-.11.25-.11.33,0l7.05,9.4s.04.09.04.13c.09,25.07-.09,61.09-.2,86.5h0ZM27.68,112.02c-.14-25.52-.27-61.33-.2-86.47.32.56-7.05-9.39-6.98-9.29,0,0,.33,0,.33,0l-7.11,9.4c.05-.69-.04,86.77-.15,86.32,0,0,14.12.03,14.12.03h0Z"/>
  </g>
  <g>
    <polygon class="cls-1" points="113.49 112.04 99.35 112.04 99.35 25.55 106.45 16.14 113.49 25.55 113.49 112.04"/>
    <path d="M113.51,112.06l-14.15.03c-.13.02-.2-86.58-.15-86.65,0,0,7.09-9.42,7.09-9.42.08-.11.25-.11.33,0l7.05,9.4s.04.09.04.13c.09,25.07-.09,61.09-.2,86.5h0ZM113.47,112.02c-.14-25.52-.27-61.33-.2-86.47.32.56-7.05-9.39-6.98-9.29,0,0,.33,0,.33,0l-7.11,9.4c.05-.69-.04,86.77-.15,86.32,0,0,14.12.03,14.12.03h0Z"/>
  </g>
  <g>
    <rect class="cls-1" x="10.07" y="33.73" width="108.05" height="12.67"/>
    <path d="M118.13,46.42c-.19-.18-108.29.52-108.25-.02,0,0-.02-12.67-.02-12.67,0-.11.09-.2.2-.2,26.93-.07,81.13-.02,108.05.1.06,0,.1.04.1.1l-.08,12.68h0ZM118.1,46.38l-.08-12.65c.65.28-54.08.16-53.93.25.18-.16-54.97.29-53.83-.25,0,0-.02,12.67-.02,12.67-1.18-.51,108.12.15,107.85-.02h0Z"/>
  </g>
  <g>
    <rect class="cls-1" x="10.07" y="84.21" width="108.05" height="12.67"/>
    <path d="M118.13,96.89c-.19-.18-108.29.52-108.25-.02,0,0-.02-12.67-.02-12.67,0-.11.09-.2.2-.2,26.93-.07,81.13-.02,108.05.1.06,0,.1.04.1.1l-.08,12.68h0ZM118.1,96.86l-.08-12.65c.65.28-54.08.16-53.93.25.18-.16-54.97.29-53.83-.25,0,0-.02,12.67-.02,12.67-1.18-.51,108.12.15,107.85-.02h0Z"/>
  </g>
  <g>
    <circle class="cls-1" cx="20.63" cy="40.07" r="2.89"/>
    <path d="M23.54,40.07c-.13,3.97-5.84,3.96-5.99,0,.07-4.13,5.96-4.15,5.99,0h0ZM23.49,40.07c-.16-3.48-5.4-3.49-5.54,0,.03,3.65,5.48,3.64,5.54,0h0Z"/>
  </g>
  <g>
    <circle class="cls-1" cx="106.42" cy="90.54" r="2.89"/>
    <path d="M109.33,90.54c-.13,3.97-5.84,3.96-6,0,.07-4.13,5.96-4.15,6,0h0ZM109.28,90.54c-.16-3.48-5.4-3.49-5.55,0,.03,3.65,5.48,3.64,5.55,0h0Z"/>
  </g>
</svg>