<?xml version="1.0" encoding="UTF-8"?>
<svg id="Layer_1" data-name="Layer 1" xmlns="http://www.w3.org/2000/svg" viewBox="0 0 128.18 128.18">
  <defs>
    <style>
      .cls-1 {
        fill: #e0c3a9;
      }
    </style>
  </defs>
  <g>
    <rect class="cls-1" x="56.88" y="22.96" width="14.42" height="82.26"/>
    <path d="M71.32,105.24l-14.44.04c.04-.19-.53-82.5,0-82.51,0,0,14.42-.05,14.42-.05.14,0,.25.11.25.25l-.04,41.21-.19,41.06h0ZM71.28,105.2c.13-19.99-.72-63.21.02-81.99,0,0-14.42-.05-14.42-.05.5-1.3-.02,82.59,0,82,0,0,14.4.04,14.4.04h0Z"/>
  </g>
  <g>
    <polygon class="cls-1" points="91.48 105.22 77.06 105.22 77.06 22.96 91.48 26.57 91.48 105.22"/>
    <path d="M91.49,105.24l-14.44.04c-.17.06-.14-82.29-.2-82.31,0-.13.13-.23.25-.2,0,0,14.42,3.59,14.42,3.59.57,22.68-.08,55.73-.03,78.88h0ZM91.46,105.2c.03-22.8-.59-56.88-.04-78.42,0,0-14.41-3.62-14.41-3.62l.25-.2s-.05,82.48-.2,82.2c0,0,14.4.04,14.4.04h0Z"/>
  </g>
  <g>
    <polygon class="cls-1" points="111.65 105.22 97.23 105.22 97.23 28.7 111.65 36.23 111.65 105.22"/>
    <path d="M111.67,105.24c-.06-.06-14.51.15-14.49-.02,0,0-.15-76.52-.15-76.52,0-.15.17-.26.3-.18,0,0,14.43,7.52,14.43,7.52.08.04.12.12.12.2.09,20-.1,48.73-.2,69h0ZM111.63,105.2c0-19.99-.5-49.9-.09-68.77,0,0-14.41-7.55-14.41-7.55l.3-.18s-.04,76.76-.2,76.46c0,0,14.4.04,14.4.04h0Z"/>
  </g>
  <g>
    <polygon class="cls-1" points="36.71 105.22 51.13 105.22 51.13 22.96 36.71 26.57 36.71 105.22"/>
    <path d="M36.72,105.2l14.4-.04c-.16.33-.15-82.27-.2-82.2,0,0,.25.2.25.2l-14.42,3.62c.55,21.43-.07,55.74-.04,78.42h0ZM36.69,105.24c.06-23.28-.61-56.08-.04-78.88,0,0,14.42-3.59,14.42-3.59.13-.03.25.07.25.2-.05.01-.05,82.36-.2,82.31,0,0-14.44-.04-14.44-.04h0Z"/>
  </g>
  <g>
    <polygon class="cls-1" points="16.53 105.22 30.95 105.22 30.95 28.7 16.53 36.23 16.53 105.22"/>
    <path d="M16.55,105.2l14.4-.04c-.16.36-.15-76.54-.2-76.46,0,0,.3.18.3.18l-14.41,7.55.12-.2c.06,19.93-.08,48.74-.2,68.97h0ZM16.51,105.24c-.1-20.39-.29-48.9-.2-69,0-.09.05-.16.12-.2l14.43-7.52c.13-.07.3.03.3.18-.06.06-.03,76.59-.2,76.58,0,0-14.44-.04-14.44-.04h0Z"/>
  </g>
  <g>
    <rect class="cls-1" x="10.8" y="47.7" width="106.59" height="8.19"/>
    <path d="M10.78,55.92l-.02-8.21c.19.08,106.83-.54,106.83,0,0,0,.03,8.19.03,8.19-26.34.7-80.24-.06-106.83.02h0ZM10.81,55.88c26.57-.15,80.01-.25,106.57-.21,0,0-.23.23-.23.23l.03-8.19c1.3.53-106.86-.07-106.35,0,0,0-.02,8.17-.02,8.17h0Z"/>
  </g>
  <g>
    <rect class="cls-1" x="10.8" y="92.11" width="106.59" height="8.19"/>
    <path d="M10.78,100.32l-.02-8.21c.19.09,106.83-.54,106.83,0,0,0,.03,8.19.03,8.19-26.34.7-80.24-.06-106.83.02h0ZM10.81,100.29c26.57-.15,80.01-.25,106.57-.21,0,0-.23.23-.23.23l.03-8.19c1.3.53-106.86-.07-106.35,0,0,0-.02,8.17-.02,8.17h0Z"/>
  </g>
  <g>
    <circle class="cls-1" cx="104.44" cy="51.8" r="2.82"/>
    <path d="M107.29,51.8c-.12,3.88-5.71,3.87-5.86,0,.07-4.04,5.83-4.06,5.86,0h0ZM107.24,51.8c-.15-3.39-5.27-3.4-5.41,0,.03,3.56,5.35,3.56,5.41,0h0Z"/>
  </g>
  <g>
    <circle class="cls-1" cx="104.44" cy="96.21" r="2.82"/>
    <path d="M107.29,96.21c-.12,3.88-5.71,3.87-5.86,0,.07-4.04,5.83-4.06,5.86,0h0ZM107.24,96.21c-.15-3.39-5.27-3.4-5.41,0,.03,3.56,5.35,3.56,5.41,0h0Z"/>
  </g>
  <g>
    <circle class="cls-1" cx="23.74" cy="51.8" r="2.82"/>
    <path d="M26.59,51.8c-.12,3.88-5.71,3.87-5.86,0,.07-4.04,5.83-4.06,5.86,0h0ZM26.54,51.8c-.15-3.39-5.27-3.4-5.41,0,.03,3.56,5.35,3.56,5.41,0h0Z"/>
  </g>
  <g>
    <circle class="cls-1" cx="23.74" cy="96.21" r="2.82"/>
    <path d="M26.59,96.21c-.12,3.88-5.71,3.87-5.86,0,.07-4.04,5.83-4.06,5.86,0h0ZM26.54,96.21c-.15-3.39-5.27-3.4-5.41,0,.03,3.56,5.35,3.56,5.41,0h0Z"/>
  </g>
</svg>