<?xml version="1.0" encoding="UTF-8"?>
<svg id="Layer_1" data-name="Layer 1" xmlns="http://www.w3.org/2000/svg" viewBox="0 0 128.18 128.18">
  <defs>
    <style>
      .cls-1 {
        fill: #e0c3a9;
      }
    </style>
  </defs>
  <g>
    <rect class="cls-1" x="6.35" y="46.63" width="115.49" height="8.59"/>
    <path d="M121.86,55.24c-.19-.19-115.74.54-115.7-.02,0,0-.01-8.59-.01-8.59,0-.11.09-.2.2-.2,28.78-.07,86.72-.01,115.49.13.04,0,.07.03.07.07l-.06,8.6h0ZM121.82,55.2l-.06-8.57c.43.22-57.75.18-57.67.25.18-.17-58.69.3-57.55-.25,0,0-.01,8.59-.01,8.59-1.22-.53,115.57.16,115.28-.02h0Z"/>
  </g>
  <g>
    <rect class="cls-1" x="6.35" y="77.63" width="115.49" height="8.59"/>
    <path d="M121.86,86.23c-.19-.19-115.74.54-115.7-.02,0,0-.01-8.59-.01-8.59,0-.11.09-.2.2-.2,28.78-.07,86.72-.01,115.49.13.04,0,.07.03.07.07l-.06,8.6h0ZM121.82,86.2l-.06-8.57c.43.22-57.75.18-57.67.25.18-.17-58.69.3-57.55-.25,0,0-.01,8.59-.01,8.59-1.22-.53,115.57.16,115.28-.02h0Z"/>
  </g>
  <g>
    <g>
      <polygon class="cls-1" points="21.84 24.11 15.86 30.66 15.86 104.08 27.56 104.08 27.56 30.66 21.84 24.11"/>
      <path d="M21.84,24.13l-5.94,6.56c.03-.15.14,73.41.16,73.38,0,0-.19-.19-.19-.19l11.69-.02c-.55,1.37-.08-36.84-.25-36.5,0,.05.13-36.95.18-36.64,0,0-5.65-6.6-5.65-6.6h0ZM21.84,24.08l5.79,6.52c.08,0,.15,36.74.18,36.77,0,0-.04,36.71-.04,36.71,0,.11-.09.21-.21.21,0,0-11.69-.02-11.69-.02-.11,0-.19-.09-.19-.19,0,0,.13-73.44.16-73.44,0,0,6.01-6.55,6.01-6.55h0Z"/>
    </g>
    <g>
      <circle class="cls-1" cx="21.71" cy="50.99" r="1.19"/>
      <path d="M22.93,50.99c-.05,1.72-2.5,1.76-2.61,0-.02-1.87,2.66-1.93,2.61,0h0ZM22.88,50.99c-.06-1.25-2.1-1.25-2.16,0-.05,1.39,2.16,1.44,2.16,0h0Z"/>
    </g>
    <g>
      <circle class="cls-1" cx="21.71" cy="81.99" r="1.19"/>
      <path d="M22.93,81.99c-.05,1.72-2.5,1.76-2.61,0-.02-1.87,2.66-1.93,2.61,0h0ZM22.88,81.99c-.06-1.25-2.1-1.25-2.16,0-.05,1.39,2.16,1.44,2.16,0h0Z"/>
    </g>
  </g>
  <g>
    <g>
      <polygon class="cls-1" points="43.1 24.11 37.13 30.66 37.13 104.08 48.82 104.08 48.82 30.66 43.1 24.11"/>
      <path d="M43.1,24.13l-5.94,6.56c.03-.15.15,73.41.16,73.38,0,0-.19-.19-.19-.19l11.69-.02c-.55,1.37-.08-36.84-.25-36.5,0,.05.13-36.95.18-36.64,0,0-5.65-6.6-5.65-6.6h0ZM43.1,24.08l5.79,6.52c.08,0,.15,36.74.18,36.77,0,0-.04,36.71-.04,36.71,0,.11-.09.21-.21.21,0,0-11.69-.02-11.69-.02-.11,0-.19-.09-.19-.19,0,0,.13-73.44.16-73.44,0,0,6.01-6.55,6.01-6.55h0Z"/>
    </g>
    <g>
      <circle class="cls-1" cx="42.98" cy="50.99" r="1.19"/>
      <path d="M44.2,50.99c-.05,1.72-2.5,1.76-2.61,0-.02-1.87,2.66-1.93,2.61,0h0ZM44.15,50.99c-.06-1.25-2.09-1.25-2.16,0-.05,1.39,2.16,1.44,2.16,0h0Z"/>
    </g>
    <g>
      <circle class="cls-1" cx="42.98" cy="81.99" r="1.19"/>
      <path d="M44.2,81.99c-.05,1.72-2.5,1.76-2.61,0-.02-1.87,2.66-1.93,2.61,0h0ZM44.15,81.99c-.06-1.25-2.09-1.25-2.16,0-.05,1.39,2.16,1.44,2.16,0h0Z"/>
    </g>
  </g>
  <g>
    <g>
      <polygon class="cls-1" points="64.37 24.11 58.4 30.66 58.4 104.08 70.09 104.08 70.09 30.66 64.37 24.11"/>
      <path d="M64.37,24.13l-5.94,6.56c.03-.15.14,73.41.16,73.38,0,0-.19-.19-.19-.19l11.69-.02c-.55,1.37-.08-36.84-.25-36.5,0,.05.13-36.95.18-36.64,0,0-5.65-6.6-5.65-6.6h0ZM64.37,24.08l5.79,6.52c.08,0,.15,36.74.18,36.77,0,0-.04,36.71-.04,36.71,0,.11-.09.21-.21.21,0,0-11.69-.02-11.69-.02-.11,0-.19-.09-.19-.19,0,0,.13-73.44.16-73.44,0,0,6.01-6.55,6.01-6.55h0Z"/>
    </g>
    <g>
      <circle class="cls-1" cx="64.24" cy="50.99" r="1.19"/>
      <path d="M65.46,50.99c-.05,1.72-2.5,1.76-2.61,0-.02-1.87,2.66-1.93,2.61,0h0ZM65.41,50.99c-.06-1.25-2.09-1.25-2.16,0-.05,1.39,2.16,1.44,2.16,0h0Z"/>
    </g>
    <g>
      <circle class="cls-1" cx="64.24" cy="81.99" r="1.19"/>
      <path d="M65.46,81.99c-.05,1.72-2.5,1.76-2.61,0-.02-1.87,2.66-1.93,2.61,0h0ZM65.41,81.99c-.06-1.25-2.09-1.25-2.16,0-.05,1.39,2.16,1.44,2.16,0h0Z"/>
    </g>
  </g>
  <g>
    <g>
      <polygon class="cls-1" points="85.64 24.11 79.66 30.66 79.66 104.08 91.36 104.08 91.36 30.66 85.64 24.11"/>
      <path d="M85.64,24.13l-5.94,6.56c.03-.15.14,73.41.16,73.38,0,0-.19-.19-.19-.19l11.69-.02c-.55,1.37-.08-36.84-.25-36.5,0,.05.13-36.95.18-36.64,0,0-5.65-6.6-5.65-6.6h0ZM85.64,24.08l5.79,6.52c.08,0,.15,36.74.18,36.77,0,0-.04,36.71-.04,36.71,0,.11-.09.21-.21.21,0,0-11.69-.02-11.69-.02-.1,0-.19-.09-.19-.19,0,0,.13-73.44.16-73.44,0,0,6.01-6.55,6.01-6.55h0Z"/>
    </g>
    <g>
      <circle class="cls-1" cx="85.51" cy="50.99" r="1.19"/>
      <path d="M86.73,50.99c-.05,1.72-2.5,1.76-2.61,0-.02-1.87,2.66-1.93,2.61,0h0ZM86.68,50.99c-.06-1.25-2.1-1.25-2.16,0-.05,1.39,2.16,1.44,2.16,0h0Z"/>
    </g>
    <g>
      <circle class="cls-1" cx="85.51" cy="81.99" r="1.19"/>
      <path d="M86.73,81.99c-.05,1.72-2.5,1.76-2.61,0-.02-1.87,2.66-1.93,2.61,0h0ZM86.68,81.99c-.06-1.25-2.1-1.25-2.16,0-.05,1.39,2.16,1.44,2.16,0h0Z"/>
    </g>
  </g>
  <g>
    <g>
      <polygon class="cls-1" points="106.9 24.11 100.93 30.66 100.93 104.08 112.62 104.08 112.62 30.66 106.9 24.11"/>
      <path d="M106.9,24.13l-5.94,6.56c.03-.15.14,73.41.16,73.38,0,0-.19-.19-.19-.19l11.69-.02c-.55,1.37-.08-36.84-.25-36.5,0,.05.13-36.95.18-36.64,0,0-5.65-6.6-5.65-6.6h0ZM106.9,24.08l5.79,6.52c.08,0,.15,36.74.18,36.77,0,0-.04,36.71-.04,36.71,0,.11-.09.21-.21.21,0,0-11.69-.02-11.69-.02-.11,0-.19-.09-.19-.19,0,0,.13-73.44.16-73.44,0,0,6.01-6.55,6.01-6.55h0Z"/>
    </g>
    <g>
      <circle class="cls-1" cx="106.78" cy="50.99" r="1.19"/>
      <path d="M108,50.99c-.05,1.72-2.5,1.76-2.61,0-.02-1.87,2.66-1.93,2.61,0h0ZM107.95,50.99c-.06-1.25-2.09-1.25-2.16,0-.05,1.39,2.16,1.44,2.16,0h0Z"/>
    </g>
    <g>
      <circle class="cls-1" cx="106.78" cy="81.99" r="1.19"/>
      <path d="M108,81.99c-.05,1.72-2.5,1.76-2.61,0-.02-1.87,2.66-1.93,2.61,0h0ZM107.95,81.99c-.06-1.25-2.09-1.25-2.16,0-.05,1.39,2.16,1.44,2.16,0h0Z"/>
    </g>
  </g>
</svg>