<?xml version="1.0" encoding="UTF-8"?>
<svg id="Layer_1" data-name="Layer 1" xmlns="http://www.w3.org/2000/svg" viewBox="0 0 282.68 128.18">
  <defs>
    <style>
      .cls-1 {
        fill: #ccc;
      }

      .cls-2 {
        fill: #d7e7c3;
      }
    </style>
  </defs>
  <g>
    <path class="cls-1" d="M195.88,111.93c-1.53-4.17-6.26-4.36-6.26-4.36l-4.57,1.49"/>
    <path d="M195.85,111.94c-.98-2.51-3.64-4.01-6.25-4.12-.29.18-1.57.51-2.21.7-.74.16-1.71.54-2.36.52,1.49-.67,3.01-1.28,4.59-1.71,2.66.24,5.63,2.04,6.23,4.62h0Z"/>
  </g>
  <g>
    <path class="cls-1" d="M192.08,111.31c-.6-9.27-10.23-5.98-10.23-5.98,0,0-3.66.67-5.25,3.25"/>
    <path d="M192.05,111.31c-.22-2.28-1.12-4.74-3.35-5.72-2.11-.95-4.61-.67-6.77-.01-2.02.43-4.04,1.39-5.35,3.02,1.66-3.04,5.55-3.91,8.74-4.03,4.28-.06,6.73,2.72,6.72,6.74h0Z"/>
  </g>
  <g>
    <path class="cls-2" d="M40.18,61.64s14.62-9.14,29.39,1.52,24.29,23.38,35.56,46.38l7.27-.85c.03-12.01-9.8-42.7-30.75-57.71-13.7-9.82-33.18-5.56-40.87,9.43-.2.4-.4.81-.6,1.23Z"/>
    <path d="M40.19,61.62c9.19-5.27,20.73-4.85,29.33,1.42,10.01,7.07,18.35,16.31,24.85,26.68,3.81,6.14,8.16,13.65,10.74,19.65,0,0,7.26-.86,7.26-.86l-.17.19c-.4-9.65-3.7-18.99-7.58-27.76-5.33-11.44-12.83-22.15-23.05-29.7-13.73-10.13-34.23-5.29-41.39,10.39h0ZM40.16,61.65c6.37-14.68,24.71-20.35,38.59-12.73,12.07,7.16,20.38,19.35,26.28,31.82,2,4.42,3.72,8.97,5.07,13.63,1.32,4.66,2.38,9.44,2.48,14.32,0,.09-.07.17-.17.19l-7.27.83c-9.24-18.09-18.6-34.51-35.72-46.54-8.61-6.31-19.99-6.69-29.27-1.51h0Z"/>
  </g>
  <g>
    <path class="cls-2" d="M112.4,108.69s-14.63-13.78-11.01-50.98,25.78-42.22,25.78-42.22c0,0-11.17,8.92-13.18,33.72-2.01,24.8,1.05,54.86,3.56,59.48h-5.16Z"/>
    <path d="M112.39,108.71c-12.56-14.63-12.99-38.76-10.33-56.98,2.4-14.81,9.78-31.4,25.07-36.44.21-.06.35.23.17.35-5.83,5.53-9.05,13.36-11.05,21.03-1.95,7.82-2.38,15.91-2.58,23.96-.28,14.09.19,28.27,2.42,42.2.32,2,.82,4.06,1.49,5.9-.03.02-5.16-.04-5.19-.03h0ZM112.4,108.67l5.15-.04-.05.09c-.87-1.85-1.21-3.87-1.61-5.84-1.09-5.96-1.65-12-2.09-18.04-.57-8.05-.8-16.13-.62-24.21.27-12.06,1.3-24.5,6.79-35.46,1.85-3.59,4.04-7.08,7.08-9.84l.17.35c-4.19,1.22-7.93,3.8-11.09,6.77-8,7.7-11.95,18.58-13.8,29.32-2.7,18.23-2.39,42.16,10.08,56.89h0Z"/>
  </g>
  <g>
    <path class="cls-2" d="M114.76,108.69s-3.76-65.89,36.92-79.68c0,0-14.21,8.92-17.42,30.79-3.2,21.88,1.95,41.38,8.92,47.23l-17.42,1.65h-11.01Z"/>
    <path d="M114.75,108.71c-.6-25.54,4.25-58.65,26.41-74.59,3.25-2.21,6.78-3.96,10.48-5.29.2-.07.35.22.16.33-11.74,8.46-17.26,23.14-17.99,37.22-.73,10.62.1,21.58,3.86,31.61,1.31,3.29,3.02,6.53,5.65,8.92.11.09.04.29-.1.29,0,0-17.42,1.59-17.43,1.59,0,0-11.02-.08-11.02-.08h0ZM114.78,108.67l10.99-.08s17.41-1.72,17.4-1.72c0,0-.09.3-.09.3-2.72-2.44-4.46-5.7-5.81-9.02-5.86-15.33-5.8-37.62.97-52.65,3.04-6.49,7.45-12.45,13.35-16.65l.16.33c-3.67,1.31-7.17,3.03-10.4,5.22-22.11,15.82-27.01,48.83-26.56,74.27h0Z"/>
  </g>
  <g>
    <path class="cls-2" d="M143.19,107.04s-1.95-26.2-11.15-40.41c0,0,15.33,11.15,15.74,35.53,0,0-.41-48.84-7.87-54.34,0,0,13.86,12.4,14.14,35.95,0,0,2.65-39.15,26.2-55.46,0,0-15.33,26.2-15.88,54.9,0,0,12.26-45.42,31.21-49.74,0,0-25.08,24.11-19.51,67.3,0,0,5.99-51,41.8-59.5,0,0-30.51,59.88-38.87,67.42l-35.81-1.65Z"/>
    <path d="M143.17,107.05c-1.51-13.89-3.9-28.26-11.17-40.4-.04-.05.03-.11.07-.07,7.15,5.84,11.81,14.32,14.16,23.16,1.01,4.04,1.49,8.26,1.64,12.41-.59-8.85-.57-18.61-1.54-27.73-.68-6.89-1.39-13.85-3.32-20.52-.69-2.13-1.42-4.5-3.16-6,0,0,.14-.18.14-.18,9.41,9.43,13.97,22.88,14.2,36.03,0,0-.27,0-.27,0,1.27-13.09,4.68-26.1,10.89-37.73,3.79-6.94,8.83-13.3,15.35-17.85.14-.1.33.07.24.22-4.65,8.39-8.29,17.35-11.07,26.52-2.41,7.98-4.09,16.38-4.59,24.7,0,0-.18,3.59-.18,3.59l-.38-.05c1.38-4.88,3-9.68,4.8-14.42,4.73-11.82,13.21-31.97,26.55-35.48.2-.05.36.22.2.37-4.14,4.32-7.53,9.37-10.36,14.66-5.65,10.53-8.97,22.53-9.63,34.45-.27,2.58-.16,6.39-.14,9.01-.02.55.04,1.7.11,2.25.14,1.51.46,5.2.6,6.74,0,0-.47,0-.47,0,2.43-15.82,7.84-31.66,18.01-44.22,6.14-7.48,14.5-13.21,23.98-15.44.15-.04.29.13.21.27-11.37,21.52-22.23,43.45-35.85,63.65-1,1.29-1.94,2.7-3.19,3.76,0,0-35.82-1.71-35.82-1.71h0ZM143.21,107.02l35.8,1.6c.92-.96,2.17-2.43,3.05-3.7,13.56-20.23,24.35-42.19,35.65-63.73,0,0,.21.27.21.27-3.09.81-6.12,1.86-8.98,3.3-20.08,10.52-29.26,34.79-32.63,56.04-.02.27-.45.3-.47,0,0,0-.4-4.51-.4-4.51-.1-1.31-.34-3.22-.31-4.52-.03-2.65-.13-6.45.14-9.06.67-11.99,4.01-24.05,9.7-34.63,2.86-5.32,6.25-10.38,10.46-14.76l.2.37c-13.15,3.48-21.59,23.52-26.27,35.21-1.8,4.72-3.43,9.52-4.8,14.38-.05.22-.4.18-.38-.05,0,0,.18-3.61.18-3.61.81-13.21,4.46-26.18,9.49-38.37,1.86-4.44,3.91-8.8,6.26-13l.24.22c-4.3,3.01-8,6.82-11.08,11.06-9.09,12.92-13.47,28.69-15.08,44.26,0,.16-.27.16-.27,0-.1-1.64-.11-3.29-.28-4.93-1.12-11.39-5.66-22.76-13.8-30.94-.11-.08.03-.27.14-.18,4.79,4.48,5.75,20,6.54,26.68.73,9.22,1.37,18.66,1.27,27.83-.37-3.24-.36-6.75-1.17-10.01,0,0-.52-2.45-.52-2.45-2.32-8.81-6.96-17.29-14.08-23.11,0,0,.07-.07.07-.07,7.25,12.14,9.66,26.55,11.12,40.42h0Z"/>
  </g>
  <g>
    <path class="cls-2" d="M177.6,106.9s3.2-30.38,26.06-46.82"/>
    <path d="M177.58,106.89c1.72-12.45,6.29-24.73,13.76-34.87,1.12-1.67,3.08-3.76,4.43-5.28.8-.76,2.97-2.81,3.76-3.55.91-.69,3.19-2.5,4.14-3.13-.84.8-3.09,2.6-3.96,3.33-12.22,11.27-19.57,27.37-22.14,43.5h0Z"/>
  </g>
  <g>
    <path class="cls-2" d="M171.33,108.34s-7.52-13.98,1.67-39.84"/>
    <path d="M171.31,108.35c-5.33-12.48-3.09-27.58,1.7-39.87.07.02-1.43,4.89-1.41,4.92-3,11.27-4.74,23.97-.29,34.95h0Z"/>
  </g>
  <g>
    <path class="cls-2" d="M160.88,77.19s-4.32,18.98-1.67,26.22"/>
    <path d="M160.91,77.2c-.87,4.33-1.54,8.7-1.97,13.09-.29,4.36-.76,8.83.29,13.12.01.03-.04.05-.05.02-1.59-4.19-1.1-8.83-.65-13.18.55-4.33,1.26-8.97,2.37-13.04h0Z"/>
  </g>
  <path d="M154.08,83.77c.03,4.08.53,8.25-.03,12.28-.49-4-.15-8.4.03-12.28h0Z"/>
  <g>
    <path class="cls-2" d="M164.37,83.21s-2.79,15.05,0,22.99"/>
    <path d="M164.39,83.22c-1.07,7.58-1.7,15.44,0,22.98,0,.03-.04.05-.05.02-1.46-3.62-1.56-7.64-1.38-11.48.21-3.81.59-7.94,1.42-11.51h0Z"/>
  </g>
  <g>
    <path class="cls-2" d="M128.84,60.08s-10.03,24.94,5.17,47.83"/>
    <path d="M128.86,60.09c-5.46,15.71-3.65,33.67,5.17,47.8.02.03-.02.05-.04.03-9.66-13.68-10.86-32.5-5.13-47.83h0Z"/>
  </g>
  <g>
    <path class="cls-2" d="M111.84,39.88s-11.71,31.14,1.56,68.81"/>
    <path d="M111.86,39.89c-6.56,20.86-5.79,43.73.33,64.6,0,0,1.23,4.2,1.23,4.2.01.03-.04.05-.05.02-4.02-10.97-6.27-22.6-6.44-34.3-.2-11.58,1.12-23.7,4.93-34.51h0Z"/>
  </g>
  <path d="M62.11,52.49c5.12.25,10,2.45,14.24,5.21,6.19,3.94,11.11,9.55,15.36,15.47,6.21,9.03,10.63,19.28,13.89,29.67-3.82-10.17-8.13-20.36-14.24-29.43-6.86-9.89-16.87-19.66-29.25-20.91h0Z"/>
  <path d="M142,110.61c-6.71-.68-14.4-1.29-21.13-1.4-7.02-.01-14.16-.08-21.05,1.4-.03.01-.05-.04-.02-.05,10.23-2.84,21.19-1.79,31.66-1.13,2.57.28,8.14.73,10.53,1.17h0Z"/>
  <g>
    <path class="cls-2" d="M179,108.69s14.71,3.24,23.13,4.17"/>
    <path d="M179,108.67c7.43,1.52,15.64,2.8,23.12,4.16-7.59-.33-15.76-2.44-23.12-4.16h0Z"/>
  </g>
  <g>
    <path class="cls-1" d="M95.28,107.3c-.29,0-.57.04-.85.11-1.56.41-6.87,1.93-6.48,3.59.45,1.95,2.55,2.85,5.26,2.85s6.46-1.24,7.36-3.28c.87-1.96-1.74-3.27-5.29-3.28Z"/>
    <path d="M95.28,107.33c-1.89.24-3.74.98-5.44,1.8-.72.42-1.83.92-1.75,1.87.22.91.9,1.62,1.73,2.03,1.12.54,2.42.67,3.67.63,6.29-.23,11.11-5.71,1.79-6.33h0ZM95.28,107.28c9.97.17,5.14,6.79-1.78,6.78-1.89.01-4.2-.32-5.3-2.06-.36-.57-.6-1.4-.06-1.92,1.43-1.37,3.44-1.8,5.26-2.39.55-.17,1.32-.36,1.89-.4h0Z"/>
  </g>
  <g>
    <path class="cls-1" d="M89.3,108.68c-.57-.04-1.14.04-1.68.22-1.6.54-5.2,1.94-4.91,3.46.37,1.95,2.09,2.85,4.3,2.85s5.28-1.24,6.02-3.28c.66-1.82-1.14-3.09-3.74-3.26Z"/>
    <path d="M89.29,108.7c-1.12-.11-2.17.4-3.19.82-1,.46-2.03.96-2.79,1.72-.91.76-.29,2.04.41,2.72,1.65,1.45,4.21,1.2,6.13.42,4.13-1.64,4.26-5.26-.55-5.69h0ZM89.3,108.65c2.32,0,5.36,1.54,3.53,4.19-1.45,1.85-3.88,2.63-6.16,2.56-1.68-.03-3.62-.92-4.03-2.71-.47-1.86,2.14-2.66,3.43-3.27,1.04-.37,2.09-.87,3.23-.77h0Z"/>
  </g>
</svg>