<?xml version="1.0" encoding="UTF-8"?>
<svg id="Layer_1" data-name="Layer 1" xmlns="http://www.w3.org/2000/svg" viewBox="0 0 282.68 128.18">
  <defs>
    <style>
      .cls-1 {
        fill: #ccc;
      }

      .cls-1, .cls-2, .cls-3 {
        stroke: #000;
        stroke-linecap: round;
        stroke-linejoin: round;
        stroke-width: .5px;
      }

      .cls-2 {
        fill: none;
      }

      .cls-3 {
        fill: #d7e7c3;
      }
    </style>
  </defs>
  <g>
    <path class="cls-1" d="M94.88,103.55s.54-4.53,5.14-4.53,7.55,5.18,7.76,7.33h-13.32l.42-2.8Z"/>
    <path class="cls-3" d="M175.75,106.35s4.59-32.97,41.48-37.12c0,0-19.43-8.3-38.86,15.28,0,0,15.5-33.19,45.2-34.28,0,0-34.28-21.18-64.41,35.81,0,0,6.11-35.15,38.65-55.46,0,0-40.61,8.95-54.58,61.79,0,0-6.11-46.51,18.56-85.81,0,0-29.04,16.16-27.95,77.29,0,0-8.52-54.15-44.76-77.29,0,0,33.41,38.65,36.24,83.4,0,0-15.07-36.68-46.72-46.07,0,0,29.63,19.73,36.24,51.09,0,0-20.31-27.95-28.6-30.13,0,0,22.27,19,22.27,41.48h67.25Z"/>
    <path class="cls-2" d="M162.4,106.35s6.36-32.65,38.31-53.85"/>
    <path class="cls-3" d="M148.86,103.05s-3.42-28.21,22.17-53.31"/>
    <line class="cls-3" x1="143.22" y1="92.38" x2="143.22" y2="104.02"/>
    <path class="cls-3" d="M128.97,85.93s2.45,11.25,1.96,17.12"/>
    <path class="cls-3" d="M122.78,104.02s-1.63-15.65-10.76-28.37"/>
    <path class="cls-3" d="M106.47,89.84s4.89,8.15,5.54,13.21"/>
    <path class="cls-3" d="M114.84,95s1.93,4.02,2.56,8.05"/>
    <path class="cls-3" d="M143.22,44.08s-3.8,15.16-3.63,28.41"/>
    <path class="cls-1" d="M88.42,106.35s0-3.62,3.23-3.62,4.81,1.74,5.08,3.62h-8.31Z"/>
    <path class="cls-3" d="M133.83,83.86s1.42,5.67,1.42,7.95"/>
  </g>
  <path d="M175.75,106.5c4.18.05,8.37-.04,12.55-.27,3.5-.2,6.98-.55,10.49-.65,6.84-.21,13.7.04,20.52.55,3.56.26,7.12.6,10.66,1.07.19.03.19-.28,0-.3-6.56-.86-13.17-1.34-19.78-1.56-3.38-.12-6.77-.16-10.16-.08-3.39.07-6.75.37-10.12.59-4.71.3-9.43.42-14.15.37-.19,0-.19.3,0,.3h0Z"/>
  <path d="M132.16,115.37c14.37-.91,28.78-1.14,43.18-.67,4.05.13,8.1.32,12.15.56.19.01.19-.29,0-.3-14.37-.85-28.79-1.02-43.18-.49-4.05.15-8.1.35-12.15.61-.19.01-.19.31,0,.3h0Z"/>
  <path d="M92.61,113.46c2.62-.47,5.23-1.17,7.9-.91,1.69.16,3.35.52,5.02.74,1.52.2,3.04.3,4.57.4,2.13.15,4.26.36,6.36.75.19.03.27-.25.08-.29-3.46-.63-6.96-.67-10.45-1.09-2.81-.33-5.61-1.14-8.46-.79-1.72.21-3.41.6-5.11.9-.19.03-.11.32.08.29h0Z"/>
  <path d="M42.62,107.19c4.54-.17,9.1-.02,13.65,0,2.1.01,4.19.03,6.29-.03,4.04-.12,8.06-.43,12.09-.66,4.59-.26,9.19-.37,13.77,0,.19.02.19-.28,0-.3-8.1-.66-16.19.27-24.28.6-4.88.2-9.78.07-14.67.05-2.28-.01-4.57-.05-6.85.04-.19,0-.19.31,0,.3h0Z"/>
  <path d="M211.96,114.6c9.35.09,18.71.18,28.06.28l7.95.08c.19,0,.19-.3,0-.3-9.35-.09-18.71-.18-28.06-.28-2.65-.03-5.3-.05-7.95-.08-.19,0-.19.3,0,.3h0Z"/>
  <path d="M35.66,115.26c.51-.17,1.02-.34,1.52-.55.17-.07.35-.18.54-.21.21-.02.47.06.68.09.52.08,1.05.13,1.58.18,1.72.16,3.43.32,5.15.47,4.58.4,9.17.77,13.76.93,1.94.07,3.91.14,5.85-.04.19-.02.19-.32,0-.3-3.95.37-8.02-.02-11.97-.29-4.15-.28-8.29-.65-12.42-1.04-.58-.06-1.17-.11-1.75-.19-.27-.04-.56-.13-.84-.12-.18,0-.32.07-.49.14-.56.24-1.12.44-1.69.63-.18.06-.1.35.08.29h0Z"/>
  <path class="cls-1" d="M196.9,109.73s-4.04,1.34-3.31,2.53,1.86,2.33,3.31,2.23,4.24-.85,4.14-1.87-.93-3.09-4.14-2.89Z"/>
  <path class="cls-1" d="M201.8,108.99s-4.04,1.33-3.32,2.52c.72,1.2,1.86,2.34,3.31,2.24,1.45-.1,4.24-.84,4.14-1.86s-.92-3.1-4.13-2.9Z"/>
  <path class="cls-1" d="M77.94,113.42s-3.42,1.78-2.48,2.75,4,.96,4.81.52,2.48-1.14,1.67-2.11-2.87-1.85-4-1.17Z"/>
  <path class="cls-1" d="M122.4,115.57s-2.96.77-2.67,1.92,2.36,1.94,3.06,1.74,2.09-.42,1.89-1.53-1.27-2.48-2.29-2.13Z"/>
</svg>