<?xml version="1.0" encoding="UTF-8"?>
<svg id="Layer_1" data-name="Layer 1" xmlns="http://www.w3.org/2000/svg" viewBox="0 0 282.68 128.18">
  <defs>
    <style>
      .cls-1 {
        fill: #ccc;
      }

      .cls-1, .cls-2, .cls-3 {
        stroke: #000;
        stroke-linecap: round;
        stroke-linejoin: round;
        stroke-width: .5px;
      }

      .cls-2 {
        fill: none;
      }

      .cls-3 {
        fill: #d7e7c3;
      }
    </style>
  </defs>
  <path class="cls-2" d="M123.09,107.65s13.68-.53,19.16-.82c5.49-.29,26.59-.4,31.13.41"/>
  <path class="cls-3" d="M59.55,103.69s-2.11-3.8,3.22-6.53c5.32-2.73,9.28-1.4,11.6-2.75s3.96-.99,6.01-5.13l.59,16.26s-10.35-.4-14.06-.88-7.36-.97-7.36-.97Z"/>
  <path class="cls-3" d="M184.95,104.53s46.82-.59,52.27,0"/>
  <path class="cls-1" d="M67.95,76.67s-4.52,10.62-2.46,19.38c2.05,8.76,6.42,9.58,6.42,9.58l113.04-1.09s1.77-9.71-7.78-18.88c0,0-9.87-2.94-16.36-3.51,0,0-12.45-10.66-22.41-13.86-9.97-3.2-14.77-3.64-21.17-3.08,0,0-8.56,2.2-10.14,2.06-1.59-.14-9.23-3.06-15.65-2.62-6.42.44-21.02,8.74-23.48,12.03Z"/>
  <g>
    <path class="cls-3" d="M114.45,79.03s-4.43-6.99-8.76-3.83-8,8.58-9.16,12.16-2.42,13.66-2.42,13.66c0,0,1.92-10.25,6.83-15.99,4.91-5.75,6.41-7.58,6.41-7.58,0,0,4.25,3.58,5.83,9.33,1.58,5.75,7.32,18.37,7.32,18.37l-1.08-20.71-4.99-5.42Z"/>
    <line class="cls-3" x1="107.35" y1="77.45" x2="108.92" y2="75.89"/>
  </g>
  <path class="cls-3" d="M120.51,105.16s-6.94-57.13-41.82-75.01c0,0,29.96,15.87,41.36,41.59,0,0-6.71-48.52-20.68-60.82,0,0,22.25,19.9,27.39,52.32,0,0-.45-39.13,6.71-56.34,0,0-4.47,43.6,6.26,68.64,0,0,9.84-48.52,6.71-63.95,0,0,6.04,23.25,3.58,43.38,0,0,8.5-21.02,24.15-28.17,0,0-15.87,19.45-18.78,34.21,0,0,15.43-21.91,31.53-28.4,0,0-17.89,13.19-28.4,42.93,0,0,9.84-16.1,16.99-16.55,7.15-.45,7.83-.67,8.72.67s10.51,26.38,9.61,42.26c0,0-6.86-28.12-15.89-37.27,0,0-14.15,12.4-18.86,29.1l-1.4,11.22-37.17.19Z"/>
  <path class="cls-2" d="M110.61,62.96s13.22,25.25,13.22,40.07"/>
  <path class="cls-3" d="M118.66,49.04s5.17,11.78,8.85,53.99"/>
  <path class="cls-3" d="M120.05,71.73c2.1,8.2,3.23,21.25,3.79,31.3"/>
  <path class="cls-3" d="M126.76,63.23s1.95,37.06,3.44,39.8"/>
  <path class="cls-3" d="M139.72,75.53s-5.85,21.59-6.05,27.5"/>
  <path class="cls-3" d="M131.29,57.54s.89,22.67,3.9,36.39"/>
  <path class="cls-3" d="M150.01,54.96s-9.17,21.08-10.86,48.07"/>
  <path class="cls-3" d="M155.37,61s-5.74,16.15-5.37,28.28"/>
  <path class="cls-3" d="M150.01,65.2s-6.09,25.65-5,37.83"/>
  <path class="cls-3" d="M169.37,68.28s-13.92,17.2-18.29,34.75"/>
  <path class="cls-3" d="M162.61,56.65s-10.18,19.16-12.35,26.48"/>
  <path class="cls-3" d="M144.92,101.49s6.4-17.32,13.59-25.96"/>
  <path class="cls-3" d="M186.97,73.85s-4.39-11.51-8.77-15.04"/>
  <path class="cls-3" d="M177.94,64.64s-2.28-2.75-4.56-5.13"/>
  <path class="cls-1" d="M147.6,107.94c3.36.47,10.54.91,15.34-2.81.78-.61,1.21-1.59,1.16-2.61-.1-1.98-.66-5.28-3.2-6.82-3.75-2.29-10.56,1.62-11.98,3.7-.99,1.45-2.29,4.03-2.89,6.04-.34,1.15.42,2.34,1.56,2.49Z"/>
  <path class="cls-1" d="M159.88,104.19s-.71,4.25,4.47,3.34c5.18-.91,5.55-3.11,4.62-4.34-.93-1.23-2.04-2.29-4.36-2.14-2.32.15-4.02,1.61-4.73,3.14Z"/>
  <path class="cls-2" d="M90.48,73.13s8.73-1.11,16.6-5.87"/>
  <path class="cls-3" d="M181.46,105.63s1.65-3.45-10.57-13.67c0,0,6.24,1.06,12.91,9.54,0,0,4.07-13.05,13.95-14.11,0,0-8.23,7.64-9.45,12.69,0,0,5.89-3.96,10.4-2.49,0,0-8.41,3.08-9.97,8.04h-7.28Z"/>
  <path class="cls-3" d="M186.4,103.18s.57-1.69,1.91-3.11"/>
  <path class="cls-3" d="M183.8,101.49s.76,1.28.71,2.16"/>
  <path class="cls-3" d="M220.33,103.92s.59-7.58-7.1-13.5c0,0,4.96.05,8.81,7.05,0,0,1.17-12.06-.53-15.59,0,0,4.06,2.73,3.52,14.63,0,0,4.64-4.54,8.7-4.81,0,0-7.29,5.87-7.82,12.22h-5.57Z"/>
  <path class="cls-3" d="M223.01,101.63s.6-3.18,2.01-5.12"/>
  <path class="cls-3" d="M222.04,97.46s.38.99.43,1.61"/>
  <path class="cls-3" d="M52.77,103.62s-3.25-8.77-7.31-12.36c0,0,2.79.23,8.65,7.33,0,0-1.97-10.06-7.37-15.67,0,0,4.49,1.42,10.1,12.53,0,0,2.27-9.61,6.42-13.01,0,0-4.47,13.37-3.03,18.61l.46,2.57h-7.92Z"/>
  <path class="cls-2" d="M71.91,105.63s-11.33-2.96-25.64-1.56"/>
  <path class="cls-1" d="M191.9,106.84c-.29.38-1.18,3.13,8.04,2.99,9.22-.15,20.77-1.47,22.52-2.99s2.86-5.15-3.86-6.21-22.5.65-26.71,6.21Z"/>
  <path class="cls-3" d="M182.24,111.3s9.37-1.69,15.79-1.47"/>
  <path class="cls-3" d="M195.96,107.39s18.59-.3,22.94-1.4"/>
  <path class="cls-3" d="M197.14,118.01s4.87-1.11,23.68,0"/>
  <path class="cls-1" d="M184.16,118.83s-5.72,0-5.05-1.07,2.8-1.16,4.47-.73,2.36,1.92.59,1.8Z"/>
  <path class="cls-2" d="M95.72,114.02s18.89,1.57,26.22,1.07c7.33-.5,33.12-2.89,38.28-1.82"/>
  <path class="cls-3" d="M142.08,121.29s8.84-1.49,11.24-1.4"/>
  <path class="cls-1" d="M81.26,118.98s5.06.61,7.88.51c2.82-.1,8.72-.72,5.39-2.51-3.33-1.8-8.77-.46-9.95-.26-1.18.21-4.63,1.29-3.32,2.26Z"/>
  <path class="cls-3" d="M59.8,111.02s18.78-.15,22.52.62"/>
  <path class="cls-3" d="M54.11,98.58s1.24,3.21,1.24,5.04"/>
  <path class="cls-3" d="M56.83,95.45s.81,6.15,1.21,8.18"/>
</svg>