<?xml version="1.0" encoding="UTF-8"?>
<svg id="Layer_1" data-name="Layer 1" xmlns="http://www.w3.org/2000/svg" viewBox="0 0 282.68 128.18">
  <defs>
    <style>
      .cls-1 {
        fill: #d7e7c3;
      }
    </style>
  </defs>
  <g>
    <g>
      <path class="cls-1" d="M104.37,120.9s1.64-14.27-10.12-25.15c0,0,12.38-3.68,20.4,25.15h-10.28Z"/>
      <path d="M104.35,120.91c.39-6.99-1.64-14.08-5.65-19.8-1.29-1.94-2.91-3.63-4.56-5.25-.07-.06-.08-.17-.01-.23,2.61-.68,5.28.4,7.47,1.75,3.32,2.31,5.86,5.64,7.75,9.17,2.45,4.34,4.12,9.51,5.48,14.3.03.11-.05.22-.16.22-3.47-.02-6.93-.1-10.3-.15h0ZM104.39,120.88l10.26-.15-.16.22-1.33-4.16c-1.18-3.38-2.52-6.86-4.26-10-2.88-5.28-7.86-11.85-14.61-10.89,0,0,.06-.28.06-.28,6.85,6.38,10.73,15.91,10.03,25.26h0Z"/>
    </g>
    <g>
      <path class="cls-1" d="M101.52,100.98s5.05,3.53,5.76,10.49"/>
      <path d="M101.53,100.96c3.24,2.41,5.9,6.39,5.74,10.53-.88-3.94-2.69-7.96-5.74-10.53h0Z"/>
    </g>
    <g>
      <path class="cls-1" d="M97.55,119.96s-7.68-22.41-8.14-32.68c-.46-10.28,2-25.2,4.07-28.26,0,0-12.68,8.92-11.14,36.73,0,0-10.83-21.8-19.97-29.14,0,0,19.93,37.35,17.1,54.3l18.08-.94Z"/>
      <path d="M97.53,119.94c-1.68-4.89-3.21-9.9-4.62-14.91-2.04-7.52-4.07-15.22-3.6-23.08.19-5.21.76-10.41,1.75-15.53.57-2.55,1-5.17,2.3-7.49,0,0,.19.19.19.19-1.28,1-2.38,2.25-3.36,3.56-2.98,3.95-4.87,8.63-6.07,13.4-1.63,6.3-1.88,13.15-1.59,19.64,0,.11-.08.2-.18.2-4.33-7.67-8.56-15.74-14.1-22.73-1.83-2.31-3.75-4.57-6.03-6.43l.35-.29c6.56,12.8,12.55,26.06,15.92,40.1,1.03,4.67,1.85,9.52,1.11,14.33l-.14-.15,18.07-.82h0ZM97.57,119.97l-18.1,1.06c-.07,0-.13-.05-.14-.12.69-4.75-.14-9.58-1.2-14.23-3.48-13.95-9.48-27.18-15.97-39.96-.11-.21.16-.45.35-.29,4.56,3.86,7.95,8.84,11.2,13.79,3.2,4.99,6.12,10.15,8.8,15.44,0,0-.37.1-.37.1-.27-6.54,0-13.4,1.66-19.74,1.66-6.35,4.45-12.81,9.59-17.11.12-.09.29.07.19.19-1.26,2.23-1.72,4.89-2.28,7.38-1.01,5.1-1.6,10.29-1.81,15.49-.5,7.85,1.5,15.52,3.51,23.04,1.38,5.03,2.91,9.98,4.56,14.97h0Z"/>
    </g>
    <g>
      <path class="cls-1" d="M89.61,104.34s.68,11.64,3.98,15.61"/>
      <path d="M89.63,104.34c.61,5.33,1.39,10.89,3.97,15.63-1.94-1.95-2.59-4.89-3.1-7.52-.45-2.63-.91-5.59-.87-8.11h0Z"/>
    </g>
    <g>
      <path class="cls-1" d="M69.68,40.32s-.41-16.08,23.86-16.25c0,0-9.11,20.5-23.86,16.25Z"/>
      <path d="M69.66,40.33c.11-5.46,3.61-10.39,8.32-12.95,4.63-2.68,10.29-3.33,15.55-3.51.15-.01.26.15.19.28-4.18,8.96-13.02,19.61-24.06,16.18h0ZM69.7,40.3c10.94,2.85,19.34-7.57,23.65-16.31,0,0,.19.28.19.28-10.56-.04-22.91,3.76-23.84,16.03h0Z"/>
    </g>
    <path d="M79.46,120.87c1.18-.91-3.9-3.63-4.67-4.1-6.05-3.1-10.96-8.2-13.84-14.36-5.61-12.44-4.8-26.83-2.05-39.89.35-1.96,1.34-4.57,1.87-6.51.4-.96,1.5-3.77,1.9-4.72,4.04-8.53,10.43-16.87,18.95-20.95-8.45,4.57-14.52,12.57-18.5,21.16-.38.95-1.49,3.68-1.88,4.68-.53,1.95-1.5,4.51-1.86,6.46-2.83,12.96-3.71,27.27,1.8,39.67,2.83,6.14,7.67,11.25,13.67,14.38.9.51,6.08,3.49,4.62,4.18h0Z"/>
    <g>
      <path class="cls-1" d="M65.6,46.61s-11.11-9.67-5.82-25.94c0,0,13.79,8.54,5.82,25.94Z"/>
      <path d="M65.6,46.63c-7.03-6.53-9-17.09-6.01-26.03.03-.13.19-.18.29-.11,4.54,3.11,7.86,8.21,8.29,13.73.25,2.08-.03,4.33-.41,6.38l-.25.88c-.39,1.72-1.23,3.57-1.91,5.14h0ZM65.59,46.58c1.79-4.48,2.91-9.3,1.84-14.07-.93-4.69-3.88-8.94-7.76-11.68,0,0,.29-.11.29-.11-3.06,8.81-1.16,19.27,5.63,25.86h0Z"/>
    </g>
    <g>
      <path class="cls-1" d="M61.57,55.3s7.52-12.69,23.68-10.6c0,0-10.77,15.63-23.68,10.6Z"/>
      <path d="M61.54,55.3c4.89-7.75,15.03-12.51,23.91-10.6-5.12,7.35-14.63,14.55-23.91,10.6h0ZM61.59,55.29c9.24,3.33,18.19-3.66,23.49-10.7,0,0,.14.31.14.31-1.13-.07-2.26-.24-3.39-.23-7.97-.18-15.81,4.01-20.24,10.62h0Z"/>
    </g>
    <g>
      <path class="cls-1" d="M58.89,64.18s-12.33-4.85-10.76-26.85c0,0,15.09,5.27,10.76,26.85Z"/>
      <path d="M58.9,64.2c-9.61-4.89-11.59-17.09-10.97-26.88,0-.13.14-.22.26-.17,5.59,2.27,9.61,7.52,10.96,13.32,1.05,4.42.69,9.3-.25,13.73h0ZM58.88,64.16c.66-4.42.98-9.23-.17-13.58-1.41-5.61-5.24-10.79-10.64-13.06,0,0,.26-.17.26-.17-.72,9.7,1.15,21.79,10.55,26.81h0Z"/>
    </g>
    <g>
      <path class="cls-1" d="M57.01,83.68s2.97-13.4,15.9-18.48c0,0-2.67,18.63-15.9,18.48Z"/>
      <path d="M56.99,83.7c2-7.93,8.22-16.24,16.1-18.58-1.18,8.34-6.29,19.03-16.1,18.58h0ZM57.03,83.67c9.54-.14,14.19-10.34,15.68-18.49,0,0,.27.21.27.21-7.88,3.04-13.71,10.23-15.95,18.28h0Z"/>
    </g>
    <g>
      <path class="cls-1" d="M57.11,85.82s-16.1-1.8-17.43-20.62c0,0,15.91.34,17.43,20.62Z"/>
      <path d="M57.13,85.84c-7.34-1.06-13.82-6.38-16.14-13.43-.42-.95-.72-2.54-.99-3.54-.23-1.2-.33-2.43-.51-3.65-.02-.12.08-.22.2-.21,11.22.91,17.03,10.34,17.45,20.83h0ZM57.1,85.8l-.56-3.63c-.31-1.06-.55-2.55-.95-3.56-2.16-7.01-8.46-12.68-15.9-13.21,0,0,.2-.21.2-.21.16,1.2.25,2.41.46,3.61.26,1.01.54,2.56.94,3.51,2.22,7,8.6,12.3,15.8,13.5h0Z"/>
    </g>
    <g>
      <path class="cls-1" d="M65.75,109.38s-2.33-13.4,6.1-26.8c0,0,6.97,16.72-6.1,26.8Z"/>
      <path d="M65.74,109.41c-.96-6.98.15-14.15,2.78-20.66.85-2.19,1.98-4.25,3.17-6.27.05-.09.17-.12.26-.07,3.8,9.46,2.47,20.73-6.21,27h0ZM65.76,109.36c.77-.78,1.94-1.69,2.6-2.57,5.91-6.43,6.17-16.25,3.31-24.14,0,0,.35.03.35.03-1.2,1.99-2.34,4.02-3.21,6.18-2.68,6.41-3.83,13.58-3.05,20.49h0Z"/>
    </g>
    <g>
      <path class="cls-1" d="M61.9,103.76s-13.5,3.29-22.22-13.93c0,0,14.54-2.62,22.22,13.93Z"/>
      <path d="M61.92,103.77c-10,1.8-18.19-5.43-22.42-13.85-.07-.11,0-.27.14-.29,2.37-.35,4.77-.18,7.08.39,7.17,1.61,12.37,7.19,15.2,13.75h0ZM61.88,103.75c-1.36-2.57-2.95-5.06-4.92-7.18-4.37-4.63-10.87-7.26-17.24-6.54,0,0,.14-.29.14-.29,4.09,8.38,12.12,15.57,22.02,14.01h0Z"/>
    </g>
    <g>
      <path class="cls-1" d="M46.57,93.68s12.2,6.56,14.79,8.96"/>
      <path d="M46.58,93.66c5.01,2.79,10.62,5.03,14.79,9-4.7-3.07-10.11-6.15-14.79-9h0Z"/>
    </g>
    <g>
      <path class="cls-1" d="M73.56,116.3s-10.94,8.7-25.9-3.28c0,0,12.15-8.53,25.9,3.28Z"/>
      <path d="M73.59,116.3c-8.3,5.83-18.72,2.79-26.05-3.12-.11-.07-.11-.25,0-.32,4.48-2.88,10.2-3.78,15.34-2.47,1.12.23,2.29.71,3.36,1.1.5.26,1.89.91,2.37,1.17,0,0,.74.47.74.47,1.47.84,2.96,2.11,4.23,3.16h0ZM73.54,116.3c-1.81-1.35-3.82-2.8-5.86-3.74-4.13-2.04-8.95-2.79-13.49-1.84-2.25.46-4.47,1.28-6.42,2.47v-.32c7.2,5.94,17.46,9.01,25.76,3.44h0Z"/>
    </g>
    <g>
      <path class="cls-1" d="M55.49,113.61s13.78.81,17.11,1.9"/>
      <path d="M55.49,113.58c2.87.1,5.74.26,8.61.49,2.8.25,6.01.37,8.49,1.47-5.54-.86-11.69-1.32-17.1-1.95h0Z"/>
    </g>
    <g>
      <path class="cls-1" d="M70.94,90.26s-2.36,9.27-5.2,19.12"/>
      <path d="M70.97,90.27c-1.52,5.64-3.19,13.76-5.23,19.14.54-3.25,1.48-6.46,2.41-9.63.05.01,2.72-9.69,2.81-9.5h0Z"/>
    </g>
    <g>
      <path class="cls-1" d="M45.11,71.49s10.73,9.35,11.9,13.37"/>
      <path d="M45.12,71.47c2.3,1.93,4.52,3.96,6.65,6.09,2.04,2.14,4.46,4.39,5.24,7.32-2.98-5.13-7.86-9.3-11.89-13.41h0Z"/>
    </g>
    <g>
      <line class="cls-1" x1="57.01" y1="83.68" x2="67.72" y2="71.84"/>
      <path d="M56.99,83.66c3.16-3.5,7.25-8.81,10.75-11.84-1.52,2.17-3.39,4.14-5.23,6.07-.03-.03-5.53,5.98-5.53,5.77h0Z"/>
    </g>
    <g>
      <path class="cls-1" d="M51.06,43.61s6.48,6.8,7.83,20.57"/>
      <path d="M51.08,43.59c4.78,5.62,7.66,13.36,7.79,20.59,0,0-.51-2.74-.51-2.74-1.18-6.32-3.34-12.85-7.28-17.85h0Z"/>
    </g>
    <g>
      <path class="cls-1" d="M61.57,55.3s7.1-6.09,16.22-6.88"/>
      <path d="M61.55,55.28c4.57-3.72,10.21-6.79,16.23-6.89.03,0,.03.05,0,.05-5.83.99-11.6,3.39-16.23,6.84h0Z"/>
    </g>
    <g>
      <path class="cls-1" d="M62.37,28.06s3.28,9.28,3.23,18.55"/>
      <path d="M62.39,28.05c1.98,5.93,3.74,12.3,3.21,18.58-.51-6.22-1.46-12.71-3.21-18.58h0Z"/>
    </g>
    <g>
      <path class="cls-1" d="M82.34,95.74s.5,8.27,2.41,15.23"/>
      <path d="M82.36,95.74c.41,5.06,1.63,10.28,2.38,15.26-1.79-4.76-2.21-10.34-2.38-15.26h0Z"/>
    </g>
    <g>
      <path class="cls-1" d="M79.54,120.92s-11.56-7.87-7.32-23.08c0,0,15.15,8.95,7.32,23.08Z"/>
      <path d="M79.55,120.95c-6.18-4.5-9.37-12.46-8.16-19.98.14-1.07.43-2.12.65-3.18.02-.1.12-.17.22-.15,8.24,4.99,12.81,14.5,7.29,23.3h0ZM79.54,120.9c4.84-8.85.51-17.76-7.41-22.89,0,0,.29-.12.29-.12-.22,1.04-.52,2.07-.67,3.13-1.29,7.41,1.81,15.32,7.79,19.88h0Z"/>
    </g>
    <g>
      <line class="cls-1" x1="74.25" y1="104.87" x2="79.54" y2="120.92"/>
      <path d="M74.28,104.87c1.57,4.73,4.27,11.28,5.27,16.08-1.18-2.55-2.02-5.29-2.84-7.98.05-.01-2.61-8.2-2.43-8.1h0Z"/>
    </g>
    <g>
      <path class="cls-1" d="M104.37,120.9s12.33-23.88-10.12-39.83c0,0,24.87,6.21,22.32,39.83h-12.2Z"/>
      <path d="M104.35,120.91c4.68-10.13,4.72-22.85-2.18-31.98-2.23-2.99-4.98-5.57-8.02-7.72-.08-.05-.11-.17-.05-.25,7.95,1.93,14.92,8.48,18.65,15.71,3.64,7.29,4.96,16.47,3.82,24.38,0,0-12.22-.14-12.22-.14h0ZM104.39,120.88l12.18-.14-.15.14c.44-6.15-.05-12.38-1.82-18.3-2.92-9.79-10.53-18.32-20.4-21.35,0,0,.15-.31.15-.31,3.05,2.19,5.82,4.81,8.05,7.84,6.87,9.17,6.8,22.05,1.99,32.12h0Z"/>
    </g>
    <g>
      <path class="cls-1" d="M116.57,120.9s2.54-5.97,9.36-5.88c0,0-4.58,2.95-5.75,5.88h-3.62Z"/>
      <path d="M116.55,120.91c1.6-3.67,5.38-6.15,9.39-6.09.19-.01.28.25.12.36-2.17,1.58-4.47,3.38-5.69,5.81-.03.07-.1.11-.18.11-1.27-.03-2.5-.13-3.64-.18h0ZM116.59,120.88c1.28-.05,2.45-.15,3.6-.18l-.18.12c1.13-2.66,3.51-4.41,5.82-5.97,0,0,.1.37.1.37-3.9-.17-7.61,2.21-9.34,5.66h0Z"/>
    </g>
    <g>
      <path class="cls-1" d="M110.85,99.49s4.31,11.98-2.33,21.41"/>
      <path d="M110.88,99.48c2.28,6.96,2.42,15.46-2.34,21.43-.02.02-.06,0-.04-.03,3.92-6.36,4.36-14.46,2.38-21.4h0Z"/>
    </g>
    <path d="M129.08,55.7c-.2,2.65-.69,6.41-.77,9.02-.02,1.54-.05,5.3-.07,6.79.1,1.41.39,5.3.5,6.76.44,2.93.81,6.03,1.55,8.9,3.05,13.1,9.59,25.77,19.56,34.92-9.25-7.53-15.48-18.97-18.84-30.44-1.21-4.36-2.03-8.87-2.56-13.35-.1-1.47-.35-5.36-.44-6.79.1-2.57,0-6.5.31-9.06.15-1.5.55-5.23.71-6.76,0-.03.05-.03.05,0h0Z"/>
    <g>
      <path class="cls-1" d="M129.04,56.46s-7.86-7.04-6-21.49c0,0,10.44,1.47,6,21.49Z"/>
      <path d="M129.05,56.48c-4.85-4.84-6.67-11.96-6.43-18.64.04-.96.15-1.93.23-2.89,0-.1.1-.18.2-.17,9.03,2.59,7.8,14.52,6.01,21.71h0ZM129.04,56.44c1.17-7.02,2.52-18.56-6.02-21.27,0,0,.22-.17.22-.17-1,7.49.48,15.8,5.8,21.44h0Z"/>
    </g>
    <g>
      <path class="cls-1" d="M129.48,56.46s-.41-16.15,13.63-21.49c0,0-2.25,21.59-13.63,21.49Z"/>
      <path d="M129.47,56.48c-.06-9.06,4.78-18.45,13.58-21.69.13-.06.29.05.27.2-1.03,7.74-4.07,21.43-13.85,21.49h0ZM129.5,56.44c9.39-.54,12.23-13.94,13.42-21.49,0,0,.27.21.27.21-8.73,3.1-13.56,12.37-13.69,21.28h0Z"/>
    </g>
    <g>
      <path class="cls-1" d="M128.16,73.78s-13.24,1.54-15.13-24.35c0,0,15.13,4.03,15.13,24.35Z"/>
      <path d="M128.17,73.8c-11.58-.21-14.57-15.14-15.35-24.35-.02-.14.12-.25.25-.21,10.53,3.45,15.45,14.05,15.09,24.56h0ZM128.14,73.77c-.16-3.16-.53-6.38-1.47-9.4-2.04-6.6-7.04-12.51-13.69-14.73l.25-.21c.73,9.2,3.41,23.84,14.91,24.34h0Z"/>
    </g>
    <g>
      <path class="cls-1" d="M129.97,87.58s-2.45-15.81,11.95-23.37c0,0-.24,17.62-11.95,23.37Z"/>
      <path d="M129.96,87.6c-.84-6.94,1.22-14.41,6.24-19.39,1.61-1.72,3.61-3,5.63-4.19.09-.05.21-.02.27.07-.27,8.95-3.5,19.36-12.13,23.51h0ZM129.98,87.55c8.2-4.54,11.17-14.54,11.74-23.35,0,0,.3.18.3.18-2,1.15-3.98,2.38-5.58,4.06-5.02,4.85-7.12,12.26-6.45,19.11h0Z"/>
    </g>
    <g>
      <path class="cls-1" d="M133.29,98.4s-15.54,3.68-21.06-20.75c0,0,12.25-4.48,21.06,20.75Z"/>
      <path d="M133.31,98.41c-7.8,1.45-14.79-4.31-17.88-11.06-1.52-2.84-2.58-6.54-3.39-9.67-.03-.1.03-.2.13-.23,5.52-1.49,10.79,2.38,14.01,6.53,3.24,4.21,5.45,9.39,7.14,14.42h0ZM133.26,98.39c-1.44-3.6-3.13-7.55-5.18-10.83-3.31-5.28-8.95-11.3-15.79-9.72,0,0,.13-.23.13-.23.56,2.36,1.51,5.56,2.4,7.78,3.03,7.53,9.7,14.34,18.44,13.01h0Z"/>
    </g>
    <g>
      <path class="cls-1" d="M140.89,112.38s-4.29-14.93,5.06-26.59c0,0,9.86,17.69-5.06,26.59Z"/>
      <path d="M140.88,112.4c-2.22-8.84-1.07-20,5.18-26.78,5.03,9.14,5.06,21.35-5.18,26.78h0ZM140.9,112.35c9.69-5.87,9.55-17.3,4.88-26.47,0,0,.32.03.32.03-5.89,7.31-7.28,17.46-5.2,26.44h0Z"/>
    </g>
    <g>
      <path class="cls-1" d="M115.52,101.65s12.95,18.11,25.38,10.73c0,0-8.32-16.73-25.38-10.73Z"/>
      <path d="M115.54,101.66c4.55,5.67,10.57,11.53,18.15,12.29,2.49.19,4.97-.47,7.11-1.74,0,0-.08.26-.08.26-1.19-2.18-2.76-4.17-4.53-5.92-3.85-3.89-9.18-6.27-14.67-6.01-.33.04-1.97.25-2.33.29-1.1.1-2.56.61-3.65.84h0ZM115.49,101.64c1.1-.29,2.56-.9,3.66-1.05,0,0,1.88-.28,1.88-.28,5.75-.67,11.51,1.78,15.51,5.88,1.78,1.81,3.33,3.84,4.53,6.1.05.09.01.21-.08.26-2.21,1.28-4.78,1.94-7.33,1.72-7.69-.85-13.65-6.77-18.17-12.63h0Z"/>
    </g>
    <g>
      <path class="cls-1" d="M126.45,40.27s2.93,7.88,3.2,13.49"/>
      <path d="M126.47,40.26c1.54,4.32,3.42,8.88,3.18,13.52-.79-4.51-1.88-9.26-3.18-13.52h0Z"/>
    </g>
    <g>
      <path class="cls-1" d="M138.93,42.36s-7.88,8.72-9.28,11.4"/>
      <path d="M138.95,42.38c-3.19,3.73-6.24,7.61-9.31,11.4.96-2.27,2.7-4.15,4.3-6,1.62-1.78,3.34-3.87,5.01-5.4h0Z"/>
    </g>
    <g>
      <path class="cls-1" d="M118.52,59.01s9.28,8.4,9.54,12.86"/>
      <path d="M118.54,58.99c2.04,1.79,3.97,3.7,5.76,5.75,1.69,2.03,3.76,4.39,3.76,7.15-1.61-5.07-6.11-9.15-9.52-12.9h0Z"/>
    </g>
    <g>
      <path class="cls-1" d="M137.84,71.87s-7.07,13.2-7.86,15.7"/>
      <path d="M137.86,71.89c-2.35,4.62-5.5,11.23-7.9,15.71.74-2.83,2.25-5.45,3.62-8.04,1.4-2.52,2.8-5.37,4.28-7.68h0Z"/>
    </g>
    <path d="M117.38,82.11c6.79,3.53,13.06,9.04,15.93,16.28.01.03-.03.05-.05.02-3.64-6.76-9.31-12.6-15.89-16.3h0Z"/>
    <g>
      <path class="cls-1" d="M145.71,91.73s0,13.11-4.81,20.64"/>
      <path d="M145.73,91.73c-.18,7.03-.71,14.69-4.82,20.66-.02.02-.06,0-.04-.03,3.27-6.33,4.42-13.74,4.86-20.63h0Z"/>
    </g>
    <g>
      <path class="cls-1" d="M122.47,104.34s7.81,5.74,17.45,6.63"/>
      <path d="M122.48,104.32c5.23,3.49,11.28,5.5,17.43,6.63.03,0,.03.05,0,.05-6.26-.17-12.59-3.09-17.43-6.68h0Z"/>
    </g>
    <g>
      <path class="cls-1" d="M153.84,122.11s10.06-18.66-11.92-45.26c0,0,18.18,5.28,26.76,28.78,0,0-.54-19.22-8.69-32.9,0,0,15.96,11.4,17.37,36.59,0,0,4.23-12.38,10.53-16.18,0,0-6.73,11.21-6.52,27.76l-27.54,1.21Z"/>
      <path d="M153.82,122.12c3.75-8.58,2.38-18.42-.82-26.94-.4-.91-1.48-3.32-1.87-4.21-.49-.88-1.71-3.14-2.21-4.04-1.05-1.75-2.23-3.43-3.33-5.15l-3.75-4.86s-.03-.12.01-.15c7.24,2.38,13.5,7.51,18.31,13.36.94,1.06,2.18,2.93,3.02,4.09,2.27,3.52,4.16,7.46,5.66,11.35,0,0-.31.06-.31.06-.13-2.85-.44-5.69-.85-8.52-1.28-8.44-3.54-16.86-7.85-24.28-.12-.17.12-.42.29-.27,2.78,2.16,5.13,4.76,7.23,7.55,4.17,5.57,7.14,12.09,8.73,18.86.88,3.38,1.23,6.86,1.54,10.33,0,0-.46-.06-.46-.06,1.12-3.09,2.48-6.09,4.14-8.92,1.68-2.82,3.66-5.59,6.49-7.38.19-.13.46.12.33.32-2.31,4.16-3.9,8.76-4.99,13.4-1.09,4.67-1.59,9.45-1.58,14.24,0,.08-.07.15-.15.15l-27.57,1.08h0ZM153.86,122.1c-.07.1,28.18-1.62,27.37-1.2-.07-9.61,1.9-19.37,6.46-27.89,0,0,.33.33.33.33-1.36.85-2.51,2-3.54,3.23-3.07,3.77-5.2,8.28-6.89,12.82-.04.12-.18.19-.3.14-.09-.03-.15-.12-.16-.21-.3-3.44-.64-6.9-1.51-10.25-1.56-6.72-4.5-13.19-8.62-18.71-2.06-2.76-4.41-5.36-7.12-7.47l.29-.27c5.7,10,8,21.61,8.67,33,.01.17-.25.23-.31.07-.65-1.56-1.24-3.15-1.95-4.68-3.55-7.61-8.9-14.52-15.8-19.36-2.75-1.94-5.72-3.62-8.9-4.7l.11-.17c2.29,2.89,5.25,6.93,7.07,10.07.83,1.56,2.18,3.85,2.82,5.47,4.18,9.14,6.16,20.32,1.97,29.79h0Z"/>
    </g>
    <g>
      <path class="cls-1" d="M159.73,98.4s4.46,15.75-.7,22.5"/>
      <path d="M159.75,98.39c1.68,6.78,3.89,16.52-.7,22.52-.02.02-.06,0-.04-.03,3.79-6.81,2.11-15.37.74-22.49h0Z"/>
    </g>
    <g>
      <path class="cls-1" d="M168.68,105.62s1.36,9.6.92,11.52"/>
      <path d="M168.71,105.62c.46,3.78,1.73,7.78.89,11.54-.21-3.79-.66-7.88-.89-11.54h0Z"/>
    </g>
    <g>
      <path class="cls-1" d="M170.56,93.9s2.45,11.79,1.75,18.48"/>
      <path d="M170.59,93.89c1.15,6.04,2.74,12.38,1.72,18.51-.03-6.14-.8-12.57-1.72-18.51h0Z"/>
    </g>
    <g>
      <path class="cls-1" d="M176.59,117.14s-.2-3.51.78-7.83"/>
      <path d="M176.57,117.14c-.12-2.59-.29-5.46.81-7.85-.08,2.58-.71,5.38-.81,7.85h0Z"/>
    </g>
    <path d="M206.47,120.89c2.76-16.91,16.22-30.54,31.92-36.44,5.27-1.97,10.8-3.47,16.34-4.15-5.48,1.11-10.99,2.46-16.16,4.61-15.68,5.81-29.09,19.35-32.1,35.98h0Z"/>
    <g>
      <path class="cls-1" d="M178.88,45.33s-25.14,1.25-30.24-40.15c0,0,32.51,7.08,30.24,40.15Z"/>
      <path d="M178.89,45.35c-9.99-.15-18.38-7.27-23.06-15.66,0,0-.45-.73-.45-.73l-.37-.78c-.49-1.09-1.78-3.59-2.12-4.69-1.44-3.73-2.5-7.61-3.34-11.52,0,0-1.12-6.77-1.12-6.77-.02-.13.11-.26.24-.22,4.48,1.12,8.73,2.98,12.67,5.36,12.48,7.38,18.97,20.62,17.54,35h0ZM178.86,45.31c1.36-20.06-11.39-34.8-30.26-39.93,0,0,.24-.22.24-.22l1.07,6.75c.82,3.89,1.85,7.76,3.26,11.48.33,1.08,1.62,3.61,2.08,4.67.19.45.53,1.1.8,1.5,4.58,8.37,12.91,15.49,22.8,15.75h0Z"/>
    </g>
    <g>
      <path class="cls-1" d="M190.92,69.5s-4.87-26.3,9.67-38.57c0,0,12.86,34.53-9.67,38.57Z"/>
      <path d="M190.9,69.53c-1.96-13.26-1.14-29.25,9.56-38.74.1-.09.26-.05.31.08,1.28,3.6,2.24,7.29,2.92,11.04,2.12,11.1.85,25.6-12.78,27.62h0ZM190.93,69.48c13.34-2.49,14.25-16.47,12.27-27.49-.64-3.73-1.56-7.42-2.8-10.99l.3.08c-10.67,9.34-11.54,25.24-9.78,38.4h0Z"/>
    </g>
    <g>
      <path class="cls-1" d="M186.13,57.96s-10.09-16.58-2.57-39.68c0,0,12.73,14.52,2.57,39.68Z"/>
      <path d="M186.13,57.98c-5.73-10.54-6.7-23.23-4.1-34.82.36-1.67.89-3.29,1.33-4.94.04-.15.25-.2.34-.07,8.72,11.35,7.86,27.25,2.42,39.83h0ZM186.13,57.93c4.84-12.68,5.74-28.16-2.72-39.52,0,0,.34-.07.34-.07-.96,3.25-1.88,6.53-2.29,9.9-1.42,10.02-.04,20.68,4.67,29.69h0Z"/>
    </g>
    <g>
      <path class="cls-1" d="M193.08,76.26s-20.38-4.28-29.65-25.6c0,0,19.83-4.44,29.65,25.6Z"/>
      <path d="M193.1,76.27c-13.21-3.32-24.39-13.12-29.85-25.54-.06-.11.01-.25.14-.27,7.21-1.17,14.49,2.09,19.45,7.21,5.01,5.04,8.09,11.91,10.26,18.59h0ZM193.07,76.24c-3.52-9.73-9.15-20.07-19.26-24.07-3.26-1.28-6.87-1.86-10.33-1.32l.14-.27c5.32,12.38,16.41,22.16,29.45,25.66h0Z"/>
    </g>
    <g>
      <path class="cls-1" d="M196.36,90.29s-21.7,1.38-30.08-20.79c0,0,23.39-1.19,30.08,20.79Z"/>
      <path d="M196.38,90.31c-12.39.42-24.48-7.01-29.29-18.49,0,0-1-2.24-1-2.24-.06-.12.04-.27.17-.27,13.6-.31,26.58,7.39,30.12,21h0ZM196.34,90.28c-4.05-13.25-16.58-20.67-30.05-20.58,0,0,.18-.27.18-.27l.97,2.23c4.68,11.43,16.63,18.84,28.9,18.62h0Z"/>
    </g>
    <g>
      <path class="cls-1" d="M196.36,90.29s.08-19.03,9.21-24.68c0,0,8.49,19.17-9.21,24.68Z"/>
      <path d="M196.35,90.31c.09-7.41,2.14-21.35,9.38-24.81,4.28,10.14,2.54,21.7-9.38,24.81h0ZM196.38,90.27c11.44-3.68,12.99-14.5,9.02-24.59,0,0,.28.09.28.09-7.38,5.02-8.79,16.23-9.29,24.5h0Z"/>
    </g>
    <g>
      <path class="cls-1" d="M214.48,102.53s-17.99-9.36-5.96-35.94c0,0,15.34,6.13,5.96,35.94Z"/>
      <path d="M214.49,102.55c-8.22-4.74-11.49-15.07-9.81-24.06.56-4.03,2.1-8.24,3.66-11.99.04-.1.15-.15.25-.11,6.57,3.27,9.03,11.1,9.16,17.99,0,.8-.11,2.89-.12,3.71-.42,4.77-1.64,9.89-3.13,14.46h0ZM214.47,102.51c1.45-5.41,2.84-11.28,2.78-16.89.07-4.86-.87-9.86-3.53-13.98-1.36-1.97-3.11-3.82-5.28-4.86,0,0,.26-.1.26-.1-1.58,3.7-3.14,7.88-3.72,11.87-1.73,8.93,1.43,19.14,9.49,23.97h0Z"/>
    </g>
    <g>
      <path class="cls-1" d="M222.62,93.9s-10.7-12.67,7.57-35.76c0,0,13.23,18.45-7.57,35.76Z"/>
      <path d="M222.62,93.92c-6.81-10-1.59-22.94,4.53-31.96,0,0,2.89-3.95,2.89-3.95.08-.11.25-.1.32,0,8.22,12.78,3.84,27.02-7.73,35.9h0ZM222.63,93.87c11-9.19,15.34-22.91,7.4-35.62,0,0,.32,0,.32,0l-2.9,3.91c-6.15,8.91-11.41,21.69-4.82,31.7h0Z"/>
    </g>
    <g>
      <path class="cls-1" d="M232.97,87.13s-.56-16.33,16.07-26.76c0,0,4.62,17.21-16.07,26.76Z"/>
      <path d="M232.96,87.16c.1-9.6,5.19-18.72,12.66-24.57,1.06-.85,2.22-1.58,3.32-2.37.11-.08.27-.02.29.12,2.52,12.34-5.35,22.18-16.28,26.83h0ZM232.98,87.11c3.1-1.63,6.14-3.48,8.7-5.86,5.66-5.15,8.76-13.24,7.17-20.83,0,0,.29.12.29.12-2.24,1.5-4.46,3.05-6.35,4.99-5.81,5.59-9.56,13.5-9.81,21.58h0Z"/>
    </g>
    <g>
      <path class="cls-1" d="M237.7,84.56s14.04-14.34,29.97-10.24c0,0-6.06,19.43-29.97,10.24Z"/>
      <path d="M237.68,84.56c7.69-7.38,19.58-13.56,30.18-10.22-4.93,13.27-18.25,15.45-30.18,10.22h0ZM237.72,84.55c11.89,4.53,24.69,2.67,29.76-10.3,0,0,.14.25.14.25-2.66-.58-5.4-.92-8.13-.64-8.21.8-15.79,5.17-21.76,10.68h0Z"/>
    </g>
    <g>
      <path class="cls-1" d="M254.71,98.6s-4.55-18.79-21.74-11.46c0,0,1.75,10.91,21.74,11.46Z"/>
      <path d="M254.69,98.58c-1.84-6.65-7.26-13.5-14.8-12.95-2.36.12-4.67.76-6.84,1.7l.12-.22c2.73,8.81,13.43,10.92,21.51,11.48h0ZM254.73,98.61c-8.31-.04-19.36-2.3-21.96-11.44-.02-.1.03-.19.12-.22,2.21-.93,4.57-1.56,6.99-1.65,7.67-.46,13.14,6.48,14.85,13.32h0Z"/>
    </g>
    <g>
      <path class="cls-1" d="M244.83,108.4s-19.6,1.29-22.21-14.5c0,0,17.24-11.28,22.21,14.5Z"/>
      <path d="M244.85,108.41c-9.69.53-20.88-3.78-22.42-14.48-.02-.08.02-.15.08-.19,2.36-1.42,5.02-2.37,7.8-2.52,9.24-.59,13.41,9.5,14.53,17.19h0ZM244.81,108.38c-2.67-12.58-9.3-20.83-22-14.51,1.42,10.58,12.47,14.85,22,14.51h0Z"/>
    </g>
    <g>
      <path class="cls-1" d="M214.48,102.53s-4.53,15.73,18.49,12.65c0,0-.33-13.51-18.49-12.65Z"/>
      <path d="M214.5,102.55c-2.42,12.12,9.2,13.92,18.44,12.43,0,0-.18.21-.18.21-.33-4.09-2.77-7.91-6.29-10.01-3.52-2.16-7.91-2.61-11.97-2.63h0ZM214.47,102.51c1.88-.1,4.45-.09,6.28.22.55.14,1.79.35,2.31.5,1.25.41,2.48.87,3.65,1.53,3.69,2.15,6.19,6.14,6.46,10.42,0,.11-.07.2-.18.21-9.41,1.4-21.2-.59-18.53-12.88h0Z"/>
    </g>
    <g>
      <path class="cls-1" d="M214.48,102.53c1.85-14.27-2.51-25.19-2.51-25.19"/>
      <path d="M214.46,102.53c.96-8.46-.15-17.03-2.51-25.18-.01-.03.03-.05.05-.02,3.25,7.84,3.69,17.03,2.47,25.2h0Z"/>
    </g>
    <g>
      <path class="cls-1" d="M229.56,73.58s-1.15,10.47-6.93,20.32"/>
      <path d="M229.58,73.58c-.94,7.11-2.92,14.32-6.94,20.33-.02.02-.06,0-.04-.03,3.2-6.39,5.81-13.38,6.98-20.3h0Z"/>
    </g>
    <g>
      <path class="cls-1" d="M242.16,71.87s-1.57,7.61-9.19,15.26"/>
      <path d="M242.19,71.88c-1.47,5.81-4.66,11.33-9.2,15.27-.02.02-.06-.01-.04-.04,3.84-4.52,7.56-9.62,9.24-15.24h0Z"/>
    </g>
    <g>
      <path class="cls-1" d="M226.92,110.57s-9.45-7.1-12.62-7.2"/>
      <path d="M226.91,110.59c-4.02-2.67-8.08-5.61-12.63-7.22,2.48.02,4.69,1.62,6.72,2.89,1.97,1.35,4.24,2.82,5.91,4.33h0Z"/>
    </g>
    <g>
      <path class="cls-1" d="M235.41,101.81s-5.18-7.88-11.87-8.43"/>
      <path d="M235.39,101.82c-2.94-3.94-6.94-7.37-11.85-8.42-.03,0-.03-.05,0-.05,5.12.08,9.35,4.58,11.84,8.47h0Z"/>
    </g>
    <g>
      <path class="cls-1" d="M248.85,95.81s-7.17-8.93-14.51-9.22"/>
      <path d="M248.83,95.83c-3.86-4.27-8.68-8.21-14.5-9.21-.03,0-.03-.05,0-.05,5.93,0,11.11,5.02,14.49,9.26h0Z"/>
    </g>
    <g>
      <path class="cls-1" d="M173.76,74.69s14.41,3.49,21.76,13.17"/>
      <path d="M173.76,74.67c8.19,2.24,16.74,6.03,21.77,13.17.02.02-.02.05-.04.03-5.67-6.49-13.72-10.74-21.73-13.2h0Z"/>
    </g>
    <g>
      <path class="cls-1" d="M200.6,81.61s-3.25,5.38-4.24,8.69"/>
      <path d="M200.62,81.62c-1.54,2.78-2.81,5.84-4.24,8.68.04-1.49.95-3.17,1.7-4.54.79-1.35,1.63-3.03,2.54-4.14h0Z"/>
    </g>
    <g>
      <path class="cls-1" d="M172.13,55.6s15.36,9.27,20.95,20.65"/>
      <path d="M172.15,55.58c8.23,5.29,16.71,11.59,20.96,20.66.01.03-.03.05-.05.02-5-8.56-12.94-15.25-20.92-20.69h0Z"/>
    </g>
    <g>
      <path class="cls-1" d="M196.03,43.1s1.79,17.38-5.12,26.4"/>
      <path d="M196.06,43.1c.61,8.87.6,19.09-5.12,26.42-.02.02-.06,0-.04-.03,4.92-7.77,5.48-17.59,5.16-26.39h0Z"/>
    </g>
    <g>
      <path class="cls-1" d="M184.58,33.48s3.16,16.42,1.55,24.48"/>
      <path d="M184.6,33.47c.81,4.03,1.45,8.09,1.86,12.18.4,4.06.72,8.36-.34,12.32.72-8.12-.41-16.6-1.52-24.51h0Z"/>
    </g>
    <g>
      <path class="cls-1" d="M158.23,15.02s8.04,7.8,8.19,15.68"/>
      <path d="M158.25,15c4.09,4.21,8.37,9.52,8.2,15.7,0,.03-.05.03-.05,0-.74-5.99-4.33-11.38-8.15-15.7h0Z"/>
    </g>
    <g>
      <path class="cls-1" d="M163.43,15.45s9.29,7.39,8.7,21.15"/>
      <path d="M163.45,15.43c5.98,5.15,9.54,13.27,8.71,21.17,0,.03-.05.03-.05,0-.08-7.82-2.94-15.88-8.66-21.17h0Z"/>
    </g>
    <g>
      <path class="cls-1" d="M160.55,30.32s6.49,4.81,10.03,4.56"/>
      <path d="M160.56,30.3c3.09,2,6.41,3.91,10.04,4.58-1.87.39-3.79-.56-5.4-1.44-1.57-.91-3.42-1.99-4.64-3.14h0Z"/>
    </g>
    <path d="M198.59,119.92c.65-34.05-9.91-70.68-36.75-93.18-.03-.02,0-.06.03-.04,27.52,21.83,37.74,59.45,36.72,93.22h0Z"/>
    <g>
      <path class="cls-1" d="M193.76,120.9s.16-13.72-5.86-21.41c0,0,11.3,9,12.28,16.18,0,0,5.07-6.99,7.42-8.01,0,0-4.08,9.81-3.71,13.24h-10.14Z"/>
      <path d="M193.74,120.91c-.14-5.63-1-11.28-3.15-16.5-.76-1.71-1.67-3.35-2.8-4.84-.1-.12.07-.3.19-.19,1.35,1.09,2.63,2.24,3.87,3.44,3.6,3.63,7.49,7.62,8.54,12.81,0,0-.4-.1-.4-.1,2.27-2.89,4.32-6.13,7.5-8.11.2-.11.43.13.33.32-1.27,3.19-2.5,6.43-3.35,9.77-.26,1.11-.5,2.25-.43,3.37,0,.09-.06.17-.15.17-3.43-.02-6.83-.09-10.17-.15h0ZM193.78,120.88c3.43-.06,6.78-.13,10.12-.15l-.16.18c.05-4.66,2.04-9.05,3.64-13.35,0,0,.33.32.33.32-1.53.83-2.75,2.34-3.92,3.63-5.56,6.19-2.17,5.6-5.64-.54-2.66-4.41-6.42-8.07-10.33-11.39,0,0,.19-.19.19-.19,4.46,6.14,5.62,14.07,5.77,21.47h0Z"/>
    </g>
    <g>
      <path class="cls-1" d="M200.19,115.67s-.4,1.89-.35,3.18"/>
      <path d="M200.21,115.67c-.17,1.06.14,2.25-.39,3.19-.3-.51-.25-1.1-.09-1.64.11-.4.31-1.5.48-1.55h0Z"/>
    </g>
  </g>
  <g>
    <path class="cls-1" d="M75.02,121.49c14.67-.94,29.54-1.27,42.15-.51,7.51.45,15.01,1.14,22.53,1.3,7.13.16,14.27-.15,21.39-.48,17.06-.78,31.43-1.3,48.65-.42"/>
    <path d="M75.02,121.64c8.89-.57,17.8-.93,26.7-.93,8.56,0,17.06.53,25.6,1.1,4.5.3,9,.57,13.5.64,4.56.07,9.12-.04,13.68-.22,8.76-.34,17.52-.81,26.29-1.03,8.54-.21,17.08-.19,25.62.17,1.11.05,2.22.1,3.33.16.19,0,.19-.29,0-.3-8.62-.44-17.24-.55-25.87-.39-8.68.16-17.35.57-26.02.95-9.08.4-18.12.49-27.2-.06-8.6-.53-17.17-1.23-25.8-1.31-8.85-.08-17.69.21-26.52.72-1.11.06-2.21.13-3.32.2-.19.01-.19.31,0,.3h0Z"/>
  </g>
</svg>