<?xml version="1.0" encoding="UTF-8"?>
<svg id="Layer_1" data-name="Layer 1" xmlns="http://www.w3.org/2000/svg" viewBox="0 0 282.68 128.18">
  <defs>
    <style>
      .cls-1 {
        fill: none;
      }

      .cls-1, .cls-2 {
        stroke: #000;
        stroke-linecap: round;
        stroke-linejoin: round;
        stroke-width: .5px;
      }

      .cls-2, .cls-3 {
        fill: #d7e7c3;
      }
    </style>
  </defs>
  <g>
    <path class="cls-2" d="M104.37,120.9s1.64-14.27-10.12-25.15c0,0,12.38-3.68,20.4,25.15h-10.28Z"/>
    <path class="cls-2" d="M101.52,100.98s5.05,3.53,5.76,10.49"/>
    <path class="cls-2" d="M97.55,119.96s-7.68-22.41-8.14-32.68c-.46-10.28,2-25.2,4.07-28.26,0,0-12.68,8.92-11.14,36.73,0,0-10.83-21.8-19.97-29.14,0,0,19.93,37.35,17.1,54.3l18.08-.94Z"/>
    <path class="cls-2" d="M89.61,104.34s.68,11.64,3.98,15.61"/>
    <path class="cls-2" d="M69.68,40.32s-.41-16.08,23.86-16.25c0,0-9.11,20.5-23.86,16.25Z"/>
    <path class="cls-1" d="M79.47,120.9s1.96-.56-5.44-4.61c-8.39-4.6-17.28-14.45-17.05-35.56.43-39.74,24.63-50.41,24.63-50.41"/>
    <path class="cls-2" d="M65.6,46.61s-11.11-9.67-5.82-25.94c0,0,13.79,8.54,5.82,25.94Z"/>
    <path class="cls-2" d="M61.57,55.3s7.52-12.69,23.68-10.6c0,0-10.77,15.63-23.68,10.6Z"/>
    <path class="cls-2" d="M58.89,64.18s-12.33-4.85-10.76-26.85c0,0,15.09,5.27,10.76,26.85Z"/>
    <path class="cls-2" d="M57.01,83.68s2.97-13.4,15.9-18.48c0,0-2.67,18.63-15.9,18.48Z"/>
    <path class="cls-2" d="M57.11,85.82s-16.1-1.8-17.43-20.62c0,0,15.91.34,17.43,20.62Z"/>
    <path class="cls-2" d="M65.75,109.38s-2.33-13.4,6.1-26.8c0,0,6.97,16.72-6.1,26.8Z"/>
    <path class="cls-2" d="M61.9,103.76s-13.5,3.29-22.22-13.93c0,0,14.54-2.62,22.22,13.93Z"/>
    <path class="cls-2" d="M46.57,93.68s12.2,6.56,14.79,8.96"/>
    <path class="cls-2" d="M73.56,116.3s-10.94,8.7-25.9-3.28c0,0,12.15-8.53,25.9,3.28Z"/>
    <path class="cls-2" d="M55.49,113.61s13.78.81,17.11,1.9"/>
    <path class="cls-2" d="M70.94,90.26s-2.36,9.27-5.2,19.12"/>
    <path class="cls-2" d="M45.11,71.49s10.73,9.35,11.9,13.37"/>
    <line class="cls-2" x1="57.01" y1="83.68" x2="67.72" y2="71.84"/>
    <path class="cls-2" d="M51.06,43.61s6.48,6.8,7.83,20.57"/>
    <path class="cls-2" d="M61.57,55.3s7.1-6.09,16.22-6.88"/>
    <path class="cls-2" d="M62.37,28.06s3.28,9.28,3.23,18.55"/>
    <path class="cls-2" d="M82.34,95.74s.5,8.27,2.41,15.23"/>
    <path class="cls-2" d="M79.54,120.92s-11.56-7.87-7.32-23.08c0,0,15.15,8.95,7.32,23.08Z"/>
    <line class="cls-2" x1="74.25" y1="104.87" x2="79.54" y2="120.92"/>
    <path class="cls-2" d="M104.37,120.9s12.33-23.88-10.12-39.83c0,0,24.87,6.21,22.32,39.83h-12.2Z"/>
    <path class="cls-2" d="M116.57,120.9s2.54-5.97,9.36-5.88c0,0-4.58,2.95-5.75,5.88h-3.62Z"/>
    <path class="cls-2" d="M110.85,99.49s4.31,11.98-2.33,21.41"/>
    <path class="cls-1" d="M129.06,55.7c-6.34,45.28,20.79,66.41,20.79,66.41"/>
    <path class="cls-2" d="M129.04,56.46s-7.86-7.04-6-21.49c0,0,10.44,1.47,6,21.49Z"/>
    <path class="cls-2" d="M129.48,56.46s-.41-16.15,13.63-21.49c0,0-2.25,21.59-13.63,21.49Z"/>
    <path class="cls-2" d="M128.16,73.78s-13.24,1.54-15.13-24.35c0,0,15.13,4.03,15.13,24.35Z"/>
    <path class="cls-2" d="M129.97,87.58s-2.45-15.81,11.95-23.37c0,0-.24,17.62-11.95,23.37Z"/>
    <path class="cls-2" d="M133.29,98.4s-15.54,3.68-21.06-20.75c0,0,12.25-4.48,21.06,20.75Z"/>
    <path class="cls-2" d="M140.89,112.38s-4.29-14.93,5.06-26.59c0,0,9.86,17.69-5.06,26.59Z"/>
    <path class="cls-2" d="M115.52,101.65s12.95,18.11,25.38,10.73c0,0-8.32-16.73-25.38-10.73Z"/>
    <path class="cls-2" d="M126.45,40.27s2.93,7.88,3.2,13.49"/>
    <path class="cls-2" d="M138.93,42.36s-7.88,8.72-9.28,11.4"/>
    <path class="cls-2" d="M118.52,59.01s9.28,8.4,9.54,12.86"/>
    <path class="cls-2" d="M137.84,71.87s-7.07,13.2-7.86,15.7"/>
    <path class="cls-1" d="M117.37,82.13s10.84,5.2,15.92,16.27"/>
    <path class="cls-2" d="M145.71,91.73s0,13.11-4.81,20.64"/>
    <path class="cls-2" d="M122.47,104.34s7.81,5.74,17.45,6.63"/>
    <path class="cls-2" d="M153.84,122.11s10.06-18.66-11.92-45.26c0,0,18.18,5.28,26.76,28.78,0,0-.54-19.22-8.69-32.9,0,0,15.96,11.4,17.37,36.59,0,0,4.23-12.38,10.53-16.18,0,0-6.73,11.21-6.52,27.76l-27.54,1.21Z"/>
    <path class="cls-2" d="M159.73,98.4s4.46,15.75-.7,22.5"/>
    <path class="cls-2" d="M168.68,105.62s1.36,9.6.92,11.52"/>
    <path class="cls-2" d="M170.56,93.9s2.45,11.79,1.75,18.48"/>
    <path class="cls-2" d="M176.59,117.14s-.2-3.51.78-7.83"/>
    <path class="cls-1" d="M206.49,120.9s3.71-33.32,48.22-40.59"/>
    <path class="cls-2" d="M178.88,45.33s-25.14,1.25-30.24-40.15c0,0,32.51,7.08,30.24,40.15Z"/>
    <path class="cls-2" d="M190.92,69.5s-4.87-26.3,9.67-38.57c0,0,12.86,34.53-9.67,38.57Z"/>
    <path class="cls-2" d="M186.13,57.96s-10.09-16.58-2.57-39.68c0,0,12.73,14.52,2.57,39.68Z"/>
    <path class="cls-2" d="M193.08,76.26s-20.38-4.28-29.65-25.6c0,0,19.83-4.44,29.65,25.6Z"/>
    <path class="cls-2" d="M196.36,90.29s-21.7,1.38-30.08-20.79c0,0,23.39-1.19,30.08,20.79Z"/>
    <path class="cls-2" d="M196.36,90.29s.08-19.03,9.21-24.68c0,0,8.49,19.17-9.21,24.68Z"/>
    <path class="cls-2" d="M214.48,102.53s-17.99-9.36-5.96-35.94c0,0,15.34,6.13,5.96,35.94Z"/>
    <path class="cls-2" d="M222.62,93.9s-10.7-12.67,7.57-35.76c0,0,13.23,18.45-7.57,35.76Z"/>
    <path class="cls-2" d="M232.97,87.13s-.56-16.33,16.07-26.76c0,0,4.62,17.21-16.07,26.76Z"/>
    <path class="cls-2" d="M237.7,84.56s14.04-14.34,29.97-10.24c0,0-6.06,19.43-29.97,10.24Z"/>
    <path class="cls-2" d="M254.71,98.6s-4.55-18.79-21.74-11.46c0,0,1.75,10.91,21.74,11.46Z"/>
    <path class="cls-2" d="M244.83,108.4s-19.6,1.29-22.21-14.5c0,0,17.24-11.28,22.21,14.5Z"/>
    <path class="cls-2" d="M214.48,102.53s-4.53,15.73,18.49,12.65c0,0-.33-13.51-18.49-12.65Z"/>
    <path class="cls-2" d="M214.48,102.53c1.85-14.27-2.51-25.19-2.51-25.19"/>
    <path class="cls-2" d="M229.56,73.58s-1.15,10.47-6.93,20.32"/>
    <path class="cls-2" d="M242.16,71.87s-1.57,7.61-9.19,15.26"/>
    <path class="cls-2" d="M226.92,110.57s-9.45-7.1-12.62-7.2"/>
    <path class="cls-2" d="M235.41,101.81s-5.18-7.88-11.87-8.43"/>
    <path class="cls-2" d="M248.85,95.81s-7.17-8.93-14.51-9.22"/>
    <path class="cls-2" d="M173.76,74.69s14.41,3.49,21.76,13.17"/>
    <path class="cls-2" d="M200.6,81.61s-3.25,5.38-4.24,8.69"/>
    <path class="cls-2" d="M172.13,55.6s15.36,9.27,20.95,20.65"/>
    <path class="cls-2" d="M196.03,43.1s1.79,17.38-5.12,26.4"/>
    <path class="cls-2" d="M184.58,33.48s3.16,16.42,1.55,24.48"/>
    <path class="cls-2" d="M158.23,15.02s8.04,7.8,8.19,15.68"/>
    <path class="cls-2" d="M163.43,15.45s9.29,7.39,8.7,21.15"/>
    <path class="cls-2" d="M160.55,30.32s6.49,4.81,10.03,4.56"/>
    <path class="cls-1" d="M198.62,119.93s3.78-60.43-36.76-93.2"/>
    <path class="cls-2" d="M193.76,120.9s.16-13.72-5.86-21.41c0,0,11.3,9,12.28,16.18,0,0,5.07-6.99,7.42-8.01,0,0-4.08,9.81-3.71,13.24h-10.14Z"/>
    <path class="cls-2" d="M200.19,115.67s-.4,1.89-.35,3.18"/>
  </g>
  <g>
    <path class="cls-3" d="M75.02,121.49c14.67-.94,29.54-1.27,42.15-.51,7.51.45,15.01,1.14,22.53,1.3,7.13.16,14.27-.15,21.39-.48,17.06-.78,31.43-1.3,48.65-.42"/>
    <path d="M75.02,121.64c8.89-.57,17.8-.93,26.7-.93,8.56,0,17.06.53,25.6,1.1,4.5.3,9,.57,13.5.64,4.56.07,9.12-.04,13.68-.22,8.76-.34,17.52-.81,26.29-1.03,8.54-.21,17.08-.19,25.62.17,1.11.05,2.22.1,3.33.16.19,0,.19-.29,0-.3-8.62-.44-17.24-.55-25.87-.39-8.68.16-17.35.57-26.02.95-9.08.4-18.12.49-27.2-.06-8.6-.53-17.17-1.23-25.8-1.31-8.85-.08-17.69.21-26.52.72-1.11.06-2.21.13-3.32.2-.19.01-.19.31,0,.3h0Z"/>
  </g>
</svg>