<?xml version="1.0" encoding="UTF-8"?>
<svg id="Layer_1" data-name="Layer 1" xmlns="http://www.w3.org/2000/svg" viewBox="0 0 282.68 128.18">
  <defs>
    <style>
      .cls-1 {
        fill: #ccc;
      }

      .cls-2 {
        fill: #d7e7c3;
      }
    </style>
  </defs>
  <path d="M123.09,107.63c16.54-.7,33.85-2.3,50.3-.41.03,0,.02.05,0,.05-8.35-.61-16.76-.33-25.14-.4-7.24.03-17.97.7-25.15.76h0Z"/>
  <g>
    <path class="cls-2" d="M59.55,103.69s-2.11-3.8,3.22-6.53c5.32-2.73,9.28-1.4,11.6-2.75s3.96-.99,6.01-5.13l.59,16.26s-10.35-.4-14.06-.88-7.36-.97-7.36-.97Z"/>
    <path d="M59.53,103.71c-2.18-5.26,4.87-7.88,8.94-8.42,2.33-.37,4.8-.09,6.79-1.51,2.31-.78,4-2.36,4.95-4.59.07-.16.34-.11.34.07,0,0,.66,16.25.66,16.25,0,.14-.11.26-.26.26-7.08-.2-14.42-.86-21.42-2.08h0ZM59.56,103.67c7.02.93,14.35,1.39,21.41,1.62,0,0-.26.26-.26.26l-.52-16.26.34.07c-.98,2.26-2.83,3.94-5.15,4.69-2.04,1.33-4.56,1.18-6.89,1.46-4.01.48-10.98,2.96-8.94,8.16h0Z"/>
  </g>
  <g>
    <path class="cls-2" d="M184.95,104.53s46.82-.59,52.27,0"/>
    <path d="M184.95,104.51c17.38-.15,34.91-1.06,52.27,0,.03,0,.03.05,0,.05-14.78-.21-37.44.11-52.27-.05h0Z"/>
  </g>
  <g>
    <path class="cls-1" d="M67.95,76.67s-4.52,10.62-2.46,19.38c2.05,8.76,6.42,9.58,6.42,9.58l113.04-1.09s1.77-9.71-7.78-18.88c0,0-9.87-2.94-16.36-3.51,0,0-12.45-10.66-22.41-13.86-9.97-3.2-14.77-3.64-21.17-3.08,0,0-8.56,2.2-10.14,2.06-1.59-.14-9.23-3.06-15.65-2.62-6.42.44-21.02,8.74-23.48,12.03Z"/>
    <path d="M67.97,76.68c-3.23,8.37-4.93,18.94.82,26.6.8,1,1.94,1.93,3.12,2.27-.05.09,113.83-1.49,112.84-1.06.8-7.03-2.75-13.91-7.73-18.68-4.89-1.35-10.95-2.88-16.36-3.5-6.15-5.03-12.72-9.81-20.06-12.95-7.43-2.77-15.38-4.84-23.37-3.98-3.07.74-6.46,1.65-9.73,2.03-.59.06-1.15-.14-1.68-.26-4.75-1.32-9.64-2.72-14.6-2.38-4.36.58-8.44,2.57-12.35,4.53-3.83,2.1-7.89,4.17-10.92,7.38h0ZM67.93,76.66c3.03-3.25,7.06-5.33,10.9-7.47,3.93-2,7.98-4.01,12.39-4.63,5.02-.37,9.92,1.01,14.7,2.29.54.12,1.06.3,1.58.24,3.28-.4,6.5-1.31,9.71-2.09,8.05-.9,16.09,1.08,23.59,3.91,7.4,3.19,13.96,7.97,20.17,13.05,4.87.39,11.2,2,16.36,3.53,5.08,4.88,8.67,11.88,7.83,19.07.06.53-113.09.92-113.24,1.13-1.32-.38-2.37-1.31-3.22-2.33-5.75-7.71-4.03-18.31-.76-26.71h0Z"/>
  </g>
  <g>
    <g>
      <path class="cls-2" d="M114.45,79.03s-4.43-6.99-8.76-3.83-8,8.58-9.16,12.16-2.42,13.66-2.42,13.66c0,0,1.92-10.25,6.83-15.99,4.91-5.75,6.41-7.58,6.41-7.58,0,0,4.25,3.58,5.83,9.33,1.58,5.75,7.32,18.37,7.32,18.37l-1.08-20.71-4.99-5.42Z"/>
      <path d="M114.43,79.05c-1.73-2.49-4.81-5.79-8.1-4.17-4.13,2.76-7.31,6.96-9.32,11.47-1.66,4.7-2.02,9.79-2.76,14.7,0,0-.29-.04-.29-.04.45-2.26,1.08-4.47,1.83-6.64.75-2.17,1.66-4.29,2.82-6.29,2.02-3.47,6.06-7.58,8.57-10.75.07-.09.21-.11.3-.03,1.95,1.76,3.52,3.88,4.69,6.21,1.16,2.33,1.64,4.89,2.61,7.3,1.79,4.82,3.87,9.54,5.93,14.26l-.43.1s-.95-20.88-.91-20.67c0,0-4.95-5.45-4.95-5.45h0ZM114.47,79.02l5.02,5.38c.09.03,1.2,20.7,1.24,20.75.01.24-.33.33-.43.1-2.16-4.69-4.17-9.44-5.99-14.28-.96-2.38-1.44-4.96-2.56-7.26-1.12-2.28-2.67-4.38-4.54-6.09l.3-.03c-2.51,3.15-6.59,7.24-8.6,10.66-2.27,3.95-3.71,8.36-4.67,12.8-.02.17-.32.14-.29-.04.76-4.94,1.15-10.02,2.87-14.74,2.07-4.52,5.28-8.71,9.45-11.47,3.32-1.63,6.45,1.7,8.18,4.22h0Z"/>
    </g>
    <g>
      <line class="cls-2" x1="107.35" y1="77.45" x2="108.92" y2="75.89"/>
      <path d="M107.34,77.43c.44-.52.84-1.57,1.6-1.54-.06.43-.31.7-.66.91-.26.17-.87.73-.94.62h0Z"/>
    </g>
  </g>
  <g>
    <path class="cls-2" d="M120.51,105.16s-6.94-57.13-41.82-75.01c0,0,29.96,15.87,41.36,41.59,0,0-6.71-48.52-20.68-60.82,0,0,22.25,19.9,27.39,52.32,0,0-.45-39.13,6.71-56.34,0,0-4.47,43.6,6.26,68.64,0,0,9.84-48.52,6.71-63.95,0,0,6.04,23.25,3.58,43.38,0,0,8.5-21.02,24.15-28.17,0,0-15.87,19.45-18.78,34.21,0,0,15.43-21.91,31.53-28.4,0,0-17.89,13.19-28.4,42.93,0,0,9.84-16.1,16.99-16.55,7.15-.45,7.83-.67,8.72.67s10.51,26.38,9.61,42.26c0,0-6.86-28.12-15.89-37.27,0,0-14.15,12.4-18.86,29.1l-1.4,11.22-37.17.19Z"/>
    <path d="M120.49,105.17c-2.2-14.66-6.36-29.04-12.79-42.39-6.43-13.21-15.77-25.7-29.04-32.58,0,0,.06-.12.06-.12,4.35,2.41,8.49,5.17,12.48,8.12,11.9,8.87,22.68,19.86,28.93,33.49,0,0-.18.05-.18.05-1.61-10.72-3.79-21.37-6.72-31.8-1.49-5.21-3.17-10.38-5.31-15.35-2.15-4.91-4.65-9.9-8.64-13.58,0,0,.16-.18.16-.18,3.65,3.45,6.89,7.29,9.86,11.32,8.95,12.09,15.13,26.22,17.59,41.06,0,0-.28.02-.28.02-.02-9.51.34-19.01,1.2-28.48.95-9.43,2.05-19.02,5.5-27.92.06-.17.34-.1.31.08-1.4,17.26-1.45,34.81,1.54,51.91,1.08,5.68,2.52,11.3,4.73,16.64l-.35.04c3.06-15.82,5.74-31.76,6.98-47.83.26-4.57.55-9.51-.03-14.05,0,0-.27-1.99-.27-2-.04-.24.35-.33.4-.08.88,3.55,1.58,7.13,2.18,10.73,1.19,7.2,1.93,14.48,1.99,21.79.03,3.65-.19,7.3-.58,10.94l-.41-.11c5.14-11.39,12.74-22.66,24.25-28.29.2-.1.42.16.27.34-2.04,2.55-3.97,5.2-5.84,7.9-5.44,8.07-10.73,16.63-12.9,26.22,0,0-.42-.18-.42-.18,6.38-8.63,13.65-16.72,22.3-23.13,2.92-2.08,6-3.96,9.33-5.36.24-.11.47.25.24.41-6.72,5.43-12.22,12.32-16.95,19.52-.83,1.32-1.73,2.81-2.55,4.15-1.13,2.04-2.81,5.05-3.8,7.17-1.94,3.87-3.51,7.92-5.04,11.97l-.41-.2c3.65-5.46,10.16-15.38,16.93-16.6,1.62-.13,3.2-.22,4.81-.31,1.21,0,2.54-.29,3.67.35,1.44,1.34,1.8,3.75,2.61,5.49,2.18,6.05,4.03,12.21,5.46,18.48,1.42,6.26,2.45,12.67,2.19,19.12,0,.17-.27.19-.3.03-1.68-6.59-3.68-13.1-6.1-19.46-2.49-6.25-5.12-12.76-9.72-17.77,0,0,.15,0,.15,0-2.15,1.96-4.16,4.1-6.05,6.32-5.64,6.66-10.36,14.34-12.81,22.71,0,0-1.41,11.22-1.41,11.22,0,.16-37.19.14-37.25.2h0ZM120.52,105.14s37.42-.3,37.1-.18c0,0,1.39-11.23,1.39-11.23,2.45-8.46,7.15-16.12,12.8-22.82,1.95-2.14,3.93-4.69,6.21-6.35,4.65,5.05,7.29,11.55,9.81,17.83,2.44,6.37,4.46,12.88,6.15,19.48,0,0-.3.03-.3.03.24-6.41-.8-12.79-2.22-19.02-1.44-6.25-3.3-12.39-5.49-18.42-.75-1.64-1.2-4.07-2.47-5.29-1.01-.54-2.29-.28-3.43-.27-1.59.1-3.21.2-4.79.32-6.6,1.25-13,11.05-16.59,16.44-.15.22-.51.05-.41-.21.79-2.03,1.51-4.08,2.35-6.08,1.84-4.41,4.11-9,6.49-13.16,3.04-5.15,6.45-10.09,10.34-14.64,2.84-3.3,5.85-6.45,9.29-9.17l.23.42c-13.07,5.86-22.91,17.1-31.43,28.3-.14.21-.47.06-.42-.18,2.19-9.67,7.5-18.26,12.98-26.39,1.87-2.7,3.8-5.35,5.86-7.92l.27.35c-8.58,4.09-14.9,11.66-19.72,19.67-1.61,2.7-3.09,5.49-4.32,8.38-.09.23-.44.13-.41-.11,1.23-10.86.36-21.85-1.39-32.6-.6-3.59-1.3-7.17-2.17-10.69l.4-.09c.67,4,.67,8.08.52,12.11-.31,6.69-1.05,13.46-1.92,20.08-1.62,10.61-2.97,21.74-5.54,31.97-2.46-5.25-3.73-11.14-4.88-16.83-2.98-17.15-2.93-34.71-1.51-52.01,0,0,.31.08.31.08-1.79,4.39-2.8,9.06-3.65,13.71-1.66,9.35-2.36,18.85-2.78,28.33-.19,4.74-.31,9.49-.28,14.24.02.17-.27.2-.28.02-2.44-14.81-8.6-28.9-17.51-40.96-3.07-4.35-6.38-7.73-9.83-11.47.04-.05.12-.05.17-.01,2.04,1.83,3.64,4.07,5.05,6.39,4.13,7.04,6.69,14.87,8.95,22.67,2.93,10.45,5.1,21.1,6.7,31.84.02.1-.14.15-.18.05-6.23-13.6-16.98-24.58-28.85-33.44-3.99-2.95-8.12-5.71-12.46-8.12-.08-.04-.01-.16.06-.12,13.29,6.9,22.64,19.42,29.06,32.66,6.41,13.33,10.6,27.78,12.75,42.39h0Z"/>
  </g>
  <path d="M110.63,62.95c3.27,6.28,6.21,12.75,8.68,19.39,2.44,6.62,4.64,13.56,4.55,20.69,0,.03-.05.03-.05,0-1.2-14.1-7.36-27.52-13.18-40.08h0Z"/>
  <g>
    <path class="cls-2" d="M118.66,49.04s5.17,11.78,8.85,53.99"/>
    <path d="M118.69,49.03c3.09,8.61,4.49,17.73,5.94,26.74,1.38,8.89,2.36,18.29,2.91,27.26,0,.03-.05.04-.05,0-2.24-17.81-3.49-36.96-8.8-54h0Z"/>
  </g>
  <g>
    <path class="cls-2" d="M120.05,71.73c2.1,8.2,3.23,21.25,3.79,31.3"/>
    <path d="M120.07,71.72c2.48,10.22,3.6,20.8,3.79,31.31,0,.03-.05.03-.05,0-1.07-10.25-1.56-21.37-3.74-31.31h0Z"/>
  </g>
  <g>
    <path class="cls-2" d="M126.76,63.23s1.95,37.06,3.44,39.8"/>
    <path d="M126.78,63.23c.61,9.6,1.4,20.26,2.26,29.9.35,3.29.36,6.68,1.18,9.89.02.03-.03.06-.04.02-1.82-6.41-1.82-13.22-2.38-19.84-.38-6.6-.88-13.51-1.01-19.97h0Z"/>
  </g>
  <g>
    <path class="cls-2" d="M139.72,75.53s-5.85,21.59-6.05,27.5"/>
    <path d="M139.75,75.54c-2.21,8.96-4.54,18.43-6.07,27.52.04-4.69,1.32-9.35,2.4-13.91,1.16-4.5,2.3-9.32,3.68-13.61h0Z"/>
  </g>
  <g>
    <path class="cls-2" d="M131.29,57.54s.89,22.67,3.9,36.39"/>
    <path d="M131.32,57.54c.69,12.19,1.94,24.34,3.9,36.39,0,.03-.04.04-.05.01-2.85-11.83-3.43-24.43-3.85-36.4h0Z"/>
  </g>
  <g>
    <path class="cls-2" d="M150.01,54.96s-9.17,21.08-10.86,48.07"/>
    <path d="M150.03,54.97c-6.08,15.34-9.25,31.68-10.86,48.06,0,.03-.05.03-.05,0,.72-16.41,4.64-33.05,10.91-48.06h0Z"/>
  </g>
  <g>
    <path class="cls-2" d="M155.37,61s-5.74,16.15-5.37,28.28"/>
    <path d="M155.4,61.01c-2.94,9.16-4.97,18.65-5.36,28.27,0,.03-.05.03-.05,0-.53-9.61,2.29-19.45,5.41-28.28h0Z"/>
  </g>
  <g>
    <path class="cls-2" d="M150.01,65.2s-6.09,25.65-5,37.83"/>
    <path d="M150.03,65.21c-2.57,12.44-5.06,25.08-5,37.82,0,.03-.05.04-.05,0-.71-6.37.2-12.79,1.19-19.08,1.05-6.24,2.26-12.78,3.85-18.75h0Z"/>
  </g>
  <g>
    <path class="cls-2" d="M169.37,68.28s-13.92,17.2-18.29,34.75"/>
    <path d="M169.39,68.3c-7.93,10.48-14.42,22.15-18.29,34.74,0,.03-.06.02-.05-.01,2.96-12.83,10.34-24.63,18.34-34.73h0Z"/>
  </g>
  <g>
    <path class="cls-2" d="M162.61,56.65s-10.18,19.16-12.35,26.48"/>
    <path d="M162.63,56.66c-4.38,8.7-8.71,17.44-12.35,26.48,0,.03-.06.02-.05-.01,1.25-4.73,3.43-9.15,5.59-13.52,2.19-4.3,4.44-8.92,6.81-12.95h0Z"/>
  </g>
  <g>
    <path class="cls-2" d="M144.92,101.49s6.4-17.32,13.59-25.96"/>
    <path d="M144.89,101.48c3.53-9.07,7.14-18.52,13.59-25.97.02-.02.06,0,.04.03-5.69,7.93-9.92,17.1-13.63,25.94h0Z"/>
  </g>
  <g>
    <path class="cls-2" d="M186.97,73.85s-4.39-11.51-8.77-15.04"/>
    <path d="M186.95,73.86c-2.32-5.32-4.91-10.71-8.76-15.06,2.45,1.65,3.97,4.42,5.31,6.99,1.28,2.58,2.66,5.46,3.46,8.07h0Z"/>
  </g>
  <g>
    <path class="cls-2" d="M177.94,64.64s-2.28-2.75-4.56-5.13"/>
    <path d="M177.92,64.66c-1.54-1.68-3.49-3.13-4.55-5.16,1.81,1.31,3.3,3.49,4.55,5.16h0Z"/>
  </g>
  <g>
    <path class="cls-1" d="M147.6,107.94c3.36.47,10.54.91,15.34-2.81.78-.61,1.21-1.59,1.16-2.61-.1-1.98-.66-5.28-3.2-6.82-3.75-2.29-10.56,1.62-11.98,3.7-.99,1.45-2.29,4.03-2.89,6.04-.34,1.15.42,2.34,1.56,2.49Z"/>
    <path d="M147.6,107.92c4.12.53,8.46.42,12.31-1.19,1.71-.82,4.11-1.83,4.02-4.07-.09-4.36-2.59-8.43-7.44-7.22-2.01.39-3.91,1.32-5.6,2.48-1.79,1.08-2.71,3-3.67,4.85-.45.93-.88,1.9-1.17,2.89-.23,1,.5,2.13,1.55,2.27h0ZM147.6,107.97c-1.08-.12-1.88-1.27-1.67-2.34.54-2.05,1.42-3.96,2.47-5.8,1.73-2.71,4.96-4.16,8-4.88,5.17-1.17,7.82,3.08,7.86,7.71.07,2.39-2.41,3.46-4.25,4.3-3.94,1.53-8.28,1.57-12.42,1.01h0Z"/>
  </g>
  <g>
    <path class="cls-1" d="M159.88,104.19s-.71,4.25,4.47,3.34c5.18-.91,5.55-3.11,4.62-4.34-.93-1.23-2.04-2.29-4.36-2.14-2.32.15-4.02,1.61-4.73,3.14Z"/>
    <path d="M159.9,104.2c-.3,2.57,1.7,3.71,4.02,3.26,1.83-.35,4.49-.81,5.19-2.75.28-.95-.61-1.78-1.32-2.46-2.44-2.02-6.42-.76-7.89,1.94h0ZM159.85,104.19c1.42-3.74,7.2-4.76,9.34-1.06,1.18,1.65-.58,3.35-2.12,3.83-2.79,1.12-7.77,1.66-7.22-2.77h0Z"/>
  </g>
  <path d="M90.47,73.11c5.85-.96,11.33-3.36,16.63-5.86-4.74,3.42-11.01,5.18-16.63,5.86h0Z"/>
  <g>
    <path class="cls-2" d="M181.46,105.63s1.65-3.45-10.57-13.67c0,0,6.24,1.06,12.91,9.54,0,0,4.07-13.05,13.95-14.11,0,0-8.23,7.64-9.45,12.69,0,0,5.89-3.96,10.4-2.49,0,0-8.41,3.08-9.97,8.04h-7.28Z"/>
    <path d="M181.44,105.64c.35-4.53-7.39-10.75-10.61-13.61-.08-.05-.02-.19.08-.17,4.68,1.18,8.53,4.45,11.7,7.97,0,0,1.31,1.57,1.31,1.57l-.26.05c1.74-4.92,4.59-9.72,9.09-12.56,1.53-.9,3.23-1.46,4.99-1.72.2-.03.33.24.17.37-3.62,3.7-7.69,7.59-9.35,12.59,0,0-.38-.26-.38-.26,3.12-1.9,6.9-3.56,10.6-2.49.11.04.17.16.14.27-1.94.98-4.12,1.81-5.91,3.16-1.97,1.32-3.3,2.88-4.27,4.94,0,0-7.3-.11-7.3-.11h0ZM181.48,105.61l7.26-.11-.12.08c1.61-4.24,6.07-6.5,10.01-8.21,0,0,0,.4,0,.4-1.71-.52-3.56-.29-5.28.22-1.73.52-3.39,1.31-4.91,2.27-.18.13-.44-.05-.38-.26,1.68-5.15,5.81-9.04,9.54-12.79,0,0,.17.37.17.37-1.7.23-3.34.76-4.83,1.63-4.43,2.76-7.27,7.5-9,12.31-.03.11-.19.14-.26.05-2.51-3.17-5.5-6.08-9.06-8.04-1.19-.64-2.44-1.21-3.75-1.5l.08-.17c3.15,2.83,10.96,9.26,10.53,13.73h0Z"/>
  </g>
  <g>
    <path class="cls-2" d="M186.4,103.18s.57-1.69,1.91-3.11"/>
    <path d="M186.38,103.17c.34-1.07.8-2.76,1.95-3.08-.21.61-.55,1.07-.95,1.55-.35.49-.67,1-.95,1.55-.01.03-.05.01-.05-.02h0Z"/>
  </g>
  <g>
    <path class="cls-2" d="M183.8,101.49s.76,1.28.71,2.16"/>
    <path d="M183.82,101.48c.4.54,1.29,1.57.67,2.18-.25-.36-.34-.65-.39-1.06-.06-.37-.26-.77-.31-1.13.01,0,.02,0,.03,0h0Z"/>
  </g>
  <g>
    <path class="cls-2" d="M220.33,103.92s.59-7.58-7.1-13.5c0,0,4.96.05,8.81,7.05,0,0,1.17-12.06-.53-15.59,0,0,4.06,2.73,3.52,14.63,0,0,4.64-4.54,8.7-4.81,0,0-7.29,5.87-7.82,12.22h-5.57Z"/>
    <path d="M220.31,103.94c.05-5.35-2.98-10.27-7.14-13.45-.07-.05-.04-.18.06-.17,4.04.41,7.04,3.72,8.93,7.07,0,0-.27.05-.27.05.25-5.11,1.03-10.58-.58-15.51-.08-.17.15-.35.3-.22,2.49,2.29,3.08,5.79,3.52,8.97.19,1.94.22,3.89.14,5.83,0,0-.42-.19-.42-.19,2.52-2.25,5.37-4.49,8.86-4.86.22-.02.34.28.17.41-3.62,3.14-7.22,7.13-7.86,12.06,0,.06-.06.1-.11.1l-5.59-.1h0ZM220.35,103.9l5.56-.1-.11.1c.58-5.04,4.14-9.14,7.79-12.4,0,0,.16.42.16.42-1.62.16-3.17.86-4.58,1.72-1.42.86-2.75,1.9-3.96,3.03-.15.15-.43.02-.42-.19.04-.96.05-2.89.01-3.84-.24-3.64-.66-7.94-3.39-10.61,0,0,.28-.25.28-.25.98,2.51.87,5.2.92,7.83-.03,2.62-.17,5.24-.42,7.85,0,.14-.21.18-.27.05-1.82-3.28-4.75-6.58-8.68-7.02,0,0,.06-.17.06-.17,4.13,3.21,7.2,8.23,7.06,13.56h0Z"/>
  </g>
  <g>
    <path class="cls-2" d="M223.01,101.63s.6-3.18,2.01-5.12"/>
    <path d="M222.99,101.62c.33-1.76.55-3.99,2.05-5.13-.63,1.69-1.52,3.52-2.05,5.13h0Z"/>
  </g>
  <g>
    <path class="cls-2" d="M222.04,97.46s.38.99.43,1.61"/>
    <path d="M222.06,97.45c.23.36.5.74.58,1.15-.02.11-.03.44-.2.47-.27-.23-.35-.44-.33-.76,0,0-.09-.84-.09-.84,0-.03.03-.04.05-.02h0Z"/>
  </g>
  <g>
    <path class="cls-2" d="M52.77,103.62s-3.25-8.77-7.31-12.36c0,0,2.79.23,8.65,7.33,0,0-1.97-10.06-7.37-15.67,0,0,4.49,1.42,10.1,12.53,0,0,2.27-9.61,6.42-13.01,0,0-4.47,13.37-3.03,18.61l.46,2.57h-7.92Z"/>
    <path d="M52.76,103.64c-1.83-4.42-3.87-8.98-7.36-12.33-.06-.05,0-.15.07-.13,3.68,1.24,6.22,4.53,8.74,7.33,0,0-.22.1-.22.1-1.32-5.6-3.42-11.28-7.38-15.57-.07-.07-.08-.19,0-.26,1.32.19,2.56,1.57,3.52,2.42,2.9,2.93,5.02,6.51,6.91,10.14,0,0-.43.05-.43.05.6-2.39,1.36-4.74,2.36-7,1.02-2.25,2.22-4.5,4.12-6.15.18-.16.48.04.39.27-1.66,5.87-4.06,12.35-3.13,18.49,0,.01.45,2.57.45,2.59.02.08-.05.15-.12.15l-7.93-.1h0ZM52.79,103.6l7.9-.1-.12.15s-.49-2.61-.48-2.56c-.71-3.16-.05-6.39.5-9.51.63-3.12,1.44-6.19,2.43-9.22l.39.27c-.91.76-1.65,1.73-2.3,2.75-1.92,3.1-3.12,6.61-4.06,10.12-.03.12-.15.2-.28.17-2.69-4.52-5.22-10-10.1-12.58,0,0,.18-.29.18-.29,3.98,4.36,6.07,10.09,7.37,15.76.03.12-.14.21-.22.1-2.45-2.77-4.97-6.07-8.56-7.33,0,0,.06-.14.06-.14,3.47,3.39,5.49,7.97,7.27,12.4h0Z"/>
  </g>
  <path d="M71.9,105.65c-8.41-1.86-17.07-1.85-25.63-1.56-.03,0-.04-.05,0-.05,8.45-1.22,17.53-.47,25.64,1.61h0Z"/>
  <g>
    <path class="cls-1" d="M191.9,106.84c-.29.38-1.18,3.13,8.04,2.99,9.22-.15,20.77-1.47,22.52-2.99s2.86-5.15-3.86-6.21-22.5.65-26.71,6.21Z"/>
    <path d="M191.92,106.85c-1.82,5.3,21.67,1.87,24.7,1.45,1.95-.46,4.64-.53,6.08-1.98,1.73-1.93.71-4.06-1.58-4.81-6.81-2.25-24.44-.43-29.21,5.34h0ZM191.88,106.82c4.99-6.09,22.21-8.22,29.41-5.72,2.52.85,3.65,3.36,1.7,5.48-1.63,1.58-4.22,1.57-6.32,2.05-3,.42-26.79,3.56-24.8-1.8h0Z"/>
  </g>
  <g>
    <path class="cls-2" d="M182.24,111.3s9.37-1.69,15.79-1.47"/>
    <path d="M182.23,111.27c5.14-.87,10.7-2.15,15.79-1.42-4.63.25-11.39.86-15.79,1.42h0Z"/>
  </g>
  <g>
    <path class="cls-2" d="M195.96,107.39s18.59-.3,22.94-1.4"/>
    <path d="M195.96,107.36c7.53-.29,15.48-.68,22.97-1.38-3.68,1.07-7.64,1.09-11.46,1.25-3.78.08-7.87.28-11.51.13h0Z"/>
  </g>
  <g>
    <path class="cls-2" d="M197.14,118.01s4.87-1.11,23.68,0"/>
    <path d="M197.13,117.99c7.71-.97,16.11-.92,23.69.05-7.73.07-16.12-.8-23.69-.05h0Z"/>
  </g>
  <g>
    <path class="cls-1" d="M184.16,118.83s-5.72,0-5.05-1.07,2.8-1.16,4.47-.73,2.36,1.92.59,1.8Z"/>
    <path d="M184.16,118.86c-1.7-.16-3.66.3-5.17-.67-.39-.64.69-1.22,1.17-1.37,1.65-.45,3.92-.47,5.01,1.06.47.8-.34,1.08-1,.99h0ZM184.16,118.81c1.96-.02.4-1.39-.61-1.52-1.3-.26-2.83-.51-3.99.24-.19.15-.42.4-.32.46,1.3.75,3.4.74,4.92.82h0Z"/>
  </g>
  <path d="M95.72,113.99c8.05.55,16.12,1.12,24.19,1.01,8.05-.43,16.1-1.38,24.16-1.8,5.37-.17,10.8-.71,16.15.04-1.18-.02-2.72-.2-4.03-.13-12.12.23-24.17,1.65-36.27,2.21-8.03,0-16.36-.55-24.2-1.34h0Z"/>
  <g>
    <path class="cls-2" d="M142.08,121.29s8.84-1.49,11.24-1.4"/>
    <path d="M142.08,121.27c3.66-.57,7.65-1.88,11.24-1.36-1.66.26-3.96.59-5.61.72.04-.05-5.82.79-5.63.64h0Z"/>
  </g>
  <g>
    <path class="cls-1" d="M81.26,118.98s5.06.61,7.88.51c2.82-.1,8.72-.72,5.39-2.51-3.33-1.8-8.77-.46-9.95-.26-1.18.21-4.63,1.29-3.32,2.26Z"/>
    <path d="M81.27,118.95c3.84.38,7.74.7,11.56.02.81-.19,1.97-.28,2.48-.95.08-.15-.14-.4-.38-.57-3.33-1.98-7.56-1.03-11.16-.38-.68.21-3.54.87-2.51,1.87h0ZM81.25,119c-1.27-1.06,1.68-1.99,2.43-2.25,3.72-.9,8.06-1.8,11.5.4.29.23.66.58.49,1.02-.21.42-.56.53-.87.67-4.4,1.32-9.07.68-13.55.17h0Z"/>
  </g>
  <g>
    <path class="cls-2" d="M59.8,111.02s18.78-.15,22.52.62"/>
    <path d="M59.8,111c7.49.03,15.18-.76,22.54.65-7.32-.36-15.36-.41-22.54-.65h0Z"/>
  </g>
  <g>
    <path class="cls-2" d="M54.11,98.58s1.24,3.21,1.24,5.04"/>
    <path d="M54.13,98.58c.61,1.57,1.72,3.37,1.21,5.06-.52-1.61-.85-3.53-1.21-5.06h0Z"/>
  </g>
  <g>
    <path class="cls-2" d="M56.83,95.45s.81,6.15,1.21,8.18"/>
    <path d="M56.86,95.44c.44,2.72,1.34,5.45,1.19,8.2-.87-2.55-.99-5.66-1.19-8.2h0Z"/>
  </g>
</svg>