<?xml version="1.0" encoding="UTF-8"?>
<svg id="Layer_1" data-name="Layer 1" xmlns="http://www.w3.org/2000/svg" viewBox="0 0 282.68 128.18">
  <defs>
    <style>
      .cls-1 {
        fill: #ccc;
      }

      .cls-1, .cls-2, .cls-3 {
        stroke: #000;
        stroke-linecap: round;
        stroke-linejoin: round;
        stroke-width: .5px;
      }

      .cls-2 {
        fill: none;
      }

      .cls-3 {
        fill: #d7e7c3;
      }
    </style>
  </defs>
  <path class="cls-1" d="M195.88,111.93c-1.53-4.17-6.26-4.36-6.26-4.36l-4.57,1.49"/>
  <path class="cls-1" d="M192.08,111.31c-.6-9.27-10.23-5.98-10.23-5.98,0,0-3.66.67-5.25,3.25"/>
  <path class="cls-3" d="M40.18,61.64s14.62-9.14,29.39,1.52,24.29,23.38,35.56,46.38l7.27-.85c.03-12.01-9.8-42.7-30.75-57.71-13.7-9.82-33.18-5.56-40.87,9.43-.2.4-.4.81-.6,1.23Z"/>
  <path class="cls-3" d="M112.4,108.69s-14.63-13.78-11.01-50.98,25.78-42.22,25.78-42.22c0,0-11.17,8.92-13.18,33.72-2.01,24.8,1.05,54.86,3.56,59.48h-5.16Z"/>
  <path class="cls-3" d="M114.76,108.69s-3.76-65.89,36.92-79.68c0,0-14.21,8.92-17.42,30.79-3.2,21.88,1.95,41.38,8.92,47.23l-17.42,1.65h-11.01Z"/>
  <path class="cls-3" d="M143.19,107.04s-1.95-26.2-11.15-40.41c0,0,15.33,11.15,15.74,35.53,0,0-.41-48.84-7.87-54.34,0,0,13.86,12.4,14.14,35.95,0,0,2.65-39.15,26.2-55.46,0,0-15.33,26.2-15.88,54.9,0,0,12.26-45.42,31.21-49.74,0,0-25.08,24.11-19.51,67.3,0,0,5.99-51,41.8-59.5,0,0-30.51,59.88-38.87,67.42l-35.81-1.65Z"/>
  <path class="cls-3" d="M177.6,106.9s3.2-30.38,26.06-46.82"/>
  <path class="cls-3" d="M171.33,108.34s-7.52-13.98,1.67-39.84"/>
  <path class="cls-3" d="M160.88,77.19s-4.32,18.98-1.67,26.22"/>
  <line class="cls-3" x1="154.06" y1="83.77" x2="154.06" y2="96.03"/>
  <path class="cls-3" d="M164.37,83.21s-2.79,15.05,0,22.99"/>
  <path class="cls-3" d="M128.84,60.08s-10.03,24.94,5.17,47.83"/>
  <path class="cls-3" d="M111.84,39.88s-11.71,31.14,1.56,68.81"/>
  <path class="cls-2" d="M62.11,52.51s26.65-.56,43.48,50.3"/>
  <path class="cls-2" d="M142.01,110.58c-31.77-3.68-42.19,0-42.19,0"/>
  <path class="cls-3" d="M179,108.69s14.71,3.24,23.13,4.17"/>
  <path class="cls-1" d="M95.28,107.3c-.29,0-.57.04-.85.11-1.56.41-6.87,1.93-6.48,3.59.45,1.95,2.55,2.85,5.26,2.85s6.46-1.24,7.36-3.28c.87-1.96-1.74-3.27-5.29-3.28Z"/>
  <path class="cls-1" d="M89.3,108.68c-.57-.04-1.14.04-1.68.22-1.6.54-5.2,1.94-4.91,3.46.37,1.95,2.09,2.85,4.3,2.85s5.28-1.24,6.02-3.28c.66-1.82-1.14-3.09-3.74-3.26Z"/>
</svg>