<?xml version="1.0" encoding="UTF-8"?>
<svg id="Layer_1" data-name="Layer 1" xmlns="http://www.w3.org/2000/svg" viewBox="0 0 282.68 128.18">
  <defs>
    <style>
      .cls-1 {
        fill: #ccc;
      }

      .cls-2 {
        fill: #d7e7c3;
      }
    </style>
  </defs>
  <g>
    <g>
      <path class="cls-1" d="M94.88,103.55s.54-4.53,5.14-4.53,7.55,5.18,7.76,7.33h-13.32l.42-2.8Z"/>
      <path d="M94.86,103.55c.99-5.95,7.92-5.75,11.02-1.53,1.02,1.26,1.85,2.69,2.12,4.32.02.13-.09.24-.21.24-4.44,0-9.05.2-13.4-.21-.01-.01.48-2.79.47-2.81h0ZM94.9,103.55l-.36,2.81c3.89-.46,8.96-.2,13.24-.23,0,0-.21.24-.21.24-.22-1.49-1-2.93-1.96-4.14-2.96-4.13-9.68-4.5-10.71,1.32h0Z"/>
    </g>
    <g>
      <path class="cls-2" d="M175.75,106.35s4.59-32.97,41.48-37.12c0,0-19.43-8.3-38.86,15.28,0,0,15.5-33.19,45.2-34.28,0,0-34.28-21.18-64.41,35.81,0,0,6.11-35.15,38.65-55.46,0,0-40.61,8.95-54.58,61.79,0,0-6.11-46.51,18.56-85.81,0,0-29.04,16.16-27.95,77.29,0,0-8.52-54.15-44.76-77.29,0,0,33.41,38.65,36.24,83.4,0,0-15.07-36.68-46.72-46.07,0,0,29.63,19.73,36.24,51.09,0,0-20.31-27.95-28.6-30.13,0,0,22.27,19,22.27,41.48h67.25Z"/>
      <path d="M175.74,106.33c2.68-14.73,12.99-28.01,27.01-33.53,4.56-1.77,9.79-3.27,14.47-3.52-7.91-2.79-16.84-1.17-24.1,2.74-4.05,2.19-7.69,5.2-10.98,8.42,0,0-3.71,4.13-3.71,4.13-.04.06-.14,0-.11-.07,2.21-4.44,4.93-8.61,7.96-12.54,6.06-7.8,13.68-14.67,22.85-18.54,4.56-1.96,9.49-3.03,14.44-3.26l-.04.16c-2.98-1.66-6.3-2.71-9.66-3.3-17.53-3.26-33.58,8.33-43.61,21.75-4.18,5.43-7.77,11.29-10.99,17.34-.06.12-.25.06-.22-.08,2.45-11.32,7.33-22.07,13.88-31.6,3.26-4.77,7-9.26,11.19-13.23,4.08-4.12,8.81-7.51,13.62-10.72l.1.26c-13.83,3.86-25.99,12.72-35.26,23.56-9.3,10.97-15.53,24.28-19.2,38.13-.03.17-.31.16-.32-.02-1.48-14.84-.49-29.87,2.46-44.47.18-.85.68-3.27.85-4.1.25-.99,1.5-5.69,1.78-6.76,1.07-3.45,2.21-7.22,3.59-10.58,0,0,2.07-5.19,2.07-5.19.78-1.58,2.83-5.99,3.63-7.56.96-1.69,3.21-5.57,4.18-7.27,0,0,.25.27.25.27-2.97,1.87-5.58,4.35-7.92,7-14.18,16.25-18.66,38.49-19.78,59.47,0,0-.13,10.65-.13,10.65.01.24-.38.29-.42.04-1.34-7.5-3.39-14.88-5.86-22.09-4.98-14.38-11.92-28.27-21.78-39.94-4.91-5.82-10.65-10.95-17.04-15.1,0,0,.29-.34.29-.34,4.92,5.94,9.33,12.27,13.41,18.8,12.12,19.57,21.2,41.61,22.91,64.74.05.27-.39.38-.47.11-2.25-5.13-5.05-10.04-8.14-14.73-9.24-13.92-22.12-26.34-38.42-31.23,0,0,.18-.39.18-.39,12.96,9.37,24.06,21.66,31.06,36.11,1.03,2.13,2.31,5.2,3.03,7.42,0,0,.68,1.89.68,1.89l.51,1.94,1.01,3.88c.02.08-.03.17-.11.19-4.33-5.41-8.53-11.22-13.18-16.47-2.28-2.64-4.63-5.22-7.13-7.65-2.51-2.32-5.08-4.93-8.37-6.05,0,0,.11-.21.11-.21,3.02,2.69,5.77,5.66,8.34,8.77,7.62,9.28,13.76,20.55,13.93,32.81-.56-.15,67.29,0,67.15-.02h0ZM175.77,106.37c-.08-.08-67.36.22-67.35-.02-.4-16.33-10.68-30.65-22.27-41.39-.11-.08-.01-.26.11-.21,3.37,1.15,5.94,3.74,8.49,6.1,2.51,2.43,4.87,5.02,7.16,7.66,4.57,5.29,8.9,10.78,13.05,16.4l-.29.13-1.01-3.86-.51-1.93-.68-1.88c-.71-2.19-2.01-5.27-3.03-7.38-6.98-14.36-18.08-26.6-30.98-35.9-.2-.12-.05-.47.18-.39,16.41,4.89,29.43,17.35,38.71,31.37,3.11,4.71,5.91,9.63,8.18,14.81l-.47.11-.6-5.72c-2.53-21-11.2-40.89-22.21-58.8-4.07-6.51-8.47-12.84-13.36-18.75-.09-.1-.07-.24.02-.33.08-.07.19-.07.27-.01,6.43,4.18,12.19,9.34,17.13,15.19,9.9,11.72,16.85,25.66,21.85,40.09,2.47,7.24,4.52,14.62,5.87,22.17l-.42.04c-.02-6.51.27-14.94.95-21.33,2.16-17.52,7.19-35.57,19.09-49.06,2.36-2.67,4.97-5.15,8.02-7.07.16-.11.37.11.25.27-.98,1.69-3.23,5.63-4.16,7.25-.79,1.58-2.82,5.86-3.63,7.53,0,0-2.07,5.17-2.07,5.17-5.37,13.82-8.2,28.69-9.1,43.47-.41,7.42-.36,14.88.41,22.27l-.32-.02c6.98-27.62,26.48-53.85,54.71-61.88.14-.04.24.18.1.26-4.79,3.2-9.51,6.58-13.58,10.68-12.42,11.99-21.27,27.82-25.02,44.68,0,0-.22-.08-.22-.08,3.23-6.05,6.84-11.92,11.03-17.37,4.16-5.46,9.04-10.39,14.61-14.43,11.04-8.09,26.6-10.81,38.92-4.03.08.04.04.16-.04.16-4.94.22-9.84,1.28-14.38,3.23-13.8,5.79-23.96,18.33-30.86,30.92,0,0,3.72-4.14,3.72-4.14,3.29-3.23,6.95-6.24,11.01-8.43,7.29-3.91,16.25-5.53,24.2-2.72-4.68.77-9.91,1.73-14.48,3.69-14.03,5.52-24.29,18.76-27.01,33.49h0Z"/>
    </g>
    <path d="M162.37,106.35c3.57-15.09,11.56-29.07,22.06-40.4,4.81-5.16,10.39-9.59,16.26-13.46.03-.02.05.02.03.04-3.27,2.41-6.89,5.13-9.91,7.87-13.56,12.16-23.93,28.4-28.45,45.95h0Z"/>
    <g>
      <path class="cls-2" d="M148.86,103.05s-3.42-28.21,22.17-53.31"/>
      <path d="M148.84,103.05c-1.34-19.95,7.76-39.79,22.18-53.34.02-.02.06.01.03.04,0,0-2.49,2.77-2.49,2.77-.44.48-1.46,1.6-1.89,2.05-11.3,13.39-18.77,30.9-17.84,48.48h0Z"/>
    </g>
    <path d="M143.25,92.38c.03,3.88.53,7.84-.03,11.67-.49-3.79-.15-7.99.03-11.67h0Z"/>
    <g>
      <path class="cls-2" d="M128.97,85.93s2.45,11.25,1.96,17.12"/>
      <path d="M129,85.92c1.13,5.59,2.77,11.44,1.93,17.15-.21-5.69-1.04-11.65-1.93-17.15h0Z"/>
    </g>
    <g>
      <path class="cls-2" d="M122.78,104.02s-1.63-15.65-10.76-28.37"/>
      <path d="M122.75,104.03c-1.47-10.1-5.31-19.75-10.76-28.36-.02-.02.02-.05.04-.03,6.21,8.06,9.58,18.51,10.72,28.39h0Z"/>
    </g>
    <g>
      <path class="cls-2" d="M106.47,89.84s4.89,8.15,5.54,13.21"/>
      <path d="M106.49,89.83c2.35,4.1,5.27,8.43,5.52,13.24-1.28-4.57-3.43-9.14-5.52-13.24h0Z"/>
    </g>
    <g>
      <path class="cls-2" d="M114.84,95s1.93,4.02,2.56,8.05"/>
      <path d="M114.86,94.99c1.19,2.52,2.64,5.25,2.53,8.08-.91-2.62-1.6-5.6-2.53-8.08h0Z"/>
    </g>
    <g>
      <path class="cls-2" d="M143.22,44.08s-3.8,15.16-3.63,28.41"/>
      <path d="M143.25,44.08c-2.1,9.34-3.17,18.85-3.62,28.4,0,.03-.05.03-.05,0-.47-9.52,1.36-19.36,3.67-28.4h0Z"/>
    </g>
    <g>
      <path class="cls-1" d="M88.42,106.35s0-3.62,3.23-3.62,4.81,1.74,5.08,3.62h-8.31Z"/>
      <path d="M88.4,106.37c-.02-4.1,4.06-4.63,6.92-2.74.86.63,1.47,1.62,1.64,2.69.02.13-.07.25-.19.27-2.84.08-5.73-.07-8.37-.22h0ZM88.44,106.33c2.92-.15,5.58-.29,8.29-.22l-.23.27c-.22-2.96-4.77-4.61-6.94-2.78-.72.69-1.04,1.75-1.12,2.72h0Z"/>
    </g>
    <g>
      <path class="cls-2" d="M133.83,83.86s1.42,5.67,1.42,7.95"/>
      <path d="M133.86,83.86c.61,2.54,1.89,5.43,1.37,7.96-.53-2.56-1.01-5.51-1.37-7.96h0Z"/>
    </g>
  </g>
  <path d="M175.75,106.5c4.18.05,8.37-.04,12.55-.27,3.5-.2,6.98-.55,10.49-.65,6.84-.21,13.7.04,20.52.55,3.56.26,7.12.6,10.66,1.07.19.03.19-.28,0-.3-6.56-.86-13.17-1.34-19.78-1.56-3.38-.12-6.77-.16-10.16-.08-3.39.07-6.75.37-10.12.59-4.71.3-9.43.42-14.15.37-.19,0-.19.3,0,.3h0Z"/>
  <path d="M132.16,115.37c14.37-.91,28.78-1.14,43.18-.67,4.05.13,8.1.32,12.15.56.19.01.19-.29,0-.3-14.37-.85-28.79-1.02-43.18-.49-4.05.15-8.1.35-12.15.61-.19.01-.19.31,0,.3h0Z"/>
  <path d="M92.61,113.46c2.62-.47,5.23-1.17,7.9-.91,1.69.16,3.35.52,5.02.74,1.52.2,3.04.3,4.57.4,2.13.15,4.26.36,6.36.75.19.03.27-.25.08-.29-3.46-.63-6.96-.67-10.45-1.09-2.81-.33-5.61-1.14-8.46-.79-1.72.21-3.41.6-5.11.9-.19.03-.11.32.08.29h0Z"/>
  <path d="M42.62,107.19c4.54-.17,9.1-.02,13.65,0,2.1.01,4.19.03,6.29-.03,4.04-.12,8.06-.43,12.09-.66,4.59-.26,9.19-.37,13.77,0,.19.02.19-.28,0-.3-8.1-.66-16.19.27-24.28.6-4.88.2-9.78.07-14.67.05-2.28-.01-4.57-.05-6.85.04-.19,0-.19.31,0,.3h0Z"/>
  <path d="M211.96,114.6c9.35.09,18.71.18,28.06.28l7.95.08c.19,0,.19-.3,0-.3-9.35-.09-18.71-.18-28.06-.28-2.65-.03-5.3-.05-7.95-.08-.19,0-.19.3,0,.3h0Z"/>
  <path d="M35.66,115.26c.51-.17,1.02-.34,1.52-.55.17-.07.35-.18.54-.21.21-.02.47.06.68.09.52.08,1.05.13,1.58.18,1.72.16,3.43.32,5.15.47,4.58.4,9.17.77,13.76.93,1.94.07,3.91.14,5.85-.04.19-.02.19-.32,0-.3-3.95.37-8.02-.02-11.97-.29-4.15-.28-8.29-.65-12.42-1.04-.58-.06-1.17-.11-1.75-.19-.27-.04-.56-.13-.84-.12-.18,0-.32.07-.49.14-.56.24-1.12.44-1.69.63-.18.06-.1.35.08.29h0Z"/>
  <g>
    <path class="cls-1" d="M196.9,109.73s-4.04,1.34-3.31,2.53,1.86,2.33,3.31,2.23,4.24-.85,4.14-1.87-.93-3.09-4.14-2.89Z"/>
    <path d="M196.91,109.76c-1.09.4-2.27.86-3.08,1.72-.11.15-.22.31-.21.48-.01.16.1.3.22.47.84,1.33,2.29,2.26,3.88,1.77,1.03-.25,2.36-.51,3.02-1.34.11-.15-.01-.63-.13-.95-.49-1.52-2.17-2.26-3.7-2.14h0ZM196.9,109.71c1.61-.19,3.53.33,4.18,2.01.15.42.34.93.12,1.37-.81,1.09-2.2,1.23-3.41,1.5-1.7.47-3.33-.58-4.16-2.02-.09-.16-.24-.37-.22-.61,0-.25.16-.43.29-.58.89-.84,2.08-1.21,3.2-1.65h0Z"/>
  </g>
  <g>
    <path class="cls-1" d="M201.8,108.99s-4.04,1.33-3.32,2.52c.72,1.2,1.86,2.34,3.31,2.24,1.45-.1,4.24-.84,4.14-1.86s-.92-3.1-4.13-2.9Z"/>
    <path d="M201.81,109.01c-1.09.39-2.28.85-3.08,1.71-.11.15-.22.31-.21.47-.01.16.1.3.21.47.84,1.34,2.28,2.26,3.88,1.77,1.03-.25,2.36-.51,3.02-1.34.11-.15-.01-.63-.13-.95-.48-1.52-2.16-2.26-3.69-2.15h0ZM201.8,108.96c1.61-.19,3.53.34,4.17,2.02.15.42.34.94.12,1.37-.27.45-.68.64-1.05.83-2.54,1.04-4.97,1.3-6.52-1.37-1.04-1.51,2.28-2.4,3.28-2.84h0Z"/>
  </g>
  <g>
    <path class="cls-1" d="M77.94,113.42s-3.42,1.78-2.48,2.75,4,.96,4.81.52,2.48-1.14,1.67-2.11-2.87-1.85-4-1.17Z"/>
    <path d="M77.95,113.44c-.68.38-3.21,1.81-2.33,2.7.5.41,1.21.54,1.87.62.99.06,2.05.13,2.93-.39.63-.39,2.09-.97,1.16-1.8-.89-.85-2.37-1.72-3.63-1.12h0ZM77.93,113.4c.61-.38,1.39-.33,2.08-.17.95.27,2.58.9,2.37,2.15-.46.95-1.39,1.19-2.25,1.61-1.55.31-3.34.3-4.67-.66-1.05-1.15,1.69-2.42,2.48-2.93h0Z"/>
  </g>
  <g>
    <path class="cls-1" d="M122.4,115.57s-2.96.77-2.67,1.92,2.36,1.94,3.06,1.74,2.09-.42,1.89-1.53-1.27-2.48-2.29-2.13Z"/>
    <path d="M122.41,115.6c-1.48.38-3.86,1.55-1.62,2.9.99.63,1.95.71,3,.18.49-.22.77-.54.64-1.02-.19-.91-.86-2.32-2.01-2.06h0ZM122.39,115.55c1.74-.49,3.79,2.86,1.59,3.59-1.17.52-2.33.37-3.37-.37-2.4-1.73.03-2.74,1.79-3.22h0Z"/>
  </g>
</svg>