<?xml version="1.0" encoding="UTF-8"?>
<svg id="Layer_1" data-name="Layer 1" xmlns="http://www.w3.org/2000/svg" viewBox="0 0 128.18 128.18">
  <defs>
    <style>
      .cls-1 {
        fill: #f9f1ac;
        stroke: #000;
        stroke-linecap: round;
        stroke-linejoin: round;
        stroke-width: .5px;
      }
    </style>
  </defs>
  <polygon class="cls-1" points="59.5 13.44 66.56 59.95 93.06 63.45 66.56 66.96 59.5 113.47 52.44 66.96 25.94 63.45 52.44 59.95 59.5 13.44"/>
  <polygon class="cls-1" points="83.7 94.63 85.67 102.36 93.06 104.69 85.67 107.02 83.7 114.74 81.73 107.02 74.33 104.69 81.73 102.36 83.7 94.63"/>
  <polygon class="cls-1" points="33.73 31.61 35.7 39.34 43.1 41.67 35.7 44 33.73 51.72 31.76 44 24.37 41.67 31.76 39.34 33.73 31.61"/>
  <circle class="cls-1" cx="97.93" cy="86.4" r="3.06"/>
  <circle class="cls-1" cx="101.88" cy="78.54" r="1.94"/>
  <circle class="cls-1" cx="48.59" cy="100.75" r="1.94"/>
  <circle class="cls-1" cx="42.68" cy="105.76" r="1.94"/>
  <circle class="cls-1" cx="48.95" cy="107.7" r="1.94"/>
</svg>