<?xml version="1.0" encoding="UTF-8"?>
<svg id="Layer_1" data-name="Layer 1" xmlns="http://www.w3.org/2000/svg" viewBox="0 0 128.18 128.18">
  <defs>
    <style>
      .cls-1 {
        fill: #f9f1ac;
        stroke: #000;
        stroke-linecap: round;
        stroke-linejoin: round;
        stroke-width: .5px;
      }
    </style>
  </defs>
  <path class="cls-1" d="M37.05,73.19l14.6-4.17c3.68-1.05,5.86-4.83,4.93-8.54l-3.69-14.72,10.91,10.56c2.75,2.66,7.12,2.66,9.86,0l10.91-10.56-3.69,14.72c-.93,3.71,1.25,7.49,4.93,8.54l14.6,4.17-14.6,4.17c-3.68,1.05-5.86,4.83-4.93,8.54l3.69,14.72-10.91-10.56c-2.75-2.66-7.12-2.66-9.86,0l-10.91,10.56,3.69-14.72c.93-3.71-1.25-7.49-4.93-8.54l-14.6-4.17Z"/>
  <path class="cls-1" d="M6.92,47.73l4.32-1.23c3.68-1.05,5.86-4.83,4.93-8.54l-1.09-4.35,3.22,3.12c2.75,2.66,7.12,2.66,9.86,0l3.22-3.12-1.09,4.35c-.93,3.71,1.25,7.49,4.93,8.54l4.32,1.23-4.32,1.23c-3.68,1.05-5.86,4.83-4.93,8.54l1.09,4.35-3.22-3.12c-2.75-2.66-7.12-2.66-9.86,0l-3.22,3.12,1.09-4.35c.93-3.71-1.25-7.49-4.93-8.54l-4.32-1.23Z"/>
  <polygon class="cls-1" points="113.68 41.65 113.69 49.33 118.63 43.45 113.7 49.34 121.26 48.01 113.7 49.35 120.35 53.19 113.69 49.36 116.31 56.58 113.68 49.36 111.05 56.58 113.67 49.36 107.01 53.19 113.66 49.35 106.1 48.01 113.66 49.34 108.73 43.45 113.67 49.33 113.68 41.65"/>
  <polygon class="cls-1" points="29.47 81.91 29.48 89.59 34.42 83.71 29.49 89.6 37.05 88.27 29.49 89.61 36.14 93.46 29.48 89.62 32.1 96.84 29.47 89.63 26.84 96.84 29.46 89.62 22.8 93.46 29.45 89.61 21.89 88.27 29.45 89.6 24.52 83.71 29.46 89.59 29.47 81.91"/>
  <circle class="cls-1" cx="62.32" cy="30.73" r="4.07"/>
  <circle class="cls-1" cx="73.34" cy="34.42" r="2.88"/>
  <circle class="cls-1" cx="73.81" cy="24.77" r="2.42"/>
  <circle class="cls-1" cx="101.18" cy="97.99" r="4.07"/>
  <circle class="cls-1" cx="112.2" cy="101.67" r="2.88"/>
  <circle class="cls-1" cx="112.67" cy="92.02" r="2.42"/>
</svg>