<?xml version="1.0" encoding="UTF-8"?>
<svg id="Layer_1" data-name="Layer 1" xmlns="http://www.w3.org/2000/svg" viewBox="0 0 128.18 128.18">
  <defs>
    <style>
      .cls-1 {
        fill: #f9f1ac;
      }
    </style>
  </defs>
  <g>
    <path class="cls-1" d="M37.05,73.19l14.6-4.17c3.68-1.05,5.86-4.83,4.93-8.54l-3.69-14.72,10.91,10.56c2.75,2.66,7.12,2.66,9.86,0l10.91-10.56-3.69,14.72c-.93,3.71,1.25,7.49,4.93,8.54l14.6,4.17-14.6,4.17c-3.68,1.05-5.86,4.83-4.93,8.54l3.69,14.72-10.91-10.56c-2.75-2.66-7.12-2.66-9.86,0l-10.91,10.56,3.69-14.72c.93-3.71-1.25-7.49-4.93-8.54l-14.6-4.17Z"/>
    <path d="M37.03,73.19l9.92-2.86c3.16-1.03,7.12-1.34,8.85-4.6,1.95-3.13.24-6.7-.47-9.94,0,0-2.52-10-2.52-10-.03-.08.09-.15.15-.09,0,0,7.42,7.16,7.42,7.16,2.45,2.21,4.69,5.46,8.35,5.33,3.67.12,5.88-3.13,8.33-5.35,0,0,7.4-7.18,7.4-7.18.06-.06.15-.06.21,0,.04.04.05.09.04.14l-2.49,10c-.68,3.22-2.39,6.75-.46,9.85,1.72,3.23,5.62,3.52,8.75,4.52,0,0,9.91,2.82,9.91,2.82.12.02.21.13.17.26-.02.07-.07.12-.14.14l-9.91,2.86c-3.11,1.02-7,1.31-8.72,4.51-1.92,3.09-.21,6.6.47,9.8,0,0,2.51,10.01,2.51,10.01.06.23-.24.42-.41.24,0,0-7.41-7.17-7.41-7.17-2.44-2.19-4.62-5.42-8.25-5.31-3.63-.13-5.83,3.1-8.27,5.29,0,0-7.43,7.15-7.43,7.15-.07.07-.2.07-.27,0-.05-.05-.06-.12-.05-.18l2.54-10c.7-3.23,2.42-6.76.49-9.88-.84-1.47-2.23-2.61-3.84-3.14l-4.97-1.47-9.89-2.9h0ZM37.08,73.19l9.95,2.76c3.2.98,7.18,1.32,8.93,4.61,1.99,3.16.31,6.81-.4,10.09,0,0-2.48,10.01-2.48,10.01l-.32-.18,7.39-7.2c2.49-2.29,4.81-5.6,8.58-5.47,3.77-.14,6.1,3.16,8.6,5.45,0,0,7.41,7.18,7.41,7.18l-.41.24-2.51-10.01c-.73-3.3-2.42-6.98-.42-10.17,1.76-3.33,5.79-3.7,9.02-4.71,0,0,9.93-2.8,9.93-2.8v.38h-.04s-9.91-2.85-9.91-2.85c-3.21-1.02-7.21-1.39-8.95-4.71-1.98-3.18-.28-6.82.45-10.11,0,0,2.52-9.99,2.52-9.99l.25.14-7.42,7.17c-2.48,2.26-4.79,5.54-8.52,5.4-3.73.13-6.02-3.16-8.5-5.43,0,0-7.4-7.19-7.4-7.19l.15-.09,2.49,10.01c.71,3.27,2.4,6.89.42,10.03-1.75,3.28-5.71,3.61-8.9,4.61,0,0-9.92,2.8-9.92,2.8h0Z"/>
  </g>
  <g>
    <path class="cls-1" d="M6.92,47.73l4.32-1.23c3.68-1.05,5.86-4.83,4.93-8.54l-1.09-4.35,3.22,3.12c2.75,2.66,7.12,2.66,9.86,0l3.22-3.12-1.09,4.35c-.93,3.71,1.25,7.49,4.93,8.54l4.32,1.23-4.32,1.23c-3.68,1.05-5.86,4.83-4.93,8.54l1.09,4.35-3.22-3.12c-2.75-2.66-7.12-2.66-9.86,0l-3.22,3.12,1.09-4.35c.93-3.71-1.25-7.49-4.93-8.54l-4.32-1.23Z"/>
    <path d="M6.9,47.73c3.05-.98,6.83-1.39,8.49-4.53,1.87-3.02.33-6.44-.39-9.57-.02-.08.09-.15.15-.09,1.2,1.14,2.38,2.32,3.59,3.42,2.5,2.17,6.5,2.16,8.98-.02,1.21-1.11,2.38-2.3,3.57-3.44.1-.1.29,0,.25.14-.69,3.1-2.22,6.5-.36,9.48,1.66,3.12,5.37,3.47,8.42,4.42.19.05.19.34,0,.38-1.58.47-3.2.91-4.75,1.41-3.07,1.07-5.04,4.46-4.4,7.65.35,1.58.79,3.21,1.18,4.81.03.13-.05.27-.18.3-.08.02-.17,0-.23-.06-1.19-1.14-2.38-2.33-3.58-3.43-2.45-2.14-6.37-2.14-8.84-.02-1.21,1.09-2.4,2.28-3.6,3.41-.13.13-.37,0-.32-.18.72-3.11,2.28-6.5.43-9.51-1.63-3.12-5.42-3.59-8.42-4.57h0ZM6.95,47.73c3.14.91,6.88,1.25,8.6,4.44,1.93,3.03.43,6.57-.28,9.73,0,0-.32-.18-.32-.18,2.37-2.24,4.66-5.35,8.29-5.23,3.63-.14,5.94,2.96,8.33,5.19,0,0-.41.24-.41.24-.39-1.62-.82-3.19-1.19-4.84-.68-3.41,1.43-7.08,4.74-8.18,1.61-.5,3.2-.91,4.8-1.36v.38h-.04c-3.1-.96-6.92-1.43-8.58-4.63-1.9-3.06-.37-6.57.37-9.73,0,0,.25.14.25.14-1.2,1.14-2.36,2.31-3.6,3.44-2.58,2.25-6.73,2.24-9.3-.02-1.23-1.13-2.39-2.31-3.58-3.46l.15-.09c.71,3.15,2.23,6.65.32,9.67-1.69,3.16-5.43,3.56-8.54,4.48h0Z"/>
  </g>
  <g>
    <polygon class="cls-1" points="113.68 41.65 113.69 49.33 118.63 43.45 113.7 49.34 121.26 48.01 113.7 49.35 120.35 53.19 113.69 49.36 116.31 56.58 113.68 49.36 111.05 56.58 113.67 49.36 107.01 53.19 113.66 49.35 106.1 48.01 113.66 49.34 108.73 43.45 113.67 49.33 113.68 41.65"/>
    <path d="M113.68,41.62l.05,7.71-.08-.03,4.93-5.89c.05-.07.17.02.11.09,0,0-4.91,5.9-4.91,5.9l-.09-.15,7.56-1.35c.06-.01.12.03.13.09.01.06-.03.12-.09.13l-7.56,1.36.04-.25,6.66,3.83c.17.09.02.36-.15.26,0,0-6.66-3.82-6.66-3.82l.24-.2,2.64,7.21c.08.22-.27.35-.34.13,0,0-2.65-7.21-2.65-7.21h.38l-2.6,7.23c-.04.12-.18.19-.31.14-.13-.05-.19-.18-.14-.31l2.61-7.22.36.3-6.65,3.84c-.27.16-.53-.27-.25-.43,0,0,6.65-3.85,6.65-3.85l.08.46-7.56-1.36c-.29-.05-.22-.51.08-.45,0,0,7.56,1.37,7.56,1.37l-.18.31-4.9-5.91c-.13-.14.1-.35.23-.19,0,0,4.91,5.91,4.91,5.91l-.18.07.11-7.71h0ZM113.68,41.67c0,2.6.08,5.14.1,7.66,0,.1-.13.14-.18.07,0,0-4.98-5.85-4.98-5.85l.23-.19,4.96,5.86c.12.13-.01.34-.18.31,0,0-7.57-1.29-7.57-1.29l.08-.45,7.57,1.32c.23.03.28.36.08.46,0,0-6.65,3.85-6.65,3.85l-.25-.43,6.66-3.83c.12-.07.27-.03.34.09.04.07.04.14.02.21l-2.63,7.22-.45-.16,2.67-7.2c.06-.17.32-.17.38,0,0,0,2.62,7.22,2.62,7.22l-.34.13-2.6-7.23c-.03-.09.01-.18.1-.21.05-.02.1-.01.14.01l6.65,3.85-.15.26-6.64-3.86c-.11-.06-.08-.23.04-.25,0,0,7.57-1.32,7.57-1.32l.04.22-7.57,1.31c-.08.02-.14-.09-.09-.15l4.95-5.87.11.09-4.96,5.86s-.05.02-.07,0c-.05-.02.04-7.66.02-7.69h0Z"/>
  </g>
  <g>
    <polygon class="cls-1" points="29.47 81.91 29.48 89.59 34.42 83.71 29.49 89.6 37.05 88.27 29.49 89.61 36.14 93.46 29.48 89.62 32.1 96.84 29.47 89.63 26.84 96.84 29.46 89.62 22.8 93.46 29.45 89.61 21.89 88.27 29.45 89.6 24.52 83.71 29.46 89.59 29.47 81.91"/>
    <path d="M29.47,81.88l.05,7.71-.08-.03,4.93-5.89c.05-.07.17.02.11.09,0,0-4.91,5.9-4.91,5.9l-.09-.15,7.56-1.35c.06-.01.12.03.13.09s-.03.12-.09.13l-7.56,1.36.04-.25,6.66,3.83c.17.09.02.36-.15.26,0,0-6.66-3.82-6.66-3.82l.24-.2,2.64,7.21c.08.22-.27.35-.34.13,0,0-2.65-7.21-2.65-7.21h.38l-2.6,7.23c-.04.12-.18.19-.31.14-.13-.05-.19-.18-.14-.31l2.61-7.22.36.3-6.65,3.84c-.27.16-.53-.27-.25-.43,0,0,6.65-3.85,6.65-3.85l.08.46-7.56-1.36c-.29-.05-.22-.51.08-.45,0,0,7.56,1.37,7.56,1.37l-.18.31-4.9-5.91c-.05-.06-.05-.16.02-.21s.16-.04.21.02l4.91,5.91-.18.07.11-7.71h0ZM29.47,81.93c0,2.6.08,5.14.1,7.66,0,.1-.13.14-.18.07l-4.98-5.85.23-.19,4.96,5.86c.12.13-.01.34-.18.31,0,0-7.57-1.29-7.57-1.29l.08-.45,7.57,1.32c.23.03.28.36.08.46,0,0-6.65,3.85-6.65,3.85l-.25-.43,6.66-3.83c.12-.07.27-.03.34.09.04.07.04.14.02.21l-2.63,7.22-.45-.16,2.67-7.2c.06-.17.32-.17.38,0,0,0,2.62,7.22,2.62,7.22l-.34.13-2.6-7.23c-.03-.09.01-.18.1-.21.05-.02.1-.01.14.01l6.65,3.85-.15.26-6.64-3.86c-.11-.06-.07-.23.04-.25l7.57-1.32.04.22-7.57,1.31c-.08.02-.14-.09-.09-.15,0,0,4.95-5.87,4.95-5.87l.11.09-4.96,5.86s-.05.02-.07,0c-.05-.02.04-7.66.02-7.69h0Z"/>
  </g>
  <g>
    <circle class="cls-1" cx="62.32" cy="30.73" r="4.07"/>
    <path d="M66.42,30.73c-.2,5.54-8.13,5.53-8.36,0,.12-5.68,8.28-5.71,8.36,0h0ZM66.37,30.73c-.23-5.05-7.7-5.07-7.91,0,.07,5.21,7.81,5.2,7.91,0h0Z"/>
  </g>
  <g>
    <circle class="cls-1" cx="73.34" cy="34.42" r="2.88"/>
    <path d="M76.25,34.42c-.13,3.96-5.83,3.95-5.99,0,.07-4.12,5.95-4.14,5.99,0h0ZM76.2,34.42c-.16-3.47-5.39-3.48-5.54,0,.03,3.64,5.47,3.64,5.54,0h0Z"/>
  </g>
  <g>
    <circle class="cls-1" cx="73.81" cy="24.77" r="2.42"/>
    <path d="M76.25,24.77c-.13,3.35-4.89,3.36-5.06,0,.03-3.5,5.06-3.52,5.06,0h0ZM76.2,24.77c-.12-2.85-4.49-2.86-4.61,0,0,3.01,4.56,3.04,4.61,0h0Z"/>
  </g>
  <g>
    <circle class="cls-1" cx="101.18" cy="97.99" r="4.07"/>
    <path d="M105.28,97.99c-.2,5.54-8.13,5.53-8.36,0,.12-5.68,8.28-5.71,8.36,0h0ZM105.23,97.99c-.23-5.05-7.7-5.07-7.91,0,.08,5.21,7.81,5.2,7.91,0h0Z"/>
  </g>
  <g>
    <circle class="cls-1" cx="112.2" cy="101.67" r="2.88"/>
    <path d="M115.11,101.67c-.13,3.96-5.83,3.95-5.99,0,.07-4.12,5.95-4.14,5.99,0h0ZM115.06,101.67c-.16-3.47-5.39-3.48-5.54,0,.03,3.64,5.47,3.64,5.54,0h0Z"/>
  </g>
  <g>
    <circle class="cls-1" cx="112.67" cy="92.02" r="2.42"/>
    <path d="M115.11,92.02c-.13,3.35-4.89,3.36-5.06,0,.03-3.5,5.06-3.52,5.06,0h0ZM115.06,92.02c-.12-2.85-4.49-2.86-4.61,0,0,3.01,4.56,3.04,4.61,0h0Z"/>
  </g>
</svg>