<?xml version="1.0" encoding="UTF-8"?>
<svg id="Layer_1" data-name="Layer 1" xmlns="http://www.w3.org/2000/svg" viewBox="0 0 128.18 128.18">
  <defs>
    <style>
      .cls-1 {
        fill: #f9f1ac;
      }
    </style>
  </defs>
  <g>
    <polygon class="cls-1" points="59.5 13.44 66.56 59.95 93.06 63.45 66.56 66.96 59.5 113.47 52.44 66.96 25.94 63.45 52.44 59.95 59.5 13.44"/>
    <path d="M59.5,13.41c-.08-.02,7.33,46.83,7.08,46.44,0,0,26.5,3.47,26.5,3.47.14.01.14.24,0,.25,0,0-26.49,3.53-26.49,3.53.44-.76-7.02,46.53-6.89,46.38-.02.21-.37.22-.4,0,.19.04-7.55-47.32-6.9-46.31,0,0-26.5-3.49-26.5-3.49-.27-.03-.29-.47,0-.5,0,0,26.51-3.43,26.51-3.43-.49.82,7.24-46.51,7.09-46.36h0ZM59.5,13.46c-.14.14-6.68,46.66-7.04,46.65,0,0-26.48,3.59-26.48,3.59v-.5l26.49,3.53c.47-.03,7.05,46.51,7.23,46.71,0,0-.4,0-.4,0l7.11-46.5c0-.32,26.5-3.48,26.63-3.61,0,0,0,.25,0,.25l-26.49-3.54c-.17-.03-6.99-46.46-7.05-46.57h0Z"/>
  </g>
  <g>
    <polygon class="cls-1" points="83.7 94.63 85.67 102.36 93.06 104.69 85.67 107.02 83.7 114.74 81.73 107.02 74.33 104.69 81.73 102.36 83.7 94.63"/>
    <path d="M83.7,94.61l2.04,7.73-.05-.05,7.41,2.28c.11.03.12.21,0,.24,0,0-7.38,2.37-7.38,2.37l.11-.11-1.93,7.73c-.03.11-.14.17-.24.15-.07-.02-.13-.08-.15-.15l-2-7.72.15.16-7.4-2.31c-.23-.06-.23-.42,0-.48,0,0,7.43-2.23,7.43-2.23l-.09.1,2.11-7.71h0ZM83.7,94.66c-.73,2.63-1.13,5.37-1.93,7.83,0,0-7.36,2.44-7.36,2.44v-.48l7.39,2.35c.08.02.13.09.15.16l1.95,7.73h-.39l2.01-7.71c.01-.06.06-.1.11-.11l7.4-2.3v.24l-7.38-2.38s-.04-.03-.05-.05l-1.9-7.72h0Z"/>
  </g>
  <g>
    <polygon class="cls-1" points="33.73 31.61 35.7 39.34 43.1 41.67 35.7 44 33.73 51.72 31.76 44 24.37 41.67 31.76 39.34 33.73 31.61"/>
    <path d="M33.73,31.59l2.04,7.73-.05-.05,7.41,2.28c.11.03.12.21,0,.24,0,0-7.38,2.37-7.38,2.37l.11-.11-1.93,7.73c-.03.11-.14.17-.24.15-.07-.02-.13-.08-.15-.15l-2-7.72.15.16-7.4-2.31c-.23-.06-.23-.42,0-.48,0,0,7.43-2.23,7.43-2.23l-.09.1,2.11-7.71h0ZM33.73,31.64c-.73,2.63-1.13,5.37-1.93,7.83,0,0-7.36,2.44-7.36,2.44v-.48l7.39,2.35c.08.02.13.09.15.16l1.95,7.73h-.39l2.01-7.71c.01-.06.06-.1.11-.11l7.4-2.3v.24l-7.38-2.38s-.04-.03-.05-.05l-1.9-7.72h0Z"/>
  </g>
  <g>
    <circle class="cls-1" cx="97.93" cy="86.4" r="3.06"/>
    <path d="M101.01,86.4c-.13,4.19-6.17,4.19-6.34,0,.08-4.36,6.29-4.37,6.34,0h0ZM100.96,86.4c-.16-3.7-5.73-3.72-5.89,0,.04,3.88,5.82,3.87,5.89,0h0Z"/>
  </g>
  <g>
    <circle class="cls-1" cx="101.88" cy="78.54" r="1.94"/>
    <path d="M103.84,78.54c-.09,2.7-3.94,2.74-4.1,0,.02-2.87,4.11-2.89,4.1,0h0ZM103.79,78.54c-.08-2.21-3.57-2.22-3.65,0-.01,2.38,3.61,2.4,3.65,0h0Z"/>
  </g>
  <g>
    <circle class="cls-1" cx="48.59" cy="100.75" r="1.94"/>
    <path d="M50.55,100.75c-.09,2.7-3.94,2.74-4.1,0,.02-2.87,4.11-2.89,4.1,0h0ZM50.5,100.75c-.08-2.21-3.57-2.22-3.65,0-.01,2.38,3.61,2.4,3.65,0h0Z"/>
  </g>
  <g>
    <circle class="cls-1" cx="42.68" cy="105.76" r="1.94"/>
    <path d="M44.64,105.76c-.09,2.7-3.94,2.74-4.1,0,.02-2.87,4.11-2.89,4.1,0h0ZM44.59,105.76c-.08-2.21-3.57-2.22-3.65,0-.01,2.38,3.61,2.4,3.65,0h0Z"/>
  </g>
  <g>
    <circle class="cls-1" cx="48.95" cy="107.7" r="1.94"/>
    <path d="M50.91,107.7c-.09,2.7-3.94,2.74-4.1,0,.02-2.87,4.11-2.89,4.1,0h0ZM50.86,107.7c-.08-2.21-3.57-2.22-3.65,0-.01,2.38,3.61,2.4,3.65,0h0Z"/>
  </g>
</svg>