<?xml version="1.0" encoding="UTF-8"?>
<svg id="Layer_1" data-name="Layer 1" xmlns="http://www.w3.org/2000/svg" viewBox="0 0 128.18 128.18">
  <defs>
    <style>
      .cls-1 {
        fill: #f9f1ac;
      }
    </style>
  </defs>
  <g>
    <polygon class="cls-1" points="32.99 20.19 36.11 32.44 47.84 36.14 36.11 39.84 32.99 52.1 29.86 39.84 18.13 36.14 29.86 32.44 32.99 20.19"/>
    <path d="M32.99,20.16s3.33,12.48,3.15,12.21c0,0,11.75,3.65,11.75,3.65.11.03.12.21,0,.24,0,0-11.72,3.73-11.72,3.73l.11-.11-3.09,12.27c-.03.11-.14.17-.24.14-.07-.02-.13-.08-.15-.14l-3.15-12.25.15.16-11.74-3.68c-.23-.06-.23-.42,0-.48,0,0,11.76-3.59,11.76-3.59-.33.58,3.26-12.28,3.17-12.15h0ZM32.99,20.21l-2.99,12.27s-.05.08-.09.1l-11.7,3.8v-.48l11.72,3.72c.08.02.13.09.15.16l3.1,12.26h-.39l3.16-12.25c.01-.06.06-.1.11-.11l11.74-3.66v.24l-11.72-3.75c-.11,0-3.06-12.25-3.1-12.3h0Z"/>
  </g>
  <g>
    <polygon class="cls-1" points="95.2 79.96 98.33 92.21 110.06 95.91 98.33 99.61 95.2 111.87 92.07 99.61 80.34 95.91 92.07 92.21 95.2 79.96"/>
    <path d="M95.2,79.93s3.33,12.48,3.15,12.21c0,0,11.75,3.65,11.75,3.65.11.03.12.21,0,.24,0,0-11.72,3.73-11.72,3.73l.11-.11-3.09,12.27c-.03.11-.14.17-.24.14-.07-.02-.13-.08-.15-.14l-3.15-12.25.15.16-11.74-3.68c-.23-.06-.23-.42,0-.48,0,0,11.76-3.59,11.76-3.59l-.09.1,3.26-12.25h0ZM95.2,79.98l-2.99,12.27s-.05.08-.09.1l-11.7,3.8v-.48l11.72,3.72c.08.02.13.09.15.16l3.1,12.26h-.39l3.16-12.25c.01-.06.06-.1.11-.11l11.74-3.66v.24l-11.72-3.75c-.11,0-3.06-12.25-3.1-12.3h0Z"/>
  </g>
  <g>
    <circle class="cls-1" cx="51.21" cy="26.72" r="3.06"/>
    <path d="M54.29,26.72c-.13,4.19-6.17,4.18-6.34,0,.08-4.36,6.29-4.37,6.34,0h0ZM54.24,26.72c-.16-3.7-5.73-3.72-5.89,0,.04,3.88,5.82,3.87,5.89,0h0Z"/>
  </g>
  <g>
    <circle class="cls-1" cx="46.09" cy="98.97" r="3.78"/>
    <path d="M49.9,98.97c-.19,5.17-7.57,5.16-7.79,0,.11-5.32,7.72-5.33,7.79,0h0ZM49.85,98.97c-.19-4.67-7.17-4.67-7.34,0,.06,4.84,7.25,4.83,7.34,0h0Z"/>
  </g>
  <g>
    <circle class="cls-1" cx="36.55" cy="96.61" r="2.36"/>
    <path d="M38.94,96.61c-.11,3.26-4.77,3.3-4.95,0,.03-3.43,4.95-3.45,4.95,0h0ZM38.89,96.61c-.11-2.78-4.39-2.79-4.5,0,0,2.94,4.45,2.96,4.5,0h0Z"/>
  </g>
  <g>
    <circle class="cls-1" cx="41.28" cy="88.17" r="2.36"/>
    <path d="M43.66,88.17c-.11,3.26-4.77,3.3-4.95,0,.03-3.43,4.95-3.45,4.95,0h0ZM43.61,88.17c-.11-2.78-4.39-2.79-4.5,0,0,2.94,4.45,2.96,4.5,0h0Z"/>
  </g>
  <g>
    <circle class="cls-1" cx="53.25" cy="18.25" r="1.94"/>
    <path d="M55.21,18.25c-.09,2.7-3.94,2.74-4.1,0,.02-2.87,4.11-2.89,4.1,0h0ZM55.16,18.25c-.08-2.21-3.57-2.22-3.65,0-.01,2.38,3.61,2.4,3.65,0h0Z"/>
  </g>
  <g>
    <polygon class="cls-1" points="77.44 70.01 106.53 64.42 77.31 58.8 87.39 43.12 73.26 52.2 66.09 19.66 58.94 52.08 44.67 43.02 54.7 58.83 25.65 64.42 54.95 70.05 45.85 84.65 58.89 76.53 66.09 109.17 73.23 76.79 87.48 85.83 77.44 70.01"/>
    <path d="M77.42,70c-.03.09,29.34-5.87,29.1-5.53,0,0-29.23-5.59-29.23-5.59-.06,0-.09-.08-.06-.13l10.06-15.69.14.14-14.12,9.09c-.07.05-.17,0-.19-.08l-7.2-32.52h.29l-7.12,32.42c-.02.12-.16.17-.26.11l-14.28-9.04.26-.26,10.04,15.8c.08.12,0,.28-.13.3l-29.05,5.6v-.42l29.31,5.62c.13.02.21.15.18.27-.02.09-9.08,14.6-9.12,14.68,0,0-.33-.33-.33-.33l13.03-8.13c.14-.09.34,0,.37.16l7.13,32.66h-.36l7.21-32.36c.01-.07.1-.11.16-.07,0,0,14.23,9.08,14.23,9.08-.06.53-10.06-15.9-10.1-15.78h0ZM77.47,70.02l10.07,15.78c.04.06-.04.13-.09.09,0,0-14.28-9.01-14.28-9.01l.16-.07-7.06,32.4c-.02.1-.12.16-.22.14-.32.07-7.26-32.68-7.4-32.77,0,0,.37.16.37.16l-13.04,8.12c-.2.13-.47-.12-.33-.33,0,0,9.11-14.6,9.11-14.6l.15.35-29.3-5.65c-.22-.03-.23-.39,0-.42,0,0,29.06-5.57,29.06-5.57l-.13.3-10.02-15.82c-.11-.15.1-.37.26-.26,0,0,14.26,9.07,14.26,9.07l-.26.11,7.17-32.41c.03-.15.26-.15.29,0-.18-.01,7.58,33.03,6.96,32.46,0,0,14.14-9.07,14.14-9.07.09-.06.21.05.15.14,0,0-10.1,15.67-10.1,15.67-.43-.43,29.21,5.65,29.16,5.52.32.26-29.09,5.55-29.08,5.66h0Z"/>
  </g>
</svg>