<?xml version="1.0" encoding="UTF-8"?>
<svg id="Layer_1" data-name="Layer 1" xmlns="http://www.w3.org/2000/svg" viewBox="0 0 128.18 128.18">
  <defs>
    <style>
      .cls-1 {
        fill: #f9f1ac;
      }
    </style>
  </defs>
  <g>
    <polygon class="cls-1" points="75.51 42.92 73.2 65.24 95.51 62.82 75.03 71.99 88.28 90.1 70.1 76.94 61.04 97.47 63.34 75.15 41.04 77.57 61.52 68.4 48.27 50.29 66.45 63.45 75.51 42.92"/>
    <path d="M75.52,42.9c-.07-.02-2.14,22.62-2.32,22.29,0,0,22.3-2.45,22.3-2.45.05,0,.1.03.1.08,0,.04-.02.08-.05.09l-20.47,9.19.05-.19,13.27,18.1c.1.13-.08.32-.21.21,0,0-18.19-13.14-18.19-13.14l.26-.07-9.04,20.54c-.08.2-.41.12-.38-.1,0,0,2.29-22.32,2.29-22.32l.24.24-22.31,2.43c-.25.03-.37-.35-.12-.45,0,0,20.47-9.18,20.47-9.18l-.1.38-13.19-18.15c-.06-.08-.04-.19.04-.24.06-.05.15-.04.21,0l18.13,13.22-.15.04,9.16-20.51h0ZM75.5,42.95c-.14.07-8.83,20.72-9.09,20.59-.02,0-18.22-13.09-18.24-13.11,0,0,.24-.25.24-.25l13.31,18.07c.08.11.06.27-.05.35-.08.02-20.46,9.16-20.54,9.18,0,0-.12-.44-.12-.44l22.31-2.4c.14-.02.25.1.24.24l-2.32,22.32-.38-.1,9.08-20.52c.04-.09.14-.13.23-.09.05.04,18.15,13.15,18.19,13.19,0,0-.21.21-.21.21l-13.23-18.12c-.04-.06-.03-.13.03-.17.04-.02,20.48-9.13,20.52-9.15,0,0,.05.17.05.17-.06-.05-22.37,2.5-22.37,2.33,0-.02,2.35-22.28,2.36-22.3h0Z"/>
  </g>
  <g>
    <polygon class="cls-1" points="37.56 30.71 36.23 43.61 49.12 42.22 37.28 47.51 44.94 57.98 34.43 50.38 29.19 62.24 30.53 49.34 17.63 50.74 29.47 45.44 21.81 34.97 32.32 42.58 37.56 30.71"/>
    <path d="M37.56,30.69c-.07-.02-1.17,13.2-1.34,12.87,0,0,12.89-1.43,12.89-1.43.05,0,.1.03.1.08,0,.04-.02.08-.05.09l-11.83,5.33.05-.19,7.68,10.45c.1.13-.07.31-.21.21,0,0-10.52-7.58-10.52-7.58l.26-.07-5.21,11.88c-.08.2-.41.12-.38-.1,0,0,1.32-12.9,1.32-12.9l.24.24-12.89,1.41c-.25.03-.36-.35-.12-.44,0,0,11.83-5.31,11.83-5.31l-.1.38-7.6-10.51c-.06-.08-.04-.19.04-.24.06-.05.15-.04.21,0l10.46,7.67-.15.04,5.34-11.85h0ZM37.55,30.74l-5.14,11.88c-.02.05-.08.07-.13.05-.03-.03-10.54-7.53-10.57-7.56,0,0,.24-.25.24-.25l7.72,10.42c.08.11.06.27-.05.35-.05.03-11.84,5.29-11.89,5.31,0,0-.12-.44-.12-.44l12.9-1.38c.14-.02.25.1.24.24l-1.35,12.9-.38-.1,5.26-11.86c.04-.09.14-.13.23-.09.04.03,10.48,7.61,10.52,7.64,0,0-.21.21-.21.21l-7.64-10.48c-.04-.06-.03-.13.03-.17.04-.02,11.84-5.27,11.88-5.28,0,0,.05.17.05.17-.06-.05-12.96,1.48-12.96,1.31,0-.01,1.38-12.87,1.38-12.88h0Z"/>
  </g>
  <g>
    <circle class="cls-1" cx="98.12" cy="72.61" r="4.89"/>
    <path d="M103.04,72.61c-.23,6.63-9.75,6.62-10.01,0,.15-6.77,9.89-6.8,10.01,0h0ZM102.99,72.61c-.27-6.14-9.32-6.16-9.56,0,.14,6.31,9.39,6.3,9.56,0h0Z"/>
  </g>
  <g>
    <circle class="cls-1" cx="111.17" cy="76.48" r="3.03"/>
    <path d="M114.22,76.48c-.13,4.16-6.12,4.15-6.29,0,.08-4.32,6.24-4.34,6.29,0h0ZM114.17,76.48c-.16-3.67-5.68-3.68-5.84,0,.04,3.84,5.77,3.84,5.84,0h0Z"/>
  </g>
  <g>
    <circle class="cls-1" cx="111.17" cy="64.69" r="3.03"/>
    <path d="M114.22,64.69c-.13,4.16-6.12,4.15-6.29,0,.08-4.32,6.24-4.34,6.29,0h0ZM114.17,64.69c-.16-3.67-5.68-3.68-5.84,0,.04,3.84,5.77,3.84,5.84,0h0Z"/>
  </g>
  <g>
    <polygon class="cls-1" points="36.02 86.1 28.68 83.47 29.59 91.23 25.65 84.49 21.36 91.01 22.68 83.32 15.2 85.56 21.15 80.51 13.99 77.42 21.79 77.38 18.29 70.41 24.29 75.39 26.09 67.8 27.48 75.48 33.74 70.81 29.87 77.59 37.67 78.04 30.35 80.75 36.02 86.1"/>
    <path d="M36.05,86.12l-7.38-2.6.06-.05.93,7.75c.01.07-.09.11-.13.04,0,0-3.96-6.73-3.96-6.73h.16s-4.27,6.54-4.27,6.54c-.03.05-.1.07-.16.03-.04-.03-.06-.07-.05-.11l1.3-7.7.17.15-7.47,2.26c-.15.05-.27-.16-.14-.26,0,0,5.94-5.06,5.94-5.06l.04.28-7.17-3.07c-.18-.07-.12-.36.07-.35,0,0,7.8-.06,7.8-.06l-.18.29-3.54-6.95c-.06-.12-.01-.26.1-.32.09-.04.19-.03.26.03l6.01,4.98-.4.13,1.8-7.59c.05-.25.45-.25.49.01,0,0,1.4,7.68,1.4,7.68l-.39-.16,6.27-4.65c.19-.15.47.09.34.3,0,0-3.9,6.76-3.9,6.76l-.15-.28,7.79.49c.08,0,.15.07.14.16,0,.06-.04.11-.1.13l-7.33,2.66.04-.17,5.63,5.44h0ZM36,86.09l-5.73-5.26c-.06-.05-.04-.15.04-.17l7.3-2.75.04.29-7.79-.41c-.14,0-.22-.17-.15-.28l3.83-6.8.34.3-6.25,4.68c-.14.11-.37.02-.39-.16l-1.39-7.68h.49s-1.8,7.61-1.8,7.61c-.04.18-.26.25-.4.13,0,0-6-4.99-6-4.99l.37-.29,3.47,6.99c.05.1.01.22-.09.27-.03.01-.06.02-.09.02l-7.8.02.07-.35,7.16,3.1c.11.04.13.2.04.28l-5.96,5.03-.14-.26,7.48-2.22c.09-.03.19.06.17.15l-1.33,7.69-.21-.08,4.3-6.51c.03-.06.12-.05.16,0l3.92,6.75s-.13.04-.13.04l-.89-7.75s.02-.05.04-.05c.03,0,7.3,2.65,7.33,2.66h0Z"/>
  </g>
</svg>