<?xml version="1.0" encoding="UTF-8"?>
<svg id="Layer_1" data-name="Layer 1" xmlns="http://www.w3.org/2000/svg" viewBox="0 0 128.18 128.18">
  <defs>
    <style>
      .cls-1 {
        fill: #f9f1ac;
        stroke: #000;
        stroke-linecap: round;
        stroke-linejoin: round;
        stroke-width: .5px;
      }
    </style>
  </defs>
  <polygon class="cls-1" points="75.51 42.92 73.2 65.24 95.51 62.82 75.03 71.99 88.28 90.1 70.1 76.94 61.04 97.47 63.34 75.15 41.04 77.57 61.52 68.4 48.27 50.29 66.45 63.45 75.51 42.92"/>
  <polygon class="cls-1" points="37.56 30.71 36.23 43.61 49.12 42.22 37.28 47.51 44.94 57.98 34.43 50.38 29.19 62.24 30.53 49.34 17.63 50.74 29.47 45.44 21.81 34.97 32.32 42.58 37.56 30.71"/>
  <circle class="cls-1" cx="98.12" cy="72.61" r="4.89"/>
  <circle class="cls-1" cx="111.17" cy="76.48" r="3.03"/>
  <circle class="cls-1" cx="111.17" cy="64.69" r="3.03"/>
  <polygon class="cls-1" points="36.02 86.1 28.68 83.47 29.59 91.23 25.65 84.49 21.36 91.01 22.68 83.32 15.2 85.56 21.15 80.51 13.99 77.42 21.79 77.38 18.29 70.41 24.29 75.39 26.09 67.8 27.48 75.48 33.74 70.81 29.87 77.59 37.67 78.04 30.35 80.75 36.02 86.1"/>
</svg>