<svg width="102" height="547" viewBox="0 0 102 547" fill="none" xmlns="http://www.w3.org/2000/svg">
<rect x="0.522569" y="3.98881" width="75.0155" height="543" transform="rotate(-2.64832 0.522569 3.98881)" fill="#F6D2D4" stroke="black" stroke-linejoin="round"/>
<mask id="path-2-outside-1_2920_53" maskUnits="userSpaceOnUse" x="20.2476" y="15.6499" width="49.1763" height="287.358" fill="black">
<rect fill="white" x="20.2476" y="15.6499" width="49.1763" height="287.358"/>
<path d="M54.2814 17.7006L54.6079 24.7603L31.8378 35.3204L31.8562 35.7175L55.5039 44.1306L55.8305 51.1903L23.8851 52.6679L23.6299 47.1525L45.6034 46.1361L45.5892 45.8273L23.2937 37.9707L23.1039 33.8673L44.6671 23.9821L44.6549 23.7173L22.5931 24.7378L22.336 19.1782L54.2814 17.7006ZM41.7632 93.1228C31.4383 93.6004 25.0594 87.6165 24.6716 79.2331C24.2839 70.8496 30.1272 64.3004 40.408 63.8248C50.7329 63.3472 57.1117 69.3311 57.4995 77.7146C57.8873 86.0981 52.0881 92.6452 41.7632 93.1228ZM41.4958 87.3426C48.7762 87.0059 52.5779 83.16 52.3371 77.9534C52.0962 72.7468 47.9557 69.2683 40.6754 69.605C33.395 69.9418 29.5933 73.7877 29.8341 78.9943C30.0749 84.2008 34.2154 87.6794 41.4958 87.3426ZM43.6318 133.522C33.3069 134 26.9281 128.016 26.5403 119.633C26.1525 111.249 31.9959 104.7 42.2767 104.224C52.6016 103.747 58.9804 109.731 59.3682 118.114C59.756 126.498 53.9567 133.045 43.6318 133.522ZM43.3645 127.742C50.6449 127.405 54.4466 123.559 54.2057 118.353C53.9649 113.146 49.8244 109.668 42.544 110.004C35.2637 110.341 31.4619 114.187 31.7028 119.394C31.9436 124.6 36.0841 128.079 43.3645 127.742ZM28.7114 157.011L28.2094 146.157L60.1548 144.679L60.665 155.71C61.1059 165.241 55.3724 171.298 45.4446 171.758C35.4727 172.219 29.1604 166.718 28.7114 157.011ZM33.4606 151.662L33.6831 156.472C33.9913 163.134 37.8107 166.362 45.1793 166.022C52.5038 165.683 55.9648 162.118 55.6648 155.632L55.4341 150.646L33.4606 151.662ZM62.1867 188.609L30.2413 190.086L29.976 184.35L61.9214 182.872L62.1867 188.609ZM31.0181 206.88L30.7344 200.746L63.2003 210.52L63.5268 217.58L32.1039 230.353L31.8202 224.22L39.5958 221.207L39.0387 209.162L31.0181 206.88ZM43.7431 210.492L44.1574 219.449L56.8394 214.485L56.8271 214.22L43.7431 210.492ZM32.5929 240.925L64.5383 239.448L65.0934 251.449C65.4322 258.774 61.5104 262.89 55.4213 263.172C51.0752 263.373 47.7623 261.537 46.0666 257.857L33.7215 265.326L33.4256 258.928L44.8285 252.121L44.5509 246.12L32.8582 246.661L32.5929 240.925ZM49.3604 245.898L49.6094 251.281C49.8094 255.605 51.7524 257.461 55.1499 257.304C58.5474 257.147 60.4431 255.113 60.2431 250.789L59.9941 245.406L49.3604 245.898ZM65.9967 270.978L66.2967 277.464L52.5405 285.972L52.5548 286.28L67.0376 293.481L67.3376 299.967L46.8129 289.287L34.8554 289.841L34.5901 284.105L46.5476 283.551L65.9967 270.978Z"/>
</mask>
<path d="M54.2814 17.7006L55.2803 17.6544C55.2548 17.1027 54.7869 16.6761 54.2352 16.7017L54.2814 17.7006ZM54.6079 24.7603L55.0287 25.6675C55.3971 25.4966 55.6256 25.1199 55.6069 24.7141L54.6079 24.7603ZM31.8378 35.3204L31.4171 34.4132C31.0486 34.5841 30.8201 34.9609 30.8389 35.3666L31.8378 35.3204ZM31.8562 35.7175L30.8572 35.7637C30.876 36.1695 31.1383 36.5235 31.521 36.6597L31.8562 35.7175ZM55.5039 44.1306L56.5028 44.0844C56.4841 43.6786 56.2218 43.3245 55.8391 43.1884L55.5039 44.1306ZM55.8305 51.1903L55.8767 52.1892C56.4284 52.1637 56.8549 51.6958 56.8294 51.1441L55.8305 51.1903ZM23.8851 52.6679L22.8861 52.7142C22.9116 53.2658 23.3796 53.6924 23.9313 53.6669L23.8851 52.6679ZM23.6299 47.1525L23.5837 46.1536C23.032 46.1791 22.6055 46.647 22.631 47.1987L23.6299 47.1525ZM45.6034 46.1361L45.6496 47.1351C46.2013 47.1095 46.6279 46.6416 46.6024 46.0899L45.6034 46.1361ZM45.5892 45.8273L46.5881 45.7811C46.5693 45.3742 46.3056 45.0195 45.9215 44.8841L45.5892 45.8273ZM23.2937 37.9707L22.2947 38.0169C22.3136 38.4238 22.5772 38.7785 22.9613 38.9139L23.2937 37.9707ZM23.1039 33.8673L22.6871 32.9582C22.3165 33.1282 22.0861 33.5061 22.1049 33.9135L23.1039 33.8673ZM44.6671 23.9821L45.0839 24.8911C45.4545 24.7212 45.6849 24.3432 45.6661 23.9358L44.6671 23.9821ZM44.6549 23.7173L45.6538 23.6711C45.6283 23.1194 45.1604 22.6929 44.6087 22.7184L44.6549 23.7173ZM22.5931 24.7378L21.5942 24.784C21.6197 25.3357 22.0877 25.7622 22.6394 25.7367L22.5931 24.7378ZM22.336 19.1782L22.2898 18.1793C21.7381 18.2048 21.3115 18.6727 21.3371 19.2244L22.336 19.1782ZM54.2814 17.7006L53.2825 17.7468L53.609 24.8066L54.6079 24.7603L55.6069 24.7141L55.2803 17.6544L54.2814 17.7006ZM54.6079 24.7603L54.1872 23.8532L31.4171 34.4132L31.8378 35.3204L32.2585 36.2276L55.0287 25.6675L54.6079 24.7603ZM31.8378 35.3204L30.8389 35.3666L30.8572 35.7637L31.8562 35.7175L32.8551 35.6713L32.8367 35.2742L31.8378 35.3204ZM31.8562 35.7175L31.521 36.6597L55.1687 45.0727L55.5039 44.1306L55.8391 43.1884L32.1913 34.7754L31.8562 35.7175ZM55.5039 44.1306L54.505 44.1768L54.8315 51.2365L55.8305 51.1903L56.8294 51.1441L56.5028 44.0844L55.5039 44.1306ZM55.8305 51.1903L55.7843 50.1914L23.8388 51.669L23.8851 52.6679L23.9313 53.6669L55.8767 52.1892L55.8305 51.1903ZM23.8851 52.6679L24.884 52.6217L24.6289 47.1063L23.6299 47.1525L22.631 47.1987L22.8861 52.7142L23.8851 52.6679ZM23.6299 47.1525L23.6761 48.1514L45.6496 47.1351L45.6034 46.1361L45.5572 45.1372L23.5837 46.1536L23.6299 47.1525ZM45.6034 46.1361L46.6024 46.0899L46.5881 45.7811L45.5892 45.8273L44.5902 45.8735L44.6045 46.1823L45.6034 46.1361ZM45.5892 45.8273L45.9215 44.8841L23.626 37.0276L23.2937 37.9707L22.9613 38.9139L45.2568 46.7704L45.5892 45.8273ZM23.2937 37.9707L24.2926 37.9245L24.1028 33.8211L23.1039 33.8673L22.1049 33.9135L22.2947 38.0169L23.2937 37.9707ZM23.1039 33.8673L23.5206 34.7763L45.0839 24.8911L44.6671 23.9821L44.2504 23.073L22.6871 32.9582L23.1039 33.8673ZM44.6671 23.9821L45.6661 23.9358L45.6538 23.6711L44.6549 23.7173L43.656 23.7635L43.6682 24.0283L44.6671 23.9821ZM44.6549 23.7173L44.6087 22.7184L22.5469 23.7388L22.5931 24.7378L22.6394 25.7367L44.7011 24.7162L44.6549 23.7173ZM22.5931 24.7378L23.5921 24.6916L23.3349 19.132L22.336 19.1782L21.3371 19.2244L21.5942 24.784L22.5931 24.7378ZM22.336 19.1782L22.3822 20.1771L54.3276 18.6995L54.2814 17.7006L54.2352 16.7017L22.2898 18.1793L22.336 19.1782ZM41.7632 93.1228L41.717 92.1239C36.7574 92.3533 32.8435 91.0293 30.1372 88.7377C27.4351 86.4496 25.8529 83.1277 25.6706 79.1868L24.6716 79.2331L23.6727 79.2793C23.8782 83.7219 25.6793 87.5836 28.8448 90.264C32.006 92.9408 36.4441 94.3699 41.8094 94.1218L41.7632 93.1228ZM24.6716 79.2331L25.6706 79.1868C25.4884 75.2481 26.7667 71.7935 29.2523 69.2644C31.7419 66.7313 35.5176 65.0521 40.4542 64.8238L40.408 63.8248L40.3618 62.8259C35.0176 63.0731 30.7313 64.9063 27.8259 67.8625C24.9165 70.8228 23.4671 74.8345 23.6727 79.2793L24.6716 79.2331ZM40.408 63.8248L40.4542 64.8238C45.4138 64.5944 49.3276 65.9184 52.034 68.21C54.7361 70.498 56.3183 73.82 56.5006 77.7608L57.4995 77.7146L58.4985 77.6684C58.293 73.2258 56.4919 69.364 53.3264 66.6837C50.1651 64.0068 45.7271 62.5777 40.3618 62.8259L40.408 63.8248ZM57.4995 77.7146L56.5006 77.7608C56.6829 81.7016 55.4141 85.1555 52.9347 87.6832C50.4515 90.2148 46.6766 91.8945 41.717 92.1239L41.7632 93.1228L41.8094 94.1218C47.1747 93.8736 51.4618 92.0409 54.3625 89.0837C57.267 86.1225 58.7039 82.111 58.4985 77.6684L57.4995 77.7146ZM41.4958 87.3426L41.542 88.3416C45.3397 88.1659 48.357 87.0693 50.4074 85.2161C52.4774 83.3451 53.4691 80.7842 53.336 77.9072L52.3371 77.9534L51.3381 77.9996C51.4459 80.3292 50.6572 82.2945 49.0663 83.7323C47.456 85.1879 44.9323 86.1826 41.4496 86.3437L41.4958 87.3426ZM52.3371 77.9534L53.336 77.9072C53.2029 75.0302 51.979 72.5717 49.7452 70.8998C47.5325 69.2438 44.4268 68.4304 40.6291 68.6061L40.6754 69.605L40.7216 70.6039C44.2043 70.4428 46.809 71.2004 48.5468 72.5011C50.2636 73.7859 51.2304 75.67 51.3381 77.9996L52.3371 77.9534ZM40.6754 69.605L40.6291 68.6061C36.8315 68.7817 33.8141 69.8783 31.7637 71.7316C29.6938 73.6025 28.7021 76.1635 28.8352 79.0405L29.8341 78.9943L30.833 78.9481C30.7253 76.6185 31.514 74.6532 33.1048 73.2153C34.7152 71.7598 37.2389 70.765 40.7216 70.6039L40.6754 69.605ZM29.8341 78.9943L28.8352 79.0405C28.9682 81.9175 30.1921 84.3759 32.4259 86.0478C34.6386 87.7039 37.7443 88.5172 41.542 88.3416L41.4958 87.3426L41.4496 86.3437C37.9669 86.5048 35.3622 85.7473 33.6243 84.4466C31.9076 83.1617 30.9408 81.2776 30.833 78.9481L29.8341 78.9943ZM43.6318 133.522L43.5856 132.523C38.626 132.753 34.7122 131.429 32.0059 129.137C29.3038 126.849 27.7215 123.527 27.5392 119.586L26.5403 119.633L25.5414 119.679C25.7469 124.121 27.548 127.983 30.7134 130.663C33.8747 133.34 38.3128 134.769 43.678 134.521L43.6318 133.522ZM26.5403 119.633L27.5392 119.586C27.3571 115.648 28.6354 112.193 31.121 109.664C33.6105 107.131 37.3863 105.452 42.3229 105.223L42.2767 104.224L42.2305 103.225C36.8863 103.473 32.6 105.306 29.6946 108.262C26.7852 111.222 25.3358 115.234 25.5414 119.679L26.5403 119.633ZM42.2767 104.224L42.3229 105.223C47.2825 104.994 51.1963 106.318 53.9026 108.609C56.6048 110.897 58.187 114.219 58.3693 118.16L59.3682 118.114L60.3671 118.068C60.1616 113.625 58.3605 109.764 55.1951 107.083C52.0338 104.406 47.5958 102.977 42.2305 103.225L42.2767 104.224ZM59.3682 118.114L58.3693 118.16C58.5515 122.101 57.2827 125.555 54.8034 128.083C52.3201 130.614 48.5452 132.294 43.5856 132.523L43.6318 133.522L43.678 134.521C49.0433 134.273 53.3305 132.44 56.2312 129.483C59.1357 126.522 60.5726 122.51 60.3671 118.068L59.3682 118.114ZM43.3645 127.742L43.4107 128.741C47.2084 128.565 50.2257 127.469 52.2761 125.616C54.346 123.745 55.3378 121.184 55.2047 118.307L54.2057 118.353L53.2068 118.399C53.3146 120.729 52.5258 122.694 50.935 124.132C49.3247 125.587 46.801 126.582 43.3183 126.743L43.3645 127.742ZM54.2057 118.353L55.2047 118.307C55.0716 115.43 53.8477 112.971 51.6139 111.299C49.4012 109.643 46.2955 108.83 42.4978 109.006L42.544 110.004L42.5902 111.003C46.0729 110.842 48.6777 111.6 50.4155 112.901C52.1323 114.185 53.0991 116.069 53.2068 118.399L54.2057 118.353ZM42.544 110.004L42.4978 109.006C38.7001 109.181 35.6828 110.278 33.6324 112.131C31.5625 114.002 30.5708 116.563 30.7038 119.44L31.7028 119.394L32.7017 119.348C32.5939 117.018 33.3827 115.053 34.9735 113.615C36.5838 112.159 39.1075 111.165 42.5902 111.003L42.544 110.004ZM31.7028 119.394L30.7038 119.44C30.8369 122.317 32.0608 124.775 34.2946 126.447C36.5073 128.103 39.613 128.917 43.4107 128.741L43.3645 127.742L43.3183 126.743C39.8356 126.904 37.2308 126.147 35.493 124.846C33.7762 123.561 32.8094 121.677 32.7017 119.348L31.7028 119.394ZM28.2094 146.157L28.1632 145.158C27.6115 145.183 27.1849 145.651 27.2104 146.203L28.2094 146.157ZM60.1548 144.679L61.1537 144.633C61.1282 144.081 60.6603 143.655 60.1086 143.68L60.1548 144.679ZM33.4606 151.662L33.4144 150.663C32.8627 150.689 32.4362 151.157 32.4617 151.708L33.4606 151.662ZM55.4341 150.646L56.4331 150.6C56.4076 150.048 55.9396 149.621 55.3879 149.647L55.4341 150.646ZM28.7114 157.011L29.7104 156.965L29.2083 146.111L28.2094 146.157L27.2104 146.203L27.7125 157.057L28.7114 157.011ZM28.2094 146.157L28.2556 147.156L60.201 145.678L60.1548 144.679L60.1086 143.68L28.1632 145.158L28.2094 146.157ZM60.1548 144.679L59.1558 144.725L59.6661 155.756L60.665 155.71L61.6639 155.664L61.1537 144.633L60.1548 144.679ZM60.665 155.71L59.6661 155.756C59.8766 160.308 58.6131 163.92 56.2173 166.448C53.8169 168.98 50.1706 170.538 45.3984 170.759L45.4446 171.758L45.4908 172.757C50.6465 172.518 54.8308 170.818 57.6688 167.824C60.5115 164.825 61.8943 160.643 61.6639 155.664L60.665 155.71ZM45.4446 171.758L45.3984 170.759C40.6031 170.981 36.8074 169.766 34.167 167.446C31.5315 165.131 29.9251 161.607 29.7104 156.965L28.7114 157.011L27.7125 157.057C27.9468 162.122 29.7211 166.203 32.8469 168.949C35.9678 171.691 40.3143 172.996 45.4908 172.757L45.4446 171.758ZM33.4606 151.662L32.4617 151.708L32.6842 156.518L33.6831 156.472L34.682 156.425L34.4596 151.616L33.4606 151.662ZM33.6831 156.472L32.6842 156.518C32.8466 160.029 33.9463 162.808 36.1429 164.641C38.3224 166.459 41.4063 167.197 45.2255 167.021L45.1793 166.022L45.1331 165.023C41.5837 165.187 39.0736 164.481 37.4242 163.105C35.7919 161.743 34.8278 159.577 34.682 156.425L33.6831 156.472ZM45.1793 166.022L45.2255 167.021C49.0242 166.845 52.0029 165.826 53.9886 163.839C55.9904 161.836 56.8222 159.012 56.6637 155.586L55.6648 155.632L54.6658 155.678C54.8074 158.738 54.0587 160.939 52.5739 162.425C51.073 163.927 48.6589 164.86 45.1331 165.023L45.1793 166.022ZM55.6648 155.632L56.6637 155.586L56.4331 150.6L55.4341 150.646L54.4352 150.692L54.6658 155.678L55.6648 155.632ZM55.4341 150.646L55.3879 149.647L33.4144 150.663L33.4606 151.662L33.5069 152.661L55.4804 151.645L55.4341 150.646ZM62.1867 188.609L62.2329 189.607C62.7846 189.582 63.2112 189.114 63.1857 188.562L62.1867 188.609ZM30.2413 190.086L29.2424 190.132C29.2679 190.684 29.7358 191.111 30.2875 191.085L30.2413 190.086ZM29.976 184.35L29.9298 183.351C29.3781 183.377 28.9515 183.845 28.9771 184.396L29.976 184.35ZM61.9214 182.872L62.9203 182.826C62.8948 182.275 62.4269 181.848 61.8752 181.874L61.9214 182.872ZM62.1867 188.609L62.1405 187.61L30.1951 189.087L30.2413 190.086L30.2875 191.085L62.2329 189.607L62.1867 188.609ZM30.2413 190.086L31.2403 190.04L30.9749 184.304L29.976 184.35L28.9771 184.396L29.2424 190.132L30.2413 190.086ZM29.976 184.35L30.0222 185.349L61.9676 183.871L61.9214 182.872L61.8752 181.874L29.9298 183.351L29.976 184.35ZM61.9214 182.872L60.9225 182.919L61.1878 188.655L62.1867 188.609L63.1857 188.562L62.9203 182.826L61.9214 182.872ZM31.0181 206.88L30.0192 206.926C30.039 207.355 30.331 207.724 30.7444 207.841L31.0181 206.88ZM30.7344 200.746L31.0227 199.789C30.712 199.695 30.3753 199.758 30.1195 199.958C29.8636 200.157 29.7205 200.469 29.7355 200.793L30.7344 200.746ZM63.2003 210.52L64.1992 210.474C64.1796 210.05 63.8947 209.685 63.4885 209.563L63.2003 210.52ZM63.5268 217.58L63.9034 218.506C64.2959 218.347 64.5453 217.957 64.5257 217.534L63.5268 217.58ZM32.1039 230.353L31.1049 230.399C31.1199 230.724 31.2914 231.021 31.5649 231.196C31.8383 231.371 32.1797 231.402 32.4804 231.28L32.1039 230.353ZM31.8202 224.22L31.4589 223.288C31.0581 223.443 30.8014 223.837 30.8212 224.266L31.8202 224.22ZM39.5958 221.207L39.9571 222.14C40.3579 221.985 40.6146 221.591 40.5948 221.161L39.5958 221.207ZM39.0387 209.162L40.0376 209.115C40.0177 208.686 39.7257 208.317 39.3123 208.2L39.0387 209.162ZM43.7431 210.492L44.0171 209.53C43.7076 209.442 43.3746 209.508 43.1223 209.708C42.87 209.907 42.7293 210.216 42.7441 210.538L43.7431 210.492ZM44.1574 219.449L43.1584 219.495C43.1733 219.817 43.3425 220.112 43.6129 220.288C43.8833 220.463 44.2217 220.497 44.5219 220.38L44.1574 219.449ZM56.8394 214.485L57.2039 215.416C57.6029 215.26 57.8581 214.866 57.8383 214.438L56.8394 214.485ZM56.8271 214.22L57.8261 214.174C57.8062 213.744 57.5144 213.376 57.1012 213.258L56.8271 214.22ZM31.0181 206.88L32.017 206.833L31.7333 200.7L30.7344 200.746L29.7355 200.793L30.0192 206.926L31.0181 206.88ZM30.7344 200.746L30.4461 201.704L62.912 211.478L63.2003 210.52L63.4885 209.563L31.0227 199.789L30.7344 200.746ZM63.2003 210.52L62.2013 210.566L62.5279 217.626L63.5268 217.58L64.5257 217.534L64.1992 210.474L63.2003 210.52ZM63.5268 217.58L63.1502 216.654L31.7273 229.427L32.1039 230.353L32.4804 231.28L63.9034 218.506L63.5268 217.58ZM32.1039 230.353L33.1028 230.307L32.8191 224.174L31.8202 224.22L30.8212 224.266L31.1049 230.399L32.1039 230.353ZM31.8202 224.22L32.1815 225.153L39.9571 222.14L39.5958 221.207L39.2345 220.275L31.4589 223.288L31.8202 224.22ZM39.5958 221.207L40.5948 221.161L40.0376 209.115L39.0387 209.162L38.0397 209.208L38.5969 221.254L39.5958 221.207ZM39.0387 209.162L39.3123 208.2L31.2918 205.918L31.0181 206.88L30.7444 207.841L38.765 210.123L39.0387 209.162ZM43.7431 210.492L42.7441 210.538L43.1584 219.495L44.1574 219.449L45.1563 219.403L44.742 210.445L43.7431 210.492ZM44.1574 219.449L44.5219 220.38L57.2039 215.416L56.8394 214.485L56.4749 213.553L43.7929 218.518L44.1574 219.449ZM56.8394 214.485L57.8383 214.438L57.8261 214.174L56.8271 214.22L55.8282 214.266L55.8404 214.531L56.8394 214.485ZM56.8271 214.22L57.1012 213.258L44.0171 209.53L43.7431 210.492L43.469 211.453L56.5531 215.182L56.8271 214.22ZM32.5929 240.925L32.5467 239.926C31.995 239.952 31.5684 240.42 31.5939 240.971L32.5929 240.925ZM64.5383 239.448L65.5372 239.401C65.5117 238.85 65.0438 238.423 64.4921 238.449L64.5383 239.448ZM46.0666 257.857L46.9748 257.438C46.8556 257.179 46.6319 256.984 46.3597 256.9C46.0874 256.817 45.7925 256.854 45.5489 257.001L46.0666 257.857ZM33.7215 265.326L32.7226 265.372C32.7389 265.724 32.9395 266.042 33.2507 266.208C33.5618 266.374 33.9374 266.364 34.2392 266.181L33.7215 265.326ZM33.4256 258.928L32.913 258.069C32.5965 258.258 32.4096 258.606 32.4266 258.974L33.4256 258.928ZM44.8285 252.121L45.341 252.98C45.6575 252.791 45.8445 252.443 45.8274 252.075L44.8285 252.121ZM44.5509 246.12L45.5499 246.074C45.5243 245.523 45.0564 245.096 44.5047 245.122L44.5509 246.12ZM32.8582 246.661L31.8593 246.708C31.8848 247.259 32.3527 247.686 32.9044 247.66L32.8582 246.661ZM49.3604 245.898L49.3142 244.899C48.7625 244.925 48.3359 245.392 48.3615 245.944L49.3604 245.898ZM59.9941 245.406L60.9931 245.36C60.9676 244.808 60.4996 244.382 59.9479 244.407L59.9941 245.406ZM32.5929 240.925L32.6391 241.924L64.5845 240.447L64.5383 239.448L64.4921 238.449L32.5467 239.926L32.5929 240.925ZM64.5383 239.448L63.5394 239.494L64.0945 251.495L65.0934 251.449L66.0923 251.403L65.5372 239.401L64.5383 239.448ZM65.0934 251.449L64.0945 251.495C64.2554 254.975 63.4008 257.562 61.909 259.3C60.4225 261.033 58.1999 262.043 55.3751 262.173L55.4213 263.172L55.4675 264.171C58.7318 264.02 61.5146 262.831 63.4267 260.603C65.3333 258.381 66.2702 255.248 66.0923 251.403L65.0934 251.449ZM55.4213 263.172L55.3751 262.173C51.3823 262.358 48.4789 260.702 46.9748 257.438L46.0666 257.857L45.1583 258.275C47.0457 262.371 50.768 264.388 55.4675 264.171L55.4213 263.172ZM46.0666 257.857L45.5489 257.001L33.2039 264.47L33.7215 265.326L34.2392 266.181L46.5842 258.712L46.0666 257.857ZM33.7215 265.326L34.7204 265.279L34.4245 258.881L33.4256 258.928L32.4266 258.974L32.7226 265.372L33.7215 265.326ZM33.4256 258.928L33.9381 259.786L45.341 252.98L44.8285 252.121L44.316 251.263L32.913 258.069L33.4256 258.928ZM44.8285 252.121L45.8274 252.075L45.5499 246.074L44.5509 246.12L43.552 246.167L43.8296 252.167L44.8285 252.121ZM44.5509 246.12L44.5047 245.122L32.812 245.662L32.8582 246.661L32.9044 247.66L44.5971 247.119L44.5509 246.12ZM32.8582 246.661L33.8571 246.615L33.5918 240.879L32.5929 240.925L31.5939 240.971L31.8593 246.708L32.8582 246.661ZM49.3604 245.898L48.3615 245.944L48.6104 251.327L49.6094 251.281L50.6083 251.235L50.3593 245.852L49.3604 245.898ZM49.6094 251.281L48.6104 251.327C48.716 253.609 49.2868 255.431 50.4555 256.662C51.6499 257.919 53.3057 258.39 55.1961 258.303L55.1499 257.304L55.1037 256.305C53.5966 256.375 52.5821 255.996 51.9056 255.284C51.2034 254.545 50.7028 253.278 50.6083 251.235L49.6094 251.281ZM55.1499 257.304L55.1961 258.303C57.0851 258.215 58.7147 257.594 59.8197 256.242C60.9082 254.911 61.3483 253.039 61.2421 250.743L60.2431 250.789L59.2442 250.835C59.338 252.863 58.9302 254.17 58.2714 254.976C57.6292 255.762 56.6122 256.235 55.1037 256.305L55.1499 257.304ZM60.2431 250.789L61.2421 250.743L60.9931 245.36L59.9941 245.406L58.9952 245.452L59.2442 250.835L60.2431 250.789ZM59.9941 245.406L59.9479 244.407L49.3142 244.899L49.3604 245.898L49.4066 246.897L60.0404 246.405L59.9941 245.406ZM65.9967 270.978L66.9957 270.932C66.9791 270.574 66.7727 270.253 66.4544 270.089C66.1361 269.925 65.7545 269.944 65.4538 270.138L65.9967 270.978ZM66.2967 277.464L66.8227 278.315C67.1314 278.124 67.3125 277.781 67.2957 277.418L66.2967 277.464ZM52.5405 285.972L52.0145 285.121C51.7058 285.312 51.5248 285.655 51.5416 286.018L52.5405 285.972ZM52.5548 286.28L51.5559 286.327C51.5726 286.689 51.7846 287.014 52.1096 287.176L52.5548 286.28ZM67.0376 293.481L68.0365 293.435C68.0198 293.072 67.8078 292.747 67.4828 292.586L67.0376 293.481ZM67.3376 299.967L66.876 300.854C67.1933 301.02 67.5747 301.003 67.8761 300.81C68.1775 300.617 68.3531 300.279 68.3366 299.921L67.3376 299.967ZM46.8129 289.287L47.2745 288.4C47.1181 288.319 46.9429 288.28 46.7667 288.289L46.8129 289.287ZM34.8554 289.841L33.8565 289.887C33.882 290.438 34.35 290.865 34.9017 290.839L34.8554 289.841ZM34.5901 284.105L34.5439 283.106C33.9922 283.131 33.5657 283.599 33.5912 284.151L34.5901 284.105ZM46.5476 283.551L46.5938 284.55C46.7705 284.542 46.9419 284.487 47.0905 284.391L46.5476 283.551ZM65.9967 270.978L64.9978 271.024L65.2978 277.511L66.2967 277.464L67.2957 277.418L66.9957 270.932L65.9967 270.978ZM66.2967 277.464L65.7708 276.614L52.0145 285.121L52.5405 285.972L53.0665 286.822L66.8227 278.315L66.2967 277.464ZM52.5405 285.972L51.5416 286.018L51.5559 286.327L52.5548 286.28L53.5537 286.234L53.5394 285.925L52.5405 285.972ZM52.5548 286.28L52.1096 287.176L66.5924 294.377L67.0376 293.481L67.4828 292.586L53 285.385L52.5548 286.28ZM67.0376 293.481L66.0387 293.527L66.3387 300.014L67.3376 299.967L68.3366 299.921L68.0365 293.435L67.0376 293.481ZM67.3376 299.967L67.7992 299.08L47.2745 288.4L46.8129 289.287L46.3513 290.175L66.876 300.854L67.3376 299.967ZM46.8129 289.287L46.7667 288.289L34.8092 288.842L34.8554 289.841L34.9017 290.839L46.8591 290.286L46.8129 289.287ZM34.8554 289.841L35.8544 289.794L35.5891 284.058L34.5901 284.105L33.5912 284.151L33.8565 289.887L34.8554 289.841ZM34.5901 284.105L34.6363 285.103L46.5938 284.55L46.5476 283.551L46.5014 282.552L34.5439 283.106L34.5901 284.105ZM46.5476 283.551L47.0905 284.391L66.5396 271.818L65.9967 270.978L65.4538 270.138L46.0047 282.712L46.5476 283.551Z" fill="black" mask="url(#path-2-outside-1_2920_53)"/>
</svg>
