<svg width="56" height="546" viewBox="0 0 56 546" fill="none" xmlns="http://www.w3.org/2000/svg">
<rect x="0.5" y="0.5" width="55" height="545" fill="#F1E8B1" stroke="black" stroke-linejoin="round"/>
<path d="M20 17.7021L35.4038 17.7021V26.9784H33.7017V19.6169L28.5529 19.6169V26.2763H26.8721V19.6169H20V17.7021ZM35.4038 34.6931H20V32.8633H35.4038L35.4038 34.6931ZM19.766 45.5991C19.766 42.4503 22.1276 40.3227 25.7232 40.3227C29.3189 40.3227 31.7018 42.4503 31.7018 45.5991C31.7018 48.7267 29.3189 50.833 25.7232 50.833C22.1276 50.833 19.766 48.7267 19.766 45.5991ZM21.3829 45.5991C21.3829 47.9182 23.4254 49.0033 25.7232 49.0033C28.021 49.0033 30.0848 47.9182 30.0848 45.5991C30.0848 43.2375 28.021 42.1524 25.7232 42.1524C23.4254 42.1524 21.3829 43.2375 21.3829 45.5991ZM20 58.7179L31.5528 55.2073V57.1435L22.7446 59.6115V59.7179L31.5528 62.1646V64.122L22.7872 66.5262V66.6538L31.5528 69.1218V71.0367L20 67.5261V65.7177L28.8082 63.2071V63.0369L20 60.5476V58.7179ZM19.766 80.7938C19.766 77.4535 22.1276 75.3897 25.6807 75.3897C29.2338 75.3897 31.7018 77.4748 31.7018 80.6236C31.7018 83.0491 30.2125 85.6022 25.936 85.6022H25.1701V77.2195C22.7233 77.3046 21.3829 78.7301 21.3829 80.7938C21.3829 82.1768 21.9787 83.0491 22.702 83.4746V85.432C20.9574 84.8788 19.766 83.1767 19.766 80.7938ZM26.7232 77.2407V83.7512C28.6593 83.7512 30.0848 82.5172 30.0848 80.6236C30.0848 78.6237 28.5104 77.3471 26.7232 77.2407ZM20 91.2531H31.5528V93.019H29.7869V93.1466C30.9571 93.5722 31.7443 94.7636 31.7443 96.1253C31.7443 96.4019 31.7231 96.8699 31.7018 97.0827H29.8508C29.8933 96.955 29.9784 96.4444 29.9784 95.9763C29.9784 94.3168 28.8295 93.0828 27.2764 93.0828H20V91.2531Z" fill="black"/>
<path d="M20 360.702H35.4038V369.978H33.7017V362.617H28.5529V369.276H26.8721V362.617H20V360.702ZM35.4038 377.693H20V375.863H35.4038L35.4038 377.693ZM19.766 388.599C19.766 385.45 22.1276 383.323 25.7232 383.323C29.3189 383.323 31.7018 385.45 31.7018 388.599C31.7018 391.727 29.3189 393.833 25.7232 393.833C22.1276 393.833 19.766 391.727 19.766 388.599ZM21.3829 388.599C21.3829 390.918 23.4254 392.003 25.7232 392.003C28.021 392.003 30.0848 390.918 30.0848 388.599C30.0848 386.237 28.021 385.152 25.7232 385.152C23.4254 385.152 21.3829 386.237 21.3829 388.599ZM20 401.718L31.5528 398.207V400.143L22.7446 402.611V402.718L31.5528 405.165V407.122L22.7872 409.526V409.654L31.5528 412.122V414.037L20 410.526V408.718L28.8082 406.207V406.037L20 403.548V401.718ZM19.766 423.794C19.766 420.453 22.1276 418.39 25.6807 418.39C29.2338 418.39 31.7018 420.475 31.7018 423.624C31.7018 426.049 30.2125 428.602 25.936 428.602H25.1701V420.219C22.7233 420.305 21.3829 421.73 21.3829 423.794C21.3829 425.177 21.9787 426.049 22.702 426.475V428.432C20.9574 427.879 19.766 426.177 19.766 423.794ZM26.7232 420.241V426.751C28.6593 426.751 30.0848 425.517 30.0848 423.624C30.0848 421.624 28.5104 420.347 26.7232 420.241ZM20 434.253H31.5528V436.019H29.7869V436.147C30.9571 436.572 31.7443 437.764 31.7443 439.125C31.7443 439.402 31.7231 439.87 31.7018 440.083H29.8508C29.8933 439.955 29.9784 439.444 29.9784 438.976C29.9784 437.317 28.8295 436.083 27.2764 436.083H20V434.253ZM20 454.108H35.4038V463.384H33.7017V456.023H28.5529V462.682H26.8721V456.023H20V454.108ZM35.4038 471.099H20V469.269H35.4038V471.099ZM19.766 482.005C19.766 478.856 22.1276 476.728 25.7232 476.728C29.3189 476.728 31.7018 478.856 31.7018 482.005C31.7018 485.132 29.3189 487.239 25.7232 487.239C22.1276 487.239 19.766 485.132 19.766 482.005ZM21.3829 482.005C21.3829 484.324 23.4254 485.409 25.7232 485.409C28.021 485.409 30.0848 484.324 30.0848 482.005C30.0848 479.643 28.021 478.558 25.7232 478.558C23.4254 478.558 21.3829 479.643 21.3829 482.005ZM20 495.124L31.5528 491.613V493.549L22.7446 496.017V496.124L31.5528 498.57V500.528L22.7872 502.932V503.06L31.5528 505.528V507.442L20 503.932V502.123L28.8082 499.613V499.443L20 496.953V495.124ZM19.766 517.2C19.766 513.859 22.1276 511.795 25.6807 511.795C29.2338 511.795 31.7018 513.881 31.7018 517.029C31.7018 519.455 30.2125 522.008 25.936 522.008H25.1701V513.625C22.7233 513.71 21.3829 515.136 21.3829 517.2C21.3829 518.582 21.9787 519.455 22.702 519.88V521.838C20.9574 521.285 19.766 519.582 19.766 517.2ZM26.7232 513.646V520.157C28.6593 520.157 30.0848 518.923 30.0848 517.029C30.0848 515.029 28.5104 513.753 26.7232 513.646ZM20 527.659H31.5528V529.425H29.7869V529.552C30.9571 529.978 31.7443 531.169 31.7443 532.531C31.7443 532.808 31.7231 533.276 31.7018 533.488H29.8508C29.8933 533.361 29.9784 532.85 29.9784 532.382C29.9784 530.723 28.8295 529.489 27.2764 529.489H20V527.659Z" fill="black"/>
</svg>
