<svg width="110" height="457" viewBox="0 0 110 457" fill="none" xmlns="http://www.w3.org/2000/svg">
<rect x="1.5" y="0.5" width="107" height="456" fill="#F6D2D4" stroke="black" stroke-linejoin="round"/>
<path d="M17.9615 264.298H19.2596L22.1923 271.462H22.3004L25.2331 264.298H26.5311V273H25.5095V266.426H25.4254L22.7211 273H21.7596L19.0553 266.426H18.9832V273H17.9615V264.298ZM37.656 268.649C37.656 271.401 36.0334 273.12 33.8099 273.12C31.5744 273.12 29.9638 271.401 29.9638 268.649C29.9638 265.897 31.5744 264.178 33.8099 264.178C36.0334 264.178 37.656 265.897 37.656 268.649ZM36.6104 268.649C36.6104 266.402 35.3844 265.188 33.8099 265.188C32.2354 265.188 31.0095 266.402 31.0095 268.649C31.0095 270.897 32.2354 272.111 33.8099 272.111C35.3844 272.111 36.6104 270.897 36.6104 268.649ZM48.4444 268.649C48.4444 271.401 46.8218 273.12 44.5983 273.12C42.3627 273.12 40.7521 271.401 40.7521 268.649C40.7521 265.897 42.3627 264.178 44.5983 264.178C46.8218 264.178 48.4444 265.897 48.4444 268.649ZM47.3987 268.649C47.3987 266.402 46.1728 265.188 44.5983 265.188C43.0238 265.188 41.7978 266.402 41.7978 268.649C41.7978 270.897 43.0238 272.111 44.5983 272.111C46.1728 272.111 47.3987 270.897 47.3987 268.649ZM54.5813 273H51.877V264.298H54.6895C57.2255 264.298 58.7279 265.933 58.7279 268.637C58.7279 271.353 57.2255 273 54.5813 273ZM52.9587 272.038H54.5092C56.6486 272.038 57.6702 270.752 57.6702 268.637C57.6702 266.534 56.6486 265.26 54.6174 265.26H52.9587V272.038ZM63.2423 264.298V273H62.1606V264.298H63.2423ZM67.3961 273H66.2663L69.4514 264.298H70.5932L73.7782 273H72.6364L71.771 270.548H68.2735L67.3961 273ZM68.598 269.599H71.4345L70.0523 265.704H69.9802L68.598 269.599ZM76.8022 273V264.298H79.7589C81.8022 264.298 82.7276 265.428 82.7276 266.978C82.7276 268.126 82.2108 269.034 81.1051 269.418L83.0642 273H81.8022L79.9873 269.611C79.9152 269.623 79.8431 269.623 79.7709 269.623H77.8839V273H76.8022ZM77.8839 268.637H79.7229C81.1051 268.637 81.6579 268.012 81.6579 266.978C81.6579 265.933 81.1051 265.26 79.7109 265.26H77.8839V268.637ZM85.0906 264.298H86.3286L88.7204 268.337H88.8285L91.2203 264.298H92.4703L89.3213 269.43V273H88.2276V269.43L85.0906 264.298Z" fill="black"/>
<path d="M63.4037 49.9231L63.4037 52.5192L49.0769 58.3845L49.0769 58.6008L63.4037 64.4662L63.4037 67.0623L46 67.0623L46 65.019L59.1489 65.019L59.1489 64.8508L46 59.4422L46 57.5191L59.1489 52.1105L59.1489 51.9663L46 51.9663L46 49.9231L63.4037 49.9231ZM54.7018 89.3121C49.1971 89.3121 45.7596 86.0669 45.7596 81.6198C45.7596 77.1487 49.1971 73.9276 54.7018 73.9276C60.2066 73.9276 63.644 77.1487 63.644 81.6198C63.644 86.0669 60.2066 89.3121 54.7018 89.3121ZM54.7018 87.2207C59.197 87.2207 61.6248 84.7688 61.6248 81.6198C61.6248 78.4708 59.197 76.0189 54.7018 76.0189C50.2067 76.0189 47.7788 78.4708 47.7788 81.6198C47.7788 84.7688 50.2067 87.2207 54.7018 87.2207ZM54.7018 110.889C49.1971 110.889 45.7596 107.644 45.7596 103.197C45.7596 98.7254 49.1971 95.5043 54.7018 95.5043C60.2066 95.5043 63.644 98.7254 63.644 103.197C63.644 107.644 60.2066 110.889 54.7018 110.889ZM54.7018 108.797C59.197 108.797 61.6248 106.346 61.6248 103.197C61.6248 100.048 59.197 97.5956 54.7018 97.5956C50.2067 97.5956 47.7788 100.048 47.7788 103.197C47.7788 106.346 50.2067 108.797 54.7018 108.797ZM46 123.163L46 117.754L63.4037 117.754L63.4037 123.379C63.4037 128.451 60.1345 131.456 54.7259 131.456C49.2932 131.456 46 128.451 46 123.163ZM47.9231 119.918L47.9231 123.018C47.9231 127.297 50.4951 129.34 54.7259 129.34C58.9326 129.34 61.4806 127.297 61.4806 123.235L61.4806 119.918L47.9231 119.918ZM63.4037 140.485L46 140.485L46 138.321L63.4037 138.321L63.4037 140.485ZM46 148.792L46 146.533L63.4037 152.903L63.4037 155.186L46 161.556L46 159.273L50.9038 157.542L50.9038 150.547L46 148.792ZM52.8028 151.196L52.8028 156.869L60.5912 154.105L60.5912 153.96L52.8028 151.196ZM46 167.604L63.4037 167.604L63.4037 173.518C63.4037 177.604 61.1441 179.455 58.0431 179.455C55.7475 179.455 53.9326 178.422 53.1634 176.21L46 180.128L46 177.604L52.7788 173.975C52.7547 173.83 52.7547 173.686 52.7547 173.542L52.7547 169.768L46 169.768L46 167.604ZM54.7259 169.768L54.7259 173.446C54.7259 176.21 55.9758 177.316 58.0431 177.316C60.1345 177.316 61.4806 176.21 61.4806 173.422L61.4806 169.768L54.7259 169.768ZM63.4037 184.181L63.4037 186.657L55.3268 191.441L55.3268 191.657L63.4037 196.441L63.4037 198.941L53.1393 192.643L46 192.643L46 190.455L53.1393 190.455L63.4037 184.181Z" fill="black"/>
<path d="M17.9615 378.298H19.2596L22.1923 385.462H22.3004L25.2331 378.298H26.5311V387H25.5095V380.426H25.4254L22.7211 387H21.7596L19.0553 380.426H18.9832V387H17.9615V378.298ZM37.656 382.649C37.656 385.401 36.0334 387.12 33.8099 387.12C31.5744 387.12 29.9638 385.401 29.9638 382.649C29.9638 379.897 31.5744 378.178 33.8099 378.178C36.0334 378.178 37.656 379.897 37.656 382.649ZM36.6104 382.649C36.6104 380.402 35.3844 379.188 33.8099 379.188C32.2354 379.188 31.0095 380.402 31.0095 382.649C31.0095 384.897 32.2354 386.111 33.8099 386.111C35.3844 386.111 36.6104 384.897 36.6104 382.649ZM48.4444 382.649C48.4444 385.401 46.8218 387.12 44.5983 387.12C42.3627 387.12 40.7521 385.401 40.7521 382.649C40.7521 379.897 42.3627 378.178 44.5983 378.178C46.8218 378.178 48.4444 379.897 48.4444 382.649ZM47.3987 382.649C47.3987 380.402 46.1728 379.188 44.5983 379.188C43.0238 379.188 41.7978 380.402 41.7978 382.649C41.7978 384.897 43.0238 386.111 44.5983 386.111C46.1728 386.111 47.3987 384.897 47.3987 382.649ZM54.5813 387H51.877V378.298H54.6895C57.2255 378.298 58.7279 379.933 58.7279 382.637C58.7279 385.353 57.2255 387 54.5813 387ZM52.9587 386.038H54.5092C56.6486 386.038 57.6702 384.752 57.6702 382.637C57.6702 380.534 56.6486 379.26 54.6174 379.26H52.9587V386.038ZM63.2423 378.298V387H62.1606V378.298H63.2423ZM67.3961 387H66.2663L69.4514 378.298H70.5932L73.7782 387H72.6364L71.771 384.548H68.2735L67.3961 387ZM68.598 383.599H71.4345L70.0523 379.704H69.9802L68.598 383.599ZM76.8022 387V378.298H79.7589C81.8022 378.298 82.7276 379.428 82.7276 380.978C82.7276 382.126 82.2108 383.034 81.1051 383.418L83.0642 387H81.8022L79.9873 383.611C79.9152 383.623 79.8431 383.623 79.7709 383.623H77.8839V387H76.8022ZM77.8839 382.637H79.7229C81.1051 382.637 81.6579 382.012 81.6579 380.978C81.6579 379.933 81.1051 379.26 79.7109 379.26H77.8839V382.637ZM85.0906 378.298H86.3286L88.7204 382.337H88.8285L91.2203 378.298H92.4703L89.3213 383.43V387H88.2276V383.43L85.0906 378.298Z" fill="black"/>
<path d="M106.807 220.445L106.807 219.719L109.058 219.719L109.058 220.445L106.807 220.445ZM102.611 220.445L102.611 219.719L104.862 219.719L104.862 220.445L102.611 220.445ZM98.4152 220.445L98.4152 219.719L100.666 219.719L100.666 220.445L98.4152 220.445ZM94.2193 220.445L94.2193 219.719L96.4705 219.719L96.4705 220.445L94.2193 220.445ZM90.0235 220.445L90.0235 219.719L92.2747 219.719L92.2747 220.445L90.0235 220.445ZM85.8277 220.445L85.8277 219.719L88.0789 219.719L88.0789 220.445L85.8277 220.445ZM81.6318 220.445L81.6318 219.719L83.883 219.719L83.883 220.445L81.6318 220.445ZM77.436 220.445L77.436 219.719L79.6872 219.719L79.6872 220.445L77.436 220.445ZM73.2402 220.445L73.2402 219.719L75.4914 219.719L75.4914 220.445L73.2402 220.445ZM69.0443 220.445L69.0443 219.719L71.2955 219.719L71.2955 220.445L69.0443 220.445ZM64.8485 220.445L64.8485 219.719L67.0997 219.719L67.0997 220.445L64.8485 220.445ZM60.6527 220.445L60.6527 219.719L62.9039 219.719L62.9039 220.445L60.6527 220.445ZM56.4568 220.445L56.4568 219.719L58.708 219.719L58.708 220.445L56.4568 220.445ZM52.261 220.445L52.261 219.719L54.5122 219.719L54.5122 220.445L52.261 220.445ZM48.0652 220.445L48.0652 219.719L50.3164 219.719L50.3164 220.445L48.0652 220.445ZM43.8693 220.445L43.8693 219.719L46.1205 219.719L46.1205 220.445L43.8693 220.445ZM39.6735 220.445L39.6735 219.719L41.9247 219.719L41.9247 220.445L39.6735 220.445ZM35.4777 220.445L35.4777 219.719L37.7289 219.719L37.7289 220.445L35.4777 220.445ZM31.2818 220.445L31.2818 219.719L33.5331 219.719L33.5331 220.445L31.2818 220.445ZM27.086 220.445L27.086 219.719L29.3372 219.719L29.3372 220.445L27.086 220.445ZM22.8902 220.445L22.8902 219.719L25.1414 219.719L25.1414 220.445L22.8902 220.445ZM18.6943 220.445L18.6943 219.719L20.9456 219.719L20.9456 220.445L18.6943 220.445ZM14.4985 220.445L14.4985 219.719L16.7497 219.719L16.7497 220.445L14.4985 220.445ZM10.3027 220.445L10.3027 219.719L12.5539 219.719L12.5539 220.445L10.3027 220.445ZM6.10683 220.445L6.10683 219.719L8.35805 219.719L8.35805 220.445L6.10683 220.445ZM1.911 220.445L1.911 219.719L4.16222 219.719L4.16222 220.445L1.911 220.445Z" fill="black"/>
<path d="M106.807 26.4446L106.807 25.7195L109.058 25.7195L109.058 26.4446L106.807 26.4446ZM102.611 26.4446L102.611 25.7195L104.862 25.7195L104.862 26.4446L102.611 26.4446ZM98.4152 26.4446L98.4152 25.7195L100.666 25.7195L100.666 26.4446L98.4152 26.4446ZM94.2193 26.4446L94.2193 25.7195L96.4705 25.7195L96.4705 26.4446L94.2193 26.4446ZM90.0235 26.4446L90.0235 25.7195L92.2747 25.7195L92.2747 26.4446L90.0235 26.4446ZM85.8277 26.4446L85.8277 25.7195L88.0789 25.7195L88.0789 26.4446L85.8277 26.4446ZM81.6318 26.4446L81.6318 25.7195L83.883 25.7195L83.883 26.4446L81.6318 26.4446ZM77.436 26.4446L77.436 25.7195L79.6872 25.7195L79.6872 26.4446L77.436 26.4446ZM73.2402 26.4446L73.2402 25.7195L75.4914 25.7195L75.4914 26.4446L73.2402 26.4446ZM69.0443 26.4446L69.0443 25.7195L71.2955 25.7195L71.2955 26.4446L69.0443 26.4446ZM64.8485 26.4446L64.8485 25.7195L67.0997 25.7195L67.0997 26.4446L64.8485 26.4446ZM60.6527 26.4446L60.6527 25.7195L62.9039 25.7195L62.9039 26.4446L60.6527 26.4446ZM56.4568 26.4446L56.4568 25.7195L58.708 25.7195L58.708 26.4446L56.4568 26.4446ZM52.261 26.4446L52.261 25.7195L54.5122 25.7195L54.5122 26.4446L52.261 26.4446ZM48.0652 26.4446L48.0652 25.7195L50.3164 25.7195L50.3164 26.4446L48.0652 26.4446ZM43.8693 26.4446L43.8693 25.7195L46.1205 25.7195L46.1205 26.4446L43.8693 26.4446ZM39.6735 26.4446L39.6735 25.7195L41.9247 25.7195L41.9247 26.4446L39.6735 26.4446ZM35.4777 26.4446L35.4777 25.7195L37.7289 25.7195L37.7289 26.4446L35.4777 26.4446ZM31.2818 26.4446L31.2818 25.7195L33.5331 25.7195L33.5331 26.4446L31.2818 26.4446ZM27.086 26.4446L27.086 25.7195L29.3372 25.7195L29.3372 26.4446L27.086 26.4446ZM22.8902 26.4446L22.8902 25.7195L25.1414 25.7195L25.1414 26.4446L22.8902 26.4446ZM18.6943 26.4446L18.6943 25.7195L20.9456 25.7195L20.9456 26.4446L18.6943 26.4446ZM14.4985 26.4446L14.4985 25.7195L16.7497 25.7195L16.7497 26.4446L14.4985 26.4446ZM10.3027 26.4446L10.3027 25.7195L12.5539 25.7195L12.5539 26.4446L10.3027 26.4446ZM6.10683 26.4446L6.10683 25.7195L8.35805 25.7195L8.35805 26.4446L6.10683 26.4446ZM1.911 26.4446L1.911 25.7195L4.16222 25.7195L4.16222 26.4446L1.911 26.4446Z" fill="black"/>
<path d="M106.807 315.445L106.807 314.719L109.058 314.719L109.058 315.445L106.807 315.445ZM102.611 315.445L102.611 314.719L104.862 314.719L104.862 315.445L102.611 315.445ZM98.4152 315.445L98.4152 314.719L100.666 314.719L100.666 315.445L98.4152 315.445ZM94.2193 315.445L94.2193 314.719L96.4705 314.719L96.4705 315.445L94.2193 315.445ZM90.0235 315.445L90.0235 314.719L92.2747 314.719L92.2747 315.445L90.0235 315.445ZM85.8277 315.445L85.8277 314.719L88.0789 314.719L88.0789 315.445L85.8277 315.445ZM81.6318 315.445L81.6318 314.719L83.883 314.719L83.883 315.445L81.6318 315.445ZM77.436 315.445L77.436 314.719L79.6872 314.719L79.6872 315.445L77.436 315.445ZM73.2402 315.445L73.2402 314.719L75.4914 314.719L75.4914 315.445L73.2402 315.445ZM69.0443 315.445L69.0443 314.719L71.2955 314.719L71.2955 315.445L69.0443 315.445ZM64.8485 315.445L64.8485 314.719L67.0997 314.719L67.0997 315.445L64.8485 315.445ZM60.6527 315.445L60.6527 314.719L62.9039 314.719L62.9039 315.445L60.6527 315.445ZM56.4568 315.445L56.4568 314.719L58.708 314.719L58.708 315.445L56.4568 315.445ZM52.261 315.445L52.261 314.719L54.5122 314.719L54.5122 315.445L52.261 315.445ZM48.0652 315.445L48.0652 314.719L50.3164 314.719L50.3164 315.445L48.0652 315.445ZM43.8693 315.445L43.8693 314.719L46.1205 314.719L46.1205 315.445L43.8693 315.445ZM39.6735 315.445L39.6735 314.719L41.9247 314.719L41.9247 315.445L39.6735 315.445ZM35.4777 315.445L35.4777 314.719L37.7289 314.719L37.7289 315.445L35.4777 315.445ZM31.2818 315.445L31.2818 314.719L33.5331 314.719L33.5331 315.445L31.2818 315.445ZM27.086 315.445L27.086 314.719L29.3372 314.719L29.3372 315.445L27.086 315.445ZM22.8902 315.445L22.8902 314.719L25.1414 314.719L25.1414 315.445L22.8902 315.445ZM18.6943 315.445L18.6943 314.719L20.9456 314.719L20.9456 315.445L18.6943 315.445ZM14.4985 315.445L14.4985 314.719L16.7497 314.719L16.7497 315.445L14.4985 315.445ZM10.3027 315.445L10.3027 314.719L12.5539 314.719L12.5539 315.445L10.3027 315.445ZM6.10683 315.445L6.10683 314.719L8.35805 314.719L8.35805 315.445L6.10683 315.445ZM1.911 315.445L1.911 314.719L4.16222 314.719L4.16222 315.445L1.911 315.445Z" fill="black"/>
</svg>
