<svg width="44" height="525" viewBox="0 0 44 525" fill="none" xmlns="http://www.w3.org/2000/svg">
<rect x="0.5" y="0.5" width="43" height="524" fill="#7E95B5" stroke="black" stroke-linejoin="round"/>
<path d="M25.5528 55.6381H24.021V53.085L14 53.085V51.234L24.021 51.234V49.383H25.5528V51.234H27.1273C28.9996 51.234 30.1272 52.4893 30.1272 54.5318C30.1272 54.9785 30.0634 55.5104 29.9995 55.8934H28.3613C28.4251 55.5104 28.4464 55.17 28.4464 54.936C28.4464 53.6594 27.9145 53.085 26.723 53.085H25.5528V55.6381ZM29.4038 62.906L14 62.906V61.0762L29.4038 61.0762V62.906ZM13.766 73.812C13.766 70.6632 16.1276 68.5356 19.7232 68.5356C23.3189 68.5356 25.7018 70.6632 25.7018 73.812C25.7018 76.9396 23.3189 79.0459 19.7232 79.0459C16.1276 79.0459 13.766 76.9396 13.766 73.812ZM15.3829 73.812C15.3829 76.1311 17.4254 77.2162 19.7232 77.2162C22.021 77.2162 24.0848 76.1311 24.0848 73.812C24.0848 71.4504 22.021 70.3653 19.7232 70.3653C17.4254 70.3653 15.3829 71.4504 15.3829 73.812ZM14 86.9308L25.5528 83.4203V85.3564L16.7446 87.8244V87.9308L25.5528 90.3775L25.5528 92.3349L16.7872 94.7391V94.8667L25.5528 97.3347V99.2496L14 95.739V93.9306L22.8082 91.42V91.2498L14 88.7605L14 86.9308ZM13.766 109.007C13.766 105.666 16.1276 103.603 19.6807 103.603C23.2338 103.603 25.7018 105.688 25.7018 108.837C25.7018 111.262 24.2125 113.815 19.936 113.815H19.1701V105.432C16.7233 105.517 15.3829 106.943 15.3829 109.007C15.3829 110.39 15.9787 111.262 16.702 111.687V113.645C14.9574 113.092 13.766 111.39 13.766 109.007ZM20.7232 105.454V111.964C22.6593 111.964 24.0848 110.73 24.0848 108.837C24.0848 106.837 22.5104 105.56 20.7232 105.454ZM14 119.466H25.5528V121.232H23.7869V121.36C24.9571 121.785 25.7443 122.977 25.7443 124.338C25.7443 124.615 25.7231 125.083 25.7018 125.296H23.8508C23.8933 125.168 23.9784 124.657 23.9784 124.189C23.9784 122.53 22.8295 121.296 21.2764 121.296H14V119.466ZM21.4253 145.704H19.7445V138.959H21.4253V145.704ZM25.5528 165.686H24.021V163.133H14V161.282H24.021V159.431H25.5528V161.282H27.1273C28.9996 161.282 30.1272 162.537 30.1272 164.58C30.1272 165.026 30.0634 165.558 29.9995 165.941H28.3613C28.4251 165.558 28.4464 165.218 28.4464 164.984C28.4464 163.707 27.9145 163.133 26.723 163.133H25.5528V165.686ZM29.4038 172.954H14V171.124H29.4038V172.954ZM13.766 183.86C13.766 180.711 16.1276 178.583 19.7232 178.583C23.3189 178.583 25.7018 180.711 25.7018 183.86C25.7018 186.987 23.3189 189.094 19.7232 189.094C16.1276 189.094 13.766 186.987 13.766 183.86ZM15.3829 183.86C15.3829 186.179 17.4254 187.264 19.7232 187.264C22.021 187.264 24.0848 186.179 24.0848 183.86C24.0848 181.498 22.021 180.413 19.7232 180.413C17.4254 180.413 15.3829 181.498 15.3829 183.86ZM14 196.979L25.5528 193.468V195.404L16.7446 197.872V197.979L25.5528 200.425V202.383L16.7872 204.787V204.915L25.5528 207.383V209.297L14 205.787V203.978L22.8082 201.468V201.298L14 198.808V196.979ZM13.766 219.055C13.766 215.714 16.1276 213.65 19.6807 213.65C23.2338 213.65 25.7018 215.735 25.7018 218.884C25.7018 221.31 24.2125 223.863 19.936 223.863H19.1701L19.1701 215.48C16.7233 215.565 15.3829 216.991 15.3829 219.055C15.3829 220.437 15.9787 221.31 16.702 221.735V223.693C14.9574 223.14 13.766 221.437 13.766 219.055ZM20.7232 215.501L20.7232 222.012C22.6593 222.012 24.0848 220.778 24.0848 218.884C24.0848 216.884 22.5104 215.608 20.7232 215.501ZM14 229.514H25.5528V231.28H23.7869V231.407C24.9571 231.833 25.7443 233.024 25.7443 234.386C25.7443 234.663 25.7231 235.131 25.7018 235.343H23.8508C23.8933 235.216 23.9784 234.705 23.9784 234.237C23.9784 232.578 22.8295 231.344 21.2764 231.344H14V229.514ZM21.4253 255.751H19.7445L19.7445 249.007H21.4253L21.4253 255.751Z" fill="black"/>
<path d="M21.7019 28.723C16.8297 28.723 13.7872 25.8507 13.7872 21.9147C13.7872 17.9573 16.8297 15.1064 21.7019 15.1064C26.5741 15.1064 29.6166 17.9573 29.6166 21.9147C29.6166 25.8507 26.5741 28.723 21.7019 28.723ZM21.7019 26.872C25.6805 26.872 27.8294 24.7018 27.8294 21.9147C27.8294 19.1275 25.6805 16.9574 21.7019 16.9574C17.7233 16.9574 15.5744 19.1275 15.5744 21.9147C15.5744 24.7018 17.7233 26.872 21.7019 26.872Z" fill="black"/>
</svg>
