<svg width="109" height="609" viewBox="0 0 109 609" fill="none" xmlns="http://www.w3.org/2000/svg">
<rect x="0.516602" y="3.46086" width="87.1725" height="604.783" transform="rotate(-1.93545 0.516602 3.46086)" fill="#B0CFBD" stroke="black" stroke-linejoin="round"/>
<path d="M48.3943 34.1873C50.1401 33.5389 51.2146 32.1529 51.1484 30.1973C51.066 27.7671 49.0828 25.8954 45.5324 26.0157C41.9819 26.1359 40.1299 28.1375 40.216 30.6817C40.2948 33.0075 41.9054 34.5401 44.337 34.4958L44.2154 30.9074L45.7153 30.8565L45.8935 36.1158L44.4125 36.1659C40.995 36.2817 38.7318 34.0014 38.6212 30.7357C38.4971 27.0713 41.1285 24.5111 45.4764 24.3638C49.8243 24.2166 52.6236 26.6118 52.7432 30.1433C52.8416 33.0482 51.0948 35.3503 48.4541 35.953L48.3943 34.1873ZM39.1928 41.9996L39.1324 40.2149L53.0489 44.7807L53.11 46.5844L39.5343 52.0814L39.4732 50.2777L43.3001 48.7795L43.113 43.2544L39.1928 41.9996ZM44.6303 43.7162L44.782 48.197L50.8597 45.8052L50.8558 45.6913L44.6303 43.7162ZM39.6961 56.8584L53.4423 56.3927L53.6005 61.0634C53.7098 64.2911 51.9746 65.8135 49.5254 65.8965C47.7122 65.9579 46.251 65.19 45.5843 63.4638L40.0312 66.7503L39.9636 64.7567L45.2207 61.7084C45.1979 61.5951 45.194 61.4812 45.1901 61.3673L45.0892 58.3864L39.754 58.5671L39.6961 56.8584ZM46.6461 58.3337L46.7445 61.2386C46.8184 63.422 47.8353 64.262 49.4681 64.2067C51.1199 64.1507 52.1536 63.2413 52.079 61.0389L51.9812 58.153L46.6461 58.3337ZM40.3403 75.8751L40.1956 71.6032L53.9417 71.1376L54.0922 75.5804C54.2279 79.5865 51.7261 82.0473 47.4542 82.192C43.1633 82.3374 40.4817 80.0522 40.3403 75.8751ZM41.7723 73.2605L41.8553 75.7098C41.9698 79.0894 44.056 80.6344 47.3976 80.5212C50.7202 80.4087 52.6781 78.7266 52.5694 75.5179L52.4807 72.8978L41.7723 73.2605ZM40.7458 87.848L54.492 87.3824L54.7743 95.7174L53.2554 95.7688L53.0309 89.1426L48.4362 89.2982L48.6459 95.4878L47.1459 95.5386L46.9363 89.349L42.3226 89.5053L42.5503 96.2265L41.0313 96.2779L40.7458 87.848ZM55.3342 112.247L41.588 112.713L41.5327 111.08L51.9889 103.274L51.9844 103.141L41.2761 103.504L41.2182 101.795L54.9644 101.33L55.0203 102.982L44.5451 110.788L44.5496 110.921L55.2769 110.557L55.3342 112.247Z" fill="black"/>
<path d="M75.8083 511.187C77.5541 510.539 78.6287 509.153 78.5624 507.197C78.4801 504.767 76.4969 502.895 72.9464 503.016C69.396 503.136 67.5439 505.137 67.6301 507.682C67.7089 510.008 69.3195 511.54 71.751 511.496L71.6295 507.907L73.1294 507.857L73.3075 513.116L71.8266 513.166C68.4091 513.282 66.1459 511.001 66.0353 507.736C65.9111 504.071 68.5426 501.511 72.8905 501.364C77.2384 501.217 80.0377 503.612 80.1573 507.143C80.2557 510.048 78.5089 512.35 75.8681 512.953L75.8083 511.187ZM66.6069 519L66.5464 517.215L80.463 521.781L80.5241 523.584L66.9484 529.081L66.8873 527.278L70.7142 525.779L70.527 520.254L66.6069 519ZM72.0443 520.716L72.1961 525.197L78.2738 522.805L78.2699 522.691L72.0443 520.716ZM67.1102 533.858L80.8563 533.393L81.0145 538.063C81.1239 541.291 79.3887 542.813 76.9394 542.896C75.1262 542.958 73.6651 542.19 72.9984 540.464L67.4452 543.75L67.3777 541.757L72.6348 538.708C72.6119 538.595 72.6081 538.481 72.6042 538.367L72.5032 535.386L67.1681 535.567L67.1102 533.858ZM74.0601 535.334L74.1585 538.239C74.2325 540.422 75.2493 541.262 76.8822 541.207C78.534 541.151 79.5677 540.241 79.4931 538.039L79.3953 535.153L74.0601 535.334ZM67.7543 552.875L67.6096 548.603L81.3558 548.138L81.5063 552.58C81.642 556.587 79.1402 559.047 74.8683 559.192C70.5773 559.337 67.8958 557.052 67.7543 552.875ZM69.1864 550.261L69.2694 552.71C69.3838 556.089 71.4701 557.634 74.8117 557.521C78.1343 557.409 80.0922 555.727 79.9835 552.518L79.8947 549.898L69.1864 550.261ZM68.1599 564.848L81.906 564.382L82.1884 572.717L80.6694 572.769L80.445 566.143L75.8503 566.298L76.0599 572.488L74.56 572.539L74.3504 566.349L69.7367 566.505L69.9643 573.226L68.4454 573.278L68.1599 564.848ZM82.7482 589.247L69.0021 589.713L68.9468 588.08L79.403 580.274L79.3985 580.141L68.6902 580.504L68.6323 578.795L82.3785 578.33L82.4344 579.982L71.9592 587.788L71.9637 587.921L82.691 587.557L82.7482 589.247ZM52.8215 511.966C54.5673 511.318 55.6418 509.932 55.5756 507.976C55.4933 505.546 53.5101 503.674 49.9596 503.794C46.4091 503.915 44.5571 505.916 44.6433 508.46C44.7221 510.786 46.3327 512.319 48.7642 512.274L48.6427 508.686L50.1426 508.635L50.3207 513.894L48.8398 513.945C45.4222 514.06 43.1591 511.78 43.0484 508.514C42.9243 504.85 45.5558 502.29 49.9037 502.142C54.2515 501.995 57.0508 504.39 57.1705 507.922C57.2689 510.827 55.5221 513.129 52.8813 513.732L52.8215 511.966ZM43.6201 519.778L43.5596 517.993L57.4762 522.559L57.5373 524.363L43.9615 529.86L43.9005 528.056L47.7274 526.558L47.5402 521.033L43.6201 519.778ZM49.0575 521.495L49.2093 525.976L55.2869 523.584L55.2831 523.47L49.0575 521.495ZM44.1234 534.637L57.8695 534.171L58.0277 538.842C58.1371 542.07 56.4018 543.592 53.9526 543.675C52.1394 543.736 50.6783 542.969 50.0115 541.242L44.4584 544.529L44.3909 542.535L49.6479 539.487C49.6251 539.374 49.6212 539.26 49.6174 539.146L49.5164 536.165L44.1812 536.346L44.1234 534.637ZM51.0733 536.112L51.1717 539.017C51.2457 541.201 52.2625 542.041 53.8954 541.985C55.5472 541.929 56.5808 541.02 56.5062 538.818L56.4085 535.932L51.0733 536.112ZM44.7675 553.654L44.6228 549.382L58.369 548.916L58.5194 553.359C58.6551 557.365 56.1534 559.826 51.8814 559.971C47.5905 560.116 44.909 557.831 44.7675 553.654ZM46.1996 551.039L46.2826 553.488C46.397 556.868 48.4832 558.413 51.8248 558.3C55.1475 558.187 57.1054 556.505 56.9967 553.297L56.9079 550.676L46.1996 551.039ZM45.173 565.627L58.9192 565.161L59.2015 573.496L57.6826 573.547L57.4582 566.921L52.8635 567.077L53.0731 573.266L51.5732 573.317L51.3635 567.128L46.7498 567.284L46.9775 574.005L45.4586 574.057L45.173 565.627ZM59.7614 590.026L46.0153 590.491L45.96 588.858L56.4162 581.053L56.4117 580.92L45.7034 581.283L45.6455 579.574L59.3916 579.108L59.4476 580.76L48.9724 588.566L48.9769 588.699L59.7042 588.336L59.7614 590.026Z" fill="black"/>
</svg>
