<svg width="131" height="524" viewBox="0 0 131 524" fill="none" xmlns="http://www.w3.org/2000/svg">
<rect x="0.581616" y="7.29863" width="36.2926" height="524" transform="rotate(-10.3387 0.581616 7.29863)" fill="#F1E8B1" stroke="black" stroke-linejoin="round"/>
<path d="M22.243 21.9841L20.5895 22.2858L19.379 15.6508L21.0325 15.3492L22.243 21.9841ZM28.3222 32.3071L26.8152 32.5821L26.3569 30.0704L16.4987 31.8691L16.1664 30.0481L26.0247 28.2494L25.6924 26.4285L27.1994 26.1535L27.5317 27.9745L29.0805 27.6919C30.9224 27.3558 32.257 28.3883 32.6236 30.3977C32.7038 30.8372 32.7365 31.3719 32.7424 31.7601L31.1308 32.0542C31.1249 31.666 31.0847 31.3273 31.0427 31.097C30.8136 29.8412 30.1872 29.3716 29.0151 29.5854L27.8639 29.7954L28.3222 32.3071ZM33.4151 38.7657L18.2614 41.5305L17.933 39.7305L33.0867 36.9657L33.4151 38.7657ZM19.9887 52.3015C19.4235 49.2038 21.3649 46.6869 24.9022 46.0415C28.4394 45.3961 31.1655 47.0614 31.7307 50.1591C32.2921 53.2359 30.3259 55.7357 26.7887 56.3811C23.2514 57.0265 20.5501 55.3783 19.9887 52.3015ZM21.5794 52.0113C21.9957 54.2927 24.1998 54.9935 26.4602 54.5811C28.7207 54.1687 30.5562 52.7308 30.14 50.4494C29.7161 48.1261 27.4911 47.4291 25.2306 47.8415C22.9701 48.2539 21.1555 49.688 21.5794 52.0113ZM22.5736 65.1652L33.3088 59.6381L33.6563 61.5427L25.434 65.5517L25.4531 65.6563L34.5575 66.4823L34.9088 68.4079L26.717 72.3464L26.7399 72.472L35.8062 73.3266L36.1499 75.2103L24.1546 73.8304L23.83 72.0513L32.0446 68.0005L32.014 67.8331L22.902 66.9652L22.5736 65.1652ZM26.3058 86.9246C25.7062 83.6386 27.6591 81.1844 31.1545 80.5467C34.6499 79.9089 37.452 81.5171 38.0172 84.6148C38.4526 87.0009 37.4457 89.7799 33.2387 90.5475L32.4852 90.6849L30.9806 82.4383C28.5888 82.9612 27.5261 84.6042 27.8965 86.6344C28.1447 87.9949 28.8873 88.7461 29.6754 89.0349L30.0267 90.9605C28.2111 90.7294 26.7335 89.2688 26.3058 86.9246ZM32.5123 82.1805L33.6808 88.5852C35.5855 88.2377 36.7664 86.7679 36.4265 84.9051C36.0675 82.9376 34.2895 81.9644 32.5123 82.1805ZM28.4133 97.172L39.7786 95.0984L40.0955 96.8356L38.3583 97.1526L38.3812 97.2782C39.6088 97.4868 40.597 98.5176 40.8414 99.8571C40.8911 100.129 40.9542 100.594 40.9714 100.807L39.1505 101.139C39.1694 101.006 39.1615 100.488 39.0775 100.028C38.7796 98.395 37.4279 97.3872 35.9 97.666L28.7418 98.972L28.4133 97.172ZM40.4274 121.651L38.7739 121.952L37.5633 115.317L39.2168 115.016L40.4274 121.651ZM48.0745 140.568L46.5675 140.843L46.1093 138.331L36.251 140.13L35.9188 138.309L45.777 136.51L45.4448 134.689L46.9518 134.414L47.284 136.235L48.8329 135.953C50.6748 135.616 52.0094 136.649 52.376 138.658C52.4562 139.098 52.4889 139.633 52.4948 140.021L50.8832 140.315C50.8772 139.927 50.8371 139.588 50.7951 139.358C50.5659 138.102 49.9396 137.632 48.7675 137.846L47.6163 138.056L48.0745 140.568ZM53.1674 147.026L38.0138 149.791L37.6854 147.991L52.839 145.226L53.1674 147.026ZM39.7411 160.562C39.1759 157.464 41.1173 154.947 44.6546 154.302C48.1918 153.657 50.9179 155.322 51.4831 158.42C52.0444 161.497 50.0783 163.996 46.541 164.642C43.0038 165.287 40.3025 163.639 39.7411 160.562ZM41.3318 160.272C41.7481 162.553 43.9521 163.254 46.2126 162.842C48.4731 162.429 50.3086 160.991 49.8924 158.71C49.4685 156.387 47.2435 155.69 44.983 156.102C42.7225 156.515 40.9079 157.949 41.3318 160.272ZM42.326 173.426L53.0611 167.899L53.4086 169.803L45.1864 173.812L45.2055 173.917L54.3099 174.743L54.6612 176.669L46.4694 180.607L46.4923 180.733L55.5586 181.587L55.9023 183.471L43.907 182.091L43.5824 180.312L51.797 176.261L51.7664 176.094L42.6544 175.226L42.326 173.426ZM46.0582 195.185C45.4586 191.899 47.4115 189.445 50.9068 188.807C54.4022 188.17 57.2044 189.778 57.7696 192.875C58.2049 195.262 57.1981 198.04 52.991 198.808L52.2375 198.946L50.7329 190.699C48.3412 191.222 47.2784 192.865 47.6489 194.895C47.8971 196.255 48.6397 197.007 49.4277 197.295L49.7791 199.221C47.9635 198.99 46.4859 197.529 46.0582 195.185ZM52.2647 190.441L53.4332 196.846C55.3379 196.498 56.5187 195.028 56.1789 193.166C55.8199 191.198 54.0419 190.225 52.2647 190.441ZM48.1657 205.433L59.5309 203.359L59.8479 205.096L58.1107 205.413L58.1336 205.539C59.3611 205.747 60.3494 206.778 60.5938 208.118C60.6435 208.39 60.7065 208.854 60.7238 209.067L58.9029 209.399C58.9218 209.266 58.9139 208.749 58.8299 208.288C58.532 206.656 57.1803 205.648 55.6523 205.927L48.4941 207.233L48.1657 205.433ZM60.1798 229.911L58.5263 230.213L57.3157 223.578L58.9692 223.276L60.1798 229.911Z" fill="black"/>
</svg>
