<svg width="273" height="471" viewBox="0 0 273 471" fill="none" xmlns="http://www.w3.org/2000/svg">
<path d="M266.116 0.499756L272.493 421.595L45.5 469.962V0.499756H266.116Z" fill="#F4DEE0" stroke="black" stroke-linejoin="round"/>
<path d="M1.78809 0.499756L0.501953 462.083L45.5 470.399V0.499756H1.78809Z" fill="#F4DEE0" stroke="black" stroke-linejoin="round"/>
<path d="M231.5 50.5V307.067L85.5 328.421V50.5H231.5Z" fill="white" stroke="black" stroke-linejoin="round"/>
<path d="M162.64 213.369C162.719 202.05 157.911 195.902 158.756 189.307C158.756 189.307 156.801 181.599 153.867 179.972L157.351 178.911L160.772 187.044L165.078 206.592L162.641 213.369H162.64Z" fill="#BED89E" stroke="#231F20" stroke-width="0.156527" stroke-miterlimit="10"/>
<path d="M165.078 198.872C165.078 198.872 162.689 186.395 159.345 182.604C159.345 182.604 157.503 179.049 157.503 177.628L156.515 178.721C156.515 178.721 158.554 181.485 158.704 183.269C158.854 185.055 157.659 188.682 157.809 189.834C157.958 190.986 161.093 194.383 161.591 196.111C162.088 197.838 163.979 206.591 163.979 206.591L165.079 198.871L165.078 198.872Z" fill="#D5E8C1" stroke="#231F20" stroke-width="0.156527" stroke-miterlimit="10"/>
<path d="M150.484 200.328C150.417 200.198 150.243 200.291 150.283 200.435C150.499 201.192 151.076 202.314 152.492 203.839C155.48 207.062 153.548 214.966 153.548 214.966C151.814 216.906 152.628 221.13 153.238 222.23C153.85 223.33 156.227 223.645 156.838 223.959C157.45 224.273 159.718 228.889 162 228.281C162 228.281 164.717 221.679 157.517 217.671C157.517 217.671 155.766 215.24 155.57 213.357C155.522 212.889 155.694 212.427 155.995 212.11C156.992 211.061 159.349 208.068 155.412 206.59C155.412 206.59 155.615 202.345 152.491 201.794C152.491 201.794 151.061 201.43 150.484 200.326L150.484 200.328Z" fill="#BED89E" stroke="#231F20" stroke-width="0.156527" stroke-miterlimit="10"/>
<path d="M148.396 207.488C148.396 207.488 147.199 211.112 148.822 218.89C148.822 218.89 149.791 226.503 149.344 231.03C148.079 243.83 152.07 247.454 152.07 247.454L151.128 234.485C151.128 234.485 152.669 218.445 150.279 214.302C150.279 214.302 148.585 211.376 148.397 207.488H148.396Z" fill="#BED89E" stroke="#231F20" stroke-width="0.156527" stroke-miterlimit="10"/>
<path d="M159.473 230.718C159.473 230.718 156.326 201.245 156.515 199.359C156.705 197.473 155.414 194.33 155.278 192.679C155.142 191.028 155.007 187.043 154.328 186.246C153.649 185.448 151.475 183.09 150.932 183.169L152.63 180.576C152.63 180.576 154.04 182.227 155.202 185.606C156.365 188.986 158.445 199.203 158.492 201.796C158.539 204.389 161.187 228.439 161.187 228.439L159.474 230.718H159.473Z" fill="#BED89E" stroke="#231F20" stroke-width="0.156527" stroke-miterlimit="10"/>
<path d="M165.459 209.091C165.459 209.091 167.589 204.014 169.534 201.37C170.172 200.504 170.524 199.407 170.541 198.27C170.583 195.518 170.111 191.907 171.172 191.126C173.056 189.738 174.532 188.715 175.405 187.86C176.279 187.004 176.75 185.993 177.354 186.304C177.959 186.615 176.615 188.258 175.943 190.275C175.271 192.293 176.01 194.49 174.33 197.669C172.65 200.847 173.84 206.088 173.658 207.225C173.056 210.968 170.429 211.918 169.892 213.94C169.355 215.963 167.804 218.892 167.804 218.892L163.576 216.869L165.458 209.092L165.459 209.091Z" fill="#BED89E" stroke="#231F20" stroke-width="0.156527" stroke-miterlimit="10"/>
<path d="M195.543 143.379C195.543 143.379 193.872 142.941 194.681 139.633C194.681 139.633 191.448 137.386 193.657 134.078C193.657 134.078 194.765 132.83 195.289 134.078C195.289 134.078 197.066 134.078 197.113 136.262C197.113 136.262 198.132 138.758 198.024 140.381C198.024 140.381 198.654 138.891 198.416 137.476C198.178 136.061 198.768 135.079 200.697 136.65C200.697 136.65 200.758 137.256 201.098 137.149C201.438 137.043 200.962 135.981 201.404 135.903C201.846 135.825 202.66 135.683 202.864 137.149C203.068 138.615 202.66 139.715 202.864 140.227C203.068 140.738 203.068 142.275 202.287 142.961C202.287 142.961 204.223 141.799 205.139 141.956C205.139 141.956 206.328 139.479 206.871 139.715C206.871 139.715 207.448 139.793 206.871 140.973C206.871 140.973 208.196 141.444 204.154 147.261C204.154 147.261 205.788 146.829 207.127 146.985C207.127 146.985 208.365 143.645 209.01 143.841C209.656 144.037 209.961 145.217 207.958 149.225C207.958 149.225 207.483 150.39 206.769 150.712C206.769 150.712 208.763 150.404 209.498 148.675C209.498 148.675 209.758 146.946 210.743 148.125C210.743 148.125 213.29 147.496 211.931 150.09C211.931 150.09 212.475 151.111 210.81 152.212C210.81 152.212 213.527 151.762 213.493 152.694C213.459 153.627 213.289 154.491 212.202 154.767C212.202 154.767 211.693 156.181 210.301 156.22C210.301 156.22 211.116 157.203 213.255 157.242C213.255 157.242 213.9 157.282 212.474 159.757C212.474 159.757 212.508 160.229 213.9 160.386C213.9 160.386 214.24 161.251 212.168 161.958C212.168 161.958 211.183 162.743 210.13 162.587C210.13 162.587 209.519 162.547 209.213 163.059C209.213 163.059 208.771 163.688 207.787 162.194C207.787 162.194 207.888 162.823 207.413 162.861C206.938 162.901 206.938 162.154 206.463 162.076C205.988 161.997 205.24 162.823 204.459 161.014C204.459 161.014 203.678 158.279 204.323 157.721L199.766 154.584L198.286 151.75L197.133 147.589L195.287 145.399L195.54 143.377L195.543 143.379Z" fill="#EED976" stroke="#231F20" stroke-width="0.156527" stroke-miterlimit="10"/>
<path d="M205.272 160.529C204.955 160.284 204.702 159.946 204.49 159.578C204.043 158.805 202.553 157.197 198.349 159.013C195.68 160.166 192.628 163.968 192.628 163.968C192.628 163.968 196.193 163.968 197.73 164.777C199.268 165.586 200.386 165.182 201.364 165.991C201.364 165.991 203.391 165.829 203.811 166.476C203.811 166.476 206.466 163.645 207.375 164.535C208.284 165.425 205.558 167.77 204.72 167.77C204.72 167.77 202.623 172.057 198.499 172.461C198.499 172.461 201.015 175.13 201.574 176.747C201.574 176.747 204.16 179.255 203.95 181.276C203.74 183.299 199.966 184.754 195.773 181.681C195.773 181.681 190.531 180.306 189.623 176.829C189.623 176.829 188.994 174.806 187.736 173.756C186.478 172.704 186.618 170.278 185.919 169.469C185.22 168.66 181.096 168.984 179.14 170.035C177.183 171.087 177.183 171.653 177.183 171.653L174.807 165.183C174.807 165.183 177.393 160.654 177.882 160.493L177.811 162.03C177.811 162.03 178.93 160.25 179.279 160.331C179.279 160.331 175.296 159.199 174.807 157.338C174.807 157.338 172.221 156.124 171.661 154.427C171.102 152.728 171.312 151.434 170.193 149.978C169.075 148.522 167.678 146.5 168.237 145.126C168.796 143.75 169.544 142.61 169.544 142.61C169.544 142.61 169.027 141.173 169.648 140.873C170.269 140.574 171.355 140.514 171.355 140.514C171.355 140.514 171.82 139.677 172.648 140.514C173.476 141.352 175.39 144.646 176.218 149.256C176.218 149.256 178.087 154.936 179.725 155.398C179.725 155.398 179.126 148.697 178.646 147.356C178.167 146.016 177.168 142.456 178.846 139.267C178.846 139.267 178.527 136.263 179.285 135.154C180.044 134.045 182.959 131.826 184.237 132.011C185.515 132.196 186.713 131.271 187.113 135.246C187.113 135.246 187.233 137.28 185.036 139.452C185.036 139.452 183.718 146.108 182.639 148.743C182.639 148.743 183.518 153.503 182.919 157.016C182.919 157.016 195.301 144.906 195.54 143.381L195.92 143.583L196.866 146.446L198.544 144.16C198.544 144.16 199.334 148.099 198.544 150.985C198.544 150.985 199.927 154.329 200.618 154.215C201.308 154.101 200.519 148.845 201.506 149.073C202.493 149.302 203.381 151.359 202.196 155.014C202.196 155.014 203.085 156.385 204.369 156.728C204.369 156.728 205.734 156.626 205.49 157.475C205.245 158.323 204.722 157.924 205.036 158.507C205.35 159.09 206.606 160.179 207.548 160.058C208.491 159.937 209.118 159.17 209.502 159.413C209.887 159.655 209.118 161.229 208.072 161.229C207.207 161.229 206.247 161.285 205.27 160.529H205.272Z" fill="#FCF1A4" stroke="#231F20" stroke-width="0.156527" stroke-miterlimit="10"/>
<path d="M177.851 168.76C177.851 168.76 181.526 165.057 187.105 167.409C192.684 169.761 198.5 172.461 198.5 172.461" stroke="#231F20" stroke-width="0.156527" stroke-miterlimit="10"/>
<path d="M186.586 167.205C186.586 167.205 188.921 166.867 192.628 163.969" stroke="#231F20" stroke-width="0.156527" stroke-miterlimit="10"/>
<path d="M182.271 160.548C182.271 160.548 187.362 154.764 188.796 154.013C190.231 153.263 193.656 149.676 193.656 149.676" stroke="#231F20" stroke-width="0.156527" stroke-miterlimit="10"/>
<path d="M177.811 162.027C177.811 162.027 177.594 164.691 176.76 165.587C175.925 166.483 176.373 167.345 176.373 167.345C176.373 167.345 182.534 161.83 179.278 160.329" stroke="#231F20" stroke-width="0.156527" stroke-miterlimit="10"/>
<path d="M181.04 160.841C181.04 160.841 183.143 160.593 176.491 153.341C176.491 153.341 173.659 149.915 173.615 148.127C173.572 146.339 172.757 144.153 172.757 144.153" stroke="#231F20" stroke-width="0.156527" stroke-miterlimit="10"/>
<path d="M179.726 155.396L181.599 158.507L182.92 157.014" stroke="#231F20" stroke-width="0.156527" stroke-miterlimit="10"/>
<path d="M181.641 156.222C181.641 156.222 181.684 151.156 180.482 147.333C179.28 143.508 181.356 137.151 181.356 137.151" stroke="#231F20" stroke-width="0.156527" stroke-miterlimit="10"/>
<path d="M183.401 138.095C183.401 138.095 181.464 143.106 182.272 147.83" stroke="#231F20" stroke-width="0.156527" stroke-miterlimit="10"/>
<path d="M195.289 151.752L197.135 149.676" stroke="#231F20" stroke-width="0.156527" stroke-miterlimit="10"/>
<path d="M197.393 152L196.835 153.391" stroke="#231F20" stroke-width="0.156527" stroke-miterlimit="10"/>
<path d="M195.891 155.875C195.891 155.875 198.122 155.079 198.938 154.236" stroke="#231F20" stroke-width="0.156527" stroke-miterlimit="10"/>
<path d="M191.898 161.487C191.898 161.487 193.572 159.948 195.504 159.053C197.435 158.159 200.697 156.222 200.697 156.222" stroke="#231F20" stroke-width="0.156527" stroke-miterlimit="10"/>
<path d="M200.696 138.929C200.696 138.929 201.219 141.163 200.215 143.349" stroke="#231F20" stroke-width="0.156527" stroke-miterlimit="10"/>
<path d="M200.215 146.094C200.215 146.094 201.019 143.768 201.823 143.628" stroke="#231F20" stroke-width="0.156527" stroke-miterlimit="10"/>
<path d="M203.609 147.36C203.609 147.36 204.792 145.894 205.539 145.737" stroke="#231F20" stroke-width="0.156527" stroke-miterlimit="10"/>
<path d="M206.744 152.198C206.744 152.198 207.99 152.045 208.834 151.866C209.678 151.686 210.643 152.471 211.89 152.032" stroke="#231F20" stroke-width="0.156527" stroke-miterlimit="10"/>
<path d="M196.298 143.35C196.298 143.35 195.696 141.863 196.834 140.605C196.834 140.605 197.281 137.395 194.506 135.208" stroke="#231F20" stroke-width="0.156527" stroke-miterlimit="10"/>
<path d="M166.142 187.315H167.877C167.877 187.315 167.971 184.087 168.586 183.09C169.366 181.825 169.19 180.534 169.587 178.986C169.842 177.991 170.423 177.157 171.206 176.652C173.732 175.019 179.233 171.009 177.581 167.972C175.456 164.067 173.198 166.16 173.198 166.16C173.198 166.16 169.317 170.869 168.127 174.129C166.937 177.389 166.285 179.998 166.142 181.301C165.998 182.606 166.142 187.314 166.142 187.314V187.315Z" fill="#D5E8C1" stroke="#231F20" stroke-width="0.156527" stroke-miterlimit="10"/>
<path d="M151.353 170.797C151.353 170.797 157.44 167.942 159.841 169.427C162.241 170.912 164.292 174.452 164.513 176.385C164.513 176.385 163.81 181.247 161.489 182.932C159.167 184.618 150.74 183.187 149.474 182.403C148.207 181.62 144.606 179.392 144.606 179.392L145.625 172.549L151.354 170.797H151.353Z" fill="#F7A9AB" stroke="#231F20" stroke-width="0.156527" stroke-miterlimit="10"/>
<path d="M143.875 174.456C143.875 174.456 145.512 167.047 143.463 162.645C143.463 162.645 144.618 158.697 140.3 155.887C140.3 155.887 136.623 151.961 133.215 151.504C133.215 151.504 130.887 149.788 130.925 151.326C130.963 152.864 132.274 153.539 131.873 155.218C131.472 156.897 130.383 159.253 132.227 160.393C134.071 161.534 133.718 163.381 134.435 165.34C135.153 167.298 139.187 168.83 139.859 170.347C140.531 171.865 141.771 175.662 141.771 175.662L143.874 174.456H143.875Z" fill="#F7A9AB" stroke="#231F20" stroke-width="0.156527" stroke-miterlimit="10"/>
<path d="M143.637 167.017C143.637 167.017 144.615 162.278 146.204 160.613C147.793 158.947 147.892 156.549 148.497 155.032C149.103 153.515 151.555 152.288 153.463 152.428C153.463 152.428 155.317 150.643 156.015 151.17C156.715 151.697 155.8 153.307 156.162 154.193C156.525 155.079 158.195 155.545 157.472 158.596C157.472 158.596 158.238 159.165 156.806 162.82C155.375 166.474 155.866 168.197 153.508 170.332C151.15 172.467 145.005 175.004 145.005 175.004L142.57 173.592L143.637 167.016V167.017Z" fill="#F7A9AB" stroke="#231F20" stroke-width="0.156527" stroke-miterlimit="10"/>
<path d="M146.579 179.762C146.579 179.762 150.16 180.97 152.121 184.359C152.121 184.359 159.716 187.656 156.39 194.155L156.549 195.959C156.549 195.959 157.021 199.654 155.601 201.801C154.179 203.949 153.667 200.605 152.801 200.069C151.934 199.532 145.488 197.341 144.671 194.283C143.855 191.224 143.639 187.496 143.639 187.496C143.639 187.496 141.11 196.052 138.633 196.033C136.156 196.014 134.548 196.154 133.735 197.542C132.922 198.931 132.932 202.437 129.949 202.956C126.966 203.475 126.473 203.455 126.371 202.919C126.269 202.383 128.068 200.374 128.037 199.314C128.005 198.254 126.572 197.273 127.692 195.223C128.811 193.172 130.591 189.828 130.741 188.596C130.892 187.366 135.126 185.066 136.231 185.088C137.336 185.109 138.232 181.313 138.232 181.313L142.978 182.546L146.58 179.761L146.579 179.762Z" fill="#F7A9AB" stroke="#231F20" stroke-width="0.156527" stroke-miterlimit="10"/>
<path d="M138.179 179.622C138.179 179.622 131.918 182.38 127.982 180.792C124.047 179.205 121.002 176.615 119.365 176.096C117.729 175.578 121.967 173.049 124.649 171.674C127.33 170.298 128.044 168.062 131.689 168.199C133.869 168.28 141.398 172.793 142.041 173.615L138.178 179.621L138.179 179.622Z" fill="#F7A9AB" stroke="#231F20" stroke-width="0.156527" stroke-miterlimit="10"/>
<path d="M153.062 161.666C153.062 161.666 148.85 170.913 146.464 173.175Z" fill="#F7A9AB"/>
<path d="M153.062 161.666C153.062 161.666 148.85 170.913 146.464 173.175" stroke="#231F20" stroke-width="0.156527" stroke-miterlimit="10"/>
<path d="M146.045 176.162C146.045 176.162 155.64 175.325 156.42 174.467Z" fill="#F7A9AB"/>
<path d="M146.045 176.162C146.045 176.162 155.64 175.325 156.42 174.467" stroke="#231F20" stroke-width="0.156527" stroke-miterlimit="10"/>
<path d="M159.642 178.013C159.642 178.013 151.779 181.192 147.026 178.605Z" fill="#F7A9AB"/>
<path d="M159.642 178.013C159.642 178.013 151.779 181.192 147.026 178.605" stroke="#231F20" stroke-width="0.156527" stroke-miterlimit="10"/>
<path d="M140.49 165.069C140.49 165.069 142.449 168.857 142.43 169.868Z" fill="#F7A9AB"/>
<path d="M140.49 165.069C140.49 165.069 142.449 168.857 142.43 169.868" stroke="#231F20" stroke-width="0.156527" stroke-miterlimit="10"/>
<path d="M151.436 191.069C151.436 191.069 151.625 185.4 144.902 182.511Z" fill="#F7A9AB"/>
<path d="M151.436 191.069C151.436 191.069 151.625 185.4 144.902 182.511" stroke="#231F20" stroke-width="0.156527" stroke-miterlimit="10"/>
<path d="M139.906 184.923C139.906 184.923 140.831 186.338 138.335 187.865C135.839 189.392 132.653 191.443 131.737 193.98" fill="#F7A9AB"/>
<path d="M139.906 184.923C139.906 184.923 140.831 186.338 138.335 187.865C135.839 189.392 132.653 191.443 131.737 193.98" stroke="#231F20" stroke-width="0.156527" stroke-miterlimit="10"/>
<path d="M126.753 174.458C126.753 174.458 132.153 173.055 135.585 175.688Z" fill="#F7A9AB"/>
<path d="M126.753 174.458C126.753 174.458 132.153 173.055 135.585 175.688" stroke="#231F20" stroke-width="0.156527" stroke-miterlimit="10"/>
<path d="M142.962 183.718C142.962 183.718 143.801 184.405 143.638 187.496Z" fill="#F7A9AB"/>
<path d="M142.962 183.718C142.962 183.718 143.801 184.405 143.638 187.496" stroke="#231F20" stroke-width="0.156527" stroke-miterlimit="10"/>
<path d="M135.209 177.021C135.209 177.021 135.601 174.25 138.573 174.038C141.546 173.826 142.809 172.555 144.434 173.794C146.06 175.033 146.846 176.963 146.539 178.966C146.233 180.968 145.566 183.593 140.634 184.805L139.108 179.964L135.209 177.021Z" fill="#EF8F98" stroke="#231F20" stroke-width="0.156527" stroke-miterlimit="10"/>
<path d="M137.991 180.402C137.991 180.402 133.68 178.703 134.632 177.196C135.585 175.688 137.636 174.697 139.207 176.052C139.207 176.052 140.466 174.884 141.285 175.763C142.103 176.643 140.944 177.464 141.41 178.032C141.876 178.6 142.428 177.962 142.835 178.587C143.241 179.212 142.552 179.699 142.491 180.837C142.431 181.974 142.841 183.189 141.975 183.875C141.109 184.56 140.352 185.606 138.6 184.115C136.848 182.623 138.598 181.904 137.991 180.402Z" fill="#EFA5B1" stroke="#231F20" stroke-width="0.156527" stroke-miterlimit="10"/>
<path d="M166.141 187.315C166.141 187.315 160.908 226.203 160.775 227.357C160.642 228.511 164.298 226.972 165.561 215.127C166.824 203.281 168.22 186.128 167.688 184.897L166.141 187.316V187.315Z" fill="#BED89E" stroke="#231F20" stroke-width="0.156527" stroke-miterlimit="10"/>
<path d="M151.914 249.259C151.727 251.006 151.589 252.48 151.744 252.972C151.794 253.132 151.845 253.373 151.896 253.669C152.02 253.109 152.161 252.583 152.314 252.104C152.176 251.18 152.041 250.226 151.915 249.259H151.914Z" fill="#BED89E" stroke="#231F20" stroke-width="0.156527" stroke-miterlimit="10"/>
<path d="M162.494 235.709C162.494 235.709 162.048 237.191 162.936 243.83L163.734 234.485C163.42 234.966 163.023 235.377 162.495 235.709H162.494Z" fill="#BED89E" stroke="#231F20" stroke-width="0.156527" stroke-miterlimit="10"/>
<path d="M151.914 249.259C151.727 251.006 151.589 252.48 151.744 252.972C151.794 253.132 151.845 253.373 151.896 253.669C152.02 253.108 152.161 252.583 152.314 252.104C152.176 251.18 152.041 250.226 151.915 249.259H151.914Z" fill="#BED89E" stroke="#231F20" stroke-width="0.156527" stroke-miterlimit="10"/>
<path d="M151.441 258.832C151.452 256.887 151.63 254.873 151.895 253.669C151.615 254.942 151.433 256.925 151.441 258.832Z" fill="#BED89E" stroke="#231F20" stroke-width="0.156527" stroke-miterlimit="10"/>
<path d="M162.185 252.63L161.491 260.755H163.335C163.031 258.496 162.619 255.14 162.185 252.63Z" fill="#BED89E" stroke="#231F20" stroke-width="0.156527" stroke-miterlimit="10"/>
<path d="M166.938 260.755L167.278 258.684C167.278 258.684 167.701 257.328 168.276 255.407C168.508 248.615 165.633 242.795 165.328 243.051C164.896 243.415 165.653 252.486 165.328 253.803C165.212 254.271 165.091 255.47 164.981 256.82L165.437 260.755H166.938Z" fill="#BED89E" stroke="#231F20" stroke-width="0.156527" stroke-miterlimit="10"/>
<path d="M158.787 260.066L158.729 260.756H161.491L162.185 252.63C161.343 247.768 160.424 242.169 160.07 238.99L158.008 254.923C158.014 254.938 158.02 254.953 158.026 254.967C158.671 256.558 158.934 258.318 158.787 260.066Z" fill="#BED89E" stroke="#231F20" stroke-width="0.156527" stroke-miterlimit="10"/>
<path d="M166.979 260.755H170.834C171.723 256.287 172.922 246.376 173.222 244.368C173.641 241.571 171.786 238.614 171.411 238.609C170.999 238.603 171.411 240.639 171.411 243.038C171.411 244.67 169.498 251.32 168.275 255.408C167.701 257.328 167.277 258.685 167.277 258.685L166.979 260.756V260.755Z" fill="#BED89E" stroke="#231F20" stroke-width="0.156527" stroke-miterlimit="10"/>
<path d="M167.278 258.685L166.938 260.754H166.98L167.278 258.685Z" fill="#BED89E" stroke="#231F20" stroke-width="0.156527" stroke-miterlimit="10"/>
<path d="M151.44 258.832C151.432 256.925 151.614 254.942 151.895 253.669C151.843 253.374 152.661 252.789 152.612 252.629C152.457 252.136 153.03 251.183 152.482 249.542C152.069 248.307 151.379 245.638 151.127 244.264C151.093 244.075 150.318 241.171 150.176 241.421C147.866 245.457 146.506 252.709 148.017 260.755H151.489C151.451 260.144 151.436 259.493 151.44 258.832Z" fill="#BED89E" stroke="#231F20" stroke-width="0.156527" stroke-miterlimit="10"/>
<path d="M158.026 254.966L158.008 254.922C156.715 251.735 154.553 246.452 153.902 245.129C153.102 243.502 152.094 237.225 151.798 235.299C151.773 235.138 151.576 235.121 151.534 235.277C151.144 236.695 151.065 238.862 151.171 241.348C151.244 242.847 151.44 243.836 151.44 244.029C151.44 245.526 151.44 246.673 151.913 249.259C152.039 250.227 152.175 251.181 152.312 252.104C152.914 250.215 152.785 256.557 153.208 256.691C154.251 257.025 153.497 253.085 153.497 257.727C153.497 258.231 154.985 259.508 154.601 260.755H158.728L158.787 260.047C158.933 258.304 158.67 256.549 158.024 254.966H158.026Z" fill="#BED89E" stroke="#231F20" stroke-width="0.156527" stroke-miterlimit="10"/>
<path d="M171.424 213.125C166.208 214.443 162.946 221.492 161.793 224.437C161.463 225.279 161.069 226.087 160.611 226.845C156.241 234.087 159.98 236.48 159.98 236.48C159.869 236.694 159.917 237.617 160.07 238.989C160.424 242.168 161.343 247.768 162.184 252.629C162.619 255.139 163.031 258.494 163.335 260.755H165.398L164.98 256.82L163.699 248.799C163.373 246.883 163.125 245.242 162.935 243.829C162.048 237.19 162.494 235.708 162.494 235.708C163.023 235.375 163.42 234.965 163.733 234.484C164.94 232.631 165.441 229.93 166.267 225.793C167.308 220.581 170.381 218.337 170.381 218.337C178.379 213.651 179.036 208.658 179.036 208.658C176.023 211.885 171.422 213.125 171.422 213.125H171.424Z" fill="#BED89E" stroke="#231F20" stroke-width="0.156527" stroke-miterlimit="10"/>
<path d="M165.436 260.754L164.98 256.82L165.399 260.754H165.436Z" fill="#BED89E" stroke="#231F20" stroke-width="0.156527" stroke-miterlimit="10"/>
<path d="M151.44 258.832C151.437 259.493 151.451 260.145 151.489 260.754H151.521C151.467 260.145 151.443 259.493 151.439 258.832H151.44Z" fill="#BED89E" stroke="#231F20" stroke-width="0.156527" stroke-miterlimit="10"/>
<path d="M154.186 248.776C153.816 248.504 152.915 250.216 152.312 252.104C152.16 252.582 152.018 253.108 151.895 253.669C151.63 254.873 151.452 256.887 151.44 258.832C151.443 259.493 151.468 260.145 151.522 260.754H154.604C154.987 259.507 154.978 257.775 154.978 257.271C154.978 252.629 154.517 249.019 154.186 248.776Z" fill="#BED89E" stroke="#231F20" stroke-width="0.156527" stroke-miterlimit="10"/>
<path d="M161.113 252.201C161.518 252.58 162.557 252.966 163.29 254.362C163.476 254.716 163.647 255.104 163.798 255.518C164.121 256.408 164.336 257.896 164.351 259.334C164.347 259.823 164.317 260.305 164.253 260.756H160.505C161.168 258.108 161.168 256.513 161.168 256.141C161.168 252.71 160.324 251.465 161.113 252.202V252.201Z" fill="#BED89E" stroke="#231F20" stroke-width="0.156527" stroke-miterlimit="10"/>
<path d="M168.275 255.408C168.507 248.616 165.602 242.549 165.327 243.052C164.901 243.83 165.652 252.487 165.327 253.804" fill="#BED89E"/>
<path d="M168.275 255.408C168.507 248.616 165.602 242.549 165.327 243.052C164.901 243.83 165.652 252.487 165.327 253.804" stroke="#231F20" stroke-width="0.156527" stroke-miterlimit="10"/>
<path d="M143.53 328.879L143.613 329.44L141.871 329.697L141.788 329.135L143.53 328.879ZM146.777 328.402L146.86 328.963L145.118 329.219L145.035 328.658L146.777 328.402ZM150.024 327.924L150.106 328.485L148.364 328.741L148.282 328.18L150.024 327.924ZM153.271 327.447L153.353 328.008L151.611 328.264L151.529 327.703L153.271 327.447ZM156.517 326.969L156.6 327.53L154.858 327.786L154.775 327.225L156.517 326.969ZM159.764 326.491L159.847 327.053L158.105 327.309L158.022 326.748L159.764 326.491ZM163.011 326.014L163.093 326.575L161.351 326.831L161.269 326.27L163.011 326.014ZM166.257 325.536L166.34 326.097L164.598 326.354L164.516 325.793L166.257 325.536ZM169.504 325.059L169.587 325.62L167.845 325.876L167.762 325.315L169.504 325.059ZM172.751 324.581L172.833 325.142L171.091 325.399L171.009 324.837L172.751 324.581ZM175.998 324.104L176.08 324.665L174.338 324.921L174.256 324.36L175.998 324.104ZM179.244 323.626L179.327 324.187L177.585 324.443L177.502 323.882L179.244 323.626ZM182.491 323.149L182.574 323.71L180.832 323.966L180.749 323.405L182.491 323.149ZM185.738 322.671L185.82 323.232L184.078 323.488L183.996 322.927L185.738 322.671ZM188.985 322.193L189.067 322.755L187.325 323.011L187.243 322.45L188.985 322.193Z" fill="black"/>
<path d="M19.912 204.106L19.3449 204.106L19.3449 202.346L19.912 202.346L19.912 204.106ZM19.912 207.388L19.3449 207.388L19.3449 205.627L19.912 205.627L19.912 207.388ZM19.912 210.67L19.3449 210.67L19.3449 208.909L19.912 208.909L19.912 210.67ZM19.912 213.951L19.3449 213.951L19.3449 212.191L19.912 212.191L19.912 213.951ZM19.912 217.233L19.3449 217.233L19.3449 215.472L19.912 215.472L19.912 217.233ZM19.912 220.515L19.3449 220.515L19.3449 218.754L19.912 218.754L19.912 220.515ZM19.912 223.796L19.3449 223.796L19.3449 222.036L19.912 222.036L19.912 223.796ZM19.912 227.078L19.3449 227.078L19.3449 225.317L19.912 225.317L19.912 227.078ZM19.912 230.36L19.3449 230.36L19.3449 228.599L19.912 228.599L19.912 230.36ZM19.912 233.641L19.3449 233.641L19.3449 231.881L19.912 231.881L19.912 233.641ZM19.912 236.923L19.3449 236.923L19.3449 235.162L19.912 235.162L19.912 236.923ZM19.912 240.205L19.3449 240.205L19.3449 238.444L19.912 238.444L19.912 240.205ZM19.912 243.486L19.3449 243.486L19.3449 241.726L19.912 241.726L19.912 243.486ZM19.912 246.768L19.3449 246.768L19.3449 245.007L19.912 245.007L19.912 246.768ZM19.912 250.05L19.3449 250.05L19.3449 248.289L19.912 248.289L19.912 250.05Z" fill="black"/>
</svg>
