<svg width="40" height="582" viewBox="0 0 40 582" fill="none" xmlns="http://www.w3.org/2000/svg">
<rect x="9.79564" y="0.599736" width="28.9944" height="579.836" transform="rotate(0.917081 9.79564 0.599736)" fill="#C1B5CD" stroke="black" stroke-linejoin="round"/>
<path d="M24.64 16.0095L22.797 15.9799L22.8889 10.2577L24.7319 10.2873L24.64 16.0095ZM24.4688 26.6744L22.6258 26.6448L22.7177 20.9227L24.5607 20.9523L24.4688 26.6744ZM24.2975 37.3393L22.4545 37.3097L22.5464 31.5876L24.3894 31.6172L24.2975 37.3393ZM24.1263 48.0043L22.2832 47.9747L22.3751 42.2525L24.2182 42.2821L24.1263 48.0043ZM23.955 58.6692L22.112 58.6396L22.2039 52.9175L24.0469 52.9471L23.955 58.6692ZM23.7837 69.3341L21.9407 69.3045L22.0326 63.5824L23.8756 63.612L23.7837 69.3341ZM23.6125 79.9991L21.7695 79.9695L21.8613 74.2473L23.7044 74.2769L23.6125 79.9991ZM23.4412 90.664L21.5982 90.6344L21.6901 84.9123L23.5331 84.9419L23.4412 90.664ZM23.27 101.329L21.4269 101.299L21.5188 95.5772L23.3618 95.6068L23.27 101.329ZM23.0987 111.994L21.2557 111.964L21.3476 106.242L23.1906 106.272L23.0987 111.994ZM22.9274 122.659L21.0844 122.629L21.1763 116.907L23.0193 116.937L22.9274 122.659ZM22.7562 133.324L20.9131 133.294L21.005 127.572L22.8481 127.602L22.7562 133.324ZM22.5849 143.989L20.7419 143.959L20.8338 138.237L22.6768 138.267L22.5849 143.989ZM22.4136 154.654L20.5706 154.624L20.6625 148.902L22.5055 148.931L22.4136 154.654ZM22.2424 165.318L20.3994 165.289L20.4913 159.567L22.3343 159.596L22.2424 165.318Z" fill="black"/>
</svg>
