<svg width="87" height="531" viewBox="0 0 87 531" fill="none" xmlns="http://www.w3.org/2000/svg">
<rect x="0.524948" y="3.52599" width="58.6055" height="527.191" transform="rotate(-2.93528 0.524948 3.52599)" fill="#C2D9E7" stroke="black" stroke-linejoin="round"/>
<path d="M37.885 21.9262L37.9772 23.7214L28.2783 28.2862L28.286 28.4358L38.4015 31.983L38.4937 33.7782L26.4588 34.3963L26.3862 32.9834L35.4789 32.5164L35.4729 32.4L26.1882 29.1269L26.1199 27.7971L35.0204 23.59L35.0153 23.4902L25.9227 23.9572L25.8501 22.5443L37.885 21.9262ZM33.2664 49.4733C29.4598 49.6688 26.9675 47.5468 26.8096 44.4716C26.6508 41.3798 28.9134 39.0302 32.7201 38.8347C36.5267 38.6392 39.0181 40.7446 39.1769 43.8364C39.3349 46.9117 37.073 49.2778 33.2664 49.4733ZM33.1922 48.0271C36.3006 47.8675 37.8924 46.0857 37.7806 43.9082C37.6688 41.7306 35.9028 40.1213 32.7943 40.2809C29.6859 40.4406 28.094 42.2223 28.2059 44.3999C28.3177 46.5775 30.0837 48.1868 33.1922 48.0271ZM34.0327 64.3939C30.2261 64.5894 27.7338 62.4674 27.5759 59.3922C27.4171 56.3004 29.6797 53.9508 33.4863 53.7553C37.293 53.5598 39.7844 55.6652 39.9432 58.757C40.1011 61.8323 37.8393 64.1984 34.0327 64.3939ZM33.9584 62.9477C37.0669 62.7881 38.6587 61.0063 38.5469 58.8288C38.4351 56.6512 36.6691 55.0419 33.5606 55.2015C30.4522 55.3612 28.8603 57.1429 28.9722 59.3205C29.084 61.4981 30.85 63.1074 33.9584 62.9477ZM28.4512 73.1906L28.2591 69.4504L40.294 68.8323L40.4938 72.7221C40.6739 76.2295 38.5199 78.4234 34.7798 78.6155C31.023 78.8085 28.639 76.8476 28.4512 73.1906ZM29.6657 70.8782L29.7759 73.0225C29.9278 75.9814 31.779 77.303 34.7047 77.1527C37.6136 77.0033 39.3031 75.4999 39.1588 72.6906L39.041 70.3967L29.6657 70.8782ZM41.1013 84.5508L29.0664 85.1689L28.9895 83.6729L41.0244 83.0548L41.1013 84.5508ZM29.3614 90.9138L29.2812 89.3512L41.5423 93.1382L41.6234 94.7173L29.8147 99.7405L29.7336 98.1613L33.0632 96.7903L32.8148 91.9531L29.3614 90.9138ZM34.151 92.3344L34.3525 96.2574L39.6401 94.0692L39.635 93.9695L34.151 92.3344ZM30.0295 103.923L42.0644 103.305L42.2744 107.394C42.4196 110.22 40.9227 111.58 38.7784 111.69C37.1909 111.772 35.8992 111.121 35.2887 109.619L30.4743 112.583L30.3847 110.838L34.9434 108.087C34.9216 107.988 34.9165 107.888 34.9114 107.789L34.7773 105.179L30.1063 105.419L30.0295 103.923ZM36.1404 105.109L36.271 107.652C36.3692 109.564 37.2729 110.284 38.7024 110.211C40.1486 110.136 41.0402 109.324 40.9412 107.396L40.8114 104.869L36.1404 105.109ZM42.6531 114.768L42.7411 116.48L37.3257 120.075L37.3334 120.224L43.0885 123.245L43.1773 124.974L35.8557 120.983L30.9187 121.237L30.8411 119.724L35.778 119.471L42.6531 114.768ZM43.7418 135.965L43.834 137.76L34.1351 142.325L34.1428 142.475L44.2583 146.022L44.3505 147.817L32.3156 148.435L32.243 147.022L41.3357 146.555L41.3297 146.439L32.045 143.166L31.9767 141.836L40.8772 137.629L40.8721 137.529L31.7794 137.996L31.7069 136.583L43.7418 135.965ZM39.1232 163.512C35.3166 163.708 32.8243 161.586 32.6664 158.511C32.5076 155.419 34.7702 153.069 38.5768 152.874C42.3835 152.678 44.8749 154.784 45.0337 157.875C45.1916 160.951 42.9298 163.317 39.1232 163.512ZM39.0489 162.066C42.1574 161.906 43.7492 160.125 43.6374 157.947C43.5256 155.769 41.7596 154.16 38.6511 154.32C35.5427 154.479 33.9508 156.261 34.0627 158.439C34.1745 160.616 35.9405 162.226 39.0489 162.066ZM39.8895 178.433C36.0829 178.628 33.5906 176.506 33.4326 173.431C33.2739 170.339 35.5365 167.99 39.3431 167.794C43.1497 167.599 45.6412 169.704 45.8 172.796C45.9579 175.871 43.6961 178.237 39.8895 178.433ZM39.8152 176.987C42.9237 176.827 44.5155 175.045 44.4037 172.868C44.2918 170.69 42.5259 169.081 39.4174 169.24C36.3089 169.4 34.7171 171.182 34.829 173.359C34.9408 175.537 36.7068 177.146 39.8152 176.987ZM34.308 187.229L34.1159 183.489L46.1508 182.871L46.3505 186.761C46.5307 190.268 44.3767 192.462 40.6366 192.654C36.8798 192.847 34.4958 190.886 34.308 187.229ZM35.5225 184.917L35.6327 187.061C35.7846 190.02 37.6358 191.342 40.5614 191.192C43.4704 191.042 45.1599 189.539 45.0156 186.73L44.8978 184.436L35.5225 184.917ZM46.958 198.59L34.9231 199.208L34.8463 197.712L46.8812 197.094L46.958 198.59ZM35.2182 204.953L35.1379 203.39L47.3991 207.177L47.4802 208.756L35.6715 213.779L35.5904 212.2L38.92 210.829L38.6716 205.992L35.2182 204.953ZM40.0078 206.373L40.2093 210.296L45.4969 208.108L45.4918 208.008L40.0078 206.373ZM35.8863 217.962L47.9212 217.344L48.1312 221.433C48.2763 224.259 46.7795 225.619 44.6352 225.729C43.0477 225.811 41.756 225.16 41.1455 223.658L36.3311 226.622L36.2414 224.877L40.8002 222.126C40.7784 222.027 40.7733 221.927 40.7682 221.828L40.6341 219.218L35.9631 219.458L35.8863 217.962ZM41.9972 219.148L42.1278 221.691C42.226 223.603 43.1297 224.323 44.5592 224.25C46.0054 224.175 46.897 223.363 46.798 221.435L46.6682 218.908L41.9972 219.148ZM48.5099 228.807L48.5978 230.519L43.1825 234.114L43.1902 234.263L48.9453 237.284L49.0341 239.013L41.7125 235.022L36.7755 235.276L36.6978 233.763L41.6348 233.51L48.5099 228.807ZM49.5986 250.004L49.6908 251.799L39.9919 256.364L39.9996 256.514L50.1151 260.061L50.2073 261.856L38.1724 262.474L38.0998 261.061L47.1925 260.594L47.1865 260.478L37.9017 257.205L37.8334 255.875L46.734 251.668L46.7289 251.568L37.6362 252.035L37.5637 250.622L49.5986 250.004ZM44.98 277.551C41.1734 277.747 38.6811 275.625 38.5231 272.549C38.3643 269.458 40.627 267.108 44.4336 266.913C48.2402 266.717 50.7317 268.822 50.8905 271.914C51.0484 274.99 48.7866 277.356 44.98 277.551ZM44.9057 276.105C48.0142 275.945 49.606 274.164 49.4942 271.986C49.3823 269.808 47.6164 268.199 44.5079 268.359C41.3994 268.518 39.8076 270.3 39.9195 272.478C40.0313 274.655 41.7973 276.265 44.9057 276.105ZM45.7463 292.472C41.9397 292.667 39.4474 290.545 39.2894 287.47C39.1306 284.378 41.3933 282.029 45.1999 281.833C49.0065 281.638 51.498 283.743 51.6568 286.835C51.8147 289.91 49.5529 292.276 45.7463 292.472ZM45.672 291.026C48.7805 290.866 50.3723 289.084 50.2605 286.907C50.1486 284.729 48.3826 283.12 45.2742 283.279C42.1657 283.439 40.5739 285.221 40.6857 287.398C40.7976 289.576 42.5636 291.185 45.672 291.026ZM40.1647 301.268L39.9727 297.528L52.0076 296.91L52.2073 300.8C52.3875 304.307 50.2335 306.501 46.4933 306.693C42.7366 306.886 40.3526 304.925 40.1647 301.268ZM41.3793 298.956L41.4894 301.1C41.6414 304.059 43.4926 305.381 46.4182 305.231C49.3272 305.081 51.0167 303.578 50.8724 300.768L50.7546 298.475L41.3793 298.956ZM52.8148 312.629L40.7799 313.247L40.7031 311.751L52.738 311.133L52.8148 312.629ZM41.075 318.992L40.9947 317.429L53.2558 321.216L53.337 322.795L41.5283 327.818L41.4472 326.239L44.7768 324.868L44.5283 320.031L41.075 318.992ZM45.8646 320.412L46.0661 324.335L51.3537 322.147L51.3485 322.047L45.8646 320.412ZM41.7431 332.001L53.778 331.383L53.988 335.472C54.1331 338.298 52.6363 339.658 50.492 339.768C48.9045 339.849 47.6128 339.199 47.0023 337.697L42.1879 340.661L42.0982 338.916L46.6569 336.165C46.6352 336.066 46.6301 335.966 46.6249 335.867L46.4909 333.257L41.8199 333.497L41.7431 332.001ZM47.854 333.187L47.9846 335.73C48.0828 337.642 48.9864 338.362 50.416 338.288C51.8622 338.214 52.7538 337.402 52.6548 335.474L52.525 332.947L47.854 333.187ZM54.3667 342.846L54.4546 344.558L49.0393 348.153L49.0469 348.302L54.8021 351.323L54.8909 353.052L47.5693 349.061L42.6323 349.315L42.5546 347.802L47.4916 347.549L54.3667 342.846Z" fill="black"/>
<path d="M56.885 411.926L56.9772 413.721L47.2783 418.286L47.286 418.436L57.4015 421.983L57.4937 423.778L45.4588 424.396L45.3862 422.983L54.4789 422.516L54.4729 422.4L45.1882 419.127L45.1199 417.797L54.0204 413.59L54.0153 413.49L44.9227 413.957L44.8501 412.544L56.885 411.926ZM52.2664 439.473C48.4598 439.669 45.9675 437.547 45.8096 434.472C45.6508 431.38 47.9134 429.03 51.7201 428.835C55.5267 428.639 58.0181 430.745 58.1769 433.836C58.3349 436.912 56.073 439.278 52.2664 439.473ZM52.1922 438.027C55.3006 437.867 56.8924 436.086 56.7806 433.908C56.6688 431.731 54.9028 430.121 51.7943 430.281C48.6859 430.441 47.094 432.222 47.2059 434.4C47.3177 436.577 49.0837 438.187 52.1922 438.027ZM53.0327 454.394C49.2261 454.589 46.7338 452.467 46.5759 449.392C46.4171 446.3 48.6797 443.951 52.4863 443.755C56.293 443.56 58.7844 445.665 58.9432 448.757C59.1011 451.832 56.8393 454.198 53.0327 454.394ZM52.9584 452.948C56.0669 452.788 57.6587 451.006 57.5469 448.829C57.4351 446.651 55.6691 445.042 52.5606 445.202C49.4522 445.361 47.8603 447.143 47.9722 449.32C48.084 451.498 49.85 453.107 52.9584 452.948ZM47.4512 463.191L47.2591 459.45L59.294 458.832L59.4938 462.722C59.6739 466.229 57.5199 468.423 53.7798 468.616C50.023 468.808 47.639 466.848 47.4512 463.191ZM48.6657 460.878L48.7759 463.023C48.9278 465.981 50.779 467.303 53.7047 467.153C56.6136 467.003 58.3031 465.5 58.1588 462.691L58.041 460.397L48.6657 460.878ZM60.1013 474.551L48.0664 475.169L47.9895 473.673L60.0244 473.055L60.1013 474.551ZM48.3614 480.914L48.2812 479.351L60.5423 483.138L60.6234 484.717L48.8147 489.74L48.7336 488.161L52.0632 486.79L51.8148 481.953L48.3614 480.914ZM53.151 482.334L53.3525 486.257L58.6401 484.069L58.635 483.969L53.151 482.334ZM49.0295 493.923L61.0644 493.305L61.2744 497.394C61.4196 500.22 59.9227 501.58 57.7784 501.69C56.1909 501.772 54.8992 501.121 54.2887 499.619L49.4743 502.583L49.3847 500.838L53.9434 498.087C53.9216 497.988 53.9165 497.888 53.9114 497.789L53.7773 495.179L49.1063 495.419L49.0295 493.923ZM55.1404 495.109L55.271 497.652C55.3692 499.564 56.2729 500.284 57.7024 500.211C59.1486 500.136 60.0402 499.324 59.9412 497.396L59.8114 494.869L55.1404 495.109ZM61.6531 504.768L61.7411 506.48L56.3257 510.075L56.3334 510.224L62.0885 513.245L62.1773 514.974L54.8557 510.983L49.9187 511.237L49.8411 509.724L54.778 509.471L61.6531 504.768Z" fill="black"/>
</svg>
