<svg width="101" height="608" viewBox="0 0 101 608" fill="none" xmlns="http://www.w3.org/2000/svg">
<rect x="0.5" y="0.5" width="99.9874" height="606.751" fill="#F4F4E8" stroke="black" stroke-linejoin="round"/>
<path d="M53.5528 387.638H52.021V385.085H42V383.234H52.021V381.383H53.5528V383.234H55.1273C56.9996 383.234 58.1272 384.489 58.1272 386.532C58.1272 386.979 58.0634 387.51 57.9995 387.893H56.3613C56.4251 387.51 56.4464 387.17 56.4464 386.936C56.4464 385.659 55.9145 385.085 54.723 385.085H53.5528V387.638ZM57.4038 394.906H42V393.076H57.4038V394.906ZM41.766 405.812C41.766 402.663 44.1276 400.536 47.7232 400.536C51.3189 400.536 53.7018 402.663 53.7018 405.812C53.7018 408.94 51.3189 411.046 47.7232 411.046C44.1276 411.046 41.766 408.94 41.766 405.812ZM43.3829 405.812C43.3829 408.131 45.4254 409.216 47.7232 409.216C50.021 409.216 52.0848 408.131 52.0848 405.812C52.0848 403.45 50.021 402.365 47.7232 402.365C45.4254 402.365 43.3829 403.45 43.3829 405.812ZM42 418.931L53.5528 415.42V417.356L44.7446 419.824V419.931L53.5528 422.377L53.5528 424.335L44.7872 426.739V426.867L53.5528 429.335V431.25L42 427.739V425.931L50.8082 423.42V423.25L42 420.761L42 418.931ZM41.766 441.007C41.766 437.666 44.1276 435.603 47.6807 435.603C51.2338 435.603 53.7018 437.688 53.7018 440.837C53.7018 443.262 52.2125 445.815 47.936 445.815H47.1701V437.432C44.7233 437.517 43.3829 438.943 43.3829 441.007C43.3829 442.39 43.9787 443.262 44.702 443.687V445.645C42.9574 445.092 41.766 443.39 41.766 441.007ZM48.7232 437.454V443.964C50.6593 443.964 52.0848 442.73 52.0848 440.837C52.0848 438.837 50.5104 437.56 48.7232 437.454ZM42 451.466H53.5528V453.232H51.7869V453.36C52.9571 453.785 53.7443 454.977 53.7443 456.338C53.7443 456.615 53.7231 457.083 53.7018 457.296H51.8508C51.8933 457.168 51.9784 456.657 51.9784 456.189C51.9784 454.53 50.8295 453.296 49.2764 453.296H42V451.466ZM49.4253 477.704H47.7445V470.959H49.4253V477.704ZM53.5528 497.686H52.021V495.133H42V493.282H52.021V491.431H53.5528V493.282H55.1273C56.9996 493.282 58.1272 494.537 58.1272 496.58C58.1272 497.026 58.0634 497.558 57.9995 497.941H56.3613C56.4251 497.558 56.4464 497.218 56.4464 496.984C56.4464 495.707 55.9145 495.133 54.723 495.133H53.5528V497.686ZM57.4038 504.954H42V503.124H57.4038V504.954ZM41.766 515.86C41.766 512.711 44.1276 510.583 47.7232 510.583C51.3189 510.583 53.7018 512.711 53.7018 515.86C53.7018 518.987 51.3189 521.094 47.7232 521.094C44.1276 521.094 41.766 518.987 41.766 515.86ZM43.3829 515.86C43.3829 518.179 45.4254 519.264 47.7232 519.264C50.021 519.264 52.0848 518.179 52.0848 515.86C52.0848 513.498 50.021 512.413 47.7232 512.413C45.4254 512.413 43.3829 513.498 43.3829 515.86ZM42 528.979L53.5528 525.468V527.404L44.7446 529.872V529.979L53.5528 532.425V534.383L44.7872 536.787V536.915L53.5528 539.383V541.297L42 537.787V535.978L50.8082 533.468V533.298L42 530.808V528.979ZM41.766 551.055C41.766 547.714 44.1276 545.65 47.6807 545.65C51.2338 545.65 53.7018 547.735 53.7018 550.884C53.7018 553.31 52.2125 555.863 47.936 555.863H47.1701L47.1701 547.48C44.7233 547.565 43.3829 548.991 43.3829 551.055C43.3829 552.437 43.9787 553.31 44.702 553.735V555.693C42.9574 555.14 41.766 553.437 41.766 551.055ZM48.7232 547.501L48.7232 554.012C50.6593 554.012 52.0848 552.778 52.0848 550.884C52.0848 548.884 50.5104 547.608 48.7232 547.501ZM42 561.514H53.5528V563.28H51.7869V563.407C52.9571 563.833 53.7443 565.024 53.7443 566.386C53.7443 566.663 53.7231 567.131 53.7018 567.343H51.8508C51.8933 567.216 51.9784 566.705 51.9784 566.237C51.9784 564.578 50.8295 563.344 49.2764 563.344H42V561.514ZM49.4253 587.751H47.7445L47.7445 581.007H49.4253L49.4253 587.751Z" fill="black"/>
<mask id="path-3-outside-1_2920_68" maskUnits="userSpaceOnUse" x="30" y="25" width="41" height="246" fill="black">
<rect fill="white" x="30" y="25" width="41" height="246"/>
<path d="M32 26.0901L68.6757 26.0901V50.2535H62.3942L62.3942 33.6886L53.4786 33.6886L53.4786 48.6831H47.1971L47.1971 33.6886L32 33.6886V26.0901ZM32 63.0495L68.6757 63.0495V70.648H38.2815V86.453L32 86.453L32 63.0495ZM50.3379 131.264C38.3575 131.264 31.4934 123.843 31.4934 114.142C31.4934 104.365 38.4081 96.9694 50.3379 96.9694C62.3182 96.9694 69.1823 104.365 69.1823 114.142C69.1823 123.843 62.3182 131.264 50.3379 131.264ZM50.3379 104.72C42.5113 104.72 38.2561 108.443 38.2308 114.142C38.2561 119.79 42.5113 123.539 50.3379 123.514C58.1897 123.539 62.4196 119.79 62.4449 114.142C62.4196 108.443 58.1897 104.72 50.3379 104.72ZM32 151.406L68.6757 140.919V149.227L43.0432 155.407V155.711L68.6757 162.449V169.591L42.9926 176.329V176.633L68.6757 182.813V191.121L32 180.635V173.188L56.2141 166.197V165.893L32 158.852V151.406ZM32 202.802H68.6757V227.421H62.3942V210.401H53.4786V226.155H47.1971L47.1971 210.401H38.2815L38.2815 227.472H32L32 202.802ZM32 241.129H68.6757V255.516C68.6757 263.849 63.9899 268.636 56.7206 268.636C51.7056 268.636 48.0583 266.331 46.26 262.152L32 269.953V261.544L45.0189 254.528V248.728H32V241.129ZM51.199 248.728V254.097C51.199 258.606 53.048 260.81 56.7206 260.784C60.4186 260.81 62.4196 258.606 62.4449 254.097V248.728H51.199Z"/>
</mask>
<path d="M32 26.0901V25.0901C31.4477 25.0901 31 25.5378 31 26.0901H32ZM68.6757 26.0901H69.6757C69.6757 25.5378 69.228 25.0901 68.6757 25.0901V26.0901ZM68.6757 50.2535V51.2535C69.228 51.2535 69.6757 50.8058 69.6757 50.2535H68.6757ZM62.3942 50.2535H61.3942C61.3942 50.8058 61.8419 51.2535 62.3942 51.2535V50.2535ZM62.3942 33.6886H63.3942C63.3942 33.1364 62.9465 32.6886 62.3942 32.6886V33.6886ZM53.4786 33.6886V32.6886C52.9263 32.6886 52.4786 33.1364 52.4786 33.6886H53.4786ZM53.4786 48.6831V49.6831C54.0309 49.6831 54.4786 49.2354 54.4786 48.6831H53.4786ZM47.1971 48.6831H46.1971C46.1971 49.2354 46.6448 49.6831 47.1971 49.6831V48.6831ZM47.1971 33.6886H48.1971C48.1971 33.1364 47.7494 32.6886 47.1971 32.6886V33.6886ZM32 33.6886H31C31 34.2409 31.4477 34.6886 32 34.6886V33.6886ZM32 26.0901V27.0901L68.6757 27.0901V26.0901V25.0901L32 25.0901V26.0901ZM68.6757 26.0901H67.6757V50.2535H68.6757H69.6757V26.0901H68.6757ZM68.6757 50.2535V49.2535H62.3942V50.2535V51.2535H68.6757V50.2535ZM62.3942 50.2535H63.3942L63.3942 33.6886H62.3942L61.3942 33.6886L61.3942 50.2535H62.3942ZM62.3942 33.6886V32.6886L53.4786 32.6886V33.6886V34.6886L62.3942 34.6886V33.6886ZM53.4786 33.6886H52.4786L52.4786 48.6831H53.4786H54.4786L54.4786 33.6886H53.4786ZM53.4786 48.6831V47.6831H47.1971V48.6831V49.6831H53.4786V48.6831ZM47.1971 48.6831H48.1971L48.1971 33.6886H47.1971H46.1971L46.1971 48.6831H47.1971ZM47.1971 33.6886V32.6886L32 32.6886V33.6886V34.6886L47.1971 34.6886V33.6886ZM32 33.6886H33V26.0901H32H31V33.6886H32ZM32 63.0495V62.0495C31.4477 62.0495 31 62.4972 31 63.0495H32ZM68.6757 63.0495H69.6757C69.6757 62.4972 69.228 62.0495 68.6757 62.0495V63.0495ZM68.6757 70.648V71.648C69.228 71.648 69.6757 71.2003 69.6757 70.648H68.6757ZM38.2815 70.648V69.648C37.7292 69.648 37.2815 70.0957 37.2815 70.648H38.2815ZM38.2815 86.453V87.453C38.8338 87.453 39.2815 87.0053 39.2815 86.453H38.2815ZM32 86.453H31C31 87.0053 31.4477 87.453 32 87.453V86.453ZM32 63.0495V64.0495L68.6757 64.0495V63.0495V62.0495L32 62.0495V63.0495ZM68.6757 63.0495H67.6757V70.648H68.6757H69.6757V63.0495H68.6757ZM68.6757 70.648V69.648H38.2815V70.648V71.648H68.6757V70.648ZM38.2815 70.648H37.2815V86.453H38.2815H39.2815V70.648H38.2815ZM38.2815 86.453V85.453L32 85.453V86.453V87.453H38.2815V86.453ZM32 86.453H33L33 63.0495H32H31L31 86.453H32ZM38.2308 114.142L37.2308 114.138L37.2308 114.147L38.2308 114.142ZM50.3379 123.514L50.3411 122.514L50.3346 122.514L50.3379 123.514ZM62.4449 114.142L63.4449 114.147L63.4449 114.138L62.4449 114.142ZM50.3379 131.264V130.264C44.5569 130.264 40.1091 128.478 37.1135 125.618C34.1191 122.759 32.4934 118.75 32.4934 114.142H31.4934H30.4934C30.4934 119.235 32.2998 123.787 35.7325 127.064C39.164 130.34 44.1384 132.264 50.3379 132.264V131.264ZM31.4934 114.142H32.4934C32.4934 109.496 34.1316 105.475 37.1322 102.613C40.1342 99.7499 44.5823 97.9694 50.3379 97.9694V96.9694V95.9694C44.1637 95.9694 39.1896 97.887 35.7518 101.166C32.3126 104.446 30.4934 109.011 30.4934 114.142H31.4934ZM50.3379 96.9694V97.9694C56.1197 97.9694 60.567 99.7504 63.5618 102.612C66.5554 105.473 68.1823 109.494 68.1823 114.142H69.1823H70.1823C70.1823 109.014 68.3772 104.448 64.9436 101.167C61.5113 97.8864 56.5364 95.9694 50.3379 95.9694V96.9694ZM69.1823 114.142H68.1823C68.1823 118.75 66.5566 122.759 63.5622 125.618C60.5666 128.478 56.1188 130.264 50.3379 130.264V131.264V132.264C56.5373 132.264 61.5117 130.34 64.9432 127.064C68.3759 123.787 70.1823 119.235 70.1823 114.142H69.1823ZM50.3379 104.72V103.72C46.2793 103.72 43.0106 104.684 40.7326 106.514C38.4283 108.366 37.2447 111.019 37.2308 114.138L38.2308 114.142L39.2308 114.147C39.2423 111.567 40.1989 109.509 41.9852 108.074C43.7978 106.617 46.5699 105.72 50.3379 105.72V104.72ZM38.2308 114.142L37.2308 114.147C37.2447 117.242 38.4299 119.889 40.7333 121.736C43.0113 123.562 46.2804 124.527 50.3411 124.514L50.3379 123.514L50.3346 122.514C46.5688 122.526 43.797 121.629 41.9845 120.175C40.1973 118.742 39.2423 116.69 39.2308 114.138L38.2308 114.142ZM50.3379 123.514L50.3346 124.514C54.4073 124.527 57.677 123.563 59.9525 121.735C62.2535 119.887 63.431 117.24 63.4449 114.147L62.4449 114.142L61.4449 114.138C61.4334 116.692 60.4834 118.744 58.7001 120.176C56.8914 121.628 54.1203 122.526 50.3411 122.514L50.3379 123.514ZM62.4449 114.142L63.4449 114.138C63.431 111.021 62.2551 108.367 59.9532 106.515C57.6778 104.684 54.4083 103.72 50.3379 103.72V104.72V105.72C54.1192 105.72 56.8906 106.618 58.6994 108.073C60.4818 109.507 61.4334 111.565 61.4449 114.147L62.4449 114.142ZM32 151.406L31.7251 150.444C31.2959 150.567 31 150.959 31 151.406H32ZM68.6757 140.919H69.6757C69.6757 140.606 69.5284 140.31 69.2778 140.121C69.0273 139.932 68.7025 139.872 68.4008 139.958L68.6757 140.919ZM68.6757 149.227L68.9101 150.199C69.3592 150.091 69.6757 149.689 69.6757 149.227H68.6757ZM43.0432 155.407L42.8088 154.435C42.3597 154.544 42.0432 154.945 42.0432 155.407H43.0432ZM43.0432 155.711H42.0432C42.0432 156.166 42.3496 156.563 42.789 156.679L43.0432 155.711ZM68.6757 162.449H69.6757C69.6757 161.994 69.3694 161.597 68.9299 161.482L68.6757 162.449ZM68.6757 169.591L68.9295 170.559C69.3691 170.443 69.6757 170.046 69.6757 169.591H68.6757ZM42.9926 176.329L42.7388 175.362C42.2992 175.477 41.9926 175.874 41.9926 176.329H42.9926ZM42.9926 176.633H41.9926C41.9926 177.095 42.3093 177.497 42.7586 177.605L42.9926 176.633ZM68.6757 182.813H69.6757C69.6757 182.351 69.359 181.949 68.9097 181.841L68.6757 182.813ZM68.6757 191.121L68.4008 192.082C68.7025 192.168 69.0273 192.108 69.2778 191.919C69.5284 191.73 69.6757 191.434 69.6757 191.121H68.6757ZM32 180.635H31C31 181.081 31.2959 181.473 31.7251 181.596L32 180.635ZM32 173.188L31.7226 172.227C31.2946 172.351 31 172.743 31 173.188H32ZM56.2141 166.197L56.4914 167.158C56.9194 167.035 57.2141 166.643 57.2141 166.197H56.2141ZM56.2141 165.893H57.2141C57.2141 165.449 56.9204 165.057 56.4933 164.933L56.2141 165.893ZM32 158.852H31C31 159.297 31.2937 159.688 31.7208 159.812L32 158.852ZM32 151.406L32.2749 152.367L68.9506 141.881L68.6757 140.919L68.4008 139.958L31.7251 150.444L32 151.406ZM68.6757 140.919H67.6757V149.227H68.6757H69.6757V140.919H68.6757ZM68.6757 149.227L68.4413 148.255L42.8088 154.435L43.0432 155.407L43.2776 156.38L68.9101 150.199L68.6757 149.227ZM43.0432 155.407H42.0432V155.711H43.0432H44.0432V155.407H43.0432ZM43.0432 155.711L42.789 156.679L68.4215 163.416L68.6757 162.449L68.9299 161.482L43.2974 154.744L43.0432 155.711ZM68.6757 162.449H67.6757V169.591H68.6757H69.6757V162.449H68.6757ZM68.6757 169.591L68.422 168.624L42.7388 175.362L42.9926 176.329L43.2463 177.296L68.9295 170.559L68.6757 169.591ZM42.9926 176.329H41.9926V176.633H42.9926H43.9926V176.329H42.9926ZM42.9926 176.633L42.7586 177.605L68.4418 183.785L68.6757 182.813L68.9097 181.841L43.2265 175.66L42.9926 176.633ZM68.6757 182.813H67.6757V191.121H68.6757H69.6757V182.813H68.6757ZM68.6757 191.121L68.9506 190.159L32.2749 179.673L32 180.635L31.7251 181.596L68.4008 192.082L68.6757 191.121ZM32 180.635H33V173.188H32H31V180.635H32ZM32 173.188L32.2774 174.149L56.4914 167.158L56.2141 166.197L55.9367 165.237L31.7226 172.227L32 173.188ZM56.2141 166.197H57.2141V165.893H56.2141H55.2141V166.197H56.2141ZM56.2141 165.893L56.4933 164.933L32.2792 157.892L32 158.852L31.7208 159.812L55.9348 166.854L56.2141 165.893ZM32 158.852H33V151.406H32H31V158.852H32ZM32 202.802V201.802C31.4477 201.802 31 202.25 31 202.802H32ZM68.6757 202.802H69.6757C69.6757 202.25 69.228 201.802 68.6757 201.802V202.802ZM68.6757 227.421V228.421C69.228 228.421 69.6757 227.974 69.6757 227.421H68.6757ZM62.3942 227.421H61.3942C61.3942 227.974 61.8419 228.421 62.3942 228.421V227.421ZM62.3942 210.401H63.3942C63.3942 209.848 62.9465 209.401 62.3942 209.401V210.401ZM53.4786 210.401V209.401C52.9263 209.401 52.4786 209.848 52.4786 210.401H53.4786ZM53.4786 226.155V227.155C54.0309 227.155 54.4786 226.707 54.4786 226.155H53.4786ZM47.1971 226.155H46.1971C46.1971 226.707 46.6448 227.155 47.1971 227.155V226.155ZM47.1971 210.401H48.1971C48.1971 209.848 47.7494 209.401 47.1971 209.401V210.401ZM38.2815 210.401V209.401C37.7292 209.401 37.2815 209.848 37.2815 210.401H38.2815ZM38.2815 227.472V228.472C38.8338 228.472 39.2815 228.024 39.2815 227.472H38.2815ZM32 227.472H31C31 228.024 31.4477 228.472 32 228.472V227.472ZM32 202.802V203.802H68.6757V202.802V201.802H32V202.802ZM68.6757 202.802H67.6757V227.421H68.6757H69.6757V202.802H68.6757ZM68.6757 227.421V226.421H62.3942V227.421V228.421H68.6757V227.421ZM62.3942 227.421H63.3942V210.401H62.3942H61.3942V227.421H62.3942ZM62.3942 210.401V209.401H53.4786V210.401V211.401H62.3942V210.401ZM53.4786 210.401H52.4786V226.155H53.4786H54.4786V210.401H53.4786ZM53.4786 226.155V225.155H47.1971V226.155V227.155H53.4786V226.155ZM47.1971 226.155H48.1971L48.1971 210.401H47.1971H46.1971L46.1971 226.155H47.1971ZM47.1971 210.401V209.401H38.2815V210.401V211.401H47.1971V210.401ZM38.2815 210.401H37.2815L37.2815 227.472H38.2815H39.2815L39.2815 210.401H38.2815ZM38.2815 227.472V226.472H32V227.472V228.472H38.2815V227.472ZM32 227.472H33L33 202.802H32H31L31 227.472H32ZM32 241.129V240.129C31.4477 240.129 31 240.577 31 241.129H32ZM68.6757 241.129H69.6757C69.6757 240.577 69.228 240.129 68.6757 240.129V241.129ZM46.26 262.152L47.1785 261.757C47.0672 261.498 46.852 261.298 46.5858 261.207C46.3196 261.115 46.0271 261.14 45.78 261.275L46.26 262.152ZM32 269.953H31C31 270.306 31.1863 270.633 31.4901 270.813C31.7939 270.993 32.1701 271 32.4799 270.83L32 269.953ZM32 261.544L31.5256 260.664C31.2019 260.838 31 261.176 31 261.544H32ZM45.0189 254.528L45.4933 255.408C45.817 255.234 46.0189 254.896 46.0189 254.528H45.0189ZM45.0189 248.728H46.0189C46.0189 248.176 45.5711 247.728 45.0189 247.728V248.728ZM32 248.728H31C31 249.28 31.4477 249.728 32 249.728V248.728ZM51.199 248.728L51.199 247.728C50.6467 247.728 50.199 248.176 50.199 248.728H51.199ZM56.7206 260.784L56.7275 259.784L56.7137 259.784L56.7206 260.784ZM62.4449 254.097L63.4449 254.103V254.097H62.4449ZM62.4449 248.728H63.4449C63.4449 248.176 62.9972 247.728 62.4449 247.728L62.4449 248.728ZM32 241.129V242.129H68.6757V241.129V240.129H32V241.129ZM68.6757 241.129H67.6757V255.516H68.6757H69.6757V241.129H68.6757ZM68.6757 255.516H67.6757C67.6757 259.499 66.5579 262.512 64.6916 264.52C62.8329 266.52 60.1285 267.636 56.7206 267.636V268.636V269.636C60.5821 269.636 63.8552 268.358 66.1567 265.882C68.4506 263.413 69.6757 259.866 69.6757 255.516H68.6757ZM56.7206 268.636V267.636C52.0643 267.636 48.8034 265.533 47.1785 261.757L46.26 262.152L45.3414 262.547C47.3131 267.129 51.3469 269.636 56.7206 269.636V268.636ZM46.26 262.152L45.78 261.275L31.5201 269.076L32 269.953L32.4799 270.83L46.7399 263.029L46.26 262.152ZM32 269.953H33V261.544H32H31V269.953H32ZM32 261.544L32.4744 262.424L45.4933 255.408L45.0189 254.528L44.5445 253.648L31.5256 260.664L32 261.544ZM45.0189 254.528H46.0189V248.728H45.0189H44.0189V254.528H45.0189ZM45.0189 248.728V247.728H32V248.728V249.728H45.0189V248.728ZM32 248.728H33V241.129H32H31V248.728H32ZM51.199 248.728H50.199V254.097H51.199H52.199V248.728H51.199ZM51.199 254.097H50.199C50.199 256.462 50.6797 258.413 51.8128 259.779C52.9772 261.184 54.6826 261.798 56.7275 261.784L56.7206 260.784L56.7137 259.784C55.0861 259.795 54.0306 259.321 53.3524 258.503C52.6428 257.647 52.199 256.241 52.199 254.097H51.199ZM56.7206 260.784L56.7138 261.784C58.7681 261.798 60.5074 261.187 61.7148 259.797C62.8982 258.435 63.4315 256.483 63.4449 254.103L62.4449 254.097L61.4449 254.092C61.433 256.22 60.9531 257.624 60.2052 258.485C59.4813 259.318 58.3711 259.795 56.7275 259.784L56.7206 260.784ZM62.4449 254.097H63.4449V248.728H62.4449H61.4449V254.097H62.4449ZM62.4449 248.728L62.4449 247.728H51.199L51.199 248.728V249.728H62.4449V248.728Z" fill="black" mask="url(#path-3-outside-1_2920_68)"/>
</svg>
