<svg width="79" height="464" viewBox="0 0 79 464" fill="none" xmlns="http://www.w3.org/2000/svg">
<path d="M0.5 7.5V463.5H34.5V7.5H0.5Z" fill="#D2BEBF" stroke="black" stroke-linejoin="round"/>
<path d="M34.5 7.42285V462.165L77.998 388.36L72.5088 1.08789L34.5 7.42285Z" fill="#D2BEBF" stroke="black" stroke-linejoin="round"/>
<path d="M19.4607 37.9045C21.2274 37.3155 22.3482 35.9667 22.3482 34.01C22.3482 31.5783 20.4295 29.6406 16.877 29.6406C13.3245 29.6406 11.4058 31.5783 11.4058 34.124C11.4058 36.4512 12.9636 38.0374 15.3952 38.0754L15.3952 34.4849L16.896 34.4849L16.896 39.7472L15.4142 39.7472C11.9947 39.7472 9.81003 37.3915 9.81003 34.124C9.81003 30.4575 12.5266 27.9879 16.877 27.9879C21.2274 27.9879 23.944 30.4765 23.944 34.01C23.944 36.9166 22.1203 39.1583 19.4607 39.6712L19.4607 37.9045ZM10 45.4008L10 43.615L23.754 48.6493L23.754 50.4541L10 55.4884L10 53.6836L13.8754 52.3158L13.8754 46.7876L10 45.4008ZM15.3762 47.3005L15.3762 51.7839L21.5314 49.5992L21.5314 49.4852L15.3762 47.3005ZM10 60.2681L23.754 60.2681L23.754 64.9414C23.754 68.1709 21.9683 69.6337 19.5176 69.6337C17.7034 69.6337 16.2691 68.8169 15.6612 67.0691L10 70.1657L10 68.1709L15.3572 65.3024C15.3382 65.1884 15.3382 65.0744 15.3382 64.9604L15.3382 61.9778L10 61.9778L10 60.2681ZM16.896 61.9778L16.896 64.8844C16.896 67.0691 17.8839 67.943 19.5176 67.943C21.1704 67.943 22.2343 67.0691 22.2343 64.8654L22.2343 61.9778L16.896 61.9778ZM10 79.2958L10 75.0214L23.754 75.0214L23.754 79.4667C23.754 83.4752 21.1704 85.8498 16.896 85.8498C12.6026 85.8498 10 83.4752 10 79.2958ZM11.5198 76.7311L11.5198 79.1818C11.5198 82.5633 13.5525 84.1781 16.896 84.1781C20.2205 84.1781 22.2343 82.5633 22.2343 79.3528L22.2343 76.7311L11.5198 76.7311ZM10 91.2755L23.754 91.2755L23.754 99.6153L22.2343 99.6153L22.2343 92.9852L17.6369 92.9852L17.6369 99.1783L16.1361 99.1783L16.1361 92.9852L11.5198 92.9852L11.5198 99.7103L10 99.7103L10 91.2755ZM23.754 116.154L10 116.154L10 114.521L20.7145 107.074L20.7145 106.941L10 106.941L10 105.231L23.754 105.231L23.754 106.884L13.0206 114.331L13.0206 114.464L23.754 114.464L23.754 116.154ZM19.4607 139.297C21.2274 138.708 22.3482 137.359 22.3482 135.402C22.3482 132.971 20.4295 131.033 16.877 131.033C13.3245 131.033 11.4058 132.971 11.4058 135.516C11.4058 137.844 12.9636 139.43 15.3952 139.468L15.3952 135.877L16.896 135.877L16.896 141.14L15.4142 141.14C11.9947 141.14 9.81002 138.784 9.81002 135.516C9.81002 131.85 12.5266 129.38 16.877 129.38C21.2274 129.38 23.944 131.869 23.944 135.402C23.944 138.309 22.1203 140.551 19.4607 141.064L19.4607 139.297ZM9.99999 146.793L9.99999 145.007L23.754 150.042L23.754 151.846L9.99999 156.881L9.99999 155.076L13.8754 153.708L13.8754 148.18L9.99999 146.793ZM15.3762 148.693L15.3762 153.176L21.5314 150.992L21.5314 150.878L15.3762 148.693ZM9.99999 161.66L23.754 161.66L23.754 166.334C23.754 169.563 21.9683 171.026 19.5176 171.026C17.7034 171.026 16.2691 170.209 15.6612 168.462L9.99999 171.558L9.99999 169.563L15.3572 166.695C15.3382 166.581 15.3382 166.467 15.3382 166.353L15.3382 163.37L9.99999 163.37L9.99999 161.66ZM16.896 163.37L16.896 166.277C16.896 168.462 17.8839 169.335 19.5176 169.335C21.1704 169.335 22.2343 168.462 22.2343 166.258L22.2343 163.37L16.896 163.37ZM9.99999 180.688L9.99999 176.414L23.754 176.414L23.754 180.859C23.754 184.868 21.1704 187.242 16.896 187.242C12.6026 187.242 9.99999 184.868 9.99999 180.688ZM11.5198 178.124L11.5198 180.574C11.5198 183.956 13.5525 185.57 16.896 185.57C20.2205 185.57 22.2343 183.956 22.2343 180.745L22.2343 178.124L11.5198 178.124ZM9.99999 192.668L23.754 192.668L23.754 201.008L22.2343 201.008L22.2343 194.378L17.6369 194.378L17.6369 200.571L16.1361 200.571L16.1361 194.378L11.5198 194.378L11.5198 201.103L9.99999 201.103L9.99999 192.668ZM23.754 217.547L9.99999 217.547L9.99999 215.913L20.7145 208.466L20.7145 208.333L9.99999 208.333L9.99999 206.623L23.754 206.623L23.754 208.276L13.0206 215.723L13.0206 215.856L23.754 215.856L23.754 217.547Z" fill="black"/>
<path d="M16.8378 243.33L15.4029 243.33L15.4029 238.875L16.8378 238.875L16.8378 243.33ZM16.8378 251.633L15.4029 251.633L15.4029 247.178L16.8378 247.178L16.8378 251.633ZM16.8378 259.937L15.4029 259.937L15.4029 255.482L16.8378 255.482L16.8378 259.937ZM16.8378 268.24L15.4029 268.24L15.4029 263.785L16.8378 263.785L16.8378 268.24ZM16.8378 276.544L15.4029 276.544L15.4029 272.089L16.8378 272.089L16.8378 276.544ZM16.8378 284.847L15.4029 284.847L15.4029 280.392L16.8378 280.392L16.8378 284.847ZM16.8378 293.151L15.4029 293.151L15.4029 288.696L16.8378 288.696L16.8378 293.151ZM16.8378 301.454L15.4029 301.454L15.4029 296.999L16.8378 296.999L16.8378 301.454ZM16.8378 309.758L15.4029 309.758L15.4029 305.303L16.8378 305.303L16.8378 309.758ZM16.8378 318.061L15.4029 318.061L15.4029 313.606L16.8378 313.606L16.8378 318.061ZM16.8378 326.365L15.4029 326.365L15.4029 321.91L16.8378 321.91L16.8378 326.365ZM16.8378 334.668L15.4029 334.668L15.4029 330.213L16.8378 330.213L16.8378 334.668ZM16.8378 342.972L15.4029 342.972L15.4029 338.517L16.8378 338.517L16.8378 342.972ZM16.8378 351.275L15.4029 351.275L15.4029 346.82L16.8378 346.82L16.8378 351.275ZM16.8378 359.579L15.4029 359.579L15.4029 355.124L16.8378 355.124L16.8378 359.579ZM16.8378 367.883L15.4029 367.883L15.4029 363.427L16.8378 363.427L16.8378 367.883ZM16.8378 376.186L15.4029 376.186L15.4029 371.731L16.8378 371.731L16.8378 376.186ZM16.8378 384.49L15.4029 384.49L15.4029 380.034L16.8378 380.034L16.8378 384.49ZM16.8378 392.793L15.4029 392.793L15.4029 388.338L16.8378 388.338L16.8378 392.793ZM16.8378 401.097L15.4028 401.097L15.4029 396.641L16.8378 396.641L16.8378 401.097ZM16.8378 409.4L15.4028 409.4L15.4028 404.945L16.8378 404.945L16.8378 409.4ZM16.8378 417.704L15.4028 417.704L15.4028 413.248L16.8378 413.248L16.8378 417.704ZM16.8378 426.007L15.4028 426.007L15.4028 421.552L16.8378 421.552L16.8378 426.007ZM16.8378 434.311L15.4028 434.311L15.4028 429.855L16.8378 429.855L16.8378 434.311ZM16.8378 442.614L15.4028 442.614L15.4028 438.159L16.8378 438.159L16.8378 442.614ZM16.8378 450.918L15.4028 450.918L15.4028 446.463L16.8378 446.463L16.8378 450.918Z" fill="black"/>
</svg>
