<svg width="75" height="74" viewBox="0 0 75 74" fill="none" xmlns="http://www.w3.org/2000/svg">
<path d="M49.8441 40.7806C60.5746 43.5807 74.3487 45.4697 73.9933 36.4471C73.7044 29.0024 60.3968 30.7358 49.9329 33.247C49.6886 32.447 49.3775 31.6692 48.9999 30.9358C58.5973 25.3356 69.7944 16.8686 63.1295 10.7128C57.6198 5.6459 49.3997 16.3797 43.779 25.6022C43.268 25.3356 42.7571 25.0689 42.2017 24.8689C41.9795 24.78 41.7351 24.7133 41.4907 24.6466C44.3122 13.8907 46.245 0.00121865 37.1808 0.356788C29.7161 0.645689 31.4712 14.0684 34.0038 24.5355C33.1374 24.78 32.3154 25.1133 31.5156 25.5356C26.0504 16.2463 17.9858 5.40143 12.4095 10.4016C5.65575 16.4685 16.7195 25.0911 26.2281 30.8247C25.9837 31.2914 25.7393 31.7803 25.5394 32.2914C25.4283 32.5581 25.3617 32.8248 25.2728 33.1137C14.8311 30.4247 1.43464 28.4468 1.01253 35.9138C0.523772 44.9808 14.4312 43.2474 25.2284 40.5806C25.4727 41.3806 25.7838 42.1585 26.1614 42.8918C16.8972 48.3587 6.14451 56.4035 11.121 61.9592C17.1416 68.6928 25.7171 57.7369 31.4712 48.2476C31.9377 48.5143 32.4487 48.7365 32.9596 48.9365C33.2262 49.0476 33.5151 49.1143 33.7817 49.2032C31.1157 59.6258 29.1829 72.9152 36.6253 73.3375C45.6674 73.8264 43.979 60.0036 41.313 49.2254C42.0461 49.0032 42.7571 48.7143 43.4458 48.3587C49.0443 57.9369 57.4643 69.0484 63.596 62.4037C68.6391 56.9368 58.0197 48.7365 48.8443 43.1141C49.1332 42.6029 49.3775 42.0918 49.5997 41.514C49.6886 41.2695 49.7552 41.0251 49.8441 40.8029V40.7806Z" stroke="black" stroke-width="0.5" stroke-miterlimit="10"/>
</svg>
