<svg width="73" height="74" viewBox="0 0 73 74" fill="none" xmlns="http://www.w3.org/2000/svg">
<path d="M36.1904 0.606934C38.388 0.520941 39.8887 1.29086 40.8867 2.63818C41.8969 4.0021 42.4122 5.9854 42.5596 8.35303C42.8541 13.0857 41.6698 19.2199 40.249 24.605L40.1855 24.8452L40.4248 24.9097C40.672 24.9771 40.902 25.041 41.1084 25.1235L41.1172 25.1265C41.6539 25.3198 42.15 25.5784 42.6631 25.8462L42.8711 25.9546L42.9922 25.7544C45.8003 21.1468 49.2462 16.1827 52.666 13.0044C54.3774 11.4139 56.0613 10.291 57.6367 9.86865C59.1936 9.45126 60.6504 9.71441 61.96 10.9185C63.5715 12.4069 64.0849 14.0105 63.8359 15.6675C63.5839 17.3448 62.5452 19.111 60.9756 20.8892C57.8379 24.4435 52.6691 27.9437 47.874 30.7417L47.6689 30.8618L47.7773 31.0728C48.1477 31.7919 48.453 32.5556 48.6934 33.3423L48.7627 33.5669L48.9912 33.5122C54.2189 32.2576 60.1337 31.2034 64.7686 31.3853C67.088 31.4763 69.0582 31.8769 70.458 32.6919C71.8411 33.4973 72.6745 34.7097 72.7432 36.479C72.8291 38.6608 72.0657 40.1522 70.7295 41.146C69.377 42.1519 67.4098 42.6683 65.0596 42.8198C60.3617 43.1226 54.2685 41.9601 48.9072 40.561L48.6934 40.5054L48.6123 40.7104C48.5646 40.8299 48.5233 40.9533 48.4844 41.0728C48.4448 41.1945 48.4068 41.3111 48.3643 41.4282C48.1472 41.9922 47.9092 42.4912 47.627 42.9907L47.5078 43.2007L47.7139 43.3276C52.2976 46.1365 57.2214 49.5773 60.3682 52.9868C61.9429 54.6931 63.0523 56.3704 63.4668 57.938C63.8764 59.4872 63.6105 60.9348 62.4121 62.2339C60.9294 63.8407 59.3338 64.3555 57.6846 64.1118C56.0151 63.8652 54.257 62.836 52.4863 61.2769C48.947 58.1604 45.4583 53.0184 42.6611 48.2329L42.542 48.0278L42.3311 48.1362C41.6557 48.4849 40.9587 48.7681 40.2402 48.9858L40.0137 49.0552L40.0703 49.2856C41.4023 54.6706 42.4819 60.7876 42.1104 65.4868C41.9245 67.8378 41.3773 69.8005 40.3486 71.1401C39.3323 72.4634 37.8253 73.2056 35.6387 73.0874H35.6396C33.8708 72.987 32.67 72.1312 31.8848 70.7319C31.0903 69.316 30.7196 67.3371 30.6631 65.0142C30.5502 60.3724 31.6915 54.4722 33.0234 49.2651L33.0811 49.0396L32.8604 48.9663C32.7224 48.9203 32.5751 48.8782 32.4424 48.8384C32.3056 48.7973 32.1766 48.756 32.0557 48.7056L32.0508 48.7036L31.6729 48.5513C31.2983 48.3946 30.9339 48.224 30.5957 48.0308L30.3838 47.9097L30.2578 48.1177C27.3829 52.8589 23.8167 57.9407 20.2334 60.9966C18.4408 62.5253 16.6696 63.5243 14.999 63.7437C13.4519 63.9467 11.9618 63.4855 10.582 62.0854L10.3076 61.7925L10.0967 61.5435C9.09627 60.2897 8.90475 58.9207 9.30957 57.4722C9.74643 55.909 10.8815 54.2477 12.4824 52.5649C15.6815 49.2023 20.66 45.838 25.2881 43.1069L25.4922 42.9868L25.3838 42.7778C25.0134 42.0587 24.7081 41.2941 24.4678 40.5073L24.3984 40.2808L24.168 40.3384C18.7734 41.6708 12.6301 42.7614 7.90723 42.3979C5.54444 42.2161 3.57142 41.6722 2.22363 40.644C0.892361 39.6285 0.143807 38.1204 0.261719 35.9282C0.362032 34.1537 1.22519 32.9508 2.63477 32.1665C4.0609 31.3731 6.0532 31.0066 8.39062 30.9556C13.0616 30.8536 18.9934 32.0126 24.21 33.356L24.4414 33.4155L24.5117 33.187C24.6056 32.8819 24.6656 32.639 24.7705 32.3872L24.7725 32.3823C24.9672 31.8845 25.206 31.4054 25.4492 30.9409L25.5586 30.7319L25.3574 30.6108C20.6067 27.7462 15.4928 24.1741 12.4102 20.5757C10.8681 18.7756 9.85665 16.9943 9.62988 15.313C9.40598 13.6519 9.94306 12.0545 11.5762 10.5874C12.9017 9.3988 14.3617 9.1541 15.9111 9.59131C17.4788 10.0337 19.1447 11.1782 20.8311 12.7905C24.2012 16.0129 27.5695 21.0218 30.2998 25.6626L30.4209 25.8677L30.6318 25.7563C31.4167 25.342 32.2227 25.0153 33.0713 24.7759L33.3037 24.7104L33.2471 24.4771C31.9818 19.2481 30.9165 13.3032 31.0928 8.63916C31.181 6.30501 31.5799 4.32041 32.3955 2.90967C33.1512 1.60266 34.2664 0.782426 35.8643 0.628418L36.1904 0.606934Z" fill="#F6D2D4" stroke="black" stroke-width="0.5"/>
</svg>
