<svg width="67" height="68" viewBox="0 0 67 68" fill="none" xmlns="http://www.w3.org/2000/svg">
<path d="M42.6543 0.600098C48.6665 0.600098 53.7574 5.81515 55.0176 12.8667L55.0469 13.0337L55.2129 13.0679C61.822 14.4167 66.7274 19.7592 66.7275 26.1343C66.7275 27.0024 66.4798 28.0124 66.0967 29.0503C65.7146 30.0853 65.2039 31.1331 64.6904 32.0718C64.1774 33.0097 63.6636 33.8351 63.2783 34.4263C63.0858 34.7218 62.9255 34.9591 62.8135 35.1216C62.7576 35.2026 62.7133 35.265 62.6836 35.3071C62.6688 35.3281 62.658 35.3444 62.6504 35.355C62.6467 35.3602 62.6435 35.3641 62.6416 35.3667C62.6408 35.3679 62.6401 35.369 62.6396 35.3696L62.6387 35.3706L62.6494 35.3794C62.6334 35.4104 62.6201 35.4427 62.6162 35.4614C62.6143 35.483 62.6154 35.5182 62.6172 35.5327C62.6212 35.5586 62.6282 35.5786 62.6309 35.5854C62.6367 35.6008 62.6431 35.6133 62.6455 35.6177C62.6511 35.6281 62.6579 35.6383 62.6621 35.645C62.6714 35.66 62.6845 35.6796 62.6992 35.7017C62.729 35.7465 62.773 35.8122 62.8281 35.894C62.9393 36.0591 63.0988 36.298 63.291 36.5942C63.6756 37.187 64.1906 38.012 64.7051 38.9487C65.2199 39.886 65.7325 40.9312 66.1162 41.9644C66.501 43.0004 66.7499 44.0086 66.75 44.8765C66.75 51.5534 61.3408 57.1165 54.2451 58.1177L54.1006 58.1382L54.0469 58.2729C51.9721 63.5257 47.6441 67.1001 42.6543 67.1001C39.2978 67.1 36.2557 65.465 33.9688 62.8159L33.7783 62.5952L33.5898 62.8169C31.3261 65.4647 28.2616 67.1001 24.9043 67.1001C19.9585 67.1001 15.6301 63.5475 13.5557 58.3608L13.5 58.2202L13.3496 58.2046C5.96627 57.4428 0.25 51.7702 0.25 44.8989C0.250029 41.3322 1.80335 38.1056 4.30859 35.6968L4.49609 35.5171L4.30859 35.3364C1.80345 32.9276 0.25 29.701 0.25 26.1343C0.250177 19.5872 5.46226 14.1127 12.3594 12.9595L12.5322 12.9302L12.5635 12.7573C13.8456 5.75033 18.9133 0.600098 24.9043 0.600098C28.2609 0.600118 31.3029 2.2352 33.5898 4.88428L33.7803 5.10498L33.9697 4.8833C36.2334 2.23573 39.2972 0.600212 42.6543 0.600098Z" stroke="black" stroke-width="0.5"/>
</svg>
