<svg width="67" height="67" viewBox="0 0 67 67" fill="none" xmlns="http://www.w3.org/2000/svg">
<path d="M42.6543 0.25C48.6665 0.25 53.7574 5.46505 55.0176 12.5166L55.0469 12.6836L55.2129 12.7178C61.822 14.0666 66.7274 19.4091 66.7275 25.7842C66.7275 26.6523 66.4798 27.6623 66.0967 28.7002C65.7146 29.7352 65.2039 30.783 64.6904 31.7217C64.1774 32.6597 63.6636 33.485 63.2783 34.0762C63.0858 34.3717 62.9255 34.609 62.8135 34.7715C62.7576 34.8525 62.7133 34.9149 62.6836 34.957C62.6688 34.978 62.658 34.9943 62.6504 35.0049C62.6467 35.0101 62.6435 35.014 62.6416 35.0166C62.6408 35.0178 62.6401 35.0189 62.6396 35.0195L62.6387 35.0205L62.6494 35.0293C62.6334 35.0603 62.6201 35.0926 62.6162 35.1113C62.6143 35.1329 62.6154 35.1681 62.6172 35.1826C62.6212 35.2085 62.6282 35.2285 62.6309 35.2354C62.6367 35.2507 62.6431 35.2632 62.6455 35.2676C62.6511 35.278 62.6579 35.2882 62.6621 35.2949C62.6714 35.3099 62.6845 35.3295 62.6992 35.3516C62.729 35.3964 62.773 35.4621 62.8281 35.5439C62.9393 35.709 63.0988 35.9479 63.291 36.2441C63.6756 36.8369 64.1906 37.662 64.7051 38.5986C65.2199 39.5359 65.7325 40.5812 66.1162 41.6143C66.501 42.6503 66.7499 43.6585 66.75 44.5264C66.75 51.2033 61.3408 56.7664 54.2451 57.7676L54.1006 57.7881L54.0469 57.9229C51.9721 63.1756 47.6441 66.75 42.6543 66.75C39.2978 66.7499 36.2557 65.1149 33.9688 62.4658L33.7783 62.2451L33.5898 62.4668C31.3261 65.1146 28.2616 66.75 24.9043 66.75C19.9585 66.75 15.6301 63.1974 13.5557 58.0107L13.5 57.8701L13.3496 57.8545C5.96627 57.0927 0.25 51.4201 0.25 44.5488C0.250029 40.9821 1.80335 37.7555 4.30859 35.3467L4.49609 35.167L4.30859 34.9863C1.80345 32.5775 0.25 29.3509 0.25 25.7842C0.250177 19.2371 5.46226 13.7626 12.3594 12.6094L12.5322 12.5801L12.5635 12.4072C13.8456 5.40023 18.9133 0.25 24.9043 0.25C28.2609 0.25002 31.3029 1.88511 33.5898 4.53418L33.7803 4.75488L33.9697 4.5332C36.2334 1.88563 39.2972 0.250114 42.6543 0.25Z" fill="#F1E8B1" stroke="black" stroke-width="0.5"/>
</svg>
