<svg width="68" height="66" viewBox="0 0 68 66" fill="none" xmlns="http://www.w3.org/2000/svg">
<path d="M62.8541 16.5086C58.2133 11.8603 51.893 10.5764 46.4124 15.2026C46.545 14.2508 46.6334 13.3212 46.6334 12.4136C46.6334 4.37865 40.9982 0.350098 34.0149 0.350098C27.0316 0.350098 21.3963 4.37865 21.3963 12.4136C21.3963 13.3212 21.4847 14.2508 21.6173 15.1805C16.1588 10.5764 9.83852 11.8824 5.19772 16.5086C0.269637 21.4447 -0.879514 28.2844 4.79994 33.973C6.65626 35.8324 9.08716 37.4039 11.6948 38.5328C9.63964 40.5914 7.91591 42.9598 6.78886 45.3725C2.96572 53.5624 6.78886 60.3579 13.9047 63.6781C20.9985 66.9983 28.6669 65.6038 32.49 57.4139C32.9541 56.44 33.3298 55.3775 33.6392 54.2929C33.9486 55.3775 34.3464 56.44 34.7883 57.4139C38.6115 65.6038 46.2798 66.9983 53.3736 63.6781C60.4674 60.3579 64.3127 53.5624 60.4895 45.3725C59.4067 43.0262 57.7492 40.7463 55.7824 38.7542C58.589 37.6253 61.2188 35.9652 63.2077 33.9952C68.8872 28.3065 67.7159 21.4668 62.8099 16.5307L62.8541 16.5086Z" stroke="black" stroke-width="0.5" stroke-miterlimit="10"/>
</svg>
