<svg width="66" height="66" viewBox="0 0 66 66" fill="none" xmlns="http://www.w3.org/2000/svg">
<path d="M33.0146 0.600098C36.4602 0.600098 39.5513 1.59386 41.7773 3.55615C43.9988 5.51452 45.3838 8.45882 45.3838 12.4136C45.3838 13.3054 45.2967 14.2231 45.165 15.1685L45.0752 15.8149L45.5732 15.394C48.2651 13.1218 51.1482 12.3111 53.9199 12.6265C56.5968 12.931 59.1913 14.2904 61.4258 16.4419L61.3887 16.4614L61.6328 16.7065C64.0536 19.1421 65.5371 22.0323 65.7285 24.9966C65.9195 27.9543 64.8266 31.0185 62.0322 33.8179C60.0702 35.7613 57.4694 37.4038 54.6895 38.522L54.3408 38.6626L54.6045 38.9302C56.5546 40.9055 58.1941 43.1616 59.2627 45.4771V45.478C61.1476 49.5159 61.134 53.1873 59.7959 56.2515C58.4553 59.3212 55.7727 61.8111 52.2676 63.4517C48.7624 65.0922 45.1352 65.559 41.9248 64.6226C38.7203 63.6877 35.8996 61.346 34.0146 57.3081C33.5779 56.3454 33.1854 55.2952 32.8799 54.2241L32.6396 53.3813L32.3984 54.2241C32.0917 55.2993 31.7211 56.3481 31.2646 57.3062L31.2637 57.3081C29.3787 61.346 26.558 63.6877 23.3535 64.6226C20.3437 65.5005 16.9674 65.1453 13.6689 63.7456L13.0107 63.4517C9.49463 61.8111 6.81135 59.321 5.47363 56.2515C4.1384 53.1875 4.13061 49.5161 6.01562 45.478C7.12857 43.0956 8.8342 40.7507 10.8721 38.7095L11.1318 38.4497L10.7939 38.3032C8.21021 37.1847 5.80689 35.6297 3.97656 33.7964C1.18136 30.9966 0.0822397 27.932 0.270508 24.9741C0.459245 22.0104 1.94296 19.1213 4.37402 16.686C6.66389 14.4034 9.35502 12.9528 12.1299 12.6313C14.899 12.3107 17.7759 13.1109 20.4561 15.3716L20.957 15.7944L20.8652 15.145C20.7337 14.2225 20.6465 13.3054 20.6465 12.4136C20.6465 8.45887 22.0306 5.51452 24.252 3.55615C26.4779 1.59379 29.5691 0.600141 33.0146 0.600098Z" fill="#C2D9E7" stroke="black" stroke-width="0.5"/>
</svg>
