<svg width="65" height="72" viewBox="0 0 65 72" fill="none" xmlns="http://www.w3.org/2000/svg">
<path d="M56.4207 42.9766C51.8804 40.351 45.2462 37.8137 40.1107 36.4237C40.1107 36.3355 40.1328 36.2472 40.1328 36.159C40.1328 35.8501 40.0887 35.5633 40.0446 35.2544C45.2021 33.8865 51.8804 31.3492 56.4207 28.7236C64.4655 24.0682 64.8402 20.847 63.2533 18.0891C61.6444 15.3091 58.6909 14.0294 50.6241 18.6848C46.0617 21.3324 40.4854 25.8554 36.7165 29.6503C36.43 29.4517 36.0994 29.2752 35.7688 29.1208C37.1573 23.9579 38.3034 16.8535 38.3034 11.5804C38.3034 2.26961 35.7026 0.350098 32.5067 0.350098C29.3109 0.350098 26.7101 2.29168 26.7101 11.5804C26.7101 16.8315 27.8562 23.9138 29.2447 29.0546C28.8921 29.209 28.5615 29.3855 28.2529 29.6062C24.484 25.8333 18.9518 21.3103 14.3894 18.6848C6.34462 14.0294 3.36915 15.3091 1.76019 18.0891C0.151233 20.8691 0.525919 24.0682 8.59276 28.7236C13.1111 31.3271 19.7232 33.8423 24.8587 35.2323C24.8146 35.5412 24.7705 35.8501 24.7705 36.159C24.7705 36.2472 24.7926 36.3576 24.7926 36.4458C19.6571 37.8358 13.089 40.351 8.59276 42.9545C0.547959 47.6099 0.173274 50.8311 1.76019 53.5891C3.34711 56.347 6.32258 57.6487 14.3894 52.9934C18.7975 50.4561 24.1093 46.1316 27.8562 42.425C28.2309 42.7118 28.6496 42.9766 29.0905 43.1972C27.768 48.2938 26.688 55.0453 26.688 60.1198C26.688 69.4306 29.2888 71.3501 32.4847 71.3501C35.6806 71.3501 38.2814 69.4085 38.2814 60.1198C38.2814 55.0232 37.2234 48.2277 35.901 43.131C36.3198 42.9104 36.7165 42.6677 37.0691 42.3809C40.816 46.1096 46.1719 50.4561 50.602 53.0154C58.6468 57.6708 61.6223 56.3911 63.2313 53.6111C64.8402 50.8311 64.4655 47.6319 56.3987 42.9766H56.4207Z" stroke="black" stroke-width="0.5" stroke-miterlimit="10"/>
</svg>
