<svg width="63" height="72" viewBox="0 0 63 72" fill="none" xmlns="http://www.w3.org/2000/svg">
<path d="M31.5068 0.600098C32.2816 0.600106 33.0041 0.716764 33.6543 1.02197C34.3017 1.32589 34.8914 1.82327 35.3926 2.60791C36.4025 4.18932 37.0537 6.93712 37.0537 11.5806C37.0537 16.8265 35.9118 23.9087 34.5273 29.0562L34.4727 29.2583L34.6631 29.3472C34.9865 29.4983 35.3035 29.6683 35.5742 29.856L35.7461 29.9751L35.8936 29.8267C39.6506 26.0437 45.2105 21.5352 49.75 18.9009L49.749 18.8999C53.772 16.5783 56.4757 15.7659 58.3496 15.8481C59.2795 15.889 60.0051 16.1508 60.5928 16.5601C61.1829 16.9711 61.6469 17.5401 62.0371 18.2144V18.2134C62.4216 18.8816 62.6788 19.5646 62.7373 20.2798C62.7955 20.9921 62.6578 21.7523 62.2275 22.5796C61.3606 24.2463 59.3076 26.1858 55.2959 28.5073C50.7793 31.1191 44.1225 33.6494 38.9805 35.0132L38.7656 35.0698L38.7969 35.2896C38.8417 35.6034 38.8828 35.8713 38.8828 36.1587C38.8828 36.1846 38.8799 36.2136 38.874 36.2603C38.8689 36.3016 38.8604 36.3612 38.8604 36.4233V36.6147L39.0459 36.6655C43.8677 37.9707 50.0123 40.2906 54.4844 42.7378L55.2734 43.1929C59.2968 45.5147 61.3549 47.4491 62.2217 49.1128C62.6517 49.9382 62.7882 50.6968 62.7275 51.4097C62.6665 52.1258 62.4048 52.8117 62.0146 53.4858C61.6246 54.1598 61.1593 54.7291 60.5674 55.1401C59.978 55.5494 59.2505 55.8112 58.3193 55.8521C56.4427 55.9343 53.7394 55.1209 49.7275 52.7993C45.3208 50.2535 39.981 45.9214 36.2451 42.2036L36.0859 42.0444L35.9111 42.187C35.5757 42.4598 35.1943 42.6936 34.7842 42.9097L34.6094 43.0024L34.6592 43.1938C35.9778 48.2757 37.0312 55.0494 37.0312 60.1196C37.0312 64.7515 36.381 67.4991 35.3711 69.0835C34.8698 69.8699 34.2794 70.3697 33.6318 70.6753C32.9816 70.9821 32.2588 71.1001 31.4844 71.1001C30.7097 71.1001 29.9871 70.9834 29.3369 70.6782C28.6895 70.3743 28.0998 69.8769 27.5986 69.0923C26.5887 67.5109 25.9385 64.7631 25.9385 60.1196C25.9385 55.0723 27.0132 48.343 28.332 43.2603L28.3828 43.064L28.2021 42.9741C27.7759 42.7608 27.3704 42.5036 27.0078 42.2261L26.835 42.0942L26.6807 42.2476C23.1777 45.7129 18.3046 49.7164 14.0967 52.2827L13.2646 52.7769C9.24184 55.0984 6.53304 55.9066 4.65625 55.8218C3.72471 55.7796 2.99783 55.5172 2.41113 55.1089C1.8221 54.6989 1.36105 54.1326 0.976562 53.4644C0.592106 52.7962 0.334827 52.1131 0.276367 51.3979C0.218203 50.6858 0.356035 49.9261 0.786133 49.0991C1.65308 47.4324 3.70586 45.492 7.71777 43.1704C12.1904 40.5806 18.7371 38.073 23.8574 36.687L24.043 36.6372V36.4458C24.043 36.3852 24.0354 36.321 24.0303 36.2749C24.0244 36.2217 24.0205 36.1863 24.0205 36.1587C24.0205 35.8708 24.062 35.5798 24.1064 35.2681L24.1377 35.0483L23.9238 34.9907C18.8032 33.6047 12.2125 31.0972 7.71777 28.5073C3.69445 26.1855 1.63629 24.2511 0.769531 22.5874C0.339591 21.7621 0.202989 21.0034 0.263672 20.2905C0.324713 19.5744 0.586418 18.8885 0.976562 18.2144C1.36666 17.5403 1.8319 16.9711 2.42383 16.5601C3.01316 16.1508 3.74071 15.889 4.67188 15.8481C6.5486 15.7659 9.2526 16.5792 13.2646 18.9009V18.9019C17.8029 21.5136 23.3181 26.0208 27.0762 29.7827L27.2256 29.9331L27.3984 29.8091C27.6893 29.6011 28.0038 29.433 28.3447 29.2837L28.542 29.1968L28.4863 28.9897C27.102 23.8645 25.96 16.8043 25.96 11.5806C25.96 6.9484 26.6111 4.20101 27.6211 2.6167C28.1224 1.8304 28.7119 1.33052 29.3594 1.0249C30.0096 0.718034 30.7324 0.600098 31.5068 0.600098Z" fill="#D8F4DA" stroke="black" stroke-width="0.5"/>
</svg>
