<svg width="69" height="62" viewBox="0 0 69 62" fill="none" xmlns="http://www.w3.org/2000/svg">
<path d="M61.9361 3.41432C57.8682 0.765952 52.0538 2.73581 46.4163 7.90122C43.0337 3.28299 38.7447 0.350098 34.0578 0.350098C29.3709 0.350098 25.3694 3.08601 22.0532 7.44159C16.5703 2.62638 10.977 0.875394 7.04174 3.43621C0.210343 7.87934 -1.71306 26.4617 5.93634 41.3451C11.2644 51.7416 20.4171 58.6798 27.7791 60.4308C29.6362 60.9999 31.7144 61.3501 34.0578 61.3501C36.0697 61.3501 37.8825 61.1531 39.5185 60.7591C47.1237 59.7742 57.3156 52.5514 63.0637 41.3451C70.7131 26.4398 68.7897 7.85745 61.9583 3.43621L61.9361 3.41432Z" stroke="black" stroke-width="0.5" stroke-miterlimit="10"/>
</svg>
