<svg width="67" height="62" viewBox="0 0 67 62" fill="none" xmlns="http://www.w3.org/2000/svg">
<path d="M33.0576 0.25C37.6316 0.25 41.8553 3.16063 45.2139 7.82129L45.3789 8.05078L45.5869 7.85742C48.3883 5.24868 51.219 3.46096 53.8379 2.65527C56.4447 1.85339 58.8266 2.02813 60.7793 3.31152L60.7988 3.33105L60.8213 3.3457C62.4689 4.42969 63.8442 6.39965 64.8555 9.0127C65.8653 11.6221 66.5032 14.8505 66.6914 18.4189C67.0679 25.5566 65.6441 34.0222 61.8408 41.5547C58.9835 47.2166 55.0213 51.8717 50.8311 55.2344C46.638 58.5992 42.2305 60.6584 38.4863 61.1514L38.4727 61.1533L38.459 61.1562C36.8457 61.5511 35.053 61.75 33.0576 61.75C30.7402 61.75 28.6872 61.3982 26.8535 60.8271L26.8457 60.8242L26.8379 60.8223L26.1504 60.6426C19.2254 58.6879 10.8552 52.1782 5.66797 42.5293L5.15918 41.5547L4.80957 40.8467C1.26863 33.5058 -0.0561582 25.3502 0.308594 18.4355C0.496841 14.8673 1.13468 11.6375 2.14453 9.02539C3.1559 6.40942 4.53163 4.43523 6.17969 3.3457C8.07232 2.0939 10.375 1.88509 12.8984 2.60156C15.4262 3.31932 18.1631 4.96331 20.8867 7.39453L21.0898 7.5752L21.2529 7.35742C24.5448 2.9629 28.4812 0.250083 33.0576 0.25Z" fill="#F4F4E8" stroke="black" stroke-width="0.5"/>
</svg>
