<?xml version="1.0" encoding="UTF-8"?>
<svg id="Layer_1" data-name="Layer 1" xmlns="http://www.w3.org/2000/svg" xmlns:xlink="http://www.w3.org/1999/xlink" viewBox="0 0 289.13 430.87">
  <defs>
    <style>
      .cls-1, .cls-2 {
        fill: none;
      }

      .cls-3 {
        font-family: Pretendard-Regular-KSCpc-EUC-H, Pretendard;
      }

      .cls-3, .cls-4 {
        font-size: 14px;
      }

      .cls-5, .cls-6, .cls-7, .cls-2, .cls-8, .cls-9, .cls-10 {
        stroke: #000;
      }

      .cls-5, .cls-6, .cls-7, .cls-9, .cls-10 {
        stroke-miterlimit: 10;
      }

      .cls-5, .cls-7, .cls-2, .cls-8, .cls-9, .cls-10 {
        stroke-width: .5px;
      }

      .cls-5, .cls-11 {
        fill: #f9f1b7;
      }

      .cls-6, .cls-10 {
        fill: #fff6e3;
      }

      .cls-12 {
        clip-path: url(#clippath-1);
      }

      .cls-13 {
        clip-path: url(#clippath-2);
      }

      .cls-7 {
        fill: #f4f9fd;
      }

      .cls-14 {
        fill: #fff;
      }

      .cls-4 {
        font-family: 'IM_FELL_Double_Pica_SC', 'IM FELL Double Pica SC';
      }

      .cls-2, .cls-8 {
        stroke-linecap: round;
        stroke-linejoin: round;
      }

      .cls-8 {
        fill: #f9f1ac;
      }

      .cls-9 {
        fill: #ced38d;
      }

      .cls-15 {
        letter-spacing: -.03em;
      }

      .cls-16 {
        letter-spacing: 0em;
      }

      .cls-17 {
        letter-spacing: -.01em;
      }

      .cls-18 {
        clip-path: url(#clippath);
      }
    </style>
    <clipPath id="clippath">
      <rect class="cls-1" x="-299.61" y="35.22" width="261.08" height="360.43" rx="30" ry="30"/>
    </clipPath>
    <clipPath id="clippath-1">
      <rect class="cls-1" x="14.03" y="35.22" width="261.08" height="360.43" rx="30" ry="30"/>
    </clipPath>
    <clipPath id="clippath-2">
      <rect class="cls-1" x="323.16" y="35.22" width="261.08" height="360.43" rx="30" ry="30"/>
    </clipPath>
  </defs>
  <rect class="cls-6" width="289.13" height="430.87"/>
  <rect class="cls-7" x="14.03" y="35.22" width="261.08" height="360.43" rx="30" ry="30"/>
  <text class="cls-4" transform="translate(89.34 23.6)"><tspan x="0" y="0">BA</tspan><tspan class="cls-17" x="18.07" y="0">B</tspan><tspan x="27.07" y="0">Y&apos;S </tspan><tspan class="cls-16" x="50.96" y="0">B</tspan><tspan x="60.05" y="0">RE</tspan><tspan class="cls-15" x="80.15" y="0">A</tspan><tspan x="88.59" y="0">TH</tspan></text>
  <text class="cls-3" transform="translate(109.03 415.46)"><tspan x="0" y="0">안개꽃 · 설렘</tspan></text>
  <path class="cls-8" d="M16.59,5.73l.43.83c2.53,4.84,5.79,9.26,9.66,13.1l.05.05-.05.05c-3.87,3.85-7.13,8.27-9.66,13.1l-.43.83-.43-.83c-2.53-4.84-5.79-9.26-9.66-13.1l-.05-.05.05-.05c3.87-3.85,7.13-8.27,9.66-13.1l.43-.83Z"/>
  <path class="cls-8" d="M273.32,5.73l.43.83c2.53,4.84,5.79,9.26,9.66,13.1l.05.05-.05.05c-3.87,3.85-7.13,8.27-9.66,13.1l-.43.83-.43-.83c-2.53-4.84-5.79-9.26-9.66-13.1l-.05-.05.05-.05c3.87-3.85,7.13-8.27,9.66-13.1l.43-.83Z"/>
  <path class="cls-8" d="M214.47,11.12l.24.47c1.57,3,3.59,5.74,5.99,8.12h0s0,0,0,0c-2.4,2.38-4.42,5.12-5.99,8.12l-.24.47-.24-.47c-1.57-3-3.59-5.74-5.99-8.12h0s0,0,0,0c2.4-2.38,4.42-5.12,5.99-8.12l.24-.47Z"/>
  <path class="cls-8" d="M75.1,11.12l.24.47c1.57,3,3.59,5.74,5.99,8.12h0s0,0,0,0c-2.4,2.38-4.42,5.12-5.99,8.12l-.24.47-.24-.47c-1.57-3-3.59-5.74-5.99-8.12h0s0,0,0,0c2.4-2.38,4.42-5.12,5.99-8.12l.24-.47Z"/>
  <path class="cls-8" d="M16.59,397.53l.43.83c2.53,4.84,5.79,9.26,9.66,13.1l.05.05-.05.05c-3.87,3.85-7.13,8.27-9.66,13.1l-.43.83-.43-.83c-2.53-4.84-5.79-9.26-9.66-13.1l-.05-.05.05-.05c3.87-3.85,7.13-8.27,9.66-13.1l.43-.83Z"/>
  <path class="cls-8" d="M273.32,397.53l.43.83c2.53,4.84,5.79,9.26,9.66,13.1l.05.05-.05.05c-3.87,3.85-7.13,8.27-9.66,13.1l-.43.83-.43-.83c-2.53-4.84-5.79-9.26-9.66-13.1l-.05-.05.05-.05c3.87-3.85,7.13-8.27,9.66-13.1l.43-.83Z"/>
  <path class="cls-8" d="M211.32,402.92l.24.47c1.57,3,3.59,5.74,5.99,8.12h0s0,0,0,0c-2.4,2.38-4.42,5.12-5.99,8.12l-.24.47-.24-.47c-1.57-3-3.59-5.74-5.99-8.12h0s0,0,0,0c2.4-2.38,4.42-5.12,5.99-8.12l.24-.47Z"/>
  <path class="cls-8" d="M76.93,402.92l.24.47c1.57,3,3.59,5.74,5.99,8.12h0s0,0,0,0c-2.4,2.38-4.42,5.12-5.99,8.12l-.24.47-.24-.47c-1.57-3-3.59-5.74-5.99-8.12h0s0,0,0,0c2.4-2.38,4.42-5.12,5.99-8.12l.24-.47Z"/>
  <g class="cls-18">
    <g>
      <rect class="cls-14" x="-196.12" y="176.09" width="270.96" height="12.98" rx="6.43" ry="6.43"/>
      <g>
        <path class="cls-14" d="M29.93,176.16H13.14c0-.63-.14-1.35-.36-2.09-1.58-5.36-6.47-9.18-12.06-9.24-.06,0-.12,0-.19,0-6.22,0-10.57,3.71-10.57,3.71l23.18,7.62-120.59.67h-43.34l14.58-6.73,21.83-2.26,35.01-7.22c-1.62-15.07-17.95-14.8-17.95-14.8-20.12.45-17.05,22.02-17.05,22.02-.72-3.52-3.07-8.93-12.63-8.12-9.56.81-9.2,10.38-9.2,10.38-12.27-5.86-14.58,6.73-14.58,6.73h-26.34"/>
        <polygon class="cls-14" points="13.14 176.16 -38.6 157.75 -79.37 148.19 -95.64 153.14 -114.38 167.85 -133.6 165.85 -136.21 170.11 -148.83 173.94 -150.79 176.84 13.14 176.16"/>
      </g>
      <g>
        <path class="cls-2" d="M-10.04,168.55s4.35-3.71,10.57-3.71c.06,0,.12,0,.19,0,5.59.06,10.49,3.87,12.06,9.24.22.75.36,1.47.36,2.09h16.78"/>
        <line class="cls-2" x1="34.1" y1="176.17" x2="39.89" y2="176.17"/>
        <line class="cls-2" x1="42.45" y1="176.17" x2="64.09" y2="176.17"/>
        <line class="cls-2" x1="-50.76" y1="182.39" x2="74.41" y2="182.39"/>
        <line class="cls-2" x1="-86.5" y1="188.94" x2="24.51" y2="188.94"/>
      </g>
    </g>
  </g>
  <g class="cls-12">
    <g>
      <rect class="cls-14" x="118.18" y="349.1" width="274.52" height="7.79" rx="3.89" ry="3.89"/>
      <g>
        <path class="cls-14" d="M132.17,350.37s33.22.75,36.78,0,15.79-2.82,19.39-4.82c4.34-2.41,9.38-.07,9.38,4.63"/>
        <path class="cls-14" d="M188.34,345.55s-3.29-14.2,13.18-14.2c0,0,12.45-1.37,12.45,12.9,0,0,.27-4.83,5.27-4.83s5.81,3.47,5.81,7"/>
        <path class="cls-14" d="M252.36,333.91v-2.59c0-11.11-10.26-20.12-22.92-20.12s-22.92,9.01-22.92,20.12"/>
        <path class="cls-14" d="M243.09,346.93c.81-3.35,3.45-5.8,6.58-5.8,3.78,0,6.84,3.57,6.84,7.98v1.03"/>
        <path class="cls-14" d="M237.12,350.16c0-2.06,1.88-3.72,4.2-3.72s4.2,1.67,4.2,3.72"/>
        <path class="cls-14" d="M252.09,328.22c2.39-2.39,5.89-3.9,9.8-3.9,7.19,0,13.02,5.12,13.02,11.43v3.9"/>
        <path class="cls-14" d="M256.5,348.3s21.25,2.34,29.17-1.85v-2.92c0-4.72-4.36-8.55-9.74-8.55-.37,0-.73.02-1.08.05"/>
        <circle class="cls-14" cx="291.1" cy="331.99" r="2.51"/>
        <circle class="cls-14" cx="195.21" cy="319.45" r="2.51"/>
        <path class="cls-14" d="M230.31,316.94s3.28-.23,4.68.43"/>
        <path class="cls-14" d="M238.51,319.01s6.97,3.7,7.47,10.46"/>
        <path class="cls-14" d="M163.95,350.66h178.82v-1.71h-19.64l-6.02-3.32-6.71,1.13-24.73-.3s5.37-6.8,13.32-6.8,11.41,7.1,11.41,7.1c0,0,1.11-3.55,5.74-3.55s6.98,5.75,6.98,5.75h12.58"/>
        <polygon class="cls-14" points="168.95 350.37 183.49 348.95 192.69 342.66 200.44 334.5 212.51 329.47 240.61 328 266.87 329.47 281.84 344.03 285.67 346.45 302.3 344.33 310.4 346.75 316.14 343.2 320.78 346.43 323.13 348.95 321.39 350.37 168.95 350.37"/>
      </g>
      <g>
        <line class="cls-2" x1="119.53" y1="356.49" x2="206.02" y2="356.49"/>
        <line class="cls-2" x1="214.23" y1="356.49" x2="218.31" y2="356.49"/>
        <line class="cls-2" x1="223.82" y1="356.49" x2="300.08" y2="356.49"/>
        <path class="cls-2" d="M131.4,349.1s31.94.33,42.52,0c3.64-.11,10.82-1.41,14.42-3.41,4.34-2.41,9.38-.07,9.38,4.63"/>
        <path class="cls-2" d="M188.34,345.69s-3.29-14.2,13.18-14.2c0,0,12.45-1.37,12.45,12.9,0,0,.27-4.83,5.27-4.83s5.81,3.47,5.81,7"/>
        <path class="cls-2" d="M206.51,331.46c0-11.11,10.26-20.12,22.92-20.12s22.92,9.01,22.92,20.12v2.59"/>
        <path class="cls-2" d="M243.09,347.06c.81-3.35,3.45-5.8,6.58-5.8,3.78,0,6.84,3.57,6.84,7.98v1.03"/>
        <path class="cls-2" d="M237.12,350.29c0-2.06,1.88-3.72,4.2-3.72s4.2,1.67,4.2,3.72"/>
        <path class="cls-2" d="M252.09,328.36c2.39-2.39,5.89-3.9,9.8-3.9,7.19,0,13.02,5.12,13.02,11.43v3.9"/>
        <path class="cls-2" d="M256.5,348.43s21.25,2.34,29.17-1.85v-2.92c0-4.72-4.36-8.55-9.74-8.55-.37,0-.73.02-1.08.05"/>
        <path class="cls-2" d="M285.67,346.59s5.37-6.8,13.32-6.8,11.41,7.1,11.41,7.1c0,0,1.11-3.55,5.74-3.55s6.98,5.75,6.98,5.75h12.58"/>
        <circle class="cls-2" cx="291.1" cy="332.12" r="2.51"/>
        <circle class="cls-2" cx="195.21" cy="319.59" r="2.51"/>
        <path class="cls-2" d="M230.31,317.07s3.28-.23,4.68.43"/>
        <path class="cls-2" d="M238.51,319.14s6.97,3.7,7.47,10.46"/>
      </g>
    </g>
    <g>
      <rect class="cls-14" x="-69.47" y="153.65" width="274.52" height="7.79" rx="3.89" ry="3.89"/>
      <g>
        <path class="cls-14" d="M-55.48,154.92s33.22.75,36.78,0,15.79-2.82,19.39-4.82c4.34-2.41,9.38-.07,9.38,4.63"/>
        <path class="cls-14" d="M.69,150.1s-3.29-14.2,13.18-14.2c0,0,12.45-1.37,12.45,12.9,0,0,.27-4.83,5.27-4.83s5.81,3.47,5.81,7"/>
        <path class="cls-14" d="M64.71,138.46v-2.59c0-11.11-10.26-20.12-22.92-20.12s-22.92,9.01-22.92,20.12"/>
        <path class="cls-14" d="M55.44,151.47c.81-3.35,3.45-5.8,6.58-5.8,3.78,0,6.84,3.57,6.84,7.98v1.03"/>
        <path class="cls-14" d="M49.47,154.71c0-2.06,1.88-3.72,4.2-3.72s4.2,1.67,4.2,3.72"/>
        <path class="cls-14" d="M64.44,132.77c2.39-2.39,5.89-3.9,9.8-3.9,7.19,0,13.02,5.12,13.02,11.43v3.9"/>
        <path class="cls-14" d="M68.85,152.84s21.25,2.34,29.17-1.85v-2.92c0-4.72-4.36-8.55-9.74-8.55-.37,0-.73.02-1.08.05"/>
        <circle class="cls-14" cx="165.25" cy="152.14" r="2.51"/>
        <circle class="cls-14" cx="103.46" cy="136.53" r="2.51"/>
        <circle class="cls-14" cx="7.56" cy="124" r="2.51"/>
        <path class="cls-14" d="M42.66,121.49s3.28-.23,4.68.43"/>
        <path class="cls-14" d="M50.87,123.56s6.97,3.7,7.47,10.46"/>
        <path class="cls-14" d="M-23.7,155.21h178.82v-1.71h-19.64l-6.02-3.32-6.71,1.13-24.73-.3s5.37-6.8,13.32-6.8,11.41,7.1,11.41,7.1c0,0,1.11-3.55,5.74-3.55s6.98,5.75,6.98,5.75h12.58"/>
        <polygon class="cls-14" points="-18.7 154.92 -4.15 153.5 5.05 147.2 12.8 139.05 24.86 134.02 52.96 132.54 79.22 134.02 94.19 148.58 98.03 151 114.65 148.88 122.76 151.3 128.5 147.75 133.13 150.98 135.48 153.5 133.74 154.92 -18.7 154.92"/>
      </g>
      <g>
        <line class="cls-2" x1="-68.12" y1="161.03" x2="18.37" y2="161.03"/>
        <line class="cls-2" x1="26.58" y1="161.03" x2="30.66" y2="161.03"/>
        <line class="cls-2" x1="181.69" y1="161.03" x2="185.77" y2="161.03"/>
        <line class="cls-2" x1="189.89" y1="161.03" x2="203.62" y2="161.03"/>
        <line class="cls-2" x1="36.17" y1="161.03" x2="112.43" y2="161.03"/>
        <line class="cls-2" x1="117.32" y1="161.03" x2="177.77" y2="161.03"/>
        <path class="cls-2" d="M-56.24,153.65s31.94.33,42.52,0c3.64-.11,10.82-1.41,14.42-3.41,4.34-2.41,9.38-.07,9.38,4.63"/>
        <path class="cls-2" d="M.69,150.24s-3.29-14.2,13.18-14.2c0,0,12.45-1.37,12.45,12.9,0,0,.27-4.83,5.27-4.83s5.81,3.47,5.81,7"/>
        <path class="cls-2" d="M18.86,136.01c0-11.11,10.26-20.12,22.92-20.12s22.92,9.01,22.92,20.12v2.59"/>
        <path class="cls-2" d="M55.44,151.61c.81-3.35,3.45-5.8,6.58-5.8,3.78,0,6.84,3.57,6.84,7.98v1.03"/>
        <path class="cls-2" d="M49.47,154.84c0-2.06,1.88-3.72,4.2-3.72s4.2,1.67,4.2,3.72"/>
        <path class="cls-2" d="M64.44,132.9c2.39-2.39,5.89-3.9,9.8-3.9,7.19,0,13.02,5.12,13.02,11.43v3.9"/>
        <path class="cls-2" d="M68.85,152.98s21.25,2.34,29.17-1.85v-2.92c0-4.72-4.36-8.55-9.74-8.55-.37,0-.73.02-1.08.05"/>
        <path class="cls-2" d="M98.03,151.13s5.37-6.8,13.32-6.8,11.41,7.1,11.41,7.1c0,0,1.11-3.55,5.74-3.55s6.98,5.75,6.98,5.75h12.58"/>
        <line class="cls-2" x1="150.83" y1="153.63" x2="155.12" y2="153.63"/>
        <circle class="cls-2" cx="165.25" cy="152.28" r="2.51"/>
        <circle class="cls-2" cx="103.46" cy="136.67" r="2.51"/>
        <circle class="cls-2" cx="7.56" cy="124.14" r="2.51"/>
        <path class="cls-2" d="M42.66,121.62s3.28-.23,4.68.43"/>
        <path class="cls-2" d="M50.87,123.69s6.97,3.7,7.47,10.46"/>
      </g>
    </g>
  </g>
  <g>
    <g>
      <path class="cls-9" d="M141.2,358.59c.29,2.6,4.23,2.42,4.84,0,.6-2.42,1.61-8.06,3.63-10.68,2.01-2.62,8.46-14.31,11.89-15.31,3.43-1.01,30.94-1.85,33.3-3.55l-.85-.85s14.5-6.69,14.24-9.12c0,0,14.04-8.33,15.68-8.46s1.51-3.67-11.81-3.61c-13.32.07-15.61.92-15.61.92l-1.12-1.77s-14.76,1.97-32.6,18.96c0,0,6.36-15.22,13.25-17.84s28.01-10.5,28.41-14.04l-3.54-1.57s20.01-10.76,18.5-16.47l-4.59-.13s17.32-21.52,20.34-22.44c0,0-5.58-1.77-13.32-.46l.13-2.1s-13.71,3.28-16.79,6.1l-.33-3.54s-9.45,6.82-10.89,10.04l-.26-5.18s-7.35.46-9.64,9.58l-2.3-3.02s-4.63,3.36-5.48,8.53c0,0-15.11,16.81-13.96,39.63,0,0-2.08,8.25-3.93,11.49-1.85,3.24-11.64,21.51-11.64,21.51,0,0,.15-25.68,1.39-33.93,1.23-8.25,1.54-27.84,5.78-32.69,4.24-4.86,22.21-40.94,28.99-44.57,6.79-3.62,27.37-19.2,34.31-20.59l-.31-2.17s-27.76,11.96-37.63,20.98c0,0,8.1-16.5,7.17-22.13l2.24-8.49,14-4.99s4.82-5.37,10-5.93,34.54-7.25,34.54-7.25l-4.24-1.45s-28.24,5.5-33.41,5.87l20.33-21.74-3.58-.94-17.13,18.26-1.13-23.44-2.82.47s1.59,26.07.42,28.33c-1.17,2.26-9.36,7.62-9.36,7.62l-10.64,6.12-2.92,6.21s-.19,4.24-2.54,9.41c-2.35,5.18-22.5,52.62-28.43,55.25,0,0-6.68-50.83-6.12-55.53s3.48-48.29,6.02-52.15c0,0,5.55-21.3,10.07-24.3,4.52-3,11.58-9.59,11.58-9.59,0,0,9.69-.09,13.55-2.07,3.86-1.98,14.59-11.58,14.59-11.58l-2.54-1.71s-6.97,8.2-11.95,10.18-14.31,4.3-14.31,4.3l-8.75-1.1s2.54-6.49,5.93-7.81c3.39-1.32,14.4-8.01,14.4-8.01l-1.41-1.68-10.73,5.74s3.01-16.57,9.51-19.39l-3.48-2.64s-9.79,14.87-10.59,24.28l-4.75,7.64-2.45,1.12s-3.77-18.42-2.26-20.69l-3.39,3.04s1.41,15.2,3.11,16.99l.66,10.35s-6.68,7.15-8.19,18.07c0,0-4.68-28.7-8.85-33.41,0,0-.17-31.06,4.51-38.87l-3.75-1.6s-1.13,15.48-3.29,17.06c0,0-9.84-14.42-9.86-16.12l-5.57,1.13s13.3,13.74,14.27,20.99l-6.84,9.91s-11.67-6.24-12.24-9.25l-1.78,1.71s8.74,10.38,11.76,10.36l9.1,3.65s8.88,25.94,8.78,35.23c-.09,9.29-1.51,25.76-2.73,31.31-1.22,5.55-3.01,19.3-3.01,19.3,0,0-18.92-26.54-19.11-28.52s4.25-24.66,6.17-25.98l-2.33-1.22s-6.48,16.45-5.82,23c0,0-10.73-13.67-13.46-29.68l-2.54,2.9s2.91,14.22,8.04,21.09c0,0-16.62-12.54-20.52-21.09-3.9-8.56-5.31-14.2-4.56-16.18.75-1.98,6.21-13.82,6.21-13.82l-2.64-1.37s-6.12,12.08-6.02,14.53c0,0-8.75-8.86-9.41-8.62l-2.54,2.22s7.25,3.29,10.64,11.2c3.39,7.91,6.31,13.56,7.44,15.16,0,0-20.33-2.26-21.27-2.45s-.89,2.45-.89,2.45c0,0,21.44,2.73,23.05,3.82s2.02,1.54,2.63,1.95,17.22,17.9,24.39,22.61c0,0,20.99,31.54,21.71,34.2.72,2.66,7.73,62.48,7.12,66.51s-3.83,26.4-4.03,34.25c-.11,4.13-.17,16.67-.73,26.62l-1.07-8.64c-.11-.9-.28-1.78-.5-2.66l-3.27-12.75c-3.76-13.47-7.81-24.23-7.81-24.23-4.13-9.48-11.56-19.16-15.37-27.42-3.89-8.44-6.49-35.73-6.49-35.73l6.79-7.07c2.75-1.22,6.45-14.28,6.45-14.28l-2.32-.83c.72,2.98-7.35,13.47-7.35,13.47l-10.31-6.22c-2.1-7.01,4.37-25,4.37-25l-5.54,1.26c.68,1.55-2.36,18.75-2.36,18.75-2.62-.55-10.02-14.19-10.02-14.19l-2.76,3c7.48,5.19,20.1,33.58,20.1,33.58-1.86,6.02,5.69,34.1,5.69,34.1-5.87-9.33-14.9-13.1-14.9-13.1l-3.66-9.71c.81-2.33-4.16-16.76-4.16-16.76l-4.34-1.38c2.31,1.45,6.46,19.79,6.46,19.79h-2.69s-7.47-5.02-7.47-5.02c-4.6-8.25-19.65-17.78-19.65-17.78l-2.09,3.84c7.08-.1,16.64,13.76,16.64,13.76l-12.14-.82-.59,2.12s12.79,1.57,16.42,1.38c3.63-.19,8.62,4.68,8.62,4.68l-7.52,4.61s-9.45,1.71-14.81,1.96c-5.36.25-15.08-4.36-15.08-4.36l-1.61,2.6s13.73,4.34,18.06,4.55c4.33.21,13.21-3.69,13.21-3.69,0,0,9.15,3.1,14.5,3.98,12.98,2.12,10.71,7.51,19.18,18,1.81,1.14,8.73,9.29,12.7,19.62,0,0,14.25,40.16,13.3,48.95l-4.83-4.63c-2.41-1.98-2.64-2.63-4.26-4.44l-8.65-9.68c-1.74-22.53-16.22-37.53-16.22-37.53-1.31-4.99-5.54-7.83-5.54-7.83l-1.54,3.19c-2.98-8.73-9.11-8.45-9.11-8.45l.39,5.12c-1.57-3.01-10.19-8.77-10.19-8.77l.15,3.51c-2.88-2.46-14.61-4.32-14.61-4.32l.36,2.05c-6.56-.52-10.96,1.78-10.96,1.78,2.61.6,19.47,20.01,19.47,20.01l-3.78.59c-.57,5.76,17.25,14.33,17.25,14.33l-2.74,1.9c.74,3.44,19.15,9.07,25.16,10.96,0,0,5.16,4.69,9.39,7.1,2.01,1.15,3.97,3.98,5.3,5.28,2.43,2.37,9.03,9.88,11.36,12.35,3.16,3.37,5.44,7.15,5.96,11.85Z"/>
      <g>
        <path class="cls-10" d="M177.96,182.9s-2.37-7.17,2.08-7.31c4.45-.14,6.31,3.15,5.66,9.61,0,0,.36-10.18,7.46-7.6,0,0,4.16,2.87.36,7.6,0,0,6.17-3.01,7.96.57s-3.8,7.39-3.8,7.39c0,0,7.1.22,6.53,4.45-.57,4.23-3.08,4.45-7.39,4.52,0,0,2.44,4.73.57,6.17s-5.23,2.15-8.32-2.87c0,0,2.87,8.68-2.72,8.6-5.59-.07-4.8-7.03-4.8-7.03,0,0-.5,4.88-5.38,4.16-4.88-.72-1.94-7.46-1.94-7.46,0,0-5.81.93-6.81-2.72-1-3.66,3.94-5.95,6.45-5.23,0,0-8.75,1-8.75-4.45s4.23-4.3,6.88-3.3c0,0-2.95-6.64-.22-8.32,2.69-1.65,4.66-.43,6.17,3.23Z"/>
        <path class="cls-10" d="M225.82,200.13s-1.49-8.93-5.61-6.3-2.86,11.1,1.6,13.74c0,0-7.21-6.18-8.47,2.17-1.26,8.36,8.7,4.28,8.7,4.28,0,0-9.84,9-3.78,12.32,6.07,3.32,7.55-9.61,7.55-9.61,0,0-4.35,11.68,3.66,12.48,0,0,4.46-.8,1.95-9.27,0,0,.57,10.3,8.36,5.15,0,0,3.55-4.35-2.06-8.01,0,0,6.18,2.61,6.64-3.05.46-5.65-6.52-5.42-6.52-5.42,0,0,6.07-1.14,3.89-9.16,0,0-3.55-5.38-9.61,3.78,0,0,5.95-7.15.11-9.87,0,0-4.12-2.38-6.41,6.78Z"/>
        <path class="cls-10" d="M200.2,148.85s-4.85-4.08-2.3-6.25c2.55-2.17,4.21,1.4,4.21,1.4,0,0-.13-4.34,3.44-3.19,3.57,1.15,3.19,6,3.19,6,0,0,8.29-2.55,8.55.51.26,3.06-4.05,5.36-4.05,5.36,0,0,3.67,1.66,2.78,5.23-.89,3.57-2.81,5.74-6.76,3.32,0,0,.16,5.61-2.02,4.85s-1.29-3.95-1.29-3.95c0,0-.77,5.49-5.36,2.81-4.59-2.68-1.4-7.27-1.4-7.27,0,0-6,1.28-6-1.28s3.57-3.95,3.57-3.95c0,0-5.74.38-4.72-2.68,1.02-3.06,4.08-2.93,8.16-.89Z"/>
        <path class="cls-10" d="M237.64,153.38s4.06-1.58,4.43.64.66,4.06-2.21,5.02c0,0,2.75.81,2.44,2.58s-3.26,2.07-3.26,2.07c0,0,1.92,2.95-1.4,4.43-3.32,1.48-2.88-.07-5.9.52-3.03.59-5.68-.22-5.54-1.92,0,0-3.69-1.18-1.92-5.24,0,0-6.05-3.03-1.48-6.42,0,0,1.18-.66,2.07.89,0,0-2.28-3.28-1.33-4.95,1.27-2.22,4.06-3.47,6.2-.74,0,0,1.33-2.95,4.21-1.37s3.69,4.49,3.69,4.49Z"/>
        <path class="cls-10" d="M241.41,181.55s.67-3.1,0-5.12c-.67-2.01-1.37-4.53.91-5.95s3.79-3.35,5.89-.5l.84,2.1s2.94-1.59,5.03.67,3.77,3.44,2.18,6.71c-1.59,3.27-2.43,4.11-2.43,4.11,0,0,1.43,3.19-4.36,2.77-5.79-.42-7.14-2.1-7.14-2.1,0,0-1.13-1.15-.91-2.68Z"/>
        <path class="cls-10" d="M127.21,141.31s1.54-5.57,5.33-2.59c0,0,9.61,5.33,2.5,8.16,0,0,5.33,2.83-.24,6.87,0,0-2.02,1.13-4.85.57,0,0-1.45,4.2-3.88,3.23-2.42-.97-1.62-4.28-1.62-4.28,0,0-2.18,4.52-4.85,2.99s-1.7-5.17,0-5.82c0,0-3.88-.33-3.55-2.67.32-2.34,1.21-4.36,4.44-3.47,0,0-2.5-4.28.97-5.33s5.74,2.34,5.74,2.34Z"/>
        <path class="cls-10" d="M104.28,135.67s3.03-4.14,5.26-1.43.56,4.78-1.19,5.26c0,0,4.94,3.27,2.87,6.13-2.07,2.87-4.78,2.14-4.78,2.14,0,0,1.27,4.23-2.15,4.16s-4.14-1.91-4.14-1.91c0,0-3.35,1.99-5.26-1.91,0,0-3.9-.56-2.71-3.03s3.43-2.45,3.43-2.45c0,0-5.66-.02-4.14-2.89,1.51-2.87,2.71-3.27,4.94-1.51,0,0-2.07-4.63.56-4.9s3.35,1.48,3.35,1.48c0,0-1.5-4.3,1.16-3.74,2.66.56,3.46,3.43,2.82,4.62Z"/>
        <path class="cls-10" d="M96.95,113.93s3.98-2.79,3.43.88-5.1,6.69-8.44,5.9c-3.35-.8-6.05-5.57-3.98-9.2s5.7-5.27,8.21-3.39c1.85,1.39,2.23,3.66.8,5.82Z"/>
        <path class="cls-10" d="M67.79,113.29s-3.27-5.34,1.99-5.18c5.26.16,10.52,5.42,6.85,14.26-3.66,8.84-11.39,7.09-11.39,4.06,0,0-7.33.64-6.77-2.79.56-3.43,2.71-3.82,2.71-3.82,0,0-3.03-2.71-.32-5.02s4.06-3.27,6.93-1.51Z"/>
        <path class="cls-10" d="M70.26,148.34s3.27-6.05-1.27-8.05c-4.54-1.99-5.82.48-5.82.48,0,0-2.74-3.78-5.02-2.47-3.08,1.78-2.71,4.38-.96,6.37,0,0-5.1.56-3.98,4.38,1.12,3.82,5.1,1.43,5.1,1.43,0,0-7.33,3.11-4.46,5.18,2.87,2.07,4.86,0,4.86,0,0,0-2.33,2.86,1.43,2.63,3.9-.24,4.3-3.66,4.3-3.66,0,0-.64,2.63,2.15,1.43s2.74-2.63,2.74-2.63c0,0,3.79-2.55.92-5.1Z"/>
        <g>
          <path class="cls-10" d="M157.86,133.49s-3.03-2.61-4.23,1.27c-1.19,3.88,1.72,4.93,3.51,4.63,0,0-1.94,4.48,2.09,5.52,0,0,1.87,0,2.54-.82,0,0-.07,2.69,2.61,2.16s1.94-2.31,1.94-2.31c0,0,.52,4.84,3.81,2.38,3.28-2.46,1.64-5.37,1.64-5.37,0,0,5.75,1.27,5.82-2.46.07-3.73-4.93-3.58-4.93-3.58,0,0,3.73-2.99,2.16-4.7s-4.03,0-4.03,0c0,0,3.51-4.25-.15-5.3-3.66-1.04-4.4,1.34-4.55,3.66,0,0-.22-5.45-3.36-4.48s-2.24,3.51-2.24,3.51c0,0-2.5-3.1-4.85-.9-1.69,1.59-1.13,3.45,2.21,6.79Z"/>
          <path class="cls-10" d="M154.64,93.96s1.18-3.64,4.18-2.46,2.09,4.28,2.09,4.28c0,0,7.09-2.36,7.19,2.73,0,0,.02,2.64-2.63,2.91,0,0,3.19,2.82,0,4.46,0,0-1.66.59-3.47.35,0,0,2.55,1.42,1.47,2.85s-2.46,2.01-4.23,1.82c0,0,.15,2.41-1.92,2.46s-4.67-.98-5.45-3c0,0-4.47,1.33-5.65-2.21s1.47-3.34,1.47-3.34c0,0-3.19-4.91.39-5.99l1.47-.25s-3.73-5.83.79-7.29c0,0,2.87-1.07,4.28,2.69Z"/>
          <path class="cls-10" d="M177.93,98.96c.01-.64-.14-1.27-.56-1.74-.62-.7-1.59-1.64-2.69-2.19-1.93-.97-5.8-3.65-4.3-6.45s3.7-1.93,3.7-1.93c0,0-1.76-4.08,1.35-4.3,0,0,1.93.11,2.69,1.83,0,0,.43-2.79,2.15-2.36s2.04,2.9,1.93,3.98c0,0,3.65-4.51,6.55-.54,0,0,5.8,3.22.86,7.2,0,0,2.9,5.69-4.3,5.69,0,0-2.64,1.93-4.49,1.93-1.54,0-2.92,0-2.9-1.12Z"/>
          <path class="cls-10" d="M198.46,117.56s-4.19-5.43-.86-8.1c0,0-3.05-5.88.38-7.23,3.43-1.35,4.48,2.46,4.48,2.46,0,0-1.24-4,2.19-3.43,3.43.57,4,6.38,4,6.38,0,0,5.81-1.81,6.29,2.86.48,4.67-3.52,4.1-3.52,4.1,0,0,4.48,4.57-1.71,6s-9.43-1.14-11.24-3.05Z"/>
          <path class="cls-10" d="M136.44,123.47s1.71,5.62,4.95,4.38,1.24-6.1,1.24-6.1c0,0,2.57,4.57,4.76,1.33,2.19-3.24-.95-4.19-.95-4.19,0,0,2.95-1.14,2.19-3.14s-3.81-2.41-3.81-2.41c0,0,3.95-3.2,1.4-5.21-2.55-2.01-5.12.57-5.12.57,0,0,1.62-4.76-2.57-4.67,0,0-2.1-.76-3.14,2.67,0,0-1.91-2.29-3.72-.76s1.24,4.86,1.24,4.86c0,0-5.53-1.52-5.81.95s2.38,4.24,2.38,4.24c0,0-6.48,1.47-5.05,5.19,1.43,3.72,5.91,1.05,5.91,1.05,0,0-1.81,4.38,1.62,5.14s4.48-3.91,4.48-3.91Z"/>
          <path class="cls-10" d="M119.52,103.36s6.52-2.75,2.75-6.72c-3.77-3.97-6.72-.71-6.72-.71,0,0,.41-4.18-4.07-2.95-4.48,1.22-6.11,2.93-5.7,5.08,0,0-6.42,1.64-1.63,6.53,0,0-2.75,4.28,2.24,4.18,0,0,.1,4.28,7.03,2.14l2.85-1.12s1.43.92,3.46-.41c2.04-1.32,3.57-5.6-.2-6.01Z"/>
          <path class="cls-10" d="M122.9,76.87s-3.13-6.12,2.35-6.4c0,0,2.49-.64,3.91,1.85,0,0,7.12-1.85,5.76,4.55s-2.35,8.4-7.47,9.61c-5.12,1.21-8.68,1.07-10.03-3.13,0,0-3.77-3.34-.57-6.19,3.33-2.96,6.05-.28,6.05-.28Z"/>
          <path class="cls-10" d="M145.64,86.57c-.5.14-1.04.08-1.48-.19-1.31-.8-4.14-2.81-4.46-5.53-.43-3.56.78-7.04,5.12-6.76s6.55,1.14,5.83,5.62c-.64,4.05-2.51,6.13-5.02,6.86Z"/>
          <path class="cls-10" d="M180.43,113.35s.87-2.05,3.5-3.08,2.22-2.22,4.37-1.67,2.62,3.97-.87,5.72c-3.5,1.75-7.71,1.63-6.99-.97Z"/>
          <path class="cls-5" d="M165.12,138.26s-2.84-.99-1.57-2.77c1.27-1.78,1.38-2,3.07-.72s.91,2.97-1.5,3.5Z"/>
          <path class="cls-5" d="M202.61,116.57s-4.04-3.31-1.78-3.55,4.26,1.84,4.35,2.98-1.28.98-2.57.57Z"/>
          <path class="cls-5" d="M157.01,105.26s-3.51-.08-2.71-2.18c.81-2.1,2.42-2.68,3.8-1.87s1.53,3.4-1.09,4.05Z"/>
          <path class="cls-5" d="M137.25,118.78s-2.46-.22-1.92-2.79c.54-2.57,3.44-1.73,3.98-1.19s1.63,2.48,0,3.49c-1.16.71-2.06.49-2.06.49Z"/>
          <path class="cls-5" d="M129.01,80.04c-.03.77-.67,1.39-1.44,1.45-1.02.08-2.36-.02-2.24-1.12.19-1.76,1.04-2.23,1.66-2.12.5.08,2.08.27,2.02,1.8Z"/>
          <path class="cls-5" d="M114.35,104.9c-.71-.09-1.37-.4-1.86-.91-.58-.6-1.12-1.41-.34-1.86,1.34-.77,2.66-1.44,3.89.11,1.13,1.42,1.5,3.08-1.69,2.66Z"/>
          <path class="cls-5" d="M179.68,93.77s-3.47-1.1-2.98-2.25.85-1.52,2.98-.85,3.59.97,3.53,1.89c-.06.91-1.16,1.76-3.53,1.22Z"/>
        </g>
        <g>
          <path class="cls-10" d="M93.96,248.8s1.69-3.63,4.38-.58.46,5.2-1.29,5.66c0,0,3.61,3.28.37,5.89,0,0-1.7.77-2.65.3,0,0,1.17,2.42-1.49,3.05s-2.72-1.31-2.72-1.31c0,0,1.51,4.62-2.49,3.74-4-.89-3.7-4.22-3.7-4.22,0,0-4.72,3.52-6.32.15-1.6-3.37,3.02-5.29,3.02-5.29,0,0-4.63-1.19-3.91-3.39s3.67-1.66,3.67-1.66c0,0-4.95-2.43-2.04-4.89,2.9-2.46,4.57-.59,5.65,1.46,0,0-2.04-5.06,1.22-5.46,3.26-.41,3.48,2.28,3.48,2.28,0,0,1-3.86,4.05-2.81,2.2.75,2.45,2.68.78,7.1Z"/>
          <path class="cls-10" d="M80.63,211.45s-2.57-2.83-4.82-.52c-2.25,2.31-.15,4.76-.15,4.76,0,0-7.44.76-5.43,5.44,0,0,1.07,2.41,3.59,1.57,0,0-1.75,3.88,1.83,4.06,0,0,1.75-.14,3.31-1.11,0,0-1.74,2.35-.17,3.2s3.07.83,4.6-.08c0,0,.86,2.25,2.76,1.45s3.85-2.82,3.74-4.98c0,0,4.62-.63,4.24-4.34-.38-3.71-2.72-2.44-2.72-2.44,0,0,.89-5.79-2.82-5.3l-1.44.38s1-6.85-3.72-6.32c0,0-3.05.21-2.8,4.22Z"/>
          <path class="cls-10" d="M61.46,225.6c-.27-.58-.4-1.21-.21-1.82.28-.9.77-2.15,1.55-3.1,1.36-1.68,3.78-5.72,1.26-7.64s-4.17-.24-4.17-.24c0,0-.07-4.45-3-3.36,0,0-1.72.89-1.7,2.77,0,0-1.54-2.37-2.93-1.27s-.67,3.48-.13,4.42c0,0-5.19-2.61-6.19,2.21,0,0-3.96,5.32,2.18,6.91,0,0-.3,6.38,6.26,3.42,0,0,3.2.68,4.89-.09,1.4-.63,2.66-1.2,2.18-2.21Z"/>
          <path class="cls-10" d="M50.4,250.99s1.59-6.67-2.55-7.73c0,0,.36-6.62-3.32-6.43-3.68.18-3.07,4.09-3.07,4.09,0,0-.52-4.16-3.41-2.22-2.89,1.93-1.02,7.46-1.02,7.46,0,0-6.04.74-4.55,5.19,1.49,4.45,4.9,2.28,4.9,2.28,0,0-2.2,6.01,4.03,4.76,6.23-1.25,8.13-4.92,8.99-7.4Z"/>
          <path class="cls-10" d="M109.36,230.86s.75,5.83-2.71,6.03-3.64-5.05-3.64-5.05c0,0-.46,5.23-3.79,3.18-3.33-2.05-.86-4.21-.86-4.21,0,0-3.16.17-3.29-1.96s2.48-3.76,2.48-3.76c0,0-4.92-1.29-3.42-4.17,1.5-2.88,4.9-1.59,4.9-1.59,0,0-3.44-3.68.42-5.31,0,0,1.6-1.56,3.96,1.14,0,0,.8-2.87,3.07-2.22,2.28.64.87,4.94.87,4.94,0,0,4.41-3.66,5.69-1.52s-.42,4.85-.42,4.85c0,0,6.51-1.32,6.74,2.65.23,3.97-4.95,3.39-4.95,3.39,0,0,3.45,3.25.64,5.36s-5.69-1.72-5.69-1.72Z"/>
          <path class="cls-10" d="M116.5,205.57s-7.07.18-5.27-5,5.83-3.42,5.83-3.42c0,0-2.09-3.64,2.5-4.37s6.78.16,7.29,2.29c0,0,6.52-1.15,4.17,5.28,0,0,4.27,2.77-.32,4.73,0,0,1.67,3.94-5.53,4.84l-3.06.15s-.92,1.42-3.32,1.05c-2.4-.37-5.55-3.64-2.29-5.56Z"/>
          <path class="cls-10" d="M102.52,182.82s.34-6.87-4.78-4.87c0,0-2.53.44-2.81,3.3,0,0-7.25,1.24-3.38,6.52s5.6,6.69,10.76,5.68c5.17-1.01,8.35-2.6,7.86-6.98,0,0,2.06-4.6-2.03-5.88s-5.63,2.23-5.63,2.23Z"/>
          <path class="cls-10" d="M85.79,201.01c.51-.07.98-.35,1.27-.78.87-1.26,2.61-4.26,1.79-6.88-1.07-3.42-3.61-6.1-7.45-4.05s-5.5,3.73-3,7.52c2.25,3.43,4.81,4.55,7.39,4.19Z"/>
          <path class="cls-10" d="M65.1,239.73s-1.64-1.51-4.45-1.37-2.94-1.11-4.67.28-.76,4.7,3.15,4.85,7.7-1.69,5.97-3.76Z"/>
          <path class="cls-5" d="M89.3,256.14s2.18-2.07.29-3.17c-1.89-1.1-2.08-1.25-3.1.6s.39,3.08,2.81,2.57Z"/>
          <path class="cls-5" d="M46.21,251.8s2.32-4.68.16-3.97-3.12,3.43-2.74,4.51,1.57.36,2.58-.54Z"/>
          <path class="cls-5" d="M83.12,222.73s3.17-1.52,1.57-3.1c-1.6-1.58-3.31-1.45-4.23-.14s0,3.73,2.66,3.24Z"/>
          <path class="cls-5" d="M106.69,226.92s2.15-1.21.6-3.33c-1.55-2.12-3.85-.17-4.12.55s-.47,2.94,1.44,3.18c1.35.17,2.08-.4,2.08-.4Z"/>
          <path class="cls-5" d="M98.26,188.22c.35.69,1.18.99,1.91.73.96-.35,2.14-.99,1.58-1.94-.89-1.52-1.86-1.6-2.39-1.25-.42.29-1.79,1.11-1.1,2.47Z"/>
          <path class="cls-5" d="M121.85,204.84c.6-.38,1.08-.93,1.32-1.6.29-.78.44-1.75-.46-1.83-1.54-.15-3.02-.22-3.5,1.7-.44,1.76-.1,3.43,2.64,1.73Z"/>
          <path class="cls-5" d="M57.72,221.58s2.71-2.42,1.79-3.28-1.4-1.04-3.07.45c-1.67,1.49-2.87,2.36-2.44,3.17s1.78,1.13,3.72-.34Z"/>
        </g>
      </g>
      <path class="cls-5" d="M184.68,198.6s-4.95-1.62-4.03-4.67.96-4.77,4.03-3.96,4.09,2.44,3.99,4.22-.97,4.31-3.99,4.42Z"/>
      <path class="cls-5" d="M223.9,212.81s-1.42-4.57,1.93-5.48,5.18,1.32,5.28,3.35c.1,2.03-1.3,5-3.75,4.69s-2.66-1.35-3.46-2.56Z"/>
      <path class="cls-5" d="M206.02,157.14s-4.41-.65-3.11-2.6,0-2.67,2.75-2.1c2.75.58,3.54,2.24,2.6,3.25-.94,1.01-.36,1.45-2.24,1.45Z"/>
      <path class="cls-5" d="M230.23,162.78s-1.59-2.39,0-2.89l1.59-.51s1.88.14,2.46.8-.07,3.11-1.52,3.04-1.52.14-2.53-.43Z"/>
      <path class="cls-5" d="M243.97,179.7s-.87-2.17.36-2.89c1.23-.72,3.04,0,3.47,1.45.43,1.45.8,3.4-.8,3.69s-2.77-.32-3.04-2.24Z"/>
      <path class="cls-5" d="M127.79,150.01c-.63-.12-1.19-.48-1.59-.98-.51-.63-1.04-1.52-.43-1.97,1.01-.76,2.44-1.76,3.44-.67s1.34,2.94.34,3.36c-.71.3-1.13.38-1.76.26Z"/>
      <path class="cls-5" d="M101.99,144.48s-2.21-.45-1.57-1.87,2.4-1.61,3.07-1.14,1.18,1.39.59,2.15c-.59.76-.79,1-2.1.87Z"/>
      <path class="cls-5" d="M72.71,123.05c-.8.55-1.95.32-2.39-.54-.21-.41-.28-.96.02-1.69.81-1.94,1.44-3.47,2.7-3.38s1.62,2.27.99,3.38c-.45.79-.55,1.7-1.31,2.23Z"/>
      <path class="cls-5" d="M66.07,150.18c-.41.8-1.5.96-2.22.42-.66-.5-1.33-1.34-.52-2.43,1.33-1.82,2.15-1.76,2.61-.83.31.62.59,1.93.13,2.85Z"/>
    </g>
    <path d="M171.67,306c4.79-6.45,9.49-12.98,14.43-19.31,2.27-2.92,4.64-5.76,7.2-8.43s5.51-5.23,8.55-7.51c3.45-2.58,7.07-4.92,10.68-7.26.16-.1.01-.36-.15-.26-6.38,4.13-12.77,8.31-18.19,13.69s-9.86,11.53-14.37,17.6c-2.81,3.78-5.61,7.55-8.42,11.33-.12.16.15.3.26.15h0Z"/>
    <path d="M181.45,298.72c1.15-.95,2.74-1.38,4.11-1.93,1.49-.6,2.97-1.19,4.46-1.79,2.94-1.18,5.89-2.36,8.83-3.55.18-.07.1-.36-.08-.29-3.05,1.23-6.1,2.45-9.15,3.68-1.51.61-3.02,1.21-4.54,1.82-1.3.52-2.74.95-3.84,1.85-.15.12.06.33.21.21h0Z"/>
    <path d="M196.1,280.19c3.77-1.73,7.72-3.07,11.77-3.99.19-.04.11-.33-.08-.29-4.07.93-8.04,2.28-11.84,4.02-.18.08-.02.34.15.26h0Z"/>
    <path d="M188.86,288.37c.43-.64,1.1-1.01,1.79-1.33s1.43-.64,2.15-.95c1.55-.67,3.11-1.3,4.69-1.9,3.1-1.17,6.24-2.21,9.43-3.12.19-.05.11-.34-.08-.29-3.35.95-6.66,2.05-9.91,3.3-1.57.6-3.13,1.24-4.67,1.91-1.26.55-2.84,1.03-3.64,2.22-.11.16.15.31.26.15h0Z"/>
    <path d="M195.99,265.31c-1.7,3.37-2.76,7.04-3.13,10.8-.02.19.28.19.3,0,.36-3.7,1.42-7.32,3.09-10.65.09-.17-.17-.32-.26-.15h0Z"/>
    <path d="M190.74,269.77c-1.9,3.77-3.86,7.71-3.99,12.02,0,.19.29.19.3,0,.13-4.25,2.07-8.14,3.95-11.87.09-.17-.17-.32-.26-.15h0Z"/>
    <path d="M181.33,274.03c-.44,3.97-.4,7.99.11,11.95.02.19.32.19.3,0-.51-3.96-.54-7.98-.11-11.95.02-.19-.28-.19-.3,0h0Z"/>
    <path d="M175.52,281.98c-.58,4.22-.33,8.53.75,12.65.05.19.34.11.29-.08-1.06-4.07-1.32-8.33-.75-12.49.03-.19-.26-.27-.29-.08h0Z"/>
    <path d="M171.02,289.17c-.18,1.37-.03,2.75.11,4.12s.2,2.61.08,3.92c-.25,2.68-1.09,5.25-1.92,7.79-.06.18.23.26.29.08.82-2.52,1.65-5.07,1.92-7.73.14-1.36.07-2.71-.06-4.07s-.28-2.74-.11-4.12c.02-.19-.28-.19-.3,0h0Z"/>
    <path d="M166.78,300.72c-.5,2.99-1,5.98-1.5,8.96-.03.19.26.27.29.08.5-2.99,1-5.98,1.5-8.96.03-.19-.26-.27-.29-.08h0Z"/>
    <path d="M174.68,305.64c2.66-2.31,5.77-4.1,9.1-5.23.95-.32,1.91-.59,2.89-.81.19-.04.11-.33-.08-.29-3.5.77-6.83,2.23-9.77,4.28-.82.57-1.61,1.19-2.36,1.84-.15.13.07.34.21.21h0Z"/>
    <path d="M203.92,266.54c3.61-3.2,7.33-6.47,11.77-8.48,1.25-.57,2.55-1.02,3.89-1.33.19-.04.11-.33-.08-.29-4.79,1.13-8.88,4-12.6,7.11-1.08.9-2.14,1.84-3.19,2.77-.14.13.07.34.21.21h0Z"/>
    <path d="M203.61,272.58c3.4-1.54,6.95-2.72,10.59-3.53.19-.04.11-.33-.08-.29-3.67.81-7.25,2-10.67,3.56-.18.08-.02.34.15.26h0Z"/>
    <path d="M158.21,332.47c8.53-6.7,18.56-11.08,28.72-14.68,2.89-1.02,5.8-1.99,8.71-2.94.18-.06.1-.35-.08-.29-10.34,3.37-20.72,6.98-30.09,12.58-2.59,1.55-5.09,3.25-7.46,5.12-.15.12.06.33.21.21h0Z"/>
    <path d="M186.08,324.03c6.18-2.83,12.75-4.76,19.48-5.72.19-.03.11-.32-.08-.29-6.76.96-13.35,2.9-19.55,5.75-.18.08-.02.34.15.26h0Z"/>
    <path d="M170.31,328.61c6.21-1.71,12.67-2.45,19.11-2.19.19,0,.19-.29,0-.3-6.47-.26-12.95.48-19.19,2.2-.19.05-.11.34.08.29h0Z"/>
    <path d="M200.08,315.89c3.94-1.21,7.94-2.22,11.98-3.03.19-.04.11-.33-.08-.29-4.04.81-8.04,1.82-11.98,3.03-.18.06-.11.35.08.29h0Z"/>
    <path d="M185.36,314.96c6.31-2.19,12.87-3.64,19.51-4.32.19-.02.19-.32,0-.3-6.67.68-13.26,2.14-19.59,4.33-.18.06-.1.35.08.29h0Z"/>
    <path d="M72.26,284.66c7.43,3.47,13.92,8.71,20.35,13.73,5.95,4.64,11.81,9.51,16.72,15.27,2.79,3.26,5.23,6.81,7.15,10.65.09.17.35.02.26-.15-3.39-6.78-8.4-12.55-13.95-17.65s-12.04-10.09-18.34-14.71c-3.8-2.79-7.76-5.39-12.04-7.39-.17-.08-.33.18-.15.26h0Z"/>
    <path d="M100.17,293.74c3.48,5.06,6.34,10.55,8.48,16.31.07.18.36.1.29-.08-2.15-5.79-5.01-11.29-8.51-16.38-.11-.16-.37,0-.26.15h0Z"/>
    <path d="M86.2,281.47c3.03,1.92,5.49,4.71,7.04,7.94.44.92.81,1.88,1.09,2.85.05.18.34.11.29-.08-1.03-3.5-3.07-6.7-5.8-9.12-.77-.68-1.6-1.3-2.47-1.86-.16-.1-.31.16-.15.26h0Z"/>
    <path d="M74.85,277.65c1.67,1.14,3.08,2.64,4.13,4.36.3.49.56.99.8,1.51.08.18.34.02.26-.15-.85-1.87-2.11-3.56-3.65-4.91-.44-.38-.9-.74-1.38-1.07-.16-.11-.31.15-.15.26h0Z"/>
    <path d="M76.09,296.64c3.97,1.42,8.13,2.27,12.33,2.52.19.01.19-.29,0-.3-4.18-.25-8.31-1.1-12.25-2.51-.18-.07-.26.22-.08.29h0Z"/>
    <path d="M84.59,303.76c3.71,1.28,7.64,1.9,11.57,1.82.19,0,.19-.3,0-.3-3.9.08-7.8-.54-11.49-1.81-.18-.06-.26.23-.08.29h0Z"/>
    <path d="M92.64,312.34c4.55.93,9.18,1.42,13.83,1.47.19,0,.19-.3,0-.3-4.62-.05-9.22-.54-13.75-1.46-.19-.04-.27.25-.08.29h0Z"/>
    <path d="M180.07,186.12c.73.86,1.33,1.82,1.78,2.85.13.29.24.59.35.89.06.18.35.1.29-.08-.38-1.1-.91-2.14-1.59-3.09-.19-.27-.4-.53-.61-.79-.12-.15-.34.07-.21.21h0Z"/>
    <path d="M176.17,195.22c1-.5,2.03-.93,3.1-1.27.18-.06.1-.35-.08-.29-1.09.35-2.15.79-3.17,1.3-.17.09-.02.35.15.26h0Z"/>
    <path d="M177.29,200.87c.73-.8,1.46-1.61,2.19-2.41l.62-.68c.13-.14-.08-.36-.21-.21l-2.19,2.41-.62.68c-.13.14.08.36.21.21h0Z"/>
    <path d="M179.77,201.65c.4-1.01.93-1.98,1.56-2.86.18-.25.37-.5.57-.74.05-.06.06-.15,0-.21-.05-.05-.16-.06-.21,0-.72.87-1.33,1.83-1.82,2.85-.14.29-.26.58-.38.88-.03.08.03.16.1.18.09.02.15-.03.18-.1h0Z"/>
    <path d="M182.83,203.49c.15-1.41.25-2.82.29-4.23,0-.19-.29-.19-.3,0-.04,1.41-.14,2.83-.29,4.23,0,.08.08.15.15.15.09,0,.14-.07.15-.15h0Z"/>
    <path d="M189,202.16l-1.72-2.99c-.1-.17-.36-.02-.26.15l1.72,2.99c.1.17.36.02.26-.15h0Z"/>
    <path d="M190.38,201.47c-.35-.71-.75-1.39-1.21-2.03-.13-.19-.27-.37-.42-.56-.05-.06-.16-.05-.21,0-.06.06-.05.15,0,.21.61.79,1.14,1.64,1.58,2.53.04.07.14.09.21.05.07-.04.09-.13.05-.21h0Z"/>
    <path d="M193.27,199.5c-1.09-.61-2.21-1.23-3.08-2.13-.24-.25-.47-.52-.66-.82-.1-.16-.36-.01-.26.15.71,1.09,1.78,1.86,2.88,2.51.32.19.64.37.96.55.17.09.32-.17.15-.26h0Z"/>
    <path d="M189.84,194.62h2.71c.19,0,.19-.3,0-.3h-2.71c-.19,0-.19.3,0,.3h0Z"/>
    <path d="M189.6,191.66c.61-.54,1.24-1.05,1.9-1.53.19-.13.38-.27.57-.4.07-.05.1-.13.05-.21-.04-.07-.14-.1-.21-.05-.69.47-1.36.97-1.99,1.51-.18.15-.36.3-.53.46-.06.05-.05.16,0,.21.06.06.15.05.21,0h0Z"/>
    <path d="M187.02,189.53c.7-1,1.59-1.85,2.5-2.65.26-.23.53-.46.79-.68.06-.05.05-.16,0-.21-.06-.06-.15-.05-.21,0-.94.8-1.88,1.61-2.69,2.55-.23.27-.45.55-.65.84-.05.07-.01.17.05.21.07.04.16.01.21-.05h0Z"/>
    <path d="M183.7,186c.14,1.09.27,2.18.41,3.26.01.08.06.15.15.15.07,0,.16-.07.15-.15-.14-1.09-.27-2.18-.41-3.26-.01-.08-.06-.15-.15-.15-.07,0-.16.07-.15.15h0Z"/>
    <path d="M176.16,190.81c1.22-.07,2.44-.01,3.64.17.08.01.16-.02.18-.1.02-.07-.02-.17-.1-.18-1.23-.18-2.48-.25-3.72-.18-.19.01-.19.31,0,.3h0Z"/>
    <path d="M222.99,203.83c.52.62,1.07,1.21,1.64,1.78.16.16.33.32.5.48.06.06.15.06.21,0s.06-.16,0-.21c-.59-.55-1.15-1.13-1.69-1.73-.15-.17-.3-.35-.45-.52-.05-.06-.16-.05-.21,0-.06.06-.05.15,0,.21h0Z"/>
    <path d="M226.77,203.05c-.04.95,0,1.91.11,2.86,0,.08.06.15.15.15.07,0,.16-.07.15-.15-.12-.95-.15-1.91-.11-2.86,0-.19-.29-.19-.3,0h0Z"/>
    <path d="M230.52,203.64c-.46.87-.81,1.79-1.03,2.75-.04.19.25.27.29.08.21-.93.55-1.83,1-2.68.09-.17-.17-.32-.26-.15h0Z"/>
    <path d="M231.45,207.42c.76-.41,1.52-.82,2.28-1.23.07-.04.09-.14.05-.21-.04-.07-.13-.09-.21-.05-.76.41-1.52.82-2.28,1.23-.07.04-.09.14-.05.21.04.07.13.09.21.05h0Z"/>
    <path d="M232.63,212.12c1.18-.51,2.36-1.04,3.52-1.6.17-.08.02-.34-.15-.26-1.16.56-2.33,1.1-3.52,1.6-.07.03-.09.14-.05.21.05.08.13.09.21.05h0Z"/>
    <path d="M231.75,214.76c1.29.13,2.59.25,3.88.38.08,0,.15-.07.15-.15,0-.09-.07-.14-.15-.15-1.29-.13-2.59-.25-3.88-.38-.08,0-.15.07-.15.15,0,.09.07.14.15.15h0Z"/>
    <path d="M230.32,215.98c.82.74,1.66,1.45,2.53,2.13.25.2.49.39.74.58.06.05.17,0,.21-.05.05-.08.01-.16-.05-.21-.86-.66-1.7-1.35-2.52-2.06-.23-.2-.46-.4-.69-.61-.14-.13-.36.08-.21.21h0Z"/>
    <path d="M227.5,216.53c0,.81,0,1.61,0,2.42,0,.19.3.19.3,0,0-.81,0-1.61,0-2.42,0-.19-.3-.19-.3,0h0Z"/>
    <path d="M222.01,216.45c.57-.49,1.21-.91,1.89-1.24.19-.09.39-.18.59-.25.08-.03.13-.1.1-.18-.02-.07-.11-.13-.18-.1-.74.29-1.44.67-2.07,1.14-.18.14-.36.28-.53.43-.06.05-.05.16,0,.21.06.06.15.05.21,0h0Z"/>
    <g>
      <path class="cls-11" d="M219.52,210.88c1.09.02,2.17.18,3.22.45"/>
      <path d="M219.52,211.03c1.07.03,2.14.18,3.18.45.19.05.27-.24.08-.29-1.06-.28-2.16-.43-3.26-.46-.19,0-.19.3,0,.3h0Z"/>
    </g>
    <path d="M249.34,178.74c1.2-.43,2.48-.61,3.75-.52.19.01.19-.29,0-.3-1.3-.09-2.61.09-3.83.53-.18.07-.1.36.08.29h0Z"/>
    <path d="M248.39,177.37c1.2-.63,2.47-1.14,3.77-1.5.19-.05.11-.34-.08-.29-1.33.37-2.62.88-3.85,1.53-.17.09-.02.35.15.26h0Z"/>
    <path d="M245.31,175.3c-.05-1.09.24-2.18.84-3.1.11-.16-.15-.31-.26-.15-.62.96-.94,2.11-.88,3.25,0,.19.31.19.3,0h0Z"/>
    <path d="M249.01,182.85c.96.39,2.01.57,3.05.52.19,0,.19-.31,0-.3-1.02.05-2.03-.13-2.97-.51-.08-.03-.16.03-.18.1-.02.09.03.15.1.18h0Z"/>
    <path d="M246.83,183.95c.78.43,1.64.7,2.53.8.08,0,.15-.07.15-.15,0-.09-.07-.14-.15-.15-.83-.09-1.64-.35-2.38-.75-.17-.09-.32.16-.15.26h0Z"/>
    <path d="M229.99,155.35c-.12,1-.06,2.01.18,2.98.05.19.34.11.29-.08-.23-.95-.29-1.93-.17-2.9,0-.08-.08-.15-.15-.15-.09,0-.14.07-.15.15h0Z"/>
    <path d="M233.22,154.37c.29,1.33.03,2.76-.7,3.9-.1.16.15.31.26.15.78-1.21,1.05-2.73.74-4.14-.04-.19-.33-.11-.29.08h0Z"/>
    <path d="M234.73,156.67c.04.67-.07,1.35-.34,1.97-.03.07-.02.16.05.21.06.04.17.02.21-.05.28-.67.42-1.39.38-2.12,0-.08-.07-.15-.15-.15-.08,0-.15.07-.15.15h0Z"/>
    <path d="M225.8,159.11c.87.48,1.89.71,2.89.62.08,0,.15-.06.15-.15,0-.08-.07-.16-.15-.15-.95.08-1.9-.12-2.73-.58-.17-.09-.32.17-.15.26h0Z"/>
    <path d="M226.62,163.37c.74-.17,1.45-.48,2.09-.91.07-.05.1-.13.05-.21-.04-.07-.14-.1-.21-.05-.62.41-1.29.71-2.02.88-.08.02-.13.11-.1.18.02.08.11.12.18.1h0Z"/>
    <path d="M227.7,166.32c.7-.58,1.43-1.12,2.2-1.6.22-.14.44-.27.66-.41.17-.1.02-.36-.15-.26-.8.47-1.57.99-2.3,1.56-.21.16-.42.33-.62.5-.06.05-.05.16,0,.21.06.06.15.05.21,0h0Z"/>
    <path d="M232.81,164.36c-.02.81.19,1.61.61,2.3.1.16.36.01.26-.15-.39-.65-.59-1.4-.57-2.15,0-.08-.07-.15-.15-.15-.08,0-.15.07-.15.15h0Z"/>
    <path d="M235.24,164.09c.82.02,1.62.31,2.28.81.18.14.35.3.51.46.13.14.34-.07.21-.21-.59-.64-1.39-1.09-2.25-1.27-.25-.05-.5-.08-.75-.09-.19,0-.19.29,0,.3h0Z"/>
    <path d="M235.94,161.45c1.18-.43,2.43-.63,3.69-.57.19,0,.19-.29,0-.3-1.28-.06-2.57.14-3.77.58-.18.07-.1.36.08.29h0Z"/>
    <path d="M236.35,162.55c.76-.12,1.54-.18,2.31-.19.19,0,.19-.3,0-.3-.8,0-1.6.07-2.39.2-.08.01-.12.11-.1.18.02.09.1.12.18.1h0Z"/>
    <path d="M204.13,147.41c.07,1.53.36,3.04.87,4.48.06.18.35.1.29-.08-.5-1.42-.79-2.9-.86-4.4,0-.19-.31-.19-.3,0h0Z"/>
    <path d="M208.62,152.35c1.26-.69,2.49-1.45,3.67-2.28.16-.11,0-.37-.15-.26-1.18.83-2.4,1.59-3.67,2.28-.17.09-.02.35.15.26h0Z"/>
    <path d="M209.38,155.38c1.1-.26,2.28-.14,3.3.35.07.03.16.02.21-.05.04-.07.02-.17-.05-.21-1.1-.52-2.35-.65-3.53-.38-.19.04-.11.33.08.29h0Z"/>
    <path d="M208.97,157.34c.56.54,1.18,1.03,1.84,1.45.19.12.37.23.57.34.17.1.32-.16.15-.26-.66-.38-1.28-.81-1.86-1.31-.16-.14-.33-.29-.48-.44-.14-.13-.35.08-.21.21h0Z"/>
    <path d="M204.31,157.94c-.44.69-.71,1.47-.81,2.28,0,.08.08.15.15.15.09,0,.14-.07.15-.15.09-.75.35-1.49.76-2.13.04-.07.01-.17-.05-.21-.07-.04-.16-.01-.21.05h0Z"/>
    <path d="M203.09,157.26c-.69.99-1.41,2.09-1.22,3.35.01.08.11.12.18.1.09-.02.12-.1.1-.18-.17-1.17.56-2.22,1.19-3.12.05-.07.01-.17-.05-.21-.07-.04-.16-.01-.21.05h0Z"/>
    <path d="M198.55,155.71c.98-.34,2-.54,3.04-.59.19-.01.19-.31,0-.3-1.06.06-2.11.26-3.11.6-.18.06-.1.35.08.29h0Z"/>
    <path d="M199.18,151.22c.99.06,1.95.43,2.73,1.03.22.17.43.37.62.57.13.14.34-.07.21-.21-.71-.77-1.66-1.33-2.68-1.57-.29-.07-.59-.11-.89-.13-.19-.01-.19.29,0,.3h0Z"/>
    <path d="M166.33,130.99c-.14.62-.28,1.24-.42,1.86-.02.08.02.17.1.18.08.02.17-.02.18-.1.14-.62.28-1.24.42-1.86.02-.08-.02-.17-.1-.18-.08-.02-.17.02-.18.1h0Z"/>
    <path d="M164.25,130.65c-.19.73-.07,1.53.29,2.19.1.19.23.36.37.52.05.06.16.05.21,0,.06-.06.05-.15,0-.21-.45-.5-.68-1.18-.66-1.85,0-.19.03-.38.08-.56s-.24-.27-.29-.08h0Z"/>
    <path d="M160.17,132.91l3.03,1.74c.17.1.32-.16.15-.26-1.01-.58-2.02-1.16-3.03-1.74-.17-.1-.32.16-.15.26h0Z"/>
    <path d="M160.53,140.08c.86-.32,1.68-.75,2.42-1.29.21-.15.42-.32.62-.49.06-.05.05-.16,0-.21-.06-.06-.15-.05-.21,0-.67.57-1.42,1.05-2.21,1.42-.23.1-.46.2-.69.29-.08.03-.13.1-.1.18.02.07.11.13.18.1h0Z"/>
    <path d="M163.01,140.53c.52-.26.97-.66,1.29-1.14.09-.13.17-.27.23-.42.03-.07.02-.17-.05-.21-.07-.04-.17-.02-.21.05-.06.12-.12.25-.2.36-.04.06-.08.12-.12.18,0,.01-.02.03-.03.04,0,0,0,.01-.01.02.02-.02,0,0,0,0-.02.03-.04.06-.07.08-.09.11-.18.2-.29.3-.05.05-.11.09-.16.14-.01,0-.02.02-.04.03.03-.02,0,0-.02.01-.03.02-.06.04-.09.06-.13.09-.26.17-.41.24-.07.03-.1.14-.05.21.05.07.13.09.21.05h0Z"/>
    <path d="M167.49,139.04c.48.58,1.05,1.1,1.67,1.53.17.12.35.24.54.34.07.04.16.02.21-.05s.02-.16-.05-.21c-.64-.37-1.21-.83-1.73-1.36-.15-.15-.29-.31-.42-.47-.05-.06-.16-.05-.21,0-.06.06-.05.15,0,.21h0Z"/>
    <path d="M169.21,136.9c.19.22.46.33.73.41.32.1.65.2.97.29.65.17,1.31.31,1.98.42.08.01.16-.02.18-.1.02-.07-.02-.17-.1-.18-.64-.1-1.28-.23-1.91-.4-.31-.08-.62-.17-.93-.27-.26-.08-.53-.16-.71-.37-.13-.15-.34.07-.21.21h0Z"/>
    <path d="M168.32,135.41c1.04-.17,2.06-.45,3.03-.84.08-.03.13-.1.1-.18-.02-.07-.11-.14-.18-.1-.98.39-1.99.68-3.03.84-.08.01-.12.11-.1.18.02.09.1.12.18.1h0Z"/>
    <path d="M167.7,134c.61,0,1.22-.19,1.72-.54.06-.04.1-.13.05-.21-.04-.06-.14-.1-.21-.05-.12.08-.24.16-.37.22s-.23.1-.38.15c-.14.04-.28.08-.42.1-.02,0-.03,0-.05,0,.03,0-.03,0-.03,0-.04,0-.07,0-.11.01-.07,0-.15,0-.22,0-.08,0-.15.07-.15.15s.07.15.15.15h0Z"/>
    <path d="M159.11,136.39c1.02.35,2.17.72,3.23.32.08-.03.13-.1.1-.18-.02-.07-.11-.13-.18-.1-1.01.38-2.1.02-3.07-.32-.18-.06-.26.23-.08.29h0Z"/>
    <g>
      <path class="cls-11" d="M166.19,139.34c.33.73.76,1.42,1.27,2.04"/>
      <path d="M166.06,139.42c.26.58.58,1.12.95,1.63.11.15.23.3.34.44.05.06.16.05.21,0,.06-.06.05-.15,0-.21-.39-.47-.73-.99-1.02-1.53-.08-.16-.16-.32-.23-.48-.03-.07-.14-.09-.21-.05-.08.04-.09.13-.05.21h0Z"/>
    </g>
    <path d="M200.28,108.84c.69.95,1.04,2.11,1,3.28,0,.19.29.19.3,0,.04-1.22-.33-2.44-1.04-3.43-.05-.07-.13-.1-.21-.05-.06.04-.1.14-.05.21h0Z"/>
    <path d="M204.88,108.33c-.09,1.52-.43,3.01-1.01,4.41-.03.08.03.16.1.18.09.02.15-.03.18-.1.59-1.43.93-2.95,1.02-4.49.01-.19-.29-.19-.3,0h0Z"/>
    <path d="M205.19,113.7c.59-.63,1.22-1.22,1.88-1.76.19-.15.38-.3.57-.44.06-.05.1-.13.05-.21-.04-.06-.14-.1-.21-.05-.7.52-1.37,1.09-1.99,1.71-.18.18-.35.36-.52.54-.13.14.08.35.21.21h0Z"/>
    <path d="M206.02,114.97c.8-.86,1.75-1.57,2.79-2.09.29-.15.6-.28.9-.4.08-.03.13-.1.1-.18-.02-.07-.11-.13-.18-.1-1.13.43-2.18,1.05-3.09,1.85-.26.22-.5.46-.74.71-.13.14.08.35.21.21h0Z"/>
    <path d="M206,116.82c1.48.16,2.99.02,4.43-.38.19-.05.11-.34-.08-.29-1.41.4-2.89.52-4.35.37-.19-.02-.19.28,0,.3h0Z"/>
    <path d="M204.06,118.27c1.5.43,3.08.59,4.64.46.19-.02.19-.32,0-.3-1.54.13-3.08-.02-4.56-.45-.19-.05-.27.24-.08.29h0Z"/>
    <path d="M199.01,110.73c-.12.78-.12,1.57,0,2.36.01.08.11.12.18.1.09-.02.12-.1.1-.18-.11-.73-.11-1.47,0-2.2.01-.08-.02-.16-.1-.18-.07-.02-.17.02-.18.1h0Z"/>
    <path d="M175.15,88.52c.22.45.52.87.88,1.22.1.1.21.19.32.28.03.03.06.04.11.04.04,0,.08-.02.11-.04.05-.05.07-.16,0-.21-.19-.15-.37-.32-.53-.5-.04-.05-.08-.09-.12-.14-.02-.02-.04-.04-.05-.07.02.03,0-.01-.01-.02,0-.01-.02-.03-.03-.04-.07-.1-.14-.2-.2-.3-.07-.12-.14-.24-.2-.37-.03-.07-.14-.1-.21-.05-.07.05-.09.13-.05.21h0Z"/>
    <path d="M180.26,87.5c.15.87.2,1.75.16,2.63,0,.19.29.19.3,0,.04-.91-.02-1.81-.18-2.71-.01-.08-.11-.12-.18-.1-.08.02-.12.1-.1.18h0Z"/>
    <path d="M181.69,88.95l.16.85c.01.07.02.13.04.2,0,.02,0,.03,0,.05,0,0,0,.05,0,0,0,.03,0,.06,0,.09s0,.06,0,.08c0,.01,0,.03,0,.04.01-.04,0,0,0,.02,0,.01,0,.02,0,.03,0,0,0,.01,0,.02,0-.02,0-.02,0,0,0,0-.01.02-.02.03,0,0,0,.01-.01.02.01-.01.01-.02,0,0-.05.06-.06.15,0,.21.06.05.16.06.21,0,.2-.23.13-.53.08-.8l-.17-.91c-.01-.08-.11-.13-.18-.1-.08.03-.12.1-.1.18h0Z"/>
    <path d="M183.18,94.36c1.24.28,2.51.33,3.77.15.08-.01.12-.11.1-.18-.02-.09-.1-.12-.18-.1-1.2.17-2.43.12-3.61-.15-.19-.04-.27.25-.08.29h0Z"/>
    <path d="M180.99,95.34c1.15.51,2.42.71,3.68.57.08,0,.15-.06.15-.15,0-.07-.07-.16-.15-.15-1.2.13-2.42-.05-3.53-.53-.07-.03-.16-.02-.21.05-.04.06-.02.17.05.21h0Z"/>
    <path d="M172.59,90.69c.92.58,1.94,1.02,3.01,1.28.19.05.27-.24.08-.29-1.04-.26-2.03-.68-2.93-1.25-.16-.1-.31.16-.15.26h0Z"/>
    <path d="M183.87,91.7c.92-.34,1.71-.99,2.22-1.81.15-.23.27-.48.37-.74.03-.08-.03-.16-.1-.18-.08-.02-.16.03-.18.1-.32.83-.94,1.55-1.7,2.01-.22.13-.44.24-.68.33-.08.03-.13.1-.1.18.02.07.11.13.18.1h0Z"/>
    <path d="M151.87,99.49c.88.1,1.74.45,2.44.99.06.05.15.06.21,0,.05-.05.06-.16,0-.21-.59-.46-1.28-.8-2.02-.97-.21-.05-.43-.08-.64-.11-.08,0-.15.08-.15.15,0,.09.07.14.15.15h0Z"/>
    <path d="M155.82,97.58c.45.51.8,1.11,1.03,1.75.07.19.12.38.17.57.02.08.11.13.18.1.08-.02.12-.11.1-.18-.17-.7-.47-1.38-.89-1.97-.12-.17-.25-.33-.39-.49-.05-.06-.16-.05-.21,0-.06.06-.05.15,0,.21h0Z"/>
    <path d="M150.15,101.93c.63.49,1.36.85,2.13,1.03.23.05.45.09.69.12.08,0,.15-.08.15-.15,0-.09-.07-.14-.15-.15-.94-.11-1.86-.48-2.61-1.06-.06-.05-.15-.06-.21,0-.05.05-.06.16,0,.21h0Z"/>
    <path d="M150.27,107.33c1.35-.33,2.65-.91,3.79-1.71.16-.11,0-.37-.15-.26-1.13.78-2.39,1.35-3.72,1.68-.19.05-.11.34.08.29h0Z"/>
    <path d="M157.35,106.27c.25.81.33,1.66.26,2.5,0,.08.07.15.15.15.09,0,.14-.07.15-.15.08-.87-.01-1.75-.27-2.58-.06-.18-.35-.11-.29.08h0Z"/>
    <path d="M160.29,103.47c.17-.08.38-.02.55.02.22.05.43.12.64.2.41.15.8.34,1.17.58.16.1.31-.16.15-.26-.4-.25-.84-.46-1.28-.62-.22-.08-.44-.15-.67-.2-.24-.06-.48-.08-.71.03-.07.03-.09.14-.05.21.04.08.13.09.21.05h0Z"/>
    <path d="M159.68,100.68c1.18-.61,2.48-.99,3.81-1.1.19-.02.19-.32,0-.3-1.38.11-2.73.5-3.96,1.14-.17.09-.02.35.15.26h0Z"/>
    <path d="M159.13,99.05c.13-.28.34-.51.59-.67.29-.19.62-.31.96-.4.21-.05.42-.1.63-.14.08-.02.13-.11.1-.18-.02-.08-.1-.12-.18-.1-.73.15-1.5.32-2.03.87-.13.14-.25.3-.33.48-.03.07-.02.16.05.21.06.04.17.02.21-.05h0Z"/>
    <path d="M155.73,107.36s0,.06-.01.09c0-.02,0,.02,0,.02,0,.02,0,.04,0,.06-.01.06-.02.13-.04.19-.03.13-.07.26-.11.38-.01.03-.02.06-.03.09,0,.01-.01.03-.02.04,0,0,0,.02,0,.01,0,0,0,.02,0,.02-.03.06-.06.12-.09.18-.06.12-.13.23-.2.34-.09.13-.16.22-.26.34-.05.06-.06.16,0,.21.06.05.16.06.21,0,.38-.42.65-.94.79-1.49.04-.16.07-.33.08-.49,0-.08-.07-.15-.15-.15-.09,0-.14.07-.15.15h0Z"/>
    <path d="M129.22,77.5c.2-1.11,1-1.97,1.88-2.62.26-.2.54-.38.82-.55.16-.1.01-.36-.15-.26-.99.63-1.99,1.36-2.53,2.44-.14.29-.25.59-.31.91-.01.08.02.16.1.18.07.02.17-.02.18-.1h0Z"/>
    <path d="M130.26,79.17c.22-.73.71-1.38,1.35-1.79.09-.06.19-.11.28-.16.11-.05.19-.09.29-.13.08-.03.13-.1.1-.18-.02-.07-.11-.13-.18-.1-.79.3-1.46.89-1.86,1.64-.11.21-.21.43-.28.66-.02.08.03.16.1.18s.16-.03.18-.1h0Z"/>
    <path d="M123.52,80.08c-1.65-.12-3.3-.11-4.95.04-.19.02-.19.32,0,.3,1.64-.14,3.3-.15,4.95-.04.19.01.19-.29,0-.3h0Z"/>
    <path d="M124.59,82.08c-1.63-.56-3.45-.45-5.02.27-.18.08-.02.34.15.26,1.49-.69,3.23-.77,4.79-.24.18.06.26-.23.08-.29h0Z"/>
    <path d="M127.2,83.43c-1.65-.09-3.38-.16-4.94.49-.08.03-.13.1-.1.18.02.07.11.14.18.1,1.53-.64,3.23-.56,4.86-.48.19.01.19-.29,0-.3h0Z"/>
    <path d="M129.61,82.41c.55-.82,1.26-1.53,2.08-2.07.24-.16.48-.3.73-.42.07-.04.09-.14.05-.21-.04-.07-.13-.09-.21-.05-.91.46-1.73,1.11-2.39,1.89-.19.23-.37.46-.53.71-.05.07-.01.17.05.21.07.04.16.01.21-.05h0Z"/>
    <path d="M126,77.06c-.2-.83-.07-1.72.35-2.46.1-.17-.16-.32-.26-.15-.46.81-.6,1.79-.38,2.69.05.19.33.11.29-.08h0Z"/>
    <path d="M148.31,78.48c.06,1.08.12,2.21-.33,3.22-.4.91-1.11,1.63-1.84,2.29-.14.13.07.34.21.21.6-.53,1.17-1.11,1.59-1.8.45-.73.65-1.54.69-2.39.02-.51,0-1.02-.03-1.53-.01-.19-.31-.19-.3,0h0Z"/>
    <path d="M144.58,79.7c-.21,1.18-.05,2.4.47,3.49.03.07.14.09.21.05.07-.04.09-.13.05-.21-.48-1.01-.63-2.16-.44-3.26.01-.08-.02-.16-.1-.18-.07-.02-.17.02-.18.1h0Z"/>
    <path d="M142.4,77.17c-.25,1.69-.47,3.51.39,5.08.09.17.35.02.26-.15-.81-1.49-.59-3.24-.36-4.85.03-.19-.26-.27-.29-.08h0Z"/>
    <path d="M114.42,97.95c-.04.74-.05,1.49-.03,2.23,0,.08.07.15.15.15.08,0,.15-.07.15-.15-.03-.74-.02-1.49.03-2.23,0-.08-.07-.15-.15-.15-.09,0-.15.07-.15.15h0Z"/>
    <path d="M109.77,96.69c-.15,1.2.27,2.45,1.07,3.35.23.25.49.48.77.67.16.11.31-.15.15-.26-.93-.62-1.56-1.68-1.7-2.79-.04-.32-.04-.65,0-.97.01-.08-.08-.15-.15-.15-.09,0-.14.07-.15.15h0Z"/>
    <path d="M105.75,102.55c1.46.3,2.97.3,4.43,0,.19-.04.11-.33-.08-.29-1.41.28-2.87.28-4.27,0-.19-.04-.27.25-.08.29h0Z"/>
    <path d="M107.77,107.1c1.28-.09,2.7-.21,3.65-1.19.13-.14-.08-.35-.21-.21-.89.92-2.23,1.02-3.43,1.1-.19.01-.19.31,0,.3h0Z"/>
    <path d="M113.18,105.89c-.39.89-1.09,1.61-1.96,2.04-.24.12-.5.21-.76.28-.19.05-.11.34.08.29.99-.26,1.87-.88,2.47-1.71.17-.23.31-.48.42-.74.03-.07.02-.16-.05-.21-.06-.04-.17-.02-.21.05h0Z"/>
    <path d="M115.93,106.57c.51.43.93.93,1.27,1.49.1.16.19.32.27.49.04.07.14.09.21.05.07-.04.09-.13.05-.21-.3-.61-.69-1.17-1.17-1.66-.13-.14-.27-.27-.42-.39-.06-.05-.15-.06-.21,0-.05.05-.06.16,0,.21h0Z"/>
    <path d="M117.93,105.64c.2.05.37.11.54.2.09.04.17.09.26.14.04.03.09.06.13.09.02.01.03.02.05.04.01,0,.02.02.03.02,0,0,0,0,0,0,0,0,.02.01.02.02.32.25.56.54.75.88.11.2.18.38.24.61.02.08.11.13.18.1s.13-.11.1-.18c-.21-.83-.8-1.54-1.55-1.94-.22-.11-.45-.2-.68-.26-.08-.02-.16.03-.18.1s.03.16.1.18h0Z"/>
    <path d="M117.52,101.63c1.07-.43,1.97-1.24,2.52-2.26.15-.29.28-.59.38-.9.06-.19-.23-.26-.29-.08-.31,1.02-.99,1.93-1.88,2.52-.25.17-.52.31-.8.43-.07.03-.13.1-.1.18.02.07.11.14.18.1h0Z"/>
    <path d="M91.88,110.81c-1.39,1.35-2.05,3.3-1.77,5.22.08.57.25,1.13.49,1.66.08.18.34.02.26-.15-1-2.2-.5-4.83,1.23-6.51.14-.13-.07-.35-.21-.21h0Z"/>
    <path d="M93.76,113.47c-.99.92-1.76,2.12-1.87,3.49-.03.4,0,.79.09,1.18.04.19.33.11.29-.08-.4-1.67.5-3.28,1.69-4.38.14-.13-.07-.34-.21-.21h0Z"/>
    <path d="M93.98,118.02c1.37-.08,2.69-.61,3.74-1.48.3-.25.57-.52.82-.82.12-.15-.09-.36-.21-.21-.83,1.01-1.99,1.74-3.26,2.05-.36.09-.72.14-1.09.16-.19.01-.19.31,0,.3h0Z"/>
    <path d="M72.52,112.79c.69.59,1.16,1.41,1.32,2.31.05.25.06.51.06.76,0,.19.3.19.3,0,.02-.97-.31-1.93-.9-2.69-.17-.22-.36-.41-.56-.59-.06-.05-.15-.06-.21,0-.05.05-.06.16,0,.21h0Z"/>
    <path d="M70.62,114.81c.26.8.62,1.57,1.09,2.28.04.07.13.1.21.05.07-.04.1-.14.05-.21-.45-.68-.81-1.42-1.06-2.2-.02-.08-.1-.13-.18-.1-.08.02-.13.11-.1.18h0Z"/>
    <path d="M68.53,115.87c.35.53.77,1.01,1.23,1.44.13.12.27.24.41.35.06.05.15.06.21,0,.05-.05.07-.16,0-.21-.48-.39-.92-.83-1.3-1.32,0,0,.01.01,0,0,0-.01-.02-.02-.02-.03-.01-.02-.02-.03-.04-.05-.03-.03-.05-.07-.08-.11-.05-.07-.1-.15-.15-.22-.04-.07-.13-.1-.21-.05-.06.04-.1.14-.05.21h0Z"/>
    <path d="M64.05,119.45c1.55.58,3.23,1.16,4.9.79.19-.04.11-.33-.08-.29-1.61.36-3.24-.23-4.74-.79-.18-.07-.26.22-.08.29h0Z"/>
    <path d="M64.41,122.8c1.45.27,2.97.16,4.37-.32.18-.06.1-.35-.08-.29-1.35.47-2.81.58-4.21.32-.19-.04-.27.25-.08.29h0Z"/>
    <path d="M67.82,126.44c1.02-.08,1.99-.56,2.69-1.31.2-.21.37-.44.51-.69.1-.17-.16-.32-.26-.15-.48.81-1.26,1.42-2.16,1.7-.25.08-.52.13-.78.15-.08,0-.15.06-.15.15,0,.08.07.16.15.15h0Z"/>
    <path d="M72.29,124.19c-.17.69-.52,1.34-1.02,1.86-.14.15-.29.29-.45.41-.06.05-.05.16,0,.21.06.06.15.05.21,0,.6-.47,1.06-1.1,1.35-1.8.08-.2.15-.4.2-.6.05-.19-.24-.27-.29-.08h0Z"/>
    <path d="M64.93,145.33c-.12-1.24.12-2.51.68-3.62.09-.17-.17-.32-.26-.15-.59,1.16-.85,2.48-.72,3.77,0,.08.06.15.15.15.08,0,.16-.07.15-.15h0Z"/>
    <path d="M66.17,145.44c.26-.79.64-1.54,1.13-2.22.14-.19.28-.38.44-.56.05-.06.06-.15,0-.21-.05-.05-.16-.06-.21,0-.57.66-1.04,1.41-1.38,2.21-.1.23-.19.46-.26.7-.06.18.23.26.29.08h0Z"/>
    <path d="M62.49,146.12c.06-1-.4-2.01-1.17-2.65-.22-.18-.46-.33-.72-.45-.07-.03-.16-.02-.21.05-.04.06-.02.17.05.21.85.37,1.47,1.16,1.67,2.06.06.25.08.51.06.77-.01.19.29.19.3,0h0Z"/>
    <path d="M61.61,148.3c-.86.02-1.72-.1-2.55-.35-.18-.06-.26.23-.08.29.85.26,1.74.39,2.63.36.19,0,.19-.3,0-.3h0Z"/>
    <path d="M61.75,150.49c-1.05.85-2.21,1.56-3.44,2.1-.35.15-.71.29-1.07.42-.18.06-.1.35.08.29,1.31-.46,2.56-1.09,3.7-1.88.32-.23.64-.46.95-.71.15-.12-.06-.33-.21-.21h0Z"/>
    <path d="M62.78,152.17c-.58.54-.93,1.31-.99,2.11-.02.23,0,.46.03.68.01.08.11.12.18.1.09-.02.12-.1.1-.18-.11-.71.08-1.45.48-2.04.11-.17.25-.32.4-.46s-.07-.34-.21-.21h0Z"/>
    <path d="M66.23,151.47c.16.69.16,1.4,0,2.09-.02.08.02.16.1.18.08.02.17-.03.18-.1.17-.74.17-1.51,0-2.25-.02-.08-.11-.13-.18-.1-.08.02-.12.11-.1.18h0Z"/>
    <path d="M67.74,149.58c.65.92.85,2.11.54,3.19-.05.19.24.27.29.08.26-.9.19-1.88-.18-2.74-.1-.24-.23-.47-.38-.68-.05-.07-.13-.1-.21-.05-.07.04-.1.14-.05.21h0Z"/>
    <path d="M102.55,140.15c-.25-.71-.19-1.52.16-2.18.1-.19.22-.36.36-.52.05-.06.06-.15,0-.21-.05-.05-.16-.06-.21,0-.55.62-.83,1.47-.75,2.3.02.24.07.47.15.7.03.08.1.13.18.1.07-.02.13-.11.1-.18h0Z"/>
    <path d="M100.99,140.57c-.47-.43-.91-.89-1.33-1.37-.12-.14-.24-.27-.35-.41-.05-.06-.16-.06-.21,0-.06.06-.05.15,0,.21.41.49.84.96,1.3,1.4.13.13.26.25.39.37.06.05.16.06.21,0,.05-.06.06-.16,0-.21h0Z"/>
    <path d="M99.29,141.57c-1.13-.32-2.24-.69-3.33-1.12-.08-.03-.16.03-.18.1-.02.08.03.15.1.18,1.09.43,2.21.8,3.33,1.12.19.05.27-.24.08-.29h0Z"/>
    <path d="M100.56,145.38c-.86.31-1.61.88-2.16,1.62-.15.2-.28.42-.39.64-.04.07-.02.16.05.21.07.04.17.02.21-.05.38-.76.98-1.4,1.72-1.83.21-.12.42-.22.65-.3.08-.03.13-.1.1-.18-.02-.07-.11-.13-.18-.1h0Z"/>
    <path d="M105.42,144.2c.71-.28,1.49-.37,2.24-.22.08.02.16-.02.18-.1.02-.07-.02-.17-.1-.18-.8-.16-1.64-.08-2.4.22-.08.03-.13.1-.1.18.02.07.11.14.18.1h0Z"/>
    <path d="M103.58,145.25c-.13.85.03,1.74.46,2.49.1.17.36.02.26-.15-.39-.67-.55-1.48-.43-2.26.01-.08-.02-.16-.1-.18-.07-.02-.17.02-.18.1h0Z"/>
    <path d="M104.91,141.14c.03-.13.07-.27.12-.39,0-.01.01-.03.02-.04,0,0,0-.02.01-.03,0,0-.01.03,0,0,.01-.03.03-.06.04-.09.03-.06.06-.13.1-.19s.07-.12.11-.17c.02-.03.04-.05.05-.08.01-.01.02-.03.03-.04,0,0,.01-.01.02-.02,0,0,.01-.01,0,0,.08-.11.18-.21.28-.31.06-.05.11-.1.17-.15.02-.01.03-.03.05-.04,0,0-.02.01,0,0,0,0,.02-.01.03-.02.03-.02.07-.05.1-.07.06-.04.1-.13.05-.21-.04-.06-.14-.1-.21-.05-.5.33-.88.81-1.11,1.36-.06.15-.11.31-.15.46-.02.08.02.17.1.18.08.02.17-.02.18-.1h0Z"/>
    <path d="M125.04,145.83c-.83-.49-1.62-1.03-2.39-1.62-.06-.05-.17,0-.21.05-.05.08-.01.16.05.21.76.59,1.56,1.13,2.39,1.62.17.1.32-.16.15-.26h0Z"/>
    <path d="M128.83,145.11c-.06-.83.24-1.68.82-2.28.16-.17.35-.32.55-.45.16-.1.01-.36-.15-.26-.78.48-1.32,1.31-1.48,2.21-.04.26-.06.52-.04.78,0,.08.06.15.15.15.08,0,.16-.07.15-.15h0Z"/>
    <path d="M131.58,148.73c.69-.35,1.55-.33,2.23.05.17.09.32-.16.15-.26-.6-.33-1.32-.42-1.98-.26-.19.05-.38.12-.55.21-.07.04-.09.14-.05.21.04.07.13.09.21.05h0Z"/>
    <path d="M130.21,151.47c1.15-.38,2.4-.44,3.59-.17.19.04.27-.25.08-.29-1.24-.29-2.54-.23-3.75.17-.18.06-.1.35.08.29h0Z"/>
    <path d="M124.09,148.08c-.85-.24-1.78-.18-2.6.15-.23.09-.46.21-.67.35-.16.1-.01.36.15.26.89-.57,2.01-.75,3.04-.47.19.05.27-.24.08-.29h0Z"/>
    <path d="M125.06,150.14c-.68.49-1.27,1.09-1.74,1.78-.13.19-.25.39-.36.6-.09.17.17.32.26.15.38-.7.88-1.33,1.48-1.86.16-.15.34-.28.51-.41.07-.05.1-.13.05-.21-.04-.06-.14-.1-.21-.05h0Z"/>
    <path d="M127.23,151.15c-.37,1.42-.27,2.94.28,4.29.03.08.1.13.18.1.07-.02.14-.11.1-.18-.53-1.31-.64-2.77-.28-4.13.05-.19-.24-.27-.29-.08h0Z"/>
    <path d="M130.3,146.03s.04-.05.06-.08c0-.01.02-.02.03-.04,0,0,.02-.02,0,0,0,0,.01-.01.02-.02.04-.05.09-.11.13-.16.09-.1.19-.19.3-.27,0,0,.01,0,.02-.01.02-.01-.02.01,0,0,.01,0,.02-.02.04-.03.03-.02.06-.04.09-.06.06-.04.11-.07.17-.11s.12-.07.18-.1c.03-.01.06-.03.08-.04,0,0,.03-.01.01,0-.02,0,0,0,0,0,.02,0,.04-.02.06-.02.14-.06.29-.1.44-.13.08-.02.13-.11.1-.18-.03-.08-.1-.12-.18-.1-.56.11-1.09.41-1.49.82-.12.12-.22.25-.32.39-.04.07-.01.17.05.21.08.04.16.02.21-.05h0Z"/>
    <path d="M124.77,142.16c.27.79.67,1.53,1.18,2.18.14.18.29.36.45.53.13.14.34-.07.21-.21-.54-.58-.98-1.25-1.31-1.97-.09-.2-.17-.41-.24-.61-.03-.08-.1-.13-.18-.1-.07.02-.13.11-.1.18h0Z"/>
    <path d="M136.65,113.33c-.29-.91-.36-1.89-.21-2.84.01-.08-.02-.16-.1-.18-.07-.02-.17.02-.18.1-.16,1-.1,2.03.21,3,.06.18.35.11.29-.08h0Z"/>
    <path d="M138.75,113.19c.06-.58.12-1.16.18-1.75,0-.08-.07-.15-.15-.15-.09,0-.14.07-.15.15-.06.58-.12,1.16-.18,1.75,0,.08.07.15.15.15.09,0,.14-.07.15-.15h0Z"/>
    <path d="M141,114.41c.69-.73,1.27-1.57,1.72-2.47.13-.26.25-.52.35-.79.03-.08-.03-.16-.1-.18-.09-.02-.15.03-.18.1-.36.9-.85,1.75-1.45,2.51-.17.22-.35.43-.54.63-.13.14.08.35.21.21h0Z"/>
    <path d="M141.36,116.51c1.42-.04,2.83.02,4.24.17.08,0,.15-.08.15-.15,0-.09-.07-.14-.15-.15-1.41-.15-2.83-.2-4.24-.17-.19,0-.19.31,0,.3h0Z"/>
    <path d="M141.79,118.47c1.17.56,2.28,1.24,3.32,2.02.06.05.17.01.21-.05.04-.08.01-.16-.05-.21-1.04-.78-2.15-1.45-3.32-2.02-.07-.04-.16-.02-.21.05-.04.07-.02.17.05.21h0Z"/>
    <path d="M139.38,120.14c.25,1.42.83,2.78,1.67,3.95.05.07.13.1.21.05.07-.04.1-.14.05-.21-.83-1.15-1.39-2.48-1.64-3.88-.03-.19-.32-.11-.29.08h0Z"/>
    <path d="M135.69,119.8c-.8,1.24-1.49,2.55-2.07,3.92-.03.07.03.17.1.18.09.02.15-.03.18-.1.56-1.34,1.25-2.63,2.04-3.84.11-.16-.15-.31-.26-.15h0Z"/>
    <path d="M134.29,118.95c-.54.45-1.05.94-1.52,1.46-.13.15-.26.3-.39.45-.05.06-.06.15,0,.21.06.05.16.06.21,0,.45-.54.94-1.05,1.46-1.52.15-.13.3-.26.45-.39.06-.05.06-.16,0-.21-.06-.06-.15-.05-.21,0h0Z"/>
    <path d="M133.08,117.13c-1.62.55-3.15,1.33-4.54,2.33-.16.11,0,.37.15.26,1.37-.98,2.87-1.76,4.47-2.3.18-.06.1-.35-.08-.29h0Z"/>
    <path d="M134.57,114.55l-3.16-1.07c-.18-.06-.26.23-.08.29l3.16,1.07c.18.06.26-.23.08-.29h0Z"/>
    <path d="M99.55,184.19c-.62-.78-.85-1.84-.64-2.81.04-.19-.25-.27-.29-.08-.19.84-.07,1.73.32,2.5.11.22.24.42.4.61.05.06.16.05.21,0,.06-.06.05-.15,0-.21h0Z"/>
    <path d="M98.02,185.04l-1.05-1.81c-.04-.07-.14-.1-.21-.05s-.1.13-.05.21l1.05,1.81c.04.07.14.1.21.05s.1-.13.05-.21h0Z"/>
    <path d="M103.12,185.63c.93-.6,1.75-1.36,2.41-2.25.19-.25.36-.51.52-.78.1-.17-.16-.32-.26-.15-.55.92-1.26,1.73-2.09,2.4-.23.19-.48.36-.73.52-.16.1-.01.36.15.26h0Z"/>
    <path d="M103.32,187.82c1.45-.56,2.89-1.16,4.31-1.8.18-.08.02-.34-.15-.26-1.4.63-2.81,1.22-4.24,1.77-.18.07-.1.36.08.29h0Z"/>
    <path d="M100.94,190.61c1.53-.73,3.2-1.15,4.9-1.23.19,0,.19-.31,0-.3-1.75.08-3.47.51-5.05,1.27-.17.08-.02.34.15.26h0Z"/>
    <path d="M96.76,189.43c-.44-1.15-1.04-2.22-1.8-3.18-.21-.27-.44-.54-.68-.79-.13-.14-.34.07-.21.21.81.86,1.49,1.85,2.01,2.92.15.3.28.61.4.92.03.08.1.13.18.1.07-.02.13-.11.1-.18h0Z"/>
    <path d="M121.64,199.84c-.49-1.31-.86-2.67-1.12-4.05-.04-.19-.32-.11-.29.08.26,1.38.63,2.73,1.12,4.05.07.18.36.1.29-.08h0Z"/>
    <path d="M123.38,199.31c.22-.84.31-1.73.24-2.6,0-.08-.06-.15-.15-.15-.08,0-.16.07-.15.15.06.85-.01,1.7-.23,2.52-.05.19.24.27.29.08h0Z"/>
    <path d="M125.83,201.1c.5-.82,1.18-1.52,1.98-2.04.23-.15.47-.28.71-.4.07-.04.09-.14.05-.21-.04-.07-.13-.09-.21-.05-.89.43-1.69,1.07-2.31,1.85-.18.22-.34.46-.49.7-.1.17.16.32.26.15h0Z"/>
    <path d="M124.92,203.58c1.15-.12,2.29-.4,3.36-.85.07-.03.13-.1.1-.18-.02-.07-.11-.14-.18-.1-1.04.44-2.15.72-3.28.84-.08,0-.15.06-.15.15,0,.07.07.16.15.15h0Z"/>
    <path d="M123.61,205.68c.73.69,1.67,1.15,2.65,1.3.29.04.57.07.86.06.19,0,.19-.3,0-.3-.95.02-1.89-.26-2.68-.78-.22-.15-.43-.31-.63-.5-.14-.13-.35.08-.21.21h0Z"/>
    <path d="M120.57,206.94c-.25.79-.77,1.49-1.44,1.97-.19.14-.4.26-.62.36-.07.03-.09.14-.05.21.04.08.13.09.21.05.81-.38,1.48-1.03,1.9-1.81.12-.22.22-.46.3-.7.06-.18-.23-.26-.29-.08h0Z"/>
    <path d="M117.69,203.1c-1.32.01-2.65-.25-3.86-.79-.07-.03-.16-.02-.21.05-.04.06-.02.17.05.21,1.26.56,2.63.85,4.01.83.19,0,.19-.3,0-.3h0Z"/>
    <path d="M117.74,200.87c-.25-.25-.6-.36-.94-.47-.39-.13-.78-.25-1.17-.36-.79-.22-1.59-.42-2.39-.58-.19-.04-.27.25-.08.29.78.15,1.55.34,2.31.55.38.11.75.22,1.13.34.32.1.68.19.92.43.14.14.35-.08.21-.21h0Z"/>
    <path d="M103.75,221.59c-.98-1.3-1.6-2.86-1.76-4.48-.02-.19-.32-.19-.3,0,.13,1.3.54,2.57,1.19,3.7.18.32.39.63.61.93.11.15.38,0,.26-.15h0Z"/>
    <path d="M106.76,221.89c.53-.43.96-.99,1.25-1.62.08-.18.16-.37.22-.56.02-.08-.03-.16-.1-.18-.08-.02-.16.03-.18.1-.2.61-.53,1.19-.98,1.66-.13.14-.27.27-.41.38-.06.05-.05.16,0,.21.06.06.15.05.21,0h0Z"/>
    <path d="M109.07,224.56c1.35.09,2.72-.18,3.94-.77.17-.08.02-.34-.15-.26-1.17.56-2.49.81-3.79.73-.19-.01-.19.29,0,.3h0Z"/>
    <path d="M108.82,228.24c1.04.3,2.04.73,2.97,1.27.17.1.32-.16.15-.26-.96-.56-1.98-1-3.04-1.3-.19-.05-.27.24-.08.29h0Z"/>
    <path d="M106.03,228.8c.31,1.62.46,3.27.47,4.92,0,.19.3.19.3,0,0-1.68-.17-3.35-.48-5-.04-.19-.32-.11-.29.08h0Z"/>
    <path d="M102.88,228.07s0,.09-.01.13c0,.01,0,.02,0,.03,0-.01,0-.01,0,0,0,.02,0,.04,0,.06-.01.08-.03.17-.05.25-.04.17-.09.33-.16.49-.02.06-.06.14-.1.21-.04.08-.08.15-.12.23-.09.15-.18.28-.28.4-.05.06-.06.15,0,.21.05.05.16.06.21,0,.37-.44.63-.97.76-1.53.04-.16.06-.33.07-.49,0-.08-.07-.15-.15-.15-.09,0-.14.07-.15.15h0Z"/>
    <path d="M101.46,226.42c-.59.92-1.62,1.41-2.62,1.74-.32.1-.65.2-.98.29-.19.05-.11.34.08.29,1.13-.31,2.3-.65,3.18-1.46.23-.21.43-.45.6-.71.1-.16-.16-.31-.26-.15h0Z"/>
    <path d="M101.79,223.7c-1.23-.6-2.45-1.2-3.68-1.8-.17-.08-.32.17-.15.26,1.23.6,2.45,1.2,3.68,1.8.17.08.32-.17.15-.26h0Z"/>
    <path d="M80.08,194.58c.96,1.69,2.02,3.5,3.9,4.29.49.2,1.01.32,1.54.32.19,0,.19-.3,0-.3-1.93,0-3.37-1.52-4.34-3.04-.3-.46-.57-.94-.84-1.42-.1-.17-.35-.02-.26.15h0Z"/>
    <path d="M84.18,193.77c.43.55.85,1.12,1.24,1.7.19.28.39.57.57.86.17.26.32.55.35.87.01.19.31.19.3,0-.04-.55-.37-1-.66-1.44-.32-.48-.65-.95-.99-1.41-.19-.26-.39-.52-.59-.78-.05-.06-.16-.05-.21,0-.06.06-.05.15,0,.21h0Z"/>
    <path d="M84.34,191.16c.97.41,1.82,1.09,2.43,1.96.17.25.33.51.46.78.04.07.14.09.21.05.07-.04.09-.13.05-.21-.48-.99-1.25-1.83-2.18-2.42-.26-.16-.53-.31-.82-.43-.07-.03-.16-.02-.21.05-.04.06-.02.17.05.21h0Z"/>
    <path d="M83.34,211.7c-.41,1.96-.35,4.01.17,5.95.05.19.34.11.29-.08-.51-1.88-.57-3.88-.17-5.79.04-.19-.25-.27-.29-.08h0Z"/>
    <path d="M77.83,213.92c.39,1.02.96,1.97,1.68,2.78.21.23.42.45.65.65.14.13.36-.08.21-.21-.78-.71-1.43-1.55-1.9-2.49-.13-.26-.25-.53-.36-.81-.03-.08-.1-.13-.18-.1-.07.02-.13.11-.1.18h0Z"/>
    <path d="M74.14,219.59c1.69.17,3.4.2,5.1.09.19-.01.19-.31,0-.3-1.7.11-3.4.07-5.1-.09-.19-.02-.19.28,0,.3h0Z"/>
    <path d="M76.35,223.93c.94-.46,1.88-.93,2.82-1.39.07-.04.09-.14.05-.21-.04-.07-.13-.09-.21-.05-.94.46-1.88.93-2.82,1.39-.07.04-.09.14-.05.21.04.07.13.09.21.05h0Z"/>
    <path d="M81.78,224.41c0,.87-.19,1.74-.55,2.54-.03.07-.02.16.05.21.06.04.17.02.21-.05.38-.84.59-1.76.59-2.69,0-.19-.3-.19-.3,0h0Z"/>
    <path d="M85.39,223.45c.7,1.04,1.09,2.26,1.11,3.51,0,.19.3.19.3,0-.03-1.3-.43-2.58-1.15-3.67-.11-.16-.37,0-.26.15h0Z"/>
    <path d="M86.92,221.86c1.23-.45,2.46-.91,3.67-1.39.08-.03.13-.1.1-.18-.02-.07-.11-.13-.18-.1-1.22.48-2.44.95-3.67,1.39-.18.07-.1.36.08.29h0Z"/>
    <path d="M86.17,219.36c.77-.69,1.44-1.49,1.99-2.37.16-.25.3-.51.44-.77.09-.17-.17-.32-.26-.15-.47.9-1.06,1.73-1.76,2.47-.2.21-.41.41-.62.61-.14.13.07.34.21.21h0Z"/>
    <path d="M53.98,214.01c.15,1.24.56,2.45,1.22,3.52.1.16.36.01.26-.15-.63-1.02-1.03-2.17-1.18-3.36,0-.08-.06-.15-.15-.15-.07,0-.16.07-.15.15h0Z"/>
    <path d="M57.98,213.13c-.41,1.33-.41,2.77-.01,4.1.06.18.34.11.29-.08-.38-1.28-.38-2.66.01-3.94.06-.19-.23-.26-.29-.08h0Z"/>
    <path d="M48.05,219.37c1.69.29,3.42.3,5.12,0,.19-.03.11-.32-.08-.29-1.64.28-3.32.28-4.96,0-.19-.03-.27.26-.08.29h0Z"/>
    <path d="M49.54,221.86c1.01.13,2.03.05,3.01-.23.19-.05.11-.34-.08-.29-.95.27-1.95.34-2.93.22-.08-.01-.15.08-.15.15,0,.09.07.14.15.15h0Z"/>
    <path d="M50.84,226.75c1.29-.16,2.49-.83,3.31-1.83.23-.28.43-.59.6-.92.09-.17-.17-.32-.26-.15-.54,1.08-1.51,1.94-2.65,2.35-.32.12-.66.2-1,.24-.08.01-.15.06-.15.15,0,.07.07.16.15.15h0Z"/>
    <path d="M57.51,223.8c.08.66.39,1.28.87,1.74.13.13.28.24.44.34.07.04.17.01.21-.05.04-.07.01-.16-.05-.21-.06-.04-.12-.08-.18-.13.02.01,0,0,0,0,0,0-.02-.01-.02-.02-.01-.01-.03-.02-.04-.03-.03-.03-.06-.05-.09-.08-.05-.05-.11-.1-.16-.16-.03-.03-.05-.06-.07-.08-.01-.01-.02-.03-.03-.04,0,0-.01-.02-.02-.02,0,0-.02-.03,0-.01-.09-.12-.17-.24-.24-.38-.04-.07-.07-.14-.1-.21,0-.02,0,0,0,0,0,0,0-.02-.01-.03,0-.02-.01-.03-.02-.05-.01-.04-.03-.07-.04-.11-.03-.08-.05-.16-.07-.24,0-.04-.02-.08-.03-.12,0-.02,0-.04,0-.06,0,0,0-.02,0-.03,0,.03,0-.01,0-.02,0-.08-.06-.15-.15-.15-.07,0-.16.07-.15.15h0Z"/>
    <path d="M62.43,216.04c-.03.13-.06.27-.1.4-.02.07-.04.13-.07.19-.01.03-.02.06-.04.09,0-.02,0,.01,0,.02,0,.02-.02.04-.02.06-.11.24-.26.49-.41.68,0-.01,0,0,0,0,0,0-.01.02-.02.02-.01.02-.03.03-.04.05-.02.03-.05.06-.07.09-.05.06-.11.12-.16.17s-.06.16,0,.21.15.06.21,0c.41-.4.72-.9.91-1.45.05-.15.09-.31.12-.46.01-.08-.02-.17-.1-.18-.07-.02-.17.02-.18.1h0Z"/>
    <path d="M61.46,218.16c.19,0,.19-.3,0-.3s-.19.3,0,.3h0Z"/>
    <path d="M43.8,241.32c-.36,1.68.18,3.45,1.44,4.62.33.3.7.56,1.1.77.17.09.32-.17.15-.26-1.38-.7-2.34-2.08-2.49-3.63-.04-.47-.02-.95.08-1.41.04-.19-.25-.27-.29-.08h0Z"/>
    <path d="M40.11,244.93c.76.78,1.56,1.51,2.41,2.2.24.2.49.39.73.58.06.05.17.01.21-.05.05-.08.01-.16-.05-.21-.85-.65-1.66-1.34-2.44-2.09-.22-.21-.43-.42-.64-.64-.14-.14-.35.07-.21.21h0Z"/>
    <path d="M35.65,250.5c1.81-.48,3.69-.64,5.55-.45.19.02.19-.28,0-.3-1.89-.18-3.8-.03-5.63.46-.19.05-.11.34.08.29h0Z"/>
    <path d="M40.58,255.44c.25-.34.6-.59.93-.84s.68-.52.94-.87c.14-.19.25-.4.31-.63.05-.19-.24-.27-.29-.08-.1.38-.36.68-.65.94-.32.28-.67.51-1,.79-.19.16-.36.34-.51.54-.05.07-.01.17.05.21.08.04.16.01.21-.05h0Z"/>
    <path d="M85.58,256.83c-1.32.88-2.68,1.7-4.08,2.46-.17.09-.02.35.15.26,1.4-.76,2.76-1.58,4.08-2.46.16-.11,0-.37-.15-.26h0Z"/>
    <path d="M87.78,257.99c-.46,1.76-.28,3.65.5,5.3.08.17.34.02.26-.15-.74-1.57-.9-3.39-.47-5.06.05-.19-.24-.27-.29-.08h0Z"/>
    <path d="M90.85,257.53c.47.52.92,1.06,1.34,1.62.12.16.24.32.36.49.05.07.13.1.21.05.06-.04.1-.14.05-.21-.43-.58-.87-1.15-1.35-1.7-.13-.16-.27-.31-.41-.46-.05-.06-.16-.06-.21,0-.06.06-.05.15,0,.21h0Z"/>
    <path d="M92.27,255.23c1,.08,1.96.42,2.79.97.07.04.17.01.21-.05.04-.07.01-.16-.05-.21-.88-.58-1.9-.93-2.94-1.01-.08,0-.15.07-.15.15,0,.09.07.14.15.15h0Z"/>
    <path d="M92.03,252.75c1.38-.93,2.99-1.5,4.65-1.64.19-.02.19-.32,0-.3-1.71.15-3.37.73-4.8,1.68-.16.11,0,.37.15.26h0Z"/>
    <path d="M90.51,246.23c-.92,1.38-1.35,3.07-1.21,4.72.02.19.32.19.3,0-.14-1.6.28-3.23,1.17-4.57.11-.16-.15-.31-.26-.15h0Z"/>
    <path d="M91.14,249.25c-.15.69-.39,1.35-.73,1.97-.04.07-.02.16.05.21s.17.02.21-.05c.35-.64.61-1.33.76-2.04.02-.08-.02-.17-.1-.18-.08-.02-.17.02-.18.1h0Z"/>
    <path d="M85.81,246.49c.36,1.29.74,2.61,1.41,3.78.19.33.4.65.64.94.12.15.33-.06.21-.21-1.05-1.33-1.52-2.99-1.97-4.59-.05-.19-.34-.11-.29.08h0Z"/>
    <path d="M81.26,249.08c.87,1.15,1.99,2.1,3.28,2.75.36.19.74.35,1.12.49.18.07.26-.22.08-.29-1.29-.47-2.48-1.23-3.44-2.21-.28-.28-.53-.58-.77-.89-.05-.06-.13-.1-.21-.05-.06.04-.1.14-.05.21h0Z"/>
    <path d="M80.68,254.11c1.38.16,2.76.25,4.14.28.19,0,.19-.3,0-.3-1.38-.03-2.77-.12-4.14-.28-.08,0-.15.08-.15.15,0,.09.07.14.15.15h0Z"/>
    <path d="M82.96,256.41c.73,0,1.47-.1,2.17-.29.19-.05.11-.34-.08-.29-.68.18-1.39.27-2.1.28-.08,0-.15.07-.15.15s.07.15.15.15h0Z"/>
  </g>
  <g class="cls-13">
    <g>
      <rect class="cls-14" x="220.75" y="119.12" width="273.51" height="17.97" rx="8.99" ry="8.99"/>
      <g>
        <path class="cls-14" d="M276.17,115.39c-1.47-2.64-4.28-4.43-7.52-4.43-4.74,0-8.59,3.85-8.59,8.59v5.05h195.4l-.21-6.77-18.8-2.26-9.19-14.17-19.5.7-12.8,8.81-9.58-9.51-7.34-2.4-8.85-1.11-12.16-15.64-12.52-1.87-13.47,12.15-7.87,8.51-12.55-5.41-6.34,1.08-7.62,4.62-19.03,6.88-1.47,7.16Z"/>
        <path class="cls-14" d="M305.23,102.06c-2.81-5.06-8.21-8.48-14.4-8.48-9.09,0-16.46,7.37-16.46,16.46v3.09"/>
      </g>
      <polygon class="cls-14" points="271.24 115.85 277.37 109.5 285.5 110.2 277.66 119.12 271.24 115.85"/>
      <g>
        <line class="cls-2" x1="252.23" y1="136.29" x2="447.92" y2="136.29"/>
        <line class="cls-2" x1="221.75" y1="128.67" x2="274.36" y2="128.67"/>
        <line class="cls-2" x1="245.62" y1="119.12" x2="260.06" y2="119.12"/>
        <line class="cls-2" x1="279.96" y1="128.67" x2="291.05" y2="128.67"/>
        <path class="cls-2" d="M276.17,114.58c-1.47-2.64-4.28-4.43-7.52-4.43-4.74,0-8.59,3.85-8.59,8.59h0"/>
        <path class="cls-2" d="M305.23,101.26c-2.81-5.06-8.21-8.48-14.4-8.48-9.09,0-16.46,7.37-16.46,16.46v3.09"/>
      </g>
    </g>
  </g>
</svg>