<svg viewBox="0 0 289.13 430.87" xmlns="http://www.w3.org/2000/svg"><text font-family="'IM_FELL_Double_Pica_SC', 'IM FELL Double Pica SC'" font-size="24" transform="translate(49.89 395.79)"><tspan x="0" y="0">BA</tspan><tspan letter-spacing="-.01em" x="30.97" y="0">B</tspan><tspan x="46.41" y="0">Y'S</tspan><tspan letter-spacing="0em" x="87.35" y="0">B</tspan><tspan x="102.94" y="0">RE</tspan><tspan letter-spacing="-.03em" x="137.4" y="0">A</tspan><tspan x="151.88" y="0">TH</tspan></text><text font-family="SUIT-Regular-KSCpc-EUC-H, SUIT" font-size="14" transform="translate(107.37 418.59)"><tspan x="0" y="0">안개꽃 · 설렘</tspan></text><path d="m155.92 118.19c-.02-2.51-.05-4.28-.08-4.39-.09-.36-1.16-11.67-1.78-17.81s-1.92-12.36-1.92-12.36c.79-1.43 1.08-3.32 1.08-3.32s2.68 1.13 7.22.72 6.81-4.64 8.77-10.42-6.6-3.92-6.6-3.92 3.1-4.95 3.61-9.08c.52-4.13-.62-9.39-5.26-10.83s-9.9 6.09-9.9 6.09c-.83-4.44-4.54-6.6-11.35-4.64s-6.09 13.31-6.09 13.31c-2.27-3.35-5.6-2.95-7.35-2.78s-4.81 2.36-5.95 4.11-.35 5.16 2.45 7.26 9.27 2.8 9.27 2.8c-1.31.26-2.27 1.14-3.24 3.06s2.45 5.16 8.66 6.12 10.06-2.89 10.06-2.89c.52 2.01 2.01 4.02 2.54 4.81s2.19 9.18 2.71 12.42 1.31 20.99 1.31 20.99c-2.1-.87-6.65.52-6.65.52s2.36-2.62 3.24-5.16-.7-6.91-3.24-10.41-3.94-2.8-6.21-2.62-4.11 4.11-4.11 4.11.17-.79-1.05-3.67-3.15-3.15-6.03-3.15-3.76 3.15-6.03 7.08c-2.27 3.94.17 9.36.17 9.36s-2.71-2.54-8.22-3.85-6.3 4.99-6.3 4.99c-3.76 1.14-4.46 4.11-2.1 8.75s8.92 5.95 8.92 5.95c-1.49.35-4.11 1.66-6.65 3.15s-2.71 5.95-1.31 8.83 6.38 2.19 6.38 2.19c4.02 1.57 8.05-1.31 8.05-1.31-1.05 3.76-.35 7 1.84 8.13s7.35-.79 9.45-2.27 2.36-5.77 2.62-7.08-.09-3.5 3.15.26 5.42 17.75 5.86 22.04-.7 15.04-1.14 17.49-3.24 17.93-3.94 22.65-1.92 14.78-1.92 14.78-.35-7.61-.96-12.24c-.61-4.64-1.92-9.71-2.89-11.89s-1.4-7.87-1.22-12.59c.17-4.72 0-4.72 1.14-7s1.49-5.42-.44-5.6-2.27 3.76-2.01 5.6-.09 13.99-.09 13.99c-1.57-5.16-5.77-15.74-7.52-18.37s-.7-3.67-.17-5.95-.52-5.51-2.97-6.91-4.81.7-4.81.7-3.24-2.01-5.07-3.32-1.49-2.54-7.52-3.85-8.4.17-8.4.17c3.32-.09 9.27 1.05 12.77 3.24s6.47 6.38 6.47 6.38c-.17 4.55 1.49 5.77 4.37 7.96s2.71 7.7 2.71 7.7c-1.31-2.8-9.53-4.37-8.66 1.31.87 5.69 6.3 5.25 8.05 4.72s2.45.09 6.12 3.15 4.37 5.69 6.12 10.23c1.75 4.55 2.03 6.29 3.19 15.22s-3.13 30.38-3.13 30.38-5.8 29.57-6.49 41.63.58 23.89.58 23.89-4.17-13.8-4.29-20.87.81-13.22.12-22.96c-.7-9.74-6.38-17.86-10.32-23.65-3.94-5.8-1.62-5.45-4.64-11.83-3.01-6.38-6.96-6.26-6.96-6.26 1.62 1.04 3.36 2.78 5.1 6.15 1.74 3.36.23 13.22.35 16.47s-2.9 14.15-2.32 18.44 4.87 13.45 10.2 19.6 6.73 12.76 7.77 16.81c1.04 4.06 8.35 24.35 8.35 24.35 15.54 33.51 30.96 41.16 30.96 41.16-10.2-6.49-26.21-41.28-26.21-41.28s-5.45-10.9-2.09-22.61 9.74-19.25 12.41-22.5 8.93-8.23 13.8-9.97 12.99-6.15 17.05-9.74 7.65-5.68 12.76-8.35c5.1-2.67 12.06-4.87 18.09-6.84s11.71.58 11.71.58-1.39-1.28-4.87-2.2c-3.48-.93-5.33 1.04-12.06 1.04s-13.8 1.74-19.71 3.71-15.19 5.8-20.99 9.16-11.36 12.06-14.61 16.81-12.18 20.99-12.18 20.99c2.2-12.52 9.62-24.23 12.76-28.99s15.58-11.51 15.58-11.51c11.6-6.73 16.7-13.1 20.76-16.35s14.38-10.32 16.93-12.99 6.84-9.86 9.16-11.6 4.64-5.57 11.13-9.04c6.49-3.48 11.94-1.16 17.86 1.62 5.91 2.78 6.96 10.09 6.96 10.09s1.39-.23-.7-5.8-5.45-7.77-12.99-9.62c-7.54-1.86-11.02-.93-13.68 1.97-2.67 2.9-12.99 5.22-22.03 7.19s-26.44 17.16-33.05 23.42-13.33 19.83-14.61 23.54-13.04 27.26-13.04 27.26c-4.37 9.98-5.06 24.44-5.06 24.44-1.5-9.33-1.3-11.07-1.3-11.07s-.14-10.18.89-19 1.94-12.39 3.37-19 2.81-8.34 6.42-15.65c3.6-7.3 4.74-7.55 7.4-11.2s7.45-8.24 10.96-12.44c3.5-4.2 5.53-4.69 5.53-4.69 2.52-.49 5.73-2.62 6.37-4.1s.89-3.6-1.14-4.64-3.85.49-5.77 2.52-2.07 6.22-2.07 6.22l-7.55 8.09s1.48-3.11 2.12-4.84 1.97-6.02 1.97-6.02c1.14-.84 1.78-2.91 1.38-4.64-.39-1.73-2.02-1.68-3.26.05s-.15 3.5.2 4.59-1.88 6.56-2.37 8.64-10.89 15.24-12.79 18.54-7.3 14.23-7.3 14.23c.45-5.21 5.58-28.5 5.58-28.5l1.34-5.06c1.34-5.06 3.2-8.18 5.65-13.54s5.73-8.93 8.26-12.13 11.48-13.47 11.48-13.47 5.32-7.13 9.2-8.58 6.25-5.27 6.25-5.27c.16 2.38.72 3.83 4.03 5.74s2.69 2.84 5.22 4.81 7.7 1.24 11.01-2.48-2.48-10.39-2.48-10.39c3.26 2.17 7.34 2.38 12.1.93s7.34-5.89 8.22-8.17c.88-2.27-.26-3.26-3.41-6s-8.01-1.55-8.01-1.55 2.17-1.71 3.77-7.34-4.24-6.56-4.24-6.56c-1.19-3.51-5.69-3.83-9.46-2.95s-7.65 7.39-7.65 7.39.26-2.58-.52-6.36-2.64-5.84-5.84-7.55-6.72.52-6.72.52-6.46.98-7.7 7.81c-1.24 6.82 2.74 11.48 2.74 11.48s-5.53-1.09-6.67 2.84 2.97 7.88 2.97 7.88c-.44 5.51 6.07 7.82 6.07 7.82-.6 1.34-1.54 3.42-2.15 5.64s-11.89 14.1-14.1 16.65c-2.22 2.55-7.12 9-10.88 14.24s-7.86 15.31-7.86 15.31l3.89-21.49s3.47-19.24 4.49-25.01 1.58-9.64 4.07-19.7 3.07-11.02 5.3-16.58 11.17-16.15 14.35-17.85 4.61-3.44 5.14-3.71 2.22.32 4.71.26 4.5-.74 6.88-3.71 2.6-3.92 1.64-5.51c-.95-1.59-5.03-1.59-5.03-1.59s2.33-1.96 2.97-3.34.53-3.65-1.69-5.03-5.24 2.28-5.24 2.28c-.69-2.17-2.86-2.07-4.45-1.22s-2.86 2.01-4.55 6.78.11 7.84.11 7.84c.11 1.11-2.01 4.29-2.81 5.93-.79 1.64-2.38 2.97-4.82 5.98-2.44 3.02-4.66 6.51-4.66 6.51 2.17-3.76 4.93-13.45 5.3-15.99s1.06-6.88 1.22-8.63 1.38-2.17 2.7-4.08 1.64-4.98 1.11-6.78-1.96-3.18-3.76-2.54-3.34 4.55-3.65 7.57c-.32 3.02 2.28 5.5 2.28 5.5s-.8 7.57-1.25 10.69-3.12 9.62-3.74 11.58-5.79 12.56-5.79 12.56c.26-1.13.3-2.46.37-6.08l.13-4.57-1.28 4.57-1.55 12.77-5.44 22.64-1.55-11.89-3.96-13.57 1.34-3.36" fill="#ced38d"/><path d="m169.26 205.51.81-1.36.19-2.06.31-2.91.7-2.08 1.17-1.49 2.06-1.19 2.15-.65 3.28-.81 2.5-1.12 2.11-.6 1.79-.65 1.9-.07 1.35.07-1.53.71-2.29.91-2.32 1.38-1.61 1.43-2.86 3.72-2.86 3.35-1.25 1.33-2.26 1.27-1.85 1.67-1.61.31z" fill="#ced38d"/><g fill="#fff6e3"><path d="m121.63 182.25c-1.75.52-7.17.96-8.05-4.72-.87-5.69 7.35-4.11 8.66-1.31l.73 1.61.31 1.91-.23 1.39-.33.81-1.1.32z"/><path d="m123.95 168.05c-.24-1.34.37-2.33.74-3.91.52-2.27-.52-5.51-2.97-6.91s-4.81.7-4.81.7l-1.17 1.38-.58 1.24c-.17 4.55 1.49 5.77 4.37 7.96l1 1.09.25.39 1.14-.02 1.08-.37.89-.71.07-.84z"/><path d="m140 141.23c-3.24-3.76-2.89-1.57-3.15-.26s-.52 5.6-2.62 7.08-7.26 3.41-9.45 2.27-2.89-4.37-1.84-8.13c0 0-4.02 2.89-8.05 1.31 0 0-4.99.7-6.38-2.19s-1.22-7.35 1.31-8.83c2.54-1.49 5.16-2.8 6.65-3.15 0 0-6.56-1.31-8.92-5.95s-1.66-7.61 2.1-8.75c0 0 .79-6.3 6.3-4.99s8.22 3.85 8.22 3.85-2.45-5.42-.17-9.36c2.27-3.94 3.15-7.08 6.03-7.08s4.81.26 6.03 3.15 1.05 3.67 1.05 3.67 1.84-3.94 4.11-4.11 3.67-.87 6.21 2.62 4.11 7.87 3.24 10.41-3.24 5.16-3.24 5.16 4.55-1.4 6.65-.52c0 0 2.99 1.2 3.13 3.53s-.78 6.7-2.68 9.38c0 0-1.76 4.23-3.67 5.29s-5 2.2-7.34 1.64c0 0-1.1 1.5-1.17 2.11s-.06 1.08-.06 1.08l-.74.51-.83.28z"/><path d="m167.69 100.71c.43-1.09 1.43-1.66 2.5-3.21 1.32-1.91 1.64-4.98 1.11-6.78s-1.96-3.18-3.76-2.54-3.34 4.55-3.65 7.57c-.32 3.02 2.28 5.5 2.28 5.5s.22.25.7.1.82-.64.82-.64z"/><path d="m177.93 111c.53-.26 2.22.32 4.71.26s4.5-.74 6.88-3.71 2.6-3.92 1.64-5.51c-.95-1.59-5.03-1.59-5.03-1.59s2.33-1.96 2.97-3.34.53-3.65-1.69-5.03-5.24 2.28-5.24 2.28c-.69-2.17-2.86-2.07-4.45-1.22s-2.86 2.01-4.55 6.78.11 7.84.11 7.84l.17 1.46.76 1.18 1.61.76 2.12-.18z"/><path d="m176 170.91c3.88-1.45 6.25-5.27 6.25-5.27.16 2.38.72 3.83 4.03 5.74s2.69 2.84 5.22 4.81 7.7 1.24 11.01-2.48-2.48-10.39-2.48-10.39c3.26 2.17 7.34 2.38 12.1.93s7.34-5.89 8.22-8.17c.88-2.27-.26-3.26-3.41-6s-8.01-1.55-8.01-1.55 2.17-1.71 3.77-7.34-4.24-6.56-4.24-6.56c-1.19-3.51-5.69-3.83-9.46-2.95s-7.65 7.39-7.65 7.39.26-2.58-.52-6.36-2.64-5.84-5.84-7.55-6.72.52-6.72.52-6.46.98-7.7 7.81c-1.24 6.82 2.74 11.48 2.74 11.48s-5.53-1.09-6.67 2.84 2.97 7.88 2.97 7.88c-.44 5.51 6.07 7.82 6.07 7.82-.6 1.34-1.54 3.42-2.15 5.64l.07 1.21.98.61 1.42-.05z"/><path d="m158.62 210.77c1.14-.84 1.78-2.91 1.38-4.64-.39-1.73-2.02-1.68-3.26.05s-.15 3.5.2 4.59c0 0-.02.36.69.38s.99-.38.99-.38z"/><path d="m164.69 213.53c2.52-.49 5.73-2.62 6.37-4.1s.89-3.6-1.14-4.64-3.85.49-5.77 2.52-2.07 6.22-2.07 6.22.56 1 1.34.68 1.27-.68 1.27-.68z"/><path d="m134.92 174.47c1.14-2.27 1.49-5.42-.44-5.6s-2.27 3.76-2.01 5.6l.14 1.61.3.35 1.16.09.47-1.02.38-1.02z"/><path d="m152.14 83.63c.79-1.43 1.08-3.32 1.08-3.32s2.68 1.13 7.22.72 6.81-4.64 8.77-10.42-6.6-3.92-6.6-3.92 3.1-4.95 3.61-9.08c.52-4.13-.62-9.39-5.26-10.83s-9.9 6.09-9.9 6.09c-.83-4.44-4.54-6.6-11.35-4.64s-6.09 13.31-6.09 13.31c-2.27-3.35-5.6-2.95-7.35-2.78s-4.81 2.36-5.95 4.11-.35 5.16 2.45 7.26 9.27 2.8 9.27 2.8c-1.31.26-2.27 1.14-3.24 3.06s2.45 5.16 8.66 6.12 10.06-2.89 10.06-2.89c.52 2.01 2.01 4.02 2.54 4.81"/></g><path d="m88.35 20.8s-8.57 2.41-7.95 9.12c.62 6.7 4.97 10.19 8.32 10.99s10.31 2.41 11.43 8.18c1.12 5.76.99 8.85-8.45 14.61s-6.58 19.17-5.46 20.91 2.98 4.56 5.84 6.17 9.31 8.04 6.96 14.34-4.72 12.6-18.13 20.51-13.04 21.58-8.2 25.87 10.43 5.9 10.31 8.04-2.86 6.17 4.22 10.86 8.07 3.75 6.58 12.47c0 0-1.99 5.9-6.33 11.26-4.35 5.36 1.24 9.65 1.49 13s-1.86 8.04-1.49 12.6 1.61 6.57.75 10.32.99 5.76.99 5.76-.37-1.61.12-3.75-.12-10.46-.62-12.73 2.24-10.19 1.49-13-2.61-5.23-2.48-7.51 7.95-13.27 8.07-19.03-2.11-8.04-5.22-9.92-5.16-3.06-5.69-6.99 1.24-3.92-3.1-8.04-9.93-7.75-9.05-12.25 2.04-11.68 14.01-16.27 22.53-18.38 23.24-22.59 3.46-10.43-2.48-14.84c-5.94-4.4-13.04-1.82-16.23-12.25 0 0-3.64-9.09 6.83-15.12 10.46-6.03 2.84-17.52.27-19.72s-6.65-4.4-10.73-6.13c-4.08-1.72-6.83-5.36-4.7-8.81s5.41-6.06 5.41-6.06z" fill="#fcf8f0"/><path d="m74.63 90.16 1.05 8.08c.36 2.8 2.53 5.03 5.32 5.47l1.87.29-1.87.21c-2.77.32-4.96 2.48-5.31 5.24l-1.07 8.38-1.07-8.38c-.35-2.76-2.54-4.92-5.31-5.24l-1.87-.21 1.87-.29c2.79-.44 4.96-2.67 5.32-5.47l1.05-8.08z" fill="#f9f1ac"/><path d="m153.55 118.19-.08-4.34c-.29-2.95-1-10-1.3-12.99-.3-2.89-.54-5.78-.95-8.65-.4-2.88-.9-5.75-1.46-8.6.55-1.03.87-2.17 1.08-3.31 3.59.94 8.3 1.63 11.33-1.12 2.43-2.27 3.57-5.54 4.67-8.6 1.62-4.38-3.58-4.53-6.57-3.87-.03 0-.05-.03-.04-.05 1.48-2.52 2.79-5.19 3.43-8.05.83-4.14-.02-9.5-4.2-11.47-4.4-1.91-8.26 2.62-10.71 5.74-.02.03-.07.02-.07-.02-.23-1.21-.72-2.39-1.54-3.32-1.69-1.9-4.47-2.22-6.87-1.89-7.5.42-9.13 7.56-8.94 13.87 0 .05-.06.07-.08.03-.79-1.15-1.91-2.11-3.25-2.52-1.34-.44-2.78-.38-4.17-.21-1.38.25-2.59 1.07-3.7 1.91-1.04.86-2.24 1.86-2.52 3.24-.64 6.57 7.02 8.31 12.1 8.9.06 0 .06.09 0 .1-1.12.2-2 1.02-2.59 1.96-2.63 3.31 2.75 5.73 5.34 6.51 4.27 1.41 9.29.84 12.68-2.27.78 1.74 1.04 2.58 2.31 4.35.55.64.67 1.52.89 2.28.59 2.38 1.07 4.79 1.53 7.2 1.5 7.44 1.42 16.8 1.93 24.43 0 .04-.05.08-.09.06-1.05-.39-2.22-.3-3.31-.17-1.11.14-2.22.39-3.29.7-.06.02-.11-.06-.06-.1 1.54-1.93 3.35-4.08 3.46-6.64 0-1.27-.3-2.53-.72-3.72-1.19-2.9-3.62-8.25-7.26-7.88-1.26.1-2.59.13-3.5 1.13-.99.84-1.57 2.15-2.27 3.13-.03-.01-.04-.04-.04-.07.02-.6-.18-1.24-.36-1.83-.6-1.74-1.3-3.8-3.18-4.47-5.36-1.51-6.33.62-8.57 5.02-.58 1.14-1.34 2.2-1.6 3.45-.57 2.48-.04 5.11.89 7.45.03.07-.06.13-.11.08-1.15-.98-2.5-1.74-3.89-2.37-4.74-2.13-9.28-3.01-10.51 3.47-1.67.57-3.39 1.76-3.44 3.72-.05 3.59 2.1 7.11 5.2 8.89 1.55.92 3.25 1.59 5 2 .08.01.08.14 0 .15-1.93.54-3.71 1.53-5.48 2.48-.87.49-1.8.94-2.34 1.81-1.48 2.49-1.26 6.19.55 8.45 1.5 1.36 3.74 1.45 5.67 1.27 1.33.47 2.77.6 4.16.3 1.37-.28 2.69-.83 3.85-1.6.04-.03.09-.02.12.02-.5 2.18-.85 4.7.37 6.72 2.09 3.56 8.14.76 10.8-.89 2.25-1.91 2.19-5.21 2.71-7.92.04-.4.19-1.11.76-1 3.79 2.12 4.77 6.89 5.89 10.76 1.11 4.48 1.92 9.02 2.43 13.61.42 9.1-1.3 18.51-2.9 27.45-1.52 7.91-3.13 19.23-4.1 27.33 0 .11-.2.11-.2 0-.39-7.42-.83-14.91-3.09-22.02-1.79-4.16-2.06-8.7-2.02-13.17.11-2.24-.05-4.5.39-6.7.69-2.04 2.16-4.08 1.58-6.32-.23-1.15-1.82-1.37-2.34-.31-.9 1.62-.84 3.57-.64 5.38.03 3.9.16 9.88-.25 13.51-1.16-3.01-2.16-6.28-3.44-9.31-1.24-3.01-2.43-6.1-4.06-8.92-.44-.68-.88-1.42-1.04-2.26-.17-.84.05-1.69.3-2.47.57-1.54.77-3.17.23-4.74-1-3.32-4.44-5.39-7.39-2.85-.04.04-.1.04-.14.01 0 0-4.86-3.19-4.86-3.19-1.6-1.22-2.66-2.66-4.74-3.18-3.57-1.03-7.69-2.09-11.26-.63 0 0-.07-.22-.07-.22 1.89-.03 3.76.23 5.6.6 1.84.39 3.65.91 5.37 1.68 3.48 1.54 6.21 4.44 8.4 7.47-.04 1.48.05 3.02.75 4.33 1.43 2.65 5.04 3.63 5.69 6.83.46 1.45.65 2.97.64 4.49.01.13-.2.17-.24.05-1.21-1.98-4.07-2.73-6.26-2.32-2.72.51-2.54 3.81-1.44 5.76 1.09 2.21 3.8 2.95 6.09 2.63.81-.06 1.57-.48 2.41-.36.86.13 1.54.64 2.19 1.11 3.25 2.39 6.32 5.25 7.62 9.19 1.13 3.01 2.44 5.98 3.06 9.16.63 3.17 1 6.36 1.42 9.56.74 12.72-2.45 25.79-4.65 38.27-2.16 12.66-4.83 25.34-5.15 38.2-.11 6.43.14 12.87.76 19.26.03.17-.24.22-.28.06-2.05-7.45-4.36-15.02-4.3-22.82.15-11.45 1.98-23.68-3.75-34.16-1.73-3.46-3.86-6.7-6.05-9.9-1.08-1.6-2.2-3.24-2.78-5.13-.77-3.75-1.84-7.59-4.33-10.59-1.19-1.41-2.84-2.73-4.73-2.85 0 0 .08-.29.08-.29 1.97 1.26 3.43 3.16 4.58 5.15 1.31 1.96 1.42 4.42 1.44 6.7-.14 4.59-.33 9.19-.76 13.75-.7 4.54-1.83 9.01-2.1 13.57-.11 4.57 2.28 8.84 4.3 12.81 2.12 4.12 5.09 7.57 7.89 11.22 4.19 5.66 5.13 12.72 7.36 19.21 1.5 4.56 5.22 14.92 6.82 19.47-.03-.05 2.85 5.85 2.84 5.84 2.88 5.48 6.37 11.74 9.99 16.77 4.99 6.99 10.64 13.94 18.05 18.45 0 0-.17.3-.17.3-3.18-2.16-5.52-5.25-7.77-8.3-6.59-9.28-11.85-19.42-16.87-29.62-9.42-17.12-3.84-33.04 7.61-47.41 3.52-4.48 8.15-8.09 13.24-10.64 3.52-1.42 7-2.85 10.29-4.76 3.29-1.85 6.49-3.88 9.29-6.43 2.89-2.48 6.13-4.52 9.47-6.31 3.3-1.86 6.8-3.42 10.36-4.7 3.57-1.3 7.16-2.49 10.78-3.62 1.85-.54 3.79-.68 5.69-.54 1.91.16 3.79.56 5.58 1.29l-.21.32c-2.64-1.9-6.11-2.95-9.33-2.02-3.27.86-6.69.91-10.02.99-13.35 1.1-26.07 6.45-37.83 12.64-5.75 3.49-9.53 9.34-13.32 14.75-5.06 7.37-9.22 15.32-13.61 23.1-.1.2-.43.08-.38-.13 1.18-6.6 3.69-12.88 6.73-18.81 1.52-2.97 3.22-5.85 5.02-8.66.88-1.42 1.85-2.83 3.12-3.95 6.15-5.71 14.04-8.95 20.75-13.89 5.53-3.79 9.9-8.89 15.2-12.95 5.21-4.09 11.02-7.56 15.73-12.22 2.66-3.17 4.79-6.82 7.53-9.96 4.26-3.98 8.19-8.51 13.69-10.84 4.74-2.18 10.13-.82 14.62 1.31 1.5.69 3.1 1.33 4.39 2.46 2.6 2.22 4.14 5.43 4.76 8.75l-.25-.18s.19-.21.22-.41c.2-1.63-.46-3.25-.97-4.79-1.18-3.68-3.85-6.68-7.49-8.06-3.53-1.41-7.33-2.38-11.13-2.66-1.89-.1-3.84.1-5.5 1.01-1.71.9-2.83 2.67-4.61 3.45-1.75.87-3.58 1.51-5.43 2.09-3.7 1.14-7.46 2-11.22 2.85-2.23.47-4.83 1.03-6.88 2-9.91 4.94-18.36 12.36-26.62 19.64-8.78 7.6-14.11 18.31-18.45 28.89-1.72 3.91-5.66 11.78-7.5 15.65-1.34 2.81-3.85 7.5-4.99 10.4-1.33 3.6-2.26 7.34-2.93 11.13-.68 3.78-1.14 7.61-1.38 11.45 0 .13-.11.23-.24.22-.11 0-.2-.09-.22-.2-.54-3.65-1.25-7.51-1.3-11.11-.08-14.89 1.51-29.99 6.06-44.21 1.99-4.59 4.32-8.95 6.66-13.37 3.75-6.12 9.27-12.04 14.15-17.32 1.68-1.81 3.15-3.84 5.06-5.5.86-.72 1.74-1.45 2.83-1.82 1.33-.28 2.6-.88 3.75-1.61.96-.65 2.04-1.41 2.5-2.49.44-1.09.59-2.4-.08-3.34-2.26-2.84-5.63.35-7.11 2.45-.99 1.61-1.19 3.58-1.45 5.4 0 0-7.55 8.09-7.55 8.09-.18.19-.52-.03-.4-.27 0 0 1.16-2.65 1.16-2.65.85-1.65 2.32-6.33 2.92-8.18 1.33-1.14 1.94-3.48 1.14-5.1-.75-1.16-2.16 0-2.67.86-.99 1.42-.06 2.99.35 4.45-.23 2.95-1.68 5.65-2.37 8.44-.43 1.3-1.24 2.3-1.95 3.42-3.34 4.97-8.03 10.68-11.15 15.76-2.45 4.52-4.73 9.15-7.03 13.76-.1.25-.52.14-.47-.13.87-6.76 2.4-13.36 3.76-20.02 1.02-4.88 2.13-10.11 3.54-14.86 1.51-4.9 3.98-9.38 6.15-14 3.22-6.03 7.99-10.97 12.33-16.19 2.46-2.78 7.61-9.11 10.01-11.76 1.51-1.59 3.13-3.16 5.07-4.25 1.2-.55 2.39-1.01 3.44-1.83 1.38-1.02 2.58-2.32 3.53-3.74.1-.18.41-.1.41.1-.07 3.8 3.15 4.87 5.75 6.82 1.24 1.06 1.97 2.51 3.29 3.47 2.53 1.95 6.25 1.11 8.75-.53 1.09-.77 2.25-1.66 2.76-2.91 1.1-3.21-1.24-6.55-3.14-9.02-.17-.17.09-.44.27-.31 5.48 3.52 14.12 1.79 17.93-3.46.98-1.32 1.87-2.81 2.3-4.37.39-1.71-1.19-2.93-2.31-3.98-2.31-2.54-5.8-3.36-9.09-2.61-.1.02-.21-.05-.23-.15 1.85-2.12 3.16-4.94 3.84-7.74.89-3.04-1.18-5.5-4.15-6.02-.07-.01-.13-.06-.15-.12-1.32-3.66-6.05-3.56-9.24-2.83-3.43 1.12-5.62 4.44-7.54 7.31-.05.08-.16.11-.25.06-.16-3.71-.15-8.11-2.73-11.14-2.68-3.05-6.46-4.53-10.16-2.25-6.5 1.24-9 7.81-7.43 13.76.47 1.9 1.31 3.74 2.5 5.27.06.07.04.17-.03.23-2.55-.33-6.2.03-6.69 3.16-.53 2.74 1.19 5.41 3.01 7.32-.23 3.7 2.74 6.55 6.01 7.79.08.03.12.12.09.2-.81 1.79-1.58 3.6-2.11 5.5-1.42 2.99-3.96 5.29-6.03 7.83-1.74 1.97-3.51 3.91-5.29 5.85-1.58 1.68-3.76 4.14-5.15 5.95-4.78 6.25-9.88 12.34-13.19 19.53-1.15 2.36-2.23 4.75-3.24 7.18-.05.14-.28.08-.25-.07 2.06-11.38 7.29-40.24 9.23-51.23 2.26-11.31 4.44-22.86 9.4-33.34 1.37-2.56 3.09-4.91 4.85-7.2 2.76-3.3 5.43-6.95 9.18-9.18 1.57-.87 3-2 4.34-3.21.25-.27.71-.36 1.07-.3 2.13.25 4.34.6 6.42-.03 2.77-.87 4.65-3.41 6.13-5.78.35-.62.55-1.34.34-2.02-.6-2.28-3.42-2.38-5.39-2.49-.07 0-.11-.1-.05-.14 1.02-.9 2.04-1.85 2.77-2.99 1.09-1.78.31-4.24-1.48-5.24-1.94-1.01-3.9.91-5.15 2.25-.04.05-.12.03-.13-.03-.54-1.97-2.87-2.09-4.41-1.14-1.65.81-2.65 2.43-3.4 4.06-1.5 3.19-2.62 7.07-.96 10.42 0 .97-.57 1.81-.97 2.66-.96 1.6-1.69 3.34-2.8 4.83-3.08 3.48-6.05 7.06-8.52 11.01 1.73-3.98 3.59-9.04 4.67-13.61.59-2.15.85-4.91 1.19-7.09 0 0 .5-3.56.5-3.56.08-.59.15-1.22.48-1.74 1.04-1.46 2.56-2.59 3.09-4.37.71-2.2.95-4.94-.6-6.83-2.17-2.32-4.37-.07-5.23 2.24-1.56 3.62-1.87 7.02 1.08 9.98-.26 1.99-1.07 9.67-1.38 11.41-.5 2.25-1.29 4.42-2.06 6.58-1.97 5.81-4.64 11.4-7.38 16.85.37-2.61.39-5.32.46-7.97 0-.03.05-.03.05 0-.14 2.58.04 5.51-.52 7.93 2.68-5.51 5.39-11.02 7.33-16.84 1.02-2.88 2.13-5.77 2.37-8.84 0 0 1.06-9.13 1.06-9.13-1.63-1.51-2.76-4.22-2.12-6.56.51-2.3 1.18-4.85 3.13-6.36 2.54-1.42 4.58 1.69 4.46 4.01.1 2.42-.74 4.87-2.49 6.58-.88.85-1.59 1.8-1.61 3.07-.26 1.81-.75 5.34-1 7.13-1.01 5.89-2.81 11.75-5.45 17.12 0 0-.1-.06-.1-.06 2.47-3.95 5.44-7.54 8.52-11.03 1.11-1.49 1.84-3.22 2.79-4.81.4-.81.92-1.65.96-2.55-1.67-3.24-.56-7.33.96-10.52.74-1.63 1.77-3.3 3.46-4.13 1.58-.95 4.08-.89 4.62 1.22 0 0-.13-.03-.13-.03 1.29-1.42 3.33-3.35 5.35-2.29 1.86 1.06 2.68 3.59 1.54 5.46-.75 1.18-1.77 2.12-2.81 3.03 0 0-.05-.14-.05-.14 1.45.05 2.93.19 4.26.86 1.35.74 1.78 2.63.94 3.89-.72 1.28-1.64 2.4-2.61 3.48-2.49 3.04-6.57 3.02-10.11 2.42-.37-.03-.67-.02-.94.26-2.33 2.41-5.53 3.46-7.75 5.87-4.04 4.09-7.74 8.64-10.56 13.67-4.94 10.46-7.11 22.01-9.36 33.29-1.91 10.88-7.17 40.01-9.2 51.24 0 0-.25-.07-.25-.07 2.05-4.85 4.23-9.65 7.04-14.12 4.54-6.41 9.2-12.87 14.57-18.63 1.77-1.94 3.54-3.88 5.28-5.85 2.04-2.5 4.55-4.81 5.96-7.72.53-1.91 1.31-3.74 2.12-5.54 0 0 .09.21.09.21-3.26-1.13-6.71-4.63-6.13-7.85-4.91-4.78-4.5-12.27 3.84-10.99 0 0-.15.26-.15.26-3.56-4.67-4.44-12.21-.2-16.73 1.32-1.43 3.55-2.52 5.2-2.8 1.71-.98 3.78-1.5 5.75-.98 3.82 1.25 6.69 4.69 7.18 8.67.35 1.93.54 3.88.42 5.86l-.33-.11c1.99-2.97 4.21-6.33 7.77-7.48 3.34-.79 8.31-.8 9.67 3.07 0 0-.15-.12-.15-.12 1.45.3 2.86.98 3.79 2.19 1.88 2.58.26 5.82-.79 8.4-.63 1.31-1.33 2.6-2.45 3.65 0 0-.16-.34-.16-.34 2.51-.5 5.28-.36 7.48 1.06 1.38 1.06 2.64 2.13 3.76 3.46 1.28 1.44.5 3.45-.34 4.9-1.96 3.84-5.68 6.66-9.97 7.26-3.33.68-7.01.4-9.88-1.55 0 0 .27-.31.27-.31 1.03 1.25 1.93 2.6 2.62 4.07.74 1.61 1.32 3.61.6 5.37-1.36 2.73-4.51 4.39-7.47 4.78-1.61.16-3.38-.09-4.69-1.16-1.31-.94-2.1-2.44-3.3-3.47-1.18-1.01-2.72-1.61-3.94-2.73-1.31-1.04-1.93-2.76-1.96-4.39 0 0 .41.1.41.1-1 1.49-2.21 2.79-3.64 3.86-1.37 1.12-3.17 1.51-4.58 2.55-2.8 2.03-5.11 4.75-7.23 7.47 0 .02-6.6 7.74-6.6 7.75-4.3 5.18-9.09 10.14-12.27 16.12-2.14 4.57-4.62 9.07-6.11 13.92-2.32 8.07-3.86 16.57-5.56 24.79-.63 3.32-1.33 6.66-1.71 10 0 0-.47-.13-.47-.13 2.3-4.62 4.58-9.24 7.05-13.78 2.31-3.77 6.33-8.98 8.96-12.64 1.4-2.08 3.14-4.1 4.1-6.42.7-2.8 2.08-5.44 2.36-8.26-.49-1.47-1.34-3.3-.27-4.78.63-1.15 2.56-2.37 3.49-.86.87 1.87.4 4.25-1.18 5.63 0 0 .09-.12.09-.12-.6 1.78-2.05 6.56-2.94 8.22 0 0-1.17 2.67-1.17 2.67s-.4-.27-.4-.27 7.55-8.09 7.55-8.09-.06.16-.06.16c.13-1.89.5-3.81 1.46-5.47 1.64-2.39 5.41-5.69 7.92-2.48 2.26 3.98-2.64 7.17-5.99 8.09-1.19.21-2.16 1.07-3.08 1.82-1.86 1.61-3.32 3.63-5.02 5.46l-5.05 5.49c-2.52 2.73-4.7 5.77-7.04 8.65-2.22 2.99-3.72 6.41-5.42 9.72-1.12 2.22-2.3 4.41-3.21 6.7-3.08 9.33-4.62 19.39-5.53 29.16-.66 8.65-.9 17.36.8 25.91 0 0-.46.03-.46.03.53-7.71 1.69-15.43 4.35-22.71 1.17-3.05 3.6-7.42 5.01-10.44 0 0 5.05-10.4 5.05-10.4 3.38-6.94 5.91-14.28 10.07-20.82 2.01-3.3 4.17-6.52 6.77-9.41 2.66-2.83 5.6-5.31 8.51-7.87 6.62-5.59 13.39-11.19 21.1-15.23.63-.35 1.98-.94 2.65-1.2 1.62-.61 3.9-1.14 5.62-1.48 5.59-1.32 11.33-2.44 16.55-4.9 1.82-.81 2.86-2.54 4.61-3.44 1.76-.96 3.8-1.16 5.73-1.06 3.88.29 7.67 1.26 11.28 2.7 5.2 1.89 8.21 7.28 8.77 12.58-.04.56.06 1.19-.63 1.51-.13.05-.24-.06-.25-.18-.6-3.19-2.1-6.36-4.6-8.48-1.23-1.08-2.78-1.7-4.29-2.4-2.99-1.34-6.19-2.51-9.51-2.39-6.81.36-11.94 5.58-16.49 10.14-3.9 3.2-6.06 7.84-9.35 11.62-4.75 4.71-10.56 8.16-15.8 12.28-2.7 1.94-5 4.34-7.48 6.59-4.89 4.54-10.34 8.49-16.18 11.73-5.53 3.44-11.86 6.61-15.32 12.34-5.32 8.38-9.89 17.49-11.69 27.32 0 0-.38-.13-.38-.13 4.4-7.79 8.56-15.74 13.63-23.13 3.82-5.44 7.64-11.35 13.46-14.87 11.81-6.21 24.57-11.59 38.01-12.69 3.38-.09 6.68-.12 9.96-.98 3.32-.96 6.93.12 9.67 2.12.17.12 0 .42-.19.33-3.46-1.36-7.42-1.77-11.03-.74-7.18 2.3-14.48 4.54-21.07 8.29-3.33 1.79-6.54 3.81-9.4 6.27-2.81 2.56-6.05 4.62-9.36 6.47-3.28 1.9-6.81 3.35-10.32 4.77-6.84 3.29-12.34 8.79-16.51 15.07-9.21 13.52-12.4 27.51-4.18 42.48 5.91 11.79 11.84 23.83 20.34 34 1.26 1.4 2.6 2.74 4.16 3.77.09.05.11.16.06.25-.05.08-.15.1-.23.06-2.89-1.62-5.33-3.8-7.72-6.05-10.06-9.87-17.31-22.54-23.32-35.2-1.68-4.54-5.32-15.13-6.82-19.5-2.22-6.45-3.17-13.51-7.32-19.13-1.28-1.88-2.92-3.51-4.23-5.41-2.68-3.74-4.93-7.79-6.6-12.08-.8-2.13-1.58-4.4-1.4-6.74.28-4.61 1.41-9.08 2.11-13.6.39-2.26.21-4.57.45-6.84.1-4.34 1.23-9.51-1.08-13.41-1.13-1.97-2.56-3.81-4.47-5.04-.08-.04-.1-.14-.06-.22 2.02-.18 3.85 1.45 5.11 2.89 2.52 3.04 3.62 6.92 4.39 10.7.56 1.83 1.66 3.45 2.74 5.05 2.19 3.2 4.33 6.46 6.07 9.94 5.75 10.52 3.93 22.82 3.77 34.3-.06 7.75 2.25 15.32 4.29 22.74 0 0-.28.06-.28.06-.62-6.41-.87-12.86-.75-19.3.33-12.89 3.01-25.57 5.17-38.25 2.2-12.46 5.39-25.5 4.66-38.18-.42-3.19-.79-6.39-1.41-9.54s-1.92-6.12-3.05-9.12c-.59-1.49-1.28-2.94-2.24-4.22-.95-1.29-2.16-2.34-3.41-3.36-1.23-.93-2.41-2.25-3.94-2.57-.75-.12-1.51.3-2.34.36-.81.1-1.63.09-2.44-.05-3.38-.38-5.61-4.35-4.32-7.47 1.76-2.73 7.13-1.45 8.56 1.08 0 0-.24.05-.24.05 0-1.48-.18-2.99-.63-4.41-.68-3.2-4.24-4.07-5.68-6.79-.73-1.26-.87-3.3-.75-4.38-2.23-2.93-4.84-5.82-8.27-7.31-3.41-1.45-7.16-2.26-10.87-2.26-.12.02-.18-.17-.07-.22 1.81-.86 3.84-.79 5.78-.63 2.85.41 5.89.87 8.31 2.55.79.61 1.36 1.4 2.18 1.9l4.85 3.18h-.14c1.28-1.05 3.15-1.61 4.7-.82 2.28 1.15 3.5 3.78 3.4 6.26-.06 1.64-1.15 3.13-.86 4.77.15.79.56 1.49 1.01 2.18 3.12 5.77 5.34 12 7.42 18.21 0 0-.22.03-.22.03.08-2.98.15-5.95.18-8.93.32-3.31-.93-6.88.64-9.97.38-.72 1.35-1.03 2.06-.59 1.02.72.85 2.16.67 3.22-.24 1.49-1.16 2.76-1.58 4.17-.42 2.16-.27 4.45-.38 6.65-.01 2.97.12 5.96.65 8.87.71 2.89 1.99 5.6 2.5 8.56 1.35 5.82 1.61 11.81 1.95 17.75h-.2s1.79-13.71 1.79-13.71c1.96-13.56 5.73-27.24 5.23-41.03-.87-6.8-1.91-13.76-4.6-20.11-.72-1.54-1.82-2.94-3.2-3.94-.22-.15-.52-.26-.67-.07-.94 2.84-.42 6.67-3.03 8.79-4.33 2.69-11.74 5.13-11.89-2.52-.01-1.16.18-2.32.48-3.43l.13.09c-1.78 1.16-3.9 1.9-6.04 1.77-.72-.03-1.41-.22-2.08-.45-1.75.22-4.27.08-5.76-1.31-1.36-1.56-1.63-3.78-1.51-5.77.1-2.11 1.37-3.94 3.33-4.74 1.77-.96 3.55-1.95 5.52-2.5v.15c-3.48-.86-7.08-2.6-8.88-5.84-1.85-3.28-2.57-7.77 2.06-9 .28-2.93 2.71-5.99 6.31-4.99 2.97.73 5.9 1.9 8.28 3.87 0 0-.11.08-.11.08-1.57-3.65-1.63-7.69.71-11.02 2.22-4.32 3.24-6.66 8.74-5.08 1.25.44 2.09 1.59 2.58 2.76.47 1.21 1.03 2.38 1.05 3.7 0 0-.13-.04-.13-.04.88-1.65 1.97-3.56 3.88-4.1 1.27-.14 2.61-.46 3.82.07 3.33 1.87 6.14 7.68 6.22 11.46-.12 2.61-1.93 4.77-3.49 6.72 0 0-.06-.1-.06-.1 2.15-.55 4.5-1.21 6.69-.52 0 0-.08.06-.08.06-.3-5.64-.63-13.99-1.14-19.58-.36-3.24-1.1-6.44-1.75-9.64-.44-1.54-.5-3.29-1.43-4.63-.92-1.35-1.79-2.77-2.23-4.36 0 0 .09.03.09.03-3.43 3.15-8.49 3.71-12.79 2.29-2.7-.85-8.05-3.23-5.4-6.67.59-.96 1.51-1.8 2.66-2.01v.1c-2.78-.37-5.6-.9-8.16-2.12-3-1.44-5.66-5.88-3.02-8.75 1.44-1.52 3.21-2.91 5.3-3.37 2.79-.49 5.94.23 7.51 2.78 0 0-.08.03-.08.03-.19-6.28 1.45-13.57 9.02-13.96 3.94-.66 8.03 1.12 8.43 5.27 2.18-2.79 4.92-6.01 8.68-6.27 5.72.35 7.47 7.32 6.38 12.06-.64 2.88-1.95 5.55-3.44 8.08 1.01-.32 2.68-.42 3.91-.27 2.43.23 3.58 1.83 2.7 4.17-1.1 3.07-2.24 6.35-4.69 8.62-3.03 2.7-7.73 2.17-11.35 1.1-.04.96-.56 2.39-1.04 3.28 1.18 5.69 1.88 11.45 2.4 17.23.31 3.02 1.01 10.1 1.29 12.99 0 0 .08 4.36.08 4.36 0 .03-.05.03-.05 0z"/><path d="m153.08 136.07-7.67 29.35c-.05.23-.42.2-.43-.04 0 0-.54-6.07-.54-6.07-.34-1.93-.76-4.11-1.09-6.13.02.11-1.6-6.11-1.6-6.09-.62-2.01-1.32-4.05-1.85-6.06 1.38 3.37 2.91 8.49 3.91 12.07.4 2.05.75 4.12 1.12 6.17 0 0 .48 6.07.48 6.07s-.43-.04-.43-.04c.05 0 8-29.43 8.09-29.24z"/><path d="m72.69 90.14c.21 1.53.73 5.3.94 6.78.2 4.41 3.06 6.73 7.32 6.96.14.02.14.23 0 .25-.75.1-1.53.16-2.27.29-4.67 1.01-4.82 4.95-5.23 8.89 0 0-.56 4.55-.56 4.55 0 .11-.11.2-.22.19-.09-.01-.16-.09-.17-.17-.4-2.66-.82-6.48-1.25-9.07-.76-3.21-3.78-4.49-6.82-4.55-.14-.02-.23-.14-.22-.28.01-.11.1-.2.21-.22.74-.12 1.52-.21 2.24-.35 3.09-.58 4.93-3.5 5.03-6.52.31-2.17.73-4.63 1.01-6.76zm0 .05c-.43 3.01-.52 6.07-1.1 9.04-.82 3.27-3.98 4.8-7.11 5.02 0 0-.01-.49-.01-.49.77.09 1.51.15 2.3.28 4.89 1.05 5.16 5.09 5.58 9.22 0 0 .54 4.56.54 4.56h-.4s.6-4.56.6-4.56c.4-2.96.4-6.6 3.37-8.26 1.31-.89 2.94-.94 4.46-1.11v.25c-4.32-.28-7.26-2.71-7.4-7.17-.17-1.45-.64-5.27-.82-6.77z"/><path d="m105.81 187.9c.38 2.08.52 5.13 1.19 7.07.89 2.24 3.06 3.74 5.44 3.93.07 0 .12.07.11.14 0 .06-.06.11-.11.11-3.03.11-5.61 2.58-5.77 5.62 0 0-.22 1.79-.22 1.79s-.44 3.59-.44 3.6c-.02.23-.37.23-.4 0 0 0-.5-3.58-.5-3.58l-.23-1.79c-.17-3-2.71-5.42-5.71-5.51-.14 0-.24-.13-.23-.26 0-.12.1-.22.22-.23 2.36-.18 4.49-1.64 5.38-3.84.69-2.16.85-4.78 1.27-7.04zm0 .05c-.38 2.37-.24 4.83-.97 7.11-.86 2.33-3.16 3.98-5.6 4.22 0 0-.01-.49-.01-.49 1.2.08 2.48.45 3.49 1.19 1.54 1.08 2.51 2.9 2.65 4.76 0 0 .23 1.79.23 1.79l.41 3.59s-.4 0-.4 0 .47-3.59.47-3.59c.17-1.08.24-2.57.64-3.58.85-2.35 3.21-3.94 5.68-4.03v.25c-2.42-.23-4.68-1.82-5.54-4.13-.67-2.01-.71-4.98-1.05-7.07z"/><path d="m159.77 143.94c-.09 2.46-3.58 2.5-3.73 0 .01-2.61 3.73-2.67 3.73 0zm-.05 0c-.08-1.97-3.2-1.98-3.28 0-.04 2.13 3.27 2.15 3.28 0z"/><path d="m157.45 152.75c-.06 2.01-2.94 2.06-3.07 0 0-2.18 3.09-2.24 3.07 0zm-.05 0c-.06-1.54-2.55-1.54-2.62 0-.04 1.7 2.61 1.72 2.62 0z"/><path d="m138.47 161.45c-.09 2.43-3.54 2.47-3.68 0 .01-2.59 3.69-2.64 3.68 0zm-.05 0c-.08-1.95-3.15-1.95-3.23 0-.04 2.1 3.22 2.12 3.23 0z"/><path d="m159.61 169.2c-.05 1.61-2.33 1.65-2.45 0-.03-1.76 2.5-1.82 2.45 0zm-.05 0c-.06-1.14-1.93-1.14-2 0-.06 1.28 1.99 1.33 2 0z"/><path d="m155.84 172.76c-.04 1.25-1.8 1.29-1.9 0-.04-1.4 1.97-1.47 1.9 0zm-.05 0c-.06-.8-1.37-.79-1.45 0-.07.91 1.46.97 1.45 0z"/><path d="m210.85 182.49c-.06 2.18-3.19 2.22-3.31 0 0-2.34 3.33-2.4 3.31 0zm-.05 0c-.07-1.71-2.78-1.71-2.86 0-.04 1.86 2.86 1.88 2.86 0z"/><path d="m177.04 184.61c-.06 2.18-3.19 2.22-3.31 0 0-2.34 3.33-2.4 3.31 0zm-.05 0c-.07-1.71-2.78-1.71-2.86 0-.04 1.86 2.86 1.88 2.86 0z"/><path d="m93.07 135.21c-.05 1.68-2.44 1.72-2.55 0-.03-1.84 2.61-1.89 2.55 0zm-.05 0c-.06-1.21-2.03-1.21-2.1 0-.06 1.35 2.1 1.4 2.1 0z"/><path d="m74.84 213.77c-.05 1.68-2.44 1.72-2.55 0-.03-1.84 2.61-1.89 2.55 0zm-.05 0c-.06-1.21-2.03-1.21-2.1 0-.05 1.35 2.1 1.4 2.1 0z"/><path d="m66.19 38.15c-.09 2.46-3.58 2.5-3.73 0 .01-2.62 3.74-2.67 3.73 0zm-.05 0c-.08-1.98-3.2-1.99-3.28 0-.04 2.13 3.27 2.15 3.28 0z"/><path d="m179.21 76.3c-.06 1.89-2.77 1.94-2.89 0-.02-2.05 2.93-2.11 2.89 0zm-.05 0c-.06-1.42-2.37-1.43-2.44 0-.05 1.56 2.43 1.62 2.44 0z"/><path d="m148.08 95.86c-.06 1.89-2.77 1.94-2.89 0-.02-2.05 2.93-2.11 2.89 0zm-.05 0c-.06-1.42-2.37-1.43-2.44 0-.05 1.56 2.43 1.62 2.44 0z"/><path d="m159.66 36.08c-.05 1.57-2.29 1.62-2.4 0-.03-1.73 2.46-1.79 2.4 0zm-.05 0c-.06-1.11-1.88-1.11-1.95 0-.06 1.25 1.95 1.3 1.95 0z"/><path d="m124.49 32.86c-.05 1.57-2.29 1.62-2.4 0-.03-1.73 2.46-1.79 2.4 0zm-.05 0c-.06-1.11-1.88-1.11-1.95 0-.06 1.25 1.95 1.3 1.95 0z"/><path d="m176.43 83.19c-.07 2.28-3.34 2.32-3.47 0 0-2.44 3.48-2.5 3.47 0zm-.05 0c-.07-1.8-2.94-1.81-3.02 0-.04 1.96 3.01 1.98 3.02 0z"/><path d="m209.13 112.06c-.05 1.61-2.34 1.66-2.45 0-.03-1.77 2.51-1.83 2.45 0zm-.05 0c-.06-1.15-1.93-1.15-2 0-.06 1.28 2 1.34 2 0z"/><path d="m218.35 123.01c-.05 1.61-2.34 1.66-2.45 0-.03-1.77 2.51-1.83 2.45 0zm-.05 0c-.06-1.15-1.93-1.15-2 0-.06 1.28 2 1.34 2 0z"/><path d="m120.52 212.98c-.05 1.61-2.34 1.66-2.45 0-.03-1.77 2.51-1.83 2.45 0zm-.05 0c-.06-1.15-1.93-1.15-2 0-.06 1.28 2 1.34 2 0z"/><path d="m148.74 52.86c-.14 6.17-.26 12.47-2.01 18.44-.03.09-.12.15-.21.13-3.11-.47-6.09-1.6-8.76-3.26-2.64-1.66-4.99-3.97-6.49-6.67 3.58 5.01 9.24 8.44 15.3 9.53 0 0-.21.13-.21.13.5-1.44.82-2.96 1.09-4.47.82-4.52 1-9.41 1.29-13.84z"/><path d="m160 66.62c-4.68 1.02-9.37 2.6-13.31 5.32-5.77-.28-11.53.3-17.26.91-.03 0-.04-.04 0-.05 5.67-1.21 11.51-1.66 17.3-1.24 3.27-2.46 8.97-4.27 13.28-4.95z"/><path d="m150.87 80.33c-2.84-1.57-4.66-4.88-3.85-8.13.02-.08.09-.14.17-.15 2.21-.28 4.46-.04 6.52.76.68.27 1.41.6 1.97 1.02-.68-.21-1.37-.53-2.08-.7-2.05-.57-4.24-.82-6.36-.67 0 0 .17-.15.17-.15-.91 3.28.95 6.26 3.45 8.01z"/><path d="m145.16 79.2c.86-.91 1.26-2.19 2.21-2.97.02.67-.36 1.26-.81 1.71-.33.33-1.09 1.22-1.4 1.25z"/><path d="m183.8 100.49c-1.68.25-2.97 1.43-4.49 1.96.78-1.33 3.16-2.07 4.49-1.96z"/><path d="m175.5 107.6c3.54-3.36 5.46-8.38 4.3-13.22-.01-.03.03-.05.05-.02 2.18 4.68-.74 10.35-4.34 13.24z"/><path d="m170.95 107.77c.18 2.3 1.65 3.21 3.79 3.19.2.02.88-.06.85.07-2.47 1.21-5.03-.74-4.64-3.25z"/><path d="m165.23 88.18c-1.13 3.65-1.32 7.49-.88 11.24-1.51-3.5-.4-7.98.88-11.24z"/><path d="m149.82 83.64c-.14.72-.95 1.5-1.7 1.03-.13-.07-.55-.57-.39-.65.43.11.72.3 1.12.34.35-.02.69-.37.93-.74.01-.03.06 0 .05.02z"/><path d="m121.85 113.49c3.1 5.5 6.31 11.39 11.43 15.25 0 0-.28.04-.28.04 3.59-4.06 7.77-7.66 12.11-10.83-3.95 3.64-8.15 7.14-11.79 11.11-.07.08-.2.1-.28.04-1.35-.95-2.46-2.13-3.51-3.36-3.03-3.69-5.72-8.07-7.68-12.25z"/><path d="m114.12 129.31c5.89-1.86 12.3-2.47 18.35-1.05 0 0-.22.2-.22.2-.19-2.1 0-4.15.12-6.21.51-6.1 1.25-12.5 2.43-18.36 0 0-1.34 12.27-1.34 12.27-.38 4.05-1.06 8.19-.85 12.25.01.1-.06.2-.17.2-5.98-1.54-12.56-.87-18.32.7z"/><path d="m134.91 139.11c.79-3.19-.08-6.63-1.88-9.33 0 0 .17.07.17.07-1.44.38-2.77 1.11-3.97 2-3.59 2.76-6.2 6.63-8.64 10.37 1.89-4.1 4.7-8 8.4-10.7 1.09-.72 3.03-1.97 4.3-1.9 1.74 2.71 2.65 6.54 1.62 9.5z"/><path d="m139.98 141.07c1.4 3.88 2.59 7.84 3.6 11.85.98 4.01 1.77 8.1 1.8 12.25l-.29-.04c2.05-8.54 4.5-17.01 5.8-25.71 0 0 .83-8.75.83-8.75s.45.1.45.1c-.87 2.16-2.12 4.5-4.39 5.44-2.1.94-4.56 1.91-6.84 1.02 0 0 .09-.03.09-.03-.59 1.19-1.19 2.52-1.06 3.88zm-.05.02c-.12-1.35.35-2.91 1.07-3.99 2.25.82 4.62-.19 6.66-1.16 2.14-.94 3.28-3.24 4.07-5.32.08-.25.49-.17.45.1-.45 5.86-.98 11.73-2.51 17.42-1.38 5.71-2.83 11.39-4.31 17.07-.04.16-.29.13-.29-.04-.14-8.25-2.5-16.32-5.16-24.08z"/><path d="m151.74 117.42c6.05 1.82 3.1 9.79.24 13.29.37-1.07 1.17-2.35 1.58-3.52 1.58-3.57 2.62-8.09-1.81-9.77z"/><path d="m86.32 20.81c-3 1.04-6.2 2.89-7.43 5.99-1.59 5.2 1.62 11.5 6.56 13.64 7.17 2 13.06 3.36 13.18 12.18.32 5.37-4.85 8.53-8.81 11.08-1.34.89-2.7 1.97-3.63 3.28-2.69 3.51-3.42 8.14-3.04 12.47.03 4.48 2.85 8.39 6.38 10.89 1.93 1.07 3.59 2.61 4.97 4.33 2.06 2.55 3.58 5.88 2.95 9.21-.91 3.19-2.22 6.26-3.97 9.07-3.84 6.16-10.15 10.11-16.15 13.88-4.95 3.33-8.81 8.67-9.4 14.71-.36 3.71.44 7.95 3.52 10.35 2.1 1.78 4.48 3.14 6.83 4.58.92.6 1.91 1.14 2.6 2.1.68 1-.03 2.25-.15 3.3-.5 2.15.22 4.36 1.71 5.96 2.23 2.42 5.34 3.81 7.98 5.76.89.65 1.71 1.56 1.98 2.69.99 6.97-3.38 13.53-7.38 18.83-1.3 1.97-1.19 4.46-.19 6.54.88 2.13 2.6 4.16 2.33 6.6-.26 3.54-1.55 6.85-1.52 10.4-.05 3.53 1.5 6.9.96 10.48-.51 2.2-.73 4.71.77 6.56 0 0-.34.18-.34.18-.46-2.11.37-4.11.3-6.2 0-3.61-.28-7.2-.85-10.77.02-2.61.82-5.13 1.23-7.67.31-2.01.8-4.1-.06-5.98-.68-1.96-1.9-3.73-2.11-5.85-.11-1.09.48-2.08.92-3.03 1.4-2.76 2.97-5.44 4.32-8.22 1.8-3.63 3.48-7.59 2.53-11.71-1.95-8.99-11.74-5.04-10.72-17.29-.09-.97-.71-1.8-1.38-2.56-3.27-3.84-8.46-6.45-10.45-11.36-.36-1.01-.32-2.16-.1-3.17.39-2.02.88-4.08 1.81-5.96 2.01-4.33 6.03-7.28 10.27-9.21 7.27-2.68 13.54-7.47 18.61-13.28 2.02-2.31 3.94-4.75 5.38-7.47 1.36-2.74 1.73-5.93 2.19-8.89.57-4.23-2.12-7.98-5.92-9.62-3.66-1.75-8.26-2.12-11.01-5.45-3.22-3.99-4.63-9.78-2.25-14.51 1.41-2.76 3.81-4.88 6.45-6.39 2.58-1.51 4.74-4.05 5.03-7.1.53-6.07-3.31-12.08-8.58-14.92-3.16-2.15-7.04-3.04-10.04-5.41-1.74-1.44-3.03-3.87-2.11-6.11 1.3-2.73 3.56-5.01 5.84-6.93zm.04-.02c-3.8 3.56-9.24 8.29-3.71 12.98 3 2.35 6.88 3.23 10.05 5.37 4.1 2.18 7.09 6.03 8.3 10.51 1.5 4.67-.43 9.45-4.7 11.84-2.63 1.51-4.97 3.6-6.34 6.31-2.32 4.62-.89 10.33 2.25 14.18 2.74 3.28 7.26 3.59 10.93 5.34 3.94 1.69 6.75 5.59 6.17 9.97-.46 3.07-.83 6.27-2.2 9.05-1.45 2.76-3.38 5.24-5.41 7.58-5.09 5.87-11.42 10.73-18.75 13.42-4.15 1.88-8.08 4.75-10.04 8.97-.91 1.83-1.39 3.83-1.78 5.84-.22 1-.24 1.98.08 2.93 1.98 4.81 7.02 7.3 10.34 11.2.67.77 1.38 1.68 1.49 2.81-1.06 12.02 8.74 8.02 10.7 17.25.97 4.19-.74 8.3-2.58 11.98-1.36 2.79-2.93 5.46-4.32 8.21-2.7 3.94 2.16 7.54 1.69 11.65-.22 3.61-1.55 7.07-1.64 10.67.6 4.55 1.28 9.33.53 13.9-.16 1-.18 2.05 0 3.02.02.11-.05.21-.16.23-.07.01-.14-.02-.19-.07-1.6-1.98-1.39-4.59-.86-6.89.53-3.46-1.02-6.92-.96-10.42-.03-3.54 1.27-6.95 1.53-10.42.25-2.42-1.43-4.31-2.29-6.44-2.69-5.59 1.86-8.2 4.18-12.65 1.7-3.02 3.27-6.07 3.44-9.55.34-2.15.11-4.47-1.89-5.74-4.96-3.48-11.96-6.2-9.44-13.64.12-.54.16-1.04-.15-1.47-.6-.85-1.6-1.42-2.5-2.01-2.34-1.43-4.75-2.82-6.85-4.61-3.15-2.46-3.98-6.81-3.61-10.6.61-6.12 4.51-11.52 9.53-14.89 5.98-3.75 12.29-7.68 16.1-13.79 1.73-2.77 3.06-5.86 3.95-8.99.61-3.28-.88-6.53-2.9-9.05-1.36-1.71-2.99-3.22-4.91-4.29-1.86-1.22-3.32-2.95-4.55-4.77-1.38-1.77-1.68-4.1-1.9-6.27-.37-4.36.37-9.03 3.09-12.57.93-1.34 2.34-2.4 3.68-3.31 3.93-2.53 9.07-5.63 8.76-10.95-.08-8.71-5.96-10.12-13.09-12.1-4.97-2.18-8.19-8.5-6.58-13.74 1.29-3.12 4.41-5 7.54-5.99z"/><path d="m137.66 141.21c.92.16 1.41-.54 2.19-.82.15.08-.17.57-.26.66-.51.44-1.37.49-1.95.21-.03-.01-.01-.05.02-.05z"/><path d="m168.26 204.88c.61-.97.48-2.31.58-3.43-.14-4.02 1.96-7.04 6.04-7.63 3.5-.7 6.66-2.5 10.12-3.4 1.21-.23 2.52-.51 3.64.3.14.12.06.35-.13.35-7.77 1.29-9.17 6.94-14.11 11.77-1.6 1.39-3.79 2.06-5.15 3.73 1.14-1.82 3.41-2.52 4.94-3.96 4.86-5.12 6.21-10.71 14.26-11.96 0 0-.13.35-.13.35-.85-.62-2.23-.43-3.25-.21-3.45.86-6.63 2.62-10.15 3.29-1.16.22-2.31.54-3.28 1.2-2.06 1.31-2.7 3.87-2.72 6.18-.13 1.15.01 2.5-.67 3.48-.02.02-.05-.01-.03-.03 0 0 .01-.01.01-.01z"/><path d="m147.86 259.11c5.97-8.51 11.94-17.08 18.8-24.91 12.05-12.38 26.68-22.86 43.27-28.09-2.22.96-4.91 1.83-7.23 2.92-13.33 6.16-25.52 14.92-35.8 25.39-6.91 7.7-12.99 16.49-19.04 24.69z"/><path d="m152.14 253.04c3.46-2.24 6.97-4.39 10.56-6.42 3.58-2 7.28-4.15 11.29-5.06-7.53 3.15-14.86 7.52-21.84 11.48z"/><path d="m160.74 241.65c7.78-5.04 16.05-10.26 25.36-11.71.03 0 .04.04 0 .05-9.04 2.31-17.57 6.91-25.37 11.66z"/><path d="m174.65 226.87c8.11-4.2 16.59-8.75 25.84-9.5.03 0 .04.05 0 .05-9.04 1.63-17.76 5.54-25.85 9.45z"/><path d="m184.7 226.18c5.29-1.2 10.62-3.38 15.82-4.82-4.87 2.43-10.62 3.86-15.82 4.82z"/><path d="m166.1 234.89c2.25-4.09 4.01-8.81 7.45-12.03-2.6 3.86-5.09 8.18-7.45 12.03z"/><path d="m181.78 220.71c2.43-3.77 5.42-7.65 9.49-9.66-3.45 2.85-6.94 6.11-9.49 9.66z"/><path d="m157.65 245.48c.94-4.09 2.09-8.53 4.96-11.7-1.97 3.7-3.84 7.77-4.96 11.7z"/><path d="m107.63 237.33c3.8 7.94 6.12 16.5 7.35 25.19 1.4 7.61 3.38 18.37 4.65 25.9 0 .03-.04.04-.05 0-1.94-8.56-3.61-17.18-5-25.84-1.08-8.68-3.49-17.39-6.96-25.26z"/><path d="m107.09 246.99c3.17 5.06 6.35 10.42 7.75 16.25-2.37-5.45-4.83-11.2-7.75-16.25z"/><path d="m105.71 259.84c4.27 3.87 8.88 8.09 10.94 13.58-2.96-4.97-6.9-9.63-10.94-13.58z"/><path d="m108.68 272.16c2.69 3.05 5.78 5.74 9.13 7.99-3.75-1.22-6.88-5.06-9.13-7.99z"/><path d="m120.37 262.72c-.36 4.55-.63 9.52-3.01 13.51 1.4-4.35 2.44-9.1 3.01-13.51z"/><path d="m116.86 251.81c.1 4.78.13 9.81-1.41 14.36.15-2.07.63-5.07.89-7.17.32-2.34.35-4.98.52-7.19z"/><path d="m146.96 272.23c12.53-11.65 27.71-20.72 43.93-26.08.05.05-2.99 1.24-2.99 1.25-14.8 5.99-29.15 14.21-40.95 24.82z"/><path d="m154.56 265.77c3.73-5 8.42-9.62 13.99-12.47-4.96 3.71-10.18 7.69-13.99 12.47z"/><path d="m161.83 260.66c5.66-1.42 10.66-4.65 15.9-7.02-4.67 3.27-10.44 5.89-15.9 7.02z"/><path d="m173.96 253.4c3.21-2.74 6.73-5.57 10.81-6.79-3.61 2.15-7.57 4.3-10.81 6.79z"/><path d="m197.68 163.33c-4.22-2.38-8.38-5.18-12.95-6.8 0 0 .15-.02.15-.02-.73.44-1.41 1.06-1.99 1.72-1.16 1.36-1.97 3-2.44 4.73-.27.87-.36 1.82-.55 2.69-.04-.89.06-1.87.24-2.76.56-2.7 2.1-5.6 4.68-6.8 4.55 1.78 8.9 4.66 12.85 7.24z"/><path d="m189.03 139.07-4.43 17.16-.2-.22c1.94-.3 3.87-.69 5.78-1.14 5.7-1.39 11.51-3.07 16.41-6.36-4.58 3.78-10.59 5.48-16.31 6.8-1.93.41-3.87.78-5.83 1.05-.12.02-.23-.1-.2-.22.05.01 4.67-17.26 4.77-17.07z"/><path d="m173.34 163.47c2.83.46 5.24-1.32 7.56-2.59-1.62 2.15-5.12 3.34-7.56 2.59z"/><path d="m171.21 169.14c-.03.62.19 1.29.69 1.51.25.12.53.09.81.14.15.05.95 0 .95.14-.85.68-2.34.32-2.54-.82-.04-.33-.07-.74.07-1 .01 0 .02.02.02.03z"/><path d="m118.42 170c1.35.09 2.4-.56 3.24-1.54.01-.02.05 0 .05.02.02.74-.59 1.38-1.28 1.54-.33.19-2.04.2-2-.01z"/><path d="m130.09 175.87c.6.54 1.09.45 1.82.44.02 0 .04.02.03.04-.13.46-.72.59-1.09.36-.38-.18-.63-.48-.8-.81-.01-.02.02-.05.04-.03z"/><path d="m119.92 176.2c.97 1.54 1.88 4.03.49 5.56.12-.96.26-1.84.21-2.8-.02-.91-.49-1.99-.7-2.75z"/><path d="m112.79 160.55c.19-.97.61-2.56 1.79-2.61-.27.5-.58.85-.95 1.26-.31.41-.57.87-.79 1.37-.01.03-.05.01-.05-.01z"/><path d="m177.8 108.75c3.56-1.58 6.98-3.49 10.24-5.58-1.2 1.56-3.07 2.51-4.82 3.35-1.73.79-3.71 1.77-5.41 2.23z"/><path d="m177.5 95.18c-3 2.73-4.55 6.57-5.61 10.37-.04-3.99 2.66-8.08 5.61-10.37z"/><path d="m183.5 93.57c-1.17.87-1.89 2.14-3.07 2.99-.02.01-.05 0-.04-.03.2-.74.69-1.32 1.29-1.76.54-.41 1.27-1.08 1.82-1.2z"/><path d="m175.93 125.65c5.46.99 5.84 11.89 6.08 16.23 0 0 2.55 14.1 2.55 14.1.05.23-.27.4-.43.21-3.92-4.23-8.63-7.76-13.18-11.25 4.85 3.13 9.58 6.66 13.55 10.91 0 0-.43.21-.43.21l-2.38-14.13c-.21-4.6-.4-15-5.76-16.28z"/><path d="m206.14 134.63c-2.35 4.28-5.76 7.87-9.21 11.28-3.4 3.38-7.31 6.56-11.28 9.26-.02.02-.05-.02-.03-.04 7.22-6.17 15.5-12.5 20.52-20.5z"/><path d="m193.6 156.05c7.54 2.1 17.99 4.22 24.53-1.25.02-.02.06.01.04.03-5.64 6.25-17.7 3.6-24.57 1.21z"/><path d="m201.66 152.55c4.38-.44 8.8-1.1 12.96-2.48-1.79 1.34-4.17 1.69-6.34 1.99-2.15.25-4.6.58-6.62.49z"/><path d="m167.25 155.66c5.35-3.03 12-1.71 17.41.49 2.6 2.72 4.77 6.02 5.62 9.73.75 3.61 1.05 7.64.77 11.17-.16-3.7-.44-7.44-1.26-11.05-.82-3.59-2.89-6.83-5.33-9.55-4.99-2.16-12.04-3.56-17.21-.78z"/><path d="m173.42 136.97c.03 3.06 1.09 6.14 3.08 8.47 2.08 2.29 4.1 4.66 5.75 7.28.02.02-.02.05-.04.03-2.09-2.3-4.06-4.65-6.02-7.06-1.93-2.39-3.06-5.85-2.77-8.72z"/><path d="m141.25 101.75c.44 4.8.45 9.8-1.26 14.38-1.73 4.54-3.96 8.85-6.36 13.07v-.26c1.46 2.37 3.21 4.56 5.25 6.45.67.66 1.45 1.24 2.15 1.83-1.61-.91-3.05-2.24-4.37-3.56-1.29-1.36-2.47-2.85-3.46-4.45-.05-.08-.05-.18 0-.26 2.36-4.2 4.73-8.44 6.49-12.92 1.81-4.47 1.75-9.67 1.56-14.27z"/><path d="m146.96 135.07c-4-2.32-8.15-4.77-12.74-5.65-.16-.02-.2-.25-.06-.33 1.45-.79 2.96-1.45 4.49-2.05 4.59-1.76 9.42-3.09 14.25-3.86-6.22 1.85-12.72 3.3-18.56 6.22 0 0-.06-.33-.06-.33 4.55.98 8.97 3.54 12.69 6z"/><path d="m133.5 129.43c-3.6 4.13-4.83 9.66-5.04 15.01 0 .03-.05.03-.05 0-.77-5.34 1.41-11.33 5.09-15.02z"/><path d="m107.77 140.73c4.25-9.24 15.93-11.69 25.21-11.36-1.02.24-2.47.21-3.63.33-8.09.76-17.79 3.21-21.58 11.03z"/><path d="m107.3 114.62c5.83-1.38 11.67 2.46 14.96 7.05-.31-.08-1.18-1.1-1.6-1.47-3.55-3.38-8.37-6.53-13.36-5.58z"/><path d="m125.29 97.95c-1.55 5.66-1.17 11.63.15 17.3 0 .03-.04.04-.05.02-2.24-5.39-1.88-12.01-.1-17.32z"/><path d="m130.96 97.49c-.6 3.23-.41 6.54-.63 9.77-.84-3.12-.15-6.84.63-9.77z"/><path d="m107.05 119.55c4.25 2.96 9.46 3.95 14.3 5.47-5.01-.45-10.43-2.46-14.3-5.47z"/><path d="m155.44 54.11c-1.4 6.1-3.66 12.51-8.18 16.99 3.67-5.1 6.58-11.03 8.18-16.99z"/><path d="m138.2 58.19c3.79 3.29 6.9 7.78 8.11 12.66-2.17-4.47-4.53-9.28-8.11-12.66z"/><path d="m120.01 64.15c3.84 4.57 9.97 5.94 15.6 6.83.03 0 .03.05 0 .05-5.72.08-12.22-2.3-15.6-6.88z"/><path d="m137.44 76.23c2.81-2.04 6.05-4.05 9.55-4.38-3.2 1.32-6.72 2.58-9.55 4.38z"/><path d="m71.13 57.9c-.98-.24-2.27-.39-3.07.4-.72.79-.79 2.09-.28 3 .7 1.36 2.26 1.79 3.39 2.69 1.68 1.54 2.49 3.86 2.49 6.11 0 0-.4-.11-.4-.11.76-1.64.49-3.67-.59-5.11-.75-.97-1.63-1.88-2.54-2.71-.47-.44-1.05-.91-1.13-1.6-.24-1.34.75-2.74 2.14-2.67zm.04.01c-2.16.31-2.6 2.8-.78 3.96 2.49 1.93 4.92 5.11 3.23 8.34-.09.2-.42.12-.4-.1.06-2.13-.69-4.39-2.26-5.88-1.1-.88-2.71-1.41-3.38-2.82-1.17-2.66.95-4.57 3.59-3.5z"/><ellipse cx="192.19" cy="145.55" fill="#f9f1b7" rx="1.86" ry="1.14" transform="matrix(.59088731 -.8067541 .8067541 .59088731 -38.8 214.58)"/><path d="m193.13 146.23c-1.6 2.14-3.44.67-2.02-1.48 1.57-2.25 3.83-.73 2.02 1.48zm-.04-.03c1.07-1.78-.27-2.88-1.65-1.21-1.41 1.86.29 2.99 1.65 1.21z"/><ellipse cx="188.24" cy="148.19" fill="#f9f1b7" rx="1.52" ry=".93" transform="matrix(.37314971 -.92777114 .92777114 .37314971 -19.49 267.53)"/><path d="m189.13 148.55c-1.44 2.89-3.04-.02-1.37-1.69.68-.73 1.78-.31 1.65.72-.03.36-.15.67-.28.97zm-.05-.02c.25-.58.01-1.42-.37-1.52-.36-.12-.93.38-1.15.91-.76 1.72.83 2.26 1.52.61z"/><ellipse cx="129.88" cy="121.71" fill="#f9f1b7" rx=".93" ry="1.52" transform="matrix(.7742822 -.63284048 .63284048 .7742822 -47.71 109.66)"/><path d="m130.62 121.11c1.84 2.65-1.48 2.66-2.14.39-.31-.95.58-1.71 1.42-1.1.3.19.52.46.72.71zm-.04.03c-1.18-1.15-2.25-.37-1.27 1.04 1.14 1.49 2.38.36 1.27-1.04z"/><ellipse cx="129.51" cy="115.95" fill="#f9f1b7" rx=".76" ry="1.25" transform="matrix(.7742822 -.63284048 .63284048 .7742822 -44.14 108.13)"/><path d="m130.12 115.45c1.18 1.44-.17 2.4-1.35 1.11-1.29-1.43.22-2.8 1.35-1.11zm-.04.03c-.32-.41-1.04-.52-1.2-.3-.19.17-.09.76.2 1.13.9 1.21 1.9.3 1-.82z"/><ellipse cx="146.28" cy="61.7" fill="#f9f1b7" rx=".64" ry="1.05"/><path d="m146.95 61.7c0 1.6-1.43 1.5-1.51 0-.1-1.67 1.72-1.78 1.51 0zm-.05 0c.01-.44-.45-.88-.62-.8-.16 0-.43.41-.44.8-.07 1.25 1.05 1.19 1.06 0z"/><ellipse cx="150.06" cy="65.04" fill="#f9f1b7" rx=".64" ry="1.05"/><path d="m150.72 65.04c-.16 2.31-2.04.78-1.4-.76.26-.7 1.19-.72 1.35.05.06.25.05.49.05.71zm-.05 0c.01-.44-.45-.88-.62-.8-.16 0-.43.41-.44.8-.07 1.25 1.05 1.19 1.06 0z"/><ellipse cx="146.85" cy="65.52" fill="#f9f1b7" rx=".64" ry="1.05"/><path d="m147.51 65.52c-.16 2.31-2.04.78-1.4-.76.26-.7 1.19-.72 1.35.05.06.25.05.49.05.71zm-.05 0c.01-.44-.45-.88-.62-.8-.16 0-.43.41-.44.8-.07 1.25 1.05 1.19 1.06 0z"/><ellipse cx="145.19" cy="64.1" fill="#f9f1b7" rx=".5" ry=".82" transform="matrix(.9785809 -.20586261 .20586261 .9785809 -10.09 31.26)"/><path d="m145.71 63.99c.19.69-.25 1.48-.93.79-.39-.48-.61-1.48.19-1.73.61-.03.67.54.74.94zm-.05.01c-.06-.35-.54-.56-.59-.46-.06 0-.23.33-.18.62.13.95.93.71.77-.16z"/><ellipse cx="142.6" cy="66.26" fill="#f9f1b7" rx=".64" ry="1.05" transform="matrix(.89005374 -.45585562 .45585562 .89005374 -14.53 72.29)"/><path d="m143.19 65.95c.91 2.13-1.46 1.63-1.59-.04-.09-.74.73-1.19 1.22-.57.17.19.27.41.37.62zm-.04.02c-.19-.4-.8-.58-.92-.43-.14.07-.2.57-.03.92.51 1.15 1.47.58.95-.48z"/><ellipse cx="142.9" cy="69.08" fill="#f9f1b7" rx=".64" ry="1.05" transform="matrix(.77350847 -.63378597 .63378597 .77350847 -11.42 106.2)"/><path d="m143.42 68.65c1.02 1.24-.15 2.06-1.17.96-1.14-1.23.21-2.46 1.17-.96zm-.04.03c-.27-.35-.9-.4-.99-.23-.33.4.52 1.67 1.1 1.34.28-.19.19-.81-.11-1.11z"/><ellipse cx="124.53" cy="121.16" fill="#f9f1b7" rx=".76" ry="1.25" transform="matrix(.7742822 -.63284048 .63284048 .7742822 -48.56 106.15)"/><path d="m125.14 120.66c1.18 1.43-.17 2.4-1.35 1.11-1.29-1.43.22-2.8 1.35-1.11zm-.04.03c-.32-.41-1.04-.52-1.2-.3-.19.17-.09.76.2 1.13.9 1.21 1.9.3 1-.82z"/><ellipse cx="124.79" cy="125.3" fill="#f9f1b7" rx="1.08" ry="1.77" transform="matrix(.5 -.8660254 .8660254 .5 -46.12 170.72)"/><path d="m125.34 124.34c1.21.62 1.88 2.38-.03 2.4-1.13-.07-2.85-1.11-2.27-2.45.64-.83 1.63-.33 2.3.05zm-.03.04c-.52-.31-1.53-.38-1.84.16-.36 1.05 1.88 2.56 2.74 1.58.35-.64-.32-1.43-.9-1.74z"/><ellipse cx="126.73" cy="123.7" fill="#f9f1b7" rx=".69" ry="1.14" transform="matrix(.5 -.8660254 .8660254 .5 -43.76 171.6)"/><path d="m127.09 123.07c2.05 1.39-.37 2.31-1.45.88-.51-.61-.04-1.46.76-1.21.27.07.48.21.69.33zm-.03.05c-.41-.25-1.06-.08-1.1.14-.09.18.16.65.52.87 1.14.74 1.69-.35.58-1.01z"/><ellipse cx="184.21" cy="147.32" fill="#f9f1b7" rx=".79" ry="1.3"/><path d="m185.03 147.32c-.21 2.78-2.45.96-1.66-.92.31-.82 1.37-.84 1.58.05.09.3.08.59.08.87zm-.05 0c.01-.54-.48-1.11-.77-1.05-.27.01-.58.56-.59 1.05-.07 1.57 1.34 1.5 1.36 0z"/><ellipse cx="195.44" cy="151.77" fill="#f9f1b7" rx="1.3" ry=".79" transform="matrix(.8660254 -.5 .5 .8660254 -49.7 118.05)"/><path d="m195.84 152.48c-2.52 1.21-2.05-1.65-.04-1.9.87-.14 1.41.76.75 1.4-.21.22-.47.36-.71.5zm-.02-.05c.47-.26.72-.97.52-1.19-.15-.23-.78-.22-1.2.01-1.39.73-.63 1.91.68 1.18z"/><path d="m165.42 206.53c-1.74 1.59-2.81 3.73-4.35 5.45.6-2.22 2.64-4.21 4.35-5.45z"/><path d="m176.31 194.79c-2.73 1.66-4.17 4.62-5.9 7.14.73-2.98 3.28-5.89 5.9-7.14z"/><path d="m174.98 198.81c-1.17 1.77-2.39 3.89-4.36 4.81 1.28-1.69 3.08-3.27 4.36-4.81z"/><path d="m115.15 161.64c.1 2.31 1.76 3.95 3.04 5.66-2.03-.87-3.29-3.68-3.04-5.66z"/><path d="m116.6 157.89c1.16 1.52 2.81 3.35 2.49 5.37-.36-.8-.78-1.92-1.11-2.74-.34-.88-1.06-1.87-1.38-2.63z"/><path d="m112.69 175.03c1.82-.25 4.46-.3 5.5 1.49-1.7-.95-3.68-1.46-5.5-1.49z"/><path d="m113.7 178.62c1.51 1.02 3.4.74 5.03 1.25-1.52.6-4.04-.18-5.03-1.25z"/><path d="m244.23 214.17c.22-.1.3-.37.33-.6.17-1.8-.99-3.44-1.02-5.19 1.02 1.47 1.43 3.46 1.17 5.22-.07.22-.22.62-.5.6 0-.02 0-.03.02-.03z"/></svg>