<?xml version="1.0" encoding="UTF-8"?>
<svg id="Layer_1" data-name="Layer 1" xmlns="http://www.w3.org/2000/svg" xmlns:xlink="http://www.w3.org/1999/xlink" viewBox="0 0 289.13 430.87">
  <defs>
    <style>
      .cls-1, .cls-2 {
        fill: none;
      }

      .cls-3 {
        fill: #fffff3;
      }

      .cls-3, .cls-4, .cls-5, .cls-6, .cls-2, .cls-7, .cls-8 {
        stroke: #000;
      }

      .cls-3, .cls-4, .cls-5, .cls-6, .cls-8 {
        stroke-miterlimit: 10;
      }

      .cls-3, .cls-4, .cls-6, .cls-2, .cls-7, .cls-8 {
        stroke-width: .5px;
      }

      .cls-9 {
        font-family: SUIT-Regular-KSCpc-EUC-H, SUIT;
      }

      .cls-9, .cls-10 {
        font-size: 14px;
      }

      .cls-4 {
        fill: #f9f1b7;
      }

      .cls-5 {
        fill: #fcfcf5;
      }

      .cls-11 {
        clip-path: url(#clippath-1);
      }

      .cls-12 {
        clip-path: url(#clippath-2);
      }

      .cls-6 {
        fill: #f4f9fd;
      }

      .cls-13 {
        fill: #fff;
      }

      .cls-10 {
        font-family: 'IM_FELL_Double_Pica_SC', 'IM FELL Double Pica SC';
      }

      .cls-2, .cls-7 {
        stroke-linecap: round;
        stroke-linejoin: round;
      }

      .cls-7 {
        fill: #f9f1ac;
      }

      .cls-8 {
        fill: #ced38d;
      }

      .cls-14 {
        letter-spacing: -.01em;
      }

      .cls-15 {
        clip-path: url(#clippath);
      }
    </style>
    <clipPath id="clippath">
      <rect class="cls-1" x="-295.11" y="35.22" width="261.08" height="360.43" rx="30" ry="30"/>
    </clipPath>
    <clipPath id="clippath-1">
      <rect class="cls-1" x="14.03" y="35.22" width="261.08" height="360.43" rx="30" ry="30"/>
    </clipPath>
    <clipPath id="clippath-2">
      <rect class="cls-1" x="332.42" y="35.22" width="261.08" height="360.43" rx="30" ry="30"/>
    </clipPath>
  </defs>
  <rect class="cls-5" width="289.13" height="430.87"/>
  <rect class="cls-6" x="14.03" y="35.22" width="261.08" height="360.43" rx="30" ry="30"/>
  <text class="cls-10" transform="translate(122.89 23.6)"><tspan class="cls-14" x="0" y="0">D</tspan><tspan x="11.2" y="0">AISY</tspan></text>
  <text class="cls-9" transform="translate(102.86 418.65)"><tspan x="0" y="0">데이지· 외로움</tspan></text>
  <g class="cls-15">
    <g>
      <rect class="cls-13" x="-214.3" y="333.68" width="280.56" height="10.6" rx="5.3" ry="5.3"/>
      <g>
        <path class="cls-13" d="M-179.7,337.35H31.72v-3.26l-20.39-16.95c0-8.61-6.48-15.59-14.48-15.59s-14.48,6.98-14.48,15.59"/>
        <path class="cls-13" d="M3.97,334.09c0-10.26,6.26-18.57,13.97-18.57s13.97,8.31,13.97,18.57h11.97"/>
        <circle class="cls-13" cx="33.22" cy="289.26" r="4.05"/>
        <circle class="cls-13" cx="17.79" cy="304.34" r="2.4"/>
      </g>
      <path class="cls-13" d="M14.2,331.75l-26.7-26.83-33.48-14.7s-28.57.28-32.7,0-12.53-2.45-12.53-2.45l-12.64,13.78-15.77,5.19-25.44,6.91-11.11,16.61-23.52,7.1"/>
      <g>
        <path class="cls-2" d="M-17.63,316.73c0-8.61,6.48-15.59,14.48-15.59s14.48,6.98,14.48,15.59"/>
        <path class="cls-2" d="M3.97,333.68c0-10.26,6.26-18.57,13.97-18.57s13.97,8.31,13.97,18.57h11.97"/>
        <line class="cls-2" x1="48.06" y1="333.68" x2="55.61" y2="333.68"/>
        <line class="cls-2" x1="-91.22" y1="336.94" x2="2.33" y2="336.94"/>
        <line class="cls-2" x1="-22.72" y1="344.15" x2="61.32" y2="344.15"/>
        <circle class="cls-2" cx="33.22" cy="288.85" r="4.05"/>
        <circle class="cls-2" cx="17.79" cy="303.93" r="2.4"/>
      </g>
    </g>
  </g>
  <g class="cls-11">
    <g>
      <rect class="cls-13" x="49.61" y="113.89" width="270.96" height="12.98" rx="6.43" ry="6.43"/>
      <g>
        <path class="cls-13" d="M173.8,105.88c0-1.53-.21-6.74-6.09-6.74s-6.05,6.69-6.05,6.69l12.13.04Z"/>
        <path class="cls-13" d="M213.81,105.88c.66-3.54.67-7.03.43-10.02-.62-7.61-4.45-14.7-10.75-19.03-4.04-2.77-9.59-5.06-17.01-5.29-19.8-.61-26.12,15.87-26.12,15.87l53.46,18.46Z"/>
        <path class="cls-13" d="M75.51,120.19h55.62s-.09-5.54,8.74-5.54l18.31,5.54"/>
        <path class="cls-13" d="M139.87,118.8s-1.79-9.6,9.28-9.6c2.91,0,9.62.9,9.03,10.99h14.91"/>
        <circle class="cls-13" cx="225.52" cy="83.97" r="3.59"/>
        <path class="cls-13" d="M275.65,113.97h-16.78c0-.63-.14-1.35-.36-2.09-1.58-5.36-6.47-9.18-12.06-9.24-.06,0-.12,0-.19,0-6.22,0-10.57,3.71-10.57,3.71l23.18,7.62-120.59.67h-43.34l14.58-6.73,21.83-2.26,35.01-7.22c-1.62-15.07-17.95-14.8-17.95-14.8-20.12.45-17.05,22.02-17.05,22.02-.72-3.52-3.07-8.93-12.63-8.12-9.56.81-9.2,10.38-9.2,10.38-12.27-5.86-14.58,6.73-14.58,6.73h-26.34"/>
        <path class="cls-13" d="M215.01,98.34l20.58,13.4c.15-2.2.2-3.74.1-5.4-.33-5.71-4.88-10.32-10.59-10.72-.08,0-.17-.01-.25-.02-8.38-.53-10.47,3.54-10.47,3.54"/>
        <polygon class="cls-13" points="258.87 113.97 207.13 95.56 166.36 85.99 150.09 90.94 131.35 105.65 112.12 103.65 109.52 107.91 96.9 111.75 94.94 114.64 258.87 113.97"/>
        <polygon class="cls-13" points="131.13 120.19 158.18 120.19 147.16 107.6 135.32 118.61 131.13 120.19"/>
      </g>
      <g>
        <line class="cls-2" x1="53.79" y1="114.65" x2="62.77" y2="114.65"/>
        <path class="cls-2" d="M166.36,98.44c-1.62-15.07-17.95-14.8-17.95-14.8-20.12.45-17.05,22.02-17.05,22.02-.72-3.52-3.07-8.93-12.63-8.12-9.56.81-9.2,10.38-9.2,10.38-12.27-5.86-14.58,6.73-14.58,6.73h-26.34"/>
        <path class="cls-2" d="M161.67,105.84s0-6.69,6.05-6.69,6.09,5.2,6.09,6.74"/>
        <path class="cls-2" d="M160.36,87.42s6.33-16.48,26.12-15.87c7.42.23,12.97,2.52,17.01,5.29,6.3,4.32,10.13,11.41,10.75,19.03.24,2.98.23,6.48-.43,10.02"/>
        <path class="cls-2" d="M214.39,99.15s2.09-4.07,10.47-3.54c.08,0,.17.01.25.02,5.71.4,10.26,5.01,10.59,10.72.1,1.66.04,3.2-.1,5.4"/>
        <path class="cls-2" d="M235.69,106.35s4.35-3.71,10.57-3.71c.06,0,.12,0,.19,0,5.59.06,10.49,3.87,12.06,9.24.22.75.36,1.47.36,2.09h16.78"/>
        <line class="cls-2" x1="279.83" y1="113.97" x2="285.62" y2="113.97"/>
        <line class="cls-2" x1="288.18" y1="113.97" x2="309.82" y2="113.97"/>
        <path class="cls-2" d="M75.51,120.19h55.62s-.09-5.54,8.74-5.54"/>
        <path class="cls-2" d="M139.87,118.81s-1.79-9.6,9.28-9.6c2.91,0,9.62.9,9.03,10.99h14.91"/>
        <line class="cls-2" x1="178.89" y1="120.19" x2="184.07" y2="120.19"/>
        <line class="cls-2" x1="194.97" y1="120.19" x2="320.13" y2="120.19"/>
        <line class="cls-2" x1="159.23" y1="126.75" x2="270.24" y2="126.75"/>
        <path class="cls-2" d="M191.15,78.6s4.63.84,5.37,2.42"/>
        <path class="cls-2" d="M200.1,83.34s6.74,5.05,7.58,13.27"/>
        <circle class="cls-2" cx="225.52" cy="83.97" r="3.59"/>
      </g>
    </g>
    <g>
      <rect class="cls-13" x="-13.62" y="351.64" width="270.96" height="12.98" rx="6.43" ry="6.43"/>
      <g>
        <path class="cls-13" d="M110.57,343.63c0-1.53-.21-6.74-6.09-6.74s-6.05,6.69-6.05,6.69l12.13.04Z"/>
        <path class="cls-13" d="M150.58,343.63c.66-3.54.67-7.03.43-10.02-.62-7.61-4.45-14.7-10.75-19.03-4.04-2.77-9.59-5.06-17.01-5.29-19.8-.61-26.12,15.87-26.12,15.87l53.46,18.46Z"/>
        <path class="cls-13" d="M12.28,357.93h55.62s-.09-5.54,8.74-5.54l18.31,5.54"/>
        <path class="cls-13" d="M76.64,356.55s-1.79-9.6,9.28-9.6c2.91,0,9.62.9,9.03,10.99h14.91"/>
        <circle class="cls-13" cx="162.29" cy="321.72" r="3.59"/>
        <path class="cls-13" d="M212.42,351.72h-16.78c0-.63-.14-1.35-.36-2.09-1.58-5.36-6.47-9.18-12.06-9.24-.06,0-.12,0-.19,0-6.22,0-10.57,3.71-10.57,3.71l23.18,7.62-120.59.67H31.71l14.58-6.73,21.83-2.26,35.01-7.22c-1.62-15.07-17.95-14.8-17.95-14.8-20.12.45-17.05,22.02-17.05,22.02-.72-3.52-3.07-8.93-12.63-8.12-9.56.81-9.2,10.38-9.2,10.38-12.27-5.86-14.58,6.73-14.58,6.73H5.37"/>
        <path class="cls-13" d="M151.78,336.09l20.58,13.4c.15-2.2.2-3.74.1-5.4-.33-5.71-4.88-10.32-10.59-10.72-.08,0-.17-.01-.25-.02-8.38-.53-10.47,3.54-10.47,3.54"/>
        <polygon class="cls-13" points="195.64 351.72 143.9 333.31 103.13 323.74 86.86 328.69 68.12 343.4 48.89 341.4 46.29 345.66 33.67 349.49 31.71 352.39 195.64 351.72"/>
        <polygon class="cls-13" points="67.9 357.93 94.95 357.93 83.93 345.35 72.09 356.36 67.9 357.93"/>
      </g>
      <g>
        <path class="cls-2" d="M103.13,336.19c-1.62-15.07-17.95-14.8-17.95-14.8-20.12.45-17.05,22.02-17.05,22.02-.72-3.52-3.07-8.93-12.63-8.12-9.56.81-9.2,10.38-9.2,10.38-12.27-5.86-14.58,6.73-14.58,6.73H5.37"/>
        <path class="cls-2" d="M98.44,343.59s0-6.69,6.05-6.69,6.09,5.2,6.09,6.74"/>
        <path class="cls-2" d="M97.13,325.17s6.33-16.48,26.12-15.87c7.42.23,12.97,2.52,17.01,5.29,6.3,4.32,10.13,11.41,10.75,19.03.24,2.98.23,6.48-.43,10.02"/>
        <path class="cls-2" d="M151.16,336.89s2.09-4.07,10.47-3.54c.08,0,.17.01.25.02,5.71.4,10.26,5.01,10.59,10.72.1,1.66.04,3.2-.1,5.4"/>
        <path class="cls-2" d="M172.46,344.1s4.35-3.71,10.57-3.71c.06,0,.12,0,.19,0,5.59.06,10.49,3.87,12.06,9.24.22.75.36,1.47.36,2.09h16.78"/>
        <line class="cls-2" x1="216.6" y1="351.72" x2="222.39" y2="351.72"/>
        <line class="cls-2" x1="224.95" y1="351.72" x2="246.59" y2="351.72"/>
        <path class="cls-2" d="M12.28,357.94h55.62s-.09-5.54,8.74-5.54"/>
        <path class="cls-2" d="M76.64,356.55s-1.79-9.6,9.28-9.6c2.91,0,9.62.9,9.03,10.99h14.91"/>
        <line class="cls-2" x1="115.66" y1="357.94" x2="120.84" y2="357.94"/>
        <line class="cls-2" x1="131.74" y1="357.94" x2="256.9" y2="357.94"/>
        <line class="cls-2" x1="96" y1="364.5" x2="207.01" y2="364.5"/>
        <path class="cls-2" d="M127.92,316.35s4.63.84,5.37,2.42"/>
        <path class="cls-2" d="M136.87,321.09s6.74,5.05,7.58,13.27"/>
        <circle class="cls-2" cx="162.29" cy="321.72" r="3.59"/>
      </g>
    </g>
  </g>
  <g>
    <g>
      <path class="cls-8" d="M87.9,233s15.18,21.21,32.18,64.91c0,0-28.45-37.16-38.37-34.99,0,0-.67,2.69.3,4.1,0,0-7.46-5.6-20.14-1.12,0,0,.52,10.59,18.58,12.83,0,0,4.03.97,6.04,2.83,0,0-5.22,2.69-10.89,2.98,0,0,3.04,6.73,10.43,7.33,7.39.6,9.71-1.03,15.37.52,5.47,1.49,28.5,11.12,32.7,54.54.26,2.73,2.57,4.8,5.31,4.8h0c2.98,0,5.39-2.44,5.34-5.42-.15-9.47,1.81-29.23,19.06-41.75,0,0,3.62-1.04,14.23-.12,0,0,5.07-.46,8.65-2.65,3.57-2.19,5.3-3.11,5.3-3.11,0,0,.23-5.26-11.87-6.32,0,0,14.54.69,20.01-7.04l-1.85-.68s10.8-4.38,9.3-10.39c0,0-2.6-4.51-13.06-.55,0,0-1.64-3.01-.82-3.83,0,0-7.11,1.44-11.56,9.03,0,0-1.03-4.38-.14-5.54,0,0-2.32,1.03-3.15,2.87,0,0-.96-1.5-.68-3.08,0,0-12.72,1.78-20.31,25.57,0,0-1.3,4.65-10.74,17.57,0,0,.87-38.93,33.99-62.04,0,0,27.4,1.85,33.7-15.5,0,0-8.06.97-10.32,0,0,0,21.79-15.09,21.37-20.41,0,0-5.87-5.73-13.84-1.12,0,0-1.96-1.35-1.12-2.98,0,0-10.91.74-18.18,18.64,0,0-.36-6.84,1.5-8.7,0,0-13.15-2.27-18.67,26.6,0,0-16.9,17.03-19.2,20.74,0,0,13.69-42.72,35.05-82.25l-9.98,4.09s-22.64,51.68-23.54,57.31c0,0-2.32-17.01-.87-21,1.45-3.98,6.61-16.65-2.71-19,0,0-2.26,1.09-3.08,5.43,0,0-2.81-.11-3.8-1.86,0,0-3.44,4.94,1.09,14.08,0,0-3.53-.9-3.89-2.62,0,0-2.53,4.07,3.53,13.48,6.06,9.41,6.52,14.12,6.52,16.74s-5.88,28.59-6.84,32.14c-.97,3.55-5.85,26.76-6.4,34.67,0,0,0-48.82-.14-54.23-.14-5.41-9.84-76.89-13.36-88.64-3.52-11.75-7.03-29-7.03-29l-6.53-6.03.91,6.88s1.86,8.71,6.29,23.06c4.82,15.6,12.51,62.08,13.83,83.68.73,11.97,1.08,22.44,1.92,69.57,0,0-9.41-14.36-8.4-30.37,1.01-16,5.67-17.64,4.79-24.57,0,0-.38-3.91-3.78-4.28,0,0-.13-13.73-5.04-14.11,0,0-5.04,2.52-4.16,11.59,0,0-2.9.5-3.28-1.13-.38-1.64-2.03,8.37,3.25,13,0,0,2.68,6.66,2.11,14.37,0,0-24.27-58.53-27.74-61.02-3.47-2.49-8.92-4.71-8.92-4.71l1.76,6.2Z"/>
      <g>
        <path class="cls-3" d="M76.81,224.31s-1.69,30.09,9.32,27.01c11.01-3.08.59-25.84.59-25.84l-7.63-5.72-2.28,4.55Z"/>
        <path class="cls-3" d="M86.13,210.22s30.02-10.5,30.53,1.03c.51,11.52-30.53,12.11-30.53,12.11v-13.14Z"/>
        <path class="cls-3" d="M76.52,191.06s3.89-14.09,11.82-12.84,5.21,17.1,5.21,17.1l-11.16,12.77-4.7-3.08-1.17-13.95Z"/>
        <path class="cls-3" d="M180.18,162.12s-21.92-4.23-20.07-12.07c1.85-7.84,11.95-6.86,16.26-6.55,4.31.31,18.69,4.83,18.69,4.83l2.06,6.1-4.3,7.68h-12.65Z"/>
        <path class="cls-3" d="M193.33,158.66s-29.68-2.61-31.62,15.18,43.68-9.36,43.68-9.36l-12.06-5.82Z"/>
        <path class="cls-3" d="M195.52,165.49s-26.41,18.87-17.96,29.85c6.58,8.54,26.92-16.86,26.92-16.86l-3.99-14.5-4.97,1.52Z"/>
        <path class="cls-3" d="M199.74,168.44s-10.12,34.91-.59,36.26c9.53,1.35,14.76-22.85,14.76-22.85l-6.58-17.87-7.59,4.47Z"/>
        <path class="cls-3" d="M224.7,174.79c.17.39,9.75,21.3,1.84,24.67-7.91,3.37-12.47-5.65-13.31-8.85-.84-3.2-5.4-22.93-5.4-22.93l11.72.42,5.15,6.69Z"/>
        <path class="cls-3" d="M205.98,147.44s-2.36-29.09,12.14-30.69c14.5-1.6.51,35.16.51,35.16l-10.2,2.53-2.45-7Z"/>
        <path class="cls-3" d="M107.83,110.12s-5.84-29.63-17.51-25.7c-11.67,3.93,5.39,30.59,5.39,30.59l10.21,1.87,1.91-6.76Z"/>
        <path class="cls-3" d="M97.4,118.65s-31.31-7.07-34.23,4.83,27.72,8.53,27.72,8.53l9.76-5.95-3.25-7.41Z"/>
        <path class="cls-3" d="M95.71,127.29s-30.3,2-26.6,21.76c0,0,11.75,13.12,29.96-18.73l-3.37-3.03Z"/>
        <path class="cls-3" d="M98.52,131.66s-23.34,24.02-12.68,31.2,20.54-18.77,20.54-18.77l-1.12-13.32-6.73.9Z"/>
        <path class="cls-3" d="M105.14,133.24s-10.55,34.79,2.92,35.13,6.96-26.15,6.96-26.15c0,0-5.39-12.12-6.12-12.46s-3.76,3.48-3.76,3.48Z"/>
        <path class="cls-3" d="M109.07,133.35s7.86,32.66,21.88,28.39-8.75-31.09-8.75-31.09l-8.98-4.6-4.15,7.29Z"/>
        <path class="cls-3" d="M116.7,128.75s22.33,25.81,30.75,18.18-13.92-20.65-13.92-20.65l-13.24-2.13-3.59,4.6Z"/>
        <path class="cls-3" d="M118.72,126.39s37.26,8.3,38.38-3.14c1.12-11.45-30.08-7.63-30.08-7.63l-8.98,2.92.67,7.86Z"/>
        <path class="cls-3" d="M119.51,119.88s37.71-7.63,32.21-18.85c-5.5-11.22-31.76,10.21-31.76,10.21l-6.73,8.19,6.28.45Z"/>
        <path class="cls-3" d="M115.91,111.69s7.52-33.33-5.5-32.55-3.14,37.73-3.14,37.73l8.64-5.18Z"/>
        <path class="cls-3" d="M113.22,110.7s7.07-29.65,19.21-26.61c12.57,3.14-10.41,30.73-14.04,31.36l-5.7,1.42.52-6.18Z"/>
        <path class="cls-3" d="M101.21,115.01s-17.49-24.01-28.84-15.1c-10.51,8.25,14.84,22.11,26.71,24.6l2.13-9.5Z"/>
        <ellipse class="cls-4" cx="108.41" cy="123.66" rx="14.23" ry="11.47" transform="translate(-32.45 38.79) rotate(-17.69)"/>
        <path class="cls-3" d="M217.11,163.29s27.27,4.42,27.36,18.25c.01,1.61-.91,3.1-2.35,3.82-3.83,1.92-12.85,2.75-27.29-17.09l-5.4-2.53,7.67-2.45Z"/>
        <path class="cls-3" d="M70.05,206.5s-12.41-26.86-2.88-28.83c11.99-2.47,12.43,25.86,12.43,25.86l-.78,3.68-8.77-.72Z"/>
        <path class="cls-3" d="M82.9,205.08s12.99-21.28,24.22-15.85-10.42,19.74-12.55,20.92-10.5,4.11-10.5,4.11l-1.17-9.17Z"/>
        <path class="cls-3" d="M85.91,216.75s29.8,3.08,23.78,17.61c-6.02,14.53-30.09-11.6-30.09-11.6l6.31-6.02Z"/>
        <path class="cls-3" d="M68.96,220.57s-17.46,23.9-4.25,29.79c13.39,5.97,16.38-25.51,14.9-27.59l-10.64-2.2Z"/>
        <path class="cls-3" d="M212.05,150.56s14.36-26.73,28.15-19.29c11.08,5.98-16.96,25.78-16.96,25.78h-12.95l1.76-6.49Z"/>
        <path class="cls-3" d="M217.02,155.37s29-8.68,32.88,3.79c3.88,12.48-38.19,5.82-38.19,5.82l5.31-9.61Z"/>
        <path class="cls-3" d="M194.51,152.43s-31.11-14.68-21.58-25.73c9.53-11.05,29,19.73,29,19.73l-2.53,6.58-4.89-.58Z"/>
        <path class="cls-3" d="M199.65,149.13s-18.48-31.23-4.97-35.24c17.03-5.06,14.76,35.85,14.76,35.85l-6.41,3.27-3.37-3.88Z"/>
        <ellipse class="cls-4" cx="205.42" cy="159.64" rx="12.12" ry="12.99" transform="translate(24.39 346.49) rotate(-83.76)"/>
        <path class="cls-3" d="M58.09,208.97s-15.34-11.08-9.98-17.54c5.36-6.46,22.5,5.43,23.47,13.36l-.26,5.58-9.64,2.72-3.6-4.11Z"/>
        <path class="cls-3" d="M60.34,221.08s-18.32,2.06-21.11-7.27c-2.79-9.32,17.91-7.85,22.9-5.72,4.99,2.13,9.2,4.84,9.2,4.84l-7.8,9.03-3.19-.88Z"/>
        <path class="cls-3" d="M65.51,218.58s-20.51.62-21.62,14.33c-.22,2.71,1.55,5.21,4.19,5.85,4.74,1.14,12.98-.28,20.88-18.19l-3.45-1.98Z"/>
        <ellipse class="cls-4" cx="76.85" cy="214.99" rx="11.61" ry="11.02" transform="translate(-93.17 62.61) rotate(-28.46)"/>
      </g>
    </g>
    <path d="M157.88,304.83c6.13-4.17,12.87-7.42,19.95-9.6.18-.06.11-.35-.08-.29-7.11,2.2-13.87,5.45-20.03,9.63-.16.11,0,.37.15.26h0Z"/>
    <path d="M165.8,296.14c6.17-4.2,12.94-7.5,20.05-9.77,2-.64,4.02-1.19,6.07-1.67.19-.04.11-.33-.08-.29-7.26,1.69-14.27,4.41-20.75,8.08-1.86,1.05-3.67,2.18-5.44,3.39-.16.11,0,.37.15.26h0Z"/>
    <path d="M178.49,286.11c.3-.88,1.04-1.45,1.8-1.93s1.48-.9,2.23-1.33c1.63-.95,3.29-1.85,5-2.65,3.43-1.62,7.08-2.82,10.88-3.1.19-.01.19-.31,0-.3-6.2.45-11.85,3.3-17.1,6.42-1.19.71-2.6,1.41-3.08,2.8-.06.18.23.26.29.08h0Z"/>
    <path d="M168.16,289.16c1.33-2.91,3.75-5.11,6.34-6.91.74-.51,1.49-.99,2.26-1.46.16-.1.01-.36-.15-.26-2.72,1.66-5.41,3.56-7.33,6.15-.54.73-1,1.51-1.38,2.33-.08.17.18.33.26.15h0Z"/>
    <path d="M83.96,286.76c4.51.86,9.14.61,13.66,1.34,2.29.37,4.49,1.05,6.58,2.06,2.06.99,3.99,2.21,5.92,3.43.16.1.31-.16.15-.26-3.88-2.45-7.76-4.71-12.34-5.49s-9.3-.51-13.89-1.38c-.19-.04-.27.25-.08.29h0Z"/>
    <path d="M75.89,271.9c2.52,2.21,5.64,3.47,8.74,4.63,3.35,1.25,6.64,2.52,9.55,4.63,1.7,1.23,3.24,2.67,4.61,4.27.13.15.34-.07.21-.21-2.3-2.69-5.11-4.92-8.27-6.51s-6.43-2.48-9.58-3.9c-1.81-.82-3.55-1.81-5.05-3.12-.14-.13-.36.08-.21.21h0Z"/>
    <path d="M83.98,271.87c6.76,1.61,13,5.21,17.81,10.23,1.39,1.45,2.65,3.02,3.78,4.68.11.16.37,0,.26-.15-3.96-5.84-9.63-10.47-16.13-13.21-1.82-.77-3.71-1.38-5.64-1.84-.19-.04-.27.24-.08.29h0Z"/>
    <path d="M120.8,271.28c.35,2.15,1.14,4.23,2.32,6.06.1.16.36.01.26-.15-1.17-1.82-1.95-3.86-2.29-5.99-.03-.19-.32-.11-.29.08h0Z"/>
    <path d="M123.85,266.11c2.44,6.97,2.39,14.43,2.32,21.72,0,.19.3.19.3,0,.07-7.31.12-14.81-2.33-21.8-.06-.18-.35-.1-.29.08h0Z"/>
    <path d="M129.43,275.28c-.07,2.36-.4,4.71-.96,7-.05.19.24.27.29.08.57-2.32.9-4.69.98-7.08,0-.19-.29-.19-.3,0h0Z"/>
    <path d="M181.33,248.78c.13-3.01,1-5.94,1.97-8.77.79-2.32,1.84-4.76,3.97-6.15.16-.1.01-.36-.15-.26-1.66,1.08-2.69,2.78-3.45,4.57-.88,2.09-1.56,4.31-2.06,6.52-.31,1.35-.52,2.71-.58,4.09,0,.19.29.19.3,0h0Z"/>
    <path d="M203.5,223.08c-2.43,5.84-6.19,11.11-10.91,15.33-1.36,1.21-2.79,2.33-4.3,3.36-.16.11,0,.37.15.26,5.31-3.63,9.77-8.46,12.97-14.04.89-1.56,1.68-3.17,2.37-4.83.07-.18-.22-.26-.29-.08h0Z"/>
    <path d="M213.95,224.62c-3.81,3.12-7.62,6.25-11.18,9.65-3.4,3.25-6.49,6.93-10.47,9.5-2.19,1.41-4.62,2.46-7.21,2.78-.19.02-.19.32,0,.3,4.51-.56,8.35-3.18,11.63-6.19,1.78-1.64,3.45-3.41,5.17-5.11s3.68-3.49,5.6-5.15c2.19-1.9,4.44-3.74,6.68-5.57.15-.12-.06-.33-.21-.21h0Z"/>
    <path d="M205.3,243.46c-3.88,4.81-10.33,5.81-16.08,6.61-.19.03-.11.32.08.29,4.69-.65,9.6-1.37,13.55-4.19.99-.71,1.89-1.54,2.66-2.49.12-.15-.09-.36-.21-.21h0Z"/>
    <path d="M147.92,232.25c1.22,2.04,2.44,4.07,3.67,6.11.59.98,1.18,1.95,1.75,2.93s1.08,1.96,1.38,3.04c.05.19.34.11.29-.08-.29-1.04-.77-2-1.3-2.93-.58-1.02-1.2-2.01-1.8-3.02-1.24-2.07-2.48-4.14-3.73-6.22-.1-.17-.36-.01-.26.15h0Z"/>
    <path d="M149.74,222.13c.13,2.86.5,5.76,1.65,8.41,1.09,2.5,2.78,4.76,3.28,7.49.04.19.32.11.29-.08-.49-2.62-2.05-4.82-3.15-7.19-1.25-2.7-1.64-5.67-1.78-8.62,0-.19-.31-.19-.3,0h0Z"/>
    <path d="M154.04,218.43c.3.95.6,1.9.8,2.88s.29,2.01.29,3.03c0,2.05-.32,4.07-.65,6.09-.03.19.26.27.29.08.33-2.04.66-4.1.66-6.17,0-1-.08-2.01-.28-3s-.51-2-.82-2.99c-.06-.18-.35-.11-.29.08h0Z"/>
    <path d="M215,175c2.98,5.37,5.6,10.94,7.84,16.66.07.18.36.1.29-.08-2.25-5.74-4.88-11.33-7.87-16.73-.09-.17-.35-.02-.26.15h0Z"/>
    <path d="M222.34,169.85c5.57,3.5,11.7,6.07,18.1,7.6.19.04.27-.24.08-.29-6.38-1.52-12.48-4.08-18.03-7.57-.16-.1-.31.16-.15.26h0Z"/>
    <path d="M221.63,161.02c6.96-.13,13.92-.27,20.87-.4.19,0,.19-.3,0-.3-6.96.13-13.92.27-20.87.4-.19,0-.19.3,0,.3h0Z"/>
    <path d="M219.51,150.59c3.63-4.1,7.52-7.98,11.65-11.59,1.16-1.02,2.35-2.01,3.55-2.99.15-.12-.06-.33-.21-.21-4.25,3.46-8.29,7.19-12.06,11.16-1.07,1.12-2.11,2.26-3.13,3.42-.13.14.08.36.21.21h0Z"/>
    <path d="M216.38,124.63c-.77,3.14-1.6,6.28-2.3,9.44-.69,3.11-.8,6.23-.68,9.41,0,.19.31.19.3,0-.13-3.21,0-6.36.71-9.5.7-3.1,1.5-6.17,2.26-9.26.05-.19-.24-.27-.29-.08h0Z"/>
    <path d="M197.04,121.61c.89,7.26,2.7,14.38,5.38,21.18.07.18.36.1.29-.08-2.68-6.77-4.49-13.87-5.37-21.1-.02-.19-.32-.19-.3,0h0Z"/>
    <path d="M177.49,133.27c2.16,2.13,4.37,4.21,6.67,6.19,2.11,1.82,4.34,3.53,6.81,4.83,1.39.73,2.85,1.33,4.37,1.75.19.05.27-.24.08-.29-5.45-1.5-9.81-5.28-13.87-9.05-1.29-1.2-2.59-2.41-3.85-3.65-.14-.14-.35.08-.21.21h0Z"/>
    <path d="M167.86,152.07c6.88.81,13.79,1.44,20.7,1.89.19.01.19-.29,0-.3-6.92-.44-13.82-1.07-20.7-1.89-.19-.02-.19.28,0,.3h0Z"/>
    <path d="M169.45,172.8c6.35-4.04,13.37-6.97,20.7-8.66.19-.04.11-.33-.08-.29-7.36,1.7-14.4,4.64-20.77,8.69-.16.1-.01.36.15.26h0Z"/>
    <path d="M193.95,174.41c-1.59,1.81-3.13,3.66-4.61,5.55-1.4,1.79-2.85,3.6-4,5.57-.62,1.06-1.12,2.19-1.38,3.39-.04.19.25.27.29.08.47-2.14,1.7-3.99,2.97-5.74,1.39-1.91,2.84-3.79,4.35-5.61.85-1.03,1.71-2.04,2.59-3.03.13-.14-.08-.36-.21-.21h0Z"/>
    <path d="M200.76,197.02c1.64-2.75,2.78-5.78,3.36-8.93.61-3.35.65-6.76.69-10.15,0-.19-.3-.19-.3,0-.03,3.36-.07,6.75-.68,10.07-.57,3.13-1.7,6.13-3.33,8.86-.1.17.16.32.26.15h0Z"/>
    <path d="M118.31,109.73c2.47-4.9,5.31-9.61,8.52-14.07.93-1.3,1.9-2.57,2.89-3.82.12-.15-.09-.36-.21-.21-3.43,4.33-6.52,8.93-9.23,13.76-.77,1.38-1.52,2.78-2.23,4.2-.09.17.17.32.26.15h0Z"/>
    <path d="M123.56,115.34c5.71-4.19,12.07-7.44,18.82-9.61.18-.06.1-.35-.08-.29-6.77,2.18-13.16,5.44-18.89,9.64-.15.11,0,.37.15.26h0Z"/>
    <path d="M125.84,122.73c7.55-.65,15.16-.62,22.7.11.19.02.19-.28,0-.3-7.55-.72-15.15-.76-22.7-.11-.19.02-.19.32,0,.3h0Z"/>
    <path d="M124.08,131.86c6.42,2.81,12.5,6.34,18.14,10.51.16.11.31-.15.15-.26-5.63-4.16-11.72-7.69-18.14-10.51-.18-.08-.33.18-.15.26h0Z"/>
    <path d="M116.89,137.56c2.24,5.22,5,10.22,8.24,14.9.9,1.31,1.85,2.59,2.82,3.84.12.15.33-.06.21-.21-4.45-5.73-8.16-12.01-11.02-18.68-.08-.18-.33-.02-.26.15h0Z"/>
    <path d="M107.99,141.76c-.93,6.46-.88,13.03.12,19.48.03.19.32.11.29-.08-1-6.39-1.04-12.92-.12-19.32.03-.19-.26-.27-.29-.08h0Z"/>
    <path d="M88.26,157.11c3.32-4.03,6.33-8.31,8.96-12.82.76-1.29,1.48-2.61,2.18-3.93.09-.17-.17-.32-.26-.15-2.4,4.59-5.17,8.99-8.28,13.13-.91,1.21-1.84,2.4-2.81,3.56-.12.15.09.36.21.21h0Z"/>
    <path d="M75.01,144.7c5.25-3.74,10.7-7.19,16.31-10.36.17-.09.02-.35-.15-.26-5.61,3.16-11.06,6.62-16.31,10.36-.16.11,0,.37.15.26h0Z"/>
    <path d="M69.35,124.99c6.69.11,13.38.22,20.07.33.19,0,.19-.3,0-.3-6.69-.11-13.38-.22-20.07-.33-.19,0-.19.3,0,.3h0Z"/>
    <path d="M78.13,106.18c3.98,2.26,7.42,5.31,11.12,8,1.06.77,2.14,1.51,3.26,2.19.17.1.32-.16.15-.26-3.91-2.39-7.33-5.46-11.07-8.08-1.07-.75-2.17-1.46-3.31-2.11-.17-.1-.32.16-.15.26h0Z"/>
    <path d="M92.76,90.74c1.7,7.31,4.61,14.31,8.58,20.67.1.16.36.01.26-.15-3.96-6.34-6.85-13.31-8.55-20.6-.04-.19-.33-.11-.29.08h0Z"/>
    <path d="M110.18,89.05c.29,6.14.14,12.29-.45,18.41-.02.19.28.19.3,0,.59-6.12.75-12.27.45-18.41,0-.19-.31-.19-.3,0h0Z"/>
    <path d="M68.8,183.63c.93,3.01,1.88,6.01,2.8,9.02s1.77,6.04,2.05,9.17c.02.19.32.19.3,0-.27-3.11-1.1-6.11-2.01-9.08-.94-3.07-1.9-6.12-2.85-9.19-.06-.18-.35-.11-.29.08h0Z"/>
    <path d="M86.56,185.32c-1.39,5.51-3.18,10.92-5.35,16.18-.07.18.22.26.29.08,2.17-5.26,3.96-10.67,5.35-16.18.05-.19-.24-.27-.29-.08h0Z"/>
    <path d="M89.33,206.43c2.89-3.53,6.31-6.63,10.13-9.14,1.08-.71,2.2-1.38,3.34-1.99.17-.09.02-.35-.15-.26-4.04,2.18-7.74,4.98-10.94,8.27-.9.93-1.77,1.9-2.59,2.9-.12.15.09.36.21.21h0Z"/>
    <path d="M91.31,214.87c6.1-.95,12.28-1.42,18.45-1.42.19,0,.19-.3,0-.3-6.21,0-12.4.48-18.53,1.43-.19.03-.11.32.08.29h0Z"/>
    <path d="M87.95,223.72c2.22,1.07,4.63,1.66,6.88,2.66s4.22,2.14,6.15,3.52c1.13.81,2.21,1.69,3.24,2.63.14.13.35-.08.21-.21-3.51-3.21-7.64-5.68-12.12-7.26-1.42-.5-2.85-.94-4.21-1.6-.17-.08-.33.17-.15.26h0Z"/>
    <path d="M82.12,231.86c.27,2.72.78,5.4,1.33,8.07.28,1.34.57,2.67.85,4.01.25,1.19.51,2.39,1.16,3.43.1.16.36.01.26-.15-.67-1.06-.91-2.3-1.17-3.51-.27-1.29-.55-2.57-.82-3.86-.55-2.64-1.06-5.3-1.32-7.99-.02-.19-.32-.19-.3,0h0Z"/>
    <path d="M66.88,243.57c1.65-4.55,3.6-8.99,5.82-13.29.09-.17-.17-.32-.26-.15-2.23,4.32-4.19,8.79-5.85,13.36-.07.18.22.26.29.08h0Z"/>
    <path d="M49.56,232.37c3.21-2.69,6.69-5.06,10.38-7.04,1.06-.57,2.13-1.1,3.21-1.6.17-.08.02-.34-.15-.26-3.85,1.79-7.51,3.97-10.91,6.51-.94.7-1.85,1.43-2.75,2.18-.15.12.07.34.21.21h0Z"/>
    <path d="M43.78,213.55c6.24-.54,12.53-.47,18.76.22.19.02.19-.28,0-.3-6.23-.69-12.51-.76-18.76-.22-.19.02-.19.32,0,.3h0Z"/>
    <path d="M53.81,195.83c1.7,1,3.42,1.98,5.1,3.01s3.04,2.12,4.36,3.46c.73.74,1.43,1.5,2.12,2.27.13.14.34-.07.21-.21-1.24-1.36-2.48-2.73-3.9-3.91-1.47-1.23-3.14-2.16-4.78-3.13-.99-.58-1.98-1.16-2.97-1.75-.17-.1-.32.16-.15.26h0Z"/>
  </g>
  <g class="cls-12">
    <g>
      <rect class="cls-13" x="243.12" y="346.83" width="274.52" height="7.79" rx="3.89" ry="3.89"/>
      <g>
        <path class="cls-13" d="M257.12,348.1s33.22.75,36.78,0,15.79-2.82,19.39-4.82c4.34-2.41,9.38-.07,9.38,4.63"/>
        <path class="cls-13" d="M288.9,348.39h178.82v-1.71h-19.64l-6.02-3.32-6.71,1.13-24.73-.3s5.37-6.8,13.32-6.8,11.41,7.1,11.41,7.1c0,0,1.11-3.55,5.74-3.55s6.98,5.75,6.98,5.75h12.58"/>
      </g>
      <g>
        <line class="cls-2" x1="244.48" y1="354.21" x2="330.97" y2="354.21"/>
        <path class="cls-2" d="M256.35,346.83s31.94.33,42.52,0c3.64-.11,10.82-1.41,14.42-3.41,4.34-2.41,9.38-.07,9.38,4.63"/>
      </g>
    </g>
  </g>
  <g>
    <path class="cls-7" d="M17.76,4.7l.43.83c2.53,4.84,5.79,9.26,9.66,13.1l.05.05-.05.05c-3.87,3.85-7.13,8.27-9.66,13.1l-.43.83-.43-.83c-2.53-4.84-5.79-9.26-9.66-13.1l-.05-.05.05-.05c3.87-3.85,7.13-8.27,9.66-13.1l.43-.83Z"/>
    <path class="cls-7" d="M44.53,10.09l.24.47c1.57,3,3.59,5.74,5.99,8.12h0s0,0,0,0c-2.4,2.38-4.42,5.12-5.99,8.12l-.24.47-.24-.47c-1.57-3-3.59-5.74-5.99-8.12h0s0,0,0,0c2.4-2.38,4.42-5.12,5.99-8.12l.24-.47Z"/>
    <path class="cls-7" d="M17.76,398.2l.43.83c2.53,4.84,5.79,9.26,9.66,13.1l.05.05-.05.05c-3.87,3.85-7.13,8.27-9.66,13.1l-.43.83-.43-.83c-2.53-4.84-5.79-9.26-9.66-13.1l-.05-.05.05-.05c3.87-3.85,7.13-8.27,9.66-13.1l.43-.83Z"/>
    <path class="cls-7" d="M44.53,403.6l.24.47c1.57,3,3.59,5.74,5.99,8.12h0s0,0,0,0c-2.4,2.38-4.42,5.12-5.99,8.12l-.24.47-.24-.47c-1.57-3-3.59-5.74-5.99-8.12h0s0,0,0,0c2.4-2.38,4.42-5.12,5.99-8.12l.24-.47Z"/>
    <path class="cls-7" d="M271.38,4.7l-.43.83c-2.53,4.84-5.79,9.26-9.66,13.1l-.05.05.05.05c3.87,3.85,7.13,8.27,9.66,13.1l.43.83.43-.83c2.53-4.84,5.79-9.26,9.66-13.1l.05-.05-.05-.05c-3.87-3.85-7.13-8.27-9.66-13.1l-.43-.83Z"/>
    <path class="cls-7" d="M244.6,10.09l-.24.47c-1.57,3-3.59,5.74-5.99,8.12h0s0,0,0,0c2.4,2.38,4.42,5.12,5.99,8.12l.24.47.24-.47c1.57-3,3.59-5.74,5.99-8.12h0s0,0,0,0c-2.4-2.38-4.42-5.12-5.99-8.12l-.24-.47Z"/>
    <path class="cls-7" d="M271.38,398.2l-.43.83c-2.53,4.84-5.79,9.26-9.66,13.1l-.05.05.05.05c3.87,3.85,7.13,8.27,9.66,13.1l.43.83.43-.83c2.53-4.84,5.79-9.26,9.66-13.1l.05-.05-.05-.05c-3.87-3.85-7.13-8.27-9.66-13.1l-.43-.83Z"/>
    <path class="cls-7" d="M244.6,403.6l-.24.47c-1.57,3-3.59,5.74-5.99,8.12h0s0,0,0,0c2.4,2.38,4.42,5.12,5.99,8.12l.24.47.24-.47c1.57-3,3.59-5.74,5.99-8.12h0s0,0,0,0c-2.4-2.38-4.42-5.12-5.99-8.12l-.24-.47Z"/>
  </g>
</svg>