<?xml version="1.0" encoding="UTF-8"?>
<svg id="Layer_1" data-name="Layer 1" xmlns="http://www.w3.org/2000/svg" viewBox="0 0 289.13 430.87">
  <defs>
    <style>
      .cls-1 {
        fill: none;
      }

      .cls-2 {
        fill: #fffff3;
      }

      .cls-3 {
        font-family: SUIT-Regular-KSCpc-EUC-H, SUIT;
        font-size: 14px;
      }

      .cls-4 {
        fill: #fffcd9;
      }

      .cls-5 {
        fill: #f9f1ac;
      }

      .cls-6 {
        font-family: 'IM_FELL_Double_Pica_SC', 'IM FELL Double Pica SC';
        font-size: 24px;
      }

      .cls-7 {
        fill: #f9f1b7;
      }

      .cls-8 {
        letter-spacing: -.01em;
      }

      .cls-9 {
        fill: #ced38d;
      }
    </style>
  </defs>
  <g>
    <text class="cls-6" transform="translate(107.41 395.79)"><tspan class="cls-8" x="0" y="0">D</tspan><tspan x="19.2" y="0">AISY</tspan></text>
    <text class="cls-3" transform="translate(102.86 418.59)"><tspan x="0" y="0">데이지· 외로움</tspan></text>
  </g>
  <g>
    <g>
      <path class="cls-2" d="M188.03,92.56s5.44-11.91,3.56-16.87c-1.87-4.96-3.14-5.82-3.56-10.25-.63-6.59,1.22-15.31.72-16.89-1.1-3.43,2.11-4.38,3.24-2.07,0,0,4.5-8.22,10.08-9.81,3.71-1.06,10.25.22,11.35,7.28s.44,6.84.44,6.84c0,0,2.32-4.93,4.19-4.3,3.09,1.04,1.43,7.72,0,10.8s-7.55,12.9-14.41,16.32c-6.86,3.42-8.52,9.59-10.28,13.89-1.76,4.3-6.4,14.54-6.4,14.54"/>
      <path class="cls-9" d="M192.19,76.02h0c1.66,1.34,3.74,2.04,5.87,1.97h.28s-2.76,4.34-4.03,8.05c-.68,1.97-4.85,11.51-7.37,16.42-2.22,4.33-2.85,4.21-2.85,4.21l2.45-9.99,4.34-10.21,1.53-7.06-.23-3.39Z"/>
      <path class="cls-1" d="M238.22,95.68l.98,7.52c.41,3.15,2.85,5.65,5.98,6.15l1.3.2-1.25.14c-3.13.36-5.62,2.81-6.02,5.94l-.99,7.78-.99-7.78c-.4-3.13-2.88-5.58-6.02-5.94l-1.25-.14,1.3-.2c3.14-.49,5.57-3,5.98-6.15l.98-7.52Z"/>
      <path class="cls-1" d="M130.08,217.08l.57,4.41c.36,2.79,2.52,5,5.29,5.44h0,0c-2.75.32-4.93,2.47-5.28,5.21l-.59,4.64-.59-4.64c-.35-2.74-2.53-4.9-5.28-5.21h0,0c2.77-.44,4.93-2.65,5.29-5.44l.57-4.41Z"/>
      <path class="cls-1" d="M80.75,188l1.49,11.44c.36,2.8,2.53,5.03,5.32,5.47l3.59.57-3.59.41c-2.77.32-4.96,2.48-5.31,5.24l-1.51,11.82-1.51-11.82c-.35-2.76-2.54-4.92-5.31-5.24l-3.59-.41,3.59-.57c2.79-.44,4.96-2.67,5.32-5.47l1.49-11.44Z"/>
      <circle class="cls-1" cx="221.68" cy="115" r="1.51"/>
      <circle class="cls-1" cx="176.97" cy="64.79" r="1.51"/>
      <circle class="cls-1" cx="234.57" cy="87.21" r="1.06"/>
      <circle class="cls-1" cx="241.28" cy="144.59" r="1.19"/>
      <circle class="cls-1" cx="210.23" cy="200.29" r="1.64"/>
      <circle class="cls-1" cx="175.62" cy="209.46" r="1.14"/>
      <circle class="cls-1" cx="94.5" cy="228.59" r="1.5"/>
      <circle class="cls-1" cx="71.84" cy="162.56" r="1.5"/>
      <circle class="cls-1" cx="95.25" cy="195.92" r="1.28"/>
      <circle class="cls-1" cx="90.53" cy="242.15" r="1.11"/>
      <circle class="cls-1" cx="86.48" cy="250.1" r="1.11"/>
      <circle class="cls-1" cx="208.12" cy="206.88" r=".86"/>
      <circle class="cls-1" cx="252.26" cy="143.75" r=".83"/>
      <g>
        <circle class="cls-1" cx="145.67" cy="129.94" r="1"/>
        <circle class="cls-1" cx="147.38" cy="133.66" r=".73"/>
        <circle class="cls-1" cx="151.03" cy="135.55" r=".73"/>
        <circle class="cls-1" cx="143.2" cy="134.71" r="1"/>
        <circle class="cls-1" cx="140.6" cy="130.25" r=".73"/>
        <circle class="cls-1" cx="147.54" cy="137.47" r="1"/>
      </g>
      <ellipse class="cls-1" cx="145.11" cy="134.53" rx="18.14" ry="22.77" transform="translate(-37.55 210.63) rotate(-65.45)"/>
      <path class="cls-2" d="M141.43,89.25s-2.02-12.72-9.07-27.34c-7.06-14.61-13.48-8.44-13.48-8.44-12.22.38-2.65,32.88-2.65,32.88,0,0-6.93-11.34-17.89-21.29-10.96-9.95-15.12-3.28-15.12-3.28-7.81,16.76,12.72,37.16,12.72,37.16,0,0-11.72-7.56-25.32-9.83-13.61-2.27-13.98,6.05-13.98,6.05-.76,20.03,33.13,28.47,33.13,28.47-20.91-.5-27.34,4.03-33.51,8.94-6.17,4.91-2.39,10.96-2.39,10.96.38,15.62,49.64,4.41,49.64,4.41,0,0-9.57,6.3-19.28,16.63-9.7,10.33-1.39,17.01-1.39,17.01,8.82,10.96,37.29-18.9,31.37-9.32-5.92,9.57-9.83,28.22,1.89,32.63,11.72,4.41,21.42-21.04,21.42-21.04,0,0,.25,8.31,5.49,19.78,5.23,11.46,13.16,7.94,13.16,7.94,14.11,6.68,6.3-32.5,6.3-32.5,4.41,8.69,20.54,20.41,27.21,22.8,6.68,2.39,8.94-2.14,8.94-2.14,3.78.76,5.29-2.02,1.89-12.47-3.4-10.46-15.37-20.66-15.37-20.66,0,0,19.28,8.57,27.72,10.46,8.44,1.89,9.2-3.02,9.2-3.02,3.65-1.64,3.28-3.4,3.28-3.4,1.39-15.62-30.61-25.7-30.61-25.7,0,0,37.04.63,30.36-10.4-6.68-11.03-26.83-10.26-26.83-10.26,0,0,4.16-3.78,6.3-6.17,2.14-2.39,7.68-8.69,2.27-15.37-5.42-6.68-22.17.13-22.17.13,8.06-14.24-.76-16.63-.76-16.63-6.93-7.56-18.65,9.45-18.65,9.45,7.06-33.51-6.05-32.13-6.05-32.13-12.22-7.18-17.76,25.7-17.76,25.7,0,0-1.9,21.68,1.58,26.32"/>
      <path class="cls-1" d="M165.24,95.68s-7.73,20.09-10.8,23.26"/>
      <path class="cls-1" d="M184.64,102.86s-19.85,20.51-23.64,21.04"/>
      <path class="cls-1" d="M198.25,124.27s-22.09,3.66-31.76,8.83"/>
      <path class="cls-1" d="M194.72,144.93s-21.64-1.33-28.24-2.67"/>
      <path class="cls-1" d="M185.14,166.6s-19.27-14.53-24.14-16.74"/>
      <path class="cls-1" d="M162.47,179.08s-6.61-21.51-10.95-25.67"/>
      <path class="cls-1" d="M137.52,183.86s-.71-19.3,4.02-31.36"/>
      <path class="cls-1" d="M114.93,170.37s14.51-16.6,17.94-22.06"/>
      <path class="cls-1" d="M103.51,147.96s12.16-5.27,22.62-6.71"/>
      <path class="cls-1" d="M89.77,123.64s23.29,4.27,33.48,10.07"/>
      <path class="cls-1" d="M95.95,98.95s22.22,16.18,29.7,23.92"/>
      <path class="cls-1" d="M116.23,86.35s10.08,27.78,16.42,30.89"/>
      <path class="cls-9" d="M110.15,199.52s-8.34,30.44-8.96,40.34c-.62,9.91-.83,23.94,1.44,34.26s9.06,33.09,11.81,39.47,14.08,28.74,19.59,36.29c5.52,7.55,15.09,18.58,15.09,18.58,0,0-19.01-28.74-22.64-39.33-3.63-10.6-5.37-16.11-2.47-26.27,2.9-10.16,8.29-21.55,20.43-26.4,12.14-4.86,20.84-6.47,32.88-13.05,12.04-6.58,16.29-13.96,20.43-15.98,4.15-2.02,15.58-12.64,20.13-14.67,4.55-2.02,15.27-4.05,14.26-4.96-1.01-.91-13.25-3.84-31.26-7.08-18.01-3.24-28.12.81-35.61,4.05-7.49,3.24-17.7,10.52-26.5,21.34-8.8,10.82-11.13,14.16-13.86,27.11-2.73,12.95-4.96,34.49-4.25,41.27,0,0-10.72-22.66-12.34-34.8-1.62-12.14-2.23-28.22-1.32-36.21.91-7.99,3.36-28.5,9.07-38.58"/>
      <path class="cls-1" d="M203.81,70.94c9.72-7.44,10.05-20.16,10.05-20.16"/>
      <path class="cls-1" d="M213.79,46.47s-4.6-6.04-8.94-2.42c-4.34,3.62-7.03,9.2-8.06,11.58-1.03,2.38-2.58,8.89-2.58,10.65s-.21,6.1.93,7.86c-6.1-2.27-3.14-27.67-3.14-27.67"/>
      <path class="cls-1" d="M125.56,286.29s17.47-32.55,39.06-42.83c21.59-10.28,38.82-14.71,67.55-15.66"/>
      <path class="cls-1" d="M163.55,244s6.94-13.38,21.5-20.71"/>
      <path class="cls-1" d="M150.17,253.78s5.14-15.83,16.34-26.78"/>
      <path class="cls-1" d="M137.24,268.42s4.7-20.76,12.93-29.44"/>
      <path class="cls-1" d="M127.5,282.92s3.33-20.39,8.49-29.22"/>
      <path class="cls-1" d="M158.34,247.13s19.68-7.73,50.25-10.93"/>
      <path class="cls-1" d="M141.94,262.51s17.8-8.76,27.51-9.69"/>
      <path class="cls-1" d="M177.4,252.1s10.22-1.3,21.88-5.56"/>
      <path class="cls-1" d="M130.08,278.73s11.9-11.04,17.58-13"/>
      <path class="cls-1" d="M146.32,269.14s18.28-6.51,23.86-7.64"/>
      <path class="cls-1" d="M219.22,207.77s.9-3.12-.5-8.24-.11-7.56,6.25-8.6c6.35-1.04,6.95-2.33,8.35-4.43,0,0,6.78-8.94,3.71-14.16-3.07-5.22-6.62-7.86-4.52-11.84,2.1-3.98,7.32-5.33,9.85-6.84s4.15-4.95,4.15-4.95c0,0,.97,1.51-1.51,4.2-2.48,2.69-7.54,3.66-8.67,5.28-1.13,1.62-2.1,5.55.22,9.37,2.32,3.82,3.71,9.1,2.42,12.76-1.29,3.66-2.69,10.34-8.29,11.2-5.6.86-7.97.86-9.05,2.53-1.08,1.67-1.24,2.15-1.24,4.31s1.1,6.51-1.17,9.42Z"/>
      <path class="cls-1" d="M86.6,257.67s-4.82,3.99-1.1,8.61c3.72,4.62,6.63,6.63,6.43,9.44-.2,2.81-1.91,8.74-1.31,11.05.6,2.31,5.02,7.13,5.02,7.13,0,0-4.42-5.22-3.52-8.54s2.58-8.46,1.81-10.95c-.71-2.27-1.37-4.76-5.93-9.1-1.91-1.81-2.07-2.92-1.41-7.65Z"/>
      <path class="cls-1" d="M163.43,19.54s4.88,3.5,2.39,9.57c-2.48,6.07-3.25,8.46-.84,10.86,2.41,2.39,7.56,5.52,6.18,9.84-1.38,4.32-3.68,7.64-3.31,10.21,0,0,1.57-3.5,3.54-5.06s3.82-5.43,1.98-8.19c-1.84-2.76-7.08-5.61-7.08-9.66s2.3-9.84,1.93-11.5-.83-4.23-4.78-6.07Z"/>
      <path class="cls-1" d="M159.19,63.55s-.07,13.55-2.87,23.68"/>
      <path class="cls-1" d="M152.05,80.39s-5,9.15-6.1,17.21c-1.1,8.06.72,18.47.72,18.47"/>
      <line class="cls-1" x1="156.99" y1="97.79" x2="150.14" y2="117.03"/>
      <path class="cls-1" d="M167.23,105.1s-8.6,11.7-10.24,15.41"/>
      <path class="cls-1" d="M172.14,105.44s12.56-13.1,11.74-19.21"/>
      <path class="cls-1" d="M185.66,115.54s20.74-10.59,22.31-11.1"/>
      <path class="cls-1" d="M184.64,111.31s-15.95,10.33-20.02,17.38"/>
      <path class="cls-1" d="M194.72,115.54s-7.76,4.57-10.8,6.21"/>
      <path class="cls-1" d="M179.52,118.2s-11.85,7.16-14.59,11.05"/>
      <path class="cls-1" d="M207.97,131.03s15.1-.2,17.89,6.35"/>
      <path class="cls-1" d="M196.82,131.03s-18.39-.14-29.59,5.6"/>
      <path class="cls-1" d="M167.01,139.9s12.92.82,22.31-1.7"/>
      <path class="cls-1" d="M209.28,134.21s-10.34,2.05-15.77,3.17"/>
      <path class="cls-1" d="M202.79,156.13s20.06,9.1,19.27,17.91c0,0-9.29-7.22-24.44-12.13"/>
      <path class="cls-1" d="M203.57,169.27s11.51,6.47,17.14,6.91"/>
      <line class="cls-1" x1="183.26" y1="156.92" x2="162.81" y2="148.31"/>
      <path class="cls-1" d="M187.72,149.86s-14.93-3.5-23.71-2.91"/>
      <path class="cls-1" d="M185.14,178.37c5.91,5.43,13.48,21.36,13.48,21.36,0,0-1.53,6.29-23.51-25.7"/>
      <path class="cls-1" d="M154.2,152.94s14.15,28.14,22.57,35.94"/>
      <path class="cls-1" d="M182.82,194.31s10.06,10.15,15.8,5.43"/>
      <path class="cls-1" d="M154.2,187.83s3.77,16.24,1.97,23.75"/>
      <path class="cls-1" d="M145.69,182.23s6.07,24.21,8.51,29.35"/>
      <path class="cls-1" d="M143.96,153.08s-2.49,14.78-.95,21.35"/>
      <path class="cls-1" d="M146.14,153.41s3.85,10.95,5.38,22.51"/>
      <path class="cls-1" d="M148.83,153.55s6.77,16.07,8.16,25.52"/>
      <line class="cls-1" x1="137.58" y1="151.03" x2="128" y2="176.36"/>
      <path class="cls-1" d="M122.49,168.18s9.92-14.48,13.98-17.69"/>
      <path class="cls-1" d="M117.41,176.36s-5.81,13.65-4.18,26.96"/>
      <path class="cls-1" d="M121.52,188.62s-2.54,10.85-6.35,15.89"/>
      <path class="cls-1" d="M137.58,175.92s-8.84,21.96-15.35,25.83"/>
      <path class="cls-1" d="M128.97,187.48s6.34-9.54,8.82-15.14"/>
      <path class="cls-1" d="M102.61,157.09s20.29-10.35,26.87-11.65"/>
      <path class="cls-1" d="M87.55,167.34s9.19-13.63,28.98-19.38"/>
      <path class="cls-1" d="M81.34,179.91s.26-5.56,3.23-9.07"/>
      <path class="cls-1" d="M112.94,162.56s-21.69,17.47-28.66,20.36"/>
      <line class="cls-1" x1="116.04" y1="159.81" x2="130.99" y2="146.84"/>
      <path class="cls-1" d="M91.05,130.21s23.16.35,32.46,5.87"/>
      <path class="cls-1" d="M73.89,132.26s-13.32,2.14-21.15,7.23"/>
      <path class="cls-1" d="M93.41,138.35s20.05-4.15,30.96-.54"/>
      <path class="cls-1" d="M68.9,145.44s48.62-3.33,56.23-5.95"/>
      <path class="cls-1" d="M82.29,147.96s-23.4,2.01-28.42-4.41c0,0-2.22-2.74,26.76-6.68"/>
      <path class="cls-1" d="M118.88,53.47s5.04,12.38,6.25,18.85"/>
      <path class="cls-1" d="M119.61,70.94s3.51,33.08,14.87,45.62"/>
      <path class="cls-1" d="M132.65,98.23s4.32,9.66,4.45,17.67"/>
      <path class="cls-1" d="M137.1,93.11s1.52,8.28,1.65,13.96"/>
      <path class="cls-1" d="M110.11,91.71s12.57,17.78,17.57,28.79"/>
      <path class="cls-1" d="M84.35,60.67s8.65,7.6,15.11,17.61"/>
      <line class="cls-1" x1="92.74" y1="73.46" x2="102.61" y2="87.23"/>
      <path class="cls-1" d="M113.66,104.26s11.48,13.64,13.39,16.87"/>
      <path class="cls-1" d="M56.64,95.17s5.97-2.82,28.95,9.09"/>
      <path class="cls-1" d="M96.54,106.47s21.71,11.88,27.86,18.6"/>
      <path class="cls-1" d="M111.16,120.5s9.83,5,12.35,7.1"/>
      <path class="cls-1" d="M101.3,119.43s18.26,7.43,21.87,10.03"/>
      <path class="cls-1" d="M65.7,106.11s8.66,7.35,19.89,11.64"/>
      <path class="cls-1" d="M201.95,60.85s-3.85,9.25-4.12,12.38"/>
      <path class="cls-1" d="M208.39,46.12s4.92,2.86-.89,16.55"/>
      <path class="cls-1" d="M207.1,42.9c.78-3.61-10.81-8.31-14.01,13.87"/>
      <ellipse class="cls-1" cx="145.11" cy="134.53" rx="15.98" ry="20.07" transform="translate(-37.55 210.63) rotate(-65.45)"/>
      <path class="cls-1" d="M219.57,207.77s.9-3.12-.5-8.24-.11-7.56,6.25-8.6c6.35-1.04,6.95-2.33,8.35-4.43,0,0,6.78-8.94,3.71-14.16-3.07-5.22-6.62-7.86-4.52-11.84s7.32-5.33,9.85-6.84,4.15-4.95,4.15-4.95c0,0,.97,1.51-1.51,4.2s-7.54,3.66-8.67,5.28c-1.13,1.62-2.1,5.55.22,9.37,2.32,3.82,3.71,9.1,2.42,12.76-1.29,3.66-2.69,10.34-8.29,11.2-5.6.86-7.97.86-9.05,2.53-1.08,1.67-1.24,2.15-1.24,4.31s1.1,6.51-1.17,9.42Z"/>
      <path class="cls-1" d="M86.96,257.67s-4.82,3.99-1.1,8.61c3.72,4.62,6.63,6.63,6.43,9.44-.2,2.81-1.91,8.74-1.31,11.05.6,2.31,5.02,7.13,5.02,7.13,0,0-4.42-5.22-3.52-8.54s2.58-8.46,1.81-10.95c-.71-2.27-1.37-4.76-5.93-9.1-1.91-1.81-2.07-2.92-1.41-7.65Z"/>
      <path class="cls-1" d="M163.78,19.54s4.88,3.5,2.39,9.57c-2.48,6.07-3.25,8.46-.84,10.86,2.41,2.39,7.56,5.52,6.18,9.84-1.38,4.32-3.68,7.64-3.31,10.21,0,0,1.57-3.5,3.54-5.06s3.82-5.43,1.98-8.19c-1.84-2.76-7.08-5.61-7.08-9.66s2.3-9.84,1.93-11.5-.83-4.23-4.78-6.07Z"/>
      <path class="cls-2" d="M219.57,207.77s.9-3.12-.5-8.24-.11-7.56,6.25-8.6c6.35-1.04,6.95-2.33,8.35-4.43,0,0,6.78-8.94,3.71-14.16-3.07-5.22-6.62-7.86-4.52-11.84s7.32-5.33,9.85-6.84,4.15-4.95,4.15-4.95c0,0,.97,1.51-1.51,4.2s-7.54,3.66-8.67,5.28c-1.13,1.62-2.1,5.55.22,9.37,2.32,3.82,3.71,9.1,2.42,12.76-1.29,3.66-2.69,10.34-8.29,11.2-5.6.86-7.97.86-9.05,2.53-1.08,1.67-1.24,2.15-1.24,4.31s1.1,6.51-1.17,9.42Z"/>
      <path class="cls-2" d="M86.96,257.67s-4.82,3.99-1.1,8.61c3.72,4.62,6.63,6.63,6.43,9.44-.2,2.81-1.91,8.74-1.31,11.05.6,2.31,5.02,7.13,5.02,7.13,0,0-4.42-5.22-3.52-8.54s2.58-8.46,1.81-10.95c-.71-2.27-1.37-4.76-5.93-9.1-1.91-1.81-2.07-2.92-1.41-7.65Z"/>
      <path class="cls-2" d="M163.78,19.54s4.88,3.5,2.39,9.57c-2.48,6.07-3.25,8.46-.84,10.86,2.41,2.39,7.56,5.52,6.18,9.84-1.38,4.32-3.68,7.64-3.31,10.21,0,0,1.57-3.5,3.54-5.06s3.82-5.43,1.98-8.19c-1.84-2.76-7.08-5.61-7.08-9.66s2.3-9.84,1.93-11.5-.83-4.23-4.78-6.07Z"/>
      <path class="cls-5" d="M238.57,95.68l.98,7.52c.41,3.15,2.85,5.65,5.98,6.15l1.3.2-1.25.14c-3.13.36-5.62,2.81-6.02,5.94l-.99,7.78-.99-7.78c-.4-3.13-2.88-5.58-6.02-5.94l-1.25-.14,1.3-.2c3.14-.49,5.57-3,5.98-6.15l.98-7.52Z"/>
      <path class="cls-5" d="M130.44,217.08l.57,4.41c.36,2.79,2.52,5,5.29,5.44h0,0c-2.75.32-4.93,2.47-5.28,5.21l-.59,4.64-.59-4.64c-.35-2.74-2.53-4.9-5.28-5.21h0,0c2.77-.44,4.93-2.65,5.29-5.44l.57-4.41Z"/>
      <path class="cls-5" d="M81.11,188l1.49,11.44c.36,2.8,2.53,5.03,5.32,5.47l3.59.57-3.59.41c-2.77.32-4.96,2.48-5.31,5.24l-1.51,11.82-1.51-11.82c-.35-2.76-2.54-4.92-5.31-5.24l-3.59-.41,3.59-.57c2.79-.44,4.96-2.67,5.32-5.47l1.49-11.44Z"/>
    </g>
    <g>
      <g>
        <ellipse class="cls-4" cx="143.48" cy="134.53" rx="18.14" ry="22.77" transform="translate(-38.51 209.14) rotate(-65.45)"/>
        <path d="M164.21,144.01c-2.24,4.98-7.28,8.19-12.54,9.16-10.61,2.02-22.25-3.25-27.74-12.57-6.35-10.65-.88-22.65,11.31-24.89,5.35-1.03,10.94-.11,15.87,2.1,9.55,4.26,17.82,15.69,13.09,26.19h0ZM164.17,143.98c2.24-4.95,1.32-10.8-1.4-15.36-5.47-9.14-16.96-14.35-27.42-12.42-11.94,2.12-17.29,13.79-11.13,24.24,5.39,9.23,16.9,14.53,27.43,12.63,5.24-.96,10.26-4.13,12.52-9.08h0Z"/>
      </g>
      <g>
        <ellipse class="cls-7" cx="143.48" cy="134.53" rx="15.98" ry="20.07" transform="translate(-38.51 209.14) rotate(-65.45)"/>
        <path d="M161.75,142.88c-1.98,4.39-6.42,7.22-11.06,8.08-9.36,1.79-19.62-2.86-24.46-11.08-5.6-9.4-.78-20,9.98-21.97,4.72-.91,9.66-.1,14,1.85,8.42,3.77,15.7,13.86,11.53,23.12h0ZM161.71,142.86c5.67-14.44-12.12-27.29-25.4-24.46-10.48,1.82-15.23,12.18-9.8,21.33,6.54,11.99,28.03,16.98,35.19,3.14h0Z"/>
      </g>
      <path d="M236.58,95.65c.21,1.53.73,5.27.94,6.74.17,3.02,2.18,5.82,5.14,6.63.71.21,1.46.28,2.21.4.07.01.11.08.1.14,0,.06-.05.1-.11.1-.75.1-1.51.14-2.23.34-3,.76-4.93,3.62-5.01,6.64,0,0-.28,2.26-.28,2.26l-.56,4.52c0,.11-.11.2-.22.19-.09-.01-.16-.09-.17-.17-.21-1.52-.73-5.3-.91-6.77-.11-4.01-3.21-6.84-7.18-6.88-.14-.02-.23-.14-.22-.28.01-.11.1-.2.21-.22.75-.12,1.5-.19,2.19-.39,2.13-.59,3.9-2.26,4.63-4.35.43-1.22.57-3.17.8-4.47.25-1.51.48-2.97.67-4.44h0ZM236.58,95.7c-.46,2.98-.42,6.05-1.17,8.97-.94,3.06-3.98,4.9-7.05,5.12,0,0-.01-.49-.01-.49,1.51.12,3.14.4,4.42,1.32,2.01,1.3,3.07,3.67,3.19,5.99,0,0,.29,2.26.29,2.26l.53,4.52h-.4v-.02s.6-4.51.6-4.51l.3-2.26c.13-2.3,1.18-4.63,3.18-5.9,1.27-.91,2.86-1.16,4.37-1.28,0,0,0,.25,0,.25-3.96-.2-7.29-3.21-7.43-7.25-.17-1.44-.64-5.23-.82-6.72h0Z"/>
      <path d="M128.45,217.06c.35,1.8.42,4.56,1.15,6.19.84,1.87,2.65,3.24,4.67,3.55,0,0,.05,0,.05,0h.01c0-.05,0,.47,0,.25-2.07.24-3.93,1.65-4.71,3.57-.64,1.65-.67,4.38-.97,6.17,0,.11-.11.2-.22.19-.09-.01-.16-.09-.17-.17-.32-1.68-.46-4.7-1.05-6.14-.78-1.88-2.62-3.26-4.65-3.48,0,.44-.02-.6-.01-.5,0,0,0,0,0,0,0,0,.05,0,.05,0,1.99-.29,3.78-1.63,4.62-3.46.77-1.84.84-4.19,1.23-6.16h0ZM128.45,217.11c-.35,2.15-.11,4.18-.94,6.24-.82,1.94-2.66,3.41-4.73,3.8,0,0-.1.02-.1.02h-.05s0,.01,0,.01c0,.11-.02-.93,0-.49,2.77.28,5.14,2.6,5.48,5.37.14,1.01.44,3.66.55,4.7,0,0-.4,0-.4,0h0c.34-1.88.37-4.49,1.07-6.26.85-2.01,2.82-3.47,4.97-3.69.02-.22,0,.29,0,.24-.09-.02-.26-.06-.36-.07-3.15-.62-5.1-3.69-5.12-6.75,0,0-.36-3.13-.36-3.13h0Z"/>
      <path d="M79.12,187.97l1.59,11.59c.41,2.95,3.03,5.15,5.95,5.34,0,0,2.89.44,2.89.44.14.02.14.23,0,.25,0,0-2.92.35-2.92.35-2.94.08-5.58,2.36-5.85,5.33,0,.01-1.45,11.69-1.45,11.7-.02.22-.37.23-.4,0-.54-3.89-1.05-7.79-1.54-11.68-.28-2.93-2.86-5.16-5.77-5.23,0,0-2.93-.34-2.93-.34-.28-.02-.29-.46-.01-.49,0,0,2.89-.43,2.89-.43,2.89-.18,5.47-2.33,5.89-5.24,0,0,1.67-11.58,1.67-11.58h0ZM79.12,188.02c-.5,3.89-.85,7.71-1.36,11.58-.27,1.98-1.52,3.8-3.29,4.77-1.54.9-4.01.99-5.72,1.34,0,0-.01-.49-.01-.49l2.93.34c3.09.06,5.94,2.54,6.21,5.66.51,3.9.99,7.79,1.44,11.7,0,0-.4,0-.4,0,0,0,1.53-11.69,1.53-11.69.29-3.09,3.09-5.5,6.14-5.55,0,0,2.93-.33,2.93-.33,0,0,0,.25,0,.25l-2.88-.47c-2.97-.21-5.69-2.53-6.07-5.54,0,0-1.44-11.57-1.44-11.57h0Z"/>
      <path d="M221.58,115c-.06,2.13-3.12,2.18-3.25,0,0-2.3,3.26-2.36,3.25,0h0ZM221.53,115c-.06-1.65-2.73-1.66-2.8,0-.04,1.82,2.79,1.84,2.8,0h0Z"/>
      <path d="M176.87,64.79c-.06,2.13-3.12,2.18-3.25,0,0-2.3,3.26-2.36,3.25,0h0ZM176.82,64.79c-.06-1.65-2.73-1.66-2.8,0-.04,1.82,2.79,1.84,2.8,0h0Z"/>
      <path d="M234.03,87.21c-.05,1.55-2.24,1.59-2.35,0-.03-1.7,2.41-1.76,2.35,0h0ZM233.98,87.21c-.06-1.08-1.83-1.08-1.9,0-.06,1.22,1.9,1.27,1.9,0h0Z"/>
      <path d="M240.86,144.59c-.05,1.71-2.49,1.75-2.6,0-.02-1.87,2.65-1.93,2.6,0h0ZM240.81,144.59c-.06-1.24-2.09-1.24-2.15,0-.05,1.38,2.15,1.44,2.15,0h0Z"/>
      <path d="M210.27,200.29c-.08,2.31-3.37,2.36-3.51,0,0-2.47,3.52-2.53,3.51,0h0ZM210.22,200.29c-.08-1.83-2.98-1.84-3.06,0-.04,1.99,3.05,2.01,3.06,0h0Z"/>
      <path d="M175.16,209.46c-.05,1.65-2.4,1.7-2.51,0-.03-1.81,2.57-1.87,2.51,0h0ZM175.11,209.46c-.06-1.19-1.99-1.19-2.06,0-.06,1.32,2.06,1.38,2.06,0h0Z"/>
      <path d="M94.39,228.59c-.06,2.11-3.1,2.16-3.22,0,0-2.28,3.24-2.34,3.22,0h0ZM94.34,228.59c-.06-1.64-2.71-1.65-2.77,0-.04,1.8,2.77,1.82,2.77,0h0Z"/>
      <path d="M71.73,162.56c-.06,2.12-3.1,2.16-3.22,0,0-2.28,3.24-2.34,3.22,0h0ZM71.68,162.56c-.06-1.64-2.71-1.65-2.77,0-.04,1.8,2.77,1.82,2.77,0h0Z"/>
      <path d="M94.92,195.92c-.05,1.83-2.66,1.87-2.78,0-.02-1.99,2.83-2.04,2.78,0h0ZM94.87,195.92c-.06-1.36-2.26-1.36-2.33,0-.05,1.5,2.33,1.55,2.33,0h0Z"/>
      <path d="M90.04,242.15c-.05,1.61-2.34,1.65-2.45,0-.03-1.77,2.5-1.82,2.45,0h0ZM89.99,242.15c-.06-1.14-1.93-1.14-2,0-.06,1.28,2,1.33,2,0h0Z"/>
      <path d="M85.99,250.1c-.05,1.61-2.34,1.65-2.45,0-.03-1.77,2.5-1.82,2.45,0h0ZM85.94,250.1c-.06-1.14-1.93-1.14-2,0-.06,1.28,2,1.33,2,0h0Z"/>
      <path d="M207.36,206.88c-.04,1.27-1.83,1.31-1.94,0-.04-1.43,2.01-1.49,1.94,0h0ZM207.31,206.88c-.06-.82-1.41-.81-1.49,0-.07.94,1.5,1,1.49,0h0Z"/>
      <path d="M251.48,143.75c-.04,1.24-1.79,1.29-1.89,0-.04-1.4,1.97-1.46,1.89,0h0ZM251.43,143.75c-.06-.79-1.36-.78-1.44,0-.07.91,1.46.97,1.44,0h0Z"/>
      <g>
        <path d="M144.15,130.95c-1.45.12-1.73-1.93-.25-2.21,1.6-.22,1.92,2.08.25,2.21h0ZM144.15,130.9c.99-.17.79-1.8-.2-1.76-1.12.06-.97,1.9.2,1.76h0Z"/>
        <path d="M145.83,134.41c-1.09.1-1.32-1.45-.19-1.67,1.24-.19,1.51,1.6.19,1.67h0ZM145.83,134.36c.65-.13.51-1.21-.14-1.22-.77.02-.68,1.33.14,1.22h0Z"/>
        <path d="M149.48,136.29c-1.09.1-1.32-1.45-.19-1.67,1.24-.19,1.51,1.6.19,1.67h0ZM149.48,136.24c.65-.13.51-1.21-.14-1.22-.77.02-.68,1.33.14,1.22h0Z"/>
        <path d="M141.68,135.72c-1.45.12-1.73-1.93-.25-2.21,1.6-.22,1.92,2.08.25,2.21h0ZM141.68,135.68c.99-.17.79-1.8-.2-1.76-1.12.06-.97,1.9.2,1.76h0Z"/>
        <path d="M139.05,130.99c-1.09.1-1.31-1.45-.19-1.67,1.24-.19,1.51,1.6.19,1.67h0ZM139.04,130.94c.65-.13.5-1.21-.14-1.22-.77.02-.68,1.33.14,1.22h0Z"/>
        <path d="M146.03,138.49c-1.45.12-1.73-1.93-.25-2.21,1.6-.22,1.92,2.08.25,2.21h0ZM146.02,138.44c.99-.17.79-1.8-.2-1.76-1.12.06-.97,1.9.2,1.76h0Z"/>
      </g>
      <path d="M139.77,89.25c-1.54-8.65-8.7-33.54-16.99-36.62-1.82-.8-4.04-.38-5.53.88-6.9.52-6.27,9.98-6,15.03.47,6.04,1.92,12.06,3.37,17.86-2.1-3.09-4.28-6.27-6.67-9.2-4.72-5.51-18.93-23.71-26.29-15.39-4.47,9.8.43,20.81,6.16,29.04,1.98,2.83,4.16,5.54,6.56,8.02.08.07-.03.2-.11.14-3.23-1.99-6.63-3.71-10.12-5.2-7.14-3.14-28.7-10.54-29,2.53.58,12,12.43,19.04,22.29,23.41,3.49,1.49,7.08,2.77,10.74,3.75.15.03.1.26-.03.25-3.99-.08-7.98-.01-11.94.38-7.97.6-15.72,3.4-21.73,8.77-3.27,2.51-4.18,7.07-2.09,10.63.56,9.07,16.36,8.21,22.91,8.03,8.93-.5,17.81-1.9,26.55-3.77.17-.05.26.2.12.28-3.08,2.09-6.01,4.4-8.87,6.8-2.84,2.41-5.59,4.94-8.22,7.58-2.58,2.61-5.27,5.39-6.35,8.98-1.15,3.55.02,7.6,2.82,10.04,5.84,6.72,18.3-2.49,23.9-6.16,1.23-.85,5.8-4.16,6.97-4.8,3.04-1.56-.02,2.56-.4,3.44-4.98,9.14-9.29,28.54,4.87,31.22,9.22.22,15.91-14.09,19.02-21.41.07-.21.39-.13.39.07.2,3.1.84,6.19,1.65,9.2,2.37,7.65,6.17,21.43,16.71,18.33,1.49.49,3.21,1.19,4.67.34,6.53-3.93,2.68-25.81,1.51-32.61-.06-.25.3-.34.4-.14,1.81,3.33,4.4,6.22,7.15,8.86,5.57,5.19,11.74,9.93,18.59,13.28,3.22,1.62,7.96,2.03,10.02-1.48.05-.09.15-.14.25-.12.81.16,1.69.2,2.35-.23,2.71-2.16.03-9.18-.76-12.06-2.95-8.1-8.98-14.72-15.27-20.45-.22-.17.02-.49.25-.39,9.26,3.9,18.52,8.19,28.3,10.55,2.96.64,7.33.52,8.28-2.96.02-.08.07-.14.14-.17,1.34-.61,3.12-1.59,3.13-3.2.72-13.15-20.05-21.81-30.45-25.44-.28-.08-.18-.5.08-.49,8.24-.04,16.66-.28,24.63-2.53,2.4-.81,5.55-1.85,6.23-4.53.28-1.29-.39-2.58-1.16-3.68-2.36-3.42-6.06-5.59-9.91-6.98-5.19-1.83-10.77-2.54-16.26-2.49-.18.01-.26-.23-.13-.33,4.23-4.17,9.82-8.24,10.76-14.47.24-13.59-15.88-9.88-24.18-6.67-.13.06-.25-.1-.19-.21,0,0,1.1-2.1,1.1-2.1,2.34-4.4,4.23-12.06-1.76-14.33-.71-.68-1.49-1.34-2.44-1.64-6.16-1.73-12.78,6.66-16.08,11.03-.06.1-.23.02-.2-.09.54-2.96,1.17-5.91,1.5-8.9.67-5.14.96-10.61-.24-15.69-.84-3.46-3.19-7.47-7.19-7.43-1.29-.71-2.77-1.21-4.26-.96-8.23,1.81-11.99,19.3-13.47,26.59-.35,4.4-.55,8.87-.52,13.3.21,4.33-.1,9.11,2.07,13-.66-.63-1-2.07-1.26-3.06-.71-3.26-.83-6.62-.88-9.94-.04-4.44.15-8.89.5-13.32,1.08-5.83,2.59-11.62,4.93-17.08,2.08-4.96,6.69-12.48,12.93-8.68,1.69-.11,3.77,1.01,4.9,2.45,1.69,2,2.43,4.77,2.89,7.31.54,3.68.39,7.6.09,11.29-.39,3.75-1.05,7.46-1.77,11.17,0,0-.2-.09-.2-.09,3.41-4.51,10.02-12.92,16.35-11.15.9.22,2.03,1.16,2.42,1.63,5.26,1.84,4.78,8.33,2.92,12.52-.43,1.25-1.45,3.11-2.07,4.31,0,0-.19-.21-.19-.21,3.86-1.47,7.87-2.58,12-2.98,3.05-.24,6.43-.16,9.04,1.66,2.48,1.91,3.95,5.17,3.6,8.3-.5,4.24-3.52,7.54-6.38,10.44-1.46,1.46-2.96,2.88-4.48,4.27l-.14-.33c5.56-.06,11.15.64,16.41,2.49,4.52,1.64,9.11,4.43,11.16,8.98,2.09,6.6-10.15,8-14.49,8.7-5.51.7-11.06.96-16.61.93,0,0,.08-.49.08-.49,3.38,1.12,6.67,2.44,9.88,3.94,7.77,3.83,16.48,8.38,20.1,16.71.69,1.58.94,3.81.79,5.24.1,1.02-.57,1.74-1.23,2.35-.66.57-1.42.97-2.19,1.33l.14-.18c-2.48,7.16-13.63,1.9-18.53.37-6.33-2.33-12.55-4.92-18.72-7.63,0,0,.25-.39.25-.39,2.61,2.29,5.02,4.78,7.28,7.42,4.58,5.22,8.17,11.38,9.52,18.26.4,2.42,1.4,5.75-.84,7.57-.83.52-1.82.45-2.68.29,0,0,.24-.12.24-.12-1.02,1.78-2.97,2.81-4.94,2.94-1.98.11-3.91-.45-5.67-1.26-3.5-1.65-6.73-3.76-9.84-6.01-6.11-4.6-12.27-9.58-16.11-16.33,0,0,.4-.14.4-.14.61,3.2,1.09,6.41,1.47,9.64.54,5.76,3.13,26.42-6.91,23.55,0,0-1.16-.45-1.16-.45h.17c-10.86,3.29-14.87-10.74-17.27-18.6-.82-3.04-1.46-6.13-1.66-9.3,0,0,.39.07.39.07-1.69,4.19-3.73,8.24-6.21,12.02-4.27,6.69-11.85,13.75-19.31,6.71-7.67-8.07-2.49-23.49,2.56-31.78.04-.12.08-.25.08-.33,0-.04,0-.02,0-.02-.8.14-1.53.79-2.24,1.21,0,0-5.52,3.88-5.52,3.88-5.82,3.81-18.34,13.01-24.37,6.08-2.78-2.39-4.11-6.71-2.88-10.35,1.11-3.66,3.82-6.46,6.44-9.11,2.63-2.65,5.39-5.18,8.24-7.6,2.87-2.4,5.8-4.71,8.9-6.82l.12.28c-8.77,1.87-17.65,3.26-26.6,3.76-6.83.19-22.62,1-23.21-8.32-2.07-3.39-1.23-8.26,2.19-10.84,6.04-5.39,13.87-8.23,21.88-8.82,3.98-.39,7.98-.45,11.97-.37,0,0-.03.25-.03.25-3.69-.99-7.28-2.27-10.78-3.77-9.95-4.41-21.85-11.54-22.41-23.63-.26-1.93.64-3.89,2-5.22,6.39-5.68,20.29-.3,27.3,2.51,3.5,1.5,6.9,3.23,10.15,5.22,0,0-.11.14-.11.14-2.41-2.5-4.59-5.21-6.58-8.05-5.75-8.29-10.67-19.33-6.15-29.22,7.45-8.54,21.85,9.92,26.51,15.39,2.36,2.95,4.59,6,6.61,9.19l-.1.05c-.83-2.91-1.51-5.86-2.1-8.83-1.07-6.22-4.45-23.4,4.8-24.11,1.37-1.21,3.77-1.7,5.56-.87,8.19,2.91,15.71,28.39,16.96,36.69h0Z"/>
      <path d="M163.63,95.68c-1.49,4.02-3.05,8.01-4.72,11.96-1.73,3.89-3.25,8.13-6.12,11.31,4.38-7.26,7.43-15.66,10.84-23.27h0Z"/>
      <path d="M183.02,102.87c-3.65,3.84-7.36,7.62-11.17,11.3-2.85,2.77-5.76,5.51-8.97,7.86-1.09.74-2.18,1.61-3.5,1.88-.03,0-.04-.04,0-.05,2.43-.98,4.3-3.04,6.31-4.68,5.98-5.15,11.76-10.95,17.35-16.32h0Z"/>
      <path d="M196.62,124.3c-10.77,2.12-21.63,4.5-31.76,8.83-.03.01-.05-.03-.02-.04,4.8-2.75,10.21-4.24,15.56-5.57,5.31-1.26,10.96-2.52,16.22-3.22h0Z"/>
      <path d="M193.08,144.96c-9.41-.65-19.05-.63-28.26-2.7,9.18,1.02,19.19,1.86,28.26,2.7h0Z"/>
      <path d="M183.49,166.62c-7.82-5.62-15.98-11.61-24.14-16.74-.03-.01,0-.06.02-.05,4.47,2.05,8.42,5.04,12.39,7.91,3.89,2.9,8.1,5.88,11.72,8.88h0Z"/>
      <path d="M160.81,179.08c-1.46-4.44-3.04-8.84-4.76-13.18-1.86-4.24-3.37-8.76-6.18-12.48-.02-.02.01-.06.03-.04,3.26,3.42,4.82,8.06,6.52,12.37,1.57,4.35,3.26,8.99,4.38,13.32h0Z"/>
      <path d="M135.86,183.86c-.16-10.51-.04-21.52,4.03-31.37.01-.03.06-.01.05.02-3.19,10.07-3.98,20.99-4.07,31.36h0Z"/>
      <path d="M113.28,170.36c6.02-7.12,12.24-14.74,17.97-22.07-2.33,4.12-5.53,7.76-8.57,11.38-3.07,3.54-6.25,7.4-9.4,10.68h0Z"/>
      <path d="M101.86,147.94c7.23-3.02,14.79-6.08,22.65-6.68-7.65,1.63-15.47,3.91-22.65,6.68h0Z"/>
      <path d="M88.15,123.62c5.75,1.04,11.48,2.28,17.13,3.8,5.64,1.52,11.33,3.23,16.36,6.27.03.02,0,.06-.02.04-10.55-4.94-22.3-7.57-33.46-10.11h0Z"/>
      <path d="M94.33,98.93c10.19,7.57,20.88,14.73,29.71,23.92.02.02-.01.06-.04.03-9.4-8.5-19.78-16.29-29.67-23.96h0Z"/>
      <path d="M114.62,86.34c2.67,6.86,5.51,13.66,8.91,20.18,2.13,3.75,3.92,8.09,7.49,10.69.03.01,0,.06-.02.04-2.64-1.43-4.22-4.17-5.79-6.62-1.51-2.55-2.81-5.2-4.03-7.89-2.39-5.33-4.79-11-6.57-16.41h0Z"/>
      <path d="M186.38,92.55c1.99-4.93,4.23-10.19,3.81-15.59-.62-3.2-2.74-5.88-3.49-9.07-.92-4.27-.47-8.67-.09-12.97.14-1.84.64-4.63.36-6.41-.32-1.04-.38-2.43.64-3.13,1.04-.73,2.42-.02,2.88,1.04,0,0-.26,0-.26,0,2.99-4.97,7.6-11.14,14.15-10.14,7.33,1.07,8.12,7.87,8.24,14.01-.04.25-.03.74-.45.7-.14-.01-.2-.18-.12-.29.71-1.39,1.47-2.76,2.66-3.85.45-.41,1.13-.76,1.77-.57,1.04.34,1.64,1.38,1.78,2.36,1.09,8.13-7.26,18.64-13.36,23.42-2.5,1.81-5.47,2.83-7.52,5.22-3.23,3.34-4.45,8-6.36,12.13,0,0-1.88,4.22-1.88,4.22-.03,0-3.76,8.47-3.82,8.43-.08,0,3.65-8.5,3.63-8.51,0,0,1.83-4.23,1.83-4.23,1.89-4.2,3.05-8.85,6.32-12.29,2.02-2.41,5.07-3.53,7.52-5.33,2.42-1.85,4.52-4.11,6.43-6.5,3.57-4.71,7.47-10.26,6.78-16.46-.18-1.43-1.56-2.84-2.85-1.55-1.1.99-1.88,2.36-2.56,3.7,0,0-.12-.29-.12-.29-.18-.02-.15.04-.17.03.17-.63.07-1.38.04-2.05-.39-3.63-.52-7.91-3.74-10.26-3.71-2.84-9.09-2.11-12.32,1.13-2.25,2.02-4.1,4.5-5.63,7.11-.04.07-.13.1-.2.06-.45-.91-1.56-1.66-2.52-1-.89.61-.82,1.88-.54,2.82.3,1.92-.23,4.58-.37,6.52-.4,4.28-.87,8.67.02,12.91.72,3.16,2.84,5.88,3.44,9.09.37,5.37-1.86,10.93-3.94,15.61h0Z"/>
      <path d="M108.54,199.53c-3.32,12.84-6.95,25.69-8.79,38.84-.74,9.44-.81,18.99.15,28.42.79,7.56,3.04,14.86,5.04,22.17,2.1,7.29,4.28,14.57,6.83,21.72,2.7,7.09,6.41,13.76,9.85,20.5,3.6,6.66,7.09,13.46,11.57,19.57,4.57,6.06,9.46,11.87,14.4,17.63,0,0-.21.16-.21.16-6.55-10.06-13.01-20.2-18.7-30.78-1.88-3.53-3.63-7.17-4.81-11.01-1.27-3.79-2.52-7.64-2.95-11.65-.45-4.01.11-8.07,1.2-11.93,2.63-9.57,7.41-19.26,16.13-24.61,5.2-3.05,11.09-4.67,16.72-6.69,11.31-3.78,22.7-8.36,31.68-16.42,2.27-1.97,4.32-4.16,6.55-6.17.75-.67,1.54-1.32,2.43-1.82,3.51-1.89,6.51-4.6,9.66-7.05,3.14-2.48,6.2-5.07,9.64-7.19,3.53-1.95,7.58-2.65,11.4-3.83,1.35-.4,2.99-.82,4.03-1.43-2.11-1.04-4.56-1.45-6.85-2.07-7.78-1.85-15.64-3.37-23.51-4.81-7.83-1.43-15.95-1.93-23.77-.28-7.78,1.68-15.25,4.93-21.79,9.47-9.86,6.83-17.85,16.06-24.62,25.88-2.19,3.33-3.74,7.03-4.81,10.87-3.06,11.58-4.49,23.57-5.53,35.5-.27,3.97-.59,7.99-.28,11.96.01.1-.06.18-.15.19-4.22-8.35-7.65-17.44-10.52-26.44-1.44-4.51-2.18-9.2-2.59-13.9-.88-9.39-1.4-18.84-.87-28.27.87-9.39,2.26-18.75,4.51-27.91,1.17-4.5,2.57-9.34,4.88-13.24-4.37,8.39-5.98,17.89-7.51,27.13-2.5,13.97-2.24,28.2-.76,42.26,1.15,14.17,7.31,27.28,13,40.11,0,0-.33.09-.33.09-.32-4.01-.01-8.02.25-12.02,1.01-11.97,2.41-23.95,5.45-35.6,1.92-7.92,7.02-14.45,12.11-20.59,7.6-9.25,16.91-17.53,28.03-22.24,11.03-5.11,23.58-5.79,35.38-3.42,7.88,1.44,15.74,2.96,23.53,4.82,2.35.67,4.96,1.01,7.08,2.22.09.08.12.27.06.39-.41.54-.89.59-1.42.83-4.67,1.68-9.81,2.32-14.19,4.67-3.38,2.09-6.46,4.68-9.59,7.15-3.16,2.45-6.17,5.17-9.72,7.08-3.34,2.11-5.87,5.4-8.92,7.94-9.02,8.08-20.47,12.68-31.82,16.46-5.62,2.02-11.48,3.62-16.66,6.65-8.65,5.3-13.38,14.91-16,24.4-1.08,3.83-1.65,7.84-1.2,11.81.42,3.97,1.66,7.79,2.92,11.58,1.17,3.83,2.9,7.43,4.78,10.97,5.67,10.58,12.12,20.72,18.66,30.78.09.12-.11.28-.21.16-4.94-5.76-9.83-11.58-14.4-17.66-4.49-6.14-7.96-12.94-11.57-19.62-3.44-6.76-7.14-13.44-9.84-20.54-2.55-7.16-4.71-14.44-6.81-21.74-2-7.31-4.24-14.63-5.02-22.2-.96-9.45-.87-18.99-.12-28.44,1.89-13.1,5.45-26.23,8.88-38.83h0Z"/>
      <path d="M202.16,70.92c6.14-4.87,9.04-12.57,10.04-20.14,0-.03.05-.03.05,0-.02,7.68-3.95,15.74-10.09,20.14h0Z"/>
      <path d="M212.13,46.49c-2.26-2.81-6.18-5.1-9.23-2.05-5.38,4.93-8.47,11.89-9.74,19-.42,1.79-.45,3.57-.39,5.38.07,1.73.08,3.67.93,5.19.14.18-.08.45-.28.35-5.88-2.78-3.77-22.17-3.06-27.92-.39,8.2-1.48,16.97,1.09,24.93.43,1.07,1.12,2.1,2.13,2.54l-.28.35c-.92-1.69-.88-3.6-.95-5.44-.03-1.83.02-3.69.45-5.46,1.33-7.13,4.51-14.15,9.99-19.05,3.15-3.08,7.29-.71,9.34,2.17h0Z"/>
      <path d="M123.91,286.28c7.95-13.89,17.46-27.37,30.12-37.37,4.2-3.35,9.06-5.82,13.96-7.97,19.5-9.21,41.15-12.99,62.57-13.14-21.39.81-42.86,4.42-62.41,13.51-4.9,2.11-9.73,4.54-13.93,7.86-12.69,9.86-22.27,23.52-30.32,37.11h0Z"/>
      <path d="M161.89,243.99c4.93-8.76,12.29-16.51,21.51-20.73.03-.01.05.03.02.04-8.72,4.96-16.45,12.17-21.53,20.68h0Z"/>
      <path d="M148.51,253.77c3.49-9.88,8.54-19.64,16.35-26.79.02-.02.06.01.04.04-7.12,7.72-12.71,17.09-16.39,26.75h0Z"/>
      <path d="M135.58,268.42c1.2-5.28,2.75-10.48,4.72-15.52,1.96-5.02,4.36-10.08,8.22-13.93.02-.02.06.01.04.03-6.71,8.47-10.09,19.3-12.97,29.42h0Z"/>
      <path d="M125.84,282.92c.8-5.03,1.79-10.03,3.06-14.97,1.26-4.92,2.71-9.92,5.44-14.26.02-.03.06,0,.04.03-4.32,9.17-6.48,19.48-8.54,29.2h0Z"/>
      <path d="M156.7,247.1c16.1-5.81,33.34-9.63,50.26-10.88-16.93,2.27-34.23,5.34-50.26,10.88h0Z"/>
      <path d="M140.3,262.49c8.69-4.07,17.84-8.8,27.52-9.7.03,0,.04.05,0,.05-9.55,1.8-18.79,5.85-27.52,9.65h0Z"/>
      <path d="M175.77,252.07c7.35-1.13,14.74-3.49,21.88-5.56.01,0,.03,0,.03.02-6.83,3-14.65,4.67-21.91,5.54h0Z"/>
      <path d="M128.43,278.71c2.65-2.52,5.39-4.95,8.25-7.26,2.85-2.25,5.85-4.72,9.37-5.73-6.41,3.38-12.14,8.48-17.62,12.99h0Z"/>
      <path d="M144.67,269.12c7.47-3.71,15.44-7.19,23.87-7.65.03,0,.03.05,0,.05-8.25,1.34-16.42,4.18-23.87,7.6h0Z"/>
      <path d="M217.57,207.79c.49-2.46.25-4.9-.29-7.31-.58-2.28-1.46-5.06.21-7.11,2.32-2.55,6.08-2.27,9.12-3.22,1.56-.42,3.13-1.09,4.09-2.42,2.71-3.88,5.74-8.36,5.27-13.29-.69-3.18-3.38-5.54-4.89-8.37-.83-1.43-1.33-3.21-.71-4.82,1.88-5.11,7.81-5.71,11.52-8.72,1.16-1.11,2.09-2.49,2.82-3.93.06-.13.28-.14.34,0,1.11,3.24-3.14,6.08-5.64,7.18-1.43.71-3,1.24-4.19,2.18-1.07,1.09-1.38,2.79-1.47,4.28-.17,2.45.98,4.57,2.17,6.63,1.74,3.58,2.94,7.87,1.58,11.78-1.41,4.29-3.08,10.18-8.33,11.03,0,0-4.76.68-4.76.68-1.48.28-3.29.39-4.23,1.7-1.01,1.29-1.39,2.8-1.29,4.43.13,3.11.84,6.67-1.3,9.32h0ZM217.6,207.75c1.95-2.69,1.26-6.17,1.05-9.27-.13-1.63.28-3.28,1.29-4.59,1-1.41,2.86-1.55,4.41-1.85,0,0,4.75-.72,4.75-.72,5.09-.92,6.52-6.54,7.92-10.83.55-1.47.65-3.06.5-4.63-.23-2.35-.98-4.66-2.03-6.78-1.21-2.08-2.39-4.36-2.2-6.85.11-1.62.44-3.39,1.63-4.59,1.14-.97,2.99-1.58,4.3-2.24,2.14-.99,4.24-2.3,5.29-4.46.33-.67.49-1.52.2-2.12l.35-.02c-.75,1.48-1.69,2.86-2.9,4.02-2.52,2.19-5.95,2.75-8.53,4.83-6.63,5.08-1.27,9.29,1.76,14.42,2.83,5.29-1.54,11.51-4.52,15.8-1,1.37-2.64,2.05-4.2,2.46-3.03.93-6.78.64-9.08,3.13-1.64,1.98-.78,4.76-.22,7.01.51,2.36.8,4.93.23,7.28h0Z"/>
      <path d="M84.96,257.69c-5.23,5.17-.98,8.75,2.78,12.89,1.12,1.3,2.41,2.64,2.66,4.42.1.9-.09,1.75-.21,2.6-.41,2.45-1.05,5.17-1.15,7.63-.19,1.74.89,3.18,1.86,4.57,1.01,1.38,2.12,2.7,3.27,3.97,0,0-.3.27-.3.27-1.77-2.29-3.68-4.9-3.71-7.92.3-2.08,1.12-4.03,1.53-6.09.36-1.6.69-3.26.53-4.85-.28-1.55-.89-3.18-1.68-4.58-.81-1.43-1.87-2.71-3-3.92-1.09-1.22-2.65-2.27-2.91-4.03-.23-1.66.09-3.35.35-4.96h0ZM84.98,257.65c-.15,1.69-.44,3.34-.15,4.97.28,1.67,1.8,2.64,2.92,3.85,1.17,1.19,2.26,2.48,3.13,3.93.86,1.48,1.48,3.02,1.82,4.72.18,1.73-.18,3.4-.54,5.03-.38,1.63-.85,3.23-1.3,4.83-.93,3.19,1.5,6.34,3.31,8.8.17.19-.13.47-.31.27-1.15-1.29-2.25-2.62-3.26-4.03-1-1.39-2.08-2.99-1.89-4.79.08-1.74.42-3.44.74-5.13l.48-2.54c.13-.84.32-1.71.23-2.53-.22-1.7-1.48-3.04-2.56-4.31-3.75-4.19-8.05-7.95-2.6-13.06h0Z"/>
      <path d="M161.82,19.55c2.26,1.68,3.53,4.73,3.01,7.55-.58,2.78-2.13,5.29-2.67,8.08-.5,1.87.07,3.79,1.59,5.01,8.54,7.06,6.67,7.82,3.02,17.11-.29.88-.47,1.81-.36,2.71,0,0-.37-.05-.37-.05.87-1.8,1.85-3.56,3.35-4.95,2.18-1.74,3.63-4.97,2.4-7.62-1.51-2.53-4.24-4.06-5.97-6.5-1.32-1.6-1.61-3.81-1.22-5.78.39-2.96,1.45-5.76,1.87-8.69.08-2.98-2-5.65-4.65-6.85h0ZM161.78,19.53c2.64,1,4.56,3.31,4.94,6.12-.02,4.15-2.31,8.19-1.74,12.37.72,2.9,3.31,4.71,5.34,6.77,1.5,1.33,2.75,3.28,2.36,5.39-.31,2.02-1.41,3.9-3,5.14-1.42,1.29-2.44,3.04-3.29,4.78-.86.75-.16-2.67.02-2.93,3.65-9.17,5.57-9.79-2.83-16.81-1.54-1.24-2.16-3.33-1.61-5.23,1.48-5.9,5.69-10.35-.19-15.61h0Z"/>
      <path d="M157.58,63.55c-.14,7.92-.34,16.16-2.91,23.7,1.54-7.75,2.56-15.93,2.91-23.7h0Z"/>
      <path d="M150.43,80.41c-2.73,5.46-5.08,11.26-5.94,17.32-.64,6.1-.1,12.26.56,18.34,0,.03-.04.04-.05,0-1.2-6.03-1.72-12.28-.91-18.4.98-6.04,3.42-12.1,6.33-17.27h0Z"/>
      <path d="M155.38,97.8c-2.01,5.68-4.38,13.88-6.88,19.25.82-3.29,2.04-6.52,3.24-9.71.04.02,3.56-9.74,3.64-9.55h0Z"/>
      <path d="M165.62,105.11c-3.54,5.05-6.94,10.25-10.27,15.41,1.05-2.9,2.96-5.47,4.73-7.99,1.8-2.45,3.67-5.22,5.54-7.42h0Z"/>
      <path d="M170.49,105.42c3.8-4.26,7.43-8.76,10.09-13.83.86-1.67,1.67-3.44,1.64-5.36,0-.03.04-.04.05,0,.79,5.93-7.87,15.2-11.78,19.2h0Z"/>
      <path d="M184.01,115.52c7.4-3.75,14.6-8.15,22.35-11.09-6.29,3.38-15.92,8.06-22.35,11.09h0Z"/>
      <path d="M183.02,111.33c-7.18,5.11-14.6,10.33-20.01,17.37-.01.03-.06,0-.04-.02,2.14-3.94,5.7-6.89,9.15-9.66,3.47-2.7,7.25-5.53,10.91-7.68h0Z"/>
      <path d="M193.1,115.56c-3.57,2.09-7,4.64-10.83,6.2,1.62-1.3,3.48-2.31,5.32-3.29-.02.06,5.63-3.13,5.51-2.91h0Z"/>
      <path d="M177.9,118.22c-5.09,3.36-10.25,6.81-14.62,11.05,1.62-2.62,4.33-4.43,6.82-6.18,2.51-1.67,5.25-3.56,7.8-4.87h0Z"/>
      <path d="M206.34,131.01c5.57.09,15.43.38,17.92,6.36.01.03-.03.05-.05.02-3.37-5.42-12.25-5.92-17.87-6.38h0Z"/>
      <path d="M195.18,131.06c-10.05.3-20.24,1.69-29.57,5.59-.03.01-.05-.03-.02-.04,4.43-2.5,9.47-3.73,14.46-4.5,4.96-.71,10.28-1.24,15.13-1.05h0Z"/>
      <path d="M165.38,139.88c7.48.28,14.99-.41,22.33-1.68-7.06,2.31-15.12,2.18-22.33,1.68h0Z"/>
      <path d="M207.65,134.23c-4.65.95-11.14,2.78-15.79,3.15,2.54-.85,5.22-1.32,7.87-1.79,0,.05,8.06-1.53,7.93-1.37h0Z"/>
      <path d="M201.16,156.11c6.33,3.1,19.67,9.88,19.46,17.95-.01.15-.2.24-.32.14-7.42-5.3-15.84-9.14-24.34-12.29,8.75,2.57,17.2,6.55,24.58,11.98,0,0-.32.14-.32.14.28-7.89-13.12-14.72-19.06-17.91h0Z"/>
      <path d="M201.95,169.24c5.49,2.81,11.17,5.49,17.15,6.94-3.11,0-6.12-1.34-8.93-2.61-2.75-1.31-5.79-2.75-8.22-4.34h0Z"/>
      <path d="M181.61,156.94c-6.04-2.53-14.76-5.64-20.46-8.64,6.03,2,14.71,6.05,20.46,8.64h0Z"/>
      <path d="M186.08,149.88c-7.81-1.62-15.78-2.69-23.73-2.93,3.95-.56,8.05-.06,11.98.54,3.89.64,8.09,1.34,11.74,2.39h0Z"/>
      <path d="M183.53,178.35c5.95,6.05,9.76,13.85,13.62,21.32-.9,2.77-6.45-2.96-7.41-4.02-6.1-6.58-11.47-14.21-16.24-21.62,3.49,4.81,7.12,9.78,10.77,14.44,1.45,1.77,10.52,13.61,12.55,11.23-3.54-6.89-7.71-15.46-13.29-21.34h0Z"/>
      <path d="M152.59,152.93c4.95,9.41,10.16,18.7,16.1,27.52,1.96,2.95,4.01,5.84,6.46,8.41.02.02-.01.06-.03.04-5.23-4.85-8.86-11.13-12.49-17.2-3.51-6.11-7.11-12.53-10.04-18.77h0Z"/>
      <path d="M181.2,194.29c3.93,3.42,10.47,8.67,15.77,5.43.02-.02.05.02.03.04-4.84,4.31-12.46-1.98-15.8-5.46h0Z"/>
      <path d="M152.59,187.82c.93,3.89,1.69,7.82,2.19,11.8.5,3.95.87,8.08-.22,11.97,0,.03-.05.02-.05-.01.93-7.9-.63-16.12-1.92-23.75h0Z"/>
      <path d="M144.08,182.22c2.64,9.66,5.35,19.84,8.5,29.35.01.03-.03.05-.05.02-2.2-4.62-3.45-9.61-4.78-14.53-1.25-4.89-2.69-10.05-3.68-14.84h0Z"/>
      <path d="M142.35,153.08c-.93,7.07-1.64,14.28-.97,21.37-1.06-3.43-.79-7.19-.51-10.73.34-3.51.73-7.34,1.48-10.64h0Z"/>
      <path d="M144.53,153.4c2.48,7.29,4.86,14.84,5.36,22.54-1.53-7.5-3.13-15.34-5.36-22.54h0Z"/>
      <path d="M147.22,153.54c3.34,8.25,7.15,16.66,8.14,25.56-2-8.66-5.06-17.37-8.14-25.56h0Z"/>
      <path d="M135.97,151.04c-2.82,7.48-6.32,18.2-9.6,25.34,2.28-7.42,6.72-18.16,9.6-25.34h0Z"/>
      <path d="M120.83,168.17c2.08-3.14,4.24-6.23,6.47-9.26,2.26-2.99,4.51-6.22,7.55-8.42-5.01,5.37-9.66,11.96-14.02,17.69h0Z"/>
      <path d="M115.8,176.37c-3.25,8.57-4.68,17.8-4.17,26.95,0,.03-.05.04-.05,0-1.45-9.05.79-18.75,4.22-26.96h0Z"/>
      <path d="M119.91,188.62c-1.41,5.47-2.65,11.52-6.39,15.9,2.84-4.92,4.8-10.6,6.39-15.9h0Z"/>
      <path d="M135.97,175.93c-1.86,4.7-3.94,9.32-6.26,13.82-2.39,4.37-4.81,9.24-9.1,12.02-.02.02-.05-.02-.03-.04.48-.42,1.01-.76,1.43-1.24,6.21-7.05,10.06-16.27,13.96-24.57h0Z"/>
      <path d="M127.31,187.47c3.04-4.78,6-10.21,8.82-15.14-.75,2.66-2.46,5.39-3.96,7.83-1.55,2.42-3.18,5.16-4.86,7.31h0Z"/>
      <path d="M100.96,157.07c4.33-2.27,8.71-4.45,13.14-6.53,4.43-2.04,8.91-4.2,13.74-5.12.03,0,.04.04,0,.05-9.23,3.05-18.19,7.64-26.88,11.61h0Z"/>
      <path d="M85.89,167.32c7.06-9.48,17.55-16.47,29-19.39.03,0,.04.04.01.05-11.11,3.75-21.82,10.12-29.01,19.34h0Z"/>
      <path d="M79.68,179.91c.2-3.16.76-6.92,3.28-9.08-1.66,2.76-2.84,6.01-3.28,9.08h0Z"/>
      <path d="M111.32,162.58c-4.54,3.72-9.15,7.36-13.84,10.89-4.71,3.48-9.41,7.15-14.83,9.47-.03.01-.05-.03-.02-.05,10.13-5.81,19.44-13.47,28.69-20.32h0Z"/>
      <path d="M114.39,159.79c4.4-3.83,10.3-9.64,14.98-12.96-2.25,2.39-4.82,4.54-7.36,6.65-.03-.04-7.65,6.52-7.62,6.31h0Z"/>
      <path d="M89.42,130.19c5.54.08,11.08.44,16.59,1.19,5.46.78,11.13,1.75,15.89,4.68.03.02,0,.06-.03.04-10.07-4.56-21.72-5.14-32.45-5.91h0Z"/>
      <path d="M72.26,132.29c-7.33,1.45-14.52,3.72-21.14,7.22-.02.02-.05-.02-.03-.04,6.12-4.3,14.04-6.06,21.17-7.18h0Z"/>
      <path d="M91.78,138.33c5.1-1.05,10.27-1.78,15.48-2.08,5.18-.31,10.56-.25,15.49,1.54.03,0,.01.06-.02.05-10.12-2.36-20.95-1.01-30.95.5h0Z"/>
      <path d="M67.26,145.42c14.1-1.11,28.2-2.33,42.25-3.92,4.68-.51,9.39-.96,13.97-2.04.03-.01.05.04.02.05-9.11,2.45-18.65,2.95-28.02,3.87-9.35.76-19,1.61-28.22,2.04h0Z"/>
      <path d="M80.66,147.98c-7.44.44-22.94,1.41-28.42-4.12-.14-.13-.31-.35-.24-.54,1.93-3.64,22.28-5.93,27.02-6.46-7.05,1.27-14.23,2.26-21.18,4.09-1.68.5-3.47.93-4.94,1.89-.24.15-.44.37-.48.53,1.49,2.04,4.37,2.86,6.79,3.49,6.98,1.6,14.5,1.37,21.46,1.11h0Z"/>
      <path d="M117.27,53.46c2.42,6.13,5.4,12.31,6.23,18.88-1.81-6.2-4.1-12.92-6.23-18.88h0Z"/>
      <path d="M118.01,70.93c1.04,8.02,2.6,15.98,4.82,23.76,2.3,7.7,5.03,15.53,10.05,21.89,0,0-.03,0-.04,0l-1.96-2.33c-1.73-2.45-3.28-5.19-4.49-7.94-4.68-11.15-7.11-23.53-8.39-35.37h0Z"/>
      <path d="M131.04,98.22c2.36,5.56,4.78,11.58,4.43,17.7-.69-6.01-2.31-12.17-4.43-17.7h0Z"/>
      <path d="M135.49,93.1c.83,4.59,2.03,9.32,1.62,13.99-.63-4.58-1.03-9.52-1.62-13.99h0Z"/>
      <path d="M108.49,91.7c6.4,9.22,13.14,18.42,17.57,28.8.01.03-.03.05-.05.02-5.21-9.92-11.44-19.59-17.52-28.82h0Z"/>
      <path d="M82.73,60.65c5.72,5.19,11.34,10.88,15.11,17.65-4.61-6.15-9.64-12.41-15.11-17.65h0Z"/>
      <path d="M91.13,73.44c2.92,4.06,7.47,9.51,9.86,13.81-1.9-2.08-3.52-4.45-5.11-6.79.04-.02-4.96-7.07-4.75-7.02h0Z"/>
      <path d="M112.04,104.24c4.56,5.52,9.8,10.7,13.39,16.9-3.83-4.83-9.66-12.05-13.39-16.9h0Z"/>
      <path d="M55,95.15c7.67-1.68,22.26,5.18,28.98,9.12,0,.01-.02.02-.03.01-4.15-1.86-9.89-4.55-14.06-6.19-4.69-1.67-9.97-3.73-14.89-2.94h0Z"/>
      <path d="M94.92,106.45c4.93,2.65,9.79,5.44,14.55,8.4,4.72,2.98,9.57,6,13.32,10.2.02.02-.02.06-.04.03-8.37-7.36-18.47-12.95-27.83-18.64h0Z"/>
      <path d="M109.54,120.48c4.18,2.19,8.89,3.9,12.36,7.14-4.05-2.36-8.42-4.84-12.36-7.14h0Z"/>
      <path d="M99.68,119.4c3.74,1.46,7.46,2.96,11.16,4.54,3.67,1.6,7.53,3.1,10.73,5.52-6.98-3.55-14.89-6.86-21.88-10.06h0Z"/>
      <path d="M64.09,106.09c6.05,4.8,12.91,8.39,19.88,11.64.03.01.01.06-.02.05-7.29-2.37-14.18-6.82-19.86-11.69h0Z"/>
      <path d="M200.34,60.86c-1.54,4.07-2.89,8.25-4.14,12.39-.05-2.19.82-4.34,1.58-6.37.8-1.97,1.61-4.27,2.56-6.02h0Z"/>
      <path d="M206.77,46.1c4.13,3.67,1.31,12.39-.88,16.58-.01.03-.06,0-.05-.02,1.37-4.94,4.85-12.24.93-16.57h0Z"/>
      <path d="M205.44,42.89c.19-1.13-.72-2.11-1.69-2.54-3.24-1.46-6.5,1.18-8.1,3.88-2.32,3.8-3.2,8.29-4.2,12.55.12-2.21.58-4.46,1.15-6.62,1.26-4.12,3.38-9,7.9-10.3,1.63-.38,3.59.02,4.61,1.43.33.46.5,1.05.38,1.61,0,.03-.05.02-.05-.01h0Z"/>
    </g>
  </g>
</svg>