<?xml version="1.0" encoding="UTF-8"?>
<svg id="Layer_1" data-name="Layer 1" xmlns="http://www.w3.org/2000/svg" xmlns:xlink="http://www.w3.org/1999/xlink" viewBox="0 0 289.13 430.87">
  <defs>
    <style>
      .cls-1, .cls-2 {
        fill: none;
      }

      .cls-3 {
        fill: #cea865;
      }

      .cls-3, .cls-4, .cls-5, .cls-6, .cls-7, .cls-8, .cls-2, .cls-9, .cls-10 {
        stroke: #000;
      }

      .cls-3, .cls-4, .cls-5, .cls-6, .cls-7, .cls-2, .cls-9, .cls-10 {
        stroke-width: .5px;
      }

      .cls-3, .cls-4, .cls-5, .cls-6, .cls-2, .cls-9, .cls-10 {
        stroke-linecap: round;
        stroke-linejoin: round;
      }

      .cls-11, .cls-6, .cls-8 {
        fill: #c1d5e8;
      }

      .cls-4 {
        fill: #ffeb99;
      }

      .cls-12 {
        font-family: Pretendard-Regular-KSCpc-EUC-H, Pretendard;
      }

      .cls-12, .cls-13 {
        font-size: 14px;
      }

      .cls-5 {
        fill: #94a9a4;
      }

      .cls-14 {
        clip-path: url(#clippath-1);
      }

      .cls-15 {
        clip-path: url(#clippath-2);
      }

      .cls-7 {
        fill: #f4f9fd;
      }

      .cls-7, .cls-8 {
        stroke-miterlimit: 10;
      }

      .cls-16 {
        fill: #fff;
      }

      .cls-13 {
        font-family: 'IM_FELL_Double_Pica_SC', 'IM FELL Double Pica SC';
      }

      .cls-9 {
        fill: #f9f1ac;
      }

      .cls-17 {
        letter-spacing: -.03em;
      }

      .cls-18 {
        clip-path: url(#clippath);
      }

      .cls-10 {
        fill: #c8cc8f;
      }

      .cls-19 {
        letter-spacing: 0em;
      }
    </style>
    <clipPath id="clippath">
      <rect class="cls-1" x="-295.11" y="35.22" width="261.08" height="360.43" rx="30" ry="30"/>
    </clipPath>
    <clipPath id="clippath-1">
      <rect class="cls-1" x="14.03" y="35.22" width="261.08" height="360.43" rx="30" ry="30"/>
    </clipPath>
    <clipPath id="clippath-2">
      <rect class="cls-1" x="332.42" y="35.22" width="261.08" height="360.43" rx="30" ry="30"/>
    </clipPath>
  </defs>
  <rect class="cls-8" x="0" y="0" width="289.13" height="430.87"/>
  <rect class="cls-7" x="14.03" y="35.22" width="261.08" height="360.43" rx="30" ry="30"/>
  <text class="cls-13" transform="translate(105.96 23.6)"><tspan class="cls-19" x="0" y="0">M</tspan><tspan class="cls-17" x="13.63" y="0">Y</tspan><tspan x="22.8" y="0">OSOTIS</tspan></text>
  <text class="cls-12" transform="translate(102.98 415.46)"><tspan x="0" y="0">물망초 · 상실감</tspan></text>
  <path class="cls-9" d="M16.59,5.73l.43.83c2.53,4.84,5.79,9.26,9.66,13.1l.05.05-.05.05c-3.87,3.85-7.13,8.27-9.66,13.1l-.43.83-.43-.83c-2.53-4.84-5.79-9.26-9.66-13.1l-.05-.05.05-.05c3.87-3.85,7.13-8.27,9.66-13.1l.43-.83Z"/>
  <path class="cls-9" d="M273.32,5.73l.43.83c2.53,4.84,5.79,9.26,9.66,13.1l.05.05-.05.05c-3.87,3.85-7.13,8.27-9.66,13.1l-.43.83-.43-.83c-2.53-4.84-5.79-9.26-9.66-13.1l-.05-.05.05-.05c3.87-3.85,7.13-8.27,9.66-13.1l.43-.83Z"/>
  <path class="cls-9" d="M204.35,11.12l.24.47c1.57,3,3.59,5.74,5.99,8.12h0s0,0,0,0c-2.4,2.38-4.42,5.12-5.99,8.12l-.24.47-.24-.47c-1.57-3-3.59-5.74-5.99-8.12h0s0,0,0,0c2.4-2.38,4.42-5.12,5.99-8.12l.24-.47Z"/>
  <path class="cls-9" d="M85.94,11.12l.24.47c1.57,3,3.59,5.74,5.99,8.12h0s0,0,0,0c-2.4,2.38-4.42,5.12-5.99,8.12l-.24.47-.24-.47c-1.57-3-3.59-5.74-5.99-8.12h0s0,0,0,0c2.4-2.38,4.42-5.12,5.99-8.12l.24-.47Z"/>
  <path class="cls-9" d="M16.59,397.53l.43.83c2.53,4.84,5.79,9.26,9.66,13.1l.05.05-.05.05c-3.87,3.85-7.13,8.27-9.66,13.1l-.43.83-.43-.83c-2.53-4.84-5.79-9.26-9.66-13.1l-.05-.05.05-.05c3.87-3.85,7.13-8.27,9.66-13.1l.43-.83Z"/>
  <path class="cls-9" d="M273.32,397.53l.43.83c2.53,4.84,5.79,9.26,9.66,13.1l.05.05-.05.05c-3.87,3.85-7.13,8.27-9.66,13.1l-.43.83-.43-.83c-2.53-4.84-5.79-9.26-9.66-13.1l-.05-.05.05-.05c3.87-3.85,7.13-8.27,9.66-13.1l.43-.83Z"/>
  <path class="cls-9" d="M201.2,402.92l.24.47c1.57,3,3.59,5.74,5.99,8.12h0s0,0,0,0c-2.4,2.38-4.42,5.12-5.99,8.12l-.24.47-.24-.47c-1.57-3-3.59-5.74-5.99-8.12h0s0,0,0,0c2.4-2.38,4.42-5.12,5.99-8.12l.24-.47Z"/>
  <path class="cls-9" d="M87.77,402.92l.24.47c1.57,3,3.59,5.74,5.99,8.12h0s0,0,0,0c-2.4,2.38-4.42,5.12-5.99,8.12l-.24.47-.24-.47c-1.57-3-3.59-5.74-5.99-8.12h0s0,0,0,0c2.4-2.38,4.42-5.12,5.99-8.12l.24-.47Z"/>
  <g class="cls-18">
    <g>
      <rect class="cls-16" x="-207.08" y="105.15" width="274.52" height="7.79" rx="3.89" ry="3.89"/>
      <g>
        <circle class="cls-16" cx="27.65" cy="103.65" r="2.51"/>
        <path class="cls-16" d="M-161.3,106.71H17.51v-1.71H-2.13l-6.02-3.32-6.71,1.13-24.73-.3s5.37-6.8,13.32-6.8,11.41,7.1,11.41,7.1c0,0,1.11-3.55,5.74-3.55s6.98,5.75,6.98,5.75h12.58"/>
      </g>
      <g>
        <line class="cls-2" x1="44.08" y1="112.54" x2="48.16" y2="112.54"/>
        <line class="cls-2" x1="52.29" y1="112.54" x2="66.02" y2="112.54"/>
        <line class="cls-2" x1="-20.28" y1="112.54" x2="40.17" y2="112.54"/>
        <path class="cls-2" d="M-39.58,102.64s5.37-6.8,13.32-6.8,11.41,7.1,11.41,7.1c0,0,1.11-3.55,5.74-3.55s6.98,5.75,6.98,5.75h12.58"/>
        <line class="cls-2" x1="13.23" y1="105.14" x2="17.51" y2="105.14"/>
        <circle class="cls-2" cx="27.65" cy="103.78" r="2.51"/>
      </g>
    </g>
  </g>
  <g class="cls-14">
    <g>
      <rect class="cls-16" x="67.63" y="115.3" width="273.51" height="17.97" rx="8.99" ry="8.99"/>
      <g>
        <path class="cls-16" d="M138.06,125.65c0-4.3,2.6-7.78,5.81-7.78,2.24,0,4.19,1.7,5.16,4.2"/>
        <path class="cls-16" d="M147.1,118.8c1.98-3.68,5.52-6.14,9.56-6.14,6.21,0,11.25,5.81,11.25,12.98"/>
        <path class="cls-16" d="M123.05,111.56c-1.47-2.64-4.28-4.43-7.52-4.43-4.74,0-8.59,3.85-8.59,8.59v5.05h195.4l-.21-6.77-18.8-2.26-9.19-14.17-19.5.7-12.8,8.81-9.58-9.51-7.34-2.4-8.85-1.11-12.16-15.64-12.52-1.87-13.47,12.15-7.87,8.51-12.55-5.41-6.34,1.08-7.62,4.62-19.03,6.88-1.47,7.16Z"/>
        <path class="cls-16" d="M152.1,98.24c-2.81-5.06-8.21-8.48-14.4-8.48-9.09,0-16.46,7.37-16.46,16.46v3.09"/>
        <path class="cls-16" d="M148.67,93.94c2.44-3.88,6.47-6.28,11.16-6.28,5.11,0,9.57,3.04,11.88,7.52v7.55"/>
        <path class="cls-16" d="M146.23,105.68c0-3.97,2.86-7.19,6.39-7.19s6.39,3.22,6.39,7.19"/>
        <path class="cls-16" d="M196.35,74.79c-21.19,0-24.64,20.39-24.64,20.39"/>
        <path class="cls-16" d="M196.66,74.79c21.19,0,24.64,20.39,24.64,20.39v4.72"/>
        <path class="cls-16" d="M221.38,94.81c2.06-2.81,5.78-4.68,10.02-4.68,6.49,0,11.75,4.37,11.75,9.77v8.62"/>
        <path class="cls-16" d="M243.15,108.52c0-8.95,8.99-16.21,20.09-16.21s20.09,7.26,20.09,16.21v5.61"/>
        <path class="cls-16" d="M283.33,114.01c0-3.82,4.21-6.91,9.4-6.91s9.4,3.1,9.4,6.91v2.4h21.04"/>
        <path class="cls-16" d="M199.07,112.03c0-2.67,2.17-4.84,4.84-4.84s4.84,2.17,4.84,4.84"/>
        <path class="cls-16" d="M225.66,114.19c1.11-1.5,2.98-2.49,5.11-2.49,3.4,0,6.16,2.53,6.16,5.65h14.2"/>
        <path class="cls-16" d="M204.9,107.29c1.78-4.65,6.28-7.96,11.56-7.96,6.83,0,12.37,5.54,12.37,12.37"/>
        <circle class="cls-16" cx="263.54" cy="117.58" r="2.75"/>
        <circle class="cls-16" cx="247.53" cy="82.24" r="2.75"/>
        <circle class="cls-16" cx="168.45" cy="79.8" r="2.75"/>
        <path class="cls-16" d="M199.56,82.24s13.27.89,13.27,12.95"/>
        <path class="cls-16" d="M273.13,101.38c2.16,2.01,4.09,5.05,4.6,9.61"/>
        <path class="cls-16" d="M265.82,97.59s1.74.28,3.9,1.4"/>
      </g>
      <polygon class="cls-16" points="118.11 112.03 124.25 105.68 132.38 106.37 124.54 115.3 118.11 112.03"/>
      <polygon class="cls-16" points="190.29 77.05 197.59 80.8 203.91 78.92 196.35 74.79 190.29 77.05"/>
      <g>
        <line class="cls-2" x1="99.11" y1="132.47" x2="294.8" y2="132.47"/>
        <line class="cls-2" x1="68.63" y1="124.84" x2="121.24" y2="124.84"/>
        <line class="cls-2" x1="167.9" y1="124.84" x2="271.63" y2="124.84"/>
        <line class="cls-2" x1="92.49" y1="115.3" x2="106.94" y2="115.3"/>
        <line class="cls-2" x1="278.96" y1="124.84" x2="284.58" y2="124.84"/>
        <line class="cls-2" x1="289.18" y1="124.84" x2="340.43" y2="124.84"/>
        <line class="cls-2" x1="126.84" y1="124.84" x2="137.93" y2="124.84"/>
        <path class="cls-2" d="M138.06,124.84c0-4.3,2.6-7.78,5.81-7.78,2.24,0,4.19,1.7,5.16,4.2"/>
        <path class="cls-2" d="M147.1,118c1.98-3.68,5.52-6.14,9.56-6.14,6.21,0,11.25,5.81,11.25,12.98"/>
        <path class="cls-2" d="M123.05,110.75c-1.47-2.64-4.28-4.43-7.52-4.43-4.74,0-8.59,3.85-8.59,8.59h0"/>
        <path class="cls-2" d="M152.1,97.43c-2.81-5.06-8.21-8.48-14.4-8.48-9.09,0-16.46,7.37-16.46,16.46v3.09"/>
        <path class="cls-2" d="M148.67,93.13c2.44-3.88,6.47-6.28,11.16-6.28,5.11,0,9.57,3.04,11.88,7.52v7.55"/>
        <path class="cls-2" d="M146.23,104.87c0-3.97,2.86-7.19,6.39-7.19s6.39,3.22,6.39,7.19"/>
        <path class="cls-2" d="M171.71,94.38s3.45-20.39,24.64-20.39"/>
        <path class="cls-2" d="M196.66,73.99c21.19,0,24.64,20.39,24.64,20.39v4.72"/>
        <path class="cls-2" d="M221.38,94c2.06-2.81,5.78-4.68,10.02-4.68,6.49,0,11.75,4.37,11.75,9.77v8.62"/>
        <path class="cls-2" d="M243.15,107.71c0-8.95,8.99-16.21,20.09-16.21s20.09,7.26,20.09,16.21v5.61"/>
        <path class="cls-2" d="M283.33,113.21c0-3.82,4.21-6.91,9.4-6.91s9.4,3.1,9.4,6.91v2.4h21.04"/>
        <path class="cls-2" d="M199.07,111.22c0-2.67,2.17-4.84,4.84-4.84s4.84,2.17,4.84,4.84"/>
        <path class="cls-2" d="M225.66,113.38c1.11-1.5,2.98-2.49,5.11-2.49,3.4,0,6.16,2.53,6.16,5.65h14.2"/>
        <path class="cls-2" d="M204.9,106.48c1.78-4.65,6.28-7.96,11.56-7.96,6.83,0,12.37,5.54,12.37,12.37"/>
        <circle class="cls-2" cx="263.54" cy="116.77" r="2.75"/>
        <circle class="cls-2" cx="247.53" cy="81.43" r="2.75"/>
        <circle class="cls-2" cx="168.45" cy="78.99" r="2.75"/>
        <path class="cls-2" d="M199.56,81.43s13.27.89,13.27,12.95"/>
        <path class="cls-2" d="M273.13,100.57c2.16,2.01,4.09,5.05,4.6,9.61"/>
        <path class="cls-2" d="M265.82,96.78s1.74.28,3.9,1.4"/>
      </g>
    </g>
    <g>
      <rect class="cls-16" x="-35.77" y="339.73" width="273.51" height="17.97" rx="8.99" ry="8.99"/>
      <g>
        <path class="cls-16" d="M34.66,350.08c0-4.3,2.6-7.78,5.81-7.78,2.24,0,4.19,1.7,5.16,4.2"/>
        <path class="cls-16" d="M43.7,343.24c1.98-3.68,5.52-6.14,9.56-6.14,6.21,0,11.25,5.81,11.25,12.98"/>
        <path class="cls-16" d="M19.65,335.99c-1.47-2.64-4.28-4.43-7.52-4.43-4.74,0-8.59,3.85-8.59,8.59v5.05h195.4l-.21-6.77-18.8-2.26-9.19-14.17-19.5.7-12.8,8.81-9.58-9.51-7.34-2.4-8.85-1.11-12.16-15.64-12.52-1.87-13.47,12.15-7.87,8.51-12.55-5.41-6.34,1.08-7.62,4.62-19.03,6.88-1.47,7.16Z"/>
        <path class="cls-16" d="M48.71,322.67c-2.81-5.06-8.21-8.48-14.4-8.48-9.09,0-16.46,7.37-16.46,16.46v3.09"/>
        <path class="cls-16" d="M45.27,318.37c2.44-3.88,6.47-6.28,11.16-6.28,5.11,0,9.57,3.04,11.88,7.52v7.55"/>
        <path class="cls-16" d="M42.83,330.11c0-3.97,2.86-7.19,6.39-7.19s6.39,3.22,6.39,7.19"/>
        <path class="cls-16" d="M92.95,299.23c-21.19,0-24.64,20.39-24.64,20.39"/>
        <path class="cls-16" d="M93.27,299.23c21.19,0,24.64,20.39,24.64,20.39v4.72"/>
        <path class="cls-16" d="M117.98,319.24c2.06-2.81,5.78-4.68,10.02-4.68,6.49,0,11.75,4.37,11.75,9.77v8.62"/>
        <path class="cls-16" d="M139.75,332.95c0-8.95,8.99-16.21,20.09-16.21s20.09,7.26,20.09,16.21v5.61"/>
        <path class="cls-16" d="M179.93,338.45c0-3.82,4.21-6.91,9.4-6.91s9.4,3.1,9.4,6.91v2.4h21.04"/>
        <path class="cls-16" d="M95.67,336.46c0-2.67,2.17-4.84,4.84-4.84s4.84,2.17,4.84,4.84"/>
        <path class="cls-16" d="M122.26,338.62c1.11-1.5,2.98-2.49,5.11-2.49,3.4,0,6.16,2.53,6.16,5.65h14.2"/>
        <path class="cls-16" d="M101.5,331.72c1.78-4.65,6.28-7.96,11.56-7.96,6.83,0,12.37,5.54,12.37,12.37"/>
        <circle class="cls-16" cx="160.14" cy="342.01" r="2.75"/>
        <circle class="cls-16" cx="144.13" cy="306.67" r="2.75"/>
        <circle class="cls-16" cx="65.05" cy="304.23" r="2.75"/>
        <path class="cls-16" d="M96.16,306.67s13.27.89,13.27,12.95"/>
        <path class="cls-16" d="M169.73,325.81c2.16,2.01,4.09,5.05,4.6,9.61"/>
        <path class="cls-16" d="M162.42,322.02s1.74.28,3.9,1.4"/>
      </g>
      <polygon class="cls-16" points="14.72 336.46 20.85 330.11 28.98 330.8 21.14 339.73 14.72 336.46"/>
      <polygon class="cls-16" points="86.89 301.48 94.19 305.23 100.51 303.36 92.95 299.23 86.89 301.48"/>
      <g>
        <line class="cls-2" x1="224.23" y1="340.03" x2="231.82" y2="340.03"/>
        <line class="cls-2" x1="-4.29" y1="356.9" x2="191.4" y2="356.9"/>
        <line class="cls-2" x1="-34.77" y1="349.28" x2="17.84" y2="349.28"/>
        <line class="cls-2" x1="64.51" y1="349.28" x2="168.24" y2="349.28"/>
        <line class="cls-2" x1="-10.9" y1="339.73" x2="3.54" y2="339.73"/>
        <line class="cls-2" x1="175.56" y1="349.28" x2="181.18" y2="349.28"/>
        <line class="cls-2" x1="185.78" y1="349.28" x2="237.03" y2="349.28"/>
        <line class="cls-2" x1="23.44" y1="349.28" x2="34.53" y2="349.28"/>
        <path class="cls-2" d="M34.66,349.28c0-4.3,2.6-7.78,5.81-7.78,2.24,0,4.19,1.7,5.16,4.2"/>
        <path class="cls-2" d="M43.7,342.43c1.98-3.68,5.52-6.14,9.56-6.14,6.21,0,11.25,5.81,11.25,12.98"/>
        <path class="cls-2" d="M19.65,335.19c-1.47-2.64-4.28-4.43-7.52-4.43-4.74,0-8.59,3.85-8.59,8.59h0"/>
        <path class="cls-2" d="M48.71,321.86c-2.81-5.06-8.21-8.48-14.4-8.48-9.09,0-16.46,7.37-16.46,16.46v3.09"/>
        <path class="cls-2" d="M45.27,317.56c2.44-3.88,6.47-6.28,11.16-6.28,5.11,0,9.57,3.04,11.88,7.52v7.55"/>
        <path class="cls-2" d="M42.83,329.3c0-3.97,2.86-7.19,6.39-7.19s6.39,3.22,6.39,7.19"/>
        <path class="cls-2" d="M68.31,318.81s3.45-20.39,24.64-20.39"/>
        <path class="cls-2" d="M93.27,298.42c21.19,0,24.64,20.39,24.64,20.39v4.72"/>
        <path class="cls-2" d="M117.98,318.43c2.06-2.81,5.78-4.68,10.02-4.68,6.49,0,11.75,4.37,11.75,9.77v8.62"/>
        <path class="cls-2" d="M139.75,332.15c0-8.95,8.99-16.21,20.09-16.21s20.09,7.26,20.09,16.21v5.61"/>
        <path class="cls-2" d="M179.93,337.64c0-3.82,4.21-6.91,9.4-6.91s9.4,3.1,9.4,6.91v2.4h21.04"/>
        <path class="cls-2" d="M95.67,335.65c0-2.67,2.17-4.84,4.84-4.84s4.84,2.17,4.84,4.84"/>
        <path class="cls-2" d="M122.26,337.81c1.11-1.5,2.98-2.49,5.11-2.49,3.4,0,6.16,2.53,6.16,5.65h14.2"/>
        <path class="cls-2" d="M101.5,330.91c1.78-4.65,6.28-7.96,11.56-7.96,6.83,0,12.37,5.54,12.37,12.37"/>
        <circle class="cls-2" cx="160.14" cy="341.2" r="2.75"/>
        <circle class="cls-2" cx="144.13" cy="305.86" r="2.75"/>
        <circle class="cls-2" cx="65.05" cy="303.43" r="2.75"/>
        <path class="cls-2" d="M96.16,305.86s13.27.89,13.27,12.95"/>
        <path class="cls-2" d="M169.73,325c2.16,2.01,4.09,5.05,4.6,9.61"/>
        <path class="cls-2" d="M162.42,321.21s1.74.28,3.9,1.4"/>
      </g>
    </g>
  </g>
  <g>
    <path class="cls-10" d="M150.7,367.04h0c-2.28,0-4.2-1.72-4.43-3.99-1.22-11.99-7.64-48.13-41.04-68.55-32.99-20.18-54.21-46.61-60.91-55.67-1.21-1.63-.41-3.97,1.54-4.51,13.81-3.79,61.84-9.23,93.01,84.82,0,0-7.73-73-13.96-85.24-6.23-12.24-22.12-33.28-22.12-33.28l3.22-3.01s19.75,25.55,20.61,28.99c0,0-6.44-58.83-5.15-66.78,0,0-15.25-22.55-30.28-27.91l6.39-3.98s22.39,17.11,24.4,20.28l-.79-48.14,5.22-1.86s1.61,59.91,1.81,71.78c.2,11.87,5.64,66.21,5.64,66.21l17.31-31.27s1.81-21.26,3.02-28.3c1.21-7.04-2.01-24.35-2.01-24.35l5.84.6s.4,34.41-2.42,44.48c0,0,31.19-68.43,36.83-70.24l4.43,3.42s-22.14,30.8-34.21,61.28l26.97-17.41,7.85,3.02s-38.64,13.48-51.72,49.31c0,0-8.05,17.71-7.65,30.99.4,13.28,5.64,47.5,5.64,47.5,0,0,7.25-42.06,26.77-62.99h7.25s-14.89,13.89-21.53,39.24c-6.64,25.36-10.67,49.21-5.23,68.22,0,0,.81-47.8,27.57-72.75,26.77-24.96,40.05-29.18,40.05-29.18,0,0,20.73-14.09,25.96-11.07,5.23,3.02-15.9,30.79-19.52,35.62-3.62,4.83-31.19,35.22-40.05,43.87-8.86,8.65-19.92,19.52-23.95,30.39-3.32,8.97-4.87,12.07-6,17.01-.46,2.02-2.27,3.45-4.34,3.45Z"/>
    <g>
      <path class="cls-6" d="M112.35,82.14s-15.73-6.99-6.34-15.73c0,0,2.55-2.92,8.42-1.63,0,0,13.03-4.78,11.14,6.96,0,0,8.16-11.44,14.82-4.08,6.67,7.36-.6,13.43-3.98,14.47,0,0,16.91,3.23,11.54,13.28-5.37,10.05-18.4,2.96-21.19-3.68,1.43.81-.65,18.96-13.53,14.82-11.23-3.61-6.27-15.22.7-18.6,0,0-11.93,9.68-19.19.84-1.18-1.44-1.63-3.34-1.18-5.14.96-3.8,4.67-9.14,18.78-1.52Z"/>
      <path class="cls-6" d="M79.03,112.56s-.5-11.92,7.58-9.69c0,0,10.93-9.81,13.54,7.33,0,0,17.64.75,9.81,14.9,0,0-4.6,2.24-5.34,4.72-.75,2.48-8.32,4.22-10.81,2.48,0,0,7.45,9.81-.75,15.28-8.2,5.47-15.65-3.35-15.65-3.35,0,0-10.68,5.22-13.04-1.99-2.36-7.2,3.48-12.67,5.84-14.53,0,0-10.06-2.98-7.82-9.07,2.24-6.09,5.71-10.68,16.64-6.09Z"/>
      <path class="cls-6" d="M136.53,130.32s-6.21-8.69-1.24-12.05c4.97-3.35,16.02-2.61,19.75,7.7,0,0,6.71-10.56,15.53-.25s.87,13.79-1.99,16.27c0,0,7.7,10.93,4.72,14.53-2.98,3.6-12.17,8.82-19.31,0,0,0-7.14,11.3-11.37,9.32-4.22-1.99-8.82-5.84-11.18-7.7-2.36-1.86-1.61-8.32,2.73-9.94,0,0-17.51-3.6-15.53-10.93,1.99-7.33,6.33-11.18,17.89-6.96Z"/>
      <path class="cls-6" d="M86.48,173.79s-4.72-12.79-14.9-5.34c-10.18,7.45-3.85,15.15,0,18.13,0,0-7.08,1.61-8.82,5.34,0,0-8.57.87-5.34,8.57,3.23,7.7,14.17,4.6,14.17,4.6,0,0-1.75,13.17,9.31,12.42,11.05-.75,11.43-10.18,10.93-12.54,0,0,13.04,5.09,17.02-5.34,3.97-10.43-9.19-14.41-9.19-14.41,0,0,16.02-8.32,5.09-13.41,0,0-10.31-12.54-18.26,1.99Z"/>
      <path class="cls-6" d="M210.56,158.52s-3.97-13.04-9.32-10.56c0,0-11.18-1.61-8.82,7.58,2.36,9.19,7.45,10.54,7.45,10.54,0,0-18.13-7.81-16.4,6.35,1.74,14.16,15.9,8.32,15.9,8.32,0,0-6.33,14.04,5.96,14.53,12.3.5,12.92-9.56,12.92-9.56,0,0,10.31,9.07,13.79.12,3.48-8.94-9.07-14.37-9.07-14.37,0,0,10.81-7.61,3.35-14.94-7.45-7.33-13.41-2.73-15.77,1.99Z"/>
      <path class="cls-6" d="M186.46,213.29s7.7-10.43,15.15-4.72c7.45,5.71,0,16.77,0,16.77,0,0,13.29,1.24,7.45,11.92,0,0,.99,13.54-15.77,5.71,0,0,1.49,13.04-7.95,12.92s-11.8-6.21-12.05-11.05c0,0-14.28.75-16.02-8.82s9.19-11.8,13.41-12.3c0,0-10.56-7.82-.37-17.51,0,0,9.19-5.71,16.15,7.08Z"/>
      <path class="cls-6" d="M188.68,116.49s-7,9.59,3.12,14.84c10.12,5.25,15.12-7.42,15.12-7.42,0,0,4.75,15.79,15.24,9.29,10.49-6.5-1.25-15.62-1.25-15.62,0,0,11.62.37,7-9.25-4.62-9.62-11.32-7.75-16.69-5.88,0,0-2.67-10.61-10.67-8.87-8,1.75-8.5,5.75-8.5,5.75,0,0-11.99-5.25-14.12,2.25-2.12,7.5,10.74,14.9,10.74,14.9Z"/>
      <path class="cls-6" d="M125.58,71.75s-.45,1.52-.98,3.19c0,0-.19,2.71-1.27,3.29"/>
      <path class="cls-6" d="M100.14,110.2s-14.44,14.82-14.77,16.18c-.34,1.36-4.94,15.58-7.96,17.85"/>
      <path class="cls-6" d="M70.21,127.71s12.45.14,15.16-1.33"/>
      <path class="cls-6" d="M99.64,185.22s-6.14-.5-10.32,3.12-7.24,6.9-7.24,6.9c0,0-6.09,6.6-10.51,9.86"/>
      <line class="cls-6" x1="71.57" y1="186.59" x2="77.11" y2="187.21"/>
      <path class="cls-6" d="M193.3,242.98s-3.53-3.17-5.23-6.65c-1.7-3.48-2.46-5.91-2.46-5.91,0,0,1.79-4.6,16.01-5.08"/>
      <path class="cls-6" d="M186.46,213.29s-2.55,7.5-1.28,10.47c1.27,2.97-4.5,4.33-4.5,4.33,0,0-4.11-2.45-9.99-4.37"/>
      <path class="cls-6" d="M188.68,116.49s8.79.06,12.96-.62c4.17-.68,2.7-2.25,2.7-2.25,0,0-11.51-4.66-12.29-14.27"/>
      <path class="cls-6" d="M220.92,117.58s-6.54-.7-10.48-.47"/>
      <g>
        <path class="cls-11" d="M162.4,234.02c4.17-1.41,8.38-2.72,12.62-3.91"/>
        <path d="M162.44,234.16c4.17-1.41,8.38-2.72,12.62-3.91.19-.05.11-.34-.08-.29-4.24,1.19-8.45,2.49-12.62,3.91-.18.06-.1.35.08.29h0Z"/>
      </g>
      <g>
        <path class="cls-11" d="M167.8,239.02c2.25-2.37,5.14-4.12,8.28-5.03"/>
        <path d="M167.91,239.13c1.75-1.83,3.88-3.3,6.22-4.28.65-.27,1.32-.51,2-.71.19-.05.11-.34-.08-.29-2.46.72-4.77,1.94-6.75,3.57-.56.47-1.1.97-1.6,1.49-.13.14.08.35.21.21h0Z"/>
      </g>
      <g>
        <path class="cls-11" d="M185.74,238.65c-.53,3.3.07,6.77,1.69,9.7"/>
        <path d="M185.59,238.61c-.53,3.35.07,6.84,1.71,9.82.09.17.35.02.26-.15-1.59-2.9-2.19-6.31-1.68-9.58.03-.19-.26-.27-.29-.08h0Z"/>
      </g>
      <g>
        <path class="cls-11" d="M181.39,238.65c-2.05,2.89-2.4,6.9-.88,10.11"/>
        <path d="M181.26,238.57c-1.62,2.3-2.19,5.26-1.63,8.01.16.78.41,1.53.75,2.25.08.17.34.02.26-.15-1.16-2.46-1.21-5.37-.23-7.9.28-.73.66-1.42,1.1-2.05.11-.16-.15-.31-.26-.15h0Z"/>
      </g>
      <g>
        <path class="cls-11" d="M194.68,233.79c1.4.85,2.46,2.14,3.67,3.24,1.21,1.1,2.71,2.06,4.35,1.99"/>
        <path d="M194.6,233.92c2.22,1.36,3.6,3.8,6.05,4.84.65.28,1.34.43,2.05.41.19,0,.19-.31,0-.3-2.67.1-4.49-2.25-6.26-3.89-.52-.49-1.08-.94-1.69-1.32-.16-.1-.32.16-.15.26h0Z"/>
      </g>
      <g>
        <path class="cls-11" d="M195.63,232.32c2.76.99,5.56,1.86,8.4,2.59"/>
        <path d="M195.59,232.47c2.76.99,5.56,1.86,8.4,2.59.19.05.27-.24.08-.29-2.84-.74-5.64-1.6-8.4-2.59-.18-.07-.26.22-.08.29h0Z"/>
      </g>
      <g>
        <path class="cls-11" d="M195.11,229.08c3.64.04,7.28.26,10.91.66"/>
        <path d="M195.11,229.23c3.64.04,7.28.26,10.91.66.19.02.19-.28,0-.3-3.62-.4-7.26-.62-10.91-.66-.19,0-.19.3,0,.3h0Z"/>
      </g>
      <g>
        <path class="cls-11" d="M191.27,222.06c2.47-1.94,4.7-4.19,6.6-6.69"/>
        <path d="M191.37,222.17c1.94-1.52,3.73-3.24,5.33-5.11.45-.52.88-1.06,1.3-1.61.12-.15-.14-.3-.26-.15-1.47,1.94-3.14,3.72-4.97,5.33-.52.46-1.06.9-1.61,1.33-.15.12.06.33.21.21h0Z"/>
      </g>
      <g>
        <path class="cls-11" d="M188.33,220.18c1.6-2.73,3.57-5.25,5.84-7.46"/>
        <path d="M188.46,220.26c1.24-2.12,2.7-4.11,4.36-5.93.47-.52.96-1.02,1.46-1.5.14-.13-.07-.35-.21-.21-1.77,1.72-3.36,3.63-4.73,5.69-.39.59-.77,1.19-1.13,1.8-.1.17.16.32.26.15h0Z"/>
      </g>
      <g>
        <path class="cls-11" d="M172.97,214.61c1.13,2.94,2.59,6.04,5.36,7.53"/>
        <path d="M172.83,214.65c.89,2.31,1.94,4.7,3.77,6.42.5.47,1.06.88,1.66,1.21.17.09.32-.17.15-.26-2.16-1.18-3.5-3.33-4.49-5.51-.29-.64-.55-1.28-.8-1.93-.07-.18-.36-.1-.29.08h0Z"/>
      </g>
      <g>
        <path class="cls-11" d="M178.01,211.21c1.95,2.1,3.12,4.91,3.23,7.77"/>
        <path d="M177.91,211.32c1.49,1.62,2.52,3.64,2.96,5.8.12.62.2,1.24.22,1.87,0,.19.31.19.3,0-.09-2.26-.82-4.49-2.08-6.37-.36-.54-.76-1.04-1.19-1.51-.13-.14-.34.07-.21.21h0Z"/>
      </g>
      <g>
        <path class="cls-11" d="M83.9,107.19c-.43,2.01-.85,4.17-.03,6.05"/>
        <path d="M83.76,107.15c-.43,2.02-.86,4.2-.01,6.17.08.18.33.02.26-.15-.81-1.88-.37-4.01.04-5.94.04-.19-.25-.27-.29-.08h0Z"/>
      </g>
      <g>
        <path class="cls-11" d="M88.08,108.01c-.05,2.31-.3,4.61-.75,6.87"/>
        <path d="M87.93,108.01c-.05,2.3-.3,4.58-.75,6.83-.04.19.25.27.29.08.45-2.28.71-4.59.76-6.91,0-.19-.3-.19-.3,0h0Z"/>
      </g>
      <g>
        <path class="cls-11" d="M92.76,106.57c.15,2.87-.38,5.77-1.53,8.41"/>
        <path d="M92.61,106.57c.14,2.85-.37,5.72-1.51,8.33-.08.18.18.33.26.15,1.16-2.67,1.69-5.58,1.55-8.48,0-.19-.31-.19-.3,0h0Z"/>
      </g>
      <g>
        <path class="cls-11" d="M69.55,116.37c2.59,1.99,5.81,3.17,9.08,3.33"/>
        <path d="M69.47,116.5c2.05,1.57,4.47,2.64,7,3.1.71.13,1.43.21,2.15.25.19,0,.19-.29,0-.3-3.25-.16-6.41-1.33-9-3.31-.15-.12-.3.14-.15.26h0Z"/>
      </g>
      <g>
        <path class="cls-11" d="M74.52,115.31c1.87.18,3.68.96,5.09,2.2"/>
        <path d="M74.52,115.46c1.42.14,2.8.63,4,1.41.34.22.67.47.98.74.14.13.36-.08.21-.21-1.13-.98-2.49-1.69-3.94-2.03-.41-.1-.83-.16-1.25-.21-.19-.02-.19.28,0,.3h0Z"/>
      </g>
      <g>
        <path class="cls-11" d="M66.87,121.45c1.59.69,3.2,1.39,4.91,1.69,2.2.38,4.45.08,6.65-.3"/>
        <path d="M66.79,121.58c1.8.78,3.62,1.56,5.59,1.8s4.08-.05,6.08-.4c.19-.03.11-.32-.08-.29-1.94.34-3.92.61-5.89.4s-3.77-.99-5.55-1.77c-.18-.08-.33.18-.15.26h0Z"/>
      </g>
      <g>
        <path class="cls-11" d="M68.41,137.4c3.64-2,6.98-4.57,9.85-7.57"/>
        <path d="M68.49,137.53c2.84-1.57,5.5-3.47,7.9-5.66.68-.62,1.34-1.27,1.98-1.94.13-.14-.08-.35-.21-.21-2.24,2.34-4.75,4.41-7.47,6.16-.77.49-1.55.95-2.35,1.39-.17.09-.02.35.15.26h0Z"/>
      </g>
      <g>
        <path class="cls-11" d="M71.46,140.56c3.56-3.1,7.01-6.33,10.34-9.67"/>
        <path d="M71.56,140.67c2.77-2.42,5.47-4.91,8.1-7.47.75-.73,1.5-1.47,2.24-2.21.14-.14-.08-.35-.21-.21-2.59,2.6-5.26,5.13-7.99,7.59-.78.7-1.56,1.4-2.35,2.08-.15.13.07.34.21.21h0Z"/>
      </g>
      <g>
        <path class="cls-11" d="M86.49,133c1.37,1.39,1.76,3.45,2.04,5.38.3,2.12.55,4.25.74,6.39"/>
        <path d="M86.38,133.11c1.28,1.32,1.68,3.19,1.94,4.95.34,2.23.59,4.47.79,6.71.02.19.32.19.3,0-.21-2.3-.47-4.6-.82-6.88-.27-1.79-.71-3.65-2.01-4.99-.13-.14-.35.07-.21.21h0Z"/>
      </g>
      <g>
        <path class="cls-11" d="M90.72,135.54c1.33,2.41,2.08,5.14,2.17,7.9"/>
        <path d="M90.59,135.61c1.32,2.4,2.06,5.09,2.15,7.82,0,.19.31.19.3,0-.09-2.79-.85-5.53-2.19-7.97-.09-.17-.35-.02-.26.15h0Z"/>
      </g>
      <g>
        <path class="cls-11" d="M84.19,134.91c-.58,2.6-.47,5.35.31,7.9"/>
        <path d="M84.05,134.88c-.58,2.63-.48,5.4.31,7.98.06.18.35.11.29-.08-.77-2.53-.88-5.23-.31-7.82.04-.19-.25-.27-.29-.08h0Z"/>
      </g>
      <g>
        <path class="cls-11" d="M93.49,123.13c3.13-1.15,6.34-2.1,9.59-2.85"/>
        <path d="M93.53,123.28c3.13-1.15,6.34-2.1,9.59-2.85.19-.04.11-.33-.08-.29-3.25.74-6.46,1.7-9.59,2.85-.18.07-.1.36.08.29h0Z"/>
      </g>
      <g>
        <path class="cls-11" d="M94.84,119.59c2.99-1.72,6.42-2.66,9.87-2.71"/>
        <path d="M94.91,119.72c2.98-1.7,6.37-2.63,9.8-2.69.19,0,.19-.3,0-.3-3.48.06-6.92,1-9.95,2.73-.17.1-.02.36.15.26h0Z"/>
      </g>
      <g>
        <path class="cls-11" d="M93.21,127.36c3.69-.31,7.3-1.57,10.37-3.64"/>
        <path d="M93.21,127.51c3.72-.32,7.34-1.58,10.45-3.66.16-.11,0-.37-.15-.26-3.07,2.04-6.62,3.3-10.3,3.61-.19.02-.19.32,0,.3h0Z"/>
      </g>
      <g>
        <path class="cls-11" d="M117.3,89.59c-2.27,2.37-4.26,5.01-5.93,7.83"/>
        <path d="M117.2,89.48c-1.77,1.86-3.37,3.87-4.79,6-.4.61-.79,1.23-1.16,1.86-.1.17.16.32.26.15,1.3-2.19,2.79-4.27,4.45-6.2.47-.55.95-1.08,1.45-1.6.13-.14-.08-.35-.21-.21h0Z"/>
      </g>
      <g>
        <path class="cls-11" d="M119.62,91.99c-.87,1.77-1.9,3.46-3.09,5.03"/>
        <path d="M119.49,91.92c-.87,1.77-1.9,3.45-3.09,5.03-.12.15.14.3.26.15,1.18-1.58,2.22-3.26,3.09-5.03.08-.17-.17-.32-.26-.15h0Z"/>
      </g>
      <g>
        <path class="cls-11" d="M121.86,91.88c-.54,4.03-2.12,7.91-4.56,11.17"/>
        <path d="M121.71,91.84c-.54,4.03-2.11,7.87-4.54,11.13-.12.15.14.3.26.15,2.44-3.27,4.02-7.15,4.57-11.2.03-.19-.26-.27-.29-.08h0Z"/>
      </g>
      <g>
        <path class="cls-11" d="M97.73,85.85c4.16-.43,8.34-.63,12.53-.6"/>
        <path d="M97.73,86c4.16-.43,8.34-.63,12.53-.6.19,0,.19-.3,0-.3-4.18-.03-8.37.17-12.53.6-.19.02-.19.32,0,.3h0Z"/>
      </g>
      <g>
        <path class="cls-11" d="M102.76,82.47c3.2.08,6.39.34,9.55.79"/>
        <path d="M102.76,82.62c3.18.08,6.36.34,9.51.79.19.03.27-.26.08-.29-3.18-.45-6.38-.72-9.59-.8-.19,0-.19.3,0,.3h0Z"/>
      </g>
      <g>
        <path class="cls-11" d="M103.58,88.54c1.63.02,3.27.03,4.88-.19s3.22-.69,4.59-1.57"/>
        <path d="M103.58,88.69c3.25.03,6.72.03,9.55-1.78.16-.1.01-.36-.15-.26-2.79,1.78-6.2,1.77-9.4,1.74-.19,0-.19.3,0,.3h0Z"/>
      </g>
      <g>
        <path class="cls-11" d="M108.07,72.92c2.07,1.81,4.32,3.42,6.7,4.79"/>
        <path d="M107.96,73.02c1.62,1.41,3.34,2.7,5.15,3.86.52.33,1.05.65,1.58.96.17.1.32-.16.15-.26-1.85-1.07-3.61-2.27-5.28-3.6-.47-.38-.94-.77-1.39-1.17-.14-.13-.36.09-.21.21h0Z"/>
      </g>
      <g>
        <path class="cls-11" d="M110.36,67.75c2.3,2.91,4.77,5.7,7.37,8.34"/>
        <path d="M110.25,67.85c1.8,2.27,3.69,4.47,5.67,6.58.56.59,1.13,1.18,1.7,1.76.14.14.35-.07.21-.21-2.03-2.06-3.98-4.21-5.83-6.44-.52-.63-1.04-1.26-1.54-1.9-.12-.15-.33.06-.21.21h0Z"/>
      </g>
      <g>
        <path class="cls-11" d="M117.49,68.52c1.63,1.92,2.67,4.33,2.95,6.83"/>
        <path d="M117.38,68.62c1.24,1.47,2.14,3.23,2.61,5.11.13.53.23,1.07.29,1.62.02.19.32.19.3,0-.23-1.98-.9-3.9-1.98-5.57-.31-.48-.64-.93-1.01-1.36-.12-.15-.34.07-.21.21h0Z"/>
      </g>
      <g>
        <path class="cls-11" d="M128.2,75.74c1.61-2.47,3.6-4.68,5.9-6.53"/>
        <path d="M128.33,75.82c1.25-1.92,2.73-3.68,4.41-5.24.47-.44.96-.86,1.47-1.27.15-.12-.06-.33-.21-.21-1.79,1.45-3.4,3.12-4.79,4.95-.4.52-.77,1.06-1.13,1.61-.11.16.15.31.26.15h0Z"/>
      </g>
      <g>
        <path class="cls-11" d="M132.8,75.19c1.73-1.28,3.17-2.96,4.18-4.86"/>
        <path d="M132.88,75.32c1.37-1.01,2.55-2.26,3.49-3.67.27-.4.51-.81.74-1.24.09-.17-.17-.32-.26-.15-.78,1.46-1.8,2.79-3.02,3.9-.35.32-.72.62-1.1.91-.15.11,0,.37.15.26h0Z"/>
      </g>
      <g>
        <path class="cls-11" d="M131.59,80.35c1.33-.73,2.66-1.47,3.86-2.4s2.26-2.07,2.91-3.44"/>
        <path d="M131.67,80.48c2.1-1.16,4.28-2.37,5.8-4.28.4-.5.74-1.04,1.02-1.62.08-.17-.18-.33-.26-.15-1.01,2.12-2.92,3.59-4.89,4.76-.6.36-1.21.69-1.82,1.03-.17.09-.02.35.15.26h0Z"/>
      </g>
      <g>
        <path class="cls-11" d="M131.38,90.37c2.18,2.2,5.01,3.75,8.03,4.4"/>
        <path d="M131.28,90.47c1.71,1.72,3.8,3.05,6.09,3.86.66.23,1.33.42,2.01.57.19.04.27-.25.08-.29-2.34-.51-4.56-1.54-6.46-3.01-.53-.41-1.04-.86-1.51-1.34-.14-.14-.35.07-.21.21h0Z"/>
      </g>
      <g>
        <path class="cls-11" d="M136.14,87.55c3.27.89,6.38,2.37,9.13,4.34"/>
        <path d="M136.1,87.7c3.26.89,6.34,2.36,9.09,4.32.16.11.31-.15.15-.26-2.77-1.98-5.88-3.45-9.17-4.35-.19-.05-.27.24-.08.29h0Z"/>
      </g>
      <g>
        <path class="cls-11" d="M143.61,123.11c.47,3.5,1.64,6.9,3.41,9.96"/>
        <path d="M143.47,123.15c.48,3.52,1.65,6.92,3.43,9.99.1.17.36.02.26-.15-1.77-3.05-2.92-6.43-3.4-9.92-.03-.19-.32-.11-.29.08h0Z"/>
      </g>
      <g>
        <path class="cls-11" d="M147.23,121.49c1.76,2.13,2.88,4.79,3.19,7.53"/>
        <path d="M147.13,121.6c1.73,2.11,2.84,4.72,3.15,7.43.02.19.32.19.3,0-.25-2.17-.98-4.28-2.15-6.14-.33-.52-.69-1.03-1.09-1.5-.12-.15-.33.06-.21.21h0Z"/>
      </g>
      <g>
        <path class="cls-11" d="M138.6,121.13c.53,3.27,1.88,6.41,3.9,9.03"/>
        <path d="M138.46,121.17c.42,2.56,1.33,5.03,2.67,7.24.38.63.8,1.24,1.25,1.82.12.15.38,0,.26-.15-2.01-2.63-3.36-5.73-3.89-8.99-.03-.19-.32-.11-.29.08h0Z"/>
      </g>
      <g>
        <path class="cls-11" d="M125.41,136.7c4.75,1.19,9.56,2.14,14.4,2.85"/>
        <path d="M125.37,136.85c4.75,1.19,9.56,2.14,14.4,2.85.19.03.27-.26.08-.29-4.85-.71-9.65-1.66-14.4-2.85-.19-.05-.27.24-.08.29h0Z"/>
      </g>
      <g>
        <path class="cls-11" d="M131.19,134.1c2.23.09,4.44.68,6.41,1.72"/>
        <path d="M131.19,134.25c2.21.09,4.38.67,6.34,1.7.17.09.32-.17.15-.26-2-1.05-4.23-1.64-6.49-1.74-.19,0-.19.29,0,.3h0Z"/>
      </g>
      <g>
        <path class="cls-11" d="M128.22,142.63c3.31.58,6.76.37,9.97-.62"/>
        <path d="M128.18,142.78c3.35.58,6.8.37,10.05-.62.18-.06.11-.35-.08-.29-3.2.97-6.6,1.19-9.89.62-.19-.03-.27.26-.08.29h0Z"/>
      </g>
      <g>
        <path class="cls-11" d="M136.52,155.98c1.6-2.58,3.47-4.99,5.57-7.17"/>
        <path d="M136.65,156.05c1.24-2,2.64-3.89,4.18-5.66.44-.51.9-1,1.36-1.48.13-.14-.08-.35-.21-.21-1.65,1.71-3.15,3.56-4.49,5.52-.38.55-.75,1.12-1.1,1.69-.1.16.16.32.26.15h0Z"/>
      </g>
      <g>
        <path class="cls-11" d="M146.89,149.96c-.77,3.67-1.62,7.5-4.04,10.36"/>
        <path d="M146.75,149.92c-.59,2.81-1.2,5.7-2.6,8.24-.4.73-.87,1.42-1.4,2.06-.12.15.09.36.21.21,1.9-2.27,2.85-5.12,3.53-7.96.2-.82.37-1.65.54-2.47.04-.19-.25-.27-.29-.08h0Z"/>
      </g>
      <g>
        <path class="cls-11" d="M158.07,147.42c1.72-.11,3.44.36,4.99,1.14s2.92,1.83,4.24,2.94"/>
        <path d="M158.07,147.57c3.52-.21,6.55,1.88,9.13,4.03.15.12.36-.09.21-.21-2.63-2.21-5.74-4.34-9.34-4.12-.19.01-.19.31,0,.3h0Z"/>
      </g>
      <g>
        <path class="cls-11" d="M158.2,151.47c1.46.97,2.92,1.93,4.41,2.86,1.85,1.15,3.92,2.27,6.08,2.03"/>
        <path d="M158.12,151.6c1.74,1.15,3.48,2.34,5.28,3.38,1.6.93,3.39,1.72,5.28,1.53.19-.02.19-.32,0-.3-1.91.19-3.69-.64-5.29-1.58-1.75-1.03-3.43-2.17-5.12-3.29-.16-.11-.31.15-.15.26h0Z"/>
      </g>
      <g>
        <path class="cls-11" d="M157.05,137.45c3.05-1.6,5.82-3.71,8.17-6.22"/>
        <path d="M157.12,137.58c2.38-1.25,4.59-2.81,6.57-4.63.56-.52,1.11-1.06,1.63-1.62.13-.14-.08-.35-.21-.21-1.83,1.95-3.91,3.66-6.18,5.08-.64.4-1.3.77-1.96,1.12-.17.09-.02.35.15.26h0Z"/>
      </g>
      <g>
        <path class="cls-11" d="M153.87,136.45c1.9-3.01,4.88-5.13,7.79-7.17"/>
        <path d="M154,136.52c1.48-2.33,3.61-4.14,5.82-5.75.63-.46,1.27-.92,1.91-1.37.16-.11,0-.37-.15-.26-2.28,1.61-4.6,3.24-6.44,5.36-.51.59-.98,1.21-1.4,1.87-.1.16.16.31.26.15h0Z"/>
      </g>
      <g>
        <path class="cls-11" d="M158.93,139.64c4.6-1.46,8.42-4.65,12.11-7.77"/>
        <path d="M158.97,139.78c3.62-1.16,6.76-3.36,9.68-5.73.84-.68,1.67-1.38,2.5-2.08.15-.12-.07-.34-.21-.21-2.84,2.4-5.72,4.83-9.07,6.51-.96.48-1.96.89-2.98,1.22-.18.06-.1.35.08.29h0Z"/>
      </g>
      <g>
        <path class="cls-11" d="M143.63,151.71c-.85,2.87-2.92,5.18-4.94,7.4"/>
        <path d="M143.49,151.67c-.67,2.23-2.08,4.12-3.58,5.86-.43.5-.87.98-1.32,1.47-.13.14.08.36.21.21,1.58-1.73,3.18-3.51,4.24-5.62.3-.59.55-1.21.74-1.84.06-.19-.23-.26-.29-.08h0Z"/>
      </g>
      <g>
        <path class="cls-11" d="M190.91,121.68c2.45-1.52,5.04-2.82,7.72-3.87"/>
        <path d="M190.98,121.81c2.44-1.51,5.01-2.8,7.68-3.86.18-.07.1-.36-.08-.29-2.69,1.06-5.29,2.36-7.75,3.89-.16.1-.01.36.15.26h0Z"/>
      </g>
      <g>
        <path class="cls-11" d="M199.74,119.56l-5.76,5.7"/>
        <path d="M199.63,119.45c-1.5,1.48-3,2.96-4.5,4.44l-1.27,1.25c-.14.14.07.35.21.21,1.5-1.48,3-2.96,4.5-4.44l1.27-1.25c.14-.14-.07-.35-.21-.21h0Z"/>
      </g>
      <g>
        <path class="cls-11" d="M201.94,121.03c-.87,2.26-2.01,4.42-3.39,6.42"/>
        <path d="M201.79,120.99c-.87,2.25-2,4.39-3.37,6.38-.11.16.15.31.26.15,1.38-2.01,2.52-4.18,3.4-6.45.07-.18-.22-.26-.29-.08h0Z"/>
      </g>
      <g>
        <path class="cls-11" d="M210.85,123.35c1.59,2.23,3.83,3.98,6.38,4.98"/>
        <path d="M210.72,123.43c1.26,1.76,2.91,3.23,4.81,4.27.54.29,1.09.55,1.66.78.18.07.26-.22.08-.29-1.95-.77-3.72-1.98-5.15-3.51-.41-.44-.79-.91-1.14-1.4-.11-.16-.37,0-.26.15h0Z"/>
      </g>
      <g>
        <path class="cls-11" d="M214.19,120.9c1.71.43,3.24,1.42,4.5,2.65s2.27,2.7,3.18,4.2"/>
        <path d="M214.15,121.04c2.65.68,4.72,2.61,6.28,4.77.47.65.9,1.33,1.32,2.01.1.17.36.01.26-.15-1.44-2.39-3.19-4.72-5.68-6.09-.66-.36-1.37-.65-2.1-.83-.19-.05-.27.24-.08.29h0Z"/>
      </g>
      <g>
        <path class="cls-11" d="M213.5,113.81c2.68-.59,5.27-1.6,7.65-2.99"/>
        <path d="M213.54,113.96c2.7-.6,5.3-1.61,7.68-3,.17-.1.02-.36-.15-.26-2.37,1.38-4.94,2.38-7.61,2.97-.19.04-.11.33.08.29h0Z"/>
      </g>
      <g>
        <path class="cls-11" d="M212.45,109.64c2.82-1.85,6.26-2.75,9.62-2.51"/>
        <path d="M212.52,109.77c2.82-1.83,6.19-2.71,9.55-2.49.19.01.19-.29,0-.3-3.4-.22-6.84.68-9.7,2.54-.16.1-.01.36.15.26h0Z"/>
      </g>
      <g>
        <path class="cls-11" d="M197.95,103.19c.71,1.85,1.88,3.52,3.37,4.82"/>
        <path d="M197.81,103.23c.57,1.46,1.4,2.81,2.46,3.96.3.33.62.63.95.92.14.13.36-.08.21-.21-1.14-1-2.09-2.21-2.8-3.57-.2-.39-.38-.78-.54-1.19-.07-.18-.36-.1-.29.08h0Z"/>
      </g>
      <g>
        <path class="cls-11" d="M199.81,97.68c.91,3.03,2.23,5.94,3.9,8.63"/>
        <path d="M199.67,97.72c.92,3.05,2.24,5.97,3.92,8.67.1.16.36.01.26-.15-1.67-2.68-2.97-5.57-3.89-8.6-.06-.18-.35-.11-.29.08h0Z"/>
      </g>
      <g>
        <path class="cls-11" d="M203.96,98.76c1.47,2.08,2.27,4.64,2.22,7.2"/>
        <path d="M203.83,98.84c1.46,2.07,2.24,4.58,2.2,7.12,0,.19.3.19.3,0,.04-2.58-.76-5.16-2.24-7.27-.11-.16-.37,0-.26.15h0Z"/>
      </g>
      <g>
        <path class="cls-11" d="M185.99,106c3.03,2.69,6.86,4.26,10.61,5.78"/>
        <path d="M185.89,106.1c2.39,2.11,5.27,3.55,8.18,4.79.83.35,1.66.69,2.49,1.03.18.07.26-.22.08-.29-2.89-1.18-5.81-2.37-8.41-4.11-.75-.5-1.46-1.04-2.13-1.64-.14-.13-.36.08-.21.21h0Z"/>
      </g>
      <g>
        <path class="cls-11" d="M188.11,111.98c3.5,1,7.13,2.01,10.73,1.47"/>
        <path d="M188.07,112.13c3.5,1,7.13,2,10.81,1.47.19-.03.11-.32-.08-.29-3.61.52-7.2-.49-10.65-1.47-.19-.05-.27.24-.08.29h0Z"/>
      </g>
      <g>
        <path class="cls-11" d="M185.71,100.91c2.67,2.18,5.62,4.01,8.75,5.43"/>
        <path d="M185.61,101.02c2.08,1.69,4.32,3.18,6.69,4.43.69.36,1.38.7,2.09,1.02.17.08.33-.18.15-.26-2.42-1.1-4.72-2.44-6.88-3.99-.63-.45-1.24-.93-1.85-1.42-.15-.12-.36.09-.21.21h0Z"/>
      </g>
      <g>
        <path class="cls-11" d="M207.18,179.72c-1.43,2.23-2.39,4.76-2.8,7.37"/>
        <path d="M207.05,179.64c-1.43,2.24-2.4,4.78-2.81,7.41-.03.19.26.27.29.08.41-2.61,1.36-5.11,2.78-7.34.1-.16-.16-.31-.26-.15h0Z"/>
      </g>
      <g>
        <path class="cls-11" d="M211.49,180.98c.87,3.02,1.3,6.18,1.27,9.32"/>
        <path d="M211.35,181.02c.87,3.02,1.29,6.14,1.26,9.28,0,.19.3.19.3,0,.03-3.16-.4-6.32-1.27-9.36-.05-.19-.34-.11-.29.08h0Z"/>
      </g>
      <g>
        <path class="cls-11" d="M217.94,181.03c2.12,2.56,5.03,4.45,8.23,5.34"/>
        <path d="M217.84,181.13c1.67,2.01,3.82,3.61,6.22,4.64.67.29,1.36.53,2.07.73.19.05.27-.24.08-.29-2.47-.69-4.76-1.98-6.65-3.71-.54-.49-1.04-1.03-1.51-1.59-.12-.15-.33.06-.21.21h0Z"/>
      </g>
      <g>
        <path class="cls-11" d="M220.02,176.42c2.3,1.52,4.46,3.24,6.45,5.15"/>
        <path d="M219.94,176.55c1.78,1.18,3.49,2.48,5.09,3.9.45.4.9.81,1.33,1.23.14.13.35-.08.21-.21-1.56-1.49-3.22-2.87-4.97-4.13-.5-.36-1.01-.71-1.52-1.05-.16-.11-.31.15-.15.26h0Z"/>
      </g>
      <g>
        <path class="cls-11" d="M217.83,170.18c2.18-1.08,4.53-2.32,5.53-4.54"/>
        <path d="M217.91,170.31c1.71-.84,3.51-1.76,4.74-3.26.34-.41.62-.86.84-1.34.08-.17-.18-.33-.26-.15-.79,1.74-2.41,2.86-4.03,3.75-.47.26-.96.5-1.44.74-.17.09-.02.34.15.26h0Z"/>
      </g>
      <g>
        <path class="cls-11" d="M215.27,166.11c2.12-2.43,4.66-4.49,7.47-6.06"/>
        <path d="M215.37,166.22c1.65-1.88,3.54-3.55,5.63-4.93.59-.39,1.2-.76,1.82-1.11.17-.09.02-.35-.15-.26-2.2,1.23-4.23,2.75-6.02,4.51-.51.5-1.01,1.03-1.48,1.57-.13.14.08.36.21.21h0Z"/>
      </g>
      <g>
        <path class="cls-11" d="M214.18,162.33c1.07-1.8,2.57-3.34,4.34-4.46"/>
        <path d="M214.31,162.41c.83-1.39,1.91-2.62,3.18-3.62.36-.28.73-.55,1.11-.79.16-.1.01-.36-.15-.26-1.4.89-2.62,2.03-3.62,3.35-.28.37-.54.76-.78,1.17-.1.17.16.32.26.15h0Z"/>
      </g>
      <g>
        <path class="cls-11" d="M197.8,154.17c1.22,3.21,3.02,6.2,5.27,8.79"/>
        <path d="M197.66,154.21c.96,2.53,2.27,4.92,3.89,7.09.45.61.93,1.19,1.42,1.77.13.15.34-.07.21-.21-1.73-1.99-3.19-4.22-4.33-6.6-.33-.69-.63-1.4-.91-2.12-.07-.18-.36-.1-.29.08h0Z"/>
      </g>
      <g>
        <path class="cls-11" d="M203.77,155.85c1.02,2.07,2.04,4.13,3.05,6.2"/>
        <path d="M203.65,155.92c1.02,2.07,2.04,4.13,3.05,6.2.09.17.34.02.26-.15-1.02-2.07-2.04-4.13-3.05-6.2-.09-.17-.34-.02-.26.15h0Z"/>
      </g>
      <g>
        <path class="cls-11" d="M190.17,169.49c2.94-.04,5.88-.03,8.81.03"/>
        <path d="M190.17,169.64c2.94-.04,5.88-.03,8.81.03.19,0,.19-.3,0-.3-2.94-.06-5.88-.07-8.81-.03-.19,0-.19.3,0,.3h0Z"/>
      </g>
      <g>
        <path class="cls-11" d="M192.08,173.05c3.07.26,6.19-.18,9.06-1.28"/>
        <path d="M192.08,173.2c3.08.26,6.21-.18,9.1-1.28.18-.07.1-.36-.08-.29-2.87,1.09-5.96,1.53-9.02,1.27-.19-.02-.19.28,0,.3h0Z"/>
      </g>
      <g>
        <path class="cls-11" d="M188.72,175.81c2.2.99,4.64,1.31,7.05,1.27s4.79-.43,7.17-.83"/>
        <path d="M188.65,175.94c4.55,2.01,9.6,1.24,14.34.45.19-.03.11-.32-.08-.29-4.65.77-9.64,1.55-14.11-.42-.17-.08-.33.18-.15.26h0Z"/>
      </g>
      <g>
        <path class="cls-11" d="M90.79,194.29c2.14,1.95,4.71,3.44,7.47,4.32"/>
        <path d="M90.68,194.4c1.69,1.54,3.63,2.79,5.74,3.69.59.25,1.19.48,1.8.67.18.06.26-.23.08-.29-2.13-.68-4.14-1.72-5.93-3.06-.51-.38-1-.79-1.47-1.22-.14-.13-.36.08-.21.21h0Z"/>
      </g>
      <g>
        <path class="cls-11" d="M87.64,197.81c2.84,2.53,6.26,4.41,9.92,5.46"/>
        <path d="M87.54,197.92c2.23,1.97,4.79,3.55,7.55,4.66.8.32,1.61.6,2.44.84.19.05.27-.24.08-.29-2.82-.81-5.49-2.11-7.87-3.83-.69-.5-1.35-1.03-1.98-1.59-.14-.13-.36.08-.21.21h0Z"/>
      </g>
      <g>
        <path class="cls-11" d="M94.9,191.98c2.83.61,5.53,1.81,7.88,3.48"/>
        <path d="M94.86,192.12c2.82.62,5.49,1.8,7.85,3.47.16.11.31-.15.15-.26-2.37-1.68-5.08-2.88-7.92-3.5-.19-.04-.27.25-.08.29h0Z"/>
      </g>
      <g>
        <path class="cls-11" d="M91.49,183.05c2.07-3.01,4.59-5.72,7.45-7.99"/>
        <path d="M91.62,183.12c1.62-2.34,3.5-4.5,5.61-6.42.59-.54,1.2-1.05,1.82-1.55.15-.12-.06-.33-.21-.21-2.24,1.78-4.27,3.82-6.04,6.07-.5.64-.98,1.29-1.44,1.95-.11.16.15.31.26.15h0Z"/>
      </g>
      <g>
        <path class="cls-11" d="M88.93,179.15c1.13-2.6,2.99-4.87,5.32-6.49"/>
        <path d="M89.06,179.22c.87-2,2.17-3.81,3.8-5.27.47-.42.96-.81,1.47-1.16.16-.11,0-.37-.15-.26-1.83,1.27-3.38,2.94-4.52,4.86-.32.54-.61,1.1-.86,1.68-.08.18.18.33.26.15h0Z"/>
      </g>
      <g>
        <path class="cls-11" d="M98.46,182.36c2.33-1.69,4.12-4.12,5.05-6.85"/>
        <path d="M98.53,182.48c1.84-1.34,3.36-3.12,4.38-5.17.29-.57.53-1.17.74-1.78.06-.18-.23-.26-.29-.08-.72,2.1-1.94,4.02-3.55,5.56-.45.43-.93.84-1.44,1.21-.15.11,0,.37.15.26h0Z"/>
      </g>
      <g>
        <path class="cls-11" d="M80.22,182.38c-2.17-2.91-3.91-6.15-5.16-9.56"/>
        <path d="M80.35,182.3c-2.16-2.91-3.9-6.12-5.14-9.52-.07-.18-.36-.1-.29.08,1.25,3.43,2.99,6.67,5.17,9.6.11.15.37,0,.26-.15h0Z"/>
      </g>
      <g>
        <path class="cls-11" d="M81.76,178.56c.12-3.25-1.57-6.26-3.21-9.07"/>
        <path d="M81.91,178.56c.11-3.34-1.6-6.36-3.23-9.15-.1-.17-.36-.02-.26.15,1.6,2.75,3.3,5.71,3.19,9,0,.19.29.19.3,0h0Z"/>
      </g>
      <g>
        <path class="cls-11" d="M78.56,184.8c-3.1-1.22-5.9-3.19-8.09-5.7"/>
        <path d="M78.6,184.65c-2.39-.94-4.61-2.34-6.5-4.09-.54-.5-1.05-1.02-1.53-1.57-.13-.15-.34.07-.21.21,1.73,1.98,3.82,3.62,6.15,4.83.65.34,1.32.64,2,.91.18.07.26-.22.08-.29h0Z"/>
      </g>
      <g>
        <path class="cls-11" d="M64.38,200.9c4.77-.32,9.39-2.5,12.68-5.96"/>
        <path d="M64.38,201.05c3.76-.26,7.42-1.64,10.43-3.91.84-.64,1.63-1.34,2.36-2.1.13-.14-.08-.35-.21-.21-2.54,2.67-5.85,4.56-9.43,5.43-1.03.25-2.08.41-3.14.49-.19.01-.19.31,0,.3h0Z"/>
      </g>
      <g>
        <path class="cls-11" d="M66.75,195.51c2.02-2.57,5.33-3.73,8.49-4.55"/>
        <path d="M66.86,195.61c1.59-2.01,3.96-3.14,6.35-3.92.69-.22,1.38-.42,2.08-.6.19-.05.11-.34-.08-.29-2.47.64-4.99,1.46-7.02,3.06-.57.45-1.09.96-1.54,1.53-.12.15.09.36.21.21h0Z"/>
      </g>
      <g>
        <path class="cls-11" d="M77.55,204.47c.09,2.39.7,4.76,1.76,6.9"/>
        <path d="M77.4,204.47c.1,2.42.71,4.81,1.78,6.98.09.17.34.02.26-.15-1.05-2.13-1.64-4.46-1.74-6.83,0-.19-.31-.19-.3,0h0Z"/>
      </g>
      <g>
        <path class="cls-11" d="M81.22,199.63c1.16,3.85,1.81,7.85,1.91,11.87"/>
        <path d="M81.08,199.67c1.15,3.84,1.8,7.82,1.91,11.83,0,.19.31.19.3,0-.11-4.04-.76-8.05-1.92-11.91-.06-.18-.35-.11-.29.08h0Z"/>
      </g>
      <g>
        <path class="cls-11" d="M84.77,200.04c1.82,2.3,2.89,5.2,2.99,8.13"/>
        <path d="M84.66,200.15c1.8,2.28,2.84,5.13,2.95,8.03,0,.19.31.19.3,0-.09-2.32-.75-4.61-1.92-6.62-.33-.57-.7-1.11-1.11-1.62-.12-.15-.33.06-.21.21h0Z"/>
      </g>
      <path class="cls-6" d="M155.04,125.97s-2.87,7.92-3.68,11.48l-.94,7.32s1.28,9.45,3.56,11.76"/>
      <path class="cls-6" d="M134.17,148.21s8.58-3.37,13.06-3.43"/>
      <path class="cls-6" d="M136.53,130.32s6.41,4.86,9.44,8.54"/>
      <path class="cls-6" d="M168.58,142s-9.74,1.25-10.5,1.44"/>
      <path class="cls-6" d="M91.82,204.97s-4.62-5.52-5.56-8.52"/>
      <path class="cls-6" d="M86.48,173.79s.2,7.57,0,10.08"/>
      <path class="cls-6" d="M126.77,91.74s-1.53-2.43-1.68-4.19"/>
      <path class="cls-6" d="M113.94,87.96s3.91-2.88,5.68-2.72"/>
      <path class="cls-6" d="M136.42,82.14s-6.88.6-8.22,1.12"/>
      <path class="cls-6" d="M112.35,82.14s3.04,1.12,5.72.33"/>
      <path class="cls-6" d="M210.56,158.52s-1.07,3.97-.53,5.79"/>
      <path class="cls-6" d="M222.98,171.47s-6.7,2.01-8.14,1.65"/>
      <path class="cls-6" d="M218.26,185.72s-2.23-6.83-4.08-8.63"/>
      <path class="cls-6" d="M199.38,180.75s7.36-4.1,7.45-5.85"/>
    </g>
    <path class="cls-4" d="M208.7,121.13c-.65.16-1.34.1-1.97-.13-1.35-.48-3.82-1.49-4.43-2.65-.86-1.62-3.81-5.81-.48-8.19s7.49-2.38,8.6,0c1.05,2.25,3.91,9.61-1.73,10.97Z"/>
    <path class="cls-4" d="M79.99,120.7s-2.4,6.67,2.48,8.92c4.88,2.25,8.61-1.17,9.15-4.89.54-3.72.47-6.2-2.17-7.44-2.64-1.24-6.51-2.25-9.46,3.41Z"/>
    <ellipse class="cls-3" cx="206.55" cy="114.15" rx="1.28" ry="2.3" transform="translate(-20.22 179.48) rotate(-45)"/>
    <ellipse class="cls-3" cx="85.65" cy="123.24" rx="1.96" ry="2.45"/>
    <path d="M160.22,334.08c5.12-13.4,12.32-25.96,21.28-37.17,8.7-10.89,18.79-20.56,28.27-30.76,5.29-5.69,10.39-11.57,14.94-17.87.11-.16-.15-.31-.26-.15-8.26,11.45-18.32,21.4-28.04,31.59-4.83,5.06-9.59,10.2-14.02,15.62s-8.5,11.19-12.09,17.22c-4.06,6.84-7.53,14.02-10.37,21.45-.07.18.22.26.29.08h0Z"/>
    <path d="M166.28,328.66c6.02-8.27,13.27-15.53,20.16-23.07,3.4-3.72,6.71-7.53,9.75-11.55,3.27-4.33,6.41-8.72,10.13-12.68,4.07-4.33,8.53-8.26,12.98-12.19.15-.13-.07-.34-.21-.21-3.96,3.5-7.93,7-11.62,10.77-3.73,3.81-6.95,7.97-10.11,12.24-6.19,8.36-13.42,15.77-20.43,23.44-3.83,4.19-7.56,8.49-10.91,13.09-.11.16.15.31.26.15h0Z"/>
    <path d="M220.89,264.42c2.74-2.11,5.16-4.57,7.42-7.18s4.4-5.29,6.45-8.04c1.16-1.56,2.22-3.21,2.92-5.03.07-.18-.22-.26-.29-.08-1.25,3.23-3.6,5.91-5.73,8.59s-4.22,5.23-6.58,7.61c-1.37,1.38-2.81,2.68-4.35,3.86-.15.12,0,.38.15.26h0Z"/>
    <path d="M163.89,313.8c2.86-7.15,6.81-13.81,11.35-20.02,4.59-6.27,9.76-12.08,15.11-17.71,2.99-3.14,6.04-6.23,9.1-9.31.14-.14-.08-.35-.21-.21-5.51,5.56-11.01,11.14-16.17,17.04-5.07,5.8-9.81,11.93-13.74,18.57-2.2,3.7-4.13,7.56-5.73,11.56-.07.18.22.26.29.08h0Z"/>
    <path d="M56.67,246c8,2.89,15.56,6.97,22.36,12.08,1.97,1.48,3.87,3.05,5.71,4.7.14.13.36-.08.21-.21-6.43-5.77-13.72-10.57-21.58-14.16-2.17-.99-4.38-1.89-6.62-2.7-.18-.07-.26.22-.08.29h0Z"/>
    <path d="M84.01,267.72c2.51.55,4.44,2.32,6.25,4.05,2.13,2.04,4.26,4.08,6.38,6.12,4.27,4.09,8.54,8.18,12.8,12.26,2.4,2.3,4.81,4.61,7.21,6.91.14.13.35-.08.21-.21-8.72-8.35-17.43-16.7-26.15-25.05-1.92-1.84-3.95-3.78-6.63-4.37-.19-.04-.27.25-.08.29h0Z"/>
    <path d="M92.84,264c6.88,5.48,13.31,11.52,19.21,18.05,3.02,3.35,6.04,6.78,8.56,10.53s4.22,7.96,6.46,11.86c2.55,4.45,5.52,8.63,8.48,12.81.11.16.37,0,.26-.15-2.65-3.73-5.3-7.47-7.65-11.4s-4.09-8.14-6.48-12.02-5.23-7.12-8.13-10.41-6-6.53-9.2-9.61c-3.61-3.47-7.38-6.76-11.29-9.88-.15-.12-.36.09-.21.21h0Z"/>
    <path d="M78.26,243.51c7.82,1.44,13.89,6.97,19,12.71,2.64,2.97,5.21,6.01,7.76,9.06s5.07,6.22,7.37,9.5c2.56,3.64,4.88,7.45,6.76,11.48.08.17.34.02.26-.15-3.4-7.27-8.18-13.75-13.25-19.92-2.57-3.12-5.19-6.2-7.86-9.24s-5.42-5.97-8.62-8.41-7.17-4.55-11.34-5.31c-.19-.03-.27.25-.08.29h0Z"/>
    <path d="M55.11,237.82c5.12.95,10,3.07,14.2,6.16,1.21.89,2.35,1.86,3.43,2.9.14.13.35-.08.21-.21-3.78-3.64-8.38-6.4-13.37-8.03-1.44-.47-2.9-.84-4.39-1.11-.19-.04-.27.25-.08.29h0Z"/>
    <path class="cls-4" d="M152.07,147.22c-1.1.45-2.34.43-3.48.09-2.03-.6-5.61-2.11-5.48-5.27.17-4.4,2.03-5.73,4.4-6.31,2.37-.58,7.24.64,7.99,3.82.63,2.65-.31,6.42-3.43,7.67Z"/>
    <ellipse class="cls-3" cx="148.81" cy="141.28" rx="1.77" ry="1.28" transform="translate(-19.53 23.95) rotate(-8.64)"/>
    <path class="cls-4" d="M80.5,184.52s-2.98,2.5-2.84,5.48c.14,2.98,2.08,6.52,6.93,5.62,4.85-.9,6.87-6.84,5.27-10.42s-5.27-4.42-9.36-.67Z"/>
    <ellipse class="cls-3" cx="83.61" cy="188.43" rx="1.96" ry="1.55" transform="translate(-113.38 127.66) rotate(-48.93)"/>
    <path class="cls-4" d="M118.7,79.63s-2.94.78-2.17,3.81c.78,3.03,1.3,5.8,6.32,5.72,5.02-.09,8.05-2.86,7.28-6.06-.78-3.2-2.86-6.58-6.06-6.5-3.2.09-3.81,2.08-5.37,3.03Z"/>
    <path class="cls-5" d="M199.88,166.08s3.87.75,4.5,1.51"/>
    <path class="cls-4" d="M203.45,165.67s-3.14,5.71,2.67,10.28c5.81,4.57,10.95,2.48,10.47-.76-.48-3.24-1.81-3.52-2.86-5.9-1.05-2.38-.82-5.81-4.12-6-3.3-.19-5.11.95-6.16,2.38Z"/>
    <ellipse class="cls-3" cx="210.03" cy="171.47" rx="1.33" ry="2.19" transform="translate(-61.04 177.54) rotate(-40.51)"/>
    <path class="cls-5" d="M173.3,244.84s7.7-10.35,7.94-12.21"/>
    <path class="cls-4" d="M177.93,229.66s-.05,4.95,5.05,5.81,8.57-3.43,9.33-5.05.38-5.52-2.19-7.14-6.57-3.52-9.71-.57c-3.14,2.95-2.48,6.95-2.48,6.95Z"/>
    <ellipse class="cls-3" cx="185.92" cy="227.34" rx="1.83" ry="2.59" transform="translate(-107.62 218.14) rotate(-48.93)"/>
    <ellipse class="cls-3" cx="123.79" cy="82.75" rx="1.93" ry="1.74"/>
  </g>
  <g class="cls-15">
    <g>
      <rect class="cls-16" x="247.82" y="343.01" width="280.56" height="10.6" rx="5.3" ry="5.3"/>
      <g>
        <path class="cls-16" d="M282.42,346.69h211.42v-3.26l-20.39-16.95c0-8.61-6.48-15.59-14.48-15.59s-14.48,6.98-14.48,15.59"/>
        <path class="cls-16" d="M271.12,346.69h11.3v-2.61c0-8.44,7.75-15.28,17.32-15.28,6.48,0,12.13,3.14,15.1,7.8,1.41,2.21,2.22,4.76,2.22,7.48"/>
      </g>
      <path class="cls-16" d="M476.32,341.08l-26.7-26.83-33.48-14.7s-28.57.28-32.7,0-12.53-2.45-12.53-2.45l-12.64,13.78-15.77,5.19-25.44,6.91-11.11,16.61-23.52,7.1"/>
      <g>
        <path class="cls-2" d="M271.12,343.01h11.3v.65c0-8.44,7.75-15.28,17.32-15.28,6.48,0,12.13,3.14,15.1,7.8,1.41,2.21,2.22,4.76,2.22,7.48"/>
        <line class="cls-2" x1="259.58" y1="343.01" x2="266.89" y2="343.01"/>
        <line class="cls-2" x1="252.41" y1="353.49" x2="391.42" y2="353.49"/>
      </g>
    </g>
  </g>
</svg>