<?xml version="1.0" encoding="UTF-8"?>
<svg id="Layer_1" data-name="Layer 1" xmlns="http://www.w3.org/2000/svg" viewBox="0 0 289.13 430.87">
  <defs>
    <style>
      .cls-1 {
        fill: none;
      }

      .cls-2 {
        fill: #c1d5e8;
      }

      .cls-3 {
        fill: #ffeb99;
      }

      .cls-4 {
        font-family: SUIT-Regular-KSCpc-EUC-H, SUIT;
        font-size: 14px;
      }

      .cls-5 {
        fill: #c8cc8f;
      }

      .cls-6 {
        fill: #e6eef4;
      }

      .cls-7 {
        fill: #f9f1ac;
      }

      .cls-8 {
        font-family: 'IM_FELL_Double_Pica_SC', 'IM FELL Double Pica SC';
        font-size: 24px;
      }

      .cls-9 {
        fill: #cea865;
      }

      .cls-10 {
        fill: #dce9f4;
      }

      .cls-11 {
        fill: #a6bed1;
      }

      .cls-12 {
        letter-spacing: -.03em;
      }

      .cls-13 {
        letter-spacing: 0em;
      }
    </style>
  </defs>
  <g>
    <text class="cls-8" transform="translate(78.38 396.2)"><tspan class="cls-13" x="0" y="0">M</tspan><tspan class="cls-12" x="23.37" y="0">Y</tspan><tspan x="39.09" y="0">OSOTIS</tspan></text>
    <text class="cls-4" transform="translate(101.25 417.59)"><tspan x="0" y="0">물망초 · 상실감</tspan></text>
  </g>
  <g>
    <path class="cls-5" d="M210.3,272.09c-6.53,1.39-15.21,3-20.46,6.86-5.25,3.86-14.25,15.1-21.21,29.13,0,0,1.29-14.78,8.36-32.78,7.07-18,13.07-31.28,20.35-36.63l.07-3.82-4.75,2.6-5.34,7.88-5.66,9.12-1.63-7.27-1.99-3.88-2.01-.19-1.9,1.96-.71,2.84.86,4.58,2.08,3.04.88,5.52-3.92,13.44-4.96,17.92-2.4,12.72-3.92,17.6-1.84-37.04-3.06-28.89s.64-17,.64-17.85,3.61-17.42,3.61-17.42c0,0,7.09-17.69,7.48-19.47.46-2.05,3.32-7.3,5.69-11.79,1.64-3.1,3.82-7.4,6.44-9.72l5.88-3.07s5.05-1.07,5.26-1.7c.1-.31.85-3.71.18-6.38-.72-2.83-2.68-5.09-2.68-5.09l-6.19-3.5s-2.52.37-3.37,1.01-2.7,4.32-2.72,5.8c-.05,5.27,1.03,10.39.89,9.8,0,0-.75,1.16-1.6,2.86s-5.47,9.87-5.47,9.87l-5.13,9.34-2.81,5.32-.05-11.81-2.23,3.58s-.68,8.99-.68,11.32-1.02,6.29-1.02,7.36-1.46,10.72-1.89,11.57c-.42.85-3.21,15.9-3.32,15.03-.94-7.58-4.88-26.29-4.88-26.29,0,0-9.71-33.49-9.92-34.55-.21-1.06-4.67-11.88-4.89-12.95s-8.36-16.94-8.57-17.58c-.21-.64-7.14-14.18-7.14-14.18l-3.61-3.19,3.17,11.61s8.23,14.45,16.81,39.03c8.58,24.58,18.88,70.48,18.95,87.4,0,0-8.51-19.01-10.37-26.89s-10.28-19.71-19.4-24.11-12.23-17.85-12.23-17.85c0,0-2.64,4.17,0,13.91,2.64,9.74,5.19,18.08,15.63,26.66,10.43,8.58,14.42,12.06,18.69,19.47,4.26,7.42,9.13,17.62,10.29,33.15,1.16,15.53,2.09,44.05,1.39,50.54l3.15,3.15c.22-8.48,5.9-33.32,10-39.19,4.11-5.89,8.39-12.68,22.5-18.03,14.11-5.36,25-20.79,26.28-23.68,0,0-3.11,2.36-9.64,3.75Z"/>
    <g>
      <polygon class="cls-2" points="85.57 78.91 83.89 91.93 64.7 98.24 67.22 112.66 78.29 138.01 104.06 149.92 124.23 129.89 139.22 128.63 134.03 114.9 154.62 100.48 145.94 88.43 131.37 72.19 118.63 71.35 102.1 74.01 85.57 78.91"/>
      <circle class="cls-11" cx="106.29" cy="109.76" r="13.11"/>
      <circle class="cls-3" cx="106.29" cy="109.76" r="11.26"/>
      <path class="cls-2" d="M115.41,100.34s10.85-10.85,17.79-19.19c6.95-8.34,9.88-21.77,8.65-27.95-1.24-6.18-7.26-4.63-8.18-6.95-.93-2.32-3.24-2.93-3.24-2.93-24.24-1.39-24.13,53.32-24.13,53.32l10.35.6-1.23,3.1Z"/>
      <path class="cls-2" d="M135.84,77.45s8.09-7.56,18.6-6.74c1.47.12,2.95,0,4.38-.38,1.71-.46,4.09-1.14,6.42-1.94,4.33-1.49,4.8,2.71,4.53,4.2s-.14,1.15-.27,1.49,2.25,4.24-.87,8.87c-3.12,4.63-11.67,12.41-13.6,13.7-6.52,4.35-31.47,11.59-35.62,13.11"/>
      <path class="cls-2" d="M152.61,98s14.3-3.57,19.33,2.34c5.03,5.91,5.57,7.62,4.71,10.94-.53,2.07-1.65,3.55-2.41,4.38-.4.44-.75.92-.98,1.47-.32.79-1.23,2.12-3.78,3.36-3.96,1.93-11.56,4.6-19.06,4.71-7.5.11-9.96-.43-13.39-1.07s-18.88-8.79-18.88-8.79"/>
      <path class="cls-2" d="M201.63,231.43s-7.62,11.7-13.56,1.3c0,0-4.55-5.67.84-8.45,0,0-12.26-8.82-7.8-13,0,0-.37-5.94,3.72-6.32s6.59,2.51,8.17,5.2c0,0-2.17-15.99,9.13-13.15,0,0,3.32-3.94,6.1-1.44,2.79,2.51,2.41,7.34,2.41,7.34,0,0,6.97-7.24,11.05-1.39,4.09,5.85,2.69,13.37,1.58,15.23,0,0,13-3.72,14.4,5.11,0,0,.09.93-.65,2.41,0,0,2.51,2.32-.74,5.76-3.25,3.44-10.87,4.74-13.84,4.74,0,0,11.05,7.06,8.92,11.61-2.14,4.55-5.85,6.78-9.66,6.04-3.81-.74-9.1-5.11-9.38-6.5,0,0-.37,5.02-4.92,4.55-4.55-.46-9.75-2.61-10.21-11.8l-.07-4.73"/>
      <circle class="cls-1" cx="172.89" cy="229.07" r="2.21"/>
      <g>
        <circle class="cls-2" cx="98.83" cy="105.69" r="1.01"/>
        <circle class="cls-2" cx="102.76" cy="104.4" r=".74"/>
        <circle class="cls-2" cx="105.08" cy="100.95" r=".74"/>
        <circle class="cls-2" cx="103.34" cy="108.72" r="1.01"/>
        <circle class="cls-2" cx="98.55" cy="110.82" r=".73"/>
        <circle class="cls-2" cx="106.62" cy="104.67" r="1.01"/>
      </g>
      <circle class="cls-2" cx="206.96" cy="224.01" r=".67"/>
      <circle class="cls-2" cx="207.63" cy="226.22" r=".49"/>
      <circle class="cls-2" cx="206.66" cy="228.01" r=".67"/>
      <circle class="cls-2" cx="204.8" cy="225.06" r=".49"/>
      <circle class="cls-2" cx="209.43" cy="228.14" r=".67"/>
      <path class="cls-2" d="M137.03,124.13s16.81,9.85,16.81,20.02-1.18,9.42-3.32,10.92c-2.14,1.5-2.89,3.32-5.09,3.64s-15.58-2.89-20.61-9.85c-5.97-8.26-14.58-26.6-14.58-26.6"/>
      <path class="cls-2" d="M100.83,121.68s-4.92,21.73-6.21,28.05c-1.28,6.32-1.93,16.28,2.25,19.7,4.18,3.43,6.64,5.57,10.82,2.89s4.18-6.64,4.93-7.28,2.25-.92,3.75-6.3c1.5-5.38,2.74-16.7.51-23.25"/>
      <path class="cls-2" d="M95.48,117.17s-13.49,5.24-20.66,12.42c-7.17,7.17-12.42,17.03-13.6,19.92s-1.18,10.39,3.11,13.28c4.28,2.89,8.96,2.36,13.69-2.68,4.73-5.03,8.48-7.07,11.47-8.67s5.99-5.73,5.99-5.73"/>
      <path class="cls-2" d="M93.28,108.15s-20.82-7.05-30.14-5.12c-9.32,1.93-11.35.81-16.28,5.12-4.93,4.3-7.71,8.91-8.78,10.41s-2.46,3.53-1.07,5.03c1.39,1.5,4.6,3.11,5.78,4.93,1.18,1.82,11.29,4.5,17.75,4.07,6.45-.43,14.27-3,14.27-3"/>
      <path class="cls-2" d="M64.85,102.7s-13.19-3.48-16.92-10.13c-3.74-6.66,1.71-6.9,1.71-6.9,0,0-3.98-3-2.27-6.74,1.71-3.74,9.86-7.67,12.34-8.12,3.57-.65,8.85.08,14.13,4.06l5.28,3.98s3.61,3.29,6.25,5.85c.91.88,12.07,15.4,12.07,15.4"/>
      <path class="cls-2" d="M85.37,84.69s-6.82-14.78-6.09-21.84c.73-7.07,2.11-8.93,4.71-10.48,1.38-.82,2.03-5.44,4.87-5.68s4.79,1.62,5.85,1.54,3.65-1.38,6.25,1.14,5.44,6.74,5.93,12.34,1.64,11.4,1.64,11.4"/>
      <path class="cls-2" d="M125.38,52.57s3.78-6.46,7.58-7.52"/>
      <path class="cls-2" d="M136.95,48.04s1.73,7.03-2.06,14.69"/>
      <path class="cls-2" d="M134.9,68.82s-11.41,21.55-22.82,29.17"/>
      <path class="cls-2" d="M120.51,66.88s-9.12,26.14-10.18,30.39"/>
      <path class="cls-2" d="M119.41,55.07s-10.63,16.74-10.38,41.86"/>
      <path class="cls-2" d="M119.08,79.84s-6.8,14.54-7.88,17.76"/>
      <path class="cls-2" d="M127.24,92.8s-7.58,7.91-10.23,9.4"/>
      <path class="cls-2" d="M151.14,78.41s-6.23,5.94-10.02,8.73c-3.79,2.79-9.02,6.3-12.1,8.95s-10.87,8.07-10.87,8.07"/>
      <path class="cls-2" d="M147.57,91.87s-12.39,5.01-16.47,7.01c-4.08,2-12.28,7-12.28,7"/>
      <path class="cls-2" d="M119.28,107.93s11.32-5.73,14.4-6.54"/>
      <path class="cls-2" d="M119.28,112.12s13.15,1.16,26.89-2.36"/>
      <path class="cls-2" d="M145.43,117.11s-20.75.97-26.75-3.04"/>
      <path class="cls-2" d="M159.09,114.39s9.84-2.22,16.71-.93"/>
      <path class="cls-2" d="M164.3,104.16s10.59,3.09,12.64,5.6"/>
      <path class="cls-2" d="M113.4,120.78s14.68,18.68,16.81,20.91"/>
      <path class="cls-2" d="M115.26,119.31s13.57,10.77,14.95,12.89"/>
      <path class="cls-2" d="M117.56,116.47s11.19,7.61,13.04,9.79"/>
      <line class="cls-2" x1="116.75" y1="117.67" x2="121.8" y2="121.36"/>
      <path class="cls-2" d="M139.57,137.81s9.78,10.78,11.66,16.81"/>
      <path class="cls-1" d="M142.02,149.17s4.99,4.99,7.68,6.56"/>
      <path class="cls-1" d="M125.46,147s11.15,10.07,22.29,10.56"/>
      <path class="cls-2" d="M107.19,122.84s5.47,21.48,4.55,28.43"/>
      <path class="cls-1" d="M111.06,154.62s-1.14,15.62-5.61,18.73"/>
      <path class="cls-1" d="M101.59,153.55s-.43,14.1,1.27,19.79"/>
      <path class="cls-2" d="M104.87,122.79s-.98,4.28-.83,8.02-.98,14.82-2.22,20.92"/>
      <path class="cls-2" d="M99.19,120.78s-4.38,12.48-7.06,15.54"/>
      <path class="cls-2" d="M71.5,164.31s5.32-10.87,8.38-14.22c3.06-3.35,8.61-9.76,10.43-11.77"/>
      <line class="cls-2" x1="80.9" y1="141.69" x2="97.53" y2="119.52"/>
      <path class="cls-2" d="M79.12,134.88s14.75-15.05,17.37-16.42"/>
      <path class="cls-1" d="M64.32,162.79s4.92-12.24,7.18-13.62"/>
      <path class="cls-2" d="M84,151.73s5.65-2.56,13.21-13.91"/>
      <path class="cls-2" d="M61.89,159.96s1.18-10.05,11.42-19.58"/>
      <path class="cls-2" d="M66.35,112.73s13.68-2.5,26.83-.64"/>
      <path class="cls-2" d="M72.96,117.17s14.5-2.89,20.95-3.1"/>
      <path class="cls-2" d="M70.54,123.77s16.35-5.08,24.17-7.86"/>
      <path class="cls-2" d="M57.72,125.22s-9.27,2.26-16.77,1.45"/>
      <path class="cls-2" d="M57.72,112.73s-13.73,1.67-19.64,5.83"/>
      <path class="cls-2" d="M38.99,125.22s11.99-.18,15.68-1.45"/>
      <path class="cls-2" d="M49.64,85.66s9.28,3.17,11.71,5.01"/>
      <path class="cls-2" d="M70.54,95.62s20.35,9.21,22.74,11.44"/>
      <path class="cls-2" d="M78.41,85.66s14.17,13.75,16.83,17.04"/>
      <path class="cls-2" d="M68.71,84.27s9.02,3.96,13.91,8.52"/>
      <path class="cls-2" d="M49.83,76s11.13-2.32,23.83,6.08"/>
      <path class="cls-2" d="M85,99.3s7.05,4.45,8.91,6.15"/>
      <path class="cls-2" d="M94.71,48.23s4.63,13.19,5.49,18.66"/>
      <path class="cls-2" d="M88.66,57.56s10.49,33.02,11.87,40.43"/>
      <path class="cls-2" d="M89.22,78.41s6.24,16.37,9.75,20.47"/>
      <path class="cls-2" d="M101.81,72.64s2.26,20.24,1.74,24.29"/>
      <path class="cls-2" d="M164.8,75.25s1.39.11,4.69-1.17"/>
      <path class="cls-5" d="M160.75,197.37s-1.51-6.78-2.51-9.56c-1-2.78-1.81-11.35-1.13-13.8.68-2.45,2.21-4.23,3.67-3.89s3.8,4.23,3.69,8.12c-.11,3.89-1.34,13.8-1.45,15.58"/>
      <path class="cls-2" d="M172,141.23s-1.11,11.62,0,16.71"/>
      <path class="cls-2" d="M202.13,197.02s-4.38,13.99-1.09,21.39"/>
      <ellipse class="cls-11" cx="204.54" cy="226.03" rx="5.88" ry="9.23" transform="translate(-100.26 221.13) rotate(-46.94)"/>
      <path class="cls-2" d="M210.64,202.92s-4.09,12.22-6.67,15.98"/>
      <path class="cls-2" d="M223.72,205.76s-11.12,12.95-14.36,16.79"/>
      <path class="cls-2" d="M223.27,216.76s-9.94,6.66-12.63,7.42"/>
      <path class="cls-2" d="M237.02,224.28s-11.79,3.78-15.97,4.54c-4.19.76-8.66.3-8.66.3"/>
      <path class="cls-2" d="M227.8,250.95s-1.72-4.54-4.08-6.59"/>
      <path class="cls-2" d="M209.91,233.27s7.86,5.9,9.69,8.19"/>
      <path class="cls-2" d="M204.54,232.94s1.05,6.85,1.05,9.51"/>
      <path class="cls-2" d="M198.55,228.03s-3.24,3.07-6.36,3.99"/>
      <path class="cls-2" d="M196.7,222.96s-6.26-5.33-7.4-6.62"/>
      <path class="cls-2" d="M181.73,207.41s5.13,6.34,6.35,7.64"/>
      <path class="cls-2" d="M203.31,210.25s-.38,6.11,0,8.16"/>
      <path class="cls-2" d="M211.3,216.34s-3.1,3.91-3.45,4.77"/>
      <path class="cls-2" d="M193,210.16s2.49,7.61,4.8,9.56"/>
      <path class="cls-2" d="M188.91,224.28s4.92-.67,8.18.83"/>
      <path class="cls-2" d="M211.66,226.03s2.81.22,4.88-.32"/>
      <path class="cls-2" d="M222.44,234.78s-8.28-1.28-10.78-2.9"/>
      <path class="cls-2" d="M205.92,250.26s-.26-5.61-.33-5.9"/>
      <path class="cls-1" d="M158.03,171.86s4.46,7.33,3.74,15.58"/>
      <line class="cls-2" x1="198.74" y1="233.94" x2="197.18" y2="235.92"/>
      <ellipse class="cls-3" cx="204.54" cy="226.03" rx="4.94" ry="7.76" transform="translate(-100.26 221.13) rotate(-46.94)"/>
      <path class="cls-2" d="M222.2,159.87c-.12-.41-.29-.78-.5-1.13,0,0,0,0,0,0h0c-2.63-4.4-11.66-4.12-11.66-4.12,1.53-7.33.11-9.65-3.5-12.94s-7.89.66-7.89.66c1.1-5.26-3.29-11.72-5.26-13.14-1.24-.89-2.82-1.18-4.92-.95h0s0,0,0,0c-1.24.14-2.65.46-4.28.95-4.38,1.31-6.68,10.4-6.68,10.4,0,0-2.96-5.04-5.7-4.93-2.74.11-3.83,2.52-3.72,11.54.11,8.99,9.36,19.28,9.42,19.35l2.02.57,2.45-1.46,1.04-2.22,1.54-.29,3.62,1.3,3.49,3.83,1.07,5.06-.92,3.63c3.03,2.76,13.84,7.21,20.08,7.65,3.91.27,6.4-.59,7.85-2.04h0c.87-.87,1.36-1.94,1.57-3.1.44-2.52-8.98-5.8-8.98-5.8,0,0,6.46-1.42,8.87-3.07s2.63-4.16.99-9.75Z"/>
      <path class="cls-6" d="M205.88,134.85c-1.46-2.75-1.46-6.14.3-8.72,1.13-1.66,3.06-3.19,6.33-3.85,8.73-1.77,16.43-.28,15.8-5.06s-13.96-15.64-18.1-18c0,0,7.37.72,12.92,4.95,5.56,4.23,12.11,12.44,11.11,16.1s-1.26,4.74-6.31,4.96c-5.05.22-10.35-2.49-12.88,0-2.53,2.49-3.28,6.78-2.02,9.18,1.26,2.4,5.78,7.45,10.4,10.73,4.62,3.28,12.45,7.07,15.55,14.65,3.09,7.58,2.75,8.19,2.43,10.75s-2.11,4.86-3.39,7.04c-1.28,2.18-1.47,2.94-1.79,5.95-.32,3.01-3.33,5.63-7.61,5.37,0,0,3.97-.83,5.05-2.37,1.09-1.54,1.54-4.21,1.28-6.81-.26-2.6,2.49-6.17,2.88-7.85.85-3.71-.33-8.78-1.6-12.02-.86-2.18-3.51-6.85-7.54-9.22-3.73-2.19-17.07-4.97-22.81-15.78Z"/>
      <path class="cls-6" d="M65.45,225.71s-6.77,6.08-4.88,11.98c2.53,7.88,10.55,20.78,20.15,21.41,9.6.63,16.77-4.41,21.22.63,4.44,5.04,4.69,10.71-1.34,12.28s-13.9,2.71-15.31,7.26c-1.42,4.55-2.78,7.93.77,12.55s11.29,9.21,12.8,11.14c1.51,1.93,3.56,4.05,3.82,5.66,0,0,1.51-3.64-7.56-10.22-9.07-6.58-5.69-14.14-4.36-15.29s8.98-6.22,14.14-6.76c5.16-.53,10.31-8.36,10.4-12,.09-3.65-2.13-9.73-6.93-12.07s-11.02-3.54-16.98-.72c-5.96,2.83-9.16,3.54-13.34,2.2-4.18-1.33-11.36-7.93-13.94-12.67-1.82-3.35-2.82-6.6-1.8-9.84.88-2.79,3.13-5.55,3.13-5.55Z"/>
      <path class="cls-10" d="M104.66,308.62s.74,3.96-.49,4.93c-1.24.97-3.86,1.35-6.48.79-2.62-.56-5.36-.3-6.29,1.69s-1.09,4.23.19,6.89c1.27,2.66,4.35,6.67,7.79,8.02,3.45,1.35,9.14,3.75,11.61,4.68s6.48,3.03,7.75,4.87,2.81,3.07,2.1,6.29c-.71,3.22-2.25,4.5-2.47,6.89-.22,2.4-.49,4.65,1.24,7.16s3.52,4.01,4.31,4.31c0,0-4.61-5.09-4.42-8.84s1.46-6.15,2.02-7.03c.56-.88,1.05-4.74-.37-7.21s-5.13-5.73-10.9-7.94c-5.77-2.21-14.46-5.69-15.73-9.78-1.27-4.08-1.69-5.84-.52-7.08,1.16-1.24,2.4-1.84,7.3-1.69s4.89-4.89,3.38-6.96Z"/>
      <path class="cls-7" d="M195.8,56.76l2.49,19.09c.41,3.15,2.85,5.65,5.98,6.15l7.24,1.14-6.96.8c-3.27.38-5.87,2.94-6.28,6.21l-2.47,19.37-2.47-19.37c-.42-3.27-3.01-5.83-6.28-6.21l-6.96-.8,7.24-1.14c3.14-.49,5.57-3,5.98-6.15l2.49-19.09Z"/>
      <path class="cls-7" d="M82.07,174.59l2.49,19.09c.41,3.15,2.85,5.65,5.98,6.15l7.24,1.14-6.96.8c-3.27.38-5.87,2.94-6.28,6.21l-2.47,19.37-2.47-19.37c-.42-3.27-3.01-5.83-6.28-6.21l-6.96-.8,7.24-1.14c3.14-.49,5.57-3,5.98-6.15l2.49-19.09Z"/>
      <path class="cls-7" d="M124.23,279.99l1.45,11.13c.41,3.15,2.85,5.65,5.98,6.15l3.15.5-2.87.33c-3.27.38-5.87,2.94-6.28,6.21l-1.43,11.24-1.43-11.24c-.42-3.27-3.01-5.83-6.28-6.21l-2.87-.33,3.15-.5c3.14-.49,5.57-3,5.98-6.15l1.45-11.13Z"/>
    </g>
    <g>
      <path d="M193.79,56.74l2.38,17.75c.06,3.79,2.82,7.24,6.72,7.5,1.43.22,5.16.8,6.63,1.03.13.02.14.23,0,.25,0,0-4.47.52-4.47.52-2.96.18-6.11.84-7.66,3.62-.82,1.28-.98,2.76-1.15,4.24,0,0-2.24,17.87-2.24,17.87,0,.11-.11.21-.23.19-.09-.01-.16-.09-.17-.17-.8-5.95-1.57-11.91-2.33-17.87-.11-2.94-1.52-5.88-4.39-6.99-1.33-.57-2.86-.56-4.35-.78l-4.48-.51c-.14-.02-.24-.14-.22-.27.01-.11.1-.2.21-.22l4.42-.67c1.29-.22,3.15-.36,4.33-.84,2.87-1.06,4.4-3.96,4.53-6.91,0,0,2.47-17.73,2.47-17.73h0ZM193.79,56.79c-.19,1.27-2.27,19.36-2.49,19.96-.71,3.03-3.5,5.28-6.56,5.56,0,0-2.21.36-2.21.36l-4.41.72s-.01-.49-.01-.49c0,0,4.48.51,4.48.51l2.24.26c2.32.2,4.53,1.53,5.73,3.54.85,1.31,1.04,2.91,1.21,4.4.77,5.96,1.51,11.92,2.23,17.88,0,0-.4,0-.4,0,0-.01,2.31-17.87,2.32-17.88.11-3.06,1.66-6.15,4.65-7.3,1.24-.56,3.12-.62,4.45-.79,0,0,4.48-.5,4.48-.5,0,0,0,.25,0,.25-1.5-.24-5.18-.83-6.62-1.06-4-.31-6.77-3.79-6.83-7.68,0,0-2.24-17.73-2.24-17.73h0Z"/>
      <path d="M80.06,174.57l2.38,17.75c.06,3.79,2.82,7.24,6.72,7.5,1.43.22,5.16.8,6.63,1.03.13.02.14.23,0,.25,0,0-4.47.52-4.47.52-2.96.18-6.11.84-7.66,3.62-.82,1.28-.98,2.76-1.15,4.24,0,0-2.24,17.87-2.24,17.87,0,.11-.11.21-.23.19-.09-.01-.16-.09-.17-.17-.8-5.95-1.58-11.91-2.33-17.87-.11-2.94-1.52-5.88-4.39-6.99-1.33-.57-2.86-.56-4.35-.78l-4.48-.51c-.14-.02-.24-.14-.22-.27.01-.11.1-.2.21-.22,0,0,4.42-.67,4.42-.67,1.29-.22,3.15-.36,4.33-.84,2.87-1.06,4.4-3.96,4.53-6.91,0,0,2.47-17.73,2.47-17.73h0ZM80.06,174.62c-.19,1.27-2.27,19.37-2.49,19.96-.71,3.03-3.5,5.28-6.56,5.56,0,0-2.21.36-2.21.36l-4.41.72v-.49s4.47.51,4.47.51l2.24.26c2.32.2,4.53,1.53,5.73,3.54.85,1.31,1.04,2.91,1.21,4.4.77,5.96,1.51,11.92,2.23,17.88h-.4s2.31-17.87,2.32-17.88c.11-3.06,1.66-6.15,4.65-7.3,1.24-.56,3.12-.62,4.45-.79,0,0,4.48-.5,4.48-.5v.25c-1.5-.24-5.19-.83-6.63-1.06-4-.31-6.77-3.79-6.83-7.68,0,0-2.24-17.73-2.24-17.73h0Z"/>
      <path d="M122.22,279.97l.8,5.84c.28,1.95.52,3.93.82,5.87.6,2.89,3.14,5.18,6.07,5.51,0,0,2.92.45,2.92.45.14.02.14.23,0,.25-1.95.28-4.01.23-5.67,1.3-1.66,1-2.87,2.71-3.25,4.61-.47,3.39-1.04,8.3-1.48,11.75,0,.23-.37.26-.4.02-.49-3.46-1.09-8.35-1.57-11.74-.55-2.84-3.03-5.14-5.9-5.47,0,0-2.94-.34-2.94-.34-.28-.02-.29-.46-.01-.49,0,0,2.92-.44,2.92-.44,2.89-.32,5.39-2.56,6-5.42.57-3.86,1.17-7.84,1.7-11.69h0ZM122.22,280.02c-.52,3.94-.83,7.78-1.39,11.71-.41,1.97-1.66,3.76-3.4,4.8-1.5,1-4.02,1.16-5.75,1.48,0,0-.01-.49-.01-.49l2.95.34c3.08.35,5.74,2.81,6.33,5.86.5,3.45,1.06,8.3,1.48,11.79,0,0-.4,0-.4,0v-.02s.77-5.88.77-5.88c.58-3.79.34-8.57,4.21-10.68,1.51-1.01,4.04-1.08,5.79-1.3,0,0,0,.25,0,.25l-2.91-.47c-3-.36-5.59-2.74-6.18-5.71-.3-1.95-.5-3.88-.75-5.83l-.73-5.86h0Z"/>
      <path d="M229.25,263.73c-.09,2.52-3.68,2.56-3.83,0,.01-2.69,3.85-2.71,3.83,0h0ZM229.2,263.73c-.08-2.04-3.3-2.05-3.37,0-.03,2.2,3.36,2.22,3.37,0h0Z"/>
      <path d="M236.99,200.54c-.09,2.52-3.68,2.56-3.83,0,.01-2.69,3.85-2.71,3.83,0h0ZM236.94,200.54c-.08-2.04-3.29-2.05-3.37,0-.03,2.2,3.36,2.22,3.37,0h0Z"/>
      <path d="M173.27,229.07c-.1,3.07-4.49,3.11-4.65,0,.03-3.23,4.66-3.26,4.65,0h0ZM173.22,229.07c-.11-2.58-4.09-2.6-4.2,0,0,2.75,4.16,2.77,4.2,0h0Z"/>
      <path d="M218.82,295.19c-.09,2.52-3.68,2.56-3.83,0,.01-2.69,3.85-2.71,3.83,0h0ZM218.77,295.19c-.08-2.04-3.29-2.05-3.37,0-.03,2.2,3.36,2.22,3.37,0h0Z"/>
      <path d="M73.46,304.46c-.06,2.11-3.09,2.16-3.22,0,0-2.28,3.24-2.34,3.22,0h0ZM73.41,304.46c-.06-1.64-2.71-1.64-2.77,0-.04,1.8,2.76,1.82,2.77,0h0Z"/>
      <path d="M101.61,350.76c-.06,2.11-3.09,2.16-3.22,0,0-2.28,3.24-2.34,3.22,0h0ZM101.56,350.76c-.06-1.64-2.71-1.64-2.77,0-.04,1.8,2.76,1.82,2.77,0h0Z"/>
      <path d="M140.91,308.62c-.05,1.62-2.36,1.67-2.48,0-.03-1.78,2.53-1.84,2.48,0h0ZM140.86,308.62c-.06-1.16-1.96-1.16-2.03,0-.06,1.3,2.02,1.35,2.03,0h0Z"/>
      <path d="M117.15,253.41c-.05,1.63-2.36,1.67-2.48,0-.03-1.78,2.53-1.84,2.48,0h0ZM117.1,253.41c-.06-1.16-1.96-1.16-2.03,0-.06,1.3,2.02,1.35,2.03,0h0Z"/>
      <path d="M69.94,277.48c-.05,1.63-2.36,1.67-2.48,0-.03-1.78,2.53-1.84,2.48,0h0ZM69.89,277.48c-.06-1.16-1.96-1.16-2.03,0-.06,1.3,2.02,1.35,2.03,0h0Z"/>
      <path d="M101.87,233.18c-.09,2.68-3.91,2.72-4.06,0,.01-2.84,4.08-2.87,4.06,0h0ZM101.82,233.18c-.08-2.19-3.53-2.2-3.61,0-.01,2.36,3.58,2.38,3.61,0h0Z"/>
      <path d="M119.86,182.9c-.09,2.68-3.9,2.72-4.06,0,.02-2.84,4.08-2.87,4.06,0h0ZM119.81,182.9c-.08-2.19-3.53-2.2-3.61,0-.01,2.36,3.58,2.38,3.61,0h0Z"/>
      <path d="M101.3,180.24c-.06,1.91-2.8,1.96-2.92,0-.02-2.07,2.96-2.13,2.92,0h0ZM101.25,180.24c-.06-1.44-2.4-1.45-2.47,0-.05,1.59,2.46,1.64,2.47,0h0Z"/>
      <path d="M179.1,88.92c-.05,1.57-2.28,1.61-2.39,0-.03-1.73,2.45-1.79,2.39,0h0ZM179.05,88.92c-.06-1.11-1.87-1.11-1.94,0-.06,1.24,1.94,1.3,1.94,0h0Z"/>
      <path d="M177.56,78.81c-.02.96-1.39,1.01-1.48,0-.05-1.12,1.57-1.19,1.48,0h0ZM177.51,78.81c-.05-.54-.94-.51-1.03,0-.08.63,1.05.7,1.03,0h0Z"/>
      <path d="M208.85,114.39c-.02.96-1.39,1.01-1.48,0-.05-1.12,1.57-1.19,1.48,0h0ZM208.79,114.39c-.05-.54-.94-.51-1.03,0-.08.63,1.05.7,1.03,0h0Z"/>
      <path d="M157.89,132.63c-.02.96-1.39,1.01-1.48,0-.05-1.12,1.57-1.19,1.48,0h0ZM157.84,132.63c-.05-.54-.94-.51-1.03,0-.08.63,1.05.7,1.03,0h0Z"/>
      <path d="M232.25,139.32c-.04,1.35-1.96,1.4-2.06,0-.03-1.51,2.13-1.57,2.06,0h0ZM232.2,139.32c-.06-.9-1.54-.89-1.61,0-.07,1.02,1.62,1.08,1.61,0h0Z"/>
      <path d="M49.21,149.69c-.06,1.91-2.8,1.96-2.92,0-.02-2.07,2.96-2.13,2.92,0h0ZM49.16,149.69c-.06-1.44-2.4-1.45-2.47,0-.05,1.58,2.46,1.64,2.47,0h0Z"/>
      <path d="M54.19,141.69c-.06,1.91-2.8,1.96-2.92,0-.02-2.07,2.96-2.13,2.92,0h0ZM54.14,141.69c-.06-1.44-2.4-1.45-2.47,0-.05,1.59,2.46,1.64,2.47,0h0Z"/>
      <g>
        <g>
          <circle class="cls-9" cx="96.97" cy="105.69" r="1.01"/>
          <path d="M98.01,105.69c-.04,1.47-2.13,1.52-2.24,0-.03-1.63,2.3-1.69,2.24,0h0ZM97.96,105.69c-.06-1.01-1.72-1.01-1.79,0-.07,1.14,1.8,1.2,1.79,0h0Z"/>
        </g>
        <g>
          <circle class="cls-9" cx="100.91" cy="104.4" r=".74"/>
          <path d="M101.67,104.4c-.04,1.11-1.6,1.16-1.7,0-.04-1.27,1.78-1.33,1.7,0h0ZM101.62,104.4c-.06-.67-1.17-.65-1.25,0-.07.78,1.26.84,1.25,0h0Z"/>
        </g>
        <g>
          <circle class="cls-9" cx="103.23" cy="100.95" r=".74"/>
          <path d="M103.99,100.95c-.03,1.11-1.6,1.16-1.7,0-.04-1.27,1.78-1.33,1.7,0h0ZM103.94,100.95c-.06-.67-1.17-.65-1.25,0-.07.78,1.26.84,1.25,0h0Z"/>
        </g>
        <g>
          <circle class="cls-9" cx="101.48" cy="108.72" r="1.01"/>
          <path d="M102.52,108.72c-.05,1.47-2.13,1.52-2.24,0-.03-1.63,2.3-1.69,2.24,0h0ZM102.47,108.72c-.06-1.01-1.72-1.01-1.79,0-.06,1.14,1.79,1.2,1.79,0h0Z"/>
        </g>
        <g>
          <circle class="cls-9" cx="96.7" cy="110.82" r=".73"/>
          <path d="M97.46,110.82c-.04,1.11-1.59,1.15-1.69,0-.04-1.27,1.77-1.33,1.69,0h0ZM97.41,110.82c-.06-.67-1.16-.65-1.24,0-.07.78,1.26.84,1.24,0h0Z"/>
        </g>
        <g>
          <circle class="cls-9" cx="104.76" cy="104.67" r="1.01"/>
          <path d="M105.8,104.67c-.05,1.47-2.13,1.52-2.24,0-.03-1.63,2.3-1.69,2.24,0h0ZM105.75,104.67c-.06-1.01-1.72-1.01-1.79,0-.07,1.14,1.8,1.2,1.79,0h0Z"/>
        </g>
      </g>
      <g>
        <circle class="cls-9" cx="205.11" cy="224.01" r=".67"/>
        <path d="M205.38,224.65c-.95.38-1.56-.94-.61-1.44,1.07-.5,1.79,1.03.61,1.44h0ZM205.36,224.6c.52-.28.12-1.17-.44-1.02-.66.2-.25,1.34.44,1.02h0Z"/>
      </g>
      <g>
        <circle class="cls-9" cx="205.78" cy="226.22" r=".49"/>
        <path d="M205.98,226.7c-.73.29-1.2-.7-.47-1.11.84-.42,1.44.81.47,1.11h0ZM205.96,226.65c.34-.19.03-.73-.3-.69-.45.11-.18.92.3.69h0Z"/>
      </g>
      <g>
        <circle class="cls-9" cx="204.81" cy="228.01" r=".67"/>
        <path d="M205.08,228.64c-.95.38-1.56-.94-.61-1.44,1.07-.5,1.79,1.03.61,1.44h0ZM205.07,228.6c.52-.28.11-1.17-.44-1.02-.66.2-.25,1.34.44,1.02h0Z"/>
      </g>
      <g>
        <circle class="cls-9" cx="202.95" cy="225.06" r=".49"/>
        <path d="M203.15,225.53c-.73.29-1.2-.7-.47-1.1.84-.42,1.44.8.47,1.1h0ZM203.13,225.48c.33-.19.03-.73-.29-.69-.45.11-.18.91.29.69h0Z"/>
      </g>
      <g>
        <circle class="cls-9" cx="207.57" cy="228.14" r=".67"/>
        <path d="M207.85,228.78c-.95.38-1.56-.94-.61-1.44,1.07-.5,1.79,1.03.61,1.44h0ZM207.83,228.73c.52-.28.12-1.17-.44-1.02-.66.2-.25,1.34.44,1.02h0Z"/>
      </g>
      <path d="M52.94,174.59c-.1,2.87-4.19,2.91-4.35,0,.02-3.04,4.36-3.06,4.35,0h0ZM52.89,174.59c-.1-2.39-3.8-2.4-3.9,0,0,2.55,3.86,2.57,3.9,0h0Z"/>
      <path d="M123.69,193.39c-.09,2.68-3.91,2.72-4.06,0,.01-2.84,4.08-2.87,4.06,0h0ZM123.64,193.39c-.08-2.19-3.53-2.2-3.61,0-.01,2.36,3.58,2.38,3.61,0h0Z"/>
      <path d="M188.91,316.3c-.09,2.52-3.68,2.56-3.82,0,.01-2.69,3.85-2.71,3.82,0h0ZM188.86,316.3c-.08-2.04-3.3-2.05-3.37,0-.03,2.2,3.36,2.22,3.37,0h0Z"/>
      <path d="M180.27,337.86c-.05,1.79-2.61,1.84-2.73,0-.02-1.95,2.78-2.01,2.73,0h0ZM180.22,337.86c-.06-1.32-2.21-1.33-2.28,0-.05,1.46,2.27,1.52,2.28,0h0Z"/>
      <path d="M207.35,329.23c-.04,1.34-1.94,1.39-2.05,0-.03-1.5,2.11-1.56,2.05,0h0ZM207.3,329.23c-.06-.89-1.52-.88-1.6,0-.07,1.01,1.61,1.07,1.6,0h0Z"/>
      <path d="M200.57,311.15c-.04,1.34-1.94,1.39-2.05,0-.04-1.5,2.11-1.56,2.05,0h0ZM200.52,311.15c-.06-.89-1.52-.88-1.6,0-.07,1.01,1.61,1.07,1.6,0h0Z"/>
      <path d="M117.58,109.76c.02,11.68-14.23,17.65-22.53,9.39-5.17-4.92-5.2-13.86-.06-18.84,8.34-8.38,22.69-2.33,22.59,9.45h0ZM117.53,109.76c-.1-11.47-14.1-17.15-22.19-9.1-5.02,4.77-5.05,13.44-.06,18.26,8.13,8.17,22.23,2.4,22.25-9.16h0Z"/>
      <path d="M104.41,96.64c.34-14.84,2.48-43.4,16.37-51.73,2.35-1.34,5.1-1.93,7.8-1.78,1.51.45,2.81,1.57,3.41,3.04.26.62.96.93,1.64,1.18,4.44,1.11,6.72,3.18,6.83,7.94.21,6.06-1.42,12.05-3.8,17.57-2.34,5.62-6.51,10.13-10.57,14.55-4.07,4.41-8.25,8.81-12.56,12.95,4.11-4.35,8.31-8.7,12.32-13.17,1.99-2.24,4-4.48,5.85-6.83,3.62-4.75,5.98-10.39,7.34-16.19.79-4.23,1.87-9.06-.07-13.09-1.09-2.04-3.42-2.68-5.48-3.34-.69-.26-1.52-.6-1.87-1.42-.48-1.33-1.89-2.44-3.06-2.81-2.63-.15-5.3.41-7.6,1.71-13.87,8.25-15.97,36.8-16.54,51.42h0Z"/>
      <path d="M133.97,77.43c5.06-4.35,11.71-7.25,18.48-6.82,2.25.23,4.42-.3,6.54-1.02,0,0,3.21-.98,3.21-.98,1.06-.29,2.15-.79,3.33-.64,2.6.39,2.89,3.62,2.38,5.68,0,.13-.05.34-.1.45-.01.03.03.16.07.3,1.8,4.51-.19,8.27-3.22,11.57-2.96,3.38-6.17,6.51-9.56,9.46-3.41,2.99-7.87,4.36-12,6.05-8.39,3.01-17.16,5.79-25.56,8.26,4.22-1.51,8.49-2.84,12.73-4.26,4.24-1.42,8.47-2.87,12.65-4.47,4.08-1.66,8.49-3.01,11.85-5.95,3.38-2.9,6.62-6.01,9.58-9.35,2.99-3.22,4.94-6.83,3.21-11.21-.03-.13-.13-.28-.06-.52.08-.17.05-.22.08-.37.48-1.94.32-4.96-2.1-5.36-1.08-.15-2.13.31-3.2.61l-3.22.96c-2.12.71-4.36,1.23-6.62.98-6.73-.54-13.45,2.54-18.46,6.62h0Z"/>
      <path d="M150.75,97.97c5.87-1.16,12.75-2.25,18.1,1.12,1.65,1.28,2.84,3,4.11,4.63,3.59,4.24,2.63,8.75-.93,12.63-1.43,3.56-5.31,4.84-8.63,6.11-9.2,3.45-19.48,3.93-29.03,1.68-6.21-2.39-12.39-5.65-18.06-8.83,6,2.92,11.9,6.15,18.19,8.41,10.49,2.31,21.75,1.56,31.63-2.77,1.83-.8,3.8-1.7,4.88-3.44.37-.91,1.07-1.83,1.75-2.55,1.28-1.58,2.05-3.55,2.21-5.57.16-2.05-1.05-3.89-2.21-5.53-1.24-1.6-2.43-3.36-4.03-4.61-5.25-3.44-12.3-2.22-17.98-1.28h0Z"/>
      <path d="M135.19,124.11c6.62,4.26,14.43,9.87,16.66,17.8.46,2.05.24,4.15.2,6.23-.19,2.03-.04,4.42-1.62,5.97-1.83,1.1-3.24,2.47-4.81,3.92-1.73,1.47-4.13.75-6.12.32-4.04-.99-7.97-2.5-11.53-4.69-3.66-2.13-6.13-5.69-8.22-9.27-4.21-7.15-7.92-14.57-11.38-22.11,4.74,8.95,9.17,18.66,15.24,26.98,4.02,4.71,10.13,7.12,15.99,8.7,1.9.4,4.13,1.17,5.81-.22,1.49-1.37,3.04-2.84,4.82-3.88,1.46-1.42,1.35-3.82,1.54-5.74.06-2.04.28-4.15-.16-6.16-2.17-8.02-10.02-13.47-16.41-17.86h0Z"/>
      <path d="M99,121.68l-5.39,24.82c-1.49,6.68-3.92,19.3,2.7,23.72,1.64,1.28,3.33,2.71,5.36,3.03,3.06.27,5.95-2.16,7.34-4.75.73-1.14.76-2.62,1.63-3.7.66-.46,1.25-.88,1.7-1.55,1.7-2.64,2.31-5.84,2.88-8.9,1.01-6.18,1.38-12.9-.18-18.87,1.35,4.04,1.44,8.38,1.24,12.6-.26,4.24-.76,8.5-2.11,12.55-.55,1.5-1.24,3.11-2.57,4.1-.44.32-.8.46-.97,1.02-1.15,5.08-6.92,10.46-12.02,6.7-2.6-1.82-5.48-3.8-6.2-7.08-1.61-6.22-.49-12.79.95-18.92.05.01,5.53-24.96,5.64-24.77h0Z"/>
      <path d="M93.63,117.2c-7.68,3.29-15.45,7.18-21.31,13.24-2.9,3.05-5.44,6.43-7.72,9.96-2.09,3.56-4.73,7.09-5.55,11.19-.95,6.48,2.28,13.24,9.63,12.64,4.34-.48,7.03-4.23,10.08-6.96,3.06-2.98,6.98-4.74,10.48-7.05,1.66-1.29,3.07-2.94,4.4-4.53-1.17,1.72-2.66,3.33-4.26,4.71-3.48,2.39-7.31,4.13-10.35,7.18-3.01,2.82-5.83,6.68-10.29,7.15-7.7.64-11.13-6.4-10.09-13.19.85-4.16,3.54-7.72,5.68-11.31,2.32-3.53,4.88-6.91,7.82-9.96,5.91-5.98,13.9-10.05,21.49-13.07h0Z"/>
      <path d="M91.42,108.18c-4.29-1.39-8.64-2.58-13.04-3.56-6.59-1.46-13.39-2.59-20.02-.88-3.29.67-6.77.68-9.82,2.16-2.96,1.58-5.32,4.11-7.54,6.59-1.47,1.7-2.78,3.52-4.03,5.39-1.01,1.61-3.24,3.91-1.5,5.66,1.75,1.69,4.28,2.83,5.78,4.94.14.18.37.33.59.48,5.41,2.67,11.92,3.75,17.93,3.37,4.44-.39,9.05-1.64,13.21-2.72-4.28,1.4-8.68,2.54-13.18,3.04-2.25.25-4.54.17-6.79-.11-3.91-.55-7.95-1.23-11.44-3.16-.49-.27-.89-.82-1.22-1.25-1.47-1.64-3.55-2.64-5.23-4.25-1.97-1.95.34-4.56,1.49-6.26,1.26-1.87,2.61-3.7,4.1-5.4,2.26-2.51,4.66-5.05,7.69-6.64,3.09-1.49,6.62-1.49,9.92-2.14,6.63-1.68,13.54-.49,20.1,1.02,4.33,1.04,8.96,2.21,13,3.71h0Z"/>
      <path d="M62.99,102.72c-6.53-2.05-14.74-4.88-17.73-11.59-.75-1.58-1.06-4.01.74-5.04.54-.33,1.14-.51,1.78-.57l-.08.24c-8.09-6.82,3.57-12.99,9.59-15.04,5.62-1.26,11.35,1.1,15.68,4.57,0,0,4.44,3.35,4.44,3.35.95.91,5.56,5.2,6.41,6.08.83.95,2.48,3.15,3.28,4.15,2.85,3.72,5.77,7.46,8.5,11.24-.02.06-8.75-11.04-8.76-11.03-.79-.99-2.52-3.17-3.32-4.08-.76-.74-5.59-5.2-6.41-5.96-2.65-1.89-6.15-4.96-9.07-6.32-5.38-2.65-10.57-2.56-15.69.58-5.02,2.71-10.46,7.08-4.48,12.25.1.07.04.24-.08.24-1.14.09-2.36.7-2.73,1.82-.36,1.11-.05,2.35.41,3.44,2.99,6.81,11.17,9.44,17.52,11.67h0Z"/>
      <path d="M83.49,84.7c-1.4-3.07-2.66-6.21-3.76-9.4-1.59-4.76-3.15-9.86-2.15-14.9.43-3.1,1.4-6.58,4.4-8.15,1.4-1.21,1.62-3.31,3.02-4.73,1.95-2.15,5.12-.6,7.26.36.79.29,1.55-.19,2.37-.25,3.73-.63,6.17,2.99,7.93,5.72,1.77,2.94,2.58,6.33,2.76,9.73.31,3.35.86,6.74,1.35,10.05-.76-3.26-1.27-6.66-1.67-10.01-.23-3.35-1.08-6.65-2.87-9.5-1.68-2.56-3.91-6.06-7.44-5.49-.64.07-1.23.28-1.89.34-1.11-.1-2.02-.85-3.02-1.15-2.95-1.08-4.59-.21-5.84,2.55-.51.9-.85,2.06-1.78,2.69-2.93,1.51-3.84,4.84-4.3,7.88-1.03,5.02.46,10.04,2,14.81,1,3.18,2.46,6.49,3.61,9.45h0Z"/>
      <path d="M123.5,52.56c1.82-2.91,3.99-6.84,7.63-7.51-3.2,1.66-5.61,4.77-7.63,7.51h0Z"/>
      <path d="M135.13,48.03c1.02,4.87.62,10.46-2.1,14.72,1.74-4.65,2.88-9.88,2.1-14.72h0Z"/>
      <path d="M133.06,68.83c-2.93,5.49-6.19,10.81-9.84,15.86-3.63,5.02-7.71,9.96-12.99,13.32-.03.02-.05-.02-.03-.04,9.74-7.72,16.64-18.71,22.85-29.14h0Z"/>
      <path d="M118.68,66.89c-2.89,8.62-7.2,21.91-10.18,30.39,0,.01-.02.02-.03.02,2.56-10.3,6.66-20.56,10.21-30.41h0Z"/>
      <path d="M117.57,55.09c-7.16,12.7-9.92,27.4-10.38,41.84,0,.03-.05.03-.05,0-.48-14.44,3.13-29.53,10.43-41.84h0Z"/>
      <path d="M117.25,79.85c-2.29,5.14-5.47,12.75-7.87,17.75.67-3,2.28-6.13,3.61-9.02,1.4-2.86,2.78-6.07,4.26-8.73h0Z"/>
      <path d="M125.4,92.81c-3.23,3.26-6.16,7.25-10.27,9.39,3.48-2.97,6.99-6.39,10.27-9.39h0Z"/>
      <path d="M149.31,78.43c-4.96,4.94-10.39,9.37-16.14,13.33-5.6,4.17-10.88,8.77-16.86,12.42-.02.02-.05-.02-.03-.04,5.67-4.1,10.95-8.65,16.65-12.7,5.81-3.83,11.36-8.41,16.37-13.01h0Z"/>
      <path d="M145.73,91.89c-4.92,2.08-9.84,4.16-14.69,6.38-4.82,2.3-9.33,5.15-14.05,7.64-.03.02-.05-.03-.03-.04,8.72-6.17,18.94-10.35,28.77-13.98h0Z"/>
      <path d="M117.41,107.91c4.71-2.32,9.3-5.36,14.44-6.52-4.75,2.14-9.79,4.47-14.44,6.52h0Z"/>
      <path d="M117.43,112.09c9.03.5,18.03-.66,26.88-2.36.03,0,.04.04.01.05-8.6,2.59-18.13,3.08-26.89,2.31h0Z"/>
      <path d="M143.58,117.13c-4.53.24-9.07.26-13.6.02-4.46-.34-9.3-.56-13.17-3.06-.03-.02,0-.06.03-.04,4.07,2,8.72,2.2,13.17,2.71,4.46.38,9.24.33,13.57.38h0Z"/>
      <path d="M157.23,114.37c5.42-1.12,11.3-2.37,16.74-.9-5.54-.42-11.39.02-16.74.9h0Z"/>
      <path d="M162.46,104.13c2.25.6,4.47,1.29,6.65,2.09,2.12.83,4.61,1.65,5.99,3.55-3.75-2.62-8.54-4.02-12.65-5.64h0Z"/>
      <path d="M111.56,120.76c4.88,6.04,12.16,14.81,16.81,20.91,0,.01,0,.03,0,.04-6.14-6.4-11.51-14-16.81-20.94h0Z"/>
      <path d="M113.43,119.29c2.62,2,5.21,4.03,7.77,6.1,2.47,2.08,5.43,4.19,7.14,6.82-4.67-4.4-10.22-8.76-14.91-12.92h0Z"/>
      <path d="M115.72,116.45c4.42,3.11,9.5,5.71,13.04,9.83-4.22-3.32-8.87-6.64-13.04-9.83h0Z"/>
      <path d="M114.91,117.65c1.7,1.2,3.77,2.1,5.05,3.73-1.89-.79-3.64-2.47-5.05-3.73h0Z"/>
      <path d="M137.74,137.8c2.33,2.51,4.56,5.12,6.64,7.86,2.04,2.72,4.22,5.65,5,8.99-2.9-6.14-7.5-11.68-11.64-16.85h0Z"/>
      <path d="M140.18,149.15c2.43,2.26,5.16,4.37,7.67,6.55-1.5-.43-2.94-1.81-4.13-2.92-1.16-1.15-2.63-2.43-3.54-3.63h0Z"/>
      <path d="M123.62,146.98c6.4,5.25,13.97,9.47,22.28,10.55.03,0,.03.05,0,.05-8.41-.13-16.29-5.29-22.27-10.6h0Z"/>
      <path d="M105.36,122.83c1.24,4.65,2.33,9.34,3.28,14.07.88,4.71,1.91,9.56,1.28,14.37,0,.03-.05.02-.05,0-.13-9.57-2.67-19.23-4.5-28.43h0Z"/>
      <path d="M109.23,154.63c-.53,5.31-1.06,15.43-5.62,18.74-.03.02-.05-.02-.03-.04,2.37-2.34,3.03-5.81,3.95-8.9.81-3.17,1.22-6.71,1.7-9.8h0Z"/>
      <path d="M99.77,153.56c0,6.62.25,13.3,1.25,19.82-1.19-3.1-1.3-6.56-1.4-9.87-.04-3.27-.14-6.84.15-9.95h0Z"/>
      <path d="M103.04,122.8c-1.11,4.78-.48,9.67-.95,14.51-.35,4.85-.91,9.7-2.1,14.43,0,.03-.05.02-.05-.01.67-4.81,1.24-9.62,1.75-14.45.6-4.76-.02-9.98,1.35-14.48h0Z"/>
      <path d="M97.36,120.78c-.89,2.71-1.86,5.4-2.93,8.05-1.09,2.61-2.15,5.47-4.17,7.5,2.81-4.79,4.98-10.57,7.1-15.55h0Z"/>
      <path d="M69.62,164.3c2.4-4.82,4.7-9.72,7.99-14.02,3.5-4.1,7.06-8.11,10.82-11.97.02-.02.06.01.04.03-3.36,4.2-6.95,8.21-10.56,12.19-3.34,4.12-5.76,9.29-8.3,13.76h0Z"/>
      <path d="M79.03,141.67c4.9-6.55,11.41-16.09,16.66-22.17-4.36,6.64-11.79,15.93-16.66,22.17h0Z"/>
      <path d="M77.25,134.86c2.75-2.89,5.53-5.76,8.35-8.57,2.83-2.72,5.71-5.96,9.05-7.81-1.58,1.21-2.97,2.64-4.42,4.01-4.24,3.88-8.91,8.58-12.99,12.38h0Z"/>
      <path d="M62.44,162.78c.91-2.42,1.89-4.81,2.96-7.16,1.11-2.27,2.11-4.99,4.26-6.46-3.09,4.01-4.99,9.23-7.22,13.62h0Z"/>
      <path d="M82.13,151.7c4.87-2.88,8.25-7.65,11.71-12,.5-.58,1.02-1.48,1.53-1.88-1.59,2.82-3.52,5.44-5.76,7.79-2.18,2.27-4.72,4.85-7.49,6.09h0Z"/>
      <path d="M60.02,159.96c1.29-7.51,5.59-14.91,11.46-19.56,0,0-1.93,2.14-1.93,2.14-4.42,4.95-8.2,10.99-9.53,17.42h0Z"/>
      <path d="M64.49,112.7c8.82-1.47,17.98-2.29,26.84-.65.03,0,.02.05,0,.05-8.9-.75-18.12-.6-26.83.6h0Z"/>
      <path d="M71.1,117.15c6.91-1.32,13.93-3.22,20.98-3.08-6.83.88-14.31,2.02-20.98,3.08h0Z"/>
      <path d="M68.68,123.75c7.13-2.33,17.03-6.09,24.2-7.84-6.75,2.72-17.27,5.75-24.2,7.84h0Z"/>
      <path d="M55.88,125.25c-5.44,1.23-11.26,2.5-16.79,1.42,5.57.04,11.43-.42,16.79-1.42h0Z"/>
      <path d="M55.87,112.75c-6.75,1.09-13.58,2.67-19.66,5.82,2.67-2.2,6.17-3.24,9.49-4.06,3.3-.78,6.94-1.54,10.18-1.75h0Z"/>
      <path d="M37.14,125.2c5.16-.24,10.61-.68,15.7-1.43-2.42,1.07-5.19,1.16-7.8,1.31-2.58.09-5.46.29-7.9.12h0Z"/>
      <path d="M47.79,85.64c3.95,1.43,8.45,2.31,11.71,5.05-3.77-1.82-7.97-3.47-11.71-5.05h0Z"/>
      <path d="M68.7,95.59c3.9,1.69,7.77,3.43,11.62,5.24,3.8,1.86,7.89,3.51,11.13,6.24-6.74-3.89-15.89-7.99-22.75-11.48h0Z"/>
      <path d="M76.57,85.64c5.69,5.58,11.96,10.77,16.83,17.07-4.87-4.82-12.11-12.14-16.83-17.07h0Z"/>
      <path d="M66.87,84.25c4.91,2.25,10.24,4.51,13.92,8.56-4.33-3.23-9.21-6.18-13.92-8.56h0Z"/>
      <path d="M47.97,75.98c8.3-1.28,17.11,1.12,23.85,6.08-.85-.27-1.87-1.04-2.79-1.45-6.4-3.39-13.93-5.48-21.06-4.63h0Z"/>
      <path d="M83.16,99.28c2.97,1.92,6.66,3.53,8.88,6.19-1.35-.86-3.21-2.08-4.46-3.05.07,0-4.67-3.16-4.41-3.15h0Z"/>
      <path d="M92.88,48.22c2.05,6.07,4.88,12.37,5.44,18.67-1.6-6.13-3.67-12.74-5.44-18.67h0Z"/>
      <path d="M86.83,57.55c4.17,13.4,9.08,26.66,11.87,40.44,0,.03-.04.04-.05,0-3.59-13.3-8.02-27.37-11.82-40.44h0Z"/>
      <path d="M87.39,78.4c2.92,6.96,5.86,14.03,9.74,20.49-2.57-2.79-4.06-6.47-5.59-9.91-1.44-3.45-3.06-7.16-4.15-10.59h0Z"/>
      <path d="M99.98,72.63c.51,4.03.97,8.07,1.37,12.11.36,4.04.92,8.19.35,12.21-.28-7.92-1.18-16.55-1.72-24.32h0Z"/>
      <path d="M162.95,75.22c1.64-.11,3.04-1.07,4.68-1.17-.45.58-1.48.84-2.24.99-.74.12-1.83.41-2.44.18h0Z"/>
      <path d="M122.99,148.85c4.8,9.06,9.46,18.26,12.92,27.93,4.48,13.66,8.52,27.47,11.88,41.44,1.7,7.87,3.95,16.49,4.12,24.24,2.44-11.16,4.69-22.39,6.15-33.72.47-3.75.85-7.66.74-11.36-1.02-5.41-3.28-10.54-3.67-16.06-.16-2.72-.64-5.59.31-8.23,1.4-3.49,3.91-4.48,5.85-.67,2.75,5.02.81,10.9.54,16.28-.09.76-.47,4.44-.52,5.12,0,.65,0,2.41,0,3.09,0,0,0,8.24,0,8.24l-.26-.06c3.75-8.33,10.45-19.67,15.01-27.72-.53-2.39-.9-6.02-.87-8.85.03-1,.09-2.01.32-3l.04.14c-4.51-5.46-8.88-11.76-9.44-19.04-.07-1.8-.03-3.59.08-5.39.29-8.8,5.55-8.55,9.63-1.72,0,0-.32.05-.32.05,1.12-3.64,2.44-7.69,5.66-9.99,2.05-1.08,4.48-1.47,6.8-1.58,3.4-.24,5.63,2.7,7.09,5.4,1.47,2.72,2.54,5.87,1.95,8.99,0,0-.32-.18-.32-.18.75-.65,1.59-1.16,2.5-1.54,1.81-.82,4.11-.58,5.58.82,1.44,1.29,2.86,2.71,3.6,4.54,1.1,2.76.58,5.82.04,8.63,0,0-.2-.24-.2-.24,4.63.06,11.33.77,12.58,6.18.54,2.08,1.12,4.21.68,6.39-.95,4.07-7.5,4.86-10.92,5.89,0,0,.02-.4.02-.4,1.76.64,3.49,1.35,5.16,2.21,1.24.67,2.53,1.35,3.48,2.45.3.37.59.9.47,1.45-.32,1.92-1.64,3.61-3.41,4.39-6.59,3.08-20.91-2.59-26.43-6.83,0,0,.2.05.2.05-3.96,1.04-7.91,2.63-11.21,5.09-.56.41-1.24,1.21-1.7,1.75-4.89,6.72-7.94,14.57-11.24,22.16-2.48,6.17-5.23,12.27-6.88,18.7-1.71,6.42-2.58,13.04-3.07,19.66-.61,6.64-.33,13.28.13,19.92.31,5.82,1.07,11.6,2.06,17.33.76,7.46.99,14.96,1.31,22.45.25,6.66.46,13.31.63,19.97,0,0-.35-.03-.35-.03,0,0,5.04-23.88,5.04-23.88,1.63-7.98,3.85-15.82,6.01-23.66,1.14-3.9,2.18-7.85,3.63-11.65,1-2.82.76-6.15-.66-8.79-1.71-2.47-2.87-5.65-2.21-8.68.39-1.47,1.33-2.93,2.75-3.55,1.7-.45,2.6,1.63,3.16,2.87,1.13,2.85,1.67,5.88,2.1,8.9,0,0-.1-.02-.1-.02.81-1.58,1.76-3.07,2.7-4.56,2.87-4.45,5.81-8.93,8.84-13.23-1.91,2.93-3.97,5.87-5.89,8.83-1.91,2.96-3.92,5.89-5.56,9.01-.66-2.74-.99-6.11-2.21-8.88-.55-1.18-1.38-3.2-3-2.78-1.35.6-2.28,2.04-2.65,3.46-.64,2.98.52,6.11,2.21,8.56,1.46,2.7,1.7,6.05.69,8.95-6.26,18.06-10.65,40.38-14.52,59.2-.03.19-.35.17-.35-.03-.42-13.3-.77-26.63-1.8-39.9-.18-3.34-1.06-6.57-1.43-9.87-.79-6.62-1.21-13.28-1.4-19.94-.03-10,.96-20.05,3.45-29.75,1.68-6.47,4.41-12.58,6.92-18.76,3.31-7.61,6.39-15.5,11.31-22.27,1.04-1.32,2.42-2.41,3.87-3.23,2.95-1.62,6.2-3.19,9.49-3.71,5.33,4.14,22.86,11.49,28.06,5.14.65-.98,1.6-2.47.69-3.55-2.27-2.28-5.51-3.36-8.45-4.53-.2-.06-.17-.37.02-.4,2.74-.66,5.52-1.37,8.04-2.59,1.24-.6,2.29-1.63,2.57-2.99.42-2.03-.16-4.2-.68-6.19-1.21-5.21-7.71-5.79-12.18-5.89-.11,0-.21-.09-.21-.2.38-1.88.69-3.8.59-5.7-.07-1.9-.82-3.7-2.07-5.12-1.27-1.36-2.59-2.97-4.47-3.19-1.85-.24-3.7.69-5.1,1.87-.13.13-.35-.01-.32-.18.56-3-.47-6.08-1.9-8.74-1.43-2.59-3.45-5.44-6.76-5.21-2.2.1-4.64.5-6.61,1.52-3.12,2.23-4.42,6.24-5.51,9.77-.03.15-.25.17-.32.05-3.79-6.3-8.67-7.13-8.99,1.57-.11,1.78-.15,3.57-.08,5.35.54,7.15,4.89,13.46,9.34,18.84-.05.99-.31,2.04-.28,3.08-.08,3.01.41,6.03.82,8.99-2.67,4.86-9.2,15.79-11.55,20.62-1.19,2.34-2.34,4.7-3.48,7.07-.05.13-.27.09-.26-.06,0-2.28,0-9.19,0-11.35.04-.67.45-4.39.53-5.13.31-5.88,2.67-12.85-1.67-17.78-1.01-1.24-2.46-.63-3.27.51-2.15,2.81-1.47,6.59-1.28,9.89.38,5.51,2.63,10.64,3.65,16.04.12,3.83-.28,7.65-.75,11.43-1.48,11.34-3.73,22.57-6.19,33.73-.01.09-.16.08-.16-.01-1.56-16.36-6.14-32.27-10.61-48.03-2.4-7.85-4.53-15.81-7.66-23.4-3.11-7.56-7-15.08-10.65-22.21h0Z"/>
      <path d="M196.83,142.36c-3.3,7.14-6.07,14.61-10.48,21.16-.07.09-.2.11-.29.04-1.43-.98-3.28-1.37-5.02-1.24-.03,0-.04-.04,0-.05,1.8-.31,3.71-.06,5.28.95,0,0-.29.04-.29.04,4.22-6.53,7.36-14.09,10.81-20.88h0Z"/>
      <path d="M208.22,154.63c-1.78,8.47-8.92,15.49-17.77,15.79-.13.01-.25-.08-.26-.21-.02-.63-.21-1.31-.45-1.94-.72-1.92-2.14-3.51-3.58-4.9,1.13.76,2.14,1.8,2.95,2.92.81,1.16,1.43,2.44,1.57,3.89,0,0-.26-.24-.26-.24,9.07-.44,15.54-6.9,17.8-15.29h0Z"/>
      <path d="M210.49,172.71c-6.55-1.09-13.4-2.1-19.96-.87,3.09-1.38,6.72-1.11,10.02-.81,3.29.36,6.89.84,9.94,1.69h0Z"/>
      <path d="M175.68,165.55c1.03.76,2.47.58,3.44-.19,1-.69,1.65-1.98,1.79-3.07-.5-3.83-1.57-7.6-2.51-11.35-.91-3.73-2.05-7.69-2.71-11.34,2.34,7.41,4.38,14.96,5.47,22.67-.2,2.47-3.4,5.09-5.47,3.28h0Z"/>
      <path d="M190.56,173.05c2.72.85,6.63,1.73,9.19,2.91-2.74-.15-6.63-1.89-9.19-2.91h0Z"/>
      <path d="M205.97,177.82c3.88,1.39,8.01,2.51,11.95,3.75-1.95.08-4.19-.75-6.12-1.42-1.91-.73-4.14-1.45-5.83-2.33h0Z"/>
      <path d="M219.87,158.76c-3.34,2.69-7.32,5.34-11.7,5.63,4.1-1.3,8.29-3.17,11.7-5.63h0Z"/>
      <path d="M211.62,166.11c-6.95,1.82-13.96,3.97-21.18,4.28,0,0,.23-.26.23-.26.18,1.97.11,4.02-.66,5.86-.01.03-.06.01-.05-.02.55-1.87.49-3.87.25-5.78-.02-.13.08-.26.22-.26,7.13-.37,14.38-2.34,21.19-3.82h0Z"/>
      <path d="M204.71,141.69c-1.07,3.6-1.8,7.9-4.21,10.74,1.53-3.43,2.98-7.35,4.21-10.74h0Z"/>
      <path d="M198.02,156.6c-2,4.06-4.37,8.59-8.46,10.81,3.42-3.03,6.31-6.94,8.46-10.81h0Z"/>
      <path d="M186.65,128.25c.54,2.4,1.6,5.11.75,7.51-.19-2.46-.46-5.18-.75-7.51h0Z"/>
      <path d="M188.08,142.35c-1.48,6.66-2.2,13.67-4.83,19.97,1.41-5.69,3.35-14.34,4.83-19.97h0Z"/>
      <path d="M181.55,144.34c-.04,4.33.03,9.12.26,13.47.1,1.47.01,3.05.52,4.43-.52-.55-.58-1.44-.75-2.16-.38-2.23-.39-4.5-.37-6.75.06-2.95.03-6.2.33-8.99h0Z"/>
      <path d="M189.6,147.08c-1.62,4.47-3.43,10.99-5.54,15.16.6-2.61,1.59-5.16,2.58-7.66.04.02,2.89-7.7,2.97-7.5h0Z"/>
      <path d="M187.09,157.95c-.71,1.59-1.06,3.49-2.27,4.75.19-1.48,1.51-3.58,2.27-4.75h0Z"/>
      <path d="M170.17,141.23c-.36,5.57-.4,11.19-.02,16.73-.87-2.66-.78-5.59-.68-8.38.15-2.74.25-5.8.7-8.36h0Z"/>
      <path d="M185.66,171.06c-3.61,1.4-6.43,4.17-9.48,6.41,2.28-2.99,6.04-5.35,9.48-6.41h0Z"/>
      <path d="M181.89,165.52c.14,2.46.81,5.36-.49,7.58.29-2.47.4-5.22.49-7.58h0Z"/>
      <path d="M110.02,202.34c.41,7.33,1.55,15.1,5.83,21.24,1.46,1.97,3.44,3.54,5.2,5.29,5.4,5.15,10.76,10.41,15.31,16.34,1.48,1.99,3.02,4.08,3.91,6.38-1.15-2.18-2.6-4.25-4.17-6.18-5.9-7.2-12.76-13.61-19.34-20.17-5.29-6.13-6.56-15.21-6.76-22.89h0Z"/>
      <path d="M135.6,248.32c-7.58-6.09-15.58-12.03-21.49-19.84-.02-.02.02-.06.04-.03,6.55,7.17,14.17,13.68,21.45,19.87h0Z"/>
      <path d="M176.89,295.17c2.96-2.9,5.97-5.75,9.06-8.51,3.1-2.74,6.27-5.55,10.13-7.19,7.56-3.21,16.17-4.66,21.83-11.15-1.09,1.54-2.88,3.07-4.51,4.28-5.1,3.72-11.45,4.82-17.15,7.24-3.84,1.56-6.99,4.32-10.13,7.01-3.13,2.64-6.27,5.72-9.23,8.32h0Z"/>
      <path d="M184.25,288.31c4.09-1.87,8.22-3.64,12.41-5.27,4.18-1.6,8.5-3.32,12.96-3.77-8.62,2.27-17.2,5.82-25.36,9.04h0Z"/>
      <path d="M199.8,231.45c-3.79,5.56-9.65,8.55-13.62,1.31-2.14-2.74-2.85-6.72.85-8.51,0,0,0,.08,0,.08-3.2-2.57-8.85-6.8-8.78-11.23.07-.71.45-1.37.97-1.86-.09-1.24.16-3.17.9-4.44.74-1.44,2.39-2.09,3.95-1.92,3.21.1,5.65,2.62,7.15,5.25,0,0-.14.05-.14.05-.19-1.63-.22-3.27-.1-4.91.3-5.64,3.39-10.08,9.23-8.31,3.41-3.84,7.04-2.6,8.31,2.22.32,1.22.44,2.48.38,3.75l-.18-.08c2.6-2.59,7.21-5.43,10.44-2.32,3.04,3.43,3.97,8.34,3.38,12.8-.18,1.2-.41,2.4-1,3.5l-.15-.19c4.53-1.07,11.03-1.81,13.79,2.85.87,1.5,1.02,3.35.12,4.86,0,0-.03-.17-.03-.17,1.39,1.39,1.13,3.63-.01,5.08-2.2,2.95-5.92,4.13-9.34,4.97-1.75.39-3.52.68-5.33.71l.08-.28c3.24,2.32,9.65,6.64,9.21,11.09-1.49,4.8-6.89,8.62-11.81,6.31-2.31-.96-4.39-2.38-6.23-4.06-.59-.59-1.22-1.13-1.55-2.03l.35-.02c-.12,1.07-.47,2.1-1.07,2.99-2.03,2.87-6.16,1.62-8.81.41-3.95-1.93-5.47-6.54-5.63-10.65,0,0,.31.15.31.15-5.01,3.9-8.19,9.65-11.06,15.22-2.85,5.67-5.29,11.54-7.66,17.43-4.82,11.72-8.44,24.02-9.88,36.63,0,0-.43-.12-.43-.12,2.55-5.11,5.43-10.06,8.66-14.77,4.93-6.83,10.13-14.52,18.39-17.49,7.85-3.32,17.04-2.95,24.33-7.55.1-.08.25-.06.33.05.05.07.05.15.01.22-1.04,2.02-2.36,3.78-3.72,5.55-4.11,5.23-8.88,9.97-14.38,13.74-3.61,2.62-7.79,4.2-11.87,5.91-4.02,1.8-7.87,4.06-11.14,7.03-3.29,2.94-5.9,6.57-8.29,10.26-3.96,7.89-5.75,16.72-7.68,25.3-.88,4.33-1.64,8.75-1.92,13.14.11-4.4,1.01-8.82,1.82-13.16,1.89-8.6,3.65-17.44,7.6-25.38,2.39-3.72,4.98-7.37,8.29-10.35,3.28-3,7.15-5.3,11.18-7.12,3.02-1.35,6.17-2.43,9.01-4.15,8.38-5.15,15.69-12.48,20.67-20.96,0,0,.34.27.34.27-2.42,1.64-5.15,2.61-7.91,3.37-8.12,2.07-17.22,2.83-23.76,8.55-8.3,7.78-14.4,17.68-19.57,27.74-.1.22-.47.12-.43-.13,1.45-12.67,5.09-24.99,9.94-36.75,3.61-8.81,7.18-17.75,12.46-25.73,1.8-2.63,3.86-5.13,6.42-7.07.12-.1.31,0,.31.15.14,6.83,4.16,11.95,11.31,11.59,2.09-.26,3.26-2.42,3.45-4.35.01-.19.29-.21.35-.04.24.68.87,1.31,1.45,1.86,1.8,1.65,3.86,3.07,6.11,4,4.72,2.24,9.93-1.5,11.36-6.06.4-4.25-5.93-8.53-9.05-10.77-.13-.08-.06-.29.08-.28,3.52-.12,7.08-.91,10.3-2.36,2.86-1.18,6.83-4.76,4.19-7.88-.05-.04-.06-.11-.03-.17.36-.72.64-1.52.64-2.31-.13-.78-.36-1.58-.75-2.29-2.68-4.53-9.07-3.76-13.48-2.74-.11.04-.2-.1-.15-.19.55-1.03.8-2.23.97-3.4.59-4.38-.32-9.21-3.29-12.6-3.13-3.01-7.6-.19-10.12,2.3-.06.07-.19,0-.18-.08.06-1.23-.06-2.49-.37-3.68-1.2-4.58-4.61-5.93-7.97-2.15-6.16-1.49-8.81,2.53-9.21,8.2-.13,1.62-.1,3.26.09,4.87.02.08-.11.12-.14.05-1.48-2.59-3.87-5.08-7.03-5.18-1.52-.16-3.1.43-3.83,1.84-.77,1.34-.91,2.95-.93,4.46-.5.47-.86,1.1-.93,1.78-.07,4.36,5.57,8.61,8.72,11.14.03.02.02.06,0,.08-3.64,1.78-2.95,5.65-.82,8.39,4.1,7.38,9.71,4,13.55-1.27h0Z"/>
      <path d="M200.3,197.02c-1.75,6.9-3.13,14.39-1.09,21.37.01.03-.03.05-.05.02-1.65-3.3-1.62-7.18-1.2-10.76.43-3.55,1.16-7.41,2.34-10.63h0Z"/>
      <path d="M209.46,232.35c-4.75,4.14-12.64-2.01-14.28-6.89-1.89-4.82,1.51-8.46,6.46-6.97,5.1,1.28,11.7,8.77,7.82,13.86h0ZM209.42,232.32c3.66-4.99-3.13-12.06-7.92-13.35-4.64-1.47-7.73,1.84-6.02,6.38,1.59,4.8,9.15,11.03,13.94,6.97h0Z"/>
      <path d="M208.81,202.93c-1.91,5.4-3.27,11.34-6.7,15.99,2.47-5.06,4.68-10.89,6.7-15.99h0Z"/>
      <path d="M221.88,205.77c-4.23,4.96-9.82,12.3-14.39,16.79,3.72-5.11,10.2-12.13,14.39-16.79h0Z"/>
      <path d="M221.44,216.78c-2,1.42-4.02,2.79-6.08,4.11-2.02,1.25-4.31,2.88-6.57,3.27,4.22-2.2,8.66-5.08,12.65-7.38h0Z"/>
      <path d="M235.18,224.3c-7.99,2.4-16.12,6.27-24.64,4.85-.03,0-.03-.05,0-.05,8.48.52,16.72-2.7,24.64-4.8h0Z"/>
      <path d="M225.92,250.96c-1.04-2.4-2.6-4.51-4.07-6.62,2.16,1.27,3.41,4.45,4.07,6.62h0Z"/>
      <path d="M208.08,233.25c3.32,2.56,7.25,4.76,9.68,8.23-3.16-2.72-6.62-5.59-9.68-8.23h0Z"/>
      <path d="M202.72,232.94c.45,3.09,1.54,6.51,1,9.51-.29-1.58-.48-3.14-.57-4.74,0,0-.47-4.76-.47-4.76,0-.03.04-.04.05,0h0Z"/>
      <path d="M196.72,228.05c-1.76,1.64-3.94,3.85-6.39,3.95,0,0,3.28-1.81,3.28-1.81,1.06-.59,2.18-1.57,3.1-2.14h0Z"/>
      <path d="M194.83,222.98c-2.46-2.12-5.63-4.01-7.37-6.66,1.33,1,2.58,2.07,3.76,3.24,0,0,3.64,3.38,3.64,3.38.02.02,0,.06-.03.04h0Z"/>
      <path d="M179.9,207.39c2.15,2.52,4.68,4.81,6.34,7.67-2.43-2.15-4.5-5.17-6.34-7.67h0Z"/>
      <path d="M201.48,210.25c-.06,2.68.14,5.47,0,8.15-.58-1.1-.45-2.77-.38-4.07.12-1.31.1-2.93.38-4.08h0Z"/>
      <path d="M209.47,216.36c-1.01,1.42-2.24,3.54-3.45,4.77-.05-.76.94-1.95,1.47-2.57.63-.69,1.33-1.71,1.98-2.2h0Z"/>
      <path d="M191.17,210.16c1.29,3.33,2.77,6.66,4.79,9.58-1.55-.99-2.34-2.84-3.04-4.47-.64-1.63-1.45-3.53-1.75-5.11h0Z"/>
      <path d="M187.05,224.26c2.67-.32,5.89-.75,8.2.87-2.65-.64-5.59-.96-8.2-.87h0Z"/>
      <path d="M209.81,226c1.65.06,3.29-.47,4.89-.29-.7.49-1.6.57-2.43.53-.77-.05-1.85,0-2.46-.24h0Z"/>
      <path d="M220.58,234.8c-3.61-.64-7.77-.71-10.79-2.94,3.4,1.26,7.41,2.12,10.79,2.94h0Z"/>
      <path d="M204.04,250.26c-.14-1.96-.69-4-.3-5.93.61,1.59.4,4.32.3,5.93h0Z"/>
      <path d="M203.84,134.86c-2.65-4.8-.18-10.71,5.09-12.22,2.44-.73,4.97-.99,7.48-1.26,2.62-.5,9.67.09,9.83-3.53-.26-5.46-13.45-15.62-18.11-18.55-.11-.05-.05-.24.07-.21,5.76.72,11.39,3.04,15.57,7.14,3.56,3.49,7.34,7.41,8.63,12.37.24,1.49-.34,2.91-.85,4.29-.87,2.3-3.67,2.39-5.76,2.49-2.94.1-5.78-.74-8.62-1-1.4-.13-2.93-.03-3.95.93-3.14,3.21-3.6,8.13-.35,11.43,1.81,2.24,3.85,4.29,6.04,6.16,4.39,3.76,9.85,6.15,13.9,10.36,2.06,2.06,3.71,4.57,4.72,7.3.99,2.72,2.39,5.42,2.28,8.41.09,4.59-3.85,7.74-4.97,11.9-.36,1.41-.2,2.92-.82,4.29-1.24,2.83-4.48,4.19-7.43,3.98-.28-.01-.31-.44-.04-.49,2.08-.57,4.65-1.08,5.48-3.33.99-2.14.61-4.51.75-6.77.53-3.11,3.09-5.39,3.11-8.6.21-7.48-3.09-15.75-9.83-19.52-8.37-3.43-17.81-7.02-22.21-15.57h0ZM203.89,134.83c4.46,8.52,13.87,12,22.27,15.39,6.88,3.81,10.26,12.15,10.1,19.75.04,3.17-2.55,5.64-3.05,8.65-.07,2.68.3,5.58-1.29,7.95-1.26,1.6-3.43,2.06-5.27,2.55,0,0-.04-.49-.04-.49,2.76.2,5.81-1.05,6.96-3.68.58-1.3.44-2.82.79-4.2.3-1.47,1.09-2.76,1.84-3.99,2.53-3.52,4.16-7.75,2.41-11.99-1.36-4.06-2.96-8.2-6.12-11.22-4.03-4.2-9.47-6.58-13.86-10.36-2.2-1.89-4.25-3.96-6.08-6.23-3.37-3.44-2.88-8.62.4-11.93,1.12-1.07,2.78-1.14,4.23-1.02,2.9.28,5.71,1.12,8.58,1.02,1.39-.08,2.91-.11,4.16-.76,1.29-.69,1.61-2.26,2-3.57.5-1.36.09-2.8-.48-4.1-1.81-3.92-4.76-7.24-7.86-10.2-4.11-4.1-9.72-6.35-15.41-7.11l.07-.21c4.65,2.93,17.94,13.23,18.15,18.75-.19,3.77-7.27,3.14-9.97,3.64-2.51.26-5.04.51-7.46,1.23-5.21,1.45-7.71,7.37-5.08,12.1h0Z"/>
      <path d="M63.43,225.73c-2.85,2.89-5.78,6.9-5,11.2,2.01,6.76,5.96,13.09,11.19,17.83,7.55,7.05,15.44,3.47,24.32,2.61,1.42-.07,2.92.1,4.21.79,1.31.68,2.22,1.86,3.06,3,1.23,1.75,2.19,3.83,2.11,6.02-.21,4.24-4.76,5.06-8.09,5.8-3.93,1.11-8.72,1.73-11.26,5.23-1.65,3.69-3.08,8.39-.72,12.09,3.05,4.84,8.2,7.79,12.54,11.37,1.02.8,2.05,2.2,2.88,3.19.89,1.14,1.89,2.25,2.22,3.72,0,0-.37-.04-.37-.04.31-1.39-.5-2.89-1.27-4.04-2.13-3.18-5.5-5.15-8.29-7.66-1.67-1.57-3.07-3.53-3.72-5.76-.77-2.85-.53-6.72,2.01-8.61,4.34-3.02,9.15-5.78,14.47-6.5,4.61-1.43,8.72-6.92,9.37-11.61-.06-4.4-2.25-8.98-5.99-11.41-3.89-2.17-8.55-3.28-13-2.62-4.53.66-8.31,3.8-12.94,4.18-4.74.58-8.9-2.25-12.24-5.28-7.02-6.33-12.99-14.98-5.47-23.5h0ZM63.46,225.69c-1.77,2.45-3.51,5.13-3.5,8.23.48,7.7,6.77,13.64,12.66,17.92,3.72,2.77,8.64,3.06,12.84,1.24,2.84-1.06,5.49-2.74,8.55-3.14,4.57-.71,9.28.39,13.31,2.6,4.99,3.25,8.1,10.85,4.77,16.23-1.86,3.28-4.54,6.56-8.29,7.65-3.79.48-7.22,2.05-10.51,3.96-1.57.97-3.29,1.88-4.62,3.15-2.9,4.16-1.02,9.88,2.56,13.01,2.82,2.53,6.19,4.51,8.34,7.74.84,1.31,1.68,2.78,1.3,4.42-.05.18-.34.18-.37-.02-.29-1.35-1.29-2.49-2.13-3.57-.85-.98-1.8-2.38-2.82-3.15-4.35-3.6-9.51-6.58-12.59-11.49-2.41-3.82-.97-8.63.75-12.42,2.61-3.6,7.48-4.23,11.46-5.34,3.21-.71,7.71-1.48,7.9-5.54.08-2.13-.85-4.14-2.05-5.86-1.55-2.5-4.08-4.01-7.06-3.71-8.94.85-16.84,4.39-24.42-2.72-5.24-4.78-9.18-11.13-11.18-17.93-.74-4.35,2.1-8.38,5.12-11.25h0Z"/>
      <path d="M102.65,308.64c.2,1.52.74,4.09-.74,5.13-1.59.93-3.53.98-5.32.78-1.77-.33-3.62-.69-5.34-.07-.84.29-1.57.92-1.89,1.76-2.6,5.5,3.65,13.04,8.69,14.85,2.52,1.01,7.58,3.04,10.1,4.05,3.3,1.37,6.98,2.78,9.11,5.81,1.16,1.39,2.2,3.16,1.86,5.05-.21,2.8-2.23,4.98-2.59,7.68-.17,1.78-.33,3.61.31,5.3,1.04,2.36,2.91,4.66,5.13,5.96,0,0-.22.33-.22.33-1.14-1.31-2.17-2.71-3.02-4.23-2.53-3.8-1.3-8.65.78-12.38,1.27-4.61-.98-8.16-4.69-10.74-5.6-4.06-12.71-5.19-18.43-9.12-2.22-1.37-4.12-3.44-4.57-6.1-.39-1.65-1.18-3.5-.28-5.13,2.24-3.23,6.58-1.5,9.72-2.41,2.59-.94,2.7-4.5,1.4-6.53h0ZM102.63,308.59c1.02,1.43,1.25,3.37.56,4.98-.72,1.72-2.75,2.24-4.44,2.1-2.43.02-5.45-.18-6.97,2.06-.81,1.49-.03,3.34.35,4.88.49,2.62,2.24,4.49,4.47,5.86,5.73,3.85,12.91,4.95,18.49,9.07,2.81,2,5.43,4.98,5.18,8.64-.01.88-.09,1.75-.34,2.61-.29.81-.85,1.51-1.14,2.33-1.28,3.13-1.66,6.74.29,9.71.83,1.48,1.85,2.88,2.96,4.16.16.14-.03.43-.22.33-2.4-1.4-4.22-3.7-5.34-6.21-.66-1.75-.5-3.65-.31-5.46.34-2.73,2.4-4.94,2.62-7.69.31-1.85-.65-3.44-1.78-4.83-2.07-2.98-5.71-4.39-8.96-5.75,0,0-5.04-2.04-5.04-2.04-2.95-1.29-7.41-2.52-9.61-5.01-3.05-3.1-6.23-7.72-4.17-12.16.34-.87,1.11-1.53,1.98-1.82,2.69-.98,5.38.54,8.1.13,4.05-.38,3.71-2.58,3.33-5.9h0Z"/>
      <path d="M179.51,254.77c-.15,1.2-.13,3-1.15,3.73.03-.69.24-1.27.51-1.88.22-.61.42-1.23.59-1.86,0-.03.05-.02.05,0h0Z"/>
      <path d="M156.2,171.85c2.65,4.63,4.7,10.25,3.72,15.62-.07-5.37-1.3-10.94-3.72-15.62h0Z"/>
      <path d="M195.3,238.67c-.04-.89-.52-1.99.04-2.76.27.44.27.91.18,1.38-.07.38-.09,1.36-.23,1.37h0Z"/>
      <path d="M115.73,109.76c.05,10.02-12.27,15.19-19.37,8.08-4.45-4.24-4.48-11.94-.06-16.22,7.13-7.23,19.57-1.97,19.43,8.14h0ZM115.68,109.76c-.06-9.8-12.14-14.69-19.03-7.79-4.3,4.08-4.33,11.51-.06,15.64,6.93,7.02,19.11,2.04,19.09-7.85h0Z"/>
      <path d="M208.38,231.34c-4.04,3.47-10.62-1.66-12.03-5.79-1.6-4.08,1.28-7.15,5.46-5.9,4.35,1.13,9.82,7.32,6.56,11.69h0ZM208.34,231.31c3.06-4.18-2.67-10.09-6.66-11.18-3.89-1.24-6.44,1.54-5.02,5.32,1.37,4.05,7.62,9.26,11.68,5.86h0Z"/>
      <g>
        <path d="M155.97,346.08c.63-13.19-.2-26.42-.76-39.6-.47-13.16-1.88-26.56-8.01-38.43-1.47-2.95-3.04-5.86-4.86-8.61-3.64-5.54-8.82-9.78-13.87-13.99-5.16-4.1-10.17-8.66-13.29-14.57-2.42-4.35-3.86-9.15-5.17-13.93-1.24-4.73-2.29-10.05-.17-14.7.07-.14.3-.11.32.05.88,3.31,2.17,6.54,3.92,9.49,1.72,2.94,3.98,5.65,6.89,7.47,1.45.86,3.07,1.6,4.49,2.59,7.07,4.98,12.67,12.16,15.72,20.26,2.71,10,6.86,19.51,11.02,29,0,0-.44.09-.44.09-.34-10.99-2.49-21.87-4.59-32.64-6.58-32.3-15.39-64.55-30.96-93.78-.02-.03.03-.05.04-.02,15.7,29.18,24.74,61.39,31.4,93.7,1.11,5.4,2.06,10.83,2.92,16.27.83,5.45,1.54,10.93,1.64,16.46,0,.13-.1.23-.22.23-3.13-6.08-5.56-12.85-8.1-19.31-1.26-3.21-2.14-6.6-3.12-9.88-3.66-9.55-10.75-18.1-20.01-22.65-2.97-1.86-5.26-4.61-7-7.61-1.77-2.99-3.05-6.24-3.94-9.6l.32.05c-2.05,4.5-1.03,9.8.19,14.42,1.29,4.76,2.72,9.54,5.12,13.87,3.1,5.89,8.05,10.41,13.2,14.51,5.05,4.23,10.25,8.51,13.89,14.07,1.82,2.76,3.4,5.68,4.86,8.64,6.11,11.9,7.5,25.36,7.94,38.52.48,13.13,1.43,26.64.63,39.61h0Z"/>
        <path d="M156.01,346.07c1.07,1.05,2.56,1.88,3.14,3.29-.72-.32-1.25-.9-1.72-1.5-.43-.57-1.17-1.24-1.41-1.78h0Z"/>
      </g>
    </g>
  </g>
</svg>