<?xml version="1.0" encoding="UTF-8"?>
<svg id="Layer_1" data-name="Layer 1" xmlns="http://www.w3.org/2000/svg" viewBox="0 0 289.13 430.87">
  <defs>
    <style>
      .cls-1 {
        fill: none;
      }

      .cls-2 {
        font-family: SUIT-Regular-KSCpc-EUC-H, SUIT;
        font-size: 14px;
      }

      .cls-3 {
        fill: #c5d190;
      }

      .cls-4 {
        fill: #e8db67;
      }

      .cls-5 {
        fill: #c9c069;
      }

      .cls-6 {
        fill: #f9f1ac;
      }

      .cls-7 {
        font-family: 'IM_FELL_Double_Pica_SC', 'IM FELL Double Pica SC';
        font-size: 24px;
      }

      .cls-8 {
        fill: #f4ed98;
      }

      .cls-9 {
        fill: #f9f5d2;
      }
    </style>
  </defs>
  <g>
    <text class="cls-7" transform="translate(92.02 395.79)"><tspan x="0" y="0">FREESIA</tspan></text>
    <text class="cls-2" transform="translate(101.25 418.59)"><tspan x="0" y="0">프리지아 · 슬픔</tspan></text>
  </g>
  <g>
    <path class="cls-3" d="M167.91,232.8c.33,3.71-1.9,8.99-1.9,8.99,0,0-.08-6.84-.91-10.06s-2.14-4.87-3.79,1.15c-1.65,6.02,1.14,22,1.14,22l-5.26,30.27s-1.03-17.83-3.08-27.45c-2.05-9.62-6.93-24.88-9.23-30.91-2.31-6.03-11.37-29.93-13.81-37.43-2.45-7.5-1.38-21.11-.74-23.13.64-2.02,4.57-8.83,6.17-15.31s3.83-7.76,6.17-11.59c2.34-3.83,9.04-8.83,9.04-8.83,11.38,6.27,13.29-4.04,13.29-4.04,3.19,2.23,26.38,7.57,29.56-5.1,3.18-12.67-17.44-12.87-17.44-12.87,0,0,5.95-3.72,8.29-14.25,2.34-10.53-7.02-9.04-7.02-9.04-4.47-7.76-17.65,1.38-17.65,1.38-2.76-20.63-10.21-16.3-10.21-16.3-4.78-7.58-14.78,8.11-14.78,8.11,0,0-3.51-10.1-10.95-7.76-7.44,2.34-3.19,19.25-3.19,19.25-6.91-5.32-12.76-4.68-11.38,4.68s16.48,16.19,16.48,16.19c0,0,2.51,7.54,1.54,14.95s3.07,24.59,3.07,24.59h0s-2.46-8.64-3.51-9.61c-.77-.71-2.62.5-2.67,6.81-.06,7.67,2.4,13.74,3.06,15.83s-.28,14.98-.28,14.98c0,0-4.17-15.54-6.45-22.84s-8.01-21.61-9.29-24.74c-1.28-3.13-7.04-13.79-7.39-14.86-.36-1.07.21-4.83-.78-9.31s-3.84-8.89-4.76-14.15.14-9.17,1.78-13.44c1.64-4.27,5.05-5.33,7.68-7.82s4.41-6.11,3.98-11.16c-.43-5.05-.21-10.1,1.21-13.15,1.42-3.06,5.19-4.05,6.54-6.61,1.35-2.56,3.77-5.9,4.69-6.04s1.99,0,1.64-1.56c-.36-1.56-2.99.21-4.69,2.99s-3.7,4.62-6.97,6.26-6.33,6.82-7.46,9.67c-1.14,2.84-1.21,5.97-1.28,10.31s-2.91,8.67-2.91,8.67c4.91-4.05,4.05-10.59,4.05-10.59.57-13.01,8.25-16.78,8.25-16.78-4.83,3.7-4.76,8.89-4.62,16.42.14,7.54-2.63,9.46-4.83,11.37-2.2,1.92-5.62,5.69-7.11,9.03-1.49,3.34-2.2,12.37,1.14,19.41,3.34,7.04,2.7,13.15,2.7,13.15,0,0-7.75-15.14-9.1-18.41-1.35-3.27-1.64-8.46-1.64-10.24s2.27-12.09,1.28-15.21c-1-3.13-.56-5.23.87-11.59,1.43-6.36.18-12-3.94-19.97-4.12-7.97-9.67-10.93-13.97-12.45-4.3-1.52-6,2.42-7.34,6.54s-1.34,14.24.81,20.69c2.15,6.45,13.51,16.35,13.51,16.35.43,5.54,3.73,11.76,5.57,14.57s3.24,11.35,3.24,11.35c0,0-3.68-4-6.87-6.7-3.19-2.7-4.7-4.81-6.76-9.35-2.05-4.54-3.89-6.22-9.52-12.38-5.62-6.16-11.62-7.79-13.73-7.57s-1.08,3.19.87,9.68c1.95,6.49,6.49,9.84,9.03,11.14s2.97,1.62,7.46,5.95c4.49,4.33,10.42,3.51,10.42,3.51,0,0,3.97,2.88,9.46,9.28,5.5,6.4,16.58,30.18,16.58,30.18,11.6,24.87,18.27,56.96,18.27,56.96,0,0-9.1-12.84-13.62-18.07s-5.3-9.04-9.1-17.03c-3.8-7.99-6.42-6.02-6.42-6.02,0,0-7.14-11.39-6.88-19.84.26-8.45-.98-11.33-.98-11.33-3.47-15.26-10.67-7.14-10.67-7.14-15.59-18.6-16.31-2.36-16.31-2.36-7.01-4.32-7.73,2.75-7.73,2.75-12.97-2.03-6.68,13.82-6.68,13.82-7.07-.26-3.47,5.63.92,12.44s12.77,8.78,16.31,9.82,11.2-.92,14.34,3.34c3.14,4.26,12.7,7.53,12.7,7.53,3.8,10.54,15.73,12.89,15.73,12.89,9.77,6.09,17.14,21.07,22.22,30.47,5.08,9.39,17.14,47.35,20.31,57.76,3.17,10.41,3.22,22.6,3.22,22.6,0,0-11.63-27.12-13.23-31.41s-.51-6.34-5.77-14.84c-5.27-8.5-12.94-12.47-16.08-14.14-3.14-1.66-8.32-4.25-13.68-7.95-5.36-3.7-1.48,2.59,1.02,5.82,2.49,3.23,13.03,7.76,16.63,18.94,3.6,11.18,10.16,15.43,13.58,18.2,3.42,2.77,4.8,1.85,11.55,14.78,6.75,12.94,6.19,20.33,6.38,30.77.18,10.44-8.13,33.73-10.72,40.66-2.59,6.93-16.34,31.9-16.34,31.9,0,0,7.29-10.86,16.1-26.51,8.81-15.65,15.04-22.25,17.85-26.28,2.81-4.03,9.42-11.39,13.52-14.89,4.1-3.49,11.7-9.49,18.23-16.02,6.53-6.53,15.19-16.25,19.82-23.92,4.63-7.67,17.32-18.76,23.62-23.09,6.3-4.33,12.38-3.04,16.33-1.9,3.95,1.14,5.09.15-1.22-3.42s-14.66-.15-23.77,1.82c-9.11,1.97-15.57,4.33-26.96,13.14-11.39,8.81-21.49,33.57-24,39.42s-8,15.5-10.67,18.48c-2.67,2.98-19.55,27.56-19.55,27.56,8.82-21.49,9.76-33.82,10.87-42.3,1.11-8.48,3.01-19.97,4-26.6,1-6.63,1.82-7.69,3.23-9.51s6.87-6.63,8.45-8.74c1.58-2.11,4.64-7.92,3.52-9.56-1.11-1.64-9.86,7.75-9.86,7.75,0,0,1.94-5.57,3.58-8.57l.44-.64-.93.3-1.11.1-.91-.5-.48-.81-.37-1.73Z"/>
    <g>
      <path class="cls-1" d="M208.47,53.67l1.37,10.5c.36,2.8,2.53,5.03,5.32,5.47l3.11.49-3.11.36c-2.77.32-4.96,2.48-5.31,5.24l-1.38,10.86-1.38-10.86c-.35-2.76-2.54-4.92-5.31-5.24l-3.11-.36,3.11-.49c2.79-.44,4.96-2.67,5.32-5.47l1.37-10.5Z"/>
      <path class="cls-1" d="M63.75,161.25l.84,6.49c.36,2.8,2.53,5.03,5.32,5.47l1.05.17-1.05.12c-2.77.32-4.96,2.48-5.31,5.24l-.86,6.76-.86-6.76c-.35-2.76-2.54-4.92-5.31-5.24l-1.05-.12,1.05-.17c2.79-.44,4.96-2.67,5.32-5.47l.84-6.49Z"/>
      <path class="cls-1" d="M223.62,91.67l.52,4.02c.33,2.54,2.29,4.56,4.82,4.95h0,0c-2.5.29-4.49,2.25-4.81,4.75l-.54,4.23-.54-4.23c-.32-2.5-2.3-4.46-4.81-4.75h0,0c2.53-.4,4.49-2.42,4.82-4.95l.52-4.02Z"/>
      <circle class="cls-1" cx="139.59" cy="170.7" r="1.5"/>
      <circle class="cls-1" cx="232.62" cy="146.96" r="1.5"/>
      <circle class="cls-1" cx="225.62" cy="132.38" r="1.13"/>
      <circle class="cls-1" cx="210.41" cy="117.53" r="1.13"/>
      <circle class="cls-1" cx="237.43" cy="110.74" r=".83"/>
      <circle class="cls-1" cx="194.9" cy="104.82" r=".83"/>
      <circle class="cls-1" cx="164.55" cy="136.39" r=".83"/>
      <circle class="cls-1" cx="109.22" cy="141.45" r=".83"/>
      <circle class="cls-1" cx="55.86" cy="151.33" r=".99"/>
      <circle class="cls-1" cx="141.37" cy="53.12" r="1.54"/>
      <circle class="cls-1" cx="84.47" cy="162.88" r=".76"/>
      <circle class="cls-1" cx="138.88" cy="178.12" r="1.08"/>
      <circle class="cls-1" cx="111.94" cy="188.47" r="1.08"/>
      <path class="cls-1" d="M154.25,223.73c-.59,0-1.06-.48-1.06-1.06s.48-1.06,1.06-1.06"/>
      <circle class="cls-1" cx="191.28" cy="247.06" r="1.06"/>
      <path class="cls-8" d="M156.56,177.37s-8.04-5-9.51-14.62c-1.47-9.61-3.73-15.69,4.22-18.93,0,0,2.06-5.3,8.63-1.28,0,0,9.02-3.83,20.11,10.2,0,0,6.96-25.8,23.54-20.6,0,0,15.81.11,10.56,28.22,0,0,26.9-10.42,31.77,6.07,0,0,5.32,3.82-3.07,12.89-8.39,9.07-10.94,9.59-17.76,11.69,0,0,13.49,6.52,12.36,22.56,0,0-.15,11.02-11.24,5.77,0,0-3.52-1.2-8.17-.82s-10.94-3.67-12.96-6.44c0,0,1.65,17.54-14.84,22.03,0,0-8.54,1.5-14.31-11.24,0,0-5.06-6.19-3.32-15.75,0,0-33.03,3.48-33.11-8.29,0,0-4.82-3.02-.08-11.28,4.74-8.25,10.33-10.06,17.18-10.18Z"/>
      <path class="cls-1" d="M156.76,177.37s15.46,5.94,19.67,15.58c4.21,9.64,15.41,6.21,18.07,7.54,2.66,1.33,8.19,3.78,10.74,11.59"/>
      <path class="cls-1" d="M214.31,160.37s-11.49,23.65-28.56,39.42"/>
      <path class="cls-1" d="M183.39,199.25c6.34-35.22-3.18-46.5-3.18-46.5"/>
      <path class="cls-1" d="M188.41,200.04c19.83-16.4,36.84-9.03,36.84-9.03"/>
      <path class="cls-1" d="M172.77,207.12s6.32-3.23,8.73-8.63c0,0-.5-22.85-13.69-39.95"/>
      <path class="cls-8" d="M98.73,143.71s-7.14-11.39-6.88-19.84c.26-8.45-.98-11.33-.98-11.33-3.47-15.26-10.67-7.14-10.67-7.14-15.59-18.6-16.31-2.36-16.31-2.36-7.01-4.32-7.73,2.75-7.73,2.75-12.97-2.03-6.68,13.82-6.68,13.82-7.07-.26-3.47,5.63.92,12.44s12.77,8.78,16.31,9.82,11.2-.92,14.34,3.34,12.3,7.55,12.3,7.55l.62-1.04,1.04-.48.81.27,1.81.46,1.38.56.86.4.52.13-.38-.98-.67-1.52-.54-1.58-.44-1.67-.31-1.88.17-1.48.52-.23"/>
      <path class="cls-8" d="M85.79,87.44c-3.19-2.7-4.7-4.81-6.76-9.35-2.05-4.54-3.89-6.22-9.52-12.38-5.62-6.16-11.62-7.79-13.73-7.57s-1.08,3.19.87,9.68c1.95,6.49,6.49,9.84,9.03,11.14s2.97,1.62,7.46,5.95c4.49,4.33,10.42,3.51,10.42,3.51"/>
      <path class="cls-8" d="M83.43,68.14s-10.95-9.82-13.1-16.27c-2.15-6.45-2.15-16.57-.81-20.69s3.04-8.06,7.34-6.54c4.3,1.52,9.85,4.48,13.97,12.45,4.12,7.97,5.37,13.61,3.94,19.97s-2.15,8.44-1.16,11.57l-.54-1.33-.27-.62-1.05.08-1.05.75-1.02.94-.65,1.37-.35.46-.78-1.05-.81-1.21-.75-.59-1.27-.24-.81.27"/>
      <path class="cls-8" d="M136.86,150.92c1.59-6.49,3.83-7.76,6.17-11.59,2.34-3.83,9.04-8.83,9.04-8.83,11.38,6.27,13.29-4.04,13.29-4.04,3.19,2.23,26.38,7.57,29.56-5.1,3.18-12.67-17.44-12.87-17.44-12.87,0,0,5.95-3.72,8.29-14.25,2.34-10.53-7.02-9.04-7.02-9.04-4.47-7.76-17.65,1.38-17.65,1.38-2.76-20.63-10.21-16.3-10.21-16.3-4.78-7.58-14.78,8.11-14.78,8.11,0,0-3.51-10.1-10.95-7.76-7.44,2.34-3.19,19.25-3.19,19.25-6.91-5.32-12.76-4.68-11.38,4.68,1.38,9.36,16.48,16.19,16.48,16.19,0,0,2.51,7.54,1.54,14.95-.98,7.4,2.62,24.76,2.62,24.76l2.21.39,3.41-1.58.06.06-1.01,3.72.95-2.14Z"/>
      <path class="cls-1" d="M165.36,126.47s1.08-5.89-13.76-8.49c0,0-7.17-2.92-9.64-6.28s-7.1-1.97-7.48-.44c-.38,1.52-1.27,4.69,1.59,7.86,2.85,3.17,16.01,11.39,16.01,11.39"/>
      <path class="cls-1" d="M127.07,110.76s5.69.24,8.86,10.51c0,0,.32,1.46-.51,7.61s-1.5,14.27-1.39,17.25c.12,2.98-1.49,12.64-2.51,14.23"/>
      <path class="cls-1" d="M136.11,78.41s-3.51,8.76-3.51,13.92.82,9.48,1.44,11.11c.61,1.63,1.96,6.19,1.96,6.19-3.82-11.21-14.02-19.73-14.02-19.73"/>
      <path class="cls-1" d="M161.1,86.59s.71,7.01-1.55,12.31c-2.26,5.31-10.45,17.92-10.45,17.92"/>
      <path class="cls-1" d="M177.48,108.5s-7.53,1.8-11.49,4.2-5.87,4.17-7.5,4.81-3.68,1.13-3.68,1.13"/>
      <path class="cls-1" d="M80.19,105.4s-1.88,7.05-.51,12.19,1.14,15.53,13.71,27.87"/>
      <path class="cls-1" d="M63.89,103.05s.18,5.93,3.18,13.8c3,7.88,5.14,13.01,7.45,15.32,2.31,2.31,6.85,3.77,10.19,7.7,3.34,3.94,11.04,11.38,11.04,11.38"/>
      <path class="cls-1" d="M95.74,151.26s-1.87-.37-1.99,1.49"/>
      <path class="cls-1" d="M56.16,105.8s5.19,0,9.64,7.35"/>
      <ellipse class="cls-1" cx="198.49" cy="170.44" rx="4.99" ry="2.01" transform="translate(-12.43 325.24) rotate(-76.93)"/>
      <ellipse class="cls-1" cx="191.89" cy="171.07" rx="4.24" ry="2.01" transform="translate(-18.15 319.3) rotate(-76.93)"/>
      <ellipse class="cls-1" cx="202.29" cy="181.38" rx="4.24" ry="2.01" transform="translate(-68.14 155.08) rotate(-36.33)"/>
      <ellipse class="cls-1" cx="183.07" cy="177.37" rx="1.57" ry="3.29"/>
      <path class="cls-1" d="M190.17,174.58s-4.04,21.98-5.83,24.93"/>
      <path class="cls-1" d="M191.89,174.98s-2.19,11.07-3,13.46l7.53-14.36"/>
      <path class="cls-1" d="M197.92,175.25s-4.21,5.01-9.88,19.48c0,0,8.3-8.87,10.68-11.91"/>
      <ellipse class="cls-1" cx="139.67" cy="104.82" rx="1.66" ry="3.68" transform="translate(-5.31 7.47) rotate(-3.01)"/>
      <ellipse class="cls-1" cx="145.65" cy="97.98" rx="4.04" ry="1.66" transform="translate(18.35 218.86) rotate(-77.45)"/>
      <ellipse class="cls-1" cx="151.94" cy="98.41" rx="2.98" ry="1.28" transform="translate(-9.26 180.79) rotate(-60)"/>
      <ellipse class="cls-1" cx="152.5" cy="104.75" rx="3.05" ry="1.51" transform="translate(-14.47 184.45) rotate(-60)"/>
      <ellipse class="cls-1" cx="159.96" cy="104.29" rx="3.66" ry="1.51" transform="translate(-10.34 190.68) rotate(-60)"/>
      <path class="cls-1" d="M144.19,101.43s-.62,8.46-1.3,11.32"/>
      <path class="cls-1" d="M145.86,101.43s-1.1,5.44-1.1,9.81c0,0,3.51-8.91,5.34-10.86"/>
      <path class="cls-1" d="M151.55,100.77s-5.13,6.99-5.76,14.19"/>
      <path class="cls-1" d="M150.57,106.85s-3.25,5.55-4.35,8.39"/>
      <path class="cls-1" d="M151.55,107.49s-2.33,3.55-4.12,8.45"/>
      <path class="cls-1" d="M139.07,108.1s.19.94.16,1.7"/>
      <path class="cls-1" d="M140.92,107.49s-.31,1.28.15,3.27"/>
      <path class="cls-1" d="M157.71,106.54s-5.45,7.48-8.01,10.58"/>
      <path class="cls-1" d="M159.33,107.25s-5.96,7.23-8.76,10.28"/>
      <line class="cls-1" x1="144.76" y1="111.24" x2="144.6" y2="114.16"/>
      <path class="cls-1" d="M233.45,169.41c6.21-2.64,12.63-2.98,12.63-2.98,0,0-4.79-4.59-14.57-1.11-9.78,3.48-12.65,4.9-17.51,9.26-6.65,5.97-21.67,22.5-21.67,22.5"/>
      <path class="cls-1" d="M226.54,171.74s-12.97,3.5-31.33,23.48"/>
      <path class="cls-1" d="M231.51,181.26s9.32-1.6,13.17-3.89"/>
      <path class="cls-1" d="M201.33,192.18c14.49-8.32,24.75-9.37,24.75-9.37"/>
      <path class="cls-1" d="M232.42,174.86s-14.67,1.14-32.69,18"/>
      <path class="cls-1" d="M224.56,162.94s10.05-4.19,19.44-.68"/>
      <path class="cls-1" d="M217.73,166.93s-6.98,5.39-12.02,11.94"/>
      <line class="cls-1" x1="202.74" y1="183.49" x2="189.39" y2="199.25"/>
      <path class="cls-1" d="M203.75,132.15s-4.31,3.32-6.35,13.31"/>
      <line class="cls-1" x1="192.85" y1="166.94" x2="196.07" y2="152.75"/>
      <path class="cls-1" d="M206.83,132.86s-1.25,12.1-3.08,17.52"/>
      <line class="cls-1" x1="201.92" y1="155.79" x2="199.62" y2="165.58"/>
      <path class="cls-1" d="M211.55,151.39s-2.62,11.96-11.52,25.98"/>
      <path class="cls-1" d="M211.72,147.78s.42-8.17-.18-11.42"/>
      <path class="cls-1" d="M190.63,140.55s-3.33,10.15-3.72,18.13c-.39,7.97-.26,8.84-1.16,17.84"/>
      <path class="cls-1" d="M208.86,204.27s-8.22-7.13-19.46-4.48"/>
      <path class="cls-1" d="M217.21,210.28s7.44,2.92,9.16,9.06"/>
      <path class="cls-1" d="M231.3,212.97c2.39,2.02,3.26,7.01,3.26,7.01,0,0,2.45-9.56-13.42-17.65"/>
      <path class="cls-1" d="M224.01,199.25s9.42,2.45,13.65,11.58"/>
      <path class="cls-1" d="M218.43,200.98s-14.68-9.2-30.02-.94c0,0,7.23,16.93,2,34.06"/>
      <path class="cls-1" d="M226.54,210.28s-14.99-13.68-31.8-12.74"/>
      <path class="cls-1" d="M197.73,220.46s1.53-13.76-9.32-20.42"/>
      <path class="cls-1" d="M197.38,223.73s-1.3,6.36-4.28,9.45"/>
      <path class="cls-1" d="M187.25,199.97s3.14,10.08,2.62,20.01"/>
      <path class="cls-1" d="M186.28,233.59s.98-5.61.97-8.67"/>
      <path class="cls-1" d="M183.07,224.92s0-12.85,2.17-25.22"/>
      <path class="cls-1" d="M179.88,214.27s.97-9.94,3.92-14.9"/>
      <path class="cls-1" d="M159.71,197.8s13.74-2.17,20.64,0c-2.96,1.42-11.25,3.93-11.25,3.93"/>
      <path class="cls-1" d="M150.6,201.11s-3.71,1.33-9.5,1.69"/>
      <path class="cls-1" d="M157.81,186.1s12.72-1.24,19.33,8.23c-8.61-5.45-22.89-2.55-22.89-2.55"/>
      <path class="cls-1" d="M153.59,186.39s-13.93,3.93-13.93,12.43c0,0,5.47-4.71,10.57-5.65"/>
      <path class="cls-1" d="M158.81,182.45s6.84,1.35,11.22,5.92"/>
      <path class="cls-1" d="M152.87,181.89s-6.55.72-10.05,4.5"/>
      <path class="cls-1" d="M183.97,180.08s.37,12.49-1.08,19"/>
      <path class="cls-1" d="M182.37,180.3s.71,11.06-.3,18.45"/>
      <path class="cls-1" d="M160.1,142.55s5.93,5.62,8.99,10.2"/>
      <path class="cls-1" d="M173.62,160.69s6.32,9.91,7.38,25.36"/>
      <path class="cls-1" d="M151.47,143.82s6.7,3.02,12.95,11.01"/>
      <path class="cls-1" d="M156.76,158.15s-7.37-9.68-7.81-12.99"/>
      <path class="cls-1" d="M162.44,164.38s13.31,11.35,17.91,33.42"/>
      <path class="cls-1" d="M162.44,171.74s12.01,7.82,16.93,25.31"/>
      <path class="cls-1" d="M172.82,173.09s4.9,6.11,8.19,25.12"/>
      <path class="cls-1" d="M153.83,164.38s-6.38-6.07-7.99-10.93"/>
      <path class="cls-1" d="M161.21,101.06s5.76-14.79,17.54-15.85"/>
      <path class="cls-1" d="M170.24,94.93s5.42-6.78,8.26-7.83"/>
      <path class="cls-1" d="M176.18,95.56s4.83-4.93,6.26-6.84"/>
      <path class="cls-1" d="M169.61,99.61s-9.31,8.26-18.01,18.36"/>
      <path class="cls-1" d="M174.13,103.08s-16.44,11.47-20.42,15.31"/>
      <path class="cls-1" d="M150.89,70.29s-.14,4.18-1.19,6.92"/>
      <path class="cls-1" d="M148.34,80.67s-2.64,8.01-2.55,13.58"/>
      <path class="cls-1" d="M155.16,84.28s1.03-8.72-1.08-11.87"/>
      <path class="cls-1" d="M151.6,87.1s-1.15,8.43-1.89,10.55"/>
      <path class="cls-1" d="M146.02,72.41s-4.01,5.62-5.2,12.18"/>
      <path class="cls-1" d="M136.78,91.87s.38,9.33,1.27,11.74"/>
      <path class="cls-1" d="M125.16,70.64s-2.25,6.86.82,15.95c3.07,9.09,7.91,18.16,7.91,18.16"/>
      <path class="cls-1" d="M129.13,77.47s3.07,9.91,3.54,13.53"/>
      <path class="cls-1" d="M131.26,79.76s1.85,4.95,1.95,7.94"/>
      <path class="cls-1" d="M111.34,88.11s0,4.67,6.16,7.88"/>
      <path class="cls-1" d="M119.97,97.22s10.54,5.38,14.5,14.03"/>
      <path class="cls-1" d="M123.5,103.08s7.62,4.82,10.54,9.62"/>
      <path class="cls-1" d="M145.15,114.55s2.08,2.64,1.97,7.67"/>
      <path class="cls-1" d="M152.5,118.14s2.96,2.91,2.83,8.15"/>
      <path class="cls-1" d="M155.95,118.94s3.39,2.44,4.01,6.97"/>
      <path class="cls-1" d="M179.81,118.64s10.69.15,14.26,4.93"/>
      <path class="cls-1" d="M174.95,118.14s-9.9-1.65-17.46,1.27c0,0,3.49-2.14,6.93-3.47s7.78-2.55,16.97-2.37c9.19.18,13.83,5.97,13.83,5.97"/>
      <path class="cls-1" d="M176.35,123.03s-10.03-2.51-15.5-2.21"/>
      <path class="cls-1" d="M132.98,136.39s.93-16.57,0-21.42"/>
      <path class="cls-1" d="M135.65,145.46s1.13-9.5,5.98-21.87"/>
      <path class="cls-1" d="M138.06,142.55s6.52-10.71,11.27-13.78"/>
      <path class="cls-1" d="M142.46,132.69s1.79-2.84,4.07-5.76"/>
      <path class="cls-1" d="M72.08,25.82s8.16,1.99,14.49,13.65c6.33,11.66,3.1,29.9,3.1,29.9"/>
      <path class="cls-1" d="M72.08,28.71s-.93,13.61,5.4,22.87c6.34,9.26,9.18,15.82,9.18,15.82"/>
      <path class="cls-1" d="M74.34,29.74s.46,5.89,5,13.18"/>
      <path class="cls-1" d="M85.02,46.85s4.31,10.11,5.24,17.35"/>
      <path class="cls-1" d="M70.15,35.64s-.58,8.22,4.23,16.77c4.81,8.55,8.47,11.8,8.47,11.8"/>
      <path class="cls-1" d="M81.28,29.18s8.29,6.79,10.02,14.75,1.27,15.22,1.27,15.22"/>
      <path class="cls-1" d="M83.71,107.89s5.41,10.25,5.88,20.16"/>
      <path class="cls-1" d="M83.71,116.06s.45,5.21,1.52,7.53"/>
      <path class="cls-1" d="M68.04,96.5s.46,3.87,4.09,7.74"/>
      <path class="cls-1" d="M75.76,108.1s2.51,3.3,3.42,5.05"/>
      <path class="cls-1" d="M74.32,116.77s2.75,7.88,10.73,18.02"/>
      <path class="cls-1" d="M69.09,112.7c0,.53,1.77,4.69,3.37,7.13"/>
      <path class="cls-1" d="M48.56,108.72s7.86,4.97,13.18,10.9"/>
      <path class="cls-1" d="M60.32,113.76s12.7,15.74,14.19,18.41"/>
      <path class="cls-1" d="M49.48,111.99s3.04,5.64,8.45,9.6,10.12,6.91,10.12,6.91"/>
      <path class="cls-1" d="M51.9,128.77s5.58,7.23,13.11,9.18c7.53,1.95,10.57,2.77,12.46,3.51s3.66,1.69,6.23,4.01c2.57,2.32,10.24,6.53,10.24,6.53"/>
      <path class="cls-1" d="M94.74,151.23s-7.67-5.14-9.7-6.46-6.74-4.7-10.73-5.85-12.23-6.75-12.23-6.75"/>
      <path class="cls-1" d="M66.87,132.17s8.87,4.18,16.83,11.7"/>
      <path class="cls-1" d="M49.48,119.61s2.19,5.21,11.15,6.66,15.12,6.93,15.12,6.93"/>
      <path class="cls-1" d="M80.49,85.01s-15.57-24.68-24.71-26.87"/>
      <path class="cls-1" d="M56.16,61.16s1.63,10.85,11,16.31,8.6,5.77,8.6,5.77"/>
      <path class="cls-1" d="M58.76,63.45s4.31,6.56,9.38,10c5.07,3.44,6.63,6.87,6.63,6.87"/>
      <path class="cls-1" d="M83.55,88.42s1.59-.49.15-2.91"/>
      <path class="cls-1" d="M83.84,68.22s2-3.76,5.21,2.42c0,0,1.78-4.88,4.44-3.74"/>
      <path class="cls-8" d="M179.63,227.52l-3.1,2.38-2.8,2.97-1.83,2.08-.34.59-.93.3-1.1-.17-.93-.55-.42-.85-.3-3.18-.04-3.25.23-2.9s.2-3.43.2-3.51.23-2.75.23-2.75l.31-1.98.18-3.03.18-3.15-.05-2.47-.03-2.24s7.32-.23,7.45-.2,2.01,7.93,2.06,8.01,1.05,13.89,1.05,13.89Z"/>
      <g>
        <ellipse class="cls-5" cx="198.26" cy="170.64" rx="4.99" ry="2.01" transform="translate(-12.8 325.17) rotate(-76.93)"/>
        <ellipse class="cls-4" cx="191.66" cy="171.27" rx="4.24" ry="2.01" transform="translate(-18.52 319.22) rotate(-76.93)"/>
        <ellipse class="cls-5" cx="202.06" cy="181.58" rx="4.24" ry="2.01" transform="translate(-68.3 154.98) rotate(-36.33)"/>
        <ellipse class="cls-5" cx="182.84" cy="177.57" rx="1.57" ry="3.29"/>
        <path class="cls-5" d="M189.94,175.06s-4.04,20.12-4.85,22.51l6.61-22.46"/>
        <path class="cls-5" d="M197.69,175.44s-6.72,8.3-12.39,22.77c0,0,8.45-20.64,10.83-23.68"/>
        <path class="cls-5" d="M182.22,180.59s1.1-1.5,1.34.15c.44,3.02.85,12.03-.86,18.26-.19.68-.69-.9-.93-.22"/>
      </g>
      <g>
        <ellipse class="cls-5" cx="151.55" cy="98.32" rx="2.91" ry="1.2" transform="translate(-13.98 170.67) rotate(-56.58)"/>
        <ellipse class="cls-4" cx="152.35" cy="104.72" rx="2.98" ry="1.36" transform="translate(-18.95 174.22) rotate(-56.58)"/>
        <ellipse class="cls-4" cx="145.21" cy="97.89" rx="4.09" ry="1.71" transform="translate(17.02 217.19) rotate(-76.93)"/>
        <ellipse class="cls-5" cx="159.67" cy="104.31" rx="3.62" ry="1.53" transform="translate(-10.5 190.43) rotate(-60)"/>
        <ellipse class="cls-4" cx="139.31" cy="104.81" rx="1.57" ry="3.62"/>
        <path class="cls-5" d="M143.95,101.55s-.46,8.72-1.27,11.11l1.47,1.01,1.24-12.23"/>
        <path class="cls-5" d="M151.03,101.04s-5.25,7.8-5.56,13.84c-.07,1.35-.52-.43-2.36-1.61,0,0,4.12-9.85,6.5-12.89"/>
        <path class="cls-5" d="M151.09,107.5s-2.14,2.93-3.77,8.34c-.06.19.42.34-1.4-.7,0,0,2.07-5.32,4.43-8.01"/>
        <path class="cls-5" d="M158.19,108.36s-4.71,5.31-7.67,8.95c-.13.16.39,1.04-1.21-.43,0,0,6.3-8.2,9.21-10.94"/>
        <path class="cls-5" d="M138.97,108.6s1.5-.79,1.45.35c-.14,3.04-.29-4.15.32,1.4.08.7-1.56-1.15-1.81-.47"/>
      </g>
      <polygon class="cls-5" points="183.9 199.37 185.54 199.74 192.64 192.75 195.29 189.18 197.5 186.78 199.17 184.21 198.31 183.09 194.91 186.98 191.25 190.93 188.16 194.22 187.71 194.7 188.49 192.69 189.72 189.59 191.55 185.78 194.32 179.4 191.05 183.17 189.39 186.72 188.9 187.95 189.2 186.3 190.73 178.57 189.33 181.39 188.27 182.04 187.3 187.42 185.77 194.82 183.9 199.37"/>
      <path class="cls-9" d="M72.08,217.92s-2.2,2.88,1.23,6.81c3.43,3.93,5.85,4.09,4.26,10.03-1.59,5.93-2.76,10.28,2.26,13.03,5.01,2.76,12.53,5.93,12.62,13.12.08,7.18-.84,15.12,15.37,20.13,0,0,13.62,1,12.53,13.37-1.09,12.36,10.11,10.11,13.2,12.36s5.85,6.18,5.18,11.45c0,0,6.43-10.53-1.92-16.54-8.35-6.02-8.77-5.26-9.36-11.28s-.75-10.86-7.52-12.78-13.12.75-18.71-3.26c-5.6-4.01-7.44-8.35-6.93-15.71.5-7.35-8.35-9.69-10.69-11.95s-5.6-5.51-4.85-10.61,1.92-7.18-.67-9.44c-2.59-2.26-7.22-4.92-5.99-8.73Z"/>
      <path class="cls-6" d="M208.14,53.67l1.37,10.5c.36,2.8,2.53,5.03,5.32,5.47l3.11.49-3.11.36c-2.77.32-4.96,2.48-5.31,5.24l-1.38,10.86-1.38-10.86c-.35-2.76-2.54-4.92-5.31-5.24l-3.11-.36,3.11-.49c2.79-.44,4.96-2.67,5.32-5.47l1.37-10.5Z"/>
      <path class="cls-6" d="M86.9,178.78l1.37,10.5c.36,2.8,2.53,5.03,5.32,5.47l3.11.49-3.11.36c-2.77.32-4.96,2.48-5.31,5.24l-1.38,10.86-1.38-10.86c-.35-2.76-2.54-4.92-5.31-5.24l-3.11-.36,3.11-.49c2.79-.44,4.96-2.67,5.32-5.47l1.37-10.5Z"/>
      <path class="cls-6" d="M63.42,161.25l.84,6.49c.36,2.8,2.53,5.03,5.32,5.47l1.05.17-1.05.12c-2.77.32-4.96,2.48-5.31,5.24l-.86,6.76-.86-6.76c-.35-2.76-2.54-4.92-5.31-5.24l-1.05-.12,1.05-.17c2.79-.44,4.96-2.67,5.32-5.47l.84-6.49Z"/>
      <path class="cls-6" d="M223.29,91.67l.52,4.02c.33,2.54,2.29,4.56,4.82,4.95h0,0c-2.5.29-4.49,2.25-4.81,4.75l-.54,4.23-.54-4.23c-.32-2.5-2.3-4.46-4.81-4.75h0,0c2.53-.4,4.49-2.42,4.82-4.95l.52-4.02Z"/>
    </g>
    <g>
      <path d="M206.15,53.64l1.5,10.88c.49,2.72,2.88,4.82,5.61,5.07,0,0,2.71.41,2.71.41.14.02.14.23,0,.25,0,0-2.74.32-2.74.32-2.74.15-5.17,2.33-5.51,5.06,0,.01-1.36,10.97-1.37,10.98-.02.22-.37.23-.4,0-.51-3.65-.98-7.31-1.45-10.96-.24-1.76-1.36-3.36-2.9-4.22-1.35-.85-3.74-.83-5.28-1.06-.28-.02-.29-.46-.01-.49,0,0,2.71-.4,2.71-.4,2.7-.24,5.05-2.29,5.55-4.97,0,0,.8-5.49.8-5.49.28-1.81.55-3.59.79-5.38h0ZM206.15,53.69c-.47,3.66-.77,7.23-1.27,10.87-.32,1.85-1.5,3.53-3.13,4.48-1.42.9-3.75,1.01-5.36,1.33,0,0-.01-.49-.01-.49l2.75.32c2.89.15,5.51,2.49,5.87,5.39.49,3.66.93,7.32,1.36,10.98h-.4s1.44-10.98,1.44-10.98c.37-2.86,2.95-5.14,5.8-5.28,0,0,2.75-.31,2.75-.31v.25s-2.71-.44-2.71-.44c-5.99-.92-5.83-5.87-6.41-10.67,0,0-.67-5.45-.67-5.45h0Z"/>
      <path d="M84.91,178.75l1.5,10.88c.49,2.72,2.88,4.82,5.61,5.07,0,0,2.71.41,2.71.41.14.02.14.23,0,.25,0,0-2.74.32-2.74.32-2.74.15-5.17,2.33-5.51,5.06,0,.01-1.36,10.97-1.37,10.98-.02.22-.37.23-.4,0-.51-3.65-.98-7.31-1.45-10.96-.24-1.76-1.36-3.36-2.9-4.22-1.35-.85-3.74-.83-5.28-1.06-.28-.02-.29-.46-.01-.49,0,0,2.71-.4,2.71-.4,2.7-.24,5.05-2.29,5.55-4.97,0,0,.8-5.49.8-5.49.28-1.81.55-3.59.79-5.38h0ZM84.91,178.8c-.47,3.66-.77,7.23-1.27,10.87-.32,1.85-1.5,3.53-3.13,4.48-1.42.9-3.75,1.01-5.36,1.33,0,0-.01-.49-.01-.49l2.75.32c2.89.15,5.51,2.49,5.87,5.39.49,3.66.93,7.32,1.36,10.98,0,0-.4,0-.4,0,0,0,1.44-10.98,1.44-10.98.37-2.86,2.95-5.14,5.8-5.28,0,0,2.75-.31,2.75-.31v.25s-2.71-.44-2.71-.44c-5.99-.92-5.83-5.87-6.41-10.67,0,0-.67-5.45-.67-5.45h0Z"/>
      <path d="M61.43,161.23c.19,1.33.65,4.6.83,5.88.16,2.63,1.93,5.05,4.49,5.78.61.19,1.27.25,1.92.36.07.01.11.08.1.14,0,.06-.06.1-.11.1-.66.09-1.32.13-1.94.31-2.6.68-4.29,3.16-4.37,5.79,0,0-.24,1.97-.24,1.97l-.48,3.94c0,.11-.11.2-.22.19-.09-.01-.16-.09-.17-.17-.19-1.33-.65-4.63-.8-5.91-.08-3.45-2.84-5.98-6.25-5.99-.14-.02-.23-.14-.22-.28.01-.11.1-.2.21-.22.65-.1,1.31-.16,1.91-.35,1.84-.54,3.38-1.98,4.04-3.79.39-1.05.51-2.77.72-3.9.22-1.32.43-2.59.6-3.87h0ZM61.43,161.28c-.41,2.61-.34,5.29-1.01,7.83-.84,2.66-3.48,4.31-6.17,4.52,0,0-.01-.49-.01-.49.65.08,1.33.12,2,.31,2.75.69,4.59,3.36,4.68,6.11.17,1.27.56,4.61.71,5.92,0,0-.4,0-.4,0h0s.52-3.95.52-3.95l.26-1.97c.12-2.01,1.06-4.05,2.8-5.16,1.11-.79,2.5-1.03,3.82-1.13,0,0,0,.25,0,.25-3.41-.16-6.39-2.88-6.5-6.36-.15-1.26-.55-4.57-.7-5.86h0Z"/>
      <path d="M113.07,247.03c.29,1.47.35,3.68.95,5.02.68,1.51,2.15,2.61,3.78,2.86,0,0,.04,0,.04,0h0c0-.05,0,.47,0,.25-1.67.19-3.17,1.34-3.79,2.88-.51,1.33-.54,3.55-.78,5,0,.11-.11.2-.22.19-.09-.01-.16-.09-.17-.17-.28-1.43-.36-3.66-.87-4.96-.63-1.5-2.09-2.62-3.72-2.8,0,.44-.02-.6-.01-.5h0s.04,0,.04,0c4.08-.71,4.23-4.42,4.75-7.76h0ZM113.07,247.08c-.28,1.77-.06,3.38-.72,5.07-.66,1.59-2.18,2.79-3.87,3.11,0,0-.08.02-.08.02h-.04s0,0,0,0c0,.11-.02-.94,0-.49,2.27.22,4.23,2.12,4.49,4.39.11.82.34,2.97.43,3.82,0,0-.42.02-.4-.01.28-1.53.31-3.63.88-5.08.69-1.64,2.3-2.82,4.06-3,.02-.22,0,.29,0,.25-.02,0-.1-.02-.13-.03-2.63-.43-4.32-2.98-4.32-5.53,0,0-.29-2.54-.29-2.54h0Z"/>
      <path d="M221.3,91.65c.32,1.65.38,4.13,1.06,5.64.77,1.7,2.41,2.95,4.25,3.23,0,0,.04,0,.04,0h.01c0-.05,0,.47,0,.25-1.88.22-3.57,1.51-4.28,3.24-.58,1.51-.61,3.99-.88,5.62,0,.11-.11.2-.22.19-.09-.01-.16-.09-.17-.17-.3-1.55-.41-4.23-.96-5.59-.71-1.71-2.38-2.96-4.22-3.16,0,.44-.02-.6-.01-.5h0s.04,0,.04,0c1.81-.26,3.43-1.47,4.2-3.14.7-1.67.78-3.82,1.14-5.61h0ZM221.3,91.7c-.32,1.97-.09,3.8-.84,5.69-.75,1.77-2.43,3.12-4.32,3.48,0,0-.09.02-.09.02h-.05s0,.01,0,.01c0,.11-.02-.94,0-.49,2.54.26,4.7,2.38,5.01,4.91.13.92.4,3.34.5,4.29,0,0-.4,0-.4,0h0c.31-1.72.34-4.09.98-5.71.77-1.84,2.58-3.17,4.55-3.37,0-.22,0,.3,0,.25-.03,0-.12-.02-.15-.03-1.86-.34-3.51-1.66-4.26-3.39-.68-1.58-.65-3.97-.92-5.65h0Z"/>
      <path d="M138.8,170.7c-.06,2.12-3.1,2.16-3.23,0,0-2.28,3.25-2.34,3.23,0h0ZM138.75,170.7c-.06-1.64-2.72-1.65-2.78,0-.04,1.8,2.77,1.82,2.78,0h0Z"/>
      <path d="M231.83,146.96c-.06,2.12-3.1,2.16-3.23,0,0-2.28,3.25-2.34,3.23,0h0ZM231.78,146.96c-.06-1.64-2.72-1.65-2.78,0-.04,1.8,2.77,1.82,2.78,0h0Z"/>
      <path d="M224.46,132.38c-.05,1.63-2.38,1.68-2.49,0-.03-1.79,2.54-1.85,2.49,0h0ZM224.41,132.38c-.06-1.17-1.97-1.17-2.04,0-.06,1.31,2.04,1.36,2.04,0h0Z"/>
      <path d="M209.25,117.53c-.05,1.63-2.38,1.68-2.49,0-.03-1.79,2.54-1.85,2.49,0h0ZM209.2,117.53c-.06-1.17-1.97-1.17-2.04,0-.06,1.31,2.04,1.36,2.04,0h0Z"/>
      <path d="M235.97,110.74c-.04,1.23-1.78,1.28-1.88,0-.04-1.39,1.95-1.45,1.88,0h0ZM235.92,110.74c-.06-.79-1.35-.77-1.43,0-.07.9,1.44.96,1.43,0h0Z"/>
      <path d="M193.44,104.82c-.04,1.23-1.78,1.28-1.88,0-.04-1.39,1.95-1.45,1.88,0h0ZM193.39,104.82c-.06-.79-1.35-.77-1.43,0-.07.9,1.44.96,1.43,0h0Z"/>
      <path d="M163.08,136.39c-.04,1.23-1.78,1.28-1.88,0-.04-1.39,1.95-1.45,1.88,0h0ZM163.03,136.39c-.06-.79-1.35-.77-1.43,0-.07.9,1.44.96,1.43,0h0Z"/>
      <path d="M116.86,121.58c-.04,1.23-1.78,1.28-1.88,0-.04-1.39,1.95-1.45,1.88,0h0ZM116.81,121.58c-.06-.79-1.35-.77-1.43,0-.07.9,1.44.96,1.43,0h0Z"/>
      <path d="M116.03,129.59c-.04,1.23-1.78,1.28-1.88,0-.04-1.39,1.95-1.45,1.88,0h0ZM115.98,129.59c-.06-.79-1.35-.77-1.43,0-.07.9,1.44.96,1.43,0h0Z"/>
      <path d="M107.76,141.45c-.04,1.23-1.78,1.28-1.88,0-.04-1.39,1.95-1.45,1.88,0h0ZM107.71,141.45c-.06-.79-1.35-.77-1.43,0-.07.9,1.44.96,1.43,0h0Z"/>
      <path d="M54.56,151.33c-.04,1.45-2.1,1.49-2.21,0-.03-1.61,2.27-1.66,2.21,0h0ZM54.51,151.33c-.06-.99-1.68-.99-1.76,0-.07,1.11,1.77,1.17,1.76,0h0Z"/>
      <path d="M140.62,53.12c-.06,2.17-3.18,2.22-3.3,0,0-2.33,3.32-2.39,3.3,0h0ZM140.56,53.12c-.06-1.69-2.79-1.7-2.85,0-.04,1.85,2.85,1.87,2.85,0h0Z"/>
      <path d="M114.98,28.11c-.05,1.56-2.26,1.6-2.37,0-.03-1.71,2.43-1.77,2.37,0h0ZM114.93,28.11c-.06-1.09-1.85-1.09-1.92,0-.06,1.23,1.92,1.28,1.92,0h0Z"/>
      <path d="M82.94,162.88c-.04,1.15-1.65,1.19-1.75,0-.04-1.3,1.83-1.37,1.75,0h0ZM82.89,162.88c-.06-.7-1.22-.69-1.3,0-.07.82,1.31.88,1.3,0h0Z"/>
      <path d="M137.67,178.12c-.05,1.57-2.28,1.61-2.39,0-.03-1.73,2.45-1.79,2.39,0h0ZM137.62,178.12c-.06-1.11-1.87-1.11-1.94,0-.06,1.24,1.94,1.3,1.94,0h0Z"/>
      <path d="M110.73,188.47c-.05,1.57-2.28,1.61-2.39,0-.03-1.73,2.45-1.79,2.39,0h0ZM110.68,188.47c-.06-1.11-1.87-1.1-1.94,0-.06,1.24,1.94,1.3,1.94,0h0Z"/>
      <path d="M104.32,232.1c-.06,2.07-3.03,2.11-3.15,0,0-2.23,3.17-2.29,3.15,0h0ZM104.27,232.1c-.06-1.59-2.64-1.6-2.7,0-.04,1.75,2.7,1.77,2.7,0h0Z"/>
      <path d="M153.02,222.67c-.05,1.54-2.24,1.59-2.35,0-.03-1.7,2.41-1.76,2.35,0h0ZM152.97,222.67c-.06-1.08-1.83-1.08-1.9,0-.06,1.21,1.9,1.27,1.9,0h0Z"/>
      <path d="M174.85,261.98c-.05,1.54-2.24,1.59-2.35,0-.03-1.7,2.41-1.76,2.35,0h0ZM174.8,261.98c-.06-1.08-1.83-1.08-1.9,0-.06,1.21,1.9,1.27,1.9,0h0Z"/>
      <path d="M190.05,247.06c-.05,1.54-2.24,1.59-2.35,0-.03-1.7,2.41-1.76,2.35,0h0ZM190,247.06c-.06-1.08-1.83-1.08-1.9,0-.06,1.21,1.9,1.27,1.9,0h0Z"/>
      <path d="M154.42,177.36c-4.39-2.96-7.81-7.6-9.16-12.76-.77-4.45-1.88-8.9-1.82-13.45-.05-3.49,2.64-6.34,5.64-7.35.68-1.57,2.23-2.74,3.95-2.81,1.69-.12,3.34.67,4.78,1.49,6.72-2.1,13.77,2.99,18.21,7.92,0,0,1.94,2.28,1.94,2.28l-.17.03c2.6-8.07,6.68-17.2,15.01-20.62,2.78-1.04,5.86-.95,8.67-.08,1.97.11,4.23,1.02,5.89,2.31,4.02,3.16,5.44,8.45,5.76,13.34.25,4.09-.29,8.66-.97,12.71,0,0-.2-.17-.2-.17,10.15-3.54,27.73-7.21,32,6.16,4.74,4.74-1.72,11.85-5.49,15.57-2.13,2.16-4.35,4.28-6.97,5.9-2.61,1.65-5.6,2.46-8.49,3.35l.03-.38c7.23,3.88,12.25,11.54,12.53,19.78.41,8.37-3.26,12.78-11.57,8.95-1.81-.55-3.74-.81-5.65-.87-1.92-.04-3.93.3-5.81-.3-3.75-1.08-7.29-3.13-9.79-6.17,0,0,.42-.16.42-.16.39,7.21-2.26,15.06-8.41,19.22-1.93,1.45-4.31,2.34-6.59,3.07-6.96.57-12-5.63-14.57-11.39-3.17-4.28-4.32-10.47-3.3-15.87,0,0,.19.21.19.21-8.66.6-24.65,1.6-31.39-4.3-1.12-1.07-1.85-2.6-1.84-4.17-.81-.46-1.96-2.22-2.04-3.51-.56-4.27,2.01-8.19,4.48-11.43,3.42-4.57,9.18-6.67,14.74-6.52h0ZM154.47,177.38c-5.63-.02-11.26,1.97-14.69,6.59-2.43,3.23-4.96,7.12-4.4,11.32.21,1.35.93,2.66,2.03,3.46.09,1.52.67,3.04,1.83,4.1,6.7,5.79,22.64,4.72,31.2,4.1.1,0,.18.06.19.16-.19,1.37-.38,2.74-.34,4.13.02,4.08,1.26,8.25,3.68,11.55,2.47,5.56,7.48,11.59,14.05,11.09,1.02-.36,2.41-.75,3.35-1.23,0,0,1.59-.8,1.59-.8,6.94-3.77,10.17-12.1,9.72-19.74-.03-.24.3-.33.42-.16,1.14,1.49,2.71,2.67,4.31,3.69,2.42,1.46,5.15,2.7,8.01,2.68,2.9-.2,5.87-.03,8.69.83,8.01,3.74,11.37-.44,10.99-8.5-.26-8.07-5.21-15.63-12.28-19.43-.17-.08-.14-.33.03-.38,2.89-.9,5.84-1.69,8.4-3.3,2.56-1.58,4.77-3.68,6.9-5.83,3.55-3.71,10.17-10.18,5.42-15.2-4.2-13.15-21.59-9.41-31.55-5.98-.11.05-.22-.06-.21-.17,0,0,.63-4.19.63-4.19.6-4.86.67-9.94-.73-14.67-.57-1.51-1.33-3.41-2.38-4.66-1.85-2.52-4.81-4.31-7.95-4.53-9.31-3.14-16.56,4.68-20.24,12.39-1.39,2.57-2.28,5.57-3.32,8.17-.02,0-.04-.02-.05-.03l-1.92-2.28c-4.49-4.94-11.14-9.9-18.15-7.92-1.4-.8-3.04-1.6-4.69-1.48-1.71.06-3.18,1.24-3.88,2.75-3.11,1.14-5.65,3.82-5.62,7.28-.07,4.51,1.03,8.99,1.79,13.42,1.35,5.21,4.72,9.71,9.13,12.8h0Z"/>
      <path d="M154.46,177.35c7.13,3.03,14.5,7.04,18.85,13.7,0,0,1.84,3.47,1.84,3.47.75,1.04,1.54,2.08,2.61,2.81,3.74,2.86,8.68,2.38,13.13,2.61.65.05,1.41.27,1.95.59,2.35,1.16,4.61,2.66,6.36,4.66,1.74,1.98,3.06,4.4,3.74,6.91-.95-2.42-2.19-4.79-3.98-6.7-1.76-1.92-3.99-3.32-6.35-4.42-1.11-.66-2.4-.59-3.72-.62-5.19.15-11.19-.79-14.06-5.65,0,0-1.81-3.49-1.81-3.49-4.2-6.67-11.73-10.71-18.57-13.87h0Z"/>
      <path d="M197.21,184.4c-4.13,5.42-8.47,11.26-13.8,15.37,4.19-4.37,10.14-10.83,13.8-15.37h0Z"/>
      <path d="M212.01,160.38c-2.89,5.81-5.86,11.76-9.89,16.84,1.28-2.5,3.52-5.95,5.01-8.39,1.7-2.71,3.32-5.81,4.88-8.45h0Z"/>
      <path d="M181.05,199.24c1.57-9.67,2.6-19.77,1.61-29.55-.67-5.82-1.61-11.89-4.78-16.93-.02-.02.02-.06.04-.03,8.04,11.47,5.67,33.46,3.14,46.51h0Z"/>
      <path d="M186.08,200.02c9.91-8.38,24.15-14.04,36.87-9.03.03.01,0,.06-.02.05-8.67-2.69-18.27-1.42-26.39,2.41-2.08,1-4.51,2.41-6.44,3.67-1.35.87-2.76,2.16-4.02,2.9h0Z"/>
      <path d="M170.44,207.09c3.56-2.03,6.9-4.88,8.64-8.66-.2-3.29-.68-7.12-1.36-10.54-1.74-8.7-4.75-17.25-9.32-24.87-.72-1.34-2.15-3.21-2.92-4.51.01,0,.03,0,.04,0l1.61,2.14.8,1.08.71,1.14c4.9,7.51,7.79,16.19,9.42,24.95.63,3.53,1.12,7.11,1.22,10.7-1.79,3.73-5.33,6.82-8.85,8.56h0Z"/>
      <path d="M167.31,207.37c0,5.8-.92,11.54-1.24,17.33-.15,2.89-.28,5.79-.05,8.68-.02,2.9-.85,5.83-1.96,8.45-.3-4.11.06-8.64-1.83-12.43-1.68-2.26-3.06,4.24-3.16,5.36-.6,6.72.47,13.49,1.47,20.12-.08,0-5.13,30.53-5.34,30.28-.44-6.88-1.02-13.76-1.94-20.6-3.03-20.54-11.35-39.78-18.45-59.15-1.23-3.34-4.17-11.37-5.28-14.6-2.31-6.54-2.19-13.66-1.77-20.5.18-1.7.2-3.5.95-5.08,1.44-3.14,3-6.22,4.22-9.45,1.34-3.19,1.74-6.7,3.29-9.8.76-1.56,1.81-2.95,2.84-4.33,1.07-1.35,1.83-2.92,3-4.22,2.27-2.62,4.93-4.85,7.65-6.96.02-.02.05-.02.08,0,0,0,1.88.92,1.88.92,5.39,2.39,9.76.82,11.4-4.96,4.33,2.2,9.41,2.8,14.22,3.02,4.73.05,10.18-.6,13.42-4.42,2.25-2.77,2.98-7.1,1-10.19-2.07-3.09-5.81-4.45-9.29-5.3-2.37-.64-5-.71-7.33-1.01.99-.79,2.01-1.67,2.84-2.69,3.61-4.08,9.72-17.54,2.31-20.16-1.2-.42-2.52-.5-3.78-.35-.92-1.31-2.17-2.6-3.86-2.9-4.98-1.05-9.84,2.11-13.9,4.21-.41-2.66-.84-5.37-1.62-7.96-1.05-3.69-3.6-10.13-8.45-8.28-2.6-3.5-5.57-1.92-8.41.51-2.55,2.14-4.48,5.1-6.47,7.6-1.13-2.73-2.71-5.48-5.27-7.08-2.44-1.57-6.19-1.35-8.02,1.05-1.79,2.42-1.92,5.63-1.9,8.54-.02,3,.75,6.13,1.12,8.99-2.16-1.47-4.47-3.1-7.16-3.32-1.8-.18-3.45.89-3.95,2.63-2.52,10.37,8.23,17.34,16.23,21.35,1.54,4.75,2.17,9.94,1.62,14.93-.73,8.34,1.66,16.78,2.97,24.82-1.16-2.76-1.76-6.09-3.14-8.87-1.36-2.83-2.71,1.77-2.76,3.02-.7,6.18.63,12.42,2.7,18.23.38.99.36,2.08.4,3.1.03,4.15-.24,8.29-.51,12.43,0,.13-.21.16-.24.02-1.2-4.24-4.18-14.83-5.34-18.91-1.67-6.34-4.06-12.44-6.4-18.56-1.42-3.55-3.31-8.72-4.93-12.13-2.04-4.47-4.74-8.69-6.55-13.23-.14-1.65-.02-3.28-.15-4.92-.16-6.69-4.49-12.23-5.42-18.79-.33-2.17-.33-4.4.03-6.57.36-2.17,1.06-4.26,1.84-6.3,1.11-3.25,4.12-5.1,6.72-7.03,2.57-1.99,4.36-4.94,4.82-8.17.48-4.31-.58-8.74.25-13.07.34-2.16.94-4.45,2.61-5.96,1.58-1.54,3.69-2.48,4.86-4.29,1.2-2.12,2.48-4.32,4.3-6.01.5-.61,1.79-.22,2.16-.85.15-.37.09-1.08-.25-1.3-.39-.19-.95.09-1.37.37-1.86,1.22-2.78,3.26-4.13,4.97-1.38,1.73-3.18,3.09-5.12,4.11-3.91,1.94-6.25,6.08-7.98,9.93-1.71,4.1-.75,8.66-1.61,12.92-.52,2.14-1.42,4.17-2.58,6.05l-.22-.2c.72-.65,1.42-1.33,1.95-2.14,1.66-2.4,2.29-5.46,2.05-8.34,0,0,.2-2.44.2-2.44.7-5.59,3.1-11.47,8.13-14.47.16-.1.32.16.16.26-8.78,6.47-.75,19.09-7.7,26.22-2.35,2.1-4.68,4.22-6.54,6.79-4.1,4.98-4.01,11.94-2.83,17.97.56,3.14,2.25,5.86,3.18,8.89.92,3.04,1.42,6.21,1.22,9.41,0,.17-.25.2-.31.06-2.86-5.64-5.75-11.26-8.46-16.98-1.47-2.85-1.92-6.08-2.19-9.22-.15-1.58-.15-3.21.16-4.76.41-2.59,1.08-6.75,1.22-9.38.14-1.6,0-3.1-.5-4.63-.37-1.57-.28-3.21-.03-4.77.78-4.64,2.42-9.25,1.51-13.99-1.14-6.13-3.89-12.1-7.75-17-3-3.54-7.16-6.38-11.72-7.35-3.44-.21-4.71,3.72-5.64,6.4-1.36,4.51-1.13,9.38-.71,14.04.41,3.08.86,6.3,2.4,9.04,3.2,5.42,7.85,9.88,12.46,14.11.6,5.82,3.44,10.99,6.31,15.98,1.28,3.23,1.95,6.65,2.57,10.05.04.18-.21.29-.32.16-2.77-3.1-5.89-5.77-8.92-8.61-3.04-2.93-4.29-7.1-6.39-10.62-1.09-1.74-2.45-3.3-3.83-4.83,0,0-4.19-4.57-4.19-4.57-3.47-3.62-7.96-6.96-13.09-7.33-.5,0-.95.13-1.14.54-.19.4-.16.93-.11,1.42.28,2.01.96,3.99,1.53,5.97,1.55,6.47,5.52,10.84,11.42,13.67,3.45,2.28,5.72,6.11,9.73,7.5,1.91.69,4,1,6.02.81,3.66,2.67,6.76,6.1,9.74,9.5,2.82,3.53,4.94,7.52,7.13,11.44,4.24,7.91,8.27,15.95,11.82,24.2,3.47,8.29,6.44,16.78,9.03,25.37,2.6,8.6,4.89,17.28,6.81,26.06.02.11-.05.22-.16.25-4.01-4.98-7.63-10.6-11.74-15.61-1.31-1.7-2.8-3.26-4.04-5.04-2.54-3.54-4.01-7.65-5.78-11.55-1.61-3.19-2.78-7.27-6.13-9-.46-.18-1.02-.18-1.38.05-.1.06-.23.03-.29-.07-1.42-2.35-2.67-4.77-3.77-7.28-1.6-3.75-3.02-7.72-3.13-11.85-.03-4.04.22-8.23-1-12.11-1.11-5.21-4.37-12.87-10.3-7.04-.08.1-.24.09-.33,0-3.28-3.78-12.21-14.25-15.38-5.36-.3.93-.48,1.91-.54,2.87,0,.12-.11.21-.24.2-3.44-2.04-6.65-2.25-7.49,2.56-.01.12-.13.21-.25.19-9.42-1.65-8.84,7.17-6.44,13.52.06.14-.06.31-.21.3-3.68-.19-4.59,1.54-3.04,4.93,1.11,2.49,2.65,4.8,4.12,7.13,3,4.67,8.16,7.35,13.35,8.93,1.3.37,2.63.87,3.96,1.06,4.57.53,10.53-.78,13.64,3.54,3.24,3.66,8.12,5.35,12.45,7.25.66,1.61,1.4,3.21,2.49,4.58,3.15,4.19,8.02,6.95,13.07,8.17,2.22,1.35,4.16,3.12,5.96,4.97,5.28,5.58,9.17,12.29,12.85,18.98,2.13,3.87,5.23,9.61,6.72,13.74,6.45,16.59,11.85,33.69,17.17,50.67,2.17,7.36,3.05,15.04,3.24,22.7.02.25-.37.33-.46.09,0,0-13.38-31.83-13.38-31.83-1.86-11.4-9.13-21.59-19.18-27.11-5.03-2.76-10.24-5.3-15.01-8.53-.9-.58-1.74-1.25-2.7-1.68-.29-.15-.69-.18-.68-.1-.02,1.22,1.01,2.58,1.62,3.65,1.47,2.53,3.43,4.49,5.84,6.12,4.63,3.4,9.1,7.4,11.59,12.7.62,1.19,1.13,2.77,1.59,4.04,2.24,6.87,6.92,12.59,12.75,16.78,2.26,1.75,4.85,3.28,6.45,5.75,3.3,4.75,5.98,9.88,8.24,15.2,3.52,8.02,3.77,16.89,3.71,25.51-.33,8.68-3.08,17.03-5.55,25.28-1.75,5.49-3.59,10.93-5.7,16.31-4.75,10.5-10.38,20.54-15.86,30.67,0,0-.35-.21-.35-.21,8.31-12.22,15.04-25.4,23.01-37.83,3.98-6.07,8.78-12.03,13.15-17.83,4.58-5.65,9.91-11.13,15.67-15.63,12.79-10.49,24.71-22.4,33.73-36.32,2.97-4.7,6.92-8.69,10.9-12.52,4.04-3.79,8.25-7.42,12.79-10.61,4.6-3.34,10.72-3.67,16.01-2.01,7.67,2.16.39-2.61-2.19-3.67-7.11-2.56-14.57.9-21.6,2.26-3.61.78-7.19,1.66-10.63,3-6.84,2.71-13.06,6.92-18.67,11.65-5.39,5.04-9.31,11.44-12.88,17.85-3.56,6.47-6.59,13.2-9.46,20-2.23,5.08-4.91,9.94-7.86,14.63-3.08,4.59-6.72,8.79-9.8,13.4-4.32,5.99-8.44,12.3-12.76,18.19,3.49-9.01,6.82-18.27,8.66-27.83,1.56-8.08,2.95-20.5,4.35-28.79.74-4.8,1.42-9.6,2.2-14.4.45-2.36.89-4.86,2.41-6.82,2.13-2.78,5.22-5.28,7.59-7.84,1.77-1.56,6.31-8.97,4.76-11.18-.56-.21-1.16.25-1.64.51-3.01,1.99-5.58,4.96-8.1,7.31,1.69-4.77,3.47-9.69,7.35-13.14,1.2-1.1,2.49-2.6,3.72-3.45-3.78,3.36-7.55,6.96-9.2,11.87-.67,1.52-1.2,3.34-1.86,4.71,2.53-2.61,5.04-5.3,8.05-7.36,1.56-1.09,2.31-.59,2.05,1.24-.98,4.82-4.05,8.89-7.64,12.13-1.46,1.42-3.82,3.62-5.01,5.26-1.5,1.94-1.93,4.42-2.38,6.78-1.33,8.55-3.05,20.18-4.35,28.8-1.52,14.36-5.08,29.23-10.98,42.1,4.18-6.08,8.39-12.15,12.64-18.18,4.12-6.12,9.15-11.61,12.63-18.15,3.77-6.37,6.33-13.31,9.46-20,4.79-9.9,9.86-20.1,17.89-27.81,2.78-2.45,5.82-4.56,8.9-6.59,3.1-2.01,6.37-3.78,9.82-5.11,3.45-1.35,7.05-2.24,10.66-3.02,3.6-.8,7.14-1.85,10.77-2.57,3.61-.69,7.49-1.1,10.99.3,2.06,1.04,4.29,2.07,5.75,3.91.05.12.12.25.07.43-.15.44-.71.39-1.06.4-.95-.05-1.85-.32-2.74-.56-8.39-2.51-13.85-.12-20.2,5.3-7.05,5.85-14.11,12.04-19.17,19.74-9.04,13.96-20.98,25.9-33.78,36.42-7.2,5.66-13.61,12.58-18.93,20.01-3.26,4.12-6.93,8.99-9.8,13.39-4.1,6.14-7.57,12.66-11.31,19.02-3.74,6.36-7.6,12.66-11.67,18.83-.06.09-.19.12-.29.06-.09-.06-.12-.18-.07-.27,5.45-10.11,11.09-20.18,15.82-30.65,2.08-5.34,3.93-10.8,5.67-16.28,2.45-8.2,5.18-16.55,5.51-25.14-.02-2.87-.04-5.75-.15-8.62-.15-8.67-3.05-16.96-7.27-24.45-2.1-3.68-4.04-7.7-7.34-10.44-1.11-.86-2.37-1.63-3.47-2.56-4.63-3.42-8.8-7.71-11.25-13-1.14-2.24-1.86-4.7-2.77-7.03-1.3-2.93-3.13-5.61-5.36-7.92-3.92-4.34-9.6-6.59-12.5-11.81-.4-.69-3.01-4.53-.92-4.44,1.28.3,2.28,1.23,3.36,1.9,4.77,3.23,9.93,5.74,14.98,8.52,10.16,5.55,17.56,15.99,19.39,27.38l13.37,31.8s-.46.09-.46.09c-.1-5.07-.58-10.16-1.47-15.16-.64-4.26-2.71-10.51-4.02-14.7-5.58-16.88-10.53-34.12-17.96-50.3-6.02-10.87-11.62-23.3-22.18-30.48-3.06-.67-6.8-2.39-9.51-4.52-2.68-1.92-5.56-5.82-6.17-8.35-2.61-.94-5.15-2.06-7.57-3.43-1.5-.86-2.98-1.83-4.23-3.05-.75-.69-1.3-1.64-2.11-2.22-3.45-2.46-7.99-1.43-11.96-1.94-4.07-.87-8.07-2.25-11.64-4.43-2.37-1.47-4.45-3.42-5.98-5.76-1.54-2.78-8.26-11.17-2.81-12.58.71-.16,1.42-.18,2.12-.16,0,0-.21.3-.21.3-1.29-3.84-2.66-8.63-.22-12.27,1.66-2.14,4.7-2.23,7.13-1.85,0,0-.25.19-.25.19.52-3.87,3.41-5.39,6.9-3.55,0,0,1.16.64,1.16.64,0,0-.33.18-.33.18.91-9.66,7.39-7.51,12.63-2.18,1.44,1.4,2.77,2.89,4.06,4.41h-.33c7.77-7.43,11.13,5.44,11.83,11.25.31,2.71.21,5.47.22,8.18.11,4.06,1.51,7.98,3.09,11.69,1.08,2.48,2.34,4.9,3.73,7.22l-.31-.06c2.32-1.03,4.12,1.71,5.23,3.34,3.34,5.52,4.91,12,8.64,17.27,5.38,6.67,10.63,13.53,15.57,20.56,0,0-.37.16-.37.16-4.91-21.84-11.38-43.51-21.45-63.57-4.06-7.95-7.84-16.2-13.23-23.34-2.91-3.39-6.03-6.65-9.54-9.4-2.33.5-6.48-.56-8.84-2.24-3.29-2.54-5.81-5.94-9.71-7.6-4.58-2.62-7.65-7.33-8.88-12.38-.57-1.99-1.25-3.95-1.54-6.04-.11-.77-.07-1.89.8-2.24,1.31-.39,2.69.08,3.93.41,3.99,1.31,7.45,3.86,10.28,6.89l4.19,4.58c2.95,2.96,5.01,6.65,6.68,10.43,1.76,3.86,5.04,6.41,8.09,9.2,1.5,1.43,2.95,2.91,4.36,4.43l-.32.16c-.62-3.37-1.28-6.78-2.54-9.97-2.73-4.83-5.99-10.61-6.21-15.85-2.37-2.11-4.63-4.32-6.78-6.65-3.13-3.5-6.47-7.29-7.41-12.03-1.47-7.61-2.21-16.32,1.87-23.24,2.22-3.53,5.5-2.21,8.58-.66,5.85,2.77,9.82,8.2,12.36,14,2.77,5.7,4.16,12.3,2.35,18.5-.34,1.54-.69,3.08-.93,4.64-.34,1.95-.3,3.91.33,5.78.09.31.18.88.2,1.2.19,3.66-.68,8.16-1.22,11.81-.31,1.57-.3,3.11-.16,4.68.27,3.13.7,6.3,2.16,9.11,2.7,5.71,5.59,11.33,8.45,16.97l-.31.06c.19-3.11-.3-6.28-1.21-9.28-.92-3.01-2.63-5.78-3.18-8.92-.93-4.64-1.1-9.61.46-14.13,1.26-2.94,3.34-5.41,5.52-7.71,2.17-2.22,5.04-3.98,5.85-7.17,2-7.33-1.83-17.01,5.36-22.29,0,0,.16.26.16.26-4.91,2.94-7.28,8.75-7.96,14.23,0,0-.2,2.41-.2,2.41.26,2.84-.41,6.06-2.1,8.5-.54.84-1.27,1.54-2,2.2-.12.13-.33-.07-.22-.2,1.13-1.84,2.03-3.85,2.54-5.95.85-4.28-.09-8.82,1.63-12.96,1.76-3.93,4.13-8.08,8.12-10.08,1.92-1.01,3.68-2.34,5.03-4.03,1.51-1.9,2.58-4.42,4.96-5.42,1.16-.43,1.62.72,1.28,1.69-.32.6-1.04.53-1.58.62-.47.05-.86.5-1.23.87-1.45,1.61-2.6,3.47-3.66,5.38-1.25,1.92-3.37,2.84-4.9,4.35-1.63,1.46-2.19,3.68-2.53,5.8-.83,4.34.23,8.73-.25,13.07-.47,3.29-2.3,6.32-4.92,8.34-2.58,1.92-5.56,3.72-6.64,6.91-.78,2.03-1.47,4.11-1.83,6.25-.36,2.14-.36,4.33-.03,6.48.91,6.48,5.27,12.13,5.41,18.81.13,1.63.02,3.28.15,4.9,1.82,4.49,4.49,8.72,6.52,13.16,1.62,3.41,3.5,8.59,4.93,12.15,2.34,6.12,4.73,12.24,6.4,18.58,1.14,4.05,4.16,14.74,5.34,18.92,0,0-.24.02-.24.02.27-4.13.54-8.27.51-12.4.13-2.13-.76-4-1.36-5.98-1.22-3.97-1.93-8.11-1.92-12.27.05-2.07.1-4.23,1.03-6.13.65-1.26,1.74-1.63,2.36-.07,1.29,2.84,2.12,5.85,3.02,8.83,0,0-.23.06-.23.06-1.45-6.51-2.72-13.08-3.16-19.75-.29-3.34.49-6.65.27-9.99-.16-3.32-.75-6.62-1.71-9.8-2.85-1.21-6.29-3.45-8.99-5.53-3.42-2.76-6.72-6.23-7.49-10.71-.58-3.29-.12-8.49,4.36-8.09,2.7.26,5.07,1.77,7.19,3.35,0,0-.16.11-.16.11-1.09-5.33-3.05-15.8,2.48-19.04,3.68-1.82,7.69.29,9.75,3.51.86,1.24,1.56,2.58,2.1,3.99l-.17-.02c2.83-3.94,5.85-8.54,10.66-10.11,1.71-.45,3.42.53,4.28,2,0,0-.13-.03-.13-.03,4.99-1.97,7.65,4.62,8.72,8.39.78,2.6,1.22,5.31,1.62,7.98,0,0-.14-.06-.14-.06,1.38-.92,2.82-1.73,4.31-2.44,2.97-1.36,6.29-2.58,9.59-1.86,1.55.23,3.37,1.79,3.79,2.9,1.3-.15,2.63-.07,3.86.36,7.62,2.72,1.38,16.32-2.24,20.43-.84.98-1.76,1.91-2.84,2.65,0,0-.04-.15-.04-.15,2.45.07,4.89.38,7.28.93,3.5.85,7.29,2.24,9.38,5.37,2.03,3.16,1.28,7.56-1.01,10.38-3.28,3.87-8.77,4.53-13.54,4.47-4.84-.22-9.91-.82-14.28-3.04,0,0,.11-.05.11-.05-.6,2.72-2.5,5.37-5.35,5.96-2.64.58-5.96-.67-7.97-1.87-2.72,2.11-5.38,4.34-7.63,6.94-1.15,1.28-1.92,2.85-2.99,4.21-1.03,1.38-2.07,2.76-2.83,4.31-1.55,3.1-1.96,6.61-3.29,9.79-1.22,3.23-2.78,6.32-4.22,9.45-.74,1.56-.76,3.34-.94,5.04-.42,6.83-.54,13.92,1.76,20.46,1.1,3.25,4.07,11.31,5.27,14.6,7.09,19.38,15.41,38.63,18.43,59.18.91,6.84,1.49,13.72,1.93,20.61-.27.18,5.26-30.33,5.18-30.26-1-6.64-2.06-13.41-1.46-20.14.08-.96,1.47-7.81,3.28-5.39,1.24,2.23,1.35,4.89,1.59,7.38.08,1.66.3,3.52.17,5.04,1.04-2.67,1.93-5.51,1.92-8.41-.23-2.89-.1-5.79.06-8.68.38-5.72,1.15-11.73,1.29-17.32h0Z"/>
      <path d="M163.01,126.46c-.29-5.7-9.27-7.47-13.78-8.37-1.87-.78-3.69-1.69-5.42-2.73-1.72-1.04-3.42-2.29-4.63-3.92-1.27-1.5-3.5-1.97-5.32-1.31-.64.24-1.32.58-1.5,1.27,0,0-.17.73-.17.73-1.48,5.61,3.72,8.66,7.58,11.53,3.2,2.37,6.86,4.61,9.97,6.87-3.47-2.07-6.87-4.26-10.2-6.54-4.55-3.15-9.65-6.3-7.62-12.7.2-.83,1.07-1.32,1.8-1.56,1.98-.69,4.38-.16,5.74,1.47,1.2,1.64,2.81,2.84,4.52,3.9,1.67,1.04,3.63,2.01,5.33,2.75,4.47.88,13.81,3.05,13.71,8.62h0Z"/>
      <path d="M124.75,110.73c4.98.88,7.54,6.14,8.99,10.5.24,2.88-.25,5.68-.56,8.52-.5,4.21-.88,8.44-1.13,12.68-.32,4.11.29,8.96-1.89,12.5,2.29-5.27.85-11.23,1.69-16.77.32-5.6,1.76-11.29,1.62-16.85-1.34-4.38-3.97-9.58-8.73-10.58h0Z"/>
      <path d="M133.82,78.42c-1.79,4.99-3.67,10.2-3.37,15.56.02,5.43,1.72,10.48,3.45,15.58.09.27-.34.42-.43.14-2.79-7.66-8-14.25-13.83-19.82,6.23,5.19,11.54,11.95,14.26,19.68,0,0-.43.14-.43.14-.78-2.57-1.6-5.07-2.35-7.7-.59-2.63-.85-5.32-.94-8-.21-5.34,1.71-10.84,3.64-15.57h0Z"/>
      <path d="M158.81,86.59c.33,4.13.14,8.44-1.41,12.34-2.88,6.32-6.61,12.23-10.59,17.91-.02.02-.06,0-.04-.03,3.38-6.03,7.34-11.76,10.33-18.01,1.65-3.79,1.8-8.28,1.71-12.21h0Z"/>
      <path d="M175.17,108.52c-3.98,1.12-8.05,2.33-11.6,4.48-2.7,1.56-5,3.93-8.01,4.92-1,.31-2.02.55-3.05.74-.03,0-.04-.04-.01-.05,1.98-.68,4-1.21,5.63-2.51,1.7-1.19,3.42-2.4,5.24-3.45,3.61-2.04,7.92-3.34,11.81-4.14h0Z"/>
      <path d="M77.9,105.41c-.8,3.55-1.25,7.27-.67,10.88.89,3.55,1.32,7.23,2.41,10.71,2.16,7.03,6.43,13.14,11.45,18.44.02.02-.01.06-.03.04-5.43-4.95-9.8-11.24-11.8-18.36-1.06-3.55-1.44-7.2-2.28-10.78-.48-3.59-.06-7.6.92-10.92h0Z"/>
      <path d="M61.59,103.04c.37,4.99,1.7,9.87,3.53,14.51,1.87,4.59,3.48,9.44,6.34,13.51,1.5,2.02,3.85,3.08,5.92,4.42,2.13,1.3,4.16,2.92,5.73,4.88,3.21,3.63,7.23,7.45,10.38,10.69,0,0,4.95,1.85,4.95,1.85l-.2.23c-1.17-2.84-2.97-6.35-1.85-9.43-.83,3.02.88,6.46,2.15,9.28.06.12-.07.28-.2.23,0,0-4.98-1.75-4.98-1.75-3.68-3.44-7.22-7.03-10.59-10.78-1.55-1.97-3.47-3.53-5.59-4.86-2.08-1.37-4.47-2.48-5.98-4.55-2.87-4.16-4.43-8.99-6.26-13.64-1.74-4.62-3.19-9.78-3.34-14.58h0Z"/>
      <path d="M93.42,151.28c-.47,0-.95.12-1.26.39-.31.34-.41.67-.7,1.08-.01.02-.04.02-.05,0-.25-.52,0-1.17.52-1.4.49-.27,1.03-.25,1.49-.11.03,0,.02.05,0,.05h0Z"/>
      <path d="M53.84,105.77c4.24.34,7.91,3.61,9.67,7.36.01.03-.02.05-.04.03-.35-.4-.66-.81-.98-1.23-2.19-2.81-5.1-5.64-8.64-6.16h0Z"/>
      <path d="M70.07,217.95c-2.42,4.32,2.33,7.69,4.92,10.52,1.83,2.06,1,4.95.37,7.3-.43,1.63-.84,3.28-1.02,4.95-.54,3.93,1.58,6.26,4.99,7.78,2.98,1.59,6.05,3.18,8.39,5.67,2.58,2.46,3.02,6.1,2.86,9.47-.14,5.17,1.7,10.15,6.14,13.07,2.73,1.9,6.07,3.21,9.12,4.19,7.23.71,13.46,5.52,12.68,13.34-.55,7.29,2.56,10.05,9.47,11.19,5.9.67,9.74,7.19,8.94,12.81,0,0-.37-.13-.37-.13,1.36-2.45,2.31-5.27,2.31-8.1.05-2.82-1.13-5.65-3.33-7.45-2.18-1.81-4.67-3.31-6.96-5.05-1.13-.86-2.32-1.92-2.74-3.4-.44-1.42-.52-2.87-.67-4.3-.41-6.52-1.71-11.18-8.92-12.35-5.55-1.11-11.9.75-16.89-2.73-5.24-3.37-7.76-8.7-7.33-14.87.38-2.89-.41-5.72-2.6-7.69-2.05-2-4.71-3.17-7.13-4.75-3.34-2.63-6.33-6.62-5.67-11.09.17-2.76,1.76-5.77.46-8.41-.68-1.16-2.13-2.05-3.12-2.91-2.08-1.69-4.9-4.07-3.89-7.07h0ZM70.1,217.9c-.9,3.06,1.8,5.32,3.94,7.03,1.02.85,2.48,1.78,3.17,2.93,1.35,2.69-.23,5.71-.39,8.5-.63,4.39,2.35,8.29,5.63,10.84,2.39,1.53,5.1,2.7,7.21,4.74,2.26,1.96,3.15,5.06,2.76,7.95-.39,6.05,2.08,11.18,7.22,14.45,4.9,3.4,11.16,1.54,16.7,2.68,7.42,1.23,8.88,6.03,9.28,12.77.15,1.42.23,2.87.65,4.2.38,1.36,1.46,2.33,2.58,3.19,2.27,1.74,4.74,3.22,6.98,5.08,2.28,1.86,3.52,4.85,3.46,7.76-.02,2.93-.97,5.76-2.38,8.3-.1.19-.4.07-.37-.13.65-4.46-1.66-9.07-5.43-11.46-2-.96-4.39-1.03-6.52-1.74-5.38-1.58-6.8-5.58-6.39-10.78.79-7.64-5.34-12.33-12.38-13.04-3.24-1.02-6.43-2.31-9.25-4.26-4.48-2.97-6.37-8.05-6.2-13.27-.05-1.69.11-3.4-.33-5.02-.83-3.33-3.58-5.71-6.38-7.48-3.25-2.4-8.61-3.29-9.4-7.88-.69-4.28,2.02-8.26,1.7-12.48-.7-3.42-4.65-4.86-5.99-7.99-.74-1.51-.9-3.42.13-4.88h0Z"/>
      <path d="M165.99,232.8c.24,1.84,1.04,3.29,3.11,2.64.23-.05.51-.2.75-.17-.15.2-.41.34-.62.5-2.16,1.26-3.53-1.23-3.24-2.97h0Z"/>
      <path d="M139.04,104.73c.18,1.39-.54,5.33-2.51,3.33-1.1-1.53-1.24-3.58-.87-5.38.24-1.3,1.5-2.6,2.57-1.16.63.94.75,2.11.8,3.2h0ZM138.99,104.73c.02-1.04-1.17-4.63-2.45-2.84-.96,1.41-.98,5.99,1.01,6.47,1.35-.34,1.47-2.47,1.44-3.63h0Z"/>
      <path d="M144.98,98.35c-.2,1.4-2.05,5.6-3.4,2.79-.72-1.83.16-7.4,2.69-7.34.54.16.75.64.88,1.01.31,1.17.08,2.4-.17,3.54h0ZM144.93,98.34c.31-.99.24-5.32-1.56-3.67-1.28,1.23-2.68,6.02-.89,7.14.32.08.67-.13.94-.39.82-.82,1.25-1.96,1.51-3.08h0Z"/>
      <g>
        <ellipse class="cls-4" cx="149.62" cy="98.41" rx="2.98" ry="1.28" transform="translate(-10.42 178.78) rotate(-60)"/>
        <path d="M150.75,99.07c-.49,1.01-2.71,3.48-3.13,1.18-.15-1.54,1.73-5.32,3.61-4.64,1.06.95.02,2.49-.48,3.45h0ZM150.71,99.04c.72-1.12,1.11-4.32-.97-2.46-.82.74-1.44,1.76-1.73,2.83-.13.51-.21,1.19.18,1.47.2.12.48.08.73-.04.78-.36,1.36-1.07,1.79-1.81h0Z"/>
      </g>
      <path d="M151.52,105.52c-.55,1.15-2.86,3.39-3.45,1.13-.17-1.88.96-3.96,2.67-4.8,2.4-.63,1.69,2.38.79,3.67h0ZM151.48,105.5c.83-1.27.92-4.48-1.28-2.73-1.06.83-2.63,3.35-1.48,4.52,1.1.43,2.23-.91,2.75-1.79h0Z"/>
      <g>
        <ellipse class="cls-4" cx="157.64" cy="104.29" rx="3.66" ry="1.51" transform="translate(-11.5 188.67) rotate(-60)"/>
        <path d="M158.98,105.06c-.56,1.17-3.3,4.29-3.72,1.48-.13-1.8,2.15-6.41,4.35-5.64.43.3.49.77.5,1.14-.05,1.1-.59,2.1-1.12,3.02h0ZM158.93,105.03c.89-1.39,1.5-5.39-1.14-3-1.19,1.17-2.18,2.8-2.25,4.5-.02.8.54,1.13,1.24.75.94-.48,1.63-1.35,2.15-2.25h0Z"/>
      </g>
      <path d="M141.89,101.43c-.3,3.71-.03,7.9-1.34,11.31.12-1.68.35-4.02.62-5.66.04.05.62-5.88.73-5.66h0Z"/>
      <path d="M143.56,101.43c-.54,3.24-.95,6.53-.94,9.81,0,0-.36-.07-.36-.07.73-1.89,1.46-3.78,2.33-5.62.92-1.79,1.77-3.79,3.21-5.19-1.1,1.67-1.91,3.57-2.74,5.41-.82,1.84-1.68,3.68-2.45,5.55-.04.09-.15.14-.24.1-.07-.03-.12-.1-.11-.17.11-3.25.53-6.81,1.31-9.81h0Z"/>
      <path d="M149.25,100.79c-2.89,4.29-4.7,9.19-5.79,14.2,0-5.13,2.86-10.3,5.79-14.2h0Z"/>
      <path d="M148.28,106.86c-1.53,2.76-2.69,5.76-4.39,8.39.72-3.02,2.78-5.93,4.39-8.39h0Z"/>
      <path d="M149.25,107.5c-1.65,2.69-2.56,5.78-4.15,8.46.59-3.03,2.43-6.09,4.15-8.46h0Z"/>
      <path d="M136.77,108.1c.16.4.36.83.38,1.26-.03.1-.1.44-.27.44-.24-.27-.28-.51-.21-.83,0,0,.05-.86.05-.86,0-.03.04-.03.05,0h0Z"/>
      <path d="M138.63,107.49c-.14,1.12.39,2.15.15,3.26,0,.02-.03.03-.05.01-.38-.47-.47-1.04-.42-1.62,0-.3.12-1.65.31-1.65h0Z"/>
      <path d="M155.42,106.56c-2.57,3.52-4.9,7.66-8.05,10.55,1.19-1.88,2.52-3.63,3.92-5.35.02.05,4.13-5.42,4.13-5.2h0Z"/>
      <path d="M157.04,107.26c-2.58,3.04-5.86,7.69-8.8,10.28,1.2-1.91,2.73-3.61,4.25-5.29.02.04,4.56-5.21,4.55-4.99h0Z"/>
      <path d="M142.47,111.24c-.01.95.41,2.13-.2,2.93-.25-.48-.22-.98-.1-1.48.1-.42.16-1.42.31-1.45h0Z"/>
      <path d="M231.13,169.39c4.01-1.69,8.3-2.68,12.64-3.05,0,0-.06.16-.06.16-2.14-1.72-4.99-2.39-7.72-2.34-2.76.01-5.44.81-8.02,1.77-5.17,1.89-10.45,3.83-14.63,7.52-4.18,3.6-7.96,7.67-11.84,11.61-3.88,3.95-7.65,8.09-11.5,12.03,3.58-4.2,7.42-8.27,11.18-12.33,5.79-5.88,11.25-12.63,18.93-16.1,7.28-2.9,16.5-7.76,23.73-2.29.06.05.02.16-.06.16-4.29.25-8.77,1.42-12.65,2.87h0Z"/>
      <path d="M224.23,171.77c-10.82,4.02-19.57,12.17-27.82,20-1.16,1.1-2.39,2.53-3.54,3.44,4.3-5,9.05-9.63,14.29-13.64,5.17-3.92,10.94-7.96,17.07-9.8h0Z"/>
      <path d="M229.19,181.23c4.49-.94,8.93-2.25,13.19-3.87-1.83,1.41-4.19,2.05-6.41,2.59-2.19.5-4.68,1.12-6.78,1.28h0Z"/>
      <path d="M199,192.16c7.65-4.36,15.88-8.48,24.76-9.37.03,0,.04.05,0,.05-8.65,1.77-17.12,5.26-24.76,9.32h0Z"/>
      <path d="M230.11,174.88c-10.96,1.79-20.51,8.18-29.04,14.97-.02-.01-3.64,3.09-3.67,3.03,8.54-8.59,20.66-16.4,32.71-17.99h0Z"/>
      <path d="M222.24,162.91c6.1-2.34,13.31-3.41,19.46-.68.03.01.01.06-.02.05-6.34-1.84-13.35-1.42-19.44.63h0Z"/>
      <path d="M215.43,166.95c-4.41,3.57-8.17,7.87-12.06,11.94,3.03-4.71,7.7-8.7,12.06-11.94h0Z"/>
      <path d="M200.45,183.5c-3.93,4.66-9.1,11.57-13.39,15.76,1.96-2.82,4.26-5.44,6.54-8.03.03.03,6.84-7.95,6.85-7.73h0Z"/>
      <path d="M201.45,132.17c-3.17,3.05-4.47,7.44-5.78,11.51-.18.6-.35,1.19-.56,1.79,0,.03-.05.02-.05,0,.59-4.83,2.73-10.19,6.39-13.29h0Z"/>
      <path d="M190.51,166.93c.94-4.19,1.78-10.25,3.25-14.2-.21,2.41-.82,4.81-1.42,7.16-.05-.01-1.73,7.23-1.83,7.04h0Z"/>
      <path d="M204.54,132.86c-.67,5.86-.86,12.05-3.11,17.53,1.22-5.65,2.26-11.95,3.11-17.53h0Z"/>
      <path d="M199.63,155.8c-.73,3.26-1.03,6.73-2.33,9.8.27-3.28,1.43-6.78,2.33-9.8h0Z"/>
      <path d="M209.25,151.39c-2.29,9.21-6.08,18.18-11.52,25.99-.02.02-.06,0-.04-.03,4.65-8.22,9.07-16.96,11.56-25.96h0Z"/>
      <path d="M209.38,147.78c.09-3.81-.18-7.66-.15-11.44,1.02,3.6.45,7.89.15,11.44h0Z"/>
      <path d="M188.34,140.56c-1.57,5.31-2.87,10.74-3.4,16.25-.23,5.54-.65,11.1-1.56,16.58,0,.03-.05.03-.05,0,.38-5.56.82-11.05,1.21-16.61.66-5.47,2-11.17,3.8-16.21h0Z"/>
      <path d="M206.52,204.29c-5.48-4.24-12.68-5.57-19.44-4.48-.03,0-.04-.04-.01-.05,6.61-2.07,14.42.18,19.45,4.53h0Z"/>
      <path d="M214.9,210.25c3.98,1.66,8.34,4.55,9.18,9.08,0,.03-.04.04-.05.01-1.67-4.12-5.36-7.21-9.13-9.09h0Z"/>
      <path d="M232.22,219.97c.88-7.21-5.45-12.53-10.9-16.07-.78-.52-1.88-1.04-2.48-1.6,6.8,2.96,14.73,9.61,13.39,17.67h0Z"/>
      <path d="M221.7,199.22c5.84,1.71,11.47,5.75,13.67,11.59.01.03-.03.05-.05.02-2.97-5.35-7.95-9.67-13.62-11.61h0Z"/>
      <path d="M224.2,210.3c-8.91-7.39-20.05-12.69-31.78-12.74-.03,0-.03-.05,0-.05,11.76-.93,23.31,5.32,31.78,12.79h0Z"/>
      <path d="M195.39,220.46c.5-7.84-2.77-15.87-9.31-20.4-.03-.02,0-.06.03-.04,7.2,3.75,10.16,12.92,9.29,20.44h0Z"/>
      <path d="M195.09,223.74c-.75,3.32-1.55,7.25-4.32,9.46,1.94-2.86,3.37-6.28,4.32-9.46h0Z"/>
      <path d="M184.96,199.96c1.88,6.44,3.44,13.33,2.59,20.04-.2-6.69-.95-13.66-2.59-20.04h0Z"/>
      <path d="M183.94,233.58c.43-2.88.4-5.86,1-8.68.45,2.83-.39,6.06-1,8.68h0Z"/>
      <path d="M180.73,224.92c.09-8.37.21-17.19,2.21-25.21-.98,8.24-1.92,17.09-2.21,25.21h0Z"/>
      <path d="M177.54,214.27c.61-5.04.99-10.65,3.96-14.91-2.01,4.7-3.15,10.01-3.96,14.91h0Z"/>
      <path d="M157.39,197.77c6.82-.94,13.94-1.89,20.72-.21.21.06.24.38.03.46-1.83.84-3.71,1.48-5.61,2.09-1.86.55-3.97,1.3-5.75,1.6,0,0,5.61-2,5.61-2,1.62-.61,3.99-1.4,5.53-2.13,0,0,.03.46.03.46-6.64-1.84-13.96-.85-20.57-.26h0Z"/>
      <path d="M148.29,201.14c-3.03,1.02-6.33,2.01-9.53,1.66,3.1-.68,6.57-.88,9.53-1.66h0Z"/>
      <path d="M155.49,186.08c7.07-.47,15.88,2.06,19.46,8.42-.07.05-.16.05-.23,0-3.35-2-7.24-2.82-11.1-3.13-3.89-.34-7.86-.07-11.71.41,3.8-.9,7.83-1.09,11.74-.91,3.93.29,7.89,1.19,11.27,3.3,0,0-.26.28-.26.28-4.17-6.17-12.16-8.6-19.17-8.37h0Z"/>
      <path d="M151.28,186.42c-5.67,2.01-13.43,5.51-13.69,12.41,0,0-.41-.19-.41-.19,3.08-2.48,6.87-5,10.73-5.44-3.89,1.03-7.31,3.35-10.42,5.82-.15.13-.41,0-.4-.19.36-7.03,8.44-10.75,14.18-12.41h0Z"/>
      <path d="M156.5,182.42c4.1.91,8.63,2.5,11.23,5.96-3.29-2.67-7.25-4.85-11.23-5.96h0Z"/>
      <path d="M150.56,181.92c-3.7.6-7.13,2.24-10.07,4.49,2.18-3.05,6.65-4.21,10.07-4.49h0Z"/>
      <g>
        <g>
          <ellipse class="cls-4" cx="196.18" cy="170.44" rx="4.99" ry="2.01" transform="translate(-14.22 322.99) rotate(-76.93)"/>
          <path d="M198.16,170.9c-.36,1.38-.82,2.82-1.78,3.91-.33.34-.78.71-1.35.61-.56-.15-.83-.68-1-1.13-.83-2.17.37-9.07,3.34-8.96,1.87.85,1.11,3.99.79,5.56h0ZM198.11,170.89c.66-2.23-.11-7.78-2.68-3.47-.97,1.63-2.35,6.6-.35,7.76.41.1.84-.18,1.17-.49,1-1.02,1.53-2.42,1.86-3.8h0Z"/>
        </g>
        <path d="M191.55,171.53c-.25,1.65-2.36,5.64-3.95,2.88-1.02-2.04.1-7.92,2.99-7.72,1.8.78,1.27,3.33.96,4.84h0ZM191.5,171.52c.86-5.13-2.26-6.01-3.69-.86-1.23,5.37,2.36,6.06,3.69.86h0Z"/>
        <g>
          <ellipse class="cls-4" cx="199.97" cy="181.38" rx="4.24" ry="2.01" transform="translate(-68.59 153.71) rotate(-36.33)"/>
          <path d="M201.18,183.02c-1.26,1.09-5.46,2.75-4.87-.38.55-2.21,5.23-5.94,7.29-3.92.86,1.76-1.2,3.35-2.42,4.3h0ZM201.15,182.98c3.99-3.34,2.2-6.03-2.24-3.05-4.43,3.27-2.16,6.14,2.24,3.05h0Z"/>
        </g>
        <g>
          <ellipse class="cls-4" cx="180.76" cy="177.37" rx="1.57" ry="3.29"/>
          <path d="M182.35,177.37c.1,1.32-.8,4.72-2.52,2.89-1.16-1.41-1.37-6.07.93-6.44,1.56.29,1.56,2.3,1.59,3.54h0ZM182.3,177.37c.07-1.61-1.46-4.75-2.57-1.85-.51,1.31-.62,4.56,1.03,5.02,1.27-.22,1.51-2.09,1.54-3.17h0Z"/>
        </g>
        <path d="M187.88,174.58c-.71,4.21-1.48,8.42-2.33,12.61-.92,4.1-1.55,8.71-3.55,12.31.78-1.98,1.19-4.09,1.69-6.16,1.5-5.98,2.87-12.92,4.2-18.76h0Z"/>
        <path d="M189.6,174.98c-.43,2.25-1.52,7.99-2.01,10.15-.25,1.12-.49,2.24-.83,3.36l-.34-.15c2.47-4.81,4.89-9.71,7.71-14.29-2.18,4.93-4.82,9.7-7.38,14.47-.1.2-.42.06-.34-.15.35-1.07.62-2.2.89-3.31.52-2.13,1.78-7.88,2.26-10.09,0-.03.06-.02.05,0h0Z"/>
        <path d="M195.62,175.26c-4.22,5.95-7.02,12.79-9.68,19.54,0,0-.38-.24-.38-.24,1.8-1.96,6.38-6.93,8.14-8.81.92-.97,1.82-2.02,2.72-2.96-1.52,2.17-3.36,4.18-5.11,6.2-1.77,2-3.58,3.96-5.42,5.89-.16.19-.48-.01-.38-.24,2.81-6.64,5.73-13.79,10.11-19.38h0Z"/>
        <path d="M181.67,180.07c.11,6.31.65,12.92-1.11,19.03.72-6.25,1-12.86,1.11-19.03h0Z"/>
      </g>
      <path d="M180.08,180.3c.32,6.07,1.01,12.6-.35,18.45.29-5.4.46-13.26.35-18.45h0Z"/>
      <path d="M157.8,142.53c3.2,3.1,7,6.29,8.95,10.23-1.11-1.28-3.3-3.88-4.38-5.19-1.41-1.71-3.22-3.45-4.57-5.04h0Z"/>
      <path d="M171.33,160.67c4.48,7.65,7.18,16.49,7.38,25.38,0,.03-.05.03-.05,0-1.09-8.74-3.14-17.73-7.33-25.38h0Z"/>
      <path d="M149.16,143.8c5.08,2.53,9.87,6.26,12.96,11.05-3.87-4.09-8.07-8.39-12.96-11.05h0Z"/>
      <path d="M154.43,158.17c-1.58-1.99-3.1-4.03-4.53-6.14-1.37-2.1-3.03-4.35-3.26-6.89,1.9,4.63,5.17,8.94,7.79,13.03h0Z"/>
      <path d="M160.14,164.36c9.34,8.78,15.74,20.86,17.9,33.46-.06.04-.65-2.33-.68-2.34-3.08-11.51-8.76-22.81-17.22-31.13h0Z"/>
      <path d="M160.14,171.72c8.39,6.05,14.53,15.27,16.94,25.32,0,.03-.04.04-.05.01-3.24-9.71-8.76-19.15-16.89-25.34h0Z"/>
      <path d="M151.5,164.4c-3.16-3.14-6.9-6.51-7.97-10.97,2.03,4.02,5.05,7.75,7.97,10.97h0Z"/>
      <path d="M158.87,101.05c3.1-7.35,8.9-15.42,17.57-15.86.03,0,.03.05,0,.05-8.37,1.33-14.23,8.68-17.57,15.81h0Z"/>
      <path d="M167.9,94.92c1.15-1.53,2.37-3.01,3.67-4.41,1.29-1.37,2.74-2.97,4.62-3.41-3.1,2.13-5.79,5.23-8.3,7.82h0Z"/>
      <path d="M173.84,95.54c1.85-2.01,4.24-5.03,6.26-6.83-.51,1.32-1.84,2.57-2.89,3.64-1.09,1.03-2.27,2.38-3.37,3.2h0Z"/>
      <path d="M167.31,99.63c-6.24,5.69-12.13,12.38-18.04,18.36,5.18-6.74,11.72-12.89,18.04-18.36h0Z"/>
      <path d="M171.83,103.1c-6.78,4.9-13.82,10.23-20.45,15.3,2.91-3.09,6.5-5.56,9.94-8.05,3.45-2.41,7.07-5.1,10.51-7.25h0Z"/>
      <path d="M148.6,70.29c-.08,2.3.1,4.97-1.23,6.93.33-2.28.93-4.77,1.23-6.93h0Z"/>
      <path d="M146.05,80.68c-1.32,4.44-1.99,9.04-2.58,13.59-.48-4.55,1.12-9.47,2.58-13.59h0Z"/>
      <path d="M152.81,84.28c.21-3.97.29-8.13-1.07-11.89,1.35,1.56,1.48,3.87,1.51,5.85-.01,1.97-.04,4.26-.45,6.04h0Z"/>
      <path d="M149.3,87.1c-.51,3.46-.43,7.46-1.94,10.54.22-1.57.56-3.75.92-5.27.03.06.93-5.51,1.02-5.27h0Z"/>
      <path d="M143.73,72.43c-2.45,3.74-3.86,8-5.23,12.19.31-4.38,2.73-8.82,5.23-12.19h0Z"/>
      <path d="M134.49,91.87c.3,3.93.8,7.87,1.25,11.76-.89-1.78-.97-3.88-1.1-5.84-.07-1.92-.29-4.14-.15-5.92h0Z"/>
      <path d="M122.87,70.65c-3.02,12.07,4.18,23.36,8.72,34.09.01.03-.03.05-.04.02-3-5.21-5.49-10.72-7.47-16.39-2.04-5.54-2.97-12.15-1.2-17.72h0Z"/>
      <path d="M126.83,77.46c1.31,4.4,3.37,9.04,3.49,13.55-1.18-4.4-2.43-9.27-3.49-13.55h0Z"/>
      <path d="M128.96,79.75c.9,2.48,2.37,5.36,1.9,7.95-.63-2.76-1.21-5.31-1.9-7.95h0Z"/>
      <path d="M109.05,88.11c.33,3.09,2.72,5.34,5.09,7.08.28.24,1.09.7,1.03.82-3.23-1.1-6.16-4.57-6.12-7.9h0Z"/>
      <path d="M117.67,97.19c5.9,3.22,11.94,7.6,14.51,14.05.01.03-.03.05-.05.02-3.34-5.95-8.79-10.68-14.46-14.07h0Z"/>
      <path d="M121.2,103.06c3.92,2.6,8.38,5.34,10.53,9.66-2.98-3.68-6.83-6.94-10.53-9.66h0Z"/>
      <path d="M142.85,114.53c1.54,2.15,2.56,5.1,1.95,7.71-.43-2.59-.64-5.49-1.95-7.71h0Z"/>
      <path d="M150.2,118.12c2,2.09,3.45,5.29,2.81,8.19-.41-2.85-1.03-5.98-2.81-8.19h0Z"/>
      <path d="M153.65,118.92c2.15,1.6,4.19,4.22,3.99,7.01-.83-2.57-2.04-5.24-3.99-7.01h0Z"/>
      <path d="M177.49,118.62c4.93.25,11.14.57,14.28,4.94.02.02-.02.05-.04.03-3.72-3.64-9.43-4.44-14.24-4.97h0Z"/>
      <path d="M172.62,118.16c-5.79-.73-11.89-.67-17.4,1.38-.07.03-.15,0-.18-.08-.03-.06,0-.14.06-.17,2.9-1.74,5.94-3.29,9.18-4.31,3.24-1.03,6.64-1.47,10.02-1.61,6.67-.53,14.21.75,18.62,6.19-4.89-5.14-11.8-6.17-18.6-5.7-3.35.14-6.72.5-9.93,1.49-3.21.98-6.25,2.49-9.15,4.18l-.12-.25c5.53-1.96,11.93-2.06,17.51-1.11h0Z"/>
      <path d="M174.03,123.05c-5.11-1.13-10.34-1.8-15.52-2.24,5.13-.63,10.72.95,15.52,2.24h0Z"/>
      <path d="M130.64,136.39c.22-7.02.32-14.45.02-21.45.86,3.47.67,7.17.59,10.73-.16,3.52-.21,7.36-.61,10.71h0Z"/>
      <path d="M133.31,145.46c1.06-7.48,2.78-15.06,6.02-21.89-2.24,7.16-4.79,14.59-6.02,21.89h0Z"/>
      <path d="M135.72,142.53c1.52-2.57,3.15-5.08,4.94-7.48,1.78-2.37,3.73-4.91,6.38-6.3-4.44,3.9-8.01,9.07-11.32,13.78h0Z"/>
      <path d="M140.12,132.68c1.23-1.98,2.26-4.3,4.11-5.76-1.01,2.07-2.79,4.03-4.11,5.76h0Z"/>
      <path d="M172.68,298.33c8.07-11.8,18.28-28.87,27.08-39.86,9.99-12.61,24.37-22.11,40.43-24.37.04.05-2.96.67-2.96.68-1.92.4-3.92,1.05-5.79,1.6-12.43,4.09-23.12,12.3-31.37,22.34-8.82,10.77-19.28,28.26-27.39,39.61h0Z"/>
      <path d="M177.12,295.41c7.17-9.86,14.44-19.7,20.85-30.07,3.19-5.26,7.34-9.81,11.65-14.14,4.46-4.09,8.92-8.61,14.59-10.96-1.22.57-2.73,1.42-3.93,2.32-3.7,2.67-7.09,5.77-10.31,9-4.28,4.31-8.44,8.83-11.66,13.99-6.51,10.28-13.9,20.33-21.19,29.86h0Z"/>
      <path d="M181.82,292.25c6.68-7.56,13.29-15.21,19.43-23.21,3.11-3.99,5.65-8.37,8.86-12.28,3.22-3.89,6.7-7.61,10.63-10.79.02-.02.06.02.03.04-3.73,3.39-7.18,7.09-10.27,11.06-3.19,3.89-5.74,8.27-8.93,12.21-6.23,7.88-12.99,15.74-19.75,22.96h0Z"/>
      <path d="M179.51,284.12c6.33-11.88,12.16-24.45,22.01-33.91,3.27-3.09,6.73-6.13,10.86-8.02.03-.01.05.03.02.05-7.8,4.47-13.93,11.44-19.29,18.55-5.03,7.41-9.28,15.67-13.6,23.34h0Z"/>
      <path d="M165.77,244.65c-1.12,2.09-1.72,4.48-3.04,6.42.33-2.3,1.83-4.64,3.04-6.42h0Z"/>
      <path d="M164.09,241.78c.21.57.57,1.93-.05,2.26-.21-.39-.19-.74-.09-1.13.05-.37.1-.74.09-1.12,0-.03.04-.04.05-.01h0Z"/>
      <path d="M98.4,153.04c2.79,2.16,5.98,4.7,6.92,8.23-1.87-3.04-4.34-5.95-6.92-8.23h0Z"/>
      <path d="M69.76,25.8c6.12,2,10.76,7.08,13.98,12.48,5.41,9.29,5.35,20.78,3.63,31.09,0,.03-.06.02-.05,0,1.06-10.32,1.38-21.62-3.86-30.92-3.08-5.44-7.85-10.52-13.7-12.65h0Z"/>
      <path d="M69.78,28.71c-.16,6.96.89,14.17,4.14,20.38,3.69,5.95,7.84,11.73,10.44,18.29.01.03-.03.05-.05.02-3.1-6.34-7.18-12.06-10.75-18.13-3.15-6.26-4.24-13.78-3.79-20.57h0Z"/>
      <path d="M72.05,29.74c.65,4.73,3.04,8.95,4.98,13.2-2.86-3.67-4.63-8.72-4.98-13.2h0Z"/>
      <path d="M82.73,46.84c2.28,5.56,4.89,11.33,5.22,17.38-1.36-5.84-3.19-11.88-5.22-17.38h0Z"/>
      <path d="M67.86,35.64c-.24,10.86,5.92,20.54,12.69,28.55.02.02,0,.06-.03.04-7.48-7.35-13.25-18.02-12.66-28.58h0Z"/>
      <path d="M78.98,29.16c4.21,3.62,8.01,8.02,9.83,13.36,1.5,5.4,1.92,11.07,1.47,16.64,0,.03-.05.03-.05,0-.08-5.54-.46-11.13-1.8-16.51-1.63-5.3-5.6-9.82-9.45-13.48h0Z"/>
      <path d="M81.41,107.88c3.42,6.67,5.74,13.97,6.19,21.47,1.13,7.4,5.16,14.01,9.34,20.1.02.02-.02.06-.04.03-4.64-5.82-8.71-12.57-9.69-20.09-.29-7.48-2.7-14.91-5.79-21.52h0Z"/>
      <path d="M81.41,116.06c.32,2.55,1.07,5.04,1.5,7.55-.81-1.04-1.05-2.42-1.21-3.69-.13-1.23-.4-2.75-.29-3.85h0Z"/>
      <path d="M65.75,96.49c.57,2.96,2.55,5.29,4.08,7.76-2.33-1.73-3.84-5.05-4.08-7.76h0Z"/>
      <path d="M73.47,108.08c.99,1.17,2,2.33,2.83,3.62.21.46.55.96.57,1.46-.39-.35-.67-.8-.99-1.19-.56-.85-1.86-2.98-2.45-3.86-.02-.02.02-.05.04-.03h0Z"/>
      <path d="M72.02,116.76c2.58,6.43,6.88,12.28,10.73,18.01-4.6-4.95-8.44-11.68-10.73-18.01h0Z"/>
      <path d="M66.8,112.7c.77,2.51,2.5,4.69,3.35,7.15-.97-.92-1.58-2.17-2.09-3.4-.44-1.17-1.23-2.64-1.26-3.75h0Z"/>
      <path d="M46.25,108.7c4.76,3.09,9.75,6.35,13.18,10.94-4.16-3.83-8.65-7.75-13.18-10.94h0Z"/>
      <path d="M58.02,113.74c4.81,6.06,10.31,11.76,14.18,18.45-4.08-5.25-10.24-13.13-14.18-18.45h0Z"/>
      <path d="M47.18,111.97c4.19,7.54,11.86,11.54,18.55,16.5.02.02,0,.06-.03.04-7.13-4.11-14.78-9.11-18.53-16.54h0Z"/>
      <path d="M49.6,128.75c2.6,3.09,5.76,5.8,9.38,7.63,1.8.94,3.76,1.45,5.74,1.93,3.49.97,8.46,1.96,11.74,3.44,3.74,1.77,6.36,5.03,9.98,7.03,1.71,1.1,3.52,2.13,5.21,3.22-1.82-.85-3.62-1.92-5.38-2.95-3.63-1.83-6.37-5.09-10.02-6.86-3.16-1.5-8.21-2.59-11.61-3.58-1.96-.5-3.96-1.05-5.77-2.02-3.54-1.89-6.96-4.75-9.27-7.85h0Z"/>
      <path d="M59.79,132.15c2.65,1.73,5.35,3.37,8.14,4.83,2.77,1.58,5.95,2.14,8.71,3.73,5.54,3.09,10.64,6.84,15.8,10.5.03.02,0,.06-.03.04-5.44-3.2-10.55-6.98-15.97-10.19-2.73-1.63-5.91-2.24-8.63-3.86-2.71-1.54-5.67-3.26-8.02-5.05h0Z"/>
      <path d="M64.57,132.15c6.11,3.03,12.23,6.68,16.84,11.74-5.28-4.26-10.94-8.59-16.84-11.74h0Z"/>
      <path d="M47.18,119.6c2.55,4.58,7.98,6.06,12.82,6.79,4.95,1.06,9.7,3.36,13.43,6.79.02.02,0,.06-.03.04-4.04-2.97-8.62-5.21-13.49-6.43-4.77-.78-10.6-2.58-12.73-7.18h0Z"/>
      <path d="M78.15,85.02c-5.28-7.72-16.12-23.61-24.7-26.86-.03,0-.02-.06.01-.05,8.74,2.23,19.93,19.35,24.69,26.91h0Z"/>
      <path d="M53.87,61.15c1.04,4.97,3.52,9.71,7.21,13.2,3.62,3.35,8.53,5.08,12.15,8.47.08.13.28.22.22.44-.26-.51-.97-.85-1.45-1.2-3.18-2.16-6.74-3.73-9.76-6.12-4.43-3.62-7.57-9.29-8.38-14.78h0Z"/>
      <path d="M56.46,63.43c2.26,3.15,4.82,6.15,7.83,8.61,3.15,2.25,6.57,4.59,8.17,8.27.01.03-.03.05-.05.02-2.06-3.38-5.34-5.58-8.38-7.98-2.91-2.54-5.66-5.74-7.58-8.92h0Z"/>
      <path d="M101.39,207.1c3.61,3.2,7.31,6.34,11.27,9.09,1.98,1.38,4.18,2.45,6.09,3.95,9.64,7.39,16.47,18.12,20.05,29.66.01.03-.04.05-.05.02-3.33-9.04-8.2-17.58-14.86-24.57-3.26-3.61-7.29-6.29-11.38-8.84-3.87-2.82-7.81-6.07-11.13-9.29h0Z"/>
      <path d="M117.85,222.06c4.46,4.45,9.27,8.72,12.75,14.02,2.03,3.23,2.88,7.03,4.8,10.29-.84-.7-1.38-2.2-1.94-3.26,0,0-1.58-3.44-1.58-3.44-2.96-7-9.15-12.19-14.03-17.62h0Z"/>
      <path d="M122.76,230.62c2.58,3.92,5.4,7.71,7.97,11.6-1.79-1.52-3.07-3.61-4.33-5.58-1.2-1.96-2.68-4.1-3.63-6.03h0Z"/>
      <path d="M81.23,88.39c1.19-.69.18-1.87.14-2.87,0-.02.02-.04.04-.03.51.35.79.93.77,1.54.05.6-.32,1.27-.93,1.4-.03,0-.04-.03-.01-.05h0Z"/>
      <path d="M87.62,83.72c.36.45.85.91,1.34.94.55-.05.85-.49,1.33-.79.02-.01.05,0,.04.03-.14,1.25-1.49,1.59-2.26.64-.19-.25-.43-.53-.48-.81.01,0,.02,0,.03,0h0Z"/>
      <path d="M81.5,68.21c1.8-3.05,4.47.43,5.42,2.33,0,0-.39.02-.39.02.62-1.81,2.4-4.87,4.66-3.66-1.07-.26-2.03.26-2.67,1.11-.64.8-1.18,1.73-1.59,2.7-.05.11-.17.16-.28.11-1.14-1.92-2.94-5.39-5.15-2.63h0Z"/>
      <path d="M86.76,70.64c.99,3.11,2.26,6.42,1.93,9.71-.71-3.16-1.18-6.67-1.93-9.71h0Z"/>
    </g>
  </g>
</svg>