<?xml version="1.0" encoding="UTF-8"?>
<svg id="Layer_1" data-name="Layer 1" xmlns="http://www.w3.org/2000/svg" xmlns:xlink="http://www.w3.org/1999/xlink" viewBox="0 0 289.13 430.87">
  <defs>
    <style>
      .cls-1, .cls-2 {
        fill: none;
      }

      .cls-3 {
        font-family: Pretendard-Regular-KSCpc-EUC-H, Pretendard;
      }

      .cls-3, .cls-4 {
        font-size: 14px;
      }

      .cls-5 {
        fill: #fff0f0;
      }

      .cls-5, .cls-6, .cls-7, .cls-2, .cls-8, .cls-9 {
        stroke: #000;
      }

      .cls-5, .cls-6, .cls-7, .cls-2, .cls-9 {
        stroke-width: .5px;
      }

      .cls-5, .cls-2 {
        stroke-linecap: round;
        stroke-linejoin: round;
      }

      .cls-6 {
        fill: #c5d190;
      }

      .cls-6, .cls-7, .cls-8, .cls-9 {
        stroke-miterlimit: 10;
      }

      .cls-10 {
        clip-path: url(#clippath-1);
      }

      .cls-7 {
        fill: #f4f9fd;
      }

      .cls-11 {
        fill: #fff;
      }

      .cls-4 {
        font-family: 'IM_FELL_Double_Pica_SC', 'IM FELL Double Pica SC';
      }

      .cls-8, .cls-12, .cls-9 {
        fill: #f4ed98;
      }

      .cls-13 {
        clip-path: url(#clippath);
      }
    </style>
    <clipPath id="clippath">
      <rect class="cls-1" x="-295.11" y="35.22" width="261.08" height="360.43" rx="30" ry="30"/>
    </clipPath>
    <clipPath id="clippath-1">
      <rect class="cls-1" x="14.03" y="35.22" width="261.08" height="360.43" rx="30" ry="30"/>
    </clipPath>
  </defs>
  <rect class="cls-8" x="0" width="289.13" height="430.87"/>
  <rect class="cls-7" x="14.03" y="35.22" width="261.08" height="360.43" rx="30" ry="30"/>
  <text class="cls-4" transform="translate(113.92 23.6)"><tspan x="0" y="0">FREESIA</tspan></text>
  <text class="cls-3" transform="translate(102.98 415.46)"><tspan x="0" y="0">프리지아 · 슬픔</tspan></text>
  <path class="cls-5" d="M16.59,5.73l.43.83c2.53,4.84,5.79,9.26,9.66,13.1l.05.05-.05.05c-3.87,3.85-7.13,8.27-9.66,13.1l-.43.83-.43-.83c-2.53-4.84-5.79-9.26-9.66-13.1l-.05-.05.05-.05c3.87-3.85,7.13-8.27,9.66-13.1l.43-.83Z"/>
  <path class="cls-5" d="M273.32,5.73l.43.83c2.53,4.84,5.79,9.26,9.66,13.1l.05.05-.05.05c-3.87,3.85-7.13,8.27-9.66,13.1l-.43.83-.43-.83c-2.53-4.84-5.79-9.26-9.66-13.1l-.05-.05.05-.05c3.87-3.85,7.13-8.27,9.66-13.1l.43-.83Z"/>
  <path class="cls-5" d="M203.35,11.12l.24.47c1.57,3,3.59,5.74,5.99,8.12h0s0,0,0,0c-2.4,2.38-4.42,5.12-5.99,8.12l-.24.47-.24-.47c-1.57-3-3.59-5.74-5.99-8.12h0s0,0,0,0c2.4-2.38,4.42-5.12,5.99-8.12l.24-.47Z"/>
  <path class="cls-5" d="M86.94,11.12l.24.47c1.57,3,3.59,5.74,5.99,8.12h0s0,0,0,0c-2.4,2.38-4.42,5.12-5.99,8.12l-.24.47-.24-.47c-1.57-3-3.59-5.74-5.99-8.12h0s0,0,0,0c2.4-2.38,4.42-5.12,5.99-8.12l.24-.47Z"/>
  <path class="cls-5" d="M16.59,397.53l.43.83c2.53,4.84,5.79,9.26,9.66,13.1l.05.05-.05.05c-3.87,3.85-7.13,8.27-9.66,13.1l-.43.83-.43-.83c-2.53-4.84-5.79-9.26-9.66-13.1l-.05-.05.05-.05c3.87-3.85,7.13-8.27,9.66-13.1l.43-.83Z"/>
  <path class="cls-5" d="M273.32,397.53l.43.83c2.53,4.84,5.79,9.26,9.66,13.1l.05.05-.05.05c-3.87,3.85-7.13,8.27-9.66,13.1l-.43.83-.43-.83c-2.53-4.84-5.79-9.26-9.66-13.1l-.05-.05.05-.05c3.87-3.85,7.13-8.27,9.66-13.1l.43-.83Z"/>
  <path class="cls-5" d="M200.2,402.92l.24.47c1.57,3,3.59,5.74,5.99,8.12h0s0,0,0,0c-2.4,2.38-4.42,5.12-5.99,8.12l-.24.47-.24-.47c-1.57-3-3.59-5.74-5.99-8.12h0s0,0,0,0c2.4-2.38,4.42-5.12,5.99-8.12l.24-.47Z"/>
  <path class="cls-5" d="M88.77,402.92l.24.47c1.57,3,3.59,5.74,5.99,8.12h0s0,0,0,0c-2.4,2.38-4.42,5.12-5.99,8.12l-.24.47-.24-.47c-1.57-3-3.59-5.74-5.99-8.12h0s0,0,0,0c2.4-2.38,4.42-5.12,5.99-8.12l.24-.47Z"/>
  <g class="cls-13">
    <g>
      <rect class="cls-11" x="-196.64" y="318.4" width="273.51" height="17.97" rx="8.99" ry="8.99"/>
      <g>
        <path class="cls-11" d="M-141.22,314.66c-1.47-2.64-4.28-4.43-7.52-4.43-4.74,0-8.59,3.85-8.59,8.59v5.05H38.07l-.21-6.77-18.8-2.26-9.19-14.17-19.5.7-12.8,8.81-9.58-9.51-7.34-2.4-8.85-1.11-12.16-15.64-12.52-1.87-13.47,12.15-7.87,8.51-12.55-5.41-6.34,1.08-7.62,4.62-19.03,6.88-1.47,7.16Z"/>
        <path class="cls-11" d="M-21.12,311.62c0-8.95,8.99-16.21,20.09-16.21s20.09,7.26,20.09,16.21v5.61"/>
        <path class="cls-11" d="M19.06,317.11c0-3.82,4.21-6.91,9.4-6.91s9.4,3.1,9.4,6.91v2.4h21.04"/>
        <circle class="cls-11" cx="-.73" cy="320.68" r="2.75"/>
        <path class="cls-11" d="M8.86,304.48c2.16,2.01,4.09,5.05,4.6,9.61"/>
        <path class="cls-11" d="M1.55,300.69s1.74.28,3.9,1.4"/>
      </g>
      <g>
        <line class="cls-2" x1="63.36" y1="318.7" x2="70.95" y2="318.7"/>
        <line class="cls-2" x1="-165.16" y1="335.56" x2="30.53" y2="335.56"/>
        <line class="cls-2" x1="-96.37" y1="327.94" x2="7.37" y2="327.94"/>
        <line class="cls-2" x1="14.69" y1="327.94" x2="20.31" y2="327.94"/>
        <line class="cls-2" x1="24.91" y1="327.94" x2="76.16" y2="327.94"/>
        <path class="cls-2" d="M-21.12,310.81c0-8.95,8.99-16.21,20.09-16.21s20.09,7.26,20.09,16.21v5.61"/>
        <path class="cls-2" d="M19.06,316.31c0-3.82,4.21-6.91,9.4-6.91s9.4,3.1,9.4,6.91v2.4h21.04"/>
        <circle class="cls-2" cx="-.73" cy="319.87" r="2.75"/>
        <path class="cls-2" d="M8.86,303.67c2.16,2.01,4.09,5.05,4.6,9.61"/>
        <path class="cls-2" d="M1.55,299.88s1.74.28,3.9,1.4"/>
      </g>
    </g>
  </g>
  <g class="cls-10">
    <g>
      <rect class="cls-11" x="94.84" y="333.68" width="280.56" height="10.6" rx="5.3" ry="5.3"/>
      <g>
        <path class="cls-11" d="M296.63,304.92v-12.27c0-22.82-18.5-41.32-41.32-41.32s-41.32,18.5-41.32,41.32"/>
        <path class="cls-11" d="M178.17,309.36c3.56-11.14,13.32-19.14,24.81-19.14,12.78,0,23.43,9.9,25.77,23"/>
        <path class="cls-11" d="M158,322.7c0-8.44,5.93-15.28,13.24-15.28,6.18,0,11.36,4.88,12.83,11.49"/>
        <path class="cls-11" d="M231.13,315.27c2.77-2.91,6.55-4.7,10.73-4.7,8.48,0,15.35,7.4,15.35,16.53"/>
        <path class="cls-11" d="M129.43,337.35h211.42v-3.26l-20.39-16.95c0-8.61-6.48-15.59-14.48-15.59s-14.48,6.98-14.48,15.59"/>
        <path class="cls-11" d="M222.03,318.25c0-2.77,2.17-5.02,4.86-5.02s4.86,2.25,4.86,5.02"/>
        <path class="cls-11" d="M170.59,330.26c0-2.77-2.17-5.02-4.86-5.02-1.51,0-2.86.71-3.75,1.83"/>
        <path class="cls-11" d="M179.8,325.24c0-3.86,3.8-6.99,8.49-6.99s8.49,3.13,8.49,6.99"/>
        <path class="cls-11" d="M118.13,337.35h11.3v-2.61c0-8.44,7.75-15.28,17.32-15.28,6.48,0,12.13,3.14,15.1,7.8,1.41,2.21,2.22,4.76,2.22,7.48"/>
        <path class="cls-11" d="M205.27,297.54s5.1,0,7.27,2.22"/>
        <path class="cls-11" d="M214.89,301.73s3.6,2.54,4.82,8.84"/>
        <path class="cls-11" d="M265.97,261.18s5.92,1.57,8.49,4.57"/>
        <path class="cls-11" d="M277.52,268.03s13.41,10.84,8.99,31.18"/>
        <circle class="cls-11" cx="274.71" cy="327.19" r="2.98"/>
        <circle class="cls-11" cx="151.18" cy="310.56" r="3.08"/>
        <circle class="cls-11" cx="228.05" cy="283.62" r="2.4"/>
      </g>
      <path class="cls-11" d="M323.33,331.75l-26.7-26.83-33.48-14.7s-28.57.28-32.7,0-12.53-2.45-12.53-2.45l-12.64,13.78-15.77,5.19-25.44,6.91-11.11,16.61-23.52,7.1"/>
      <g>
        <path class="cls-2" d="M214,292.24c0-22.82,18.5-41.32,41.32-41.32s41.32,18.5,41.32,41.32v12.27"/>
        <path class="cls-2" d="M178.17,308.95c3.56-11.14,13.32-19.14,24.81-19.14,12.78,0,23.43,9.9,25.77,23"/>
        <path class="cls-2" d="M158,322.29c0-8.44,5.93-15.28,13.24-15.28,6.18,0,11.36,4.88,12.83,11.49"/>
        <path class="cls-2" d="M231.13,314.86c2.77-2.91,6.55-4.7,10.73-4.7,8.48,0,15.35,7.4,15.35,16.53"/>
        <path class="cls-2" d="M222.03,317.83c0-2.77,2.17-5.02,4.86-5.02s4.86,2.25,4.86,5.02"/>
        <path class="cls-2" d="M170.59,329.84c0-2.77-2.17-5.02-4.86-5.02-1.51,0-2.86.71-3.75,1.83"/>
        <path class="cls-2" d="M179.8,324.82c0-3.86,3.8-6.99,8.49-6.99s8.49,3.13,8.49,6.99"/>
        <line class="cls-2" x1="217.92" y1="336.94" x2="311.46" y2="336.94"/>
        <line class="cls-2" x1="143.78" y1="336.94" x2="200.97" y2="336.94"/>
        <path class="cls-2" d="M118.13,333.68h11.3v.65c0-8.44,7.75-15.28,17.32-15.28,6.48,0,12.13,3.14,15.1,7.8,1.41,2.21,2.22,4.76,2.22,7.48"/>
        <line class="cls-2" x1="106.59" y1="333.68" x2="113.9" y2="333.68"/>
        <line class="cls-2" x1="206.74" y1="336.94" x2="210.74" y2="336.94"/>
        <path class="cls-2" d="M205.27,297.13s5.1,0,7.27,2.22"/>
        <path class="cls-2" d="M214.89,301.31s3.6,2.54,4.82,8.84"/>
        <path class="cls-2" d="M265.97,260.77s5.92,1.57,8.49,4.57"/>
        <path class="cls-2" d="M277.52,267.62s13.41,10.84,8.99,31.18"/>
        <line class="cls-2" x1="99.42" y1="344.15" x2="238.43" y2="344.15"/>
        <line class="cls-2" x1="244.68" y1="344.15" x2="272.31" y2="344.15"/>
        <line class="cls-2" x1="276.38" y1="344.15" x2="281.03" y2="344.15"/>
        <line class="cls-2" x1="286.41" y1="344.15" x2="370.46" y2="344.15"/>
        <circle class="cls-2" cx="274.71" cy="326.77" r="2.98"/>
        <circle class="cls-2" cx="151.18" cy="310.15" r="3.08"/>
        <circle class="cls-2" cx="228.05" cy="283.21" r="2.4"/>
      </g>
    </g>
    <g>
      <rect class="cls-11" x="-87.34" y="155.67" width="280.56" height="10.6" rx="5.3" ry="5.3"/>
      <g>
        <path class="cls-11" d="M114.46,126.91v-12.27c0-22.82-18.5-41.32-41.32-41.32s-41.32,18.5-41.32,41.32"/>
        <path class="cls-11" d="M-4.01,131.35c3.56-11.14,13.32-19.14,24.81-19.14,12.78,0,23.43,9.9,25.77,23"/>
        <path class="cls-11" d="M-24.18,144.69c0-8.44,5.93-15.28,13.24-15.28,6.18,0,11.36,4.88,12.83,11.49"/>
        <path class="cls-11" d="M48.96,137.26c2.77-2.91,6.55-4.7,10.73-4.7,8.48,0,15.35,7.4,15.35,16.53"/>
        <path class="cls-11" d="M-52.74,159.34h211.42v-3.26l-20.39-16.95c0-8.61-6.48-15.59-14.48-15.59s-14.48,6.98-14.48,15.59"/>
        <path class="cls-11" d="M130.93,156.08c0-10.26,6.26-18.57,13.97-18.57s13.97,8.31,13.97,18.57h11.97"/>
        <path class="cls-11" d="M39.85,140.23c0-2.77,2.17-5.02,4.86-5.02s4.86,2.25,4.86,5.02"/>
        <path class="cls-11" d="M-2.37,147.22c0-3.86,3.8-6.99,8.49-6.99s8.49,3.13,8.49,6.99"/>
        <path class="cls-11" d="M23.1,119.53s5.1,0,7.27,2.22"/>
        <path class="cls-11" d="M32.72,123.71s3.6,2.54,4.82,8.84"/>
        <path class="cls-11" d="M83.79,83.17s5.92,1.57,8.49,4.57"/>
        <path class="cls-11" d="M95.35,90.02s13.41,10.84,8.99,31.18"/>
        <circle class="cls-11" cx="92.53" cy="149.17" r="2.98"/>
        <circle class="cls-11" cx="160.18" cy="111.25" r="4.05"/>
        <circle class="cls-11" cx="144.75" cy="126.33" r="2.4"/>
        <circle class="cls-11" cx="45.88" cy="105.61" r="2.4"/>
      </g>
      <path class="cls-11" d="M141.16,153.74l-26.7-26.83-33.48-14.7s-28.57.28-32.7,0-12.53-2.45-12.53-2.45l-12.64,13.78-15.77,5.19-25.44,6.91-11.11,16.61-23.52,7.1"/>
      <g>
        <path class="cls-2" d="M31.82,114.23c0-22.82,18.5-41.32,41.32-41.32s41.32,18.5,41.32,41.32v12.27"/>
        <path class="cls-2" d="M-4.01,130.94c3.56-11.14,13.32-19.14,24.81-19.14,12.78,0,23.43,9.9,25.77,23"/>
        <path class="cls-2" d="M-24.18,144.28c0-8.44,5.93-15.28,13.24-15.28,6.18,0,11.36,4.88,12.83,11.49"/>
        <path class="cls-2" d="M48.96,136.84c2.77-2.91,6.55-4.7,10.73-4.7,8.48,0,15.35,7.4,15.35,16.53"/>
        <path class="cls-2" d="M109.33,138.72c0-8.61,6.48-15.59,14.48-15.59s14.48,6.98,14.48,15.59"/>
        <path class="cls-2" d="M130.93,155.67c0-10.26,6.26-18.57,13.97-18.57s13.97,8.31,13.97,18.57h11.97"/>
        <path class="cls-2" d="M39.85,139.82c0-2.77,2.17-5.02,4.86-5.02s4.86,2.25,4.86,5.02"/>
        <path class="cls-2" d="M-2.37,146.81c0-3.86,3.8-6.99,8.49-6.99s8.49,3.13,8.49,6.99"/>
        <line class="cls-2" x1="175.02" y1="155.67" x2="182.57" y2="155.67"/>
        <line class="cls-2" x1="35.74" y1="158.93" x2="129.29" y2="158.93"/>
        <line class="cls-2" x1="-38.39" y1="158.93" x2="18.8" y2="158.93"/>
        <line class="cls-2" x1="24.56" y1="158.93" x2="28.56" y2="158.93"/>
        <path class="cls-2" d="M23.1,119.11s5.1,0,7.27,2.22"/>
        <path class="cls-2" d="M32.72,123.3s3.6,2.54,4.82,8.84"/>
        <path class="cls-2" d="M83.79,82.75s5.92,1.57,8.49,4.57"/>
        <path class="cls-2" d="M95.35,89.6s13.41,10.84,8.99,31.18"/>
        <line class="cls-2" x1="-82.75" y1="166.14" x2="56.26" y2="166.14"/>
        <line class="cls-2" x1="62.51" y1="166.14" x2="90.14" y2="166.14"/>
        <line class="cls-2" x1="94.21" y1="166.14" x2="98.86" y2="166.14"/>
        <line class="cls-2" x1="104.24" y1="166.14" x2="188.29" y2="166.14"/>
        <circle class="cls-2" cx="92.53" cy="148.76" r="2.98"/>
        <circle class="cls-2" cx="160.18" cy="110.84" r="4.05"/>
        <circle class="cls-2" cx="144.75" cy="125.92" r="2.4"/>
        <circle class="cls-2" cx="45.88" cy="105.19" r="2.4"/>
      </g>
    </g>
  </g>
  <g>
    <g>
      <path class="cls-9" d="M202.18,183.53s28.87.35,33.56-1.22c4.7-1.57,25.22-14.16,14.96-22.91,0,0,.7-11.8-10.09-12.53-10.78-.73-15.83-.23-19.13,1.88-5.71,3.64-11.48,17.22-11.48,17.22l-7.83,13.22v4.35Z"/>
      <g>
        <path class="cls-12" d="M205.42,180.12c3.68-3.02,7.92-5.36,12.44-6.85"/>
        <path d="M205.52,180.23c2.84-2.32,6-4.24,9.38-5.68.98-.42,1.99-.79,3-1.13.18-.06.1-.35-.08-.29-3.56,1.18-6.94,2.86-10.02,5-.85.59-1.68,1.22-2.49,1.88-.15.12.06.33.21.21h0Z"/>
      </g>
      <g>
        <path class="cls-12" d="M209.5,172.43c1.24-.19,2.38-.77,3.5-1.35,3.45-1.79,6.87-3.62,10.26-5.5"/>
        <path d="M209.54,172.57c1.18-.19,2.26-.7,3.31-1.25,1.18-.61,2.35-1.22,3.52-1.84,2.33-1.24,4.65-2.49,6.96-3.77.17-.09.02-.35-.15-.26-2.27,1.26-4.55,2.5-6.84,3.71-1.14.6-2.28,1.2-3.42,1.79s-2.22,1.13-3.46,1.33c-.19.03-.11.32.08.29h0Z"/>
      </g>
      <path class="cls-9" d="M170.7,161.62s-13.39-4.17-18.43-10.78c-5.04-6.61-9.57-14.26-2.26-18.43,0,0,1.22-6.26,9.22-7.3s18.61-1.04,21.56,9.04,4.17,29.22,4.17,29.22l-10.43,5.74-3.83-7.48Z"/>
      <g>
        <path class="cls-12" d="M173.32,141.53c2.43,2.08,4.46,4.64,5.92,7.49"/>
        <path d="M173.22,141.64c1.89,1.62,3.54,3.52,4.86,5.63.37.59.72,1.2,1.04,1.82.09.17.35.02.26-.15-1.15-2.23-2.63-4.28-4.38-6.07-.5-.51-1.02-.99-1.56-1.45-.15-.12-.36.09-.21.21h0Z"/>
      </g>
      <path class="cls-9" d="M180.61,169.97s-4.52-30.26,0-38.95c4.52-8.7,9.22-13.04,14.61-12.52s6.96,7.13,6.96,7.13c0,0,5.04-8,13.56,3.65,8.52,11.65-1.22,36.35-1.22,36.35l-10.61,19.48h-13.91l-9.39-15.13Z"/>
      <g>
        <path class="cls-12" d="M201.26,129.99c.19,4.88-.23,9.79-1.25,14.57-.2.93-.42,1.87-.38,2.82"/>
        <path d="M201.11,129.99c.11,2.92.01,5.84-.31,8.75-.17,1.49-.39,2.98-.67,4.46-.26,1.38-.69,2.77-.66,4.18,0,.19.31.19.3,0-.04-1.49.44-2.97.71-4.43s.46-2.8.62-4.21c.32-2.9.42-5.83.31-8.75,0-.19-.31-.19-.3,0h0Z"/>
      </g>
      <g>
        <path class="cls-12" d="M191.58,140.54c-1,4.62-1.38,9.37-1.14,14.09"/>
        <path d="M191.44,140.5c-1,4.64-1.38,9.39-1.14,14.13,0,.19.31.19.3,0-.24-4.71.14-9.44,1.13-14.05.04-.19-.25-.27-.29-.08h0Z"/>
      </g>
      <g>
        <path class="cls-12" d="M205.59,145.06c.4,3.2.65,6.42.75,9.64.02.77-.02,1.67-.65,2.12"/>
        <path d="M205.44,145.06c.26,2.08.46,4.17.59,6.27.07,1.05.12,2.09.15,3.14.03.74.09,1.72-.57,2.22-.15.11,0,.38.15.26.61-.46.73-1.21.73-1.92,0-1.08-.07-2.16-.14-3.24-.13-2.25-.34-4.49-.62-6.73-.02-.19-.32-.19-.3,0h0Z"/>
      </g>
      <g>
        <path class="cls-12" d="M196.89,135.74c.53,4.41.34,8.92-.58,13.27"/>
        <path d="M196.74,135.74c.53,4.41.33,8.88-.57,13.23-.04.19.25.27.29.08.91-4.37,1.11-8.87.58-13.31-.02-.19-.32-.19-.3,0h0Z"/>
      </g>
      <path class="cls-9" d="M195.16,161.44s-1.69-10.6,1.69-10.42c3.38.18,4.81,1.34,5.25,5.79s-2.76,13.54-2.76,13.54"/>
      <path class="cls-9" d="M168.44,191.19s-5.91,25.22-7.48,26.96.87,12.87,2.61,13.04,12.87-10.61,16.35-12.35,28.87-23.48,28.87-24.69-36.35-6.78-36.35-6.78l-4,3.83Z"/>
      <path class="cls-9" d="M189.83,193.62s12.35.7,14.43,3.48,5.22,13.39,13.39,16.35c8.17,2.96,21.39,4.7,22.78,0,0,0,10.26-2.26,7.13-12.17-3.13-9.91-4-17.56-14.43-20.52-10.43-2.96-35.3,2.82-35.3,2.82l-8,10.05Z"/>
      <path class="cls-9" d="M191.86,179.05s-6.96-4.01-8.44-8.23c-1.48-4.22-4.64-11.18-10.34-11.18s-11.82-1.48-16.25,3.17c-4.43,4.64-4.22,11.18-6.12,13.51s0,9.07,6.12,11.82c0,0-2.11,7.17,6.12,7.39s29.97-1.27,32.5-1.06,9.07-11.61,2.74-13.51l-6.33-1.9Z"/>
      <path class="cls-9" d="M193.79,177.97s-1.28-8.7-2.9-11.95-2.55-9.4,0-9.63,4.64,1.39,5.92,5.8c1.28,4.41,0,15.78,0,15.78"/>
      <path class="cls-9" d="M202.15,180.67s10.64-12.63,8.86-15.32-5.79,2.4-5.79,2.4l-4.27,7.48"/>
      <path class="cls-9" d="M199.08,174.79s5.43-15.09,8.46-15.38c3.03-.29,1.6,5.41,0,8.17-1.6,2.76-7.93,12.33-7.93,12.33"/>
      <path class="cls-9" d="M98.23,221.18s-12.31-28.05-24.62-32.28c-12.31-4.24-18.97-4.89-22.6-1.54s.2,15.26,2.62,18.69,18.16,15.33,24.21,16.75c6.05,1.41,17.76,12.11,17.76,12.11l9.48,1.61-6.86-15.33Z"/>
      <g>
        <path class="cls-9" d="M82.62,156.65s17.25,9.79,22.9,20.09c5.64,10.3,11.04,27.35,11.04,27.35l11.31,8.27,5.91-2.36s-4.9-17.82-6.42-24.78c-1.52-6.96-2.5-22.83-4.12-27.73-1.62-4.9,4.8-31.11,6.99-34.3,2.2-3.19-51.67,25.18-51.67,25.18l4.05,8.27Z"/>
        <path class="cls-9" d="M83.31,144.83l-15.05-17.73s-10.98-14.01-5.74-21.44c0,0,2.36-6.08,7.09-4.05,0,0,8.61-9.29,23.98,2.03,15.37,11.31,11.48,36.13,11.48,36.13"/>
        <path class="cls-9" d="M122.63,84.89s2.95-6.42,6.37-6.59c3.42-.17,9.84,2.53,10.17,10.13.34,7.6-6.59,14.86-6.59,14.86l-8.78-2.2-1.18-16.21Z"/>
        <path class="cls-9" d="M95.11,115.96s-5.91-12.83.68-21.44,15.87-15.87,20.6-14.86c4.73,1.01,3.88,2.2,3.88,2.2,0,0,5.23-6.42,7.77,2.87s-.17,23.13-4.9,29.38c-4.73,6.25-15.53,20.09-15.53,20.09l-8.31,1.16-4.18-19.4Z"/>
        <path class="cls-9" d="M81.77,131.49s-20.43-15.36-32.25-6.83c-11.82,8.52-9.46,16.29-9.46,16.29,0,0-6.08,3.42-4.05,5.93s21.54,3.19,22.67,2.17l36.43-12.33-13.34-5.23Z"/>
        <path class="cls-9" d="M94.66,146.2c.28-2.12,2.41-11.82-5.8-10.41-9.51,1.63-9.91,3.8-14.86,4.31,0,0-10.68.17-13,4.56s-4.73,10.08-4.05,14.75.34,8.13,5.91,9.69,13.51,1.39,17.9-5.19c2.87-4.3,5.01-14.39,10.09-17.34"/>
        <path class="cls-9" d="M138,111.9s3.88-5.91,6.92-7.43,10.81-12.16,8.95-17.39c-1.86-5.23-10.98-1.01-10.98-1.01,0,0-11.14-.93-16.04,11.95l-4.9,12.87,16.04,1.01Z"/>
        <path class="cls-9" d="M104.71,143.18c.86-2.6,4.59-5.79,6.95-7.39,2.87-1.94,10.38-7,17.35-7.68,6.97-.68,15.76-5.69,13.38-12.33s-5.73-11.48-11.48-10.81c-5.75.68-11.99,5.4-13.35,8.27-1.35,2.87-4.67,8.74-6.73,9.94s-7.62,5.25-7.12,14.04"/>
        <path class="cls-9" d="M98.5,136.47s-2.27-13.66-.14-15.07,4.07,2.05,5.26,6.55c1.19,4.49,0,9.67,0,9.67"/>
        <path class="cls-9" d="M92.12,138.91s-14.48-13.97-8.8-16.39c5.69-2.42,7.34,5.69,8.43,7.04s7.96,7.04,7.96,7.04"/>
      </g>
      <g>
        <path class="cls-12" d="M173.88,199.16c-2.51,5.6-6.23,10.78-7.29,16.82"/>
        <path d="M173.75,199.08c-2.51,5.57-6.21,10.74-7.31,16.86-.03.19.26.27.29.08,1.09-6.1,4.78-11.24,7.28-16.79.08-.17-.18-.33-.26-.15h0Z"/>
      </g>
      <g>
        <path class="cls-12" d="M191.45,198.03c-3.52,4.16-7.08,8.28-10.68,12.36-1.01,1.15-2.04,2.3-3.22,3.27-1.05.86-2.21,1.56-3.25,2.43-3.67,3.08-5.4,7.85-8.4,11.58"/>
        <path d="M191.34,197.92c-3.64,4.3-7.32,8.58-11.06,12.79-.89,1-1.8,1.99-2.84,2.84s-2.08,1.48-3.07,2.29c-1.74,1.42-3.08,3.25-4.28,5.13-1.41,2.21-2.65,4.53-4.29,6.59-.12.15.09.36.21.21,2.83-3.55,4.51-8,7.88-11.13.99-.92,2.13-1.63,3.2-2.44.99-.75,1.87-1.6,2.71-2.51,1.91-2.07,3.73-4.21,5.57-6.34,2.08-2.39,4.14-4.8,6.19-7.22.12-.15-.09-.36-.21-.21h0Z"/>
      </g>
      <g>
        <path class="cls-12" d="M198.56,196.53c-1.79,1.07-2.76,3.06-3.79,4.87-3.04,5.37-7.35,10.01-12.46,13.46"/>
        <path d="M198.48,196.4c-1.26.78-2.14,1.98-2.89,3.24-.82,1.38-1.57,2.8-2.47,4.14-1.83,2.74-4.01,5.26-6.45,7.47-1.4,1.26-2.88,2.42-4.44,3.48-.16.11,0,.37.15.26,5.39-3.65,9.73-8.53,12.9-14.2.87-1.56,1.79-3.17,3.35-4.13.16-.1.01-.36-.15-.26h0Z"/>
      </g>
      <g>
        <path class="cls-12" d="M170.86,215.22c-1.74,2.41-3.51,4.88-4.35,7.74-.25.85-.43,1.75-1,2.42"/>
        <path d="M170.73,215.15c-1.76,2.43-3.55,4.93-4.39,7.85-.23.79-.4,1.63-.94,2.28-.12.15.09.36.21.21.44-.54.67-1.19.86-1.85.21-.73.42-1.45.72-2.15.6-1.43,1.41-2.76,2.27-4.04.49-.73,1.01-1.44,1.52-2.16.11-.16-.15-.31-.26-.15h0Z"/>
      </g>
      <g>
        <path class="cls-12" d="M228.11,187.64c4.92,4.44,8.59,10.27,10.46,16.63.72,2.44,1.23,5.05,2.8,7.05"/>
        <path d="M228.01,187.75c2.66,2.42,4.96,5.22,6.81,8.31s3.12,6.46,4.1,9.96c.53,1.9,1.12,3.8,2.34,5.38.12.15.38,0,.26-.15-1.14-1.48-1.73-3.24-2.23-5.02s-1-3.51-1.68-5.22c-1.3-3.22-3.05-6.25-5.19-8.98-1.27-1.61-2.67-3.11-4.18-4.49-.14-.13-.36.08-.21.21h0Z"/>
      </g>
      <g>
        <path class="cls-12" d="M204.71,189.21c5.07-.25,10.31.44,14.72,2.95,1.78,1.01,3.51,2.34,5.54,2.45"/>
        <path d="M204.71,189.36c3.66-.17,7.37.12,10.86,1.26,1.75.57,3.36,1.39,4.93,2.35,1.39.84,2.82,1.67,4.47,1.79.19.01.19-.29,0-.3-1.83-.13-3.37-1.18-4.89-2.09s-3.09-1.62-4.76-2.14c-3.42-1.06-7.05-1.33-10.61-1.17-.19,0-.19.31,0,.3h0Z"/>
      </g>
      <g>
        <path class="cls-12" d="M201.66,191.31c3.04,1.03,6.22,1.66,9.43,1.85.52.03,1.06.05,1.56.21.48.15.92.43,1.34.7.78.5,1.56,1,2.34,1.5"/>
        <path d="M201.62,191.45c2.42.82,4.92,1.38,7.45,1.68.62.07,1.25.13,1.88.17.67.04,1.35.06,1.97.34.57.25,1.08.63,1.61.96.58.37,1.15.74,1.73,1.11.16.1.31-.16.15-.26-.58-.37-1.15-.74-1.73-1.11-.52-.33-1.04-.71-1.61-.96-.51-.23-1.04-.31-1.59-.35-.67-.05-1.33-.09-1.99-.16-2.65-.28-5.26-.86-7.79-1.71-.18-.06-.26.23-.08.29h0Z"/>
      </g>
      <g>
        <path class="cls-12" d="M215.61,178.49c6.99-3.23,13.98-6.47,20.96-9.7"/>
        <path d="M215.68,178.62c6.99-3.23,13.98-6.47,20.96-9.7.18-.08.02-.34-.15-.26-6.99,3.23-13.98,6.47-20.96,9.7-.18.08-.02.34.15.26h0Z"/>
      </g>
      <g>
        <path class="cls-12" d="M223.63,168.98c5.25-3.4,10.52-6.76,15.8-10.11"/>
        <path d="M223.7,169.11c5.25-3.4,10.52-6.76,15.8-10.11.16-.1.01-.36-.15-.26-5.28,3.36-10.55,6.71-15.8,10.11-.16.1-.01.36.15.26h0Z"/>
      </g>
      <g>
        <path class="cls-12" d="M218.21,164.04c3.45-3.08,6.56-6.54,9.25-10.3"/>
        <path d="M218.31,164.14c2.71-2.42,5.21-5.07,7.46-7.92.62-.79,1.23-1.59,1.81-2.41.11-.16-.15-.31-.26-.15-2.09,2.92-4.43,5.65-6.99,8.17-.73.72-1.48,1.42-2.24,2.1-.14.13.07.34.21.21h0Z"/>
      </g>
      <g>
        <path class="cls-12" d="M167.88,177.89c5.95-1.68,12.2-2.25,18.36-1.68"/>
        <path d="M167.92,178.03c5.95-1.67,12.16-2.24,18.32-1.67.19.02.19-.28,0-.3-6.18-.57-12.43,0-18.4,1.69-.19.05-.11.34.08.29h0Z"/>
      </g>
      <g>
        <path class="cls-12" d="M164.05,184.76l10.62-1.85c1.42-.25,2.86-.5,4.3-.34"/>
        <path d="M164.09,184.91l7.42-1.29c1.21-.21,2.42-.42,3.63-.63s2.54-.39,3.83-.26c.19.02.19-.28,0-.3-1.22-.12-2.43.03-3.63.22s-2.51.44-3.77.65l-7.56,1.32c-.19.03-.11.32.08.29h0Z"/>
      </g>
      <g>
        <path class="cls-12" d="M167.88,189.93c6.92,0,13.84-.84,20.55-2.52"/>
        <path d="M167.88,190.08c6.94,0,13.86-.85,20.59-2.52.19-.05.11-.34-.08-.29-6.71,1.67-13.6,2.51-20.51,2.51-.19,0-.19.3,0,.3h0Z"/>
      </g>
      <g>
        <path class="cls-12" d="M155.91,176.6c1.75-1.71,3.55-3.45,5.79-4.44,2.31-1.02,4.9-1.16,7.43-1.28,1.37-.07,2.73-.13,4.1-.2"/>
        <path d="M156.02,176.71c2.19-2.13,4.44-4.2,7.47-5,1.54-.41,3.13-.54,4.71-.63,1.68-.09,3.35-.17,5.03-.25.19,0,.19-.31,0-.3-1.78.09-3.56.16-5.34.26-1.56.09-3.12.24-4.63.66-3.01.83-5.27,2.91-7.45,5.04-.14.13.07.35.21.21h0Z"/>
      </g>
      <g>
        <path class="cls-12" d="M154.29,143.18c1.93,1.77,4.1,3.28,6.43,4.47.67.34,1.36.66,1.95,1.12,1.35,1.06,2.14,2.83,3.72,3.52"/>
        <path d="M154.18,143.29c1.57,1.44,3.29,2.71,5.14,3.77.93.54,1.93.96,2.83,1.53.79.51,1.38,1.23,1.98,1.95s1.28,1.47,2.18,1.88c.17.08.33-.18.15-.26-1.61-.72-2.37-2.47-3.72-3.52-.85-.66-1.87-1.06-2.8-1.58s-1.82-1.08-2.69-1.69c-1-.71-1.95-1.48-2.86-2.31-.14-.13-.35.08-.21.21h0Z"/>
      </g>
      <g>
        <path class="cls-12" d="M153.25,135.51c5,.69,9.87,2.32,14.28,4.79"/>
        <path d="M153.21,135.66c5,.69,9.84,2.31,14.24,4.77.17.09.32-.16.15-.26-4.43-2.47-9.29-4.11-14.31-4.8-.19-.03-.27.26-.08.29h0Z"/>
      </g>
      <g>
        <path class="cls-12" d="M95.48,157.43c2.69,5.62,6.59,10.66,11.35,14.69,1.55,1.31,3.23,2.56,4.27,4.31"/>
        <path d="M95.35,157.51c2.8,5.81,6.84,10.95,11.79,15.07,1.41,1.17,2.86,2.34,3.82,3.92.1.16.36.01.26-.15-.81-1.33-1.96-2.39-3.14-3.38s-2.47-2.08-3.62-3.22c-2.32-2.29-4.39-4.84-6.16-7.58-.99-1.55-1.89-3.15-2.69-4.81-.08-.17-.34-.02-.26.15h0Z"/>
      </g>
      <g>
        <path class="cls-12" d="M97.69,154.32c3.68,2.97,6.67,6.79,8.67,11.07"/>
        <path d="M97.59,154.43c2.86,2.31,5.3,5.12,7.18,8.28.54.9,1.02,1.82,1.47,2.77.08.17.34.02.26-.15-1.57-3.35-3.73-6.41-6.36-9.01-.74-.73-1.52-1.43-2.33-2.09-.15-.12-.36.09-.21.21h0Z"/>
      </g>
      <g>
        <path class="cls-12" d="M112.39,180.06c2.23,3.46,4.57,6.85,7,10.17,1.3,1.77,2.64,3.55,3.44,5.6"/>
        <path d="M112.26,180.14c1.75,2.71,3.56,5.38,5.44,8.01,1.76,2.47,3.85,4.87,4.98,7.72.07.18.36.1.29-.08-.86-2.16-2.27-4.01-3.63-5.88-1.51-2.07-2.99-4.17-4.42-6.3-.81-1.2-1.61-2.41-2.39-3.63-.1-.16-.36-.01-.26.15h0Z"/>
      </g>
      <g>
        <path class="cls-12" d="M112.14,155.31l1.28,9.22c.4,2.85.8,5.72,1.72,8.45,1.1,3.23,2.91,6.21,3.73,9.52"/>
        <path d="M111.99,155.35l1.01,7.28c.33,2.38.62,4.78,1.11,7.13.46,2.19,1.19,4.25,2.09,6.3s1.94,4.23,2.52,6.48c.05.19.34.11.29-.08-.54-2.1-1.45-4.07-2.33-6.05-.98-2.19-1.79-4.38-2.28-6.73s-.77-4.67-1.1-7.01c-.34-2.47-.69-4.94-1.03-7.4-.03-.19-.32-.11-.29.08h0Z"/>
      </g>
      <g>
        <path class="cls-12" d="M120.23,170.71c.59,6.07,1.52,12.11,2.78,18.07"/>
        <path d="M120.08,170.71c.59,6.08,1.52,12.13,2.79,18.11.04.19.33.11.29-.08-1.26-5.95-2.19-11.97-2.78-18.03-.02-.19-.32-.19-.3,0h0Z"/>
      </g>
      <g>
        <path class="cls-12" d="M118.36,146.2c-.44,5.5-.49,11.02-.15,16.53"/>
        <path d="M118.21,146.2c-.43,5.5-.48,11.02-.15,16.53.01.19.31.19.3,0-.33-5.51-.28-11.03.15-16.53.02-.19-.28-.19-.3,0h0Z"/>
      </g>
      <g>
        <path class="cls-12" d="M119.69,134.04c-.44,2.89-.72,5.81-.82,8.74"/>
        <path d="M119.55,134c-.44,2.91-.72,5.84-.83,8.78,0,.19.29.19.3,0,.1-2.91.38-5.82.82-8.7.03-.19-.26-.27-.29-.08h0Z"/>
      </g>
      <g>
        <path class="cls-12" d="M99.43,144.52c1.66,4.12,3.9,7.99,6.65,11.48"/>
        <path d="M99.29,144.56c1.3,3.22,2.95,6.31,4.93,9.17.56.81,1.15,1.6,1.75,2.38.12.15.33-.06.21-.21-2.72-3.47-4.95-7.32-6.61-11.42-.07-.18-.36-.1-.29.08h0Z"/>
      </g>
      <g>
        <path class="cls-12" d="M64.78,164.64c.71-3.27,1.86-6.44,3.41-9.4"/>
        <path d="M64.92,164.68c.71-3.26,1.86-6.41,3.39-9.37.09-.17-.17-.32-.26-.15-1.55,2.98-2.7,6.16-3.42,9.44-.04.19.25.27.29.08h0Z"/>
      </g>
      <g>
        <path class="cls-12" d="M71.51,152.07c1.42-5.79,5.67-10.81,11.15-13.16"/>
        <path d="M71.65,152.11c1.12-4.5,3.92-8.52,7.7-11.18,1.06-.74,2.19-1.38,3.38-1.89.18-.08.02-.33-.15-.26-4.29,1.86-7.84,5.32-9.87,9.53-.57,1.19-1.03,2.44-1.34,3.72-.05.19.24.27.29.08h0Z"/>
      </g>
      <g>
        <path class="cls-12" d="M43.42,140.51c6.2-2.14,12.5-4.3,19.05-4.71"/>
        <path d="M43.46,140.65c6.17-2.13,12.44-4.27,19.01-4.71.19-.01.19-.31,0-.3-6.59.43-12.88,2.58-19.09,4.72-.18.06-.1.35.08.29h0Z"/>
      </g>
      <g>
        <path class="cls-12" d="M68.53,134.56c4.18-.25,8.37-.24,12.55.05"/>
        <path d="M68.53,134.71c4.18-.25,8.37-.23,12.55.05.19.01.19-.29,0-.3-4.18-.28-8.37-.3-12.55-.05-.19.01-.19.31,0,.3h0Z"/>
      </g>
      <g>
        <path class="cls-12" d="M62.83,129.27c3.75-.46,7.6-.13,11.22.94"/>
        <path d="M62.83,129.42c3.75-.45,7.56-.13,11.18.94.19.05.26-.23.08-.29-3.64-1.07-7.49-1.4-11.26-.95-.19.02-.19.32,0,.3h0Z"/>
      </g>
      <g>
        <path class="cls-12" d="M73.89,118.18c2.33.85,4.5,2.13,6.37,3.76"/>
        <path d="M73.85,118.33c1.79.66,3.48,1.56,5.01,2.69.45.33.88.67,1.29,1.03.15.13.36-.09.21-.21-1.48-1.28-3.14-2.35-4.92-3.17-.5-.23-1.01-.44-1.52-.63-.18-.07-.26.22-.08.29h0Z"/>
      </g>
      <g>
        <path class="cls-12" d="M84.5,109.84c.8.09,1.41.72,1.94,1.32,2.63,2.96,5.02,6.13,7.14,9.47"/>
        <path d="M84.46,109.98c.83.12,1.41.76,1.95,1.36.63.71,1.24,1.43,1.84,2.16,1.2,1.47,2.35,2.99,3.44,4.55.61.87,1.2,1.76,1.77,2.66.1.16.36.01.26-.15-2.08-3.28-4.42-6.4-6.99-9.32-.59-.67-1.24-1.42-2.18-1.55-.19-.03-.27.26-.08.29h0Z"/>
      </g>
      <g>
        <path class="cls-12" d="M76.3,112.27c3.24.96,6.2,2.84,8.45,5.37"/>
        <path d="M76.26,112.41c2.51.75,4.84,2.04,6.81,3.76.56.49,1.08,1.01,1.58,1.56.13.14.34-.07.21-.21-1.77-1.98-3.96-3.57-6.39-4.63-.69-.3-1.4-.56-2.12-.78-.19-.06-.26.23-.08.29h0Z"/>
      </g>
      <g>
        <path class="cls-12" d="M116.53,87.91c-3.52,5.05-4.1,11.51-4.56,17.65"/>
        <path d="M116.41,87.83c-3.57,5.17-4.12,11.64-4.58,17.72-.01.19.29.19.3,0,.46-6.03,1-12.45,4.54-17.57.11-.16-.15-.31-.26-.15h0Z"/>
      </g>
      <g>
        <path class="cls-12" d="M114.65,109.61c-1.32,1.59-2.27,3.49-2.76,5.5-.59,2.42-.56,5.06-1.85,7.18"/>
        <path d="M114.55,109.51c-1.45,1.76-2.45,3.85-2.92,6.08s-.52,4.62-1.72,6.63c-.1.17.16.32.26.15,1.16-1.93,1.27-4.22,1.68-6.38.44-2.3,1.42-4.45,2.91-6.27.12-.15-.09-.36-.21-.21h0Z"/>
      </g>
      <g>
        <path class="cls-12" d="M121.29,102.32c-.87,3.37-2.2,6.63-3.95,9.64"/>
        <path d="M121.14,102.28c-.87,3.36-2.19,6.6-3.93,9.61-.1.17.16.32.26.15,1.75-3.03,3.09-6.29,3.96-9.68.05-.19-.24-.27-.29-.08h0Z"/>
      </g>
      <g>
        <path class="cls-12" d="M147.54,93.52c-2.55,4.87-5.87,9.33-9.79,13.18"/>
        <path d="M147.41,93.44c-1.99,3.78-4.43,7.32-7.26,10.52-.8.91-1.64,1.78-2.5,2.63-.14.14.07.35.21.21,3.05-3,5.74-6.36,7.99-10,.65-1.05,1.25-2.12,1.83-3.2.09-.17-.17-.32-.26-.15h0Z"/>
      </g>
      <g>
        <path class="cls-12" d="M108.96,130.4c2.35-5.15,6.35-9.53,11.27-12.32"/>
        <path d="M109.09,130.47c1.83-4,4.64-7.54,8.13-10.22.98-.75,2.01-1.44,3.09-2.05.17-.1.02-.35-.15-.26-3.84,2.19-7.12,5.32-9.51,9.04-.68,1.07-1.29,2.18-1.82,3.34-.08.17.18.33.26.15h0Z"/>
      </g>
      <g>
        <path class="cls-12" d="M57.95,189.72c4.14,1.68,8.28,3.46,11.95,6s6.89,5.92,8.56,10.07"/>
        <path d="M57.91,189.86c6.43,2.61,13.09,5.59,17.54,11.15,1.17,1.46,2.15,3.08,2.86,4.82.07.18.36.1.29-.08-2.66-6.5-8.62-10.72-14.76-13.64-1.92-.91-3.88-1.73-5.85-2.53-.18-.07-.26.22-.08.29h0Z"/>
      </g>
      <g>
        <path class="cls-12" d="M83.17,210.81c.76,1.94,1.95,3.67,3.12,5.39,2.25,3.28,4.49,6.56,6.74,9.83"/>
        <path d="M83.02,210.85c1.08,2.72,2.9,5.09,4.55,7.48,1.78,2.59,3.55,5.19,5.33,7.78.11.16.37,0,.26-.15-1.75-2.55-3.5-5.1-5.24-7.65-1.65-2.41-3.51-4.8-4.6-7.53-.07-.18-.36-.1-.29.08h0Z"/>
      </g>
      <g>
        <path class="cls-12" d="M77.34,211.71c2.3,2.53,4.47,5.17,6.51,7.9"/>
        <path d="M77.23,211.82c1.77,1.95,3.47,3.97,5.1,6.05.47.6.94,1.21,1.39,1.83.11.15.37,0,.26-.15-1.59-2.13-3.26-4.21-5.01-6.22-.5-.58-1.01-1.15-1.53-1.72-.13-.14-.34.07-.21.21h0Z"/>
      </g>
      <g>
        <path class="cls-12" d="M63.37,208.62c1.71,2.66,4.34,4.59,6.96,6.37,4.37,2.98,8.89,5.76,13.53,8.32"/>
        <path d="M63.24,208.7c1.67,2.55,4.1,4.42,6.58,6.13,2.86,1.97,5.79,3.85,8.77,5.63,1.71,1.02,3.44,2.02,5.19,2.98.17.09.32-.17.15-.26-2.98-1.64-5.9-3.37-8.78-5.19s-5.61-3.52-8.14-5.62c-1.34-1.11-2.56-2.36-3.51-3.82-.11-.16-.36-.01-.26.15h0Z"/>
      </g>
      <g>
        <path class="cls-12" d="M85.59,206.47c3.15,5.48,6.02,11.12,8.6,16.89"/>
        <path d="M85.46,206.55c3.15,5.48,6.02,11.12,8.6,16.89.08.18.34.02.26-.15-2.58-5.77-5.45-11.41-8.6-16.89-.1-.17-.36-.02-.26.15h0Z"/>
      </g>
    </g>
    <path class="cls-6" d="M154.61,241.45s-2.96-5.73,0-10.26c0,0-.52-15.65,3.13-16.52,3.65-.87,6.61,4.17,6.61,4.17l2.61,5.74s8.51-.13,8.91,1.57c.78,3.32-8.56,14.09-8.56,14.09,0,0-3.79,5.04-6.42,6.26,0,0-12.71,34.26-14.63,52.87-1.91,18.61,0,39.48,0,39.48,0,0,13.74-48.69,26.78-66.78,13.04-18.09,29.91-32.87,53.04-38.95,0,0-16.69,12-24,24-7.3,12-29.56,46.95-36.87,55.82-5.56,6.76-12.34,26.23-15.25,35.13-.88,2.7-3.41,4.52-6.25,4.52h0c-2.79,0-5.27-1.76-6.2-4.39-2.95-8.31-10.46-26.48-22.9-37.35-16.52-14.43-34.78-43.82-34.78-43.82,0,0-22.43-25.56-27.3-27.65,0,0,14.43-3.13,34.61,13.04,20.17,16.17,36.52,42.26,39.48,51.3,2.96,9.04,11.65,34.09,11.65,34.09,0,0,1.39-34.43-2.43-44.52-3.83-10.09-13.22-40.52-27.65-52,0,0-16-1.74-17.04-6.96-1.04-5.22.87-4.52,3.3-4.52s6.96,3.65,6.96,3.65c0,0-9.56-14.96-4-16,5.56-1.04,8.52-.36,13.56,16,0,0,5.74,10.43,9.56,14.43,3.83,4,12.87,24.52,12.87,24.52,0,0-1.57-40.35-5.04-46.78s-19.48-21.41-15.13-27.49c4.35-6.07,16.35,12.88,16.35,12.88,0,0-2.61-20.52,2.61-20.17s6.61,17.4,2.26,29.39c0,0,5.04,67.65,6.43,70.26l13.74-49.04Z"/>
    <path d="M157.42,319.27c4.02-10.14,7.96-20.33,12.88-30.08,4.48-8.88,9.81-17.4,16.53-24.77,3.65-4,7.69-7.63,12.14-10.72.16-.11,0-.37-.15-.26-7.9,5.5-14.49,12.67-19.94,20.56-6.02,8.7-10.65,18.27-14.78,27.99-2.42,5.69-4.68,11.45-6.96,17.2-.07.18.22.26.29.08h0Z"/>
    <path d="M173.22,291.48c2.57-6.29,6.17-12.16,10.64-17.28,1.26-1.44,2.58-2.82,3.96-4.14.14-.13-.07-.35-.21-.21-4.95,4.72-9.11,10.24-12.26,16.31-.89,1.71-1.69,3.45-2.42,5.24-.07.18.22.26.29.08h0Z"/>
    <path d="M79.74,255.37c4.21,1.84,7.3,5.46,10.3,8.81,3.18,3.53,6.24,7.17,9.18,10.9,5.95,7.54,11.41,15.47,16.34,23.71,2.8,4.69,5.43,9.52,7.16,14.72.06.18.35.1.29-.08-1.52-4.57-3.73-8.87-6.14-13.02s-5.06-8.32-7.78-12.35c-5.42-8.01-11.36-15.66-17.77-22.9-3.32-3.75-6.73-7.99-11.43-10.04-.18-.08-.33.18-.15.26h0Z"/>
    <path d="M95.71,266.28c7.36,8.03,14.8,16.16,20.35,25.59,1.58,2.68,2.99,5.46,4.18,8.33.07.18.36.1.29-.08-4.23-10.14-11.05-18.88-18.28-27.05-2.08-2.36-4.21-4.68-6.34-7-.13-.14-.34.07-.21.21h0Z"/>
    <path d="M93.2,274.31c-6.34-7.7-13.04-15.11-20.07-22.18-2-2-4.02-3.98-6.07-5.93-.14-.13-.35.08-.21.21,7.22,6.88,14.12,14.09,20.67,21.63,1.85,2.13,3.68,4.3,5.47,6.48.12.15.33-.06.21-.21h0Z"/>
    <path d="M113.31,301.73c-4.75-4.44-9.02-9.39-12.71-14.75-1.04-1.51-2.03-3.04-2.97-4.61-.1-.17-.36-.01-.26.15,3.36,5.57,7.31,10.77,11.77,15.49,1.28,1.35,2.59,2.66,3.95,3.93.14.13.35-.08.21-.21h0Z"/>
  </g>
</svg>