<?xml version="1.0" encoding="UTF-8"?>
<svg id="Layer_1" data-name="Layer 1" xmlns="http://www.w3.org/2000/svg" viewBox="0 0 289.13 430.87">
  <defs>
    <style>
      .cls-1 {
        fill: none;
      }

      .cls-2 {
        fill: #f0f8fc;
      }

      .cls-3 {
        font-family: SUIT-Regular-KSCpc-EUC-H, SUIT;
        font-size: 14px;
      }

      .cls-4 {
        fill: #d0e6f4;
      }

      .cls-5 {
        fill: #bad2e2;
      }

      .cls-6 {
        font-family: 'IM_FELL_Double_Pica_SC', 'IM FELL Double Pica SC';
        font-size: 24px;
      }

      .cls-7 {
        fill: #c5c97d;
      }

      .cls-8 {
        letter-spacing: -.01em;
      }

      .cls-9 {
        letter-spacing: -.01em;
      }

      .cls-10 {
        letter-spacing: 0em;
      }
    </style>
  </defs>
  <g>
    <text class="cls-6" transform="translate(63.63 395.79)"><tspan x="0" y="0">H</tspan><tspan class="cls-10" x="19.66" y="0">Y</tspan><tspan class="cls-9" x="36.26" y="0">D</tspan><tspan x="55.56" y="0">RA</tspan><tspan class="cls-8" x="87.98" y="0">N</tspan><tspan x="109.17" y="0">GEA</tspan></text>
    <text class="cls-3" transform="translate(113.49 418.59)"><tspan x="0" y="0">수국 · 기쁨</tspan></text>
  </g>
  <g>
    <g>
      <path class="cls-7" d="M129.52,192.67c4.95,1.1,9.25,4.95,13.1,10.35,3.85,5.41,3.12,21.9,2.29,31.52-.82,9.62-4.49,21.26-4.49,21.26,0,0-.27-2.84-1.56-9.16-1.28-6.32-4.21-7.88-6.05-11.36s-2.75-13.19-4.58-18.6-7.24-10.35-13.93-13.84-17.59-2.47-27.12-1.01-13.47,4.12-20.71,7.42-11.18,9.07-13.93,14.94-4.49,10.35-7.24,17.87c-2.75,7.51-1.47,20.16-1.47,20.16,2.2-6.23,7.51-10.26,13.74-11.09s11.36,4.12,18.88,5.86,13.1,2.47,13.1,2.47c0,0,20.16-2.11,26.94-9.35s6.96-8.98,13.29-9.9,7.42,16.22,7.42,20.07-3.94,16.13-8.61,23.18c-4.67,7.06-14.11,24.92-16.86,30.79-2.75,5.86-6.78,16.22-7.7,29.41-.92,13.19,2.93,19.7,2.93,19.7-1.83-6.32-.46-15.21.64-21.62s8.34-23.92,13.01-31.25c4.67-7.33,13.29-11.82,18.51-14.48s8.98-3.57,11.18-7.7c2.2-4.12,5.5-7.06,10.54-9.35s10.72-3.94,13.1-6.32,5.77-9.9,7.88-18.33-3.94-10.45-3.94-10.45c2.84,2.66,2.57,9.62.92,15.49s-11.45,13.93-14.75,15.67-11.82,4.21-15.67,6.6-9.53,9.9-12.55,11.73-12.92,9.71-12.92,9.71c21.62-31.8,22.08-42.52,24.56-49.76s7.51-14.48,12.1-18.78c4.58-4.31,8.52-3.39,12.55-2.29s12.37,3.67,21.44,2.93,12.92-5.41,16.04-7.97,7.88-4.76,10.81-6.32,12.83-5.13,15.49-3.57,11.36,3.48,11.36,3.48c0,0-4.12-2.84-7.51-7.06-3.39-4.21-9.62-9.25-9.62-9.25-3.02-5.31-10.45-9.07-10.45-9.07,0,0-7.42-3.94-15.12-5.68s-7.88,1.01-15.76.82-13.1,5.31-15.3,7.06-8.7,7.06-10.9,11.45c-2.2,4.4-3.02,13.74-3.85,17.32-.82,3.57-8.89,15.94-8.89,15.94,0,0,1.28-19.79,2.2-28.04.92-8.25,4.67-14.84,8.06-21.53,3.39-6.69,10.17-14.66,10.17-14.66l2.06-2.2-5.01.04-6.93,10.74c.28-1.91,3.04-13.36,3.04-13.36l-.08-4.66h-6.14l-.55,6.79,1.24,8.41c-1.28,7.42-7.97,16.22-7.97,16.22.09-2.47-4.21-16.31-4.21-16.31l-1.87-8.87-6.68,2.74,2.85,7.34.94.71s3.57,8.25,4.03,14.94c0,0-3.57-6.78-12.28-10.17l-4.75-3.17,1.54,5.37Z"/>
      <path class="cls-2" d="M181.71,38.26s4.56,7.3,3.55,11.15-5.98,10.34-4.15,14.08,4.66,5.37,11.86,10.44c7.19,5.07,13.78,12.36,12.26,23.3,0,0,6.28-7.6.3-14.69s-15.1-12.36-17.23-15-4.56-4.66-3.24-10.64,1.82-9.52.91-11.96-4.26-6.69-4.26-6.69Z"/>
      <path class="cls-2" d="M220.8,91.47s3.84,2.48.37,11.29c-3.47,8.81-.99,13.89,5.83,20.34,6.82,6.45,8.68,13.27,3.6,19.84-5.09,6.57-8.31,12.03-11.04,16.37s-8.19,3.72-9.3,6.95.25,5.46.25,5.46c0,0-.5-4.96,3.72-6.45s7.69-6.7,8.31-7.57,8.81-4.84,11.29-9.92c2.48-5.09,3.47-10.29,2.36-15.38-1.12-5.09-5.21-8.06-9.92-14.88s-4.71-8.56-3.6-12.03c1.12-3.47,2.73-6.95,1.86-9.43s-3.72-4.59-3.72-4.59Z"/>
      <path class="cls-2" d="M202.02,181.8s10.25-8.18,17.91-8.05,11.42.26,15.31-10.12,19.47-15.31,21.03-16.35,2.6-5.32,2.6-5.32c0,0,1.17,3.11-3.11,6.75-4.28,3.63-11.68,6.75-16.09,15.05s-5.06,13.5-11.29,14.15-10.51-2.08-15.05-.52-11.29,4.41-11.29,4.41Z"/>
      <path class="cls-2" d="M172.12,289.44s-.21-6.37,8.63-8.52,10.06-16.02,10.68-19.82c.62-3.8,6.16-11.91,12.32-12.53s18.59-1.75,22.59,9.96c0,0-7.91-9.75-18.28-8.32s-13.96,10.17-14.27,13.35,1.23,9.96-4.42,14.48-10.17,4.52-12.73,6.16-4.52,5.24-4.52,5.24Z"/>
      <path class="cls-2" d="M126.93,254.51s-2.65,4.69-9.18,6.12-9.76,6.53-9.22,9.13,3.4,9.49,1.07,12-2.6,4.74-11.19,4.48c0,0-10.03,3.13-3.13,13.16s1.07,16.38,1.07,16.38l-2.78,4.3s4.3-4.12,6.18-6.98,2.95-6.36,1.07-10.03-4.74-8.06-3.85-10.21,4.57-4.3,10.38-5.01,6.8-7.97,5.64-11.1-1.97-6.89-.45-8.77,7.16-6.53,10.29-7.88,4.08-5.58,4.08-5.58Z"/>
    </g>
    <path class="cls-5" d="M168.24,80.66l-23.14-6.26-29.99,6.36-15.38,16.36-5.65,18.5-16.36,24.34-8.57,14.99s-1.81,1.87-1.81,2.1c0,0-2.13,3.79-3.44,5.75s.18,4.74.24,7-.65,4.57,2.31,5.16,5.75-.47,5.75-.47c0,0-1.84,3.79-1.07,5.99s1.54,5.99,3.74,5.28,5.4-4.27,5.4-4.27l5.44-1.02-.57,1.99s-2.04,3.82-.06,6.87c1.97,3.05,2.99,5.34,4.26,5.98s6.74-1.78,8.33-5.15l13.66.66s.28,2.88,4.79,4.11,5.16,2.13,5.49.66.08-2.38.82-3.6.82-4.67.82-4.67l13.96-9.65,17.02-1.4,5.72-5.7,7.78-2.4,12.38-11.02,7.26-8.98,3.08-28.06c-8.16-1.45-13.17-7.91-13.17-7.91,5.88-.89,16.86,4.72,16.86,4.72"/>
    <path class="cls-5" d="M182.82,166.18s7.5,0,8.98,3.96c1.49,3.96.5,7.57.28,9.48s-4.1.28-5.38-.85-6.3-5.09-7.99-5.38l-8.41-7.27,7.95-9.97,4.56,10.02Z"/>
    <path class="cls-5" d="M177.02,96.54s-1.69-12.16-1.69-12.31c0-3.05-1.24-10.33-6.4-11.41s-9.09,3.1-9.09,3.1c0,0-4.64,2.47-3.82,1.65,3.97-3.97-5.42-6.61-5.42-6.61,0,0-1.08-2.17-4.39-2.58s-5.73,1.7-8.72,3.56-2.79,4.54-2.79,4.54"/>
    <path class="cls-5" d="M161.46,106.22s-2.29-4.7-1.46-8.58c.83-3.88,2.67-6.23,6.68-6.8,0,0,11.51-9.79,15.07-9.6s3.31,1.97,3.31,4.45.7,5.91.7,5.91c0,0,3.62-2.23,6.55-.57s2.73,4.58,2.42,6.99-.19,2.42,3.43,2.61,4.51,1.65,4.2,3.88-1.27,4.64-1.27,4.64c0,0,5.15-2.16,8.58,1.14s1.59,6.29,1.14,7.57-3.81,5.02-3.81,5.02c0,0,6.68-.83,9.92,3.81s3.43,5.09,1.27,8.46l-2.16,3.37s-2.67,2.86-5.79,2.92c0,0,4.39,2.29,5.28,7.82.89,5.53,1.4,7.06-.7,8.01s-8.65,2.29-13.35.19c0,0-.45,5.66-4.58,7.31s-7.5-3.5-7.5-3.5"/>
    <path class="cls-5" d="M172.56,146.9c1.63-1.55,3.18-1.24,5.74-1.09s5.74,2.33,8.53,5.66,3.33,7.21,2.09,11.47c-1.24,4.26-11.47,3.57-11.47,3.57,4.19,4.73-.54,10.93-2.09,12.09s-3.1,1.16-4.34.23-2.48-2.71-5.97-4.34-3.18-4.73-3.18-4.73c-.7.54-2.02.85-2.02.85l-8.17-1.06,2.11-5.84"/>
    <path class="cls-5" d="M136.42,160.26s-.59-6.23.76-9.52c1.35-3.29,4.94-6.11,9.64-5.99s8.46,6.82,8.46,6.82c0,0,1.59,5.99,0,8.29s-5.52,4.7-5.52,4.7c0,0,7.7-.65,9.52,4.41,1.82,5.05,1.35,12.4,1,14.63,0,0-1.65,0-5.05.53l-3.41.53s-4-.06-5.47-.59-4.17-2.76-4.17-2.76c0,0-.18,6.11-5.11,7.35s-6.23,3.82-8.23,4.06-3.29-1.23-4.76-3.88-2.94-8.11-1.94-10.93,5.35-5.88,5.35-5.88c0,0-3.23,2.12-7.7-1.65-4.47-3.76-5.05-7.23-4.47-9.34s.41-3.76,2.94-4.64,12.34-.59,14.75.35,3.41,3.53,3.41,3.53Z"/>
    <path class="cls-5" d="M88.26,164.96s-3.08-.12-4.86.77-3.2,4.26-6.22,1.9-5.03-2.61-5.8-10.13c0,0-13.15-.41-14.15-7.22,0,0-1.66-2.55,1.13-5.03,0,0-2.66-3.2,4.44-5.74,0,0,.65-3.97,5.09-3.97,0,0-4.38-5.45-1.84-11.25,0,0,.36-2.72,4.68-1.84s5.15,1.18,5.15,1.18c0,0-5.21-1.9-5.57-4.5s1.72-3.14,1.18-4.15-1.48-2.61.65-4.38,3.73-3.38,7.28-3.32c0,0-2.9-3.26-2.66-6.63,0,0-3.49-4.86,2.25-7.64s7.34-3.61,12.97-.53c0,0-1.18-7.94,5.45-8.82s7.99.65,7.99.65c0,0-1.72-4.68.18-6.51s4.86-4.8,7.4-2.31c0,0,3.61-1.72,7.7.3"/>
    <path class="cls-5" d="M133.57,114.27c1.23-.95,1.52-2.37,1.52-2.37,0,0-.19,4.37,3.8,5.13s5.98,2.94,11.4,2.47,7.79-7.69,8.83-11.4c1.04-3.7-5.32-6.55-5.32-6.55,7.6-1.8,9.78-10.16,8.83-12.82s-1.04-7.31-1.04-9.88-.85-3.42-3.32-2.47-5.03,2.66-5.03,2.66c-7.5,1.42-9.78,6.46-9.78,6.46,0,0,.47-.85-1.52-4.65-1.99-3.8-5.7-2.09-8.74-5.6-2.17-2.51-6.24-4.05-8.38-4.73-.77-.24-1.59.13-1.93.87-1.72,3.8-6.68,13.76-4.7,17.63,2.28,4.46,8.93,8.83,8.93,8.83,0,0,2.55,1.42,4.75,1.92"/>
    <circle class="cls-1" cx="161.43" cy="260.06" r="3.14"/>
    <circle class="cls-1" cx="62.78" cy="267.76" r="2.4"/>
    <circle class="cls-1" cx="60.51" cy="197.38" r="2.1"/>
    <circle class="cls-1" cx="207.09" cy="53.48" r="2.57"/>
    <circle class="cls-1" cx="218.54" cy="68.23" r="1.56"/>
    <circle class="cls-1" cx="231.92" cy="100.21" r="1.16"/>
    <circle class="cls-1" cx="199.17" cy="38.91" r="1.16"/>
    <circle class="cls-1" cx="169.02" cy="58.67" r="1.16"/>
    <circle class="cls-1" cx="196.01" cy="23.29" r="1.16"/>
    <circle class="cls-1" cx="242.9" cy="91.82" r="1.16"/>
    <circle class="cls-1" cx="241.5" cy="76.45" r="1.56"/>
    <circle class="cls-1" cx="51.23" cy="163.97" r="2.1"/>
    <circle class="cls-1" cx="96.01" cy="268.79" r="1.41"/>
    <circle class="cls-1" cx="59.66" cy="181.99" r="1.41"/>
    <circle class="cls-1" cx="160.09" cy="301.1" r="1.41"/>
    <circle class="cls-1" cx="80.43" cy="275.96" r="1.41"/>
    <circle class="cls-1" cx="83.48" cy="302.05" r="1.06"/>
    <circle class="cls-1" cx="78.16" cy="281.02" r="1.06"/>
    <circle class="cls-1" cx="165.77" cy="289.62" r="1.06"/>
    <circle class="cls-1" cx="74.92" cy="266.09" r="1.06"/>
    <circle class="cls-1" cx="130.4" cy="205.25" r="1.06"/>
    <circle class="cls-1" cx="172.26" cy="188.05" r="1.06"/>
    <circle class="cls-1" cx="244.53" cy="187.8" r="1.45"/>
    <circle class="cls-1" cx="224.34" cy="167.28" r="1.06"/>
    <circle class="cls-1" cx="134.95" cy="217.74" r="1.06"/>
    <circle class="cls-1" cx="185.34" cy="290" r="2.27"/>
    <circle class="cls-1" cx="206.58" cy="268.9" r="1.07"/>
    <circle class="cls-1" cx="215" cy="264.5" r="1.07"/>
    <circle class="cls-1" cx="216.53" cy="238.82" r="1.6"/>
    <circle class="cls-1" cx="165.3" cy="247.07" r="1.39"/>
    <path class="cls-5" d="M118.26,123.44s-4.49-12.55-16.7-7.46c-12.21,5.09-5.43,16.62-5.43,16.62,0,0,2.04,3.56,4.41,4.41,0,0-6.78-2.04-9.07,6.53s.93,7.89-.25,13.4c0,0,4.15-.34,8.56,1.02s10.35-.17,12.13-1.87,3.39-3.31,3.39-3.31c0,0,1.61,3.65,6.27,3.99s11.02,1.02,13.4,2.04c0,0,3.9-6.53,3.99-10.85.08-4.32-.34-8.06-1.95-9.41s-2.71-1.98-4.52-2.31c0,0,4.39-2.09,5.71-4.72s2.8-5.49,2.63-7.68-1.7-5.05-3.62-6.53-2.85-3.51-6.97-3.46-6.37.49-7.79,2.03-3.51,4.07-4.17,7.58Z"/>
    <path class="cls-5" d="M118.26,123.44s1.32,5.3,0,11.7"/>
    <path class="cls-5" d="M132.47,136.22s-8.96,1.78-12.12,1.92"/>
    <path class="cls-5" d="M100.53,137.01s6.68,3.37,14.04,1.68"/>
    <path class="cls-5" d="M115.29,152.78s-1.67-4,1.41-11.94"/>
    <path class="cls-5" d="M132.86,116.67s-9.36-.83-12.63,16.31"/>
    <path class="cls-5" d="M135.45,121.67s-5.94-.49-15.67,14.58"/>
    <path class="cls-5" d="M133.98,129.24s-8.95,3.71-13.78,7.58"/>
    <path class="cls-5" d="M107.11,118.39s8.1,2.98,9.05,16.85"/>
    <path class="cls-5" d="M100.4,118.05s4.31,8.44,7.15,10.51,6.6,6.73,6.6,6.73"/>
    <path class="cls-5" d="M98.67,127.52s2.67,4.05,6.72,6.03,6.37,2.41,9.13,3.88"/>
    <path class="cls-5" d="M119.95,139.67s9.39,2.33,12.4,4.74,4.22,8.18,4.22,8.18"/>
    <path class="cls-5" d="M118.73,140.62s10.09,8.52,13.88,14.2"/>
    <path class="cls-5" d="M124.6,154.91s-5.53-6.19-6.39-14.2"/>
    <path class="cls-5" d="M93.76,153.19s1.89-6.89,9.22-8.96,10.13-2.43,12.37-4.24"/>
    <path class="cls-5" d="M102.03,152.93s10.99-9.55,13.75-12.56"/>
    <path class="cls-5" d="M107.89,153.88s5.68-7.49,7.32-11.28"/>
    <path class="cls-5" d="M94.63,143.89s4.57-4.43,12.75-4.86"/>
    <path class="cls-5" d="M120.84,117.79s-6.65-.47-7.22-3.32-2.37-7.12,1.71-12.06c0,0-7.03.95-11.78-6.55,0,0-1.52-1.42,4.27-5.03,5.79-3.61,10.73-1.04,10.73-1.04"/>
    <path class="cls-5" d="M143.45,85.5s-3.47,5.59-4.32,12.99"/>
    <path class="cls-5" d="M153.8,101.55s-8.13-3.07-14.25-1.5"/>
    <path class="cls-5" d="M135.09,111.9s1.26-5.02,1.9-9.86"/>
    <path class="cls-5" d="M115.33,102.4s5.5-3.57,19.02-2.36"/>
    <path class="cls-5" d="M128.82,78.63s2.63,5.91,4.32,8.35,3.84,10.48,3.84,10.48"/>
    <path class="cls-5" d="M127.32,90.45s6.76,4.97,8.44,7.41"/>
    <path class="cls-5" d="M156.97,82.1s-9.29,6.85-12.01,10.98c-2.72,4.13-5.72,5.83-5.72,5.83"/>
    <path class="cls-5" d="M154.86,88.94s-12.04,8.77-15.54,10.21"/>
    <path class="cls-5" d="M153.38,97.04c-.58-.04-6.62.43-9.19,1.09s-4.95,1.32-4.95,1.32"/>
    <path class="cls-5" d="M137.3,80.85s2.88,3.63,2.94,9.46"/>
    <path class="cls-5" d="M148.82,117.44c-1.44-1.13-3.26-5.89-4.64-9.02-1.38-3.13-5.51-6.89-5.51-6.89,0,0,2.07,5.14,2.07,8.14s1.19,4.26,1.19,4.26"/>
    <path class="cls-5" d="M139.3,102.28s7.45,3.19,9.08,5.14,2.69,5.32,2.44,9.33"/>
    <path class="cls-5" d="M141.93,103.41s2.88.81,5.7.94,5.39.13,6.39,2.57.94,4.82.94,4.82"/>
    <path class="cls-5" d="M118.13,113.18s3.32-2.32,5.2-4.07,7.89-3.51,9.33-4.45,3.22-2.8,3.22-2.8"/>
    <path class="cls-5" d="M121.05,106.19s5.45-2.26,9.71-3.13c0,0,3.64-.83,4.65-1.68"/>
    <path class="cls-5" d="M119.31,105.34s-3.88,3.21-4.98,6.04"/>
    <path class="cls-5" d="M112.27,93.89s9.32,2.36,13.4,4.18"/>
    <path class="cls-5" d="M107.88,96.14s6.27-.11,14.95,2.41"/>
    <path class="cls-5" d="M124.86,76.6s-1.7,3.34.49,9.36"/>
    <path class="cls-5" d="M123.27,87.12s.91,4.99,2.43,6.93"/>
    <path class="cls-5" d="M150.19,121.09s-.51-4.82,3.15-7.78c3.67-2.96,6.95-6.37,8.55-7.2s1.41-.77,3.34,1.61,4.44,3.15,5.66,5.79,1.41,5.4.77,7.46c0,0,2.38-2.77,6.88-.64s6.95,3.22,8.49,5.47,1.54,2.25.84,5.27-2.25,6.5-4.12,8.04-6.56,2.19-9.26,1.54-5.53-2.06-5.53-2.06c0,0,3.02,3.99,3.47,6.37s-.26,5.66-1.67,7.65-5.15,5.15-6.82,6.17-4.31,2.51-5.02,2.06-3.28-3.34-5.34-5.66-5.02-4.44-5.08-7.91c-.06-3.47.32-4.31.32-4.31,0,0-4.24,1.54-7.78-3.34s-5.34-7.01-5.34-8.23.39-3.92,3.28-6.05,3.73-4.12,6.69-4.5,4.5.26,4.5.26Z"/>
    <path class="cls-1" d="M171.67,120.96s-6.66,9.16-7.52,10.72"/>
    <path class="cls-5" d="M148.84,142.95c.83-1.86,8.87-7.52,11.75-7.93"/>
    <line class="cls-1" x1="168.97" y1="138.58" x2="164.15" y2="134.79"/>
    <path class="cls-5" d="M150.19,121.09s5.37,7.13,10.15,10.3"/>
    <circle class="cls-5" cx="103.11" cy="172.53" r="1.97"/>
    <path class="cls-1" d="M161.78,108.16s-.58,15.36.38,22.81"/>
    <path class="cls-1" d="M168.13,113.51s-.17,7.8-1.57,11.41-3.32,6.29-3.32,6.29"/>
    <path class="cls-1" d="M163.82,115.26s-.12,9.31-.35,12.22-.61,3.51-.61,3.51"/>
    <path class="cls-1" d="M155.9,118.59s.23,2.44,1.45,4.88,2.11,6.14,3.76,7.75"/>
    <path class="cls-1" d="M164.38,132.51s3.89-4.19,7.92-5.84,9.83-1.45,9.83-1.45"/>
    <path class="cls-1" d="M164.45,132.97s8.71-1.55,12.41-1.52,9.31-2.67,9.31-2.67"/>
    <path class="cls-1" d="M174.68,134.82s-4.19-1.71-10.21-1.55"/>
    <path class="cls-1" d="M175.54,137.92s-8.58-2.11-11.15-3.93"/>
    <path class="cls-1" d="M161.23,135.45s-4.57,5.17-6.61,8.27"/>
    <path class="cls-1" d="M161.83,135.53s-4.68,8.46-5.25,12.58c-.57,4.12-.08,7.63-.08,7.63"/>
    <path class="cls-1" d="M162.44,135.6s.68,5.55.42,8.42-.42,5.59-1.44,7.93-2.12,6.04-2.12,6.04"/>
    <path class="cls-1" d="M163.61,135.15s2.57,1.96,3.29,6.8c.72,4.83.34,8.76.34,8.76"/>
    <path class="cls-1" d="M162.74,135.57s2.15,6.76,2.53,10.16"/>
    <path class="cls-1" d="M164.4,152.3c0,.11-.57,3.29-1.02,4.34"/>
    <path class="cls-5" d="M152.39,142.18s-1.06,2.08-1.36,4.49"/>
    <path class="cls-5" d="M140.8,134.83s2.87,2.98,6.91,2.47,9.68-2.52,12.36-2.77"/>
    <path class="cls-5" d="M140.09,129.43s6.25-.05,10.29,1.61,9.43,2.72,9.43,2.72"/>
    <path class="cls-5" d="M150.44,127.93s6.89,2.95,9.26,5.14"/>
    <path class="cls-5" d="M142.82,124.98s2.75.53,4.56,1.37"/>
    <path class="cls-5" d="M89.35,167.02s-7.48,3.83-8.95,7.54-2.18,6.42.88,7.3,3.42-.06,6.48,1.41,5.95,2.18,8.3-.82c0,0-1,4.42.29,6.13s5.24,5.07,7.6,6.3,3.24,1.53,4.83-.71,2.53-3.36,2.53-3.36c0,0,2.36-3.59,1.3-7.36s-1.88-4.48-1.88-4.48c0,0,6.18,2.36,8.36-2.59s1.77-7.19,1.77-7.19c0,0-3.47-6.83-7.19-7.42s-5.18-.41-7.01,1.77c0,0,.82-3.71-4.24-6.24s-7.48-2.83-9.84-2.12-5.18,3.12-5.18,3.12c0,0-1,2.65-.12,4.71s2.06,4,2.06,4Z"/>
    <path class="cls-5" d="M106.67,163.55s-1.06,6.16-1.96,7.84c0,0,5.33-4.19,9.47-3.06s4.49,1.8,4.49,1.8"/>
    <path class="cls-5" d="M96.06,182.45s2.95-6.4,6-8.07"/>
    <path class="cls-5" d="M110.73,178.98s-4.42-2.93-6.1-4.91"/>
    <path class="cls-5" d="M117.47,173.78c-.54-.06-4.37-.42-6.35-.78s-6.03-.48-6.03-.48"/>
    <path class="cls-5" d="M83.44,178.46s6.92-5.55,17.71-5.55"/>
    <path class="cls-5" d="M89.35,177.32s7.87-3.46,11.99-3.76"/>
    <path class="cls-5" d="M103.66,174.4s-.48,9.72.72,12.58c1.19,2.86,2.5,4.89,2.5,6.32"/>
    <path class="cls-5" d="M104.07,174.28s.48,3.4,1.49,5.43,1.85,4.77,1.85,6.2"/>
    <path class="cls-5" d="M102.46,174.46s-2.62,3.58-2.92,6.68c-.3,3.1.66,6.38,1.55,7.33"/>
    <path class="cls-5" d="M94.35,158.6s5.66,4.95,8.11,11.99"/>
    <path class="cls-5" d="M95.13,164.62s4.45,3.8,6.4,6.64c-1.92-1.08-12.18-4.24-12.18-4.24"/>
    <path class="cls-5" d="M96.44,158s4.71,4.29,5.72,8.05c1.01,3.76.95,4.5.95,4.5"/>
    <path class="cls-5" d="M101.63,158.42s1.55,3.22,1.79,4.47"/>
    <path class="cls-5" d="M86.5,171.85s3.54-1.42,6.43-.64"/>
    <path class="cls-5" d="M136.42,160.26s.4,4.26,2.74,6.18"/>
    <path class="cls-5" d="M149.76,164.55s-4.55,2.88-8.39,3.75"/>
    <path class="cls-5" d="M139.69,170.97s2.24,5.85,2.48,10.34"/>
    <path class="cls-5" d="M127.48,172.02s3.96-2.97,9.35-2.79"/>
    <path class="cls-5" d="M145.28,147.15s-2.48,5.15-2.98,9.18-2.17,10.24-2.17,10.24"/>
    <path class="cls-5" d="M149,157.44s-2.48,3.91-4.4,5.52-3.78,4.28-3.78,4.28"/>
    <path class="cls-5" d="M140.62,152.85s-1.3,4.59-1.12,7.44c.19,2.85.1,6.14.1,6.14"/>
    <path class="cls-5" d="M149.13,155.83s1.06-2.3,1.15-3.88"/>
    <path class="cls-5" d="M141.46,168.75s9.18,1.56,11.65,2.62"/>
    <path class="cls-5" d="M141.44,169.52s6.13,1.63,9.98,4.45c3.85,2.82,5.86,4.12,7.32,6.24"/>
    <path class="cls-5" d="M141.17,170.01s2.71,4.67,5.53,7.27,8.63,4.72,8.63,4.72"/>
    <path class="cls-5" d="M142.03,173.38s2.5,3.2,3.42,6.67"/>
    <path class="cls-5" d="M138.67,170.99s0,10.52-2.28,14.59"/>
    <path class="cls-5" d="M128.53,188.94s-.33-11.12,9.66-18.01"/>
    <path class="cls-5" d="M125.32,180.86s4.88-7.92,11.01-8.84"/>
    <path class="cls-5" d="M118.7,158.93s3.56,2.39,7.46,3.03,11.02,5.48,11.02,5.48"/>
    <path class="cls-5" d="M128.09,158.23s3.91,2.16,6.06,4.61,3.44,4.2,3.44,4.2"/>
    <path class="cls-5" d="M121.44,167.32s3.73,1.11,8.16.87,7.24.55,7.24.55"/>
    <path class="cls-1" d="M177.44,166.5s-7.13-4.96-9.61-7.52"/>
    <path class="cls-1" d="M161.86,169.76s.54-6.43,3.33-9.92"/>
    <path class="cls-1" d="M167.94,157.18s4.97-5.38,15.81-2.61"/>
    <path class="cls-1" d="M168.26,157.83s12.76,1.18,18.05.82"/>
    <path class="cls-1" d="M168.26,157.38s2.32-1.02,8.03,0"/>
    <path class="cls-1" d="M166.2,160.05s1.13,4.31,2.88,6.38,3.02,5.62,3.18,6.44"/>
    <path class="cls-1" d="M167.41,159.62s6.33,8.31,7.11,12.53"/>
    <path class="cls-1" d="M165.67,159.94s-.89,4.96.5,7.63"/>
    <path class="cls-1" d="M159.79,166.4s2.26-5.76,4.88-6.92"/>
    <path class="cls-1" d="M186.32,151.11s.95-3.88,2.29-4.83c0,0-3.18,1.78-5.34,1.72"/>
    <path class="cls-1" d="M188.37,129.21s7.76-.4,9.22-2.59,1.38-6.55-3.48-9.71c0,0,5.11-2.59,6.96-7.76"/>
    <path class="cls-1" d="M206.98,122.88c-1.95.5-2.14,1.13-2.14,1.13,0,0-.35-5.45-1.55-5.86-2.92-.99-4.59.56-6.21,1.55"/>
    <path class="cls-1" d="M175.63,145.67s.74-2.7,5.18-5.24"/>
    <path class="cls-1" d="M204.84,124.01s-.56,9.95-6.7,15.8"/>
    <path class="cls-1" d="M210.23,141.45s-4.85-2.01-11.33.08"/>
    <path class="cls-1" d="M201.45,157.47s-5.08-6.08-5.29-14.13"/>
    <path class="cls-1" d="M188.61,146.28s2.54-2.94,6.28-4.14"/>
    <path class="cls-1" d="M195.67,140.02s-4.44-2.19-5.93-10.87"/>
    <path class="cls-1" d="M185.75,91.6s.97,5.39-.09,7.25-8.66,10.69-8.66,10.69"/>
    <path class="cls-1" d="M166.68,90.84s-2.22,3.59,1.31,8.98,5.83,9.99,5.83,9.99"/>
    <path class="cls-1" d="M185.66,98.85s5.21-.53,8.93.97"/>
    <path class="cls-1" d="M174.51,112.74s-2.46,3.21-1.09,7.04"/>
    <path class="cls-5" d="M72.19,174.49s3.79-2.13,6.26-6.02"/>
    <path class="cls-1" d="M117.52,178.29s3.13,1.77,4.35,3.94"/>
    <path class="cls-5" d="M75.89,123.62s5.62.85,7.5,3.39c0,0,1.37-6,5-.15,0,0,9.36-.7,6.67,10.88"/>
    <path class="cls-5" d="M73,122.18s4.56,1.52,9.42-2.11c0,0,.59,3.28,1.64,5.09"/>
    <path class="cls-5" d="M87.27,125.05s3.86.12,7.25-1.76"/>
    <path class="cls-5" d="M105.44,84.3s3.36,2.6,5.05,5.25"/>
    <path class="cls-5" d="M79.44,107.27s2.99,2.03,6,2.33"/>
    <path class="cls-5" d="M94.99,106s-12.93-.22-12.58,14.07"/>
    <path class="cls-5" d="M96.82,107.39s-2.79,5.66,3.09,9.26"/>
    <path class="cls-5" d="M98.15,104.02s5.22-4.7,10.06-1.98,4.7,5.22,4.7,5.22"/>
    <path class="cls-1" d="M191.21,180.34s-2.86-7.35-9.89-11.32"/>
    <path class="cls-1" d="M195.37,142.85s-1.5,2.47-1.3,8.01.59,11.85.59,11.85"/>
    <path class="cls-1" d="M197.48,143.58s5.12,8.18,10.46,9.81"/>
    <path class="cls-1" d="M198.54,142.95s12.52,3.6,16.03,10.83"/>
    <path class="cls-1" d="M200.29,137.39s6.52-5.77,14.91-6.89"/>
    <line class="cls-1" x1="210.48" y1="125.03" x2="203.06" y2="135"/>
    <path class="cls-1" d="M198.81,129.01s.27,6.15-1.19,10.52"/>
    <path class="cls-1" d="M196.38,139.58l-2.16-11.11"/>
    <path class="cls-1" d="M192.12,140.15s-5.71,3.93-12.19,4.38"/>
    <path class="cls-1" d="M190.57,138.21s-3.16-.5-6.15,0"/>
    <path class="cls-1" d="M196.56,117.11s6.87-3.39,11.8-3.07"/>
    <path class="cls-1" d="M176.28,112.91s9.37,9.53,16.24,12.12"/>
    <path class="cls-1" d="M177.43,110.31s6.9-3.18,11.56-3.55,9.65-2.44,9.65-2.44"/>
    <path class="cls-1" d="M180.29,109.3s2.65-3.29,5.46-4.83"/>
    <path class="cls-1" d="M178.97,111.95s2.39-1.49,4.93-1.43"/>
    <path class="cls-1" d="M185.07,111.11s5.09.11,8.01-1.11"/>
    <path class="cls-1" d="M182.89,83.47s-2.65,1.7-3.13,6.58-.05,6.42-1.7,10.98-2.53,8.07-2.53,8.07"/>
    <path class="cls-1" d="M172.6,89.51s-1.59,2.71-1.11,7.11c.48,4.4,3.08,12.63,3.08,12.63"/>
    <path class="cls-1" d="M163.29,98.99s1.99,4.2,4.87,5.83,4.42,4.87,4.42,4.87"/>
    <path class="cls-1" d="M169.82,75.83s-3.35.12-6.77,6.58"/>
    <path class="cls-1" d="M171.87,79.12s-7.32,2.05-8.32,6.14c-.99,4.1-.92,3.46-.92,3.46"/>
    <path class="cls-1" d="M170.01,84.14c-.25.06-3.91.62-5.03,3.72"/>
    <path class="cls-5" d="M145.77,71.92s.63,7.16-.45,11.01"/>
    <path class="cls-5" d="M141.48,72.27s-.27,5.91.27,7.78"/>
    <path class="cls-5" d="M112.81,77.74s.14,7.48,5.06,10.83"/>
    <path class="cls-5" d="M111.32,81.16s.29,5.2,4.06,7.62"/>
    <path class="cls-5" d="M97.78,103.39c1.43-12.9,5.56-16.25,5.56-16.25"/>
    <path class="cls-5" d="M97.99,85.58s-2.92,5.56-2,9.98c.93,4.42.83,7.9.83,7.9-.15-7.25-4.83-10.98-4.83-10.98"/>
    <path class="cls-5" d="M79.56,96.36s6.06-1.1,10.23,2.75c4.17,3.86,5.43,4.96,5.43,4.96"/>
    <path class="cls-5" d="M83.1,101.08s6.82,4.52,11.75,4.34"/>
    <path class="cls-5" d="M109.3,113.27s-4.27-7.44-10.51-7.85"/>
    <path class="cls-5" d="M103.09,112.09s-3.78-4.25-4.56-5.82"/>
    <path class="cls-5" d="M87.58,120.51s2.89-9.07,8.39-13.26"/>
    <path class="cls-5" d="M92.52,120.49s2.91-4.32,3.59-10.33"/>
    <path class="cls-5" d="M74.91,113.81s4.23-1.82,8.23-.14"/>
    <path class="cls-5" d="M75.73,117.77s1.82-2.87,7.32-2.78"/>
    <path class="cls-5" d="M83.39,127.01s-2.1,8.66,1.49,14.38"/>
    <path class="cls-5" d="M88.38,126.86s-1.8,6.85-1.09,11.79"/>
    <path class="cls-5" d="M90.89,130.97s.31,6.03-3.84,11.51"/>
    <path class="cls-5" d="M67.89,135.52s3.19,5.39,14.7,7.43"/>
    <path class="cls-5" d="M71.38,157.49s3.51-9.46,11.89-11.97"/>
    <path class="cls-5" d="M58.36,145.23s1.13,3.36,7.87,1.87,16.21-2.58,16.21-2.58"/>
    <path class="cls-5" d="M68.39,141.19s4.65-.18,8.37.35"/>
    <path class="cls-5" d="M85.95,145.79s1.77,8.9-1.36,15.61"/>
    <path class="cls-5" d="M84.44,146.12s-7.74,13.21-8.21,18.16"/>
    <path class="cls-5" d="M62.8,139.49s2.45.17,3.55.83"/>
    <path class="cls-1" d="M114.32,181.61c-.42,2.5,2,10.87,4.76,12.39"/>
    <path class="cls-1" d="M116.54,182.69s3.68,2.22,4.26,9.08"/>
    <path class="cls-1" d="M94.43,185.3s-.95,5.65-3.37,7.88"/>
    <path class="cls-1" d="M90.18,185.99s-1.78,3.05-1.08,5.59"/>
    <path class="cls-5" d="M72.58,163.13s-4.26,3.75-5.34,8.19"/>
    <path class="cls-5" d="M78.55,170.05s-4.26,7.24-4.19,11.24"/>
    <path class="cls-5" d="M71.57,159.82s-4.7,1.02-6.42,4"/>
    <path class="cls-5" d="M64.01,153.09s5.72-.76,12.26-5.08"/>
    <path class="cls-5" d="M68.66,127.34s1.98,6.41,6.41,8.62,8.31,5.03,8.31,5.03"/>
    <path class="cls-5" d="M72.17,126.28s1.53,5.8,3.97,7.7"/>
    <path class="cls-5" d="M78.42,129.1s2.75,4.04,4.42,6.63"/>
    <path class="cls-1" d="M188,98.7s3.11-2.63,5.09-3.48"/>
    <path class="cls-1" d="M186.23,96.67s.97-1.61,2.52-2.04"/>
    <path class="cls-1" d="M181.71,38.26s4.56,7.3,3.55,11.15-5.98,10.34-4.15,14.08,4.66,5.37,11.86,10.44,13.78,12.36,12.26,23.3c0,0,6.28-7.6.3-14.69s-15.1-12.36-17.23-15-4.56-4.66-3.24-10.64,1.82-9.52.91-11.96-4.26-6.69-4.26-6.69Z"/>
    <path class="cls-1" d="M202.02,181.8s10.25-8.18,17.91-8.05,11.42.26,15.31-10.12,19.47-15.31,21.03-16.35,2.6-5.32,2.6-5.32c0,0,1.17,3.11-3.11,6.75-4.28,3.63-11.68,6.75-16.09,15.05-4.41,8.31-5.06,13.5-11.29,14.15s-10.51-2.08-15.05-.52-11.29,4.41-11.29,4.41Z"/>
    <path class="cls-1" d="M172.12,289.44s-.21-6.37,8.63-8.52,10.06-16.02,10.68-19.82,6.16-11.91,12.32-12.53,18.59-1.75,22.59,9.96c0,0-7.91-9.75-18.28-8.32s-13.96,10.17-14.27,13.35,1.23,9.96-4.42,14.48c-5.65,4.52-10.17,4.52-12.73,6.16s-4.52,5.24-4.52,5.24Z"/>
    <path class="cls-1" d="M126.93,254.51s-2.65,4.69-9.18,6.12-9.76,6.53-9.22,9.13,3.4,9.49,1.07,12-2.6,4.74-11.19,4.48c0,0-10.03,3.13-3.13,13.16,6.89,10.03,1.07,16.38,1.07,16.38l-2.78,4.3s4.3-4.12,6.18-6.98,2.95-6.36,1.07-10.03c-1.88-3.67-4.74-8.06-3.85-10.21s4.57-4.3,10.38-5.01,6.8-7.97,5.64-11.1-1.97-6.89-.45-8.77,7.16-6.53,10.29-7.88,4.08-5.58,4.08-5.58Z"/>
    <path class="cls-1" d="M159.22,229.73s21.86-21.86,39.31-23.8,40.48,9.96,40.48,9.96"/>
    <path class="cls-1" d="M198.53,205.93s9.44-3.74,18.69-2.94c0,0,6.99.32,11.17,2.49"/>
    <path class="cls-1" d="M189.08,208.46s3.46-4.66,8.68-7.96,7.23-4.5,14.87-4.58"/>
    <path class="cls-1" d="M173.89,217.14s2.41-6.99,8.6-12.78,11.09-10.61,20.17-12.38"/>
    <path class="cls-1" d="M168.91,221.08s1.61-8.12,3.86-13.02,10.61-14.63,10.61-14.63"/>
    <path class="cls-1" d="M161.91,226.86s1.93-10.29,4.34-16.24,9.08-13.1,9.08-13.1"/>
    <path class="cls-1" d="M207.17,205.97s11.25,9.32,16.56,9.89"/>
    <path class="cls-1" d="M171.88,218.91s11.65-5.55,18.65-4.5,10.77,5.22,16.8,5.79,10.93-.48,10.93-.48"/>
    <path class="cls-1" d="M173.17,220.27s13.58-.8,18.81.64,11.74,4.34,13.74,4.18"/>
    <path class="cls-1" d="M163.84,225.26s5.14-.4,12.54,5.79"/>
    <path class="cls-1" d="M166.66,223.09s6.35-1.45,11.17,1.53l4.82,2.97s8.44,5.87,18.81,3.22"/>
    <path class="cls-1" d="M174.78,221.72s6.27.4,13.58,2.89,12.06,1.93,12.06,1.93"/>
    <path class="cls-1" d="M184.18,210.87s7.31.32,11.33,1.77,9.65,1.93,13.5,1.04"/>
    <path class="cls-1" d="M191.82,207.49s5.3,2.33,11.98,2.41"/>
    <path class="cls-1" d="M127.87,234s-14.98-10.49-35.45-8.74-32.46,11.36-42.57,22.97c0,0-3.82,4.87-4.65,7.5"/>
    <path class="cls-1" d="M123.43,231.45s-.56-19.43-23.28-27.59"/>
    <path class="cls-1" d="M117.14,228.73s-5.16-20.37-28.53-24.87"/>
    <path class="cls-1" d="M110.19,226.47s-14.92-12.76-30.41-16.33"/>
    <path class="cls-1" d="M99.3,224.97s-15.39-6.1-21.4-8.73c0,0-6.76-3.19-11.83-2.91"/>
    <path class="cls-1" d="M90.01,225.35s-6.38-2.82-19.62-2.72"/>
    <path class="cls-1" d="M66.92,223.75s-10.04.09-15.3,6.19c0,0-1.93,2.18-3.73,5.09"/>
    <path class="cls-1" d="M81.19,227.04s-15.21.94-26.66,8.73"/>
    <path class="cls-1" d="M64.67,234.64s-12.48,5.16-16.14,9.95c0,0-1.67,2.14-2.15,4.36"/>
    <path class="cls-1" d="M126.24,232.86s-6.38,1.13-13.05,8.45-12.39,12.67-19.8,14.74"/>
    <path class="cls-1" d="M119.2,229.48s-8.35,2.25-13.89,7.6c-5.54,5.35-13.14,16.05-21.59,16.89s-10.51.09-10.51.09"/>
    <path class="cls-1" d="M108.03,226.19s-8.73,3.19-14.08,7.41-10.79,11.73-15.58,13.61-10.51,2.91-14.92,1.78"/>
    <path class="cls-1" d="M92.42,225.26s-8.6,3.18-13.58,7.78c-4.97,4.6-8.92,9.67-15.96,13.42s-7.7,1.5-13.05,5.07"/>
    <g>
      <circle class="cls-1" cx="136.98" cy="99.74" r="2.27"/>
      <circle class="cls-1" cx="117.43" cy="137.96" r="2.87"/>
      <circle class="cls-1" cx="166.2" cy="158.08" r="1.97"/>
      <circle class="cls-1" cx="162.16" cy="133.27" r="2.31"/>
      <circle class="cls-1" cx="139.15" cy="168.75" r="2.31"/>
      <circle class="cls-1" cx="84.88" cy="143.69" r="2.31"/>
      <circle class="cls-1" cx="96.82" cy="105.42" r="1.97"/>
      <circle class="cls-1" cx="175.54" cy="111.07" r="1.97"/>
      <circle class="cls-1" cx="196.93" cy="141.53" r="1.97"/>
      <circle class="cls-1" cx="103.27" cy="172.54" r="1.63"/>
    </g>
    <g>
      <circle class="cls-4" cx="136.98" cy="99.74" r="2.27"/>
      <circle class="cls-4" cx="117.43" cy="137.96" r="2.87"/>
      <circle class="cls-4" cx="166.2" cy="158.08" r="1.97"/>
      <circle class="cls-4" cx="162.16" cy="133.27" r="2.31"/>
      <circle class="cls-4" cx="139.15" cy="168.75" r="2.31"/>
      <circle class="cls-4" cx="84.88" cy="143.69" r="2.31"/>
      <circle class="cls-4" cx="96.82" cy="105.42" r="1.97"/>
      <circle class="cls-4" cx="175.54" cy="111.07" r="1.97"/>
      <circle class="cls-4" cx="196.93" cy="141.53" r="1.97"/>
      <circle class="cls-4" cx="103.27" cy="172.54" r="1.63"/>
    </g>
    <g>
      <path d="M175.24,112.17c2.95-.42,5.93.35,8.75,1.19,2.77.86,5.82,1.99,8.11,3.58-5.35-1.99-11.15-5.02-16.86-4.77h0Z"/>
      <path d="M109.34,190.81c.98,3.79,5.57,3.95,8.64,5.11.39.11.9.27,1.12.15.63-.97.23-2.56.82-3.71.22-.45.46-.76.57-1.17.42-1.25.51-2.63.73-3.91.1,1.32.01,2.73-.32,4.03-.1.45-.38.89-.52,1.24-.33.76-.3,1.64-.46,2.55-.13.49-.09,1.01-.61,1.36-.31.15-.58.08-.8.03-1.09-.29-2.11-.73-3.18-1.05-2.39-.61-5.75-1.95-6-4.64h0Z"/>
      <path d="M83.15,182.47c-.84,1.85-1.22,4.07-.4,5.96.41.91,1.08,1.75,1.59,2.64.55.88,1.07,1.77,1.66,2.61.6.79,1.27,1.73,2.24,1.45,2.93-.64,5.77-2.46,7.42-4.99-1.05,2.74-5.22,5.71-8.22,5.45-1.73-.8-2.37-2.86-3.38-4.35-.5-.91-1.12-1.72-1.54-2.71-.76-1.91-.35-4.47.64-6.05h0Z"/>
      <path d="M65.35,157.07l-3.3,5.63c-.62.89-.68,2.02-.51,3.07.16,1.07.48,2.11.64,3.2.31,1.59-.32,3.31.46,4.75.26.43.7.72,1.19.89,2.02.6,4.29.35,6.27-.33.18-.07.36.13.28.31-.75,1.86-1.6,3.95-.99,5.93,0,0,.39,1.21.39,1.21.53,1.35.85,3.53,2.43,3.91.77.06,1.54-.49,2.19-.89,1.38-.87,2.7-2.29,3.86-3.25-1.4,1.57-2.9,3.16-4.78,4.17-.38.18-.81.39-1.3.34-1.86-.35-2.31-2.64-2.87-4.14,0,0-.39-1.2-.39-1.2-.67-2.12.23-4.37,1.06-6.29,0,0,.28.31.28.31-2.29.67-6.24,1.36-7.9-.8-.83-1.51-.16-3.31-.45-4.89-.15-1.06-.45-2.12-.59-3.21-.16-1.07-.08-2.28.59-3.19l3.39-5.57s.06,0,.04.02h0Z"/>
      <path d="M180.82,166.15c3.5.12,8.37.79,9.4,4.77.92,2.95.53,6,.02,8.99-.31.93-1.46.89-2.22.72-1.5-.35-2.92-1.1-4.02-2.14-2.3-1.84-4.6-3.95-7.32-5.11,2.88.78,5.25,2.97,7.64,4.72,1.07,1.03,2.4,1.7,3.8,2.04.66.17,1.52.18,1.69-.38.38-2.13.78-4.42.54-6.59-.31-5.8-4.86-6.56-9.54-7.03h0Z"/>
      <path d="M173.31,84.22c-.17-3.83-1.18-8.33-4.56-10.56-3.55-2.03-8.08-.34-10.78,2.37-.02.02-.04.03-.07.04l-3.12,1.04s-.11.03-.13.04c-.22.06-.33-.2-.22-.33.62-.8.38-1.84-.3-2.55-1.5-1.63-3.78-2.32-5.73-3.2-.82-1.38-2.44-2.22-4.06-2.44-3.45-.55-6.34,1.99-9.13,3.65-1.44.89-2.39,2.63-2.52,4.18-.09-3.79,3.99-5.39,6.68-7.2,2.94-1.86,7.48-1.65,9.47,1.56,0,0-.15-.13-.15-.13,2.25.84,7.86,2.97,6.18,6.15,0,0-.13.2-.13.21,0,0-.03.05.02-.03.03-.01.04-.2-.09-.25-.09-.03-.1-.01-.11-.01.02,0,.1-.03.12-.03,0,0,3.13-1,3.13-1,2.44-2.56,7.51-4.48,11.07-2.27,3.37,2.28,4.51,7.06,4.45,10.75h0Z"/>
      <g>
        <path d="M155.95,183.88c-.52,3-1.69,5.85-3.06,8.56-1.39,2.71-2.99,5.3-4.77,7.78-.07.09-.19.11-.29.05-.43-2.73-1.19-5.61-1.95-8.33,0,0-2.17-8.15-2.17-8.15,1.04,2.42,1.81,5.38,2.64,8.02.73,2.76,1.6,5.41,1.8,8.29,0,0-.37-.13-.37-.13,3.57-4.8,6.8-10.36,8.16-16.09h0Z"/>
        <path d="M165.37,175.95l-6.78,10.84c-.1.18-.4.07-.36-.13.84-4.46,1.85-9.16,3.26-13.32-.75,4.42-1.94,9-2.87,13.38,0,0-.36-.13-.36-.13.04.02,7.08-10.83,7.11-10.62h0Z"/>
        <path d="M127.53,192.64c2.9.65,5.5,2.24,7.71,4.19,2.65,2.51,5.33,5.29,6.67,8.73,1.57,4.94,1.66,10.21,1.7,15.35-.07,5.9-.31,11.82-1.13,17.66-.9,5.84-2.3,11.59-4,17.24-.01.05-.1.04-.1-.01-.2-1.77-.5-3.54-.82-5.3-.64-3.49-1.18-7.13-3.24-10.12-.97-1.5-2.2-2.82-3.13-4.36-1.8-3.13-2.13-6.83-2.91-10.3-.73-3.48-1.23-7.08-2.64-10.37-3.12-6.37-9.47-11.01-15.96-13.53-6.89-2.04-14.24-1.26-21.27-.39-7.15.74-14.02,2.88-20.38,6.23-3.22,1.54-6.56,2.9-9.26,5.3-2.73,2.3-4.91,5.2-6.63,8.32-3.33,6.32-5.88,13.03-8.34,19.74-2.55,6.7-2.32,14.12-1.84,21.16,0,0-.22-.03-.22-.03,2.11-6.24,8.12-10.85,14.71-11.24,6.66-.12,12.02,4.87,18.4,6.01,4.16.96,8.6,1.8,12.71,2.39,7.38-.95,14.86-2.45,21.61-5.66,3.47-1.57,6.01-4.34,8.45-7.18,2.41-2.85,5.16-5.82,9.1-6.24,4.39-1.34,6.21,3.9,7.07,7.22,1.06,4.57,1.74,9.29,1.49,13.98-.38,2.8-1.22,5.51-2.1,8.19-1.8,5.32-4.11,10.54-7.27,15.2-2.97,4.77-5.68,9.69-8.36,14.63-3.49,6.62-7.18,13.17-9.91,20.14-4.5,12.13-7.23,25.63-4.39,38.45.45,1.8,1.02,3.61,1.88,5.23,0,0-.33.14-.33.14-1.67-6.32-.72-12.93.23-19.28,1.54-9.57,5.82-18.5,9.86-27.23,4.34-9.85,10.82-15.27,20.21-20.07,4.06-2.42,9.23-3.51,12.24-7.36,4.4-8.52,10.79-10.54,19.09-13.88,1.47-.64,2.94-1.3,4.25-2.19,1.33-.86,2.23-2.21,3.04-3.58,1.59-2.78,2.82-5.77,3.88-8.8,1.83-5.37,5.09-13.9-1.78-16.95,0,0,.21-.36.21-.36.71.67,1.17,1.53,1.49,2.41.93,2.66.82,5.55.5,8.3-.4,3.7-1.52,7.39-3.98,10.24-3.53,4.27-7.64,8.18-12.52,10.86-5,2.3-10.49,3.59-15.22,6.42-4.54,3.17-7.62,7.99-12.01,11.36-4.61,3.04-8.89,6.54-13.24,9.93-.19.16-.49-.1-.33-.31,9.97-14.86,19.68-30.35,23.96-47.91,2.05-6.94,5.91-13.27,10.72-18.64,6.55-7.71,11.37-5.26,19.82-3.04,6.89,1.61,14.29,2.58,21.21.7,3.44-.97,6.49-2.96,9.12-5.37,1.33-1.2,2.72-2.4,4.26-3.35,6.92-4.05,14.39-8.26,22.57-8.58.46.03.95.1,1.38.3,3.62,1.76,7.61,2.6,11.53,3.56,0,0-.15.35-.15.35-1.62-1.16-3.13-2.45-4.55-3.83-1.45-1.35-2.7-2.93-3.97-4.41-2.63-2.93-5.58-5.57-8.61-8.09-2.5-4.1-6.6-7.03-10.79-9.26-4.29-2.14-8.77-3.94-13.4-5.17-2.32-.58-4.7-1.07-7.07-.82-3.53.62-7.08,1.57-10.71,1.34-6.23,0-11.15,4.11-15.63,7.94-1.86,1.52-3.66,3.12-5.34,4.83-1.67,1.71-3.28,3.53-4.38,5.65-1.02,2.16-1.56,4.52-2.04,6.87-.75,3.53-1.07,7.14-1.88,10.66-2.16,5.63-5.69,10.61-8.84,15.71-.04.07-.16.03-.15-.05.38-5.75.79-11.5,1.25-17.24.56-5.72.61-11.57,2.27-17.11,3.62-10.86,9.58-21.24,17.01-29.89-3.58,4.47-7.16,9.09-9.88,14.18-2.61,5.12-5.41,10.21-7.03,15.75-1.65,5.54-1.69,11.38-2.24,17.09-.45,5.74-.84,11.49-1.22,17.24l-.15-.05c3.12-5.09,6.65-10.08,8.79-15.67,1.32-5.84,1.44-12.03,3.91-17.57,2.34-4.26,6.11-7.47,9.76-10.57,3.67-3.05,7.38-6.45,12.19-7.55,2.34-.64,4.81-.41,7.19-.57,2.42-.12,4.69-.99,7.09-1.26,2.43-.26,4.85.24,7.18.82,4.67,1.23,9.16,3.02,13.48,5.17,4.18,2.17,8.55,5.37,10.86,9.28,3.05,2.53,6.01,5.16,8.67,8.11,1.3,1.51,2.51,3.04,3.96,4.39,1.41,1.36,2.92,2.65,4.51,3.78.18.11.04.41-.15.35-3.52-.83-7.03-1.64-10.39-2.99-.42-.16-.84-.43-1.22-.58-1.22-.48-2.59-.23-3.87-.07-5.31.94-10.29,3.11-15,5.69-3.19,1.66-6.28,3.47-8.86,5.99-2.66,2.44-5.78,4.5-9.29,5.48-7.04,1.92-14.48.95-21.46-.68-8.27-2.14-12.93-4.68-19.34,2.89-4.76,5.3-8.6,11.59-10.62,18.45-2.61,10.5-7.06,20.46-12.53,29.78-3.59,6.24-7.49,12.3-11.52,18.26l-.33-.31c2.89-2.29,5.79-4.56,8.74-6.76,2.96-2.2,6.1-4.05,8.53-6.91,2.59-2.64,4.95-5.51,8.02-7.64,1.58-1.01,3.3-1.72,5-2.43,3.4-1.39,6.93-2.51,10.28-4.01,4.77-2.62,8.9-6.55,12.36-10.73,2.43-2.84,3.49-6.38,3.89-10.03.31-2.69.42-5.51-.48-8.1-.31-.84-.74-1.65-1.39-2.26-.19-.15.03-.44.22-.35,7.22,3.15,3.96,11.9,2.04,17.5-1.07,3.05-2.3,6.05-3.91,8.87-.82,1.38-1.77,2.8-3.17,3.71-1.36.92-2.85,1.59-4.33,2.23-8.31,3.34-14.53,5.26-18.93,13.74-3.06,3.94-8.25,5.02-12.38,7.47-9.34,4.76-15.75,10.14-20.05,19.88-4.04,8.7-8.3,17.58-9.85,27.12-.94,6.29-1.89,12.88-.25,19.12.08.19-.24.33-.33.14-3.31-6.83-3.42-14.73-2.75-22.14.75-7.47,2.54-14.84,5.26-21.84,2.74-6.99,6.44-13.54,9.94-20.17,2.69-4.94,5.4-9.87,8.38-14.64,3.16-4.66,5.44-9.82,7.24-15.13,1.11-3.53,2.41-7.15,2.13-10.9-.38-4.88-.96-15.46-5.58-18.05-1.69-.61-3.7.18-5.36.68-2.64,1.04-4.39,3.38-6.26,5.42-1.27,1.38-2.46,2.83-3.85,4.11-4.25,3.78-9.94,5.38-15.32,6.81-3.65.88-7.34,1.55-11.07,1.99-4.3-.6-8.56-1.44-12.79-2.4-6.41-1.15-11.71-6.11-18.33-6.01-6.48.38-12.43,4.92-14.51,11.07-.03.11-.22.09-.22-.03-.48-7.09-.7-14.52,1.87-21.26,2.47-6.71,5.02-13.42,8.37-19.77,1.74-3.13,3.93-6.05,6.68-8.37,2.71-2.4,6.08-3.78,9.3-5.32,6.36-3.35,13.28-5.5,20.43-6.23,7.05-.87,14.41-1.65,21.33.41,6.51,2.52,12.92,7.23,16.04,13.62,1.41,3.31,1.91,6.9,2.64,10.4.76,3.45,1.1,7.16,2.88,10.26.93,1.53,2.15,2.85,3.13,4.36,2.93,4.57,3.19,10.24,4.07,15.47,1.35-5.43,3.13-11.45,3.91-17.23.82-5.84,1.07-11.76,1.14-17.65-.04-5.14-.13-10.39-1.69-15.33-1.34-3.43-4.01-6.2-6.64-8.71-2.15-2-5-3.5-7.67-4.23h0Z"/>
        <path d="M139,185.69c2.01,4.77,3.71,9.74,4.21,14.93,0,.11-.07.2-.18.21-.08,0-.16-.04-.19-.11-.67-1.14-1.5-2.21-2.4-3.2-2.62-3.05-6.25-5.37-9.7-7.08,5.16,1.76,9.71,5.35,12.44,10.1,0,0-.37.11-.37.11-.33-5.12-2.14-10.3-3.81-14.96h0Z"/>
      </g>
      <path d="M164.66,90.82c3.93-3.23,7.91-6.5,12.44-8.86.86-.36,1.81-.83,2.76-.78.94.07,2.01.21,2.67.99.44.51.54,1.2.58,1.83-.06,2.56.23,5.08.73,7.58l-.15-.06c1.17-.66,2.47-1.11,3.82-1.2,2.78-.26,5.4,2.03,5.47,4.83.13,1.35-.16,2.69-.25,3.98-.08.76.34,1.08,1.05,1.17,7.64.21,7.79,2.17,5.44,8.9,0,0-.21-.21-.21-.21,1.89-.69,3.97-.96,5.94-.43,2.88.79,5.41,3.78,4.84,6.87-.53,3.05-2.73,5.34-4.66,7.58,0,0-.18-.34-.18-.34,2.09-.18,4.2.06,6.16.83,1.98.74,3.57,2.29,4.65,4.05.83,1.29,1.94,2.6,2.05,4.22-.03,1.63-1.18,2.95-1.95,4.26,0,0-1.66,2.6-1.66,2.6-1.6,1.61-3.65,2.93-5.98,3.04,0,0,.11-.45.11-.45,3.72,2.08,5.43,6.21,5.77,10.26.18,1.33.5,2.64.34,4.05-.14,1.56-1.84,2.12-3.12,2.46-3.89.97-8.16,1.21-11.93-.4,0,0,.21-.12.21-.12-.84,7.51-7.52,10.8-12.25,3.82-.02-.03.02-.05.04-.03,4.7,6.69,11.11,3.6,11.91-3.81,0-.1.12-.16.21-.12,3.67,1.53,7.91,1.26,11.71.28,3.81-.81,2.85-3.02,2.43-6.05-.38-3.93-1.97-7.9-5.54-9.91-.21-.12-.11-.44.12-.45,2.11-.03,4.26-1.49,5.59-2.81,0,0,1.67-2.59,1.67-2.59.75-1.27,1.84-2.5,1.89-4.01-.11-1.5-1.17-2.74-1.96-3.98-1.08-1.75-2.52-3.17-4.45-3.91-1.87-.75-3.95-.98-5.95-.82-.18.02-.29-.2-.18-.34,1.91-2.21,4.07-4.42,4.59-7.37.53-2.9-1.86-5.72-4.57-6.48-1.87-.52-3.92-.26-5.72.4-.13.06-.27-.08-.21-.21.64-1.83,1.35-3.77,1.31-5.72-.16-2.2-2.68-2.56-4.5-2.62-1.17-.14-3.45.16-3.26-1.62.27-2.53.85-5.54-1.35-7.38-.98-.86-2.29-1.3-3.6-1.21-1.3.08-2.59.51-3.73,1.15-.05.03-.11.02-.13-.03-.53-2.51-.75-5.09-.71-7.64-.04-.62-.13-1.28-.54-1.75-.83-.92-2.32-1.05-3.49-.86-.57.07-1.24.47-1.77.66-4.52,2.26-8.62,5.78-12.49,8.75h0Z"/>
      <path d="M170.54,146.88c1.26-1.34,3.19-1.34,4.88-1.18,3.56-.02,6.51,2.47,8.82,4.95,3.18,3.11,4.19,7.9,2.88,12.11-1.24,4.15-8.17,3.99-11.7,3.96,0,0,.18-.36.18-.36,3.02,3.21,1.68,8.12-.88,11.18-1.97,2.6-4.78,3.03-7.02.42-1.95-2.18-4.39-2.83-6.47-4.54-.97-.95-1.53-2.31-1.45-3.66,0,0,.11.06.11.06-.63.41-1.38.71-2.08.81.66-.26,1.43-.45,2-.91.03-.02.07-.02.09.01,0,1.31.55,2.62,1.51,3.51.92.92,2.23,1.29,3.38,2,1.16.67,2.22,1.51,3.19,2.42,1.39,1.52,3.18,2.21,4.99.9,2.42-1.98,4.15-5.29,3.86-8.46-.14-1.27-.71-2.47-1.56-3.44-.08-.09-.07-.23.02-.31,3.35-.1,10.28.33,11.51-3.67,1.31-4.13.36-8.78-2.73-11.88-2.27-2.47-5.13-4.98-8.67-4.99-.86-.06-1.72-.14-2.57-.02-1.09.13-1.59.65-2.3,1.09h0Z"/>
      <path d="M134.41,160.24c-.25-2.68-.25-5.52.32-8.19.99-4.49,5.56-7.52,10.04-7.37,3.92.27,6.65,3.77,8.59,6.84,1.76,7.38.66,9.1-5.54,13.15,0,0-.08-.24-.08-.24,3.18-.13,6.95.41,8.96,3.16,1.71,2.83,1.84,6.3,2.04,9.52.06,2.18,0,4.35-.3,6.52-.01.08-.08.14-.16.15-2.43.08-6,.68-8.44,1.07-1.79-.05-3.56-.09-5.31-.51-1.72-.61-3.06-1.78-4.48-2.87,0,0,.33-.15.33-.15-.19,2.79-1.41,5.89-4.1,7.12-.89.42-1.82.56-2.67.89-1.75.6-3.28,1.62-4.79,2.74-.78.56-1.76,1.02-2.75.88-4.1-.77-6.17-8.28-6.47-11.91-.59-4.07,2.79-7.02,5.74-9.21,0,0,.28.41.28.41-1.81.99-3.94.69-5.65-.15-3.28-1.83-6.24-4.85-6.95-8.65-.22-1.86.36-3.85,1.06-5.58,1.04-1.79,3.31-1.91,5.14-2.05,1.88-.1,3.76-.09,5.64,0,3.78.23,8.02.27,9.56,4.43h0ZM134.42,160.29c-1.73-4.13-5.74-4.07-9.58-4.26-2.78-.05-5.65-.19-8.36.44-2.09.49-2.57,2.31-2.9,4.19-1.91,5.29,6.52,13.94,11.76,11.15.27-.17.52.23.28.41-2.1,1.64-4.48,3.47-5.35,6.08-.97,3.72,1.68,13.35,5.84,14.19.89.12,1.69-.27,2.45-.8,1.49-1.09,3.1-2.17,4.9-2.78,1.78-.55,3.6-.94,4.72-2.54,1.11-1.43,1.67-3.28,1.79-5.09,0-.11.1-.2.22-.19,2.15,1.64,4.14,3.29,7.01,3.23.83.08,1.88.11,2.59.13,0,0,4.22-.64,4.22-.64,1.42-.19,2.83-.37,4.27-.4l-.17.15c.53-4.25.5-8.68-.47-12.87-.26-1.04-.56-2.09-1.17-2.95-1.94-2.66-5.61-3.18-8.7-3.07-.14.02-.19-.17-.08-.24,6.17-4,7.16-5.59,5.51-12.83-1.91-3.04-4.57-6.5-8.43-6.79-4.43-.17-8.96,2.81-9.96,7.25-.59,2.69-.54,5.44-.39,8.22h0Z"/>
      <path d="M86.26,164.98c-1.97.04-4.26.04-5.79,1.46-.76.67-1.44,1.48-2.42,1.88-2.13.71-3.72-1.49-5.36-2.49-2.46-1.8-3.24-5.76-3.31-8.26-5.01-.41-12.99-1.4-14.27-7.29-.39-.64-.66-1.86-.38-2.76.24-.94.83-1.74,1.54-2.39,0,0-.01.18-.01.18-2.09-2.95,2.57-5.49,4.4-5.85.26-1.18.89-2.28,1.85-3.03.95-.76,2.18-1.06,3.38-1.07,0,0-.12.25-.12.25-2.4-3.21-3.54-7.63-1.87-11.42.1-.79,1.01-1.75,1.92-1.94,1.84-.5,3.66.2,5.46.53.89.2,1.77.39,2.67.65,0,0-.13.36-.13.36-2.69-1.06-6.93-3.17-5.45-6.71.22-.7,1.06-1.22.98-1.92-1.19-1.98-.91-3.6.96-4.99,1.97-1.81,4.34-3.29,7.12-3.12,0,0-.17.37-.17.37-.81-.96-1.47-2.01-1.98-3.14-.5-1.13-.82-2.38-.75-3.65l.04.15c-1.11-1.66-1.57-3.95-.42-5.7,1.08-1.74,3.09-2.42,4.81-3.28,4.1-2.17,7.18-1.89,11.13.46,0,0-.35.24-.35.24-.52-3.69,1.01-8.35,5.16-8.95,2.05-.36,4.15-.48,6.23-.23.83.15,1.67.26,2.41.86,0,0-.27.16-.27.16-.61-2.08-1.36-4.85.23-6.66,1.88-1.88,5.05-4.79,7.56-2.28,1.93-1.01,5.43-.86,7.65.34-2.26-.95-5.25-1.31-7.67-.2-.57-.32-1-.8-1.74-.88-1.97-.24-3.55,1.3-4.92,2.54-.46.46-.98.85-1.21,1.43-.68,1.79-.16,3.83.4,5.59.06.16-.16.28-.27.16-1.27-.88-3.13-.84-4.66-.85-1.42.06-2.87.17-4.25.51-3.56.97-4.62,5.09-4.18,8.37.02.13-.08.25-.21.27-1.76-.78-3.51-1.83-5.44-1.93-1.87-.13-3.67.67-5.4,1.46-1.65.82-3.6,1.47-4.62,3.09-1.04,1.55-.61,3.68.4,5.19.03,1.21.2,2.45.74,3.59.49,1.09,1.14,2.12,1.9,3.03.13.14.02.37-.17.37-2.09-.08-4.05.67-5.64,2.01-1.02.94-2.73,1.85-2.76,3.4-.03.79.38,1.42.71,2.15.21.91-.77,1.47-1.01,2.21-1.35,3.3,2.74,5.16,5.2,6.19.23.08.1.44-.13.36-2.54-.52-5.29-1.7-7.9-1.2-.85.22-1.56.91-1.71,1.74-.35.91-.67,1.85-.73,2.83-.29,2.94.81,5.91,2.53,8.26.05.07.04.17-.03.22-2.35-.04-4.6,1.48-5.04,3.87-.56.42-1.4.54-2.02.94-1.74.78-3.87,2.75-2.46,4.71.04.05.03.13-.02.17-.67.61-1.24,1.37-1.47,2.26-.23.89-.07,1.87.38,2.67,1.2,5.73,9.17,6.74,14.04,7.16.41,1.93.5,4.16,1.47,5.99.89,1.9,2.78,2.93,4.37,4.17,2.05,1.7,3.64.39,5.2-1.19,1.49-1.37,4.06-1.56,5.84-1.41h0Z"/>
      <path d="M157.1,108.09c.63-3.21-2.88-5.25-5.32-6.5-.05-.02-.04-.09,0-.1,5.35-1.25,9.5-6.92,8.83-12.4-.99-3.04-1.1-6.29-1.16-9.46.13-3.4-.78-4.28-3.99-2.76-1.46.65-2.85,1.48-4.21,2.32-2.93.58-5.78,1.85-7.88,4.01-.69.71-1.32,1.51-1.76,2.37l-.35-.17c.1-1.11-.53-2.31-.96-3.32-.53-1.1-1.06-2.21-2.05-2.87-.95-.7-2.16-.97-3.33-1.36-1.82-.47-3.36-1.75-4.58-3.12-2.14-1.93-4.89-3.08-7.6-3.97-.63-.21-1.36.11-1.63.72,0,0-.77,1.67-.77,1.67-1.51,3.34-3.05,6.7-3.95,10.26-.41,1.73-.78,3.62-.14,5.32,1.92,3.82,5.52,6.57,8.89,9.05,1.49.84,3.12,1.52,4.74,2-1.67-.3-3.29-1.09-4.82-1.85-3.06-2.06-5.99-4.44-8.18-7.44-.74-1-1.34-2.2-1.33-3.47.1-5.6,2.91-10.73,5.11-15.75.36-.83,1.37-1.27,2.23-.98,0,0,.44.14.44.14l.88.31c2.32.87,4.63,1.94,6.47,3.64,1.24,1.38,2.55,2.54,4.39,3.05,1.14.39,2.4.66,3.44,1.44,1.09.73,1.65,1.96,2.17,3.05.47,1.19,1.18,2.35.93,3.69-.1.28-.51.08-.35-.17,1.99-3.66,5.95-5.78,9.93-6.54,1.02-.71,2.78-1.67,4.14-2.28,5.24-2.51,4.26,1.84,4.44,5.42.07,1.58.18,3.17.46,4.73.31,1.55.96,3.11.59,4.72-.72,4.75-4.27,9.07-9.03,10.15,0,0,0-.1,0-.1,1.37.66,2.67,1.48,3.77,2.54,1.06.96,2.08,2.76,1.51,4.05h0Z"/>
      <path d="M131.56,114.26c.74-.6,1.25-1.46,1.46-2.37,0-.04.05-.07.09-.06.18,1.48.54,3.19,1.82,4.14,1.22.99,2.92.93,4.34,1.48,2.96,1.13,5.86,2.15,9.03,2.05-1.51.31-3.19.26-4.73-.08-2.34-.49-4.35-1.73-6.67-2.19-2.52-.39-4.04-2.93-3.9-5.33,0,0,.15.02.15.02-.25.87-.89,2.03-1.61,2.34h0Z"/>
      <path d="M162.59,260.06c-.14,4.3-6.33,4.29-6.5,0,.08-4.46,6.45-4.48,6.5,0h0ZM162.54,260.06c-.17-3.82-5.89-3.81-6.05,0,.04,3.98,5.98,3.98,6.05,0h0Z"/>
      <path d="M63.21,267.76c-.12,3.33-4.86,3.34-5.03,0,.03-3.48,5.03-3.5,5.03,0h0ZM63.16,267.76c-.12-2.83-4.46-2.84-4.58,0,0,2.99,4.53,3.02,4.58,0h0Z"/>
      <path d="M60.64,197.38c-.1,2.92-4.27,2.97-4.43,0,.02-3.09,4.44-3.11,4.43,0h0ZM60.59,197.38c-.1-2.44-3.88-2.45-3.98,0,0,2.6,3.94,2.62,3.98,0h0Z"/>
      <path d="M207.69,53.48c-.12,3.56-5.22,3.55-5.37,0,.03-3.71,5.37-3.73,5.37,0h0ZM207.64,53.48c-.12-3.06-4.8-3.07-4.92,0,0,3.22,4.87,3.25,4.92,0h0Z"/>
      <path d="M218.13,68.23c-.06,2.2-3.22,2.24-3.35,0,0-2.36,3.36-2.42,3.35,0h0ZM218.08,68.23c-.07-1.73-2.82-1.73-2.9,0-.04,1.88,2.89,1.9,2.9,0h0Z"/>
      <path d="M231.11,100.21c-.05,1.67-2.43,1.72-2.55,0-.03-1.83,2.6-1.89,2.55,0h0ZM231.06,100.21c-.06-1.21-2.03-1.21-2.1,0-.06,1.34,2.09,1.4,2.1,0h0Z"/>
      <path d="M198.36,38.91c-.05,1.67-2.43,1.72-2.55,0-.03-1.83,2.6-1.89,2.55,0h0ZM198.31,38.91c-.06-1.21-2.03-1.21-2.1,0-.06,1.34,2.09,1.4,2.1,0h0Z"/>
      <path d="M168.21,58.67c-.05,1.67-2.43,1.72-2.55,0-.03-1.83,2.6-1.89,2.55,0h0ZM168.16,58.67c-.06-1.21-2.03-1.21-2.1,0-.06,1.34,2.09,1.4,2.1,0h0Z"/>
      <path d="M195.2,23.29c-.05,1.67-2.43,1.72-2.55,0-.02-1.83,2.6-1.89,2.55,0h0ZM195.15,23.29c-.06-1.21-2.03-1.21-2.1,0-.06,1.34,2.09,1.4,2.1,0h0Z"/>
      <path d="M242.09,91.82c-.05,1.67-2.43,1.72-2.55,0-.02-1.83,2.6-1.89,2.55,0h0ZM242.04,91.82c-.06-1.21-2.03-1.21-2.1,0-.06,1.34,2.09,1.4,2.1,0h0Z"/>
      <path d="M241.09,76.45c-.06,2.2-3.22,2.24-3.35,0,0-2.36,3.36-2.42,3.35,0h0ZM241.04,76.45c-.07-1.73-2.82-1.73-2.9,0-.04,1.88,2.89,1.9,2.9,0h0Z"/>
      <path d="M51.36,163.97c-.1,2.92-4.27,2.97-4.43,0,.02-3.09,4.44-3.11,4.43,0h0ZM51.31,163.97c-.1-2.44-3.88-2.45-3.98,0,0,2.6,3.94,2.62,3.98,0h0Z"/>
      <path d="M95.45,268.79c-.06,2-2.93,2.05-3.05,0,0-2.17,3.08-2.23,3.05,0h0ZM95.4,268.79c-.06-1.53-2.54-1.54-2.6,0-.04,1.69,2.6,1.71,2.6,0h0Z"/>
      <path d="M59.1,181.99c-.06,2-2.93,2.05-3.05,0,0-2.17,3.08-2.23,3.05,0h0ZM59.05,181.99c-.06-1.53-2.54-1.54-2.6,0-.04,1.69,2.6,1.71,2.6,0h0Z"/>
      <path d="M159.53,301.1c-.06,2-2.93,2.05-3.05,0,0-2.17,3.08-2.23,3.05,0h0ZM159.48,301.1c-.06-1.53-2.54-1.54-2.6,0-.04,1.69,2.6,1.71,2.6,0h0Z"/>
      <path d="M79.87,275.96c-.06,2-2.93,2.05-3.05,0,0-2.17,3.07-2.23,3.05,0h0ZM79.82,275.96c-.06-1.53-2.54-1.54-2.6,0-.04,1.69,2.6,1.71,2.6,0h0Z"/>
      <path d="M82.56,302.05c-.05,1.53-2.23,1.58-2.34,0-.03-1.69,2.4-1.75,2.34,0h0ZM82.51,302.05c-.06-1.07-1.82-1.07-1.89,0-.06,1.21,1.89,1.26,1.89,0h0Z"/>
      <path d="M77.24,281.02c-.05,1.53-2.23,1.58-2.34,0-.03-1.69,2.4-1.75,2.34,0h0ZM77.19,281.02c-.06-1.07-1.82-1.07-1.89,0-.06,1.21,1.89,1.26,1.89,0h0Z"/>
      <path d="M164.85,289.62c-.05,1.53-2.23,1.58-2.34,0-.03-1.69,2.4-1.75,2.34,0h0ZM164.8,289.62c-.06-1.07-1.82-1.07-1.89,0-.06,1.21,1.89,1.26,1.89,0h0Z"/>
      <path d="M74,266.09c-.05,1.53-2.23,1.58-2.34,0-.03-1.69,2.4-1.75,2.34,0h0ZM73.95,266.09c-.06-1.07-1.82-1.07-1.89,0-.06,1.21,1.89,1.26,1.89,0h0Z"/>
      <path d="M129.48,205.25c-.05,1.53-2.23,1.58-2.34,0-.03-1.69,2.4-1.75,2.34,0h0ZM129.43,205.25c-.06-1.07-1.82-1.07-1.89,0-.06,1.21,1.89,1.26,1.89,0h0Z"/>
      <path d="M171.34,188.05c-.05,1.53-2.23,1.58-2.34,0-.03-1.69,2.4-1.75,2.34,0h0ZM171.29,188.05c-.06-1.07-1.82-1.07-1.89,0-.06,1.21,1.89,1.26,1.89,0h0Z"/>
      <path d="M244.01,187.8c-.06,2.06-3.01,2.1-3.13,0,0-2.22,3.15-2.28,3.13,0h0ZM243.96,187.8c-.06-1.58-2.62-1.59-2.68,0-.04,1.74,2.68,1.76,2.68,0h0Z"/>
      <path d="M223.42,167.28c-.05,1.53-2.23,1.58-2.34,0-.03-1.69,2.4-1.75,2.34,0h0ZM223.37,167.28c-.06-1.07-1.82-1.07-1.89,0-.06,1.21,1.89,1.26,1.89,0h0Z"/>
      <path d="M134.03,217.74c-.05,1.53-2.23,1.58-2.34,0-.03-1.69,2.4-1.75,2.34,0h0ZM133.98,217.74c-.06-1.07-1.82-1.07-1.89,0-.06,1.21,1.89,1.26,1.89,0h0Z"/>
      <path d="M185.63,290c-.11,3.14-4.59,3.18-4.76,0,.03-3.31,4.76-3.33,4.76,0h0ZM185.58,290c-.11-2.66-4.2-2.67-4.31,0,0,2.82,4.27,2.84,4.31,0h0Z"/>
      <path d="M205.68,268.9c-.05,1.55-2.26,1.6-2.37,0-.03-1.71,2.43-1.77,2.37,0h0ZM205.63,268.9c-.06-1.09-1.85-1.09-1.92,0-.06,1.23,1.92,1.28,1.92,0h0Z"/>
      <path d="M214.09,264.5c-.05,1.55-2.26,1.6-2.37,0-.03-1.71,2.43-1.77,2.37,0h0ZM214.04,264.5c-.06-1.09-1.85-1.09-1.92,0-.06,1.23,1.92,1.28,1.92,0h0Z"/>
      <path d="M216.15,238.82c-.07,2.25-3.3,2.3-3.43,0,0-2.42,3.44-2.48,3.43,0h0ZM216.1,238.82c-.07-1.78-2.9-1.79-2.98,0-.04,1.94,2.97,1.96,2.98,0h0Z"/>
      <path d="M164.71,247.07c-.06,1.97-2.88,2.01-3,0,0-2.13,3.02-2.19,3,0h0ZM164.66,247.07c-.06-1.5-2.48-1.5-2.55,0-.05,1.64,2.54,1.69,2.55,0h0Z"/>
      <path d="M138.79,123.82c-.31-2.7-1.88-5.22-4.04-6.84-1.03-.89-1.95-1.95-3.2-2.49-1.24-.57-2.63-.63-3.98-.58-2.61.11-5.72.18-7.45,2.44-1.81,2.02-3.25,4.43-3.74,7.1-.02.12-.19.13-.23.02-.73-1.8-1.78-3.5-3.12-4.93-3.63-3.97-8.56-4.47-13.37-2.44-2.64,1.15-5.23,2.9-6.4,5.62-2.2,5.1.4,12.53,5.35,15.06.12.04.18.18.14.3-.04.11-.17.17-.28.14-2.02-.5-4.32-.03-5.9,1.35-1.62,1.38-2.47,3.45-2.98,5.52-.52,2.09-.92,4.25-.58,6.36.48,2.08,1.07,4.37.44,6.53,0,0-.25-.28-.25-.28,3.29-.21,6.57.44,9.69,1.33,4.09.67,9.06.13,12-3.06,0,0,2.36-2.25,2.36-2.25.04-.04.1-.02.13.02.74,1.55,2.17,2.73,3.7,3.45-1.61-.56-3.02-1.85-3.84-3.38,0,0,.13.02.13.02l-2.31,2.3c-2.18,2.58-5.72,3.3-8.94,3.49-2.2.18-4.35-.53-6.45-1.01-2.11-.41-4.29-.58-6.42-.45-.13,0-.24-.09-.25-.22.58-2.22.01-4.23-.47-6.41-.67-6.15,2.26-15.62,10.1-13.75,0,0-.14.44-.14.44-5.17-2.6-7.85-10.37-5.53-15.64,1.23-2.81,3.88-4.6,6.61-5.77,4.93-2.05,10-1.51,13.69,2.57,1.35,1.46,2.41,3.17,3.15,5.02l-.23.02c.72-3.32,2.63-6.55,5.39-8.54,1.83-.99,4-1.03,6.02-1.11,1.36-.05,2.78.02,4.04.61,1.28.56,2.2,1.64,3.22,2.53,2.11,1.58,3.89,4.38,3.98,6.91h0Z"/>
      <path d="M136.92,147.95c-.12-2.99.07-6.42-1.74-8.95-1.28-1.25-2.97-2.22-4.75-2.53-.14-.02-.23-.15-.2-.29.01-.08.06-.14.13-.17,1.43-.75,2.83-1.68,4.17-2.54-1.11,1.18-2.55,2.1-3.93,2.97,0,0-.08-.46-.08-.46,1.26.18,2.51.72,3.51,1.51,1.04.72,2.01,1.71,2.33,2.98.69,2.37.78,5.18.57,7.48h0Z"/>
      <path d="M116.28,123.43c.84,3.79,1.28,8.02-.04,11.73.29-3.86.65-8,.04-11.73h0Z"/>
      <path d="M130.48,136.25c-3.95.75-8.2,2.19-12.13,1.87,1.78-.35,4.27-.79,6.05-.99-.03.05,6.25-1.05,6.08-.89h0Z"/>
      <path d="M98.54,136.98c4.41,1.96,9.34,2.17,14.05,1.7-4.51,1.56-10.04.38-14.05-1.7h0Z"/>
      <path d="M113.26,152.79c-1.19-3.89-.45-8.44,1.45-11.97-.05.5-.25,1.02-.37,1.51-.92,3.35-1.89,7.12-1.08,10.46h0Z"/>
      <path d="M130.86,116.7c-6.97.36-10.13,7.82-11.85,13.61-.26.89-.46,1.85-.79,2.69.07-.91.3-1.86.45-2.78,1.28-5.95,5.39-13.65,12.18-13.53h0Z"/>
      <path d="M133.45,121.69c-6.56,1.11-11.71,9.69-15.65,14.57,0,.01-.02.01-.04,0,2.71-5.06,9.74-14.2,15.69-14.58h0Z"/>
      <path d="M131.99,129.27c-4.81,2.14-9.35,4.84-13.81,7.57,3.79-3.56,9.14-5.74,13.81-7.57h0Z"/>
      <path d="M105.12,118.37c6.24,2.91,9.08,10.32,9.06,16.87-.27-.63-.29-1.69-.46-2.46-.98-5.6-3.4-11.72-8.61-14.4h0Z"/>
      <path d="M98.42,118.04c1.79,3.21,3.65,6.47,6.07,9.24,2.8,2.38,5.62,4.88,7.67,7.99.02.02-.02.05-.04.03-2.49-2.79-5.22-5.21-7.93-7.76-2.32-2.85-4.31-6.31-5.77-9.51h0Z"/>
      <path d="M96.69,127.51c1.88,2.51,4.27,4.74,7.15,6.04,2.87,1.35,5.99,2.15,8.69,3.86.02.01,0,.06-.02.04-2.93-1.22-6.02-2.03-8.84-3.54-2.81-1.38-5.45-3.84-6.97-6.4h0Z"/>
      <path d="M117.95,139.64c4.5,1.26,9.49,2.12,13.19,5.16,2,2.1,2.96,4.99,3.45,7.78,0,.03-.04.04-.05.01-.86-2.66-1.87-5.36-3.75-7.44-3.46-3.1-8.7-4.01-12.84-5.51h0Z"/>
      <path d="M116.74,140.6c4.96,4.32,10.48,8.53,13.88,14.24-4.21-5.05-9.16-9.86-13.88-14.24h0Z"/>
      <path d="M122.58,154.93c-3.35-3.95-6.33-8.94-6.38-14.24,1.08,5.1,3.25,10.2,6.38,14.24h0Z"/>
      <path d="M91.74,153.18c1.31-4.27,4.76-7.83,9.08-9.11,4.12-1.49,8.76-1.77,12.52-4.1-1.41,1.55-3.98,2.15-5.99,2.8,0,0-6.41,1.69-6.41,1.69-4.3,1.1-7.72,4.76-9.19,8.72h0Z"/>
      <path d="M100.02,152.91c3.99-3.62,9.73-9.07,13.75-12.56-1.71,2.39-4.33,4.53-6.62,6.56-2.33,1.97-4.8,4.26-7.13,6h0Z"/>
      <path d="M105.87,153.86c2.56-3.6,5-7.52,7.32-11.28-.47,2.05-1.98,4.12-3.22,5.92-1.3,1.77-2.69,3.85-4.09,5.36h0Z"/>
      <path d="M92.61,143.87c3.42-3.05,8.17-5.15,12.79-4.84-4.49.74-9.27,2.01-12.79,4.84h0Z"/>
      <path d="M118.84,117.81c-2.44-.34-5.75-.57-7.15-2.9-.27-.73-.46-1.82-.66-2.58-.98-3.47-.21-7.31,2.18-10.04,0,0,.15.27.15.27-4.84.48-9.68-2.71-11.97-6.54-.97-1.51,1.22-3.14,2.23-3.99,3.57-2.87,8.66-4.42,12.96-2.29-4.26-1.67-9.17-.31-12.65,2.69-.85.68-1.75,1.42-2.19,2.41-.13.31-.13.69.02.84,2.43,3.94,6.81,6.91,11.57,6.55.15-.02.25.16.15.27-2.37,2.67-3.13,6.35-2.23,9.78.18.71.37,1.88.61,2.55,1.29,2.33,4.81,2.49,7,2.97h0Z"/>
      <path d="M141.47,85.51c-2.27,4.03-3.25,8.58-4.35,12.99.03-4.53,2-9.34,4.35-12.99h0Z"/>
      <path d="M151.79,101.57c-4.6-1.5-9.48-2.04-14.26-1.52,4.56-1.6,10.05-.13,14.26,1.52h0Z"/>
      <path d="M133.07,111.89c.76-3.27.94-6.7,1.93-9.88.05,3.29-1.01,6.87-1.93,9.88h0Z"/>
      <path d="M113.32,102.38c5.77-2.97,12.71-3.28,19.04-2.36-.64.16-1.67,0-2.43.03-5.55-.04-11.61-.01-16.61,2.33h0Z"/>
      <path d="M126.84,78.62c1.47,3.12,3.03,6.15,4.92,9.04,1.55,3.04,2.69,6.59,3.19,9.81,0,0-1.7-4.86-1.7-4.86-.81-2.47-1.71-4.81-3.14-6.98-1.18-2.24-2.47-4.77-3.27-7.01h0Z"/>
      <path d="M125.33,90.43c2.94,2.24,6.55,4.2,8.44,7.45-2.67-2.55-5.74-5.12-8.44-7.45h0Z"/>
      <path d="M154.98,82.12c-3.21,2.51-6.38,5.13-9.25,8.03-2.84,2.91-4.69,6.88-8.48,8.78-.03.02-.05-.03-.02-.04,3.47-2.34,5.23-6.21,8.22-9.02,2.94-2.79,6.3-5.58,9.53-7.75h0Z"/>
      <path d="M152.88,88.96c-2.47,1.88-4.97,3.71-7.52,5.5-2.51,1.71-5.24,3.8-8.05,4.67,5.19-3.11,10.62-6.95,15.57-10.16h0Z"/>
      <path d="M151.38,97.07c-2.38.15-4.77.48-7.13.87-2.35.42-4.67,1.29-7.04,1.52,4.37-1.85,9.58-2.48,14.16-2.39h0Z"/>
      <path d="M135.32,80.84c1.97,2.65,3.44,6.17,2.92,9.5-.53-3.25-1.18-6.78-2.92-9.5h0Z"/>
      <path d="M146.81,117.46c-2.2-2.31-3.11-5.55-4.48-8.38-1.23-2.91-3.54-5.24-5.81-7.38,0,0,.38-.26.38-.26,1.23,3.02,2.14,6.2,2.08,9.48.09,1.06.4,2.14.98,3.03-.77-.74-1.1-1.94-1.28-2.99-.15-3.23-1.06-6.32-2.21-9.34-.05-.12,0-.27.13-.31.09-.03.18-.01.25.05,2.26,2.24,4.54,4.62,5.75,7.62,1.26,2.85,2.29,6.18,4.23,8.49h0Z"/>
      <path d="M137.31,102.26c7.54,3.22,12.52,5.04,11.54,14.49,0,.03-.05.03-.05,0-.3-9.87-3.81-10.56-11.49-14.49h0Z"/>
      <path d="M139.94,103.38c1.46.36,2.95.61,4.44.74,2.21.26,4.74-.22,6.71,1.14,1.8,1.55,1.97,4.27,1.9,6.47,0,.03-.05.03-.05,0-.31-2.1-.56-4.57-2.15-6.08-1.82-1.35-4.27-.95-6.43-1.28-1.44-.23-3.2-.47-4.42-.99h0Z"/>
      <path d="M116.12,113.16c2.96-1.97,5.26-4.89,8.62-6.2,1.62-.74,3.28-1.38,4.9-2.05,1.62-.65,2.9-1.95,4.23-3.06-.34.64-1.21,1.36-1.81,1.97-2.63,2.47-6.52,2.81-9.54,4.65-2.16,1.44-4.23,3.53-6.41,4.7h0Z"/>
      <path d="M119.04,106.17c2.32-1.02,4.69-1.92,7.12-2.67,2.38-.77,5.09-1.14,7.27-2.1-2.02,1.61-4.76,1.84-7.16,2.48-2.41.59-4.99,1.61-7.23,2.29h0Z"/>
      <path d="M117.33,105.36c-1.95,1.78-3.49,3.93-5.01,6.04.46-2.44,3.19-4.72,5.01-6.04h0Z"/>
      <path d="M110.28,93.86c4.45,1.17,9.49,1.91,13.38,4.23-4.36-1.36-9.16-2.9-13.38-4.23h0Z"/>
      <path d="M105.88,96.11c5.03.04,10.3.54,14.97,2.44-2.16-.32-5.27-1.06-7.45-1.5-2.43-.5-5.19-.72-7.52-.94h0Z"/>
      <path d="M122.88,76.61c-1.15,3.07,0,6.32.47,9.37-1.52-2.69-1.8-6.71-.47-9.37h0Z"/>
      <path d="M121.3,87.11c.58,2.36,1.47,4.69,2.43,6.92-.96-.61-1.44-2.14-1.74-3.27-.27-1.16-.7-2.59-.69-3.65h0Z"/>
      <path d="M146.51,145.12c.03-.42.1-2.05.33-2.14-1.57.47-3.3.22-4.73-.55-2.61-1.29-4.59-5.04-6.37-7.23-.84-1.32-2.24-2.62-2.09-4.32.12-1.63.83-3.21,1.93-4.42,1.12-1.2,2.52-2.02,3.65-3.2,1.15-1.13,2.47-2.28,4.13-2.51,1.61-.24,3.27-.31,4.87.2l-.18.14c-.29-3.45,1.36-6.81,4.19-8.75,2.63-2.1,4.81-4.66,7.69-6.47.38-.17.72-.45,1.26-.44.55.1.8.51,1.09.81.54.64,1.04,1.32,1.6,1.92,1.12,1.21,2.58,2.06,3.79,3.27,1.25,1.21,1.87,2.89,2.27,4.51.37,1.65.43,3.41-.07,5.07,0,0-.37-.21-.37-.21,2.39-2.46,6-1.48,8.6-.03,1.81.87,3.66,1.69,5.28,2.92,1.24.94,2.13,2.2,2.88,3.55.25.47.36,1.06.3,1.58-.46,3.02-1.38,5.94-3.01,8.53-1.03,1.81-2.95,2.96-4.98,3.32-4.01,1.06-8.1-.12-11.69-1.96,0,0,.21-.25.21-.25,1.01,1.39,1.95,2.82,2.71,4.36,1.62,3.08.88,7.01-.99,9.82-1.06,1.35-2.35,2.48-3.62,3.61-.02.02-.06-.02-.03-.04,1.24-1.16,2.52-2.31,3.54-3.66,1.76-2.78,2.47-6.61.86-9.61-.77-1.5-1.71-2.93-2.72-4.28-.11-.14.06-.33.21-.25,4.32,2.25,9.7,3.27,14.14.78,2.35-1.75,3.45-4.79,4.27-7.52.24-.95.5-1.95.61-2.89.14-.94-.46-1.73-1.02-2.56-1.58-2.55-4.55-3.73-7.15-5.02-2.46-1.37-5.85-2.38-8.08-.11-.15.17-.43-.01-.36-.22.85-3.06.13-6.84-2.06-9.18-1.15-1.16-2.62-2.04-3.78-3.29-.86-.79-1.43-2.15-2.46-2.62-.31-.02-.71.22-1.07.4-2.79,1.74-5.06,4.34-7.65,6.4-2.79,1.89-4.39,5.12-4.13,8.48,0,.1-.09.17-.18.14-1.49-.48-3.17-.44-4.73-.21-1.61.21-2.87,1.32-4.02,2.43-1.12,1.16-2.56,2-3.66,3.17-1.08,1.18-1.78,2.71-1.91,4.3-.15,1.63,1.23,2.92,2.04,4.22,1.77,2.19,3.72,5.93,6.3,7.23,1.42.8,3.16.96,4.71.59-.21.69-.26,1.45-.3,2.18,0,.03-.05.03-.05,0h0Z"/>
      <path d="M162.14,158.61c-1.34,1.05-2.79,1.94-4.44,2.46-.22.05-.45.1-.74.02-1.32-.79-2.18-2.07-3.06-3.3.64.31,1.3,1.15,1.91,1.66.27.23,1.01,1.08,1.3,1.22.95.13,1.92-.49,2.81-.87.74-.38,1.53-.71,2.19-1.23.03-.02.06.02.03.04h0Z"/>
      <path d="M169.69,120.97c-2.21,3.17-5.1,7.77-7.52,10.71.7-1.9,2.26-3.81,3.52-5.53,1.31-1.68,2.67-3.71,4.01-5.19h0Z"/>
      <path d="M146.82,142.94c1.29-2.05,3.39-3.41,5.29-4.85,1.95-1.34,4.1-2.87,6.51-3.07-2.22.85-4.24,2.17-6.28,3.4-1.95,1.28-4.14,2.79-5.52,4.52h0Z"/>
      <path d="M166.95,138.6c-1.62-1.23-3.62-2.17-4.82-3.83,1.82.83,3.48,2.54,4.82,3.83h0Z"/>
      <path d="M148.21,121.07c3.03,3.78,6.55,7.14,10.15,10.33-4.2-2.3-7.46-6.62-10.15-10.33h0Z"/>
      <path d="M103.11,172.53c-.1,2.74-4.01,2.79-4.16,0,.02-2.91,4.18-2.93,4.16,0h0ZM103.06,172.53c-.08-2.26-3.63-2.27-3.71,0-.01,2.43,3.68,2.44,3.71,0h0Z"/>
      <path d="M159.81,108.16c-.16,7.48.11,15.38.35,22.83-1.3-7.43-.72-15.46-.35-22.83h0Z"/>
      <path d="M166.15,113.51c0,6.21-.64,12.84-4.89,17.71-.02.02-.06,0-.04-.03,1.47-2.71,3-5.45,3.75-8.44.73-2.97.87-6.34,1.19-9.24h0Z"/>
      <path d="M161.85,115.26c.04,2.64.05,5.27.02,7.91-.08,2.55.14,5.59-1.02,7.82.49-2.21.43-5.55.62-7.84.05,0,.25-8.06.38-7.9h0Z"/>
      <path d="M153.93,118.58c.29,2.32,1.36,4.33,2.33,6.43.96,2.09,1.58,4.34,2.88,6.22-1.83-1.47-2.43-3.97-3.25-6.07-.82-2.04-2-4.45-1.96-6.58h0Z"/>
      <path d="M162.36,132.49c4.8-5.38,10.49-8.1,17.77-7.3.03,0,.03.05,0,.05-3.28.25-6.61.5-9.71,1.6-3.05,1.18-5.75,3.6-8.06,5.66h0Z"/>
      <path d="M162.44,132.95c4.53-.91,9.17-1.58,13.77-1.84,2.74-.42,5.37-1.44,7.96-2.34-3.21,1.86-6.93,3.09-10.7,2.93-3.65.15-7.56.87-11.04,1.25h0Z"/>
      <path d="M172.67,134.84c-3.3-1.16-6.84-1.08-10.22-1.57,3.35-.58,7.27.27,10.22,1.57h0Z"/>
      <path d="M173.53,137.95c-3.76-1.01-8.07-1.48-11.16-3.97,3.51,1.53,7.65,2.8,11.16,3.97h0Z"/>
      <path d="M159.25,135.47c-2.29,2.69-4.23,5.72-6.64,8.27,1.53-3.13,4.34-5.89,6.64-8.27h0Z"/>
      <path d="M159.85,135.54c-1.94,3.94-4.07,7.94-4.96,12.27-.38,2.62-.46,5.27-.36,7.93,0,.03-.04.04-.05,0-.49-2.64-.53-5.37-.08-8.02,1.07-4.28,3.29-8.54,5.45-12.18h0Z"/>
      <path d="M160.46,135.6c.71,5.63,1.16,11.72-1.07,17.07-.75,1.75-1.37,3.55-2.07,5.34,0,.03-.06.02-.05-.01.7-3.77,2.73-7.13,3.09-10.98.63-3.76.34-7.79.09-11.42h0Z"/>
      <path d="M161.62,135.13c4.1,3.76,4.28,10.41,3.64,15.58,0,.03-.05.03-.05,0-.28-5.26.3-11.6-3.59-15.58h0Z"/>
      <path d="M160.76,135.56c1.01,3.26,2.66,6.82,2.48,10.17-.87-3.29-1.73-7-2.48-10.17h0Z"/>
      <path d="M162.43,152.3c-.21,1.44-.04,3.24-1.06,4.36,0-1.51.7-2.89,1.01-4.36,0-.03.05-.03.05,0h0Z"/>
      <path d="M150.41,142.19c-.65,1.45-.65,3.13-1.39,4.5-.33-1.35.67-3.52,1.39-4.5h0Z"/>
      <path d="M138.82,134.81c5.58,5.31,12.84-.15,19.24-.31.03,0,.04.05,0,.05-6.09,1.18-14.38,5.7-19.25.26h0Z"/>
      <path d="M138.09,129.4c3.39,0,6.83.21,10.06,1.34,3.17,1.19,6.42,2.04,9.66,3,.03,0,.02.05,0,.05-3.37-.43-6.69-1.32-9.8-2.67-3.09-1.24-6.77-1.45-9.92-1.71h0Z"/>
      <path d="M148.45,127.91c3.18,1.42,6.92,2.5,9.26,5.18-2.91-1.81-6.34-3.64-9.26-5.18h0Z"/>
      <path d="M140.82,124.96c1.53.27,3.42.27,4.56,1.41-1.05-.07-3.41-.99-4.56-1.41h0Z"/>
      <path d="M89.36,155.7c-1.39.68-2.78,1.7-3.92,2.62-.47,1.44-.7,3.08-.15,4.53.52,1.46,1.56,2.88,2.09,4.24-3.79,2.2-8.24,4.63-9.47,9.14-2.11,5.81,1.34,5.6,5.88,6.14,3.53,1.15,7.17,3.82,10.12-.04.06-.09.19-.1.27-.04.06.05.09.13.07.2-.31,1.96-.83,4.45.43,6.14,2.13,2.37,4.71,4.5,7.48,6.08.88.42,1.9,1.1,2.86.78.9-.36,1.45-1.38,2.12-2.22l1.97-2.62c1.58-2.51,2.02-5.93.78-8.8-.34-.97-.71-2.02-1.31-2.76-.12-.13.04-.34.19-.27,6.88,2.21,8.59-2.04,10-7.68-1.1,6.05-3.23,10.14-10.12,8.01,0,0,.18-.3.18-.3.75.9,1.06,1.88,1.44,2.88,1.29,2.99.99,6.5-.77,9.25,0,0-1.95,2.59-1.95,2.59-.68.81-1.19,1.89-2.35,2.39-2.92.76-8.96-4.89-10.86-7.05-1.38-1.9-.81-4.37-.47-6.5,0,0,.34.16.34.16-2.05,2.9-5.66,2.4-8.41.91-1.36-.72-2.78-1.01-4.31-1.04-1.49-.2-3.28-.36-4.15-1.78-.73-1.46-.13-3.09.33-4.52.47-1.44,1.12-2.89,2.23-3.96,2.14-2.18,4.75-3.8,7.41-5.24l-.03.11c-.78-1.35-1.51-2.72-2.1-4.17-.54-1.49-.3-3.14.19-4.61,1.19-.96,2.69-2.11,4-2.59h0Z"/>
      <path d="M113.01,162.27c-.66-.41-1.43-.43-2.18-.53-1.46-.14-3.06-.3-4.36.47-.63.37-1.14.91-1.61,1.49-.14.19-.47.05-.43-.19.07-.42.03-.91-.04-1.36-.21-1.43-1.12-2.61-2.04-3.64,1.68.98,2.93,3.07,2.56,5.09,0,0-.42-.21-.42-.21,1.52-2.03,4.04-2.34,6.37-1.82.74.13,1.54.21,2.19.65.03.02,0,.06-.03.04h0Z"/>
      <path d="M104.69,163.55c-.49,2.66-.81,5.39-1.85,7.9,0,0-.23-.19-.23-.19,2.57-1.87,5.69-3.73,8.99-3.3,1.88.49,3.84,1.02,5.33,2.31-.96-.56-2.36-1.06-3.56-1.38-3.72-1.37-7.51.46-10.56,2.62-.07.05-.16.04-.22-.03.93-2.45,1.51-5.47,2.11-7.92h0Z"/>
      <path d="M94.04,182.44c1.45-2.93,2.87-6.71,6.04-8.07-2.53,2.2-4.42,5.32-6.04,8.07h0Z"/>
      <path d="M108.72,179c-2.09-1.42-4.9-2.73-6.07-4.95.92.7,2.18,1.7,3.02,2.47.93.85,2.24,1.68,3.05,2.47h0Z"/>
      <path d="M115.46,173.8c-4.12-.43-8.33-.65-12.4-1.28,4.09-.42,8.5.66,12.4,1.28h0Z"/>
      <path d="M81.43,178.44c5.03-3.73,11.42-5.99,17.73-5.55.03,0,.03.05,0,.05-6.2.46-12.64,2.05-17.73,5.5h0Z"/>
      <path d="M87.34,177.3c3.82-1.6,7.8-3.81,12.02-3.73-4.03.95-8.24,2.38-12.02,3.73h0Z"/>
      <path d="M101.68,174.4c0,4.01-.21,8.15.78,12.06.74,2.26,2.37,4.4,2.44,6.85,0,.03-.05.03-.05,0-.08-.81-.46-1.53-.81-2.25-.65-1.32-1.63-3.04-2.06-4.44-.81-3.95-.62-8.36-.3-12.2h0Z"/>
      <path d="M102.1,174.28c.39,1.97.87,3.95,1.84,5.73.88,1.81,1.72,3.9,1.48,5.92-.72-3.93-3.23-7.73-3.31-11.65h0Z"/>
      <path d="M100.48,174.48c-1.32,2.06-2.55,4.36-2.75,6.82-.03,2.41.19,5.02,1.38,7.16.02.02-.01.06-.04.03-1.69-1.92-1.96-4.77-1.74-7.23.32-2.47,1.67-5.02,3.15-6.79h0Z"/>
      <path d="M92.37,158.58c3.54,3.25,6.99,7.26,8.1,12.03-2.06-4.35-4.77-8.68-8.1-12.03h0Z"/>
      <path d="M93.15,164.6c2.35,2.01,4.67,4.06,6.53,6.56.06.08.04.19-.04.24-.05.04-.12.04-.18.02-.94-.46-1.97-.81-2.99-1.16-2.97-.99-6.22-2.07-9.12-3.21,3,.55,6.29,1.7,9.27,2.79,1.01.39,2.01.76,3,1.27l-.23.25c-1.69-2.51-4.23-4.72-6.24-6.76h0Z"/>
      <path d="M94.46,157.98c3.69,3.18,6.83,7.49,6.68,12.57,0,.03-.05.03-.05,0-.58-2.31-1.05-4.74-2.18-6.85-1.13-2.1-2.98-4.05-4.45-5.72h0Z"/>
      <path d="M99.65,158.41c.59,1.05,1.22,2.11,1.65,3.24.08.39.25.87.11,1.26-.25-.34-.39-.73-.58-1.08-.29-.75-.92-2.62-1.22-3.4-.01-.03.03-.05.05-.02h0Z"/>
      <path d="M84.49,171.83c1.96-.77,4.49-1.7,6.46-.61-2.15-.06-4.49.09-6.46.61h0Z"/>
      <path d="M134.44,160.26c.36,2.29,1.43,4.34,2.72,6.2-2.07-1.06-2.7-4.21-2.72-6.2h0Z"/>
      <path d="M147.77,164.58c-2.53,1.56-5.45,3.63-8.41,3.7,2.9-1.15,5.74-2.33,8.41-3.7h0Z"/>
      <path d="M137.72,170.96c1.2,3.24,2.83,6.94,2.44,10.35-.28-1.29-.81-3.9-1.06-5.2-.34-1.7-1.02-3.59-1.37-5.15h0Z"/>
      <path d="M125.47,172c2.64-1.89,6.12-3.43,9.39-2.76-3.23.38-6.67,1.11-9.39,2.76h0Z"/>
      <path d="M143.3,147.16c-1.32,3.06-2.49,6.26-2.86,9.59-.42,3.34-1.16,6.71-2.32,9.84.52-3.3,1.39-6.59,1.93-9.9.48-3.28,1.74-6.76,3.25-9.53h0Z"/>
      <path d="M147.02,157.46c-1.37,2.27-2.94,4.52-4.94,6.3-1.1,1.09-2.21,2.43-3.29,3.5.95-1.91,2.5-3.57,4.16-4.9,1.54-1.4,2.84-3.42,4.07-4.91h0Z"/>
      <path d="M138.65,152.86c-.51,2.2-.95,4.47-.96,6.73.15,2.24.32,4.65-.09,6.86-.47-4.46-.57-9.48,1.04-13.59h0Z"/>
      <path d="M147.11,155.82c.51-1.27.53-2.71,1.18-3.89.25.68.05,1.43-.24,2.06-.27.58-.55,1.47-.94,1.83h0Z"/>
      <path d="M139.46,168.72c3.89.7,8.13.82,11.66,2.65-3.83-.83-7.97-1.77-11.66-2.65h0Z"/>
      <path d="M139.44,169.5c5.07,1.21,9.72,3.66,13.76,6.94,1.34,1.07,2.69,2.25,3.56,3.76.02.02-.02.05-.04.03-1.09-1.34-2.43-2.39-3.82-3.39l-4.13-3.07c-2.77-1.95-6.29-3.17-9.32-4.27h0Z"/>
      <path d="M139.19,170c1.7,2.64,3.55,5.29,5.92,7.36,2.48,1.93,5.41,3.22,8.23,4.61.03.01.01.06-.02.05-3.05-.92-6.05-2.24-8.48-4.36-2.28-2.16-4.29-5.02-5.65-7.67h0Z"/>
      <path d="M140.05,173.36c1.5,1.95,3.29,4.17,3.4,6.71-1.1-2.21-2.14-4.72-3.4-6.71h0Z"/>
      <path d="M136.7,170.99c.04,2.48-.04,4.97-.29,7.44-.26,2.44-.58,5.14-2.03,7.17,1.62-4.63,1.95-9.88,2.32-14.61h0Z"/>
      <path d="M126.5,188.95c.02-7.06,3.47-14.38,9.67-18.03.03-.02.05.02.03.04-5.57,4.33-9.39,11.03-9.7,17.99h0Z"/>
      <path d="M123.3,180.85c2.62-3.82,6.21-8.33,11.16-8.67-4.64,1.36-8.37,5.04-11.16,8.67h0Z"/>
      <path d="M116.72,158.9c2.89,1.95,6.28,2.57,9.57,3.45,3.22,1.18,6.28,2.96,8.92,5.1-3-1.57-5.91-3.43-9.06-4.72-1.57-.65-3.32-.77-4.9-1.43-1.53-.63-3.36-1.43-4.53-2.4h0Z"/>
      <path d="M126.1,158.2c3.88,1.99,7.42,5,9.5,8.85-1.56-1.5-2.89-3.29-4.36-4.87-1.48-1.54-3.54-2.82-5.14-3.98h0Z"/>
      <path d="M119.45,167.3c2.5.59,5.1.84,7.67.72,2.56-.19,5.34-.2,7.75.74-5.04-.73-10.68.28-15.42-1.46h0Z"/>
      <path d="M175.43,166.52c-3.21-2.26-7.15-4.31-9.46-7.41,3.1,2.39,6.51,5.08,9.46,7.41h0Z"/>
      <path d="M159.84,169.76c.36-3.41.79-7.45,3.37-9.93-1.7,3.05-2.8,6.63-3.37,9.93h0Z"/>
      <path d="M165.92,157.16c4.14-3.89,10.63-4.43,15.84-2.62-.18.13-1.58-.21-2.08-.24-4.71-.66-10.09-.25-13.76,2.86h0Z"/>
      <path d="M166.26,157.81c5.91.44,12.18.54,18.08.84-5.92.75-12.31-.2-18.08-.84h0Z"/>
      <path d="M166.25,157.36c2.54-.83,5.57-.94,8.06.03-2.64.06-5.55-.64-8.06-.03h0Z"/>
      <path d="M164.22,160.04c.73,2.22,1.57,4.53,3.07,6.33,1.53,1.85,2.66,4.16,2.97,6.52-.94-2.14-1.89-4.37-3.28-6.26-1.41-1.89-2.36-4.44-2.76-6.59h0Z"/>
      <path d="M165.43,159.61c1.51,1.89,2.93,3.85,4.23,5.9,1.27,2.02,2.69,4.26,2.86,6.67-1.69-4.46-4.58-8.69-7.09-12.57h0Z"/>
      <path d="M163.78,160.08c-.36,2.52-.14,5.06.39,7.51-.86-1-1-2.45-.94-3.72.07-1.23.15-2.78.56-3.79h0Z"/>
      <path d="M157.77,166.39c.48-1.36,1.07-2.68,1.8-3.94.69-1.22,1.68-2.68,3.12-2.97-2.21,1.78-3.65,4.58-4.92,6.91h0Z"/>
      <path d="M184.35,150.9c.44-1.68.82-3.55,2.15-4.78,0,0,.21.33.21.33-1.64.94-3.5,1.83-5.44,1.57-.03,0-.03-.05,0-.05,1.85-.32,3.56-1.09,5.26-1.87.21-.11.39.21.2.33-1.32,1.05-1.76,3.12-2.37,4.46h0Z"/>
      <path d="M186.37,129.18c2.98-.35,6.31-.49,8.81-2.3,1.44-1.64,1.29-4.2.35-6.06-.78-1.55-2.11-2.75-3.54-3.71-.16-.1-.14-.35.02-.43,3.07-1.66,5.68-4.51,7.1-7.53-1.09,3.45-3.73,6.24-6.87,7.98,0,0,.02-.43.02-.43,3.35,1.98,6.02,6.98,3.11,10.38-2.49,1.75-6.18,1.99-8.99,2.1h0Z"/>
      <path d="M204.99,122.91c-.72.24-1.64.47-2.07,1.13-.02.05-.07.07-.12.05-.37-1.78-.34-3.82-1.28-5.45-.17-.19-.24-.27-.54-.33-2.16-.73-4.07.48-5.92,1.41.8-.69,1.7-1.39,2.75-1.81,1.19-.48,2.6-.44,3.73.14.17.09.22.24.33.35.86,1.73.91,3.72,1.06,5.6,0,0-.17-.02-.17-.02.49-.74,1.43-.9,2.22-1.12.03,0,.04.04.01.05h0Z"/>
      <path d="M173.61,145.66c.84-2.33,2.86-4.51,5.23-5.24-1.82,1.62-4.21,3.05-5.23,5.24h0Z"/>
      <path d="M202.86,124.01c-.48,5.72-2.14,12-6.71,15.82-.02.02-.05-.01-.03-.04,3.84-4.38,6.01-10.2,6.74-15.78h0Z"/>
      <path d="M208.22,141.47c-3.7-1.25-7.62-.53-11.34.06,3.4-1.65,8.03-1.48,11.34-.06h0Z"/>
      <path d="M199.43,157.48c-3.11-3.95-5.66-9.03-5.27-14.17.65,5.01,2.38,10.14,5.27,14.17h0Z"/>
      <path d="M186.59,146.26c1.64-1.85,3.77-3.88,6.32-4.12-2.17,1.21-4.57,2.49-6.32,4.12h0Z"/>
      <path d="M193.66,140.05c-3.64-2.23-5.73-6.76-5.92-10.91.22.48.33,1.04.48,1.54,1,3.46,2.47,7.3,5.43,9.37h0Z"/>
      <path d="M183.77,91.6c.32,2.52,1.15,5.51-.29,7.83-2.56,3.59-5.36,7-8.46,10.14.81-1.37,2.17-2.83,3.2-4.2,1.1-1.37,2.26-2.69,3.38-4.05,1.06-1.39,2.44-2.64,2.4-4.47.19-1.7-.15-3.68-.23-5.25h0Z"/>
      <path d="M171.8,109.82c-1.65-3.1-3.48-6.1-5.4-9.04-.98-1.44-1.94-3-2.39-4.75-.43-1.74-.42-3.66.48-5.31l.22.31c-.7.15-1.42.32-2.11.54-.7.22-1.41.51-1.98.93.98-1.09,2.61-1.46,3.99-1.88.18-.05.32.16.22.31-1.49,3.21-.06,6.88,1.84,9.65,1.8,2.96,3.77,6.19,5.1,9.23h0Z"/>
      <path d="M183.66,98.83c2.94-.26,6.35-.6,8.95,1.01-2.91-.61-6.09-1.04-8.95-1.01h0Z"/>
      <path d="M172.53,112.75c-1.4,2.12-1.39,4.65-1.11,7.04-1.38-2.12-.38-5.41,1.11-7.04h0Z"/>
      <path d="M70.18,174.47c2.5-1.57,4.29-3.94,6.29-6.01-1.1,2.66-3.9,4.81-6.29,6.01h0Z"/>
      <path d="M115.53,178.27c1.62.92,3.94,2.08,4.32,3.98-.62-.61-1.46-1.47-2.05-2.08-.65-.68-1.69-1.32-2.27-1.89h0Z"/>
      <path d="M73.89,123.59c2.7.51,5.72,1.17,7.6,3.34,0,0-.23.05-.23.05.33-1.17.9-2.9,2.43-2.83,1.4.27,2.11,1.56,2.87,2.6,0,0-.19-.1-.19-.1,1.32-.05,2.64.16,3.83.74,3.23,1.44,3.91,5.34,3.3,8.48,0,0-.43,1.87-.43,1.87,0,.01-.02.02-.03.02-.05,0,.24-1.9.24-1.92.62-4.85-1.62-8.87-6.89-8.78-.08,0-.14-.04-.18-.1-.65-.95-1.38-2.24-2.56-2.49-1.25-.09-1.83,1.55-2.13,2.56-.02.11-.17.13-.23.05-1.74-2.18-4.97-2.83-7.39-3.49h0Z"/>
      <path d="M71,122.16c3.23.77,6.69-.27,9.26-2.29.11-.08.27-.06.36.06.44,1.74.72,3.55,1.45,5.22-.55-.5-.92-1.62-1.22-2.41-.29-.86-.53-1.72-.68-2.62l.4.16c-2.65,1.91-6.56,2.99-9.56,1.88h0Z"/>
      <path d="M85.27,125.02c2.55-.05,4.89-1.08,7.27-1.74-1.89,1.62-5.02,1.95-7.27,1.74h0Z"/>
      <path d="M103.45,84.28c1.88,1.47,4.2,2.98,5.04,5.29-1.68-1.7-3.4-3.73-5.04-5.29h0Z"/>
      <path d="M77.45,107.25c1.87,1.14,4.02,1.57,6.01,2.35-2.11.29-4.53-1.16-6.01-2.35h0Z"/>
      <path d="M92.99,106.03c-6.12.28-10.94,3.99-12.04,10.11,0,0-.25,1.29-.25,1.29l-.26,2.64c-.17-.69-.08-1.83-.09-2.68.07-.45.2-1.57.27-2.01.08-.44.44-1.5.57-1.95,1.78-4.69,7.06-7.65,11.81-7.41h0Z"/>
      <path d="M94.84,107.4c-1.25,2.94-.28,6.3,2.08,8.34.2.24,1.07.84.97.94-3.64-1.43-4.88-6.17-3.06-9.27h0Z"/>
      <path d="M96.13,104c2.27-1.97,5.35-3.48,8.44-2.81,2.73.8,6.14,3,6.37,6.07,0,.03-.05.03-.05,0-.27-1.48-1.44-2.59-2.57-3.5-1.19-.87-2.43-1.78-3.84-2.17-2.95-.8-6.11.82-8.34,2.43h0Z"/>
      <path d="M189.19,180.34c-2.1-4.68-5.83-8.37-9.89-11.35,4.64,2.04,8.18,6.84,9.89,11.35h0Z"/>
      <path d="M193.4,142.86c-1.39,3.06-1.26,6.53-1.03,9.82.25,3.34.42,6.67.32,10.02,0,.03-.05.03-.05,0-.43-3.32-.59-6.66-.67-10.01-.12-3.22-.18-7.09,1.43-9.83h0Z"/>
      <path d="M195.5,143.57c2.76,3.93,6.14,7.65,10.46,9.83-2.43-.44-4.46-2.21-6.1-3.98-1.6-1.77-3.33-3.87-4.36-5.85h0Z"/>
      <path d="M196.55,142.93c6.08,1.98,13.19,4.66,16.05,10.84.01.03-.03.05-.05.02-3.58-5.6-10.12-8.65-16-10.86h0Z"/>
      <path d="M198.27,137.38c4.19-3.51,9.38-6.65,14.95-6.88-5.35,1.26-10.68,3.59-14.95,6.88h0Z"/>
      <path d="M208.5,125.04c-2.22,3.06-4.97,7.71-7.58,10.36.98-1.9,2.31-3.62,3.63-5.31.01.05,3.96-5.28,3.96-5.05h0Z"/>
      <path d="M196.83,129.01c.11,3.49.37,7.35-1.22,10.54.59-3.44,1.12-7.17,1.22-10.54h0Z"/>
      <path d="M194.36,139.59c-.75-3.69-1.97-7.38-2.13-11.14,1.18,3.52,1.63,7.6,2.13,11.14h0Z"/>
      <path d="M190.13,140.17c-3.59,2.36-7.84,4.58-12.23,4.36,4.23-.81,8.6-2.23,12.23-4.36h0Z"/>
      <path d="M188.56,138.23c-2.06-.24-4.15.21-6.17-.03,1.84-.8,4.4-.42,6.17.03h0Z"/>
      <path d="M194.55,117.09c3.63-1.7,7.74-3.75,11.83-3.04-4.04.35-8.19,1.59-11.83,3.04h0Z"/>
      <path d="M174.3,112.89c4.91,4.65,10.26,8.99,16.24,12.15-3.27-.94-6.15-3.07-8.78-5.2-2.57-2.14-5.35-4.54-7.47-6.95h0Z"/>
      <path d="M175.42,110.29c3.36-1.55,6.82-2.94,10.48-3.6,3.68-.41,7.22-1.27,10.74-2.4.03-.01.05.03.02.05-3.33,1.63-7.02,2.51-10.7,2.74-3.6.49-7.28,2-10.54,3.2h0Z"/>
      <path d="M178.27,109.29c1.51-1.85,3.13-4.13,5.5-4.82-1.81,1.57-3.9,3.2-5.5,4.82h0Z"/>
      <path d="M176.95,111.93c1.41-.88,3.28-2,4.96-1.4-1.86.51-3.19.66-4.96,1.4h0Z"/>
      <path d="M183.07,111.08c2.36-.04,5.66-.66,8-1.11-.94.82-2.62,1.03-3.92,1.13-1.31.06-2.93.21-4.08-.01h0Z"/>
      <path d="M180.91,83.49c-3.72,3.09-2.92,8.31-3.41,12.63-.56,4.52-2.69,8.64-3.94,12.99,0,.03-.06.02-.05-.01.72-4.46,2.88-8.59,3.59-13.02.55-4.2-.03-9.93,3.8-12.58h0Z"/>
      <path d="M170.62,89.53c-2.88,6.43.84,13.28,1.96,19.71,0,.03-.04.04-.05.02-1.25-3.16-2.17-6.43-2.78-9.77-.66-3.21-.85-7.19.87-9.95h0Z"/>
      <path d="M161.31,98.98c1.14,2.05,2.56,4.08,4.52,5.4,2.13,1.09,4,3.06,4.76,5.33-1.37-1.95-2.9-3.76-4.98-5-1.91-1.41-3.5-3.68-4.3-5.73h0Z"/>
      <path d="M167.82,75.85c-3.29.77-4.8,4.21-6.78,6.57.74-2.35,2.46-4.37,4.49-5.75.7-.43,1.46-.8,2.29-.87.03,0,.03.05,0,.05h0Z"/>
      <path d="M169.88,79.14c-2.24.77-4.46,1.82-6.24,3.38-1.45,1.19-1.9,2.88-2.36,4.58-.09.28-.33,1.02-.44,1.28-.04.09-.11.28-.16.37,0,0-.02.07-.07,0,0-.05.04-.08.05-.03,0,0,0,.02,0,.02-.04-.04-.04,0-.04-.02.02-.09.06-.29.08-.38.04-.28.19-1.04.24-1.33,0,0,.36-1.76.36-1.76.26-1.27,1.15-2.26,2.08-3.03,1.87-1.48,4.35-2.65,6.5-3.08h0Z"/>
      <path d="M168.02,84.17c-2.19.48-3.83,1.94-5.05,3.72.2-2.31,3.13-3.65,5.05-3.72h0Z"/>
      <path d="M143.8,71.91c.26,3.62.93,7.6-.48,11.03.39-3.61.52-7.52.48-11.03h0Z"/>
      <path d="M139.5,72.28c-.02,2.61.29,5.23.24,7.8-.61-1.18-.57-2.6-.53-3.9.08-1.25.03-2.81.29-3.9h0Z"/>
      <path d="M110.84,77.74c.3,4.1,2.04,8.05,5.05,10.85-3.75-1.93-5.09-7.07-5.05-10.85h0Z"/>
      <path d="M109.34,81.16c.35,3,1.94,5.6,4.05,7.64-2.82-1.15-4.06-4.96-4.05-7.64h0Z"/>
      <path d="M95.75,103.39c.1-1.09.37-3.26.54-4.33.84-4.2,1.69-8.94,5.03-11.93.02-.02.05.02.03.04-2.64,3.44-3.88,7.76-4.82,11.94,0,0-.4,2.14-.4,2.14l-.33,2.15s-.05.03-.05,0h0Z"/>
      <path d="M96.01,85.59c-1.27,2.72-2.22,5.75-2.03,8.77.47,3.01,1.12,6.02,1.07,9.1,0,.3-.48.31-.47,0-.08-2.03-.49-4.03-1.26-5.91-.77-1.89-1.95-3.64-3.35-5.1,1.65,1.21,2.89,3.05,3.76,4.92.88,1.9,1.28,4,1.32,6.07,0,0-.47,0-.47,0,.13-3.05-.48-6.05-.88-9.07-.11-3.01.9-6.33,2.31-8.79h0Z"/>
      <path d="M77.55,96.33c7.25-1.25,11.14,2.88,15.68,7.72.02.02,0,.06-.03.04-2.45-1.77-4.58-4.08-6.95-5.89-2.49-1.72-5.89-2.05-8.7-1.86h0Z"/>
      <path d="M81.11,101.06c3.62,2.15,7.6,3.77,11.76,4.37-2.11.37-4.32-.36-6.24-1.22-1.88-.87-4.03-1.93-5.52-3.14h0Z"/>
      <path d="M107.28,113.29c-2.45-3.72-6.03-6.94-10.49-7.84-.03,0-.03-.05,0-.05,4.68-.08,8.5,4.24,10.49,7.89h0Z"/>
      <path d="M101.07,112.11c-1.57-1.8-3.91-3.58-4.52-5.85.72.82,1.7,1.99,2.3,2.88,0,0,2.26,2.93,2.26,2.93.02.02-.02.06-.04.03h0Z"/>
      <path d="M85.56,120.51c1.7-4.9,3.92-10.37,8.43-13.26-3.79,3.66-6.54,8.52-8.43,13.26h0Z"/>
      <path d="M90.5,120.48c1.92-3.17,2.64-6.84,3.62-10.33.09,3.62-1.63,7.54-3.62,10.33h0Z"/>
      <path d="M72.9,113.78c2.52-1.04,5.87-1.72,8.26-.1-2.71-.61-5.7-.69-8.26.1h0Z"/>
      <path d="M73.71,117.75c1.59-2.19,4.76-3.37,7.37-2.76-2.6.45-5.57.75-7.37,2.76h0Z"/>
      <path d="M81.41,127.01c-.91,4.82-.54,9.92,1.48,14.39-3.01-3.96-2.6-9.95-1.48-14.39h0Z"/>
      <path d="M86.41,126.87c-.87,3.88-1.03,7.87-1.12,11.8-.98-3.81.08-8.24,1.12-11.8h0Z"/>
      <path d="M88.91,130.97c.09,4.05-.96,8.59-3.88,11.53,2.03-3.51,3.74-7.55,3.88-11.53h0Z"/>
      <path d="M65.91,135.51c3.04,3.94,8.07,5.49,12.65,6.85.68.17,1.35.36,2.03.56.03,0,.02.05,0,.05-5.41-.57-11.61-2.95-14.67-7.47h0Z"/>
      <path d="M69.36,157.48c2.11-5.28,6.06-10.69,11.9-11.99.03,0,.04.04.01.05-5.43,2.12-9.58,6.85-11.92,11.94h0Z"/>
      <path d="M56.38,145.23c2.53,3.9,7.93,1.45,11.6.93,4.11-.82,8.27-1.42,12.46-1.66-1.85.5-4.18.71-6.19,1.1,0,0-6.2.95-6.2.95-3.6.48-9.61,2.72-11.67-1.32h0Z"/>
      <path d="M66.39,141.16c2.76-.11,5.75-.54,8.39.39-2.74.11-5.77-.28-8.39-.39h0Z"/>
      <path d="M83.98,145.78c.88,5.12,1.29,11-1.39,15.64,1.68-4.99,2.03-10.56,1.39-15.64h0Z"/>
      <path d="M82.46,146.14c-3.11,5.86-6.35,11.81-8.23,18.17.17-3.35,1.85-6.48,3.31-9.45,1.53-2.91,3.17-6.12,4.92-8.72h0Z"/>
      <path d="M60.8,139.47c1.16.06,2.82-.19,3.55.87-.64-.04-1.19-.19-1.78-.4-.58-.16-1.18-.3-1.78-.42-.03,0-.03-.05,0-.05h0Z"/>
      <path d="M112.34,181.62c-.1,2.26.66,4.49,1.39,6.6.88,2.04,1.67,4.25,3.36,5.76.03.01,0,.06-.02.04-2.09-1.11-3-3.56-3.71-5.67-.61-2.11-1.42-4.68-1.01-6.74h0Z"/>
      <path d="M114.55,182.67c2.82,1.98,4.51,5.73,4.24,9.13-.77-3.25-1.61-6.98-4.24-9.13h0Z"/>
      <path d="M92.46,185.3c-.52,2.73-.96,6.21-3.41,7.88,1.64-2.34,2.67-5.28,3.41-7.88h0Z"/>
      <path d="M88.2,186.01c-.88,1.77-1.01,3.69-1.1,5.6-1-1.67.13-4.3,1.1-5.6h0Z"/>
      <path d="M70.6,163.15c-2.39,2.32-4.01,5.22-5.36,8.2.3-3.28,3.02-6.29,5.36-8.2h0Z"/>
      <path d="M76.57,170.06c-1.86,3.56-3.45,7.33-4.22,11.25-.31-2.02.51-4.1,1.33-5.92.84-1.79,1.8-3.86,2.89-5.33h0Z"/>
      <path d="M69.57,159.85c-2.5.71-4.66,2.16-6.44,3.99.87-2.49,4.18-3.66,6.44-3.99h0Z"/>
      <path d="M62,153.06c4.42-.83,8.32-3.15,12.28-5.07-3.36,2.81-8.1,4.54-12.28,5.07h0Z"/>
      <path d="M66.68,127.34c1.19,3.14,3.01,6.36,5.94,8.14,3.08,1.51,6.13,3.27,8.77,5.5.02.02,0,.06-.03.04-2.97-1.8-5.91-3.5-8.95-5.2-2.91-1.88-4.87-5.37-5.73-8.48h0Z"/>
      <path d="M70.19,126.27c.91,2.77,2.21,5.42,3.95,7.72-1.34-.68-2.12-2.17-2.66-3.51-.52-1.32-1.16-2.94-1.29-4.21h0Z"/>
      <path d="M76.44,129.08c1.5,2.18,3.44,4.21,4.41,6.67-1.82-1.87-3.2-4.52-4.41-6.67h0Z"/>
      <path d="M185.99,98.68c1.54-1.3,3.07-3.13,5.13-3.47-1.58,1.25-3.55,2.42-5.13,3.47h0Z"/>
      <path d="M184.21,96.65c.49-.9,1.38-2.3,2.56-2.02-.42.41-.84.64-1.32.94-.43.31-.84.68-1.19,1.1-.02.02-.06,0-.04-.03h0Z"/>
      <path d="M179.73,38.28c1.83,3.09,3.72,6.58,3.72,10.27-.61,3.66-3.09,6.7-4.12,10.23-.42,1.38-.77,2.9-.26,4.27.53,1.35,1.41,2.57,2.43,3.61,5.38,5.03,12.47,8.07,17.1,13.96,3.84,4.57,5.72,10.7,4.83,16.63,0,0-.35-.16-.35-.16,3.12-4.03,4.01-9.89.57-14-4.15-5.15-9.64-8.97-14.87-13.01-1.16-.9-2.32-1.92-3.21-3.09-2.04-2.16-3.47-5.11-3-8.15.56-4.33,2.3-8.64,1.54-13.04-.75-2.8-2.78-5.19-4.38-7.54h0ZM179.7,38.24c1.81,2.36,3.75,4.65,4.63,7.53.83,4.41-.88,8.8-1.4,13.13-.4,3,.95,5.68,2.99,7.82.9,1.18,1.99,2.08,3.17,2.99,5.2,4.03,10.78,7.89,14.95,13.1,3.54,4.31,2.63,10.38-.65,14.55-.12.16-.39.04-.35-.16.9-5.84-.91-11.85-4.68-16.37-4.6-5.88-11.67-8.94-17.01-14-1.03-1.07-1.92-2.3-2.46-3.7-.52-1.45-.14-3,.28-4.39,1.05-3.53,3.54-6.55,4.18-10.19.04-3.74-1.89-7.1-3.63-10.31h0Z"/>
      <path d="M218.78,91.46c3.14,2.79,1.74,7.75.49,11.18-1.42,3.62-2.28,7.75-.84,11.49,2,5.75,7.69,8.9,10.86,13.87,3.74,5.62,2.71,11.5-1.63,16.41-2.37,3.15-4.58,6.42-6.69,9.75-1.15,1.66-3.42,6.1-5.11,7.29-2.15,1.95-5.83,2-7.31,4.62-.74,1.74-.75,3.88.12,5.55l-.37.12c-.07-1.05.06-2.09.39-3.08.32-.99.91-1.92,1.72-2.59,1.7-1.23,3.7-1.6,5.21-3.09,1.72-1.46,3.19-3.22,4.5-5.07.14-.23.34-.47.54-.62,1.25-.91,2.56-1.66,3.82-2.54,3.28-2.28,6.6-4.92,7.91-8.8,1.55-3.7,2.36-7.78,1.84-11.77-.33-4.13-2.92-7.42-5.49-10.49-2.59-3.13-5.04-6.39-7.08-9.93-.99-1.75-1.94-3.72-1.71-5.83.2-1.84,1.2-4.1,1.75-5.85,1.86-4.8,1.06-7.35-2.92-10.62h0ZM218.82,91.49c4.1,3.09,4.87,5.89,3.1,10.66-1.59,4.64-2.83,6.9.02,11.45,2.05,3.49,4.52,6.72,7.12,9.82,2.61,3.08,5.33,6.5,5.66,10.69.53,4.1-.31,8.26-1.89,12.02-.74,1.9-1.84,3.72-3.33,5.15-2.55,2.68-5.87,4.39-8.79,6.57-1.39,1.99-2.93,3.88-4.8,5.45-1.45,1.45-3.63,1.95-5.22,3.08-1.53,1.25-2.09,3.39-1.99,5.32.02.11-.07.22-.18.23-1.26-1.45-1.03-4.32-.31-6.02,1.52-2.76,5.22-2.76,7.44-4.73,1.61-1.11,3.93-5.57,5.05-7.18,2.12-3.33,4.35-6.6,6.73-9.75,4.29-4.83,5.32-10.56,1.67-16.12-3.16-4.99-8.82-8.15-10.81-13.94-1.43-3.78-.55-7.94.89-11.58,1.28-3.44,2.59-8.2-.36-11.11h0Z"/>
      <path d="M200,181.81c4.88-3.7,10.27-7.12,16.42-8.06,3.07-.22,6.19.25,9.14-.65,3.03-.87,4.91-3.6,6.21-6.3,1.01-2.05,1.63-4.35,2.93-6.26,3.86-5.86,10.34-9.3,16.59-12.1,0,0,2.11-.93,2.11-.93,2.18-.89,2.63-3.59,3.29-5.62.04-.18.33-.19.37,0,.82,3.44-2.03,6.22-4.53,8.05-2.58,1.89-5.29,3.56-7.73,5.6-2.43,2.03-4.59,4.39-6.21,7.1-2.5,4.06-3.82,8.83-6.74,12.66-3.26,4.06-9.19,2.93-13.64,2.17-3.19-.74-6.26-.46-9.26.9-3.01,1.08-5.93,2.27-8.94,3.45h0ZM200.04,181.78c2.86-1.28,5.85-2.49,8.81-3.64,1.49-.53,2.97-1.23,4.6-1.34,4.74-.26,9.5,1.85,14.2.66,3.23-.71,4.91-3.74,6.23-6.52,1.39-2.86,2.65-5.79,4.29-8.56,1.66-2.76,3.87-5.15,6.33-7.2,2.47-2.05,5.2-3.72,7.76-5.59,2.38-1.72,5.14-4.41,4.41-7.57,0,0,.38-.02.38-.02-.67,2.09-1.23,4.95-3.52,5.84,0,0-2.12.92-2.12.92-6.2,2.75-12.65,6.14-16.5,11.93-1.31,1.9-1.92,4.16-2.94,6.22-1.33,2.74-3.29,5.52-6.37,6.38-3,.9-6.15.4-9.18.61-6.08.86-11.52,4.36-16.39,7.88h0Z"/>
      <path d="M170.11,289.47c.07-4.09,3.58-7.04,7.22-8.19.76-.24,1.73-.49,2.45-.77,2-.73,3.68-2.23,4.86-4,1.95-2.83,2.96-6.18,3.69-9.51.77-3.34.64-6.97,2.58-9.93,2.38-3.97,5.99-7.95,10.8-8.64,5.51-.57,11.46-.79,16.44,2.06,3.06,1.7,5.23,4.73,6.36,7.99.04.11-.02.22-.12.26-.08.03-.17,0-.22-.06-2.13-2.44-4.72-4.54-7.58-6.08-8.99-5.13-20.54-1.1-24.02,8.73-1.18,3.12-.2,6.49-.92,9.72-.5,3.33-2.61,6.25-5.4,8.05-3.31,2.56-7.47,3.39-11.22,5-2.16,1.24-3.61,3.29-4.93,5.39h0ZM170.12,289.42c1.16-2.09,2.72-4.23,4.83-5.5,3.72-1.69,7.85-2.51,11.13-5.1,2.73-1.81,4.72-4.6,5.19-7.87.68-3.22-.33-6.67.85-9.81,3.55-10.1,15.5-14.22,24.69-8.94,2.91,1.59,5.51,3.7,7.69,6.21,0,0-.35.19-.35.19-1.11-3.19-3.19-6.13-6.16-7.8-4.86-2.82-10.79-2.62-16.22-2.07-4.72.67-8.25,4.56-10.62,8.46-1.98,2.9-1.77,6.52-2.6,9.85-.75,3.34-1.78,6.71-3.77,9.56-1.43,2.18-3.65,3.79-6.17,4.43,0,0-1.23.36-1.23.36-3.62,1.09-7.05,4.06-7.24,8.04h0Z"/>
      <path d="M124.92,254.53c-1.65,2.65-4.44,4.63-7.39,5.63-4.03.96-8.29,2.61-10.28,6.52-.48.92-.8,1.97-.65,2.98.71,3.05,2,6.06,1.99,9.26-.02,1.04-.21,2.2-1,3-1.33,1.6-2.71,3.44-4.88,3.91-1.99.55-4.41.59-6.27.52-2.56.91-5.02,2.96-5.37,5.79-.38,2.84,1.22,5.41,2.69,7.72,1.55,2.37,2.72,5.06,3,7.92.24,2.84-.44,5.83-2.27,8.11.08-.1-2.76,4.28-2.75,4.28,0,0-.31-.26-.31-.26,2.5-2.52,5.15-5.08,6.87-8.2,1.86-3.19,1.55-7-.46-10.02-1.24-2.74-4.94-7.35-2.33-10.12,2.6-2.7,6.45-3.5,9.99-4.02,3.71-.45,5.65-4.31,5.71-7.74.1-3.62-2.46-6.91-1.45-10.61.55-1.78,2.25-2.87,3.55-4.09,2.08-1.73,4.23-3.4,6.63-4.68,2.62-.91,4.27-3.31,4.98-5.9h0ZM124.94,254.48c-.57,2.71-2.31,5.12-4.91,6.11-2.35,1.31-4.49,2.99-6.54,4.73-1.23,1.18-2.92,2.28-3.42,3.97-.95,3.61,1.66,6.96,1.55,10.54-.08,2.72-1.09,5.65-3.44,7.24-.79.51-1.68.84-2.6.98-3.43.51-7.23,1.28-9.7,3.85-1.39,1.28-.74,3.2-.07,4.8,2.36,5.32,6.3,9.19,2.88,15.23-1.77,3.19-4.43,5.73-6.97,8.29-.16.16-.45-.06-.31-.26.02-.03,2.78-4.3,2.8-4.32,1.74-2.14,2.44-5.06,2.2-7.81-.26-2.78-1.39-5.43-2.92-7.78-1.49-2.35-3.12-5.02-2.71-7.94.38-2.95,2.91-5.07,5.59-6.01,2.1.03,4.25.05,6.28-.5,2.15-.47,3.44-2.23,4.78-3.82.74-.74.93-1.83.95-2.85.02-3.18-1.25-6.15-1.95-9.22-.16-1.08.19-2.15.68-3.08,2.02-3.93,6.33-5.6,10.38-6.54,3-1.01,5.66-2.93,7.44-5.59h0Z"/>
      <path d="M157.2,229.71c10.17-9.71,25.57-22.36,39.86-24.02,6.47-.59,13.04.46,19.29,2.12,7.14,2,14.09,4.66,20.68,8.06-12.37-5.43-26.06-10.66-39.92-9.76-14.33,1.55-29.64,14.21-39.9,23.6h0Z"/>
      <path d="M196.52,205.91c9.39-3.49,20.6-4.96,29.88-.45.03.01,0,.06-.02.04-3.52-1.48-7.35-1.96-11.12-2.26-6.31-.61-12.89.79-18.73,2.67h0Z"/>
      <path d="M187.06,208.44c3.48-4.66,8.2-8.25,13.33-10.92,3.15-1.59,6.79-1.79,10.24-1.63.03,0,.03.05,0,.05-2.3.18-4.61.32-6.82.88-6.57,1.91-12.43,6.6-16.75,11.62h0Z"/>
      <path d="M171.87,217.13c2.26-6.29,6.65-11.49,11.61-15.82,4.72-4.6,10.51-8.46,17.18-9.35-1.39.49-3.22.88-4.7,1.51-4.61,1.8-8.55,4.84-12.22,8.13-5.06,4.2-9.45,9.52-11.88,15.53h0Z"/>
      <path d="M166.88,221.07c1.1-5.16,2.15-10.46,4.78-15.1,2.73-4.55,6.09-8.68,9.69-12.56.02-.02.06,0,.04.03-3.18,4.21-6.53,8.3-9.39,12.73-2.72,4.47-3.8,10.03-5.12,14.89h0Z"/>
      <path d="M159.89,226.86c1.02-5.38,2.14-10.76,4.03-15.92,2.02-5.14,5.58-9.51,9.4-13.43.02-.02.06.01.04.03-3.39,4.24-6.91,8.53-9.06,13.54-2,5.03-3.16,10.67-4.4,15.78h0Z"/>
      <path d="M205.18,205.95c5.14,3.82,10.44,7.92,16.57,9.91-3.27-.19-6.19-2.21-8.86-3.96-2.62-1.83-5.48-3.86-7.7-5.95h0Z"/>
      <path d="M169.87,218.88c27.48-12.63,22.55,4.54,46.38.8-1.74.55-4.02.69-5.98.81-2.02.08-4.03.06-6.06-.2-4.09-.68-7.48-3.09-11.2-4.5-7.64-3.29-16.07.3-23.14,3.09h0Z"/>
      <path d="M171.17,220.25c8.27-.47,16.9-1.02,24.67,2.32,1.34.49,4.53,1.71,5.86,2.1.66.2,1.33.4,2.01.41.03,0,.04.05,0,.05-5.54-.42-10.5-3.6-15.97-4.43-5.43-.75-11.26-.47-16.59-.44h0Z"/>
      <path d="M161.84,225.23c4.69.07,9.36,2.51,12.56,5.83-.52-.25-1-.65-1.5-.97-3.31-2.25-7.1-4.59-11.06-4.86h0Z"/>
      <path d="M164.65,223.06c4.54-1.01,9.43-.16,13.2,2.61,0,0,3.93,2.37,3.93,2.37,5.37,2.89,11.67,3.98,17.67,2.74.03,0,.04.04.01.05-5.94,1.79-12.55.64-17.88-2.44-2.32-1.34-5.44-3.7-7.89-4.66-2.83-1.11-6.2-1.05-9.04-.67h0Z"/>
      <path d="M172.78,221.7c8.8.26,16.83,4.83,25.64,4.82.03,0,.04.04,0,.05-4.38.55-8.8-.55-12.9-2.02-4.08-1.42-8.62-2.29-12.74-2.86h0Z"/>
      <path d="M182.18,210.84c4.18.18,8.46.55,12.43,1.94,4.02,1.06,8.26,1.45,12.4.87.03,0,.04.04.01.05-4.09,1.11-8.51.69-12.52-.54-1.99-.74-3.99-1.25-6.07-1.56-2.02-.39-4.36-.49-6.25-.77h0Z"/>
      <path d="M189.83,207.47c3.84,1.5,7.98,1.8,11.99,2.44-4.01.44-8.5-.81-11.99-2.44h0Z"/>
      <path d="M125.86,234.02c-13.52-8.55-30.56-10.86-45.97-6.81-11.67,2.92-21.79,10.03-29.84,18.81-2.67,2.8-5.31,6.32-6.87,9.7,1.41-3.68,4-7.01,6.64-9.92,5.34-5.95,11.53-11.25,18.72-14.82,17.87-8.91,40.73-7.92,57.33,3.04h0Z"/>
      <path d="M121.4,231.45c-.78-7.88-4.97-15.34-11.05-20.36,0,0-1.83-1.5-1.83-1.5l-1.97-1.32c-.59-.43-1.36-.91-2.01-1.25-1.9-1.15-4.38-2.23-6.4-3.15,2.03.56,4.62,1.7,6.61,2.77,9.1,4.77,16.09,14.59,16.65,24.8h0Z"/>
      <path d="M115.11,228.73c-3.73-11.94-14.14-21.08-26.12-24.18,0,0-2.39-.68-2.39-.68-.03,0-.02-.06,0-.05,13.22,1.87,25.01,12.16,28.5,24.9h0Z"/>
      <path d="M108.18,226.49c-9.04-7.19-19.28-13.05-30.4-16.33-.03,0-.02-.06.01-.05,11.35,2.37,21.73,9.12,30.39,16.37h0Z"/>
      <path d="M97.3,224.99l-16.46-6.52c-5.4-2-10.88-5.01-16.76-5.11-.03,0-.03-.05,0-.05,5.94-.44,11.57,2.64,16.92,4.8-.02.05,16.49,6.82,16.29,6.89h0Z"/>
      <path d="M88,225.37c-6.28-2.26-13.09-2.16-19.63-2.75,6.5-.49,13.69.35,19.63,2.75h0Z"/>
      <path d="M64.92,223.78c-3.83.24-7.7,1.18-11.06,3.06-3.41,1.9-5.66,5.14-7.95,8.21-.02.02-.06,0-.04-.03,1.85-3.4,4.25-6.76,7.8-8.53,3.4-1.78,7.57-2.79,11.25-2.71h0Z"/>
      <path d="M79.19,227.06c-9.38.96-18.52,3.94-26.64,8.72-.02.02-.05-.02-.03-.04,7.61-5.57,17.53-8.05,26.67-8.68h0Z"/>
      <path d="M62.68,234.66c-3.64,1.64-7.22,3.46-10.58,5.6-3.32,2.13-6.52,4.79-7.7,8.69,0,.03-.06.02-.05-.01.68-4.14,4.1-7.04,7.54-9.01,3.4-2.02,7.22-3.97,10.79-5.27h0Z"/>
      <path d="M124.25,232.88c-6.76,1.68-11.57,6.95-16.07,11.94-4.62,4.91-10.05,9.66-16.78,11.24-.03,0-.04-.04-.01-.05,6.53-2.09,11.76-6.68,16.5-11.47,4.5-4.85,9.72-10.37,16.36-11.66h0Z"/>
      <path d="M117.21,229.5c-4.31,1.34-8.49,3.32-12.04,6.14-6.88,5.82-11.65,14.43-20.38,17.87-2.18.75-4.5.8-6.78.93-2.26.08-4.57.19-6.8-.34-.03,0-.02-.06.01-.05,1.1.24,2.25.22,3.38.22,3.33-.15,6.88-.12,10.02-1.22,4.23-1.58,7.64-4.77,10.82-7.91,3.24-3.18,6.03-6.82,9.58-9.68,3.57-2.71,7.99-4.87,12.19-5.94h0Z"/>
      <path d="M106.04,226.21c-4.03,1.58-7.96,3.45-11.6,5.79-3.66,2.32-6.57,5.58-9.6,8.67-2.28,2.31-4.56,4.75-7.45,6.35-4.94,2.14-10.65,3.35-15.95,2-.03,0-.02-.06.01-.05,5.31,1.02,10.84-.29,15.71-2.4,2.82-1.58,5.1-3.93,7.4-6.19,3.06-3.04,6.03-6.3,9.75-8.6,3.66-2.23,7.81-4.27,11.73-5.58h0Z"/>
      <path d="M90.43,225.28c-3.92,1.57-7.72,3.49-11.14,5.95-6.64,5.27-11.54,12.51-19.53,16.09-3.79,2-8.34,1.7-11.9,4.23.63-.62,1.8-1.2,2.71-1.67,1.93-.9,4.11-1.04,6.09-1.77,4.94-1.83,9.32-4.9,13.16-8.48,3.13-2.84,5.87-6.13,9.33-8.6,3.45-2.36,7.48-4.46,11.29-5.75h0Z"/>
      <g>
        <path d="M137.28,99.74c-.11,3.14-4.6,3.19-4.77,0,.03-3.31,4.77-3.33,4.77,0h0ZM137.23,99.74c-.11-2.66-4.21-2.67-4.32,0,0,2.83,4.27,2.85,4.32,0h0Z"/>
        <path d="M118.33,137.96c-.13,3.95-5.81,3.94-5.97,0,.07-4.11,5.93-4.13,5.97,0h0ZM118.28,137.96c-.16-3.46-5.37-3.47-5.52,0,.03,3.63,5.46,3.63,5.52,0h0Z"/>
        <path d="M166.19,158.08c-.09,2.74-4.01,2.79-4.16,0,.02-2.91,4.18-2.93,4.16,0h0ZM166.14,158.08c-.1-2.26-3.61-2.27-3.71,0-.01,2.43,3.68,2.44,3.71,0h0Z"/>
        <path d="M162.49,133.27c-.11,3.19-4.67,3.23-4.84,0,.03-3.36,4.84-3.38,4.84,0h0ZM162.44,133.27c-.11-2.71-4.28-2.72-4.39,0,0,2.87,4.34,2.89,4.39,0h0Z"/>
        <path d="M139.48,168.75c-.11,3.19-4.67,3.23-4.84,0,.03-3.36,4.84-3.38,4.84,0h0ZM139.43,168.75c-.11-2.71-4.28-2.72-4.39,0,0,2.87,4.34,2.89,4.39,0h0Z"/>
        <path d="M85.21,143.69c-.11,3.19-4.67,3.23-4.84,0,.03-3.36,4.84-3.38,4.84,0h0ZM85.16,143.69c-.11-2.71-4.28-2.72-4.39,0,0,2.87,4.34,2.89,4.39,0h0Z"/>
        <path d="M96.81,105.42c-.1,2.74-4.01,2.79-4.16,0,.02-2.91,4.18-2.93,4.16,0h0ZM96.76,105.42c-.08-2.26-3.63-2.27-3.71,0-.01,2.43,3.68,2.44,3.71,0h0Z"/>
        <path d="M175.53,111.07c-.09,2.74-4.01,2.79-4.16,0,.02-2.91,4.18-2.93,4.16,0h0ZM175.48,111.07c-.1-2.26-3.61-2.27-3.71,0-.01,2.43,3.68,2.44,3.71,0h0Z"/>
        <path d="M196.92,141.53c-.09,2.74-4.01,2.79-4.16,0,.02-2.91,4.18-2.93,4.16,0h0ZM196.87,141.53c-.1-2.26-3.61-2.27-3.71,0-.01,2.43,3.68,2.44,3.71,0h0Z"/>
      </g>
      <path d="M159.22,106.53c-.94-2.45-2.62-4.97-2.44-7.64.84,2.47,1.76,5.25,2.44,7.64h0Z"/>
    </g>
  </g>
</svg>