<svg viewBox="0 0 289.13 430.87" xmlns="http://www.w3.org/2000/svg"><text font-family="'IM_FELL_Double_Pica_SC', 'IM FELL Double Pica SC'" font-size="24" transform="translate(73.8 395.79)"><tspan letter-spacing=".02em" x="0" y="0">L</tspan><tspan letter-spacing="-.06em" x="17.86" y="0">A</tspan><tspan x="31.69" y="0">VEN</tspan><tspan letter-spacing="-.01em" x="87.35" y="0">D</tspan><tspan x="106.64" y="0">ER</tspan></text><text font-family="SUIT-Regular-KSCpc-EUC-H, SUIT" font-size="14" transform="translate(107.37 418.59)"><tspan x="0" y="0">라벤더 · 평온</tspan></text><path d="m140.06 363.25c4.33-3.8 13.26-24.85 15.26-30.52 2-5.66 4.26-10.06 6.2-14.26 1.93-4.2 6.73-10.33 10-12.66s12.13-12.39 14.59-15.26c2.47-2.87 6.46-10.46 7.53-12.86s-1.2-1.13-3.4.47-13.73 12.86-20.06 21.46-12.19 21.39-12.19 21.39 2.53-16.19 4.93-25.12 7-20.12 8.86-23.59c1.87-3.47 5.6-9 8.2-12.19 2.6-3.2 15.19-19.66 17.66-23.06s8.2-13.13 9.86-18.99c1.67-5.86 5.2-19.19 5.6-23.19s2.47-10.4 2.47-10.4c-8.26 4.8-15.73 18.79-20.39 24.12s-10.86 18.39-12.93 23.39-9.93 22.12-13.06 32.92c-3.13 10.79-7.4 25.65-7.4 25.65s-.53-12.66-.47-20.86c.07-8.2 2.93-21.46 4-24.12s4.13-13.26 7.46-16.86c2.34-2.52 5.03-7.47 6.76-11.03.76-1.56 1.51-3.12 2.38-4.62.73-1.27 1.85-3.84 2.86-8.74.92-4.44.27-9.93.33-16.26.07-6.33 4.06-10.46 6.73-13.46s9.93-6.13 15.46-7.26 9.46-4 12.13-10.33.33-9.26-2.93-14.13-11.93-7.73-16.06-9.26-4.53-4.73-4.33-7.26 3.6-5.53 7.2-7.13 6.8-5.8 8.26-7.73 4.2-5.06-.53-11.46-12.13-6.06-12.13-6.06c2.73.67 9.66 5.73 10.86 11.13s-8.86 11.26-8.86 11.26l-2.13 1c-2.13 1-7 2.13-10.66 7.48-3.66 5.34-.73 8.78 2.47 12.25s5.13 7 10.06 8.26c4.93 1.27 7.86 4.46 6.46 10.13-1.4 5.66-8.4 8.73-12.53 9.26s-6.66 1.4-9.66 3.6-6.06 7.06-8.86 14.46-7.93 9.4-7.93 9.4c6.33-.4 9.46-8.86 10.59-11.93s2.33-5.2 6.53-9.86 10.46-3.47 10.46-3.47-7.66 6.06-12.06 12.53-2.13 16.13-2.13 21.26-3.5 11.93-6.29 16.03c-2.79 4.09-6.53 11.41-10.19 19.95s-5.05 25.96-5.05 25.96-2.7-22.04-3.48-31.62-3.66-23.78-4.7-29.7c-1.05-5.92-7.16-32.76-7.16-32.76-1.22-6.75 1.4-8.25 1.4-8.25 6.1-4.29 9.29-9.07 9.29-9.07 4.35-11.22-6.29-4.35-6.29-4.35 3.97-7.06 4.06-13.45.58-14.13s-5.9 9.39-5.9 9.39-.19-4.74-3.48-5.23c-3.29-.48-3.87 9.39-3.87 9.39s-2.81-10.55-2.42-12.48 5.81-2.23 10.33-9.48c4.53-7.26-2.2-5.9-2.2-5.9 1.45-5.23.58-8.13-1.45-8.81s-4.35 2.71-4.35 2.71c.1-5.32-1.35-5.32-1.35-5.32-6.58-2.42-7.26 13.55-7.26 13.55 0-2.13-3.77-15.19-3.77-15.19 9.48-6.29 4.74-8.13 4.74-8.13s4.26-4.93 3.58-11.03-5.71-.68-5.71-.68.1-6.1-3.29-6-5.61 10.06-5.61 10.06c-2.52-2.42-3.68-11.32-3.68-11.32 3.97-3.39 5.71-7.93 5.71-7.93 3.68-9.1-1.94-8.42-1.94-8.42s1.64-8.22-1.06-9.77-5.03 7.26-5.03 7.26c-4.64-1.84-4.93 6-4.93 6s-1.94-3.77-.48-8.81 3.87-9.1 3.87-9.1c3.1-14.71-6.77-6.87-6.77-6.87.39-9.29-5.13-9.29-5.13-9.29-.48-2.13-2.52-5.9-6.77-6.58-4.26-.68-2.61 9.19-2.61 9.19-6.43 4.23 2.52 11.22 2.52 11.22-3.41 1.18-4.47 4.16-2.42 7.57s8.63 5.59 11.23 6.21c2.61.62 3.29 5.28 3.29 5.28-7.7-6.39-5.52 2.85-5.52 2.85-2.67-3.23-6.52-3.6-8.81-1.61s4.16 7.14 4.16 7.14c-3.66.62-.93 3.29-.93 3.29 5.21 5.52 11.73 5.46 15.39 4.96s5.15 5.83 5.15 5.83c-7.57-5.71-6.89.74-6.89.74s-1.74-2.67-4.53-2.11-2.3 5.21-2.3 5.21c-2.05.68.12 2.36 3.41 7.2s9.81 6.45 9.81 6.45c-5.28 2.3 7.63 4.03 7.63 4.03 1.43.37 5.4 11.05 5.4 11.05-6.64-7.82-7.2-.99-7.2-.99-3.17-3.79-6.39-5.59-8.81-3.91s3.41 8.07 3.41 8.07c-3.23-.5-4.41-.68-5.65.68s2.79 5.71 8.25 9.25 8.81 2.23 12.29 2.36c3.48.12 6.52 13.41 6.52 13.41-4.53-5.46-8.87-8.25-11.17-6.58s.93 6.95.93 6.95-7.08-3.35-8.5-.5c-1.43 2.85 6.33 8.01 6.33 8.01s-3.35 1.74.74 5.21 15.18 4.38 15.18 4.38c2.16 2.44 4.03 10.31 5.91 17.25 1.87 6.94 6 28.31 6.94 33.46.94 5.16 3.53 27.57 3.53 27.57s-5.79-11.65-9.05-17.73-6.88-12.09-10.42-16.65c-3.55-4.56-11.44-13.32-14.77-16.49s-9.92-11.89-12.59-14.71-3.4-.87-2.39.14 4.7 8.11 6.51 11.07 7.74 13.75 11 19.62 10.28 16.29 19.76 24.47 12.52 21.71 13.9 27.79 1.74 23.52 1.52 31.49c-.22 7.96-2.17 21.28-2.17 21.28s-.22-3.76-.43-6.8-2.61-13.46-4.13-18.24-6.08-16-8.47-21.06c-2.39-5.07-7.74-12.81-13.25-19.25-5.5-6.44-13.97-10.35-20.85-14.69s-13.54-4.49-17.88-2.9-6.22 4.99-6.88 10.21 2.39 8.11 4.71 9.12 6.51 2.39 6.51 2.39c-.8-.87-2.32-1.59-6.51-3.91s-3.77-6.73-1.09-11.44c2.68-4.7 8.32-3.04 11.36-1.81s12.88 11.51 14.77 14.4c1.88 2.9 10.86 14.11 15.85 17.88 4.99 3.76 12.23 12.38 12.23 12.38 9.48 8.9 11.73 29.68 11.73 35.18s-2.32 17.01-4.13 22.37c-.95 2.81-2.97 7.38-4.68 11.1-2.03 4.43-3.43 9.12-4.13 13.94l-.03.18z" fill="#eae4e9"/><path d="m83.83 135.36 2.41 18.49c.36 2.8 2.53 5.03 5.32 5.47l7.21 1.14-7.21.83c-2.77.32-4.96 2.48-5.31 5.24l-2.42 19.02-2.42-19.02c-.35-2.76-2.54-4.92-5.31-5.24l-7.21-.83 7.21-1.14c2.79-.44 4.96-2.67 5.32-5.47z" fill="#f9f1ac"/><path d="m172.44 67.88 2.82 21.62c.36 2.8 2.53 5.03 5.32 5.47l8.82 1.39-8.82 1.01c-2.77.32-4.96 2.48-5.31 5.24l-2.83 22.23-2.83-22.23c-.35-2.76-2.54-4.92-5.31-5.24l-8.82-1.01 8.82-1.39c2.79-.44 4.96-2.67 5.32-5.47z" fill="#f9f1ac"/><path d="m206.37 248.43 1.27 9.78c.36 2.8 2.53 5.03 5.32 5.47l2.74.43-2.74.31c-2.77.32-4.96 2.48-5.31 5.24l-1.29 10.12-1.29-10.12c-.35-2.76-2.54-4.92-5.31-5.24l-2.74-.31 2.74-.43c2.79-.44 4.96-2.67 5.32-5.47l1.27-9.78z" fill="#f9f1ac"/><path d="m106.9 265.32 3.17 24.36c.36 2.8 2.53 5.03 5.32 5.47l10.23 1.61-10.23 1.17c-2.77.32-4.96 2.48-5.31 5.24l-3.19 25.02-3.19-25.02c-.35-2.76-2.54-4.92-5.31-5.24l-10.23-1.17 10.23-1.61c2.79-.44 4.96-2.67 5.32-5.47l3.17-24.36z" fill="#f9f1ac"/><path d="m159.93 262.66s-2.7-22.04-3.48-31.62-3.66-23.78-4.7-29.7c-1.05-5.92-7.16-32.76-7.16-32.76-1.22-6.75 1.4-8.25 1.4-8.25 6.1-4.29 9.29-9.07 9.29-9.07 4.35-11.22-6.29-4.35-6.29-4.35 3.97-7.06 4.06-13.45.58-14.13s-5.9 9.39-5.9 9.39-.19-4.74-3.48-5.23c-3.29-.48-3.87 9.39-3.87 9.39s-2.81-10.55-2.42-12.48c.39-1.94 5.81-2.23 10.33-9.48 4.53-7.26-2.2-5.9-2.2-5.9 1.45-5.23.58-8.13-1.45-8.81s-4.35 2.71-4.35 2.71c.1-5.32-1.35-5.32-1.35-5.32-6.58-2.42-7.26 13.55-7.26 13.55 0-2.13-3.77-15.19-3.77-15.19 9.48-6.29 4.74-8.13 4.74-8.13s4.26-4.93 3.58-11.03-5.71-.68-5.71-.68.1-6.1-3.29-6-5.61 10.06-5.61 10.06c-2.52-2.42-3.68-11.32-3.68-11.32 3.97-3.39 5.71-7.93 5.71-7.93 3.68-9.1-1.94-8.42-1.94-8.42s1.64-8.22-1.06-9.77-5.03 7.26-5.03 7.26c-4.64-1.84-4.93 6-4.93 6s-1.94-3.77-.48-8.81c1.45-5.03 3.87-9.1 3.87-9.1 3.1-14.71-6.77-6.87-6.77-6.87.39-9.29-5.13-9.29-5.13-9.29-.48-2.13-2.52-5.9-6.77-6.58-4.26-.68-2.61 9.19-2.61 9.19-6.43 4.23 2.52 11.22 2.52 11.22-3.41 1.18-4.47 4.16-2.42 7.57s8.63 5.59 11.23 6.21c2.61.62 3.29 5.28 3.29 5.28-7.7-6.39-5.52 2.85-5.52 2.85-2.67-3.23-6.52-3.6-8.81-1.61s4.16 7.14 4.16 7.14c-3.66.62-.93 3.29-.93 3.29 5.21 5.52 11.73 5.46 15.39 4.96s5.15 5.83 5.15 5.83c-7.57-5.71-6.89.74-6.89.74s-1.74-2.67-4.53-2.11-2.3 5.21-2.3 5.21c-2.05.68.12 2.36 3.41 7.2s9.81 6.45 9.81 6.45c-5.28 2.3 7.63 4.03 7.63 4.03 1.43.37 5.4 11.05 5.4 11.05-6.64-7.82-7.2-.99-7.2-.99-3.17-3.79-6.39-5.59-8.81-3.91s3.41 8.07 3.41 8.07c-3.23-.5-4.41-.68-5.65.68s2.79 5.71 8.25 9.25 8.81 2.23 12.29 2.36c3.48.12 6.52 13.41 6.52 13.41-4.53-5.46-8.87-8.25-11.17-6.58s.93 6.95.93 6.95-7.08-3.35-8.5-.5 6.33 8.01 6.33 8.01-3.35 1.74.74 5.21 15.18 4.38 15.18 4.38c2.16 2.44 4.03 10.31 5.91 17.25 1.87 6.94 6 28.31 6.94 33.46.94 5.16 3.53 27.57 3.53 27.57s-5.79-11.65-9.05-17.73-6.88-12.09-10.42-16.65-11.44-13.32-14.77-16.49-9.92-11.89-12.59-14.71-3.4-.87-2.39.14 4.7 8.11 6.51 11.07 7.74 13.75 11 19.62c3.26 5.86 10.28 16.29 19.76 24.47s12.52 21.71 13.9 27.79 1.74 23.52 1.52 31.49c-.22 7.96-2.17 21.28-2.17 21.28s-.22-3.76-.43-6.8c-.22-3.04-2.61-13.46-4.13-18.24s-6.08-16-8.47-21.06-7.74-12.81-13.25-19.25c-5.5-6.44-13.97-10.35-20.85-14.69s-13.54-4.49-17.88-2.9-6.22 4.99-6.88 10.21 2.39 8.11 4.71 9.12 6.51 2.39 6.51 2.39c-.8-.87-2.32-1.59-6.51-3.91s-3.77-6.73-1.09-11.44 8.32-3.04 11.36-1.81 12.88 11.51 14.77 14.4c1.88 2.9 10.86 14.11 15.85 17.88 4.99 3.76 12.23 12.38 12.23 12.38 9.48 8.9 11.73 29.68 11.73 35.18s-2.32 17.01-4.13 22.37c-.95 2.81-2.97 7.38-4.68 11.1-2.03 4.43-3.43 9.12-4.13 13.94l-.03.18c4.33-3.8 13.26-24.85 15.26-30.52s4.26-10.06 6.2-14.26c1.93-4.2 6.73-10.33 10-12.66s12.13-12.39 14.59-15.26c2.47-2.87 6.46-10.46 7.53-12.86s-1.2-1.13-3.4.47-13.73 12.86-20.06 21.46-12.19 21.39-12.19 21.39 2.53-16.19 4.93-25.12 7-20.12 8.86-23.59c1.87-3.47 5.6-9 8.2-12.19 2.6-3.2 15.19-19.66 17.66-23.06s8.2-13.13 9.86-18.99c1.67-5.86 5.2-19.19 5.6-23.19s2.47-10.4 2.47-10.4c-8.26 4.8-15.73 18.79-20.39 24.12s-10.86 18.39-12.93 23.39-9.93 22.12-13.06 32.92c-3.13 10.79-7.4 25.65-7.4 25.65s-.53-12.66-.47-20.86" fill="#cebaca"/><g fill="none"><path d="m83.79 135.36 2.41 18.49c.36 2.8 2.53 5.03 5.32 5.47l7.21 1.14-7.21.83c-2.77.32-4.96 2.48-5.31 5.24l-2.42 19.02-2.42-19.02c-.35-2.76-2.54-4.92-5.31-5.24l-7.21-.83 7.21-1.14c2.79-.44 4.96-2.67 5.32-5.47z"/><path d="m175.26 102.37-2.86 22.47-2.86-22.47c-.33-2.61-2.41-4.66-5.03-4.97l-9.07-1.04 9.07-1.43c2.64-.42 4.7-2.53 5.04-5.18l2.85-21.87 2.85 21.87"/><path d="m206.33 248.43 1.27 9.78c.36 2.8 2.53 5.03 5.32 5.47l2.74.43-2.74.31c-2.77.32-4.96 2.48-5.31 5.24l-1.29 10.12-1.29-10.12c-.35-2.76-2.54-4.92-5.31-5.24l-2.74-.31 2.74-.43c2.79-.44 4.96-2.67 5.32-5.47l1.27-9.78z"/><path d="m106.86 265.32 3.17 24.36c.36 2.8 2.53 5.03 5.32 5.47l10.23 1.61-10.23 1.17c-2.77.32-4.96 2.48-5.31 5.24l-3.19 25.02-3.19-25.02c-.35-2.76-2.54-4.92-5.31-5.24l-10.23-1.17 10.23-1.61c2.79-.44 4.96-2.67 5.32-5.47l3.17-24.36z"/><circle cx="169.57" cy="142.69" r="2.51"/><circle cx="155.64" cy="183.23" r="1.98"/><circle cx="100.47" cy="199.3" r="1.98"/><circle cx="134.79" cy="301.36" r="1.98"/><circle cx="105.16" cy="209.39" r="1.41"/><circle cx="218.56" cy="239.11" r="1"/><circle cx="96.19" cy="289.9" r="1"/><circle cx="146.6" cy="83.58" r="1.98"/><circle cx="156.28" cy="74.43" r="1.32"/><circle cx="228.26" cy="131.83" r="1.21"/><circle cx="172.9" cy="165.21" r="1.35"/><circle cx="219.55" cy="179.9" r="1.35"/><path d="m103.32 64.26s1.88.38 3.28 1.17c0 0-.05 5.86 2.23 10.75"/><path d="m112.76 86.73s3.17 1.62 4.78 2.9c0 0-.67 8.77 2.56 14.17"/><path d="m136.31 146.32s-.13 6.87 1.33 12.97"/><path d="m134.11 148.17s1.22 1.5 2.2 3.48"/><path d="m143.66 142.16s2.66 6.13-1.38 16.27"/><path d="m148.98 146.91s-1.53.99-4.76 4.59"/><path d="m123.87 148.54s6.76 8.79 10.92 10.76"/><path d="m121.69 156.05s3.16-1.43 10.44 1.44"/><path d="m127.6 120.59s.16 6.83 1.04 9.73"/><path d="m136.21 112.36s-4.08 4.25-4.91 10.94c-.6 4.89-.32 5.64 0 8.71"/><path d="m142.02 118.46s-3.47 7.67-6.81 11.06"/><path d="m112.69 122.47s9 2.2 17.16 8.56"/><path d="m118.09 118.32s2.5 4.13 3.18 7.14"/><path d="m125.29 119.31s.54.55 2.31 2.88"/><path d="m126.44 85.56s-.62 9.77-3.2 15.49"/><path d="m128.57 97.27s-2.44-.69-4.54 1.76"/><path d="m105.87 87.47s1.86 6.45 7.7 11.56 6.96 7.13 6.96 7.13"/><path d="m99.04 90.57s2.01-1.65 11.01 4.69"/><path d="m111.54 59.43s3.43-.36 1.66 13.67"/><path d="m117.63 61.95s-1.82-.62-3.93 4.32"/><path d="m97.8 67.11s2.74 7.81 9.7 11.2"/><path d="m93.14 72.64s3.63-.24 9.5 2.09"/><path d="m103.22 40.66s-2.34 5.16-1.24 12.02"/><path d="m91.22 45.21s3.98-.48 7.53 3.93"/><path d="m98.09 31.37s-4.78 2.62-1.94 10.82"/><path d="m88.7 33.99s2.67-1.16 6.59 4.43"/><path d="m215.51 184.47s-14.38 27.82-19.46 35.61c-5.09 7.8-14.24 24.92-17.63 31.87"/><path d="m205.04 214.83s-9.49 15.09-13.73 22.04-12.89 18.65-15.26 22.04"/><path d="m200.63 205.33s-10.09 16.45-19.67 36.11"/><path d="m101.15 235.54s8.62 6.08 13.69 13.56 10.65 12.9 14.32 16.21 10.14 8 13.94 13.57c3.8 5.58 5.58 10.01 5.58 10.01"/><path d="m107.99 237.7s12.29 7.86 18.76 16.86c6.46 9 11.66 16.48 11.66 16.48"/><path d="m124.91 248.43s11.34 12.84 13.5 18.04 4.56 8.87 4.56 8.87"/><path d="m114.08 190.3s8.24 17.24 14.32 24.53c6.08 7.28 12.6 13.49 16.12 18.44"/><path d="m122.31 199.3s9.86 10.39 13.99 17.11 5.78 9.63 5.78 9.63"/><path d="m144.22 163.86c-1.94 4.53-6.6 1.79-6.6 1.79"/></g><path d="m137.62 165.65c2.16 2.44 4.03 10.31 5.91 17.25 1.87 6.94 6 28.31 6.94 33.46.94 5.16 3.53 27.57 3.53 27.57s-5.79-11.65-9.05-17.73-6.88-12.09-10.42-16.65-11.44-13.32-14.77-16.49-9.92-11.89-12.59-14.71-3.4-.87-2.39.14 4.7 8.11 6.51 11.07 7.74 13.75 11 19.62c3.26 5.86 10.28 16.29 19.76 24.47s12.52 21.71 13.9 27.79 1.74 23.52 1.52 31.49c-.22 7.96-2.17 21.28-2.17 21.28s-.22-3.76-.43-6.8c-.22-3.04-2.61-13.46-4.13-18.24s-6.08-16-8.47-21.06-7.74-12.81-13.25-19.25c-5.5-6.44-13.97-10.35-20.85-14.69s-13.54-4.49-17.88-2.9-6.22 4.99-6.88 10.21 2.39 8.11 4.71 9.12 6.51 2.39 6.51 2.39c-.8-.87-2.32-1.59-6.51-3.91s-3.77-6.73-1.09-11.44 8.32-3.04 11.36-1.81 12.88 11.51 14.77 14.4c1.88 2.9 10.86 14.11 15.85 17.88 4.99 3.76 12.23 12.38 12.23 12.38 9.48 8.9 11.73 29.68 11.73 35.18s-2.32 17.01-4.13 22.37c-.95 2.81-2.97 7.38-4.68 11.1-2.03 4.43-3.43 9.12-4.13 13.94l-.03.18c4.33-3.8 13.26-24.85 15.26-30.52s4.26-10.06 6.2-14.26c1.93-4.2 6.73-10.33 10-12.66s12.13-12.39 14.59-15.26c2.47-2.87 6.46-10.46 7.53-12.86s-1.2-1.13-3.4.47-13.73 12.86-20.06 21.46-12.19 21.39-12.19 21.39 2.53-16.19 4.93-25.12 7-20.12 8.86-23.59c1.87-3.47 5.6-9 8.2-12.19 2.6-3.2 15.19-19.66 17.66-23.06s8.2-13.13 9.86-18.99c1.67-5.86 5.2-19.19 5.6-23.19s2.47-10.4 2.47-10.4c-8.26 4.8-15.73 18.79-20.39 24.12s-10.86 18.39-12.93 23.39-9.93 22.12-13.06 32.92c-3.13 10.79-7.4 25.65-7.4 25.65s-.53-12.66-.47-20.86l-1.48-7.93-1.16-10.66-1.91-17.28-.66-6.9-1.71-11.04-1.77-10.18-2.04-10.78-1.66-7.69-3.23-14.2-1.08-4.46-.35-2.73.07-1.48-.48.48-.61.69-.95.67-.98.28h-1.36l-.93-.24-.82-.19-.02.3" fill="#bac689"/><path d="m81.94 135.34 2.28 16.93c.1 2.83 1.47 5.71 4.3 6.65 1.16.4 2.95.55 4.17.77 0 0 4.22.65 4.22.65.13.02.14.23 0 .25 0 0-4.28.5-4.28.5-1.25.19-3.05.24-4.22.65-2.97.99-3.99 3.83-4.12 6.74 0 0-2.14 17.1-2.14 17.1 0 .11-.11.2-.22.19-.09-.01-.16-.09-.17-.17-.77-5.69-1.51-11.39-2.23-17.09-.12-2.8-1.16-5.72-4.07-6.65-1.14-.4-2.98-.45-4.2-.63 0 0-4.28-.49-4.28-.49-.28-.02-.29-.46-.01-.49 0 0 4.22-.64 4.22-.64l2.11-.32c2.1-.17 4.09-1.14 5.2-2.98.8-1.2.91-2.62 1.1-4.02 0 0 2.36-16.91 2.36-16.91zm0 .05-2.05 16.93c-.05 3.91-2.53 7.06-6.54 7.35-1.36.21-4.91.81-6.32 1.03 0 0-.01-.49-.01-.49l4.28.49 2.14.25c2.21.09 4.45 1.22 5.54 3.23.78 1.28.83 2.81 1.03 4.25.74 5.7 1.44 11.4 2.13 17.1h-.4s2.22-17.1 2.22-17.1c.12-2.95 1.31-6 4.35-6.97 1.23-.42 3-.46 4.28-.64 0 0 4.28-.48 4.28-.48v.25c-1.43-.23-4.95-.79-6.32-1.01-3.99-.28-6.41-3.4-6.48-7.26 0 0-2.13-16.91-2.13-16.91z"/><path d="m170.54 67.85 2.59 19.3c.22 3.4 1.21 6.5 4.81 7.54 3.16.6 6.4 1.02 9.59 1.54.13.02.14.23 0 .25 0 0-4.88.57-4.88.57-1.43.2-3.48.32-4.85.64-2.35.63-4.11 2.8-4.3 5.22-.05.25-2.6 20.8-2.75 21.94 0 .11-.11.2-.22.19-.09-.01-.16-.09-.17-.17l-2.53-19.5c-.21-1.38-.26-3.48-.98-4.7-.73-1.39-2.05-2.46-3.57-2.88-1.34-.31-3.43-.43-4.83-.63 0 0-4.88-.56-4.88-.56-.28-.02-.29-.46-.01-.49 3.19-.51 6.45-.93 9.58-1.52 1.52-.42 2.84-1.46 3.64-2.82.85-1.35.86-3.02 1.11-4.64l2.67-19.28zm0 .05-2.36 19.31c-.19 1.46-.3 3.49-1.11 4.75-1.22 2.3-3.8 3.26-6.26 3.47-1.55.25-5.61.91-7.2 1.17 0 0-.01-.49-.01-.49l4.88.56c1.49.21 3.44.31 4.91.64 2.5.66 4.39 2.99 4.59 5.55 0 0 .31 2.44.31 2.44l2.44 19.51h-.4c.16-1.26 2.79-21.6 2.84-21.94.2-2.52 2.07-4.81 4.53-5.45 1.44-.33 3.43-.43 4.89-.63 0 0 4.88-.55 4.88-.55v.25c-3.2-.54-6.4-.97-9.61-1.6-1.59-.45-2.97-1.55-3.79-2.97-.8-1.24-.91-3.29-1.11-4.72 0 0-2.44-19.29-2.44-19.29z"/><path d="m204.47 248.4c.43 3.07.98 7.32 1.44 10.33.37 1.68 1.46 3.17 2.94 4.03 1.47.92 3.28.89 4.98 1.22.13.02.13.23 0 .25-1.72.27-3.55.18-5.03 1.09-1.47.86-2.55 2.38-2.82 4.07l-.66 5.2-.64 5.21c-.01.23-.37.25-.4.01 0 0-1.39-10.4-1.39-10.4-.41-2.52-2.63-4.55-5.18-4.76 0 0-2.61-.3-2.61-.3-.14-.01-.24-.14-.22-.27.01-.11.1-.2.21-.22l2.57-.38c5.51-.91 5.39-5.53 6.05-9.97.27-1.72.52-3.41.75-5.1zm0 .05c-.46 3.48-.71 6.86-1.21 10.33-.36 1.74-1.47 3.32-3.01 4.25-1.32.89-3.54 1.04-5.08 1.33 0 0-.01-.49-.01-.49l2.61.3c2.74.23 5.17 2.44 5.61 5.17.35 2.59 1 7.83 1.29 10.43h-.4s.68-5.22.68-5.22l.7-5.21c.44-2.69 2.83-4.85 5.54-5.06 0 0 2.61-.29 2.61-.29v.25s-2.57-.42-2.57-.42c-2.64-.34-4.93-2.44-5.46-5.05-.27-1.72-.44-3.42-.66-5.14l-.64-5.17z"/><path d="m105.01 265.29 2.85 21.37c.25 1.56.3 3.84 1.13 5.21.85 1.56 2.39 2.71 4.12 3.09l10.64 1.67c.07.01.11.07.1.14-3.5.69-7.33.83-10.9 1.39-1.74.36-3.26 1.57-4.04 3.16-.71 1.39-.73 3.73-.99 5.27 0 0-2.71 21.6-2.71 21.6 0 .11-.11.2-.23.19-.09-.01-.16-.09-.17-.17l-2.8-21.6c-.25-1.53-.29-3.87-.99-5.25-.77-1.56-2.27-2.75-3.98-3.1-3.55-.47-7.2-.84-10.79-1.27-.14-.02-.24-.14-.22-.28.01-.11.1-.2.21-.22 0 0 10.63-1.65 10.63-1.65 1.7-.37 3.22-1.5 4.06-3.03.82-1.34.88-3.65 1.13-5.18 0 0 2.94-21.35 2.94-21.35zm0 .05-2.63 21.39c-.24 1.6-.27 3.85-1.12 5.28-.87 1.63-2.48 2.85-4.29 3.26l-10.65 1.74v-.49c3.6.43 7.18.79 10.83 1.28 1.86.39 3.49 1.67 4.32 3.37.75 1.49.76 3.79 1.03 5.4 0 0 2.71 21.61 2.71 21.61h-.4v-.01c.18-1.37 3.09-23.91 3.14-24.29.1-2.8 2.14-5.44 4.94-5.98 3.62-.47 7.22-.83 10.83-1.26v.25s-10.65-1.72-10.65-1.72c-1.78-.4-3.37-1.59-4.23-3.2-.84-1.4-.88-3.68-1.12-5.25 0 0-2.71-21.36-2.71-21.36z"/><path d="m170.25 142.69c-.11 3.48-5.11 3.47-5.25 0 .03-3.63 5.25-3.65 5.25 0zm-.05 0c-.12-2.98-4.69-2.99-4.8 0 0 3.14 4.75 3.17 4.8 0z"/><path d="m182.9 161.28c-.1 2.76-4.03 2.8-4.18 0 .02-2.93 4.2-2.95 4.18 0zm-.05 0c-.1-2.28-3.63-2.29-3.73 0-.01 2.44 3.7 2.46 3.73 0z"/><path d="m155.79 183.23c-.1 2.76-4.03 2.8-4.18 0 .02-2.93 4.2-2.95 4.18 0zm-.05 0c-.1-2.28-3.63-2.29-3.73 0-.01 2.44 3.7 2.46 3.73 0z"/><path d="m213.7 121.88c-.1 2.76-4.03 2.8-4.18 0 .02-2.93 4.2-2.95 4.18 0zm-.05 0c-.1-2.28-3.63-2.29-3.73 0-.01 2.44 3.7 2.46 3.73 0z"/><path d="m100.62 199.3c-.1 2.76-4.03 2.8-4.18 0 .02-2.93 4.2-2.95 4.18 0zm-.05 0c-.1-2.28-3.63-2.29-3.73 0-.01 2.44 3.7 2.46 3.73 0z"/><path d="m134.94 301.36c-.1 2.76-4.03 2.8-4.18 0 .02-2.93 4.2-2.95 4.18 0zm-.05 0c-.1-2.28-3.63-2.29-3.73 0-.01 2.44 3.7 2.46 3.73 0z"/><path d="m104.75 209.39c-.06 2-2.93 2.05-3.05 0 0-2.17 3.07-2.23 3.05 0zm-.05 0c-.06-1.53-2.54-1.53-2.6 0-.05 1.67 2.59 1.73 2.6 0z"/><path d="m217.72 239.11c-.04 1.46-2.11 1.5-2.22 0-.03-1.61 2.28-1.67 2.22 0zm-.05 0c-.06-1-1.69-.99-1.77 0-.07 1.12 1.78 1.18 1.77 0z"/><path d="m95.36 289.9c-.04 1.46-2.11 1.5-2.22 0-.03-1.61 2.28-1.67 2.22 0zm-.05 0c-.06-1-1.69-.99-1.77 0-.07 1.12 1.78 1.18 1.77 0z"/><path d="m146.75 83.58c-.1 2.76-4.03 2.8-4.18 0 .02-2.93 4.2-2.95 4.18 0zm-.05 0c-.1-2.28-3.63-2.29-3.73 0-.01 2.44 3.7 2.46 3.73 0z"/><path d="m155.77 74.43c-.06 1.88-2.75 1.93-2.87 0-.02-2.04 2.91-2.1 2.87 0zm-.05 0c-.06-1.41-2.35-1.42-2.42 0-.05 1.55 2.41 1.61 2.42 0z"/><path d="m227.64 131.83c-.05 1.74-2.53 1.78-2.65 0-.02-1.9 2.7-1.96 2.65 0zm-.05 0c-.06-1.27-2.13-1.27-2.2 0-.05 1.41 2.2 1.47 2.2 0z"/><path d="m172.43 165.21c-.06 1.92-2.81 1.97-2.93 0-.02-2.08 2.97-2.14 2.93 0zm-.05 0c-.06-1.45-2.41-1.45-2.48 0-.05 1.59 2.47 1.65 2.48 0z"/><path d="m219.07 179.9c-.06 1.92-2.81 1.97-2.93 0-.02-2.08 2.97-2.14 2.93 0zm-.05 0c-.06-1.45-2.41-1.45-2.48 0-.05 1.59 2.47 1.65 2.48 0z"/><path d="m138.17 363.23c2.31-2.4 3.86-5.51 5.45-8.43 3.1-5.98 5.83-12.14 8.35-18.38 2.31-6.33 4.93-12.53 7.91-18.58 1.55-3 3.55-5.74 5.75-8.29 2.14-2.63 5.06-4.42 7.39-6.87 2.38-2.38 4.66-4.86 6.91-7.36 0 0 3.35-3.78 3.35-3.78 3.66-4.29 6.4-9.43 8.65-14.58.18-.95-.81-.46-1.28-.25-4.72 2.77-8.24 7.17-12.11 10.97-4.6 4.91-9.11 9.95-12.75 15.62-3.63 5.67-6.8 11.63-9.67 17.71-.02.06-.11.03-.1-.03 2.07-12.36 4.05-24.86 8.66-36.59 2.23-5.85 4.45-11.8 8.06-16.98 1.72-2.63 3.53-5.2 5.49-7.65 3.55-4.66 13.47-17.58 17.17-22.42 1.86-2.52 3.44-5.25 4.98-7.97 2.26-4.12 4.42-8.34 5.58-12.91 0 0 1.23-4.54 1.23-4.54 1.54-6.07 3.32-12.13 4.09-18.36.52-3.1 1.36-6.14 2.3-9.13l.11.09c-8.57 5.51-13.25 15.02-19.35 22.87-6.48 7.71-10.63 17.08-14.62 26.25-3.99 9.23-8.08 18.43-11.31 27.96-2.71 8.33-5.83 20.76-8.56 29.04-.45-10.3-1.2-20.89.42-31.18.87-5.1 1.65-10.3 3.48-15.16 1.73-4.88 3.23-9.93 6.02-14.34 3.45-3.91 5.89-8.51 8.18-13.16l1.78-3.46c1.84-3.4 2.79-7.27 3.32-11.07.49-5.16-.2-10.35.1-15.55.51-5.29 4.07-9.65 7.76-13.21 4.14-3.19 9.16-5.04 14.2-6.23 5.18-.84 9.6-4.27 11.72-9.07 1.09-2.31 2.01-4.85 1.61-7.42-.37-2.56-1.91-4.75-3.34-6.89-2.73-4.51-7.83-6.71-12.53-8.62-2.35-1.06-5.14-1.43-6.99-3.38-1.39-1.48-1.71-3.61-1.53-5.56.59-3.32 3.82-5.39 6.57-6.9 3.63-1.5 6.25-4.57 8.6-7.6 3.01-3.31 3.1-6.75.63-10.49-2.67-4.44-7.69-7.25-12.86-7.24 0 0 .03-.27.03-.27 2.53.81 4.62 2.49 6.53 4.26 2.59 2.56 5.81 6.56 3.93 10.36-2.47 4.48-7.01 7.59-11.66 9.49-5.07 1.8-11.19 6.18-11.16 12.1.19 2.34 1.74 4.29 3.27 6.02 1.62 1.71 3.08 3.59 4.66 5.31 1.59 1.72 3.55 3.11 5.81 3.73 2.26.58 4.61 1.57 6.04 3.57 2.76 4.14.63 9.96-3.21 12.64-1.89 1.45-4.08 2.47-6.36 3.11-2.28.63-4.67.66-6.9 1.45-4.57 1.41-7.95 5.01-10.13 9.16-3.47 6.01-4.59 14.11-11.57 17.3 0 0-.07-.3-.07-.3 5.23-.48 8.04-5.83 9.83-10.19 1.28-4.03 3.57-7.64 6.45-10.73 2.62-3.43 7.12-5 11.34-4.34.13.01.18.21.07.28-3.39 2.78-6.6 5.81-9.45 9.14-5.05 5.3-5.71 11.3-5.09 18.3.47 4.37.77 8.93-1.05 13.06-2.25 6.27-6.66 11.38-9.5 17.36-2.88 5.9-6.02 11.78-7.54 18.21-1.55 6.41-2.41 12.97-3.02 19.52 0 .2-.33.21-.34 0-2.36-17.2-3.16-34.59-6.42-51.66-1.5-8.47-3.23-17.16-5.14-25.52 0 0-2.85-12.71-2.85-12.71-.68-3.15-1.72-6.43-1.06-9.7.22-1.05.67-2.24 1.59-2.92 3.51-2.5 6.72-5.52 9.24-9.02 2.74-6.96-.37-7.52-6.03-4.09-.16.11-.36-.09-.27-.25 1.87-3.63 4.39-8.94 2.25-12.85-3.78-4.13-6.52 5.66-7.22 8.25-.05.22-.37.17-.38-.04-.11-1.41-.5-2.9-1.42-3.98-.87-1.05-2.68-1.6-3.46-.25-1.55 2.43-1.81 5.57-2.09 8.39 0 .22-.33.24-.38.04-.76-2.93-1.48-5.86-2.05-8.83-.12-1.38-.95-3.41.09-4.54 1.18-1.04 2.58-1.57 3.84-2.46 2.52-1.62 4.57-3.89 6.13-6.44.68-1.21 1.56-2.64 1.41-4.07-.22-1.57-2.25-1.59-3.49-1.38-.11.02-.21-.05-.23-.16.55-2.36 1.24-5.08.14-7.36-1.59-2.86-4.3-.53-5.59 1.34-.1.17-.37.06-.37-.12-.03-1.61.07-3.36-.76-4.78-.1-.17-.31-.32-.4-.33-5.81-1.89-6.74 9.58-7.05 13.35 0 .27-.41.23-.41 0-.75-5.11-2.43-10.14-3.77-15.13-.03-.09.01-.18.08-.23 2.14-1.57 4.79-3.13 5.75-5.71.26-.84-.17-1.73-.97-2.05-.11-.05-.16-.17-.11-.28 2.52-3.22 4.2-7.49 3.44-11.61-.32-1.9-1.56-2.62-3.33-1.43-.69.43-1.33.97-1.9 1.56-.12.14-.36.03-.36-.14-.04-1.58-.23-3.27-1.05-4.61-.86-1.43-2.72-1.58-3.76-.17-1.03 1.2-1.69 2.73-2.28 4.23-.57 1.52-1.04 3.09-1.41 4.67-.03.11-.14.18-.25.15-1.54-1.46-2.04-3.63-2.64-5.57-.45-2-1.12-4.1-1.12-6.11 2.52-2.21 4.54-5.06 5.77-8.18 1.09-2.57 2.41-7.89-1.84-7.81-.12 0-.22-.08-.23-.2.28-1.63.49-3.3.49-4.96-.05-1.54-.06-3.4-1.25-4.48-.27-.27-.64-.36-.97-.29-1.12.38-1.71 1.62-2.25 2.62-.72 1.47-1.26 3.05-1.7 4.63-.03.12-.17.19-.28.14-3.48-1.35-4.52 3.23-4.64 5.82 0 .22-.33.26-.4.07-1.31-2.96-1.33-6.35-.37-9.4.87-2.96 2.33-6.21 3.73-8.64 1.3-5.8.99-12.03-6.43-6.66-.1.07-.23.05-.31-.04-.03-.04-.04-.09-.04-.13v-1.45c-.03-3.15-1.28-7.28-4.93-7.61-.1 0-.18-.08-.2-.17-.4-1.64-1.29-3.17-2.5-4.35-6.99-5.62-7.27 1.12-6.45 6.88.01.09-.03.17-.1.22-3.55 2.2-2.23 5.91.1 8.49.74.86 1.56 1.66 2.43 2.37.14.1.09.33-.06.38-1.1.39-2.14 1.04-2.75 2.02-1.86 3.38 1.24 6.97 4.18 8.48 2.08 1.18 4.36 2.03 6.67 2.68.55.15 1.23.28 1.75.69 1.49 1.2 2.05 3.15 2.4 4.95.02.12-.06.23-.18.26-.07.01-.14 0-.18-.05-1.28-.97-2.88-2.46-4.52-2.11-1.42.77-.87 3.38-.65 4.74.03.12-.05.24-.17.27-.08.02-.17-.01-.22-.07-.99-1.18-2.28-2.15-3.77-2.54-1.73-.5-4.07-.12-5.06 1.44-.3 1.1.53 2.13 1.16 3 .97 1.22 2.13 2.31 3.33 3.31.1.08.11.22.03.32-.56.24-1.32.29-1.67.76-.62 1.04.63 2.12 1.36 2.84 3.09 3.07 7.48 4.58 11.8 4.49 1.26.07 2.54-.34 3.78-.16 1.34.24 2.28 1.34 2.95 2.44.66 1.1 1.12 2.29 1.44 3.53.06.2-.19.36-.35.24-2.14-1.66-6.81-4.42-6.54.53.03.23-.3.33-.42.15-1.14-1.78-4.19-3.09-5.68-1.06-.73 1.18-.82 2.66-.73 4.02 0 .11-.06.21-.16.24-1.79.37.92 3.05 1.37 3.84 2 2.81 3.92 5.76 7.09 7.37 1.49.86 3.1 1.53 4.74 2 .12.03.2.16.16.29-.18.28-.96.47-1.18.86-.2.26.09.57.48.81.77.45 1.69.73 2.59.98 1.83.49 3.71.82 5.59 1.1.62.26.81.76 1.16 1.24 1.82 3.15 3.09 6.57 4.4 9.95.1.25-.23.42-.39.24-.58-.62-1.12-1.29-1.76-1.85-1.94-1.94-4.56-3.06-5.04.72 0 .21-.29.28-.41.13-1.92-2.29-6.11-6.41-8.87-3.43-.38 1.12.34 2.31.87 3.31.83 1.41 1.86 2.73 2.95 3.97.16.16 0 .43-.21.39-1.8-.19-4-.99-5.38.55-.29.27-.25.71-.08 1.14 1.49 3.04 4.49 5.1 7.16 7.09 3.17 2.39 6.95 3.58 10.92 3.1 1 0 2.08-.25 3.04.13.98.52 1.54 1.4 2.06 2.25 1.94 3.48 2.99 7.32 3.96 11.16.07.24-.27.4-.42.21-2.26-2.54-6.74-7.91-10.47-6.75-2.4 1.33-.33 5.05.62 6.85.13.2-.11.44-.31.34-2.18-.91-4.66-1.96-7.04-1.49-2.91 1.08-.14 4.22 1.25 5.49 1.19 1.13 2.5 2.16 3.86 3.08.15.1.14.34-.02.42-1.89 1.09-1.14 3.04.21 4.27 4.21 3.73 10.5 4.05 15.79 4.94 2.06 2.77 2.78 6.13 3.8 9.35 2.8 9.65 4.84 19.5 6.77 29.35 2.85 13.09 4.32 26.43 5.86 39.72.04.25-.35.37-.45.13-4.1-7.86-9.26-18.81-13.88-26.2-5.08-8.5-11.86-15.8-18.63-22.96-5.43-5.06-9.59-11.34-14.63-16.75-.51-.59-2.52-1.88-2-.19.82.52 15.57 27.27 16.58 28.94 4.69 8.69 10.62 16.72 17.68 23.63 3.63 3.33 7.46 6.64 9.91 11.01 5.03 8.54 7.67 18.44 8.31 28.29.93 14.8.96 30.09-1.84 44.54-.07-.01-.12-.07-.13-.14 0 0-.29-4.58-.29-4.58-.17-4.6-1.36-9.07-2.38-13.53-1.34-5.99-3.49-11.72-5.81-17.39-2.34-5.65-4.52-11.41-7.9-16.53-3.31-5.13-6.97-10.09-11.08-14.61-4.28-4.4-9.68-7.45-14.95-10.54-5.17-3.14-10.5-6.73-16.8-6.59-4.49-.08-9.5 1.72-11.21 6.22-1.66 4.07-2.2 9.57 1.57 12.65 2.39 1.87 5.57 2.5 8.37 3.58 0 0-.1.15-.1.15-1.18-1.2-3.58-2.21-5.04-3.1-1.75-.89-3.65-2-4.29-4-.94-2.96.39-6.02 1.85-8.56 2.82-4.68 9.76-3.11 13.41-.3 4.6 3.81 8.82 8.1 12.5 12.79 3.41 4.89 7.28 9.45 11.35 13.8 2.66 2.98 6.01 5.2 8.83 8.01 2.84 2.78 5.54 5.75 8.1 8.75 5.26 5.17 7.78 12.41 9.54 19.4 1.24 5.32 2.13 10.76 2.18 16.24-.38 7.28-1.91 14.49-3.97 21.47-2.97 8.57-7.98 16.52-9.02 25.68zm-.02.04c.96-9.25 6.02-17.12 8.98-25.75 2.05-6.97 3.57-14.18 3.95-21.45-.04-5.46-.95-10.9-2.18-16.21-1.77-6.97-4.29-14.2-9.53-19.34-2.58-3.02-5.27-5.97-8.11-8.75-2.82-2.81-6.18-5.03-8.84-8.01-4.08-4.35-7.96-8.92-11.38-13.81-3.67-4.66-7.91-8.96-12.48-12.75-1.51-1.31-3.45-1.92-5.37-2.36-1.91-.4-4.02-.43-5.74.57-1.75.97-2.6 2.93-3.38 4.71-.71 1.82-1.16 3.88-.51 5.75.94 2.9 4.49 3.84 6.82 5.33.86.5 1.76.96 2.48 1.7.04.04.03.1 0 .13-2.75-.89-6.23-1.8-8.54-3.58-3.83-3.15-3.33-8.72-1.63-12.88 3.28-7.78 13.81-7.36 20.34-4.32 2.8 1.26 5.3 3.09 7.98 4.57 5.26 3.09 10.69 6.14 15 10.57 4.14 4.54 7.79 9.49 11.12 14.64 3.39 5.13 5.59 10.92 7.94 16.57 2.32 5.67 4.48 11.44 5.83 17.43 1.03 4.47 2.23 8.97 2.4 13.58 0 0 .29 4.59.29 4.59s-.3-.01-.3-.01c1.4-9.79 2.49-19.63 2.2-29.53-.16-7.39-.24-14.85-1.37-22.17-1.48-7.21-3.61-14.46-7.47-20.78-2.46-4.37-6.21-7.58-9.86-10.93-7.08-6.93-13.06-14.99-17.76-23.7-1.11-1.81-15.7-28.3-16.62-28.96-.26-.45-.16-1.35.51-1.42.88-.07 1.58.63 2.16 1.13 5.08 5.44 9.2 11.67 14.65 16.74 3.45 3.56 6.75 7.25 9.97 11.01 6.53 7.47 11.47 16.19 15.9 25.02 0 0 6.75 13.22 6.75 13.22l-.45.13c-.78-6.65-1.58-13.29-2.44-19.92-1.79-13.24-4.7-26.35-7.6-39.38-.83-3.23-1.69-6.47-2.59-9.69-.97-3.1-1.74-6.54-3.69-9.16 0 0 .16.08.16.08-1.87-.17-3.72-.44-5.57-.79-3.64-.78-7.55-1.56-10.36-4.21-1.56-1.42-2.32-3.78-.09-5.05 0 0-.02.42-.02.42-2.24-1.53-9.98-7.3-4.97-9.45 2.55-.52 5.07.56 7.38 1.52 0 0-.31.34-.31.34-1.02-1.94-2.38-4.34-1.48-6.54.72-1.39 2.6-1.46 3.86-.97 3.43 1.34 5.91 4.16 8.25 6.86 0 0-.42.21-.42.21-.85-3.05-3.04-12.67-6.38-13.22-2.71-.01-5.46.47-8.12-.4-3.39-.48-19.43-12.06-9.6-12.72 1.01.05 1.98.22 2.95.37l-.21.39c-1.12-1.26-2.15-2.59-3.01-4.05-.59-1.11-1.38-2.43-.89-3.74 1.32-2.03 4.31-1.34 5.96-.13 1.42.95 2.61 2.17 3.69 3.45 0 0-.41.13-.41.13.93-5.77 5.47-1.77 7.61.86 0 0-.4.23-.4.23-1.1-2.88-2.24-5.77-3.62-8.53-.46-.81-.87-1.84-1.62-2.38-1.73-.23-3.79-.62-5.59-1.1-1.13-.37-2.48-.6-3.32-1.57-.58-.84.62-1.57 1.24-1.8 0 0 .04.44.04.44-1.71-.48-3.33-1.16-4.86-2.04-3.99-2.07-6.16-6.15-8.77-9.63-.35-.57-.89-1.45-.27-2.07.21-.17.43-.27.66-.35 0 0-.16.24-.16.24-.12-1.9.05-4.4 2-5.31 2.01-.74 4.11.41 5.25 2.06 0 0-.42.15-.42.15-.19-5.4 4.64-3.05 7.25-.95 0 0-.36.23-.36.23-.66-2.17-1.61-4.99-4.03-5.62-2.54-.01-4.82.45-7.47-.15-2.5-.45-4.88-1.51-6.9-3.04-1.84-1.37-5.4-4.72-1.02-5.54 0 0-.1.4-.1.4-1.24-1.02-2.4-2.12-3.41-3.38-.7-.97-1.62-2.14-1.22-3.44.16-.46.55-.74.86-.97 2.85-2.03 6.74-.59 8.73 1.95 0 0-.39.19-.39.19-.65-2.73-.49-7.14 3.66-4.67.8.46 1.52 1.02 2.23 1.59 0 0-.36.2-.36.2-.33-1.68-.85-3.54-2.23-4.65-.44-.35-.99-.46-1.6-.62-3.48-1.03-7.07-2.33-9.72-4.92-2.83-2.9-2.9-7.71 1.59-9.1 0 0-.06.38-.06.38-.91-.74-1.73-1.55-2.49-2.43-1.47-1.76-2.93-4.02-2.25-6.43.37-1.18 1.27-2.07 2.24-2.72 0 0-.1.22-.1.22-.36-2.96-1.13-9.14 2.41-9.48 3.68.28 6.55 3.33 7.4 6.78 0 0-.21-.17-.21-.17 3.93.34 5.32 4.65 5.35 8.03v1.48s-.35-.18-.35-.18c7.56-5.44 8.67.43 7.12 7.08-1.53 2.75-2.83 5.66-3.74 8.68-.94 2.93-.91 6.26.34 9.08 0 0-.4.09-.4.09.22-2.25.56-5.13 2.81-6.28.8-.33 1.66-.17 2.42.09 0 0-.28.14-.28.14.73-2.4 1.46-4.9 3.13-6.84.3-.31.66-.61 1.14-.72 3.82-.16 2.66 7.78 2.24 10.17 0 0-.23-.25-.23-.25.91-.07 1.85.2 2.52.86 3.13 3.99-2.75 13.21-6.13 15.86 0 0 .07-.19.07-.19.69 3.78 1.15 8.12 3.61 11.2 0 0-.35.1-.35.1.83-3.18 1.69-6.45 3.79-9.08 1.19-1.53 3.36-1.54 4.42.22.89 1.48 1.07 3.19 1.11 4.84l-.36-.14c.6-.62 1.25-1.17 1.99-1.63 5.47-3.16 4.4 6.52 3.02 9.22-.64 1.58-1.5 3.05-2.57 4.4l-.08-.33c.48.22.88.56 1.12 1.03 1.07 3-3.77 5.94-5.82 7.46 0 0 .08-.23.08-.23 1.07 3.77 2.13 7.54 3.05 11.36.29 1.28.62 2.53.73 3.89h-.41c.38-4.07.95-12.17 5.26-13.86.64-.29 1.86-.04 2.2.12.4.07.56.29.72.5.9 1.5.8 3.35.83 5.02 0 0-.37-.12-.37-.12.77-1.03 1.64-2.01 2.84-2.61 1.25-.69 2.85.07 3.43 1.3 1.14 2.41.51 5.13-.11 7.57 0 0-.23-.25-.23-.25.96-.16 1.99-.17 2.91.24 2.22 1.3.53 4.17-.41 5.81-1.59 2.59-3.69 4.91-6.26 6.56-1.21.85-2.68 1.45-3.78 2.41-.53.46-.39 1.24-.33 1.98.08.74.21 1.48.34 2.22.56 2.96 1.28 5.89 2.04 8.8l-.38.04c.11-1.48.3-2.95.6-4.41.44-1.73.8-3.92 2.45-4.98 2.96-.97 4.62 2.84 4.69 5.23 0 0-.38-.04-.38-.04.81-2.99 3.63-12.92 7.9-8.39 2.29 4.06-.29 9.52-2.22 13.27 0 0-.27-.25-.27-.25 2.56-1.68 8.48-4.23 7.53 1.29-.37 3.48-2.94 5.93-5.28 8.27-1.57 1.52-3.25 2.91-5.04 4.18-.8.58-1.23 1.67-1.44 2.69-.64 3.22.39 6.4 1.06 9.55 2.19 9.98 5.03 21.86 6.8 31.84 1.14 6.17 2.43 13.07 3.28 19.26 1.5 12.94 2.62 25.9 4.31 38.82h-.34c.91-8.73 1.86-17.64 5.02-25.89 3.38-8.14 7.46-15.98 12.27-23.35 2.08-3.79 4-7.93 4.23-12.3.04-2.18-.26-4.37-.4-6.57-.29-4.37-.39-8.97 1.43-13.06 3.09-5.89 8.25-10.38 13.24-14.65 0 0 .07.28.07.28-4.12-.64-8.48.89-11.04 4.23-1.64 1.88-3.27 3.82-4.46 6.02-1.54 2.96-2.33 6.31-4.16 9.15-1.72 2.84-4.36 5.62-7.88 5.84-.08 0-.16-.06-.16-.14 0-.07.04-.13.1-.15 2.09-.98 3.87-2.63 5.25-4.5 1.42-1.87 2.33-4.04 3.16-6.25 1.81-4.34 3.83-8.76 7.21-12.12 1.77-1.6 3.84-2.84 6.11-3.59 2.24-.8 4.65-.84 6.92-1.45 4.36-1.26 8.96-4.02 10.23-8.63.58-2.23.55-4.76-.82-6.67s-3.63-2.88-5.88-3.46c-2.31-.63-4.33-2.07-5.94-3.81-1.61-1.75-3.04-3.6-4.67-5.31-2.46-2.52-4.46-6.23-2.66-9.69 2.05-4.36 6.22-7.31 10.66-8.88 3.52-1.32 6.65-3.52 9.28-6.22 1.68-1.8 3.44-4.25 2.58-6.8-.72-2.47-2.38-4.58-4.22-6.36-1.85-1.73-3.97-3.42-6.4-4.2-.16-.02-.13-.28.03-.27 5.28-.01 10.38 2.85 13.1 7.37 2.49 3.8 2.46 7.39-.65 10.79-2.36 3.06-5.03 6.17-8.69 7.68-2.25 1.16-4.47 2.72-5.81 4.91-1.21 2.15-.78 5.29.85 7.13 1.8 1.89 4.59 2.27 6.9 3.31 2.41.95 4.8 2.01 7.03 3.37 2.23 1.32 4.28 3.1 5.62 5.35 1.42 2.14 2.99 4.35 3.38 6.99.41 2.64-.54 5.23-1.64 7.56-2.14 4.84-6.66 8.37-11.89 9.2-4.98 1.17-10.01 3.02-14.09 6.17-3.63 3.5-7.18 7.84-7.68 13.05-.3 5.16.39 10.36-.11 15.55-.53 3.85-1.5 7.72-3.35 11.16 0 0-1.78 3.45-1.78 3.45-2.28 4.64-4.76 9.3-8.2 13.19-2.77 4.38-4.27 9.43-6 14.29-1.83 4.85-2.61 10.03-3.48 15.12-1.69 10.26-.75 20.7-.5 31.05 0 0-.19-.02-.19-.02 2.54-8.54 5.82-20.64 8.45-28.97 5.12-14.19 10.99-28.15 17.75-41.63 2.37-4.43 4.88-8.85 8.23-12.62 6.1-7.85 10.81-17.39 19.4-22.9.06-.04.14.03.11.09-.93 2.99-1.78 6.02-2.29 9.11-.77 6.23-2.56 12.29-4.1 18.37-.76 2.58-1.64 6.55-2.7 9.02-1.18 2.92-2.62 5.71-4.13 8.46-1.54 2.73-3.12 5.46-4.99 7.99-3.73 4.83-13.55 17.72-17.18 22.42-1.96 2.44-3.77 5.01-5.49 7.64-3.6 5.17-5.81 11.1-8.05 16.95-4.6 11.72-6.59 24.21-8.66 36.56 0 0-.1-.03-.1-.03 2.87-6.09 6.04-12.05 9.68-17.72 3.65-5.68 8.17-10.72 12.77-15.63 3.88-3.8 7.4-8.22 12.14-10.99.48-.29 1.63-.65 1.4.34-1.46 3.71-3.58 7.17-5.64 10.58-1.54 2.72-4.41 5.45-6.39 7.81-2.25 2.5-4.54 4.98-6.92 7.36-2.32 2.45-5.24 4.23-7.39 6.86-2.2 2.54-4.2 5.28-5.74 8.27-2.99 6.04-5.61 12.24-7.92 18.57-3.2 7.78-6.56 15.53-10.83 22.79-.88 1.43-1.83 2.89-3.05 4.04z"/><path d="m101.47 64.23c1.13.27 2.48.49 3.4 1.2.12 3.67 1.01 7.25 2.14 10.74-.51-.57-.9-1.69-1.21-2.51-.92-2.63-1.15-5.46-1.17-8.23 0 0 .06.11.06.11-.93-.63-2.31-.93-3.21-1.3z"/><path d="m110.91 86.7c1.66.89 3.51 1.68 4.9 2.92-.16 3.63.28 7.26 1.19 10.76.32 1.17.79 2.32 1.25 3.42-1.43-1.97-2.13-4.48-2.49-6.88-.31-2.43-.38-4.88-.21-7.32l.05.11c-1.38-1.17-3.3-2.09-4.69-3.02z"/><path d="m134.48 146.33c.03 4.37.88 8.69 1.31 13-1.46-4.05-1.51-8.87-1.31-13z"/><path d="m132.27 148.15c.83 1.01 2.18 2.18 2.16 3.5-.54-.48-.86-1.06-1.16-1.7-.33-.6-.67-1.19-1.04-1.78-.02-.02.02-.05.04-.03z"/><path d="m141.83 142.15c1.84 5.27 1.04 11.34-1.38 16.29-.01.03-.06.01-.05-.02 1.55-5.21 2.99-11.03 1.43-16.27z"/><path d="m147.14 146.93c-1.76 1.35-2.95 3.39-4.79 4.58.97-1.78 3.16-3.63 4.79-4.58z"/><path d="m122.03 148.52c3.29 3.91 6.8 7.78 10.92 10.79-2.44-.88-4.33-2.91-6.07-4.78-1.67-1.89-3.57-4-4.86-6z"/><path d="m119.83 156.03c3.41-1.04 7.43-.25 10.47 1.47-3.39-.73-7.06-2.28-10.47-1.47z"/><path d="m125.77 120.59c.18 3.27.75 6.53 1.02 9.76-1.28-2.88-1.08-6.78-1.02-9.76z"/><path d="m134.37 112.38c-4.67 5.38-5.42 12.79-4.9 19.63 0 .03-.05.04-.05 0-1.5-6.71.19-14.73 4.95-19.64z"/><path d="m140.19 118.47c-1.83 3.88-3.5 8.26-6.85 11.06 2.54-3.46 4.88-7.39 6.85-11.06z"/><path d="m110.85 122.45c6.16 1.67 12.43 4.26 17.17 8.6-5.32-3.48-11.18-6.76-17.17-8.6z"/><path d="m116.26 118.3c1.32 2.2 3.09 4.54 3.16 7.17-1.06-2.33-2.09-4.97-3.16-7.17z"/><path d="m123.46 119.29c.78.91 2.04 1.7 2.29 2.91-.6-.29-.98-.78-1.3-1.33-.35-.51-.69-1.02-1.02-1.55-.02-.02.01-.05.04-.03z"/><path d="m124.61 85.56c-.42 5.22-.67 10.86-3.23 15.51 1.58-4.99 2.61-10.44 3.23-15.51z"/><path d="m126.71 97.29c-1.78-.29-3.13.85-4.52 1.75-.02.01-.05 0-.04-.03.36-.83 1.12-1.43 1.98-1.68.77-.26 1.99-.42 2.58-.04z"/><path d="m104.04 87.46c1.33 3.76 3.56 7.2 6.36 10.02 2.89 2.72 6.21 5.21 8.31 8.66.02.03-.03.05-.04.02-2.53-3.12-5.75-5.52-8.55-8.4-2.7-2.88-5.09-6.61-6.07-10.3z"/><path d="m97.17 90.55c.96-.48 2.07-.13 3.04.12 2.93.97 5.7 2.5 7.99 4.57.02.02 0 .06-.03.04-3.18-1.57-5.97-4.03-9.5-4.78-.49-.08-1.03-.13-1.47.09-.02.02-.07-.02-.03-.04z"/><path d="m109.68 59.41c3.35.77 2.41 11.06 1.69 13.7 0 .03-.05.02-.05 0-.19-3.13 1.62-12.38-1.64-13.69z"/><path d="m115.77 61.97c-2.18.18-2.64 2.91-3.9 4.31-.01.02-.05 0-.05-.02.25-1.57 1.22-2.96 2.46-3.93.43-.29.97-.54 1.5-.41.03.01.02.06-.02.05z"/><path d="m95.97 67.11c1.93 4.66 5.44 8.51 9.69 11.18.03.01 0 .06-.02.05-4.73-1.82-8.14-6.71-9.66-11.23z"/><path d="m91.29 72.61c3.23-.06 6.74.45 9.52 2.12-3.13-.69-6.41-1.98-9.52-2.12z"/><path d="m101.38 40.67c-1.49 3.84-1.31 8.02-1.26 12.03-1.13-3.85-.37-8.57 1.26-12.03z"/><path d="m89.36 45.18c2.91-.24 6.19 1.36 7.54 3.97-2.16-1.92-4.6-3.92-7.54-3.97z"/><path d="m96.25 31.4c-2.99 2.1-2.87 6.13-2.22 9.34.06.4.37 1.42.24 1.47-1.78-3.38-1.55-8.87 1.98-10.81z"/><path d="m86.84 33.96c2.73-.67 5.53 2.17 6.62 4.44-.52-.27-1-1.04-1.5-1.47-1.29-1.49-3.11-3.24-5.12-2.97z"/><path d="m213.68 184.48c-5.9 11.41-11.73 22.85-18.21 33.95-6.83 10.88-12.88 22.2-18.88 33.54-.01.03-.06 0-.04-.02 5.56-11.57 11.61-22.95 18.59-33.73 6.58-10.96 12.51-22.65 18.56-33.74z"/><path d="m203.2 214.84-13.81 22.49c-4.6 7.51-9.89 14.56-15.19 21.59-.02.03-.06 0-.04-.03 4.89-7.31 10.15-14.37 14.89-21.77.04.03 14.11-22.49 14.15-22.28z"/><path d="m198.79 205.35c-6.81 11.4-13.4 24.36-19.67 36.11-.01.03-.06 0-.04-.02 5.62-12.45 12.57-24.63 19.71-36.09z"/><path d="m99.31 235.52c4.83 3.55 9.35 7.61 12.99 12.41 3.38 4.96 7.2 9.6 11.49 13.79 4.21 4.27 9.17 7.71 13.42 12 4.23 4.3 7.31 9.63 9.63 15.16.01.03-.03.05-.05.02-2.56-5.38-5.64-10.65-9.94-14.83-4.24-4.24-9.17-7.75-13.35-12.07-4.27-4.24-8.07-8.94-11.41-13.93-3.5-4.83-8.24-8.97-12.79-12.56z"/><path d="m106.15 237.68c6.34 4.17 12.38 8.92 17.31 14.71 4.62 5.89 8.93 12.43 13.11 18.62.02.02-.02.05-.04.03-4.57-5.89-8.91-12.43-13.38-18.4-4.77-5.84-11.01-10.7-17.01-14.97z"/><path d="m123.08 248.41c4.48 5.09 9 10.22 12.66 15.96 1.94 3.6 3.28 7.43 5.4 10.96.02.03-.02.05-.04.03-2.44-3.27-3.9-7.16-5.78-10.73-3.44-5.78-8.14-11.07-12.24-16.21z"/><path d="m112.24 190.29c3.97 7.85 8.06 15.74 13.24 22.86 5.45 6.93 12.12 12.87 17.2 20.09.02.02-.02.05-.04.03-5.49-6.92-12.14-12.82-17.48-19.88-5.06-7.19-9.29-15.28-12.92-23.1z"/><path d="m120.48 199.28c4.79 5.03 9.5 10.2 13.49 15.91 2.25 3.52 4.29 7.16 6.29 10.83.01.03-.03.05-.04.02-3.16-4.58-5.7-9.54-9.04-13.99-3.28-4.42-7.19-8.72-10.69-12.78z"/><path d="m135.78 165.63c2.63 1.28 5.01.75 6.56-1.78.01-.02.05 0 .05.02-.65 3.24-4.54 3.35-6.61 1.76z"/></svg>