<?xml version="1.0" encoding="UTF-8"?>
<svg id="Layer_1" data-name="Layer 1" xmlns="http://www.w3.org/2000/svg" xmlns:xlink="http://www.w3.org/1999/xlink" viewBox="0 0 289.13 430.87">
  <defs>
    <style>
      .cls-1, .cls-2 {
        fill: none;
      }

      .cls-3 {
        fill: #fcf0fa;
      }

      .cls-3, .cls-4, .cls-5, .cls-2, .cls-6, .cls-7 {
        stroke: #000;
      }

      .cls-3, .cls-4, .cls-2, .cls-6, .cls-7 {
        stroke-linecap: round;
        stroke-linejoin: round;
      }

      .cls-4 {
        fill: #bac689;
      }

      .cls-4, .cls-5, .cls-2, .cls-6, .cls-7 {
        stroke-width: .5px;
      }

      .cls-8 {
        font-family: SUIT-Regular-KSCpc-EUC-H, SUIT;
      }

      .cls-8, .cls-9 {
        font-size: 14px;
      }

      .cls-10, .cls-7 {
        fill: #cebaca;
      }

      .cls-11 {
        clip-path: url(#clippath-1);
      }

      .cls-12 {
        clip-path: url(#clippath-2);
      }

      .cls-5 {
        fill: #f4f9fd;
        stroke-miterlimit: 10;
      }

      .cls-13 {
        fill: #fff;
      }

      .cls-9 {
        font-family: 'IM_FELL_Double_Pica_SC', 'IM FELL Double Pica SC';
      }

      .cls-6 {
        fill: #f9f1ac;
      }

      .cls-14 {
        letter-spacing: -.06em;
      }

      .cls-15 {
        letter-spacing: -.01em;
      }

      .cls-16 {
        clip-path: url(#clippath);
      }

      .cls-17 {
        letter-spacing: .02em;
      }
    </style>
    <clipPath id="clippath">
      <rect class="cls-1" x="-295.11" y="35.22" width="261.08" height="360.43" rx="30" ry="30"/>
    </clipPath>
    <clipPath id="clippath-1">
      <rect class="cls-1" x="14.03" y="35.22" width="261.08" height="360.43" rx="30" ry="30"/>
    </clipPath>
    <clipPath id="clippath-2">
      <rect class="cls-1" x="323.16" y="35.22" width="261.08" height="360.43" rx="30" ry="30"/>
    </clipPath>
  </defs>
  <rect class="cls-3" width="289.13" height="430.87"/>
  <rect class="cls-5" x="14.03" y="35.22" width="261.08" height="360.43" rx="30" ry="30"/>
  <text class="cls-9" transform="translate(103.41 23.6)"><tspan class="cls-17" x="0" y="0">L</tspan><tspan class="cls-14" x="10.42" y="0">A</tspan><tspan x="18.48" y="0">VEN</tspan><tspan class="cls-15" x="50.96" y="0">D</tspan><tspan x="62.21" y="0">ER</tspan></text>
  <text class="cls-8" transform="translate(107.37 418.65)"><tspan x="0" y="0">라벤더 · 평온</tspan></text>
  <g class="cls-16">
    <g>
      <rect class="cls-13" x="-190.96" y="349.1" width="274.52" height="7.79" rx="3.89" ry="3.89"/>
      <g>
        <circle class="cls-13" cx="43.77" cy="347.59" r="2.51"/>
        <path class="cls-13" d="M-145.18,350.66H33.63v-1.71H13.99l-6.02-3.32-6.71,1.13-24.73-.3s5.37-6.8,13.32-6.8,11.41,7.1,11.41,7.1c0,0,1.11-3.55,5.74-3.55s6.98,5.75,6.98,5.75h12.58"/>
        <polygon class="cls-13" points="-140.19 350.37 -125.64 348.95 -116.44 342.66 -108.69 334.5 -96.63 329.47 -68.53 328 -42.26 329.47 -27.3 344.03 -23.46 346.45 -6.83 344.33 1.27 346.75 7.01 343.2 11.64 346.43 13.99 348.95 12.25 350.37 -140.19 350.37"/>
      </g>
      <g>
        <line class="cls-2" x1="60.2" y1="356.49" x2="64.28" y2="356.49"/>
        <line class="cls-2" x1="68.41" y1="356.49" x2="82.14" y2="356.49"/>
        <line class="cls-2" x1="-4.16" y1="356.49" x2="56.29" y2="356.49"/>
        <path class="cls-2" d="M-23.46,346.59s5.37-6.8,13.32-6.8,11.41,7.1,11.41,7.1c0,0,1.11-3.55,5.74-3.55s6.98,5.75,6.98,5.75h12.58"/>
        <line class="cls-2" x1="29.34" y1="349.08" x2="33.63" y2="349.08"/>
        <circle class="cls-2" cx="43.77" cy="347.73" r="2.51"/>
      </g>
    </g>
  </g>
  <g class="cls-11">
    <g>
      <rect class="cls-13" x="112.49" y="318.4" width="273.51" height="17.97" rx="8.99" ry="8.99"/>
      <g>
        <path class="cls-13" d="M182.92,328.75c0-4.3,2.6-7.78,5.81-7.78,2.24,0,4.19,1.7,5.16,4.2"/>
        <path class="cls-13" d="M191.96,321.9c1.98-3.68,5.52-6.14,9.56-6.14,6.21,0,11.25,5.81,11.25,12.98"/>
        <path class="cls-13" d="M167.91,314.66c-1.47-2.64-4.28-4.43-7.52-4.43-4.74,0-8.59,3.85-8.59,8.59v5.05h195.4l-.21-6.77-18.8-2.26-9.19-14.17-19.5.7-12.8,8.81-9.58-9.51-7.34-2.4-8.85-1.11-12.16-15.64-12.52-1.87-13.47,12.15-7.87,8.51-12.55-5.41-6.34,1.08-7.62,4.62-19.03,6.88-1.47,7.16Z"/>
        <path class="cls-13" d="M196.97,301.34c-2.81-5.06-8.21-8.48-14.4-8.48-9.09,0-16.46,7.37-16.46,16.46v3.09"/>
        <path class="cls-13" d="M193.53,297.04c2.44-3.88,6.47-6.28,11.16-6.28,5.11,0,9.57,3.04,11.88,7.52v7.55"/>
        <path class="cls-13" d="M191.1,308.77c0-3.97,2.86-7.19,6.39-7.19s6.39,3.22,6.39,7.19"/>
        <path class="cls-13" d="M241.21,277.89c-21.19,0-24.64,20.39-24.64,20.39"/>
        <path class="cls-13" d="M241.53,277.89c21.19,0,24.64,20.39,24.64,20.39v4.72"/>
        <path class="cls-13" d="M266.24,297.91c2.06-2.81,5.78-4.68,10.02-4.68,6.49,0,11.75,4.37,11.75,9.77v8.62"/>
        <path class="cls-13" d="M288.01,311.62c0-8.95,8.99-16.21,20.09-16.21s20.09,7.26,20.09,16.21v5.61"/>
        <path class="cls-13" d="M243.94,315.13c0-2.67,2.17-4.84,4.84-4.84s4.84,2.17,4.84,4.84"/>
        <path class="cls-13" d="M270.52,317.28c1.11-1.5,2.98-2.49,5.11-2.49,3.4,0,6.16,2.53,6.16,5.65h14.2"/>
        <path class="cls-13" d="M249.77,310.39c1.78-4.65,6.28-7.96,11.56-7.96,6.83,0,12.37,5.54,12.37,12.37"/>
        <circle class="cls-13" cx="213.31" cy="282.9" r="2.75"/>
        <path class="cls-13" d="M244.42,285.34s13.27.89,13.27,12.95"/>
      </g>
      <polygon class="cls-13" points="162.98 315.13 169.12 308.77 177.25 309.47 169.41 318.4 162.98 315.13"/>
      <polygon class="cls-13" points="235.16 280.15 242.46 283.9 248.78 282.02 241.21 277.89 235.16 280.15"/>
      <g>
        <line class="cls-2" x1="143.98" y1="335.56" x2="339.66" y2="335.56"/>
        <line class="cls-2" x1="113.49" y1="327.94" x2="166.1" y2="327.94"/>
        <line class="cls-2" x1="212.77" y1="327.94" x2="316.5" y2="327.94"/>
        <line class="cls-2" x1="137.36" y1="318.4" x2="151.81" y2="318.4"/>
        <line class="cls-2" x1="171.7" y1="327.94" x2="182.79" y2="327.94"/>
        <path class="cls-2" d="M182.92,327.94c0-4.3,2.6-7.78,5.81-7.78,2.24,0,4.19,1.7,5.16,4.2"/>
        <path class="cls-2" d="M191.96,321.1c1.98-3.68,5.52-6.14,9.56-6.14,6.21,0,11.25,5.81,11.25,12.98"/>
        <path class="cls-2" d="M167.91,313.85c-1.47-2.64-4.28-4.43-7.52-4.43-4.74,0-8.59,3.85-8.59,8.59h0"/>
        <path class="cls-2" d="M196.97,300.53c-2.81-5.06-8.21-8.48-14.4-8.48-9.09,0-16.46,7.37-16.46,16.46v3.09"/>
        <path class="cls-2" d="M193.53,296.23c2.44-3.88,6.47-6.28,11.16-6.28,5.11,0,9.57,3.04,11.88,7.52v7.55"/>
        <path class="cls-2" d="M191.1,307.97c0-3.97,2.86-7.19,6.39-7.19s6.39,3.22,6.39,7.19"/>
        <path class="cls-2" d="M216.58,297.48s3.45-20.39,24.64-20.39"/>
        <path class="cls-2" d="M241.53,277.08c21.19,0,24.64,20.39,24.64,20.39v4.72"/>
        <path class="cls-2" d="M266.24,297.1c2.06-2.81,5.78-4.68,10.02-4.68,6.49,0,11.75,4.37,11.75,9.77v8.62"/>
        <path class="cls-2" d="M288.01,310.81c0-8.95,8.99-16.21,20.09-16.21s20.09,7.26,20.09,16.21v5.61"/>
        <path class="cls-2" d="M243.94,314.32c0-2.67,2.17-4.84,4.84-4.84s4.84,2.17,4.84,4.84"/>
        <path class="cls-2" d="M270.52,316.48c1.11-1.5,2.98-2.49,5.11-2.49,3.4,0,6.16,2.53,6.16,5.65h14.2"/>
        <path class="cls-2" d="M249.77,309.58c1.78-4.65,6.28-7.96,11.56-7.96,6.83,0,12.37,5.54,12.37,12.37"/>
        <circle class="cls-2" cx="213.31" cy="282.09" r="2.75"/>
        <path class="cls-2" d="M244.42,284.53s13.27.89,13.27,12.95"/>
      </g>
    </g>
    <g>
      <rect class="cls-13" x="-88.38" y="119.12" width="273.51" height="17.97" rx="8.99" ry="8.99"/>
      <g>
        <path class="cls-13" d="M-8.92,122.63c1.98-3.68,5.52-6.14,9.56-6.14,6.21,0,11.25,5.81,11.25,12.98"/>
        <path class="cls-13" d="M-32.97,115.39c-1.47-2.64-4.28-4.43-7.52-4.43-4.74,0-8.59,3.85-8.59,8.59v5.05h195.4l-.21-6.77-18.8-2.26-9.19-14.17-19.5.7-12.8,8.81-9.58-9.51-7.34-2.4-8.85-1.11-12.16-15.64-12.52-1.87-13.47,12.15-7.87,8.51-12.55-5.41-6.34,1.08-7.62,4.62-19.03,6.88-1.47,7.16Z"/>
        <path class="cls-13" d="M-7.34,97.76c2.44-3.88,6.47-6.28,11.16-6.28,5.11,0,9.57,3.04,11.88,7.52v7.55"/>
        <path class="cls-13" d="M-9.78,109.5c0-3.97,2.86-7.19,6.39-7.19s6.39,3.22,6.39,7.19"/>
        <path class="cls-13" d="M40.34,78.62c-21.19,0-24.64,20.39-24.64,20.39"/>
        <path class="cls-13" d="M40.65,78.62c21.19,0,24.64,20.39,24.64,20.39v4.72"/>
        <path class="cls-13" d="M65.37,98.63c2.06-2.81,5.78-4.68,10.02-4.68,6.49,0,11.75,4.37,11.75,9.77v8.62"/>
        <path class="cls-13" d="M87.14,112.35c0-8.95,8.99-16.21,20.09-16.21s20.09,7.26,20.09,16.21v5.61"/>
        <path class="cls-13" d="M127.32,117.84c0-3.82,4.21-6.91,9.4-6.91s9.4,3.1,9.4,6.91v2.4h21.04"/>
        <path class="cls-13" d="M43.06,115.85c0-2.67,2.17-4.84,4.84-4.84s4.84,2.17,4.84,4.84"/>
        <path class="cls-13" d="M69.65,118.01c1.11-1.5,2.98-2.49,5.11-2.49,3.4,0,6.16,2.53,6.16,5.65h14.2"/>
        <path class="cls-13" d="M48.89,111.11c1.78-4.65,6.28-7.96,11.56-7.96,6.83,0,12.37,5.54,12.37,12.37"/>
        <circle class="cls-13" cx="107.53" cy="121.4" r="2.75"/>
        <circle class="cls-13" cx="91.52" cy="86.06" r="2.75"/>
        <circle class="cls-13" cx="12.43" cy="83.63" r="2.75"/>
        <path class="cls-13" d="M43.54,86.06s13.27.89,13.27,12.95"/>
        <path class="cls-13" d="M117.12,105.2c2.16,2.01,4.09,5.05,4.6,9.61"/>
        <path class="cls-13" d="M109.81,101.41s1.74.28,3.9,1.4"/>
      </g>
      <polygon class="cls-13" points="34.28 80.88 41.58 84.62 47.9 82.75 40.34 78.62 34.28 80.88"/>
      <g>
        <line class="cls-2" x1="171.62" y1="119.43" x2="179.2" y2="119.43"/>
        <line class="cls-2" x1="-56.9" y1="136.29" x2="138.79" y2="136.29"/>
        <line class="cls-2" x1="11.89" y1="128.67" x2="115.62" y2="128.67"/>
        <line class="cls-2" x1="122.94" y1="128.67" x2="128.56" y2="128.67"/>
        <line class="cls-2" x1="133.17" y1="128.67" x2="184.42" y2="128.67"/>
        <path class="cls-2" d="M-8.92,121.82c1.98-3.68,5.52-6.14,9.56-6.14,6.21,0,11.25,5.81,11.25,12.98"/>
        <path class="cls-2" d="M-7.34,96.96c2.44-3.88,6.47-6.28,11.16-6.28,5.11,0,9.57,3.04,11.88,7.52v7.55"/>
        <path class="cls-2" d="M-9.78,108.7c0-3.97,2.86-7.19,6.39-7.19s6.39,3.22,6.39,7.19"/>
        <path class="cls-2" d="M15.7,98.2s3.45-20.39,24.64-20.39"/>
        <path class="cls-2" d="M40.65,77.81c21.19,0,24.64,20.39,24.64,20.39v4.72"/>
        <path class="cls-2" d="M65.37,97.83c2.06-2.81,5.78-4.68,10.02-4.68,6.49,0,11.75,4.37,11.75,9.77v8.62"/>
        <path class="cls-2" d="M87.14,111.54c0-8.95,8.99-16.21,20.09-16.21s20.09,7.26,20.09,16.21v5.61"/>
        <path class="cls-2" d="M127.32,117.03c0-3.82,4.21-6.91,9.4-6.91s9.4,3.1,9.4,6.91v2.4h21.04"/>
        <path class="cls-2" d="M43.06,115.05c0-2.67,2.17-4.84,4.84-4.84s4.84,2.17,4.84,4.84"/>
        <path class="cls-2" d="M69.65,117.21c1.11-1.5,2.98-2.49,5.11-2.49,3.4,0,6.16,2.53,6.16,5.65h14.2"/>
        <path class="cls-2" d="M48.89,110.31c1.78-4.65,6.28-7.96,11.56-7.96,6.83,0,12.37,5.54,12.37,12.37"/>
        <circle class="cls-2" cx="107.53" cy="120.6" r="2.75"/>
        <circle class="cls-2" cx="91.52" cy="85.26" r="2.75"/>
        <circle class="cls-2" cx="12.43" cy="82.82" r="2.75"/>
        <path class="cls-2" d="M43.54,85.26s13.27.89,13.27,12.95"/>
        <path class="cls-2" d="M117.12,104.4c2.16,2.01,4.09,5.05,4.6,9.61"/>
        <path class="cls-2" d="M109.81,100.61s1.74.28,3.9,1.4"/>
      </g>
    </g>
  </g>
  <g>
    <path class="cls-4" d="M140.61,367.41c-4.7.38-6.26-4.12-6.26-4.12,0,0-9.94-18.73-23.85-27.16-13.92-8.43-45.33-32.41-45.12-38.03.21-5.62,6.33-3.3,9.7-2.04,3.37,1.27,22.84,13.07,26.39,17.71,3.55,4.64,24.64,26.15,27.17,31.42,0,0-8.83-28.89-24.24-45.33-15.41-16.45-51.04-71.82-49.14-76.29,1.9-4.47,29.31,21.89,32.26,26.52,2.95,4.64,11.31,20.66,14.62,27.83,3.31,7.17,16.38,35.21,16.38,35.21,0,0-18.1-90.73-13.03-92.5l4.85-2.1s1.59,57.97,8.24,72.67c0,0,.18-47.7,11.11-58.06.98-.93,2.6-.42,2.92.89,1.45,5.87,3.84,23.59-4.16,63.61,0,0-3.83,37.85,10.07,64.03,0,0,16.88-129.55,10.75-133.03l8.99,1.57s-2.84.8-3.61,12.47c-.77,11.67-5.56,85.85-7.24,94.92l-3.01,24.55,4.5-5.15c14.75-21.03,12.51-48.57,12.51-48.57-4.01-34.7-.39-49.55,1.4-54.41.4-1.08,1.92-1.37,2.73-.5,9.08,9.76,5.36,50.3,5.36,50.3,7.23-11.91,13.41-61.03,13.41-61.03l4.24,2.21c4.46,1.95-19.38,77.46-19.38,77.46,0,0,14.16-22.69,17.75-28.49,3.59-5.8,12.49-18.69,15.55-22.38,3.06-3.68,30.11-23.69,31.47-19.73s-35.53,47.91-50.86,60.54c-15.34,12.63-25.71,36.41-25.71,36.41,2.73-4.26,23.64-20.7,27.24-24.33,3.6-3.63,22.25-11.97,25.42-12.75,3.17-.78,8.91-2.22,8.65,2.58-.27,4.79-30.76,22.43-44.09,28.38-10.66,4.76-19.55,15.35-22.68,19.39-1.58,2.04-3.61,3.72-6,4.72-.69.29-1.44.54-2.25.73l-3.02-.12Z"/>
    <path d="M79.34,254.2c5.48,7.52,10.96,15.04,16.43,22.56,1.57,2.15,3.13,4.3,4.7,6.45.11.15.37,0,.26-.15-5.48-7.52-10.96-15.04-16.43-22.56-1.57-2.15-3.13-4.3-4.7-6.45-.11-.15-.37,0-.26.15h0Z"/>
    <path d="M81.94,264.89c6.13,7.62,12.26,15.25,18.39,22.87,1.75,2.17,3.49,4.35,5.24,6.52.12.15.33-.06.21-.21-6.13-7.62-12.26-15.25-18.39-22.87-1.75-2.17-3.49-4.35-5.24-6.52-.12-.15-.33.06-.21.21h0Z"/>
    <path d="M77.72,246.48c4.58,4.64,8.47,9.94,11.51,15.71.86,1.63,1.64,3.29,2.36,4.99.08.18.33.02.26-.15-2.55-6-5.97-11.61-10.15-16.61-1.2-1.44-2.46-2.82-3.77-4.15-.14-.14-.35.07-.21.21h0Z"/>
    <path d="M67.4,239.31c3.69,6.42,7.38,12.83,11.07,19.25.1.17.36.02.26-.15-3.69-6.42-7.38-12.83-11.07-19.25-.1-.17-.36-.02-.26.15h0Z"/>
    <path d="M129.32,241.21c-2.65,7.37-5.31,14.82-6.07,22.67-.02.19.28.19.3,0,.76-7.81,3.42-15.25,6.06-22.59.07-.18-.22-.26-.29-.08h0Z"/>
    <path d="M129.41,255.8l-3.21,13.33c-1.06,4.42-2.22,8.84-3.03,13.32-.43,2.43-.74,4.89-.84,7.36,0,.19.29.19.3,0,.18-4.51,1.08-8.94,2.11-13.32,1.03-4.39,2.11-8.78,3.16-13.16.6-2.48,1.2-4.97,1.79-7.45.05-.19-.24-.27-.29-.08h0Z"/>
    <path d="M128.14,277.44c-1.8,7.87-3.6,15.82-3.84,23.92-.07,2.3,0,4.6.22,6.9.02.19.32.19.3,0-1-10.39,1.31-20.67,3.61-30.74.04-.19-.25-.27-.29-.08h0Z"/>
    <path d="M119.89,294.02c.55,9.4,2.51,18.69,5.8,27.52.07.18.36.1.29-.08-3.28-8.8-5.24-18.06-5.79-27.44-.01-.19-.31-.19-.3,0h0Z"/>
    <path d="M74.71,301.6c6.24,1.97,12.04,5.24,16.95,9.57,1.38,1.22,2.69,2.52,3.92,3.89.13.14.34-.07.21-.21-4.39-4.9-9.8-8.85-15.8-11.55-1.69-.76-3.43-1.42-5.2-1.98-.18-.06-.26.23-.08.29h0Z"/>
    <path d="M84.03,311.32c5.46,4.29,11.29,8.09,17.43,11.33,1.76.93,3.54,1.81,5.35,2.64.17.08.33-.18.15-.26-6.25-2.9-12.25-6.35-17.88-10.32-1.64-1.16-3.25-2.36-4.83-3.6-.15-.12-.36.09-.21.21h0Z"/>
    <path d="M105.2,328.61c3.08,1.95,6.1,3.99,9.05,6.13,2.82,2.04,5.7,4.09,8.24,6.46,1.37,1.28,2.61,2.69,3.59,4.29.1.16.36.01.26-.15-1.7-2.81-4.2-4.98-6.76-6.98-2.88-2.25-5.85-4.41-8.87-6.47-1.77-1.21-3.55-2.39-5.36-3.53-.16-.1-.31.16-.15.26h0Z"/>
    <path d="M163.06,262.35c-.91,6.27-.61,12.68.89,18.84.05.19.33.11.29-.08-1.48-6.1-1.79-12.46-.89-18.68.03-.19-.26-.27-.29-.08h0Z"/>
    <path d="M167.13,273.17c1.04,8.3,1.33,16.68.86,25.03-.13,2.37-.33,4.74-.59,7.1-.02.19.28.19.3,0,.9-8.31,1.05-16.7.44-25.04-.17-2.37-.41-4.74-.71-7.09-.02-.19-.32-.19-.3,0h0Z"/>
    <path d="M163.97,290.07c-.59,8.14-.13,16.34,1.37,24.36.04.19.32.11.29-.08-1.49-8-1.95-16.17-1.36-24.28.01-.19-.29-.19-.3,0h0Z"/>
    <path d="M194.84,294.95c4.88-6.8,10.37-13.15,16.4-18.94,1.69-1.62,3.42-3.2,5.19-4.74.15-.13-.07-.34-.21-.21-6.35,5.51-12.2,11.61-17.44,18.19-1.44,1.82-2.84,3.67-4.19,5.55-.11.16.15.31.26.15h0Z"/>
    <path d="M199.42,282.56c4.61-6.25,10.27-11.72,16.74-16.01,1.78-1.18,3.63-2.27,5.52-3.27.17-.09.02-.35-.15-.26-6.85,3.6-13.02,8.46-18.18,14.22-1.48,1.65-2.88,3.37-4.19,5.16-.11.16.15.31.26.15h0Z"/>
    <path d="M184.68,305.3c2-4.85,4.7-9.41,8-13.48.93-1.15,1.91-2.26,2.93-3.33.13-.14-.08-.35-.21-.21-3.66,3.84-6.76,8.2-9.17,12.93-.67,1.31-1.28,2.65-1.84,4.01-.07.18.22.26.29.08h0Z"/>
    <path d="M186.84,328.75c3.63-3.22,7.79-5.84,12.25-7.75,1.3-.56,2.63-1.05,3.98-1.49.18-.06.1-.35-.08-.29-4.7,1.52-9.17,3.78-13.15,6.71-1.11.82-2.19,1.69-3.22,2.6-.14.13.07.34.21.21h0Z"/>
    <path d="M196.12,327.27c3.02-2.43,6.35-4.46,9.88-6.04,1.02-.46,2.05-.87,3.1-1.25.18-.07.1-.36-.08-.29-3.7,1.34-7.23,3.14-10.47,5.38-.91.63-1.79,1.29-2.65,1.98-.15.12.06.33.21.21h0Z"/>
    <path d="M174.64,339.05c2.13-2.1,5.03-3.16,7.76-4.23,3.04-1.19,6.11-2.3,9.21-3.33.18-.06.1-.35-.08-.29-3.21,1.06-6.38,2.21-9.52,3.45-2.68,1.06-5.49,2.12-7.58,4.18-.14.14.07.35.21.21h0Z"/>
    <g>
      <g>
        <path class="cls-7" d="M81.45,155.2s-4.72-4.33-.85-5.46c0,0-10.82-9.79-3.85-12.24,6.97-2.45,13.56,0,13.56,0,0,0,7.72-4.33,11.3-.19,3.58,4.14-.79,9.79-.79,9.79l-5.43,15.25-13.93-7.15Z"/>
        <path class="cls-7" d="M91.99,173.09s-4.95,0-6.52-1.51-9.61-6.36-8.54-10.53c.64-2.49,2.31-3.89,2.24-5.82-.07-1.93-1.69-5.59,2.13-6.09,4.14-.54,10.39,3.38,10.39,3.38,0,0-.88-3.58,2.76-4.48,6.25-1.53,7.9-.19,8.56,2.82,0,0,7.63-6.4,5.75,6.21s-7.94,9.41-7.94,9.41l-1.02,6.59h-7.79Z"/>
        <path class="cls-7" d="M91.43,196.87s-10.4-4.99-10.84-11.01c-.43-6.02-1.82-10.19,2.04-10.65,3.86-.46,4.76.77,4.76.77,0,0-.9-4.63,2.19-5.09,3.09-.46,4,5.58,4,5.58,0,0-3.16-8.25,0-8.54,3.16-.29,6.98.67,7.23,6.62,0,0,.44-6.23,5.14-5.37s9.4,3.93,8.63,9.11c-.77,5.18-7.48,10.36-7.48,10.36,0,0,2.3,2.3,1.34,5.66s-9.11,9.4-9.11,9.4l-7.9-6.84Z"/>
        <path class="cls-7" d="M82.32,119.99s-6.36-3.25-3.69-9.34c2.67-6.09,3.28-9.24,5.33-8.85s5.13,6.3,4.92,7.67c0,0,5.54-.39,3.69,10.52l-3.49,6.05-6.77-6.05Z"/>
        <path class="cls-7" d="M87.63,138.84s-14.39-4.38-12.45-12.45c1-4.14,4.92-1.02,6.6,1.22,0,0-4.09-5.35-.65-7.38,2.75-1.62,6.5,3.08,6.5,3.08,0,0,.14-4.61,3.36-3.63s3.36,3.77,3.36,3.77c0,0,1.4-3.08,3.36-1.68s4.2,8.67-1.82,13.99c-6.02,5.32-8.25,3.08-8.25,3.08Z"/>
        <path class="cls-7" d="M89.24,204.54s-4.77-.92-5.86-2.01-3.16,1.58-2.73,3.63c.44,2.04,3.18,5.68,7.31,8.17,0,0,1.57,4.35,5.91,5.98,4.34,1.64,12.73,3.38,16.88,0,4.14-3.38,10.36-7.96,8.94-10.03s-2.4-2.54-2.4-2.54c0,0,6.19-8.24,2.61-10.86-3.59-2.62-7.51,3-9.15,4.06,0,0,4.58-10.44-2.84-10.36-7.42.08-8.62,10.36-8.62,10.36,0,0,1.62-7.87-7.19-6.33-5.21.91-3.44,7.27-2.87,9.95Z"/>
        <g>
          <path class="cls-10" d="M104.37,216.83c.55-2.02,2.1-3.63,3.84-4.78,1.74-1.15,3.71-1.92,5.58-2.84"/>
          <path d="M104.51,216.87c.89-3.17,3.92-4.97,6.71-6.28.88-.42,1.77-.81,2.65-1.24.17-.08.02-.34-.15-.26-2.98,1.46-6.33,2.63-8.37,5.42-.51.69-.89,1.46-1.12,2.29-.05.19.24.27.29.08h0Z"/>
        </g>
        <g>
          <path class="cls-10" d="M108.83,202.9c-2.23,1.24-3.48,3.68-4.48,6.04-.82,1.93-1.56,3.89-2.22,5.88"/>
          <path d="M108.75,202.77c-1.45.82-2.5,2.13-3.31,3.55-.91,1.6-1.58,3.35-2.24,5.06-.43,1.12-.83,2.25-1.21,3.39-.06.18.23.26.29.08.64-1.94,1.36-3.86,2.16-5.74.64-1.51,1.35-3.04,2.39-4.31.59-.71,1.27-1.32,2.08-1.78.17-.09.02-.35-.15-.26h0Z"/>
        </g>
        <g>
          <path class="cls-10" d="M91.58,207.05c2.28,3,5.4,5.37,8.9,6.76"/>
          <path d="M91.45,207.12c1.81,2.37,4.11,4.34,6.72,5.77.73.4,1.49.75,2.27,1.06.18.07.26-.22.08-.29-2.69-1.08-5.15-2.73-7.18-4.8-.58-.6-1.13-1.23-1.63-1.89-.12-.15-.38,0-.26.15h0Z"/>
        </g>
        <g>
          <path class="cls-10" d="M104.39,219.53c-3.35-4.04-8.73-6.29-13.95-5.85"/>
          <path d="M104.5,219.42c-2.64-3.16-6.49-5.24-10.56-5.8-1.16-.16-2.33-.19-3.5-.1-.19.02-.19.32,0,.3,4.05-.33,8.16.93,11.37,3.42.91.7,1.74,1.51,2.47,2.39.12.15.34-.06.21-.21h0Z"/>
        </g>
        <g>
          <path class="cls-10" d="M99.12,202.25c.07,2.85.89,5.69,2.34,8.14"/>
          <path d="M98.97,202.25c.08,2.89.9,5.73,2.36,8.22.1.17.36.02.26-.15-1.44-2.44-2.24-5.23-2.32-8.07,0-.19-.31-.19-.3,0h0Z"/>
        </g>
        <g>
          <path class="cls-10" d="M83.65,184.88c3.72,2.34,7.78,4.13,12.01,5.3"/>
          <path d="M83.57,185.01c3.74,2.34,7.8,4.13,12.05,5.31.19.05.27-.24.08-.29-4.22-1.18-8.26-2.96-11.98-5.28-.16-.1-.31.16-.15.26h0Z"/>
        </g>
        <g>
          <path class="cls-10" d="M87.86,181.33c1.61,2.37,3.11,4.81,4.5,7.32"/>
          <path d="M87.74,181.41c1.61,2.37,3.11,4.82,4.5,7.32.09.17.35.02.26-.15-1.39-2.51-2.89-4.95-4.5-7.32-.11-.16-.37,0-.26.15h0Z"/>
        </g>
        <g>
          <path class="cls-10" d="M92.17,180.14c3.57,3.79,6.04,8.6,7.06,13.7"/>
          <path d="M92.06,180.25c2.77,2.95,4.88,6.49,6.15,10.33.36,1.08.65,2.19.87,3.3.04.19.33.11.29-.08-.8-4-2.48-7.82-4.89-11.11-.68-.93-1.42-1.82-2.21-2.66-.13-.14-.34.07-.21.21h0Z"/>
        </g>
        <g>
          <path class="cls-10" d="M99.3,178.45c.83,3.51,1.14,7.15.92,10.75"/>
          <path d="M99.16,178.49c.82,3.51,1.13,7.12.92,10.71-.01.19.29.19.3,0,.22-3.62-.1-7.26-.93-10.79-.04-.19-.33-.11-.29.08h0Z"/>
        </g>
        <g>
          <path class="cls-10" d="M109.23,178c-1.5,1.26-3.01,2.57-4.04,4.24-1.98,3.21-2.02,7.46-4.45,10.35"/>
          <path d="M109.12,177.89c-1.79,1.5-3.53,3.07-4.57,5.2-.94,1.93-1.38,4.05-2.11,6.06-.44,1.19-.99,2.34-1.81,3.33-.12.15.09.36.21.21,1.35-1.63,1.99-3.66,2.6-5.66.67-2.19,1.38-4.32,2.89-6.09.9-1.05,1.95-1.95,3-2.83.15-.12-.07-.34-.21-.21h0Z"/>
        </g>
        <g>
          <path class="cls-10" d="M83.56,158.89c1.83,3.21,5.05,5.34,8.16,7.34"/>
          <path d="M83.43,158.96c1.45,2.53,3.76,4.4,6.13,6.02.69.47,1.38.92,2.08,1.37.16.11.31-.15.15-.26-2.4-1.55-4.84-3.13-6.71-5.32-.52-.61-.99-1.27-1.39-1.97-.1-.17-.36-.02-.26.15h0Z"/>
        </g>
        <g>
          <path class="cls-10" d="M103.15,153.74c-1.32,3.95-3.53,7.61-6.44,10.6"/>
          <path d="M103.01,153.7c-1.02,3.06-2.58,5.94-4.59,8.47-.57.72-1.17,1.4-1.81,2.06-.13.14.08.35.21.21,2.28-2.36,4.15-5.11,5.48-8.11.37-.83.7-1.69.99-2.55.06-.18-.23-.26-.29-.08h0Z"/>
        </g>
        <g>
          <path class="cls-10" d="M86.31,154.32c1.49,1,2.99,2.01,4.18,3.35,1.18,1.32,2.02,2.93,2.43,4.65"/>
          <path d="M86.23,154.45c1.16.78,2.33,1.57,3.36,2.52s1.83,2.02,2.42,3.25c.33.68.58,1.4.76,2.14.05.19.33.11.29-.08-.32-1.33-.89-2.6-1.67-3.72s-1.85-2.11-2.97-2.96c-.66-.5-1.35-.96-2.03-1.42-.16-.11-.31.15-.15.26h0Z"/>
        </g>
        <g>
          <path class="cls-10" d="M83.14,165.62c2.42,2.28,5.68,3.67,9.01,3.83"/>
          <path d="M83.03,165.73c1.92,1.8,4.33,3.05,6.91,3.59.73.15,1.46.25,2.2.28.19,0,.19-.29,0-.3-2.55-.13-5.05-.98-7.17-2.4-.61-.41-1.19-.88-1.73-1.38-.14-.13-.35.08-.21.21h0Z"/>
        </g>
        <g>
          <path class="cls-10" d="M105.75,156.53c-.66,2.34-2,4.48-3.8,6.11"/>
          <path d="M105.61,156.49c-.52,1.81-1.43,3.49-2.65,4.92-.35.4-.71.78-1.11,1.13-.14.13.07.34.21.21,1.42-1.29,2.55-2.89,3.3-4.65.21-.5.39-1.01.54-1.53.05-.19-.24-.27-.29-.08h0Z"/>
        </g>
        <g>
          <path class="cls-10" d="M80.7,144.28c2.67,1.4,4.99,3.43,6.7,5.86"/>
          <path d="M80.63,144.41c2.05,1.08,3.89,2.52,5.42,4.25.43.49.84,1.01,1.22,1.55.11.16.37,0,.26-.15-1.35-1.92-3.07-3.58-5.02-4.89-.56-.37-1.13-.71-1.73-1.02-.17-.09-.32.17-.15.26h0Z"/>
        </g>
        <g>
          <path class="cls-10" d="M85.1,141.72c1.73,3.08,5.11,5.11,6.37,8.42"/>
          <path d="M84.97,141.8c1.37,2.42,3.65,4.11,5.24,6.36.45.63.83,1.31,1.11,2.03.07.18.36.1.29-.08-1.01-2.62-3.25-4.42-5.01-6.51-.51-.61-.98-1.25-1.37-1.94-.1-.17-.35-.02-.26.15h0Z"/>
        </g>
        <g>
          <path class="cls-10" d="M91.22,142.19c.41.53.96.95,1.38,1.47.9,1.12,1.12,2.62,1.31,4.05"/>
          <path d="M91.11,142.29c.52.66,1.22,1.15,1.66,1.88.42.68.63,1.45.78,2.23.09.45.15.89.21,1.34.03.19.31.11.29-.08-.11-.81-.23-1.63-.48-2.42s-.65-1.49-1.23-2.09c-.35-.36-.72-.68-1.03-1.08-.12-.15-.33.06-.21.21h0Z"/>
        </g>
        <g>
          <path class="cls-10" d="M98.43,138.25c-1.35,2.86-1.97,6.06-1.78,9.21"/>
          <path d="M98.3,138.18c-1.36,2.89-1.98,6.1-1.8,9.29.01.19.31.19.3,0-.18-3.13.42-6.29,1.76-9.14.08-.17-.18-.33-.26-.15h0Z"/>
        </g>
        <g>
          <path class="cls-10" d="M79.21,129.35c2.09,2.44,4.72,4.41,7.65,5.71"/>
          <path d="M79.1,129.45c1.63,1.9,3.59,3.52,5.76,4.76.62.36,1.26.68,1.92.97.17.08.33-.18.15-.26-2.27-1.02-4.37-2.43-6.17-4.15-.51-.49-.99-1-1.45-1.54-.13-.15-.34.07-.21.21h0Z"/>
        </g>
        <g>
          <path class="cls-10" d="M84.86,126.87c1.52,1.89,2.81,3.95,3.84,6.14"/>
          <path d="M84.75,126.97c1.17,1.46,2.21,3.03,3.1,4.68.25.47.49.95.72,1.44.08.17.34.02.26-.15-.81-1.71-1.77-3.35-2.88-4.89-.32-.44-.64-.87-.98-1.29-.12-.15-.33.06-.21.21h0Z"/>
        </g>
        <g>
          <path class="cls-10" d="M92.12,126.58c-.65,3.23-.67,6.7-2.36,9.52"/>
          <path d="M91.98,126.54c-.63,3.18-.65,6.62-2.34,9.48-.1.17.16.32.26.15,1.71-2.89,1.73-6.35,2.37-9.56.04-.19-.25-.27-.29-.08h0Z"/>
        </g>
        <g>
          <path class="cls-10" d="M96.01,126.43c.02,1.26-.2,2.53-.65,3.71-.5,1.3-1.27,2.51-1.53,3.88"/>
          <path d="M95.86,126.43c.02,1.37-.25,2.72-.77,3.98-.49,1.18-1.15,2.3-1.41,3.57-.04.19.25.27.29.08.26-1.29.94-2.43,1.43-3.63.52-1.27.77-2.63.76-4,0-.19-.3-.19-.3,0h0Z"/>
        </g>
        <g>
          <path class="cls-10" d="M81.13,114.29c.82,1.91,2.32,3.52,4.18,4.47"/>
          <path d="M81,114.36c.65,1.51,1.72,2.83,3.04,3.8.38.27.77.52,1.19.73.17.09.32-.17.15-.26-1.43-.73-2.64-1.85-3.49-3.22-.24-.38-.45-.79-.63-1.2-.03-.07-.14-.09-.21-.05-.08.04-.09.13-.05.21h0Z"/>
        </g>
        <g>
          <path class="cls-10" d="M84.35,107.93c.26,3.08,1.15,6.11,2.58,8.84"/>
          <path d="M84.2,107.93c.27,3.11,1.16,6.15,2.6,8.92.09.17.35.02.26-.15-1.42-2.72-2.3-5.71-2.56-8.77-.02-.19-.32-.19-.3,0h0Z"/>
        </g>
        <g>
          <path class="cls-10" d="M89.88,113.96c.17,1.9.31,3.91-.78,5.59"/>
          <path d="M89.73,113.96c.17,1.87.3,3.87-.76,5.52-.1.16.16.31.26.15,1.09-1.7.97-3.75.8-5.67-.02-.19-.32-.19-.3,0h0Z"/>
        </g>
      </g>
      <g>
        <path class="cls-7" d="M154.47,203.06s1.41-6.34,5.81-6.19c4.4.16,5.03,6.19,5.03,6.19l-8.01,6.7-2.83-6.7Z"/>
        <path class="cls-7" d="M150.76,96.2s.81-11.23,2.5-11.42,7.21,1.6,7.4,6.7c.19,5.1-4.19,10.28-4.19,10.28l-5.71-5.57Z"/>
        <path class="cls-7" d="M145.91,124.8s-6.01-10.34-7.94-13.23-2.17-8.78.48-8.9,5.53,2.04,5.53,2.04c0,0-.12-2.53.12-3.49,0,0-5.53-10.22.36-10.46,0,0,2.94-1.43,4.73,1.78,0,0,4.13-1.41,5.53,3.34,0,0,2.43-5.27,4.74-6.16s2.83,1.77,2.83,1.77c0,0,4.5-1,3.72,3.5s-2.44,5.09-1.8,6.79.13,4.74-1.16,5.4c0,0,6.42-1.14,6.55,3.36.13,4.5-1.41,6.22-4.88,9.02,0,0,3.08-.54,2.95,1.64s-3.21,2.7-3.21,2.7c0,0,.77.39-.26,3.98l-7.19,5.91-9.76-5.14-1.36-3.83Z"/>
        <path class="cls-7" d="M151.53,200.59v-9.03s-6.08,2.47-13.15-5.83-8.05-11.24-5.49-12.62,10.79,1.18,10.79,1.18c0,0,0-1.16,1.18-2.05,0,0-11.19-9.61-4.12-17.91,0,0,4.71-2.47,8.44,3.64,0,0-.78-6.64,6.08-5.27,6.87,1.37,7.65,3.34,6.28,8.24,0,0,4.71-8.45,8.44-2.36,3.73,6.09,0,8.64,0,8.64,0,0,.39,2.07-.39,3.59-.78,1.52,2.05,2.5,2.05,2.5,0,0,7.17.98,5.41,5.1-1.77,4.12-8.21,14.72-17.15,11.38,0,0-2.65,2.1-2.27,4.87s1.18,5.92,1.18,5.92l1.1,9.16-8.95-2.3.59-6.87Z"/>
        <path class="cls-7" d="M153.68,91.32c-3.33.16-6.96-7.03-7.75-11.38-.64-3.56.68-8.06,3.87-7.58,0,0-2.51-9.48,2.96-9.01s3.19,9.72,3.19,9.72c0,0,10.48,2.61,7.06,9.24-3.42,6.64-9.34,9.01-9.34,9.01Z"/>
        <path class="cls-7" d="M147.83,230.22s-9.72-1.66-13.75-15.88c0,0,.71-4.5,8.53,3.56,0,0-16.12-13.04-4.98-21.81,0,0,9.01-3.56,12.09,8.3,0,0-1.39-7.61,2.74-6.17s5.98,7.22,5.98,7.22c0,0,4.13-6.6,5.78-6.81s5.98-4.96,5.57,4.43c0,0,17.53-6.49,2.89,11.25,0,0,10.31,1.5-14.44,15.91,0,0-4.22,3.26-10.41,0Z"/>
        <path class="cls-7" d="M151.14,157.98s-2.94-5.23-5.3-6.42-11.77-7.21-12.95-12.25,7.65-6.02,9.12-6.61c0,0,.69-10.4,5.99-11.38s6.47,7.26,6.47,7.26c0,0,0-10.62,3.93-9.04,3.92,1.58,1.49,9.88,1.49,9.88,0,0,3.3-5.53,5.42-3.39,2.12,2.15.94,8.04.94,8.04l2.35,1.65s4.51-3.06,5.1,0-9.03,11.73-11.38,15.83c0,0-.22,7.34-3.42,9.09-3.2,1.74-7.77-2.66-7.77-2.66Z"/>
        <g>
          <path class="cls-10" d="M160.69,118.7c1-2.53,2.45-4.92,4.3-7.06"/>
          <path d="M160.83,118.74c.78-1.97,1.83-3.83,3.09-5.52.37-.5.77-.99,1.18-1.47.13-.15-.09-.36-.21-.21-1.43,1.66-2.66,3.49-3.61,5.47-.26.54-.5,1.1-.73,1.66-.07.18.22.26.29.08h0Z"/>
        </g>
        <g>
          <path class="cls-10" d="M142.62,111.03c2.6,1.87,4.9,4.13,6.81,6.7.17.23.35.49.34.78"/>
          <path d="M142.55,111.16c2.16,1.56,4.12,3.39,5.81,5.44.25.3.49.61.73.91.22.29.53.61.53.99,0,.19.3.19.3,0,0-.33-.17-.6-.36-.85-.2-.27-.41-.54-.62-.81-.44-.55-.9-1.09-1.37-1.61-.94-1.03-1.94-1.99-3.01-2.89-.6-.5-1.22-.99-1.86-1.44-.16-.11-.31.15-.15.26h0Z"/>
        </g>
        <g>
          <path class="cls-10" d="M145.36,105.78c4.09,3.42,6.92,8.31,7.85,13.55"/>
          <path d="M145.25,105.89c3.17,2.66,5.58,6.18,6.93,10.1.38,1.11.68,2.24.88,3.39.03.19.32.11.29-.08-.74-4.11-2.62-7.98-5.35-11.13-.78-.9-1.63-1.73-2.54-2.49-.15-.12-.36.09-.21.21h0Z"/>
        </g>
        <g>
          <path class="cls-10" d="M148.08,102.03c3,3.73,5.56,7.81,7.59,12.14"/>
          <path d="M147.98,102.14c2.33,2.89,4.39,6,6.14,9.27.5.93.98,1.88,1.43,2.84.08.17.34.02.26-.15-1.59-3.39-3.5-6.63-5.7-9.66-.62-.85-1.26-1.69-1.92-2.51-.12-.15-.33.06-.21.21h0Z"/>
        </g>
        <g>
          <path class="cls-10" d="M148.26,97.64c2.26,2.94,4.28,6.06,6.04,9.32"/>
          <path d="M148.13,97.72c2.26,2.94,4.27,6.06,6.04,9.32.09.17.35.02.26-.15-1.76-3.26-3.78-6.38-6.04-9.32-.12-.15-.38,0-.26.15h0Z"/>
        </g>
        <g>
          <path class="cls-10" d="M149.73,145.42c.18-1.97.36-4.02-.31-5.89-.57-1.6-1.73-2.93-3.07-3.98s-2.86-1.83-4.36-2.61"/>
          <path d="M149.88,145.42c.2-2.15.38-4.4-.51-6.42-.81-1.83-2.34-3.24-4-4.32-1.06-.69-2.18-1.27-3.31-1.85-.17-.09-.32.17-.15.26,1.85.95,3.73,1.92,5.24,3.37.69.66,1.29,1.41,1.74,2.25.5.95.75,1.99.83,3.05.09,1.22-.02,2.45-.14,3.67-.02.19.28.19.3,0h0Z"/>
        </g>
        <g>
          <path class="cls-10" d="M140.36,138.96c.82,1.5,2.14,2.66,3.43,3.79,1.2,1.05,2.39,2.09,3.59,3.14"/>
          <path d="M140.23,139.03c.58,1.05,1.39,1.94,2.27,2.76.97.9,1.98,1.76,2.98,2.63.6.52,1.2,1.05,1.79,1.57.14.13.36-.08.21-.21-1.05-.91-2.09-1.83-3.14-2.74-.92-.8-1.85-1.59-2.66-2.5-.45-.51-.86-1.06-1.19-1.66-.09-.17-.35-.02-.26.15h0Z"/>
        </g>
        <g>
          <path class="cls-10" d="M138.93,142.5c3.22,2.88,6.75,5.41,10.5,7.54"/>
          <path d="M138.82,142.6c2.51,2.24,5.2,4.27,8.04,6.07.82.52,1.65,1.02,2.49,1.5.17.1.32-.16.15-.26-2.91-1.66-5.69-3.55-8.29-5.67-.74-.6-1.46-1.22-2.17-1.85-.14-.13-.36.08-.21.21h0Z"/>
        </g>
        <g>
          <path class="cls-10" d="M158.34,127.04c.37,1.55-.82,2.97-1.65,4.33-1.77,2.89-2.03,6.66-.69,9.77"/>
          <path d="M158.2,127.08c.22,1.04-.26,2.01-.79,2.88s-1.1,1.67-1.5,2.6c-.75,1.74-1.04,3.67-.84,5.55.11,1.07.39,2.11.81,3.1.08.18.33.02.26-.15-.78-1.84-1.02-3.9-.69-5.87.16-.98.46-1.94.89-2.84s1-1.65,1.49-2.49.89-1.83.67-2.86c-.04-.19-.33-.11-.29.08h0Z"/>
        </g>
        <g>
          <path class="cls-10" d="M151.68,145.96c-.12-1.44.99-2.7,2.2-3.49s2.61-1.33,3.63-2.34c1.4-1.39,1.89-3.46,3.04-5.07,1.02-1.42,2.56-2.45,4.26-2.85"/>
          <path d="M151.83,145.96c-.09-1.34.84-2.44,1.87-3.18s2.33-1.26,3.38-2.07c2.03-1.58,2.41-4.3,4.09-6.16.98-1.09,2.27-1.84,3.69-2.19.19-.05.11-.33-.08-.29-1.24.3-2.39.91-3.34,1.77-.98.9-1.6,2.04-2.18,3.22s-1.18,2.43-2.23,3.3-2.44,1.38-3.57,2.22-2.02,1.97-1.93,3.38c.01.19.31.19.3,0h0Z"/>
        </g>
        <g>
          <path class="cls-10" d="M145.4,130.65c1.73.44,3.29,1.43,4.54,2.7s2.2,2.81,2.94,4.43"/>
          <path d="M145.36,130.79c2.69.69,4.82,2.65,6.27,4.96.42.67.79,1.38,1.12,2.1.08.18.34.02.26-.15-1.18-2.57-2.92-4.96-5.43-6.35-.67-.37-1.39-.66-2.14-.85-.19-.05-.27.24-.08.29h0Z"/>
        </g>
        <g>
          <path class="cls-10" d="M150.55,126.79c1.15,2.73,1.28,5.76,1.4,8.71"/>
          <path d="M150.41,126.83c1.14,2.74,1.28,5.74,1.39,8.67,0,.19.31.19.3,0-.12-2.95-.25-5.99-1.4-8.75-.07-.18-.36-.1-.29.08h0Z"/>
        </g>
        <g>
          <path class="cls-10" d="M155.23,147.98c.35-1.09,1.27-1.91,2.27-2.47s2.1-.92,3.12-1.44c2.2-1.12,3.99-3,5-5.25"/>
          <path d="M155.37,148.02c.64-1.94,2.76-2.68,4.45-3.42s3.18-1.79,4.35-3.21c.63-.76,1.16-1.6,1.57-2.5.08-.17-.18-.33-.26-.15-.76,1.68-1.95,3.16-3.43,4.26-.76.57-1.6,1-2.47,1.38-.92.4-1.88.76-2.71,1.34s-1.48,1.28-1.79,2.22c-.06.18.23.26.29.08h0Z"/>
        </g>
        <g>
          <path class="cls-10" d="M155.92,157.92c-.17-2.09.32-4.22,1.39-6.02,1.07-1.8,2.72-3.25,4.63-4.09"/>
          <path d="M156.07,157.92c-.26-3.3,1.13-6.55,3.71-8.62.68-.55,1.44-1,2.24-1.35.18-.08.02-.34-.15-.26-3.01,1.33-5.24,4.07-5.91,7.29-.2.97-.26,1.96-.19,2.94.02.19.32.19.3,0h0Z"/>
        </g>
        <g>
          <path class="cls-10" d="M137.84,178.58c4.86,2.37,9.86,5,12.98,9.42"/>
          <path d="M137.76,178.71c3.74,1.83,7.54,3.76,10.57,6.66.87.83,1.66,1.73,2.35,2.7.11.16.37,0,.26-.15-2.46-3.46-6.05-5.84-9.75-7.81-1.08-.58-2.19-1.12-3.29-1.66-.17-.08-.33.17-.15.26h0Z"/>
        </g>
        <g>
          <path class="cls-10" d="M145.69,175.59c2.87.9,5.06,3.35,6.33,6.08,1.27,2.73,1.76,5.75,2.21,8.73"/>
          <path d="M145.65,175.73c4.53,1.45,6.72,6.13,7.68,10.44.31,1.41.54,2.83.75,4.26.03.19.32.11.29-.08-.72-4.73-1.65-9.96-5.55-13.19-.92-.76-1.96-1.35-3.09-1.72-.18-.06-.26.23-.08.29h0Z"/>
        </g>
        <g>
          <path class="cls-10" d="M157.56,188.4c.8-1.95,2.3-3.5,3.78-5,2.78-2.84,5.7-5.76,9.45-7.1"/>
          <path d="M157.71,188.44c.93-2.22,2.74-3.93,4.4-5.61s3.3-3.27,5.22-4.57c1.09-.74,2.26-1.37,3.5-1.82.18-.07.1-.36-.08-.29-2.23.8-4.18,2.16-5.96,3.7-.91.79-1.77,1.63-2.62,2.49s-1.75,1.75-2.57,2.68c-.88,1.01-1.67,2.1-2.18,3.34-.07.18.22.26.29.08h0Z"/>
        </g>
        <g>
          <path class="cls-10" d="M162.57,186.88c3.26-1.87,6.27-4.19,8.9-6.87"/>
          <path d="M162.64,187.01c2.54-1.46,4.93-3.19,7.11-5.15.63-.56,1.23-1.14,1.82-1.74.14-.14-.08-.35-.21-.21-2.05,2.08-4.32,3.94-6.76,5.54-.69.45-1.4.89-2.12,1.3-.17.1-.02.36.15.26h0Z"/>
        </g>
        <g>
          <path class="cls-10" d="M157.23,183.06c.47-2.52,1.47-4.97,3.13-6.92s4.01-3.37,6.55-3.66"/>
          <path d="M157.37,183.1c.73-3.89,2.8-7.64,6.42-9.5.98-.5,2.03-.84,3.12-.97.19-.02.19-.32,0-.3-4.09.5-7.27,3.58-8.81,7.26-.46,1.1-.79,2.25-1.01,3.43-.04.19.25.27.29.08h0Z"/>
        </g>
        <g>
          <path class="cls-10" d="M142.47,161.78c.41,1.2,1.31,2.16,2.22,3.03,1.66,1.6,3.44,3.08,5.31,4.42"/>
          <path d="M142.33,161.82c.44,1.26,1.37,2.24,2.31,3.15,1.06,1.02,2.16,1.98,3.31,2.9.65.52,1.31,1.01,1.98,1.5.16.11.31-.15.15-.26-1.16-.83-2.29-1.72-3.37-2.65-1.02-.88-2.06-1.79-2.95-2.82-.48-.56-.9-1.19-1.15-1.89-.06-.18-.35-.1-.29.08h0Z"/>
        </g>
        <g>
          <path class="cls-10" d="M146.32,171.43c2.6.5,4.92,2.3,6.05,4.69"/>
          <path d="M146.28,171.57c2,.39,3.83,1.54,5.07,3.16.35.45.64.94.89,1.46.08.17.34.02.26-.15-.9-1.89-2.52-3.42-4.44-4.24-.54-.23-1.11-.41-1.69-.52-.19-.04-.27.25-.08.29h0Z"/>
        </g>
        <g>
          <path class="cls-10" d="M150.05,161.99c1.79,3.28,2.79,6.99,2.88,10.73"/>
          <path d="M149.92,162.07c1.77,3.27,2.76,6.93,2.86,10.65,0,.19.31.19.3,0-.1-3.77-1.1-7.49-2.9-10.8-.09-.17-.35-.02-.26.15h0Z"/>
        </g>
        <g>
          <path class="cls-10" d="M156,175.87c.29-2,.59-4.01,1.21-5.93s1.58-3.77,3.05-5.17"/>
          <path d="M156.14,175.91c.57-3.9,1.24-8.16,4.22-11.03.14-.13-.07-.35-.21-.21-3.02,2.9-3.71,7.21-4.3,11.16-.03.19.26.27.29.08h0Z"/>
        </g>
        <g>
          <path class="cls-10" d="M158.59,172.91c.88-1.17,2.12-2.01,3.37-2.78,1.26-.78,2.65-1.53,4.12-1.39"/>
          <path d="M158.72,172.99c.67-.89,1.56-1.58,2.48-2.19s1.91-1.25,2.96-1.63c.62-.22,1.26-.34,1.91-.28.19.02.19-.28,0-.3-1.19-.1-2.33.35-3.36.92s-2.02,1.19-2.91,1.93c-.5.41-.96.87-1.35,1.39-.12.15.14.3.26.15h0Z"/>
        </g>
        <g>
          <path class="cls-10" d="M154.63,225.89c1.09-2.14,2.98-3.74,4.83-5.28,1.06-.88,2.12-1.77,3.18-2.65,1.89-1.57,3.98-3.23,6.43-3.32"/>
          <path d="M154.76,225.96c1.07-2.08,2.85-3.62,4.62-5.1,1.05-.87,2.1-1.75,3.15-2.62.91-.76,1.83-1.52,2.84-2.16,1.13-.71,2.37-1.24,3.71-1.3.19,0,.19-.31,0-.3-2.38.12-4.35,1.57-6.13,3.02-1.08.88-2.14,1.78-3.21,2.67-.96.8-1.93,1.6-2.83,2.48-.95.93-1.8,1.97-2.41,3.15-.09.17.17.32.26.15h0Z"/>
        </g>
        <g>
          <path class="cls-10" d="M157.56,227.38c1.69-.95,3.38-1.9,4.86-3.15.78-.66,1.49-1.4,2.21-2.14,1.14-1.18,2.28-2.36,3.42-3.55"/>
          <path d="M157.63,227.51c1.49-.84,2.98-1.68,4.34-2.73,1.44-1.12,2.66-2.49,3.92-3.79.75-.78,1.5-1.56,2.25-2.34.13-.14-.08-.35-.21-.21-1.3,1.35-2.59,2.7-3.9,4.04-.61.62-1.23,1.24-1.91,1.79s-1.4,1.05-2.14,1.51c-.82.51-1.66.99-2.51,1.46-.17.09-.02.35.15.26h0Z"/>
        </g>
        <g>
          <path class="cls-10" d="M173.07,206.38c-2.04,3.33-4.87,6.16-8.19,8.21"/>
          <path d="M172.94,206.3c-1.58,2.57-3.63,4.85-6.03,6.7-.68.52-1.38,1.01-2.11,1.46-.16.1-.01.36.15.26,2.6-1.61,4.89-3.69,6.76-6.11.53-.69,1.03-1.41,1.49-2.16.1-.16-.16-.32-.26-.15h0Z"/>
        </g>
        <g>
          <path class="cls-10" d="M153.94,222.57c.77-2.84,2.53-5.34,4.63-7.4s4.54-3.75,6.96-5.42"/>
          <path d="M154.08,222.61c1.23-4.44,4.66-7.75,8.25-10.42,1.07-.8,2.17-1.55,3.28-2.31.16-.11,0-.37-.15-.26-3.84,2.64-7.82,5.41-10.22,9.52-.62,1.07-1.11,2.2-1.44,3.39-.05.19.24.27.29.08h0Z"/>
        </g>
        <g>
          <path class="cls-10" d="M140.11,203.98c2.23,2.47,3.96,5.39,5.03,8.54.65,1.91,1.08,3.94,2.26,5.57"/>
          <path d="M140,204.09c1.4,1.55,2.6,3.28,3.57,5.14.48.93.91,1.89,1.26,2.88s.63,1.96.95,2.94c.37,1.1.81,2.17,1.48,3.12.11.16.37,0,.26-.15-1.24-1.75-1.65-3.89-2.36-5.88-.7-1.96-1.64-3.83-2.81-5.54-.65-.96-1.36-1.87-2.14-2.72-.13-.14-.34.07-.21.21h0Z"/>
        </g>
        <g>
          <path class="cls-10" d="M141.25,219.85c.78,1.2,1.72,2.3,2.79,3.25,1.21,1.07,2.56,1.96,3.92,2.84.7.46,1.4.91,2.1,1.37"/>
          <path d="M141.12,219.92c.81,1.23,1.77,2.36,2.88,3.33s2.39,1.84,3.65,2.66c.78.51,1.56,1.01,2.33,1.52.16.11.31-.15.15-.26-2.52-1.64-5.2-3.17-7.23-5.42-.56-.62-1.07-1.28-1.52-1.98-.11-.16-.37-.01-.26.15h0Z"/>
        </g>
        <g>
          <path class="cls-10" d="M147.77,206.04c1.87,2.18,2.42,5.18,2.7,8.04.23,2.35.31,4.72.24,7.08"/>
          <path d="M147.67,206.14c1.58,1.88,2.21,4.33,2.52,6.72.36,2.74.45,5.53.38,8.29,0,.19.3.19.3,0,.07-2.86-.02-5.74-.42-8.57-.33-2.38-.99-4.78-2.57-6.65-.12-.15-.34.07-.21.21h0Z"/>
        </g>
        <g>
          <path class="cls-10" d="M154.16,204.23c.48,4.37.27,8.82-.63,13.13"/>
          <path d="M154.01,204.23c.47,4.37.26,8.79-.63,13.09-.04.19.25.27.29.08.9-4.33,1.12-8.78.64-13.17-.02-.19-.32-.19-.3,0h0Z"/>
        </g>
        <g>
          <path class="cls-10" d="M166.32,201.89c-3.67,3.02-6.78,6.71-9.14,10.84"/>
          <path d="M166.22,201.78c-2.86,2.36-5.39,5.12-7.48,8.18-.6.87-1.16,1.77-1.68,2.68-.1.17.16.32.26.15,1.84-3.21,4.13-6.16,6.79-8.73.75-.72,1.53-1.42,2.33-2.08.15-.12-.06-.33-.21-.21h0Z"/>
        </g>
        <g>
          <path class="cls-10" d="M160.8,102.65c-.83.82-1.63,1.71-2,2.82-.54,1.63-.05,3.5-.74,5.07"/>
          <path d="M160.69,102.54c-.77.76-1.52,1.59-1.93,2.61s-.38,2.23-.44,3.35c-.04.67-.12,1.34-.39,1.96-.08.18.18.33.26.15.58-1.35.35-2.83.56-4.25.11-.72.36-1.38.76-1.99s.89-1.12,1.4-1.62c.14-.14-.07-.35-.21-.21h0Z"/>
        </g>
        <g>
          <path class="cls-10" d="M149.93,75.58c-.2.96-.06,1.97.22,2.9s.71,1.83,1.12,2.72c.25.54.48,1.08.72,1.63"/>
          <path d="M149.78,75.54c-.25,1.26.02,2.54.48,3.73s1.08,2.42,1.6,3.64c.08.18.33.02.26-.15-.5-1.17-1.08-2.31-1.54-3.5s-.74-2.4-.5-3.63c.04-.19-.25-.27-.29-.08h0Z"/>
        </g>
        <g>
          <path class="cls-10" d="M155.86,76.05c-1.22,1.56-1.49,3.81-.69,5.62"/>
          <path d="M155.75,75.94c-.98,1.27-1.37,2.92-1.11,4.5.08.45.21.88.4,1.3.08.18.34.02.26-.15-.6-1.36-.58-2.98.01-4.33.17-.39.39-.76.65-1.1.12-.15-.09-.36-.21-.21h0Z"/>
        </g>
        <g>
          <path class="cls-10" d="M158.91,79.28c-.05,3.09-1.37,6.15-3.58,8.3"/>
          <path d="M158.76,79.28c-.04,2.38-.83,4.71-2.21,6.65-.4.56-.84,1.07-1.33,1.55-.14.14.07.35.21.21,1.75-1.71,2.95-3.96,3.42-6.37.13-.67.2-1.36.21-2.04,0-.19-.3-.19-.3,0h0Z"/>
        </g>
      </g>
      <g>
        <path class="cls-7" d="M215.69,191.49s4.64-3.27,1.22-4.56c0,0,10.63-7.38,4.5-10.06-6.13-2.69-12.31-1.18-12.31-1.18,0,0-6.66-4.35-10.25-1.14-3.59,3.21-.08,8.39-.08,8.39l3.69,13.43,13.24-4.86Z"/>
        <path class="cls-7" d="M204.66,205.77s4.5.43,6.05-.71,9.25-4.57,8.61-8.2c-.38-2.17-1.78-3.51-1.56-5.14.22-1.63,1.99-4.6-1.44-5.36-3.72-.82-9.71,1.97-9.71,1.97,0,0,1.09-2.97-2.14-4.04-5.56-1.85-7.16-.85-8.01,1.65,0,0-6.41-6.1-5.73,4.78.68,10.88,6.44,8.69,6.44,8.69l.39,5.69,7.08.68Z"/>
        <path class="cls-7" d="M203.23,226.03s9.86-3.33,10.74-8.41c.88-5.08,2.49-8.5-.98-9.23s-4.39.24-4.39.24c0,0,1.2-3.86-1.57-4.52-2.77-.66-4.09,4.4-4.09,4.4,0,0,3.55-6.73.7-7.25s-6.39-.04-7.11,4.99c0,0,.1-5.34-4.24-5.01-4.34.32-8.86,2.52-8.58,6.99s5.95,9.45,5.95,9.45c0,0-2.28,1.76-1.68,4.69s7.51,8.78,7.51,8.78l7.74-5.12Z"/>
        <path class="cls-7" d="M217.77,161.49s6.04-2.2,4.11-7.62-2.23-8.14-4.12-7.98-5.17,4.91-5.1,6.09c0,0-5-.82-4.21,8.61l2.67,5.45,6.64-4.55Z"/>
        <path class="cls-7" d="M211.41,177.05s13.43-2.47,12.33-9.5c-.57-3.61-4.39-1.3-6.1.46,0,0,4.15-4.19,1.19-6.21-2.36-1.61-6.15,2.05-6.15,2.05,0,0,.25-3.93-2.75-3.38s-3.36,2.91-3.36,2.91c0,0-1.02-2.74-2.91-1.72-1.89,1.02-4.52,7,.51,12.05,5.03,5.04,7.25,3.33,7.25,3.33Z"/>
        <path class="cls-7" d="M204.59,232.73s4.41-.37,5.49-1.2,2.74,1.62,2.18,3.32c-.56,1.7-3.35,4.55-7.31,6.3,0,0-1.78,3.56-5.85,4.57-4.07,1.01-11.84,1.76-15.33-1.47-3.49-3.23-8.76-7.67-7.31-9.31,1.46-1.64,2.39-1.95,2.39-1.95,0,0-4.95-7.54-1.48-9.46,3.47-1.92,6.58,3.2,7.98,4.25,0,0-3.31-9.27,3.42-8.56,6.73.71,6.98,9.55,6.98,9.55,0,0-.83-6.83,7.05-4.75,4.66,1.23,2.53,6.48,1.8,8.7Z"/>
        <g>
          <path class="cls-10" d="M189.85,241.86c-.34-1.76-1.61-3.27-3.1-4.39s-3.21-1.95-4.84-2.9"/>
          <path d="M190,241.82c-.57-2.9-3.26-4.72-5.66-6.07-.78-.44-1.57-.86-2.34-1.31-.17-.1-.32.16-.15.26,2.49,1.44,5.38,2.66,7.02,5.16.41.62.71,1.31.85,2.04.04.19.33.11.29-.08h0Z"/>
        </g>
        <g>
          <path class="cls-10" d="M186.93,229.63c1.93,1.25,2.86,3.43,3.58,5.52.59,1.71,1.1,3.44,1.54,5.19"/>
          <path d="M186.86,229.76c1.2.79,2.04,1.98,2.65,3.26.68,1.42,1.14,2.95,1.6,4.45.29.96.56,1.93.8,2.91.05.19.34.11.29-.08-.45-1.79-.97-3.56-1.57-5.31-.47-1.35-1.01-2.7-1.87-3.84-.48-.65-1.06-1.21-1.74-1.65-.16-.11-.31.15-.15.26h0Z"/>
        </g>
        <g>
          <path class="cls-10" d="M202.27,234.66c-2.32,2.35-5.34,4.09-8.64,4.97"/>
          <path d="M202.16,234.56c-1.82,1.84-4.03,3.28-6.44,4.23-.7.27-1.41.51-2.13.7-.19.05-.11.34.08.29,2.56-.69,4.97-1.88,7.05-3.53.58-.46,1.13-.95,1.65-1.48.14-.14-.08-.35-.21-.21h0Z"/>
        </g>
        <g>
          <path class="cls-10" d="M189.61,244.15c3.37-3.14,8.44-4.58,13.15-3.75"/>
          <path d="M189.71,244.25c2.66-2.46,6.26-3.82,9.87-3.93,1.05-.03,2.1.04,3.14.22.19.03.27-.26.08-.29-3.69-.64-7.6.05-10.83,1.96-.89.52-1.71,1.14-2.47,1.84-.14.13.07.34.21.21h0Z"/>
        </g>
        <g>
          <path class="cls-10" d="M195.8,229.93c-.3,2.42-1.27,4.75-2.79,6.71"/>
          <path d="M195.65,229.93c-.3,2.4-1.27,4.7-2.75,6.61-.12.15.09.36.21.21,1.19-1.54,2.07-3.31,2.54-5.21.13-.53.23-1.07.3-1.61.02-.19-.28-.19-.3,0h0Z"/>
        </g>
        <g>
          <path class="cls-10" d="M211.28,216.52c-3.57,1.66-7.4,2.83-11.34,3.46"/>
          <path d="M211.2,216.39c-3.59,1.66-7.4,2.81-11.31,3.44-.19.03-.11.32.08.29,3.93-.63,7.77-1.8,11.38-3.47.17-.08.02-.34-.15-.26h0Z"/>
        </g>
        <g>
          <path class="cls-10" d="M207.74,213.13c-1.66,1.87-3.22,3.82-4.68,5.83"/>
          <path d="M207.63,213.03c-1.29,1.46-2.53,2.98-3.72,4.53-.33.44-.66.88-.99,1.33-.11.16.15.31.26.15,1.14-1.56,2.34-3.09,3.59-4.56.35-.42.71-.83,1.07-1.24.13-.14-.08-.36-.21-.21h0Z"/>
        </g>
        <g>
          <path class="cls-10" d="M203.92,211.75c-3.55,2.91-6.19,6.78-7.53,11.03"/>
          <path d="M203.82,211.64c-2.74,2.26-4.99,5.11-6.49,8.33-.42.9-.78,1.82-1.07,2.76-.06.18.23.26.29.08,1.06-3.33,2.89-6.39,5.3-8.92.69-.72,1.42-1.4,2.19-2.04.15-.12-.06-.33-.21-.21h0Z"/>
        </g>
        <g>
          <path class="cls-10" d="M197.58,209.69c-1.04,2.91-1.62,5.97-1.71,9.06"/>
          <path d="M197.43,209.65c-1.04,2.92-1.62,6-1.72,9.1,0,.19.29.19.3,0,.1-3.07.68-6.12,1.71-9.02.06-.18-.22-.26-.29-.08h0Z"/>
        </g>
        <g>
          <path class="cls-10" d="M188.6,208.44c1.26,1.2,2.52,2.45,3.32,3.95,1.54,2.9,1.23,6.51,3.2,9.18"/>
          <path d="M188.49,208.54c1.51,1.44,3,2.95,3.76,4.93.67,1.74.88,3.62,1.42,5.4.3.99.72,1.94,1.33,2.78.11.15.37,0,.26-.15-1.14-1.57-1.53-3.48-1.94-5.34s-.98-3.71-2.2-5.27c-.72-.93-1.56-1.75-2.41-2.56-.14-.13-.35.08-.21.21h0Z"/>
        </g>
        <g>
          <path class="cls-10" d="M213.47,194.43c-1.92,2.57-5.03,4.09-8.01,5.53"/>
          <path d="M213.34,194.36c-1.53,2.03-3.77,3.37-6,4.51-.65.33-1.3.65-1.96.96-.17.08-.02.34.15.26,2.32-1.11,4.7-2.26,6.62-4,.53-.48,1.01-1.01,1.44-1.57.12-.15-.14-.3-.26-.15h0Z"/>
        </g>
        <g>
          <path class="cls-10" d="M196.1,188.35c.87,3.48,2.59,6.77,4.98,9.57"/>
          <path d="M195.95,188.39c.7,2.76,1.91,5.37,3.53,7.71.46.67.96,1.31,1.49,1.93.13.15.34-.07.21-.21-1.83-2.14-3.29-4.61-4.26-7.25-.27-.74-.5-1.49-.69-2.24-.05-.19-.34-.11-.29.08h0Z"/>
        </g>
        <g>
          <path class="cls-10" d="M211.35,190.31c-1.43.72-2.88,1.45-4.07,2.48-1.18,1.02-2.07,2.32-2.58,3.74"/>
          <path d="M211.28,190.18c-1.15.58-2.31,1.16-3.36,1.92-.98.71-1.83,1.58-2.49,2.61-.36.56-.65,1.16-.88,1.79-.07.18.22.26.29.08.39-1.09,1.01-2.09,1.79-2.94.83-.9,1.84-1.6,2.9-2.2.62-.35,1.26-.67,1.89-.99.17-.09.02-.35-.15-.26h0Z"/>
        </g>
        <g>
          <path class="cls-10" d="M212.53,200.38c-2.12,1.71-4.83,2.6-7.51,2.48"/>
          <path d="M212.43,200.28c-2.08,1.66-4.74,2.55-7.4,2.44-.19,0-.19.29,0,.3,2.12.09,4.25-.44,6.1-1.49.53-.3,1.04-.65,1.52-1.03.15-.12-.06-.33-.21-.21h0Z"/>
        </g>
        <g>
          <path class="cls-10" d="M193.51,190.5c.41,2.04,1.45,3.98,2.95,5.53"/>
          <path d="M193.36,190.54c.33,1.63,1.05,3.18,2.05,4.5.29.38.6.75.94,1.09.13.14.35-.07.21-.21-1.14-1.18-2.03-2.59-2.56-4.15-.15-.43-.26-.87-.36-1.32-.04-.19-.33-.11-.29.08h0Z"/>
        </g>
        <g>
          <path class="cls-10" d="M217.26,182.28c-2.94,1.02-5.56,2.65-7.57,4.71"/>
          <path d="M217.22,182.13c-2.24.78-4.36,1.92-6.2,3.43-.5.41-.98.85-1.44,1.32-.14.14.08.35.21.21,1.61-1.64,3.53-2.95,5.62-3.91.62-.28,1.24-.53,1.88-.76.18-.06.1-.35-.08-.29h0Z"/>
        </g>
        <g>
          <path class="cls-10" d="M213.47,179.72c-1.83,2.47-5.06,3.9-6.47,6.6"/>
          <path d="M213.34,179.64c-1.47,1.97-3.69,3.18-5.33,4.99-.44.49-.84,1.02-1.15,1.61-.09.17.17.32.26.15,1.15-2.18,3.37-3.47,5.12-5.11.49-.46.95-.95,1.35-1.49.12-.16-.15-.3-.26-.15h0Z"/>
        </g>
        <g>
          <path class="cls-10" d="M207.88,179.58c-.42.42-.95.72-1.37,1.13-.91.88-1.23,2.13-1.52,3.33"/>
          <path d="M207.77,179.47c-.54.53-1.22.89-1.69,1.48-.44.55-.72,1.2-.93,1.87-.12.38-.22.77-.31,1.16-.05.19.24.27.29.08.16-.66.33-1.33.61-1.96.14-.31.3-.61.51-.88.21-.29.47-.53.75-.75.33-.26.69-.5.99-.8.14-.14-.07-.35-.21-.21h0Z"/>
        </g>
        <g>
          <path class="cls-10" d="M201.65,175.61c.99,2.55,1.29,5.32.86,7.98"/>
          <path d="M201.5,175.65c.97,2.51,1.28,5.24.86,7.9-.03.19.26.27.29.08.43-2.71.13-5.5-.86-8.06-.07-.18-.36-.1-.29.08h0Z"/>
        </g>
        <g>
          <path class="cls-10" d="M219.84,169.72c-2.09,1.89-4.65,3.33-7.41,4.19"/>
          <path d="M219.73,169.61c-1.64,1.48-3.54,2.67-5.58,3.51-.58.24-1.17.45-1.77.64-.18.06-.11.35.08.29,2.16-.67,4.21-1.69,6.03-3.04.5-.37.99-.77,1.45-1.19.14-.13-.07-.34-.21-.21h0Z"/>
        </g>
        <g>
          <path class="cls-10" d="M214.9,167.11c-1.53,1.47-2.88,3.11-3.99,4.88"/>
          <path d="M214.8,167.01c-1.19,1.15-2.28,2.4-3.24,3.75-.27.38-.53.77-.78,1.16-.1.16.16.31.26.15.87-1.38,1.87-2.67,2.99-3.86.32-.34.64-.67.98-.99.14-.13-.07-.35-.21-.21h0Z"/>
        </g>
        <g>
          <path class="cls-10" d="M208.33,166.24c.33,2.8.06,5.75,1.37,8.3"/>
          <path d="M208.18,166.24c.32,2.81.07,5.78,1.39,8.37.09.17.35.02.26-.15-1.29-2.54-1.03-5.47-1.34-8.22-.02-.19-.32-.19-.3,0h0Z"/>
        </g>
        <g>
          <path class="cls-10" d="M204.81,165.77c-.12,1.07-.02,2.17.29,3.21.34,1.15.94,2.25,1.07,3.43"/>
          <path d="M204.66,165.77c-.13,1.16,0,2.34.36,3.45.34,1.06.88,2.08,1.01,3.19.02.19.32.19.3,0-.13-1.11-.63-2.11-.98-3.16-.38-1.12-.51-2.3-.38-3.48.02-.19-.28-.19-.3,0h0Z"/>
        </g>
        <g>
          <path class="cls-10" d="M219.32,156.75c-.9,1.55-2.4,2.79-4.16,3.44"/>
          <path d="M219.19,156.68c-.7,1.21-1.75,2.19-2.97,2.86-.35.2-.72.36-1.1.5-.18.07-.1.36.08.29,1.38-.51,2.63-1.37,3.56-2.51.26-.31.49-.65.69-1,.1-.17-.16-.32-.26-.15h0Z"/>
        </g>
        <g>
          <path class="cls-10" d="M216.91,151.07c-.49,2.59-1.54,5.09-3.07,7.29"/>
          <path d="M216.77,151.03c-.49,2.6-1.54,5.08-3.05,7.25-.11.16.15.31.26.15,1.52-2.2,2.59-4.7,3.08-7.32.04-.19-.25-.27-.29-.08h0Z"/>
        </g>
        <g>
          <path class="cls-10" d="M211.4,155.71c-.48,1.04-.93,2.86-.11,4.71"/>
          <path d="M211.27,155.63c-.52,1.12-.71,2.4-.49,3.62.08.43.21.84.39,1.24.08.18.34.02.26-.15-.63-1.45-.55-3.13.11-4.56.08-.17-.18-.33-.26-.15h0Z"/>
        </g>
      </g>
    </g>
  </g>
  <g class="cls-12">
    <g>
      <rect class="cls-13" x="221.8" y="155.67" width="280.56" height="10.6" rx="5.3" ry="5.3"/>
      <g>
        <path class="cls-13" d="M284.96,144.69c0-8.44,5.93-15.28,13.24-15.28,6.18,0,11.36,4.88,12.83,11.49"/>
        <path class="cls-13" d="M256.39,159.34h211.42v-3.26l-20.39-16.95c0-8.61-6.48-15.59-14.48-15.59s-14.48,6.98-14.48,15.59"/>
        <path class="cls-13" d="M297.55,152.24c0-2.77-2.17-5.02-4.86-5.02-1.51,0-2.86.71-3.75,1.83"/>
        <path class="cls-13" d="M245.09,159.34h11.3v-2.61c0-8.44,7.75-15.28,17.32-15.28,6.48,0,12.13,3.14,15.1,7.8,1.41,2.21,2.22,4.76,2.22,7.48"/>
        <circle class="cls-13" cx="278.14" cy="132.55" r="3.08"/>
      </g>
      <path class="cls-13" d="M450.29,153.74l-26.7-26.83-33.48-14.7s-28.57.28-32.7,0-12.53-2.45-12.53-2.45l-12.64,13.78-15.77,5.19-25.44,6.91-11.11,16.61-23.52,7.1"/>
      <g>
        <path class="cls-2" d="M284.96,144.28c0-8.44,5.93-15.28,13.24-15.28,6.18,0,11.36,4.88,12.83,11.49"/>
        <path class="cls-2" d="M297.55,151.83c0-2.77-2.17-5.02-4.86-5.02-1.51,0-2.86.71-3.75,1.83"/>
        <line class="cls-2" x1="270.74" y1="158.93" x2="327.93" y2="158.93"/>
        <path class="cls-2" d="M245.09,155.67h11.3v.65c0-8.44,7.75-15.28,17.32-15.28,6.48,0,12.13,3.14,15.1,7.8,1.41,2.21,2.22,4.76,2.22,7.48"/>
        <line class="cls-2" x1="233.55" y1="155.67" x2="240.86" y2="155.67"/>
        <line class="cls-2" x1="226.38" y1="166.14" x2="365.39" y2="166.14"/>
        <circle class="cls-2" cx="278.14" cy="132.14" r="3.08"/>
      </g>
    </g>
  </g>
  <g>
    <path class="cls-6" d="M17.76,4.7l.43.83c2.53,4.84,5.79,9.26,9.66,13.1l.05.05-.05.05c-3.87,3.85-7.13,8.27-9.66,13.1l-.43.83-.43-.83c-2.53-4.84-5.79-9.26-9.66-13.1l-.05-.05.05-.05c3.87-3.85,7.13-8.27,9.66-13.1l.43-.83Z"/>
    <path class="cls-6" d="M44.53,10.09l.24.47c1.57,3,3.59,5.74,5.99,8.12h0s0,0,0,0c-2.4,2.38-4.42,5.12-5.99,8.12l-.24.47-.24-.47c-1.57-3-3.59-5.74-5.99-8.12h0s0,0,0,0c2.4-2.38,4.42-5.12,5.99-8.12l.24-.47Z"/>
    <path class="cls-6" d="M17.76,398.2l.43.83c2.53,4.84,5.79,9.26,9.66,13.1l.05.05-.05.05c-3.87,3.85-7.13,8.27-9.66,13.1l-.43.83-.43-.83c-2.53-4.84-5.79-9.26-9.66-13.1l-.05-.05.05-.05c3.87-3.85,7.13-8.27,9.66-13.1l.43-.83Z"/>
    <path class="cls-6" d="M44.53,403.6l.24.47c1.57,3,3.59,5.74,5.99,8.12h0s0,0,0,0c-2.4,2.38-4.42,5.12-5.99,8.12l-.24.47-.24-.47c-1.57-3-3.59-5.74-5.99-8.12h0s0,0,0,0c2.4-2.38,4.42-5.12,5.99-8.12l.24-.47Z"/>
    <path class="cls-6" d="M271.38,4.7l-.43.83c-2.53,4.84-5.79,9.26-9.66,13.1l-.05.05.05.05c3.87,3.85,7.13,8.27,9.66,13.1l.43.83.43-.83c2.53-4.84,5.79-9.26,9.66-13.1l.05-.05-.05-.05c-3.87-3.85-7.13-8.27-9.66-13.1l-.43-.83Z"/>
    <path class="cls-6" d="M244.6,10.09l-.24.47c-1.57,3-3.59,5.74-5.99,8.12h0s0,0,0,0c2.4,2.38,4.42,5.12,5.99,8.12l.24.47.24-.47c1.57-3,3.59-5.74,5.99-8.12h0s0,0,0,0c-2.4-2.38-4.42-5.12-5.99-8.12l-.24-.47Z"/>
    <path class="cls-6" d="M271.38,398.2l-.43.83c-2.53,4.84-5.79,9.26-9.66,13.1l-.05.05.05.05c3.87,3.85,7.13,8.27,9.66,13.1l.43.83.43-.83c2.53-4.84,5.79-9.26,9.66-13.1l.05-.05-.05-.05c-3.87-3.85-7.13-8.27-9.66-13.1l-.43-.83Z"/>
    <path class="cls-6" d="M244.6,403.6l-.24.47c-1.57,3-3.59,5.74-5.99,8.12h0s0,0,0,0c2.4,2.38,4.42,5.12,5.99,8.12l.24.47.24-.47c1.57-3,3.59-5.74,5.99-8.12h0s0,0,0,0c-2.4-2.38-4.42-5.12-5.99-8.12l-.24-.47Z"/>
  </g>
</svg>