<?xml version="1.0" encoding="UTF-8"?>
<svg id="Layer_1" data-name="Layer 1" xmlns="http://www.w3.org/2000/svg" viewBox="0 0 289.13 430.87">
  <defs>
    <style>
      .cls-1 {
        fill: none;
      }

      .cls-2 {
        font-family: SUIT-Regular-KSCpc-EUC-H, SUIT;
        font-size: 14px;
      }

      .cls-3 {
        fill: #e5dae4;
      }

      .cls-4 {
        fill: #f9f1ac;
      }

      .cls-5 {
        font-family: 'IM_FELL_Double_Pica_SC', 'IM FELL Double Pica SC';
        font-size: 24px;
      }

      .cls-6 {
        fill: #d1bacd;
      }

      .cls-7 {
        letter-spacing: -.01em;
      }

      .cls-8 {
        letter-spacing: .02em;
      }

      .cls-9 {
        fill: #c6ce7c;
      }
    </style>
  </defs>
  <g>
    <text class="cls-5" transform="translate(105.85 396.2)"><tspan x="0" y="0">LI</tspan><tspan class="cls-8" x="27.08" y="0">L</tspan><tspan class="cls-7" x="44.94" y="0">A</tspan><tspan x="59.86" y="0">C</tspan></text>
    <text class="cls-2" transform="translate(108.98 417.59)"><tspan x="0" y="0">라일락· 지침</tspan></text>
  </g>
  <g>
    <path class="cls-9" d="M235.02,108.76c2.07-.93,1.88-2.41,3.59-4.33,1.71-1.92,2.16-3.42,1.92-5.4s-2.83-2.27-5.49-3.45c-2.66-1.18-6.85-1.17-6.85-1.17,0,0,1.08-1.04,2.73-3.46,1.65-2.42,1.66-5.57,1.96-8.86.3-3.29-1.86-3.66-2.65-3.23-.79.43-3.3,1.28-5.79,2.29-2.49,1.01-5,3.84-6.79,6.44s-2.79,7.86-2.79,7.86c0,0-1.07-6.78-2.57-8.57s-3.39-1.13-4.44-.39c-1.05.73-3.24,5.57-4.06,8.99-.82,3.42,1.8,8.06,2.57,9.68.77,1.62-5.88,13-5.88,13l-3.98-.15s1.32-1.27,2.85-2.23c1.53-.96,2.59-3.74,3.01-5.81s-.07-5.46-.11-7.87c-.04-2.41-.81-4.03-4.14-4.76-3.33-.73-11.72,7.97-11.72,7.97,0,0,.27-2.51,1.33-6.4s2.37-7.27,3.81-10.72c1.43-3.45,5.53-8.24,7.79-9.62,2.26-1.38,6.94-2.53,11.43-3.75s8.27-2.48,12.04-4.88c3.77-2.41,3.53-4.37,4.37-6.15.84-1.78,0-4.37-1.75-4.16-1.74.21-6.29-.46-8.43-.6-2.14-.13-6.29.99-8.58,2.78-2.3,1.79-7.77,8.69-9.08,10.62s-7.56,10.74-7.56,10.74c0,0,1.28-5.06,2.48-7.86,1.2-2.8,2.86-7.17,5.11-10.06s4.89-5.85,7.74-8.38c2.85-2.53,6.64-6.89,8.85-11.09,2.21-4.2,2.37-7.68-.37-10.75s-8.3,2.83-8.3,2.83c.05-3.81-3.48-3.84-3.48-3.84-5.5-.8-7.15,11.34-7.15,11.34,0,0-1.92-3.58-3.68-4.52-1.76-.95-3.01,1.67-4,3.57-1,1.9-3.03,8.09.03,13.04,3.07,4.95,3.74,12.59,3.74,12.59-1.29,4.34-7.06,29.69-7.06,29.69,0,0-.6-12.51-.82-15.01-.22-2.5,1.23-7.43,1.4-10.08.18-2.66-.93-6.58-2.72-11.75-1.79-5.17,1.28-7.3-1.44-9.28-2.73-1.98-5.62,3.05-5.62,3.05,0,0-1.49-3.75-4.51-6.03-3.02-2.28-4.15-1.37-5.63.52-1.48,1.89.34,8.69.34,8.69,0,0-4.06-1.34-5.77-1.34-1.71,0-2.66.97-3.04,3.46-.38,2.49,3.14,6.76,7.36,9.06,4.22,2.3,8.29,6.17,12.73,11.27,4.44,5.1,5.09,19.44,5.09,19.44,0,0-4.37-5.58-6.95-5.39-2.59.19-3.15,1.5-5.26,6.6-2.11,5.1,1.51,12.22,1.51,12.22-5.12-.91-4.9-8.9-3.86-16.09,1.04-7.19-2.14-5.9-2.14-5.9,0,0,.58-.5,2.21-2.54s2.77-6.67,2.95-9.44c.17-2.76-2.58-3.23-5.37-3.32-2.79-.08-6.87,4.01-6.87,4.01.49-3.66-2.77-5.82-5.09-6.95s-5.23-.42-6.72,1.04c-2.62,2.57-1.25,11.75-1.25,11.75,0,0-9.78-2.26-11,6.28-1.22,8.54,13.27,8.34,13.27,8.34-2.23.32-11.64,10.08-4.88,12.88,6.76,2.8,11.25-8.7,11.25-8.7.57,2.92,8.4,9.84,8.4,9.84,0,0-3.92,2.54-4.81,6.15-.88,3.62,4.77,6.43,4.77,6.43l-.78,1.34c-2.22-.28-6.91,1.58-6.91,1.58,0-3.42-1.37-6.94-4.89-9.5s-4.73-.57-6.7-.16c-1.96.41-3.02,5.38-3.02,5.38-1.43-.51-2.97-.45-4.82-.6-1.86-.16-4.77-1.89-5.39-2.42-.62-.52,4.16-6.89,4.06-11.16s-1.9-6.01-6.26-7.06c-4.37-1.05-4.76,8.59-4.76,8.59-4.41-3.18-7.47-2.25-10.4,1.75-2.93,4,2.56,7.56,2.56,7.56-3.59.74-3.58,1.85-3.6,3.05s2.83,4.53,7.58,2.79c4.75-1.74,7.79-2.07,7.79-2.07-.33,1.5,2.19,8.03,2.19,8.03-2.31-.01-6.71,3.56-6.71,3.56-6.95-2.57-5.61,1.33-6.44,3.66-.83,2.33.37,10.31.37,10.31-2.94-1.65-6.78-1.9-9.76-.34s-3.14,5.44-1.99,9.87c1.15,4.44,8.77,4.53,8.77,4.53,0,0-2.15,2.36-3.51,6.21s2.14,5.9,5.41,6.05c3.27.15,7.8-4.38,7.8-4.38l2.55,3.32c-1.68-.09-5.29,1.85-7.25,3.67-1.96,1.82-.49,6.78-3.59,3.87-3.1-2.91-6.24-5.14-11.31-5.63-5.07-.49-4.72,1.95-3.82,3.38.9,1.43,1.54,5.59,1.17,10.9-.37,5.31,1.51,13.34,1.51,13.34-1.63.33-4.37,2.08-4.85,5.13s9.67,6.26,9.67,6.26c.87,2.93,8.8,9.57,12.56,16.85,3.76,7.28-2.1,21.53-3.13,23.58-1.03,2.05-10.76,15.83-13.41,19.02-2.65,3.19-10.28,18.73-10.28,18.73,0,0,3.69-20.05,5.2-24.86,1.51-4.81,3.24-11.95,3.53-16.18.29-4.23,3-12.14,2.74-17.37s-4.74-14.18-9.66-20.76c-4.92-6.58-13.17-10.32-18.59-11.23s-11.85-5.22-14.37-6.92c-2.52-1.7-5.89-5.82-7.48-7.59-1.59-1.77-5.51-3.77-6.13-2.88s2.48,3.8,5.22,8c2.74,4.2-1.45,15.71,3.42,22.17,4.86,6.46,3.01,8.83,3.01,8.83,0,0,.64,11.82,6.73,16.8,6.09,4.98,4.41,4.89,5.94,8.26,1.53,3.36,5.85,8.22,12.36,10.03,6.51,1.81,7.86,5.97,8.53,9.67.67,3.71-.81,19.05-6.02,32.32-5.21,13.27-13.17,42.68-13.17,42.68,3.07-5.85,12.89-28.9,12.89-28.9,0,0,8.12-18.93,10.25-23.16,2.13-4.23,9.96-15.78,14.9-21.35,4.94-5.57,9.82-8.35,15.13-11.45,5.31-3.1,8.06-1.19,11.05,2.21,3,3.4,8.38,8.43,13.14,9.9s8.17-.16,13.68.55c5.51.71,13.19-.3,18.76-2.38,5.57-2.07,12.9-2.12,17.54-1.56,4.63.55,7.79,3.08,9.41,3.34,1.62.26-2.58-5.9-7.42-7.62-4.84-1.72-11.52-7.05-16.93-12.86-5.41-5.82-12.57-7.69-12.57-7.69-3.79-3.48-10.65-6.31-17.34-6.35-6.69-.04-15.25,5.65-17.11,8.26-1.86,2.61-7.37,6.73-10.54,9.5-3.16,2.77-14.31,10.03-14.31,10.03,0,0,2.57-3.29,7.64-11,5.07-7.7,10.21-13.75,13.88-17.53,3.67-3.79,5.14-4.23,6.7-5.17,1.56-.94,5.07.05,8.67-1.92,3.59-1.97,3.95-4.21,4.26-6.56.31-2.35-1.33-2.93-5.47-3.61-4.14-.68-7.24,3.83-8.8,6.26s-10.23,12.25-10.23,12.25c0,0,1.39-2.93,2.54-5.42,1.15-2.49,4.06-6.98,6.29-10.31s5.84-5.82,12.24-8.03c6.4-2.2,9.26-.13,9.26-.13-.28,1.04,0,5.18.96,9.64.96,4.46,1.36,6.54,4.61,7.52,3.25.98,6.42-5,6.42-5,.77,2.03,8.4,9.21,11.85,3.08,3.45-6.13-1.56-10.31-1.56-10.31,4.23.19,8.77-3.46,10.13-4.82,1.36-1.36-.75-1.84-2.17-5.25-1.42-3.4-8.39-4.29-8.39-4.29,2.2-2.73,2.12-3.99,2.17-8.09.05-4.1-2.56-5.65-4.95-6.32s-7.24,4.84-7.24,4.84c.08-.72-1.64-2.55-1.64-2.55,0,0,6.67-3.68,9.36-4.83,2.69-1.15,4.36.34,7.47.74,3.1.4,3.64,3.28,4.62,6.7.98,3.42.84,3.81,4.82,6.45,3.98,2.64,1.5,2.46,3.75,3.52s2.17.07,3.08-3.73c.91-3.8-1.94-6.65-1.94-6.65,1.79.64,3.42,1.48,5.92-.36,2.49-1.83,1.64-5.12.36-7.68-1.28-2.56-5.3-4.6-5.3-4.6,3.63-1.34,4.87-4.59,5.02-6.73.15-2.14-2.31-2.14-4.48-2.2-2.17-.07-4.77-.9-7.19-.27-2.42.63-4.05,2.77-6.2,5.35-2.14,2.57-7.12,3.26-7.12,3.26-.62-1.45-3.78-6.78-3.8-6.82.12,0,.7,0,3.15,0,3.69,0,7.84-1.08,10.69-3.92,2.85-2.85,1.19-3.35,1.79-4.8.6-1.45,2.57-4.53,1.29-7.09-1.28-2.56-4.61-2.34-6.26-2.4-1.65-.06-5.2,1.31-5.2,1.31,0,0,2.13-2.05,4.42-4.31,2.29-2.26,1.39-5.39,1.39-5.39,0,0,3.82-.14,6.54-.13,2.72,0,4.79,1.09,6.42,1.93,1.63.84.85,4.51.93,7.26.08,2.75,3.9,5.07,7.26,5.74,3.36.67,4.07-.84,3.63-3.8-.44-2.96-4.45-6.49-3.3-6.52,1.15-.03,5.36,2.69,7.33,3.83,1.97,1.14,3,1.68,4.57.22,1.57-1.46.81-2.78-1.67-6.91s-5.97-4.93-5.97-4.93c0,0,1.15-.84,3.33-1.71,2.18-.88,4.6-1.35,7.41-2.11,2.81-.76,3.06-2.95,3.22-5.35s-2.15-3.83-5.7-5.18c-3.56-1.35-8.6.02-8.6.02,0,0,.27-1.75-.78-2.73-1.05-.99-5.35.73-5.35.73,0,0-.86-1.27-3.19-1.4-2.32-.12-5.66,3.78-7.19,5.17-1.53,1.39-1.31,5.67-1.6,7.24-.29,1.56-2.39,3.01-5.7,4.2-3.32,1.19-5.36-1.46-5.36-1.46,2.13-2.05,2.41-4.06,3.5-6.39,1.09-2.33-.36-6.88-.36-6.88,2.52,1.07,7.49,1.87,9.31,1.46s4.18-2.64,5.58-4.34c1.39-1.7,2.01-3.67,1.74-5.88-.27-2.2-2.21-2.68-2.68-3.8-.47-1.12.68-1.02,2.64-2.77,1.96-1.75,5.29-3.1,7.25-3.27,1.96-.17,3.97,1.96,6.92,2.77s4.97-.21,4.97-.21c0,0,1.28.61,3.06,1.17,1.78.55,2.64,1.25,4.33,2.49s2.27.96,3.08-1.12c.82-2.08-.52-3.66-2.21-6-1.7-2.34-5.3-4.65-5.3-4.65,0,0,2.72.81,4.78-.12ZM152,199.21l1.43-5.05,2.72-3.33,4.64-2.54,1.52,5.52-1.07,3.49-1.17,2.6-1.75,1.63-4.14,2.18-3.01.87.84-5.38ZM146.23,180.54l1.29,3.95,1.46,6.94c.13.81-.55,2.39-.55,2.39l-.64-1.03-1.63-2.88-1.68-2.49-2.19-2.88,3.95-4ZM133.76,225.57l-.79,3.69-.63,4.32-1.75,4.03-1.61,3.5-2.05,3.34-2.1,3.98-1.67,2.64.69-3.8,1.75-7.66.74-3.73,1.44-4.84,1.63-4.13,1.35-3.25.44-3.13-.66-3.48,1.3,1.02,1.67.99.56,1.31.08,2.38-.36,2.82ZM136.18,225.94c.22-1.42,0-6.11,0-6.11l3.17-.93c-.76,3.39-3.17,7.04-3.17,7.04ZM142.58,212.26l-.62-2-1.94-3.11-2.52.88-.47-3s5.48-2.01,5.63-2.16c.15-.15,1.21-5.04,1.21-5.19s-3.43-7.01-3.43-7.01c0,0-9.83,2.26-9.72,2.05s1.68-4.49,1.68-4.49l5.15-.55,3.91-1.21,3.25,3.62,1.72,3.51,1.1,3.07.73,2.63-.91,3.8-1.57,4.05-1.55,2.97-1.63,2.14ZM156.73,207.56l-3.44,1.94-2.35,1.42-4.59,5.09-2.88,3.26,1.44-3.07,2.19-4.19,2.19-3.19,2.75-1.82,4.07-2.32,6.01-3.01.38,3.38-5.76,2.5ZM172.61,135.47l-.74,4.21-1.37,5.09-.8,2.77-1,.11-.35-.84-.1-2.72v-4.69l.76-1.61.49-2.27-.25-2.17-.95-1.91,1.16.11h2.49l1.51-.06-.86,3.98Z"/>
    <g>
      <path class="cls-6" d="M162.93,190.5l-1.5.61.87,2.71,1.03,1.96,2.64-2.06-.64.32M160.65,205.51l2.06,4.98,4.38,3.22c-3.61,1.33-4.71,4.51-4.71,4.51-.28,1.04,0,5.18.96,9.64.96,4.46,1.36,6.54,4.61,7.52,3.25.98,6.42-5,6.42-5,.77,2.03,8.4,9.21,11.85,3.08,3.45-6.13-1.56-10.31-1.56-10.31,4.23.19,8.77-3.46,10.13-4.82,1.36-1.36-.75-1.84-2.17-5.25-1.42-3.4-8.39-4.29-8.39-4.29,2.2-2.73,2.12-3.99,2.17-8.09.05-4.1-2.56-5.65-4.95-6.32s-7.24,4.84-7.24,4.84c.08-.72-1.64-2.55-1.64-2.55,0,0,6.67-3.68,9.36-4.83,2.69-1.15,4.36.34,7.47.74,3.1.4,3.64,3.28,4.62,6.7.98,3.42.84,3.81,4.82,6.45,3.98,2.64,1.5,2.46,3.75,3.52s2.17.07,3.08-3.73c.91-3.8-1.94-6.65-1.94-6.65,1.79.64,3.42,1.48,5.92-.36,2.49-1.83,1.64-5.12.36-7.68-1.28-2.56-5.3-4.6-5.3-4.6,3.63-1.34,4.87-4.59,5.02-6.73.15-2.14-2.31-2.14-4.48-2.2-2.17-.07-4.77-.9-7.19-.27-2.42.63-4.05,2.77-6.2,5.35-2.14,2.57-7.12,3.26-7.12,3.26-.62-1.45-3.78-6.78-3.8-6.82.12,0,.7,0,3.15,0,3.69,0,7.84-1.08,10.69-3.92,2.85-2.85,1.19-3.35,1.79-4.8.6-1.45,2.57-4.53,1.29-7.09-1.28-2.56-4.61-2.34-6.26-2.4-1.65-.06-5.2,1.31-5.2,1.31,0,0,2.13-2.05,4.42-4.31,2.29-2.26,1.39-5.39,1.39-5.39,0,0,3.82-.14,6.54-.13,2.72,0,4.79,1.09,6.42,1.93,1.63.84.85,4.51.93,7.26.08,2.75,3.9,5.07,7.26,5.74,3.36.67,4.07-.84,3.63-3.8-.44-2.96-4.45-6.49-3.3-6.52,1.15-.03,5.36,2.69,7.33,3.83,1.97,1.14,3,1.68,4.57.22,1.57-1.46.81-2.78-1.67-6.91s-5.97-4.93-5.97-4.93c0,0,1.15-.84,3.33-1.71,2.18-.88,4.6-1.35,7.41-2.11,2.81-.76,3.06-2.95,3.22-5.35s-2.15-3.83-5.7-5.18c-3.56-1.35-8.6.02-8.6.02,0,0,.27-1.75-.78-2.73-1.05-.99-5.35.73-5.35.73,0,0-.86-1.27-3.19-1.4-2.32-.12-5.66,3.78-7.19,5.17-1.53,1.39-1.31,5.67-1.6,7.24-.29,1.56-2.39,3.01-5.7,4.2-3.32,1.19-5.36-1.46-5.36-1.46,2.13-2.05,2.41-4.06,3.5-6.39,1.09-2.33-.36-6.88-.36-6.88,2.52,1.07,7.49,1.87,9.31,1.46s4.18-2.64,5.58-4.34c1.39-1.7,2.01-3.67,1.74-5.88-.27-2.2-2.21-2.68-2.68-3.8-.47-1.12.68-1.02,2.64-2.77,1.96-1.75,5.29-3.1,7.25-3.27,1.96-.17,3.97,1.96,6.92,2.77s4.97-.21,4.97-.21c0,0,1.28.61,3.06,1.17,1.78.55,2.64,1.25,4.33,2.49s2.27.96,3.08-1.12c.82-2.08-.52-3.66-2.21-6-1.7-2.34-5.3-4.65-5.3-4.65,0,0,2.72.81,4.78-.12,2.07-.93,1.88-2.41,3.59-4.33,1.71-1.92,2.16-3.42,1.92-5.4s-2.83-2.27-5.49-3.45c-2.66-1.18-6.85-1.17-6.85-1.17,0,0,1.08-1.04,2.73-3.46,1.65-2.42,1.66-5.57,1.96-8.86.3-3.29-1.86-3.66-2.65-3.23-.79.43-3.3,1.28-5.79,2.29-2.49,1.01-5,3.84-6.79,6.44s-2.79,7.86-2.79,7.86c0,0-1.07-6.78-2.57-8.57s-3.39-1.13-4.44-.39c-1.05.73-3.24,5.57-4.06,8.99-.82,3.42,1.8,8.06,2.57,9.68.77,1.62-5.88,13-5.88,13l-3.98-.15s1.32-1.27,2.85-2.23c1.53-.96,2.59-3.74,3.01-5.81s-.07-5.46-.11-7.87c-.04-2.41-.81-4.03-4.14-4.76-3.33-.73-11.72,7.97-11.72,7.97,0,0,.05-.43.17-1.18l-.62.88-2.91-3.42c0,.08,0,.13,0,.13,0,0-4.37-5.58-6.95-5.39-2.59.19-3.15,1.5-5.26,6.6-2.11,5.1,1.51,12.22,1.51,12.22-5.12-.91-4.9-8.9-3.86-16.09,1.04-7.19-2.14-5.9-2.14-5.9,0,0,.58-.5,2.21-2.54s2.77-6.67,2.95-9.44c.17-2.76-2.58-3.23-5.37-3.32-2.79-.08-6.87,4.01-6.87,4.01.49-3.66-2.77-5.82-5.09-6.95s-5.23-.42-6.72,1.04c-2.62,2.57-1.25,11.75-1.25,11.75,0,0-9.78-2.26-11,6.28-1.22,8.54,13.27,8.34,13.27,8.34-2.23.32-11.64,10.08-4.88,12.88,6.76,2.8,11.25-8.7,11.25-8.7.57,2.92,8.4,9.84,8.4,9.84,0,0-3.92,2.54-4.81,6.15-.88,3.62,4.77,6.43,4.77,6.43l-.78,1.34c-2.22-.28-6.91,1.58-6.91,1.58,0-3.42-1.37-6.94-4.89-9.5s-4.73-.57-6.7-.16c-1.96.41-3.02,5.38-3.02,5.38-1.43-.51-2.97-.45-4.82-.6-1.86-.16-4.77-1.89-5.39-2.42-.62-.52,4.16-6.89,4.06-11.16s-1.9-6.01-6.26-7.06c-4.37-1.05-4.76,8.59-4.76,8.59-4.41-3.18-7.47-2.25-10.4,1.75-2.93,4,2.56,7.56,2.56,7.56-3.59.74-3.58,1.85-3.6,3.05s2.83,4.53,7.58,2.79c4.75-1.74,7.79-2.07,7.79-2.07-.33,1.5,2.19,8.03,2.19,8.03-2.31-.01-6.71,3.56-6.71,3.56-6.95-2.57-5.61,1.33-6.44,3.66-.83,2.33.37,10.31.37,10.31-2.94-1.65-6.78-1.9-9.76-.34s-3.14,5.44-1.99,9.87c1.15,4.44,8.77,4.53,8.77,4.53,0,0-2.15,2.36-3.51,6.21s2.14,5.9,5.41,6.05c3.27.15,7.8-4.38,7.8-4.38l2.55,3.32c-1.68-.09-5.29,1.85-7.25,3.67-1.96,1.82-.49,6.78-3.59,3.87-3.1-2.91-6.24-5.14-11.31-5.63-5.07-.49-4.72,1.95-3.82,3.38.9,1.43,1.54,5.59,1.17,10.9-.37,5.31,1.51,13.34,1.51,13.34-1.63.33-4.37,2.08-4.85,5.13s9.67,6.26,9.67,6.26c.87,2.93,8.8,9.57,12.56,16.85l10.5-19.17,3.16,1.93,2.09.57,2.16-.39.97-.54-1.16,3.38.77-1.88.73-1.69.65-1.08,1.38-2.34.71-2.95.2-.2-.54-1.32-1.37-2.71-1.82-1.98,2.74-.38,1.98-1.34,1.69-2.33.32-5.01-.32-3.57-1.91-2.36-3.38-1.63-3.22.1-3.39,1.71.46-2.73,2.33-.64,3.16-.64,1.79-.7.48.17-.22-.2,1.63-.86,3.82-3.6,1.07,3.57.86,3.83v4.43l1.16,2.55,1.46-3.44,1.09-5.55.31-2.38,2.18-.24,3-2.21.14-2.25,1.6.78,2.01-.34-.75,3.78-.14,3.51.62,2.69,1.94,4.84-1.53,2.63M176.79,144.99l-1.48,2.45-.56,1.85-1.04-.7-1.19-.74-1.41-.04-1.71-.26-.71.09-1.04-.1-2.4.1-.66-.17-.49-2.58-.24-1.11.63-1.04,1.6-.77,1.57-1.6.59-.98v.07s.76-1.68.76-1.68l.62-1.96-.34-2.23-.04-.25-.38-.96-.57-.94,1.48.24,3.68-.19-.3,1.87.25-1.16,1,3.26,1.63,3.71,1.82,3.48-1.07,2.34Z"/>
      <polygon class="cls-6" points="147.81 200.44 147.83 199.92 147.43 202.49 146.1 206.12 147.48 202.8 147.81 200.44"/>
      <polygon class="cls-6" points="145.37 207.87 146.1 206.12 143.47 211.03 142.83 212.01 142.96 211.88 144.2 210.13 145.37 207.87"/>
      <polygon class="cls-6" points="147.87 198.57 147.88 198.21 147.62 197.53 147.87 198.57"/>
      <path class="cls-3" d="M100.85,113.67s-15.82-.62-22.79,13.02-2.95,20.47,0,25.27,12.71,10.39,12.71,10.39c0,0-12.4-11.63-12.87-18.76-.47-7.13.62-12.4,3.57-16.28,2.95-3.88,12.56-11.94,19.38-13.65Z"/>
      <path class="cls-3" d="M63.89,149.48s-5.98,1.04-4.55,6.5,5.2,8.19,7.41,9.62,9.49,5.85,11.18,9.1,3.64,4.29,2.47,6.63c-1.17,2.34-5.07,4.16-7.28,4.81-2.21.65-6.63,2.34-7.02,6.11,0,0,2.46-3.24,4.68-4.16,1.81-.75,7.67-2.47,9.1-3.77,0,0,.78,1.82-4.55,4.16s-7.02,3.86-7.02,6.28,1.63,5.15,1.63,5.15c0,0-.58-4.29,0-5.72s3.83-3.77,6.69-4.55c2.86-.78,8-2.89,8.71-6.89.34-1.91,1.05-6.68-3.38-10.4-4.09-3.43-7.28-4.29-10.53-6.24s-8.27-5.2-9.23-8.71c-.83-3.02-.13-5.59,1.69-7.93Z"/>
      <path class="cls-3" d="M85.59,171.7s4.8,5.13,4.14,8.52-.87,6.66-5.13,8.41-8.73,2.73-10.26,4.91c-1.53,2.18-2.84,5.02,0,7.64s5.02,2.95,5.02,2.95c0,0-5.38-4.56-4.8-6.88.67-2.7,2.62-4.04,6-4.8s6.94-1.96,9.23-4.53c1.69-1.9,3.87-6.93,1.36-10.86s-5.56-5.35-5.56-5.35Z"/>
      <path class="cls-3" d="M198.65,224.69s26.71,1.98,29.8,18.97c2.3,12.64-3.75,21.67-13.55,25.84,0,0,10.34-5.42,8.09-21.11,0,0,2.81,16.34-14.55,20.04,0,0,17.62-7.15,12.13-25.02,0,0-4.98-12.64-17.36-15.19,0,0,6.87.14,12.77,4.72,5.56,4.33,8.04,9.8,8.81,14.16s.13,9.97.13,9.97c0,0,4.48-12.11-1.35-18.9-6.84-7.97-12.49-10.75-24.91-13.48Z"/>
      <path class="cls-3" d="M171.94,285.68s22.73-3.42,21.98,11.9c-.75,15.32-26,.59-33.13-4.73-8.84-6.6-26.66-13.7-43.47,2.99,0,0-13.2,12.46.5,13.83,0,0-8.35-2.62-.37-9.84,7.97-7.22,14.45-8.1,18.56-7.22,4.11.87,15.57,5.23,22.42,9.47s14.2,9.59,24.41,8.84c10.21-.75,15.69-2.74,18.19-7.72s6.23-12.74-2.74-17.83c-8.97-5.09-26.34.33-26.34.33Z"/>
      <path class="cls-3" d="M135.87,319.19s-4.49-4.35.54-5.71c5.03-1.36,11.42,3.4,11.56,5.71s2.92,7.61-6.97,12.51c-9.89,4.9-16.28,9.93-16.42,14.55-.14,4.62,4.08,10.33,12.65,11.15,0,0-10.2-3.81-8.97-9.52,1.22-5.71,4.49-10.44,11.29-12.56,6.8-2.12,19.35-5.28,19.17-14.63-.14-7.45-9.35-14.01-16.98-14.28-7.63-.27-13.07,0-18.24,6.53,0,0,8.66-5.41,11.1-2.34,0,0-6.48,6.28,1.27,8.59Z"/>
      <path class="cls-4" d="M230.05,186.07l1.93,14.85c.32,2.46,2.22,4.41,4.67,4.79l5.63.89-5.63.65c-2.42.28-4.34,2.18-4.65,4.6l-1.95,15.29-1.95-15.29c-.31-2.42-2.23-4.32-4.65-4.6l-5.63-.65,5.63-.89c2.45-.39,4.35-2.34,4.67-4.79l1.93-14.85Z"/>
      <path class="cls-4" d="M106.88,65.96l1.46,11.19c.32,2.46,2.22,4.41,4.67,4.79l3.75.59-3.75.43c-2.42.28-4.34,2.18-4.65,4.6l-1.47,11.55-1.47-11.55c-.31-2.42-2.23-4.32-4.65-4.6l-3.75-.43,3.75-.59c2.45-.39,4.35-2.34,4.67-4.79l1.46-11.19Z"/>
    </g>
    <g>
      <polygon class="cls-6" points="168.18 142.51 168.11 141.46 167.98 143.43 168.03 144.08 168.18 142.51"/>
      <polygon class="cls-6" points="172.21 137.51 171.18 142.3 170.51 144.77 170.71 144.25 171.49 141.14 172.19 137.91 172.94 134.44 172.21 137.51"/>
    </g>
    <g>
      <path class="cls-6" d="M208.39,61.81c-2.3,1.79-7.77,8.69-9.08,10.62-.81,1.19-3.51,5.02-5.46,7.77.27.71.76,1.51,1.66,1.93,1.36-1.59,2.77-2.93,3.8-3.56,2.26-1.38,6.94-2.53,11.43-3.75s8.27-2.48,12.04-4.88c3.77-2.41,3.53-4.37,4.37-6.15.84-1.78,0-4.37-1.75-4.16-1.74.21-6.29-.46-8.43-.6-2.14-.13-6.29.99-8.58,2.78Z"/>
      <path class="cls-6" d="M192.72,70.04c-.12.41-.29,1.02-.48,1.78.34.27.78.47,1.38.47s1.33-.17,2.06-.4c1-2.29,2.2-4.78,3.66-6.64,2.25-2.88,4.89-5.85,7.74-8.38,2.85-2.53,6.64-6.89,8.85-11.09,2.21-4.2,2.37-7.68-.37-10.75s-8.3,2.83-8.3,2.83c.05-3.81-3.48-3.84-3.48-3.84-5.5-.8-7.15,11.34-7.15,11.34,0,0-1.92-3.58-3.68-4.52-1.76-.95-3.01,1.67-4,3.57-1,1.9-3.03,8.09.03,13.04,3.07,4.95,3.74,12.59,3.74,12.59Z"/>
      <path class="cls-6" d="M165.21,71.01c4.22,2.3,8.29,6.17,12.73,11.27,2.01,2.31,3.24,6.52,3.99,10.44.59.35,1.21.57,1.72.45.53-.13,1.08-.87,1.58-1.77-.15-2.88-.31-5.64-.4-6.68-.22-2.5,1.23-7.43,1.4-10.08.18-2.66-.93-6.58-2.72-11.75-1.79-5.17,1.28-7.3-1.44-9.28-2.73-1.98-5.62,3.05-5.62,3.05,0,0-1.49-3.75-4.51-6.03-3.02-2.28-4.15-1.37-5.63.52-1.48,1.89.34,8.69.34,8.69,0,0-4.06-1.34-5.77-1.34-1.71,0-2.66.97-3.04,3.46-.38,2.49,3.14,6.76,7.36,9.06Z"/>
    </g>
    <g>
      <path class="cls-1" d="M230.11,186.07l1.93,14.85c.32,2.46,2.22,4.41,4.67,4.79l5.63.89-5.63.65c-2.42.28-4.34,2.18-4.65,4.6l-1.95,15.29-1.95-15.29c-.31-2.42-2.23-4.32-4.65-4.6l-5.63-.65,5.63-.89c2.45-.39,4.35-2.34,4.67-4.79l1.93-14.85Z"/>
      <path class="cls-1" d="M106.94,65.96l1.46,11.19c.32,2.46,2.22,4.41,4.67,4.79l3.75.59-3.75.43c-2.42.28-4.34,2.18-4.65,4.6l-1.47,11.55-1.47-11.55c-.31-2.42-2.23-4.32-4.65-4.6l-3.75-.43,3.75-.59c2.45-.39,4.35-2.34,4.67-4.79l1.46-11.19Z"/>
      <circle class="cls-1" cx="215.19" cy="287.68" r="1.34"/>
      <circle class="cls-1" cx="177.43" cy="325.98" r="1.34"/>
      <circle class="cls-1" cx="75.59" cy="273.65" r="1.34"/>
      <circle class="cls-1" cx="111.84" cy="250.81" r="1.14"/>
      <circle class="cls-1" cx="155.76" cy="237.02" r="1.14"/>
      <circle class="cls-1" cx="91.44" cy="199.36" r="1.14"/>
      <circle class="cls-1" cx="56.99" cy="175.89" r="2.25"/>
      <circle class="cls-1" cx="109.42" cy="139.5" r="1.57"/>
      <circle class="cls-1" cx="241.18" cy="148.28" r="1.57"/>
      <circle class="cls-1" cx="225.48" cy="174.48" r="1.57"/>
      <circle class="cls-1" cx="198.11" cy="158.33" r="1.11"/>
      <circle class="cls-1" cx="154.79" cy="117.21" r="1.81"/>
      <circle class="cls-1" cx="123.18" cy="94.69" r="1.57"/>
      <circle class="cls-1" cx="86.49" cy="104.31" r="1.34"/>
      <circle class="cls-1" cx="197" cy="91.33" r="1.34"/>
      <circle class="cls-1" cx="83.56" cy="98.88" r=".96"/>
      <circle class="cls-1" cx="140.47" cy="119.01" r=".96"/>
      <circle class="cls-1" cx="173.5" cy="90.37" r=".96"/>
      <path class="cls-1" d="M100.91,113.67s-15.82-.62-22.79,13.02c-6.98,13.65-2.95,20.47,0,25.27s12.71,10.39,12.71,10.39c0,0-12.4-11.63-12.87-18.76-.47-7.13.62-12.4,3.57-16.28s12.56-11.94,19.38-13.65Z"/>
      <path class="cls-1" d="M63.94,149.48s-5.98,1.04-4.55,6.5c1.43,5.46,5.2,8.19,7.41,9.62s9.49,5.85,11.18,9.1,3.64,4.29,2.47,6.63c-1.17,2.34-5.07,4.16-7.28,4.81-2.21.65-6.63,2.34-7.02,6.11,0,0,2.46-3.24,4.68-4.16,1.81-.75,7.67-2.47,9.1-3.77,0,0,.78,1.82-4.55,4.16s-7.02,3.86-7.02,6.28,1.63,5.15,1.63,5.15c0,0-.58-4.29,0-5.72s3.83-3.77,6.69-4.55c2.86-.78,8-2.89,8.71-6.89.34-1.91,1.05-6.68-3.38-10.4-4.09-3.43-7.28-4.29-10.53-6.24s-8.27-5.2-9.23-8.71c-.83-3.02-.13-5.59,1.69-7.93Z"/>
      <path class="cls-1" d="M85.64,171.7s4.8,5.13,4.14,8.52-.87,6.66-5.13,8.41c-4.26,1.75-8.73,2.73-10.26,4.91-1.53,2.18-2.84,5.02,0,7.64,2.84,2.62,5.02,2.95,5.02,2.95,0,0-5.38-4.56-4.8-6.88.67-2.7,2.62-4.04,6-4.8,3.38-.76,6.94-1.96,9.23-4.53,1.69-1.9,3.87-6.93,1.36-10.86-2.51-3.93-5.56-5.35-5.56-5.35Z"/>
      <path class="cls-1" d="M198.71,224.69s26.71,1.98,29.8,18.97c2.3,12.64-3.75,21.67-13.55,25.84,0,0,10.34-5.42,8.09-21.11,0,0,2.81,16.34-14.55,20.04,0,0,17.62-7.15,12.13-25.02,0,0-4.98-12.64-17.36-15.19,0,0,6.87.14,12.77,4.72,5.56,4.33,8.04,9.8,8.81,14.16s.13,9.97.13,9.97c0,0,4.48-12.11-1.35-18.9-6.84-7.97-12.49-10.75-24.91-13.48Z"/>
      <path class="cls-1" d="M171.99,285.68s22.73-3.42,21.98,11.9c-.75,15.32-26,.59-33.13-4.73-8.84-6.6-26.66-13.7-43.47,2.99,0,0-13.2,12.46.5,13.83,0,0-8.35-2.62-.37-9.84,7.97-7.22,14.45-8.1,18.56-7.22,4.11.87,15.57,5.23,22.42,9.47,6.85,4.24,14.2,9.59,24.41,8.84,10.21-.75,15.69-2.74,18.19-7.72s6.23-12.74-2.74-17.83c-8.97-5.09-26.34.33-26.34.33Z"/>
      <path class="cls-1" d="M135.92,319.19s-4.49-4.35.54-5.71c5.03-1.36,11.42,3.4,11.56,5.71s2.92,7.61-6.97,12.51c-9.89,4.9-16.28,9.93-16.42,14.55-.14,4.62,4.08,10.33,12.65,11.15,0,0-10.2-3.81-8.97-9.52s4.49-10.44,11.29-12.56c6.8-2.12,19.35-5.28,19.17-14.63-.14-7.45-9.35-14.01-16.98-14.28-7.63-.27-13.07,0-18.24,6.53,0,0,8.66-5.41,11.1-2.34,0,0-6.48,6.28,1.27,8.59Z"/>
      <path class="cls-1" d="M192.9,240.32s2.45,1.23,3.59,2.74,2.55,4.97,3.87,4.04.75-3.85-2.08-5.08-5.38-1.7-5.38-1.7Z"/>
      <path class="cls-1" d="M176.46,56.65s-2.54,4.68-.93,9.31,6.13,13.34,6.56,16.5c.44,3.15,1.6,8.87,1.6,8.87"/>
      <path class="cls-1" d="M166.66,59.83s2.37,4.1,5.88,7.15"/>
      <path class="cls-1" d="M159.88,58.63s1.93,4.99,6.21,7.33,5.6,4.17,5.6,4.17"/>
      <path class="cls-1" d="M192.95,40.84s-2.45,3.37-2.58,7.36.35,6.98,2,9.86c2.5,4.37,1.89,9.75,1.76,12.07"/>
      <path class="cls-1" d="M196.63,45.37s1.95,4.77,1.72,8.54-1.72,10.47-1.72,10.47"/>
      <path class="cls-1" d="M207.26,37.86s.59.61-1.16,2.98-4.24,4.86-4.87,8.36c-.62,3.5-1.37,9.99-1.37,9.99"/>
      <path class="cls-1" d="M211.38,68.56s-6.32,1.74-10.69,7.21"/>
      <path class="cls-1" d="M204.43,65.94s6.3-3.26,11.74-3.37"/>
      <path class="cls-1" d="M219.22,62.95s4.27.23,7.88-2.3c0,0-1.61,2.7-5.71,5.03-4.11,2.33-10.65,5.99-14.04,7.1s-5.72,2.44-8.05,3.77c-2.33,1.33-3.64,3.22-3.64,3.22"/>
      <path class="cls-1" d="M228.01,79.77s-4.6,8.58-5.26,12.11"/>
      <path class="cls-1" d="M214.86,95.44s-1.88,7.93-4.56,10.91c-2.68,2.98-7.41,12.2-7.41,12.2"/>
      <path class="cls-1" d="M206.36,105.15s.66,1.69,2.89,2.5"/>
      <path class="cls-1" d="M236.67,100.38s-16.41-.45-23.61,4.2"/>
      <path class="cls-1" d="M230.24,108.88s-1.83-2.28-5.38-2.85c-3.55-.57-10-2.89-10-2.89"/>
      <path class="cls-1" d="M227.28,117s0-4.24-3.31-6.67-5.98-6.12-5.98-6.12"/>
      <path class="cls-1" d="M209.25,88.02s2.08,13.03,1.05,18.33c0,0,1.96-.99,4.56-3.2,2.6-2.21,4.8-3.64,7.89-5.41,3.09-1.77,5.43-3.33,5.43-3.33"/>
      <path class="cls-1" d="M214.36,110.6s2.4,1.98,5.51,5.61"/>
      <path class="cls-1" d="M200.48,118.15s3.06.26,5.02,2.33"/>
      <path class="cls-1" d="M168.17,131.33s2.24,2.23,1.2,5.27c-1.05,3.04-2.79,6.58-9.22,7.57,0,0,2.9,4.77.96,8.47-1.94,3.7-3.95,6.2-6.32,6.29s-7.97-4.16-7.99-7.86c0,0-5.11,8.51-11.31,3.79-6.2-4.72.28-10.64,1.67-12.03,0,0-6.19-3.61-7.32-6.81"/>
      <path class="cls-1" d="M127.62,128.48s.37-4.24,3.07-3.93"/>
      <path class="cls-1" d="M166.32,93.17c-5,2.29-6.4,7.84-6.4,7.84,0,0,.17-.6-2.36-.64"/>
      <path class="cls-1" d="M148.45,102.34s5.3.66,9.11-1.97c-1.69-4.78,1.68-18.48,1.68-18.48"/>
      <path class="cls-1" d="M146.18,87.73s6.91,2.63,11.38,12.64c0,0-1.09,2.89-2.73,6.15"/>
      <path class="cls-1" d="M171.25,79.81s-5.76,4.65-7.62,7.44c-1.86,2.79-5.83,10.97-6.08,13.12"/>
      <path class="cls-1" d="M151.87,82.77s5.09,13.67,5.1,16.35"/>
      <path class="cls-1" d="M145.57,112.74s-.51-4.91,11.99-12.37c-6.67-4.78-18.05-6.71-18.05-6.71"/>
      <path class="cls-1" d="M159.92,101.01s.08,2.88.59,4.14"/>
      <path class="cls-1" d="M183.03,101.72l3.36,3.59s-1.11,17.7-5.1,20.05"/>
      <path class="cls-1" d="M163.22,116.36c6.01-2.38,9.1-1.21,9.1-1.21,5.9,2.42,8.97,10.21,8.97,10.21-3.16,4.28-7.78,6.1-7.78,6.1,0,0-2.97,16.37-4.42,16.38-1.46.02-.82-8.67-.82-8.67"/>
      <path class="cls-1" d="M200.48,125.8s-9.47-4.51-19.19-.44c4.76,1.08,10.27,7.67,10.27,7.67"/>
      <path class="cls-1" d="M197,104.58s-10.18,16.25-14.85,19.98c6.58-4.59,14.35-6.56,14.35-6.56"/>
      <path class="cls-1" d="M186.39,140.31s-2.15-11.19-5.1-14.95c.56-10.56-5.48-23.02-5.48-23.02"/>
      <path class="cls-1" d="M168.61,122.37s6.66-1.46,12.68,2.99"/>
      <path class="cls-1" d="M158.42,122.51s3.13.24,5.23,0"/>
      <path class="cls-1" d="M213.7,156.68s-6.03-12.02-9.17-11.54c-3.14.48-10.28,3.8-12.32,7.07,0,0-.2-3.19-3.78-5.9-2.93,2.7-6.49,1.02-6.49,1.02-6.57-4.83-8.43-15.86-8.43-15.86-6.82.99-10.31-2.52-10.31-2.52"/>
      <path class="cls-1" d="M217.95,148.9s-8.21-.88-10.15-1.57"/>
      <path class="cls-1" d="M217.6,134.56s-10.01,8.34-12.1,10.77c0,0,6.21-.52,8.2-1.59"/>
      <path class="cls-1" d="M199.49,143.57s-.09,2.46,2.96,2.11c0,0-.61.96.54-2.41s8.48-10.71,8.48-10.71"/>
      <path class="cls-1" d="M181.93,147.33s-4.33,3.34-5.68,6.15c0,0-2.06-3.55-1.31-5.36s3.07-5.04,3.07-5.04"/>
      <path class="cls-1" d="M164.03,143.06s.34,3.98.9,4.78c0,0-2.15.47-3.15,1.81"/>
      <path class="cls-1" d="M176.26,153.47s.98,6.27-.45,8.27-7.54,5.81-9.09,12.74c0,0-2.26-7.74-5.68-9.74s-2.99-7.52-2.99-7.52"/>
      <path class="cls-1" d="M160.06,163.98s-4.23.43-4.78,3.99c-.56,3.55,1.22,12.44,3.89,13.22s5.75-2.2,7.55-6.7c5.11-.04,10.89,4.37,13.55,4.37s4.56-2.11,7.22-4.37c2.67-2.26,3.22-5.85.94-10.5s-12.62-2.23-12.62-2.23"/>
      <path class="cls-1" d="M161.78,180.85c-1.04,4.15-1.69,7.38.51,12.75,2.2,5.37,7.75,4.67,10.28,3.05s1.43-8.16.81-11.59-6.67-10.59-6.67-10.59c0,0,2.51,8.3,1.39,14.44"/>
      <path class="cls-1" d="M173.91,188.41s2.54,3.83,5.94,3.81c3.39-.02,6.29-2.88,4.89-6.6"/>
      <path class="cls-1" d="M141.63,155.82s-.61,2.39,0,4.29,5.73,10.93,5.88,12.98"/>
      <path class="cls-1" d="M154.79,158.95s-.49,2.93-2.64,5.5-4.65,8.64-4.65,8.64"/>
      <path class="cls-1" d="M141.81,161.11c-3.49-3.4-7.65-.7-7.65-.7l2.91-4.6"/>
      <path class="cls-1" d="M123.72,114.93s2.09,9.69,5.43,10.04"/>
      <path class="cls-1" d="M115.88,124.24s9.42,1.98,13.27.73"/>
      <path class="cls-1" d="M117.54,186.76s-2.02,5.63,1.62,8.44,6.44,4.52,8.25,7.95"/>
      <path class="cls-1" d="M133.36,191.45s1.99-2.62,6.38-1.59c4.39,1.03,6.03,4.53,6.1,7.47.07,2.95-1.44,9.67-7.2,8.85s-6.45-2.61-11.22-3.03"/>
      <path class="cls-1" d="M138.64,206.18s5.21,3.63,3.29,8.37c-1.92,4.73-3.15,5.35-5.69,5.28s-4.59-1.65-5.76-3.09-3.41-11.19-3.06-13.59"/>
      <path class="cls-1" d="M119.16,195.21s-6.45-3.29-10.74,1.88c-4.29,5.17-1.21,9.08-.66,10.01s3.91,4.68,8.75,3.41,8.38-6.36,10.91-7.36"/>
      <path class="cls-1" d="M118.39,209.9s-6.95,10.25,1.08,14.04c8.03,3.8,11-7.2,11-7.2,0,0,1.69,4.54,0,8-1.69,3.46-3.27,7.34-4.15,11.15s-3.6,16.07-3.6,16.07c0,0,8.17-13.57,9.28-18.11,1.11-4.54,2.72-11.81,1.87-14.53"/>
      <path class="cls-1" d="M163.46,195.6s-8.2,12.03,3.84,18.26c-4.39,1.32-4.93,4.35-4.93,4.35"/>
      <path class="cls-1" d="M184.24,208.78s-12.44,4.83-16.93,5.08c0,0,7.42-5.6,6.91-14.65"/>
      <path class="cls-1" d="M174.38,230.37s3.23-12.12-7.07-16.51c3.05-.08,17.36,9.28,17.36,9.28"/>
      <path class="cls-1" d="M134.16,160.41s-4.03,5.28-7.84,4.53c0,0,.72-7.03.33-9.12s1.52-6.63,6.2-5.75"/>
      <path class="cls-1" d="M123.12,139.61s7.15,5.02,6.04,11.05"/>
      <path class="cls-1" d="M109.42,158.95s13.79,4.57,16.9,5.99c-2.71-2.41-9.27-11.36-9.27-11.36"/>
      <path class="cls-1" d="M114.08,167.64s6.47-3.33,12.25-2.7c0,0-3.7,1.62-2.55,10.58"/>
      <path class="cls-1" d="M127.41,203.15c.21-2.67,4.5-7.74,5.94-11.7,1.44-3.96-.34-4.54-2.47-8.66-2.13-4.11-4.56-3.95-4.56-3.95,4,.53,2.32-.04,3.92-1.22s2.06-2.17,3.24-3.98.1-1.16-1.28-5.5c-1.38-4.35-5.87-3.2-5.87-3.2l5.22-9.12"/>
      <path class="cls-1" d="M147.51,173.09s-10.11,3.99-14.53-2.9"/>
      <path class="cls-1" d="M137.15,173.56s-6.5,2.95-6.27,9.23"/>
      <path class="cls-1" d="M133.83,188.38s17.24-.32,13.68-15.29c0,0,4.14,1.79,8.16.97"/>
      <path class="cls-1" d="M147.51,180.13s2.62,6.54,7.28,4.82,3.09-4.82,3.09-4.82"/>
      <path class="cls-1" d="M160.74,205.63s-7.31,3.25-9.56,5.14-8.05,9.06-8.05,9.06c0,0,3.65-7.99,6.03-10.59s11.58-6.76,11.58-6.76"/>
      <path class="cls-1" d="M160.74,188.38s-6.16,1.43-7.92,7.71c-1.76,6.28-.93,7.11-1.76,8.88,0,0,7.46-2.68,9-5.07,1.54-2.39,2.23-6.3,2.23-6.3"/>
      <path class="cls-1" d="M136.24,219.83s.22,4.69,0,6.11c0,0,2.41-3.65,3.17-7.04"/>
      <path class="cls-1" d="M142.34,212.73s7.54-10.26,5.17-16.06c-2.37-5.8-3.31-8.1-6.15-9.91"/>
      <path class="cls-1" d="M140.9,127.58s3.37,10.51,8.26,13.5c0,0,4.76-5.57,6.35-9.22"/>
      <path class="cls-1" d="M160.15,144.18c-3.98.1-11-3.11-11-3.11,0,0-1.73,3.38-2.36,10.01"/>
      <path class="cls-1" d="M137.15,142.85s6.68-3.8,12-1.78c0,0-5.49,2.19-11.17,11.39"/>
      <path class="cls-1" d="M127.41,203.15s6.08,8.45,8.27,9.58"/>
      <path class="cls-1" d="M127.41,203.15s-2.96,6.52-3.58,9.58-1.58,7.1-1.58,7.1"/>
      <path class="cls-1" d="M113.13,203.59s11.91-1.05,14.28-.44"/>
      <path class="cls-1" d="M127.01,195.23s-.17,5.53.4,7.93c0,0,10.61-6.52,15.71-7.56"/>
      <path class="cls-1" d="M123.83,179.47s1.19,2.71,1,4.85,1.09,7.61,1.49,8.94"/>
      <path class="cls-1" d="M168.04,200.54s2.24,9.39-.74,13.32c0,0,9.26-2.93,13.08-9.69"/>
      <path class="cls-1" d="M189.2,215.23s-15.19.18-21.9-1.38c0,0,4.56,2.49,1.03,17.07"/>
      <path class="cls-1" d="M181.95,230.37s-4.27-7.9-8.35-10.54"/>
      <path class="cls-1" d="M152.43,226.81s-7.68,2.21-13.02,9.08"/>
      <path class="cls-1" d="M99.93,181.95s10.7,7.71,13.05,12.23"/>
      <path class="cls-1" d="M107.87,219.76s3.59-.04,7.93-3.72"/>
      <path class="cls-1" d="M103.05,208.37s3.41-1.09,5.37-.43"/>
      <path class="cls-1" d="M184.24,166.71s-11.83,3.83-17.52,7.77c0,0-.35-13.39-.72-15.53"/>
      <path class="cls-1" d="M159.04,171.7s4.97,2.44,7.68,2.78"/>
      <path class="cls-1" d="M133.83,165.01s12.15,6.53,13.68,8.07c0,0-.2-6.73,0-7.69"/>
      <path class="cls-1" d="M150.59,177.81c-.81-.96-3.09-4.72-3.09-4.72,0,0,5.65-3.78,7.59-4.04"/>
      <path class="cls-1" d="M131.88,184.54s8.78-8.58,14.57-9.03"/>
      <path class="cls-1" d="M161.03,136.38s-5.64.82-11.88,4.7c0,0,4.18,5.28,4.89,10.01"/>
      <path class="cls-1" d="M135.58,133.03s8.56,6.11,13.58,8.04c-.38-4.32-3.15-11.24-3.15-11.24"/>
      <path class="cls-1" d="M204.7,186.21s-2.86-.15-6.59,1.23c-3.73,1.38-10.37,2.73-13.56,2.17"/>
      <path class="cls-1" d="M211.16,194.18s-11.31-5.37-17.33-5.47"/>
      <path class="cls-1" d="M203.73,198.85s-2.77-5.68-15.91-9.23"/>
      <path class="cls-1" d="M215.28,39.4s-4.06,8.62-9.24,13.41"/>
      <path class="cls-1" d="M164.93,147.85s2.42-.86,4.15,0c0,0,3.69-1.07,5.7,1.81"/>
      <path class="cls-1" d="M152.82,185.21s-1.07,9.03-2.96,11.46c0,0-4.29-9.71-7.02-10.79"/>
      <path class="cls-1" d="M146.8,181.92s2.59,6.85,1.87,12.25"/>
      <path class="cls-1" d="M117.88,139.29s5.5,11.95,5.85,16.53"/>
      <path class="cls-1" d="M119.01,172.54s4.51-6.58,7.32-7.6"/>
      <path class="cls-1" d="M148.8,216.04s7.03-5.75,10.25-6.14"/>
      <path class="cls-1" d="M152.43,216.04s6.58-2.21,9.87-2.18"/>
      <path class="cls-1" d="M183.1,151.08s-4.16,6.96-4.74,10.03c0,0,6.86-6.5,11.22-8.65"/>
      <path class="cls-1" d="M196.45,170.51s-4.36,2.69-7.7,2.58"/>
      <path class="cls-1" d="M210.87,140.31s7.68-.1,11.15-.36"/>
      <path class="cls-1" d="M134.12,259.73s20.85-5,35.14,0c14.28,5,27.24,9.94,33.85,11.28"/>
      <path class="cls-1" d="M173.6,261.26s6.2-3.25,14.21-2.1"/>
      <path class="cls-1" d="M147.83,257.51s11.46-11.08,26.87-9.57"/>
      <path class="cls-1" d="M161.26,257.94s7.42,3.42,8.85,6.32,5.15,9.18,8.14,9.39"/>
      <path class="cls-1" d="M143.97,257.94s6.33,2.15,9.95,6.32c2.51,2.9,5.12,8.75,5.12,8.75"/>
      <path class="cls-1" d="M96.58,271.44s-.43-30.93-20.99-47.63c0,0-15.69-10.24-17.81-23.27"/>
      <path class="cls-1" d="M79.67,211.49s9.72,18.3,9.57,30.1"/>
      <path class="cls-1" d="M94.46,222.11s2.45,22.12-.69,31.7"/>
      <path class="cls-1" d="M94.99,258.91s-7.71-8.41-22.27-12.25"/>
      <path class="cls-1" d="M62.39,224.69s18.87,6.53,24.41,12.34"/>
      <path class="cls-1" d="M68.92,206.9s4.11,12.49,6.67,16.91"/>
      <path class="cls-1" d="M68.92,237.02s12.41,10.18,23.43,12.16"/>
      <path class="cls-1" d="M57.78,211.15s4.01,4.48,11.14,7.3"/>
    </g>
    <g>
      <path class="cls-1" d="M228.18,212.05c-.32-2.54-2.34-4.54-4.89-4.83l-5.42-.62,5.42-.85c2.57-.41,4.57-2.46,4.9-5.04l1.91-14.64,1.91,14.64c.34,2.58,2.33,4.63,4.9,5.04l5.42.85-5.42.62c-2.55.29-4.57,2.29-4.89,4.83"/>
      <path class="cls-1" d="M106.94,65.96l1.46,11.19c.32,2.46,2.22,4.41,4.67,4.79l3.75.59-3.75.43c-2.42.28-4.34,2.18-4.65,4.6l-1.47,11.55-1.47-11.55c-.31-2.42-2.23-4.32-4.65-4.6l-3.75-.43,3.75-.59c2.45-.39,4.35-2.34,4.67-4.79l1.46-11.19Z"/>
      <circle class="cls-1" cx="91.44" cy="199.36" r="1.14"/>
      <circle class="cls-1" cx="109.42" cy="139.5" r="1.57"/>
      <circle class="cls-1" cx="241.18" cy="148.28" r="1.57"/>
      <circle class="cls-1" cx="225.48" cy="174.48" r="1.57"/>
      <circle class="cls-1" cx="198.11" cy="158.33" r="1.11"/>
      <circle class="cls-1" cx="154.79" cy="117.21" r="1.81"/>
      <circle class="cls-1" cx="123.18" cy="94.69" r="1.57"/>
      <circle class="cls-1" cx="86.49" cy="104.31" r="1.34"/>
      <circle class="cls-1" cx="197" cy="91.33" r="1.34"/>
      <circle class="cls-1" cx="83.56" cy="98.88" r=".96"/>
      <circle class="cls-1" cx="140.47" cy="119.01" r=".96"/>
      <circle class="cls-1" cx="173.5" cy="90.37" r=".96"/>
      <polygon class="cls-9" points="107.92 220.09 109.47 219.37 111.76 218.93 114.63 216.89 115.62 216.28 117.98 210.1 115.79 210.78 111.49 210.25 108.15 207.72 102.79 208.51 102.1 204.32 101.41 198.15 101.61 192.39 101.07 186.57 99.66 183.04 100.09 181.36 102.07 180.67 104.95 180.76 108.11 181.63 111 182.73 114.16 185.21 115.9 186.95 117.05 187.18 116.96 189.1 117.23 192.77 118.88 194.92 115.4 194.14 112.05 194.51 109.08 196.34 106.74 199.37 106.1 202.62 107.01 206.01 109.12 208.9 111.6 210.23 115.35 210.69 117.92 209.91 117.6 211.51 116.04 214.44 115.49 219.07 116.23 221.18 118.24 223.52 121.77 224.8 124.66 224.53 127.54 222.37 129.33 219.26 130.52 217.06 131.03 219.67 131.08 222.54 130.22 225.42 128.65 228.76 125.67 232.39 122.04 236.89 120.42 237.04 118.5 233.35 116.18 230.32 114.01 227.7 111.08 224.41 109.61 222.6 107.92 220.09"/>
      <path class="cls-1" d="M100.91,113.67s-15.82-.62-22.79,13.02c-6.98,13.65-2.95,20.47,0,25.27s12.71,10.39,12.71,10.39c0,0-12.4-11.63-12.87-18.76-.47-7.13.62-12.4,3.57-16.28s12.56-11.94,19.38-13.65Z"/>
      <path class="cls-1" d="M80.62,192.44c3.38-.76,6.94-1.96,9.23-4.53,1.69-1.9,3.87-6.93,1.36-10.86-2.51-3.93-5.56-5.35-5.56-5.35,0,0,4.8,5.13,4.14,8.52s-.87,6.66-5.13,8.41"/>
      <path class="cls-1" d="M192.9,240.32s2.45,1.23,3.59,2.74,2.55,4.97,3.87,4.04.75-3.85-2.08-5.08-5.38-1.7-5.38-1.7Z"/>
      <path class="cls-1" d="M176.46,56.65s-2.54,4.68-.93,9.31,6.13,13.34,6.56,16.5c.44,3.15,1.6,8.87,1.6,8.87"/>
      <path class="cls-1" d="M166.66,59.83s2.37,4.1,5.88,7.15"/>
      <path class="cls-1" d="M159.88,58.63s1.93,4.99,6.21,7.33,5.6,4.17,5.6,4.17"/>
      <path class="cls-1" d="M192.95,40.84s-2.45,3.37-2.58,7.36.35,6.98,2,9.86c2.5,4.37,1.89,9.75,1.76,12.07"/>
      <path class="cls-1" d="M196.63,45.37s1.95,4.77,1.72,8.54-1.72,10.47-1.72,10.47"/>
      <path class="cls-1" d="M207.26,37.86s.59.61-1.16,2.98-4.24,4.86-4.87,8.36c-.62,3.5-1.37,9.99-1.37,9.99"/>
      <path class="cls-1" d="M211.38,68.56s-6.32,1.74-10.69,7.21"/>
      <path class="cls-1" d="M204.43,65.94s6.3-3.26,11.74-3.37"/>
      <path class="cls-1" d="M219.22,62.95s4.27.23,7.88-2.3c0,0-1.61,2.7-5.71,5.03-4.11,2.33-10.65,5.99-14.04,7.1s-5.72,2.44-8.05,3.77c-2.33,1.33-3.64,3.22-3.64,3.22"/>
      <path class="cls-1" d="M228.01,79.77s-4.6,8.58-5.26,12.11"/>
      <path class="cls-1" d="M214.86,95.44s-1.88,7.93-4.56,10.91c-2.68,2.98-7.41,12.2-7.41,12.2"/>
      <path class="cls-1" d="M206.36,105.15s.66,1.69,2.89,2.5"/>
      <path class="cls-1" d="M236.67,100.38s-16.41-.45-23.61,4.2"/>
      <path class="cls-1" d="M230.24,108.88s-1.83-2.28-5.38-2.85c-3.55-.57-10-2.89-10-2.89"/>
      <path class="cls-1" d="M227.28,117s0-4.24-3.31-6.67-5.98-6.12-5.98-6.12"/>
      <path class="cls-1" d="M209.25,88.02s2.08,13.03,1.05,18.33c0,0,1.96-.99,4.56-3.2,2.6-2.21,4.8-3.64,7.89-5.41,3.09-1.77,5.43-3.33,5.43-3.33"/>
      <path class="cls-1" d="M214.36,110.6s2.4,1.98,5.51,5.61"/>
      <path class="cls-1" d="M200.48,118.15s3.06.26,5.02,2.33"/>
      <path class="cls-1" d="M168.17,131.33s2.24,2.23,1.2,5.27c-1.05,3.04-2.79,6.58-9.22,7.57,0,0,2.9,4.77.96,8.47-1.94,3.7-3.95,6.2-6.32,6.29s-7.97-4.16-7.99-7.86c0,0-5.11,8.51-11.31,3.79-6.2-4.72.28-10.64,1.67-12.03,0,0-6.19-3.61-7.32-6.81"/>
      <path class="cls-1" d="M127.62,128.48s.37-4.24,3.07-3.93"/>
      <path class="cls-1" d="M166.32,93.17c-5,2.29-6.4,7.84-6.4,7.84,0,0,.17-.6-2.36-.64"/>
      <path class="cls-1" d="M148.45,102.34s5.3.66,9.11-1.97c-1.69-4.78,1.68-18.48,1.68-18.48"/>
      <path class="cls-1" d="M146.18,87.73s6.91,2.63,11.38,12.64c0,0-1.09,2.89-2.73,6.15"/>
      <path class="cls-1" d="M171.25,79.81s-5.76,4.65-7.62,7.44c-1.86,2.79-5.83,10.97-6.08,13.12"/>
      <path class="cls-1" d="M151.87,82.77s5.09,13.67,5.1,16.35"/>
      <path class="cls-1" d="M145.57,112.74s-.51-4.91,11.99-12.37c-6.67-4.78-18.05-6.71-18.05-6.71"/>
      <path class="cls-1" d="M159.92,101.01s.08,2.88.59,4.14"/>
      <path class="cls-1" d="M183.03,101.72l3.36,3.59s-1.11,17.7-5.1,20.05"/>
      <path class="cls-1" d="M163.22,116.36c6.01-2.38,9.1-1.21,9.1-1.21,5.9,2.42,8.97,10.21,8.97,10.21-3.16,4.28-7.78,6.1-7.78,6.1,0,0-2.97,16.37-4.42,16.38-1.46.02-.82-8.67-.82-8.67"/>
      <path class="cls-1" d="M200.48,125.8s-9.47-4.51-19.19-.44c4.76,1.08,10.27,7.67,10.27,7.67"/>
      <path class="cls-1" d="M197,104.58s-10.18,16.25-14.85,19.98c6.58-4.59,14.35-6.56,14.35-6.56"/>
      <path class="cls-1" d="M186.39,140.31s-2.15-11.19-5.1-14.95c.56-10.56-5.48-23.02-5.48-23.02"/>
      <path class="cls-1" d="M168.61,122.37s6.66-1.46,12.68,2.99"/>
      <path class="cls-1" d="M158.42,122.51s3.13.24,5.23,0"/>
      <path class="cls-1" d="M213.7,156.68s-6.03-12.02-9.17-11.54c-3.14.48-10.28,3.8-12.32,7.07,0,0-.2-3.19-3.78-5.9-2.93,2.7-6.49,1.02-6.49,1.02-6.57-4.83-8.43-15.86-8.43-15.86-6.82.99-10.31-2.52-10.31-2.52"/>
      <path class="cls-1" d="M217.95,148.9s-8.21-.88-10.15-1.57"/>
      <path class="cls-1" d="M217.6,134.56s-10.01,8.34-12.1,10.77c0,0,6.21-.52,8.2-1.59"/>
      <path class="cls-1" d="M199.49,143.57s-.09,2.46,2.96,2.11c0,0-.61.96.54-2.41s8.48-10.71,8.48-10.71"/>
      <path class="cls-1" d="M178.02,143.06s-2.32,3.23-3.07,5.04,1.31,5.36,1.31,5.36c1.35-2.8,5.68-6.15,5.68-6.15"/>
      <path class="cls-1" d="M164.03,143.06s.34,3.98.9,4.78c0,0-2.15.47-3.15,1.81"/>
      <path class="cls-1" d="M176.26,153.47s.98,6.27-.45,8.27-7.54,5.81-9.09,12.74c0,0-2.26-7.74-5.68-9.74s-2.99-7.52-2.99-7.52"/>
      <path class="cls-1" d="M160.06,163.98s-4.23.43-4.78,3.99c-.56,3.55,1.22,12.44,3.89,13.22s5.75-2.2,7.55-6.7c5.11-.04,10.89,4.37,13.55,4.37s4.56-2.11,7.22-4.37c2.67-2.26,3.22-5.85.94-10.5s-12.62-2.23-12.62-2.23"/>
      <path class="cls-1" d="M161.78,180.85c-1.04,4.15-1.69,7.38.51,12.75,2.2,5.37,7.75,4.67,10.28,3.05s1.43-8.16.81-11.59-6.67-10.59-6.67-10.59c0,0,2.51,8.3,1.39,14.44"/>
      <path class="cls-1" d="M173.91,188.41s2.54,3.83,5.94,3.81c3.39-.02,6.29-2.88,4.89-6.6"/>
      <path class="cls-1" d="M141.63,155.82s-.61,2.39,0,4.29,5.73,10.93,5.88,12.98"/>
      <path class="cls-1" d="M154.79,158.95s-.49,2.93-2.64,5.5-4.65,8.64-4.65,8.64"/>
      <path class="cls-1" d="M141.81,161.11c-3.49-3.4-7.65-.7-7.65-.7l2.91-4.6"/>
      <path class="cls-1" d="M123.72,114.93s2.09,9.69,5.43,10.04"/>
      <path class="cls-1" d="M115.88,124.24s9.42,1.98,13.27.73"/>
      <path class="cls-1" d="M117.54,186.76s-2.02,5.63,1.62,8.44,6.44,4.52,8.25,7.95"/>
      <path class="cls-1" d="M133.36,191.45s1.99-2.62,6.38-1.59c4.39,1.03,6.03,4.53,6.1,7.47.07,2.95-1.44,9.67-7.2,8.85s-6.45-2.61-11.22-3.03"/>
      <path class="cls-1" d="M138.64,206.18s5.21,3.63,3.29,8.37c-1.92,4.73-3.15,5.35-5.69,5.28s-4.59-1.65-5.76-3.09-3.41-11.19-3.06-13.59"/>
      <path class="cls-1" d="M119.16,195.21s-6.45-3.29-10.74,1.88c-4.29,5.17-1.21,9.08-.66,10.01s3.91,4.68,8.75,3.41,8.38-6.36,10.91-7.36"/>
      <path class="cls-1" d="M163.46,195.6s-8.2,12.03,3.84,18.26c-4.39,1.32-4.93,4.35-4.93,4.35"/>
      <path class="cls-1" d="M184.24,208.78s-12.44,4.83-16.93,5.08c0,0,7.42-5.6,6.91-14.65"/>
      <path class="cls-1" d="M174.38,230.37s3.23-12.12-7.07-16.51c3.05-.08,17.36,9.28,17.36,9.28"/>
      <path class="cls-1" d="M134.16,160.41s-4.03,5.28-7.84,4.53c0,0,.72-7.03.33-9.12s1.52-6.63,6.2-5.75"/>
      <path class="cls-1" d="M123.12,139.61s7.15,5.02,6.04,11.05"/>
      <path class="cls-1" d="M109.42,158.95s13.79,4.57,16.9,5.99c-2.71-2.41-9.27-11.36-9.27-11.36"/>
      <path class="cls-1" d="M114.08,167.64s6.47-3.33,12.25-2.7c0,0-3.7,1.62-2.55,10.58"/>
      <path class="cls-1" d="M127.41,203.15c.21-2.67,4.5-7.74,5.94-11.7,1.44-3.96-.34-4.54-2.47-8.66-2.13-4.11-4.56-3.95-4.56-3.95,4,.53,2.32-.04,3.92-1.22s2.06-2.17,3.24-3.98.1-1.16-1.28-5.5c-1.38-4.35-5.87-3.2-5.87-3.2l5.22-9.12"/>
      <path class="cls-1" d="M147.51,173.09s-10.11,3.99-14.53-2.9"/>
      <path class="cls-1" d="M137.15,173.56s-6.5,2.95-6.27,9.23"/>
      <path class="cls-1" d="M133.83,188.38s17.24-.32,13.68-15.29c0,0,4.14,1.79,8.16.97"/>
      <path class="cls-1" d="M147.51,180.13s2.62,6.54,7.28,4.82,3.09-4.82,3.09-4.82"/>
      <path class="cls-1" d="M160.74,205.63s-7.31,3.25-9.56,5.14-8.05,9.06-8.05,9.06c0,0,3.65-7.99,6.03-10.59s11.58-6.76,11.58-6.76"/>
      <path class="cls-1" d="M160.74,188.38s-6.16,1.43-7.92,7.71c-1.76,6.28-.93,7.11-1.76,8.88,0,0,7.46-2.68,9-5.07,1.54-2.39,2.23-6.3,2.23-6.3"/>
      <path class="cls-1" d="M135.61,217.83l.8,3.49-.05,2.84v1.29l1.13-1.61-1.25,2.1c.22-1.42,0-6.11,0-6.11l2.75-2.86-.07,3.54-.83,2.44-1.85,2.98"/>
      <path class="cls-1" d="M142.34,212.73s7.54-10.26,5.17-16.06c-2.37-5.8-3.31-8.1-6.15-9.91"/>
      <path class="cls-1" d="M140.9,127.58s3.37,10.51,8.26,13.5c0,0,4.76-5.57,6.35-9.22"/>
      <path class="cls-1" d="M160.15,144.18c-3.98.1-11-3.11-11-3.11,0,0-1.73,3.38-2.36,10.01"/>
      <path class="cls-1" d="M137.15,142.85s6.68-3.8,12-1.78c0,0-5.49,2.19-11.17,11.39"/>
      <path class="cls-1" d="M127.41,203.15s6.08,8.45,8.27,9.58"/>
      <path class="cls-1" d="M127.41,203.15s-2.96,6.52-3.58,9.58-1.58,7.1-1.58,7.1"/>
      <path class="cls-1" d="M113.13,203.59s11.91-1.05,14.28-.44"/>
      <path class="cls-1" d="M127.01,195.23s-.17,5.53.4,7.93c0,0,10.61-6.52,15.71-7.56"/>
      <path class="cls-1" d="M123.83,179.47s1.19,2.71,1,4.85,1.09,7.61,1.49,8.94"/>
      <path class="cls-1" d="M168.04,200.54s2.24,9.39-.74,13.32c0,0,9.26-2.93,13.08-9.69"/>
      <path class="cls-1" d="M189.2,215.23s-15.19.18-21.9-1.38c0,0,4.56,2.49,1.03,17.07"/>
      <path class="cls-1" d="M181.95,230.37s-4.27-7.9-8.35-10.54"/>
      <path class="cls-1" d="M99.93,181.95s10.7,7.71,13.05,12.23"/>
      <path class="cls-1" d="M107.87,219.76s3.59-.04,7.93-3.72"/>
      <path class="cls-1" d="M103.05,208.37s3.41-1.09,5.37-.43"/>
      <path class="cls-1" d="M184.24,166.71s-11.83,3.83-17.52,7.77c0,0-.35-13.39-.72-15.53"/>
      <path class="cls-1" d="M159.04,171.7s4.97,2.44,7.68,2.78"/>
      <path class="cls-1" d="M133.83,165.01s12.15,6.53,13.68,8.07c0,0-.2-6.73,0-7.69"/>
      <path class="cls-1" d="M150.59,177.81c-.81-.96-3.09-4.72-3.09-4.72,0,0,5.65-3.78,7.59-4.04"/>
      <path class="cls-1" d="M131.88,184.54s8.78-8.58,14.57-9.03"/>
      <path class="cls-1" d="M161.03,136.38s-5.64.82-11.88,4.7c0,0,4.18,5.28,4.89,10.01"/>
      <path class="cls-1" d="M135.58,133.03s8.56,6.11,13.58,8.04c-.38-4.32-3.15-11.24-3.15-11.24"/>
      <path class="cls-1" d="M204.7,186.21s-2.86-.15-6.59,1.23c-3.73,1.38-10.37,2.73-13.56,2.17"/>
      <path class="cls-1" d="M211.16,194.18s-11.31-5.37-17.33-5.47"/>
      <path class="cls-1" d="M203.73,198.85s-2.77-5.68-15.91-9.23"/>
      <path class="cls-1" d="M215.28,39.4s-4.06,8.62-9.24,13.41"/>
      <path class="cls-1" d="M174.78,149.66c-2.01-2.88-5.7-1.81-5.7-1.81-1.73-.86-4.15,0-4.15,0"/>
      <path class="cls-1" d="M152.82,185.21s-1.07,9.03-2.96,11.46c0,0-4.29-9.71-7.02-10.79"/>
      <path class="cls-1" d="M148.67,194.18c.13.81-.25-.35-.25-.35l-.64-1.03-1.63-2.88-1.68-2.49-2.19-2.88,3.95-4,1.29,3.95,1.15,9.68Z"/>
      <path class="cls-1" d="M117.88,139.29s5.5,11.95,5.85,16.53"/>
      <path class="cls-1" d="M119.01,172.54s4.51-6.58,7.32-7.6"/>
      <path class="cls-1" d="M148.8,216.04s7.03-5.75,10.25-6.14"/>
      <path class="cls-1" d="M152.43,216.04s6.58-2.21,9.87-2.18"/>
      <path class="cls-1" d="M183.1,151.08s-4.16,6.96-4.74,10.03c0,0,6.86-6.5,11.22-8.65"/>
      <path class="cls-1" d="M196.45,170.51s-4.36,2.69-7.7,2.58"/>
      <path class="cls-1" d="M210.87,140.31s7.68-.1,11.15-.36"/>
    </g>
    <g>
      <path d="M227.95,186.04l1.87,13.81c.05,2.95,2.19,5.62,5.22,5.82,1.12.16,4.01.63,5.16.79.14.02.14.23,0,.25,0,0-3.49.41-3.49.41l-1.74.21c-1.73.1-3.36,1.04-4.23,2.54-.63,1-.7,2.16-.84,3.31,0,0-1.74,13.95-1.74,13.95,0,.11-.11.2-.22.19-.09-.01-.16-.09-.17-.17-.63-4.64-1.24-9.29-1.82-13.94-.08-2.27-1.08-4.59-3.35-5.41-.91-.38-2.4-.41-3.4-.56,0,0-3.49-.4-3.49-.4-.28-.02-.29-.46-.01-.49,0,0,3.44-.52,3.44-.52l1.72-.26c2.27-.18,4.31-1.8,4.87-4.02.16-.43,2.07-14.59,2.23-15.5h0ZM227.95,186.09c-.15.99-1.72,15.07-1.9,15.54-.55,2.37-2.74,4.15-5.13,4.36,0,0-1.72.28-1.72.28l-3.43.56v-.49s3.48.4,3.48.4l1.75.2c1.82.1,3.61,1.13,4.53,2.73.66,1.03.76,2.3.9,3.47.6,4.65,1.18,9.3,1.73,13.95,0,0-.4,0-.4,0,0-.01,1.81-13.94,1.82-13.95.08-2.39,1.22-4.87,3.61-5.72.99-.4,2.45-.42,3.49-.57,0,0,3.49-.39,3.49-.39v.25c-1.17-.19-4.04-.65-5.16-.83-3.08-.23-5.3-3-5.33-6,0,0-1.72-13.79-1.72-13.79h0Z"/>
      <path d="M104.78,65.94l1.51,11.05c.26,2.89,2.83,4.9,5.63,5.01,0,0,2.75.42,2.75.42.14.02.14.23,0,.25-.99.13-3.22.36-4.17.51-2.28.44-4.03,2.5-4.14,4.82,0,.01-1.38,11.14-1.38,11.15-.02.22-.37.23-.4,0-.51-3.71-1-7.42-1.47-11.14-.12-2.29-1.84-4.3-4.08-4.72-.93-.15-3.2-.37-4.16-.5-.28-.02-.29-.46-.01-.49,0,0,2.75-.41,2.75-.41,2.77-.11,5.29-2.05,5.57-4.91,0,0,1.6-11.04,1.6-11.04h0ZM104.78,65.99l-1.28,11.03c-.21,2.97-2.94,5.18-5.81,5.31,0,0-2.74.46-2.74.46v-.49c1.02.13,3.19.34,4.19.5,2.44.45,4.35,2.71,4.47,5.15.48,3.71.94,7.43,1.37,11.15h-.4s1.46-11.14,1.46-11.14c.13-2.41,2.01-4.61,4.41-5.05.98-.15,3.19-.36,4.19-.49,0,0,0,.25,0,.25l-2.75-.45c-2.85-.13-5.52-2.27-5.75-5.21,0,0-1.36-11.02-1.36-11.02h0Z"/>
      <path d="M214.4,287.68c-.06,1.9-2.78,1.95-2.9,0-.02-2.06,2.94-2.12,2.9,0h0ZM214.35,287.68c-.06-1.43-2.38-1.44-2.45,0-.05,1.57,2.44,1.63,2.45,0h0Z"/>
      <path d="M176.63,325.98c-.06,1.9-2.78,1.95-2.9,0-.02-2.06,2.94-2.12,2.9,0h0ZM176.58,325.98c-.06-1.43-2.38-1.44-2.45,0-.05,1.57,2.44,1.63,2.45,0h0Z"/>
      <path d="M74.79,273.65c-.06,1.9-2.78,1.95-2.9,0-.02-2.06,2.94-2.12,2.9,0h0ZM74.74,273.65c-.06-1.43-2.38-1.44-2.45,0-.05,1.57,2.44,1.63,2.45,0h0Z"/>
      <path d="M110.85,250.81c-.05,1.65-2.39,1.69-2.51,0-.03-1.8,2.56-1.86,2.51,0h0ZM110.8,250.81c-.06-1.18-1.99-1.18-2.06,0-.06,1.32,2.05,1.37,2.06,0h0Z"/>
      <path d="M154.78,237.02c-.05,1.65-2.39,1.69-2.51,0-.03-1.8,2.56-1.86,2.51,0h0ZM154.73,237.02c-.06-1.18-1.99-1.18-2.06,0-.06,1.32,2.05,1.37,2.06,0h0Z"/>
      <path d="M90.45,199.36c-.05,1.65-2.39,1.69-2.51,0-.03-1.8,2.56-1.86,2.51,0h0ZM90.4,199.36c-.06-1.18-1.99-1.18-2.06,0-.06,1.32,2.05,1.37,2.06,0h0Z"/>
      <path d="M57.11,175.89c-.11,3.12-4.56,3.16-4.73,0,.03-3.28,4.73-3.31,4.73,0h0ZM57.06,175.89c-.11-2.63-4.17-2.65-4.28,0,0,2.8,4.23,2.82,4.28,0h0Z"/>
      <path d="M108.87,139.5c-.06,2.21-3.24,2.26-3.37,0,0-2.38,3.38-2.44,3.37,0h0ZM108.82,139.5c-.07-1.74-2.84-1.75-2.92,0-.04,1.9,2.91,1.92,2.92,0h0Z"/>
      <path d="M240.62,148.28c-.06,2.21-3.24,2.26-3.37,0,0-2.38,3.38-2.44,3.37,0h0ZM240.57,148.28c-.07-1.74-2.84-1.75-2.92,0-.04,1.9,2.91,1.92,2.92,0h0Z"/>
      <path d="M224.92,174.48c-.06,2.21-3.24,2.26-3.37,0,0-2.38,3.38-2.44,3.37,0h0ZM224.87,174.48c-.07-1.74-2.84-1.75-2.92,0-.04,1.9,2.91,1.92,2.92,0h0Z"/>
      <path d="M197.09,158.33c-.05,1.6-2.33,1.65-2.44,0-.03-1.76,2.5-1.82,2.44,0h0ZM197.04,158.33c-.06-1.14-1.92-1.14-1.99,0-.06,1.27,1.99,1.33,1.99,0h0Z"/>
      <path d="M154.46,117.21c-.09,2.53-3.69,2.57-3.84,0,.01-2.7,3.86-2.72,3.84,0h0ZM154.41,117.21c-.08-2.04-3.31-2.05-3.39,0-.03,2.2,3.37,2.22,3.39,0h0Z"/>
      <path d="M122.62,94.69c-.06,2.21-3.24,2.26-3.37,0,0-2.38,3.38-2.44,3.37,0h0ZM122.57,94.69c-.07-1.74-2.84-1.75-2.92,0-.04,1.9,2.91,1.92,2.92,0h0Z"/>
      <path d="M85.7,104.31c-.06,1.91-2.79,1.95-2.91,0-.02-2.07,2.95-2.12,2.91,0h0ZM85.65,104.31c-.06-1.44-2.39-1.44-2.46,0-.05,1.58,2.45,1.63,2.46,0h0Z"/>
      <path d="M196.22,91.33c-.06,1.91-2.79,1.95-2.91,0-.02-2.07,2.95-2.12,2.91,0h0ZM196.17,91.33c-.06-1.44-2.39-1.44-2.46,0-.05,1.58,2.45,1.63,2.46,0h0Z"/>
      <path d="M82.38,98.88c-.04,1.4-2.03,1.45-2.14,0-.03-1.56,2.2-1.62,2.14,0h0ZM82.33,98.88c-.06-.95-1.61-.94-1.69,0-.07,1.07,1.7,1.13,1.69,0h0Z"/>
      <path d="M139.29,119.01c-.04,1.4-2.03,1.45-2.14,0-.03-1.56,2.2-1.62,2.14,0h0ZM139.24,119.01c-.06-.95-1.61-.94-1.69,0-.07,1.07,1.7,1.13,1.69,0h0Z"/>
      <path d="M172.33,90.37c-.04,1.4-2.03,1.45-2.14,0-.03-1.56,2.2-1.62,2.14,0h0ZM172.28,90.37c-.06-.95-1.61-.94-1.69,0-.07,1.07,1.7,1.13,1.69,0h0Z"/>
      <path d="M190.54,70.04c-.35-3.19-1.03-6.37-2.18-9.38-1.21-2.97-3.33-5.64-3.18-9.01-.04-3.23.9-6.46,2.64-9.17.59-.97,1.58-2.27,2.85-1.72,1.7.93,3,3.05,3.77,4.61.73-3.9,2.26-11.71,7.18-11.37,1.43.05,2.94.96,3.32,2.43.15.47.18.96.19,1.44,0,0-.06-.02-.06-.02,1.93-1.81,4.32-4.11,7.17-3.61,1.33.51,2.09,1.86,2.67,3.09,1.68,4.07-.81,8.27-3.01,11.61-3.03,4.72-7.46,8.17-11.23,12.23-5.94,5.91-8.88,14.31-11.12,21.99,2.68-3.73,9.48-13.78,12.59-17.13,1.57-1.76,3.03-3.7,5.08-4.92,3.1-1.79,6.76-2.49,10.28-1.86,2.06.23,4.12.44,6.18.35,1.58.34,1.93,2.41,1.54,3.75-.8,2.21-1.49,4.62-3.6,5.97-5.82,4.26-13.06,5.4-19.8,7.46-2.23.72-4.57,1.43-6.24,3.14-3.5,3.22-6.03,7.29-7.54,11.79-1.68,4.4-3.1,8.95-3.74,13.62l-.11-.05c2.33-2.34,4.78-4.6,7.53-6.45,1.37-.83,2.96-1.93,4.63-1.44.8.21,1.6.5,2.27,1.01,1.45,1.03,1.56,2.93,1.57,4.55.06,2.44.54,5.03,0,7.43-.39,1.6-.96,3.2-1.97,4.54-1.09,1.26-2.68,1.92-3.82,3.15,0,0-.05-.12-.05-.12l3.98.15c1.7-3.23,4.03-7.09,5.41-10.76.31-.94.77-1.95.06-2.82-1.3-2.7-2.73-5.61-2.29-8.7.42-1.99,1.15-3.89,1.96-5.75.85-1.78,1.68-4.06,3.91-4.35,2.3-.42,3.57,1.94,4.06,3.82.6,1.94,1.01,3.92,1.35,5.92,0,0-.16,0-.16,0,.72-3.49,1.78-7.03,4.19-9.75,1.67-2.07,3.67-4.06,6.24-4.93.95-.35,3.94-1.47,4.96-1.96,2.15-.79,3.11,1.74,2.76,3.52,0,0-.22,2.67-.22,2.67-.09,3.72-1.9,6.89-4.47,9.49,0,0-.06-.15-.06-.15,3.86-.08,7.49,1.23,10.96,2.81.55.31,1.11.73,1.34,1.37.22.63.2,1.27.18,1.91-.08,2.02-1.52,3.46-2.66,4.95-.72,1.02-1.13,2.34-2.22,3.07-1.63,1.1-3.74.99-5.57.53,0,0,.07-.16.07-.16,2.8,1.79,5.23,4.11,6.95,6.98,1.21,1.67,1.07,3.9-.33,5.43-.75.66-1.7-.1-2.33-.52,0,0-1.33-.97-1.33-.97-1.57-1.38-4.4-1.7-5.92-2.64-3.24,1.4-6.59-.16-9.38-1.81-.95-.51-2-.94-3.07-.67-2.13.41-4.16,1.34-5.93,2.59-.85.66-1.68,1.43-2.62,1.98-.44.28-1.01.6-.78,1.13.15.5.59.85,1,1.21,1.96,1.34,2.14,3.94,1.46,6.05-1.11,2.99-3.87,5.66-6.76,6.95-3.25.58-6.63-.31-9.71-1.37,0,0,.14-.13.14-.13.34,1.16.6,2.34.72,3.54.41,2.47-.92,4.67-1.79,6.9-.5,1.1-1.21,2.11-2.08,2.95v-.14c2.09,2.49,4.94,1.85,7.48.5,1.22-.62,2.48-1.35,3.16-2.53.7-1.92.27-4.17.92-6.15.53-2.01,2.63-3.28,4.03-4.76,1.05-.9,2.16-1.85,3.58-2.19,1.42-.19,2.95.28,3.89,1.39,0,0-.13-.04-.13-.04,1.66-.54,3.48-1.4,5.24-.86.98.63,1.15,1.92,1.05,2.99,0,0-.14-.13-.14-.13,1.44-.36,2.9-.56,4.38-.61,2.97-.15,5.89.95,8.33,2.63.9.66,1.67,1.64,1.74,2.79.04,2.76-.61,5.52-3.73,6.04-3.51.9-7.23,1.63-10.27,3.69,0,0-.04-.21-.04-.21,3.92,1.12,6.13,4.79,7.88,8.19.33.7.7,1.43.66,2.26-.12,1.24-1.26,2.16-2.38,2.47-1.22.21-2.3-.61-3.3-1.14-1.97-1.13-3.99-2.5-6.04-3.42-.33-.15-.89-.38-1.19-.31.3.94,1.15,1.7,1.67,2.56,1.37,1.85,2.45,4.26,1.73,6.6-1.13,2.41-4.64.93-6.47.24-2.02-.94-4.42-2.51-4.57-4.98-.02-.78.02-1.56.06-2.33.02-1.45.31-3.18-.51-4.44-2.43-1.83-5.66-2.47-8.68-2.23,0,0-4.64.1-4.64.1l.12-.16c.5,1.98,0,4.25-1.55,5.64,0,0-4.3,4.18-4.3,4.18,0,0-.14-.22-.14-.22,7.7-3.06,15.6-1.1,10.29,8.49-.25.78.22,1.69-.15,2.48-.32.82-.9,1.47-1.48,2.08-2.98,3.08-7.44,4.2-11.62,4.11-.68.01-1.69,0-2.36,0-.04,0-.1,0-.14,0-.01.06,0-.51,0-.27.06-.01.12.02.15.07,0,0,1.96,3.38,1.96,3.38.64,1.14,1.29,2.26,1.85,3.45,0,0-.14-.08-.14-.08,3.06-.52,6.27-1.66,8.02-4.4,1.02-1.21,2.06-2.45,3.41-3.35,1.35-.94,3.05-1.18,4.64-1.07,1.6.09,3.16.47,4.73.49,1.19.06,2.48,0,3.55.64.36.22.64.6.74,1.02.22,3.3-1.99,6.46-5.06,7.53,0,0,.02-.26.02-.26,2.37,1.31,4.83,3,5.81,5.64.68,1.68,1.21,3.66.39,5.39-.85,1.67-2.79,2.72-4.64,2.61-.94-.08-1.8-.45-2.65-.75,0,0,.15-.24.15-.24,1.53,1.68,2.46,4.02,2.06,6.31-.23,1.12-.47,2.19-.77,3.3-.17.55-.38,1.25-1.04,1.4-.96.05-1.69-.43-2.44-.91-.26-.19-.36-.56-.44-.78-.2-.48-.62-.86-1.04-1.21-1.7-1.44-3.95-2.33-5.17-4.32-1.53-2.9-1.24-6.86-3.81-9.15-.87-.69-2.03-.65-3.14-.93-1.11-.25-2.16-.67-3.25-.84-2.26-.41-4.24,1.1-6.2,2-1.99,1.03-3.97,2.09-5.94,3.17l.04-.23c.35.38.68.78.99,1.2.31.46.67.86.68,1.47,0,0-.26-.12-.26-.12,1.9-1.91,3.86-4.24,6.6-4.91,1.66-.04,3.33.95,4.45,2.15,1.58,1.73,1.45,4.21,1.38,6.37.07,2.23-.66,4.48-2.17,6.15,0,0-.1-.25-.1-.25,2.27.36,4.53.96,6.51,2.19,2.09,1.23,2.44,3.8,4.06,5.48.37.46.79,1.13.41,1.71-.35.54-.81.86-1.24,1.25-2.64,2.15-5.8,4.09-9.34,4.04,0,0,.11-.28.11-.28,1.64,1.51,2.73,3.62,2.81,5.86.07,3.13-1.78,7.43-5.45,7.13-3.28-.46-6.22-2.78-7.89-5.59,0,0,.29.02.29.02-1.18,2-2.57,4.09-4.81,5.01-1.16.43-2.42-.03-3.43-.65-2.1-1.35-2.41-4.01-2.94-6.22-.67-3.43-1.46-6.89-1.11-10.41,0,0,.06.18.06.18-3.12-1.65-6.98-.62-10.14.53-3.29,1.22-6.56,2.76-9.1,5.19-1.29,1.2-2.22,2.7-3.2,4.18-3.04,4.38-5.48,9.05-7.63,13.93,0,0-.28-.18-.28-.18,3.92-4.56,8.05-8.96,11.4-13.97,1.73-2.34,4.26-4.96,7.46-4.63,1.92.4,4.35.36,5.66,2.05.56.95.23,2.06.09,3.06-.6,4.27-5.17,6.56-9.1,6.76-1,.1-2.02.08-2.97.29-2.76,1.05-5.12,3.07-7.18,5.18-8.58,8.53-14.62,19.06-21.74,28.75,0,0-.24-.26-.24-.26,4.83-3.23,9.79-6.37,14.3-10.03,3.84-3.35,8.08-6.29,11.25-10.32,4.82-4.31,11.23-7.76,17.86-7.44,2.93.18,5.82.85,8.57,1.89,2.61,1.02,5.7,2.67,7.47,4.42,4.82,1.48,9.26,4.14,12.72,7.81,4.28,4.49,8.96,8.75,14.45,11.71,1.1.61,2.28.97,3.43,1.5,2.27,1.14,4.19,2.88,5.72,4.88.45.66,1,1.33,1.11,2.17,0,.1-.01.23-.12.35-.1.12-.27.15-.36.14-1.58-.31-2.9-1.3-4.36-1.87-2.27-1.04-4.7-1.54-7.19-1.66-4.95-.29-10.02-.02-14.75,1.52-7.06,2.72-14.74,3.26-22.2,2.43-2.48-.05-4.96.37-7.5.24-2.54-.1-5.01-.99-7.15-2.3-3.23-1.97-6.05-4.49-8.64-7.23-2.32-2.74-5.33-5.9-9.24-4.38-2.17.78-4.55,2.39-6.53,3.54-6.54,3.76-11.74,9.23-16.08,15.35-4.37,6.06-8.82,12.15-11.74,19.07,0,0-3.04,6.85-3.04,6.85-2.93,6.79-8.97,20.71-11.93,27.51-2.03,4.57-4.02,9.15-6.27,13.63-.05.1-.18.15-.28.09,3.31-13.74,7.69-27.7,12.39-41.18,3.16-7.93,5.29-16.3,6.32-24.76.59-5.36,1.44-11.93-2.86-16.02-2.08-2.06-4.98-2.5-7.61-3.57-2.66-1.13-5.05-2.83-7.03-4.93-1.47-1.58-2.75-3.4-3.46-5.46-.45-2.19-1.54-3.79-3.28-5.23-1.05-.96-2.18-1.81-3.22-2.84-3.88-4.36-5.22-10.31-5.76-15.97.38-.76.44-1.78.19-2.72-.62-2.8-2.56-4.94-4.02-7.35-1.78-3.44-1.74-7.42-1.68-11.18.01-2.79.39-5.67-.35-8.37-.99-2.62-3.12-4.62-4.72-6.92-2.23-2.77-.94-3.7,2.05-2.18,4.32,2.14,6.48,6.84,10.32,9.62,3.83,2.66,7.9,5.16,12.35,6.64,1.79.6,3.7.76,5.49,1.35,7.3,2.19,13.76,6.98,17.74,13.5,3.08,4.75,5.87,9.82,7.26,15.35,1.29,5.63-.89,11.34-1.85,16.82-.65,3.72-.85,7.5-1.81,11.17-.77,3.69-2,7.29-2.92,10.94-1.7,7.34-3.09,14.76-4.48,22.17,0,0-.45-.15-.45-.15,1.67-3.37,3.37-6.72,5.13-10.04,1.81-3.28,3.49-6.73,5.89-9.64,3.27-4.23,6.76-9.29,9.84-13.73,3.44-4.51,5.24-9.89,6.43-15.38.73-3.63,1.14-7.48.06-11.02-1.37-3.47-3.8-6.42-6.13-9.29-2.3-2.99-5.36-5.45-6.99-8.92,0,0,.16.16.16.16-2.6-.96-10.26-3.38-9.81-6.68.47-2.51,2.53-4.57,5.01-5.18,0,0-.19.3-.19.3-.81-3.67-1.43-7.39-1.56-11.15.02-3.72.45-7.49-.42-11.13-.19-1.57-1.88-2.96-.98-4.58.6-.89,1.76-1.04,2.72-1.11,5.16-.18,9.91,2.49,13.43,6.04,1.5,1.34,1.39-.22,1.69-1.35.2-1.26.71-2.58,1.83-3.33,2.03-1.52,4.2-3.02,6.83-3.22,0,0-.21.39-.21.39,0,0-2.55-3.32-2.55-3.32,0,0,.36.02.36.02-2.37,2.1-5.17,4.71-8.59,4.4-2.17-.26-4.61-1.36-5.22-3.66-.27-1.13.03-2.31.45-3.3.81-2.03,1.89-3.95,3.32-5.64,0,0,.17.39.17.39-3.2-.2-7.2-.88-8.75-4.05-1.17-3.53-1.89-8.98,2.14-10.91,3.05-1.46,6.78-1.14,9.7.48,0,0-.32.22-.32.22-.24-1.66-.42-3.33-.55-5-.16-2.06-.23-4.24.4-6.27,0,0,.19-1.24.19-1.24.3-2.99,2.87-2.81,5.11-2.1,0,0,1.2.41,1.2.41,0,0-.21.03-.21.03,2.07-1.51,4.21-3.32,6.84-3.61,0,0-.2.29-.2.29-.88-2.68-2.17-5.29-2.19-8.15,0,0,.22.25.22.25-1.82.25-3.64.73-5.41,1.27-1.8.52-3.56,1.46-5.49,1.27-2.26-.15-5.3-1.95-4.56-4.58.51-1.49,2.33-1.81,3.64-2.13,0,0-.07.36-.07.36-1.45-1.04-2.81-2.37-3.35-4.17-1.01-3.22,3.36-7.44,6.44-7.4,1.87-.01,3.53.92,4.97,1.94,0,0-.3.15-.3.15.26-2.95.89-9.54,5.07-8.74,1.77.45,3.68,1.06,4.93,2.57,3.7,5.02-.78,10.98-2.71,15.6,0,.1-.02.06.07.13,1.38.97,2.95,1.79,4.58,2.21,1.76.32,3.68.08,5.49.72,0,0-.23.13-.23.13.57-1.96.98-4.31,2.92-5.43,1.06-.26,1.86-.8,2.9-1.09,1.05-.29,2.19,0,3.09.52,3.68,2.05,6.11,6.08,6.03,10.31,0,0-.23-.15-.23-.15,2.25-.79,4.57-1.71,6.99-1.59,0,0-.16.08-.16.08l.78-1.34.07.23c-1.24-.66-2.38-1.46-3.36-2.48-2.47-2.32-1.65-5.23.31-7.57.88-1.08,1.92-2.03,3.07-2.82,0,0-.02.25-.02.25-2.42-2.2-4.79-4.47-6.82-7.04-.65-.88-1.32-1.77-1.62-2.88,0,0,.29.03.29.03-1.64,3.61-3.86,7.76-7.9,9.05-1.99.52-4.46-.14-5.6-1.93-1.75-3.72,2.5-8.22,5.13-10.47.56-.41,1.09-.85,1.83-1.02l.02.28c-3.98-.13-8.34-.59-11.52-3.22-1.95-1.58-2.31-4.3-1.59-6.59,1.19-4.75,6.59-6.01,10.87-5.06,0,0-.16.14-.16.14-.31-2.37-.45-4.76-.27-7.15.17-1.75.44-3.76,1.86-4.98,2.46-2.01,6-1.61,8.41.26,2.01,1.28,3.7,3.52,3.31,6.02,0,0-.2-.1-.2-.1.86-.84,1.78-1.61,2.76-2.31.98-.68,2.03-1.32,3.22-1.62,1.77-.26,3.73-.06,5.3.83,1.14.71,1.28,2.12,1.07,3.31-.41,2.95-1.09,5.99-2.77,8.5-.74.95-1.49,1.87-2.36,2.73l-.11-.18c4.44-.89,1.52,8.92,1.73,11.29-.08,3.07-.2,6.56,1.71,9.13.64.82,1.58,1.37,2.61,1.56,0,0-.1.14-.1.14-1.09-2.32-1.86-4.8-2.11-7.36-.37-2.6.57-5.11,1.65-7.41,1.93-5.06,4.98-5.4,8.74-1.59.92.89,1.78,1.84,2.58,2.84l-.15.06c-.14-2.52-.43-5.04-.83-7.53-.64-3.71-1.47-7.49-3.41-10.75-2.25-3.02-4.98-5.73-7.77-8.25-3.66-3.51-8.9-5.08-11.79-9.42-.71-1.04-1.37-2.2-1.37-3.52.12-1.26.43-2.64,1.52-3.41,1.13-.71,2.53-.35,3.74-.1,1.24.28,2.45.64,3.66,1.03l-.08.08c-.54-2.77-1.57-5.85-.43-8.58.56-.77,1.18-1.6,2.14-1.94.98-.32,1.98.13,2.78.64,2.48,1.55,4.26,4.02,5.42,6.67,0,0-.1,0-.1,0,1.11-1.75,3.04-4.29,5.35-3.26,2.54,1.24,1.11,4.07,1.21,6.21-.01,2.28,1.05,4.37,1.67,6.53.96,3.21,2.1,6.61,1.47,9.99-.53,3.34-1.55,6.65-1.15,10.06-.07,0,.88,13.71.67,13.55,1.98-8.43,4.84-21.39,7.07-29.68h0ZM190.59,70.04c-2.22,8.27-5.06,21.22-7.05,29.69-.18.16-.76-13.54-.82-13.56-.41-3.41.62-6.75,1.14-10.09.62-3.38-.51-6.74-1.47-9.95-.62-2.16-1.69-4.25-1.68-6.56-.1-2.12,1.31-4.92-1.16-6.12-2.25-1.01-4.12,1.56-5.21,3.22-.02.04-.08.03-.1,0-1.22-2.88-4.71-7.8-8.05-7.24-.89.32-1.53,1.14-2.07,1.9-1.18,2.6.06,5.94.4,8.56-1.22-.36-2.44-.75-3.68-1.02-1.2-.25-2.56-.6-3.64.08-1.03.72-1.35,2.12-1.46,3.3,0,1.25.65,2.41,1.35,3.43,2.89,4.32,8.12,5.89,11.77,9.39,2.81,2.55,5.53,5.24,7.81,8.28,3.14,5.55,3.77,12.11,4.28,18.36,0,.08-.11.12-.15.06-.8-.99-1.65-1.94-2.57-2.82-5.91-5.88-7.91-.4-9.84,5.09-.87,3.74.31,7.66,1.86,11.07.04.07-.03.16-.1.14-4.71-1.05-4.61-7.06-4.5-10.9-.2-2.41,2.56-11.85-1.45-11.08-.11.05-.19-.11-.11-.18,2.67-2.44,4.18-5.79,4.77-9.33.47-2.46.97-4.89-2.32-5.5-1.13-.2-2.38-.4-3.51-.16-2.67.7-4.13,2.57-6.04,3.87.04-1.17-.06-2.42-.75-3.44-1.28-1.92-3.45-3.35-5.66-3.92-2.21-.39-4.98.41-5.96,2.59-1.26,3.32-.84,7.06-.47,10.52,0,.07-.04.14-.11.15-5.71-1.19-11.28,1.28-10.9,7.82.95,5.63,8.5,6.35,13.16,6.53.17,0,.18.26.02.28-1.23.37-2.27,1.43-3.2,2.32-1.81,1.9-3.64,4.2-3.94,6.87-.3,2.91,3.25,4.37,5.67,3.67,3.92-1.26,6.09-5.34,7.69-8.88.05-.13.26-.12.29.02.27,1,.93,1.9,1.57,2.76,2.02,2.54,4.38,4.81,6.79,6.99.08.07.07.19-.02.25-1.11.77-2.14,1.7-3,2.76-3.6,4.24-1.23,7.28,2.95,9.55.08.04.11.15.07.23,0,0-.78,1.34-.78,1.34-.03.06-.1.09-.16.08-.56-.07-1.15,0-1.73.09-1.74.29-3.45.86-5.1,1.48-.11.05-.23-.04-.23-.15.08-4.11-2.29-8.03-5.86-10.01-.87-.5-1.89-.75-2.84-.49-.94.25-1.87.86-2.87,1.08-1.7.97-2.2,3.39-2.7,5.18-.02.09-.11.15-.21.13-2.57-.81-5.66-.16-8.09-1.72-.79-.44-1.64-.81-2.28-1.44-.12-.6.3-1.12.49-1.61,2.12-4.16,5.48-9.57,2.26-13.99-1.14-1.4-2.98-2-4.73-2.44-3.8-.77-4.35,5.8-4.6,8.4,0,.15-.19.23-.3.15-1.41-.99-3.02-1.88-4.74-1.86-2.87-.07-6.98,3.99-6.07,6.91.49,1.64,1.8,2.96,3.19,3.94.14.09.09.33-.07.36-1.24.31-2.85.56-3.34,1.86-.67,2.33,2.19,3.94,4.2,4.06,1.84.2,3.54-.75,5.34-1.26,1.8-.55,3.61-1.03,5.49-1.29.11-.02.21.06.23.17.04,2.72,1.32,5.42,2.18,7.99.06.14-.06.29-.2.29-2.48.3-4.61,2.08-6.57,3.52-.06.05-.14.06-.21.03,0,0-1.18-.4-1.18-.4-1.94-.58-4.34-.98-4.56,1.76,0,0-.19,1.24-.19,1.24-1.03,3.6-.26,7.46.16,11.13.04.18-.18.31-.33.22-3.25-1.78-7.99-2.07-10.79.65-2.02,2.54-1.31,6.34-.42,9.22,1.46,2.96,5.33,3.57,8.34,3.77.2,0,.29.25.17.39-1.37,1.62-2.44,3.52-3.23,5.5-2.35,4.67,3.65,7.64,7.42,5.78,1.92-.9,3.63-2.27,5.17-3.74.1-.1.27-.08.36.03,0,0,2.55,3.32,2.55,3.32.13.15,0,.4-.19.39-1.15,0-2.33.56-3.42,1.1-2.06,1.16-4.53,2.44-4.74,5.06-.24.71-.11,1.92-1.04,2.27-.59.1-1.04-.32-1.45-.63-1.83-1.71-3.72-3.31-5.96-4.37-2.24-1.24-12.07-3.51-9.03,1.7,1.77,4.12,1.04,8.73,1.06,13.06.13,3.72.75,7.42,1.54,11.05.03.13-.05.27-.19.3-1.5.36-2.87,1.36-3.75,2.64-.43.65-.74,1.38-.88,2.15-.18.7.32,1.37.87,1.9,2.44,2.19,5.88,3.08,8.76,4.39,1.6,3.32,4.64,5.84,6.89,8.74,2.11,2.52,4.14,5.18,5.67,8.11,3.08,7.11-.19,16.59-2.97,23.37-1.69,3.16-4.28,6.49-6.25,9.43-2.17,3.07-4.35,6.13-6.65,9.12-4.53,5.97-7.51,12.98-10.98,19.59-.1.24-.51.11-.45-.15,1.4-7.42,2.78-14.83,4.49-22.2.92-3.67,2.14-7.23,2.92-10.93.96-3.67,1.15-7.44,1.8-11.16.74-3.71,1.73-7.36,2.14-11.09.57-3.75-.63-7.41-2.08-10.85-1.49-3.45-3.31-6.75-5.39-9.89-2.04-3.16-4.45-6.06-7.51-8.27-3.01-2.23-6.4-3.95-9.98-5.04-1.8-.59-3.7-.75-5.49-1.35-3.62-1.18-6.94-3.08-10.13-5.12-3.29-1.92-5.86-4.82-8.33-7.68-1.18-1.48-2.57-2.68-4.27-3.49-.42-.2-.84-.39-1.27-.53-.41-.13-.93-.23-1.19-.09-.22.09-.02.61.19.98,1.25,1.98,2.86,3.72,4.18,5.67,2.56,3.09,1.73,7.36,1.75,11.05-.16,4.63.03,9.6,3.18,13.29,1.42,2.29,3.53,5.3,2.28,8.08.31,1.91.76,5.77,1.66,8.18.86,2.69,2.11,5.29,4.02,7.36,1.99,2.01,4.67,3.5,5.95,6.18.73,2.77,1.98,5.3,4.01,7.35,1.93,2.05,4.28,3.72,6.88,4.83,2.61,1.04,5.63,1.57,7.74,3.65,4.43,4.19,3.61,10.91,2.99,16.39-1.04,8.49-3.18,16.9-6.35,24.86-4.85,13.41-8.67,27.16-12.5,40.89,0,0-.39-.15-.39-.15,2.24-4.45,4.23-9.04,6.26-13.6,3.01-6.93,8.94-20.6,11.93-27.51,1.96-4.24,4.05-9.67,6.42-13.56,2.6-4.28,5.44-8.4,8.41-12.43,4.34-6.12,9.63-11.68,16.2-15.45,2.04-1.18,4.43-2.84,6.62-3.58,4.09-1.6,7.25,1.64,9.66,4.49,2.55,2.71,5.37,5.22,8.55,7.16,2.11,1.29,4.49,2.14,6.97,2.25,2.47.13,4.96-.29,7.48-.24,7.44.82,15.02.31,22.07-2.4,6-1.86,12.48-2.1,18.64-1.06,2.77.51,5.17,2.24,7.79,3.05.09-.02.06.03.08-.09,0-.11-.04-.25-.1-.39-1.69-3.26-4.79-5.82-8.23-7.04-6.32-2.82-11.51-7.66-16.26-12.59-3.4-3.61-7.82-6.25-12.54-7.7-4.39-3.81-10.19-5.9-15.96-6.3-5.82-.37-11.38,2.52-15.95,5.89-1.18.86-2.13,1.95-3.02,3.09-2.98,3.24-6.59,5.79-9.87,8.67-4.55,3.69-9.48,6.81-14.34,10.05-.16.12-.37-.12-.24-.26,7.12-9.69,13.18-20.24,21.77-28.77,2.1-2.14,4.49-4.21,7.35-5.28,1.02-.22,2.02-.2,3.02-.3,2.92-.18,5.97-1.36,7.73-3.77.57-.79.88-1.74,1.06-2.71.13-.96.44-2.02-.04-2.82-.49-.79-1.54-1.08-2.47-1.34-1.89-.43-3.94-.98-5.76-.03-3.65,1.8-5.27,5.91-7.91,8.82-2.56,3.1-5.19,6.13-7.84,9.15-.12.15-.37-.02-.28-.18,2.14-4.85,4.62-9.59,7.66-13.97.97-1.47,1.93-3,3.25-4.23,3.98-3.56,9.16-5.74,14.39-6.59,1.77-.15,3.64-.1,5.28.84.06.03.08.11.06.18-.32,3.39.45,6.92,1.11,10.25.53,2.71,1.24,6.02,4.35,6.7,2.95.52,4.89-2.76,6.24-4.92.06-.12.24-.1.29.01.43.94,1.23,1.74,2,2.48,2.17,1.99,5.84,4.26,8.51,1.95,3.1-3.13,2.87-8.6-.47-11.47-.12-.09-.03-.29.11-.28,2.25.07,4.43-.84,6.36-1.99,1.39-.87,2.9-1.88,3.93-3.14.29-.43-.05-.93-.39-1.37-1.17-1.25-1.77-2.95-2.72-4.32-1.94-2.06-4.93-2.75-7.64-3.23-.12-.01-.17-.16-.1-.25,2.34-2.49,2.27-6.05,2.06-9.24-.23-2.21-1.86-3.95-3.92-4.66-1.05-.51-2.05-.32-3,.26-1.87,1.1-3.46,2.66-4.93,4.26-.09.1-.27.03-.26-.11-.16-.94-1-1.71-1.6-2.44-.06-.06-.05-.16,0-.21,1.97-1.1,3.97-2.15,5.98-3.19,2.01-.92,4.04-2.46,6.38-2.02,1.7.32,3.21.95,4.92,1.16,3.13.56,3.64,4.25,4.42,6.77.33,1.07.55,2.19,1.07,3.15,1.18,1.91,3.42,2.82,5.11,4.24.43.37.88.76,1.12,1.32.11.3.16.51.36.67.61.42,1.48.9,2.19.84.47-.09.66-.69.82-1.2.29-1.06.54-2.18.76-3.26.39-2.18-.52-4.45-1.98-6.06-.11-.1.02-.29.15-.24.86.31,1.7.66,2.58.73,1.72.12,3.58-.92,4.36-2.45,1.02-2.46-.21-5.47-1.77-7.45-1.21-1.32-2.73-2.36-4.31-3.21-.11-.05-.1-.22.02-.26,2.22-.79,3.97-2.67,4.62-4.93.46-1.61.67-3.19-1.41-3.52-.76-.16-1.55-.17-2.35-.2-3.07-.08-6.46-1.39-9.21.53-2,1.31-3.26,3.42-4.94,5.09-1.77,1.47-4.52,2.55-6.75,2.63-.93-1.99-2.69-4.86-3.8-6.81,0,0,.12.07.12.07h-.01c0,.24,0-.32,0-.27,0,0,.03,0,.03,0,0,0,.08,0,.08,0,0,0,.16,0,.16,0,0,0,.31,0,.31,0,1.42-.02,2.98.06,4.38-.09,4-.39,8.43-2.2,10.35-5.91.36-.81-.13-1.64.15-2.47.67-1.57,1.52-3.02,1.72-4.67.48-4.22-3.53-4.95-6.86-4.78-1.64.17-3.24.73-4.8,1.29-.13.05-.23-.12-.14-.22,0,0,4.3-4.18,4.3-4.18,1.47-1.33,1.95-3.5,1.48-5.38-.03-.08.04-.16.12-.16,1.5-.01,5.48-.14,6.97-.12,2.16.07,4.2.94,6.08,1.95.92.54,1.04,1.76,1.08,2.69.22,2.23-.8,4.77.68,6.7,1.89,2.32,5.1,3.69,8.06,3.72,1.8-.02,2.1-1.91,1.85-3.36-.12-1.53-.98-2.87-1.84-4.13-.67-1.03-3.35-3.95-.18-2.62,2.8,1.21,5.32,3.28,8.12,4.46,1.39.52,3.1-.78,3.27-2.16-.03-1.51-1.06-2.86-1.76-4.16-1.44-2.67-3.61-5.17-6.59-6.04-.07-.01-.11-.08-.09-.15,3.04-2.17,6.86-2.85,10.4-3.78.71-.18,1.4-.4,1.97-.84,1.17-.88,1.45-2.45,1.55-3.88.07-.72.1-1.44-.22-2.1-1.02-1.97-3.33-2.76-5.28-3.57-2.95-1.15-5.9-.42-8.76-.1.1-.98-.06-2.22-.93-2.79-1.72-.56-3.56.53-5.18.84-3.64-3.74-7.52,1.24-10.16,3.73-1.98,2.15-.91,5.42-1.89,7.95-.73,1.27-2.03,2-3.26,2.63-2.63,1.41-5.59,2-7.73-.56-.04-.04-.03-.1.01-.14.86-.82,1.54-1.8,2.04-2.89.85-2.18,2.18-4.34,1.78-6.79-.12-1.18-.37-2.36-.71-3.49-.03-.08.06-.16.14-.13,2.99,1.04,6.4,1.93,9.56,1.37,3.71-1.75,7.52-5.59,6.91-10.01-.1-1.09-.83-1.96-1.68-2.63-.53-.48-1.59-1.38-.87-2.15,2.87-2.1,5.65-4.52,9.3-5.1,1.1-.26,2.24.16,3.19.69,2.77,1.68,6.11,3.12,9.29,1.81,1.98.96,4.26,1.29,6.03,2.66,0,0,1.34.97,1.34.97.44.31.9.65,1.41.74.53.11.91-.38,1.15-.84.24-.48.47-.99.59-1.51.25-1.06-.18-2.14-.76-3.05-1.7-2.84-4.1-5.15-6.89-6.92-.09-.05-.02-.19.07-.16,2.31.62,5.4.51,6.62-1.89,1.02-2.28,3.48-3.86,3.6-6.5.12-1.25-.16-2.57-1.43-3.11-3.42-1.55-7.05-2.88-10.87-2.79-.07,0-.11-.1-.06-.15,1.2-1.28,2.32-2.72,3.19-4.24,1.22-2.33,1.2-5.24,1.46-7.8.28-1.61-.45-4.12-2.52-3.36-1.32.6-3.58,1.43-4.98,1.97-2.56.86-4.51,2.82-6.18,4.88-2.53,2.66-3.31,6.41-4.25,9.74-.73-2.85-.95-6.16-2.67-8.66-1.28-1.68-4.05-1.19-5.02.57-.54.85-.99,1.75-1.4,2.67-.81,1.84-1.53,3.75-1.95,5.71-.32,1.99.29,4.01,1.02,5.86.47,1.16,1.04,2.31,1.6,3.43.12.27.06.54.03.79-1.26,4.38-3.73,8.42-5.98,12.32,0,0-3.98-.15-3.98-.15-.04,0-.07-.03-.07-.07.56-.61,1.27-1.13,1.93-1.64,3.72-2.15,4.37-7.02,4-10.95-.15-1.28-.08-3.65-.37-4.92-.36-1.68-1.94-2.64-3.52-2.99-1.62-.48-3.19.62-4.53,1.42-2.78,1.79-5.19,4.26-7.6,6.43.55-4.7,2.06-9.29,3.73-13.71,1.51-4.5,4.06-8.61,7.57-11.83,3.55-3.2,8.72-3.64,13.12-5.06,4.54-1.22,9.1-2.75,12.94-5.54,2.09-1.33,2.77-3.74,3.56-5.92.31-1.1.15-2.44-.69-3.24-.45-.43-1.04-.41-1.63-.34-2.96.08-5.89-.64-8.83-.63-2.34.21-4.65.93-6.69,2.09-3.86,2.69-6.54,6.81-9.47,10.44,0,0-8.17,11.59-8.17,11.59.97-5.17,3.41-10.68,5.91-15.52.68-1.21,1.49-2.35,2.38-3.41,2.57-3.29,5.6-6.16,8.64-8.99,3.71-3.98,7.59-8.42,8.75-13.87.45-2.64-.6-5.87-3.07-7.1-1.36-.36-2.73.27-3.89.97-1.19.64-2.28,1.84-3.27,2.59.12-1.98-1.38-3.8-3.45-3.8-2.62-.35-4.25,2.22-5.18,4.31-1,2.22-1.51,4.68-1.97,7.03-.82-1.37-1.68-2.79-2.85-3.9-1.54-1.53-2.76-.67-3.75,1.01-3.04,4.71-3.74,11.17-.45,15.93,1.83,3.61,2.71,7.61,3.17,11.6h0Z"/>
      <path d="M98.73,113.68c-8.73.09-17.93,4.23-22.15,12.18-2.79,5.1-4.89,10.96-4.18,16.84.86,5.84,4.3,11.1,9.05,14.56,2.33,1.8,4.79,3.43,7.33,4.92l-.25.33c-1.94-1.85-3.79-3.79-5.54-5.82-2.6-3.06-5.12-6.29-6.68-10.03-.47-1.26-.81-2.65-.8-3.99-.26-5.31.34-11.06,3.67-15.43,1.68-2.12,3.7-3.91,5.74-5.63,4.13-3.3,8.65-6.57,13.81-7.93h0ZM98.78,113.67c-2.61.79-4.97,2-7.22,3.44-4.44,2.89-8.72,6.25-12.06,10.37-4.08,5.43-5.13,16.96-.91,22.51,2.83,4.49,6.43,8.5,10.23,12.22.09.08.09.22,0,.3-.07.07-.18.08-.26.03-2.55-1.51-5.02-3.16-7.36-4.98-4.78-3.51-8.27-8.89-9.11-14.82-.69-5.96,1.44-11.85,4.29-16.99,4.33-7.96,13.54-12.15,22.38-12.08h0Z"/>
      <path d="M61.76,149.49c-8.58,1.93-3.49,11.49,1.25,14.87,4.59,3.42,10.49,5.88,13.36,11.09,2.38,3.57,3.94,5.1-.18,8.3-3.79,3.09-11.08,2.69-12.04,8.49,0,0-.28-.11-.28-.11,1.28-1.58,2.68-3.16,4.51-4.11,3.04-1.33,6.53-1.97,9.26-3.86.09-.1.26-.07.3.06.32,3.24-6.43,4.79-8.59,6.41-4.06,2.15-3.24,5.72-1.33,9.15,0,0-.4.14-.4.14-.11-2.11-.86-4.81.52-6.63,2.45-3.02,6.39-3.69,9.74-5.16,1.92-.94,3.82-2.24,4.73-4.22,1.22-3.33.74-7.46-1.66-10.17-4-4.41-10.09-5.99-14.79-9.48-5.49-3.55-8.99-8.8-4.39-14.77h0ZM61.81,149.46c-5.72,7.91,1.82,13.27,8.26,16.89,3.92,2.05,8.13,3.76,11.21,7.1,2.54,2.83,3.1,7.15,1.78,10.65-.96,2.09-2.97,3.48-4.97,4.45-2.68,1.28-5.67,1.65-8.01,3.57-1.14.88-2.33,1.86-2.25,3.37-.08,1.45.05,2.93.23,4.38.01.12-.07.23-.19.24-.09.01-.17-.04-.21-.11-1.23-2.31-2.64-5.63-.68-7.96,1.88-2.09,4.67-3.02,7.11-4.21,1.32-.75,3.55-1.74,3.52-3.47,0,0,.3.06.3.06-3.31,2.46-7.78,2.46-11.01,4.99-1.02.86-1.94,1.86-2.77,2.91-.05.07-.15.08-.22.03-.03-2.77,2.77-4.71,5.1-5.68,2.44-.9,4.94-1.56,7.05-3.14,4.02-3.06,2.38-4.53.15-7.97-2.85-5.2-8.7-7.65-13.26-11.09-4.78-3.35-9.85-13.3-1.12-15.01h0Z"/>
      <path d="M83.51,171.71c1.85,2.08,3.79,4.55,4.21,7.41-.15,2.76-.63,6.02-2.72,8.06-3.01,2.5-7.13,2.86-10.48,4.71-2.42,1.23-4.29,4.25-3.62,6.96.96,2.55,3.9,4.34,6.38,5.07,0,0-.16.35-.16.35-1.47-1.3-2.88-2.67-4.01-4.3-.54-.85-1.12-1.83-.86-2.9.65-3.17,4.03-4.53,6.83-5.04,3.63-.91,7.63-2.37,9.51-5.82,3.41-5.99.21-11.19-5.09-14.5h0ZM83.47,171.68c2.65,1.35,4.76,3.56,6.16,6.15,1.29,2.73.7,5.99-.67,8.58-1.88,3.63-6.02,5.2-9.75,6.11-1.88.41-3.81.93-5.15,2.26-.66.65-1.1,1.5-1.35,2.41-.22.83.28,1.75.78,2.53,1.07,1.58,2.46,2.97,3.9,4.25.17.11.04.41-.16.35-1.97-.47-3.58-1.64-5.02-2.93-.72-.65-1.36-1.47-1.63-2.44-.71-2.87,1.29-6.05,3.82-7.31,3.35-1.84,7.49-2.18,10.47-4.61,2.05-1.97,2.56-5.19,2.73-7.9-.4-2.89-2.31-5.23-4.13-7.45h0Z"/>
      <path d="M196.53,224.68c10.85,1.18,24.6,5.02,29.1,16.06,1.84,5.48,1.77,11.72-.45,17.08-2.26,5.42-6.98,9.53-12.31,11.79-.14.06-.25-.16-.11-.23,5.13-3.13,7.95-9.15,8.25-15.04.15-1.98-.04-3.97-.25-5.94-.02-.09.05-.17.14-.18.08,0,.16.05.17.13.31,2.31.18,4.64-.29,6.91-.93,4.53-3.81,8.7-7.91,10.91-.83.58-2.22,1.05-3.14,1.47-1.09.38-2.22.64-3.33.96-.1.03-.2-.03-.23-.13-.03-.1.03-.2.12-.23,6.85-3.07,12.75-9.51,13.03-17.3.24-4.58-1.17-8.98-3.96-12.62-3.41-4.85-8.42-8.68-14.28-9.9-.27-.03-.24-.49.05-.46,6.92.39,13.49,3.95,17.6,9.51,4.39,5.51,5.1,12.83,4.29,19.6,0,0-.37-.09-.37-.09,1.8-5.59,2.78-12.3-.4-17.57-3.59-4.86-8.4-8.95-14.03-11.26-3.76-1.57-7.68-2.53-11.67-3.49h0ZM196.58,224.69c10.18,2.01,18.18,5.12,24.95,13.36,4.35,5.33,3.4,12.95,1.46,19.08-.07.21-.39.14-.37-.08.3-3.37.39-6.81-.2-10.13-1.9-10.04-11.14-17.98-21.32-18.48,0,0,.05-.46.05-.46,5.97,1.25,11.08,5.15,14.54,10.1,2.82,3.69,4.28,8.24,4.02,12.9-.3,7.95-6.3,14.5-13.3,17.62,0,0-.11-.36-.11-.36,10-2.06,15.62-9.66,14.44-19.84,0,0,.31-.05.31-.05,1.21,7.83-1.03,16.93-8.18,21.25,0,0-.11-.23-.11-.23,10.06-4.17,15.35-13.63,13.7-24.38-1.68-14.01-17.88-18.89-29.89-20.31h0Z"/>
      <path d="M169.86,285.67c5.53-.68,11.62-.6,16.69,2.02,5.29,2.52,7.02,10.09,3.62,14.74-4.15,4.09-11.57,1-16.21-.79-5.23-2.25-10.21-5.07-14.87-8.36-2.28-1.7-4.7-3.19-7.28-4.38-7.64-3.67-16.83-4.4-24.7-1.02-6.42,2.81-12.25,7.48-16.08,13.38-3.04,4.97-.77,7.75,4.68,8.2,0,0-.08.37-.08.37-5.25-1.9-4.8-6.13-1.11-9.52,5.06-4.85,11.98-9.29,19.29-7.95,7.71,2.02,15.09,5.24,22.03,9.16,2.73,1.65,5.37,3.42,8.15,4.93,2.77,1.52,5.69,2.82,8.76,3.54,6.13,1.43,12.72.57,18.71-1.11,2.98-.95,5.77-2.79,7.2-5.64,1.43-2.8,2.85-5.74,3.01-8.9.25-3.23-1.57-6.16-4.16-7.97-7.9-5.27-19.06-2.83-27.68-.69h0ZM169.81,285.68c8.53-2.34,20.03-4.72,27.86.49,2.65,1.83,4.56,4.87,4.31,8.17-.15,3.25-1.57,6.23-2.99,9.05-1.45,2.94-4.33,4.88-7.38,5.86-6.1,1.74-12.71,2.68-18.96,1.21-3.13-.74-6.08-2.06-8.87-3.59-2.8-1.53-5.45-3.31-8.16-4.95-6.85-3.89-14.24-7.12-21.87-9.13-7.15-1.31-13.95,3.07-18.92,7.81-3.39,3.13-4.11,7.02.93,8.87.24.05.13.41-.08.37-5.63-.45-8.19-3.54-4.95-8.76,3.88-5.96,9.76-10.65,16.26-13.49,7.94-3.4,17.22-2.64,24.93,1.08,2.59,1.2,5.03,2.71,7.31,4.42,4.63,3.28,9.6,6.12,14.81,8.37,4.57,1.77,11.94,4.87,16.02.87,2.6-3.3,2.13-8.61-.32-11.87-4.83-5.55-13.15-5.38-19.93-4.79h0Z"/>
      <path d="M133.75,319.18c-3.45-3.42-1.74-6.07,2.82-5.96,3.27.21,6.44,1.86,8.58,4.33.56.63.82,1.47.87,2.28.57,2.39.6,5.06-.91,7.13-1.91,2.76-5.03,4.25-7.9,5.71-4.3,2.3-8.64,4.77-12,8.35-4,3.91-2.94,9.23,1.05,12.68,2.45,2.15,5.67,3.21,8.89,3.54,0,0-.07.32-.07.32-3.7-1.64-8.5-3.91-9.17-8.36.28-6.56,5.27-12.35,11.53-14.09,5.92-1.91,12.58-3.49,16.8-8.36,2.81-3.25,2.71-8.15.3-11.6-3.52-5.21-9.79-8.51-16.08-8.54-6.65-.41-12.76.8-16.95,6.44,0,0-.2-.22-.2-.22,1.74-1.04,3.55-1.94,5.46-2.61,1.82-.56,4.32-1.34,5.8.33.03.04.03.1,0,.14-.66.66-1.24,1.41-1.71,2.22-1.9,3.25-.35,5.22,2.89,6.29h0ZM133.79,319.21c-1.75-.5-3.88-1.58-3.89-3.68.02-1.95,1.25-3.63,2.52-5.01,0,0,0,.14,0,.14-1.4-1.53-3.83-.76-5.55-.21-1.88.67-3.68,1.58-5.39,2.62-.13.1-.31-.1-.2-.22,4.23-5.76,10.41-7.06,17.2-6.69,6.44-.02,12.87,3.35,16.47,8.73,5.89,9.59-2.79,15.99-11.29,18.68-3.98,1.49-8.37,2.09-11.68,4.79-3.23,2.57-5.49,6.69-5.7,10.81.63,4.25,5.38,6.49,8.92,8.08.18.05.11.35-.07.32-6.3-.39-13.83-5.4-12.6-12.47,1.93-6.03,9.39-9.68,14.59-12.6,2.88-1.46,5.97-2.91,7.86-5.63,1.79-2.39,1.31-5.5.7-8.2-1.74-3.17-5.58-5.06-9.1-5.36-4.57-.1-6.12,2.42-2.78,5.9h0Z"/>
      <path d="M190.76,240.32c1.63.8,3.35,1.91,4.29,3.61.76,1.05,1.33,2.62,2.57,3.11.36.1.71-.27.88-.63.95-4.07-4.97-5.03-7.74-6.09h0ZM190.72,240.31c3.24.47,9.48,1.79,8.15,6.28-.22.48-.75.95-1.31.82-1.44-.56-1.92-2.18-2.71-3.34-.86-1.71-2.47-2.77-4.12-3.75h0Z"/>
      <path d="M174.32,56.67c-1.28,2.71-1.84,5.9-.97,8.78,1.48,4.28,3.64,8.33,5.38,12.52,1.86,4.17,2.1,8.87,2.84,13.35,0,.03-.04.04-.05.01-1.14-4.39-1.42-8.97-3.24-13.17-1.65-4.25-3.74-8.29-5.16-12.64-.8-2.91-.19-6.42,1.21-8.85h0Z"/>
      <path d="M164.53,59.82c1.64,2.59,3.94,4.79,5.88,7.14-2.48-1.38-4.62-4.7-5.88-7.14h0Z"/>
      <path d="M157.75,58.62c1.16,2.5,2.88,4.84,5.14,6.43,2.33,1.42,5.05,2.71,6.66,5.06.02.02-.02.05-.04.03-2.02-1.99-4.53-3.15-6.85-4.77-2.19-1.68-4.09-4.28-4.91-6.76h0Z"/>
      <path d="M190.81,40.86c-3.21,4.73-3.21,11.2-.84,16.27.95,1.61,1.77,3.52,2.06,5.37.39,2.49.37,5.33-.08,7.64.16-4.41-.05-8.95-2.38-12.81-2.29-5.14-2.2-12.05,1.24-16.46h0Z"/>
      <path d="M194.5,45.36c1.2,2.99,2.15,6.23,1.82,9.49-.26,3.24-.88,6.43-1.81,9.54,0,.03-.05.02-.05-.01.41-3.21,1.04-6.37,1.47-9.57.48-3.18-.55-6.58-1.42-9.45h0Z"/>
      <path d="M205.12,37.85c.25.47.01.99-.15,1.42-1.51,2.99-4.32,5.28-5.32,8.54-.15.45-.26.91-.34,1.37-.4,3.35-.9,6.7-1.58,10.01,0,.03-.05.02-.05,0,.24-3.37.65-6.75,1.19-10.08.48-2.43,1.94-4.52,3.46-6.38.9-1.13,1.9-2.19,2.55-3.49.18-.42.41-.93.21-1.35h0s.03-.06.04-.03h0Z"/>
      <path d="M209.23,68.59c-4.18,1.39-7.59,4.24-10.71,7.2,2.28-3.66,6.75-6.17,10.71-7.2h0Z"/>
      <path d="M202.26,65.91c3.61-1.79,7.66-3.75,11.77-3.34-4,.63-8.16,1.8-11.77,3.34h0Z"/>
      <path d="M217.06,62.92c2.76,0,5.56-.77,7.83-2.35.04-.03.11-.02.14.02-1.54,2.72-4.46,4.54-7.13,6.03-4.07,2.26-8.08,4.71-12.47,6.34-1.47.49-2.9,1.05-4.3,1.69-2.77,1.35-5.67,2.71-7.63,5.14.81-1.29,2.06-2.4,3.37-3.24,2.65-1.62,5.42-3.13,8.4-4.06,4.33-1.62,8.4-3.95,12.46-6.16,2.73-1.42,5.37-3.19,7.13-5.73l.14.13c-2.26,1.51-5.37,2.42-7.94,2.19h0Z"/>
      <path d="M225.88,79.78c-1.93,3.89-3.71,8.11-5.29,12.12.15-2.21,1.19-4.31,2.15-6.29.99-1.92,2.02-4.16,3.15-5.83h0Z"/>
      <path d="M212.73,95.45c-1.04,4.2-2.26,8.64-5.17,11.95-2.19,3.09-4.8,7.88-6.8,11.16-.01.03-.06,0-.04-.02,2.15-5.05,5.15-9.66,8.48-13.97,1.65-2.78,2.59-6.2,3.54-9.11h0Z"/>
      <path d="M204.23,105.14c.65,1.2,1.91,1.62,2.88,2.48.02.02,0,.05-.02.05-.71.02-1.35-.33-1.81-.84-.29-.21-1.23-1.54-1.05-1.69h0Z"/>
      <path d="M234.51,100.4c-7.97.17-16.31.7-23.6,4.19-.03.02-.05-.02-.03-.04,3.35-2.35,7.52-3.18,11.51-3.67,3.97-.46,8.29-.75,12.12-.49h0Z"/>
      <path d="M228.06,108.9c-1.93-2.17-4.75-2.61-7.47-3.1-2.72-.59-5.37-1.45-7.9-2.62-.03-.01-.01-.06.02-.05,2.69.66,5.31,1.53,7.98,2.28,2.62.56,5.85,1.25,7.37,3.49h0Z"/>
      <path d="M225.1,117c-.18-2.68-1.48-5.3-3.76-6.78-2.21-1.61-4.1-3.66-5.53-6-.02-.02.02-.05.04-.03,1.84,1.98,3.65,3.98,5.73,5.71,2.22,1.53,3.69,4.56,3.52,7.1h0Z"/>
      <path d="M207.12,88.01c.86,6.06,1.96,12.24,1.21,18.37,0,0-.27-.2-.27-.2,3.15-1.72,5.61-4.45,8.64-6.37,3.06-1.91,6.21-3.7,9.35-5.42-4.35,3.11-9.27,5.53-13.34,9.06-1.4,1.14-2.87,2.2-4.47,3.06-.13.08-.31-.05-.27-.2.88-6.02-.28-12.44-.84-18.3h0Z"/>
      <path d="M212.22,110.58c1.99,1.67,4.25,3.34,5.5,5.64-2.01-1.6-3.77-3.92-5.5-5.64h0Z"/>
      <path d="M198.33,118.12c1.8.15,4.15.63,5.02,2.38-1.75-1.06-3.09-1.9-5.02-2.38h0Z"/>
      <path d="M166.04,131.31c3.45,3.62.15,9.61-3.63,11.58-1.36.73-2.87,1.15-4.39,1.4,0,0,.08-.17.08-.17,2.08,3.59,2.34,7.27-.2,10.71-1.3,2.02-3.17,4.64-5.93,4.21-3.4-1-7.2-4.26-7.53-7.97,0,0,.41.11.41.11-2.54,4.15-7.56,7.44-11.91,3.65-4.79-3.68-1.6-8.96,1.97-12.11,0,0,.03.24.03.24-2.74-1.83-5.98-3.81-7.25-6.96,1.51,3.02,4.63,4.93,7.41,6.7.09.05.1.17.03.24-3.32,3.04-6.4,8.06-1.87,11.5,3.99,3.61,8.86.31,11.21-3.49.07-.1.2-.14.31-.07.06.04.1.11.1.18.04,1.19.59,2.34,1.31,3.33,2.03,2.55,6.05,6.18,9.13,3.15,1.75-1.68,3.2-3.92,3.99-6.19.57-2.41-.21-4.98-1.39-7.13-.04-.06,0-.16.08-.17,1.5-.23,2.99-.63,4.34-1.34,2.75-1.36,4.51-4.25,5.09-7.19.27-1.53-.57-3.16-1.38-4.23h0Z"/>
      <path d="M125.44,128.48c0-1.64.93-4.78,3.11-3.91-2.03.31-2.65,2.32-3.11,3.91h0Z"/>
      <path d="M164.17,93.19c-3.13,1.54-5.14,4.65-6.19,7.87,0,0-.43-.11-.43-.11,0,.11,0,0-.07-.03-.06-.05-.15-.09-.23-.13-.58-.23-1.22-.29-1.85-.4-.03,0-.03-.05,0-.05.77-.05,1.61-.15,2.32.23.1.09.28.15.26.49-.04.35-.55.21-.43-.11.88-3.33,3.5-6.62,6.62-7.76h0Z"/>
      <path d="M146.29,102.32c3.11.22,6.41-.3,9.02-2.07,0,0-.06.17-.06.17-1.18-4.6-.19-9.43.65-14,.36-1.47.66-3.26,1.2-4.53-.56,3.07-1.06,6.14-1.5,9.22-.34,3.03-.88,6.23-.06,9.21.02.07,0,.14-.06.17-1.35.89-2.88,1.44-4.45,1.71-1.51.23-3.39.42-4.74.11h0Z"/>
      <path d="M144.03,87.71c5.35,2.4,9.19,7.34,11.6,12.56-.63,2.18-1.85,4.26-2.94,6.27-.01.03-.06,0-.04-.02.86-2.07,1.73-4.14,2.52-6.23,0,0,0,.19,0,.19-2.28-5.22-6.12-10.2-11.14-12.77h0Z"/>
      <path d="M169.11,79.82c-2.38,2.04-4.74,4.15-6.76,6.55-1.9,2.48-3.11,5.44-4.49,8.23-.88,1.89-1.87,3.76-2.43,5.77,0,.03-.05.03-.05,0,.3-2.1,1.21-4.04,2.03-5.98,1.37-2.84,2.72-5.75,4.7-8.23,2.08-2.3,4.62-4.61,7.01-6.34h0Z"/>
      <path d="M149.73,82.76c1.06,2.66,2.07,5.33,3.02,8.04.88,2.64,2.13,5.63,2.03,8.33-1.26-5.2-3.55-11.38-5.05-16.36h0Z"/>
      <path d="M143.39,112.74c.75-5.47,7.61-9.73,11.91-12.54,0,0-.01.32-.01.32-5.37-3.58-11.79-5.28-17.96-6.87,4.79.62,9.58,2.03,13.98,4.08,1.46.72,2.87,1.53,4.2,2.48.11.08.11.26-.01.32-3.76,2.28-7.53,4.77-10.28,8.25-.97,1.23-1.61,2.55-1.83,3.96h0Z"/>
      <path d="M157.79,101.01c.11,1.4.67,2.78.56,4.16-.52-.54-.62-1.33-.63-2.04,0-.66-.12-1.6.06-2.12h0Z"/>
      <path d="M180.9,101.7l3.41,3.54c-.43,6.08-.75,12.55-3.41,18.16-.43.75-.99,1.62-1.79,1.97.67-.55,1.16-1.31,1.52-2.11,2.25-5.58,2.87-12.25,3.53-17.89,0,0-3.3-3.64-3.3-3.64-.02-.02.02-.06.04-.03h0Z"/>
      <path d="M161.06,116.33c3.06-1.11,6.78-2.37,9.9-.9,3.93,2.02,6.56,5.92,8.32,9.87-1.79,2.84-4.81,4.95-7.86,6.37,0,0,.14-.17.14-.17-.38,2.14-.79,4.28-1.25,6.41-.81,3.3-1.27,6.8-2.93,9.82-2.26,1.86-1.4-7.54-1.31-8.55-.14,20.82,3.8-2.79,5.19-7.92,3.01-1.29,5.74-3.38,7.73-5.99,0,0-.02.16-.02.16-1.89-4.23-4.83-8.82-9.42-10.34-2.85-.55-5.94.44-8.5,1.25h0Z"/>
      <path d="M198.31,125.83c-6.02-2.46-13.06-2.81-19.09-.25,0,0-.04-.45-.04-.45,4.27,1.18,7.51,4.58,10.24,7.89-1.47-1.33-3.11-3.08-4.8-4.35-1.7-1.3-3.5-2.55-5.54-3.08-.13-.03-.22-.16-.19-.29,5.93-2.76,13.68-2.16,19.42.53h0Z"/>
      <path d="M194.87,104.59c-4.53,6.96-8.74,14.31-14.72,20.15,0,0-.29-.39-.29-.39,4.36-3.02,9.33-5.15,14.48-6.38.03,0,.04.04.01.05-5.01,1.62-9.85,3.79-14.22,6.73-.24.17-.52-.2-.29-.39,6.03-5.61,10.37-13.21,15.02-19.77h0Z"/>
      <path d="M184.21,140.31c-1.21-5.12-2.35-10.52-5.25-14.96.17-7.95-2.43-15.69-5.33-23-.01-.03.03-.05.05-.02,3.53,7.1,5.94,15.04,5.63,23.04,2.66,3.81,4.02,10.16,4.91,14.94h0Z"/>
      <path d="M166.45,122.35c4.32-.82,9.44-.09,12.7,3.03-3.81-2.21-8.39-3.6-12.7-3.03h0Z"/>
      <path d="M156.27,122.49c1.75.08,3.56-.36,5.24.03-1.35.63-3.91.26-5.24-.03h0Z"/>
      <path d="M211.52,156.69c-2.05-3.75-4.09-7.69-7.25-10.64-1.46-1.5-3.4-.42-5.07.15-3.31,1.4-6.85,3.12-9,6.1-.05.08-.16.1-.24.05-.45-2.34-1.86-4.47-3.81-5.89,0,0,.26-.01.26-.01-1.77,1.7-4.5,2.04-6.73,1.08-4.98-3.82-7.32-10.08-8.51-16.05,0,0,.2.15.2.15-3.58.47-7.69-.15-10.36-2.71,2.12,1.7,4.89,2.53,7.61,2.55.9.02,1.8-.07,2.7-.19.09-.01.18.05.2.15,1.31,5.8,3.6,11.91,8.4,15.7.79.33,2.19.61,3.23.43,1.12-.13,2.15-.67,2.99-1.41.07-.06.18-.06.25,0,.96.75,1.83,1.63,2.51,2.64.66,1.03,1.18,2.16,1.32,3.41l-.32-.08c2.64-3.5,6.91-5.38,10.96-6.75.61-.15,1.18-.36,1.85-.34,1.29.25,2.14,1.3,2.97,2.21,2.3,2.84,4.35,6.28,5.82,9.45h0Z"/>
      <path d="M215.79,148.92c-3.32-.4-7.19-.18-10.14-1.62,1.51.19,3.6.47,5.07.77,0,0,5.08.8,5.08.8.03,0,.03.05,0,.05h0Z"/>
      <path d="M215.46,134.58c-3.96,3.5-8.29,7.07-11.93,10.91,0,0-.21-.42-.21-.42,2.07-.21,4.16-.42,6.21-.81.69-.12,1.4-.33,2.04-.54-.55.4-1.31.61-1.97.81-2.04.56-4.13.87-6.23,1.05-.14.01-.26-.09-.27-.23.76-1.17,2.04-2.02,3.03-2.99,2.95-2.52,6.37-5.57,9.35-7.78h0Z"/>
      <path d="M197.36,143.57c0,1.58,1.54,2.27,2.92,2,.09-.01.15.09.1.16-.04.06-.08.12-.15.16-.13.07-.22-.07-.21-.14.34-2.72,1.91-5.08,3.57-7.19,1.7-2.12,3.7-4.39,5.74-5.98,0,0-5.37,6.28-5.37,6.28-1.69,1.95-3.14,4.09-3.69,6.65-.02.08-.03.17-.03.22-.01,0,.03.03-.04-.03-.03,0-.04-.01-.06,0,.11-.12.05-.09.17.08-.71.06-1.46.01-2.07-.38-.62-.4-.93-1.13-.92-1.83,0-.03.05-.03.05,0h0Z"/>
      <path d="M179.8,147.35c-2.09,1.79-4.26,3.74-5.53,6.2-.04.09-.15.13-.23.08-.96-1.66-2.11-3.74-1.42-5.74.4-.91.95-1.72,1.48-2.53.56-.73,1.18-1.78,1.8-2.29,0,0-1.47,2.49-1.47,2.49-.49.82-.95,1.67-1.33,2.53-.6,1.71.41,3.73,1.18,5.29,0,0-.31.01-.31.01,1.38-2.43,3.71-4.56,5.85-6.05h0Z"/>
      <path d="M161.9,143.06c.28,1.53.38,3.26,1.06,4.65.07.1.04.25-.06.32-.58.2-1.18.42-1.74.67-.54.25-1.05.56-1.51.97-.02.02-.05,0-.04-.03.61-1.14,1.89-1.78,3.12-2.02,0,0-.14.35-.14.35-.6-1.52-.72-3.44-.69-4.91h0Z"/>
      <path d="M174.13,153.47c.29,2,.47,4.04.28,6.07-.1.99-.37,2.09-1.13,2.81-2.12,2.16-4.46,4.14-6.12,6.7-1.11,1.67-1.95,3.52-2.38,5.48-.04.21-.37.23-.42.01-1.04-3.07-2.29-6.27-4.48-8.7-.54-.61-1.27-.94-1.93-1.55-1.86-1.78-2.3-4.68-2.05-7.09.07,2.39.46,5.11,2.33,6.79.57.51,1.39.89,1.99,1.52,2.33,2.49,3.55,5.72,4.56,8.91,0,0-.42.01-.42.01,1.13-5.13,5.08-8.8,8.77-12.22.75-.69,1.01-1.69,1.13-2.69.29-1.96-.04-4.23-.13-6.05h0Z"/>
      <path d="M157.91,164c-2.72.31-5.06,2.37-4.81,5.25,0,2.8,1.16,12.08,4.84,11.91,3.71-.33,5.39-4.73,6.62-6.86,4.11.04,7.7,2.28,11.38,3.76.93.35,1.85.68,2.8.5,1.96-.28,3.48-1.74,4.94-2.99.73-.67,1.56-1.29,2.2-2,1.33-1.43,1.75-3.48,1.5-5.41-.33-1.83-.85-4-2.23-5.31-3.21-2.47-7.93-1.55-11.51-1.15,3.97-.75,9.13-1.73,12.3,1.43,2.05,3.1,3.05,7.75.31,10.77-2.26,1.98-4.36,4.55-7.45,5.12-1.05.18-2.11-.2-3.03-.56-3.65-1.51-7.18-3.75-11.22-3.82,0,0,.16-.11.16-.11-1.34,3.06-3.84,7.58-7.8,6.74-.32-.1-.63-.36-.87-.58-2.46-3.2-2.96-7.53-3.09-11.44,0-1.33.32-2.75,1.34-3.68.92-.87,2.48-1.59,3.61-1.57h0Z"/>
      <path d="M159.65,180.86c-1.16,4.01-1.32,8.33.39,12.21.66,1.95,2.11,3.68,4.08,4.29,1.95.61,4.15.31,5.92-.68,1.86-1.04,1.75-3.6,1.75-5.49-.08-2.07-.42-4.13-.82-6.16-1.23-3.93-4.13-7.17-6.6-10.4,0,0,.4-.22.4-.22,1.16,4.64,2.16,9.9,1.14,14.5.63-4.82-.28-9.73-1.59-14.37-.04-.12.03-.25.16-.29.09-.03.19,0,.24.07,1.37,1.59,2.62,3.27,3.81,4.99,1.14,1.75,2.36,3.49,2.88,5.62.37,2.06.69,4.13.75,6.24.02,1.57,0,3.25-.79,4.67-1.6,2.16-4.93,2.48-7.36,1.77-2.06-.65-3.55-2.49-4.19-4.47-1.64-3.85-1.52-8.52-.2-12.28h0Z"/>
      <path d="M171.78,188.4c1.62,2.17,4.25,4.22,7.09,3.49,2.82-.62,4.59-3.46,3.69-6.26,0-.03.04-.04.05-.02,1.52,2.88-.54,6.2-3.65,6.67-2.93.68-5.88-1.62-7.18-3.88h0Z"/>
      <path d="M139.5,155.82c-.91,3.2.83,5.97,2.29,8.68,1.1,2.05,2.2,4.12,3.01,6.31.26.73.54,1.48.58,2.27,0,.03-.04.04-.05,0-.99-2.92-2.67-5.57-3.9-8.41-.67-1.4-1.37-2.78-1.96-4.24-.51-1.45-.44-3.37.03-4.62h0Z"/>
      <path d="M152.66,158.95c-.38,2.71-2.07,4.96-3.55,7.1-1.35,2.29-2.42,4.78-3.76,7.05.74-2.56,1.95-5.03,3.43-7.27.72-1.16,1.71-2.08,2.34-3.23.72-1.08,1.16-2.58,1.55-3.66h0Z"/>
      <path d="M139.64,161.13c-2-1.96-5.23-2.02-7.5-.52-.11.07-.26.04-.33-.08-.05-.08-.05-.18,0-.25.93-1.56,1.96-3.05,3.09-4.48-.59,1.54-1.74,3.25-2.69,4.74,0,0-.33-.33-.33-.33,2.4-1.45,6.06-1.27,7.76.92h0Z"/>
      <path d="M121.59,114.92c.78,2.84,1.73,5.68,3.33,8.15.52.8,1.13,1.59,2.08,1.87.03,0,.02.05,0,.05-3.39-.25-4.96-7.43-5.4-10.07h0Z"/>
      <path d="M113.73,124.21c4.38.7,8.89,1.2,13.29.75-2.06.93-4.49.69-6.69.45-2.17-.29-4.65-.59-6.59-1.2h0Z"/>
      <path d="M115.41,186.77c-1.99,7.58,2.08,8.05,6.78,12.18,1.21,1.16,2.59,2.71,3.04,4.21-2.26-3.82-6.38-5.72-9.33-8.85-1.56-2.11-1.41-5.38-.5-7.54h0Z"/>
      <path d="M131.18,191.44c2.45-2.75,6.97-2.22,9.72-.16,4.34,3.32,3.67,10.94-.37,14.24-5,3.04-10.27-1.99-15.28-2.34,3.37-.14,6.72,2.13,10.13,2.57,1.66.34,3.45.43,4.86-.63,3.89-3.1,4.61-10.4.5-13.64-2.66-2.16-7.15-2.52-9.56-.04h0Z"/>
      <path d="M136.5,206.16c2.6,1.86,4.73,5.25,3.38,8.47-.63,1.49-1.22,3.05-2.39,4.27-2.61,2.36-6.86.76-8.97-1.57-1.14-1.24-1.43-2.99-1.92-4.54-.68-3.09-1.68-6.6-1.3-9.63.05,3.22.99,6.4,1.79,9.5.32,1.15.65,2.33,1.15,3.41.95,1.68,2.77,2.9,4.62,3.39,1.49.3,3.31.36,4.42-.79,1.46-1.71,2.77-4.14,2.83-6.46-.03-2.48-1.94-4.6-3.59-6.05h0Z"/>
      <path d="M116.99,195.23c-5.78-2.72-11.9.42-12.78,6.77-.25,3.77,2.7,7.34,6.28,8.27,6.13,1.59,9.99-4.6,14.75-7.14-.65.44-1.62,1.07-2.27,1.73-3.39,3.1-7.56,7.28-12.61,5.88-3.75-1.05-6.79-4.81-6.48-8.78.33-2.91,2.24-5.56,4.75-6.97,2.52-1.34,6.04-1.06,8.35.23h0Z"/>
      <path d="M116.26,209.91c-2.67,4.02-4.74,11.06.69,13.73,2.25,1.25,5.22,1.4,7.26-.37,1.99-1.67,3.21-4.11,3.98-6.57.02-.08.1-.13.18-.1.66,1.39.82,3.08.86,4.63.03,1.55-.44,3.1-1.17,4.44-1.29,2.75-2.43,5.58-3.24,8.5-1.26,5.14-2.8,12.6-3.99,17.83,0,0-.45-.18-.45-.18,2.95-5.04,5.93-10.1,8.35-15.41,1.21-2.66,1.67-5.58,2.3-8.42.5-2.85,1.22-5.84.69-8.71.74,2.82,0,5.91-.43,8.76-.43,2.17-.84,4.32-1.43,6.45-1.17,3.49-2.98,6.72-4.68,9.96-1.41,2.57-2.87,5.11-4.38,7.63-.13.23-.52.09-.46-.18,1.23-5.3,2.79-12.64,4.1-17.83.84-2.95,2-5.79,3.32-8.54,1.59-2.64,1.36-5.91.43-8.74,0,0,.27-.01.27-.01-.38,1.28-.92,2.49-1.58,3.63-1.28,2.25-3.45,4.42-6.21,4.39-2.6-.02-5.37-1.39-6.6-3.75-1.72-3.63.18-8.2,2.19-11.14h0Z"/>
      <path d="M161.33,195.61c-4.1,6.96-3.71,14.06,3.96,18.04.17.11.13.39-.06.44-2.15.59-4.24,1.97-5.01,4.14.38-2.35,2.71-3.93,4.86-4.62,0,0-.04.45-.04.45-2.8-1.49-5.33-3.78-6.2-6.93-1.07-3.89.29-8.45,2.49-11.54h0Z"/>
      <path d="M182.09,208.8c-5.53,2.06-11.04,4.43-16.93,5.26-.2.02-.3-.26-.13-.37,4.24-3.57,7.02-8.95,7.03-14.51.67,5.68-2.39,11.34-6.78,14.84,0,0-.13-.37-.13-.37,5.8-.66,11.56-3.15,16.95-4.85h0Z"/>
      <path d="M172.2,230.36c1.48-6.38-.6-13.78-7.13-16.32-.22-.06-.16-.42.07-.38.85.06,1.68.35,2.45.67,5.24,2.32,10.4,5.54,14.89,8.83-4.89-2.83-9.95-6.07-15.07-8.42-.73-.31-1.48-.61-2.27-.68,0,0,.07-.38.07-.38,6.64,2.72,8.75,10.35,6.97,16.69h0Z"/>
      <path d="M132.03,160.43c-1.93,2.33-4.58,5.07-7.88,4.66-.07-.01-.13-.08-.12-.16.14-1.58.25-3.16.32-4.74.05-1.59.11-3.14-.12-4.72-.18-3.39,3.19-6.5,6.51-5.4-2.34-.33-4.74.89-5.57,3.18-.29.69-.48,1.46-.44,2.19.25,1.56.11,3.2.02,4.77-.1,1.59-.25,3.16-.42,4.74l-.12-.16c3.19.51,5.91-2.38,7.83-4.37h0Z"/>
      <path d="M120.98,139.59c3.39,2.47,7.28,6.51,6.05,11.07,0,.03-.05.02-.05,0,.28-4.51-2.87-8.4-6-11.06h0Z"/>
      <path d="M107.28,158.92c2.84.92,10.05,3.27,12.77,4.24,1.41.5,2.82.99,4.21,1.58,0,0-.24.36-.24.36-3.47-3.4-6.57-7.58-9.11-11.54,2.7,3.24,6.46,8.27,9.4,11.21.18.16-.02.47-.24.36-1.35-.61-2.75-1.13-4.15-1.65-2.61-1.03-10.12-3.51-12.66-4.56h0Z"/>
      <path d="M111.91,167.62c3.79-1.87,8-3.21,12.28-2.89.11,0,.2.11.19.22-1.99,1.52-2.51,3.86-2.75,6.3,0,0-.06,1.41-.06,1.41-.07.9.13,2.08.02,2.85-.15-.85-.31-2-.36-2.85-.1-2.81.21-6.28,2.85-7.93,0,0,.06.4.06.4-4.17-.49-8.55.96-12.24,2.47h0Z"/>
      <path d="M125.23,203.15c.4-2.41,1.97-4.41,3.14-6.49,1.42-2.55,3.4-5.21,3.18-8.23-.32-1.79-1.68-3.14-2.5-4.73-1.04-1.97-2.45-4.46-4.86-4.67,0,0,.01-.38.01-.38.48.06.95.12,1.43.16.89.04,1.24.2,1.64-.64,1.31-1.36,2.33-1.96,3.3-3.77,0,0,.77-1.22.77-1.22.23-.39.37-.71.14-1.14-.42-.82-.91-1.72-1.24-2.63-.79-3.1-2.68-4.93-6.01-4.29-.16.05-.3-.14-.21-.28,1.59-2.58,3.79-6.67,5.41-9.02-1.44,2.65-3.57,6.53-5.08,9.21,0,0-.21-.28-.21-.28,1.94-.46,4.25.04,5.42,1.78,1.03,1.76,1.3,3.57,2.38,5.31.28.47.13,1.16-.17,1.59,0,0-.79,1.22-.79,1.22-.89,1.64-2.08,2.52-3.36,3.75-.14.17-.19.41-.46.64-.28.19-.57.19-.81.2-.75,0-1.48-.12-2.21-.21-.23-.03-.2-.39.03-.37,2.67.24,4.06,2.81,5.15,4.89.58,1.05,1.27,2.04,1.87,3.1,2.8,5.05-5.02,11.61-5.95,16.5h0Z"/>
      <path d="M145.36,173.11c-4.76,1.87-11.82,2.33-14.56-2.91-.01-.03.02-.05.04-.03,3.39,4.52,9.74,4.44,14.52,2.93h0Z"/>
      <path d="M135.01,173.59c-3.48,1.83-5.94,5.27-6.25,9.21,0,.03-.05.03-.05,0-.71-4.07,2.92-7.87,6.3-9.21h0Z"/>
      <path d="M131.67,188.35c5.71-.33,12.71-2.99,13.75-9.31.3-1.95.15-3.96-.31-5.9-.03-.13.05-.27.19-.3,2.6.96,5.46,1.57,8.24,1.21-2.7.73-5.67.23-8.28-.74,0,0,.34-.29.34-.29.47,1.98.65,4.07.26,6.09-1.15,6.4-8.52,9.26-14.19,9.23h0Z"/>
      <path d="M145.38,180.12c1.09,2.26,2.98,4.88,5.7,4.91,2.39-.2,5.53-2.08,4.62-4.89-.02-.03.03-.05.04-.02.33.6.45,1.33.29,2.03-.54,2.11-2.94,3.22-4.96,3.28-2.85-.11-4.92-3.01-5.7-5.31h0Z"/>
      <path d="M158.59,205.65c-3.4,1.68-7.07,3.16-9.95,5.63-2.7,2.71-5.1,5.71-7.52,8.67-.07.08-.19.1-.27.03-.07-.06-.09-.15-.05-.23.89-1.95,1.83-3.88,2.84-5.77,1.06-1.89,2.06-3.83,3.64-5.36,3.41-2.67,7.39-4.5,11.33-6.15-3.7,2-7.75,3.8-10.99,6.52-2.86,3.1-4.56,7.19-6.47,10.92,0,0-.32-.2-.32-.2,1.22-1.48,2.46-2.95,3.72-4.39,1.27-1.44,2.53-2.88,3.93-4.21,2.95-2.4,6.78-4.03,10.12-5.45h0Z"/>
      <path d="M158.59,188.4c-6.65,1.92-8.45,7.85-8.98,14.08-.07.84-.11,1.76-.5,2.59l-.27-.3c3.12-1.39,6.86-2.47,9.04-5.21,1.13-1.77,1.69-4.1,2.28-5.95-.34,2.12-.87,4.26-1.93,6.16-2.11,2.94-6.04,4.08-9.26,5.42-.18.07-.36-.13-.26-.3.37-.74.43-1.58.51-2.44.27-2.58.83-5.12,1.72-7.57,1.29-3.16,4.46-5.81,7.65-6.47h0Z"/>
      <path d="M134.11,219.83c.12,2.05.32,4.07.16,6.14,0,0-.33-.13-.33-.13,1.3-2.22,2.39-4.53,3.29-6.94.04,1.14-.58,2.6-1.05,3.76-.54,1.19-1.22,2.3-1.94,3.39-.06.08-.17.11-.25.05-.16-.35.16-2.36.08-3.21.07-.97-.09-2.23.05-3.06h0Z"/>
      <path d="M140.17,212.72c2.9-4.6,7.16-11.29,4.62-16.77-1.45-3.28-2.5-7.04-5.6-9.16.99.37,2.08,1.45,2.8,2.38,1.63,2.25,2.55,4.9,3.6,7.45,0,0,.26.92.26.92.6,3.07-.59,6.2-1.85,8.93-1.07,2.14-2.38,4.53-3.82,6.25h0Z"/>
      <path d="M138.77,127.57c1.9,4.83,3.98,10.23,8.35,13.3,0,0-.3.05-.3.05,1.76-2.16,3.49-4.37,5.06-6.68.54-.71,1.02-1.77,1.49-2.37-1.42,3.49-3.79,6.5-6.19,9.36-.07.09-.2.11-.3.05-4.33-3.21-6.57-8.88-8.11-13.7h0Z"/>
      <path d="M158,144.21c-3.86-.04-7.54-1.52-11.08-2.94,0,0,.27-.1.27-.1-.34.76-.61,1.58-.86,2.39-.78,2.41-1.17,5.18-1.71,7.52.11-3.47.7-6.94,2.19-10.1.05-.1.17-.14.27-.1,3.42,1.55,7.27,3.03,10.91,3.32h0Z"/>
      <path d="M134.99,142.83c3.62-1.93,8.03-3.3,12.08-1.92.09.03.14.13.11.23-2.34,1.28-4.48,3.08-6.31,5.06-1.85,1.88-3.5,4.29-5.06,6.25,1.31-2.33,2.86-4.64,4.69-6.59,1.86-1.98,3.94-3.79,6.43-4.95,0,0,0,.34,0,.34-3.94-1.49-8.43-.01-11.95,1.59h0Z"/>
      <path d="M125.28,203.14c2.58,3.25,5.32,6.71,8.27,9.6-1.95-.88-3.28-2.78-4.59-4.42-1.23-1.66-2.73-3.51-3.68-5.18h0Z"/>
      <path d="M125.28,203.17c-1.11,2.69-2.21,5.41-3.03,8.19-.69,2.8-1.17,5.79-2.15,8.5.61-5.76,2.51-11.71,5.19-16.69h0Z"/>
      <path d="M110.97,203.57c2.37-.28,4.75-.5,7.13-.67,2.31-.13,5.05-.47,7.15.28-4.64-.1-9.79.31-14.28.39h0Z"/>
      <path d="M124.88,195.23c0,2.63-.01,5.32.52,7.89,0,0-.21-.09-.21-.09,4.99-2.94,10.02-6.31,15.78-7.46-3.95,1.4-8.02,3.52-11.83,5.55-1.28.7-2.55,1.42-3.8,2.16-.07.04-.15.02-.19-.05-.47-2.59-.46-5.54-.26-8h0Z"/>
      <path d="M121.7,179.46c1.16,2.24,1.08,4.46,1.26,6.88.33,2,.91,4.88,1.23,6.91-.97-1.97-1.38-4.57-1.63-6.87-.17-1.16.06-2.36-.06-3.52-.06-1.13-.58-2.44-.8-3.41h0Z"/>
      <path d="M165.91,200.53c.84,4.35,1.85,9.44-.62,13.43,0,0-.2-.29-.2-.29,5.11-1.91,10.04-4.99,13.15-9.54-2.54,5.03-7.86,8.09-13.04,9.89-.17.06-.32-.15-.2-.29,2.52-3.84,1.45-9.08.91-13.21h0Z"/>
      <path d="M187.05,215.26c-7.32.03-14.72.15-21.95-1.19,0,0,.16-.41.16-.41.71.48,1.1,1.15,1.45,1.83,2.03,4.91.79,10.55-.53,15.45.7-4.73,2.65-13.17-1.13-16.9-.22-.11-.09-.47.16-.41,7.11,1.5,14.76,1.34,21.85,1.62h0Z"/>
      <path d="M179.78,230.38c-2.31-3.87-5.06-7.51-8.35-10.56,2.06.99,3.58,2.9,4.87,4.73,1.25,1.83,2.67,3.93,3.48,5.83h0Z"/>
      <path d="M150.28,226.83c-5.11,1.75-9.34,5.28-13.05,9.07,2.85-4.49,8.14-7.68,13.05-9.07h0Z"/>
      <path d="M97.79,181.93c2.46,1.71,4.85,3.53,7.14,5.48,2.24,1.94,4.72,4.03,5.9,6.79-3.59-4.72-8.61-8.58-13.04-12.27h0Z"/>
      <path d="M105.72,219.73c3.01-.31,5.41-2.32,7.95-3.71-1.84,2.23-5.22,3.71-7.95,3.71h0Z"/>
      <path d="M100.88,208.35c1.65-.52,3.82-1.45,5.4-.39-1.78-.03-3.76.13-5.4.39h0Z"/>
      <path d="M182.09,166.74c-4.53,1.58-9.01,3.34-13.29,5.51-1.42.73-2.81,1.51-4.11,2.42-.1.07-.24.05-.31-.05-.03-.04-.04-.08-.04-.12l-.14-3.88c-.17-3.73-.15-7.93-.38-11.65.87,4.83.79,10.47.97,15.52,0,0-.35-.18-.35-.18,5.41-3.39,11.72-5.75,17.65-7.56h0Z"/>
      <path d="M156.9,171.67c2.5,1.12,5.17,1.83,7.69,2.81-2.54.11-5.63-1.64-7.69-2.81h0Z"/>
      <path d="M131.68,164.99c4.69,2.54,9.52,4.77,13.85,7.91,0,0-.44.19-.44.19-.03-2.57-.14-5.16.23-7.71.09.94.07,2.76.15,3.85,0,0,.14,3.84.14,3.84,0,.14-.11.26-.25.27-4.21-3.1-9.32-5.68-13.68-8.35h0Z"/>
      <path d="M148.42,177.83c-1.19-1.47-2.19-3.07-3.21-4.65-.05-.08-.03-.17.05-.22,2.39-1.56,4.79-3.48,7.68-3.92-2.45,1.14-5.08,2.73-7.49,4.2,0,0,.05-.23.05-.23.79,1.41,2.17,3.58,2.92,4.83h0Z"/>
      <path d="M129.71,184.53c2.06-2.05,4.25-3.95,6.63-5.65,2.33-1.65,5.06-3.39,7.99-3.36-5.59,1.42-10.35,5.49-14.61,9.01h0Z"/>
      <path d="M158.88,136.4c-4.18.85-8.17,2.59-11.77,4.85,0,0,.05-.31.05-.31,1.76,2.22,3.25,4.68,4.15,7.37.27.9.56,1.88.57,2.79-.48-1.8-1.18-3.56-2.09-5.19-.9-1.63-1.87-3.23-2.98-4.72-.07-.09-.05-.22.04-.29,3.65-2.13,7.94-4,12.01-4.5h0Z"/>
      <path d="M133.44,133.01c4.36,2.89,8.79,5.87,13.65,7.85,0,0-.31.23-.31.23-.22-1.91-.72-3.79-1.24-5.66-.5-1.88-1.17-3.76-1.7-5.62.87,1.73,1.52,3.63,2.14,5.49.58,1.87,1.08,3.78,1.25,5.75.01.12-.08.24-.2.25-4.84-2.04-9.51-5.24-13.59-8.29h0Z"/>
      <path d="M202.55,186.24c-3.49-.06-6.64,1.54-9.93,2.44-3.29.85-6.89,1.7-10.24.93,3.4.09,6.81-.6,10.14-1.32,3.26-.77,6.76-2.43,10.03-2.05h0Z"/>
      <path d="M208.99,194.2c-5.57-2.39-11.36-4.5-17.34-5.5,3.05-.21,6.11.81,8.96,1.85,2.8,1.07,5.89,2.26,8.38,3.65h0Z"/>
      <path d="M201.55,198.86c-3.14-4.56-8.73-6.5-13.69-8.41-.68-.29-1.68-.49-2.19-.85,3.09.59,6.1,1.62,8.85,3.17,2.64,1.47,5.7,3.47,7.04,6.1h0Z"/>
      <path d="M213.15,39.41c-2.38,4.84-4.96,10.05-9.28,13.41,3.55-4.07,6.77-8.78,9.28-13.41h0Z"/>
      <path d="M162.77,147.82c1.16-.48,3.41-.69,4.11-.14,2.09-.63,4.75-.15,5.77,1.96.01.03-.02.05-.04.03-1.42-1.53-3.63-2.1-5.65-1.66-1.35-.65-2.89-.42-4.19-.19h0Z"/>
      <path d="M150.69,185.21c-.34,2.96-.78,5.93-1.61,8.8-.29.95-.62,1.91-1.22,2.78-.06.08-.18.11-.26.05-.98-1.95-1.97-3.94-3.06-5.84-1.04-1.83-2.22-3.94-3.85-5.13,1.03.43,1.77,1.32,2.45,2.16,2,2.61,3.42,5.58,4.74,8.57,0,0-.33-.04-.33-.04,2.06-3.31,2.34-7.74,3.14-11.34h0Z"/>
      <path d="M144.67,181.91c1.37,3.85,2.87,8.21,1.84,12.28-.03-4.12-.72-8.45-1.84-12.28h0Z"/>
      <path d="M115.74,139.28c1.28,2.64,2.47,5.32,3.56,8.05,1.06,2.71,2.26,5.58,2.26,8.52-1.38-5.63-3.78-11.29-5.82-16.56h0Z"/>
      <path d="M116.83,172.52c.96-1.5,2-2.94,3.15-4.31,1.13-1.33,2.45-2.91,4.21-3.27-2.87,1.99-5.2,5.05-7.36,7.59h0Z"/>
      <path d="M146.62,216.02c1.52-1.31,3.1-2.55,4.76-3.7,1.64-1.1,3.49-2.41,5.52-2.42-3.7,1.4-7.13,4-10.28,6.12h0Z"/>
      <path d="M150.26,216.01c3.12-.99,6.66-2.66,9.87-2.13-3.29.54-6.79,1.39-9.87,2.13h0Z"/>
      <path d="M180.96,151.1c-1.74,3.22-3.68,6.48-4.58,10.05,0,0-.3-.17-.3-.17,1.72-1.63,3.47-3.24,5.33-4.72,1.84-1.4,3.95-3.05,6.02-3.78-2.03,1.21-3.87,2.7-5.71,4.17-1.83,1.49-3.65,3-5.4,4.59-.07.07-.19.07-.26,0,.18-1.87,1.31-3.63,2.1-5.33.88-1.57,1.8-3.48,2.8-4.81h0Z"/>
      <path d="M194.31,170.53c-2.27,1.36-5,3.13-7.73,2.55,2.66-.47,5.42-1.44,7.73-2.55h0Z"/>
      <path d="M208.71,140.28c3.71-.16,7.48-.77,11.17-.34-3.6.61-7.66.4-11.17.34h0Z"/>
      <path d="M131.96,259.71c8.69-1.91,17.68-2.85,26.56-2,2.96.34,5.89.93,8.73,1.86,11.27,3.71,22.25,8.35,33.71,11.42-2.76-.37-5.82-1.41-8.62-2.25-5.69-1.71-19.43-6.73-25.22-8.8-11.3-3.73-23.82-2.33-35.16-.24h0Z"/>
      <path d="M171.43,261.24c4.32-2.09,9.53-3.29,14.25-2.08-4.78-.17-9.91.22-14.25,2.08h0Z"/>
      <path d="M145.65,257.49c7.18-6.5,17.07-10.96,26.89-9.58.03,0,.03.05,0,.05-9.77-.48-19.6,3.31-26.88,9.53h0Z"/>
      <path d="M159.12,257.92c2.9,1.38,5.88,2.85,8.19,5.14,2.13,3.01,3.62,6.51,6.33,9.09.79.8,1.53,1.19,2.46,1.53-1.02-.05-1.93-.64-2.7-1.27-2.29-1.97-3.85-4.62-5.22-7.27-1.59-3.63-6.01-5.34-9.07-7.23h0Z"/>
      <path d="M141.82,257.92c7.91,2.66,12.28,7.31,15.08,15.09.01.03-.03.05-.05.02-1.81-3.16-3.41-6.53-5.83-9.26-2.49-2.65-6.05-4.45-9.21-5.85h0Z"/>
      <path d="M94.4,271.44c-1.05-17.54-7.26-35.94-21.12-47.44-7.88-5.61-15.98-13.49-17.66-23.49,1.56,7.4,6.56,13.51,12.09,18.46,1.86,1.67,3.82,3.25,5.87,4.64.87.82,2.89,2.6,3.72,3.41,1.06,1.23,2.31,2.53,3.32,3.79,8.85,11.48,13.28,26.4,13.78,40.62h0Z"/>
      <path d="M77.54,211.48c2.49,4.69,4.68,9.54,6.49,14.54,1.8,4.97,3.31,10.23,3.08,15.57,0,.03-.05.03-.05,0-.78-10.56-5.17-20.75-9.52-30.11h0Z"/>
      <path d="M92.33,222.11c.61,5.28.99,10.58,1.07,15.9.06,5.29.02,10.76-1.77,15.8,0,.03-.06.01-.05-.02,2.24-10.34,1.35-21.36.74-31.69h0Z"/>
      <path d="M92.82,258.93c-6.18-5.99-14.2-9.54-22.26-12.24-.03,0-.02-.06.01-.05,8.3,1.79,16.48,6.26,22.25,12.29h0Z"/>
      <path d="M60.24,224.66c4.35,1.47,8.63,3.13,12.82,5.02,4.14,1.91,8.47,3.92,11.61,7.33.02.02-.01.06-.04.03-7.12-5.71-16.17-8.96-24.39-12.38h0Z"/>
      <path d="M66.79,206.9c1.99,5.62,4.38,11.45,6.65,16.94-1.75-2.48-2.8-5.44-3.82-8.28-.97-2.82-2.14-5.9-2.83-8.65h0Z"/>
      <path d="M66.78,237c7.04,5.32,14.84,9.86,23.41,12.15.03,0,.02.05,0,.05-4.43-.58-8.6-2.43-12.46-4.63-3.79-2.21-7.77-4.77-10.95-7.57h0Z"/>
      <path d="M55.64,211.14c3.16,3.21,7.29,5.17,11.14,7.33-4.25-1.15-8.35-4.15-11.14-7.33h0Z"/>
    </g>
  </g>
</svg>