<?xml version="1.0" encoding="UTF-8"?>
<svg id="Layer_1" data-name="Layer 1" xmlns="http://www.w3.org/2000/svg" xmlns:xlink="http://www.w3.org/1999/xlink" viewBox="0 0 289.13 430.87">
  <defs>
    <style>
      .cls-1, .cls-2 {
        fill: none;
      }

      .cls-3 {
        fill: #f9e4e1;
      }

      .cls-3, .cls-4, .cls-5, .cls-2, .cls-6, .cls-7 {
        stroke: #000;
      }

      .cls-3, .cls-5 {
        stroke-miterlimit: 10;
      }

      .cls-8 {
        font-family: SUIT-Regular-KSCpc-EUC-H, SUIT;
      }

      .cls-8, .cls-9 {
        font-size: 14px;
      }

      .cls-4 {
        fill: #f5c7bc;
      }

      .cls-4, .cls-5, .cls-2, .cls-6, .cls-7 {
        stroke-width: .5px;
      }

      .cls-4, .cls-2, .cls-6, .cls-7 {
        stroke-linecap: round;
        stroke-linejoin: round;
      }

      .cls-10 {
        clip-path: url(#clippath-1);
      }

      .cls-5 {
        fill: #f4f9fd;
      }

      .cls-11 {
        fill: #fff;
      }

      .cls-9 {
        font-family: 'IM_FELL_Double_Pica_SC', 'IM FELL Double Pica SC';
      }

      .cls-6 {
        fill: #f9f1ac;
      }

      .cls-12 {
        letter-spacing: -.03em;
      }

      .cls-7 {
        fill: #d1d88d;
      }

      .cls-13 {
        clip-path: url(#clippath);
      }
    </style>
    <clipPath id="clippath">
      <rect class="cls-1" x="-304.37" y="35.22" width="261.08" height="360.43" rx="30" ry="30"/>
    </clipPath>
    <clipPath id="clippath-1">
      <rect class="cls-1" x="14.03" y="35.22" width="261.08" height="360.43" rx="30" ry="30"/>
    </clipPath>
  </defs>
  <g class="cls-13">
    <g>
      <rect class="cls-11" x="-250.77" y="115.3" width="273.51" height="17.97" rx="8.99" ry="8.99"/>
      <path class="cls-11" d="M-35.07,114.01c0-3.82,4.21-6.91,9.4-6.91s9.4,3.1,9.4,6.91v2.4H4.77"/>
      <g>
        <line class="cls-2" x1="9.23" y1="115.6" x2="16.82" y2="115.6"/>
        <line class="cls-2" x1="-29.22" y1="124.84" x2="22.03" y2="124.84"/>
        <path class="cls-2" d="M-35.07,113.21c0-3.82,4.21-6.91,9.4-6.91s9.4,3.1,9.4,6.91v2.4H4.77"/>
      </g>
    </g>
  </g>
  <rect class="cls-3" y="0" width="289.13" height="430.87"/>
  <rect class="cls-5" x="14.03" y="35.22" width="261.08" height="360.43" rx="30" ry="30"/>
  <text class="cls-9" transform="translate(85.11 23.6)"><tspan x="0" y="0">LOTUS FL</tspan><tspan class="cls-12" x="73.33" y="0">O</tspan><tspan x="84.31" y="0">WER</tspan></text>
  <text class="cls-8" transform="translate(113.49 417.65)"><tspan x="0" y="0">연꽃 · 혼란</tspan></text>
  <g class="cls-10">
    <g>
      <rect class="cls-11" x="60.18" y="140.83" width="280.56" height="10.6" rx="5.3" ry="5.3"/>
      <g>
        <path class="cls-11" d="M261.97,112.07v-12.27c0-22.82-18.5-41.32-41.32-41.32s-41.32,18.5-41.32,41.32"/>
        <path class="cls-11" d="M143.51,116.51c3.56-11.14,13.32-19.14,24.81-19.14,12.78,0,23.43,9.9,25.77,23"/>
        <path class="cls-11" d="M123.34,129.85c0-8.44,5.93-15.28,13.24-15.28,6.18,0,11.36,4.88,12.83,11.49"/>
        <path class="cls-11" d="M196.48,122.42c2.77-2.91,6.55-4.7,10.73-4.7,8.48,0,15.35,7.4,15.35,16.53"/>
        <path class="cls-11" d="M94.77,144.5h211.42v-3.26l-20.39-16.95c0-8.61-6.48-15.59-14.48-15.59s-14.48,6.98-14.48,15.59"/>
        <path class="cls-11" d="M278.44,141.24c0-10.26,6.26-18.57,13.97-18.57s13.97,8.31,13.97,18.57h11.97"/>
        <path class="cls-11" d="M187.37,125.39c0-2.77,2.17-5.02,4.86-5.02s4.86,2.25,4.86,5.02"/>
        <path class="cls-11" d="M135.93,137.4c0-2.77-2.17-5.02-4.86-5.02-1.51,0-2.86.71-3.75,1.83"/>
        <path class="cls-11" d="M145.14,132.38c0-3.86,3.8-6.99,8.49-6.99s8.49,3.13,8.49,6.99"/>
        <path class="cls-11" d="M83.47,144.5h11.3v-2.61c0-8.44,7.75-15.28,17.32-15.28,6.48,0,12.13,3.14,15.1,7.8,1.41,2.21,2.22,4.76,2.22,7.48"/>
        <path class="cls-11" d="M170.61,104.69s5.1,0,7.27,2.22"/>
        <path class="cls-11" d="M180.23,108.87s3.6,2.54,4.82,8.84"/>
        <path class="cls-11" d="M231.31,68.33s5.92,1.57,8.49,4.57"/>
        <path class="cls-11" d="M242.87,75.18s13.41,10.84,8.99,31.18"/>
        <circle class="cls-11" cx="240.05" cy="134.34" r="2.98"/>
        <circle class="cls-11" cx="116.52" cy="117.71" r="3.08"/>
        <circle class="cls-11" cx="193.39" cy="90.77" r="2.4"/>
      </g>
      <path class="cls-11" d="M288.68,138.9l-26.7-26.83-33.48-14.7s-28.57.28-32.7,0c-4.12-.28-12.53-2.45-12.53-2.45l-12.64,13.78-15.77,5.19-25.44,6.91-11.11,16.61-23.52,7.1"/>
      <g>
        <path class="cls-2" d="M179.34,99.39c0-22.82,18.5-41.32,41.32-41.32s41.32,18.5,41.32,41.32v12.27"/>
        <path class="cls-2" d="M143.51,116.1c3.56-11.14,13.32-19.14,24.81-19.14,12.78,0,23.43,9.9,25.77,23"/>
        <path class="cls-2" d="M123.34,129.44c0-8.44,5.93-15.28,13.24-15.28,6.18,0,11.36,4.88,12.83,11.49"/>
        <path class="cls-2" d="M196.48,122c2.77-2.91,6.55-4.7,10.73-4.7,8.48,0,15.35,7.4,15.35,16.53"/>
        <path class="cls-2" d="M256.85,123.88c0-8.61,6.48-15.59,14.48-15.59s14.48,6.98,14.48,15.59"/>
        <path class="cls-2" d="M278.44,140.83c0-10.26,6.26-18.57,13.97-18.57s13.97,8.31,13.97,18.57h11.97"/>
        <path class="cls-2" d="M187.37,124.98c0-2.77,2.17-5.02,4.86-5.02s4.86,2.25,4.86,5.02"/>
        <path class="cls-2" d="M135.93,136.99c0-2.77-2.17-5.02-4.86-5.02-1.51,0-2.86.71-3.75,1.83"/>
        <path class="cls-2" d="M145.14,131.97c0-3.86,3.8-6.99,8.49-6.99s8.49,3.13,8.49,6.99"/>
        <line class="cls-2" x1="183.26" y1="144.09" x2="276.81" y2="144.09"/>
        <line class="cls-2" x1="109.13" y1="144.09" x2="166.31" y2="144.09"/>
        <path class="cls-2" d="M83.47,140.83h11.3v.65c0-8.44,7.75-15.28,17.32-15.28,6.48,0,12.13,3.14,15.1,7.8,1.41,2.21,2.22,4.76,2.22,7.48"/>
        <line class="cls-2" x1="71.93" y1="140.83" x2="79.24" y2="140.83"/>
        <line class="cls-2" x1="172.08" y1="144.09" x2="176.08" y2="144.09"/>
        <path class="cls-2" d="M170.61,104.27s5.1,0,7.27,2.22"/>
        <path class="cls-2" d="M180.23,108.46s3.6,2.54,4.82,8.84"/>
        <path class="cls-2" d="M231.31,67.92s5.92,1.57,8.49,4.57"/>
        <path class="cls-2" d="M242.87,74.76s13.41,10.84,8.99,31.18"/>
        <line class="cls-2" x1="64.76" y1="151.3" x2="203.77" y2="151.3"/>
        <line class="cls-2" x1="210.02" y1="151.3" x2="237.65" y2="151.3"/>
        <line class="cls-2" x1="241.72" y1="151.3" x2="246.38" y2="151.3"/>
        <line class="cls-2" x1="251.76" y1="151.3" x2="335.8" y2="151.3"/>
        <circle class="cls-2" cx="240.05" cy="133.92" r="2.98"/>
        <circle class="cls-2" cx="116.52" cy="117.3" r="3.08"/>
        <circle class="cls-2" cx="193.39" cy="90.35" r="2.4"/>
      </g>
    </g>
    <g>
      <rect class="cls-11" x="-70.58" y="343.01" width="280.56" height="10.6" rx="5.3" ry="5.3"/>
      <g>
        <path class="cls-11" d="M131.22,314.26v-12.27c0-22.82-18.5-41.32-41.32-41.32s-41.32,18.5-41.32,41.32"/>
        <path class="cls-11" d="M12.76,318.7c3.56-11.14,13.32-19.14,24.81-19.14,12.78,0,23.43,9.9,25.77,23"/>
        <path class="cls-11" d="M-7.42,332.04c0-8.44,5.93-15.28,13.24-15.28,6.18,0,11.36,4.88,12.83,11.49"/>
        <path class="cls-11" d="M65.72,324.6c2.77-2.91,6.55-4.7,10.73-4.7,8.48,0,15.35,7.4,15.35,16.53"/>
        <path class="cls-11" d="M-35.98,346.69h211.42v-3.26l-20.39-16.95c0-8.61-6.48-15.59-14.48-15.59s-14.48,6.98-14.48,15.59"/>
        <path class="cls-11" d="M147.69,343.43c0-10.26,6.26-18.57,13.97-18.57s13.97,8.31,13.97,18.57h11.97"/>
        <path class="cls-11" d="M56.62,327.58c0-2.77,2.17-5.02,4.86-5.02s4.86,2.25,4.86,5.02"/>
        <path class="cls-11" d="M5.18,339.59c0-2.77-2.17-5.02-4.86-5.02-1.51,0-2.86.71-3.75,1.83"/>
        <path class="cls-11" d="M14.39,334.57c0-3.86,3.8-6.99,8.49-6.99s8.49,3.13,8.49,6.99"/>
        <path class="cls-11" d="M39.86,306.87s5.1,0,7.27,2.22"/>
        <path class="cls-11" d="M49.48,311.06s3.6,2.54,4.82,8.84"/>
        <path class="cls-11" d="M100.56,270.51s5.92,1.57,8.49,4.57"/>
        <path class="cls-11" d="M112.11,277.36s13.41,10.84,8.99,31.18"/>
        <circle class="cls-11" cx="109.3" cy="336.52" r="2.98"/>
        <circle class="cls-11" cx="176.94" cy="298.6" r="4.05"/>
        <circle class="cls-11" cx="161.51" cy="313.68" r="2.4"/>
        <circle class="cls-11" cx="62.64" cy="292.95" r="2.4"/>
      </g>
      <path class="cls-11" d="M157.92,341.08l-26.7-26.83-33.48-14.7s-28.57.28-32.7,0-12.53-2.45-12.53-2.45l-12.64,13.78-15.77,5.19-25.44,6.91-11.11,16.61-23.52,7.1"/>
      <g>
        <path class="cls-2" d="M48.59,301.57c0-22.82,18.5-41.32,41.32-41.32s41.32,18.5,41.32,41.32v12.27"/>
        <path class="cls-2" d="M12.76,318.28c3.56-11.14,13.32-19.14,24.81-19.14,12.78,0,23.43,9.9,25.77,23"/>
        <path class="cls-2" d="M-7.42,331.62c0-8.44,5.93-15.28,13.24-15.28,6.18,0,11.36,4.88,12.83,11.49"/>
        <path class="cls-2" d="M65.72,324.19c2.77-2.91,6.55-4.7,10.73-4.7,8.48,0,15.35,7.4,15.35,16.53"/>
        <path class="cls-2" d="M126.1,326.07c0-8.61,6.48-15.59,14.48-15.59s14.48,6.98,14.48,15.59"/>
        <path class="cls-2" d="M147.69,343.01c0-10.26,6.26-18.57,13.97-18.57s13.97,8.31,13.97,18.57h11.97"/>
        <path class="cls-2" d="M56.62,327.17c0-2.77,2.17-5.02,4.86-5.02s4.86,2.25,4.86,5.02"/>
        <path class="cls-2" d="M5.18,339.18c0-2.77-2.17-5.02-4.86-5.02-1.51,0-2.86.71-3.75,1.83"/>
        <path class="cls-2" d="M14.39,334.16c0-3.86,3.8-6.99,8.49-6.99s8.49,3.13,8.49,6.99"/>
        <line class="cls-2" x1="191.78" y1="343.01" x2="199.33" y2="343.01"/>
        <line class="cls-2" x1="52.5" y1="346.27" x2="146.05" y2="346.27"/>
        <line class="cls-2" x1="-21.63" y1="346.27" x2="35.56" y2="346.27"/>
        <line class="cls-2" x1="41.33" y1="346.27" x2="45.33" y2="346.27"/>
        <path class="cls-2" d="M39.86,306.46s5.1,0,7.27,2.22"/>
        <path class="cls-2" d="M49.48,310.65s3.6,2.54,4.82,8.84"/>
        <path class="cls-2" d="M100.56,270.1s5.92,1.57,8.49,4.57"/>
        <path class="cls-2" d="M112.11,276.95s13.41,10.84,8.99,31.18"/>
        <line class="cls-2" x1="-65.99" y1="353.49" x2="73.02" y2="353.49"/>
        <line class="cls-2" x1="79.27" y1="353.49" x2="106.9" y2="353.49"/>
        <line class="cls-2" x1="110.97" y1="353.49" x2="115.62" y2="353.49"/>
        <line class="cls-2" x1="121" y1="353.49" x2="205.05" y2="353.49"/>
        <circle class="cls-2" cx="109.3" cy="336.11" r="2.98"/>
        <circle class="cls-2" cx="176.94" cy="298.18" r="4.05"/>
        <circle class="cls-2" cx="161.51" cy="313.27" r="2.4"/>
        <circle class="cls-2" cx="62.64" cy="292.54" r="2.4"/>
      </g>
    </g>
  </g>
  <g>
    <g>
      <path class="cls-7" d="M138.73,284.93l-.4,72.65c-.02,3.22,2.59,5.83,5.8,5.83h0c3.22,0,5.82-2.62,5.8-5.84l-.51-72.8"/>
      <path class="cls-4" d="M121.83,101.06s20.64-33.61,23-33.61c6.47,0,25.27,30.64,24.72,36.25-.55,5.61-23.85,24.18-23.85,24.18l-23.86-26.83Z"/>
      <path class="cls-7" d="M141.4,243.97s-14.21-7.29-21.13-7.29-15.85.55-24.59,0c-8.74-.55-11.66,4.37-16.94,5.83-5.28,1.46-19.67,1.46-23.5,11.48-3.83,10.02-1.46,15.85,2.19,17.49,3.64,1.64,14.39-.73,17.85,2.37,3.46,3.1,6.05,11.84,16.87,13.12,10.82,1.28,31.22-.75,38.87,1.09,7.65,1.85,29.51,11.66,37.53,11.66s32.61-4.55,36.98-11.29c4.37-6.74,8.93-13.12,22.41-14.57,13.48-1.46,8.02-14.57,3.28-17.31-4.74-2.73-11.84-9.11-17.31-10.2-5.47-1.09-15.85.18-20.22-2.19s-7.83-4.74-16.76-4.74-35.52,4.55-35.52,4.55Z"/>
      <polyline class="cls-7" points="149.15 268.31 148.33 219.22 139.57 221.07 138.95 268.31"/>
      <path class="cls-4" d="M123.94,209.32s-5.5,11.68,18.47,16.4c5.46,1.07,8.43-2.94,12.9-3.37,11.2-1.1,7.7-18.15,7.7-18.15l-16.92-25.8-22.15,30.93Z"/>
      <path class="cls-4" d="M206.74,139.98s32.38-24.76,43.58-18.72c.95,6.43-6.18,9.34-10.56,20.78-5.01,13.09-22.7,48.64-60.44,45.4l27.42-47.46Z"/>
      <path class="cls-4" d="M80.56,133.49s-26.09-19.48-33.61-15.92c-6.1,2.89,22.11,52.48,27.71,56.31s27.42,17.1,49.82,18.57l-43.93-58.96Z"/>
      <path class="cls-4" d="M184.63,114.03s26.53-29.78,33.02-26.24c6.49,3.54,2.95,31.13,1.47,36.35-1.47,5.22-11.79,23.2-21.82,28.8s-12.68-38.91-12.68-38.91Z"/>
      <path class="cls-4" d="M105.33,110.5s-23.03-26.94-30.37-20.64c-5.98,5.14,3.24,66.33,21.82,68.4l8.55-47.76Z"/>
      <path class="cls-4" d="M153.67,119.34s10.02-35.08,25.06-35.08,10.02,64.56,10.02,64.56l-26.24,9.44-12.97-27.42,4.13-11.5Z"/>
      <path class="cls-4" d="M101.2,128.77s2.06-47.46,10.91-48.94c8.84-1.47,28.3,32.72,24.76,48.94s-7.96,32.36-7.96,32.36l-27.71-32.36Z"/>
      <path class="cls-4" d="M125.67,151.47s2.36-21.52,9.43-31.25c7.08-9.73,7.67-16.8,9.43-16.51,1.77.29,26.53,22.41,21.23,49.23s-18.87,40.98-18.87,40.98l-18.28-12.68-2.95-29.78Z"/>
      <path class="cls-4" d="M201.6,181.54s19.59-.29,27.84,4.42c8.25,4.72,20.24,7.06,20.97,11.42.79,4.73-15.96,7.16-21.85,12.17-5.9,5.01-30.95,12.09-43.93,8.84-12.97-3.24-31.84-16.51-39.8-20.34l28.6-13.56,28.17-2.95Z"/>
      <path class="cls-4" d="M87.6,180.39c-10.52-2.29-36.39-5.86-48.9,10.59,0,0,16.64,6.78,26.75,15.04,10.1,8.25,29.27,11.2,39.88,8.55,10.61-2.65,24.76-10.91,30.37-11.5,0,0,8.03-2.29,9.73-7.01l-36.88-16.8-10.95,1.53c-3.33.47-6.71.32-9.99-.4Z"/>
      <path class="cls-4" d="M144.83,190.39s-10.4-53.94-45.73-66.03c-2.21-.76-4.58.62-5.05,2.91-3.11,15.32-9.51,68.52,50.78,70.79,60.81,2.29,57.94-55.14,56.01-70.92-.26-2.11-2.45-3.39-4.41-2.59-10.56,4.33-40.07,20.22-51.6,65.85Z"/>
    </g>
    <g>
      <path d="M162.92,200.04c9.86,3.93,20.18,7.34,30.88,7.67s20.21-3,30.2-5.31c5.66-1.31,11.44-2.26,17.27-1.91.19.01.19-.29,0-.3-10.2-.6-20.02,2.71-29.81,5.03-5.07,1.2-10.22,2.15-15.45,2.21-5.35.06-10.67-.71-15.86-1.98-5.86-1.43-11.55-3.47-17.14-5.7-.18-.07-.26.22-.08.29h0Z"/>
      <path d="M167.78,197.66c4.04-.78,8.05.42,11.96,1.3,3.88.87,7.83,1.42,11.8,1.62,2.28.12,4.56.12,6.84.01.19,0,.19-.31,0-.3-4.08.19-8.17.03-12.23-.5-2.09-.27-4.17-.64-6.22-1.1s-3.91-.95-5.9-1.28c-2.1-.34-4.23-.45-6.34-.05-.19.04-.11.33.08.29h0Z"/>
      <path d="M178.73,193.85c6.1-1.03,12.38-.71,18.34.92.19.05.27-.24.08-.29-6.02-1.64-12.35-1.95-18.5-.92-.19.03-.11.32.08.29h0Z"/>
      <path d="M161.58,204c10.24,6.26,22.33,9.35,34.32,8.87,3.36-.13,6.71-.55,10-1.25.19-.04.11-.33-.08-.29-11.66,2.46-23.99,1.34-35.05-3.07-3.14-1.25-6.16-2.77-9.04-4.53-.17-.1-.32.16-.15.26h0Z"/>
      <path d="M56.33,194.37c8.88.02,16.69,4.86,24.76,7.89,4.1,1.54,8.37,2.61,12.78,2.5,4.7-.12,9.29-1.36,13.79-2.61,5.23-1.45,10.52-2.96,15.99-2.87.19,0,.19-.3,0-.3-9.64-.15-18.46,4.58-27.97,5.38-4.57.38-9-.44-13.31-1.95-4.14-1.45-8.08-3.38-12.13-5.04-4.44-1.81-9.08-3.3-13.92-3.31-.19,0-.19.3,0,.3h0Z"/>
      <path d="M76.84,192.09c7.67,2.53,15.82,2.72,23.82,2.36,2.29-.1,4.59-.25,6.88-.4.19-.01.19-.31,0-.3-7.98.52-16.08,1.04-24-.32-2.24-.38-4.45-.92-6.62-1.64-.18-.06-.26.23-.08.29h0Z"/>
      <path d="M60.64,186.5c8.44-1.47,17.12-1.35,25.52.37.19.04.27-.25.08-.29-8.45-1.73-17.18-1.85-25.68-.37-.19.03-.11.32.08.29h0Z"/>
      <path d="M80.75,209.38c10.07,1.99,20.3-.19,29.94-3.17,2.8-.87,5.58-1.8,8.36-2.75.18-.06.1-.35-.08-.29-9.55,3.26-19.39,6.58-29.59,6.69-2.87.03-5.73-.21-8.55-.77-.19-.04-.27.25-.08.29h0Z"/>
      <path d="M200.54,165.68c6.33-4.72,9.36-12.29,13.99-18.45,1.35-1.8,2.86-3.48,4.59-4.92.15-.12-.06-.34-.21-.21-6.06,5.06-8.96,12.64-13.8,18.69-1.38,1.72-2.93,3.31-4.71,4.63-.15.11,0,.37.15.26h0Z"/>
      <path d="M241.33,128.88c-5.42,5.86-9.36,12.84-13.74,19.47-2.24,3.38-4.61,6.69-7.34,9.69s-5.89,5.79-9.15,8.33c-3.75,2.93-7.7,5.61-11.64,8.27-.16.11,0,.37.15.26,6.85-4.64,13.77-9.33,19.56-15.28,5.63-5.79,9.69-12.77,14.06-19.49,2.52-3.86,5.17-7.64,8.3-11.03.13-.14-.08-.35-.21-.21h0Z"/>
      <path d="M194.91,179.98c6.53-2.49,12.77-5.7,18.58-9.57.16-.11,0-.37-.15-.26-5.79,3.86-12.01,7.07-18.51,9.54-.18.07-.1.36.08.29h0Z"/>
      <path d="M142.02,205.26c.07,3.64-.03,7.29-.31,10.92-.01.19.29.19.3,0,.28-3.63.38-7.28.31-10.92,0-.19-.3-.19-.3,0h0Z"/>
      <path d="M145.45,203.35c-.78,4.32-.23,8.82,1.56,12.83.08.18.34.02.26-.15-1.75-3.93-2.29-8.36-1.53-12.6.03-.19-.26-.27-.29-.08h0Z"/>
      <path d="M151.12,207.42c.87,3.2,1.21,6.52,1,9.83-.01.19.29.19.3,0,.21-3.33-.13-6.69-1.01-9.91-.05-.19-.34-.11-.29.08h0Z"/>
      <path d="M154.55,206.14c1.88,3.44,2.39,7.56,1.4,11.36-.05.19.24.27.29.08,1.01-3.87.5-8.08-1.43-11.59-.09-.17-.35-.02-.26.15h0Z"/>
      <path d="M134.12,208.18c-.84,3.45-.31,7.17,1.47,10.25.1.17.36.02.26-.15-1.74-3-2.26-6.64-1.44-10.01.05-.19-.24-.27-.29-.08h0Z"/>
      <path d="M101.54,281.89c4.47-2.77,8.98-5.56,13.87-7.53,2.37-.96,4.83-1.71,7.35-2.16,2.81-.49,5.66-.55,8.5-.5,5.84.09,11.68.29,17.51.43,2.85.07,5.7.08,8.55.28s5.41.71,8.05,1.49c5.37,1.59,10.78,3.96,16.5,3.16.19-.03.11-.32-.08-.29-5.35.75-10.48-1.35-15.48-2.9-2.47-.77-4.97-1.38-7.55-1.64-2.81-.28-5.65-.29-8.48-.36-5.89-.15-11.79-.31-17.68-.44-2.81-.07-5.62-.09-8.41.26-2.53.32-5.01.96-7.41,1.83-5.47,1.99-10.45,5.06-15.37,8.11-.16.1-.01.36.15.26h0Z"/>
      <path d="M159.06,268.86c6.5-3.74,13.66-5.78,21.11-6.44,3.84-.34,7.69-.46,11.54-.64s7.77-.36,11.65-.55c4.38-.21,8.76-.41,13.14-.62.19,0,.19-.31,0-.3-7.93.37-15.86.74-23.79,1.11-7.61.36-15.36.39-22.74,2.49-3.86,1.1-7.57,2.68-11.04,4.68-.17.1-.02.36.15.26h0Z"/>
      <path d="M152.42,263.68c3.63-4.75,8.01-8.93,12.93-12.32,1.38-.95,2.81-1.84,4.27-2.66.17-.09.02-.35-.15-.26-5.24,2.96-10,6.75-14.06,11.19-1.14,1.25-2.22,2.55-3.24,3.89-.12.15.14.3.26.15h0Z"/>
      <path d="M102.43,249.09c7.99,2.43,15.55,6.19,22.32,11.08,1.96,1.42,3.84,2.93,5.66,4.52.14.13.36-.08.21-.21-6.3-5.54-13.5-10.03-21.25-13.23-2.25-.93-4.53-1.74-6.86-2.45-.19-.06-.26.23-.08.29h0Z"/>
      <path d="M123.02,246.76c4.09,1.45,7.77,4.01,10.57,7.33.8.95,1.53,1.96,2.17,3.02.1.16.36.01.26-.15-2.3-3.77-5.61-6.89-9.49-8.97-1.1-.59-2.25-1.1-3.43-1.51-.18-.06-.26.23-.08.29h0Z"/>
      <path d="M69.49,259.57c7.52-1.42,15.21-1.86,22.84-1.33,7.67.53,15.27,2.02,22.56,4.45,4.13,1.37,8.15,3.05,12.03,5.01.17.09.32-.17.15-.26-6.89-3.48-14.21-6.05-21.75-7.67s-15.28-2.29-22.99-1.97c-4.34.18-8.65.68-12.92,1.48-.19.04-.11.32.08.29h0Z"/>
      <path d="M85.69,269.4c5.14-.43,10.3-.56,15.46-.38,2.56.09,5.11.25,7.66.49,2.26.21,4.6.51,6.75-.39.18-.07.1-.36-.08-.29-2.24.94-4.7.55-7.04.34-2.51-.23-5.02-.38-7.54-.46-5.07-.16-10.15-.03-15.21.39-.19.02-.19.32,0,.3h0Z"/>
      <path d="M155.89,280.33c2.33,1.38,4.43,3.12,6.21,5.16.87.99,1.62,2.06,2.36,3.15.63.94,1.28,1.89,2.06,2.72.84.89,1.86,1.61,3.07,1.89.19.04.27-.25.08-.29-2.34-.53-3.75-2.69-5-4.55-1.44-2.13-3.05-4.09-5.02-5.77-1.12-.96-2.33-1.82-3.6-2.57-.17-.1-.32.16-.15.26h0Z"/>
      <path d="M116.57,281.78c5.2-4.74,12.89-3.34,19.27-4.35.19-.03.11-.32-.08-.29-6.46,1.02-14.14-.37-19.4,4.42-.14.13.07.34.21.21h0Z"/>
      <path d="M162.39,279.07c2.72,2.29,5.87,3.97,9.12,5.39,3.51,1.52,7.11,2.82,10.68,4.19,2.19.84,4.39,1.68,6.58,2.52.18.07.26-.22.08-.29-4.7-1.8-9.42-3.57-14.1-5.41-4.3-1.69-8.58-3.61-12.14-6.61-.15-.12-.36.09-.21.21h0Z"/>
      <path d="M186.53,155.14c-1.64,6.43-4.23,12.61-7.65,18.3-3.4,5.66-7.6,10.84-12.45,15.32-2.78,2.57-5.77,4.9-8.94,6.96-.16.11-.01.36.15.26,5.58-3.64,10.61-8.11,14.91-13.2,4.32-5.11,7.91-10.84,10.61-16.97,1.51-3.43,2.73-6.97,3.66-10.6.05-.19-.24-.27-.29-.08h0Z"/>
      <path d="M174.74,167.06c-4.28,8.52-10.41,16.06-17.88,21.99-2.15,1.7-4.4,3.27-6.74,4.69-.16.1-.01.36.15.26,8.18-4.96,15.24-11.71,20.57-19.66,1.53-2.29,2.92-4.67,4.16-7.13.09-.17-.17-.32-.26-.15h0Z"/>
      <path d="M173.3,150.89c-4.59,8.85-9.94,17.31-15.99,25.23-1.73,2.27-3.53,4.5-5.37,6.68-.12.15.09.36.21.21,6.44-7.62,12.23-15.8,17.26-24.43,1.45-2.48,2.83-5,4.15-7.54.09-.17-.17-.32-.26-.15h0Z"/>
      <path d="M168.25,169.14c-3.46,6.73-8.03,12.86-13.5,18.09-1.54,1.47-3.15,2.87-4.81,4.19-.15.12.06.33.21.21,5.93-4.69,11.06-10.36,15.14-16.73,1.16-1.82,2.24-3.69,3.23-5.61.09-.17-.17-.32-.26-.15h0Z"/>
      <path d="M186.15,140.4c-3.34,7.45-7.28,14.62-11.76,21.44-.11.16.15.31.26.15,4.49-6.82,8.42-13.99,11.76-21.44.08-.17-.18-.33-.26-.15h0Z"/>
      <path d="M145,123.21c-.73,11.62-.69,23.28.11,34.89.23,3.29.52,6.58.87,9.87.02.19.32.19.3,0-1.24-11.57-1.72-23.23-1.42-34.86.08-3.3.23-6.6.44-9.89.01-.19-.29-.19-.3,0h0Z"/>
      <path d="M151.33,131.51c1.73,10.36,1.73,20.99,0,31.35-.03.19.26.27.29.08,1.36-8.12,1.67-16.41.9-24.61-.22-2.31-.52-4.61-.9-6.9-.03-.19-.32-.11-.29.08h0Z"/>
      <path d="M137.45,139.55c1.26,8.09,2.83,16.13,4.71,24.1.53,2.26,1.09,4.51,1.67,6.76.05.19.34.11.29-.08-2.05-7.93-3.8-15.93-5.24-24-.41-2.29-.79-4.58-1.15-6.87-.03-.19-.32-.11-.29.08h0Z"/>
      <path d="M156.16,126.17c2.36,7.73,3.05,15.91,2.02,23.93-.02.19.28.19.3,0,1.03-8.04.33-16.26-2.04-24.01-.06-.18-.35-.11-.29.08h0Z"/>
      <path d="M114.96,151.17c1.14,10.28,4.54,20.27,9.89,29.11,1.52,2.5,3.19,4.91,5.01,7.2.12.15.33-.06.21-.21-6.35-8.04-10.91-17.47-13.3-27.43-.68-2.86-1.19-5.75-1.51-8.67-.02-.19-.32-.19-.3,0h0Z"/>
      <path d="M116.11,145.44c4.8,10.81,10.17,21.38,16.09,31.62,1.66,2.87,3.36,5.71,5.1,8.53.1.16.36.01.26-.15-6.22-10.07-11.91-20.46-17.03-31.13-1.43-2.99-2.82-6-4.17-9.02-.08-.18-.34-.02-.26.15h0Z"/>
      <path d="M99.07,142.13c.73,12.14,5.07,23.99,12.26,33.78,2.01,2.74,4.25,5.31,6.68,7.69.14.14.35-.08.21-.21-8.61-8.42-14.68-19.33-17.38-31.06-.77-3.35-1.26-6.76-1.47-10.2-.01-.19-.31-.19-.3,0h0Z"/>
      <path d="M100.81,168.5c4.88,7.66,10.32,15.46,18.46,19.94,2.11,1.16,4.36,2.05,6.7,2.61.19.04.27-.24.08-.29-8.81-2.1-15.49-8.74-20.62-15.87-1.53-2.13-2.97-4.33-4.37-6.54-.1-.16-.36-.01-.26.15h0Z"/>
      <path d="M103.76,142.22c2.06,6.31,4.29,12.56,6.56,18.79,1.82,4.99,3.67,10.04,6.58,14.52,1.57,2.42,3.46,4.62,5.71,6.42.15.12.36-.09.21-.21-4.13-3.3-6.89-7.88-9.02-12.65-2.39-5.37-4.25-11-6.21-16.54-1.22-3.46-2.41-6.93-3.55-10.41-.06-.18-.35-.1-.29.08h0Z"/>
      <path d="M205.45,105.85c-2.17,6.56-5.8,12.48-9.41,18.33-.1.16.16.32.26.15,3.62-5.87,7.27-11.81,9.44-18.4.06-.18-.23-.26-.29-.08h0Z"/>
      <path d="M212.15,100.04c-.31,4.48-1.25,8.91-2.82,13.13-.76,2.04-1.71,4-2.54,6.02-.83,1.99-1.42,4.02-1.94,6.11-.6,2.36-1.2,4.73-2.38,6.88-.09.17.17.32.26.15,2.06-3.75,2.42-8.13,3.96-12.08.82-2.1,1.82-4.13,2.64-6.23.84-2.13,1.52-4.33,2.03-6.56.56-2.44.92-4.91,1.09-7.41.01-.19-.29-.19-.3,0h0Z"/>
      <path d="M215.26,113.79c-2.14,3.05-2.51,6.83-3.45,10.33s-2.53,7.09-4.56,10.24c-1.19,1.84-2.54,3.56-4.03,5.16-.13.14.08.35.21.21,2.54-2.71,4.66-5.79,6.28-9.14.8-1.64,1.47-3.35,2.01-5.09s.93-3.65,1.36-5.49c.51-2.14,1.16-4.26,2.44-6.07.11-.16-.15-.31-.26-.15h0Z"/>
      <path d="M60.67,135.17c4.2,7.24,8.4,14.5,13.25,21.33,4.33,6.1,9.16,11.96,14.83,16.87,3.11,2.69,6.49,5.07,10.1,7.06.17.09.32-.17.15-.26-6.4-3.52-11.94-8.29-16.8-13.72-5.34-5.97-9.92-12.56-14.12-19.36-2.46-3.98-4.8-8.02-7.15-12.07-.1-.17-.36-.02-.26.15h0Z"/>
      <path d="M75.08,144.75c4.3,6.92,9.32,13.38,14.98,19.24,1.64,1.69,3.33,3.33,5.06,4.92.14.13.35-.08.21-.21-6.02-5.51-11.44-11.65-16.16-18.31-1.34-1.89-2.62-3.83-3.84-5.8-.1-.16-.36-.01-.26.15h0Z"/>
      <path d="M71.32,163.1c2.91,3.26,6.07,6.28,9.59,8.89,3.21,2.37,6.69,4.3,10.15,6.27,1.62.93,3.28,1.8,4.93,2.67.17.09.32-.17.15-.26-3.04-1.58-6.01-3.27-8.98-4.98-3.66-2.1-7.12-4.54-10.26-7.37-1.9-1.71-3.67-3.53-5.37-5.44-.13-.14-.34.07-.21.21h0Z"/>
      <path d="M79.33,105.69c2.62,9.91,5.8,19.66,9.54,29.2,1.04,2.65,2.12,5.28,3.24,7.89.08.18.33.02.26-.15-4.02-9.37-7.51-18.96-10.43-28.73-.82-2.75-1.6-5.51-2.33-8.29-.05-.19-.34-.11-.29.08h0Z"/>
      <path d="M86.2,106.23c1.33,6.86,3.63,13.51,6.81,19.73.09.17.35.02.26-.15-3.16-6.2-5.45-12.83-6.78-19.66-.04-.19-.33-.11-.29.08h0Z"/>
      <path d="M86.86,100.92c4.32,6.65,7.62,13.92,9.78,21.55.05.19.34.11.29-.08-2.17-7.65-5.48-14.95-9.81-21.62-.1-.16-.36-.01-.26.15h0Z"/>
      <path d="M113.53,93.35c-1.04,9.79-.81,19.69.69,29.42.43,2.76.96,5.51,1.59,8.23.04.19.33.11.29-.08-2.21-9.56-3.18-19.4-2.86-29.21.09-2.79.29-5.58.59-8.36.02-.19-.28-.19-.3,0h0Z"/>
      <path d="M118.82,105.89c.85,9.56,1.21,19.17,1.08,28.77,0,.19.3.19.3,0,.13-9.6-.23-19.21-1.08-28.77-.02-.19-.32-.19-.3,0h0Z"/>
      <path d="M125.24,109.93c2.15,7.68,2.93,15.71,2.3,23.66-.02.19.28.19.3,0,.63-7.98-.15-16.04-2.31-23.74-.05-.19-.34-.11-.29.08h0Z"/>
      <path d="M109.22,103.23c-.35,8.95.33,17.92,2.05,26.71.04.19.33.11.29-.08-1.71-8.76-2.39-17.71-2.03-26.63,0-.19-.29-.19-.3,0h0Z"/>
      <path d="M141.79,79.48c-1.09,7.49-.66,15.14,1.27,22.46.05.19.34.11.29-.08-1.91-7.26-2.35-14.87-1.27-22.3.03-.19-.26-.27-.29-.08h0Z"/>
      <path d="M147.83,82.23c1.12,7.65,1.4,15.41.83,23.13-.01.19.29.19.3,0,.57-7.74.29-15.53-.84-23.21-.03-.19-.32-.11-.29.08h0Z"/>
      <path d="M153.94,84.86c1.05,8.21,1.42,16.5,1.1,24.77,0,.19.29.19.3,0,.32-8.27-.04-16.56-1.1-24.77-.02-.19-.32-.19-.3,0h0Z"/>
      <path d="M135.52,90.16c-.66,6.83-.05,13.74,1.79,20.35.05.19.34.11.29-.08-1.84-6.58-2.44-13.47-1.78-20.27.02-.19-.28-.19-.3,0h0Z"/>
      <path d="M205.32,199.23c3.88-.98,7.94-1.14,11.91-1.52,4.01-.38,8.03-.75,12.04-1.13.19-.02.19-.32,0-.3-4.09.38-8.19.77-12.28,1.15-3.92.37-7.93.54-11.75,1.5-.19.05-.11.34.08.29h0Z"/>
      <path d="M203.96,191.44c4.23-.19,8.46-.41,12.69-.58,2.08-.09,4.17-.12,6.23.17s3.93.83,5.78,1.61c.18.07.33-.18.15-.26-3.76-1.59-7.64-1.99-11.68-1.84-4.39.16-8.78.4-13.17.6-.19,0-.19.31,0,.3h0Z"/>
      <path d="M174.1,100.31c-2,8.87-3.2,17.91-3.57,26.99-.11,2.59-.14,5.18-.12,7.78,0,.19.3.19.3,0-.09-9.1.63-18.21,2.18-27.18.43-2.52.94-5.02,1.5-7.51.04-.19-.25-.27-.29-.08h0Z"/>
      <path d="M179.29,94.54c.42,9.96-.16,19.96-1.75,29.8-.03.19.26.27.29.08,1.59-9.87,2.19-19.89,1.76-29.88,0-.19-.31-.19-.3,0h0Z"/>
      <path d="M167.24,104.82c-2.65,5.45-2.83,11.62-2.96,17.56,0,.19.3.19.3,0,.13-5.88.29-12.01,2.92-17.41.08-.17-.17-.33-.26-.15h0Z"/>
      <path d="M183.97,109.03c.21,6.81-.66,13.63-2.58,20.17-.05.19.23.26.29.08,1.93-6.56,2.8-13.41,2.59-20.25,0-.19-.31-.19-.3,0h0Z"/>
      <path d="M167.41,257.37c7.72-3.35,16.33-2.23,24.5-2.8,2.25-.15,4.49-.44,6.69-.95.19-.04.11-.33-.08-.29-8.14,1.9-16.58.5-24.77,1.89-2.23.38-4.41.99-6.49,1.89-.18.08-.02.34.15.26h0Z"/>
      <path d="M179.78,271.35c9.2-1.13,18.55-.89,27.68.71.19.03.27-.26.08-.29-9.16-1.6-18.53-1.85-27.76-.72-.19.02-.19.32,0,.3h0Z"/>
      <path d="M68.06,247.96c8.22.03,16.41,1.01,24.41,2.91.19.04.27-.24.08-.29-8.02-1.91-16.24-2.89-24.49-2.92-.19,0-.19.3,0,.3h0Z"/>
      <path d="M97.49,240.65c5.85.55,11.64,1.74,17.23,3.55.18.06.26-.23.08-.29-5.62-1.81-11.43-3.01-17.31-3.56-.19-.02-.19.28,0,.3h0Z"/>
      <path d="M143.54,280.76c2.34,2.25,4.68,4.5,7.01,6.75.67.65,1.34,1.29,2.01,1.94.14.13.35-.08.21-.21-2.34-2.25-4.68-4.5-7.01-6.75-.67-.65-1.34-1.29-2.01-1.94-.14-.13-.35.08-.21.21h0Z"/>
    </g>
  </g>
  <g>
    <path class="cls-6" d="M17.76,4.7l.43.83c2.53,4.84,5.79,9.26,9.66,13.1l.05.05-.05.05c-3.87,3.85-7.13,8.27-9.66,13.1l-.43.83-.43-.83c-2.53-4.84-5.79-9.26-9.66-13.1l-.05-.05.05-.05c3.87-3.85,7.13-8.27,9.66-13.1l.43-.83Z"/>
    <path class="cls-6" d="M44.53,10.09l.24.47c1.57,3,3.59,5.74,5.99,8.12h0s0,0,0,0c-2.4,2.38-4.42,5.12-5.99,8.12l-.24.47-.24-.47c-1.57-3-3.59-5.74-5.99-8.12h0s0,0,0,0c2.4-2.38,4.42-5.12,5.99-8.12l.24-.47Z"/>
    <path class="cls-6" d="M17.76,398.2l.43.83c2.53,4.84,5.79,9.26,9.66,13.1l.05.05-.05.05c-3.87,3.85-7.13,8.27-9.66,13.1l-.43.83-.43-.83c-2.53-4.84-5.79-9.26-9.66-13.1l-.05-.05.05-.05c3.87-3.85,7.13-8.27,9.66-13.1l.43-.83Z"/>
    <path class="cls-6" d="M44.53,403.6l.24.47c1.57,3,3.59,5.74,5.99,8.12h0s0,0,0,0c-2.4,2.38-4.42,5.12-5.99,8.12l-.24.47-.24-.47c-1.57-3-3.59-5.74-5.99-8.12h0s0,0,0,0c2.4-2.38,4.42-5.12,5.99-8.12l.24-.47Z"/>
    <path class="cls-6" d="M271.38,4.7l-.43.83c-2.53,4.84-5.79,9.26-9.66,13.1l-.05.05.05.05c3.87,3.85,7.13,8.27,9.66,13.1l.43.83.43-.83c2.53-4.84,5.79-9.26,9.66-13.1l.05-.05-.05-.05c-3.87-3.85-7.13-8.27-9.66-13.1l-.43-.83Z"/>
    <path class="cls-6" d="M244.6,10.09l-.24.47c-1.57,3-3.59,5.74-5.99,8.12h0s0,0,0,0c2.4,2.38,4.42,5.12,5.99,8.12l.24.47.24-.47c1.57-3,3.59-5.74,5.99-8.12h0s0,0,0,0c-2.4-2.38-4.42-5.12-5.99-8.12l-.24-.47Z"/>
    <path class="cls-6" d="M271.38,398.2l-.43.83c-2.53,4.84-5.79,9.26-9.66,13.1l-.05.05.05.05c3.87,3.85,7.13,8.27,9.66,13.1l.43.83.43-.83c2.53-4.84,5.79-9.26,9.66-13.1l.05-.05-.05-.05c-3.87-3.85-7.13-8.27-9.66-13.1l-.43-.83Z"/>
    <path class="cls-6" d="M244.6,403.6l-.24.47c-1.57,3-3.59,5.74-5.99,8.12h0s0,0,0,0c2.4,2.38,4.42,5.12,5.99,8.12l.24.47.24-.47c1.57-3,3.59-5.74,5.99-8.12h0s0,0,0,0c-2.4-2.38-4.42-5.12-5.99-8.12l-.24-.47Z"/>
  </g>
</svg>