<?xml version="1.0" encoding="UTF-8"?>
<svg id="Layer_1" data-name="Layer 1" xmlns="http://www.w3.org/2000/svg" viewBox="0 0 289.13 430.87">
  <defs>
    <style>
      .cls-1 {
        fill: #f9eae8;
      }

      .cls-2 {
        font-family: SUIT-Regular-KSCpc-EUC-H, SUIT;
        font-size: 14px;
      }

      .cls-3 {
        fill: #f9e4e1;
      }

      .cls-4 {
        fill: #e2afa6;
      }

      .cls-5 {
        fill: #d1d88d;
      }

      .cls-6 {
        fill: #f5c7bc;
      }

      .cls-7 {
        fill: #f9f1ac;
      }

      .cls-8 {
        font-family: 'IM_FELL_Double_Pica_SC', 'IM FELL Double Pica SC';
        font-size: 24px;
      }

      .cls-9 {
        letter-spacing: -.03em;
      }
    </style>
  </defs>
  <g>
    <text class="cls-8" transform="translate(42.64 396.9)"><tspan x="0" y="0">LOTUS FL</tspan><tspan class="cls-9" x="125.71" y="0">O</tspan><tspan x="144.54" y="0">WER</tspan></text>
    <text class="cls-2" transform="translate(113.49 417.59)"><tspan x="0" y="0">연꽃 · 혼란</tspan></text>
  </g>
  <g>
    <g>
      <path class="cls-5" d="M171.36,337.92c-9.24-12.84-19.92-25.68-23.64-33.24-3.72-7.56-15.48-26.4-16.56-42.24-1.08-15.84-1.92-13.32-1.08-23.16s1.26-11.28,1.26-11.28l.69-3.01-.95-1.07c-4.73-5.85-3.47-16.88-3.47-16.88,0,0-5.32,20.01-4.64,36.38.68,16.36,4.53,38.27,15.93,55.95,11.4,17.68,8.69,14.09,8.69,14.09,0,0-13.92-9.6-18.24-15.96-4.32-6.36-22.27-38.16-29.2-43.92-6.93-5.76-15.21-9.84-17.97-11.76s-9.36-7.2-17.76-8.4c-8.4-1.2-19.8-3.72-25.92-3.48-6.12.24-14.76,3.36-15.96,5.04,0,0,5.52-.6,9.84.36,4.32.96,15.12,3.84,20.64,10.68,5.52,6.84,13.2,16.32,15,22.44,1.8,6.12,9.96,15.96,12,17.76s9.96,7.44,23.28,9.24c13.32,1.8,23.28,5.52,26.28,7.44s23.52,19.44,26.04,22.08c2.52,2.64,12.6,13.2,17.88,20.88,5.28,7.68,10.44,18.24,10.44,18.24,0,0-3.36-13.32-12.6-26.16Z"/>
      <path class="cls-6" d="M265.76,160.66s-11.44-1.98-16.17-2.75c-4.73-.76-7.17-2.59-14.31-5.34-6.59-2.53-12.08-.69-17.28,1.42-.18.07.29-.03.1,0l-3.75,1.44.27-.25s.73-.34.75-.35l3.32-4.05c9.25-13.3,10.96-34.5,11.23-39.85.31-6.1,1.68-12.05,1.68-12.05,0,0-3.09,1.98-8.64,4.12-5.43,2.09-16.34,3.02-24.09,13.38h-.41c1.23-7.9-2.96-18-3.92-19.79-1.07-1.98-4.73-16.62-4.73-16.62-4.27,3.81-20.74,14.34-25.94,18.3-2.94,2.25-6.75,7.28-10.14,13.1l-.17-.19c.78-3.97,3.29-22.1-13.62-31.97,0,0-4.67,7.86-10.03,14.72h-.08c-.33-.68-4.08-8.01-13.68-11.21-10.07-3.36-13.73-5.49-16.17-12.51,0,0-1.22,9-3.05,15.25-1.83,6.25-7.02,20.74-7.63,25.62-.61,4.85-1.49,16.6,2.98,25.28l-.02.12c-2.63-1.65-5.72-3.01-9.37-3.89-11.49-2.76-19.84-4.54-26.07-7.12l-10.39-7.37s3.2,18.3,5.64,27c2.43,8.67,16.7,35.38,34.32,42.49l-.14.06c-2.35,0-18.69.73-27.31,19.53,0,0-1.22,4.27-10.83,9,0,0,2.9,3.36,16.78,1.37,13.88-1.98,17.69,6.15,29.28,6.35,11.59.21,20.59-4.52,26.08-9.71,3.28-3.1,5.27-5.05,6.33-6.12l.99-.55-.04.53-.19,3.96.77,5.43,2.3,5.5,2.04,2.56,3.26,2.81,3.64,2.36,5.05,3.45,3.77,3.07,2.49,2.81,8.09,13.04s1.46-4.29,3.06-7.21c.28-.41.54-.84.8-1.3.2-.28.39-.54.58-.74,2.03-2.15,5.79-8.38,5.7-14.19-.04-2.83-1.29-8.35-4.67-14.15l.16-.14c15.01,13.81,20.31,15.35,30.35,16.82,10.02,1.47,14.57.38,23.56,2.41,9,2.03,16.98,4.81,16.98,4.81-.63-3.8-9.38-16.85-15.08-25.21-3.55-5.2-7.88-8-12.93-10.32l.5-.19c13.71-1.03,26.22-10.75,32.06-16.3,5.95-5.64,11.9-12.2,16.62-17.69,2.98-3.46,5.9-6.13,7.65-7.63,1.25-.89,1.85-1.4,1.66-1.36Z"/>
      <path class="cls-1" d="M133.53,23.76c-4.69,2.68-19.62,8.78-23.02,15.21-2.55,4.82-1.18,9.63,4.41,12.21,1.86.86,3.89,1.26,5.94,1.36,5.49.25,20.27,1,25.07,1.86,5.93,1.07,11.46,1.8,17.16,5.6,5.7,3.8,6.13,7.17,6.22,8.46.09,1.3-.52,4.23-4.15,7.77-3.63,3.54-4.23,5.27-3.37,7.08.86,1.81,3.54,3.89,3.54,3.89,0,0-2.33-2.5-2.16-3.97.17-1.47,1.3-4.4,3.37-5.7,2.07-1.3,7.43-4.23,8.21-6.91s2.07-7.43-.6-10.54-5.1-6.56-12.26-7.6c0,0,3.54.86,7,3.89,3.45,3.02,4.58,4.23,5.27,7.51.69,3.28-.94,6.74-2.8,7.95,0,0,2.2-7.43-4.54-12.26-6.74-4.84-15.75-6.39-22.82-6.91s-20.02-2.59-23.91-3.97c-3.89-1.38-7.17-3.28-6.65-6.13.52-2.85,4.15-6.48,7.08-8.46,2.94-1.99,8.68-5.89,10.05-6.97s2.99-3.35,2.99-3.35"/>
      <path class="cls-3" d="M109.94,307.44s27.53,15.16,35.33,24.5c0,0-12.01-18.38-35.33-24.5Z"/>
      <path class="cls-3" d="M97.45,243.38s13.63,10.52,17.21,20.29c0,0-3.66-14.48-17.21-20.29Z"/>
      <path class="cls-7" d="M187.65,236.63l2.35,18.07c.41,3.15,2.85,5.65,5.98,6.15l6.72,1.06-6.44.74c-3.27.38-5.87,2.94-6.28,6.21l-2.34,18.33-2.34-18.33c-.42-3.27-3.01-5.83-6.28-6.21l-6.44-.74,6.72-1.06c3.14-.49,5.57-3,5.98-6.15l2.35-18.07Z"/>
      <path class="cls-7" d="M251.48,124.05l1.02,7.83c.41,3.15,2.85,5.65,5.98,6.15l1.46.23-1.17.13c-3.27.38-5.87,2.94-6.28,6.21l-1,7.86-1-7.86c-.42-3.27-3.01-5.83-6.28-6.21l-1.17-.13,1.46-.23c3.14-.49,5.57-3,5.98-6.15l1.02-7.83Z"/>
      <path class="cls-7" d="M69.43,77.51l1.3,9.98c.41,3.15,2.85,5.65,5.98,6.15l2.56.4-2.28.26c-3.27.38-5.87,2.94-6.28,6.21l-1.28,10.06-1.28-10.06c-.42-3.27-3.01-5.83-6.28-6.21l-2.28-.26,2.56-.4c3.14-.49,5.57-3,5.98-6.15l1.3-9.98Z"/>
    </g>
    <g>
      <path class="cls-4" d="M163.12,155.89c-.66-.44-1.98,1.84-4.78,6.4-2.79,4.55-7.82,9.14-7.83,9.15,1.03-2.25,2.6-5.31,4.48-7.74,3.4-4.41,6.37-11.85,6.7-13.2.33-1.35,2.85-5.34,4.06-9.06,1.21-3.72,1.43-5.83,0-6.16-1.43-.33-1.87.66-2.75,2.75-.88,2.09-2.74,12.41-4.61,14.71-1.73,2.14-7.2,12.9-8,14.47l-.04-.14c.15-.9.6-3.41,1.08-5.14.59-2.13,2.13-8.01,3.01-9.7.88-1.69,2.06-5.95,2.23-8.32.17-2.37-4-1.8-3.7,1.55.22,2.44-2.47,12.47-4.74,18.72,0,0-.04-2.1.11-3.51.15-1.41,1.62-9.24,1.62-11.38s-.96-1.91-2.72-.37c-1.76,1.54-2.05,13.16-2.05,13.16,0,0,.39,2.13.33,4.68-.06,2.55.13,2.9-.25,5.62s-2.43,10.42-2.43,10.42l-.42,1.26,1.76-2.34,4.19-6.36.38-.39.45-.41s.01-.03.03-.09l1.65-1.71,3.53-3.06,5.62-6.75s.81-1.25,1.54-2.29c.73-1.04,2.2-4.32,1.54-4.77Z"/>
      <path class="cls-4" d="M175.02,144.38c-2.13-.2-2.5,1.52-3.16,3.34-.66,1.82-1.69,3.62-3.53,6.49-1.84,2.87-8.3,8.74-8.3,8.74l-3.7,4.44s7.6-5.25,9.21-6.74c1.62-1.48,11.02-12.62,11.38-13.43.36-.81.23-2.65-1.9-2.85Z"/>
      <ellipse class="cls-4" cx="165.66" cy="152.92" rx="1.65" ry="1.15" transform="translate(-49.61 219.92) rotate(-60)"/>
    </g>
    <g>
      <path d="M185.62,236.6l2.28,16.98c.09,3.61,2.77,6.89,6.45,7.22,1.37.2,4.93.77,6.34.98.13.02.14.23,0,.25,0,0-4.28.5-4.28.5-2.84.15-5.8.91-7.3,3.53-.78,1.21-1,2.62-1.15,4.04,0,0-2.14,17.1-2.14,17.1,0,.11-.11.2-.23.19-.09-.01-.16-.09-.17-.17-.77-5.7-1.51-11.39-2.23-17.09-.11-2.82-1.55-5.57-4.24-6.68-1.26-.59-2.71-.59-4.14-.79l-4.28-.49c-.14-.02-.24-.14-.22-.27.01-.11.1-.2.21-.22l4.23-.64c1.23-.21,3-.35,4.13-.84,2.69-1.07,4.23-3.79,4.37-6.61,0,0,2.37-16.96,2.37-16.96h0ZM185.62,236.65c-.19,1.22-2.14,18.53-2.4,19.1-.75,2.86-3.36,5.05-6.29,5.37,0,0-2.11.34-2.11.34l-4.22.69v-.49s4.27.49,4.27.49c1.3.16,3.1.25,4.28.83,2.83,1.16,4.42,4.12,4.53,7.08.74,5.7,1.44,11.4,2.13,17.11,0,0-.4,0-.4,0v-.02c.2-1.23,2.33-18.64,2.56-19.23,1.01-3.97,4.62-5.56,8.4-5.65,0,0,4.28-.48,4.28-.48,0,0,0,.25,0,.25-1.43-.23-4.96-.8-6.34-1.02-3.74-.35-6.49-3.74-6.57-7.4,0,0-2.14-16.96-2.14-16.96h0Z"/>
      <path d="M249.44,124.02c.22,1.57.75,5.41.96,6.91.15,3.1,2.19,6,5.25,6.79.73.2,1.51.27,2.27.4.07.01.11.08.1.14,0,.06-.05.1-.11.1-.77.1-1.55.14-2.27.36-3.04.82-5.04,3.72-5.15,6.8,0,0-.28,2.31-.28,2.31l-.57,4.62c0,.11-.11.2-.22.19-.09-.01-.16-.09-.17-.17-.22-1.56-.75-5.42-.93-6.92-.12-4.03-3.37-7.04-7.36-7.06-.14-.02-.24-.14-.22-.28.01-.11.1-.2.21-.22.76-.12,1.54-.2,2.26-.39,3.04-.77,5.04-3.63,5.21-6.7.31-2.21.74-4.72,1.03-6.89h0ZM249.44,124.07c-.47,3.06-.46,6.2-1.18,9.2-.94,3.17-4.08,5-7.24,5.22,0,0-.01-.49-.01-.49,1.55.12,3.21.44,4.51,1.38,2.04,1.34,3.15,3.74,3.29,6.11,0,0,.29,2.31.29,2.31l.54,4.62h-.4v-.02s.61-4.61.61-4.61l.3-2.31c.15-2.35,1.25-4.71,3.27-6.02,1.3-.93,2.92-1.23,4.46-1.34,0,0,0,.25,0,.25-4.13-.22-7.47-3.18-7.6-7.41-.17-1.48-.66-5.37-.84-6.89h0Z"/>
      <path d="M67.4,77.49l.74,5.41c.28,1.8.45,3.66.8,5.42.44,1.75,1.6,3.29,3.12,4.24,1.53,1,3.41,1.05,5.2,1.36.13.02.14.23,0,.25-3.75.12-7.31,1.59-8.26,5.56-.33,1.76-.48,3.61-.73,5.41l-.67,5.44c0,.23-.37.26-.4.02,0,0-.74-5.44-.74-5.44-.49-3.46-.35-7.63-3.77-9.59-1.53-1.03-3.38-1.06-5.16-1.28-.14-.01-.24-.14-.22-.27.01-.11.1-.2.21-.22,1.56-.25,3.83-.42,5.16-1.33,2.47-1.41,3.34-4.18,3.53-6.87.37-2.6.85-5.54,1.19-8.1h0ZM67.4,77.54c-.34,2.64-.62,5.51-.93,8.15-.05,3.81-2.18,7.47-6.18,8.15,0,0-2.7.45-2.7.45v-.49c5.52.14,8.77,2.96,9.01,8.58.23,1.75.78,6.36.99,8.17,0,0-.4,0-.4,0v-.02s.71-5.44.71-5.44c.26-1.82.42-3.62.77-5.45,1-4.08,4.68-5.64,8.54-5.73,0,0,0,.25,0,.25l-2.7-.44c-5.73-1.24-5.96-5.91-6.46-10.76,0,0-.67-5.43-.67-5.43h0Z"/>
      <path d="M156.34,281.7c-.06,2.18-3.19,2.22-3.32,0,0-2.34,3.33-2.4,3.32,0h0ZM156.29,281.7c-.07-1.71-2.79-1.72-2.87,0-.04,1.86,2.86,1.88,2.87,0h0Z"/>
      <path d="M229.05,204.51c-.06,2.18-3.19,2.23-3.32,0,0-2.34,3.33-2.4,3.32,0h0ZM229,204.51c-.07-1.71-2.79-1.72-2.87,0-.04,1.86,2.86,1.88,2.87,0h0Z"/>
      <path d="M152.48,289.54c-.05,1.49-2.17,1.54-2.27,0-.03-1.65,2.33-1.71,2.27,0h0ZM152.43,289.54c-.06-1.03-1.75-1.03-1.83,0-.06,1.16,1.82,1.22,1.83,0h0Z"/>
      <path d="M216.27,275.97c-.04,1.28-1.85,1.33-1.95,0-.04-1.44,2.02-1.5,1.95,0h0ZM216.22,275.97c-.06-.83-1.43-.82-1.5,0-.07.95,1.52,1.01,1.5,0h0Z"/>
      <path d="M143.15,255.42c-.05,1.49-2.17,1.54-2.27,0-.03-1.65,2.33-1.71,2.27,0h0ZM143.1,255.42c-.06-1.03-1.75-1.03-1.83,0-.06,1.16,1.82,1.22,1.83,0h0Z"/>
      <path d="M249.16,202.35c-.05,1.49-2.17,1.54-2.27,0-.03-1.65,2.33-1.71,2.27,0h0ZM249.11,202.35c-.06-1.03-1.75-1.03-1.83,0-.06,1.16,1.82,1.22,1.83,0h0Z"/>
      <path d="M208.98,242.13c-.05,1.49-2.17,1.54-2.27,0-.03-1.65,2.33-1.71,2.27,0h0ZM208.93,242.13c-.06-1.03-1.75-1.03-1.83,0-.06,1.16,1.82,1.22,1.83,0h0Z"/>
      <path d="M100.81,232.13c-.05,1.49-2.17,1.54-2.28,0-.03-1.65,2.33-1.71,2.28,0h0ZM100.76,232.13c-.06-1.03-1.75-1.03-1.83,0-.06,1.16,1.83,1.22,1.83,0h0Z"/>
      <path d="M85.28,229.72c-.05,1.49-2.17,1.54-2.27,0-.03-1.65,2.33-1.71,2.27,0h0ZM85.23,229.72c-.06-1.03-1.75-1.03-1.83,0-.06,1.16,1.82,1.22,1.83,0h0Z"/>
      <path d="M60.93,177.07c-.05,1.49-2.17,1.54-2.27,0-.03-1.65,2.34-1.71,2.27,0h0ZM60.88,177.07c-.06-1.03-1.75-1.03-1.83,0-.06,1.16,1.82,1.22,1.83,0h0Z"/>
      <path d="M62.45,116.63c-.05,1.49-2.17,1.54-2.28,0-.03-1.65,2.33-1.71,2.28,0h0ZM62.4,116.63c-.06-1.03-1.75-1.03-1.83,0-.06,1.16,1.83,1.22,1.83,0h0Z"/>
      <path d="M148.1,66.2c-.02,1.02-1.47,1.06-1.56,0-.04-1.18,1.64-1.24,1.56,0h0ZM148.05,66.2c-.05-.59-1.02-.56-1.11,0-.08.68,1.13.75,1.11,0h0Z"/>
      <path d="M229.57,138.84c-.02,1.02-1.47,1.06-1.56,0-.05-1.18,1.64-1.24,1.56,0h0ZM229.52,138.84c-.05-.59-1.02-.56-1.11,0-.08.68,1.13.75,1.11,0h0Z"/>
      <path d="M174.4,56.92c-.02,1.02-1.47,1.06-1.56,0-.04-1.18,1.64-1.24,1.56,0h0ZM174.35,56.92c-.05-.59-1.02-.56-1.11,0-.08.68,1.13.75,1.11,0h0Z"/>
      <path d="M72.68,119.84c-.05,1.49-2.17,1.54-2.28,0-.03-1.65,2.33-1.71,2.28,0h0ZM72.63,119.84c-.06-1.03-1.75-1.03-1.83,0-.06,1.16,1.83,1.22,1.83,0h0Z"/>
      <path d="M136.88,68.25c-.05,1.49-2.17,1.54-2.28,0-.03-1.65,2.33-1.71,2.28,0h0ZM136.83,68.25c-.06-1.03-1.75-1.03-1.83,0-.06,1.16,1.83,1.22,1.83,0h0Z"/>
      <path d="M243.06,92.95c-.05,1.49-2.17,1.54-2.28,0-.03-1.65,2.33-1.71,2.28,0h0ZM243.01,92.95c-.06-1.03-1.75-1.03-1.83,0-.06,1.16,1.83,1.22,1.83,0h0Z"/>
      <path d="M204.03,81.48c-.05,1.49-2.17,1.54-2.28,0-.03-1.65,2.33-1.71,2.28,0h0ZM203.98,81.48c-.06-1.03-1.75-1.03-1.82,0-.06,1.16,1.82,1.22,1.82,0h0Z"/>
      <path d="M85.45,59.01c-.06,2.01-2.94,2.06-3.06,0-.02-2.17,3.1-2.23,3.06,0h0ZM85.4,59.01c-.06-1.54-2.55-1.54-2.61,0-.04,1.7,2.61,1.72,2.61,0h0Z"/>
      <path d="M50.2,182.73c-.06,2.01-2.95,2.06-3.07,0,0-2.18,3.09-2.24,3.07,0h0ZM50.15,182.73c-.06-1.54-2.55-1.55-2.62,0-.04,1.7,2.61,1.72,2.62,0h0Z"/>
      <path d="M135.82,194.75c2.69-6.68,6.02-13.24,7.1-20.45.85-5.31.67-10.92-.66-16.13-1.23-5.31-3.95-10.09-6.08-15.07-1.46-3.32-2.8-6.69-4.02-10.1-2.44-6.82-4.48-13.81-5.61-21l.34.08c-4.7,7.42-9.4,14.84-14.33,22.13-3.91,5.26-6.93,11.27-7.83,17.81-.29,2.15-.32,4.36.11,6.47,1.83,8.51,3.38,17.39,8.29,24.75,2.41,3.61,5.82,6.7,10.01,8.03,4.17,1.24,8.42,2.62,12.67,3.48h0ZM135.85,194.79c-1.93-.16-4.54-1.08-6.43-1.5-4.2-1.19-8.74-1.99-12.13-4.95-5.16-4.27-7.94-10.66-9.87-16.91-1.3-4.22-2.12-8.55-3.05-12.83-.45-2.19-.4-4.45-.1-6.64.92-6.6,4-12.71,7.94-17.99,4.93-7.26,9.65-14.67,14.37-22.08.06-.09.17-.11.26-.06,1.86,10.69,5.25,21.19,9.59,31.17,2.55,5.78,5.57,11.48,6.63,17.78.69,4.46.76,9.1,0,13.55-1.11,7.24-4.46,13.76-7.2,20.46h0Z"/>
      <path d="M135.81,194.77c3.8-9.36,9.35-21.08,18.39-26.28,5.52-2.97,13.3-7.68,18.77-10.93,3.13-1.82,6.26-3.65,9.54-5.22,6.8-2.56,12.85-6.65,18.56-11.06.1-.09.28-.02.3.11,1.49,9.01.45,18.17-2.08,26.89-1.84,6.52-4.33,13.01-8.51,18.42-4.37,5.19-9.82,9.61-16.04,12.4-4.18,1.83-8.78,2.48-13.3,2.48-8.8-.02-18.87-.41-25.62-6.82h0ZM135.86,194.76c7.49,7.1,22.55,7.2,32.28,5.91,6.71-1.16,12.56-4.96,17.57-9.44,3.46-2.91,6.26-6.45,8.33-10.47,4.05-8.01,6.44-16.92,7.45-25.83.35-4.48.17-9.02-.48-13.47l.29.11c-5.74,4.4-11.85,8.51-18.66,11.04-9.73,4.8-18.74,10.98-28.35,16.03-9.05,5.18-14.56,16.78-18.43,26.11h0Z"/>
      <path d="M196.28,117.08c3.65-5.35,9.21-9.19,15.3-11.3,3.01-1.13,6.19-1.78,9.21-2.88,2.99-1.17,5.93-2.5,8.67-4.15.08-.05.18-.02.23.05-.99,4.98-1.59,10.05-1.81,15.16-1.35,14.35-4.72,31.7-15.62,41.93,10.56-10.86,13.63-27.38,15.19-41.96.31-5.05.79-10.13,1.94-15.07,0,0,.25.18.25.18-2.78,1.67-5.74,2.97-8.75,4.13-3.05,1.08-6.21,1.72-9.24,2.82-6.11,1.98-11.69,6.01-15.37,11.1h0Z"/>
      <path d="M141.92,156.35c.07-9.87.3-19.91,2.74-29.54,1.68-5.71,4.35-11.1,7.35-16.23,2.56-4.23,5.32-8.46,9-11.82,6.38-4.98,15.38-10.54,21.93-15.33,1.6-1.15,3.21-2.32,4.69-3.61.11-.1.3-.05.34.1,1.31,5.09,2.58,10.21,4.2,15.22,2.14,4.83,3.98,9.82,4.55,15.12.44,3.51.1,7.17-1.25,10.45-3.55,9.91-7.65,19.77-13.76,28.4-2.07,2.82-4.38,5.62-7.18,7.72,5.37-4.53,9.15-10.68,12.4-16.86,3.21-6.24,5.8-12.78,8.09-19.41.59-1.67,1.1-3.31,1.29-5.04.46-5.23-.8-10.46-2.55-15.36-2.91-6.43-4.43-13.32-6.18-20.13,0,0,.34.1.34.1-8.02,6.56-18.51,12.52-26.69,18.87-3.66,3.32-6.41,7.52-8.98,11.72-3.01,5.1-5.7,10.46-7.4,16.14-2.53,9.55-2.65,19.82-2.91,29.49h0Z"/>
      <path d="M151.31,111.98c2.75-12.62-1.88-26.21-13.51-32.62,0,0,.22-.06.22-.06-2.69,4.47-5.56,8.81-8.66,13.01-1.53,2.1-3.23,4.12-4.88,6.1-4.78,6.08-8.8,12.97-10.83,20.47-1.15,5.06-1.27,10.36-1.48,15.51-.11-5.17.09-10.46,1.12-15.6,1.92-7.63,5.95-14.58,10.81-20.69,1.69-2,3.36-3.96,4.91-6.05,3.12-4.15,6.01-8.49,8.72-12.92.04-.08.15-.1.22-.06,11.69,6.56,16.35,20.36,13.34,32.9h0Z"/>
      <path d="M127.79,94.01c-2.33-4.36-6.22-7.82-10.65-9.95-4.5-2.05-9.5-2.97-13.65-5.82-2.82-1.84-4.67-4.82-5.72-7.97,0,0,.31-.03.31-.03-.81,5.64-1.77,11.28-3.45,16.74-2.39,8.16-5.68,16.15-7.19,24.52-.99,8.39-.79,17.33,2.89,25.07-4.05-7.59-4.19-16.71-3.37-25.13,1.47-8.45,4.81-16.41,7.27-24.59,1.71-5.42,2.69-11.05,3.53-16.66.01-.09.09-.15.18-.14.75,1.44,1.23,3.17,2.24,4.52.92,1.35,2.1,2.51,3.45,3.44,4.08,2.84,9.1,3.82,13.56,5.9,4.36,2.15,8.53,5.8,10.58,10.1h0Z"/>
      <path d="M53.08,215.39c5.75-2.78,11.6-5.46,17.77-7.16,6.22-1.54,12.86-.96,19,.7,6.16,1.53,11.87,5.11,18.34,5.19,6.48.1,12.22-3.56,17.3-7.23.14-.12.35.12.2.24-2.58,2.51-5.14,5.05-7.75,7.54-5.34,4.9-12.24,7.98-19.39,9.03-3.58.48-7.25.64-10.82-.08-3.58-.72-6.85-2.38-10.13-3.79-3.28-1.44-6.79-2.36-10.37-2.35-5.38.13-10.76,1.49-16.17.7-1.83-.29-3.69-.58-5.17-1.85-.11-.1-.09-.29.05-.36,4.06-2.13,8.68-4.59,10.78-8.85,1.13-2.3,2.48-4.69,3.97-6.79,5.49-7.52,14.4-12.68,23.82-12.71.03,0,.03.05,0,.05-8.92.18-17.51,4.91-22.86,11.98-1.82,2.22-3.33,5.11-4.56,7.57-2.11,4.45-6.74,6.93-10.91,9.16,0,0,.08-.37.08-.37,1.29,1.07,3.22,1.42,4.88,1.67,5.39.8,10.73-.56,16.11-.67,3.64,0,7.24.94,10.54,2.4,3.31,1.43,6.53,3.07,10.04,3.78,3.51.72,7.14.56,10.67.1,7.08-1.03,13.91-4.05,19.21-8.89,2.6-2.47,5.16-5,7.75-7.5,0,0,.21.24.21.24-5.13,3.68-10.94,7.35-17.49,7.23-6.52-.09-12.21-3.7-18.38-5.26-14.72-4.22-23.79.35-36.72,6.28h0Z"/>
      <path d="M156.7,253.06c-2.44-4.21-4.97-8.38-7.63-12.46-2.76-4.05-7.12-6.61-11.08-9.36-3.92-2.76-8.41-5.39-10.56-9.87-2.01-4.47-2.3-9.53-1.91-14.36,0,0,.11.02.11.02-2.27,9.13-3.9,18.44-4.5,27.84-.79,19.89,3.12,40.28,12.15,58.08,2.5,4.77,6.36,10.45,9.24,15.03.89,1.49,2.69,4.14,3.43,5.71,0,.04.02.03-.02.12-.2.11-.15.01-.19.03-.05-.03-.11-.1-.15-.14,0,0-.14-.18-.14-.18-5.33-3.77-10.93-7.99-15.6-12.79-2.44-2.38-4.06-5.41-5.84-8.24-5.1-8.37-10.6-17.62-15.98-25.75-3.05-4.5-6-9.19-9.94-12.97-6.07-5.28-13.47-8.59-19.99-13.21-4.1-2.9-8.57-5.41-13.49-6.55-8.28-1.37-16.59-3.05-24.93-3.83-5.02-.44-10.05.79-14.74,2.53-1.49.6-3.18,1.23-4.29,2.36,0,0-.18-.3-.18-.3,4.55-.47,9.17-.11,13.53,1.28,6.47,1.9,13.13,4.79,17.44,10.2,4.17,5.18,8.71,10.77,12.09,16.46,1.15,1.95,2.19,4.03,2.83,6.22,1.55,4.23,4.26,7.97,6.95,11.56,6.46,9.62,18.23,13.46,29.24,14.92,4.5.65,8.96,1.57,13.34,2.79,4.33,1.32,8.88,2.49,12.63,5.11,3.61,2.77,7.06,5.71,10.54,8.63,6.91,5.89,13.98,11.63,19.96,18.5,6.12,6.7,12.11,13.64,16.6,21.56,2.3,3.92,4.45,7.92,6.47,11.99,0,0-.41.15-.41.15-1.71-6.12-4.23-12.04-7.26-17.65-7.81-13.95-19.22-25.54-27.49-39.2-7.31-14.03-16.12-28.14-17.84-44.19-.29-6.39-1.5-12.72-1.44-19.11.47-6.36.71-12.88,2.32-19.03-1.46,6.19-1.82,12.67-2.22,19.04-.04,6.37,1.18,12.72,1.49,19.1,1.76,16,10.6,30.08,17.93,44.06,8.32,13.65,19.75,25.21,27.61,39.15,3.06,5.63,5.59,11.54,7.34,17.73.03.12-.04.24-.15.27-.1.03-.21-.02-.26-.11-2.02-4.05-4.18-8.05-6.48-11.95-4.51-7.89-10.44-14.79-16.55-21.47-5.95-6.86-13.02-12.59-19.91-18.47-3.47-2.92-6.93-5.86-10.51-8.62-.88-.69-1.86-1.21-2.89-1.68-3.08-1.41-6.32-2.45-9.58-3.37-8.7-2.69-18-2.66-26.53-5.95-4.25-1.64-8.43-3.65-11.84-6.73-1.6-1.64-3.03-3.41-4.42-5.2-2.73-3.64-5.44-7.37-7.01-11.68-.64-2.18-1.64-4.19-2.79-6.14-2.3-3.89-5.03-7.52-7.81-11.1-2.88-3.48-5.36-7.41-9.17-9.88-5.61-3.69-12.26-6.06-18.92-6.87-2.25-.18-4.53-.13-6.78.07-.16.02-.27-.19-.16-.3.62-.71,1.38-1.08,2.14-1.48,5.35-2.44,11.31-4.01,17.23-3.55,8.42.79,16.67,2.47,24.98,3.86,4.96,1.15,9.49,3.69,13.6,6.61,6.82,4.88,14.78,8.26,20.91,14.13,7.81,8.85,13.53,19.34,19.79,29.29,0,0,5.23,8.64,5.23,8.64,1.79,2.85,3.39,5.85,5.8,8.2,4.7,4.83,10.14,8.9,15.6,12.82,0,0,.13.17.13.17l.07.08s.03.03.02.02c-.02.02.04-.06-.14.04-.03.07-.02.04-.02.06-.03-.08-.11-.24-.18-.36l-.44-.76c-.52-.89-2.2-3.58-2.78-4.5-2.17-3.43-5.49-8.52-7.54-11.95-10.32-18.47-14.63-40.24-13.8-61.29.61-9.4,2.25-18.72,4.53-27.86.01-.07.12-.05.11.02-.39,4.8-.11,9.85,1.88,14.3,2.14,4.45,6.62,7.09,10.52,9.84,3.96,2.76,8.32,5.33,11.08,9.39,2.59,4.06,5.37,8.38,7.58,12.49h0Z"/>
      <path d="M188.42,82.52c-1.9,3.83-3.71,7.72-5.26,11.71-1.63,3.97-2.16,8.26-3.32,12.38-2.23,8.21-4.96,16.68-10.53,23.28-.02.02-.06,0-.04-.03,6.34-8.65,9.2-19.29,11.75-29.57,1.39-6.23,4.52-12.28,7.39-17.76h0Z"/>
      <path d="M182.8,119.85c-3.72,8.25-6.96,17.1-11.39,24.85,3.01-7.11,8.05-17.95,11.39-24.85h0Z"/>
      <path d="M185.69,122.01c-3.77,7.6-6.97,15.63-11.61,22.71,3.21-6.56,8.19-16.29,11.61-22.71h0Z"/>
      <path d="M153.76,142.45c.55-6.13,2.52-12.03,4.69-17.76,2.17-5.74,4.75-11.34,7.83-16.66.01-.03.06,0,.04.02-5.06,11.04-10.85,22.38-12.56,34.39h0Z"/>
      <path d="M153.44,125.26c-1.24,6.08-2.49,12.53-3.27,18.67-.33-3.15.46-6.35,1.07-9.44.69-3.03,1.32-6.39,2.2-9.23h0Z"/>
      <path d="M149.02,124.05c-1.46,6.71-2.6,13.53-3.18,20.35-.4-3.41.23-6.93.86-10.3.67-3.32,1.35-6.96,2.32-10.05h0Z"/>
      <path d="M145.85,104.32c.32,3.28.54,6.58.64,9.88.06,3.28.25,6.76-.86,9.87.79-6.48.36-13.37.22-19.75h0Z"/>
      <path d="M139.73,84.22c2.55,5.34,3.47,11.75,1.69,17.46,0,.03-.05.02-.05-.01.88-5.82.63-12.11-1.64-17.45h0Z"/>
      <path d="M135.86,101.68c-1.48,5.02-2.95,10.37-3.71,15.53-.34-2.66.5-5.37,1.2-7.93.77-2.5,1.53-5.33,2.51-7.6h0Z"/>
      <path d="M137.91,79.23c-2.98,6.94-7.11,16.76-10.11,23.55,1.05-4.12,2.98-8.04,4.71-11.94,1.78-3.83,3.54-7.99,5.4-11.61h0Z"/>
      <path d="M106.41,97.94c1.26,6.01,2.06,12.14,2.07,18.3-.18,6.14-.41,12.26.7,18.33,0,.03-.04.04-.05.01-1.65-5.97-1.39-12.24-1.05-18.35.15-6.09-.72-12.44-1.67-18.29h0Z"/>
      <path d="M105.63,146.91c-5.86-5.9-8.38-14.45-8.34-22.63.04-4.95,1.58-9.75,1.99-14.68.38-3.27.66-6.55.71-9.84.17-3.31-.46-6.54-.87-9.81-.7-6.56-1.06-13.14-1.4-19.72h.42c-.39,5.85-.89,11.68-1.71,17.49-1.46,10.1-5.55,19.8-5.71,30.09.26,7.25,2.16,14.64,3.39,21.62-1.58-7.13-3.37-14.3-3.74-21.62.04-10.34,4.07-20.05,5.57-30.17.82-5.78,1.37-11.61,1.78-17.44,0-.25.42-.26.42,0,.3,6.58.64,13.16,1.31,19.71.4,3.27,1.02,6.54.84,9.85-.06,3.3-.36,6.59-.75,9.86-.43,4.93-1.99,9.7-2.06,14.65-.16,8.17,2.55,16.77,8.16,22.63h0Z"/>
      <path d="M229.57,98.9c-1.21,3.36-2.51,6.69-3.91,9.98-1.42,3.26-2.83,6.71-5.19,9.39,3.53-6.12,6.33-13.01,9.11-19.36h0Z"/>
      <path d="M218.06,123.14c-3.31,5.98-7.54,14.68-11.28,20.27,2.78-6.03,7.94-14.58,11.28-20.27h0Z"/>
      <path d="M192.99,140.4c3.1-4.21,5.81-9.01,9.9-12.3-3.32,3.99-6.73,8.35-9.9,12.3h0Z"/>
      <path d="M215.59,111.97c2.03-1.84,4.88-4.67,7-6.36-.6,1.32-2.1,2.46-3.26,3.44-1.21.94-2.54,2.19-3.74,2.92h0Z"/>
      <path d="M226.37,106.8c-.24,5.67-.96,11.34-2.34,16.85-2.56,9.59-7.87,18.33-13.2,26.62-1.47,2.45-3.74,4.26-5.22,6.7-2.3,3.58-4.34,7.32-6.33,11.07,0,0-.24-.16-.24-.16,2.01-2.21,4.09-4.35,6.26-6.41,3.26-3.01,6.65-6.24,10.9-7.77,4.13-1.7,8.61-3.1,13.13-2.37,5.99,1.06,11.04,4.68,16.79,6.09,5.84,1.06,11.75,2.01,17.62,3.02.12.02.21.14.19.27-4.84,3.96-9.02,8.65-13.1,13.41-12.1,13.51-26.81,28.52-45.87,29.58,19.17-1.56,33.43-16.31,45.5-29.91,4.09-4.68,8.15-9.46,13.1-13.3,0,0,.1.41.1.41-5.88-1.02-11.75-1.97-17.64-3.05-2.95-.67-5.64-2.05-8.37-3.22-7.97-3.84-13.15-4.09-21.32-.59-4.24,1.52-7.55,4.67-10.81,7.67-2.16,2.04-4.25,4.18-6.26,6.37-.1.13-.32-.02-.24-.16,2.01-3.76,4.06-7.5,6.38-11.08,1.49-2.44,3.76-4.23,5.25-6.69,5.36-8.28,10.67-16.93,13.27-26.52,1.44-5.45,2.05-11.36,2.45-16.82h0Z"/>
      <path d="M219.13,139.78c-3.42,8.3-8.35,16.73-16.24,21.46-.03.02-.05-.02-.03-.04,7.3-5.41,12.65-13.33,16.26-21.42h0Z"/>
      <path d="M103.34,119.84c.11,4.96.38,9.92,1.11,14.83.23,1.63.52,3.3,1.21,4.78-1.92-2.74-1.93-6.42-2.21-9.66-.15-3.26-.34-6.83-.12-9.94h0Z"/>
      <path d="M94.96,110.68c-.78,5.83-1.47,11.87-.58,17.7,1.25,5.8,3.3,11.39,5.04,17.06.01.03-.04.05-.05.02-2.25-5.51-4.28-11.14-5.38-17-.76-5.87-.07-12.14.98-17.77h0Z"/>
      <path d="M118.18,146.9c-3.51,13.96-5.24,34.18,7.6,43.95,2.93,2.17,6.49,3.32,10.07,3.82.12.02.1.2-.02.19-4.81-.26-9.98,2.31-10.18,7.65-.28,3.13-.09,6.52,1.77,9.16,2.94,3.8,7.35,6.12,11.19,8.92,3.24,2.32,6.73,4.51,9.26,7.66,2.96,4.78,4.79,10.18,6.71,15.44.97,3.08,2.19,6.09,2.3,9.37,0,0-.34-.08-.34-.08,1.34-3.79,2.8-7.64,5.55-10.66,3.96-5.45,5.82-12.31,3.41-18.79-3.14-10.22-10.71-18.89-20.33-23.52-.26-.11-.08-.53.19-.41,7.39,3.43,14.54,7.6,20.28,13.44,3.23,2.4,7,4.05,10.76,5.53,7.58,2.85,15.43,5.22,23.46,6.39,4.02.32,8.1,1.41,11.87,2.86,3.81,1.47,7.48,3.25,11.07,5.18,3.58,1.94,7.09,4.01,10.49,6.26,0,0-.11.15-.11.15,0,0-18.25-15.51-18.25-15.51-.01,0-.01-.02,0-.04,0-.01.02-.01.04,0,0,.13,18.54,15.34,18.35,15.53-6.88-4.17-14.05-8.42-21.69-11.28-3.79-1.43-7.76-2.47-11.8-2.78-8.08-1.15-15.97-3.43-23.59-6.32-3.79-1.5-7.56-3.15-10.88-5.61-5.72-5.83-12.8-9.98-20.17-13.41,0,0,.19-.41.19-.41,10.9,5.27,19.33,15.75,21.45,27.74.95,6.05-1.86,12.22-5.7,16.76-2,2.65-3.08,5.9-4.24,8.99-.06.18-.35.13-.34-.06-.1-3.13-1.33-6.25-2.27-9.24-1.04-3.03-2.17-6.02-3.43-8.97-1.31-2.87-2.4-6-4.81-8.16-4.7-4.36-10.41-7.44-15.42-11.44-1.26-1-2.47-2.09-3.41-3.42-1.89-2.7-2.09-6.15-1.79-9.32.22-5.44,5.48-8.11,10.42-7.82,0,0-.02.19-.02.19-7.36-.8-13.97-5.52-16.95-12.32-5-11.14-3.69-24.29-.69-35.64h0Z"/>
      <path d="M136.89,163.02c-.81,8.09-3.71,15.94-3.16,24.15.26,2.49.17,5.69,2.19,7.44.19.1.04.41-.16.33-7.24-2.51-8.16-11.29-7.22-17.84.96-6.83,3.12-13.53,6.02-19.74-2.52,6.35-4.67,12.98-5.53,19.8-.87,6.4-.18,14.92,6.85,17.44,0,0-.16.33-.16.33-2.19-1.85-2.05-5.13-2.31-7.74-.33-5.49.85-10.83,2.07-16.13.56-2.61.89-5.56,1.39-8.03h0Z"/>
      <path d="M112.42,145.46c-1.54,8.39-2.4,17.19-.49,25.58,1.15,4.13,2.84,8.12,5,11.83,2.19,3.59,4.82,7.32,8.71,9.16.1.03.08.2-.03.2-5.21.49-10.45.56-15.67.34-10.35-.57-21.15-1.93-30.26-7.22-8.95-5.55-15.66-14-21.27-22.76-2.77-4.44-5.3-9.04-7.3-13.88-1.99-4.86-2.83-10.07-3.98-15.17-1.06-5.12-2.04-10.25-2.96-15.4-.02-.13.06-.26.19-.28.09-.02.18.02.23.09,1.93,2.42,4.41,4.36,7.14,5.83,2.75,1.44,5.69,2.51,8.67,3.44,5.97,1.82,12.09,3.17,18.16,4.67,3.05.67,6.07,1.62,8.92,2.94,8.48,4.19,14.62,12.41,16.81,21.56,0,.03-.04.04-.05,0-2.24-9.08-8.41-17.23-16.87-21.34-2.84-1.29-5.82-2.21-8.88-2.86-6.08-1.45-12.21-2.76-18.22-4.54-5.98-1.76-12.11-4.34-16.05-9.4,0,0,.43-.19.43-.19.91,5.14,1.88,10.27,2.93,15.39,1.13,5.07,1.97,10.28,3.94,15.1,5.99,13.71,15.56,28.36,28.35,36.52,9.03,5.27,19.81,6.65,30.1,7.24,5.21.23,10.44.18,15.64-.3,0,0-.03.2-.03.2-3.95-1.89-6.58-5.63-8.78-9.27-2.16-3.73-3.83-7.73-4.97-11.88-1.84-8.36-1.07-17.45.62-25.62h0Z"/>
      <path d="M115.57,136.54c3.06-6.02,6.08-12.07,8.78-18.26.84-2.05,1.83-4.1,2.19-6.31,0,0,.37.03.37.03-.81,5.51-1.29,11.17-3.39,16.39-1.92,5.16-3.52,10.78-4.8,15.98.94-5.51,2.49-10.89,4.33-16.16,1.12-2.54,1.61-5.28,2.17-8.01.52-2.73.95-5.48,1.33-8.24,0-.11.1-.2.21-.18.1.01.17.11.16.21-.38,2.24-1.41,4.33-2.28,6.41-2.78,6.1-5.88,12.41-9.06,18.14h0Z"/>
      <path d="M112.88,138.82c-2.77,5.59-5.18,11.69-5.15,18.01.77,13.36,4.62,29.14,17.92,35.17.14.04.08.28-.06.25-4.76-.54-9.2-2.35-13.56-4.18-4.35-1.88-8.58-4.03-12.73-6.31-4.07-2.38-8.49-4.48-11.72-8-4.85-5.22-8.49-11.39-13.06-16.81-6.41-6.95-14.26-12.55-20.09-20.05-3.96-5.92-7.11-12.32-10.25-18.69,0,0,.44-.17.44-.17,3.71,12.32,7.91,24.58,13.68,36.11,1.88,3.81,4.29,7.69,7.05,10.74-5.93-6.3-9.24-14.53-12.62-22.37-3.24-7.97-6.07-16.1-8.56-24.34-.04-.12.03-.25.16-.29.11-.03.23.02.28.12,2.09,4.24,4.23,8.46,6.53,12.59,5.33,10.78,15.76,17.41,23.7,26.08,5.37,6.26,9.28,13.83,15.58,19.24,6.8,4.69,14.2,8.51,21.73,11.89,4.33,1.84,8.77,3.65,13.46,4.2,0,0-.06.25-.06.25-2.31-1.08-4.42-2.52-6.32-4.19-8.54-7.49-11.23-21.25-11.62-32.16.33-5.94,2.53-12.01,5.28-17.07h0Z"/>
      <path d="M61.86,136.54c4.26,3.11,8.5,6.26,12.69,9.46,4.15,3.24,8.56,6.3,12.04,10.26-.87-.75-1.99-1.78-3.01-2.56-6.98-5.61-14.84-11.7-21.72-17.16h0Z"/>
      <path d="M74.81,144.36c7.44,3.78,14.03,8.89,19.42,15.25,5.6,6.1,10.95,12.41,16.09,18.91.02.02-.02.06-.04.03-5.51-6.17-10.88-12.46-16.35-18.67-2.77-3.06-5.49-6.2-8.78-8.71-3.19-2.57-6.97-4.79-10.35-6.81h0Z"/>
      <path d="M79.89,143.27c5.86,3.89,11.35,8.49,15.43,14.26,3.9,4.82,9.45,11.61,13.18,16.46.02.02-.02.06-.04.03-5.93-6.49-11.32-13.46-16.68-20.41-3.4-3.97-7.84-7.31-11.89-10.34h0Z"/>
      <path d="M87.17,164.85c5.02,5.14,9.96,10.54,16.03,14.44,6.02,3.93,11.61,8.68,18.29,11.46.03,0,.01.06-.02.05-6.91-2.29-12.59-7.11-18.5-11.17-5.97-3.99-11.13-9.57-15.81-14.77h0Z"/>
      <path d="M88.85,179.86c4.96,3.42,10.26,6.4,16.15,7.79,5.78,1.61,11.65,3.13,17.59,3.96.03,0,.03.05,0,.05-6.02-.3-11.97-1.86-17.71-3.63-5.83-1.5-11.41-4.62-16.04-8.18h0Z"/>
      <path d="M68.73,169.47c6.54,6.78,13.45,13.31,21.3,18.55,1.08.67,2.65,1.57,3.8,2.08.65.32,1.42.46,2.06.78-.69-.13-1.45-.34-2.14-.57-1.9-.71-4.09-1.97-5.79-3.11-7.07-5.04-13.57-11.38-19.23-17.74h0Z"/>
      <path d="M69.02,158.63c3.92,3.18,8.37,6.06,11.39,10.14-3.75-3.33-7.73-6.89-11.39-10.14h0Z"/>
      <path d="M64.58,159.17c2.3,3.7,5.86,6.48,9,9.46,3.33,2.83,6.56,5.78,10.04,8.42.03.01,0,.06-.02.04-3.8-2.21-7.06-5.21-10.29-8.17-3.01-3.03-6.81-6.06-8.73-9.75h0Z"/>
      <path d="M159,181.54c-5.88,3.88-11.99,7.66-17.17,12.43,2-2.94,5.22-4.88,8.11-6.87,2.94-1.89,6.09-4.01,9.06-5.56h0Z"/>
      <path d="M157.39,178.55c-6.29,5.07-12.98,9.96-18.25,16.09,1.95-3.59,5.44-6.13,8.51-8.73,3.15-2.49,6.51-5.22,9.74-7.36h0Z"/>
      <path d="M160.69,168.27c-9.38,6.81-20.32,15.52-24.68,26.55,0,0-.15-.24-.15-.24,2.27.24,4.61-.42,6.76-1.13,11.73-4.68,21.44-13.24,30.84-21.43-9.02,8.65-18.88,17.25-30.69,21.84-2.23.7-4.57,1.36-6.95,1.09-.1-.01-.17-.1-.16-.2,1.04-2.94,2.73-5.59,4.57-8.06,5.62-7.23,13-13.43,20.47-18.41h0Z"/>
      <path d="M168.86,195.88c-8.6,4.6-19,4.82-28.3,2.4-.23-.05-.17-.41.07-.37,5.57.53,11.11-.95,16.12-3.33,5.03-2.42,9.68-5.69,13.82-9.39-3.88,4.01-8.62,7.3-13.61,9.84-5.07,2.44-10.73,3.86-16.38,3.26,0,0,.07-.37.07-.37,1.17.27,2.33.59,3.51.82,8.21,1.64,17.28.86,24.68-2.85h0Z"/>
      <path d="M183.24,170.06c3.4-4.53,6.79-9.06,9.94-13.76,3.01-4.69,6.46-9.45,7.84-14.91.03-.19.36-.16.33.05-.47,4.52-1.83,8.87-3.53,13.04-5.33,12.44-13.68,23.52-22.95,33.26,8.82-10.1,17.12-21.07,22.55-33.42,1.73-4.13,3.1-8.45,3.6-12.91,0,0,.33.04.33.04-1.45,5.55-4.9,10.24-7.99,14.96-3.21,4.6-6.68,9.4-10.11,13.65h0Z"/>
      <path d="M192.44,177.83c-6.42,12.07-18.76,20.68-31.98,23.61-.03-.06,2.42-.83,2.43-.85,12-3.88,23.36-11.73,29.55-22.76h0Z"/>
      <path d="M243.34,156.84c-7.35-.88-14.98-1.42-22.24.28-7.09,1.98-14.08,5.42-19.21,10.79-.02.03-.06,0-.04-.03,4.79-5.8,11.97-9.32,19.16-11.15,7.29-1.58,15.19-1.05,22.34.11h0Z"/>
      <path d="M238.12,170.05c2.64-2.32,5.33-4.64,8.36-6.45,5.26-2.56,11.42-3.47,17.23-2.97.03,0,.03.05,0,.05-3.51-.01-6.99.47-10.43,1.14-2.27.46-4.59.95-6.64,2.06-3.04,1.67-5.89,4.16-8.52,6.17h0Z"/>
      <path d="M235.47,170.79c-5.58,1.92-11.15,3.91-16.85,5.48-2.86.84-5.88.59-8.77,1.14-6.68,1.41-13.31,3.97-18.53,8.48,0,0-.21-.25-.21-.25,5.4-3.7,11.76-6.13,18.33-6.45,6.5-.31,13.08.23,19.43-1.38,12.04-3.61,23.55-9.35,33.96-16.38,0,0,.49-.37.49-.37l.23-.19.11-.1s.07-.09.05-.06c-.01.02-.03.02-.05,0-.03-.02,0-.08.03-.06.03.01.04-.02.07.03.01.06-.04.08-.06.12-.04.06-.28.26-.34.31-7.67,5.77-16.31,10.15-25.11,13.92-5.98,2.64-12.41,4.46-19,4.45-3.27.09-6.53-.03-9.78.13-6.49.26-12.8,2.68-18.16,6.29-.15.13-.37-.13-.21-.25,5.28-4.51,11.96-7.07,18.7-8.45,2.9-.54,5.91-.26,8.77-1.08,5.67-1.47,11.44-3.64,16.89-5.32h0Z"/>
      <path d="M228.04,167.42c-5.35,3.34-11.33,5.43-17.39,7.08-5.84,2.04-12.09,3.76-17.05,7.59-.02.02-.06-.01-.04-.03,2.23-2.25,5.2-3.57,8.06-4.85,4.35-1.82,8.89-3.15,13.45-4.35,4.51-1.2,8.99-3.34,12.97-5.45h0Z"/>
      <path d="M245.49,175.44c-3.65,3.6-7.45,7.06-11.41,10.33-3.96,3.21-8.08,6.55-12.98,8.2-.03,0-.05-.04-.02-.05,9.14-4.55,16.88-11.92,24.41-18.48h0Z"/>
      <path d="M233.29,180.7c-6.06,2.81-12.43,5.03-19.02,6.21-9.88,1.44-19.8,3.17-29.28,6.38-1.04.3-2.19.98-3.06,1.31,3.83-2.31,8.28-3.33,12.55-4.52,6.49-1.61,13.11-2.65,19.73-3.49,6.55-1.04,13.11-3.38,19.07-5.89h0Z"/>
      <path d="M211.97,184.27c-5.52,1.07-11.03,2.23-16.46,3.72-3.21.94-6.58,1.63-9.49,3.32-.02.02-.06-.02-.03-.04,3.69-2.65,8.36-3.47,12.69-4.53,4.36-.93,9.01-1.94,13.29-2.47h0Z"/>
      <path d="M214.52,197.7c-6.19,1.86-12.9,2.91-19.31,2.01,6.42-.15,13.19-.37,19.31-2.01h0Z"/>
      <path d="M63.67,131.82c-7.6-2.23-15.59-6.34-19.3-13.7-.01-.03.03-.05.04-.02,4.43,6.78,11.84,11.26,19.26,13.72h0Z"/>
      <path d="M200.61,210.68c-8.68-5-17.98-9.36-27.94-10.96-.03,0-.03-.05,0-.05,5.07.2,9.97,1.88,14.59,3.89,4.56,2.03,9.33,4.42,13.35,7.12h0Z"/>
      <path d="M184.47,207.61c-6.38-2.34-12.89-4.48-19.46-6.17,3.4.15,6.73,1.34,9.94,2.46,3.15,1.16,6.62,2.34,9.52,3.71h0Z"/>
      <path d="M182.44,214.38c4.19,1.55,10.16,3.57,14.24,5.15-2.51-.25-4.92-1.29-7.26-2.2-2.28-.95-4.9-1.88-6.97-2.94h0Z"/>
      <path d="M206.67,230.06c-7.94-.75-15.92-1.87-23.48-4.49-7.56-2.6-14.69-6.34-21.43-10.63l.15-.19c7.14,6.36,14.44,13.37,23.89,15.9,3.12.79,6.32,1.26,9.52,1.64,6.39.79,12.92.37,19.3,1.69,6.34,1.32,12.56,3.1,18.7,5.16l-.3.25c-.79-2.95-2.57-5.66-4.09-8.31-2.73-4.66-7.19-11.15-10.22-15.72-4.93-8.42-14.18-11.84-22.83-15.25-5.71-2.47-12.1-3.54-18.29-2.63-.03,0-.04-.04-.01-.05,6.19-.99,12.65-.04,18.41,2.42,7.19,2.91,15.04,5.41,20.28,11.47,4.85,6.15,8.93,12.87,13.07,19.51,1.56,2.75,3.31,5.38,4.14,8.48.04.16-.12.31-.28.26-6.11-2.06-12.34-3.85-18.64-5.18-6.32-1.32-12.84-.93-19.27-1.74-3.21-.39-6.41-.87-9.56-1.68-9.5-2.57-16.84-9.65-23.97-16.05-.11-.09.03-.27.15-.19,6.71,4.3,13.81,8.06,21.35,10.69,7.48,2.69,15.72,3.73,23.43,4.63h0Z"/>
      <path d="M146.98,211.21c4.07,8.11,8.58,16.35,10.07,25.4.43,5.48.12,10.97-.3,16.44,0,.03-.05.03-.05,0,.02-5.46.26-10.94-.14-16.39-1.27-8.99-5.91-17.42-9.58-25.45h0Z"/>
      <path d="M165.06,228.69c-.36,2.99-.91,5.97-1.68,8.89-.79,2.91-1.77,5.81-3.44,8.38-.06.09-.19.12-.28.06-.07-.05-.1-.12-.09-.2.15-2.82-.1-5.71-.23-8.55-.1-2.86-.34-5.77-.36-8.61.43,2.81.62,5.72.85,8.58.15,2.88.37,5.73.14,8.62,0,0-.37-.14-.37-.14,3.28-5,4.4-11.39,5.45-17.04h0Z"/>
      <path d="M157.35,219.53c-1.67-3.49-3.47-6.92-5.4-10.27-1.97-3.26-3.91-6.75-6.78-9.29-.15-.11-.04-.37.15-.33,8.99,1.53,18.29,3.29,26.22,7.96-6.15-3.03-12.84-4.87-19.55-6.27-2.23-.48-4.48-.93-6.73-1.32l.15-.33c2.91,2.65,4.78,6.13,6.75,9.47,1.81,3.36,3.8,6.99,5.2,10.39h0Z"/>
      <path d="M83.62,211.2c9.2,3.09,19.53,6.18,29.01,2.55.03-.01.05.03.02.05-4.49,2.39-9.8,2.46-14.68,1.56-4.87-.8-9.93-2.32-14.34-4.15h0Z"/>
      <path d="M114.59,213.22c-4.65,6.84-15.3,8.37-23,8.04-.03,0-.03-.05,0-.05,7.99-.68,17.81-1.2,23-7.99h0Z"/>
      <path d="M84.23,215.94c-3.43-.68-6.92-1.26-10.42-1.35-3.04-.02-7.42.4-10.5.58-.01,0-.03,0-.03-.02,6.81-1.67,14.37-1.08,20.95.79h0Z"/>
      <path d="M85.08,213.47c-2.63-.88-5.5-1.38-8.16-2.04,1.4-.29,2.88.1,4.21.54,1.29.44,2.89.89,3.95,1.5h0Z"/>
      <path d="M64.54,205.76c3.4-3.61,8.04-5.75,12.85-6.74,4.77-1.13,9.61-2,14.48-2.57,8.54-.63,17.09-1.26,25.5-3.04,1.21-.21,2.44-.53,3.59-.85-2.25.92-4.75,1.33-7.14,1.84-6.01,1.17-12.12,2.05-18.25,2.16-6.1.35-12.16,1.38-18.12,2.7-4.81.85-9.51,3.16-12.9,6.5h0Z"/>
      <path d="M84.23,194.39c4.29-1.62,8.95-1.5,13.45-1.41,4.53-.02,9.03-.22,13.55-.5.03,0,.04.05,0,.05-4.47.81-9.03,1-13.56.85-4.49-.25-9.25-.3-13.45,1.01h0Z"/>
      <path d="M114.55,205.19c5.09-3.5,10.74-6.92,14.22-12.14,0,0,.11.15.11.15-3.22.81-6.49,1.55-9.62,2.59-2.77.87-6.88,1.61-9.75,2.25-6.54,1.3-13.05,2.67-19.68,3.5-6.6.69-13.06,2.41-19.47,4.15-6.49,1.6-12.45,4.66-17.76,8.7,4.92-4.23,11.25-7.41,17.64-9.12,6.4-1.87,12.89-3.54,19.54-4.2,6.59-.77,13.14-2.1,19.66-3.36,0,0,4.89-1.01,4.89-1.01,4.9-1.03,9.61-2.69,14.5-3.71.08-.03.16.07.11.15-.79,1.39-1.9,2.54-3.04,3.62-3.43,3.15-7.48,6.13-11.36,8.42h0Z"/>
      <path d="M107.62,203.71c7.03-3.62,13.9-7.77,21.26-10.62-5.94,3.3-15.16,7.7-21.26,10.62h0Z"/>
      <path d="M141.05,209.68c-1.06-5.1-2.12-10.58-5.35-14.79,0,0,.28,0,.28,0-.98,1.4-1.91,2.85-2.51,4.44-1.99,4.74-2.07,10.18-.77,15.11-1.89-4.81-1.74-10.53.35-15.29.66-1.62,1.64-3.08,2.65-4.48.06-.08.17-.1.25-.04,3.2,4.25,4.34,10.05,5.11,15.06h0Z"/>
      <path d="M145.26,208.34c-2.46-4.9-5.36-9.83-9.56-13.42,0,0,.33-.14.33-.14-.2,5.57,1.41,11.08,2.56,16.46-1.81-5.24-3.27-10.88-2.95-16.49,0-.16.21-.24.33-.14,4.13,3.69,7.18,8.84,9.3,13.73h0Z"/>
      <path d="M147.14,174.55c1.42-3.65,3.12-7.22,5.4-10.42,2.95-3.9,5.06-8.39,6.76-12.95,1.19-3.72,3.6-6.98,4.56-10.8.36-1.36.87-2.83.55-4.22-.23-.86-1.56-1.01-2.08-.34-.3.33-.51.77-.71,1.21-1.87,4.49-2.24,9.55-4.12,14.08-1.24,2.55-3.13,4.93-4.43,7.64-3.75,6.81-7.35,14.07-11.25,20.65,3.62-6.96,7.19-13.92,10.81-20.89,1.3-2.7,3.2-5.13,4.41-7.59,1.07-2.72,1.73-5.59,2.47-8.42.59-1.8,1.44-7.95,4.04-7.45,2.94.47.25,6.48-.34,8.21-1.06,2.76-2.8,5.18-3.65,8-1.73,4.58-3.89,9.06-6.89,12.96-2.33,3.1-4.02,6.94-5.53,10.33h0Z"/>
      <path d="M143.52,169.25c.12.06.26-.03.35-.13,1.29-1.77,1.86-3.97,2.62-6,1.9-6.12,4.09-12.35,4.32-18.77.27-1.55,2.38-2.85,3.68-1.6.21.27.36.61.35.94-.02,1.24-.28,2.37-.53,3.53-.47,2.33-1.42,4.46-2.31,6.66-1.53,4.41-2.8,8.99-3.75,13.55.79-5.77,2.34-11.57,4.61-16.96.71-2.16,1.38-4.5,1.53-6.75.02-.52-.36-.94-.87-1.01-1.07-.2-2.12.69-2.35,1.74-.29,6.4-2.57,12.65-4.55,18.73-.8,2.03-1.4,4.24-2.73,5.99-.1.1-.25.22-.42.14-.03-.02,0-.06.03-.04h0Z"/>
      <path d="M146.18,164.17c-.21-3.95.89-8.29,1.32-12.19.03-.79.86-4.65-.67-3.95-.84.44-1.67,1.05-1.98,1.99-1.21,3.83-1.18,8.24-1.71,12.06,0-4.1.03-8.28,1.25-12.24.37-1.03,1.31-1.73,2.28-2.2,2.27-.77,1.23,3.26,1.16,4.39-.34,2.35-.95,5.7-1.36,8.07-.27,1.29-.13,2.91-.28,4.07h0Z"/>
      <path d="M148.46,171.42c2.53-2.44,4.92-5.06,6.91-7.96.76-.7,5.44-10.43,6.09-7.18-.18,2.6-1.89,4.74-3.26,6.8-1.92,2.22-3.82,4.53-5.84,6.63,2.91-4.29,7.24-7.88,8.63-13.02.1-.6.01-.88-.52-.37-1.91,2.19-3.18,4.91-4.88,7.28-2.05,2.8-4.59,5.67-7.13,7.81h0Z"/>
      <path d="M157.98,162.93c5.4-4.85,10.24-10.25,12.48-17.28.71-1.92,3.89-1.97,4.63-.05.22.61.23,1.32-.14,1.9-2.92,3.88-6.04,7.5-9.22,11.12-3.13,3.58-7.6,6.25-11.45,8.74,2.05-1.55,6.74-4.89,8.63-6.48,2.56-2.47,4.79-5.36,7.14-8.05,1.54-1.83,3.14-3.66,4.55-5.55.3-.43.3-1.06.12-1.56-.37-1.08-1.83-1.4-2.82-1.08-.53.17-.9.63-1.17,1.14-.86,2.19-1.76,4.5-3.1,6.49-2.41,4.11-6.22,7.62-9.66,10.64h0Z"/>
      <path d="M164.49,153.3c-.42,1.1-1.85,1.84-2.05.19-.04-.98.68-2.56,1.91-2.18.79.49.41,1.37.14,1.99h0ZM164.45,153.27c.26-.56.07-1.4-.3-1.51-.34-.12-.92.35-1.16.86-.81,1.69.7,2.25,1.46.65h0Z"/>
      <path d="M131.51,23.78c-7.63,4.24-16.46,7.27-22.26,14.08-6.05,9.27,3.02,15.07,11.82,14.69,11.59.76,23.96.63,34.98,4.67,4.64,2.05,9.99,5.05,11.25,10.37.52,2.7-1.05,5.26-2.69,7.26-1.64,1.99-3.92,3.58-4.87,6.03-.84,2.64,1.91,4.64,3.65,6.19,0,0-.24.26-.24.26-1.33-1.49-2.86-3.43-1.88-5.52.64-1.91,1.81-3.81,3.66-4.77,1.72-1.04,3.43-2.08,4.98-3.33,1.64-1.2,2.75-2.83,3.05-4.85.68-2.81.99-6.11-.92-8.49-1.88-2.28-3.88-4.65-6.58-5.96-1.76-.9-3.71-1.41-5.68-1.71,0,0,.08-.42.08-.42,2.16.62,4.14,1.67,5.92,2.99,3.49,2.64,7.13,6.15,6.65,10.91-.22,2.23-1.15,4.51-3.03,5.85-.17.12-.41-.05-.35-.25,2.27-9.59-6.54-14.37-14.39-16.69-3.98-1.19-8.11-1.84-12.25-2.18-8.3-.82-16.66-1.81-24.68-4.18-4.15-1.5-8.79-4.04-5.26-8.92,4.83-7.09,13.9-9.37,18.99-16.06-4.78,6.69-14.17,9.14-18.82,16.17-4.84,6.86,6.54,9.08,11.24,10.04,6.14,1.15,12.34,2.06,18.57,2.53,4.17.32,8.33.95,12.36,2.13,8.11,2.4,17.05,7.37,14.7,17.28,0,0-.35-.26-.35-.26,3.51-2.63,3.63-8.18,1.09-11.54-2.76-3.27-6.33-6.18-10.48-7.4-.12-.03-.19-.15-.16-.27.03-.11.13-.17.24-.15,2,.3,3.99.82,5.81,1.76,1.83.91,3.4,2.28,4.74,3.78,1.31,1.53,2.89,3.02,3.28,5.08.54,2.54-.03,5.09-.72,7.52-.39,1.52-1.65,2.64-2.8,3.6-1.58,1.27-3.31,2.32-5.03,3.35-1.78.91-2.88,2.7-3.51,4.56-1,1.94.58,3.7,1.79,5.16.15.14-.07.4-.24.26-1.85-1.61-4.68-3.79-3.75-6.58,1.02-2.56,3.3-4.15,4.95-6.13,1.58-1.93,3.13-4.41,2.63-7-1.21-5.16-6.52-8.17-11.05-10.17-10.98-4.04-23.34-3.94-34.89-4.73-8.91.36-18.05-5.56-11.91-14.94,2.24-2.86,5.33-4.89,8.4-6.75,4.47-2.64,9.45-5.01,13.96-7.26h0Z"/>
      <path d="M124.15,297.7c-9.54-9.46-19.12-18.91-29.2-27.79-1.7-1.45-3.4-2.92-5.22-4.2-1.66-1.12-3.91-2.72-5.43-3.98-13.68-10.79-27.71-24.22-45.18-28.03-.03,0-.02-.05,0-.05,17.6,3.32,31.91,16.87,45.42,27.77,3.43,2.8,7.36,5.21,10.61,8.25,9.98,8.93,19.76,18.54,28.99,28.03h0Z"/>
      <path d="M101.24,261.48c1.87,6.15,4.16,12.32,7.76,17.67,3.84,5.2,8.03,10.14,11.95,15.28.02.02-.02.06-.04.03-4.34-4.81-8.51-9.77-12.24-15.09-3.5-5.41-5.9-11.83-7.43-17.89h0Z"/>
      <path d="M86.96,249.35c2.42,4.1,4.67,8.35,6.26,12.85,1.89,4.35,4.59,8.31,7.12,12.32.02.02-.02.05-.04.03-2.99-3.72-5.69-7.74-7.45-12.2-1.44-4.51-3.81-8.92-5.89-12.99h0Z"/>
      <path d="M83.63,250.18c3.06,6.15,6.61,12.46,10.01,18.4-4.26-5.32-7.24-12.34-10.01-18.4h0Z"/>
      <path d="M58.86,235.02c8.58,4.64,15.93,12.19,19.35,21.41.01.03-.03.05-.05.02-4.21-8.78-10.96-16.62-19.31-21.43h0Z"/>
      <path d="M76.78,279.48c5.74,1.27,11.59,2.3,17.47,2.37,5.93-.05,11.81,1.3,17.34,3.37.03,0,.01.06-.02.05-5.67-1.55-11.44-2.9-17.33-3.02-5.85-.2-11.98-1.25-17.47-2.77h0Z"/>
      <path d="M64.94,261.46c3.46,2.52,7.27,4.66,11.37,5.93,6.9,1.9,14.34,1.68,21.04,4.4.03.01.01.06-.02.05-6.89-2.05-14.21-2.11-21.12-4.14-4.04-1.34-8.12-3.62-11.28-6.24h0Z"/>
      <path d="M60.24,253.63c8.09,4.1,16.59,8.09,25.69,9.11.03,0,.03.05,0,.05-4.62.16-9.12-1.4-13.35-3.1-4.19-1.74-8.6-3.77-12.34-6.06h0Z"/>
      <path d="M54.73,245.73c3.71,3.49,7.94,6.59,12.74,8.36,3.16,1.01,6.53,1.22,9.64,2.45,1.12.45,2.35.89,3.25,1.69-1.04-.57-2.2-1.01-3.36-1.36-3.16-1.04-6.53-1.27-9.67-2.39-4.74-1.89-9.23-5.16-12.59-8.76h0Z"/>
      <path d="M82.1,283.46c6.39,2.8,13.28,4.31,20.21,5.01,6.95.77,13.8,3.08,19.64,6.95.03.02,0,.06-.03.04-6.07-3.39-12.77-5.66-19.66-6.59-6.85-.81-14.08-2.4-20.16-5.4h0Z"/>
      <path d="M80.35,284.28c6.82,3.38,14.11,5.81,21.67,6.84.03,0,.03.05,0,.05-7.62-.09-15.21-3.37-21.66-6.89h0Z"/>
      <path d="M98.75,260.84c2.12,6.93,4.73,13.79,8.33,20.06-2.38-2.75-3.83-6.25-5.1-9.64-1.22-3.37-2.51-7.06-3.23-10.41h0Z"/>
      <path d="M66.01,268.42c5.55,5.72,12.93,9.8,20.93,10.58.03,0,.03.05,0,.05-8.1.19-15.81-4.89-20.93-10.63h0Z"/>
      <path d="M107.93,307.45c6.28,3.41,12.49,7.15,18.51,11.03,5.97,4,12.1,7.95,16.95,13.33,0,0-.32.24-.32.24-8.57-11.76-21.19-20.51-35.14-24.6h0ZM107.89,307.43c14.23,3.54,27.02,12.46,35.52,24.4.14.2-.16.44-.32.24-4.76-5.35-10.88-9.37-16.78-13.38-6.02-3.99-12.14-7.66-18.42-11.26h0Z"/>
      <path d="M95.44,243.39c6.88,5.56,13.85,11.91,17.38,20.21,0,0-.38.12-.38.12-2.67-8.65-8.74-16.41-17-20.32h0ZM95.4,243.36c8.63,3.4,14.9,11.44,17.43,20.25.07.23-.3.36-.38.12-3.43-8.33-10.33-14.61-17.05-20.37h0Z"/>
    </g>
  </g>
</svg>