<?xml version="1.0" encoding="UTF-8"?>
<svg id="Layer_1" data-name="Layer 1" xmlns="http://www.w3.org/2000/svg" xmlns:xlink="http://www.w3.org/1999/xlink" viewBox="0 0 289.13 430.87">
  <defs>
    <style>
      .cls-1, .cls-2 {
        fill: none;
      }

      .cls-3 {
        fill: #c8cc7a;
      }

      .cls-3, .cls-4, .cls-5, .cls-2, .cls-6, .cls-7, .cls-8 {
        stroke: #000;
      }

      .cls-3, .cls-4, .cls-2, .cls-6, .cls-7, .cls-8 {
        stroke-width: .5px;
      }

      .cls-3, .cls-2, .cls-6, .cls-7, .cls-8 {
        stroke-linecap: round;
        stroke-linejoin: round;
      }

      .cls-9 {
        font-family: Pretendard-Regular-KSCpc-EUC-H, Pretendard;
      }

      .cls-9, .cls-10 {
        font-size: 14px;
      }

      .cls-11 {
        clip-path: url(#clippath-1);
      }

      .cls-12 {
        clip-path: url(#clippath-2);
      }

      .cls-4 {
        fill: #f4f9fd;
      }

      .cls-4, .cls-5 {
        stroke-miterlimit: 10;
      }

      .cls-13 {
        fill: #fff;
      }

      .cls-5, .cls-7 {
        fill: #f2beaa;
      }

      .cls-10 {
        font-family: 'IM_FELL_Double_Pica_SC', 'IM FELL Double Pica SC';
      }

      .cls-6 {
        fill: #f9f1ac;
      }

      .cls-8 {
        fill: #df9471;
      }

      .cls-14 {
        letter-spacing: -.02em;
      }

      .cls-15 {
        clip-path: url(#clippath);
      }

      .cls-16 {
        letter-spacing: .02em;
      }
    </style>
    <clipPath id="clippath">
      <rect class="cls-1" x="-295.11" y="35.22" width="261.08" height="360.43" rx="30" ry="30"/>
    </clipPath>
    <clipPath id="clippath-1">
      <rect class="cls-1" x="14.03" y="35.22" width="261.08" height="360.43" rx="30" ry="30"/>
    </clipPath>
    <clipPath id="clippath-2">
      <rect class="cls-1" x="323.16" y="35.22" width="261.08" height="360.43" rx="30" ry="30"/>
    </clipPath>
  </defs>
  <rect class="cls-5" x="0" y="0" width="289.13" height="430.87"/>
  <rect class="cls-4" x="14.03" y="35.22" width="261.08" height="360.43" rx="30" ry="30"/>
  <text class="cls-10" transform="translate(118.55 23.6)"><tspan x="0" y="0">PE</tspan><tspan class="cls-14" x="18.27" y="0">O</tspan><tspan class="cls-16" x="29.44" y="0">N</tspan><tspan x="42.22" y="0">Y</tspan></text>
  <text class="cls-9" transform="translate(115.08 415.46)"><tspan x="0" y="0">작약 · 후회</tspan></text>
  <path class="cls-6" d="M16.59,5.73l.43.83c2.53,4.84,5.79,9.26,9.66,13.1l.05.05-.05.05c-3.87,3.85-7.13,8.27-9.66,13.1l-.43.83-.43-.83c-2.53-4.84-5.79-9.26-9.66-13.1l-.05-.05.05-.05c3.87-3.85,7.13-8.27,9.66-13.1l.43-.83Z"/>
  <path class="cls-6" d="M273.32,5.73l.43.83c2.53,4.84,5.79,9.26,9.66,13.1l.05.05-.05.05c-3.87,3.85-7.13,8.27-9.66,13.1l-.43.83-.43-.83c-2.53-4.84-5.79-9.26-9.66-13.1l-.05-.05.05-.05c3.87-3.85,7.13-8.27,9.66-13.1l.43-.83Z"/>
  <path class="cls-6" d="M194.34,11.12l.24.47c1.57,3,3.59,5.74,5.99,8.12h0s0,0,0,0c-2.4,2.38-4.42,5.12-5.99,8.12l-.24.47-.24-.47c-1.57-3-3.59-5.74-5.99-8.12h0s0,0,0,0c2.4-2.38,4.42-5.12,5.99-8.12l.24-.47Z"/>
  <path class="cls-6" d="M95.94,11.12l.24.47c1.57,3,3.59,5.74,5.99,8.12h0s0,0,0,0c-2.4,2.38-4.42,5.12-5.99,8.12l-.24.47-.24-.47c-1.57-3-3.59-5.74-5.99-8.12h0s0,0,0,0c2.4-2.38,4.42-5.12,5.99-8.12l.24-.47Z"/>
  <path class="cls-6" d="M16.59,397.53l.43.83c2.53,4.84,5.79,9.26,9.66,13.1l.05.05-.05.05c-3.87,3.85-7.13,8.27-9.66,13.1l-.43.83-.43-.83c-2.53-4.84-5.79-9.26-9.66-13.1l-.05-.05.05-.05c3.87-3.85,7.13-8.27,9.66-13.1l.43-.83Z"/>
  <path class="cls-6" d="M273.32,397.53l.43.83c2.53,4.84,5.79,9.26,9.66,13.1l.05.05-.05.05c-3.87,3.85-7.13,8.27-9.66,13.1l-.43.83-.43-.83c-2.53-4.84-5.79-9.26-9.66-13.1l-.05-.05.05-.05c3.87-3.85,7.13-8.27,9.66-13.1l.43-.83Z"/>
  <path class="cls-6" d="M191.2,402.92l.24.47c1.57,3,3.59,5.74,5.99,8.12h0s0,0,0,0c-2.4,2.38-4.42,5.12-5.99,8.12l-.24.47-.24-.47c-1.57-3-3.59-5.74-5.99-8.12h0s0,0,0,0c2.4-2.38,4.42-5.12,5.99-8.12l.24-.47Z"/>
  <path class="cls-6" d="M97.77,402.92l.24.47c1.57,3,3.59,5.74,5.99,8.12h0s0,0,0,0c-2.4,2.38-4.42,5.12-5.99,8.12l-.24.47-.24-.47c-1.57-3-3.59-5.74-5.99-8.12h0s0,0,0,0c2.4-2.38,4.42-5.12,5.99-8.12l.24-.47Z"/>
  <g class="cls-15">
    <g>
      <rect class="cls-13" x="-239.27" y="126.04" width="270.96" height="12.98" rx="6.43" ry="6.43"/>
      <g>
        <line class="cls-2" x1="-.7" y1="126.12" x2="20.94" y2="126.12"/>
        <line class="cls-2" x1="-93.91" y1="132.34" x2="31.26" y2="132.34"/>
      </g>
    </g>
  </g>
  <g class="cls-11">
    <g>
      <rect class="cls-13" x="102.06" y="105.15" width="274.52" height="7.79" rx="3.89" ry="3.89"/>
      <g>
        <path class="cls-13" d="M116.05,106.43s33.22.75,36.78,0,15.79-2.82,19.39-4.82c4.34-2.41,9.38-.07,9.38,4.63"/>
        <path class="cls-13" d="M172.22,101.61s-3.29-14.2,13.18-14.2c0,0,12.45-1.37,12.45,12.9,0,0,.27-4.83,5.27-4.83s5.81,3.47,5.81,7"/>
        <path class="cls-13" d="M236.24,89.96v-2.59c0-11.11-10.26-20.12-22.92-20.12s-22.92,9.01-22.92,20.12"/>
        <path class="cls-13" d="M226.97,102.98c.81-3.35,3.45-5.8,6.58-5.8,3.78,0,6.84,3.57,6.84,7.98v1.03"/>
        <path class="cls-13" d="M221,106.21c0-2.06,1.88-3.72,4.2-3.72s4.2,1.67,4.2,3.72"/>
        <path class="cls-13" d="M235.97,84.27c2.39-2.39,5.89-3.9,9.8-3.9,7.19,0,13.02,5.12,13.02,11.43v3.9"/>
        <path class="cls-13" d="M240.38,104.35s21.25,2.34,29.17-1.85v-2.92c0-4.72-4.36-8.55-9.74-8.55-.37,0-.73.02-1.08.05"/>
        <circle class="cls-13" cx="274.99" cy="88.04" r="2.51"/>
        <circle class="cls-13" cx="179.09" cy="75.5" r="2.51"/>
        <path class="cls-13" d="M214.19,72.99s3.28-.23,4.68.43"/>
        <path class="cls-13" d="M222.4,75.06s6.97,3.7,7.47,10.46"/>
        <path class="cls-13" d="M147.83,106.71h178.82v-1.71h-19.64l-6.02-3.32-6.71,1.13-24.73-.3s5.37-6.8,13.32-6.8,11.41,7.1,11.41,7.1c0,0,1.11-3.55,5.74-3.55s6.98,5.75,6.98,5.75h12.58"/>
        <polygon class="cls-13" points="152.83 106.43 167.38 105 176.57 98.71 184.33 90.55 196.39 85.52 224.49 84.05 250.75 85.52 265.72 100.08 269.56 102.5 286.18 100.39 294.29 102.81 300.02 99.25 304.66 102.49 307.01 105 305.27 106.43 152.83 106.43"/>
      </g>
      <g>
        <line class="cls-2" x1="103.41" y1="112.54" x2="189.9" y2="112.54"/>
        <line class="cls-2" x1="198.11" y1="112.54" x2="202.19" y2="112.54"/>
        <line class="cls-2" x1="207.7" y1="112.54" x2="283.96" y2="112.54"/>
        <line class="cls-2" x1="288.85" y1="112.54" x2="349.3" y2="112.54"/>
        <path class="cls-2" d="M115.28,105.15s31.94.33,42.52,0c3.64-.11,10.82-1.41,14.42-3.41,4.34-2.41,9.38-.07,9.38,4.63"/>
        <path class="cls-2" d="M172.22,101.74s-3.29-14.2,13.18-14.2c0,0,12.45-1.37,12.45,12.9,0,0,.27-4.83,5.27-4.83s5.81,3.47,5.81,7"/>
        <path class="cls-2" d="M190.39,87.51c0-11.11,10.26-20.12,22.92-20.12s22.92,9.01,22.92,20.12v2.59"/>
        <path class="cls-2" d="M226.97,103.11c.81-3.35,3.45-5.8,6.58-5.8,3.78,0,6.84,3.57,6.84,7.98v1.03"/>
        <path class="cls-2" d="M221,106.34c0-2.06,1.88-3.72,4.2-3.72s4.2,1.67,4.2,3.72"/>
        <path class="cls-2" d="M235.97,84.41c2.39-2.39,5.89-3.9,9.8-3.9,7.19,0,13.02,5.12,13.02,11.43v3.9"/>
        <path class="cls-2" d="M240.38,104.48s21.25,2.34,29.17-1.85v-2.92c0-4.72-4.36-8.55-9.74-8.55-.37,0-.73.02-1.08.05"/>
        <path class="cls-2" d="M269.56,102.64s5.37-6.8,13.32-6.8,11.41,7.1,11.41,7.1c0,0,1.11-3.55,5.74-3.55s6.98,5.75,6.98,5.75h12.58"/>
        <circle class="cls-2" cx="274.99" cy="88.17" r="2.51"/>
        <circle class="cls-2" cx="179.09" cy="75.64" r="2.51"/>
        <path class="cls-2" d="M214.19,73.12s3.28-.23,4.68.43"/>
        <path class="cls-2" d="M222.4,75.19s6.97,3.7,7.47,10.46"/>
      </g>
    </g>
    <g>
      <rect class="cls-13" x="-57.13" y="357.11" width="274.52" height="7.79" rx="3.89" ry="3.89"/>
      <g>
        <path class="cls-13" d="M-43.14,358.38s33.22.75,36.78,0,15.79-2.82,19.39-4.82c4.34-2.41,9.38-.07,9.38,4.63"/>
        <path class="cls-13" d="M13.03,353.56s-3.29-14.2,13.18-14.2c0,0,12.45-1.37,12.45,12.9,0,0,.27-4.83,5.27-4.83s5.81,3.47,5.81,7"/>
        <path class="cls-13" d="M77.05,341.92v-2.59c0-11.11-10.26-20.12-22.92-20.12s-22.92,9.01-22.92,20.12"/>
        <path class="cls-13" d="M67.78,354.93c.81-3.35,3.45-5.8,6.58-5.8,3.78,0,6.84,3.57,6.84,7.98v1.03"/>
        <path class="cls-13" d="M61.81,358.16c0-2.06,1.88-3.72,4.2-3.72s4.2,1.67,4.2,3.72"/>
        <path class="cls-13" d="M76.78,336.23c2.39-2.39,5.89-3.9,9.8-3.9,7.19,0,13.02,5.12,13.02,11.43v3.9"/>
        <path class="cls-13" d="M81.19,356.3s21.25,2.34,29.17-1.85v-2.92c0-4.72-4.36-8.55-9.74-8.55-.37,0-.73.02-1.08.05"/>
        <circle class="cls-13" cx="177.59" cy="355.6" r="2.51"/>
        <circle class="cls-13" cx="115.8" cy="339.99" r="2.51"/>
        <circle class="cls-13" cx="19.9" cy="327.46" r="2.51"/>
        <path class="cls-13" d="M55,324.95s3.28-.23,4.68.43"/>
        <path class="cls-13" d="M63.21,327.02s6.97,3.7,7.47,10.46"/>
        <path class="cls-13" d="M-11.36,358.67h178.82v-1.71h-19.64l-6.02-3.32-6.71,1.13-24.73-.3s5.37-6.8,13.32-6.8,11.41,7.1,11.41,7.1c0,0,1.11-3.55,5.74-3.55s6.98,5.75,6.98,5.75h12.58"/>
        <polygon class="cls-13" points="-6.36 358.38 8.19 356.96 17.39 350.66 25.14 342.51 37.2 337.48 65.3 336 91.56 337.48 106.53 352.04 110.37 354.46 126.99 352.34 135.1 354.76 140.84 351.21 145.47 354.44 147.82 356.96 146.08 358.38 -6.36 358.38"/>
      </g>
      <g>
        <line class="cls-2" x1="-55.78" y1="364.49" x2="30.71" y2="364.49"/>
        <line class="cls-2" x1="38.92" y1="364.49" x2="43" y2="364.49"/>
        <line class="cls-2" x1="194.03" y1="364.49" x2="198.11" y2="364.49"/>
        <line class="cls-2" x1="202.23" y1="364.49" x2="215.96" y2="364.49"/>
        <line class="cls-2" x1="48.51" y1="364.49" x2="124.77" y2="364.49"/>
        <line class="cls-2" x1="129.66" y1="364.49" x2="190.11" y2="364.49"/>
        <path class="cls-2" d="M-43.9,357.11s31.94.33,42.52,0c3.64-.11,10.82-1.41,14.42-3.41,4.34-2.41,9.38-.07,9.38,4.63"/>
        <path class="cls-2" d="M13.03,353.7s-3.29-14.2,13.18-14.2c0,0,12.45-1.37,12.45,12.9,0,0,.27-4.83,5.27-4.83s5.81,3.47,5.81,7"/>
        <path class="cls-2" d="M31.2,339.47c0-11.11,10.26-20.12,22.92-20.12s22.92,9.01,22.92,20.12v2.59"/>
        <path class="cls-2" d="M67.78,355.07c.81-3.35,3.45-5.8,6.58-5.8,3.78,0,6.84,3.57,6.84,7.98v1.03"/>
        <path class="cls-2" d="M61.81,358.3c0-2.06,1.88-3.72,4.2-3.72s4.2,1.67,4.2,3.72"/>
        <path class="cls-2" d="M76.78,336.36c2.39-2.39,5.89-3.9,9.8-3.9,7.19,0,13.02,5.12,13.02,11.43v3.9"/>
        <path class="cls-2" d="M81.19,356.44s21.25,2.34,29.17-1.85v-2.92c0-4.72-4.36-8.55-9.74-8.55-.37,0-.73.02-1.08.05"/>
        <path class="cls-2" d="M110.37,354.59s5.37-6.8,13.32-6.8,11.41,7.1,11.41,7.1c0,0,1.11-3.55,5.74-3.55s6.98,5.75,6.98,5.75h12.58"/>
        <line class="cls-2" x1="163.17" y1="357.09" x2="167.46" y2="357.09"/>
        <circle class="cls-2" cx="177.59" cy="355.74" r="2.51"/>
        <circle class="cls-2" cx="115.8" cy="340.13" r="2.51"/>
        <circle class="cls-2" cx="19.9" cy="327.6" r="2.51"/>
        <path class="cls-2" d="M55,325.08s3.28-.23,4.68.43"/>
        <path class="cls-2" d="M63.21,327.15s6.97,3.7,7.47,10.46"/>
      </g>
    </g>
  </g>
  <g>
    <g>
      <path class="cls-3" d="M104.12,166.77s-12.97,25.24-3.03,31.59c0,0,6.76-20.14,10.21-21.65,0,0,5.38,6.21,7.72,8.69s.97,8.55,4.14,14.9c3.17,6.34,14.99,89.19,13.13,96.26,0,0-4.58-5.25-11.09-17.74,0,0,2.87-33.44-1.64-38.28l-1.13,2.09s-6.6-16.91-8.54-18.52l-.97,2.58s-9.5-18.52-19.97-20.13l-.36,2.36s-5.92-9.64-25.55-10.79l1.15,1.95s-11.01-3.09-36.34-3.54c0,0,3.67,11.94,10.48,18.3l-3.36.44s3.71,11.85,9.02,15.29l-3.01.44s6.03,7.69,6.98,10.32,2.51,5.26,3.94,6.21l-1.31,3.94s11.83,11.59,17.57,13.26l-1.43,2.15s3.58,1.67,6.09,1.55l-2.99,1.43s10.99,6.69,23.66,7.89,19.48,2.15,20.91,4.3c1.43,2.15,15.65,22.23,15.3,34.18-.25,8.2.07,18.82.29,24.67.09,2.44,2.09,4.36,4.53,4.36h0c2,0,3.77-1.31,4.34-3.23,2.4-8.01,9.18-28.34,17.12-31.3,9.92-3.7,19.84,1.08,30.83-3.94,10.99-5.02,16.13-10.4,16.13-10.4l-2.39-.6s11.35-5.26,17.45-14.22l-2.39-1.19s9.2-10.04,9.8-12.79l-2.51-1.79s13.98-20.08,16.49-20.79c0,0-2.03-1.55-10.52-.72l1.55-1.79s-8.01-.6-13.86.72l1.31-1.43s-11.11-.12-17.33,1.67l.84-1.67s-15.77-1.19-26.29,8.48l-.36-2.39s-29.63,15.65-24.38,59.03c0,0-7.35,6.99-12.4,21.14,0,0-3.2-20.32,1.61-38.01s11.33-41.13,17.85-50.29c6.52-9.16,18.16-27.63,18.16-27.63,0,0,2.95,20.49,2.02,27.63,0,0,16.76-5.9,13.81-23.28-2.95-17.38-11.49-24.84-11.49-24.84l-19.4,6.05s-11.64-1.09-18.32,15.21c0,0,22.2-3.57,27.01-2.33,0,0-28.87,35.08-31.04,60.69,0,0-6.36-41.44-6.21-44.86s-4.66-26.08-7.14-31.2c-2.48-5.12-1.4-16.3-2.79-19.71-1.4-3.41-2.48-5.9-2.48-5.9,0,0,16.97,7.87,20.27,8.9,0,0,1.32-10.59-16-17.97-17.31-7.38-23.71,6.24-23.71,6.24Z"/>
      <path class="cls-7" d="M237.85,210.66s15.84-4.68,16.51-15.2,4.68-10.35,2-16.2c-2.67-5.85-10.12-6.01-10.12-6.01l-14.09,21.21-9.19,13.97,14.89,2.23Z"/>
      <path class="cls-7" d="M228.18,146.36s8.32-3.48,10.99-.9,9.69,5.08,10.86,10.26-.31,14.17-1,17.7c-.92,4.72-6.71,12.12-6.71,12.12l-5.99,2.24-4.51-23.88-3.64-17.54Z"/>
      <path class="cls-7" d="M200.25,130.48s19.37-4.19,25.72,0c6.35,4.19,4.18,21.56,3.34,23.23s-19.21-1.5-19.21-1.5l-13.03-12.07,3.17-9.66Z"/>
      <path class="cls-7" d="M200.83,146.7s9.44-8.35,18.3-2.67c0,0,3.84,3.84,6.35,4.68s9.02,1.5,10.86,8.68c1.84,7.18,2.67,20.54-1.34,22.55s-23.21,0-23.21,0l-12.53-21.38,1.58-11.86Z"/>
      <path class="cls-7" d="M206.66,162.81s2.96-6.73,8.26-6.73,9.23,1.64,11.65,5.36c2.42,3.72,4.54,10.16,2.88,14.77-1.67,4.61-13.17,1.93-13.17,1.93l-9.62-15.33Z"/>
      <path class="cls-7" d="M221.13,177.26s8.52-3.17,11.52-3.17,4.51-4.34,7.68,0c3.17,4.34,3.67,9.19,0,16.37-3.67,7.18-3.94,10.35-8.32,11.86s-13.9,1-13.9,1l-4.68-10.89,7.68-15.17Z"/>
      <path class="cls-7" d="M178.37,129.66s11.36-9.19,18.54-7.35c4.3,1.1,6.08,4.36,6.82,6.8.47,1.55.43,3.2-.09,4.74-1.14,3.37-3.51,10.22-3.89,10.34-.5.17-21.38,3.84-21.38,3.84l-5.18-3.67,5.18-14.7Z"/>
      <path class="cls-7" d="M178.77,201.22c-6.25.57-29.21-10.72-27.07-34.01,2.3-25.03,5.33-23.72,8.23-23.43s7.14,13.99,7.14,13.99c0,0,15.42,37.7,11.7,43.45Z"/>
      <path class="cls-7" d="M102.44,109.71s-14.87-9.91-9.64-15.01c5.23-5.1,9.36-8.95,17.35-7.57,7.99,1.38,11.7,6.43,11.15,14.44-.55,8.01-18.87,8.15-18.87,8.15Z"/>
      <path class="cls-7" d="M77.03,109.2s-5.43-12.41,6.53-13.23,15.54,5.11,15.54,5.11l7.88,9.73-16.67,3.12-13.29-4.74Z"/>
      <path class="cls-7" d="M66.92,132.02s-9.36-2.89-4.13-18.31c0,0-1.59-5.92,1.27-7.99,2.86-2.07,4.38-4.41,7.13-4.13s8.65,4.13,10.8,8.4c2.15,4.27-.61,13.22-.61,13.22l-14.46,8.81Z"/>
      <path class="cls-7" d="M76.96,121.14s-2.6-13.91,9.1-13.77c11.7.14,12.26,2.2,15.56,7.85,3.3,5.65-4.41,11.43-4.41,11.43l-16.66.83-3.59-6.33Z"/>
      <path class="cls-7" d="M52.74,136.98s-2.89-17.76,2.2-20.1c1.28-.59,2.56-.84,3.77-.88,3.53-.13,6.76,2,8.3,5.18l4.18,8.65-5.78,8.68-11.15,2.34-1.51-3.86Z"/>
      <path class="cls-7" d="M51.77,158.73s-13.91-14.46-12.26-20.1,5.37-7.75,7.44-8.15,14.46,7.87,15.56,10.49,3.58,19.55,3.58,19.55l-14.32-1.79Z"/>
      <path class="cls-7" d="M118.93,101.56s-3.81-19.84,8.9-15.3c0,0,4.35,2.44,5.74,5.06,0,0,10.64.17,13.43,11.86,2.79,11.68-4.01,13.62-4.01,13.62l-17.26-2.95-6.8-12.28Z"/>
      <path class="cls-7" d="M104.91,123.73s-6.38-6.93-5.47-10.75c.91-3.83,3.46-5.65,3.46-5.65,0,0-1.28-5.47,2.73-6.74,0,0,1.65-.71,3.2-.63,0,0-.41-3.33,8.28-2.84,8.69.49,9.5,3.65,9.5,3.65,0,0,4.47-2.27,7.79,6.09,3.33,8.36,1.22,17.7,1.22,17.7l-5.2,15.59-9.58-.49-15.94-15.92Z"/>
      <path class="cls-7" d="M62.93,160.94s-5.92-10.05-3.58-18.45c0,0-.96-9.23,5.78-11.43,0,0,1.01-10.55,8.49-11.95,7.48-1.41,9.13,1.76,9.13,1.76,0,0,8.54,0,11.57,7.71,3.03,7.71-3.58,32.36-3.58,32.36l-16.52,4.82-11.29-4.82Z"/>
      <line class="cls-8" x1="141.98" y1="328.06" x2="141.98" y2="338.06"/>
      <path class="cls-7" d="M184.05,149.04s-3.84-8.27,1-8.9c4.84-.62,8.52.05,9.85-1.46,1.34-1.5,2.58-2.93,5.01-2s7.35,3.53,6.68,8.78c-.67,5.25-3.17,17.35-3.17,17.35l-17.87-.74-1.5-13.03Z"/>
      <path class="cls-7" d="M182.61,162.81s11.47-10.1,17.81-7.26c6.35,2.84,10.02,1.84,10.02,11.02,0,0,14.86,5.73,13.86,14.89-1,9.16-1.67,16.01-14.2,16.01s-26.05,3.51-26.05,3.51c0,0-5.81,1.67-6.66-3.67s5.22-34.5,5.22-34.5Z"/>
      <path class="cls-7" d="M125.32,145.46s4.56-12.25,5.1-15.17c.55-2.92.18-8.52,4.74-11.18,0,0-.36-11.96,10.21-9.59,0,0-1.82-11.48,1.46-11.66,3.28-.18,12.03,5.83,10.21,28.07,0,0-.36,16.04-14.21,27.15-13.85,11.12-20.78,10.02-20.78,10.02l3.28-17.63Z"/>
      <path class="cls-7" d="M106.99,169.48s-8.26,6.06-13.36,7.57c-5.1,1.51-3.58,4.54-13.5,4.41-9.91-.14-18.31-1.24-27.82-8.26-9.5-7.02-14.18-11.15-11.15-14.32s7.02-2.62,11.43-1.93c4.41.69,7.02,1.79,13.91,1.1,6.89-.69,13.22-.55,22.45,5.78,9.23,6.33,18.04,5.65,18.04,5.65Z"/>
      <path class="cls-7" d="M115.24,170.57s-32.93,8.63-33.25-19.5c0,0,2.24-14.71,8.63-18.86,0,0,1.6-20.46,18.86-10.23,0,0,26.22-8.63,15.99,40.28,0,0-1.28,3.84-10.23,8.31Z"/>
      <path class="cls-7" d="M180.64,200.78s9.17-14.59,26.89-5.21c0,0,20.22.42,21.88,10,0,0,13.28-.93,16.26,1.54,3.56,2.94-16.47,22.63-37.73,15.97-21.26-6.67-27.3-22.3-27.3-22.3Z"/>
      <path class="cls-7" d="M187.11,181.46s8.96-10.15,4.17-18.34c0,0,.21-19.79-9.17-20.87,0,0-4.49.17-6.42,1.63,0,0,3.8-14.82,6.28-16.79,0,0-5.02-4.41-13.62,10.95-9.88,17.65-5.43,33.77-5.43,33.77,0,0,10.67,29.93,15.85,29.41,8.3-.84,5.24-13.59,8.34-19.76Z"/>
    </g>
    <path d="M158.2,307.15c2.28-4.87,5.79-8.98,9.55-12.77s7.84-7.51,11.96-11.04c8.33-7.14,17.18-13.68,26.46-19.53,5.18-3.27,10.49-6.32,15.91-9.15.17-.09.02-.35-.15-.26-9.77,5.11-19.16,10.92-28.08,17.4-8.86,6.43-17.27,13.5-25.08,21.16-4.23,4.15-8.28,8.63-10.81,14.05-.08.17.18.33.26.15h0Z"/>
    <path d="M165.16,303.37c4.02-2.42,8.86-2.2,13.39-2.35,4.74-.16,9.43-.98,13.93-2.53,2.53-.87,4.97-1.96,7.32-3.25.17-.09.02-.35-.15-.26-4.33,2.38-9.01,4.06-13.87,4.97-2.39.45-4.8.69-7.23.77-2.27.08-4.54.07-6.8.32s-4.69.84-6.74,2.08c-.17.1-.01.36.15.26h0Z"/>
    <path d="M175.07,289.31c10.31-1.08,20.44-3.76,29.93-7.94,2.74-1.21,5.43-2.54,8.05-3.99.17-.09.02-.35-.15-.26-9.04,4.99-18.84,8.57-28.98,10.57-2.93.58-5.88,1.02-8.85,1.33-.19.02-.19.32,0,.3h0Z"/>
    <path d="M198.37,271.81c4.63-1.33,9.3-2.58,13.89-4.04,3.84-1.22,7.65-2.8,10.58-5.65.14-.13-.07-.35-.21-.21-2.99,2.91-6.91,4.47-10.83,5.69-4.48,1.39-9.01,2.62-13.51,3.92-.19.05-.11.34.08.29h0Z"/>
    <path d="M180.16,278.18c1.18-5.31,3.89-10.25,7.72-14.12,1.1-1.11,2.29-2.14,3.56-3.06.15-.11,0-.37-.15-.26-4.47,3.23-7.96,7.73-10.02,12.84-.59,1.47-1.06,2.98-1.4,4.52-.04.19.25.27.29.08h0Z"/>
    <path d="M160.57,296.38c1.59-9.72,5.3-19.06,10.8-27.23,1.59-2.37,3.34-4.63,5.21-6.78.13-.14-.08-.36-.21-.21-6.53,7.47-11.4,16.35-14.2,25.87-.8,2.72-1.43,5.48-1.88,8.27-.03.19.26.27.29.08h0Z"/>
    <path d="M194.87,266.43c3.42-5.34,7.67-10.12,12.57-14.14,1.41-1.16,2.88-2.24,4.39-3.27.16-.11,0-.37-.15-.26-5.33,3.61-10.07,8.06-14.01,13.15-1.09,1.41-2.11,2.86-3.07,4.36-.1.16.16.31.26.15h0Z"/>
    <path d="M171.38,284.12c1.01-4.91,3.04-9.6,5.96-13.68.84-1.17,1.75-2.29,2.72-3.35.13-.14-.08-.35-.21-.21-3.41,3.73-6.02,8.17-7.62,12.96-.46,1.38-.83,2.78-1.13,4.21-.04.19.25.27.29.08h0Z"/>
    <path d="M183.25,262.35c2.48-3.89,5.75-7.26,9.56-9.87,1.07-.73,2.19-1.4,3.34-2.01.17-.09.02-.35-.15-.26-4.11,2.17-7.77,5.18-10.7,8.79-.83,1.02-1.59,2.09-2.3,3.19-.1.16.16.31.26.15h0Z"/>
    <path d="M39.33,204.35c.19,0,.19-.3,0-.3s-.19.3,0,.3h0Z"/>
    <path d="M40.87,205.11c7.29,1.6,13.95,5.14,20.24,9.05,5.76,3.59,11.3,7.55,16.55,11.85,10.42,8.51,19.78,18.33,27.78,29.15,4.49,6.07,8.55,12.46,12.14,19.11.09.17.35.02.26-.15-6.44-11.93-14.4-23.02-23.62-32.96s-19.67-18.73-31.07-26.06c-6.87-4.42-14.16-8.51-22.2-10.28-.19-.04-.27.25-.08.29h0Z"/>
    <path d="M115.14,261.52c-1.35-9.28-3.97-18.35-7.78-26.91-.08-.18-.34-.02-.26.15,3.8,8.54,6.41,17.59,7.75,26.84.03.19.32.11.29-.08h0Z"/>
    <path d="M99.44,241.03c-3.57-9.37-7.26-18.96-13.44-26.97-1.73-2.24-3.64-4.32-5.76-6.19-.14-.13-.36.08-.21.21,7.57,6.71,12.24,15.89,16.03,25.11,1.08,2.62,2.09,5.26,3.1,7.91.07.18.36.1.29-.08h0Z"/>
    <path d="M78.68,224.12c-3.56-6.24-8.32-11.77-13.95-16.23-1.57-1.25-3.21-2.41-4.91-3.48-.16-.1-.31.16-.15.26,6.04,3.82,11.33,8.79,15.52,14.58,1.17,1.62,2.25,3.3,3.23,5.03.1.17.36.02.26-.15h0Z"/>
    <path d="M49.04,223.95c7.67,2.82,14.85,7.26,23.04,8.47,2.2.33,4.42.4,6.63.14.19-.02.19-.32,0-.3-8.27.97-15.99-2.74-23.33-6.01-2.07-.92-4.14-1.81-6.27-2.59-.18-.07-.26.22-.08.29h0Z"/>
    <path d="M66.17,244.6c7.81,3.28,16.19,5.17,24.66,5.53,2.41.1,4.82.08,7.23-.05.19-.01.19-.31,0-.3-8.47.49-17.01-.54-25.13-3.04-2.27-.7-4.5-1.51-6.69-2.43-.18-.07-.26.22-.08.29h0Z"/>
    <path d="M76.99,262.65c7.98,3.81,16.82,5.13,25.55,5.83,2.53.2,5.07.35,7.6.5.19.01.19-.29,0-.3-8.73-.51-17.59-1.04-26.01-3.59-2.39-.72-4.74-1.62-6.99-2.7-.17-.08-.33.18-.15.26h0Z"/>
    <path d="M186.8,203.09c3.06.8,6.22,1.2,9.37,1.41,3.44.24,6.9.25,10.33,0,1.71-.12,3.42-.31,5.11-.6.19-.03.11-.32-.08-.29-6.42,1.1-13.21,1.03-19.65.14-1.68-.23-3.36-.54-5-.97-.19-.05-.27.24-.08.29h0Z"/>
    <path d="M188.49,207.89c3.89.95,7.9,1.41,11.88,1.69,4.46.32,8.95.38,13.41,0,2.1-.17,4.21-.45,6.26-.94.19-.05.11-.33-.08-.29-3.87.94-7.93,1.15-11.9,1.18-4.39.03-8.79-.22-13.14-.79-2.13-.28-4.26-.63-6.35-1.14-.19-.05-.27.24-.08.29h0Z"/>
    <path d="M195.01,213.08c9.62,1.77,19.36,4.42,29.16,2.18,3.03-.69,5.93-1.83,8.64-3.35.17-.09.02-.35-.15-.26-4.72,2.64-9.96,4-15.35,4.17-4.9.15-9.76-.59-14.55-1.52-2.56-.5-5.11-1.04-7.67-1.52-.19-.03-.27.25-.08.29h0Z"/>
    <path d="M88.64,155.66c1.43,1.29,2.76,2.69,4.14,4.03,1.68,1.63,3.45,3.15,5.33,4.53,1.39,1.02,2.84,1.95,4.32,2.83.17.1.32-.16.15-.26-2.44-1.45-4.78-3.06-6.94-4.9-1.57-1.34-3.03-2.79-4.49-4.24-.75-.75-1.51-1.5-2.3-2.21-.14-.13-.36.08-.21.21h0Z"/>
    <path d="M93.34,140.14c-.05,3.79.89,7.63,2.39,11.1.79,1.83,1.83,3.46,2.91,5.12,1.16,1.77,2.29,3.56,3.5,5.3,1.33,1.91,2.75,3.75,4.41,5.38.14.14.35-.08.21-.21-2.96-2.9-5.15-6.45-7.4-9.9-1.01-1.56-2.07-3.07-2.88-4.74-.87-1.79-1.54-3.67-2.03-5.59-.53-2.1-.85-4.27-.82-6.44,0-.19-.3-.19-.3,0h0Z"/>
    <path d="M102.3,148.01c1.43,4.26,3.11,8.47,5.25,12.43.6,1.11,1.24,2.19,1.93,3.24.11.16.37.01.26-.15-3.15-4.78-5.32-10.2-7.14-15.6-.06-.18-.35-.1-.29.08h0Z"/>
    <path d="M102.38,130.63c.99,1.68,1.72,3.51,2.41,5.33.89,2.33,1.67,4.7,2.43,7.07,1.43,4.48,2.71,9.01,4.1,13.51,1.01,3.26,2.13,6.47,2.24,9.92,0,.19.31.19.3,0-.1-3.2-1.06-6.21-2.01-9.23-.63-2.01-1.23-4.03-1.83-6.05-1.46-4.92-2.92-9.85-4.7-14.66-.76-2.06-1.56-4.15-2.68-6.04-.1-.17-.36-.02-.26.15h0Z"/>
    <path d="M113.57,135.09c1.28,3.46,2.37,7,3.28,10.58,1.01,3.93,1.84,7.93,2.17,11.97.16,1.93.21,3.88-.03,5.81-.02.19.28.19.3,0,.44-3.59-.02-7.29-.63-10.83-.7-4.04-1.71-8.02-2.9-11.94-.58-1.91-1.21-3.8-1.9-5.67-.07-.18-.36-.1-.29.08h0Z"/>
    <path d="M121.63,137.8c.41,3.81.94,7.61,1.22,11.44s.23,7.63-.25,11.42c-.02.19.28.19.3,0,.48-3.8.53-7.61.25-11.42s-.81-7.63-1.22-11.44c-.02-.19-.32-.19-.3,0h0Z"/>
    <path d="M134.98,136.9c.02,2.58-.46,5.16-1.02,7.67-.62,2.8-1.42,5.56-2.33,8.28-.44,1.3-.9,2.59-1.42,3.87-.07.18.22.26.29.08.98-2.43,1.8-4.92,2.53-7.43.8-2.77,1.49-5.58,1.92-8.43.2-1.34.34-2.69.33-4.04,0-.19-.3-.19-.3,0h0Z"/>
    <path d="M140.38,127.52c.38,1.39.27,2.92.14,4.33-.19,2.06-.57,4.11-1.02,6.13-.94,4.22-2.17,8.42-3.8,12.43-.63,1.54-1.3,3.19-2.33,4.52-.12.15.09.36.21.21.9-1.15,1.51-2.53,2.08-3.86.81-1.89,1.5-3.83,2.12-5.78,1.35-4.23,2.48-8.61,2.98-13.03.18-1.63.35-3.42-.09-5.03-.05-.19-.34-.11-.29.08h0Z"/>
    <path d="M145.64,119.33c.65,4.58.72,9.19.18,13.78-.52,4.38-1.36,8.76-3.05,12.85-1.02,2.47-2.35,4.81-4,6.91-.12.15.09.36.21.21,2.89-3.67,4.75-8.02,5.85-12.54,1.03-4.2,1.6-8.6,1.66-12.92.04-2.8-.17-5.6-.56-8.38-.03-.19-.32-.11-.29.08h0Z"/>
    <path d="M150.39,111.41c.42,4.52.5,9.08.23,13.62s-.93,9.44-2.24,13.99c-.68,2.37-1.56,4.69-2.72,6.87-.09.17.17.32.26.15,2.12-3.96,3.32-8.36,4.08-12.76.81-4.7,1.12-9.48,1.09-14.24-.02-2.54-.14-5.09-.38-7.62-.02-.19-.32-.19-.3,0h0Z"/>
    <path d="M58.38,168.35c5.01,2.07,10.22,3.79,15.62,4.51,3.83.52,7.68.47,11.51.03,2.04-.23,4.07-.56,6.1-.87.19-.03.11-.32-.08-.29-3.6.56-7.2,1.12-10.84,1.2-4.35.1-8.67-.52-12.87-1.64-3.19-.85-6.3-1.98-9.35-3.24-.18-.07-.26.22-.08.29h0Z"/>
    <path d="M61.51,163.75c6.55,2.12,13.12,4.35,19.89,5.66,1.62.31,3.26.57,4.91.64.19,0,.19-.29,0-.3-3.22-.14-6.41-.91-9.52-1.7-3.5-.9-6.96-1.95-10.4-3.04-1.6-.51-3.2-1.03-4.8-1.55-.18-.06-.26.23-.08.29h0Z"/>
    <path d="M48.74,166.59c3.51,1.59,6.53,3.96,9.84,5.89,4.4,2.58,9.27,3.96,14.31,4.64s9.7.76,14.56.68c.19,0,.19-.3,0-.3-7.37.13-15.05-.06-22.14-2.33-3.94-1.26-7.34-3.38-10.76-5.63-1.81-1.19-3.67-2.32-5.65-3.21-.17-.08-.33.18-.15.26h0Z"/>
    <path d="M70.23,141.58c.27,2.55,1.83,4.63,3.36,6.59.81,1.04,1.63,2.08,2.33,3.21s1.27,2.19,2.01,3.22c.77,1.08,1.69,2.06,2.89,2.67.17.09.32-.17.15-.26-2.2-1.13-3.35-3.42-4.58-5.44s-3-3.93-4.33-6.01c-.77-1.21-1.37-2.53-1.52-3.97-.02-.19-.32-.19-.3,0h0Z"/>
    <path d="M75.24,137.84c.64,3.01,1.95,5.86,3.82,8.3.52.68,1.08,1.32,1.68,1.93.14.14.35-.07.21-.21-2.12-2.16-3.75-4.78-4.74-7.63-.28-.81-.51-1.64-.69-2.47-.04-.19-.33-.11-.29.08h0Z"/>
    <path d="M62.53,146.55c2.08,3.34,5.07,6.08,8.57,7.88.97.5,1.98.92,3.02,1.27.18.06.26-.23.08-.29-3.65-1.22-6.95-3.44-9.47-6.35-.72-.83-1.37-1.72-1.95-2.65-.1-.16-.36-.01-.26.15h0Z"/>
    <path d="M77.69,129.46c.85,2.69,2.14,5.24,3.8,7.52.11.15.37,0,.26-.15-1.65-2.26-2.92-4.78-3.77-7.45-.06-.18-.35-.11-.29.08h0Z"/>
    <path d="M45.73,137.84c.56,1.63,1.49,3.11,2.54,4.47s2.32,2.69,3.7,3.79c.65.52,1.34,1,2.07,1.4.17.09.32-.17.15-.26-1.36-.73-2.56-1.74-3.65-2.82-1.25-1.24-2.38-2.62-3.3-4.13-.49-.8-.91-1.65-1.22-2.54-.06-.18-.35-.1-.29.08h0Z"/>
    <path d="M45.77,145.6c2.16,2.45,4.88,4.42,7.83,5.81.71.34,1.44.64,2.18.9.18.06.26-.23.08-.29-2.86-1.01-5.55-2.6-7.83-4.6-.73-.63-1.41-1.31-2.05-2.04-.13-.14-.34.07-.21.21h0Z"/>
    <path d="M108.05,111.49c.79,1.08,1.4,2.31,2.01,3.5.74,1.45,1.45,2.93,2.08,4.44.25.61.5,1.22.69,1.85.05.18.34.11.29-.08-.38-1.29-.96-2.53-1.53-3.74-.7-1.5-1.43-2.99-2.24-4.43-.32-.57-.65-1.15-1.04-1.67-.11-.15-.37,0-.26.15h0Z"/>
    <path d="M113.58,106.26c1.35,2.04,2.39,4.3,3.44,6.5,1.29,2.72,2.53,5.47,3.65,8.27.45,1.11.89,2.23,1.23,3.38.06.18.35.11.29-.08-.71-2.35-1.72-4.63-2.7-6.88-1.2-2.76-2.47-5.49-3.85-8.16-.56-1.08-1.12-2.16-1.79-3.17-.11-.16-.37-.01-.26.15h0Z"/>
    <path d="M121.67,107.48c1.78,2.3,2.77,5.22,3.63,7.96.97,3.12,1.71,6.31,2.32,9.51.28,1.49.54,2.98.75,4.48.03.19.32.11.29-.08-.42-2.95-.98-5.89-1.66-8.8-.75-3.21-1.64-6.41-2.95-9.44-.58-1.35-1.26-2.68-2.16-3.85-.12-.15-.33.06-.21.21h0Z"/>
    <path d="M131.2,94.89c1.54,3.26,2.98,6.59,4.17,9.99.29.83.56,1.67.78,2.52.05.19.34.11.29-.08-.43-1.66-1.03-3.28-1.66-4.87-.69-1.77-1.43-3.52-2.2-5.26-.36-.82-.74-1.64-1.12-2.45-.08-.17-.34-.02-.26.15h0Z"/>
    <path d="M137.53,98.38c1.4,2.99,2.05,6.23,2.85,9.41.05.19.34.11.29-.08-.81-3.21-1.47-6.47-2.88-9.48-.08-.17-.34-.02-.26.15h0Z"/>
    <path d="M101.46,96.54c1.02,1.03,1.65,2.32,2.28,3.61.19.38.37.75.57,1.12.09.17.35.02.26-.15-.68-1.28-1.23-2.65-2.08-3.83-.25-.34-.52-.66-.82-.96-.14-.14-.35.07-.21.21h0Z"/>
    <path d="M122.91,90.75c.79.8,1.43,1.76,2.03,2.7.76,1.2,1.46,2.45,2.02,3.75.28.65.52,1.32.67,2.01.04.19.33.11.29-.08-.28-1.3-.87-2.55-1.49-3.72-.66-1.24-1.4-2.45-2.23-3.58-.33-.45-.68-.9-1.07-1.3-.14-.14-.35.07-.21.21h0Z"/>
    <path d="M102.9,92.12c.89.81,1.62,1.78,2.29,2.78.73,1.09,1.39,2.22,2,3.38.3.58.59,1.16.86,1.76.08.18.34.02.26-.15-1.04-2.3-2.31-4.56-3.89-6.55-.4-.51-.83-.99-1.31-1.43-.14-.13-.36.08-.21.21h0Z"/>
    <path d="M66.9,109.8c.12,2.97,1.08,5.89,2.75,8.35.11.16.37,0,.26-.15-1.64-2.42-2.59-5.28-2.71-8.2,0-.19-.31-.19-.3,0h0Z"/>
    <path d="M69.8,106.74c.58,2.22.85,4.54,1.84,6.63.29.61.64,1.18,1.04,1.72.11.15.38,0,.26-.15-.69-.92-1.2-1.94-1.57-3.03s-.59-2.18-.83-3.28c-.14-.66-.29-1.31-.46-1.96-.05-.19-.34-.11-.29.08h0Z"/>
    <path d="M90.11,102.58c.21.8.38,1.61.52,2.42.09.51.2,1.02.38,1.51.16.42.35.84.55,1.24.08.17.34.02.26-.15-.29-.61-.58-1.22-.74-1.88-.13-.53-.2-1.08-.3-1.62s-.23-1.07-.37-1.6c-.05-.19-.34-.11-.29.08h0Z"/>
    <path d="M84.15,101.23c.24.91.42,1.83.61,2.75.14.7.3,1.38.55,2.05.18.48.4.95.63,1.42.09.17.35.02.26-.15-.37-.74-.69-1.49-.9-2.29-.19-.71-.31-1.43-.45-2.15-.12-.57-.25-1.14-.4-1.7-.05-.19-.34-.11-.29.08h0Z"/>
    <path d="M85.58,114.28c.39,1.78,1.12,3.49,2.14,5.01.29.43.59.83.92,1.23.12.15.33-.06.21-.21-1.14-1.37-2.02-2.95-2.58-4.64-.16-.48-.3-.97-.4-1.47-.04-.19-.33-.11-.29.08h0Z"/>
    <path d="M90.14,111.49c1.47,2.32,2.25,5.05,2.22,7.8,0,.19.3.19.3,0,.03-2.8-.76-5.59-2.26-7.95-.1-.16-.36-.01-.26.15h0Z"/>
    <path d="M54.92,124.74c.36,2.09,1.26,4.08,2.56,5.76.37.48.78.92,1.21,1.34.14.13.35-.08.21-.21-1.5-1.44-2.63-3.26-3.27-5.24-.18-.56-.32-1.14-.42-1.73-.03-.19-.32-.11-.29.08h0Z"/>
    <path d="M57.74,120.84c.97,1.57,2.21,3,2.91,4.72.19.46.33.95.4,1.44.03.19.32.11.29-.08-.26-1.85-1.46-3.45-2.49-4.95-.29-.42-.58-.85-.85-1.28-.1-.16-.36-.01-.26.15h0Z"/>
    <path d="M188.17,192.27c1.75-1.32,3.83-2.22,5.85-3.01,2.35-.92,4.79-1.68,7.27-2.17,1.18-.24,2.39-.41,3.6-.42.19,0,.19-.3,0-.3-2.29,0-4.59.56-6.78,1.19-2.45.7-4.87,1.59-7.17,2.72-1.02.5-2.02,1.05-2.93,1.73-.15.11,0,.38.15.26h0Z"/>
    <path d="M188.13,189.13c1.78-2.49,4.08-4.65,6.28-6.75,2.58-2.46,5.25-4.83,7.97-7.14,1.19-1.01,2.38-2.01,3.6-2.97.15-.12-.06-.33-.21-.21-2.43,1.93-4.79,3.96-7.11,6.02-2.69,2.39-5.34,4.83-7.82,7.43-1.05,1.1-2.09,2.23-2.97,3.47-.11.16.15.31.26.15h0Z"/>
    <path d="M200.15,183.87c2.2-1.02,4.22-2.39,6.1-3.93,1.56-1.28,3.04-2.68,4.34-4.21.44-.52.89-1.07,1.23-1.66.1-.17-.16-.32-.26-.15-.71,1.25-1.78,2.34-2.79,3.35-1.59,1.59-3.33,3.05-5.19,4.32-1.14.77-2.32,1.46-3.57,2.04-.17.08-.02.34.15.26h0Z"/>
    <path d="M192.24,172.57c1.51-.94,3.06-1.83,4.72-2.48,1.29-.51,2.63-.87,3.95-1.3,1.07-.35,2.14-.73,3.19-1.15.18-.07.1-.36-.08-.29-1.67.65-3.36,1.2-5.06,1.74-1.33.42-2.64.9-3.89,1.52-1.02.51-2.01,1.1-2.98,1.7-.16.1-.01.36.15.26h0Z"/>
    <path d="M172.46,150.76c-3.73,10.86-3.59,22.94.25,33.75,1.07,3.02,2.43,5.93,4.06,8.68.1.17.36.02.26-.15-5.81-9.83-8.09-21.62-6.51-32.92.44-3.16,1.19-6.27,2.22-9.28.06-.18-.23-.26-.29-.08h0Z"/>
    <path d="M178.09,160.06c-2.3,8.04-1.67,16.49-1.01,24.72.02.19.32.19.3,0-.65-8.2-1.29-16.62,1-24.64.05-.19-.24-.27-.29-.08h0Z"/>
    <path d="M159.3,158.87c-.99,8.31.99,16.55,2.95,24.56.05.19.34.11.29-.08-1.95-7.99-3.92-16.2-2.93-24.48.02-.19-.28-.19-.3,0h0Z"/>
    <path d="M156.47,170.46c.23,7.54,3.78,14.31,7.29,20.8.09.17.35.02.26-.15-3.49-6.44-7.03-13.16-7.25-20.65,0-.19-.31-.19-.3,0h0Z"/>
    <path d="M181.87,152.76c1.55,8.36,2.26,16.87,2.11,25.37,0,.19.3.19.3,0,.15-8.53-.56-17.06-2.12-25.45-.04-.19-.32-.11-.29.08h0Z"/>
    <path d="M169.27,142.99c-2.45,4-2.63,8.87-3.12,13.41s-.89,8.97-.41,13.47c.3,2.83.94,5.6,1.84,8.3.06.18.35.1.29-.08-1.53-4.58-2.18-9.32-2.03-14.14.07-2.14.26-4.26.49-6.39.24-2.28.45-4.57.77-6.84.38-2.65,1.03-5.28,2.44-7.59.1-.17-.16-.32-.26-.15h0Z"/>
    <path d="M186.71,129.85c-.52,1.12-.8,2.34-.99,3.55-.21,1.33-.29,2.7-.2,4.05.04.66.13,1.32.3,1.95.05.19.34.11.29-.08-.31-1.16-.35-2.39-.31-3.58.05-1.31.22-2.62.55-3.9.16-.63.36-1.25.63-1.84.08-.17-.18-.33-.26-.15h0Z"/>
    <path d="M192.03,126.86c1.16,2.7,1.44,5.75.8,8.62-.04.19.25.27.29.08.65-2.96.35-6.07-.83-8.85-.08-.18-.33-.02-.26.15h0Z"/>
    <path d="M215.75,134.87c-1.44.43-2.91.88-4.1,1.83-1.04.83-1.8,1.95-2.68,2.94-.5.57-1.05,1.09-1.69,1.49-.16.1-.01.36.15.26,1.12-.69,1.93-1.73,2.76-2.74.42-.51.85-1.01,1.34-1.45.55-.5,1.17-.88,1.84-1.19.79-.36,1.64-.61,2.47-.86.18-.05.11-.34-.08-.29h0Z"/>
    <path d="M222.88,134.96c-.41,2.21-2.61,3.35-4.37,4.39-.56.33-1.11.68-1.63,1.09-.15.12.06.33.21.21,1.76-1.39,4.06-2.11,5.39-4.02.33-.48.58-1.02.69-1.6.04-.19-.25-.27-.29-.08h0Z"/>
    <path d="M240.14,153.17c-.3.98-.61,1.96-1,2.91-.36.86-.79,1.68-1.3,2.46-.33.51-.69,1-1.06,1.49-.12.15.14.3.26.15.63-.82,1.21-1.67,1.7-2.57.45-.83.8-1.7,1.11-2.59.2-.58.39-1.17.57-1.76.06-.19-.23-.26-.29-.08h0Z"/>
    <path d="M243.84,157.27c-.91,4.7-2.78,9.17-5.48,13.12-.11.16.15.31.26.15,2.71-3.97,4.59-8.47,5.51-13.19.04-.19-.25-.27-.29-.08h0Z"/>
    <path d="M236.05,199.34c3.31-.55,6.57-1.2,9.58-2.75.92-.47,1.81-1.01,2.68-1.58.16-.11.01-.37-.15-.26-1.45.95-2.98,1.81-4.6,2.45-1.47.58-3.01.98-4.56,1.3-1.01.21-2.02.38-3.03.55-.19.03-.11.32.08.29h0Z"/>
    <path d="M240.37,190.6c1.47-.52,2.93-1.08,4.32-1.8,1.22-.63,2.35-1.4,3.45-2.21.77-.57,1.52-1.16,2.27-1.75.15-.12-.06-.33-.21-.21-1.23.96-2.45,1.94-3.75,2.8-1.11.73-2.27,1.35-3.49,1.87-.87.37-1.76.7-2.66,1.02-.18.06-.1.35.08.29h0Z"/>
    <path d="M223.4,188.4c1.05-.72,2.08-1.48,2.98-2.38.74-.74,1.37-1.58,2-2.42.48-.64.95-1.28,1.44-1.92.12-.15-.14-.3-.26-.15-.76,1-1.49,2.03-2.27,3.01-.64.81-1.36,1.54-2.15,2.2-.6.5-1.24.95-1.88,1.39-.16.11,0,.37.15.26h0Z"/>
    <path d="M222.64,195.44c3.75-1.92,6.8-4.9,9.57-8.02.8-.9,1.59-1.82,2.38-2.74.12-.15-.09-.36-.21-.21-2.71,3.18-5.47,6.4-8.88,8.86-.96.69-1.96,1.31-3.01,1.85-.17.09-.02.35.15.26h0Z"/>
    <path d="M229.07,196.08c2.32-1.66,4.39-3.67,6.13-5.94.5-.65.96-1.32,1.4-2.01.1-.16-.16-.31-.26-.15-1.51,2.38-3.38,4.53-5.52,6.35-.61.52-1.24,1.02-1.9,1.48-.16.11,0,.37.15.26h0Z"/>
    <path d="M216.4,162.17c.33,1.2.54,2.43.46,3.68s-.43,2.45-.87,3.61c-.07.18.22.26.29.08.46-1.19.81-2.42.88-3.69s-.14-2.53-.47-3.76c-.05-.19-.34-.11-.29.08h0Z"/>
    <path d="M222.36,162.32c.53,3.37,1.07,7.07-.46,10.27-.08.17.18.33.26.15,1.57-3.28,1.04-7.04.5-10.5-.03-.19-.32-.11-.29.08h0Z"/>
    <path d="M207.25,155.88c3.62-4.93,10.07-5.96,15.7-6.77.19-.03.11-.32-.08-.29-4.65.67-9.55,1.42-13.38,4.36-.95.73-1.79,1.58-2.5,2.55-.11.16.15.31.26.15h0Z"/>
    <path d="M205.95,149.92c.72-.52,1.48-1.09,2.33-1.4.62-.23,1.29-.28,1.94-.37.61-.08,1.21-.18,1.81-.3.19-.04.11-.33-.08-.29-.92.18-1.85.28-2.78.43-.66.1-1.27.32-1.85.65-.53.3-1.03.66-1.53,1.02-.16.11,0,.37.15.26h0Z"/>
    <path d="M195.22,142.21c-1.06.88-2.14,1.76-3.09,2.77-.82.88-1.49,1.86-1.99,2.95-.34.74-.61,1.52-.84,2.31-.05.19.24.27.29.08.37-1.28.85-2.53,1.59-3.65.66-1,1.5-1.86,2.39-2.66.61-.55,1.24-1.07,1.86-1.59.15-.12-.06-.33-.21-.21h0Z"/>
    <path d="M200.67,143.19c-1.41,1.33-2.9,2.6-4.15,4.09-1.13,1.35-2.16,2.82-3.01,4.36-.39.71-.85,1.55-.85,2.38,0,.19.3.19.3,0,0-.73.41-1.47.74-2.1.4-.75.86-1.47,1.34-2.17,1-1.46,2.1-2.83,3.38-4.06.81-.78,1.64-1.52,2.46-2.29.14-.13-.07-.34-.21-.21h0Z"/>
    <path d="M192.04,164.82c1.06-.44,2.07-.97,3.07-1.52.84-.46,1.71-.83,2.64-1.07.84-.22,1.7-.36,2.56-.49.19-.03.11-.32-.08-.29-1.31.19-2.64.42-3.87.91-.84.34-1.62.81-2.42,1.23-.65.34-1.31.65-1.98.93-.18.07-.1.36.08.29h0Z"/>
    <path d="M204.97,191.82c4.23-2.72,8.57-5.52,11.84-9.41.91-1.08,1.72-2.24,2.41-3.47.09-.17-.16-.32-.26-.15-2.47,4.41-6.46,7.64-10.58,10.43-1.18.8-2.37,1.57-3.56,2.34-.16.1-.01.36.15.26h0Z"/>
  </g>
  <g class="cls-12">
    <g>
      <rect class="cls-13" x="273.36" y="339.73" width="273.51" height="17.97" rx="8.99" ry="8.99"/>
      <line class="cls-2" x1="274.36" y1="349.28" x2="326.97" y2="349.28"/>
    </g>
  </g>
</svg>