<?xml version="1.0" encoding="UTF-8"?>
<svg id="Layer_1" data-name="Layer 1" xmlns="http://www.w3.org/2000/svg" viewBox="0 0 289.13 430.87">
  <defs>
    <style>
      .cls-1 {
        fill: none;
      }

      .cls-2 {
        font-family: SUIT-Regular-KSCpc-EUC-H, SUIT;
        font-size: 14px;
      }

      .cls-3 {
        fill: #f4ded7;
      }

      .cls-4 {
        fill: #f9f1ac;
      }

      .cls-5 {
        font-family: 'IM_FELL_Double_Pica_SC', 'IM FELL Double Pica SC';
        font-size: 24px;
      }

      .cls-6 {
        fill: #c8cc7a;
      }

      .cls-7 {
        letter-spacing: -.02em;
      }

      .cls-8 {
        fill: #f2beaa;
      }

      .cls-9 {
        letter-spacing: .02em;
      }
    </style>
  </defs>
  <g>
    <text class="cls-5" transform="translate(99.97 396.2)"><tspan x="0" y="0">PE</tspan><tspan class="cls-7" x="31.32" y="0">O</tspan><tspan class="cls-9" x="50.47" y="0">N</tspan><tspan x="72.38" y="0">Y</tspan></text>
    <text class="cls-2" transform="translate(113.49 417.59)"><tspan x="0" y="0">작약 · 후회</tspan></text>
  </g>
  <g>
    <g>
      <path class="cls-1" d="M239.73,167.6l.91,7c.41,3.15,2.85,5.65,5.98,6.15l1.03.16-.75.09c-3.27.38-5.87,2.94-6.28,6.21l-.89,7.02-.89-7.02c-.42-3.27-3.01-5.83-6.28-6.21l-.75-.09,1.03-.16c3.14-.49,5.57-3,5.98-6.15l.91-7Z"/>
      <path class="cls-1" d="M151.64,190.33l.91,7c.41,3.15,2.85,5.65,5.98,6.15l1.03.16-.75.09c-3.27.38-5.87,2.94-6.28,6.21l-.89,7.02-.89-7.02c-.42-3.27-3.01-5.83-6.28-6.21l-.75-.09,1.03-.16c3.14-.49,5.57-3,5.98-6.15l.91-7Z"/>
      <path class="cls-1" d="M176.36,271.46l.51,3.9c.32,2.46,2.23,4.42,4.68,4.81h0,0c-2.43.28-4.36,2.18-4.66,4.61l-.52,4.1-.52-4.1c-.31-2.43-2.23-4.33-4.66-4.61h0,0c2.45-.39,4.36-2.34,4.68-4.81l.51-3.9Z"/>
      <path class="cls-1" d="M61.63,105.47l.51,3.9c.32,2.46,2.23,4.42,4.68,4.81h0,0c-2.43.28-4.36,2.18-4.67,4.61l-.52,4.1-.52-4.1c-.31-2.43-2.23-4.33-4.67-4.61h0,0c2.45-.39,4.36-2.34,4.68-4.81l.51-3.9Z"/>
      <path class="cls-8" d="M155,153.8s-19.17-10.55-21.46-24.33c-2.58-15.54-2.19-24.61,4.22-32,5.06-5.84,8.62-7.09,10.35-8.81,1.72-1.72,3.84-3.46,5.43-2.78s2.05,3.49-2.05,10.84c0,0,8.11,3.94,2.58,15.01,0,0,6.06.08,1.21,8.72,0,0,2.52,6.99-1.39,10.81-1,.98-1.57,2.31-1.74,3.7-.52,4.4-.95,13.24,2.86,18.85Z"/>
      <path class="cls-8" d="M155,153.8s4.25-4.37,8.55-4.27c0,0,8.1-6.9,14.01-3,0,0,14.61-5.2,10.21,5,0,0,14.41-4,11.61,3.7,0,0,11.51-1.2,1.5,6.8,0,0-4.1,7.5-18.31,6.4-14.21-1.1-24.3-8.16-27.56-14.64Z"/>
      <path class="cls-8" d="M157.15,114.76s3.98-5.08,12.95-3.99c0,0,2.27.25.49,3.99,0,0,8.43-3.25,9.66,5,0,0,6.27-.69,6.32,5.08,0,0,3.77,2.53,2,7.89,0,0,1.23,5.82-6.77,12.71"/>
      <path class="cls-8" d="M187.31,138.73s4.17-5.1,8.34-3.65c0,0,3.88-10.18,8.49-4.67,0,0,1.27-12,5.94-12s4.36,12.85,3.88,14.49-1.33,6.85-5.21,11.4c-3.88,4.55-9.39,7.77-9.39,7.77"/>
      <path class="cls-8" d="M153.69,92.19s7.89-6.89,12.18-7.87c3.91-.9,12.53-2.13,17.94,1.07.59.35.41,1.27-.27,1.39-3.13.57-9.49,1.73-11.07,2.13,0,0,2.12,3.33.3,4.61-1.81,1.28-4.99,2.19-7.48,2.42,0,0,6.94.64-9.38,10.03"/>
      <path class="cls-8" d="M163.55,101.02s5.87-2.52,7.3.45c1.43,2.97.47,6.59-3.65,9.15"/>
      <path class="cls-8" d="M170.9,106.69s4.09-5.89,7.16-5.02c3.07.87,2.2,4.96-.92,6.34,0,0,2.25.46,1.94,2.3s-3.34,3.97-3.34,3.97"/>
      <path class="cls-8" d="M168.93,95.24s3.86,2.55,9.33,1.99c5.47-.56,6.33-3.17,5.9-3.99s-4.61-4.12-10.68-1.52"/>
      <path class="cls-8" d="M186.44,123.5s1.55-4.5,6.76-5.09c0,0,1.24-.65,0-4.95-.72-2.5.26-3.96,1.2-4.75.65-.54,1.64-.35,2.08.37,1.07,1.72,2.97,5,3.43,7.3.65,3.26,1.43,8.63,0,12.78"/>
      <path class="cls-8" d="M184.26,94.65s2.35-2.7,6.98,2.41c.72.79,1.67,1.33,2.71,1.57,1.77.4,4.46,1.5,4.91,4.59.2,1.39.82,2.66,1.85,3.61,2.57,2.37,6.74,7.5,5.54,15.13"/>
      <path class="cls-8" d="M182.97,86.89s3.76.29,4.04,1.87-.91,3.27-3.35,3.93c0,0,15.89-1.65,17.52,5.99.23,1.08.57,2.13,1.21,3.03,1.65,2.33,4.5,7.42,3.62,13.78"/>
      <path class="cls-8" d="M144.03,69.25s-.66-2.81-4.96-2c-5.28,1-12.47,13.74-13.97,25.52s6.96,24.6,6.96,24.6"/>
      <path class="cls-8" d="M133.69,104.3s0-8.52,1.07-11.41c1.07-2.89,5.11-9.82,5.81-12.36.69-2.54,2.69-12.05,5.95-15.31,0,0,1.88-3.31,7.62-3.04,5.75.28,11.44.83,12.76,5.19,1.33,4.36.44,7.68-.83,9.06-1.27,1.38-4.7,4.03-6.63,6.41-1.93,2.38-3.97,6.28-4.61,8.39"/>
      <path class="cls-8" d="M167.28,73.95s8.13-5.19,12.21-3.2,1.49,4.97.28,6.52c-1.22,1.55-6.3,6.07-6.3,6.07"/>
      <path class="cls-8" d="M178.74,78.39s11-6.14,13.47.29c.34.88,1.09,1.55,1.97,1.88,2.68,1,7.49,4.25,4.39,14.44"/>
      <path class="cls-8" d="M199.35,92.09s7.19-9.57,12.12-7c0,0,2.23,1.15,1.42,4.93,0,0,1.62-3.11,4.19-2.23,2.57.88,2.63,6.75,2.97,8.24s.61,4.25,0,5.57"/>
      <path class="cls-8" d="M216.19,104.3c.53-2.53.14-6.38,0-9.3s1.74-6.65,1.74-6.65"/>
      <path class="cls-8" d="M213.43,122.35s2.36-3.34,2.43-6.87c.07-3.53-1.42-11.56,1.76-13.18,3.17-1.62,3.38,1.11,3.65,3.02s.06,5.14.06,7.31-1,5.54-2.96,9.32-4.18,9.24-4.18,9.24"/>
      <path class="cls-8" d="M221.32,112.63s2.51-10.46,5.95-2.63c0,0,3.51-5.06,3.78,2.3.27,7.36-2.09,8.84-2.09,8.84,0,0,3.78,4.39.61,10.33s-8.91,13.3-13.7,15.46c-4.79,2.16-14.86,4.08-14.86,4.08"/>
      <path class="cls-8" d="M215.86,146.93s12.49-4.39,13.97-2.23c1.49,2.16.34,2.97.34,2.97,0,0,8.1,2.3,1.42,10.4,0,0-1.82,2.09-4.86,3.92,0,0-1.82,5.47-6.62,8.44,0,0-1.28,4.79-6.62,5.94,0,0-.81,2.9-7.09,3.98-6.28,1.08-10.73.74-16.54-1.96-5.81-2.7-19.15-12.46-19.15-12.46"/>
      <path class="cls-8" d="M133.75,143.39s-10.16.55-12.95,10.04c-2.78,9.49,8.02,9.41,10.96,6.71,0,0-2.86,4.42-.33,5.81,2.54,1.39,3.85-.16,5.48,1.64,1.64,1.8,1.47,6.22,4.91,7.53s8.43,2.78,11.05-.65c2.62-3.44,5.07-3.68,6.22-6.87,1.15-3.19,1.21-6.29.52-8.05"/>
      <path class="cls-6" d="M160.06,162.02s3.87,2.86,4.93,9.57c1.06,6.71,3.68,10.72,6.46,13.25,2.78,2.54,6.14,13.09,3.93,19.15,0,0,2.86-7.2,3.76-9.57s5.08-12.98-2.33-24.16l-4.43-2.91-2.56-1.64-2.66-1.06-2.85-1.64-2.61-1.74-2.32-1.4.68,2.17Z"/>
      <path class="cls-8" d="M166.66,100.14c7.01-3.82,14.18-3.54,11.4,1.54"/>
      <path class="cls-8" d="M178.41,100.92s13.1-1.49,15.98,7.8"/>
      <path class="cls-8" d="M179.16,106.39s5.52-6.22,9.58.7c0,0,2.51,6.7.42,12.88"/>
      <path class="cls-8" d="M183.49,120.17s-.15-9.43,2.52-8.83,2.55,6.81,1.97,9.71"/>
      <path class="cls-8" d="M177.41,112.88s2.88-.7,4.6,0c1.35.55,1.78,1.88,1.67,3.3"/>
      <path class="cls-8" d="M66.17,32.53c-.61.29-1.28.42-1.96.48-1.06.1-2.84.87-3.27,4.77-.63,5.66-1.99,7.24-.84,12.69,1.15,5.45,4.93,11.12,9.55,13.22,4.62,2.1,11.22,1.99,13.64,4.83s4.62,3.67,4.62,3.67c0,0,0-8.6,1.15-11.54s2.62-8.71,2.2-11.54c-.42-2.83-1.78-8.71-3.99-11.22-2.2-2.52-4.62-5.66-9.65-7.03-5.04-1.36-5.66-2.94-6.71-2.52-.42.17-.63.58-.72,1.01-.2.88-.72,1.64-1.53,2.02l-2.48,1.16Z"/>
      <path class="cls-8" d="M70.91,28.34s-.95,1.88,2.6,3.78,6.49,2.39,9.42,7.28c2.94,4.89,4.09,6.55,4.22,11.26.29,10.28.75,21.53.75,21.53,0,0-8.71-10.15-8.77-14.5s0-10.22-2.57-12.97c-2.57-2.75-6.18-6.42-6.55-8.93-.37-2.51,0-5.92,0-5.92"/>
      <path class="cls-8" d="M65.48,32.79s-1.82,1.47-2,4.35c-.18,2.88.55,8.44,1.41,10.95s2.88,7.4,4.65,9.48c1.77,2.08,3.24,4.04,4.65,5.14,1.41,1.1,4.14,3.37,4.14,3.37"/>
      <path class="cls-8" d="M64.39,34.14s2.08,3.06,3.86,4.04,1.84,2.39,3,3.3,3.46,1.25,3.46,1.25"/>
      <path class="cls-8" d="M66.74,32.27s1.25,5.55,2.81,6.99"/>
      <path class="cls-6" d="M50.71,72.93s.52,2.18,9.69,1.57c0,0,4.07.26,9.15,1.57s7.62-1.48,10.15-1.57,8.65,1.92,8.65,1.92c0,0-6.15-6.11-10.02-7.25-3.87-1.14-9.89-1.05-12.08,0-2.18,1.05-1.86,2.01-5.76,3.02-2.47.64-7.48,1.31-9.78.73Z"/>
      <path class="cls-6" d="M107.5,128.03s-3-3.35-5.58-6.11c-1.81-1.94-3.17-4.26-3.84-6.83-1.41-5.38-5.8-15.35-19.29-19.3,0,0-5.13-2.24-7.87-3.68-.2-.11-.39.15-.23.31,1.76,1.74,4.97,5.06,5.49,6.71.73,2.3,3.03,7.82,5.95,11.48,2.92,3.66,7.2,7.65,12.74,10.24,5.08,2.37,12.63,7.18,12.63,7.18Z"/>
      <path class="cls-6" d="M101.68,124.51s2.3,2.96,4.25,5.62,5.07,12.16,5.07,14.07,1.14,7.11,1.28,7.99c.15.88,2.53,8.84,2.68,9.72.15.88-.56,5.68,1.37,7.76,1.93,2.08,2.77,5.56,2.94,6.33s-.33,4.72-.86,5.65-.58,3.37-.55,4.56,1.13,2.88,1.93,3.81,1.75,3.01,2.01,4.65c.27,1.64-.46,2.77-.95,3.3s-1.26,1.11-1.26,2.5,2.3,3,2.3,3c.49.27.29,2.57.29,2.57.41-1.27.27-2.77-.25-3.31s-1.72-1.75-1.72-2.63,1.04-1.27,1.91-2.98c.87-1.71.17-2.74.08-4.45-.08-1.71-2.08-4.12-2.66-5.24-.58-1.12-.25-1.16-.42-3.45-.17-2.29.58-2.33,1.21-4.78.62-2.45-.04-4.95-1.79-7.57-1.75-2.62-2.19-4.66-2.4-8.05s-2.26-13.75-2.61-16.08c-.35-2.33-4.58-18.69-5.5-23.35-.92-4.66-3.47-15-3.81-18.59-.34-3.59.76-15.18,1.03-16.55s1.68-5.89,2.75-7.68,1.19-4.13,1.44-6.54c.25-2.41,1.7-7.23,2.65-10.13.96-2.91,4.21-4.86,5.77-5.77,1.57-.92,2.68-1.07,5.73-2.83s4.28-4.74,4.78-6.12c.5-1.38-.23-2.91-.73-3.63s-1.38-2.03-.84-4.36,3.75-3.94,4.93-4.78,2.06-3.52,2.52-4.7c.46-1.19.19-3.67.19-6s3.94-4.59,3.94-4.59c-2.33.46-5.85,3.17-5.7,7.38.15,4.21-.42,5.43-.8,6.19-.38.76-3.52,3.1-5.62,5.16s-1.05,2.77-1.37,4.13c-.32,1.36,2.46,2.53,2.65,3.98s-2.33,3.3-5.15,4.86c-2.82,1.55-7.77,4.57-10.4,7.48-2.62,2.91-4.08,11.17-5.34,14.38s-4.08,7.68-4.86,10.29c-.78,2.61.58,17.21.58,17.21l-3.58-8.99-2.41-6.37-2.41-6.14-2.64-8.84-.92-5.39.29-1.26,2.35-2.93,3.04-2.75,2.07-2.58,1.26-3.1.98-3.44.62-4.06s-.37-2.85-.33-3-.99-2.49-.99-2.49l-.91-1.35.55,3.7-.59,2.34-.84,2.01-1.98,3.21-2.9,2.24-3.03,3.69-1.29,3.44-.66,4.23-.33,7.09-3.34-2.18-2.19-2.53-2.41-.79,2.63,2.97,2.78,3.57,2.74,2.98,1.99,3.19,4.27,8.46,2.65,6.63,2.2,5.55,1.62,4.31,2.36,6.05.79,2.69,1.24,5.06.91,4.06.91,3.52.17,2.07-3.46-3.77"/>
      <g>
        <path class="cls-8" d="M108.57,227.95c.08-2.42-3.66-15.2-10.99-19.26-7.33-4.05-13.25-5.22-17.78-3.9,0,0-1.48.7.31,3.43,0,0-7.09-.47-8.03,1.09-.94,1.56,1.48,5.77,1.48,5.77,0,0-5.38-.31-5.15,1.01.23,1.33,2.81,3.35,2.81,3.35,0,0,2.81,3.2,3.9,6.39,1.09,3.2,1.56,5.93,4.52,8.58,2.96,2.65,6.63,6.24,14.58,6.31,5.2.05,7.1-.3,7.79-.55.3-.11.63-.09.9.09l5.11-3.59c-.62-3.04.47-6.32.55-8.73Z"/>
        <path class="cls-6" d="M230.48,245.24c-4.74-2.83-4.84-1.18-7.73-3.19-2.89-2.01-5.36-4.07-7.78-3.97-2.42.1-4.48.72-6.29,2.58s-4.79,2.37-7.73,1.96c-2.94-.41-8.45-3.76-13.76-2.58s-9.38,3.09-12.98,6.03c-3.61,2.94-12.06,13.6-12.06,13.6,0,0-4.69,6.44-5.87,8.76-1.18,2.32-3.86,10.3-3.86,10.3,0,0,0-6.34,1.44-11.85s3.92-13.6,5.41-16.13c1.49-2.52,5.2-9.74,8.76-11.9,3.56-2.16,12.11-4.33,14.63-5.67,2.52-1.34,10.05-4.48,13.65-8.14s3.4-4.84,6.29-6.18c2.89-1.34,9.17-7.01,10.92-9.02,1.75-2.01,7.57-2.63,9.17-2.16,1.6.46,6.29,1.7,8.4,3.61,0,0-1.65-5.62-8.76-6.44-7.11-.82-7.83-3.09-11.8-2.83,0,0-1.6-2.94-5.72-2.73s-6.59.98-6.59.98c0,0-6.8-1.65-12.62,4.17s-6.34,4.28-8.04,5.77-5.67,4.79-8.45,9.74c-2.78,4.95-4.84,6.65-5.56,10.46-.72,3.81-.67,6.08-2.06,10.25-1.39,4.17-5,12.31-6.13,15.51-1.13,3.19-3.25,10.82-3.81,13.96-.57,3.14-.88,10.2-.88,12.57s.93,9.58.93,9.58c0,0-5.72-8.19-8.6-16.8l-6.2-18.6s-3.9-15.77-4.21-19.32c-.31-3.56-1.54-15.84-1.18-19.4s.3-13.86,1.75-19.7c1.45-5.84,3.37-11.69,4.58-13.37,1.2-1.69,6.82-9.08,6.82-9.08l-4.61-2.28s-6.8,12.42-8.64,20.62c-1.84,8.2-4.24,28.84-2.83,36.62,0,0-12.16-23.33-14.85-30.26-2.69-6.93-6.65-18.1-6.08-21.63.57-3.53,2.27-10.68.3-16.08-1.97-5.41-5.49-17.08-14.59-21.11-9.1-4.03-16.65-4.38-20.85-5.66-4.21-1.29-10.3-2.4-11.84-1.37,0,0,5.32.34,6.95,1.54,1.63,1.2,5.32,1.63,6.52,2.83,1.2,1.2,4.98,5.92,5.75,7.64s3.09,10.21,8.5,13.56,9.27,3.95,11.97,7.47c2.7,3.52,4.42,7.9,5.28,12.96s5.41,18.71,5.41,18.71c0,0-11.84-16.31-13.56-20.42-1.72-4.12-5.41-11.59-12.53-14.33-7.12-2.75-13.22-3.12-16.73-4.82-3.52-1.7-7.98-2.81-11.07-2.64-3.09.17-15.28.34-19.22,5.58,0,0,5.32-2.4,7.98-1.89,2.66.51,11.93,4.38,13.04,5.84,1.12,1.46,5.06,8.58,8.67,10.56,3.6,1.97,9.35,5.58,10.56,7.29s11.41,5.84,14.85,5.84,9.61,2.06,10.73,3.35,6.44,5.23,9.1,11.24c2.66,6.01,14.76,29.86,14.76,29.86,0,0,3.95,10.9,5.75,19.05,1.8,8.15,8.24,28.06,9.61,30.12,0,0-10.38-10.9-13.73-17.68s-7.29-10.13-7.72-11.59c-.43-1.46-1.52-4.75-.82-7.4s3.27-8.03-2.03-14.03c0,0-.23,2.34-.78,3.66-.55,1.33-1.25,4.76-.7,6.63.55,1.87,1.64,8.19,1.64,8.19,0,0-10.06-12.24-10.68-15.28l-5.11,3.59c1.69,1.08,7.17,4.64,9.4,6.93,2.65,2.73,11.69,14.35,11.69,14.35,0,0,5.85,7.95,6.7,10.37,0,0-7.41-5.54-10.76-8.73-3.35-3.2-8.34-7.56-16.22-9.75-7.87-2.18-15.98-1.25-19.65-1.64-3.66-.39-10.91-1.87-13.8.23,0,0,5.69-.39,7.8.39s5.93,2.73,6.86,4.13c.94,1.4,5.54,6,7.72,6.7,2.18.7,9.28,2.18,14.19,2.18s11.3.7,13.64,1.95c2.34,1.25,7.19,3.26,10.04,6.57,2.85,3.31,12.31,14.07,12.31,14.07,0,0,6.93,9.36,8.45,12.21s10.19,19.5,10.19,19.5l7.57,15.82c1.24,2.59,2.31,5.26,3.22,7.98l6.27,18.87c-.19-6.53-4.19-20.76-4.19-20.76,0,0-2.98-8.75-5.26-12.95-.9-1.65-1.76-3.32-2.54-5.03-1-2.2-2.21-4.75-2.73-5.43-.97-1.25-9.39-18.83-9.73-21.51-.34-2.67-1.02-14.17-.28-16.61s3.3-11.04,6.49-14.62c3.19-3.58,6.2-7.85,10.98-8.65,4.78-.8,11.04.91,13.83-.06,2.79-.97,7.97-1.82,12.52-5.52,4.55-3.7,6.09-5.58,9.9-6.03,0,0,8.94-.78,12.4-.06,3.45.72,8.45.57,11.64,3.61,3.19,3.04,4.22,5.26,4.22,5.26,0,0-.57-5.98-5.31-8.81Z"/>
      </g>
      <path class="cls-1" d="M102.51,240.12s2.68-.18,5.52-3.44c0,0-2.38.51-4.92.17-2.54-.34-12.08-5.7-14.76-9.4-2.03-2.81-3.78-8.72-4.32-13.18s-3.91-6.04-3.91-6.04"/>
      <path class="cls-1" d="M210.54,202.01s-25.11,5.6-45.73,36.54c0,0-3.51,5.79-4.97,9.03"/>
      <path class="cls-1" d="M231.1,211.29c-4.41-7.64-28.68-7.29-44.76,3.64"/>
      <path class="cls-1" d="M176.89,223.49s8.64-15.84,8.72-19.05"/>
      <path class="cls-1" d="M179.26,221.11s8.5-3.49,11.83-3.66,6-.33,8.58-.92c2.58-.58,10.28-3.21,10.28-3.21"/>
      <path class="cls-1" d="M169.46,232.07s5.55-3.14,11.07-5.3c4.11-1.61,10.57-.95,13.5-1.68s5.07-3.23,5.07-3.23"/>
      <path class="cls-1" d="M191,225.45s-8.42,6.27-14.11,7.92c-5.69,1.65-9.06,4.06-13.6,7.76"/>
      <path class="cls-1" d="M198.8,219.72s-5.27,2.66-9.14,3.36c-3.87.7-6.68.62-11.12,2.84-4.44,2.22-6.89,3.41-6.89,3.41"/>
      <path class="cls-1" d="M175.89,224.53s6.1-3.95,14.03-6.93"/>
      <path class="cls-1" d="M173.63,227.03s5.21-3.25,10.08-5.16c3.51-1.37,13.27-2.14,13.27-2.14"/>
      <path class="cls-1" d="M183.65,210.05s5.63-5.62,11.72-8.69"/>
      <path class="cls-1" d="M182.9,217.77s2.58-4.23,4.26-6.02,6.64-6.04,6.64-6.04"/>
      <path class="cls-1" d="M201.01,202.71s-8.33,4.97-11.09,9.55"/>
      <path class="cls-1" d="M206.18,212.25s-11.99.69-23.97,6.12"/>
      <path class="cls-1" d="M167.83,224.53s-2.51,4.57-2.76,8.55c-.12,1.91-1.22,7.07-1.22,7.07"/>
      <path class="cls-1" d="M166.26,236.43s1.21-6.55,2.03-8.43c.82-1.87,2.97-8.82,5.21-11.83"/>
      <path class="cls-1" d="M175.89,214.26s-4.18,9.14-5.09,11.51c-.91,2.38-1.72,6.81-1.72,6.81"/>
      <path class="cls-1" d="M180.44,208.73s-3.05,6.48-4.26,10.19c-1.23,3.79-4.14,7.57-6.31,10.87"/>
      <path class="cls-1" d="M181.74,207.88s.31,4.12-1.76,9.34"/>
      <path class="cls-1" d="M165.84,237.03s5.45-3.64,7.78-4.45c2.34-.81,9.5-3.49,10.66-4.61"/>
      <path class="cls-1" d="M165.84,257.91s9.35-7.51,13.42-8.78,17.54-4.59,22.61-4.68c5.07-.1,8.59-3.32,13.07-2.83,4.49.49,7.71,2.54,10.73,3.32s4.99,1.85,5.42,2.24"/>
      <path class="cls-1" d="M179.26,249.13s7.81.5,12.82,2.33"/>
      <path class="cls-1" d="M186.5,247.2s7.56,1.09,9.81,2.53"/>
      <path class="cls-1" d="M171.09,253.95s4.76.65,10.34,0c5.58-.65,7.34-1.01,7.34-1.01"/>
      <path class="cls-1" d="M174.19,251.82s6.03-.08,8.71.55"/>
      <path class="cls-1" d="M181.55,248.47s8.44-4.91,11.71-5.18"/>
      <path class="cls-1" d="M176.27,250.55s5.81-7.26,11.59-8.29"/>
      <path class="cls-1" d="M172.52,252.94s1.1-6.38,11.76-10.96"/>
      <path class="cls-1" d="M92.77,216.06s-6.6-4.71-10.46-5.98"/>
      <path class="cls-1" d="M73.57,215.08s3.85,1.95,5.85,10"/>
      <path class="cls-1" d="M108.03,236.68c-5.71,2.41-10.88,1.54-15.64.22-6.13-1.69-8.97-6.2-8.97-6.2"/>
      <path class="cls-1" d="M71.88,210.08s7.38.97,10.43,7.55"/>
      <path class="cls-1" d="M96.34,228.6s6.56,7.32,10.09,8.31c0,0-1.21-9.46-10.68-19.27"/>
      <path class="cls-1" d="M101.96,216.44s6.26,10.3,6.02,16.12"/>
      <path class="cls-1" d="M104.97,227.84s2.79,6.43,3.06,8.84"/>
      <path class="cls-1" d="M88.9,220.6s2.68,3.85,3.66,4.74"/>
      <path class="cls-1" d="M81.2,211.63s2.7,2.26,3.04,4.03"/>
      <path class="cls-1" d="M81.2,214.06s3.3,3.37,3.76,5.04"/>
      <path class="cls-1" d="M82.57,218.66s2.76,6.02,4.97,7.47"/>
      <path class="cls-1" d="M106.42,236.9c-.99-.43-4.99-5.11-4.99-5.11"/>
      <line class="cls-1" x1="102.96" y1="231.79" x2="105.27" y2="235.16"/>
      <path class="cls-1" d="M86.59,218.66s2.91,5.09,4.6,6.69"/>
      <path class="cls-1" d="M70.91,92.11s11.68,7.48,15.79,12.51c4.12,5.03,10.41,11.96,11.22,13.72,0,0,6.67,7.89,9.58,9.69"/>
      <path class="cls-1" d="M97.92,118.34c-3.1.23-13.83-5.45-13.83-5.45"/>
      <path class="cls-1" d="M77.25,101.99s4.3,5.08,6.85,6.82,11.17,7.41,13.53,9.01c0,0-3.34-7.49-5.13-9.54"/>
      <path class="cls-1" d="M80.93,96.5s6.54,3.41,8.64,6.55c2.11,3.14,4.25,7.79,5.26,11.17"/>
      <path class="cls-1" d="M107.5,180.31c.18-5-6.29-20.41-16.92-28.39-6.49-4.88-9.79-9.57-16.56-12.69"/>
      <path class="cls-1" d="M79.77,146.87s7.62,6.04,10.46,7.74c2.84,1.69,9.62,7.81,10.77,11.08.79,2.24,2.66,5.65,3.85,8.15.73,1.52,1.11,3.18,1.13,4.87.02,1.17,0,2.59-.17,3.66"/>
      <path class="cls-1" d="M90.76,140.86s5.52,4.54,7.58,8.9c2.06,4.36,4.3,11.38,5.33,13.38,1.03,2,2.68,7,2.52,11.07"/>
      <path class="cls-1" d="M82.96,150.79c5.57,7.19,7.14,8.12,10.35,9.7,4.08,2.01,7.19,4.3,8.27,6.6"/>
      <path class="cls-1" d="M77.27,137.3s9.82,6.41,13.71,10.63c2.33,2.52,7.64,10.45,7.86,12.56"/>
      <path class="cls-1" d="M84,138.73s6.4,5.32,8.65,7.89,5.51,8.05,6.2,9.7c.69,1.66,3.6,7.54,4.11,8.62s1.82,5.73,1.82,5.73"/>
      <path class="cls-1" d="M99.11,148.48s5.81,10.08,6.88,14.41c1.07,4.33,1.27,9.06.85,13.4"/>
      <path class="cls-1" d="M37.81,162.92s2.47-1.42,4.35-2.43c1.88-1,9.49-.71,14.8,0,5.32.71,13.53,6.16,21.68,10.98,7.03,4.17,20.27,15.55,23.32,18.89,0,0,5.88,5.89,7.02,7.52"/>
      <path class="cls-1" d="M87.34,154.51s3.41,3.22,4.45,4.12,2.76,2.48,3.45,2.88"/>
      <path class="cls-1" d="M100.61,189s-7.49-15.75-10.42-17.85"/>
      <path class="cls-1" d="M93.15,182.36s-5.77-12.82-14.21-17.16"/>
      <path class="cls-1" d="M83.7,174.89s-8.7-9.87-12.82-12.07"/>
      <path class="cls-1" d="M101.96,190.37s-10.26-2.48-13.89-3.03c-3.64-.55-7.94-2.47-7.94-2.47"/>
      <path class="cls-1" d="M98.48,187.01s-12.38-.71-14.78-2.14"/>
      <path class="cls-1" d="M96.08,184.87s-9.72-2.38-15.96-2.98c-6.24-.59-11.47-5.96-11.47-5.96"/>
      <path class="cls-1" d="M91.56,181.04s-2.11-.93-9.2-2.17-8.56-1.32-8.56-1.32"/>
      <path class="cls-1" d="M86.3,176.83s-12.2-3.48-18.68-3.7"/>
      <path class="cls-1" d="M78.63,171.47s-10.72-3.2-15.95-3.49"/>
      <path class="cls-1" d="M56.5,164.21s6.63,2.52,9.36,2.67,7.54,1.44,7.54,1.44"/>
      <path class="cls-1" d="M50.25,161.21c6.24.3,13.53,3.24,19.42,4.9"/>
      <path class="cls-1" d="M54.01,157.5s10.8,3.06,13.61,7.44"/>
      <path class="cls-1" d="M121.16,266.29s-30.43-12.01-40.49-13.74"/>
      <path class="cls-1" d="M117.76,264.97s-6.75-6.6-8.55-7.56"/>
      <path class="cls-1" d="M110.64,262.26s-8.84-7.34-12.97-8.56"/>
      <path class="cls-1" d="M101.44,258.9s-2.87-3.29-10.23-5.2"/>
      <path class="cls-1" d="M114.79,263.83s-9.45.97-14.22,0-9.37-3.14-9.37-3.14"/>
      <path class="cls-1" d="M107.75,261.19s-9.18-1.18-12.73-1.5c-3.55-.32-7.78-2.59-7.78-2.59"/>
      <path class="cls-1" d="M112.32,262.89s-6.61.39-12.17-1.03c0,0-2.37-.44-3.83-.67"/>
      <path class="cls-1" d="M96.32,257.11s-7.62-.87-12.43-2.72"/>
      <path class="cls-8" d="M166.03,159.98c-6.4-1.14-11.03-6.18-11.03-6.18,0,0,2.5.55,5.96-.92"/>
      <path class="cls-8" d="M187.77,151.53s-4.75,5.03-11.29,7.23"/>
      <path class="cls-8" d="M177.56,146.53s.31,2.73-3.36,5.53"/>
      <path class="cls-8" d="M162.5,152.06c1.47-1.26,1.05-2.53,1.05-2.53"/>
      <path class="cls-1" d="M190.15,163.55s7.84-.59,10.72-1.51"/>
      <path class="cls-8" d="M178.39,161.19c-16.32,5.15-23.38-7.39-23.38-7.39,0,0,8.61,15.26,29.71,10.92"/>
      <path class="cls-8" d="M155,153.8c-10.07-5.04-7.83-15.55-7.83-15.55"/>
      <path class="cls-8" d="M141.03,128.03s-2.45,15.17,9.95,23.25"/>
      <path class="cls-8" d="M147.32,148.48c-1.51-1.03-9.36-9.26-10.37-19.84-1-10.58,7.65-22.66,7.65-22.66"/>
      <path class="cls-8" d="M151.49,96.72s-4.57,5.75-5.23,7.1"/>
      <path class="cls-8" d="M152.28,107.14s1.85-2.37,3.61-4.05"/>
      <path class="cls-8" d="M146.26,108.16s-3.45,5.12-3.57,5.48"/>
      <path class="cls-8" d="M148.11,88.66s-6.31,8.41-7.8,11.36"/>
      <path class="cls-8" d="M136.19,112.27s-2.22,14.13.68,21.68,7.15,11.88,7.15,11.88c0,0-5.71-.83-12.34-3.12-6.63-2.29-15.71-12.19-17.75-16.69-2.05-4.5-2.05-9.74-2.13-12.19-.08-2.45-1.8-3.76-2.29-7.36-.49-3.6,1.72-6.95,2.78-9.33,1.06-2.37,2.54-2.95,4.58-3.85,2.05-.9.74.41,2.54,6.73,1.8,6.32,9.23,10.95,9.23,10.95"/>
      <path class="cls-8" d="M163.06,128.63s-9.62,17.38-9.31,22.9"/>
      <path class="cls-8" d="M159.41,127.23s-6.44,12.91-7.29,18.22"/>
      <path class="cls-8" d="M160.52,121.05s-7.91,13.18-8.7,20.17"/>
      <path class="cls-8" d="M168.31,133.59c.12-.51-10.01,12.58-13.3,20.21"/>
      <polyline class="cls-8" points="166.03 143.39 156.85 152.22 173.11 129.59"/>
      <path class="cls-8" d="M160.52,137.02s-5.94,10.7-5.51,16.78c0,0-.39,8.75-.25,9.57"/>
      <path class="cls-8" d="M164.23,121.05s3.13-4.57,6.37-6.29"/>
      <path class="cls-8" d="M174.2,128.63s4.48-6.84,6.07-8.87"/>
      <path class="cls-8" d="M186.59,124.85s-4.23,6.32-5.46,7.34"/>
      <path class="cls-8" d="M188.59,132.73s-9.01,8.79-13.8,12.71"/>
      <line class="cls-8" x1="179.97" y1="138.25" x2="173.11" y2="145.34"/>
      <path class="cls-8" d="M116.24,111.9s11.76,16.94,18.23,21"/>
      <path class="cls-8" d="M122.8,131.75s14.06,10.38,18.99,11.94"/>
      <path class="cls-8" d="M121.26,128.51s12.57,9.5,17.02,11.14"/>
      <path class="cls-8" d="M127.53,138.25s11.6,5.75,15.16,6.33"/>
      <path class="cls-8" d="M126.74,118.41s4.09,8.57,6.81,11.06"/>
      <path class="cls-1" d="M115.47,93.93s-1.09,5.01-.88,6.9"/>
      <path class="cls-1" d="M111.69,112.9s6.96,10.57,11.78,14.33"/>
      <path class="cls-8" d="M201.64,155.15s10.07-1.88,17.3-3.62"/>
      <path class="cls-1" d="M192.57,167.6s18.42,4.51,27.54,2.82"/>
      <path class="cls-1" d="M206.18,175.41s3.95,1.25,7.31.95"/>
      <path class="cls-8" d="M225.28,149.53s3.53-.92,4.88-1.86"/>
      <path class="cls-1" d="M202.12,160.99s9.59-.8,16.82-3.65"/>
      <path class="cls-1" d="M183.86,168.52s7.5,4.15,11.66,4.92"/>
      <path class="cls-8" d="M127.53,152.22s11.94-5.83,17.08-5.87"/>
      <path class="cls-8" d="M130.14,148.14s6.77-2.8,10.07-3.04"/>
      <path class="cls-8" d="M136.07,162.83s12.15-9.94,13.71-12.4"/>
      <path class="cls-8" d="M135.11,155.68s8.61-6.14,12.69-6.91"/>
      <path class="cls-8" d="M153.17,152.74s1.59,9.13-.78,14.47c-2.37,5.34-4.15,7.52-4.15,7.52"/>
      <path class="cls-8" d="M152.56,155.08s-5.14,7.25-5.6,9.17"/>
      <path class="cls-8" d="M155.71,156.64s1.19,9.08-.23,12.76"/>
      <path class="cls-8" d="M156.18,155.5s1.71,6.79,1.44,9.11"/>
      <path class="cls-8" d="M152.4,152.22s-3.44,3.95-4.17,5.05"/>
      <path class="cls-8" d="M149.01,149.93s-5.54,5.4-7.22,6.51"/>
      <path class="cls-8" d="M141.79,148.76s3.24-.83,4.77-.83"/>
      <path class="cls-1" d="M163.61,164.02s6.93,3.2,9.5,10.72c2.56,7.52,4.84,16.15,4.46,19.49"/>
      <path class="cls-1" d="M167.48,166.63c2.98.39,11.54,9.61,11.96,18.54"/>
      <path class="cls-1" d="M168.54,167.6s4.07,10.82,4.56,15.01"/>
      <path class="cls-1" d="M165.79,165.32s2.51,10.18,4.07,12.25"/>
      <path class="cls-1" d="M172.81,173.94s3.81,5.21,4.51,7.75,1.46,7.02,1.46,7.02"/>
      <path class="cls-1" d="M173.83,168.16s3.5,5.12,3.99,7.73"/>
      <path class="cls-1" d="M191.53,175.91s7.13,5.08,11.76,4.86"/>
      <path class="cls-1" d="M119.13,249.94c0-1.16.09-2.62.37-6.83s-.58-6.98-.58-6.98"/>
      <path class="cls-1" d="M118.22,239.29s-.64,4.48,1.02,7.32"/>
      <path class="cls-1" d="M120.14,237.95s.76,4.43-.64,6.7"/>
      <path class="cls-8" d="M207.18,120.29s.55,8.92,0,11.89"/>
      <path class="cls-8" d="M207.18,135.24s.6,10.03-8.59,16.07"/>
      <path class="cls-8" d="M203.85,142.08s-3.14,7.25-5.82,8.93"/>
      <path class="cls-8" d="M198.59,144.51s-3.28,4.96-5.02,6.03"/>
      <path class="cls-8" d="M195.65,135.08s-.5,2.48-1.27,4.01"/>
      <path class="cls-8" d="M193.57,124.85s-.25,7.98-2.91,11.04"/>
      <path class="cls-8" d="M195.65,124.2s.43,8.11-.96,10.66"/>
      <path class="cls-8" d="M228.95,121.14s-2.35,2.91-3.67,3.71"/>
      <path class="cls-8" d="M225.63,116.5s-8.9,8.8-9.68,14.69"/>
      <path class="cls-8" d="M221.77,132.18s-7.81,7.57-11.2,9.61"/>
      <path class="cls-8" d="M207.05,146.12s6.45-3.03,8.03-4.03"/>
      <path class="cls-8" d="M229.76,153.34s3.66-2.13,4.05-2.8"/>
      <path class="cls-1" d="M216.5,162.79s8.76-2.75,10.37-3.27"/>
      <path class="cls-1" d="M198.03,164.99s5.82.51,12.5-.63"/>
      <path class="cls-8" d="M218.43,111.9s-.8,9.28-4.47,13.21"/>
      <path class="cls-8" d="M209.35,95.76s-3.37,9.25-3.48,14.05"/>
      <path class="cls-8" d="M207.61,85.06s-4.68,10.39-5.22,16.65"/>
      <path class="cls-8" d="M148.87,74.48s-5.7,17.52-7.76,19.54"/>
      <path class="cls-8" d="M133.55,79.2s-6.79,15.19-5.3,24.63c1.49,9.44,3.81,10.46,3.81,10.46"/>
      <path class="cls-8" d="M164.97,64.63s-1.72,7.91-3.89,12.18c-2.17,4.27-6.49,12.29-6.49,12.29"/>
      <path class="cls-8" d="M161.61,63.09s.13,4.53-1.38,7.2"/>
      <path class="cls-8" d="M154.07,111.73s-2.49,3.35-3.08,4.77"/>
      <path class="cls-1" d="M109.21,273.79s-2.41,5.01,3.11,6.33c5.53,1.32,7.46,1.5,8.02,3.95s-.21,7.86,1.96,9.47c2.18,1.61,5.96,1.47,7.93,3.44,1.96,1.96,2.53,2.25,2.74,5.89.21,3.65-.14,6.11,1.47,7.37s6.46,2.67,7.44,3.72c.98,1.05,3.51,4.35,4,5.75,0,0-1.75-5.12-3.02-6.18-1.26-1.05-7.79-2.32-8-5.82-.21-3.51.49-8.7-1.19-10.46s-6.32-3.02-7.51-3.86-3.58-2.74-3.86-5.54-.77-5.47-1.89-6.53c-1.12-1.05-4.42-1.68-6.53-2.46-2.11-.77-3.94-2.46-4.67-5.09Z"/>
      <circle class="cls-1" cx="190.34" cy="269.07" r="1.28"/>
      <circle class="cls-1" cx="144.98" cy="243.53" r="1.28"/>
      <circle class="cls-1" cx="68.38" cy="196.61" r="1.28"/>
      <circle class="cls-1" cx="123.81" cy="189.75" r=".88"/>
      <circle class="cls-1" cx="157.91" cy="184.29" r=".88"/>
      <circle class="cls-1" cx="94.07" cy="131.24" r=".88"/>
      <circle class="cls-1" cx="159.41" cy="210.35" r=".74"/>
      <circle class="cls-1" cx="79.73" cy="194.7" r=".67"/>
      <circle class="cls-1" cx="56.28" cy="176.83" r=".46"/>
      <circle class="cls-1" cx="85.36" cy="129.09" r=".46"/>
      <circle class="cls-1" cx="71.88" cy="119.43" r=".67"/>
      <circle class="cls-1" cx="117.33" cy="77.27" r="1.11"/>
      <circle class="cls-1" cx="118.88" cy="83.14" r=".73"/>
      <circle class="cls-1" cx="198.92" cy="69.61" r=".73"/>
      <circle class="cls-1" cx="244.04" cy="148.35" r="1.18"/>
      <circle class="cls-1" cx="231.4" cy="95.25" r=".97"/>
      <circle class="cls-1" cx="214.92" cy="74.7" r=".53"/>
      <circle class="cls-1" cx="181.04" cy="52.07" r=".73"/>
      <circle class="cls-1" cx="205.11" cy="62.63" r="1.02"/>
      <circle class="cls-1" cx="99.79" cy="139.65" r=".67"/>
      <circle class="cls-1" cx="110.3" cy="213.65" r=".67"/>
      <circle class="cls-1" cx="143.01" cy="228.18" r="1.28"/>
      <circle class="cls-1" cx="151.8" cy="233.62" r=".66"/>
      <circle class="cls-1" cx="200.5" cy="262.79" r=".83"/>
      <path class="cls-8" d="M151.34,163.72l17.69-9.31,45.32,9,6.83-8.69-7.14-18s1.95-4.73-.08-3.81l5.42-14.25-1.39-12.82-.09-.88s-4.35-1.05-7.34,2.99c-2.99,4.03-4.11,10.57-4.11,10.57"/>
      <path class="cls-8" d="M213.09,94.96l-18.88-3.89-9.07-10.37-12.22-4.07-14.49-6.34s-4.49,12.78-6.16,13.96"/>
      <polygon class="cls-8" points="137.94 101.25 135.72 130.5 133.13 146.97 150.53 165.66 166.82 154.56 196.8 141.42 213.46 118.83 191.99 86.44 152.01 81.08 137.94 101.25"/>
      <polygon class="cls-8" points="187.36 91.81 205.5 92.18 218.27 96.81 221.26 105.32 211.24 122.72 183.11 100.33 187.36 91.81"/>
      <path class="cls-3" d="M108.99,273.79s-2.41,5.01,3.11,6.33c5.53,1.32,7.46,1.5,8.02,3.95s-.21,7.86,1.96,9.47c2.18,1.61,5.96,1.47,7.93,3.44,1.96,1.96,2.53,2.25,2.74,5.89.21,3.65-.14,6.11,1.47,7.37s6.46,2.67,7.44,3.72c.98,1.05,3.51,4.35,4,5.75,0,0-1.75-5.12-3.02-6.18-1.26-1.05-7.79-2.32-8-5.82s.49-8.7-1.19-10.46-6.32-3.02-7.51-3.86-3.58-2.74-3.86-5.54-.77-5.47-1.89-6.53c-1.12-1.05-4.42-1.68-6.53-2.46-2.11-.77-3.94-2.46-4.67-5.09Z"/>
      <path class="cls-4" d="M239.52,167.6l.91,7c.41,3.15,2.85,5.65,5.98,6.15l1.03.16-.75.09c-3.27.38-5.87,2.94-6.28,6.21l-.89,7.02-.89-7.02c-.42-3.27-3.01-5.83-6.28-6.21l-.75-.09,1.03-.16c3.14-.49,5.57-3,5.98-6.15l.91-7Z"/>
      <path class="cls-4" d="M151.43,190.33l.91,7c.41,3.15,2.85,5.65,5.98,6.15l1.03.16-.75.09c-3.27.38-5.87,2.94-6.28,6.21l-.89,7.02-.89-7.02c-.42-3.27-3.01-5.83-6.28-6.21l-.75-.09,1.03-.16c3.14-.49,5.57-3,5.98-6.15l.91-7Z"/>
      <path class="cls-4" d="M176.15,271.46l.51,3.9c.32,2.46,2.23,4.42,4.68,4.81h0,0c-2.43.28-4.36,2.18-4.66,4.61l-.52,4.1-.52-4.1c-.31-2.43-2.23-4.33-4.66-4.61h0,0c2.45-.39,4.36-2.34,4.68-4.81l.51-3.9Z"/>
      <path class="cls-4" d="M61.41,105.47l.51,3.9c.32,2.46,2.23,4.42,4.68,4.81h0,0c-2.43.28-4.36,2.18-4.67,4.61l-.52,4.1-.52-4.1c-.31-2.43-2.23-4.33-4.67-4.61h0,0c2.45-.39,4.36-2.34,4.68-4.81l.51-3.9Z"/>
    </g>
    <g>
      <path d="M237.68,167.58c.2,1.46.7,5.04.9,6.44.21,3.72,3.39,6.61,7.05,6.77.14.02.13.24-.01.25-3.66.1-6.78,3.08-6.95,6.75,0,0-.26,2.15-.26,2.15l-.53,4.3c0,.11-.11.2-.22.19-.09-.01-.16-.09-.17-.17-.2-1.45-.7-5.05-.87-6.45-.19-3.64-3.25-6.55-6.89-6.64-.28-.01-.31-.46-.02-.49,3.64-.14,6.78-2.97,7-6.66.29-2.06.7-4.41.97-6.43h0ZM237.68,167.63c-.43,2.73-.4,6.02-1.14,8.57-.96,2.88-3.8,4.73-6.74,4.96,0,0-.01-.49-.01-.49,1.44.1,2.97.51,4.18,1.4,1.85,1.28,2.99,3.46,3.14,5.68,0,0,.27,2.15.27,2.15l.5,4.31s-.4,0-.4,0v-.02s.57-4.29.57-4.29l.28-2.15c.17-2.2,1.3-4.34,3.13-5.6,1.2-.87,2.69-1.26,4.13-1.35,0,0,0,.25,0,.25-3.72-.2-6.97-3.21-7.13-6.99-.16-1.38-.61-5-.78-6.42h0Z"/>
      <path d="M149.59,190.3c.2,1.46.7,5.04.9,6.44.21,3.72,3.39,6.61,7.05,6.77.14.02.13.24-.01.25-3.66.1-6.78,3.08-6.95,6.75,0,0-.26,2.15-.26,2.15l-.53,4.3c0,.11-.11.2-.22.19-.09-.01-.16-.09-.17-.17-.2-1.45-.7-5.05-.87-6.45-.19-3.64-3.25-6.55-6.89-6.64-.28-.01-.31-.46-.02-.49,3.64-.14,6.78-2.97,7-6.66.29-2.06.7-4.41.97-6.43h0ZM149.59,190.35c-.43,2.72-.4,6.02-1.14,8.57-.96,2.88-3.8,4.73-6.74,4.96,0,0-.01-.49-.01-.49,1.44.1,2.97.51,4.18,1.4,1.85,1.28,2.99,3.46,3.14,5.68,0,0,.27,2.15.27,2.15l.5,4.31h-.4v-.02s.57-4.29.57-4.29l.28-2.15c.17-2.2,1.3-4.34,3.13-5.6,1.2-.87,2.69-1.26,4.13-1.35v.25c-3.72-.2-6.97-3.21-7.14-6.99-.16-1.38-.61-5-.78-6.42h0Z"/>
      <path d="M174.31,271.43c.32,1.6.37,4.01,1.03,5.47.74,1.65,2.34,2.86,4.13,3.13,0,0,.04,0,.04,0h.01c0-.05,0,.47,0,.25-1.82.21-3.46,1.46-4.15,3.15-.56,1.46-.59,3.87-.85,5.45,0,.11-.11.2-.22.19-.09-.01-.16-.09-.17-.17-.3-1.56-.38-3.99-.94-5.42-.69-1.65-2.29-2.87-4.07-3.07,0,.44-.02-.6-.01-.5,0,0,0,0,0,0h.04c1.75-.27,3.31-1.45,4.06-3.05.69-1.61.77-3.71,1.12-5.43h0ZM174.31,271.48c-.31,1.92-.08,3.69-.8,5.53-.72,1.73-2.37,3.03-4.21,3.38,0,0-.09.02-.09.02h-.04s0,.01,0,.01c0,.11-.02-.94,0-.49,2.46.24,4.59,2.3,4.88,4.77.12.89.38,3.24.48,4.16,0,0-.4,0-.4,0h0c.3-1.67.33-3.97.95-5.54.75-1.78,2.5-3.07,4.42-3.27,0-.22,0,.3,0,.25-.03,0-.11-.02-.14-.03-1.81-.33-3.41-1.61-4.13-3.3-.66-1.53-.63-3.85-.89-5.48h0Z"/>
      <path d="M59.58,105.44c.32,1.6.37,4.01,1.03,5.47.74,1.65,2.34,2.86,4.13,3.13,0,0,.04,0,.04,0h.01c0-.05,0,.47,0,.25-1.82.21-3.46,1.46-4.15,3.15-.56,1.46-.59,3.87-.85,5.45,0,.11-.11.2-.22.19-.09-.01-.16-.09-.17-.17-.3-1.56-.38-3.99-.94-5.42-.69-1.65-2.29-2.87-4.07-3.07,0,.44-.02-.6-.01-.5h0s.04,0,.04,0c1.75-.26,3.31-1.44,4.06-3.05.68-1.61.77-3.71,1.12-5.43h0ZM59.58,105.49c-.31,1.92-.08,3.69-.8,5.53-.72,1.73-2.37,3.03-4.21,3.38,0,0-.09.02-.09.02,0,0-.04,0-.04,0h0c0,.11-.02-.93,0-.49,2.46.24,4.59,2.3,4.88,4.77.12.89.38,3.24.48,4.16,0,0-.4,0-.4,0,0,0,0-.01,0-.01.3-1.66.33-3.95.95-5.53.75-1.78,2.5-3.07,4.42-3.27,0-.22,0,.3,0,.25-.03,0-.11-.02-.14-.03-1.81-.33-3.41-1.61-4.13-3.3-.66-1.53-.63-3.85-.89-5.48h0Z"/>
      <path d="M152.97,153.82c-7.34-4.27-14.15-9.74-18.74-16.96-.87-1.55-1.68-3.25-2.25-4.92-1.42-6-2.15-12.21-2.1-18.39.06-4.12.86-8.3,2.8-11.98,1.96-3.66,4.94-6.67,8.13-9.28,1.57-1.31,3.44-2.31,4.96-3.64,1.5-1.36,3.07-3.25,5.33-3.08,4.15,1.23-.27,8.9-1.49,11.27,0,0-.1-.31-.1-.31,1.3.71,2.36,1.73,3.15,2.95,2.08,3.1,1.69,7.08.41,10.4,0,0-.87,1.96-.87,1.96l-.21-.35c.97.06,1.92.43,2.59,1.18,1.78,2.47-.01,5.57-1.18,7.89.85,1.8,1.22,6.06.07,8.55-.5,1.42-1.8,2.3-2.52,3.58-.72,1.25-.78,2.73-.92,4.18-.41,5.76-.22,11.9,2.92,16.95h0ZM152.93,153.79c-3.65-5.55-3.64-12.73-2.96-19.14.17-1.99,1.6-3.24,2.68-4.74,1.69-2.79,1.29-6.39.35-9.38,1.25-2.69,3.84-8-1-8.55-.17,0-.29-.2-.21-.35,2.61-4.99,3.05-11.54-2.46-14.7-.11-.06-.16-.2-.1-.31,1.11-2.14,5.36-9.52,1.8-10.64-1.99-.16-3.6,1.7-4.99,2.96-1.58,1.38-3.4,2.32-5,3.65-6.87,5.31-10.9,12.14-10.88,20.97-.08,6.13.63,12.35,2.01,18.33.55,1.66,1.35,3.36,2.21,4.89,4.48,7.21,11.37,12.69,18.55,17.02h0Z"/>
      <path d="M152.93,153.8c2.26-2.21,5.41-4.34,8.54-4.31,3.81-3.02,9.46-5.92,14.1-3.05,2.44-.9,10.07-3.11,11.04,1.12.23,1.41-.24,2.78-.76,4.03l-.18-.21c3.75-.97,14.13-3.08,11.82,3.91,0,0-.2-.25-.2-.25,2.42-.3,7.67.06,5.16,3.67-.84,1.27-2.51,2.72-3.44,3.43-2.53,3.81-7.02,5.65-11.37,6.33-12.14,1.5-28.56-3.42-34.72-14.68h0ZM152.98,153.81c6.64,11.93,28.66,18.09,40.79,12.26,1.93-1.01,3.74-2.4,4.92-4.2,1.51-1.32,3.58-2.75,4.01-4.76.08-1.11-1.25-1.46-2.15-1.61-1.05-.16-2.14-.16-3.2-.07-.11,0-.2-.07-.21-.18,2.31-6.62-7.9-4.4-11.38-3.57-.12.04-.23-.09-.18-.21,3.62-8.1-5.45-6.33-10.13-4.85-4.56-2.84-10.14.02-13.91,2.96-3.29.03-6.24,2.05-8.56,4.23h0Z"/>
      <path d="M155.08,114.75c3.2-3.58,8.36-4.62,12.98-4.09,1.97.42,1.24,2.9.61,4.17,0,0-.17-.19-.17-.19,4.75-1.65,9.11-.3,9.91,5.1,0,0-.22-.17-.22-.17,1.59-.11,3.24.14,4.58,1.05,1.4.91,1.98,2.63,2.01,4.22,0,0-.11-.2-.11-.2,2.52,1.86,3.12,5.34,2.09,8.17.21.62-.06,2.67-.4,3.67-1.13,3.61-3.72,6.67-6.61,8.98,2.63-2.53,5.24-5.48,6.24-9.09.35-1.22.46-2.51.33-3.71.91-2.63.42-5.89-1.91-7.61-.28-.51-.1-1.63-.53-2.37-.55-1.41-1.95-2.26-3.39-2.56-.73-.16-1.5-.22-2.24-.16-.11,0-.2-.07-.22-.17-.5-3.51-2.66-5.7-6.32-5.49-1.05.05-2.11.24-3.1.59-.07.03-.15,0-.18-.08.44-1.2,1.45-3.44-.39-3.93-4.59-.65-9.77.55-12.95,3.87h0Z"/>
      <path d="M185.24,138.71c2.04-2.31,5.13-4.71,8.39-3.7,0,0-.09.04-.09.04,1.31-3.46,4.95-9.27,8.66-4.73,0,0-.24.07-.24.07.46-3.42,1.09-6.95,2.88-9.97,3.08-4.55,6.26-1.45,6.98,2.79,1.52,6.84.19,14.24-3.97,19.93-2.79,3.63-6.68,6.78-10.55,8.89,3.82-2.5,7.52-5.42,10.22-9.12,2.52-3.75,4.2-8.25,4.39-12.78,0-3.36-.06-6.98-1.65-10.01-.54-.94-1.5-1.7-2.63-1.49-3.84,1-4.87,8.39-5.42,11.8,0,.12-.17.16-.24.07-3.48-4.4-7.05,1.37-8.31,4.61-.02.04-.06.06-.1.04-.75-.24-1.56-.31-2.34-.2-2.4.35-4.44,2.23-5.99,3.76h0Z"/>
      <path d="M151.62,92.17c3.68-3.01,7.41-6.32,11.97-7.89,5.99-1.31,12.85-2.07,18.4,1.06.48.42.35,1.24-.2,1.52-.3.14-.51.13-.75.19-.42.09-1.67.33-2.12.42-1.77.35-6.62,1.31-8.46,1.67,0,0,.15-.36.15-.36.78,1.35,1.78,3.48.4,4.81-2.25,1.63-5.05,2.29-7.76,2.58,0,0,0-.45,0-.45.57.08,1.14.3,1.48.79,1.3,2.98-8.61,8.17-10.9,9.48,1.09-.78,2.35-1.42,3.46-2.21.86-.55,2.54-1.7,3.36-2.31,1.4-1.21,3.49-2.45,3.82-4.35.02-.58-.68-.88-1.26-.95-.26-.03-.26-.43,0-.45,2.59-.34,5.33-.97,7.47-2.5,1.13-1.14.17-2.97-.48-4.17-.1-.13-.02-.34.15-.37,0,0,5.67-1.06,5.67-1.06.9-.17,3.37-.63,4.25-.8.33-.07,1.07-.17,1.35-.28.33-.16.41-.69.13-.92-2.84-1.72-6.3-2.15-9.58-2.16-2.86.03-5.74.36-8.53,1.02-4.54,1.44-8.39,4.97-12.02,7.7h0Z"/>
      <path d="M161.49,101c2.09-.79,4.84-1.85,6.87-.36,1.69,1.83,1.62,4.82.35,6.86-.89,1.35-2.17,2.5-3.59,3.13,1.2-.99,2.42-2.04,3.16-3.39,1.1-1.87,1.36-4.65-.14-6.36-1.86-1.51-4.73-.37-6.66.12h0Z"/>
      <path d="M168.83,106.68c1.71-2.19,3.75-5.18,6.83-5.21,4.02.63,2.46,5.69-.47,6.77,0,0-.05-.47-.05-.47,4.46,1.26.96,5.23-1.47,6.53,1.7-1.44,5.32-4.95,1.37-6.04-.14-.03-.22-.17-.19-.3.02-.08.07-.14.14-.17,1.26-.57,2.33-1.68,2.65-3.04.41-1.4-.57-2.83-2.02-2.98-2.93-.08-5.09,3.07-6.79,4.91h0Z"/>
      <path d="M166.89,95.21c3.16,1.8,6.96,2.34,10.51,1.67,1.8-.39,4.42-1.17,4.57-3.3-.52-1.2-2.26-1.84-3.48-2.24-2.26-.78-4.91-.28-7.06.35,2.18-1.08,4.77-1.49,7.2-.83,1.2.34,2.34.9,3.29,1.76.21.21.5.52.52.92-.11,2.42-3.01,3.31-4.98,3.67-3.53.6-7.72-.04-10.57-1.99h0Z"/>
      <path d="M184.36,123.5c1.07-2.82,3.77-4.86,6.77-5.19,0,0-.04.01-.04.01.22-.16.35-.52.41-.84.48-2.47-1.48-4.87-.46-7.31.52-1.4,2.28-2.84,3.49-1.26,2.43,3.55,4.04,7.55,4.2,11.9.21,2.8.17,5.8-.9,8.4,1.1-4.08.6-8.4-.19-12.51-.57-2.7-2.05-5.2-3.44-7.56-.99-1.31-2.41.06-2.85,1.16-1,2.36.92,4.78.37,7.22-.09.35-.19.78-.58,1-3.01.21-5.64,2.42-6.79,4.97h0Z"/>
      <path d="M182.19,94.63c1.28-1.26,3.29-.69,4.61.2,1.43.84,2.35,2.35,3.76,3.15,1.48.72,3.25.77,4.54,1.92,2.25,1.51,1.53,4.64,3.39,6.43,4.42,3.77,7.02,9.86,5.74,15.63,0,.03-.05.02-.05,0,.77-5.81-1.75-11.46-6.02-15.32-1.87-1.79-1.09-4.91-3.26-6.48-1.24-1.14-3.01-1.21-4.46-1.96-1.45-.86-2.3-2.36-3.73-3.24-1.28-.9-3.22-1.5-4.49-.29-.02.03-.06,0-.04-.03h0Z"/>
      <path d="M180.92,86.86c1.27.15,2.66.32,3.68,1.17.35.29.48.78.47,1.21-.01,1.86-1.78,3.11-3.42,3.55,0,0-.04-.22-.04-.22,5.4-.34,14.64-.62,17.43,5.02.34.77.42,1.57.68,2.28.87,2.18,2.57,3.97,3.26,6.26,1.07,2.91,1.66,6.45.96,9.35.33-3.14-.17-6.31-1.36-9.2-.8-2.27-2.48-4.03-3.34-6.25-.27-.77-.36-1.57-.65-2.25-.56-1.42-1.79-2.47-3.15-3.17-4.24-2.04-9.19-2.08-13.81-1.82-.13.02-.17-.18-.04-.22.82-.22,1.61-.58,2.25-1.14.88-.75,1.6-2.35.69-3.32-.93-.89-2.56-.97-3.6-1.25h0Z"/>
      <path d="M141.95,69.26c-.92-2.63-4.64-2.51-6.63-1.22-2.17,1.37-3.79,3.51-5.18,5.64-2.76,4.36-4.74,9.2-5.96,14.2-2.9,10.17.77,20.68,5.84,29.51-5.67-8.54-9.29-19.43-6.22-29.61,1.73-6.59,5.97-17.15,12.32-20.32,1.95-.81,5.36-.52,5.83,1.79h0Z"/>
      <path d="M131.61,104.3c.17-4.29-.19-8.88,1.63-12.87,1.6-3.71,4.37-7.91,5.37-11.83,2.09-7.91,4.03-18.98,14.57-17.58,3.22.23,6.59.35,9.46,2.1,3.47,2.15,3.99,8.81,1.85,12.06-2.17,2.44-4.9,4.19-6.97,6.72-2,2.5-3.61,5.39-4.76,8.36.92-3.06,2.59-5.98,4.54-8.54,1.99-2.51,4.75-4.4,6.83-6.79,1.65-2.64,1.28-6.28.23-9.1-1.38-3.01-5-3.67-8.01-4.09-3.96-.43-9.11-1.11-11.74,2.57-3.38,3.98-4.38,9.44-5.75,14.36-.71,2.99-3,6.72-4.33,9.49-.75,1.55-1.65,3.08-2.05,4.76-.74,3.35-.66,7.11-.88,10.37h0Z"/>
      <path d="M165.21,73.93c3.77-2.17,10.03-5.93,13.9-2.24,1.01.96.89,2.58.22,3.7-1.95,3.23-5.08,5.62-7.94,7.95,1.69-1.8,3.59-3.48,5.27-5.3,1.15-1.29,2.59-2.75,2.75-4.54.02-.57-.21-1.11-.6-1.55-3.69-3.65-9.97.2-13.6,1.97h0Z"/>
      <path d="M176.68,78.37c3.87-1.99,11.27-5.24,13.67.29.26.63.76,1.15,1.36,1.48,2.78.89,5.24,3.25,5.77,6.23.61,2.9.01,5.94-.97,8.66.58-2.77,1.2-5.74.49-8.54-.5-2.44-2.2-4.53-4.47-5.53-1.04-.36-2.1-1.05-2.51-2.15-2.24-5.41-9.64-2.03-13.33-.43h0Z"/>
      <path d="M197.28,92.07c2.63-3.18,5.69-6.92,10.01-7.55,3.17-.36,4.44,2.89,3.74,5.54,0,0-.38-.14-.38-.14.81-1.49,2.42-2.95,4.25-2.42,3.28,1.26,2.72,6.32,3.39,9.14.18,1.62.42,3.48-.31,4.97.47-1.57.25-3.31-.03-4.91-.4-1.63-.45-3.31-.84-4.9-.41-2.34-1.81-5.1-4.51-3.44-.65.43-1.19,1.08-1.59,1.76-.11.2-.43.07-.37-.15,1.01-4.14-1.94-6.39-5.72-4.5-3.05,1.43-5.53,4.24-7.64,6.6h0Z"/>
      <path d="M214.11,104.29c.55-3.38-.17-6.76-.2-10.15.15-2.05.89-4.13,1.99-5.82-.62,1.91-1.31,3.84-1.49,5.85-.17,3.29.57,7.03-.3,10.12h0Z"/>
      <path d="M211.36,122.34c1.22-1.9,2.15-4.06,2.34-6.32.1-3.4-.63-6.84-.14-10.25.18-1.12.47-2.32,1.34-3.19,1.63-1.3,3.74-1.45,4.21.99.66,2.82.42,5.73.41,8.56.06,2.34-.68,4.59-1.51,6.71-1.94,4.15-4.06,8.2-5.9,12.37.73-2.13,1.68-4.27,2.6-6.35,1.81-4.09,4.33-8.15,4.31-12.74.04-2.85.33-5.7-.29-8.47-.39-2.19-2.19-1.93-3.62-.84-.78.76-1.1,1.9-1.27,2.99-.52,3.4.16,6.8,0,10.22-.25,2.22-1.21,4.68-2.49,6.31h0Z"/>
      <path d="M219.24,112.63c.91-3.86,3.37-8.82,6.05-2.66,0,0-.14-.01-.14-.01.63-.78,1.44-1.91,2.59-1.7.73.29.93,1.12,1.12,1.8.18,1.02.28,2.14.27,3.16-.07,2.74-.06,5.99-2.15,8.06,0,0,.04-.24.04-.24,2.6,3.24,2.4,7.91.25,11.3-2.93,5.13-6.49,10.12-11.33,13.63-1.65,1.16-3.58,1.8-5.46,2.39-3.79,1.12-7.69,2.05-11.56,2.66,5.59-1.51,11.77-2.3,16.74-5.44,4.72-3.5,8.28-8.4,11.23-13.44.99-1.68,1.7-3.54,1.68-5.49,0-1.92-.64-3.88-1.81-5.4-.06-.07-.04-.18.03-.24,2.37-2.54,2.1-6.61,1.99-9.88-.29-3.07-1.54-3.67-3.51-1.08-.04.05-.12.04-.14-.01-.37-.82-.77-1.65-1.38-2.29-2.5-2.4-3.94,3.45-4.52,4.89h0Z"/>
      <path d="M213.8,146.91c4.2-1.3,8.51-3.04,12.97-2.8.81.07,1.32.76,1.6,1.47.3.65.45,1.59-.2,2.17l-.03-.16c5.05,1.69,5.07,6.02,2.09,9.78-1.29,1.84-3.78,3.8-5.41,4.67-1.16,3.27-3.94,7.02-6.58,8.44-.95,3.07-3.62,5.45-6.75,6.1,0,0,.16-.15.16-.15-.88,2.01-2.95,2.95-4.88,3.59-5.85,1.64-12.29,1.66-17.88-.9-7.27-3.48-13.8-8.46-20.24-13.21,4.97,3.38,9.93,6.91,15.1,10.01,3.41,2.07,7.09,3.8,11.04,4.46,1.96.32,3.97.36,5.96.19,2.94-.32,6.03-.62,8.58-2.2.81-.52,1.6-1.23,1.92-2.07.37-.32,1.68-.46,2.3-.88,2.04-.99,3.64-2.89,4.34-5.04,3.01-2.02,5.38-5.02,6.65-8.43,2.69-1.73,5.31-3.81,6.77-6.74,1.73-3.34.31-6.28-3.2-7.43-.07-.02-.09-.12-.03-.16.81-.76.18-2.13-.39-2.89-1.38-1.06-3.69-.32-5.31-.12-2.87.51-5.91,1.58-8.56,2.32h0Z"/>
      <path d="M131.7,143.41c-3.63.37-7.17,1.91-9.73,4.53-4.75,5.11-5.72,14.36,3.68,13.55,1.42-.16,2.89-.57,3.95-1.49.15-.13.36.06.26.22-1.99,3.27-2.15,6.25,2.53,6.17,1.11-.09,2.31.41,2.93,1.39,1.58,2.64,1.74,6.51,5.25,7.35,3.02,1.07,6.99,2.14,9.59-.25.52-.57,1.04-1.24,1.57-1.79,1.43-1.57,3.46-2.55,4.6-4.35,1.44-2.74,2.05-6.21,1.23-9.23,1.09,2.98.43,6.57-.97,9.38-1.13,1.87-3.15,2.88-4.56,4.48-.52.56-1.04,1.25-1.55,1.83-1.82,1.83-4.63,1.85-6.98,1.32-6.93-1.57-5.94-2.98-8.53-8.47-1.1-2.04-3.84-.57-5.73-1.98-1.07-.58-1.21-1.99-.94-3.04.26-1.07.72-2.05,1.29-2.97l.26.22c-2.39,1.84-5.8,2.03-8.54.94-4.77-2.01-3.17-8.3-.81-11.64,2.42-3.64,7.07-5.95,11.22-6.15h0Z"/>
      <path d="M158.02,162c2.97,2.53,4.54,6.35,5.1,10.14.67,3.77,2.03,7.49,4.42,10.5,1.19,1.52,2.85,2.69,3.66,4.47,1.77,3.46,2.76,7.29,3.01,11.16.1,1.94-.02,3.92-.67,5.79l-.42-.16c1.06-2.96,3.9-9.52,4.7-12.45,2.14-7.13.92-14.99-3.07-21.22,3.49,4.82,5.01,11.03,4.39,16.96-.4,5.26-3.81,11.96-5.6,16.88-.1.26-.52.12-.42-.16,1.22-3.62.71-7.63-.19-11.28-.77-2.71-1.68-5.6-3.63-7.68-.72-.66-1.38-1.37-1.97-2.14-2.4-3.07-3.73-6.84-4.37-10.64-.47-3.79-2.2-7.67-4.94-10.17h0Z"/>
      <path d="M164.59,100.12c2.28-1.55,12.12-5.34,12.19-.28-.07.7-.39,1.31-.76,1.85-.02.02-.06,0-.04-.02,1.57-3.35-1.11-4.13-3.98-3.85-2.57.21-5.21,1.35-7.42,2.3h0Z"/>
      <path d="M176.36,100.89c6.08-.66,14.39.92,16.01,7.82,0,.03-.04.04-.05.01-2.43-6.38-9.96-8.12-15.96-7.83h0Z"/>
      <path d="M177.09,106.38c3.24-3.49,7.23-3.74,9.78.64,1.44,4.12,1.94,8.9.23,12.98,1.01-4.15.67-8.85-.58-12.81-2.52-4.45-6.16-3.85-9.44-.81h0Z"/>
      <path d="M181.41,120.17c-.04-1.71,0-3.41.23-5.12.22-1.26.36-2.69,1.33-3.65.37-.33,1-.35,1.39-.13,2.86,1.59,2.25,7.07,1.59,9.77,0,.03-.05.02-.05,0,.24-1.92.61-10.5-2.71-9.35-.89.85-1.07,2.23-1.31,3.4-.33,1.62-.3,3.58-.47,5.08h0Z"/>
      <path d="M175.35,112.86c2.75-.85,7.23-.76,6.29,3.33,0,.03-.05.02-.05,0-.23-3.91-3.41-3.6-6.24-3.32h0Z"/>
      <path d="M64.13,32.56c-1.08.59-2.48.26-3.44,1.09-.95.77-1.38,2-1.61,3.17-.31,2.41-.74,4.82-1.2,7.21-1.04,7.13,2.55,14.95,8.57,18.88,4.21,2.56,9.59,2.08,13.84,4.56,1.04.7,1.71,1.75,2.66,2.54.9.79,1.89,1.52,2.97,1.99l-.27.18c.02-2.57.1-5.14.37-7.71.55-5.02,3.34-9.82,2.98-14.97-.72-4.28-1.64-8.97-4.63-12.29-2.02-2.45-4.41-4.69-7.44-5.78-1.18-.45-2.45-.73-3.65-1.21-1.21-.44-2.35-1.08-3.46-1.71-.56-.34-1.26-.16-1.5.46-.19.59-.35,1.27-.8,1.74-.42.53-1.07.75-1.64,1.01,0,0-1.75.8-1.75.8h0ZM64.11,32.51s1.74-.83,1.74-.83c.89-.36,1.74-.87,2.07-1.82.13-.29.15-.61.28-.92.23-.68,1.1-.94,1.69-.56,2.23,1.36,4.65,2.05,7.13,2.8,2.45.86,4.61,2.45,6.36,4.33,3.94,3.58,5.38,8.84,6.11,13.95.12,3.94-.99,7.71-2.3,11.35-1.08,3.65-1.03,7.6-1.15,11.38,0,.1-.09.19-.19.19-1.2-.47-2.21-1.27-3.15-2.09-.93-.77-1.61-1.85-2.6-2.52-4.23-2.46-9.57-2.01-13.79-4.61-6.1-4-9.63-11.93-8.53-19.14.47-2.4.9-4.79,1.22-7.21.23-1.18.67-2.42,1.65-3.21.97-.84,2.37-.51,3.46-1.09h0Z"/>
      <path d="M68.88,28.35c-.99,3.68,7.24,5.05,9.31,7.55,1.62,1.42,2.69,3.31,3.78,5.12,1.08,1.81,2.22,3.65,2.76,5.74.57,2.08.49,4.24.6,6.35.16,4.07.57,14.87.73,19.07.01.18-.24.3-.36.14-2.56-3.06-5.02-6.21-7.03-9.68-.86-1.53-1.71-3.18-1.84-4.97-.16-4.08.21-8.64-2-12.23-2.4-3.06-5.94-5.68-6.97-9.6-.25-2-.13-4,.08-5.97.01,1.8-.21,4.03.14,5.94,1.12,3.86,4.64,6.37,7.08,9.4,2.24,3.47,2.03,7.76,2.16,11.7-.12,1.97.85,3.76,1.78,5.48,1.97,3.43,4.38,6.61,6.91,9.66,0,0-.36.14-.36.14l-.41-12.72-.2-6.36c-.1-2.12,0-4.26-.55-6.29-.52-2.04-1.62-3.88-2.69-5.7-1.08-1.82-2.12-3.69-3.71-5.11-1.55-1.46-3.52-2.31-5.43-3.23-1.64-.79-4.63-2.35-3.78-4.43h0Z"/>
      <path d="M63.44,32.81c-2.55,2.33-2.01,6.03-1.68,9.12.6,5.56,2.7,11.06,5.99,15.59,1.53,1.75,3.04,3.93,4.86,5.37,1.22,1.07,2.53,2.11,3.68,3.22-1.32-.9-2.61-1.97-3.9-2.95-1.93-1.4-3.48-3.53-5.02-5.32-3.34-4.6-5.31-10.24-5.86-15.88-.29-3.04-.7-7.16,1.92-9.15h0Z"/>
      <path d="M62.36,34.12c1.04,1.36,2.16,2.71,3.56,3.69.46.27,1.04.57,1.45,1,.88.86,1.28,2.01,2.16,2.6.89.65,2.09.92,3.14,1.31-1.15,0-2.35-.3-3.42-.9-1.06-.64-1.39-1.89-2.17-2.74-.79-.77-1.93-1.29-2.65-2.19-.71-.85-1.68-1.9-2.08-2.78h0Z"/>
      <path d="M64.71,32.27c.71,2.42,1.63,4.8,2.8,7.01-1.13-.69-1.59-2.09-1.96-3.29-.32-1.18-.81-2.63-.84-3.72h0Z"/>
      <path d="M96.34,39.24c5.38,7.82-1.12,16.51-5.65,23.01-1.8,2.17-3.32,4.6-4.12,7.23,0,0-.56,2.74-.56,2.74,0,0-.31-.09-.31-.09,1.15-2.92,2.57-5.78,4.59-8.22,1.96-2.43,4.8-4.09,6.12-6.99,2.25-5.33,4.09-12.74-.24-17.48,0,0,.35-.3.35-.3,2.47,4.2.22,9.45-2.8,12.72-.65.66-1.5,1.03-2.15,1.7-1.33,1.17-2.51,2.89-3.6,4.11,1.53-2.28,3.33-4.36,5.56-5.99,2.85-3.17,5-8.32,2.59-12.29-.17-.21.16-.5.35-.3,4.61,4.88,2.73,12.53.35,18.04-1.35,2.93-4.25,4.62-6.23,7.03-2,2.38-3.42,5.2-4.58,8.1-.06.18-.36.1-.31-.09,0,0,.58-2.74.58-2.74.84-2.74,2.4-5.15,4.22-7.32,2.5-3.38,4.81-6.96,6.59-10.77,1.82-3.83,1.5-8.65-.73-12.08h0Z"/>
      <path d="M48.67,72.95c.43.69,1.36.97,2.12,1.18,2.47.57,5.04.44,7.55.3,3.58.21,7.1,1.1,10.59,1.78,2.41.37,4.66-.52,6.85-1.44,1.12-.49,2.41-.51,3.6-.3,2.38.39,4.68,1.05,6.97,1.76l-.2.32c-1.23-1.18-2.51-2.32-3.84-3.39-2.63-2.16-5.5-4.08-8.99-4.33-3.24-.27-7-.67-9.9,1.01-2.61,2.34-6.25,2.92-9.64,3.25-1.7.12-3.48.24-5.12-.15h0ZM48.64,72.91c3.41.46,6.86-.17,10.15-.98,1.73-.4,3.04-1.32,4.41-2.43,3.5-2.23,11.61-1.67,15.17.34,3,1.74,5.57,4.05,8.06,6.44.14.14,0,.39-.2.32-2.26-.72-4.56-1.4-6.9-1.8-1.17-.21-2.32-.22-3.44.26-2.19.9-4.57,1.79-6.99,1.4-3.5-.71-7.01-1.64-10.55-1.89-2.92.09-6.02.35-8.78-.81-.37-.2-.77-.4-.94-.86h0Z"/>
      <path d="M105.43,128.01c-2.21-2.52-5.53-5.63-7.42-8.35-2.15-3.11-2.4-7.05-4.31-10.29-3.42-6.68-9.86-11.39-17.01-13.4-2.38-1.04-4.74-2.1-7.07-3.24,0,0-.85-.43-.85-.43.01,0,.01,0,0-.01,0,0,.31.31.31.31,1.34,1.35,2.77,2.81,3.94,4.31,1.67,2.04,2.06,4.74,3.32,7.02,3.2,7.02,8.88,12.79,15.7,16.37,4.65,2.23,9.13,4.93,13.4,7.74h0ZM105.46,128.05c-4.49-2.65-8.89-5.29-13.59-7.46-6.96-3.5-12.78-9.35-15.99-16.47-1.25-2.25-1.6-4.94-3.22-6.95-1.13-1.47-2.56-2.96-3.87-4.29-.12-.13-.2-.19-.37-.38-.21-.31.15-.72.48-.57l.88.45c2.27,1.14,4.75,2.26,6.99,3.26,7.21,2.07,13.71,6.88,17.11,13.64,1.88,3.26,2.11,7.2,4.23,10.32,1.85,2.68,5.2,5.94,7.35,8.46h0Z"/>
      <path d="M88.75,66.4c.07,3.2.59,6.41,1.64,9.43,0,0,3.34,9.03,3.34,9.03-.09.05,6.96,18.21,6.56,18.08-.36-4.06-.68-8.13-.81-12.2,0-2.02-.25-4.17.58-6.06,1.55-3.77,3.97-7.15,5.09-11.09,1.19-3.89,1.93-7.98,3.99-11.55,2.37-3.35,6.1-5.46,9.51-7.61,1.76-1.04,3.59-1.94,5.15-3.24.7-.63,1.6-1.37,1.6-2.36-.24-1.54-2.21-2.12-2.65-3.61-.08-.28.03-.58.04-.8.06-.77-.2-1.55.16-2.3,1.28-2.24,3.63-3.63,5.45-5.37.77-.65,1.5-1.32,1.73-2.35.93-2.93-.37-6.27,1.36-8.99,1.05-1.78,2.79-3.19,4.83-3.67.08-.02.16.03.17.11.01.06-.02.12-.07.15-.89.54-1.75,1.17-2.48,1.91-2.71,2.34-.44,6.05-1.72,8.97-.58,1.47-1.07,3.08-2.23,4.24-1.28.95-2.71,1.66-3.82,2.8-2.14,2.05-1.62,4.82-.03,7,1.39,2.56-.51,5.35-2.12,7.34-3.66,3.84-9.87,4.23-12.96,8.79-.63.83-.91,1.83-1.24,2.84-1.35,4.02-2.29,8.11-2.66,12.34-.23,2.15-1.6,3.9-2.28,5.92-.69,1.97-1.46,3.96-1.67,6.05-.49,6.25-1.66,12.69-.3,18.87.81,4.14,1.79,8.25,2.69,12.38,2.6,12.41,6.24,24.6,8.04,37.18.94,4.11.24,8.64,2.6,12.2,1.82,2.53,3.22,5.96,2.05,9.11-.29,1.05-.93,1.96-1,2.94-.07,1.01.1,2.12.05,3.14-.06.98.67,1.82,1.22,2.71.58.89,1.16,1.79,1.55,2.82.36,1.06.29,2.09.54,3.17.32,1.66-.69,3.27-1.78,4.42-1.17,1.03.02,2.22.78,3.07,1.12.91,1.04,2.64.65,3.9-.06.23-.44.16-.41-.08.04-.63.07-1.3-.02-1.93-.03-.22-.1-.41-.18-.46-1.45-1.01-3.15-2.8-2.01-4.66.46-.79,1.25-1.26,1.59-2.11.35-.78.4-1.66.21-2.5-.4-1.7-1.1-3.37-2.27-4.69-.54-.72-1.03-1.49-1.35-2.35-.48-1.74-.24-3.65.19-5.39.43-.8.58-1.65.74-2.53.17-1.29.51-2.63.14-3.91-.57-2.12-1.4-4.24-2.9-5.89-1.14-1.47-1.23-3.4-1.27-5.18.15-1.84-.12-3.49-.71-5.22,0,0-1.45-5.15-1.45-5.15-.89-3.44-1.55-6.99-1.82-10.53-.95-4.32-2.42-8.61-4.45-12.54-.97-1.48-3.64-4.98-4.75-6.45-.02-.02.02-.06.04-.03,0,0,3.23,4.26,3.23,4.26,3.26,4.22,4.79,9.63,6.06,14.74.28,3.55.96,7.07,1.86,10.5,0,0,1.47,5.14,1.47,5.14.62,1.84.89,3.32.74,5.28.04,1.72.14,3.62,1.23,5.02,1.72,2.03,2.95,4.68,3.15,7.34-.14,1.78-.27,3.63-1.04,5.26-.4,1.6-.62,3.58-.17,5.17.59,1.7,2.08,2.88,2.78,4.53.72,1.63,1.46,3.54.67,5.29-.32.85-1.16,1.41-1.6,2.15-.39.71-.46,1.63.07,2.32.45.71,1.22,1.33,1.83,1.8.31.25.3.51.37.73.11.68.08,1.35.04,2.04,0,0-.41-.08-.41-.08.28-.94.35-2.08-.08-2.92-.66-.82-2.34-2.15-1.79-3.53,1.01-1.44,2.56-2.83,2.15-4.76-.23-.98-.21-2.13-.53-3.07-.55-1.46-1.58-2.7-2.37-4.07-.63-.95-.39-2.13-.47-3.2-.11-1.04-.07-2.25.44-3.21,1.84-3.41.78-7.17-1.43-10.16-2.38-3.7-1.76-8.25-2.65-12.37-.69-4.16-1.46-8.33-2.21-12.47-2.96-12.33-5.96-24.65-8.46-37.09-.99-4.16-.58-8.46-.28-12.68.3-4.23.6-8.51,2.29-12.46.38-.99.78-1.99,1.32-2.91,1.01-1.83,1.09-4.02,1.32-6.07.38-3.17,1.4-6.21,2.32-9.25.32-.99.63-2.07,1.29-2.94,3.67-5.43,11.99-5.16,14.73-11.39.77-1.41,1.15-2.93.34-4.37-2.8-3.88-1.26-7.08,2.65-9.31,2.04-.86,2.68-3.06,3.44-4.98.43-.95.39-2.01.39-3.06-.01-1.05-.07-2.11-.07-3.17.01-1.15.73-2.1,1.47-2.84.76-.76,1.62-1.39,2.54-1.95,0,0,.1.27.1.27-1.93.44-3.64,1.82-4.64,3.52-1.15,1.79-.9,3.84-.93,5.87-.09,1.51-.14,3.2-1.11,4.47-2.05,2.22-4.95,3.73-6.51,6.33-.34.7-.07,1.47-.15,2.23-.03.28-.12.5-.05.72.64,1.78,4,2.86,2.06,5.12-3.1,3.27-7.87,4.79-11.39,7.69-1.59,1.22-3.27,2.48-4.35,4.19-2.04,3.53-2.8,7.62-3.99,11.49-1.12,3.94-3.56,7.33-5.11,11.1-.82,1.88-.56,4-.58,6,.12,4.07.43,8.14.78,12.19-.22.41-6.65-18.07-6.76-18.04,0,0-3.32-9.03-3.32-9.03-1-2.99-1.67-6.45-1.58-9.46h0Z"/>
      <path d="M105.42,128.03c-.9-4.52-2.06-8.99-3.16-13.46-.88-4.55-3.08-8.63-4.72-12.97-3.23-8.62-6.39-17.32-11.27-25.17-.02-.03.02-.05.04-.03,5.31,7.59,8.53,16.38,11.6,25.07,1.57,4.29,3.75,8.47,4.58,13.04.98,4.45,2.27,9.16,2.92,13.52h0Z"/>
      <path d="M83.73,74.09c-1.57-2.89-4.35-4.93-6.11-7.64,1.35.94,2.47,2.21,3.47,3.51.93,1.26,2.23,2.75,2.64,4.13h0Z"/>
      <path d="M142.52,176.03l-6.35,8.45c-2.08,2.85-2.83,6.44-3.91,9.75-2.26,6.73-2.36,13.87-2.69,20.89-.63,7.03.29,14.07.88,21.08.75,7,2.79,13.83,4.34,20.66,2.21,6.2,6.65,21.5,9.89,27.11,1.48,2.85,3.11,5.62,4.91,8.27,0,0-.1.04-.1.04-.29-2.33-.57-4.66-.78-6.99-.37-4.68.08-9.39.55-14.05.75-4.64,2.14-9.14,3.49-13.63,1.31-3.84,3.63-9.27,5.17-13.09.85-2.18,1.7-4.37,2.24-6.65.89-3.39.71-7.07,2.18-10.31,1.63-3.12,3.78-5.93,5.49-9.02,1.9-2.98,4.36-5.55,7.02-7.86.81-.87,1.94-1.35,3.02-1.77,4.17-2.16,6.67-6.78,11.34-8.16,2.18-.76,4.82-1.01,6.94-.57,3.2-.68,6.74-1.64,9.89-.4,1.02.48,1.92,1.21,2.52,2.18l-.08-.04c.99-.07,2,.04,2.95.34,2.77,1.05,5.51,2.17,8.49,2.44,3.96.33,7.86,2.68,9.2,6.55.03.08-.08.15-.14.09-1.88-1.56-4.28-2.33-6.58-3.07-2.31-.98-4.81-.7-7.18-.16-1.18.29-2.36.69-3.31,1.43-.84.85-1.69,1.77-2.59,2.59-1.79,1.68-3.65,3.28-5.6,4.77-1.83,1.63-4.43,2.22-5.95,4.2-4.23,6.26-11.28,9.36-17.87,12.51-13.62,5.09-14.99,3.21-22.4,16.84-2.31,4.31-3.47,9.15-4.88,13.81-1.45,4.68-2.08,9.57-2.15,14.46,0,0-.22-.04-.22-.04,1.14-3.3,2.24-6.61,3.63-9.82,2.78-5.11,6.41-9.73,10.13-14.18,3.05-3.5,5.9-7.28,9.73-9.98,3.84-2.64,8.32-4.42,12.94-5.02,2.36-.17,4.68.38,6.89,1.11,1.74.57,4.76,1.85,6.67,1.8,2.27.1,4.72-.41,6.33-2.07.82-.84,1.82-1.53,2.93-1.94,5.47-2.23,8.36,1.79,12.65,4.15,1.03.45,2.25.46,3.35.91,4.57,1.5,7.84,5.62,8.36,10.39.03.14-.19.21-.25.08-.91-1.71-2.21-3.22-3.58-4.62-2.72-3.05-6.92-3.41-10.73-3.93-4.8-.92-9.8-.57-14.63-.06-4.93,1.04-7.75,5.79-12.18,7.98-2.46,1.43-5.57,2.29-8.3,3.09-.93.3-1.91.63-2.9.64-9.89-.21-14.1-2.52-21.11,6.26,0,0-1.93,2.23-1.93,2.23-1.87,2.26-3.01,5.03-4.1,7.73-1.37,3.67-2.85,7.34-2.58,11.34.03,3.92.21,7.86.6,11.75.14.94.53,1.86.86,2.77,3.96,10.07,9.35,19.47,14.07,29.17,3.57,7.03,6.01,14.58,7.65,22.28.84,3.84,1.69,7.7,1.89,11.66.02.19-.28.24-.33.06-2.52-7.22-7.05-22.71-10.6-29.17-4.17-8.96-9.28-19.08-13.93-27.78-2.98-6.31-7.03-11.83-11.15-17.39.05.06-7.02-8.02-7.01-8.01-2.17-2.32-4.79-5.84-7.16-7.84-2.06-1.67-4.44-2.9-6.81-4.07-5.54-3.01-12.11-2.24-18.2-2.77-3.55-.36-7.06-.96-10.51-1.89-1.76-.51-3.12-1.81-4.48-2.96-1.32-1.21-2.61-2.43-3.7-3.89-1.05-1.35-2.75-2.17-4.25-2.98-3.08-1.95-6.75-1.64-10.27-1.51-.11.01-.21-.07-.22-.19.96-1.05,2.85-1.17,4.17-1.28,4.21-.24,8.33.98,12.49.95,11.71-.36,22.27,1.19,31.25,9.4,4.02,3.87,8.4,7.28,12.84,10.64l-.32.23c-1.46-3.16-3.68-6.03-5.66-8.91-1.79-2.45-4.6-5.96-6.53-8.37-1.97-2.43-4.68-5.92-6.89-8.04-2.65-2.31-5.63-4.26-8.59-6.19-.24-.16-.5-.18-.77-.09-.54.18-1.12.26-1.67.33-4.41.35-9.02.56-13.24-1-2.54-.91-4.75-2.53-6.74-4.32-2.11-1.67-3.76-3.95-4.54-6.54-.95-3.44-2.44-6.6-4.82-9.27-4.76-4-3.23-4.97,2.51-4.73,0,0-.2.33-.2.33-.79-1.58-2.86-5.25-.94-6.47,2.42-1.05,5.13-.76,7.69-.72,0,0-.2.34-.2.34-.69-1.04-1.57-2.84-.22-3.75,6.58-1.84,15.15,1.61,20.36,5.63,4.71,4.49,7.53,10.84,8.69,17.17.14,3.49-1.71,7.24,0,10.53,2.83,4.96,6.56,9.42,10.11,13.89,0,0-.4.18-.4.18-.39-2.22-.85-4.71-1.33-6.93-.76-2.31-.56-4.77.09-7.07.53-1.47.94-2.97,1.08-4.53.01-.13.12-.22.25-.21,1.79,1.73,3.01,4.23,3.38,6.73.37,2.51-.34,5.01-1.07,7.32-.72,2.61,0,5.44.91,7.92,2.73,3.69,5.75,7.25,7.69,11.46,3.57,6.42,8.61,11.93,13.54,17.33,0,0-.37.29-.37.29-1.9-3.9-3.05-8.06-4.45-12.15-4.17-12.22-6.39-24.98-10.94-37.07-4.61-9.14-9.4-18.56-13.86-27.91-1.92-4.88-5.21-8.9-9.14-12.32-.35-.31-.69-.69-1.03-1.01-.62-.47-1.35-.8-2.08-1.11-2.37-.96-4.9-1.67-7.45-1.9-1.26-.01-2.65-.21-3.89-.57-4.06-1.22-8.21-2.57-11.66-5.1-3.26-3.68-7.9-5.6-11.91-8.33-3.31-2.71-5.28-6.63-7.75-9.99-1.74-1.39-3.91-2.22-5.93-3.15-2.35-.95-4.8-2.09-7.28-2.51-2.53-.03-5.06.96-7.38,1.92-.19.11-.41-.17-.26-.33,1.25-1.6,3.05-2.6,4.86-3.33,3.67-1.42,7.62-1.9,11.52-2.17,1.84-.06,4.09-.33,5.88-.01,3.97.38,7.41,2.36,11.14,3.53,14.65,3.39,20.74,4.33,27,19.27,3.87,6.74,8.54,13.04,13.04,19.38,0,0-.3.15-.3.15-1.15-3.49-2.25-6.99-3.3-10.51-1.08-3.5-1.91-7.11-2.61-10.69-1.33-5.16-3.55-10.8-8.42-13.52-3.19-1.8-6.73-3.03-9.61-5.37-2.81-2.44-4.53-5.85-5.9-9.24-.72-1.7-1.11-3.51-2.24-4.97-1.29-1.88-2.72-3.68-4.21-5.41-1.48-1.84-4.07-1.86-6.09-2.86-2.32-1.54-5.11-1.84-7.84-2.06-.12,0-.17-.18-.06-.23,1.32-.65,2.77-.4,4.16-.3,4.16.4,8.05,1.95,12.16,2.65,5.44.97,10.88,2.25,15.96,4.48,9.22,3.99,12.98,14.45,15.71,23.39.8,4.11.17,8.32-.55,12.39-.78,2.71-.03,5.47.62,8.13,4.12,16.08,12.79,30.89,19.86,45.5-1.15-9.82.31-19.78,1.57-29.53,1.08-9.9,5.28-19.04,9.93-27.74.01-.03.06,0,.04.02-3.41,6.54-6.75,13.25-8.58,20.44-1.98,9.67-3.02,19.55-3.27,29.41-.09,2.48.13,5.04.37,7.44-2.64-4.83-5.09-9.87-7.61-14.8-5.06-9.84-9.6-19.98-12.47-30.7-.7-2.67-1.36-5.47-.63-8.21,1.03-5.4,1.6-11.11-.72-16.26-2.07-5.8-4.59-11.72-9.18-15.98-1.54-1.38-3.28-2.52-5.19-3.31-6.33-2.89-13.26-3.8-19.98-5.33-2.64-.79-5.34-1.43-8.08-1.75-1.32-.11-2.8-.31-4,.27,0,0-.06-.23-.06-.23,2.73.22,5.6.52,7.93,2.08,2.01.98,4.69,1.06,6.18,2.92,0,0,.9,1.05.9,1.05,1.67,2.16,3.65,4.25,4.65,6.83,1.54,4.23,3.33,8.67,6.8,11.7,4.18,3.53,10.45,4.31,13.71,8.98,3.42,4.48,4.48,10.07,5.59,15.43,1.37,5.32,3.06,10.56,4.77,15.79.08.19-.2.3-.3.15-4.52-6.37-9.18-12.63-13.08-19.41-2.96-7.17-7.49-14.16-15.46-16.15-3.69-1.23-7.53-1.9-11.32-2.9-3.7-1.14-7.16-3.15-11.09-3.51-3.82-.38-7.78.13-11.58.68-3.69.69-7.79,1.69-10.27,4.69,0,0-.26-.33-.26-.33,2.43-1,4.91-2,7.59-1.97,3.88.76,7.43,2.51,10.98,4.19,1.13.61,2.49,1.22,3.15,2.39,2.13,3.22,4.13,6.64,7.1,9.14,3.21,2.12,6.77,3.88,9.82,6.32.75.54,1.54,1.33,2.13,2.03,1.21,1.02,2.71,1.66,4.15,2.35,2.95,1.27,6,2.47,9.17,3.03,3.89.22,7.87,1.04,11.3,2.98.59.37.97.88,1.48,1.33,3.94,3.42,7.33,7.58,9.25,12.47,4.48,9.38,9.2,18.66,13.87,27.95,3,8.07,5.13,16.44,7.21,24.76,2.44,8.18,4.69,16.55,8.12,24.37.08.11.04.27-.08.34-.1.06-.22.03-.29-.04-3.36-3.6-6.59-7.31-9.57-11.24-3.13-3.81-4.92-8.51-7.82-12.48-1.27-1.95-3.07-3.54-4.12-5.62-.75-2.5-1.5-5.21-.74-7.81.73-2.32,1.41-4.7,1.06-7.13-.31-2.4-1.52-4.59-3.11-6.41,0,0,.4-.13.4-.13-.25,3.12-1.96,6.01-1.66,9.19.17,1.37.73,3.21.95,4.58.3,1.54.58,3.09.85,4.64.02.12-.06.24-.18.26-.08.01-.17-.02-.22-.08-1.82-2.23-3.6-4.49-5.32-6.79-1.71-2.32-3.44-4.62-4.83-7.18-1.78-3.37.05-7.18-.05-10.69-1.15-6.21-3.92-12.48-8.54-16.89-1.05-.96-2.27-1.67-3.54-2.33-4.97-2.53-10.78-4.74-16.37-3.22-.85.71-.17,2.23.43,3.1.11.15-.03.35-.2.34-2.33-.08-4.84-.22-7.06.48-2.26.73.08,4.7.72,6.06.09.15-.04.34-.2.33-1.54-.02-3.4-.19-4.77.49-.13.11-.18.17-.13.32.47,1.34,1.71,2.28,2.74,3.2,1.16,1.37,2.18,2.83,3.03,4.42,1.65,3.13,1.88,6.91,4.38,9.55,3.59,3.82,8.25,6.9,13.63,7.16,3.27.14,6.68.26,9.88-.52.26-.02.55.06.75.21,2.98,1.93,5.95,3.88,8.65,6.23,2.25,2.17,4.93,5.66,6.94,8.09,4.4,5.55,8.96,11.02,12.25,17.41.05.1.01.22-.09.27-.08.04-.17.02-.23-.03-4.44-3.35-8.86-6.8-12.86-10.66-8.91-8.15-19.34-9.65-30.98-9.3-2.81.06-5.57-.57-8.32-.81-2.65-.18-5.68-.56-8.01.89,0,0-.13-.36-.13-.36,2.67-.08,5.43-.35,8.02.46,1.67.65,3.27,1.45,4.79,2.42.74.5,1.51,1.01,2.06,1.78,1.04,1.38,2.34,2.63,3.64,3.82,1.31,1.12,2.65,2.39,4.33,2.88,1.7.48,3.44.83,5.18,1.15,6.98,1.5,14.28.31,21.16,2.41,4.91,2.09,9.76,4.78,13.01,9.13,2.3,2.66,8.17,9.32,10.52,12.03,2.05,2.79,4.08,5.59,6.04,8.44,1.87,2.55,3.69,6.2,5.15,9.01,2.65,5.15,7.03,13.21,9.45,18.44,2.45,5.31,6.69,13.34,8.54,18.89,0,0,6.53,19.67,6.53,19.67,0,0-.33.06-.33.06-.2-3.9-1.05-7.76-1.88-11.59-1.63-7.65-4.07-15.22-7.61-22.2-4.3-8.86-9.16-17.4-12.95-26.48-.74-1.84-1.63-3.6-2-5.58-.39-3.93-.57-7.85-.59-11.79-.28-4.01,1.23-7.76,2.61-11.45,1.1-2.73,2.26-5.53,4.15-7.82,8.9-10.88,10.38-9.07,23.25-8.58.99-.01,1.89-.33,2.83-.63,2.69-.8,5.8-1.64,8.24-3.06,3.48-1.82,6.02-4.98,9.46-7,3.56-1.82,7.77-1.27,11.65-1.5,1.97-.04,3.96.18,5.88.56,2.89.42,5.96.65,8.57,2.15,2.51,1.6,4.45,3.98,5.94,6.54,0,0-.26.07-.26.07-.31-2.26-1.16-4.5-2.57-6.31-1.38-1.85-3.5-3-5.61-3.85-4.93-.16-7.75-5.46-12.45-5.69-2.29.04-4.61.8-6.21,2.5-2.59,2.55-6.73,2.6-9.97,1.47-3.2-1.1-6.68-2.51-10.08-2.24-6.88.9-13.42,4.35-17.93,9.64-5.37,6.05-10.75,12.28-14.68,19.38-1.38,3.19-2.49,6.51-3.62,9.79-.03.12-.23.09-.22-.04-.05-7.42,1.98-14.58,4.3-21.56,1.38-4.74,3.85-9.02,6.56-13.12,1.4-2,2.85-4.1,4.99-5.38,4.36-2.33,9.21-3.4,13.73-5.23,4.37-2.17,8.93-4.12,12.81-7.09,1.92-1.51,3.46-3.43,4.98-5.35,1.53-2,4.13-2.59,5.98-4.23,1.95-1.48,3.8-3.08,5.59-4.76.91-.83,1.72-1.71,2.6-2.6,2.03-1.46,4.61-1.82,7.04-1.96,1.46-.1,2.31.31,3.62.67,1.17.36,2.34.76,3.47,1.24,1.12.49,2.24,1.05,3.18,1.87l-.14.09c-.98-2.77-3.4-4.93-6.18-5.83-2.84-.8-5.88-.8-8.63-2-1.84-.78-3.72-1.53-5.73-1.43-2.67-4.1-8.28-2.55-12.26-1.72-4.62-.87-9.5.96-12.72,4.32-1.68,1.62-3.37,3.31-5.49,4.39-2.28.72-3.87,2.53-5.56,4.14-2.54,2.46-4.51,5.38-6.23,8.45-1.8,2.98-4.23,5.75-4.68,9.32-.42,2.3-.62,4.65-1.17,6.94-.88,4.01-3.43,9.32-4.9,13.19-2.74,6.46-4.76,13.27-6.01,20.17-.47,4.65-.92,9.36-.56,14.03.21,2.33.48,4.66.77,6.99.01.05-.07.08-.1.04-3.56-5.34-6.66-11.04-8.71-17.13,0,0-6.08-18.28-6.08-18.28-1.25-5.14-2.49-10.28-3.55-15.46-1.05-5.18-1.19-10.5-1.65-15.76-.31-3.52-.27-7.05,0-10.56.33-7.01.43-14.17,2.7-20.9,1.08-3.31,1.83-6.91,3.92-9.77.04.03,6.37-8.63,6.39-8.42h0Z"/>
      <path d="M100.46,240.1c2.19-.36,4.03-1.84,5.46-3.47,0,0,.07.13.07.13-1.82.33-3.68.47-5.52.09-1.78-.55-3.42-1.4-5.04-2.28-3.2-1.83-6.42-3.75-8.92-6.52-2.32-2.96-3.3-6.66-4.14-10.24-.43-1.77-.43-3.67-.98-5.4-.57-1.72-1.8-3.24-3.34-4.2,1.67.74,2.97,2.36,3.62,4.1.62,1.76.66,3.62,1.15,5.4.9,3.47,1.84,7.17,4.04,10.05,2.39,2.73,5.61,4.7,8.73,6.53,1.6.89,3.23,1.76,4.96,2.31,1.75.39,3.64.3,5.43,0,.07-.02.13.08.07.13-1.41,1.56-3.54,3.27-5.58,3.37h0Z"/>
      <path d="M208.5,202.04c-20.64,6.27-37.94,23.39-48.6,41.71-.75,1.25-1.42,2.6-2.11,3.86,1.09-2.68,2.61-5.25,4.04-7.79,10.46-16.79,27.47-32.43,46.67-37.77h0Z"/>
      <path d="M229.03,211.3c-2.26-3.42-6.7-4.32-10.51-4.84-11.9-1.13-24.08,2.28-34.22,8.48-.02.02-.05-.02-.03-.04,9.81-6.92,22.36-9.95,34.28-8.69,3.75.57,8.54,1.65,10.48,5.08h0Z"/>
      <path d="M174.81,223.48c2.33-4.49,4.78-9.53,6.84-14.18.71-1.59,1.5-3.17,1.87-4.87-.19,3.36-2.22,6.73-3.69,9.82-1.6,3.06-3.27,6.43-5.03,9.23h0Z"/>
      <path d="M177.2,221.09c4.9-2.05,9.93-4.04,15.31-4.04,4.64-.22,10.89-2.5,15.37-3.74.03,0,.05.04.02.05-4.95,1.88-10,3.9-15.36,4.09-5.34-.15-10.53,1.94-15.34,3.64h0Z"/>
      <path d="M167.4,232.05c4.68-2.47,9.38-5.47,14.68-6.34,2.66-.4,5.35-.39,7.99-.59,2.66-.02,5.07-1.42,6.97-3.27-.61.99-1.92,1.96-3.03,2.63-3.62,1.95-7.98.98-11.87,1.63-5.23.7-10.13,3.85-14.73,5.95h0Z"/>
      <path d="M188.96,225.47c-4.32,3.13-8.76,6.24-13.85,8.02-5.18,1.46-9.62,4.43-13.86,7.66-.02.02-.06-.02-.03-.04,3.9-3.66,8.53-6.69,13.77-8.01,5.03-1.59,9.69-4.87,13.97-7.64h0Z"/>
      <path d="M196.76,219.75c-4.28,2.33-8.99,3.71-13.79,4.26-4.79.83-8.89,3.58-13.36,5.35-.03.01-.05-.03-.02-.04,3.2-1.73,6.33-3.61,9.75-4.86,3.46-1.19,7.22-1.02,10.67-2.11,2.28-.63,4.68-1.78,6.75-2.6h0Z"/>
      <path d="M173.83,224.51c4.36-2.73,9.13-5.68,14.05-6.88-4.68,2.24-9.64,4.37-14.05,6.88h0Z"/>
      <path d="M171.56,227c3.53-2.18,7.11-4.29,11.05-5.66,4.01-1.12,8.22-1.57,12.34-1.62,0,.01,0,.02-.02.03-3.6.58-8.72,1.11-12.2,1.98-3.88,1.2-7.7,3.46-11.16,5.28h0Z"/>
      <path d="M181.58,210.03c3.47-3.37,7.19-6.94,11.76-8.68-4.04,2.63-8.24,5.55-11.76,8.68h0Z"/>
      <path d="M180.83,217.76c2.6-4.84,6.39-9.02,10.94-12.06-1.82,2.01-3.96,3.78-5.96,5.63-1.97,1.81-3.45,4.44-4.98,6.44h0Z"/>
      <path d="M198.97,202.73c-4.1,2.68-7.96,5.82-11.12,9.54,1.02-2.25,3.02-3.99,4.95-5.48,1.93-1.45,4.13-3.07,6.16-4.06h0Z"/>
      <path d="M204.13,212.28c-8.26.77-16.23,3.22-23.96,6.12-.03.01-.05-.03-.02-.05,7.33-3.75,15.95-5.61,23.98-6.08h0Z"/>
      <path d="M165.8,224.54c-1.17,2.41-2.13,4.98-2.48,7.64-.16,2.68-.64,5.47-1.52,7.99.15-1.94.57-4.1.86-6.04.3-3.32,1.43-6.92,3.14-9.6h0Z"/>
      <path d="M164.18,236.43c.59-3.56,1.26-7.14,2.63-10.49,1.19-3.39,2.34-6.93,4.61-9.78.02-.02.06,0,.04.03-1.62,2.67-3.07,6.97-4.27,9.89-1.5,3.26-2.18,7.04-3.01,10.35h0Z"/>
      <path d="M173.86,214.27c-.71,1.69-4.13,9.79-4.75,11.29-.91,2.27-1.35,4.73-2.09,7.04.24-3.22,1.14-6.57,2.67-9.45.04.02,4.11-9.09,4.18-8.89h0Z"/>
      <path d="M178.42,208.74c-1.59,3.61-3.14,7.22-4.35,10.99-1.38,3.74-3.82,7.01-6.25,10.08,1.86-3.44,4.39-6.58,5.88-10.22,1.31-3.65,2.96-7.55,4.73-10.84h0Z"/>
      <path d="M179.71,207.87c.15,3.15-.13,6.64-1.8,9.36.68-3.06,1.73-6.32,1.8-9.36h0Z"/>
      <path d="M163.78,237.01c2.13-1.45,4.28-2.9,6.58-4.08,1.59-.75,5.52-2.18,7.18-2.89,1.57-.65,3.24-1.18,4.68-2.08.02-.02.06.01.03.04-3.41,2.66-7.83,3.58-11.75,5.23-2.3,1.05-4.63,2.65-6.72,3.79h0Z"/>
      <path d="M163.78,257.89c4.01-3.12,8.03-6.38,12.63-8.58,7.64-2.35,15.5-4.36,23.48-5.09,2.92-.07,5.58-1.34,8.33-2.24,5.87-2.19,11.4,1.85,16.91,3.27,1.36.51,2.83,1.01,3.94,1.94-1.21-.76-2.61-1.31-4.01-1.72-4.21-.98-8.14-3.36-12.49-3.62-2.87-.24-5.55,1.17-8.32,2.04-1.4.43-2.86.74-4.35.78-7.93.64-15.79,2.6-23.41,4.85-4.61,2.07-8.75,5.55-12.72,8.37h0Z"/>
      <path d="M177.21,249.1c4.3.32,8.94.42,12.84,2.37-4.27-.96-8.61-1.83-12.84-2.37h0Z"/>
      <path d="M184.46,247.18c3.28.55,7.1.53,9.83,2.57-3.1-1.07-6.77-1.84-9.83-2.57h0Z"/>
      <path d="M169.04,253.92c5.95.76,11.81-.7,17.7-.99-5.67,1.34-12.05,1.96-17.7.99h0Z"/>
      <path d="M172.14,251.8c2.83-.01,6.16-.55,8.71.6-2.82-.14-6.03-.39-8.71-.6h0Z"/>
      <path d="M179.48,248.45c1.83-1.13,3.69-2.19,5.61-3.16,1.9-.94,3.98-2.05,6.14-1.99-4.03,1.25-8.06,3.39-11.75,5.16h0Z"/>
      <path d="M174.2,250.53c3.03-3.56,6.73-7.77,11.64-8.28-4.57,1.52-8.47,4.93-11.64,8.28h0Z"/>
      <path d="M170.45,252.94c1.51-5.42,6.65-9.21,11.78-10.98.03,0,.05.03.02.05-.6.35-1.2.69-1.81,1.01-4.1,2.3-8.5,5.39-9.98,9.92h0Z"/>
      <path d="M90.7,216.08c-3.29-2.2-7-4.14-10.46-6.01,3.83.86,7.49,3.75,10.46,6.01h0Z"/>
      <path d="M71.53,215.06c3.33,2.13,5.4,6.2,5.84,10.04-.24-.43-.38-.94-.56-1.4-1.16-3.15-2.59-6.67-5.28-8.64h0Z"/>
      <path d="M105.99,236.7c-7.46,3.39-20.18,1.41-24.64-5.99-.02-.03.02-.05.04-.03,2.82,3.58,6.94,5.68,11.35,6.61,4.34,1.16,9.18.97,13.25-.59h0Z"/>
      <path d="M69.83,210.06c4.34.65,8.97,3.19,10.45,7.57,0,.03-.03.05-.05.02-2.25-3.85-6.19-6.66-10.4-7.59h0Z"/>
      <path d="M94.3,228.58c3.03,3.03,6.08,6.54,10.11,8.17,0,0-.2.18-.2.18-.32-1.81-.9-3.58-1.59-5.29-2.09-5.18-5.36-9.8-8.95-14.01,4.08,3.8,7.34,8.61,9.34,13.86.66,1.75,1.23,3.54,1.52,5.41.01.09-.04.17-.13.18-2.17-.68-3.84-2.3-5.52-3.75-1.55-1.48-3.37-3.15-4.58-4.74h0Z"/>
      <path d="M99.93,216.42c1.53,2.46,2.92,5.02,4.09,7.68,1.14,2.62,2.3,5.58,1.91,8.47-.66-5.72-3.48-11.21-6-16.16h0Z"/>
      <path d="M102.94,227.83c1.19,2.84,3.04,5.74,3.03,8.87-1.01-2.9-2.1-6.08-3.03-8.87h0Z"/>
      <path d="M86.87,220.59c1.08,1.4,2.8,3.2,3.66,4.74-.86-.29-1.55-1.38-2.08-2.17-.5-.82-1.28-1.79-1.57-2.57h0Z"/>
      <path d="M79.16,211.61c1.21,1.02,3.18,2.31,3.02,4.07-.84-1.44-2.01-2.9-3.02-4.07h0Z"/>
      <path d="M79.16,214.04c1.39,1.46,3.55,2.97,3.74,5.08-1.16-1.7-2.59-3.53-3.74-5.08h0Z"/>
      <path d="M80.54,218.65c1.4,2.66,3.03,5.23,4.96,7.5-1.42-.62-2.29-2.09-3.03-3.39-.68-1.29-1.57-2.83-1.93-4.1h0Z"/>
      <path d="M104.36,236.92c-1.06-.59-1.87-1.5-2.74-2.33-.82-.81-1.86-1.81-2.22-2.82,1.88,1.43,3.27,3.71,4.96,5.15h0Z"/>
      <path d="M100.93,231.78c.79,1.09,2.05,2.05,2.29,3.4-.61-.38-1-.97-1.32-1.59-.28-.57-.86-1.29-.97-1.81h0Z"/>
      <path d="M84.56,218.65c1.42,2.26,3.14,4.44,4.59,6.68-1.12-.54-1.97-1.99-2.65-3.1-.64-1.14-1.55-2.48-1.94-3.58h0Z"/>
      <path d="M68.87,92.09c5.29,3.46,10.6,6.99,15.08,11.49,2.18,2.55,7.2,8.31,9.28,10.8.95,1.18,2.23,2.66,2.83,3.8,2.2,2.6,4.42,5.19,6.85,7.59.79.82,1.68,1.59,2.56,2.28-.99-.52-1.87-1.36-2.72-2.11-2.5-2.36-4.84-4.87-7.08-7.46-.74-1.32-1.82-2.55-2.81-3.77-1.93-2.32-7.13-8.51-9.13-10.9-4.34-4.53-9.88-8.18-14.85-11.71h0Z"/>
      <path d="M95.87,118.37c-2.52-.04-4.86-1.16-7.18-2.04-2.31-.95-4.65-2-6.67-3.44,4.61,1.64,9.07,4.77,13.85,5.49h0Z"/>
      <path d="M75.22,101.97c2.16,2.39,4.32,4.86,6.94,6.76,4.49,2.96,9.09,5.91,13.56,8.89,0,0-.37.31-.37.31-1.13-2.46-2.24-4.93-3.51-7.32-.41-.81-.92-1.6-1.41-2.34.64.61,1.13,1.46,1.63,2.21,1.4,2.33,2.63,4.76,3.75,7.24.1.22-.17.45-.37.31-4.46-2.97-8.97-6.09-13.42-9.09-2.53-1.96-4.92-4.58-6.79-6.97h0Z"/>
      <path d="M78.89,96.48c3.37,1.87,7.02,3.76,9.2,7.08,2.13,3.27,3.81,6.86,4.71,10.66,0,.03-.04.04-.05.01-1.4-3.61-3.04-7.13-5-10.46-1.98-3.31-5.85-5.31-8.86-7.29h0Z"/>
      <path d="M105.42,180.31c-.27-4.56-2.36-8.81-4.39-12.82-2.18-3.99-4.75-7.8-7.89-11.09-1.53-1.68-3.28-3.14-5.07-4.52-3.67-2.73-6.82-6.09-10.37-8.95-1.72-1.44-3.91-2.65-5.71-3.72,6.42,2.67,10.94,8.18,16.38,12.27,5.47,4.19,9.69,9.83,12.88,15.89,1.94,4.01,4.17,8.56,4.17,12.94h0Z"/>
      <path d="M77.74,146.85c3.06,2.36,6.13,4.71,9.32,6.88,3.32,1.99,6.28,4.56,8.94,7.38,2.92,2.74,3.89,6.58,5.76,10.03,1.33,2.54,2.56,5.37,2.31,8.34-.06.96-.05,2-.29,2.91.04-.94.11-1.95.06-2.91.14-2.96-1.1-5.57-2.52-8.11-1.85-3.36-2.77-7.21-5.61-9.98-2.62-2.81-5.47-5.45-8.78-7.44-3.09-2.24-6.41-4.69-9.18-7.09h0Z"/>
      <path d="M88.73,140.84c2.4,2.02,4.66,4.23,6.48,6.81,1.78,2.61,2.75,5.65,3.93,8.56.6,1.51,1.92,5.11,2.57,6.54,1.69,3.53,2.67,7.54,2.45,11.45,0,.03-.05.03-.05,0-.04-4.76-1.9-9.15-3.75-13.43-1.64-4.21-2.96-9.16-5.36-12.98-1.67-2.6-4.16-4.91-6.27-6.95h0Z"/>
      <path d="M80.93,150.78c2.64,3.16,5.17,6.7,8.83,8.71,2.8,1.39,5.74,2.74,7.98,5.01.68.72,1.59,1.74,1.76,2.61-2.28-3.58-6.36-5.25-9.94-7.26-3.61-2.13-6.31-5.85-8.63-9.06h0Z"/>
      <path d="M75.24,137.28c4.51,2.95,8.99,5.97,12.97,9.62,1.99,1.87,3.51,4.13,5.03,6.36,1.37,2.3,3.02,4.57,3.59,7.23,0,.03-.05.04-.05,0-.13-.66-.46-1.25-.77-1.84-2.34-4.02-4.89-8.05-8.08-11.46-3.82-3.71-8.53-6.86-12.69-9.91h0Z"/>
      <path d="M81.96,138.71c2.5,2.06,4.97,4.14,7.33,6.38,3.48,3.41,6.02,7.72,8.17,12.05,1.16,2.55,3.11,6.22,4.03,8.84.46,1.56.94,3.16,1.25,4.72-.56-1.49-1.01-3.1-1.58-4.61-.45-1.29-1.47-3.11-2.06-4.37,0,0-2.09-4.39-2.09-4.39-2.03-4.34-4.5-8.64-7.89-12.07-2.23-2.28-4.95-4.46-7.15-6.55h0Z"/>
      <path d="M97.08,148.46c2.45,4.27,4.92,8.54,6.68,13.16,1.55,4.71,1.75,9.79,1.06,14.67,0,.03-.05.03-.05,0,.15-4.87,0-9.84-1.38-14.53-1.58-4.59-4.21-9.09-6.3-13.29h0Z"/>
      <path d="M35.74,162.89c2.33-1.2,4.5-3.05,7.24-3.03,4.4-.22,8.86-.02,13.21.75,6.84,1.97,12.69,6.19,18.8,9.68,6.14,3.51,11.65,8.01,17.05,12.55,5.34,4.61,10.43,9.56,14.9,15.03-4.69-5.01-9.76-10.25-15.22-14.65-5.4-4.51-10.85-9.03-16.94-12.59-6.05-3.51-11.89-7.78-18.65-9.78-3.44-.7-7-.86-10.5-.94-1.74.02-3.56-.03-5.22.5-1.55.71-3.22,1.87-4.67,2.48h0Z"/>
      <path d="M85.31,154.5c2.65,2.33,5.45,4.54,7.91,7.03-2.88-1.48-5.69-4.8-7.91-7.03h0Z"/>
      <path d="M98.54,189.01c-3.23-6.07-6.22-12.45-10.42-17.88,2.73,2.14,4.25,5.54,5.91,8.53,1.54,3.04,3.29,6.32,4.51,9.35h0Z"/>
      <path d="M91.07,182.37c-3.39-6.64-7.86-13.03-14.2-17.15-.03-.01,0-.06.02-.04,3.49,1.56,6.25,4.39,8.49,7.41,2.19,3.01,4.36,6.46,5.69,9.78h0Z"/>
      <path d="M81.63,174.9c-4.03-4.26-8.21-8.49-12.82-12.09,2.7,1.19,4.85,3.44,6.91,5.52,1.99,2.1,4.24,4.38,5.91,6.57h0Z"/>
      <path d="M99.9,190.39c-3.67-.8-7.35-1.6-11.04-2.32-3.73-.56-7.54-1.33-10.82-3.21,7.02,2.5,14.86,3.34,21.85,5.53h0Z"/>
      <path d="M96.43,187.04c-2.5-.08-5-.23-7.49-.47-2.45-.28-5.18-.38-7.31-1.71,1.18.37,2.42.58,3.66.75,3.53.63,7.74.99,11.13,1.43h0Z"/>
      <path d="M94.02,184.9c-4.78-1.06-9.59-2.03-14.44-2.63-4.97-.15-9.66-2.69-13-6.32-.02-.02.01-.06.04-.03,2.77,2.37,5.9,4.38,9.42,5.36,5.94,1.05,12.32,1.91,17.98,3.63h0Z"/>
      <path d="M89.5,181.06c-5.68-1.78-11.94-2.2-17.75-3.49,2.85-.11,6.07.62,8.99,1.17,2.89.63,6.19,1.16,8.76,2.32h0Z"/>
      <path d="M84.24,176.86c-6.15-1.6-12.44-2.77-18.69-3.73,6.28-.11,12.85,1.98,18.69,3.73h0Z"/>
      <path d="M76.58,171.5c-5.17-1.41-10.72-2.5-15.96-3.52,5.36-.03,11.02,1.95,15.96,3.52h0Z"/>
      <path d="M54.45,164.19c2.74.92,5.52,1.86,8.36,2.36,2.87.21,5.88.69,8.55,1.78,0,.01-.02.02-.03.02-2.55-.46-6.06-1.09-8.59-1.4-2.8-.63-5.82-1.63-8.29-2.76h0Z"/>
      <path d="M48.2,161.19c6.7.37,13.22,2.61,19.44,4.93-6.49-1.31-12.9-4.37-19.44-4.93h0Z"/>
      <path d="M51.96,157.47c2.54.69,5.03,1.55,7.43,2.65,2.34,1.08,4.98,2.46,6.19,4.83-3.59-3.79-8.96-5.7-13.62-7.48h0Z"/>
      <path d="M119.1,266.31c-13.36-4.95-26.71-10.08-40.49-13.74-.03,0-.02-.05,0-.05,7.06,1.17,13.8,3.68,20.52,6.07,6.64,2.47,13.59,4.98,19.97,7.71h0Z"/>
      <path d="M115.69,264.99c-2.51-2.25-6.07-5.35-8.55-7.55,1.67.57,3.2,2.2,4.55,3.46,1.3,1.32,2.93,2.75,4,4.09h0Z"/>
      <path d="M108.57,262.28c-4.12-3.15-8.39-6.22-12.98-8.58,2.57.51,4.8,2.17,6.9,3.68,2.03,1.54,4.36,3.22,6.07,4.91h0Z"/>
      <path d="M99.37,258.92c-2.84-2.71-6.76-3.69-10.23-5.22,3.74.47,7.8,2.51,10.23,5.22h0Z"/>
      <path d="M112.74,263.86c-4,.43-8.03.72-12.08.46-4.05-.3-7.94-1.75-11.52-3.6-.03-.01,0-.06.02-.05,3.76,1.35,7.56,2.78,11.53,3.25,3.95.4,8.23.06,12.05-.07h0Z"/>
      <path d="M105.69,261.21l-10.48-1.06c-3.49-.16-7.14-1.1-10.05-3.07,3.24,1.37,6.54,2.37,10.09,2.68,0,.05,10.62,1.34,10.44,1.46h0Z"/>
      <path d="M110.27,262.92c-5.38.42-10.87-.19-16.02-1.74,2.68.06,5.33.83,7.99,1.22,2.61.41,5.54.41,8.03.51h0Z"/>
      <path d="M94.27,257.14c-4.13-.52-8.82-.78-12.42-2.77,1.54.37,4.64,1.13,6.17,1.52,2.01.51,4.36.81,6.25,1.25h0Z"/>
      <path d="M163.98,160.01c-4.26-.72-8.14-3.03-11.22-6.03-.1-.1-.1-.26,0-.36.06-.06.15-.08.23-.07.95.16,1.99.13,2.97,0,1-.11,2.01-.43,2.97-.68-.86.52-1.9.84-2.91,1.07-1.02.19-2.05.29-3.13.11l.25-.43c2.86,3.08,6.88,5.41,10.83,6.38h0Z"/>
      <path d="M185.73,151.55c-3.12,3.17-6.9,6.28-11.33,7.22,4.02-1.9,8.12-4.28,11.33-7.22h0Z"/>
      <path d="M175.53,146.53c.12,2.22-1.36,4.69-3.41,5.54.98-1.33,2.37-2.35,2.99-3.94.21-.5.37-1.05.37-1.6,0-.03.04-.04.05,0h0Z"/>
      <path d="M161.53,149.52c.37.84-.06,2.51-1.09,2.52.17-.49.43-.8.72-1.19.22-.38.37-.84.32-1.31,0-.03.03-.04.05-.02h0Z"/>
      <path d="M188.1,163.52c3.6-.37,7.18-1.1,10.74-1.48-3.24,1.4-7.39,1.36-10.74,1.48h0Z"/>
      <path d="M152.94,153.83c-5.82-2.58-9.52-9.31-7.84-15.58,0-.03.05-.02.05.01-.58,6.69,1.95,12.36,7.79,15.57h0Z"/>
      <path d="M139.01,128.03c-1.02,8.85,2.64,18,9.94,23.22.03.02,0,.06-.03.04-7.97-4.46-11.3-14.74-9.91-23.26h0Z"/>
      <path d="M145.25,148.5c-5.83-5.21-9.96-12.72-10.58-20.59-.34-6,1.87-11.79,4.7-16.96.96-1.66,2.02-3.63,3.2-4.96-4.02,6.59-7.68,14.02-7.5,21.9.45,7.78,4.71,15.39,10.18,20.61h0Z"/>
      <path d="M149.46,96.74c-1.51,2.06-3.57,5.19-5.22,7.1.28-1.31,1.46-2.64,2.34-3.75.93-1.08,1.93-2.48,2.88-3.35h0Z"/>
      <path d="M150.21,107.13c1.08-1.42,2.01-3.25,3.64-4.04-.83,1.42-2.54,2.93-3.64,4.04h0Z"/>
      <path d="M144.23,108.17c-1.17,1.83-2.07,3.96-3.61,5.48.51-1.81,2.47-4.1,3.61-5.48h0Z"/>
      <path d="M146.08,88.68c-2.29,3.26-5.51,8.16-7.8,11.36.64-2.05,2.25-4.09,3.56-5.91,1.37-1.78,2.81-3.9,4.24-5.45h0Z"/>
      <path d="M141.97,145.85c-3.98-.63-7.9-1.61-11.73-2.86-3.87-1.25-7.1-3.87-10.08-6.55-6.74-6.38-10.45-11.33-10.55-20.94.11-2.11-.47-3.85-1.44-5.7-.81-1.86-1.25-3.97-.87-6.02.68-2.95,2.1-5.82,3.7-8.35,1.01-1.25,2.49-1.83,3.91-2.42.32-.17,1.1-.36,1.3.15.68,3.06.76,6.31,2.25,9.14,1.88,3.53,4.89,6.4,8.16,8.67-3.29-1.92-6.5-5.01-8.45-8.52-1.4-2.71-1.81-5.82-2.26-8.77-.06-.23-.14-.4-.22-.39-1.52.45-3.25,1.25-4.3,2.47-.63.73-.96,1.68-1.43,2.58-1.95,3.48-3.23,7.5-1.37,11.3.97,1.87,1.55,3.74,1.42,5.86.15,3.96.64,8.09,2.62,11.58,3.19,5.07,7.52,9.49,12.36,13.01,4.9,3.54,11.37,4.49,16.99,5.78h0Z"/>
      <path d="M161.03,128.65c-1.92,3.67-3.73,7.4-5.41,11.19-1.52,3.82-3.41,7.63-3.92,11.72-.17-4.17,1.91-8.15,3.55-11.89,1.78-3.69,3.69-7.67,5.77-11.02h0Z"/>
      <path d="M157.38,127.24c-2.74,5.94-5.35,12.01-7.32,18.23.28-3.27,1.69-6.39,3-9.39,1.35-2.93,2.76-6.18,4.32-8.84h0Z"/>
      <path d="M158.49,121.06c-3.53,6.42-6.91,13.08-8.73,20.18.18-3.69,1.8-7.22,3.37-10.52,1.62-3.25,3.41-6.77,5.36-9.66h0Z"/>
      <path d="M166.23,133.59c-4.94,6.33-9.39,13.17-13.26,20.23-.01.03-.06,0-.05-.02,2.15-5.72,5.94-10.62,9.5-15.52.61-.79,2.19-2.85,2.81-3.59.27-.31.67-.84.98-1.11,0,0,.07-.05.07.03,0,.03-.06.02-.05-.01h0Z"/>
      <path d="M164,143.4l-9.1,8.91c-.12.12-.32-.05-.22-.19,4.77-6.69,11.33-16.26,16.39-22.56-4.34,6.77-11.36,16.11-16.15,22.73,0,0-.22-.19-.22-.19.04.03,9.31-8.91,9.3-8.71h0Z"/>
      <path d="M158.49,137.04c-2.53,5.23-5.34,10.82-5.29,16.75-.08,2.32-.23,4.88-.37,7.2-.03.8-.13,1.6-.11,2.39,0,.03-.04.04-.05,0-.26-3.19-.1-6.4.03-9.59-.1-1.38.21-3.04.55-4.45,1.12-4.27,3.05-8.65,5.23-12.31h0Z"/>
      <path d="M162.16,121.04c1.69-2.39,3.53-5.3,6.41-6.28-2.31,1.85-4.6,4.1-6.41,6.28h0Z"/>
      <path d="M172.12,128.62c1.94-2.94,3.58-6.51,6.11-8.84-.87,1.58-1.86,3.06-2.94,4.49,0,0-3.12,4.37-3.12,4.37-.02.02-.06,0-.04-.03h0Z"/>
      <path d="M184.56,124.86c-1.65,2.39-3.13,5.75-5.5,7.3.89-1.24,1.73-2.5,2.71-3.67,0,0,2.75-3.66,2.75-3.66.02-.02.06,0,.04.03h0Z"/>
      <path d="M186.56,132.75c-4.47,4.35-8.71,9.14-13.83,12.71,2.18-2.23,4.55-4.32,6.88-6.4.03.04,6.96-6.51,6.95-6.3h0Z"/>
      <path d="M177.93,138.27c-2.26,2.38-4.25,5.16-6.9,7.09,1.87-2.64,4.62-4.99,6.9-7.09h0Z"/>
      <path d="M114.21,111.88c5.57,7.38,11.1,15.03,18.22,21,.03.02,0,.06-.03.04-4.01-2.44-7.02-6.18-9.95-9.77-2.84-3.62-5.87-7.51-8.25-11.27h0Z"/>
      <path d="M120.77,131.73c6.05,4.18,12.47,8.61,19,11.97-3.62-1-6.8-3.29-9.91-5.35-3.03-2.12-6.36-4.35-9.09-6.62h0Z"/>
      <path d="M119.22,128.49c5.44,3.87,11.24,7.89,17.03,11.17-3.25-1-6.1-3.11-8.88-5.04-2.71-1.97-5.72-4.04-8.15-6.13h0Z"/>
      <path d="M125.49,138.23c4.9,2.24,10.13,4.5,15.17,6.36-2.74-.26-5.32-1.54-7.81-2.67-2.42-1.18-5.17-2.38-7.36-3.69h0Z"/>
      <path d="M124.71,118.4c2.02,3.84,4.27,7.6,6.8,11.09-1.78-1.28-2.9-3.32-3.95-5.22-.98-1.88-2.19-4-2.85-5.87h0Z"/>
      <path d="M113.44,93.94c-.37,2.26-.49,4.63-.88,6.89-.48-.95-.18-2.41.03-3.5.26-1.09.44-2.49.85-3.39h0Z"/>
      <path d="M109.66,112.88c3.56,5.07,7.46,9.96,11.78,14.36-2.61-1.68-4.63-4.23-6.5-6.69-1.82-2.45-3.84-5.14-5.28-7.67h0Z"/>
      <path d="M199.58,155.12c5.12-1.01,12.25-2.92,17.32-3.59-5.53,1.82-11.71,2.71-17.32,3.59h0Z"/>
      <path d="M190.53,167.58c9.03,1.85,18.29,3.52,27.53,2.82.03,0,.04.04,0,.05-4.56,1.01-9.31.51-13.89-.12-4.54-.68-9.38-1.52-13.64-2.74h0Z"/>
      <path d="M204.14,175.39c2.4.66,4.91.6,7.32.98-2.34.69-5.24-.17-7.32-.98h0Z"/>
      <path d="M223.23,149.51c1.68-.52,3.23-1.44,4.91-1.84-.55.73-1.48,1.05-2.33,1.28-.81.19-1.87.58-2.58.56h0Z"/>
      <path d="M200.06,160.97c5.73-.63,11.32-2.12,16.84-3.63-5.12,2.5-11.35,3.26-16.84,3.63h0Z"/>
      <path d="M181.82,168.5c3.77,1.93,7.73,3.49,11.67,4.95-4.07-.38-8.31-2.97-11.67-4.95h0Z"/>
      <path d="M125.47,152.19c2.7-1.37,5.45-2.63,8.27-3.75,2.8-1.08,5.81-2.3,8.84-2.09-5.9,1.03-11.72,3.64-17.11,5.84h0Z"/>
      <path d="M128.08,148.11c3.18-1.25,6.7-3.23,10.08-2.99-3.32.82-6.96,2-10.08,2.99h0Z"/>
      <path d="M134,162.81c4.57-3.98,9.41-8.19,13.74-12.4-1.64,2.62-4.2,4.58-6.53,6.59-2.35,1.92-4.85,4.14-7.22,5.8h0Z"/>
      <path d="M133.04,155.66c1.94-1.45,3.94-2.82,6.01-4.09,2.05-1.24,4.29-2.62,6.71-2.81-4.46,1.72-8.76,4.49-12.72,6.89h0Z"/>
      <path d="M151.14,152.73c.63,3.83.92,7.77.25,11.62-.76,3.81-2.81,7.36-5.19,10.39-.02.02-.06,0-.04-.03,1.92-3.31,3.91-6.71,4.84-10.44.81-3.74.47-7.9.14-11.55h0Z"/>
      <path d="M150.53,155.09c-1.95,3.01-3.81,6.12-5.63,9.17.27-1.79,1.43-3.35,2.43-4.84,1.02-1.42,2.11-3.16,3.2-4.34h0Z"/>
      <path d="M153.69,156.63c.43,4.11,1.5,8.91-.26,12.79.74-4.16.46-8.71.26-12.79h0Z"/>
      <path d="M154.15,155.49c.69,2.95,2.07,6.11,1.41,9.14-.39-3-.97-6.27-1.41-9.14h0Z"/>
      <path d="M150.37,152.24c-1.22,1.5-2.69,3.81-4.17,5.05.2-.97,1.16-1.93,1.87-2.7.74-.74,1.55-1.8,2.3-2.34h0Z"/>
      <path d="M146.97,149.94c-2.29,2.19-4.44,5.14-7.25,6.47,1.02-1.02,2.46-2.4,3.57-3.29,0,0,3.64-3.22,3.64-3.22.02-.02.06.01.03.04h0Z"/>
      <path d="M139.74,148.74c1.52-.4,3.23-1.32,4.79-.8-1.47.51-3.36.65-4.79.8h0Z"/>
      <path d="M161.57,163.99c5.31,2.57,9.05,7.59,10.53,13.25,1.37,4.12,2.62,8.32,3.27,12.63.18,1.43.4,2.96.15,4.37-.01-1.43-.2-2.9-.49-4.31-1.23-5.62-2.7-11.26-4.72-16.65-1.7-3.98-5.14-7.23-8.73-9.29h0Z"/>
      <path d="M165.43,166.6c1.9.45,3.34,1.93,4.7,3.24,3.91,4.14,7.28,9.46,7.28,15.33,0,.03-.05.03-.05,0-.84-6.51-5.89-15.88-11.93-18.56h0Z"/>
      <path d="M166.51,167.59c1.73,4.84,4.29,9.95,4.52,15.02-1.27-4.95-3.05-10.29-4.52-15.02h0Z"/>
      <path d="M163.76,165.32c1.18,4.07,2.5,8.36,4.06,12.27-1.42-1.65-1.96-3.91-2.56-5.97-.52-2.04-1.23-4.35-1.5-6.3h0Z"/>
      <path d="M170.78,173.93c1.62,2.17,3.21,4.36,4.37,6.83.98,2.56,1.41,5.29,1.59,7.98-.82-2.53-1.13-5.31-1.96-7.82-.98-2.44-2.74-4.84-4-6.98h0Z"/>
      <path d="M171.8,168.15c1.56,2.38,3.81,4.84,3.96,7.77-.52-1.15-1.33-2.77-1.88-3.93-.59-1.28-1.56-2.67-2.09-3.83h0Z"/>
      <path d="M189.5,175.89c3.6,2.28,7.54,4.25,11.77,4.89-2.15.38-4.38-.51-6.29-1.46-1.87-.96-4-2.14-5.48-3.42h0Z"/>
      <path d="M117.05,249.94c.12-4.08.43-9.86-.19-13.83.92,2.14.99,4.61.79,6.92,0,0-.55,6.91-.55,6.91,0,.03-.05.03-.05,0h0Z"/>
      <path d="M116.19,239.29c-.21,2.51.33,4.96,1,7.34-1.66-1.9-1.46-5.16-1-7.34h0Z"/>
      <path d="M118.11,237.95c.34,2.14.94,4.99-.68,6.72.65-2.15.76-4.61.68-6.72h0Z"/>
      <path d="M205.16,120.29c.2,3.93,1.02,8.09-.03,11.91.01-3.91,0-8.13.03-11.91h0Z"/>
      <path d="M205.16,135.24c.19,6.34-2.93,13-8.6,16.1-.03.02-.05-.02-.03-.04,5.06-3.79,8.53-9.81,8.63-16.05h0Z"/>
      <path d="M201.82,142.09c-.67,1.67-1.43,3.3-2.3,4.88-.86,1.53-1.89,3.33-3.56,4.05,2.46-2.53,4.21-5.98,5.86-8.93h0Z"/>
      <path d="M196.56,144.53c-1.45,2.11-2.65,4.91-5.06,6.02,1.73-1.9,3.5-4.14,5.06-6.02h0Z"/>
      <path d="M193.63,135.09c-.25,1.34-.21,3.08-1.31,4.01.04-.73.28-1.37.57-2.03.24-.65.47-1.32.69-1.99,0-.03.05-.02.05,0h0Z"/>
      <path d="M191.55,124.85c-.23,3.71-.16,8.28-2.96,11.06,1.89-3.32,2.49-7.44,2.96-11.06h0Z"/>
      <path d="M193.63,124.2c.15,1.79.22,3.6.17,5.4-.06,1.77-.09,3.82-1.17,5.28.87-3.43.84-7.29,1-10.68h0Z"/>
      <path d="M226.92,121.16c-1.06,1.32-2,3.22-3.71,3.69,1.09-1.3,2.55-2.62,3.71-3.69h0Z"/>
      <path d="M223.59,116.52c-3.94,4.34-7.9,9.06-9.7,14.69.15-3,1.99-5.71,3.74-8.06,1.79-2.31,3.86-4.81,5.96-6.63h0Z"/>
      <path d="M218.8,124.86c-.94,1.51-1.95,2.97-3.01,4.4-1.07,1.38-2.2,3.05-3.9,3.65.66-.57,1.28-1.22,1.84-1.91,1.74-1.84,3.54-4.32,5.07-6.14h0Z"/>
      <path d="M219.74,132.2c-3.55,3.36-6.87,7.35-11.24,9.61,3.75-3.1,7.66-6.51,11.24-9.61h0Z"/>
      <path d="M204.99,146.09c2.37-1.2,5.56-3.13,8.02-4.03-.92,1.02-2.56,1.68-3.88,2.29-1.34.55-2.88,1.38-4.15,1.75h0Z"/>
      <path d="M227.7,153.32c1.19-.83,2.78-2.11,4.04-2.79.02-.02.05,0,.04.03-.34.82-1.12,1.26-1.86,1.66-.7.35-1.58.96-2.23,1.11h0Z"/>
      <path d="M214.44,162.77c3.44-1.12,6.83-2.71,10.4-3.25-3.22,1.53-7.08,2.39-10.4,3.25h0Z"/>
      <path d="M195.98,164.96c4.12.24,8.43-.49,12.52-.61-3.95,1.17-8.59,1.07-12.52.61h0Z"/>
      <path d="M216.4,111.9c-.53,4.54-1.01,9.94-4.51,13.22,2.62-3.88,3.76-8.8,4.51-13.22h0Z"/>
      <path d="M212.88,93.94c-.63,4.32-1.41,8.69-3.32,12.66-2.4,3.65-4.13,7.64-5.13,11.91,0,.03-.05.02-.05,0,.48-4.4,2.27-8.5,4.83-12.09,2-3.81,2.82-8.44,3.68-12.48h0Z"/>
      <path d="M207.33,95.77c-1.51,4.59-2.64,9.33-3.5,14.06-.23-4.66,1.88-9.88,3.5-14.06h0Z"/>
      <path d="M205.59,85.07c-2.23,5.39-4.01,10.99-5.24,16.66.14-5.66,2.93-11.7,5.24-16.66h0Z"/>
      <path d="M146.85,74.49c-1.03,3.36-2.12,6.7-3.29,10.02-1.22,3.18-2.26,7.06-4.51,9.5.97-1.45,1.52-3.14,2.18-4.75,1.96-4.66,3.87-10.2,5.62-14.77h0Z"/>
      <path d="M131.52,79.21c-2.31,5.65-4.21,11.55-5.02,17.61-.69,5.27.19,10.73,2.22,15.63.31.7.76,1.39,1.32,1.86-.7-.34-1.12-1.12-1.52-1.76-2.02-4.14-3-8.89-2.67-13.49.63-6.83,2.89-13.78,5.68-19.85h0Z"/>
      <path d="M162.95,64.64c-.97,4.34-1.99,8.74-3.99,12.75-2.01,3.98-4.08,7.92-6.39,11.73-.01.03-.06,0-.04-.02,1.84-4.06,3.93-7.99,6.08-11.89,2.1-3.87,3.16-8.5,4.35-12.56h0Z"/>
      <path d="M156.41,70.3c-1.22,3.63-2.42,7.29-4.01,10.78-.57.99-1.26,2.68-2.19,3.15.79-.98,1.21-2.22,1.73-3.36,1.57-3.31,3.08-7.36,4.47-10.57h0Z"/>
      <path d="M159.59,63.09c.04,2.39.23,5.32-1.42,7.22.7-2.32,1.23-4.92,1.42-7.22h0Z"/>
      <path d="M152.03,111.75c-.93,1.4-1.99,3.5-3.08,4.76-.05-.86.71-1.85,1.25-2.57.58-.7,1.21-1.71,1.83-2.2h0Z"/>
      <path d="M107.15,273.82c-1.24,2.88-.09,5.62,3.1,6.25,2.01.51,4.08.82,6.01,1.59.63.27,1.26.67,1.64,1.27,1.22,2.52.43,5.51,1.13,8.17.66,3.97,5.54,3.34,8.27,5.06,1.17.8,2.16,1.79,2.95,2.96.98,1.89.76,4.11.9,6.16.08,1.98,0,4.36,2.05,5.3,2.33,1.42,5.47,1.73,7.3,3.89,1.31,1.65,2.63,3.23,3.51,5.19,0,0-.38.13-.38.13-.69-1.86-1.39-3.78-2.45-5.45-.35-.59-.85-.87-1.47-1.13-1.22-.52-2.5-.97-3.71-1.6-1.45-.74-3.21-1.9-3.41-3.74-.18-2.35.06-4.72-.12-7.06-.11-1.24-.26-2.67-1.21-3.55-2.05-1.72-4.77-2.29-7.13-3.59-1.68-1.16-3.24-2.7-3.84-4.71-.45-1.98-.39-4.02-1.1-5.93-.37-1.35-1.41-2.15-2.71-2.55-3.91-1.27-8.21-2-9.31-6.67h0ZM107.16,273.77c1.31,4.67,5.43,5.2,9.4,6.46,1.33.38,2.54,1.32,2.92,2.7,1.05,2.48.43,5.44,2.04,7.67,1.52,2.31,4.01,3.33,6.52,4.27,2.97,1.22,4.88,2.36,4.93,5.9.33,2.55-.36,5.53.38,7.92.57,1.12,1.73,1.88,2.89,2.48,1.47.81,3.15,1.22,4.61,2.1.84.67,1.23,1.69,1.7,2.6.56,1.23,1.05,2.49,1.5,3.77.04.11-.02.22-.12.26-.11.04-.22-.02-.26-.13-.8-1.82-2.16-3.5-3.41-5.08-1.75-2.07-4.9-2.42-7.17-3.83-2.15-.95-2.16-3.61-2.2-5.59-.12-2.01.1-4.2-.83-6.03-.73-1.09-1.77-2.14-2.84-2.88-2.76-1.71-7.71-1.19-8.33-5.24-.69-2.66.11-5.62-1.06-8.13-.36-.58-.95-.96-1.57-1.23-1.92-.77-3.98-1.1-5.98-1.62-3.18-.63-4.48-3.5-3.07-6.39h0Z"/>
      <path d="M189.59,269.07c-.05,1.83-2.67,1.87-2.78,0-.02-1.99,2.83-2.04,2.78,0h0ZM189.54,269.07c-.06-1.36-2.27-1.36-2.33,0-.05,1.5,2.33,1.55,2.33,0h0Z"/>
      <path d="M144.23,243.53c-.05,1.83-2.67,1.87-2.78,0-.02-1.99,2.83-2.04,2.78,0h0ZM144.18,243.53c-.06-1.36-2.27-1.36-2.33,0-.05,1.5,2.33,1.55,2.33,0h0Z"/>
      <path d="M67.64,196.61c-.05,1.83-2.67,1.87-2.78,0-.02-1.99,2.83-2.04,2.78,0h0ZM67.59,196.61c-.06-1.36-2.27-1.36-2.33,0-.05,1.5,2.33,1.55,2.33,0h0Z"/>
      <path d="M122.67,189.75c-.04,1.3-1.88,1.34-1.98,0-.04-1.46,2.05-1.52,1.98,0h0ZM122.62,189.75c-.06-.85-1.45-.84-1.53,0-.07.97,1.54,1.03,1.53,0h0Z"/>
      <path d="M156.77,184.29c-.04,1.3-1.88,1.34-1.98,0-.04-1.46,2.05-1.52,1.98,0h0ZM156.72,184.29c-.06-.85-1.45-.84-1.53,0-.07.97,1.54,1.03,1.53,0h0Z"/>
      <path d="M92.92,131.24c-.04,1.3-1.88,1.34-1.98,0-.04-1.46,2.05-1.52,1.98,0h0ZM92.87,131.24c-.06-.85-1.45-.84-1.53,0-.07.97,1.54,1.03,1.53,0h0Z"/>
      <path d="M158.12,210.35c-.04,1.11-1.6,1.16-1.7,0-.04-1.27,1.78-1.33,1.7,0h0ZM158.07,210.35c-.06-.67-1.16-.65-1.25,0-.07.78,1.26.84,1.25,0h0Z"/>
      <path d="M78.38,194.7c-.02,1.03-1.49,1.07-1.57,0-.04-1.19,1.66-1.25,1.57,0h0ZM78.33,194.7c-.05-.6-1.04-.57-1.12,0-.08.7,1.15.76,1.12,0h0Z"/>
      <path d="M54.71,176.83c-.01.75-1.06.79-1.14,0-.06-.9,1.25-.97,1.14,0h0ZM54.66,176.83c-.04-.36-.61-.28-.69,0-.08.42.72.49.69,0h0Z"/>
      <path d="M83.79,129.09c-.01.75-1.06.79-1.14,0-.06-.9,1.25-.97,1.14,0h0ZM83.74,129.09c-.04-.36-.61-.28-.69,0-.08.42.72.49.69,0h0Z"/>
      <path d="M70.53,119.43c-.02,1.03-1.49,1.07-1.57,0-.04-1.19,1.66-1.25,1.57,0h0ZM70.48,119.43c-.05-.6-1.04-.57-1.12,0-.08.7,1.15.76,1.12,0h0Z"/>
      <path d="M116.41,77.27c-.05,1.6-2.33,1.65-2.44,0-.03-1.76,2.49-1.82,2.44,0h0ZM116.36,77.27c-.06-1.14-1.92-1.14-1.99,0-.06,1.27,1.99,1.33,1.99,0h0Z"/>
      <path d="M117.58,83.14c-.03,1.1-1.58,1.14-1.68,0-.04-1.26,1.76-1.32,1.68,0h0ZM117.53,83.14c-.06-.66-1.15-.64-1.23,0-.07.77,1.24.83,1.23,0h0Z"/>
      <path d="M197.62,69.61c-.03,1.1-1.58,1.14-1.68,0-.04-1.26,1.76-1.32,1.68,0h0ZM197.57,69.61c-.06-.66-1.15-.64-1.23,0-.07.77,1.24.83,1.23,0h0Z"/>
      <path d="M243.19,148.35c-.05,1.69-2.46,1.74-2.58,0-.02-1.85,2.63-1.91,2.58,0h0ZM243.14,148.35c-.06-1.23-2.06-1.23-2.13,0-.05,1.36,2.12,1.42,2.13,0h0Z"/>
      <path d="M230.35,95.25c-.04,1.43-2.06,1.47-2.17,0-.03-1.58,2.23-1.64,2.17,0h0ZM230.3,95.25c-.06-.97-1.65-.96-1.72,0-.07,1.09,1.73,1.15,1.72,0h0Z"/>
      <path d="M213.42,74.7c-.02.84-1.2.88-1.28,0-.05-.99,1.38-1.06,1.28,0h0ZM213.37,74.7c-.05-.43-.74-.38-.83,0-.08.51.85.58.83,0h0Z"/>
      <path d="M179.74,52.07c-.04,1.1-1.58,1.14-1.68,0-.04-1.26,1.76-1.32,1.68,0h0ZM179.69,52.07c-.06-.66-1.15-.64-1.23,0-.07.77,1.24.83,1.23,0h0Z"/>
      <path d="M204.11,62.63c-.05,1.48-2.15,1.53-2.26,0-.03-1.64,2.32-1.7,2.26,0h0ZM204.06,62.63c-.06-1.03-1.74-1.02-1.81,0-.06,1.15,1.81,1.21,1.81,0h0Z"/>
      <path d="M98.44,139.65c-.02,1.03-1.49,1.07-1.57,0-.04-1.19,1.66-1.25,1.57,0h0ZM98.39,139.65c-.05-.6-1.04-.57-1.12,0-.08.7,1.15.76,1.12,0h0Z"/>
      <path d="M108.95,213.65c-.02,1.03-1.49,1.07-1.57,0-.04-1.19,1.66-1.25,1.57,0h0ZM108.9,213.65c-.05-.6-1.04-.57-1.12,0-.08.7,1.15.76,1.12,0h0Z"/>
      <path d="M142.26,228.18c-.05,1.83-2.67,1.87-2.78,0-.02-1.99,2.83-2.04,2.78,0h0ZM142.21,228.18c-.06-1.36-2.27-1.36-2.33,0-.05,1.5,2.33,1.55,2.33,0h0Z"/>
      <path d="M150.44,233.62c-.02,1.01-1.46,1.06-1.55,0-.04-1.17,1.63-1.24,1.55,0h0ZM150.39,233.62c-.05-.58-1.01-.55-1.1,0-.08.68,1.12.75,1.1,0h0Z"/>
      <path d="M199.31,262.79c-.04,1.24-1.78,1.28-1.89,0-.04-1.39,1.96-1.46,1.89,0h0ZM199.26,262.79c-.06-.79-1.36-.78-1.44,0-.07.9,1.45.97,1.44,0h0Z"/>
    </g>
  </g>
</svg>