<?xml version="1.0" encoding="UTF-8"?>
<svg id="Layer_1" data-name="Layer 1" xmlns="http://www.w3.org/2000/svg" viewBox="0 0 289.13 430.87">
  <defs>
    <style>
      .cls-1 {
        fill: none;
      }

      .cls-2 {
        fill: #7f7061;
      }

      .cls-3 {
        font-family: SUIT-Regular-KSCpc-EUC-H, SUIT;
        font-size: 14px;
      }

      .cls-4 {
        fill: #665344;
      }

      .cls-5 {
        fill: #c4c66a;
      }

      .cls-6 {
        fill: #89796a;
      }

      .cls-7 {
        fill: #f9f1ac;
      }

      .cls-8 {
        fill: #f9f3dc;
      }

      .cls-9 {
        font-family: 'IM_FELL_Double_Pica_SC', 'IM FELL Double Pica SC';
        font-size: 24px;
      }

      .cls-10 {
        fill: #f9e48f;
      }

      .cls-11 {
        letter-spacing: -.03em;
      }

      .cls-12 {
        fill: #77685a;
      }

      .cls-13 {
        fill: #605246;
      }
    </style>
  </defs>
  <g>
    <text class="cls-9" transform="translate(61.79 396.2)"><tspan x="0" y="0">SUNFL</tspan><tspan class="cls-11" x="87.4" y="0">O</tspan><tspan x="106.23" y="0">WER</tspan></text>
    <text class="cls-3" transform="translate(101.25 417.59)"><tspan x="0" y="0">해바라기 · 감사</tspan></text>
  </g>
  <g>
    <g>
      <path class="cls-5" d="M176.74,210.97s.49,20.76.68,30.54c.15,8.03-4.26,27.85-4.26,27.85,1.49-3.17,10.9-13.97,13.78-19.28s-.59-6.98,1.19-14.91c1.78-7.93,7.33-11,9.32-12.98,1.98-1.98,5.85-4.96,11.89-5.65,6.05-.69,4.86-2.37,9.71-4.66s5.36-2.08,15.22-3.79c9.86-1.71,9.66,2.55,15.18,3.19,5.52.64,11.15-3.08,11.15-3.08-.64,1.67-3.72,5.13-7.69,7.18s-5.9,4.49-6.54,5.64-1.8,3.59-4.49,5.39-3.21,4.87-3.72,6.28-3.08,6.8-5.13,8.85-5.51,2.44-7.44,3.21-1.41,3.08-7.57,3.46-7.44,1.41-11.16,4.1c-3.72,2.69-5.64,1.8-9.87,1.8s-5.77,1.28-9.62,2.95c-3.85,1.67-9.36,10.51-10.77,12.69s-9.23,16.54-10.9,19.62-6.67,14.62-6.67,14.62c5.13-7.18,20.9-16.41,20.9-16.41-2.18,1.28-10,8.72-13.59,12.05-3.59,3.33-11.56,15.6-11.56,15.6-1.45,2.1-13.56,20.83-18.08,25.02-4.52,4.2-20.63,27.61-20.63,27.61l8.78-16.95s17.52-32.25,20.08-37.29c2.56-5.04,3.68-12.64,4-18.64.32-6-2.32-12.16-4-14.96-1.68-2.8-7.68-3.12-10.16-2.16s-7.12,1.6-8.64,1.84c-1.52.24-2.96,4.16-8.4,6.16-5.44,2-9.6-.24-11.12-1.68s-2.96-.64-5.92-.96-5.12-2.4-6.48-3.36c-1.36-.96-6.4-1.28-8.32-.88s-6.72,3.36-10.32,3.92c-3.6.56-7.84,3.28-10.4,5.44-2.56,2.16-3.12,4.08-3.12,4.08,0,0-.4-.88.24-3.36s3.84-9.52,6.96-10.4,10.24-6.48,10.32-8.64,9.52-14.88,13.76-14.32c4.24.56,4.96-1.04,4.96-1.04,0,0-1.68-4.64,4.96-7.76,6.64-3.12,14.24-.32,14.24-.32-1.52-.8-.96-1.52-.96-1.52,6.88-4.24,15.84,3.76,15.84,3.76,11.36-.08,14.32,15.2,14,19.12-.32,3.92,1.12,7.68,3.92,15.12,2.8,7.44.19,20.07.19,20.07,0,0,2.81-5.03,9.25-18.7,6.43-13.67,9.85-32.77,10.45-49.05.6-16.28-6.89-32.4-6.89-32.4,0,0-10.86-19.39-6.04-32.5"/>
      <path class="cls-10" d="M130.42,96.96c-.19-18.56,12.06-26.51,13.13-29.54,1.07-3.03,2.19-5.97,1.6-7.32,0,0,1.69,1.61,3.46,4.82,1.77,3.21,2.93,2.44,5.41,6.25,1.3,2,3.89,8.36,3.04,12.42,0,0,8.14-9.17,12.19-11.12,4.04-1.95,10.52-7.8,12.12-9.27s3.62-3.1,3.62-3.1c0,0-.84,1.99-1.74,5.12s-1.05,9.06.07,12.61,1.67,14.7,1.67,14.7c0,0,3.83-5.43,6.76-8.08,2.93-2.65,7.66-7.11,14-8.5,0,0-5.64,3.41-8.22,9.55s-3.41,10.59-3.41,10.59c0,0,6.13-2.09,13.24-1.6,7.11.49,11.22,1.05,14,.21,2.79-.84,3.97-2.37,3.97-2.37,0,0,1.25,1.69.35,4.64s-8.08,17.65-9.34,18.7c0,0,6.41-.84,12.05,1.39,5.64,2.23,11.22,1.95,14.21-.98,0,0-1.32,3.34-3.2,4.04s-15.54,2.65-18.18,3.55c-2.65.91-5.92,3.41-5.92,3.41,0,0,9.96,3.97,12.54,5.57s6.2,2.93,8.64,2.37c2.44-.56,3.62-2.02,3.62-2.02,0,0-.42,3.41-3.9,7.87-3.48,4.46-11.15,12.33-19.58,14.98,0,0,8.15,3.9,11.5,8.71s5.5,9.89,8.43,11.77,7.11,5.02,12.89,2.51c0,0-6.34,4.31-10.8.93-4.46-3.37-10.73-9.5-13.1-10.62s-8.5-2.65-10.8-2.37c0,0,2.23,6.76,4.46,10.1,2.23,3.34,8.08,13.17,6.13,17.7,0,0-6.13-7.59-10.45-7.59s-10.73.42-13.66.28c0,0,7.04,9.82,8.29,15.4,1.25,5.57,2.86,10.38,4.67,11.5,0,0-2-.27-4.47-4.76s-4.45-6.6-7.84-8.12c-3.39-1.51-10.46-4.45-10.46-4.45,0,0-.05,2.89,1.15,6.05s5.18,9.04,10.73,7.38c0,0-4.31,3.03-7.89,1.51-3.58-1.51-6.38-4.22-6.38-4.22,0,0-2.89,12.98-4.31,13.81,0,0,.23-7.57-7.98-10.41,0,0-10.64-4.19-13.43-7.99,0,0,.56,7.71-3.25,13.47s-1.3,17.47.37,19.79,4,12.08,2.04,13.84c0,0-.74-9.94-5.48-14.4-4.74-4.46-7.41-4.51-13.44-10.04-6.03-5.53-8.03-9.93-8.03-9.93,0,0-2.33,8.93-3.6,11.74s-1.6,10.13-.27,12.8c0,0-6.47-4.67-7.4-16.54,0,0-11.6,4.33-13.27,8s-1.2,8.6-1.2,8.6c0,0-4.87-20.14-3.67-25.87,0,0-4.8,2.2-7.13,8.2-2.33,6-4.13,9.2-7.73,9.87,0,0,3.53-3.13,3.6-5.27s1.47-11.07,4.73-14c0,0-6.33,1.07-9.33,3.47-3,2.4-5.87,5.07-7.27,7.73,0,0-3.87-1.93-2.33-8.73,1.53-6.8,1.8-6.2,2-9.67.2-3.47,2.2-9.73,2.2-9.73,0,0-7.67,2.47-9.8,6.27-2.13,3.8-2.87,8.93-2.13,11.74,0,0-1.93-2.13-1.07-8.33.87-6.2,4.8-12.34,6.33-14s3.8-4.4,3.8-4.4c0,0-17.34-1.33-21.74-5.93,0,0,4.4-3.2,5.73-5.53,1.33-2.33,8.73-11,12.14-12.2,0,0-2.47-2.67-10.13,1.2s-9.73,2.13-9.73,2.13c0,0,3.27.13,5.53-1.67s10.33-12.07,15.27-13.07c0,0-7.73-6.4-9.93-12s-3.33-7.67-9.93-6.2c0,0,2.13-3.8,7.73-5.53,5.6-1.73,12.74-3.33,20.34-2.2,0,0-2.6-4.4-6.4-7.53-3.8-3.13-4.8-4.6-8.33-5,0,0,4.07-3.73,15.8,2.13,0,0-4.4-7.87-4.73-13.6s-.53-11.34-1.53-12.74c0,0,3.8,4.4,6.6,5.33s10.94-.07,15.34,2.6c0,0-3.8-6-2.93-12.14.87-6.13,2-8.33,2.4-11.14s.47-6.4-1.27-7.53c0,0,2.4-.33,5.27,1.93s4.47,5,7.53,6.53c3.07,1.53,8.73,8.73,8.73,8.73,0,0,5.49,6.77,6.7,12.81Z"/>
      <ellipse class="cls-6" cx="141.65" cy="152.78" rx="25.94" ry="20.56" transform="translate(-58.19 93.89) rotate(-30.75)"/>
      <ellipse class="cls-2" cx="141.65" cy="152.78" rx="19.69" ry="15.61" transform="translate(-58.19 93.89) rotate(-30.75)"/>
      <path class="cls-1" d="M198.61,279.31l2.47,18.95c.41,3.15,2.85,5.65,5.98,6.15l7.17,1.13-6.89.79c-3.27.38-5.87,2.94-6.28,6.21l-2.45,19.23-2.45-19.23c-.42-3.27-3.01-5.83-6.28-6.21l-6.89-.79,7.17-1.13c3.14-.49,5.57-3,5.98-6.15l2.47-18.95Z"/>
      <path class="cls-1" d="M64.75,36.48l3.37,25.9c.41,3.15,2.85,5.65,5.98,6.15l10.74,1.69-10.46,1.2c-3.27.38-5.87,2.94-6.28,6.21l-3.36,26.33-3.36-26.33c-.42-3.27-3.01-5.83-6.28-6.21l-10.46-1.2,10.74-1.69c3.14-.49,5.57-3,5.98-6.15l3.37-25.9Z"/>
      <path class="cls-1" d="M73.39,228.53l1.05,8.1c.41,3.15,2.85,5.65,5.98,6.15l1.6.25-1.31.15c-3.27.38-5.87,2.94-6.28,6.21l-1.04,8.14-1.04-8.14c-.42-3.27-3.01-5.83-6.28-6.21l-1.31-.15,1.6-.25c3.14-.49,5.57-3,5.98-6.15l1.05-8.1Z"/>
      <path class="cls-1" d="M48.58,182.37l1.56,11.99c.41,3.15,2.85,5.65,5.98,6.15l3.59.57-3.31.38c-3.27.38-5.87,2.94-6.28,6.21l-1.54,12.11-1.54-12.11c-.42-3.27-3.01-5.83-6.28-6.21l-3.31-.38,3.59-.57c3.14-.49,5.57-3,5.98-6.15l1.56-11.99Z"/>
      <circle class="cls-1" cx="125.29" cy="304.8" r="1.39"/>
      <circle class="cls-1" cx="179.17" cy="299.94" r="1.39"/>
      <circle class="cls-1" cx="154.7" cy="252.48" r="1.39"/>
      <circle class="cls-13" cx="130.46" cy="147.7" r="1.56"/>
      <circle class="cls-13" cx="135.1" cy="144.91" r="1.23"/>
      <circle class="cls-13" cx="135.69" cy="149.59" r="1.23"/>
      <circle class="cls-13" cx="139.19" cy="145.78" r=".87"/>
      <circle class="cls-13" cx="128.48" cy="151.74" r=".87"/>
      <circle class="cls-1" cx="135.46" cy="296.7" r="1.06"/>
      <circle class="cls-1" cx="110.56" cy="304.46" r="1.06"/>
      <circle class="cls-1" cx="202.16" cy="269.69" r="1.06"/>
      <circle class="cls-1" cx="241.18" cy="163.97" r="1.39"/>
      <circle class="cls-1" cx="221.26" cy="198.81" r=".89"/>
      <circle class="cls-1" cx="184.86" cy="226.78" r=".89"/>
      <circle class="cls-1" cx="151.38" cy="235.3" r=".89"/>
      <circle class="cls-1" cx="63.32" cy="218.88" r=".72"/>
      <circle class="cls-1" cx="57.22" cy="235.11" r=".72"/>
      <circle class="cls-1" cx="75.33" cy="96.56" r=".72"/>
      <circle class="cls-1" cx="89.04" cy="60.81" r=".72"/>
      <circle class="cls-1" cx="154.19" cy="50.95" r=".98"/>
      <circle class="cls-1" cx="163.03" cy="67.07" r=".66"/>
      <circle class="cls-1" cx="235.79" cy="109.05" r=".66"/>
      <circle class="cls-1" cx="239.98" cy="190" r=".89"/>
      <ellipse class="cls-1" cx="141.65" cy="152.78" rx="29.59" ry="23.46" transform="translate(-58.19 93.89) rotate(-30.75)"/>
      <path class="cls-1" d="M157.06,83.58c-2.3,16.48-5.07,20.26-5.5,29.57,0,0-1.24,9.48,1.73,15.06"/>
      <path class="cls-1" d="M185,92.53s.87,8.79-10.37,19.78c0,0-10.3,10.15-12.59,19.78"/>
      <path class="cls-1" d="M130.42,96.96s2.65,22.32,12,31"/>
      <path class="cls-1" d="M194.12,96.08s-8.02,1.85-12.56,7.57"/>
      <path class="cls-1" d="M216.35,115.66s-6.9,9.41-18.62,14.73c-11.73,5.32-30.64,7.26-30.64,7.26"/>
      <path class="cls-1" d="M215.3,127.08s-6.73-1.09-12.1.35"/>
      <path class="cls-1" d="M216.63,155.86s-7.07,2.11-15.54,1.02c-8.47-1.09-31.39-7.4-31.39-7.4"/>
      <path class="cls-1" d="M214.75,166.8s-3.89-7.56-8.66-9.61"/>
      <path class="cls-1" d="M201.23,187.28s-17.82-.54-35.65-25.87"/>
      <path class="cls-1" d="M191.42,196.85s-2.37-12.5-8.01-17"/>
      <path class="cls-1" d="M135.52,215.7s-4.16-23.53,8.03-38.64"/>
      <path class="cls-1" d="M124.26,223.71s6.65-3.69,10.58-13.01"/>
      <path class="cls-1" d="M106.12,214.44s0-7.3,5.42-16.3c3.65-6.06,11.44-15.69,17.28-21.07"/>
      <path class="cls-1" d="M99.59,213.24s2.71-.58,6.99-2.54"/>
      <path class="cls-1" d="M84.85,196.3s3.67-17.78,33.21-25.82"/>
      <path class="cls-1" d="M81.98,187.57s2.25.25,8.22-.95"/>
      <path class="cls-1" d="M78.12,163.9s10.79-11.03,35.42-5.57"/>
      <path class="cls-1" d="M79.05,152.49s4.28,3.57,13.83,4.93"/>
      <path class="cls-1" d="M87.25,126.56s20.87.4,29.52,19.22"/>
      <path class="cls-1" d="M88.32,116.16s3.86,8.55,10.47,12.96"/>
      <path class="cls-1" d="M103.99,97.75s18.47,12.58,23.55,36.23"/>
      <path class="cls-1" d="M188.17,252.48s6.1-13.05,22.84-13.62c16.74-.57,20.33-2.53,24.55-6.38"/>
      <path class="cls-1" d="M191.01,248.29s-.45-14.38,3.61-20.42"/>
      <path class="cls-1" d="M209.57,218.06s-10.82,14.09-10.96,24.03"/>
      <path class="cls-1" d="M204.09,239.89s5.48-11.93,23.8-10.24"/>
      <path class="cls-1" d="M210.85,232.97s7.34-13.62,27.64-13.02"/>
      <path class="cls-1" d="M224.67,221.53s6.79-7.82,22.44-6.93"/>
      <path class="cls-1" d="M219.87,224.34s1.78-9.45,11.88-13.81"/>
      <path class="cls-1" d="M208.78,234.41s2.07-10.07,7.21-15.26"/>
      <path class="cls-1" d="M201.1,240.92s5,4.38,17.28,3.89"/>
      <path class="cls-1" d="M194.51,244.84s4.26,2.04,10.31,1.94"/>
      <path class="cls-1" d="M143.56,273.9s-23.25-31.45-73.94,9.02"/>
      <path class="cls-1" d="M134.84,252.29s5.18,8.62,4.38,17.4"/>
      <path class="cls-1" d="M121.33,250.32s7.95,5.91,9.4,14.51"/>
      <path class="cls-1" d="M106.59,249.23s15.69,5.87,17.62,13.72"/>
      <path class="cls-1" d="M99.09,256.78s9.75,0,17.74,5.48"/>
      <path class="cls-1" d="M85.84,264.83s12.64-4.23,23.68-1.98"/>
      <path class="cls-1" d="M141.21,271.39s-8.16-3.96-13.2-2.22c-5.04,1.74-8.46,7.76-12.61,9.73s-8.81,3.07-8.81,3.07"/>
      <path class="cls-1" d="M128.57,264.06s-6.81.93-10.2,3.78c-3.4,2.85-5.86,6.14-8.85,7.51-2.98,1.36-9.77,2.57-12.73,2.46"/>
      <path class="cls-1" d="M112.68,262.45s-4.94,4.97-9.54,6.28c-4.6,1.3-11.5,6.62-11.5,6.62"/>
      <path class="cls-1" d="M95.03,267.17s-9.52,8.8-13.24,10.65"/>
      <path class="cls-1" d="M120.79,262.45s-6.63,3.24-8.82,5.13c-2.19,1.9-6.13,5.01-11.19,6.42"/>
      <path class="cls-1" d="M182.99,284.9s7.74-11.05,9.81-15.21c2.07-4.16,7.57-7.36,10.3-6.8,2.73.57,4.34,1.6,3.02,4.72,0,0-.77-2.91-3.49-2.77-3.25.16-5.38,1.92-7.84,4.86-2.06,2.45-9.57,13.55-11.8,15.21Z"/>
      <path class="cls-1" d="M206.93,290.24s7.4-3.08,8.78-6.55c1.39-3.47-.85-7.09-1.46-8.86s.89-6.86,1.91-8.17,3.18-5.09,8.03-6.47c4.85-1.39,17.64-2.16,18.72,8.01,0,0-2.23-7.17-10.02-7.4-7.78-.23-10.86,3.47-12.33,6.32s-1.93,7.78-1.85,11.25c.08,3.47,0,6.86-2.47,8.71-2.47,1.85-5.24,3.24-9.32,3.16Z"/>
      <path class="cls-1" d="M137.71,17.34s-13.58-6.26-20.94,6.48c-7.36,12.75-7.97,20.09-3.24,23.55,4.73,3.46,15.01,2.81,16.89,11.45,0,0,2.45,7.82-1.34,12.87,0,0,5.43-4.35,5.22-8.97-.11-2.34.21-5.66-3.88-10.78-3.26-4.08-11.28-5.31-14.07-8.19-1.51-1.56-1.62-5.05-.53-8.84,1.09-3.79,3.89-10.29,6.06-12.55,2.66-2.77,6.71-7.51,15.82-5.02Z"/>
      <path class="cls-1" d="M48.22,107.11c-1.02,2.33-.82,4.98.35,7.24.83,1.6,1.58,4.27.85,8.29-1.33,7.3-3.28,18.97-.98,24.4s13.99,11.3,15.43,14.18c0,0-5.06-5.41-7.95-7.72s-7.28-5.95-7.44-10.58c-.23-6.44,5.2-21.16,2.92-28.81-.88-2.94-2.23-3.38-1.36-6.31.47-1.58,3.98-3.84,3.98-3.84,0,0-3.17-.98-5.54,2.59,0,0-.1.21-.26.56Z"/>
      <path class="cls-1" d="M144.47,71.69s-6.75,29.88,4.28,55.89"/>
      <path class="cls-1" d="M147.53,88.17c2.7-13.47-2.37-28.07-2.37-28.07,0,0,6.71,7.59,4.4,34.9"/>
      <path class="cls-1" d="M137.71,97.75s-3.18-12.09,1.38-21.05"/>
      <path class="cls-1" d="M133.35,91.26s-2.09,13.38,9.33,33.62"/>
      <path class="cls-1" d="M138.36,100.91s4.25,21.47,9.17,26.66"/>
      <path class="cls-1" d="M147.1,98.73s.31,20.66,3.38,26.16"/>
      <path class="cls-1" d="M177.89,66.26s-9.4,14.26-12.59,23.09"/>
      <path class="cls-1" d="M181.56,80.34s2.04,7.37-5.61,19.52c-7.65,12.15-10.65,18.53-12.11,23.76"/>
      <path class="cls-1" d="M178.41,88.08s-3.28,11.96-7.65,17.82"/>
      <path class="cls-1" d="M167.76,96.54s-9.35,24.27-9.17,33.47"/>
      <path class="cls-1" d="M160.75,96.54s-1.54,4.83-2.18,7.1-3.33,21.32-1.5,25.69"/>
      <path class="cls-1" d="M163.85,111.65s-.98,11.56-1.8,14.65"/>
      <path class="cls-1" d="M154.19,108.68s-.57,17.16.87,19.98"/>
      <path class="cls-1" d="M224.53,95.5c-2.72,1.06-41.12,15.72-59.5,39.32"/>
      <path class="cls-1" d="M190.68,105.32s7.81-8.98,22.13-10.33"/>
      <path class="cls-1" d="M180.48,114.24s-10.79,9.38-16.92,19.1"/>
      <path class="cls-1" d="M204.5,114.24s-29.33,19.23-38.54,21.74"/>
      <path class="cls-1" d="M195.57,116.64s-14.19,10.42-26.43,15.93"/>
      <path class="cls-1" d="M188.38,131.64s-5.91,1.7-12.74,2.39"/>
      <path class="cls-1" d="M225.34,92.32c-.43,3.91-6.75,19.03-14.4,25.75-8.39,7.38-14.02,10.58-14.02,10.58"/>
      <path class="cls-1" d="M201.23,133.34s9.77-3.44,18.1,0"/>
      <path class="cls-1" d="M222.46,142.09s15.49-2.12,17.65-9.09c-4.35,7.69-31.51,4.64-31.51,4.64"/>
      <path class="cls-1" d="M168.86,141.62s12.02-5.46,27.75-7.18"/>
      <path class="cls-1" d="M169.69,145.87s23.74-1.99,33.07.08"/>
      <path class="cls-1" d="M175.64,147.58s26.46,4.1,39.67-.38"/>
      <path class="cls-1" d="M211.13,152.78s9.77.68,20.09-10.06"/>
      <path class="cls-1" d="M204.5,153.33s-15.68.95-34.73-5.09"/>
      <path class="cls-1" d="M169.42,143.87s22.29-6.23,32.67-6.23"/>
      <path class="cls-1" d="M225.34,194.6s-6.88-14.75-25.31-22.03"/>
      <path class="cls-1" d="M166.54,159.75s18.18,28.32,46.79,25.74"/>
      <path class="cls-1" d="M167.37,158.1s15.44,15.83,26.07,18.97c10.62,3.14,16.85,7.14,16.85,7.14"/>
      <path class="cls-1" d="M167.89,156.9s20.2,13.24,28.3,14.25"/>
      <path class="cls-1" d="M202.1,165.36s9.12,3.62,13.21,9.42c4.09,5.8,5.07,9.41,5.07,9.41"/>
      <path class="cls-1" d="M198.47,164.72s-19.33-9.29-30.08-9.17"/>
      <path class="cls-1" d="M169.05,153.39s16.02.57,25.71,3.8c9.69,3.23,14.34,5.87,17.39,9.89,3.05,4.03,3.16,5.48,3.16,5.48"/>
      <path class="cls-1" d="M162.68,165.36s16.76,9.89,24.37,25.96c3.08,6.5-2.04,23.2-2.04,23.2"/>
      <path class="cls-1" d="M164.01,169.05s8.02,5.74,14,17.69"/>
      <path class="cls-1" d="M157.92,169.97s3.52,15.84,5.01,22.03c1.49,6.19,4.48,10.6,6.12,12.23"/>
      <line class="cls-1" x1="163.9" y1="177.61" x2="171.92" y2="194.13"/>
      <path class="cls-1" d="M160.65,167.55s15.8,16.28,20.99,28.84"/>
      <path class="cls-1" d="M163.06,181.2s.95,11.1,8.27,18.69c6,6.22,8.11,9.25,8.11,9.25"/>
      <path class="cls-1" d="M172.6,197.21s9.04,10.87,10.11,14.56"/>
      <path class="cls-1" d="M182.07,197.62s2.56,5.15,3.13,9.46"/>
      <path class="cls-1" d="M160.65,170.34s12.88,16.11,14.99,24.91"/>
      <path class="cls-1" d="M147.75,175.78s-3.15,23.15,8.16,56.08"/>
      <path class="cls-1" d="M149.07,175.25s6.84,16.17,6.84,30.48"/>
      <path class="cls-1" d="M145.88,176.42s-2.85,14.99-2.32,24.89"/>
      <path class="cls-1" d="M144.01,207.07s.88,15.66,8.65,22.41"/>
      <path class="cls-1" d="M144.35,176.86s-6.33,16.55-6.92,23.24-1.18,11.21,1.38,16.32c2.56,5.11,6.09,8.26,6.09,8.26"/>
      <path class="cls-1" d="M143.03,218.28s2.09,5.89,5.37,8.5"/>
      <path class="cls-1" d="M151.63,174.05s6.78,17.36,8.02,28.7c1.11,10.26-1.87,13.92-2.56,16.4s-.88,7.09-.59,8.52"/>
      <path class="cls-1" d="M136,177.98s-8.23,26.97-10.38,31.16"/>
      <path class="cls-1" d="M138.2,177.98s-3.36,19.22-8.65,31.75"/>
      <path class="cls-1" d="M132.81,177.89s-11.53,17.89-14.75,28.05c-3.22,10.16-1.61,9.38-4.86,16.23"/>
      <path class="cls-1" d="M130.27,177.41s-12.92,14.12-16.74,21.63c-3.82,7.51-4.64,10.42-5.16,14.2-.51,3.78-.51,7.48-.51,7.48"/>
      <path class="cls-1" d="M115.05,201.31s-5.75,13.73-6.06,23.92"/>
      <path class="cls-1" d="M134.28,177.93s-6.7,13.97-7.63,16.73"/>
      <path class="cls-1" d="M109.79,240.31s-2.85-9.6,6.08-17.78c0,0,6.75-6.42,7.68-8.09"/>
      <path class="cls-1" d="M101.45,197.09c-17.75,16.88-18.47,27.35-18.47,27.35"/>
      <path class="cls-1" d="M88.63,199.68s12.2-19.43,28.14-24.43"/>
      <path class="cls-1" d="M106.58,191.41s8.47-13.8,16.43-16.77"/>
      <path class="cls-1" d="M97.13,194.13s14.11-16.24,24.78-20.2"/>
      <path class="cls-1" d="M84.26,208.03s7.8-30.8,35.23-36.04"/>
      <path class="cls-1" d="M84.26,210.76s-2.31,4.4-2.28,7.52l.03,3.12"/>
      <path class="cls-1" d="M103.5,202.35s-7.91,7.92-12.04,10.89-5.37,4.92-5.37,4.92"/>
      <path class="cls-1" d="M124.11,175.25s-7.34,13.62-14.11,19.71"/>
      <path class="cls-1" d="M88.02,175.34c-14.34,6.49-27.78,6.29-27.78,6.29,0,0,11.4-3.67,18.8-9.33"/>
      <path class="cls-1" d="M73.16,182.88s8.62-.52,11.69-1.88"/>
      <path class="cls-1" d="M93.47,173.77s13.01-7.77,21.58-8.18"/>
      <path class="cls-1" d="M80.49,165.08s13.26-8.2,25.63-4.73"/>
      <path class="cls-1" d="M75.67,185.34s6.45,1.16,16.55-3.7"/>
      <path class="cls-1" d="M114.19,169.29c-4.61.4-13.04,4.79-15.38,7.68"/>
      <path class="cls-1" d="M86.09,171.05s19.16-7.09,28.32-7.15"/>
      <path class="cls-1" d="M90.75,163.9s9.96-1.61,23.44-.83"/>
      <path class="cls-1" d="M76.78,128.65s28.89-1.63,38.27,20.94"/>
      <path class="cls-1" d="M97.74,136.17s11.89,5.93,16.9,14.65"/>
      <path class="cls-1" d="M88.02,139.63s9.49,6.05,26.34,12.11"/>
      <path class="cls-1" d="M102.88,144.11s7.87,3.88,11.62,7.18"/>
      <path class="cls-1" d="M90.75,145.24s11.47,5.75,20.23,5.25"/>
      <path class="cls-1" d="M76.78,147.7s6.56,10.51,37.06,6.44"/>
      <path class="cls-1" d="M59.18,134.29s6.39-4.22,19.87,2.95"/>
      <path class="cls-1" d="M69.57,136.17s8.3,10.35,18.46,11.71"/>
      <path class="cls-1" d="M67.27,130.19s13.83-1.98,30.47,10.44"/>
      <path class="cls-1" d="M120.24,140.63c-14.45-8.13-24.74-18.76-24.74-18.76-3.64-4.12-10.58-14.87-10.65-21.33s-2.8-10.73-2.8-10.73c0,0,7.3,10.99,13.86,13.79"/>
      <path class="cls-1" d="M101.2,114.24s14.4,15.71,24.01,21.48"/>
      <path class="cls-1" d="M101.2,106.82s17.44,10.22,24.73,28.33"/>
      <path class="cls-1" d="M113.56,121.6s9.73,9.01,11.98,13.86"/>
      <path class="cls-1" d="M90.75,108.07s18.27,25.85,32.02,29.82"/>
      <path class="cls-1" d="M96.46,99.63s12.88,3.65,17.1,10.4,5.29,9.43,5.29,9.43"/>
      <path class="cls-1" d="M101.53,111.36s-11.59-7.42-13.51-10.02"/>
      <path class="cls-1" d="M102.19,66.95s3.26,1.52,7.19,8.78c3.93,7.26,14.29,23,14.29,23"/>
      <path class="cls-1" d="M118.85,85.85s4.69,6.14,5.76,9.14"/>
      <path class="cls-1" d="M121.02,101.34s12.35,14.45,14.94,28.29"/>
      <path class="cls-1" d="M112.92,93.83s6.63,17.54,18.48,33.6"/>
      <path class="cls-1" d="M103.99,80.34s4.7,18.39,11.06,24.92"/>
      <path class="cls-8" d="M183.37,284.9s7.74-11.05,9.81-15.21,7.57-7.36,10.3-6.8c2.73.57,4.34,1.6,3.02,4.72,0,0-.77-2.91-3.49-2.77-3.25.16-5.38,1.92-7.84,4.86-2.06,2.45-9.57,13.55-11.8,15.21Z"/>
      <path class="cls-8" d="M207.31,290.24s7.4-3.08,8.78-6.55c1.39-3.47-.85-7.09-1.46-8.86s.89-6.86,1.91-8.17,3.18-5.09,8.03-6.47c4.85-1.39,17.64-2.16,18.72,8.01,0,0-2.23-7.17-10.02-7.4-7.78-.23-10.86,3.47-12.33,6.32s-1.93,7.78-1.85,11.25c.08,3.47,0,6.86-2.47,8.71-2.47,1.85-5.24,3.24-9.32,3.16Z"/>
      <path class="cls-8" d="M138.09,17.34s-13.58-6.26-20.94,6.48c-7.36,12.75-7.97,20.09-3.24,23.55,4.73,3.46,15.01,2.81,16.89,11.45,0,0,2.45,7.82-1.34,12.87,0,0,5.43-4.35,5.22-8.97-.11-2.34.21-5.66-3.88-10.78-3.26-4.08-11.28-5.31-14.07-8.19-1.51-1.56-1.62-5.05-.53-8.84,1.09-3.79,3.89-10.29,6.06-12.55,2.66-2.77,6.71-7.51,15.82-5.02Z"/>
      <path class="cls-8" d="M48.6,107.11c-1.02,2.33-.82,4.98.35,7.24.83,1.6,1.58,4.27.85,8.29-1.33,7.3-3.28,18.97-.98,24.4,2.3,5.43,13.99,11.3,15.43,14.18,0,0-5.06-5.41-7.95-7.72s-7.28-5.95-7.44-10.58c-.23-6.44,5.2-21.16,2.92-28.81-.88-2.94-2.23-3.38-1.36-6.31.47-1.58,3.98-3.84,3.98-3.84,0,0-3.17-.98-5.54,2.59,0,0-.1.21-.26.56Z"/>
      <path class="cls-7" d="M198.99,279.31l2.47,18.95c.41,3.15,2.85,5.65,5.98,6.15l7.17,1.13-6.89.79c-3.27.38-5.87,2.94-6.28,6.21l-2.45,19.23-2.45-19.23c-.42-3.27-3.01-5.83-6.28-6.21l-6.89-.79,7.17-1.13c3.14-.49,5.57-3,5.98-6.15l2.47-18.95Z"/>
      <path class="cls-7" d="M65.14,36.48l3.37,25.9c.41,3.15,2.85,5.65,5.98,6.15l10.74,1.69-10.46,1.2c-3.27.38-5.87,2.94-6.28,6.21l-3.36,26.33-3.36-26.33c-.42-3.27-3.01-5.83-6.28-6.21l-10.46-1.2,10.74-1.69c3.14-.49,5.57-3,5.98-6.15l3.37-25.9Z"/>
      <path class="cls-7" d="M73.77,228.53l1.05,8.1c.41,3.15,2.85,5.65,5.98,6.15l1.6.25-1.31.15c-3.27.38-5.87,2.94-6.28,6.21l-1.04,8.14-1.04-8.14c-.42-3.27-3.01-5.83-6.28-6.21l-1.31-.15,1.6-.25c3.14-.49,5.57-3,5.98-6.15l1.05-8.1Z"/>
      <path class="cls-7" d="M48.96,182.37l1.56,11.99c.41,3.15,2.85,5.65,5.98,6.15l3.59.57-3.31.38c-3.27.38-5.87,2.94-6.28,6.21l-1.54,12.11-1.54-12.11c-.42-3.27-3.01-5.83-6.28-6.21l-3.31-.38,3.59-.57c3.14-.49,5.57-3,5.98-6.15l1.56-11.99Z"/>
    </g>
    <g>
      <g>
        <ellipse class="cls-12" cx="140.03" cy="152.78" rx="18.14" ry="14.38" transform="translate(-58.42 93.06) rotate(-30.75)"/>
        <path d="M155.64,143.49c2.24,3.72,2.04,8.47.28,12.35-3.5,7.85-12.21,13.07-20.8,12.47-9.85-.6-15.28-9.72-11.17-18.68,1.77-3.97,4.91-7.21,8.59-9.43,7.12-4.3,18.35-4.57,23.09,3.29h0ZM155.6,143.52c-7.81-11.58-26.43-4.92-31.19,6.32-4.07,8.7,1.17,17.52,10.74,18.15,12.21,1.26,27.01-12.05,20.44-24.47h0Z"/>
      </g>
      <path d="M196.99,279.28l2.37,17.64c.06,3.77,2.81,7.2,6.68,7.47,1.42.22,5.13.79,6.59,1.02.13.02.14.23,0,.25,0,0-4.45.52-4.45.52-2.94.17-6.07.85-7.62,3.61-.81,1.27-.98,2.74-1.15,4.22,0,0-2.23,17.77-2.23,17.77,0,.11-.11.21-.23.19-.09-.01-.16-.09-.17-.17-.79-5.92-1.57-11.84-2.31-17.77-.11-2.93-1.53-5.84-4.37-6.95-1.32-.58-2.84-.56-4.32-.78l-4.45-.51c-.14-.02-.24-.14-.22-.27.01-.11.1-.2.21-.22l4.4-.67c1.28-.22,3.13-.36,4.31-.84,2.84-1.06,4.37-3.94,4.51-6.87,0,0,2.45-17.63,2.45-17.63h0ZM196.99,279.33c-.19,1.27-2.25,19.25-2.48,19.85-.71,3-3.48,5.26-6.52,5.53,0,0-2.19.36-2.19.36l-4.39.71v-.49s4.44.51,4.44.51c1.35.18,3.21.25,4.46.81,2.99,1.16,4.56,4.28,4.67,7.35.76,5.92,1.5,11.85,2.22,17.78,0,0-.4,0-.4,0v-.02c.2-1.28,2.45-19.37,2.64-19.99,1.04-4.27,4.73-5.68,8.72-5.82,0,0,4.45-.5,4.45-.5,0,0,0,.25,0,.25-1.49-.24-5.15-.83-6.58-1.06-3.93-.29-6.76-3.82-6.79-7.65,0,0-2.22-17.62-2.22-17.62h0Z"/>
      <path d="M63.13,36.46l3.05,22.91c.32,1.89.27,3.91,1.26,5.57.93,1.66,2.56,2.9,4.41,3.36,3.77.66,7.6,1.2,11.39,1.81.13.02.14.24,0,.25,0,0-5.78.67-5.78.67-1.7.24-4.12.38-5.75.76-2.8.75-4.89,3.32-5.11,6.2-.06.3-3.09,24.64-3.27,25.99,0,.11-.11.21-.23.19-.09-.01-.16-.09-.17-.17l-2.99-23.1-.37-2.89c-.22-2.84-2.29-5.38-5.05-6.12-3.22-.59-8.22-.97-11.52-1.41-.27-.02-.29-.46-.01-.49,3.79-.6,7.63-1.14,11.39-1.78,1.82-.45,3.43-1.67,4.35-3.31.98-1.62.93-3.63,1.26-5.54l3.14-22.88h0ZM63.13,36.51l-2.83,22.92c-.24,1.72-.32,4.13-1.25,5.64-.96,1.73-2.64,3.03-4.56,3.53-3.82.69-7.61,1.25-11.41,1.88,0,0-.01-.49-.01-.49,3.24.44,8.52.84,11.59,1.43,2.94.78,5.17,3.52,5.41,6.54,0,0,.37,2.89.37,2.89l2.9,23.11s-.4,0-.4,0v-.02c.19-1.47,3.3-25.57,3.36-25.98.24-2.98,2.44-5.68,5.35-6.44,1.69-.39,4.06-.51,5.79-.75,0,0,5.78-.65,5.78-.65v.25c-3.81-.62-7.6-1.18-11.41-1.86-1.89-.48-3.56-1.77-4.51-3.47-.92-1.48-1.01-3.93-1.25-5.61,0,0-2.91-22.89-2.91-22.89h0Z"/>
      <path d="M71.77,228.51c.22,1.6.77,5.53.98,7.07.13,3.17,2.19,6.17,5.35,6.94.75.19,1.55.27,2.33.4.07.01.11.08.1.14-.3.28-1.86.21-2.44.46-3.14.79-5.15,3.79-5.25,6.94,0,0-.29,2.36-.29,2.36,0,0-.58,4.73-.58,4.74-.02.22-.37.23-.4,0-.22-1.59-.76-5.54-.95-7.08-.12-4.2-3.36-7.17-7.52-7.2-.14-.02-.23-.14-.22-.28.01-.11.1-.2.21-.22.78-.13,1.58-.21,2.32-.39,3.13-.75,5.16-3.7,5.31-6.84.32-2.26.76-4.83,1.05-7.05h0ZM71.77,228.56c-.47,3.13-.49,6.34-1.2,9.41-.93,3.27-4.17,5.09-7.4,5.31,0,0-.01-.49-.01-.49,1.58.13,3.28.42,4.62,1.38,2.1,1.35,3.2,3.83,3.33,6.25,0,0,.3,2.36.3,2.36l.56,4.73h-.4v-.02s.62-4.72.62-4.72l.31-2.36c.14-2.4,1.23-4.84,3.32-6.17,1.33-.95,2.99-1.21,4.57-1.34,0,0,0,.25,0,.25-4.29-.24-7.61-3.15-7.76-7.55-.18-1.52-.67-5.49-.86-7.05h0Z"/>
      <path d="M46.96,182.34l1.7,12.37c.53,3.1,3.27,5.49,6.38,5.76,0,0,3.08.47,3.08.47.14.02.14.24,0,.25-2.05.33-4.24.21-6.01,1.29-1.77,1.03-3.06,2.85-3.38,4.87-.4,3.09-1.18,9.33-1.56,12.42,0,.23-.37.26-.4.02,0,0-1.64-12.41-1.64-12.41-.47-3.03-3.16-5.47-6.21-5.71,0,0-3.11-.36-3.11-.36-.28-.02-.29-.46-.01-.49,0,0,3.08-.46,3.08-.46,3.08-.26,5.78-2.6,6.31-5.67,0,0,.9-6.23.9-6.23.32-2.06.61-4.09.88-6.12h0ZM46.96,182.39c-.54,4.15-.9,8.22-1.47,12.36-.35,2.1-1.68,4.01-3.55,5.07-1.61,1.01-4.27,1.13-6.09,1.49,0,0-.01-.49-.01-.49l3.11.36c3.26.25,6.15,2.88,6.64,6.12.41,3.09,1.19,9.34,1.55,12.44,0,0-.4,0-.4,0,0,0,0-.02,0-.02l.81-6.21.82-6.21c.51-3.2,3.36-5.77,6.57-6.01,0,0,3.11-.35,3.11-.35v.25s-3.08-.5-3.08-.5c-3.17-.3-5.99-2.79-6.49-5.96-.29-2.06-.52-4.1-.78-6.15l-.77-6.19h0Z"/>
      <path d="M125.09,304.8c-.06,1.98-2.89,2.02-3.01,0,0-2.14,3.04-2.2,3.01,0h0ZM125.04,304.8c-.06-1.5-2.5-1.51-2.56,0-.05,1.65,2.55,1.7,2.56,0h0Z"/>
      <path d="M178.97,299.94c-.06,1.98-2.89,2.02-3.01,0,0-2.14,3.04-2.2,3.01,0h0ZM178.92,299.94c-.06-1.5-2.5-1.51-2.56,0-.05,1.65,2.55,1.7,2.56,0h0Z"/>
      <path d="M154.5,252.48c-.06,1.98-2.89,2.02-3.01,0,0-2.14,3.04-2.2,3.01,0h0ZM154.45,252.48c-.06-1.5-2.5-1.51-2.56,0-.05,1.65,2.55,1.7,2.56,0h0Z"/>
      <g>
        <circle class="cls-4" cx="128.84" cy="147.7" r="1.56"/>
        <path d="M130.43,147.7c-.06,2.2-3.22,2.24-3.34,0,0-2.36,3.36-2.42,3.34,0h0ZM130.38,147.7c-.07-1.73-2.81-1.73-2.89,0-.04,1.88,2.89,1.9,2.89,0h0Z"/>
      </g>
      <g>
        <circle class="cls-4" cx="133.48" cy="144.91" r="1.23"/>
        <path d="M134.74,144.91c-.05,1.76-2.57,1.81-2.69,0-.02-1.92,2.73-1.98,2.69,0h0ZM134.69,144.91c-.06-1.3-2.17-1.3-2.24,0-.05,1.43,2.23,1.49,2.24,0h0Z"/>
      </g>
      <g>
        <circle class="cls-4" cx="134.07" cy="149.59" r="1.23"/>
        <path d="M135.32,149.59c-.05,1.76-2.57,1.81-2.69,0-.02-1.92,2.73-1.98,2.69,0h0ZM135.27,149.59c-.06-1.3-2.17-1.3-2.24,0-.05,1.43,2.23,1.49,2.24,0h0Z"/>
      </g>
      <g>
        <circle class="cls-4" cx="137.57" cy="145.78" r=".87"/>
        <path d="M138.46,145.78c-.04,1.29-1.86,1.34-1.97,0-.04-1.45,2.04-1.51,1.97,0h0ZM138.41,145.78c-.06-.84-1.44-.83-1.52,0-.07.96,1.53,1.02,1.52,0h0Z"/>
      </g>
      <g>
        <circle class="cls-4" cx="126.87" cy="151.74" r=".87"/>
        <path d="M127.76,151.74c-.04,1.29-1.86,1.34-1.97,0-.04-1.45,2.04-1.51,1.97,0h0ZM127.71,151.74c-.06-.84-1.44-.83-1.52,0-.07.96,1.53,1.02,1.52,0h0Z"/>
      </g>
      <path d="M134.92,296.7c-.05,1.53-2.23,1.58-2.34,0-.03-1.69,2.39-1.75,2.34,0h0ZM134.87,296.7c-.06-1.07-1.81-1.07-1.89,0-.06,1.2,1.89,1.26,1.89,0h0Z"/>
      <path d="M110.02,304.46c-.05,1.53-2.23,1.58-2.34,0-.03-1.69,2.39-1.75,2.34,0h0ZM109.97,304.46c-.06-1.07-1.81-1.07-1.89,0-.06,1.2,1.89,1.26,1.89,0h0Z"/>
      <path d="M201.62,269.69c-.05,1.53-2.23,1.58-2.34,0-.03-1.69,2.39-1.75,2.34,0h0ZM201.57,269.69c-.06-1.07-1.81-1.07-1.89,0-.06,1.2,1.89,1.26,1.89,0h0Z"/>
      <path d="M240.98,163.97c-.06,1.98-2.89,2.02-3.01,0,0-2.14,3.04-2.2,3.01,0h0ZM240.93,163.97c-.06-1.5-2.5-1.51-2.56,0-.05,1.65,2.55,1.7,2.56,0h0Z"/>
      <path d="M220.56,198.81c-.04,1.32-1.9,1.36-2.01,0-.04-1.47,2.08-1.54,2.01,0h0ZM220.51,198.81c-.06-.87-1.48-.86-1.56,0-.07.98,1.57,1.04,1.56,0h0Z"/>
      <path d="M184.16,226.78c-.04,1.32-1.9,1.36-2.01,0-.04-1.47,2.08-1.54,2.01,0h0ZM184.11,226.78c-.06-.87-1.48-.86-1.56,0-.07.98,1.57,1.04,1.56,0h0Z"/>
      <path d="M150.68,235.3c-.04,1.32-1.9,1.36-2.01,0-.04-1.48,2.08-1.54,2.01,0h0ZM150.63,235.3c-.06-.87-1.48-.86-1.56,0-.07.98,1.57,1.04,1.56,0h0Z"/>
      <path d="M62.45,218.88c-.02,1.09-1.58,1.13-1.67,0-.04-1.25,1.75-1.31,1.67,0h0ZM62.4,218.88c-.06-.65-1.13-.63-1.22,0-.07.76,1.23.82,1.22,0h0Z"/>
      <path d="M56.35,235.11c-.02,1.09-1.58,1.13-1.67,0-.04-1.25,1.75-1.31,1.67,0h0ZM56.3,235.11c-.06-.65-1.13-.63-1.22,0-.07.76,1.23.82,1.22,0h0Z"/>
      <path d="M74.46,96.56c-.02,1.09-1.58,1.13-1.67,0-.04-1.25,1.75-1.31,1.67,0h0ZM74.41,96.56c-.06-.65-1.13-.63-1.22,0-.07.76,1.23.82,1.22,0h0Z"/>
      <path d="M88.16,60.81c-.02,1.09-1.58,1.13-1.67,0-.04-1.25,1.75-1.31,1.67,0h0ZM88.11,60.81c-.06-.65-1.13-.63-1.22,0-.07.76,1.23.82,1.22,0h0Z"/>
      <path d="M153.57,50.95c-.04,1.44-2.08,1.48-2.19,0-.03-1.59,2.25-1.65,2.19,0h0ZM153.52,50.95c-.06-.98-1.67-.97-1.74,0-.07,1.1,1.75,1.16,1.74,0h0Z"/>
      <path d="M162.09,67.04c.03,1.01-1.41,1.13-1.54.08-.1-1.17,1.57-1.31,1.54-.08h0ZM162.04,67.04c-.08-.58-1.04-.5-1.09.05-.04.68,1.15.69,1.09-.05h0Z"/>
      <path d="M234.86,109.02c.03,1.01-1.41,1.13-1.54.08-.1-1.16,1.57-1.31,1.54-.08h0ZM234.81,109.02c-.08-.58-1.04-.5-1.09.05-.04.68,1.15.69,1.09-.05h0Z"/>
      <path d="M239.27,190c-.04,1.32-1.9,1.36-2.01,0-.04-1.47,2.08-1.54,2.01,0h0ZM239.22,190c-.06-.87-1.48-.86-1.56,0-.07.98,1.57,1.04,1.56,0h0Z"/>
      <path d="M128.8,96.93c-.09-6.77,1.65-13.66,5.32-19.4,2.06-3.5,5.01-6.33,7.47-9.52.51-.91.78-1.99,1.14-2.96.45-1.58,1.25-3.29.77-4.93,1.61,1.33,2.84,3.63,3.98,5.52,1.22,1.93,3.43,3,4.61,4.99,1.3,1.87,2.09,4.05,2.76,6.22.54,2.03,1.22,4.82.57,6.71,4.15-4.42,8.24-9.2,13.73-11.98,5.11-3.22,9.58-7.65,14.2-11.52.04-.04.11.02.09.07-.51,1.27-.96,2.57-1.37,3.88-1.28,3.91-1.35,8.17-.69,12.2,1.46,5.31,1.73,10.85,2.07,16.33,0,0-.12-.04-.12-.04,3.89-5.56,8.64-10.61,14.51-14.1,1.97-1.09,4.2-2.2,6.39-2.46-1.57,1.18-3.22,2.43-4.55,3.95-4.05,4.45-5.66,10.51-7.08,16.22,0,0-.11-.09-.11-.09,3.85-1.19,7.89-1.75,11.92-1.67,4.02.15,8.02.71,12.03.69,2.63,0,5.42-.78,7.23-2.77.04-.04.11-.04.14.01.6.95.76,2.08.67,3.16-.49,3.2-2.29,6.03-3.55,8.97-1.95,3.83-3.6,7.84-6.12,11.35,0,0-.08-.18-.08-.18,4.54-.49,9.18.13,13.4,1.86,4.15,1.33,9.39,1.76,12.8-1.42.08-.09.23.01.18.12-.76,1.67-1.79,3.75-3.73,4.24-5.61,1.27-11.35,1.91-16.95,3.2-2.45.64-4.62,2.15-6.66,3.62,0,0-.03-.2-.03-.2,2.1.84,4.18,1.7,6.26,2.59,5.78,1.87,12.72,8.89,18.4,3.36.07-.11.25-.03.22.09-1.83,8.94-15,20.32-23.57,22.97,0,0,.02-.25.02-.25,3.97,2.04,7.89,4.45,10.86,7.85,2.78,3.51,4.53,7.74,7.42,11.16,2.49,2.41,5.79,4.38,9.26,4.84,1.76.19,3.54-.18,5.16-.87.15-.08.29.16.14.25-2.92,1.82-6.8,3.13-10.09,1.49-3.94-2.65-7.28-6.09-10.98-9.05-2.45-2.32-5.64-3.22-8.85-3.91-1.6-.33-3.24-.66-4.84-.55,0,0,.13-.2.13-.2.81,2.38,1.72,4.74,2.78,7.02,2.87,5.54,7.01,10.72,8.07,17.07.19,1.25.26,2.59-.26,3.82-.03.08-.13.12-.21.08-1.48-1.69-3.02-3.36-4.77-4.79-1.67-1.35-3.62-2.78-5.84-2.79-2.24.01-4.47.1-6.71.18-2.24.07-4.48.18-6.73.1l.14-.26c2.86,4.14,5.61,8.4,7.55,13.07,1.28,3.55,1.72,7.35,3.31,10.79.51,1.11,1.08,2.31,2.05,2.98.09.05.14.17.07.25-.04.06-.12.09-.19.07-2.48-.9-3.71-3.36-4.95-5.47-1.21-2.12-2.59-4.21-4.51-5.71-1.91-1.52-4.32-2.25-6.55-3.27,0,0-6.8-2.89-6.8-2.89l.25-.16c.03,1.68.31,3.37.8,4.99,1.39,4.52,5.6,9.78,10.86,8.27.19-.07.33.23.15.33-2.25,1.44-5.08,2.53-7.74,1.65-2.53-.99-4.75-2.56-6.76-4.37,0,0,.31-.09.31-.09-.54,2.37-1.11,4.72-1.75,7.07-.59,2.05-1.11,4.13-2.04,6.06-.15.28-.28.56-.61.8-.08.06-.19.04-.25-.04-.11-2.45-.95-4.93-2.57-6.83-1.59-1.95-3.83-2.99-6.14-3.86-4.48-2.05-9.37-3.95-12.7-7.72,0,0,.36-.13.36-.13.14,4.12-.51,8.3-2.37,12-2.35,3.45-3.15,7.42-2.82,11.56.27,3.23.68,6.63,2.23,9.51,1.49,2.42,2.08,5.3,2.59,8.06.23,1.53.41,3.1.16,4.64-.1.51-.26,1.06-.69,1.49-.12.12-.35.03-.34-.14-1.89-17.48-9.54-15.25-19.95-25.34-2.7-2.66-5.21-5.56-6.99-8.97,0,0,.4-.03.4-.03-1.12,4.07-2.14,8.19-3.74,12.11-.69,1.94-.88,4.07-.96,6.16-.02,2.05.01,4.25.83,6.14.1.19-.17.41-.33.26-4.85-4.11-6.95-10.54-7.49-16.69,0,0,.3.19.3.19-1.89.73-3.77,1.54-5.59,2.43-2.62,1.38-5.58,2.69-7.35,5.13-1.39,2.65-1.54,5.88-1.38,8.82.01.13-.08.24-.21.25-.11,0-.21-.07-.23-.17-1.49-6.4-2.84-12.83-3.6-19.36-.2-2.18-.43-4.38-.07-6.61l.32.25c-1.74.9-3.28,2.26-4.53,3.79-3.84,4.41-3.76,12.77-10.39,14.3-.22.05-.37-.26-.2-.4,1.49-1.5,3.35-3.13,3.54-5.33.27-3.15.95-6.27,2.02-9.25.63-1.69,1.42-3.38,2.77-4.69,0,0,.2.41.2.41-1.68.31-3.35.74-4.97,1.29-3.35,1-5.92,3.37-8.35,5.76-1.2,1.23-2.32,2.55-3.12,4.05-.06.11-.2.15-.31.09-3.49-2.23-3.09-6.92-2.14-10.4.49-2.39,1.39-4.74,1.6-7.17.07-1.21.18-2.48.43-3.69.47-2.43,1.12-4.81,1.85-7.18l.31.31c-3.57,1.35-7.65,2.95-9.74,6.29-1.78,3.43-2.8,7.59-2.04,11.41.05.13-.03.29-.17.32-.1.02-.19-.02-.25-.09-1.5-2.22-1.43-4.91-1.26-7.43.24-2.51.92-4.97,1.88-7.29,1.41-3.48,3.43-6.78,6-9.51,0,0,2.44-2.82,2.44-2.82,0,0,.17.4.17.4-3.81-.33-7.58-.88-11.32-1.67-3.69-.91-7.64-1.7-10.56-4.35-.09-.09-.09-.23,0-.31,2.05-1.6,4.22-3.23,5.67-5.42,2.03-3.12,4.59-5.86,7.2-8.5,1.57-1.45,3.08-3,5.1-3.86,0,0-.08.34-.08.34-1.27-1.03-3.27-.92-4.83-.61-4.7.92-8.69,4.61-13.66,4.36-.46-.05-.9-.11-1.35-.41-.17-.1-.06-.38.13-.35,2.1,0,4.36-.55,5.89-2.05,3.08-3.07,5.91-6.44,9.24-9.28,1.67-1.4,3.43-2.81,5.63-3.39l-.08.31c-3.67-3.22-7.23-6.72-9.53-11.08-2.32-5.62-3.17-8.82-10.2-7.1-.13.03-.24-.13-.16-.24,2.87-4.5,8.23-5.93,13.12-7.02,4.94-1.11,10.08-1.52,15.11-.77,0,0-.14.21-.14.21-1.73-2.78-3.85-5.38-6.36-7.5-2.53-2.02-4.83-4.78-8.28-4.98-.07,0-.11-.06-.11-.13,1.09-.98,2.67-1.17,4.05-1.26,4.19-.13,8.22,1.52,11.94,3.3,0,0-.15.16-.15.16-2.11-4.04-4.04-8.29-4.66-12.85-.29-3.42-.32-6.84-.75-10.24-.17-1.1-.27-2.29-.84-3.25-.07-.09.07-.2.15-.12,2.02,2.12,4.17,4.6,7.06,5.44,4.92.82,10.32-.05,14.84,2.49,0,0-.1.11-.1.11-2-3.46-3.33-7.47-3-11.51.28-2.67.85-5.29,1.55-7.87.88-3.17,1.68-6.59.79-9.83-.21-.62-.55-1.22-1.1-1.59-.04-.02-.02-.1.03-.1,3.78-.15,6.48,2.89,8.88,5.37,1.23,1.29,2.59,2.46,4.19,3.25,1.54.92,2.8,2.22,4.04,3.48,4.76,5.13,9.51,10.98,11.13,17.94h0ZM128.81,96.98c-1.76-7-6.36-12.77-11.19-17.93-1.24-1.26-2.51-2.55-4.03-3.46-1.61-.79-2.98-1.98-4.21-3.26-2.39-2.47-5.08-5.49-8.8-5.33,0,0,.02-.1.02-.1.57.39.93,1.01,1.14,1.65.91,3.26.11,6.72-.77,9.9-2.01,7.03-2.46,12.78,1.46,19.26.04.06-.04.15-.1.11-1.74-1.01-3.75-1.44-5.74-1.7-3-.43-6.07-.23-9.06-.75-2.96-.86-5.1-3.34-7.17-5.49,0,0,.15-.12.15-.12.6,1.02.7,2.2.88,3.33.43,3.4.47,6.84.76,10.24.51,4.57,2.84,8.87,4.61,12.91-.03.02-.07.02-.1,0,0,0-1.87-.88-1.87-.88-3.14-1.36-6.49-2.5-9.95-2.38-1.35.06-2.78.33-3.84,1.12,0,0-.07-.21-.07-.21.83.09,1.66.26,2.44.58,2.32.97,4.02,2.94,5.97,4.45,2.55,2.14,4.67,4.74,6.43,7.56.04.06.02.15-.04.19-2.52-.27-5.08-.48-7.63-.28-3.77.22-7.51.98-11.14,2.03-3.61.91-7.19,2.76-9.24,5.94,0,0-.17-.23-.17-.23,1.79-.37,3.71-.72,5.51-.17,3.1,1.13,3.75,4.81,5.05,7.43,1.1,2.15,2.61,4.08,4.23,5.89,1.63,1.8,3.38,3.5,5.23,5.07.12.09.06.28-.07.31-2.06.54-3.83,1.93-5.47,3.32-3.32,2.84-6.12,6.18-9.21,9.28-1.64,1.59-3.96,2.15-6.17,2.16,0,0,.13-.35.13-.35,1.47.71,3.38.17,4.92-.25,4.15-1.25,7.88-4.31,12.42-4.01.89.08,1.8.27,2.56.93.13.1.06.31-.08.34-3.72,1.87-6.47,5.36-9.23,8.42-1.43,1.57-2.5,3.42-3.8,5.07-1.43,1.6-3.08,2.95-4.78,4.23l.03-.34c1.32,1.28,3.1,2.07,4.86,2.69,5.38,1.83,11.08,2.62,16.73,3.16.2,0,.3.26.17.4,0,0-2.45,2.84-2.45,2.84-4.88,5.43-8.38,12.78-7.75,20.2.15,1.19.46,2.46,1.12,3.37l-.42.23c-.8-4.02.24-8.19,2.08-11.77,1.04-1.83,2.78-3.04,4.5-4.06,1.75-1.01,3.6-1.81,5.52-2.47.19-.07.37.13.31.31-.72,2.34-1.38,4.72-1.84,7.12-.47,2.4-.35,4.95-1.15,7.3-1.02,4.29-3.38,10.32.99,13.44,0,0-.32.1-.32.1.83-1.56,1.98-2.9,3.2-4.14,2.46-2.44,5.15-4.87,8.53-5.87,1.65-.56,3.33-.99,5.05-1.31.23-.06.37.27.2.41-3.01,3.24-3.8,8.05-4.51,12.29.08,2.98-1.76,5.08-3.83,6.98,0,0-.2-.4-.2-.4.96-.18,1.87-.58,2.63-1.19,3.96-3.33,4.21-9.09,7.49-12.95,1.3-1.58,2.85-2.96,4.7-3.92.11-.06.24-.01.3.1-.47,4.32.35,8.8,1.03,13.1.75,4.3,1.64,8.58,2.65,12.83,0,0-.44.07-.44.07-.35-8.65,1.46-10.76,8.98-14.39,1.84-.89,3.72-1.71,5.63-2.44.11-.04.24.01.28.13.41,4.6,1.64,9.21,4.28,13.05.87,1.25,1.87,2.46,3.04,3.39,0,0-.32.27-.32.27-.86-2.01-.88-4.19-.87-6.33-.14-4.32,1.88-8.2,3.02-12.27.6-2.02,1.16-4.05,1.7-6.09.03-.11.15-.18.26-.15,3.75,6.52,9.49,11.95,15.97,15.81,2.4,1.52,4.79,3.17,6.63,5.38,2.9,3.83,3.97,8.7,4.5,13.38,0,0-.34-.14-.34-.14,1.15-1.6.59-3.91.4-5.76-.5-3-1.28-6.01-2.91-8.59-2.23-5.82-3.17-13.94.2-19.48,2.41-3.87,3.23-8.6,3.08-13.11,0-.11.08-.2.19-.21,1.67,1.78,3.81,3.3,6.02,4.47,2.16,1.2,4.4,2.25,6.68,3.21,2.31.86,4.69,1.99,6.29,3.97,1.61,1.95,2.57,4.41,2.62,6.96,0,0-.29-.17-.29-.17,1.38-1.88,1.76-4.43,2.48-6.63.64-2.34,1.21-4.69,1.75-7.05.02-.1.12-.17.23-.14,4.55,3.85,8.38,6.58,14.12,2.74,0,0,.16.33.16.33-1.68.49-3.56.34-5.11-.5-3.07-1.65-5.16-4.76-6.19-8.02-.5-1.65-.78-3.36-.81-5.1,0-.13.14-.22.25-.16,0,0,6.8,2.9,6.8,2.9,2.23,1.02,4.65,1.74,6.63,3.32,1.99,1.55,3.38,3.68,4.6,5.81,1.17,2.01,2.45,4.46,4.69,5.3,0,0-.11.32-.11.32-1.09-.76-1.65-1.98-2.19-3.14-1.59-3.45-2.04-7.27-3.31-10.81-1.92-4.63-4.67-8.89-7.51-13-.08-.11.01-.27.14-.26,4.47.11,8.95-.27,13.43-.27,2.33.02,4.32,1.47,6.05,2.87,1.74,1.44,3.3,3.06,4.75,4.79,0,0-.27.04-.27.04.88-2.35.04-4.98-.74-7.27-1.63-4.84-4.77-8.85-7.05-13.36-1.07-2.3-1.98-4.66-2.79-7.06-.03-.08.01-.17.09-.19,3.36-.11,6.59.87,9.75,1.9,1.61.48,2.93,1.62,4.21,2.63,3.69,2.95,7.01,6.38,10.92,9.02,3.17,1.58,6.96.29,9.79-1.47,0,0,.14.25.14.25-1.66.71-3.5,1.08-5.31.89-3.55-.47-6.91-2.47-9.44-4.94-2.9-3.43-4.65-7.65-7.42-11.17-2.94-3.36-6.82-5.75-10.76-7.78-.07-.03-.09-.11-.06-.18,8-2.82,14.63-8.74,19.84-15.32,1.67-2.23,3.1-4.75,3.63-7.49,0,0,.22.09.22.09-3.44,3.76-8.89,1.91-12.59-.42-3.96-2.13-8.2-3.76-12.36-5.48-.09-.03-.1-.15-.03-.2,2.08-1.49,4.24-2.99,6.74-3.65,4.99-1.14,10.06-1.81,15.09-2.79,1.23-.29,2.6-.35,3.45-1.32.88-.9,1.5-2.04,2-3.19l.18.12c-4.55,4.15-11.13,2.24-16.24.36-3.27-.89-6.73-1.09-10.09-.76-.1.02-.15-.12-.08-.18,2.46-3.45,4.16-7.49,6.08-11.27.92-1.94,1.83-3.88,2.66-5.85.86-1.89,1.39-4.22.24-6.08,0,0,.15,0,.15,0-1.87,2.03-4.69,2.85-7.36,2.83-4.03.02-8.02-.54-12.04-.7-4-.08-8.04.48-11.86,1.66-.06.02-.12-.03-.11-.09.85-3.91,2.14-7.7,3.77-11.35,1.74-3.61,4.58-6.63,7.91-8.84,0,0,.06.14.06.14-2.2.5-4.3,1.37-6.25,2.5-5.84,3.48-10.59,8.51-14.47,14.05-.03.05-.12.02-.12-.04-.15-2.74-.35-5.48-.62-8.21-.23-2.75-.74-5.44-1.44-8.1-.94-5.34-.22-11.48,2.16-16.08-2.18,1.78-4.82,4.23-6.91,6-2.33,1.97-4.71,3.9-7.31,5.52-2.74,1.37-5.15,3.25-7.34,5.39-2.24,1.98-4.39,4.62-6.45,6.53.6-4.46-1.07-9.13-3.38-12.9-1.18-1.99-3.38-3.05-4.61-4.99-1.13-1.97-2.31-3.93-3.91-5.55l.06-.04c.31.83.12,1.71-.05,2.54-.4,1.66-1,3.26-1.57,4.86,0,0-.3.57-.3.57l-.38.52c-7.88,8.55-12.48,16.47-12.46,28.42h0Z"/>
      <path d="M175.14,210.97l.66,29.38c.15,4.91-.67,9.78-1.43,14.6-.88,4.73-1.63,9.95-2.88,14.39,2.25-3.88,6.39-8.77,9.08-12.41,2.87-4.04,6.95-8.32,5.63-13.67-.42-2.53-.41-5.15.15-7.67.9-5.15,4.28-9.44,8.37-12.53,3.62-3.69,8.33-6.28,13.54-6.68,1.26-.18,2.54-.41,3.67-.99,2.14-1.35,4.05-3.18,6.5-4.07,3.48-1.72,7.4-2.14,11.17-2.8,2.52-.41,5.05-.97,7.64-.92,2.63-.03,5.02,1.2,7.2,2.52,4.65,2.45,10.27.53,14.48-2,.08-.06.2.03.15.12-1.8,3.51-5.18,5.9-8.58,7.7-1.99,1.15-3.87,2.61-5.23,4.48-.84,1.28-1.48,2.75-2.52,3.92-.96,1.25-2.38,2.02-3.49,3.07-1.08,1.09-1.73,2.53-2.18,4-1.2,3.67-3.05,7.25-5.55,10.21-1.7,1.69-4.14,2.23-6.34,2.87-.74.23-1.5.42-2.03.96-2.55,3.44-7.12,2.6-10.82,3.38-4.76.59-7.64,5.75-12.6,5.56-3.08-.05-6.24-.51-9.17.67-1.44.54-2.81,1.28-4.24,1.91-2.87,1.21-4.78,3.88-6.67,6.24-1.86,2.47-3.58,5.06-5.19,7.71-6.15,10.78-12.19,21.64-16.9,33.14,0,0-.27-.15-.27-.15,5.6-6.99,13.45-11.75,20.94-16.46.17-.12.36.19.17.28-5.11,3.82-9.7,8.47-14.35,12.84-11.09,13.09-18.48,29.06-30.39,41.5-6.85,8.24-12.88,17.15-19.04,25.92-.06.09-.18.11-.27.05-.08-.06-.11-.16-.06-.25,0,0,5.42-10.47,5.42-10.47,3.45-6.84,12.9-24.15,16.67-31.21,1.93-3.83,6.72-11.8,8.07-15.69,1.81-5.56,2.66-11.5,2.67-17.33-.35-4.73-1.74-9.8-4.56-13.64-2.19-1.87-5.47-2.05-8.22-1.66-3.04.96-6.17,1.67-9.34,2.08-.78.04-1.2.46-1.73,1.02-1.3,1.44-2.72,2.91-4.44,3.93-4.19,2.65-10.18,2.99-14.02-.48-1.46-1.39-3.71-.54-5.54-.85-2.02-.15-3.86-1.18-5.44-2.38-.55-.44-1.67-1.35-2.42-1.48-2.31-.54-4.84-.76-7.2-.37-1.39.39-2.7,1.11-4.03,1.7-1.79.81-3.6,1.63-5.56,2.08-1.96.28-3.76.96-5.5,1.87-3.27,1.86-6.99,4.08-8.49,7.66-.06.2-.38.18-.43-.01-.52-2.41.6-4.74,1.51-6.9,1.01-2.11,2.15-4.2,3.84-5.9.81-.91,2.04-1.29,3.09-1.72,3.05-1.54,5.92-3.73,8.15-6.3.36-.43.68-.92.84-1.4.1-.58.26-1.18.56-1.69,1.67-3.11,3.89-5.87,6.26-8.46,1.62-1.67,3.31-3.37,5.52-4.38,1.86-.89,4.91.66,6.47-1.21,0,0,0,.19,0,.19-.95-3.33,1.55-6.31,4.35-7.68,4.64-2.49,10.27-2.28,15.17-.7,0,0-.19.43-.19.43-.64-.35-1.53-.99-1.03-1.87,1.28-.81,2.79-1.22,4.29-1.31,4.22-.15,9.16,2.59,11.74,5,8.59-.15,13.06,9.03,14.04,16.43.38,2.58-.18,5.18.58,7.72.89,3.78,2.49,7.36,3.72,11.04,1.8,6.3,1.01,13.02-.08,19.37,0,0-.29-.11-.29-.11,2.07-3.83,4-7.75,5.91-11.67,6.1-11.62,10.05-24.18,11.98-37.16,1.25-8.6,2.35-17.35,1.64-26.04-.83-8.68-3.18-17.19-6.62-25.19-2.63-4.98-4.74-10.3-6.07-15.8-1.27-5.46-1.86-11.41.09-16.75-1.79,5.4-1.34,11.27,0,16.74,1.33,5.48,3.45,10.78,6.09,15.77,3.47,8.01,5.83,16.52,6.68,25.22.73,8.71-.36,17.47-1.59,26.09-1.9,12.98-5.85,25.61-11.93,37.25-1.91,3.93-3.82,7.85-5.89,11.69-.08.15-.34.06-.29-.11,1.06-6.3,1.83-12.98.05-19.2-1.24-3.68-2.85-7.26-3.75-11.06-.51-1.89-.51-3.91-.43-5.83-.15-3.21-1-6.39-2.29-9.32-2.03-4.8-6.24-8.79-11.68-8.7-4.17-3.42-10.36-6.75-15.58-3.73,0,0,.06-.05.06-.05-.09.19-.03.45.15.63.19.22.46.39.74.54.27.14.06.52-.19.43-4.75-1.52-10.28-1.73-14.77.7-2.74,1.36-4.94,4.11-4.12,7.26-.81,1.15-2.15,1.24-3.38,1.3-1.15.06-2.26-.38-3.35.17-2.06.93-3.76,2.61-5.35,4.26-2.34,2.54-4.55,5.29-6.19,8.34-.29.5-.43,1.05-.52,1.61-.21.61-.55,1.12-.93,1.57-2.72,3.05-6.1,5.68-9.95,7.08-2.47,1.45-3.81,4.24-5.07,6.74-.89,2.01-1.9,4.3-1.51,6.5,0,0-.44.03-.44.03,1.61-3.79,5.31-5.94,8.71-7.9,3.52-1.93,7.52-1.97,11.08-3.95,1.36-.6,2.66-1.32,4.12-1.73,2.47-.41,4.99-.19,7.43.38.47.13,1,.34,1.4.66,1.16.84,2.33,1.85,3.63,2.43,2.21,1.23,4.78.55,7.2.96,1.42.48,2.31,1.84,3.77,2.32,3.58,1.62,7.8.91,11.07-1.11,2.3-1.23,3.53-3.42,5.56-4.84,2.42-.51,4.88-.74,7.27-1.4,2.81-1.06,5.87-1.41,8.78-.5,2.09.49,3.48,2.08,4.26,3.98,1.72,3.56,2.89,7.42,3.08,11.39-.02,5.92-.87,11.86-2.7,17.49-1.37,3.97-6.2,11.94-8.1,15.74-3.76,7.01-13.16,24.26-16.68,31.2,0,0-5.43,10.47-5.43,10.47,0,0-.33-.2-.33-.2,6.17-8.78,12.21-17.68,19.08-25.94,11.92-12.43,19.31-28.4,30.42-41.48,4.72-4.42,9.24-9.02,14.43-12.89,0,0,.17.28.17.28-7.45,4.68-15.29,9.43-20.86,16.36-.1.15-.34.01-.27-.15,2.53-5.67,4.87-11.45,7.9-16.87,4.56-8.11,8.61-16.58,14.25-24.02,1.92-2.4,3.86-5.09,6.79-6.32,2.79-1.31,5.67-2.84,8.86-2.73,3.05-.06,6.31.74,9.02-1.06,2.57-1.67,5.02-3.88,8.18-4.35,2.98-.7,6.33-.1,9.02-1.75.65-.41,1.12-1.01,1.69-1.57.59-.58,1.4-.79,2.13-1.02,2.21-.64,4.57-1.15,6.24-2.81,2.48-2.92,4.32-6.48,5.51-10.11.46-1.48,1.12-2.96,2.24-4.09,1.14-1.08,2.52-1.8,3.49-3.05,1.04-1.17,1.66-2.6,2.51-3.9,1.39-1.91,3.28-3.37,5.3-4.54,3.36-1.76,6.72-4.15,8.49-7.58,0,0,.15.12.15.12-4.27,2.57-9.96,4.5-14.68,2-2.2-1.32-4.48-2.53-7.12-2.51-2.56-.05-5.08.5-7.61.91-3.78.66-7.65,1.07-11.13,2.78-2.49.9-4.31,2.68-6.5,4.06-1.16.6-2.45.82-3.72,1.01-5.2.4-9.85,2.96-13.47,6.63-4.08,3.08-7.42,7.32-8.33,12.45-.55,2.5-.57,5.09-.15,7.62,1.32,5.37-2.77,9.7-5.66,13.75-2.76,3.63-6.81,8.63-9.15,12.41.92-4.78,2-9.63,2.77-14.47.77-4.82,1.59-9.69,1.44-14.59.04.01-.73-29.54-.59-29.38h0Z"/>
      <path d="M165.48,137.64c3.65,6.07,3.31,13.81.45,20.13-5.73,12.76-19.93,21.25-33.89,20.26-16.09-1.1-24.74-15.62-18.07-30.3,5.77-12.81,20.05-21.27,34.05-20.17,6.93.52,13.89,3.95,17.47,10.08h0ZM165.44,137.66c-3.62-6.06-10.56-9.39-17.44-9.84-13.81-.89-27.86,7.5-33.62,20.08-6.59,14.42,1.87,28.66,17.68,29.8,13.84,1.01,27.98-7.35,33.77-19.98,2.87-6.29,3.23-13.99-.39-20.06h0Z"/>
      <path d="M155.47,83.58c-.66,4.98-1.51,9.93-2.67,14.82-1.17,4.87-2.44,9.75-2.61,14.78-.45,5-.58,10.33,1.5,15.01.02.03-.03.05-.04.02-2.4-4.59-2.43-10.05-1.95-15.1.1-2.41.49-5.04,1.02-7.47,1.81-7.27,3.63-14.81,4.76-22.07h0Z"/>
      <path d="M183.4,92.52c-.02,7.93-5.18,14.79-10.53,20.2-3.96,4.23-7.54,8.87-10.28,13.99-.89,1.68-1.58,3.72-2.2,5.37,1.8-7.64,6.86-14.07,12.19-19.64,5.43-5.28,10.55-12.22,10.81-19.92h0Z"/>
      <path d="M128.83,96.95c1.86,10.89,4.55,22.47,11.99,30.98.02.02-.01.06-.03.04-7.74-7.02-10.72-21.11-11.95-31.02h0Z"/>
      <path d="M192.51,96.1c-4.8,1.35-9.05,4.12-12.59,7.56,2.69-4.16,8.02-6.56,12.59-7.56h0Z"/>
      <path d="M214.75,115.67c-5.72,7.28-13.39,13.15-22.12,16.33-8.72,3.19-17.95,4.81-27.17,5.67-.03,0-.04-.05,0-.05,9.13-1.35,18.29-2.99,27.03-6,8.73-3,16.48-9.02,22.26-15.95h0Z"/>
      <path d="M213.68,127.11c-4.05-.51-8.12-.11-12.12.33,3.74-1.48,8.38-1.04,12.12-.33h0Z"/>
      <path d="M215.01,155.88c-7.77,2.23-15.99,1.52-23.74-.35-7.82-1.66-15.56-3.7-23.2-6.03-.03,0-.02-.06.01-.05,6.9,1.65,16.48,4.09,23.27,5.69,7.75,2.03,15.96,2.67,23.66.74h0Z"/>
      <path d="M213.1,166.81c-2.18-3.76-5.02-7.24-8.66-9.63,2.14.6,3.85,2.32,5.19,4.04,1.3,1.7,2.72,3.74,3.47,5.59h0Z"/>
      <path d="M199.61,187.31c-8.54-.86-16.15-5.63-22.66-10.96-3.55-3.04-6.86-6.64-9.72-10.31-1.1-1.53-2.28-3.08-3.28-4.65,1.23,1.41,2.36,2.97,3.53,4.45,8.31,9.87,19.04,19.58,32.13,21.47h0Z"/>
      <path d="M189.77,196.85c-1.51-6.08-3.62-12.36-8-16.99-.02-.02,0-.06.03-.04,2.65,1.87,4.24,4.87,5.4,7.82,1.13,2.93,2.18,6.24,2.57,9.2h0Z"/>
      <path d="M133.88,215.71c-1.86-13.14-.79-28.09,8.04-38.66.02-.02.06,0,.04.03-8.03,11.01-9.63,25.56-8.08,38.63h0Z"/>
      <path d="M122.62,223.68c4.8-3.11,7.91-8.05,10.57-13,.01-.03.06,0,.05.02-1.78,5.32-5.88,10.29-10.62,12.98h0Z"/>
      <path d="M104.48,214.44c.36-7.5,3.74-14.54,8.03-20.58,4.28-6.09,9.08-11.89,14.68-16.82.02-.02.06.02.03.04-3.93,3.96-7.55,8.21-11.01,12.57-5.83,7.1-11.02,15.56-11.73,24.78h0Z"/>
      <path d="M97.96,213.21c2.41-.63,4.6-2.04,7.02-2.52-1.96,1.43-4.77,2.17-7.02,2.52h0Z"/>
      <path d="M83.21,196.3c2.56-8.9,10.05-15.54,17.87-19.98.58-.36,1.81-1,2.44-1.27,2.37-1.21,5.14-2.22,7.63-3.12,1.77-.48,3.56-1.06,5.32-1.46-1.68.66-3.48,1.2-5.2,1.79-2.89,1.13-5.97,2.44-8.75,3.82-.75.42-2.79,1.57-3.57,2-6.86,4.26-13.28,10.49-15.73,18.22h0Z"/>
      <path d="M80.37,187.54c2.78.06,5.5-.98,8.24-.93-2.51.98-5.72,1.21-8.24.93h0Z"/>
      <path d="M76.48,163.88c9.61-8.17,23.76-8.6,35.46-5.54-.01.07-4.58-.7-4.61-.68-10.49-1.35-22.44-.66-30.85,6.23h0Z"/>
      <path d="M77.45,152.48c4.08,2.88,9.15,3.67,13.84,4.96-4.83-.21-10.15-2.03-13.84-4.96h0Z"/>
      <path d="M85.63,126.53c12.29.59,24.81,7.5,29.54,19.23.01.03-.03.05-.05.02-5.7-11.39-17.09-18.25-29.49-19.25h0Z"/>
      <path d="M86.72,116.15c2.53,5.03,6.22,9.37,10.47,12.99-4.88-2.72-8.31-8.12-10.47-12.99h0Z"/>
      <path d="M102.38,97.73c11.78,8.73,20.83,21.73,23.56,36.24,0,.03-.04.04-.05.01-3.58-14.22-11.98-27.38-23.51-36.25h0Z"/>
      <path d="M186.52,252.47c4.19-8.08,12.9-13.26,21.92-13.73,6.66-.5,13.53-.4,19.86-2.7,2.1-.78,3.93-2.18,5.65-3.58-1.54,1.61-3.44,3-5.53,3.87-6.28,2.57-13.3,2.4-19.96,2.8-8.98.31-17.65,5.59-21.94,13.33h0Z"/>
      <path d="M189.36,248.29c-.13-3.5-.03-7.01.4-10.49.4-3.45,1.1-7.09,3.22-9.94.02-.02.06,0,.04.03-3.09,6.25-3.38,13.71-3.66,20.4h0Z"/>
      <path d="M207.97,218.08c-5,7.23-9.82,15.15-10.95,24.02,0,.03-.05.03-.05,0-.1-4.51,1.69-8.85,3.74-12.78,2.07-3.89,4.55-7.95,7.26-11.24h0Z"/>
      <path d="M202.45,239.88c4.42-8.36,14.93-11.72,23.85-10.23,0,.05-3.43,0-3.45.01-7.91.08-16.35,3.19-20.4,10.22h0Z"/>
      <path d="M209.21,232.96c4.91-8.08,14.35-12.74,23.65-13.1,1.34-.02,2.73-.01,4.03.09-1.9.18-4.07.18-5.98.5-8.62,1.01-16.92,5.29-21.7,12.51h0Z"/>
      <path d="M223.03,221.51c5.75-5.73,14.59-7.87,22.48-6.91.01.06-3.02.09-3.04.11-6.91.28-14.35,2.05-19.44,6.8h0Z"/>
      <path d="M218.23,224.34c1.38-6.14,5.86-11.77,11.9-13.82.03-.01.05.03.02.05-5.56,2.84-10.29,7.8-11.92,13.78h0Z"/>
      <path d="M207.14,234.4c1.26-5.43,2.92-11.48,7.25-15.27-3.5,4.44-5.79,9.97-7.25,15.27h0Z"/>
      <path d="M199.5,240.9c5.02,3.46,11.39,3.53,17.26,3.88.03,0,.03.05,0,.05-5.82.61-12.67-.35-17.27-3.93h0Z"/>
      <path d="M192.9,244.82c3.29,1.37,6.88,1.44,10.32,1.97-3.42.55-7.39-.47-10.32-1.97h0Z"/>
      <path d="M141.92,273.92c-15.08-17.04-39.05-12.65-56.75-2.38-6.04,3.28-11.68,7.32-17.19,11.41,5.23-4.43,10.98-8.38,16.94-11.84,11.86-6.68,26.09-11.23,39.68-7.83,6.57,1.7,13.22,5.35,17.32,10.65h0Z"/>
      <path d="M133.24,252.28c2.95,5.21,5.33,11.34,4.38,17.41,0,.03-.05.03-.05,0,.04-6.03-1.66-12.18-4.33-17.41h0Z"/>
      <path d="M119.72,250.3c4.55,3.58,8.81,8.55,9.41,14.53,0,.03-.04.04-.05,0-1.47-5.69-5.06-10.82-9.36-14.54h0Z"/>
      <path d="M104.98,249.2c6.17,2.51,15.92,6.67,17.64,13.74,0,.03-.04.04-.05.01-1.33-3.62-4.47-6.11-7.51-8.31-3.09-2.18-6.79-3.92-10.08-5.44h0Z"/>
      <path d="M97.47,256.76c6.21.17,12.78,1.57,17.76,5.48.02.02,0,.06-.03.04-5.39-3.1-11.65-5.11-17.73-5.52h0Z"/>
      <path d="M84.21,264.81c7.57-2.33,15.87-3.93,23.69-1.98.03,0,.02.05-.01.05-7.9-1.04-16.17-.12-23.68,1.93h0Z"/>
      <path d="M139.58,271.41c-6.24-2.66-12.68-4.4-17.96,1.05-2.41,2.15-4.41,4.81-7.35,6.46-2.97,1.4-6.14,2.46-9.32,3.05,3.07-1,6.23-1.99,9.08-3.49,2.81-1.58,4.87-4.24,7.32-6.32,2.4-2.22,5.53-3.94,8.9-3.52,3.2.29,6.64,1.35,9.33,2.77h0Z"/>
      <path d="M126.96,264.09c-4.37.76-8.8,2.13-11.87,5.47-1.94,1.82-4.37,4.65-6.76,5.87-4.12,1.77-8.69,2.49-13.15,2.42-.03,0-.03-.05,0-.05,4.38-.33,8.88-1.11,12.93-2.81,2.3-1.1,4.87-3.93,6.76-5.66,3.08-3.25,7.9-4.78,12.09-5.23h0Z"/>
      <path d="M111.08,262.47c-2.93,2.89-6.33,5.59-10.35,6.73-3.8,1.58-7.23,3.95-10.69,6.17-.02.02-.05-.02-.03-.04,3.18-2.67,6.66-5.07,10.59-6.51,4.04-.99,7.51-3.8,10.48-6.35h0Z"/>
      <path d="M93.43,267.18c-2.04,1.97-4.14,3.89-6.28,5.75-2.12,1.79-4.46,3.95-6.99,4.86,4.53-3.17,9.11-7.2,13.27-10.61h0Z"/>
      <path d="M119.19,262.48c-2.57,1.34-5.13,2.72-7.53,4.34-3.71,3.06-7.61,6.3-12.48,7.21-.03,0-.04-.04-.01-.05,4.63-1.58,8.5-4.47,12.31-7.44,2.42-1.51,5.21-3.04,7.71-4.07h0Z"/>
      <path d="M181.35,284.92c3.53-5.31,7.18-10.42,10.14-16.05.85-1.36,1.95-2.55,3.2-3.54,2.46-1.96,5.86-3.6,8.91-1.96.74.33,1.43,1.03,1.54,1.91.16.35-.31,3.23-.84,2.39-1.57-4.89-7.54-1.85-9.79.9-1.96,2.04-5.88,7.67-7.67,9.96-1.75,2.22-3.3,4.56-5.49,6.39h0ZM181.39,284.88c4.52-4.69,8.39-11.81,12.76-16.66,2.44-3.04,8.96-5.99,10.56-.66,0,0-.4-.03-.4-.03.3-.7.52-1.47.44-2.19-.09-.73-.63-1.3-1.31-1.63-2.9-1.6-6.17,0-8.55,1.85-1.24.96-2.32,2.12-3.16,3.44-1.47,2.79-3.21,5.46-4.95,8.09-1.75,2.62-3.55,5.27-5.38,7.79h0Z"/>
      <path d="M205.29,290.24c3.33-1.71,7.57-3.42,8.94-7.15.87-2.95-.73-5.74-1.73-8.43-.4-3.43,1.15-7.46,3.4-10.03,1.63-2.07,3.83-3.73,6.38-4.5,5.51-1.42,12.55-1.66,16.85,2.64.57.55,1.04,1.37,1.44,2.04.12.3.41,1.1.53,1.41.18.64.27,1.3.4,1.96.05.26-.34.34-.4.08-.82-2.24-2.38-4.27-4.38-5.58-4.05-2.5-9.77-2.07-13.79.3-4.3,2.69-5.33,8.04-5.58,12.76-.29,3.54.67,7.78-1.87,10.74-2.7,2.56-6.45,3.95-10.18,3.75h0ZM205.34,290.23c3.04.01,6.09-.95,8.54-2.77,4.06-2.47,2.81-7.7,3.06-11.74.13-2.46.41-4.94,1.2-7.31,1.55-4.96,6.62-7.88,11.65-7.86,2.46-.11,5.08.31,7.17,1.74,2.09,1.4,3.67,3.47,4.53,5.84l-.4.08c-.23-2.57-1.55-4.99-3.67-6.46-4.39-2.77-10.16-2.63-15.05-1.35-4.95,1.56-8.67,6.27-9.55,11.33-.22,1.27-.45,2.61.19,3.78.52,1.2,1.04,2.41,1.35,3.69,1.74,5.96-4.55,9.02-9.02,11.02h0Z"/>
      <path d="M136.07,17.33c-9.53-3.68-17.76-.5-22.11,8.8-2.6,5.15-5.64,10.87-4.74,16.8,1.42,6.56,9.47,6.2,14.3,9,2.73,1.32,4.86,3.9,5.46,6.83.89,3.25,1.15,6.75.18,10.01-.34,1.08-.87,2.1-1.52,3.03l-.29-.28c2.39-2.09,4.76-4.83,5.11-8.09.5-6.77-3.51-13.07-9.92-15.38-2.87-1.46-6.77-2.17-8.6-5.05-1.4-3.21-.41-6.77.64-9.89,3.24-9.76,9.89-19.39,21.49-15.79h0ZM136.11,17.35c-11.66-3.23-17.97,6.1-21.16,15.9-.99,2.99-1.93,6.56-.59,9.54.79,1.43,2.39,2.13,3.79,2.85,3.71,1.79,8.04,2.91,10.82,6.16,3.69,4.37,5.67,11.41,2.02,16.35-.96,1.38-2.12,2.61-3.41,3.7-.09.07-.21.06-.29-.02-.06-.07-.06-.17-.01-.25.63-.89,1.14-1.87,1.48-2.92.96-3.17.71-6.62-.14-9.78-.36-1.42-.93-2.79-1.84-3.95-3.94-4.8-11.07-4.2-15.66-8.03-3.56-3.27-2.41-8.69-1.04-12.72,1-2.81,2.3-5.5,3.71-8.12,1.39-2.61,3.01-5.21,5.35-7.09,4.69-3.92,11.53-3.96,16.96-1.61h0Z"/>
      <path d="M46.62,107.12c-1.05,2.37-.77,5.17.46,7.42,1.13,2.35,1.24,5.05.85,7.58-1.19,7.54-2.9,15.33-1.57,22.94,1.12,5.15,6.29,7.98,10.15,11.02,2.05,1.6,4.37,2.85,5.9,5.05.05.09.03.2-.06.26-.08.05-.19.03-.24-.04-1.89-1.99-3.81-3.94-5.81-5.81-3-2.8-6.69-5.06-8.63-8.82-2.07-3.79-.59-8.29.05-12.24,1.02-5.36,2.4-10.73,2.41-16.21,0-2.04-.32-4.09-1.2-5.93-2.33-4.01.11-6.3,3.42-8.43,0,0,.02.13.02.13-2.33-.6-4.82.97-5.75,3.09h0ZM46.58,107.1c.94-2.19,3.44-3.79,5.84-3.21.06.01.07.1.02.13-2.12,1.44-4.86,3.41-4.06,6.33,1.12,2.5,2.24,5.07,2.12,7.9.19,8.3-3.01,16.21-3.39,24.4.14,5.74,5.71,9.04,9.48,12.58,2,1.89,3.92,3.86,5.8,5.86l-.3.21c-1.42-2.05-3.81-3.41-5.76-4.94-3.9-3.08-9.11-6-10.21-11.23-1.32-7.68.5-15.46,1.73-23.02.39-2.52.3-5.2-.82-7.53-1.23-2.26-1.5-5.09-.44-7.47h0Z"/>
      <path d="M142.87,71.69c-3.4,18.55-2.44,38.16,4.28,55.87.01.03-.03.05-.05.02,0,0-1.34-3.29-1.34-3.29,0,0-.65-1.66-.65-1.66-2.1-6.11-3.48-12.67-4.04-19.11-.84-10.56-.47-21.62,1.8-31.83h0Z"/>
      <path d="M145.88,88.16c1.66-9.34.31-19.03-2.52-28.01-.09-.18.19-.36.31-.18,1.8,2.49,2.66,5.41,3.39,8.3,1.39,5.83,1.66,11.84,1.5,17.8-.09,2.61-.3,6.35-.63,8.94.16-4.31.4-9.09.23-13.4-.46-7.22-.8-15.15-4.77-21.4,0,0,.31-.18.31-.18,2.73,8.98,4.1,19.01,2.18,28.13h0Z"/>
      <path d="M136.07,97.76c-1.6-6.86-2.22-14.73,1.38-21.07.01-.03.06,0,.04.02-2.73,6.63-2.74,14.24-1.43,21.05h0Z"/>
      <path d="M131.76,91.27c-.71,10.36,3.1,20.39,7.38,29.64-.01.01,2,3.99,1.93,4-5.93-9.64-10.44-22.35-9.32-33.64h0Z"/>
      <path d="M136.76,100.9c1.02,4.62,2.21,9.2,3.6,13.72,1.54,4.42,2.79,9.09,5.56,12.93.02.02-.01.06-.04.03-3.23-3.55-4.53-8.37-5.91-12.85-1.24-4.52-2.52-9.35-3.21-13.84h0Z"/>
      <path d="M145.5,98.72c.16,4.42.46,8.83.91,13.22.6,4.34.87,8.82,2.47,12.93.02.03-.03.05-.04.02-2.11-3.94-2.39-8.55-2.83-12.92-.31-4.36-.64-9.03-.51-13.25h0Z"/>
      <path d="M176.29,66.27c-4.67,7.43-8.94,15.16-12.62,23.1,1.21-4.21,3.39-8.16,5.59-11.95,2.21-3.73,4.57-7.75,7.03-11.14h0Z"/>
      <path d="M179.96,80.33c1.29,8-2.94,15.63-7.05,22.19-3.99,6.8-8.22,13.57-10.66,21.11,0,.03-.06.02-.05-.01,1.98-7.71,6.23-14.6,10.37-21.31,4.23-6.46,8.41-14.14,7.39-21.98h0Z"/>
      <path d="M176.81,88.08c-1.82,6.15-3.51,12.83-7.69,17.83,3.27-5.54,5.7-11.86,7.69-17.83h0Z"/>
      <path d="M166.16,96.55c-1.99,5.45-3.82,10.96-5.47,16.52-1.51,5.58-3.28,11.15-3.69,16.94,0,.03-.05.03-.05,0-.12-5.84,1.69-11.52,3.36-17.06,1.77-5.48,3.67-11.24,5.86-16.4h0Z"/>
      <path d="M159.15,96.55l-1.17,4c-1.35,3.94-1.75,8.13-2.2,12.25-.41,5.16-1.09,10.37-.56,15.53,0,0,.25,1,.25,1-.64-1.05-.65-2.77-.8-4.09-.21-4.18.2-8.36.71-12.49.53-4.12.99-8.33,2.45-12.25,0,0,1.27-3.97,1.27-3.97,0-.03.06-.02.05.02h0Z"/>
      <path d="M162.25,111.65c-.46,4.83-.27,10.15-1.85,14.64.23-2.17.58-5.19.91-7.32.05,0,.83-7.5.95-7.33h0Z"/>
      <path d="M152.59,108.68c-.05,4.83.04,10.18.31,15.02.07,1.67.16,3.38.54,4.97-1.33-3.09-1.09-6.66-1.17-9.97.05-3.29,0-6.9.31-10.03h0Z"/>
      <path d="M222.92,95.53c-21.99,9.08-43.82,21.03-59.49,39.32-.02.03-.06,0-.04-.03,14.03-18.16,38.53-31.14,59.53-39.29h0Z"/>
      <path d="M189.04,105.3c5.71-6.02,13.81-9.99,22.14-10.34.03,0,.04.05,0,.05-8.14,1.24-16.33,4.53-22.15,10.29h0Z"/>
      <path d="M178.88,114.26c-6.28,5.77-11.88,12.22-16.92,19.09-.02.02-.06,0-.04-.03,4.25-7.35,10.67-13.66,16.96-19.06h0Z"/>
      <path d="M202.89,114.26c-6.15,4.09-12.39,8.05-18.73,11.87-6.36,3.72-12.71,7.74-19.82,9.87-.03,0-.04-.04-.01-.05,6.9-2.63,13.19-6.59,19.63-10.17,6.35-3.67,12.79-7.79,18.93-11.53h0Z"/>
      <path d="M193.97,116.66c-8.33,6.01-16.87,12.03-26.43,15.94-.03.01-.05-.03-.02-.05,9.12-4.69,18.11-10.19,26.46-15.89h0Z"/>
      <path d="M186.77,131.67c-4.14,1.16-8.45,2.47-12.77,2.36,4.16-.92,8.73-1.44,12.77-2.36h0Z"/>
      <path d="M223.74,92.32c-1.7,7.72-5.6,14.9-10.13,21.34-2.34,3.23-5.42,5.81-8.51,8.3-3.14,2.41-6.32,4.8-9.79,6.72-.03.02-.05-.03-.02-.04,3.31-2.16,6.47-4.54,9.5-7.06,3.06-2.48,6.11-4.99,8.5-8.15,4.62-6.28,8.55-13.65,10.45-21.09h0Z"/>
      <path d="M199.6,133.31c5.76-1.86,12.49-2.74,18.12,0,.03.01,0,.06-.02.05-5.85-1.86-12.37-1.62-18.1-.05h0Z"/>
      <path d="M220.84,142.07c5.71-1.11,15.18-3.11,17.49-9.11,0,0,.3.13.3.13-1.5,2.46-4.41,3.43-7.03,4.14-8,1.81-16.68,1.47-24.62.4,5.47.39,10.95.54,16.41.24,4.05-.29,8.23-.63,11.94-2.38,1.2-.6,2.33-1.42,3.02-2.56.09-.17.37-.04.3.14-2.22,5.99-12.27,8.24-17.81,9.01h0Z"/>
      <path d="M167.23,141.6c8.79-3.77,18.17-6.55,27.76-7.18.03,0,.04.05,0,.05-9.41,1.51-19.02,3.65-27.76,7.13h0Z"/>
      <path d="M168.07,145.84c5.5-.5,11.02-.85,16.55-1,5.51-.13,11.14-.24,16.53,1.08.03,0,.02.06-.01.05-10.91-1.36-22.26-.57-33.06-.13h0Z"/>
      <path d="M174.02,147.56c13.11,1.51,26.7,2.74,39.65-.38.03-.01.05.04.02.05-6.31,2.26-13.16,2.4-19.79,2.23-6.6-.23-13.52-.77-19.88-1.9h0Z"/>
      <path d="M209.51,152.75c6.79-.14,12.85-3.92,17.9-8.16.02,0,2.17-1.95,2.2-1.89-4.83,5.75-12.59,10.24-20.11,10.05h0Z"/>
      <path d="M202.88,153.36c-11.73.38-23.66-1.17-34.74-5.09-.03,0-.01-.06.02-.05,11.28,3.05,23.15,5.26,34.73,5.14h0Z"/>
      <path d="M167.8,143.85c10.69-2.8,21.54-6.23,32.68-6.23.03,0,.03.05,0,.05-11.03.89-22.09,3.67-32.68,6.18h0Z"/>
      <path d="M223.69,194.61c-5.46-10.1-14.98-17.35-25.29-22.02-.03-.01-.01-.06.02-.05,10.69,3.79,20.25,12.05,25.28,22.06h0Z"/>
      <path d="M164.95,159.74c10.55,15,27.79,27.04,46.77,25.73.03,0,.04.05,0,.05-19.04,2.28-36.7-10.77-46.77-25.78h0Z"/>
      <path d="M165.77,158.08c6.05,5.88,12.5,11.5,19.74,15.86,3.64,2.26,7.76,3.22,11.74,4.66,3.95,1.55,7.86,3.26,11.43,5.58.03.02,0,.06-.03.04-3.7-2.05-7.59-3.75-11.57-5.15-3.99-1.42-8.18-2.46-11.77-4.78-7.16-4.46-13.82-10.24-19.54-16.2h0Z"/>
      <path d="M166.28,156.88c4.49,2.82,9.07,5.5,13.74,8.01,4.72,2.35,9.38,5.02,14.54,6.24.03,0,.03.05,0,.05-5.31-.7-10.09-3.43-14.73-5.94-4.57-2.6-9.39-5.4-13.55-8.36h0Z"/>
      <path d="M200.49,165.34c4.19,1.72,8.21,3.99,11.5,7.14,3.12,3.29,5.5,7.36,6.79,11.71,0,.03-.04.04-.05.01-1.77-4.11-4.07-8.08-7.03-11.44-3.12-3.21-7.35-5.55-11.22-7.42h0Z"/>
      <path d="M196.84,164.75c-9.6-4.16-19.57-8.21-30.07-9.17-.03,0-.03-.05,0-.05,5.31-.2,10.51,1.36,15.48,3.08,4.92,1.75,10.09,3.8,14.59,6.14h0Z"/>
      <path d="M167.43,153.36c8.77.43,17.64,1.11,26.06,3.74,7.23,2.32,15.08,5.36,18.88,12.44.49.92,1.27,2.09,1.28,3.03-.27-1.06-.89-2-1.47-2.91-2.83-4.8-7.59-7.84-12.67-9.86-10.03-4.53-21.37-5.67-32.09-6.44h0Z"/>
      <path d="M161.07,165.34c10.39,6.65,20.05,15.63,25.03,27.09,1.24,4.93.23,10.02-.75,14.89-.55,2.43-1.14,4.91-1.97,7.23,1.16-4.81,2.34-9.71,2.66-14.66.17-2.45.24-4.97-.42-7.32-.79-2.3-2.15-4.46-3.4-6.55-5.34-8.35-13.08-15.3-21.15-20.68h0Z"/>
      <path d="M162.41,169.03c5.98,4.63,11,10.74,14.01,17.7.01.03-.03.05-.04.02-3.79-6.49-8.25-12.99-13.97-17.72h0Z"/>
      <path d="M156.33,169.96l4.21,17.71c1.29,5.89,2.95,11.85,6.91,16.54.02.02-.01.06-.04.04-4.37-4.29-6.17-10.62-7.27-16.48.05,0-4-17.93-3.82-17.8h0Z"/>
      <path d="M162.3,177.6c2.37,4.87,6.19,11.54,8,16.55-1.62-2.58-2.92-5.41-4.2-8.19.04-.02-4-8.44-3.81-8.36h0Z"/>
      <path d="M159.05,167.53c8.07,8.68,16.49,17.72,21,28.85.01.03-.03.05-.05.02-5.29-10.67-13.17-20.14-20.95-28.87h0Z"/>
      <path d="M161.47,181.2c.73,5.43,2.64,10.77,5.75,15.29,3.27,4.38,7.64,7.97,10.62,12.63.02.02-.02.05-.04.03-3.42-4.34-7.72-7.93-10.91-12.44-3-4.57-5.01-10.22-5.42-15.51h0Z"/>
      <path d="M171,197.19c1.94,2.24,3.82,4.54,5.62,6.9,1.75,2.37,3.77,4.82,4.47,7.7-2.71-5.07-6.8-10.07-10.1-14.6h0Z"/>
      <path d="M180.47,197.61c1.41,2.91,3.25,6.26,3.08,9.47-.36-1.19-1.06-3.58-1.39-4.78-.44-1.56-1.24-3.28-1.69-4.7h0Z"/>
      <path d="M159.05,170.32c3.06,3.79,5.97,7.71,8.65,11.79,2.64,4.06,5.32,8.33,6.35,13.13,0,.03-.04.04-.05.01-3.31-9.12-9.45-17.21-14.95-24.93h0Z"/>
      <path d="M146.15,175.78c-1.37,16.6,1.74,33.27,6.12,49.23-.05,0,2.17,6.96,1.99,6.85-3.28-8.94-5.68-18.2-7.08-27.62-1.29-9.35-2.17-19.21-1.03-28.46h0Z"/>
      <path d="M147.47,175.24c3.86,9.66,7.15,19.97,6.84,30.49,0,.03-.05.03-.05,0-.59-10.41-3.22-20.87-6.79-30.49h0Z"/>
      <path d="M144.29,176.43c-1.39,8.23-2.09,16.6-2.35,24.91-.8-8.25.78-16.96,2.35-24.91h0Z"/>
      <path d="M142.42,207.07c.88,7.99,3.01,16.39,8.64,22.4.02.02,0,.06-.03.04-6.25-5.16-8.14-14.87-8.61-22.43h0Z"/>
      <path d="M142.75,176.87c-2.74,8.02-6.05,16.07-6.87,24.56-.32,4.23-.79,8.58.58,12.6,1.36,3.99,3.89,7.57,6.83,10.62.02.02,0,.06-.03.04-3.16-2.88-5.75-6.47-7.27-10.5-1.42-4.13-.91-8.55-.5-12.79.32-4.28,1.65-8.41,2.92-12.48,1.34-4,2.75-8.31,4.35-12.05h0Z"/>
      <path d="M141.43,218.27c1.28,3.14,3.2,5.96,5.36,8.52-2.89-1.75-4.42-5.57-5.36-8.52h0Z"/>
      <path d="M150.03,174.04c4.11,11.38,10.91,28.38,7.52,40.28-.48,1.67-1.32,3.21-1.89,4.83-.47,1.65-.64,3.37-.76,5.08-.1,1.15-.1,2.34-.01,3.47-.43-2.25-.19-4.65.08-6.94.25-2.32,1.53-4.35,2.1-6.58.65-2.18.93-4.47.94-6.75-.07-11.5-4.43-22.75-7.98-33.39h0Z"/>
      <path d="M134.41,177.99c-3.27,10.43-5.81,21.2-10.38,31.16-.01.03-.06,0-.04-.02,3.22-8.69,7.4-22.41,10.43-31.14h0Z"/>
      <path d="M136.6,177.99c-1.99,10.77-4.07,21.74-8.65,31.76-.01.03-.06,0-.05-.02,3.72-10.29,6.48-21.18,8.7-31.74h0Z"/>
      <path d="M131.21,177.9c-4.27,6.9-8.35,13.94-11.81,21.28-1.75,3.66-3.04,7.5-4.07,11.42-1.03,3.91-1.66,8.02-3.73,11.57-.01.03-.06,0-.04-.02,2.65-5.55,2.8-11.82,5.07-17.52,3.71-9.41,9.14-18.42,14.58-26.73h0Z"/>
      <path d="M128.67,177.43c-6.74,7.88-13.99,15.66-18.25,25.22-2.92,5.6-3.97,11.78-4.15,18.07,0,.03-.05.03-.05,0-.21-6.3.78-12.66,3.75-18.28,4.42-9.45,11.83-17.49,18.7-25.01h0Z"/>
      <path d="M113.45,201.32c-2.94,7.7-5.13,15.71-6.05,23.91,0,.03-.05.03-.05,0-.01-8.24,3-16.54,6.1-23.91h0Z"/>
      <path d="M132.68,177.94c-2.21,4.84-5.28,12.02-7.63,16.72.63-2.83,2.21-5.78,3.5-8.5,1.36-2.69,2.7-5.73,4.13-8.22h0Z"/>
      <path d="M108.14,240.32c-1.27-5.04.04-10.56,3.09-14.74,2.76-3.62,6.36-6.36,9.42-9.7.46-.46.89-.98,1.28-1.47-1.28,2.22-3.3,4-5.04,5.89-.96.96-3.22,3.1-4.12,4.05-3.98,4.18-5.75,10.45-4.63,15.97h0Z"/>
      <path d="M99.85,197.1c-3.85,3.82-7.87,8.16-11.01,12.56-3.15,4.53-6.22,9.34-7.46,14.78,0,.03-.05.03-.05,0,1.28-9.9,11.46-20.85,18.51-27.33h0Z"/>
      <path d="M86.99,199.67c6.92-10.26,15.94-20.73,28.15-24.44.03,0,.04.04.02.05-11.85,4.55-21.06,14.36-28.17,24.39h0Z"/>
      <path d="M104.94,191.4c2.07-3.38,4.39-6.63,7.02-9.62,2.59-2.97,5.6-5.9,9.43-7.17.03,0,.05.04.02.05-7.03,3.67-12.03,10.55-16.46,16.74h0Z"/>
      <path d="M95.49,194.12c3.52-4.06,7.28-7.91,11.31-11.48,4.01-3.54,8.36-6.98,13.48-8.73.03-.01.05.04.02.05-9.66,4.65-17.54,12.65-24.81,20.16h0Z"/>
      <path d="M82.62,208.02c4.26-14.63,13.96-29.12,28.82-34.38,2.03-.74,4.43-1.4,6.43-1.62-17.79,3.65-30.2,19.47-35.26,36.01h0Z"/>
      <path d="M82.66,210.77c-.76,1.67-1.4,3.41-1.79,5.18-.41,1.8-.12,3.69-.48,5.47-.85-3.66.38-7.67,2.27-10.65h0Z"/>
      <path d="M101.9,202.36c-2.74,2.81-5.53,5.58-8.46,8.21-2.85,2.72-6.37,4.67-8.98,7.61,2.08-3.38,5.81-5.31,8.72-7.91,2.97-2.48,5.93-5.44,8.72-7.9h0Z"/>
      <path d="M122.51,175.26c-3.95,7-7.9,14.52-14.15,19.72,5.48-5.91,10.08-12.94,14.15-19.72h0Z"/>
      <path d="M86.42,175.37c-6.53,2.98-13.51,4.97-20.62,5.92-2.38.32-4.76.54-7.17.58-.25,0-.32-.38-.07-.45,6.58-2.35,13.1-5.12,18.86-9.13-5.29,4.36-12.14,7.31-18.72,9.56,0,0-.07-.45-.07-.45,2.37,0,4.75-.18,7.12-.48,7.08-.81,14.23-2.9,20.67-5.56h0Z"/>
      <path d="M71.54,182.86c3.87-.38,7.93-1.06,11.71-1.87-1.7,1.05-3.82,1.28-5.78,1.5-1.93.17-4.15.46-5.94.36h0Z"/>
      <path d="M91.84,173.75c6.66-3.75,13.76-7.93,21.59-8.18.03,0,.03.05,0,.05-7.64,1.14-14.94,4.67-21.59,8.13h0Z"/>
      <path d="M78.85,165.06c7.58-4.37,16.99-7.5,25.65-4.73.03,0,.02.06-.01.05-8.76-1.86-18.01.62-25.64,4.68h0Z"/>
      <path d="M74.06,185.31c5.76.49,11.23-1.77,16.53-3.7.03-.01.05.03.02.05-4.88,2.78-11.1,4.45-16.55,3.66h0Z"/>
      <path d="M112.57,169.31c-5.66,1.04-10.95,4.05-15.36,7.67-.02.02-.06,0-.04-.03,1.77-2.37,4.46-3.84,7.07-5.09,2.58-1.17,5.6-2.48,8.33-2.55h0Z"/>
      <path d="M84.47,171.03c4.57-1.73,9.2-3.3,13.9-4.65,4.68-1.34,9.51-2.62,14.42-2.51.03,0,.03.05,0,.05-9.67,1-19.23,4.23-28.32,7.11h0Z"/>
      <path d="M89.12,163.87c7.73-1.11,15.71-1.77,23.47-.8-7.76.08-15.86-.08-23.47.8h0Z"/>
      <path d="M75.15,128.63c13.26-.32,28.28,3.96,35.69,15.76,1.02,1.59,2.05,3.55,2.56,5.21-6.46-14.87-23.1-21.09-38.25-20.97h0Z"/>
      <path d="M96.13,136.14c6.57,3.49,13.37,7.89,16.91,14.66.01.03-.03.05-.04.03-4.26-6.21-10.53-11.03-16.86-14.69h0Z"/>
      <path d="M86.42,139.61c8.34,4.93,17.43,8.34,26.34,12.11.03.01.01.06-.02.05-9.17-2.88-18.31-7.11-26.32-12.15h0Z"/>
      <path d="M101.27,144.09c4.03,2.04,8.51,3.88,11.62,7.22-3.68-2.47-7.88-5.09-11.62-7.22h0Z"/>
      <path d="M89.14,145.21c6.38,2.87,13.2,4.94,20.22,5.25.03,0,.03.05,0,.05-7.01.65-14.21-2.28-20.22-5.29h0Z"/>
      <path d="M75.18,147.68c7.38,8.02,22.12,7.35,32.19,6.81,1.62-.12,3.28-.32,4.88-.36-1.57.31-3.24.47-4.85.71-9.6,1.02-25.74.82-32.22-7.16h0Z"/>
      <path d="M57.55,134.27c6.36-3.08,14.18-.48,19.9,2.95-.7-.12-1.64-.69-2.41-.98-5.4-2.22-11.94-4.44-17.48-1.97h0Z"/>
      <path d="M67.97,136.15c4.89,5.51,11.17,10.05,18.44,11.7.03,0,.02.05,0,.05-7.48-.69-13.98-6.25-18.44-11.75h0Z"/>
      <path d="M65.65,130.16c10.99-.83,22,3.64,30.49,10.45.02.02,0,.06-.03.04,0,0-3.46-2.22-3.46-2.22-8.04-4.98-17.54-8.76-27-8.27h0Z"/>
      <path d="M118.61,140.65c-8.46-4.76-16.3-10.6-23.38-17.25-4.92-4.88-8.54-11.09-11.1-17.5-1.09-2.59-1.11-5.49-1.36-8.21-.37-2.71-1.21-5.39-2.54-7.75-.07-.11-.03-.26.08-.33.11-.06.24-.03.31.07,3.68,5.3,8.02,10.87,13.66,13.95-6.01-2.86-10.19-8.45-14.05-13.69,0,0,.39-.26.39-.26,1.45,2.44,2.24,5.17,2.63,7.94.27,2.79.24,5.49,1.31,8.12,2.16,5.79,5.47,11.2,9.41,15.98,7.29,7.34,15.89,13.71,24.64,18.92h0Z"/>
      <path d="M99.59,114.22c7.46,7.72,15.24,15.23,24,21.48.03.02,0,.06-.03.04-4.72-2.62-8.82-6.24-12.72-9.94-3.85-3.69-7.88-7.65-11.25-11.59h0Z"/>
      <path d="M99.59,106.8c10.62,6.71,20.47,16.47,24.7,28.36-.36-.74-1.24-2.5-1.57-3.21-5.37-10.16-13.69-18.91-23.13-25.14h0Z"/>
      <path d="M111.96,121.58c2.28,2.05,4.49,4.18,6.6,6.42,2.07,2.23,4.31,4.6,5.37,7.48-3.34-5.06-7.88-9.62-11.97-13.9h0Z"/>
      <path d="M89.15,108.06c7.74,10.16,19.98,25.21,32,29.81.03,0,.02.06-.01.05-11.96-3.41-24.93-19.99-31.99-29.86h0Z"/>
      <path d="M94.85,99.61c6.12,1.93,12.62,4.45,16.78,9.57,2.2,3.24,4.14,6.65,5.62,10.28.01.03-.03.05-.05.02-1.82-3.41-3.83-6.8-5.97-10.01-3.92-5.18-10.61-7.71-16.38-9.86h0Z"/>
      <path d="M99.9,111.38c-2.4-1.46-4.77-2.98-7.09-4.56-2.29-1.6-4.83-3.18-6.41-5.5,4.12,3.58,9.21,6.91,13.51,10.06h0Z"/>
      <path d="M100.58,66.92c5.5,3.59,7.71,10.22,11.28,15.44,3.03,4.78,7.34,11.54,10.2,16.35.02.03-.02.05-.04.03-3.74-5.23-7.21-10.64-10.5-16.17-3.43-5.28-5.75-11.96-10.94-15.65h0Z"/>
      <path d="M117.25,85.83c2.08,2.83,4.99,5.76,5.72,9.17-1.73-3.05-3.91-6.34-5.72-9.17h0Z"/>
      <path d="M119.42,101.32c6.7,8.27,13.16,17.6,14.94,28.3,0,.03-.04.04-.05,0-2.64-10.42-8.48-19.98-14.89-28.31h0Z"/>
      <path d="M111.33,93.82c4.84,11.87,11.34,22.97,18.48,33.6.02.02-.02.05-.04.03-7.86-10.06-13.94-21.88-18.44-33.63h0Z"/>
      <path d="M102.39,80.33c2.63,8.67,5.51,17.62,11.06,24.91.02.02-.01.06-.04.03-3.33-3.22-5.24-7.58-6.92-11.82-1.61-4.24-3.18-8.84-4.1-13.12h0Z"/>
      <path d="M162.35,139.5c3.2,5.32,2.9,12.11.39,17.65-5.02,11.19-17.47,18.64-29.72,17.78-14.12-.96-21.72-13.72-15.88-26.6,5.08-11.24,17.61-18.65,29.89-17.67,6.07.46,12.18,3.47,15.31,8.85h0ZM162.3,139.53c-3.18-5.31-9.26-8.22-15.29-8.61-12.1-.77-24.4,6.59-29.42,17.61-5.79,12.62,1.61,25.08,15.46,26.08,12.13.89,24.52-6.44,29.6-17.5,2.52-5.51,2.83-12.26-.34-17.58h0Z"/>
      <path d="M156.97,142.7c2.43,4.04,2.21,9.2.31,13.4-3.81,8.51-13.26,14.18-22.57,13.53-10.68-.65-16.57-10.54-12.11-20.26,1.92-4.3,5.32-7.81,9.32-10.23,7.72-4.67,19.91-4.97,25.05,3.55h0ZM156.93,142.72c-8.48-12.59-28.72-5.36-33.88,6.85-4.42,9.45,1.27,19.04,11.68,19.73,13.27,1.37,29.32-13.1,22.2-26.58h0Z"/>
    </g>
  </g>
</svg>