<?xml version="1.0" encoding="UTF-8"?>
<svg id="Layer_1" data-name="Layer 1" xmlns="http://www.w3.org/2000/svg" xmlns:xlink="http://www.w3.org/1999/xlink" viewBox="0 0 289.13 430.87">
  <defs>
    <style>
      .cls-1, .cls-2 {
        fill: none;
      }

      .cls-3 {
        fill: #c4c66a;
      }

      .cls-3, .cls-4, .cls-5, .cls-6, .cls-7, .cls-2, .cls-8, .cls-9 {
        stroke: #000;
      }

      .cls-3, .cls-4, .cls-5, .cls-6, .cls-7, .cls-2, .cls-9 {
        stroke-width: .5px;
      }

      .cls-3, .cls-4, .cls-6, .cls-7, .cls-8, .cls-9 {
        stroke-miterlimit: 10;
      }

      .cls-10 {
        font-family: Pretendard-Regular-KSCpc-EUC-H, Pretendard;
      }

      .cls-10, .cls-11 {
        font-size: 14px;
      }

      .cls-4, .cls-8 {
        fill: #f9e48f;
      }

      .cls-5 {
        fill: #fff0f0;
      }

      .cls-5, .cls-2 {
        stroke-linecap: round;
        stroke-linejoin: round;
      }

      .cls-12 {
        clip-path: url(#clippath-1);
      }

      .cls-13 {
        clip-path: url(#clippath-2);
      }

      .cls-6 {
        fill: #f4f9fd;
      }

      .cls-14 {
        fill: #fff;
      }

      .cls-7 {
        fill: #7f7061;
      }

      .cls-11 {
        font-family: 'IM_FELL_Double_Pica_SC', 'IM FELL Double Pica SC';
      }

      .cls-15 {
        letter-spacing: -.03em;
      }

      .cls-9 {
        fill: #89796a;
      }

      .cls-16 {
        clip-path: url(#clippath);
      }
    </style>
    <clipPath id="clippath">
      <rect class="cls-1" x="-295.11" y="35.22" width="261.08" height="360.43" rx="30" ry="30"/>
    </clipPath>
    <clipPath id="clippath-1">
      <rect class="cls-1" x="14.03" y="35.22" width="261.08" height="360.43" rx="30" ry="30"/>
    </clipPath>
    <clipPath id="clippath-2">
      <rect class="cls-1" x="323.16" y="35.22" width="261.08" height="360.43" rx="30" ry="30"/>
    </clipPath>
  </defs>
  <rect class="cls-8" y="0" width="289.13" height="430.87"/>
  <rect class="cls-6" x="14.03" y="35.22" width="261.08" height="360.43" rx="30" ry="30"/>
  <text class="cls-11" transform="translate(96.28 23.6)"><tspan x="0" y="0">SUNFL</tspan><tspan class="cls-15" x="50.98" y="0">O</tspan><tspan x="61.97" y="0">WER</tspan></text>
  <text class="cls-10" transform="translate(102.98 415.46)"><tspan x="0" y="0">해바라기 · 감사</tspan></text>
  <path class="cls-5" d="M16.59,5.73l.43.83c2.53,4.84,5.79,9.26,9.66,13.1l.05.05-.05.05c-3.87,3.85-7.13,8.27-9.66,13.1l-.43.83-.43-.83c-2.53-4.84-5.79-9.26-9.66-13.1l-.05-.05.05-.05c3.87-3.85,7.13-8.27,9.66-13.1l.43-.83Z"/>
  <path class="cls-5" d="M273.32,5.73l.43.83c2.53,4.84,5.79,9.26,9.66,13.1l.05.05-.05.05c-3.87,3.85-7.13,8.27-9.66,13.1l-.43.83-.43-.83c-2.53-4.84-5.79-9.26-9.66-13.1l-.05-.05.05-.05c3.87-3.85,7.13-8.27,9.66-13.1l.43-.83Z"/>
  <path class="cls-5" d="M205.35,11.12l.24.47c1.57,3,3.59,5.74,5.99,8.12h0s0,0,0,0c-2.4,2.38-4.42,5.12-5.99,8.12l-.24.47-.24-.47c-1.57-3-3.59-5.74-5.99-8.12h0s0,0,0,0c2.4-2.38,4.42-5.12,5.99-8.12l.24-.47Z"/>
  <path class="cls-5" d="M83.94,11.12l.24.47c1.57,3,3.59,5.74,5.99,8.12h0s0,0,0,0c-2.4,2.38-4.42,5.12-5.99,8.12l-.24.47-.24-.47c-1.57-3-3.59-5.74-5.99-8.12h0s0,0,0,0c2.4-2.38,4.42-5.12,5.99-8.12l.24-.47Z"/>
  <path class="cls-5" d="M16.59,397.53l.43.83c2.53,4.84,5.79,9.26,9.66,13.1l.05.05-.05.05c-3.87,3.85-7.13,8.27-9.66,13.1l-.43.83-.43-.83c-2.53-4.84-5.79-9.26-9.66-13.1l-.05-.05.05-.05c3.87-3.85,7.13-8.27,9.66-13.1l.43-.83Z"/>
  <path class="cls-5" d="M273.32,397.53l.43.83c2.53,4.84,5.79,9.26,9.66,13.1l.05.05-.05.05c-3.87,3.85-7.13,8.27-9.66,13.1l-.43.83-.43-.83c-2.53-4.84-5.79-9.26-9.66-13.1l-.05-.05.05-.05c3.87-3.85,7.13-8.27,9.66-13.1l.43-.83Z"/>
  <path class="cls-5" d="M202.2,402.92l.24.47c1.57,3,3.59,5.74,5.99,8.12h0s0,0,0,0c-2.4,2.38-4.42,5.12-5.99,8.12l-.24.47-.24-.47c-1.57-3-3.59-5.74-5.99-8.12h0s0,0,0,0c2.4-2.38,4.42-5.12,5.99-8.12l.24-.47Z"/>
  <path class="cls-5" d="M85.77,402.92l.24.47c1.57,3,3.59,5.74,5.99,8.12h0s0,0,0,0c-2.4,2.38-4.42,5.12-5.99,8.12l-.24.47-.24-.47c-1.57-3-3.59-5.74-5.99-8.12h0s0,0,0,0c2.4-2.38,4.42-5.12,5.99-8.12l.24-.47Z"/>
  <g class="cls-16">
    <g>
      <rect class="cls-14" x="-233.71" y="158.86" width="280.56" height="10.6" rx="5.3" ry="5.3"/>
      <g>
        <path class="cls-14" d="M-199.11,162.53H12.31v-3.26l-20.39-16.95c0-8.61-6.48-15.59-14.48-15.59s-14.48,6.98-14.48,15.59"/>
        <path class="cls-14" d="M-15.44,159.27c0-10.26,6.26-18.57,13.97-18.57s13.97,8.31,13.97,18.57h11.97"/>
        <circle class="cls-14" cx="13.81" cy="114.44" r="4.05"/>
        <circle class="cls-14" cx="-1.62" cy="129.52" r="2.4"/>
      </g>
      <g>
        <path class="cls-2" d="M-15.44,158.86c0-10.26,6.26-18.57,13.97-18.57s13.97,8.31,13.97,18.57h11.97"/>
        <line class="cls-2" x1="28.65" y1="158.86" x2="36.2" y2="158.86"/>
        <line class="cls-2" x1="-42.13" y1="169.33" x2="41.92" y2="169.33"/>
        <circle class="cls-2" cx="13.81" cy="114.03" r="4.05"/>
        <circle class="cls-2" cx="-1.62" cy="129.11" r="2.4"/>
      </g>
    </g>
  </g>
  <g class="cls-12">
    <g>
      <rect class="cls-14" x="69.86" y="126.04" width="270.96" height="12.98" rx="6.43" ry="6.43"/>
      <g>
        <path class="cls-14" d="M194.06,118.02c0-1.53-.21-6.74-6.09-6.74s-6.05,6.69-6.05,6.69l12.13.04Z"/>
        <path class="cls-14" d="M234.07,118.02c.66-3.54.67-7.03.43-10.02-.62-7.61-4.45-14.7-10.75-19.03-4.04-2.77-9.59-5.06-17.01-5.29-19.8-.61-26.12,15.87-26.12,15.87l53.46,18.46Z"/>
        <path class="cls-14" d="M95.77,132.33h55.62s-.09-5.54,8.74-5.54l18.31,5.54"/>
        <path class="cls-14" d="M160.13,130.94s-1.79-9.6,9.28-9.6c2.91,0,9.62.9,9.03,10.99h14.91"/>
        <circle class="cls-14" cx="245.77" cy="96.11" r="3.59"/>
        <path class="cls-14" d="M295.91,126.11h-16.78c0-.63-.14-1.35-.36-2.09-1.58-5.36-6.47-9.18-12.06-9.24-.06,0-.12,0-.19,0-6.22,0-10.57,3.71-10.57,3.71l23.18,7.62-120.59.67h-43.34l14.58-6.73,21.83-2.26,35.01-7.22c-1.62-15.07-17.95-14.8-17.95-14.8-20.12.45-17.05,22.02-17.05,22.02-.72-3.52-3.07-8.93-12.63-8.12-9.56.81-9.2,10.38-9.2,10.38-12.27-5.86-14.58,6.73-14.58,6.73h-26.34"/>
        <path class="cls-14" d="M235.26,110.49l20.58,13.4c.15-2.2.2-3.74.1-5.4-.33-5.71-4.88-10.32-10.59-10.72-.08,0-.17-.01-.25-.02-8.38-.53-10.47,3.54-10.47,3.54"/>
        <polygon class="cls-14" points="279.13 126.11 227.38 107.7 186.62 98.13 170.35 103.09 151.61 117.8 132.38 115.8 129.78 120.06 117.16 123.89 115.2 126.79 279.13 126.11"/>
        <polygon class="cls-14" points="151.38 132.33 178.43 132.33 167.41 119.75 155.58 130.75 151.38 132.33"/>
      </g>
      <g>
        <line class="cls-2" x1="74.05" y1="126.79" x2="83.03" y2="126.79"/>
        <path class="cls-2" d="M186.62,110.59c-1.62-15.07-17.95-14.8-17.95-14.8-20.12.45-17.05,22.02-17.05,22.02-.72-3.52-3.07-8.93-12.63-8.12-9.56.81-9.2,10.38-9.2,10.38-12.27-5.86-14.58,6.73-14.58,6.73h-26.34"/>
        <path class="cls-2" d="M181.93,117.99s0-6.69,6.05-6.69,6.09,5.2,6.09,6.74"/>
        <path class="cls-2" d="M180.61,99.57s6.33-16.48,26.12-15.87c7.42.23,12.97,2.52,17.01,5.29,6.3,4.32,10.13,11.41,10.75,19.03.24,2.98.23,6.48-.43,10.02"/>
        <path class="cls-2" d="M234.64,111.29s2.09-4.07,10.47-3.54c.08,0,.17.01.25.02,5.71.4,10.26,5.01,10.59,10.72.1,1.66.04,3.2-.1,5.4"/>
        <path class="cls-2" d="M255.95,118.49s4.35-3.71,10.57-3.71c.06,0,.12,0,.19,0,5.59.06,10.49,3.87,12.06,9.24.22.75.36,1.47.36,2.09h16.78"/>
        <path class="cls-2" d="M95.77,132.34h55.62s-.09-5.54,8.74-5.54"/>
        <path class="cls-2" d="M160.13,130.95s-1.79-9.6,9.28-9.6c2.91,0,9.62.9,9.03,10.99h14.91"/>
        <line class="cls-2" x1="199.15" y1="132.34" x2="204.33" y2="132.34"/>
        <line class="cls-2" x1="215.22" y1="132.34" x2="340.39" y2="132.34"/>
        <line class="cls-2" x1="179.48" y1="138.89" x2="290.5" y2="138.89"/>
        <path class="cls-2" d="M211.41,90.75s4.63.84,5.37,2.42"/>
        <path class="cls-2" d="M220.36,95.49s6.74,5.05,7.58,13.27"/>
        <circle class="cls-2" cx="245.77" cy="96.12" r="3.59"/>
      </g>
    </g>
    <g>
      <rect class="cls-14" x="-68.69" y="338.57" width="270.96" height="12.98" rx="6.43" ry="6.43"/>
      <g>
        <path class="cls-14" d="M55.5,330.55c0-1.53-.21-6.74-6.09-6.74s-6.05,6.69-6.05,6.69l12.13.04Z"/>
        <path class="cls-14" d="M95.51,330.55c.66-3.54.67-7.03.43-10.02-.62-7.61-4.45-14.7-10.75-19.03-4.04-2.77-9.59-5.06-17.01-5.29-19.8-.61-26.12,15.87-26.12,15.87l53.46,18.46Z"/>
        <path class="cls-14" d="M-42.79,344.86H12.83s-.09-5.54,8.74-5.54l18.31,5.54"/>
        <path class="cls-14" d="M21.57,343.48s-1.79-9.6,9.28-9.6c2.91,0,9.62.9,9.03,10.99h14.91"/>
        <circle class="cls-14" cx="107.22" cy="308.64" r="3.59"/>
        <path class="cls-14" d="M157.35,338.64h-16.78c0-.63-.14-1.35-.36-2.09-1.58-5.36-6.47-9.18-12.06-9.24-.06,0-.12,0-.19,0-6.22,0-10.57,3.71-10.57,3.71l23.18,7.62-120.59.67H-23.36l14.58-6.73,21.83-2.26,35.01-7.22c-1.62-15.07-17.95-14.8-17.95-14.8-20.12.45-17.05,22.02-17.05,22.02-.72-3.52-3.07-8.93-12.63-8.12-9.56.81-9.2,10.38-9.2,10.38-12.27-5.86-14.58,6.73-14.58,6.73h-26.34"/>
        <path class="cls-14" d="M96.71,323.02l20.58,13.4c.15-2.2.2-3.74.1-5.4-.33-5.71-4.88-10.32-10.59-10.72-.08,0-.17-.01-.25-.02-8.38-.53-10.47,3.54-10.47,3.54"/>
        <polygon class="cls-14" points="140.57 338.64 88.83 320.23 48.06 310.67 31.79 315.62 13.05 330.33 -6.17 328.33 -8.78 332.59 -21.4 336.42 -23.36 339.32 140.57 338.64"/>
        <polygon class="cls-14" points="12.83 344.86 39.88 344.86 28.86 332.28 17.02 343.29 12.83 344.86"/>
      </g>
      <g>
        <path class="cls-2" d="M48.06,323.12c-1.62-15.07-17.95-14.8-17.95-14.8-20.12.45-17.05,22.02-17.05,22.02-.72-3.52-3.07-8.93-12.63-8.12-9.56.81-9.2,10.38-9.2,10.38-12.27-5.86-14.58,6.73-14.58,6.73h-26.34"/>
        <path class="cls-2" d="M43.37,330.52s0-6.69,6.05-6.69,6.09,5.2,6.09,6.74"/>
        <path class="cls-2" d="M42.06,312.1s6.33-16.48,26.12-15.87c7.42.23,12.97,2.52,17.01,5.29,6.3,4.32,10.13,11.41,10.75,19.03.24,2.98.23,6.48-.43,10.02"/>
        <path class="cls-2" d="M96.09,323.82s2.09-4.07,10.47-3.54c.08,0,.17.01.25.02,5.71.4,10.26,5.01,10.59,10.72.1,1.66.04,3.2-.1,5.4"/>
        <path class="cls-2" d="M117.39,331.03s4.35-3.71,10.57-3.71c.06,0,.12,0,.19,0,5.59.06,10.49,3.87,12.06,9.24.22.75.36,1.47.36,2.09h16.78"/>
        <line class="cls-2" x1="161.53" y1="338.65" x2="167.32" y2="338.65"/>
        <line class="cls-2" x1="169.88" y1="338.65" x2="191.52" y2="338.65"/>
        <path class="cls-2" d="M-42.79,344.87H12.83s-.09-5.54,8.74-5.54"/>
        <path class="cls-2" d="M21.57,343.48s-1.79-9.6,9.28-9.6c2.91,0,9.62.9,9.03,10.99h14.91"/>
        <line class="cls-2" x1="60.59" y1="344.87" x2="65.77" y2="344.87"/>
        <line class="cls-2" x1="76.67" y1="344.87" x2="201.84" y2="344.87"/>
        <line class="cls-2" x1="40.93" y1="351.42" x2="151.94" y2="351.42"/>
        <path class="cls-2" d="M72.85,303.28s4.63.84,5.37,2.42"/>
        <path class="cls-2" d="M81.8,308.02s6.74,5.05,7.58,13.27"/>
        <circle class="cls-2" cx="107.22" cy="308.65" r="3.59"/>
      </g>
    </g>
  </g>
  <g>
    <g>
      <path class="cls-4" d="M82.48,126.91s-13.47-15.76-12.6-19.01,24.99-1.09,24.99-1.09l23.36,17.39-9.37,12.24-26.38-9.53Z"/>
      <path class="cls-4" d="M85.52,163.96s-24.88-2.61-28.47-6.95c0,0,13.47-13.8,26.62-15.1,13.15-1.3,26.19,4.13,26.19,4.13l-3.59,17.93h-20.75Z"/>
      <path class="cls-4" d="M106.49,159.07s-25.53-3.69-43.35,22.06c0,0,6.74,7.71,34.99.98l20.97-12.5-12.6-10.54Z"/>
      <path class="cls-3" d="M139.35,150.92s-5.1,122.92-3.46,137.13c0,0-7.65-10.38-12.38-13.66,0,0-2-35.69-15.3-39.88,0,0-3.28-4.73-14.02-5.65,0,0-8.38-4.31-12.66-4.52l.82,3.17s-7.66-3.57-10.93-3.27v2.76s-10.72-.2-15.12.61l.51,2.35s-17.26-1.33-23.59,3.47c0,0,6.35,3.66,7.23,5.94s5.78,3.33,8.93,6.13,5.64,4.57,5.64,4.57l-2.52,1.26s1.89,2.77,5.16,3.65l-2.39,2.65s6.42,4.03,11.21,4.41l-2.52,2.27s2.9,2.27,5.92,2.52l-2.02,1.76s9.7,6.8,17.01,7.31l-2.39,1.13s12.22,7.81,29.85,2.39c0,0,6.65-1.32,12.33,2.42,4.02,2.65,10.4,9.67,10.5,14.03.54,24.48.62,56.5,1.61,64.45.32,2.59,2.49,4.56,5.1,4.56h0c2.88,0,5.21-2.37,5.13-5.25-.14-5.68-.91-63.88.97-66.74,2.9-4.41,12.09-19.4,17.89-21.67,0,0,24.69,10.46,39.18,3.15l.25-1.76s14.86-7.43,16.38-9.63l-2.65-1.07s12.47-9.95,13.23-11.71l-2.39-.88s24.94-24.44,26.07-26.96c0,0-12.02-3.28-27.8-.88v-3.53s-9.23-.38-12.76.88v-2.39s-7.18,0-9.57,1.39c0,0-18.64-1.26-28.97,10.2l-1.13-1.89s-23.05,17.26-13.35,39.55c0,0-12.47,12.47-15.75,19.4,0,0-.55-101.31,7.13-131.29l-9.4-9.03-4.97,6.15Z"/>
      <path class="cls-4" d="M162.88,223.83s-12.71-6.19-13.8-17.28c-1.09-11.08-5.14-24.93-.46-26.12,4.67-1.2,19.7,7,20.08,13.52.38,6.52,1.25,27.06-5.82,29.88Z"/>
      <path class="cls-4" d="M227,162.92s-10.99-12.1-24.57-13.83c-13.58-1.73-33.73.62-33.73.62v10.87s26.2,9.26,36.32,8.89c10.13-.37,16.18-.37,21.98-6.54Z"/>
      <path class="cls-4" d="M194.4,128.59s29.39-2.59,33.96,6.3c0,0-12.84,9.51-14.45,11.98-1.61,2.47-13.34,5.43-20.62,4.94-7.29-.49-19.63-1.61-19.63-1.61l-1.73-14.32,8.52-4.94,13.95-2.35Z"/>
      <path class="cls-4" d="M174.77,135.88s23.96-3.27,32.85-12.62c8.89-9.36,12.97-12.44,12.84-13.8s-4.82-4.09-14.94-2.96c-10.13,1.12-18.28,8.52-18.28,8.52l-19.88,11.85,4.08,6.42,3.33,2.59Z"/>
      <path class="cls-4" d="M165.63,87.47s13.83-14.32,18.65-11.11c4.82,3.21,0,17.66,0,17.66l-14.94,21.61-8.89,5.31-5.8-5.93,10.99-27.54Z"/>
      <path class="cls-4" d="M145.38,91.79s12.84-24.94,19.02-23.59c6.17,1.36,4.32,24.33,2.84,27.66-1.48,3.33-7.06,20-10.2,21.49-3.14,1.48-9.81-.62-9.81-.62l-2.84-16.05.99-8.89Z"/>
      <path class="cls-4" d="M160.44,120.93s3.7-17.04,16.42-23.96c12.72-6.92,23.34-13.21,26.06-12.23,2.72.99-.62,12.23-2.47,15.07-1.85,2.84-9.51,16.79-20.5,22.35-10.99,5.56-12.6,4.69-12.6,4.69l-6.92-5.93Z"/>
      <path class="cls-4" d="M214.9,189.1s-1.85-19.76-38.03-27.91l-11.73-1.61,2.1,10.74s17.41,18.89,28.71,20.75c11.3,1.85,18.95-1.98,18.95-1.98Z"/>
      <path class="cls-4" d="M192.06,212.07s.37-19.76-10.74-30.62c-11.11-10.87-17.04-12.97-17.04-12.97l-7.66,11.85s1.36,11.61,12.6,19.26c11.24,7.66,20.99,11.11,22.85,12.47Z"/>
      <path class="cls-4" d="M129.31,181.68s-5.43,14.99-3.8,24.34c1.63,9.34,7.17,20.97,7.17,20.97,0,0,17.71-9.45,16.73-27.6-.98-18.15-3.8-17.71-3.8-17.71h-16.3Z"/>
      <path class="cls-4" d="M131.59,185.8s-6.3,28.79-27.71,34.77c0,0-8.04-17.28,11.95-44.98l15.76,10.21Z"/>
      <path class="cls-4" d="M110.29,169.61s-31.08,17.71-28.69,36.83c0,0,19.45,5,37.49-30.86l-8.8-5.98Z"/>
      <path class="cls-4" d="M106.16,146.04s-24.88,4.89-46.18-12.82c0,0,.98-10.65,22.27-8.8,21.3,1.85,29.45,9.56,29.45,9.56l-5.54,12.06Z"/>
      <path class="cls-4" d="M115.18,129.3s-29.84-9.2-31.59-38.74c0,0,12.89-1.32,25.07,10.52,12.19,11.84,18.61,19.68,18.61,19.68l-12.09,8.54Z"/>
      <path class="cls-4" d="M124.1,120.76s-26.12-17.93-19.29-45.55c0,0,19.9,4.03,23.76,17.01,3.86,12.97,9.38,26.83,9.38,26.83l-13.85,1.71Z"/>
      <path class="cls-4" d="M134.12,114.44s-18.36-30.31,5.06-48.47c0,0,10.97-1.22,9.26,25.23-1.71,26.45-3.9,32.05-3.9,32.05h-6.59l-3.83-8.81Z"/>
      <ellipse class="cls-4" cx="141.88" cy="150.37" rx="38.13" ry="38.19"/>
      <ellipse class="cls-9" cx="141.88" cy="150.37" rx="38.13" ry="38.19"/>
      <ellipse class="cls-7" cx="141.88" cy="150.37" rx="20.7" ry="20.73"/>
    </g>
    <path d="M167.37,262.68c6.74-7.32,14.81-13.39,23.72-17.81,4.97-2.47,10.17-4.48,15.31-6.56s10.03-3.97,15.16-5.62c5.83-1.88,11.81-3.35,17.9-4.05.19-.02.19-.32,0-.3-10.85,1.24-21.2,4.91-31.3,8.93-5.13,2.04-10.29,4.05-15.29,6.39-4.62,2.16-9.05,4.72-13.19,7.7-4.55,3.26-8.75,6.98-12.54,11.09-.13.14.08.35.21.21h0Z"/>
    <path d="M197.89,245.27c7.12-1.09,14.31-1.58,21.51-1.47.19,0,.19-.3,0-.3-7.23-.11-14.45.39-21.59,1.48-.19.03-.11.32.08.29h0Z"/>
    <path d="M179.5,259.57c8.29,1.08,16.69,1.31,25.02.67,2.33-.18,4.66-.43,6.97-.74.19-.03.11-.31-.08-.29-8.23,1.11-16.57,1.37-24.86.78-2.36-.17-4.71-.41-7.06-.72-.19-.02-.19.28,0,.3h0Z"/>
    <path d="M186.98,251.95c9.3-1.72,18.78-2.31,28.21-1.77.19.01.19-.29,0-.3-9.46-.55-18.97.05-28.29,1.78-.19.04-.11.32.08.29h0Z"/>
    <path d="M172.95,266.9c9.1,2.78,18.71,2.64,28.13,2.47.19,0,.19-.3,0-.3-9.39.17-18.97.31-28.05-2.46-.19-.06-.26.23-.08.29h0Z"/>
    <path d="M217.41,237.08c3.37-.02,6.74-.14,10.11-.35,1.62-.1,3.24-.21,4.85-.39,1.44-.16,2.87-.45,4.19-1.07.17-.08.02-.34-.15-.26-1.43.67-2.99.93-4.56,1.08s-3.14.26-4.72.36c-3.24.2-6.48.31-9.73.33-.19,0-.19.3,0,.3h0Z"/>
    <path d="M202.6,235.46c2.43-3.11,5.32-5.86,8.56-8.12.92-.64,1.86-1.24,2.82-1.79.17-.1.02-.36-.15-.26-3.43,1.98-6.55,4.48-9.25,7.38-.77.83-1.5,1.69-2.2,2.59-.12.15.09.36.21.21h0Z"/>
    <path d="M185.74,241.63c1.54-3.51,3.9-6.63,6.84-9.08.84-.7,1.72-1.33,2.65-1.91.16-.1.01-.36-.15-.26-3.28,2.05-6.06,4.87-8.07,8.17-.57.94-1.08,1.92-1.53,2.93-.08.18.18.33.26.15h0Z"/>
    <path d="M172.9,251.82c2.01-8.44,7.65-15.37,14.15-20.87,1.91-1.62,3.91-3.13,5.94-4.59.16-.11,0-.37-.15-.26-7.07,5.06-13.83,11.02-17.77,18.92-1.07,2.14-1.9,4.39-2.46,6.72-.04.19.24.27.29.08h0Z"/>
    <path d="M166.4,255.49c1.23-6.45,3.91-12.6,7.8-17.89,1.12-1.53,2.34-2.97,3.65-4.34.13-.14-.08-.35-.21-.21-4.57,4.77-8.04,10.56-10.1,16.84-.6,1.81-1.07,3.66-1.42,5.53-.04.19.25.27.29.08h0Z"/>
    <path d="M44.28,238.43c11.33.16,22.78,1.35,33.83,3.92,2.64.61,5.2,1.43,7.6,2.72s4.67,2.74,7.05,4.02,4.69,2.55,6.88,4.11c2.04,1.46,3.95,3.09,5.76,4.83,4.06,3.89,7.59,8.28,11.1,12.66.12.15.33-.06.21-.21-3.18-3.96-6.37-7.93-9.96-11.54s-7.64-6.74-12.16-9.21c-2.4-1.31-4.78-2.65-7.14-4.03s-4.67-2.42-7.25-3.14-5.46-1.26-8.21-1.76-5.48-.92-8.24-1.28c-6.45-.84-12.95-1.3-19.46-1.4-.19,0-.19.3,0,.3h0Z"/>
    <path d="M85.35,233.45c3.84,2.96,7.17,6.57,9.82,10.63.73,1.13,1.41,2.29,2.04,3.49.09.17.35.02.26-.15-2.27-4.33-5.28-8.26-8.85-11.59-1-.93-2.04-1.8-3.11-2.63-.15-.12-.3.14-.15.26h0Z"/>
    <path d="M99.76,238.44c1.28,2.37,3.2,4.31,4.64,6.58s2.63,4.81,3.47,7.41c.46,1.45.82,2.93,1.08,4.43.03.19.32.11.29-.08-.91-5.32-3.15-10.3-6.45-14.56-.98-1.27-2-2.51-2.77-3.93-.09-.17-.35-.02-.26.15h0Z"/>
    <path d="M109.78,244.13c4.01,6.43,6.62,13.68,7.6,21.2.02.19.33.19.3,0-.99-7.57-3.6-14.87-7.64-21.35-.1-.16-.36-.01-.26.15h0Z"/>
    <path d="M74.51,235.12c2.53.69,4.6,2.37,6.44,4.16.53.52,1.05,1.04,1.56,1.57.13.14.35-.07.21-.21-1.83-1.89-3.73-3.82-6.11-5.03-.65-.33-1.33-.6-2.03-.79-.19-.05-.27.24-.08.29h0Z"/>
    <path d="M61.48,250.48c7.69.72,15.45.51,23.09-.61.19-.03.11-.32-.08-.29-7.62,1.12-15.35,1.31-23.02.6-.19-.02-.19.28,0,.3h0Z"/>
    <path d="M75.2,264.19c8.81.36,17.65-.94,25.99-3.82.18-.06.1-.35-.08-.29-8.31,2.88-17.12,4.18-25.91,3.81-.19,0-.19.29,0,.3h0Z"/>
    <path d="M90.84,271.74c7.02.02,13.98-.87,20.93-1.77.19-.02.19-.32,0-.3-6.94.9-13.91,1.79-20.93,1.77-.19,0-.19.3,0,.3h0Z"/>
    <path d="M137.23,111.58c-1.33-7.45-1.99-15.01-1.95-22.57,0-.19-.3-.19-.3,0-.03,7.59.63,15.18,1.97,22.65.03.19.32.11.29-.08h0Z"/>
    <path d="M140.22,111.15c-1.33-3.16-2.18-6.51-2.51-9.92-.02-.19-.32-.19-.3,0,.34,3.47,1.2,6.87,2.55,10.08.07.18.33.02.26-.15h0Z"/>
    <path d="M141.7,74.79c.6.55.77,1.33.88,2.1.14.95.26,1.9.37,2.86.22,1.83.41,3.66.56,5.49.3,3.67.47,7.35.51,11.03,0,.19.3.19.3,0-.04-3.89-.22-7.78-.56-11.66-.17-1.9-.37-3.8-.61-5.7-.17-1.38-.12-3.31-1.24-4.32-.14-.13-.36.08-.21.21h0Z"/>
    <path d="M141.77,100.95c.56,3.13.59,6.35.08,9.48-.03.19.26.27.29.08.52-3.2.49-6.46-.08-9.64-.03-.19-.32-.11-.29.08h0Z"/>
    <path d="M153.02,96.72c.88-3.78,1.83-7.54,2.79-11.29.77-3.02,1.53-6.29,3.91-8.49.14-.13-.07-.34-.21-.21-2.31,2.14-3.13,5.29-3.89,8.24-.99,3.88-1.98,7.77-2.89,11.68-.04.19.25.27.29.08h0Z"/>
    <path d="M151.38,109.94c1.02-6.41,5.08-11.69,7.79-17.43.75-1.59,1.4-3.22,1.87-4.91.05-.19-.24-.27-.29-.08-1.71,6.19-5.82,11.3-8.2,17.21-.67,1.66-1.18,3.37-1.46,5.13-.03.19.26.27.29.08h0Z"/>
    <path d="M154.59,110.06c1.96-6.14,4.19-12.19,6.68-18.14.07-.18-.22-.26-.29-.08-2.49,5.95-4.72,12-6.68,18.14-.06.18.23.26.29.08h0Z"/>
    <path d="M162.17,110.95c1.66-2.85,3.36-5.68,4.97-8.55,1.47-2.62,2.8-5.37,3.25-8.36.03-.19-.26-.27-.29-.08-.46,3.02-1.81,5.79-3.3,8.42-1.6,2.83-3.26,5.62-4.9,8.42-.1.17.16.32.26.15h0Z"/>
    <path d="M172.87,95.28c1.53-2.64,3.29-5.15,5.26-7.48.56-.66,1.14-1.31,1.73-1.95.13-.14-.08-.35-.21-.21-2.09,2.24-3.98,4.66-5.65,7.23-.48.74-.94,1.49-1.39,2.26-.1.17.16.32.26.15h0Z"/>
    <path d="M171.25,90.06c.7-1.39,1.73-2.57,2.8-3.69s2.24-2.31,3.23-3.59c.59-.76,1.14-1.54,1.64-2.36.1-.16-.16-.32-.26-.15-.91,1.45-1.94,2.82-3.1,4.08-1.05,1.14-2.18,2.2-3.15,3.4-.55.67-1.04,1.39-1.43,2.16-.09.17.17.32.26.15h0Z"/>
    <path d="M165.73,117.65c5.63-7.3,12.24-13.84,19.6-19.39,2.06-1.55,4.18-3.02,6.35-4.42.16-.1.01-.36-.15-.26-7.79,5-14.91,11.04-21.09,17.93-1.73,1.93-3.39,3.93-4.97,5.98-.12.15.14.3.26.15h0Z"/>
    <path d="M190.64,102.84c2.88-4.76,5.98-9.38,9.29-13.86.11-.16-.15-.31-.26-.15-3.31,4.47-6.41,9.1-9.29,13.86-.1.17.16.32.26.15h0Z"/>
    <path d="M168.85,122.15c2.46-2.37,4.92-4.74,7.38-7.11,2.19-2.11,4.37-4.22,6.74-6.12,1.38-1.11,2.83-2.13,4.35-3.04.17-.1.02-.36-.15-.26-5.4,3.2-9.79,7.89-14.27,12.22l-4.25,4.1c-.14.13.07.35.21.21h0Z"/>
    <path d="M172.27,123.27c.77-1.13,2.17-1.76,3.28-2.49,1.2-.79,2.38-1.61,3.53-2.47,2.25-1.69,4.4-3.51,6.42-5.47,1.16-1.12,2.27-2.28,3.35-3.47.13-.14-.08-.36-.21-.21-3.88,4.32-8.31,8.14-13.17,11.33-1.19.78-2.63,1.43-3.45,2.63-.11.16.15.31.26.15h0Z"/>
    <path d="M179.07,126.57c4.8-3.33,10.38-5.2,15.88-7.02.18-.06.1-.35-.08-.29-5.52,1.83-11.13,3.7-15.95,7.05-.16.11,0,.37.15.26h0Z"/>
    <path d="M187.19,119.99c8.56-2.5,16.87-5.85,24.77-9.98.17-.09.02-.35-.15-.26-7.88,4.12-16.16,7.46-24.7,9.95-.18.05-.11.34.08.29h0Z"/>
    <path d="M175.52,130.5c5.64-2.62,11.71-4.26,17.9-4.84.19-.02.19-.32,0-.3-6.25.59-12.36,2.24-18.05,4.88-.17.08-.02.34.15.26h0Z"/>
    <path d="M179.17,138.35c1.93-.78,4.05-.96,6.09-1.23s4.1-.52,6.15-.75c4.15-.46,8.3-.83,12.46-1.12.19-.01.19-.31,0-.3-4.24.29-8.48.67-12.71,1.14-2.06.23-4.12.48-6.17.76s-4.04.45-5.91,1.21c-.18.07-.1.36.08.29h0Z"/>
    <path d="M180.24,143.44c6.09-.15,12.18-.06,18.26.28.19.01.19-.29,0-.3-6.08-.34-12.17-.43-18.26-.28-.19,0-.19.3,0,.3h0Z"/>
    <path d="M180.08,145.83c5.51,1.24,11.13,1.93,16.78,2.07.19,0,.19-.3,0-.3-5.62-.14-11.21-.83-16.7-2.06-.19-.04-.27.25-.08.29h0Z"/>
    <path d="M200.88,147.71c5.46-.2,9.97-3.59,14.12-6.79.15-.12,0-.38-.15-.26-4.1,3.16-8.57,6.55-13.97,6.75-.19,0-.19.31,0,.3h0Z"/>
    <path d="M197.59,139.56c8.17.15,16.06-3.35,24.26-2.31.19.02.19-.28,0-.3-8.2-1.04-16.09,2.46-24.26,2.31-.19,0-.19.3,0,.3h0Z"/>
    <path d="M180.27,155.14c8.15,3.78,16.91,6.17,25.86,7.03,2.59.25,5.19.36,7.79.35.19,0,.19-.3,0-.3-8.94.03-17.86-1.47-26.31-4.42-2.44-.85-4.84-1.83-7.19-2.92-.17-.08-.33.18-.15.26h0Z"/>
    <path d="M180.89,159.59c5.86,1.89,11.83,3.4,17.88,4.55.19.04.27-.25.08-.29-6.05-1.14-12.02-2.66-17.88-4.55-.18-.06-.26.23-.08.29h0Z"/>
    <path d="M187.98,153.9c6.49.9,12.84,2.69,18.85,5.3.18.08.33-.18.15-.26-6.03-2.63-12.4-4.42-18.92-5.33-.19-.03-.27.26-.08.29h0Z"/>
    <path d="M175.57,166.77c3.52,3.25,7.15,6.58,11.53,8.63,1.21.57,2.46,1.02,3.75,1.35.19.05.27-.24.08-.29-4.67-1.18-8.6-4.08-12.17-7.2-1.01-.88-2-1.79-2.98-2.7-.14-.13-.35.08-.21.21h0Z"/>
    <path d="M174.23,170.66c3.21,2.92,7.03,5.05,10.32,7.88.93.8,1.81,1.65,2.61,2.57.13.15.34-.07.21-.21-2.83-3.27-6.58-5.51-10.02-8.07-1-.75-1.98-1.53-2.91-2.38-.14-.13-.36.08-.21.21h0Z"/>
    <path d="M181.86,167.51c7.79,3.38,15.49,7.29,21.96,12.86,1.79,1.54,3.47,3.21,5.02,4.99.13.15.34-.07.21-.21-5.57-6.42-12.8-11.07-20.36-14.82-2.2-1.09-4.43-2.11-6.68-3.08-.18-.08-.33.18-.15.26h0Z"/>
    <path d="M189.25,179.83c4.41,3.07,9.09,5.74,13.98,7.99.17.08.33-.18.15-.26-4.88-2.25-9.56-4.93-13.98-7.99-.16-.11-.31.15-.15.26h0Z"/>
    <path d="M162.52,180.51c2.11,2.95,4.48,5.71,7.09,8.23.74.72,1.5,1.41,2.28,2.09.15.13.36-.09.21-.21-2.72-2.36-5.22-4.97-7.46-7.78-.64-.81-1.26-1.63-1.86-2.47-.11-.16-.37,0-.26.15h0Z"/>
    <path d="M168.26,178.97c3.22,2.47,6.06,5.44,8.38,8.77.65.94,1.26,1.9,1.83,2.89.1.17.36.02.26-.15-2.05-3.55-4.64-6.78-7.67-9.55-.85-.78-1.74-1.52-2.66-2.22-.15-.12-.3.14-.15.26h0Z"/>
    <path d="M168.62,182.57c4.17,4.57,7.95,9.49,11.27,14.72.93,1.47,1.83,2.96,2.69,4.47.1.17.35.02.26-.15-3.07-5.37-6.59-10.48-10.53-15.24-1.13-1.36-2.29-2.69-3.48-4-.13-.14-.34.07-.21.21h0Z"/>
    <path d="M182.56,191.59c2.49,3.98,4.42,8.28,5.73,12.79.05.19.34.11.29-.08-1.31-4.53-3.26-8.86-5.76-12.86-.1-.16-.36-.01-.26.15h0Z"/>
    <path d="M170.38,194.42c2.07,2.43,4.13,4.86,6.2,7.29l1.78,2.1c.13.15.34-.07.21-.21-2.07-2.43-4.13-4.86-6.2-7.29l-1.78-2.1c-.13-.15-.34.07-.21.21h0Z"/>
    <path d="M153.07,187.77c1.4,5.23,3.13,10.38,5.18,15.39.07.18.36.1.29-.08-2.05-5.01-3.78-10.16-5.18-15.39-.05-.19-.34-.11-.29.08h0Z"/>
    <path d="M160.83,195.79c1.65,2.81,2.51,5.98,3.11,9.16.64,3.39,1.1,6.81,1.62,10.22.03.19.32.11.29-.08-.53-3.46-1-6.94-1.65-10.38-.6-3.15-1.48-6.28-3.11-9.06-.1-.17-.36-.02-.26.15h0Z"/>
    <path d="M151.55,194.44c.35,5.2,1.69,10.3,3.95,15,.08.17.34.02.26-.15-2.23-4.65-3.56-9.71-3.91-14.85-.01-.19-.31-.19-.3,0h0Z"/>
    <path d="M156.6,206.46c.55,3.38,1.56,6.66,2.98,9.78.08.18.34.02.26-.15-1.41-3.09-2.4-6.36-2.95-9.7-.03-.19-.32-.11-.29.08h0Z"/>
    <path d="M139.77,191.01c.25,4.3-.04,8.62-.9,12.84s-2.37,8.31-4.2,12.27c-.08.17.18.33.26.15,1.84-3.98,3.35-8.03,4.23-12.34s1.17-8.59.91-12.92c-.01-.19-.31-.19-.3,0h0Z"/>
    <path d="M143.53,193.55c.35,6.94.16,13.89-.59,20.8-.02.19.28.19.3,0,.74-6.91.94-13.86.59-20.8,0-.19-.31-.19-.3,0h0Z"/>
    <path d="M136.62,190.39c-1.97,5.89-3.06,12.06-3.23,18.27,0,.19.29.19.3,0,.17-6.19,1.26-12.32,3.22-18.19.06-.18-.23-.26-.29-.08h0Z"/>
    <path d="M133.47,189.95c-1.96,4.91-3.07,10.14-3.28,15.43,0,.19.29.19.3,0,.21-5.26,1.32-10.46,3.27-15.35.07-.18-.22-.26-.29-.08h0Z"/>
    <path d="M120.64,183.65c-2.15,4.04-4.15,8.16-5.99,12.34-.08.18.18.33.26.15,1.84-4.19,3.84-8.31,5.99-12.34.09-.17-.17-.32-.26-.15h0Z"/>
    <path d="M123.9,184.81c-1.9,4.02-3.79,8.05-5.71,12.06-1.8,3.76-3.71,7.48-6.18,10.85-.11.16.15.31.26.15,2.47-3.37,4.38-7.09,6.18-10.85,1.92-4.01,3.81-8.04,5.71-12.06.08-.17-.18-.33-.26-.15h0Z"/>
    <path d="M121.13,197.81c-2.21,4.56-5.06,8.8-8.44,12.57-.95,1.06-1.94,2.08-2.97,3.06-.14.13.07.35.21.21,3.67-3.5,6.85-7.5,9.41-11.87.73-1.25,1.41-2.52,2.04-3.82.08-.17-.17-.33-.26-.15h0Z"/>
    <path d="M118.61,182.11c-3.39,4.45-6.31,9.26-8.69,14.33-.66,1.4-1.27,2.82-1.84,4.25-.07.18.22.26.29.08,2.65-6.61,6.19-12.84,10.5-18.5.12-.15-.14-.3-.26-.15h0Z"/>
    <path d="M91.55,197.2c4.63-4.3,9.46-8.38,14.49-12.21,1.43-1.09,2.87-2.16,4.33-3.21.16-.11,0-.37-.15-.26-5.13,3.69-10.07,7.62-14.82,11.79-1.37,1.21-2.73,2.43-4.06,3.67-.14.13.07.34.21.21h0Z"/>
    <path d="M93.63,188.67c1.81-2.28,4.07-4.12,6.36-5.88,2.53-1.94,5.08-3.87,7.62-5.8,1.46-1.11,2.92-2.22,4.37-3.32.15-.12,0-.38-.15-.26-2.63,1.99-5.25,3.99-7.87,5.98-2.39,1.82-4.84,3.59-7.11,5.55-1.24,1.07-2.41,2.23-3.43,3.52-.12.15.09.36.21.21h0Z"/>
    <path d="M90.63,201.85c4.04-1.96,7.78-4.51,11.06-7.56.95-.88,1.86-1.8,2.73-2.76.13-.14-.08-.36-.21-.21-3.01,3.32-6.51,6.18-10.36,8.47-1.1.65-2.22,1.25-3.37,1.81-.17.08-.02.34.15.26h0Z"/>
    <path d="M66.79,180.94c2.86-.18,5.72-.46,8.57-.83,1.35-.18,2.7-.37,4.04-.59,1.21-.2,2.43-.45,3.46-1.14.16-.11.01-.37-.15-.26-1.05.7-2.3.93-3.53,1.13-1.38.22-2.76.42-4.14.6-2.74.35-5.5.61-8.25.79-.19.01-.19.31,0,.3h0Z"/>
    <path d="M86.87,177.94c5.25-1.31,9.68-4.53,14.44-6.96,1.39-.71,2.82-1.35,4.3-1.86.18-.06.1-.35-.08-.29-5.1,1.76-9.46,5.05-14.35,7.26-1.42.64-2.88,1.18-4.38,1.55-.19.05-.11.34.08.29h0Z"/>
    <path d="M87.75,172.72c3.7-.81,7.32-1.95,10.82-3.4s6.65-3,10.29-3.35c.19-.02.19-.32,0-.3-3.61.34-6.9,1.9-10.2,3.28-3.55,1.49-7.23,2.66-10.99,3.48-.19.04-.11.33.08.29h0Z"/>
    <path d="M76.99,173.34c5.93-4.61,12.97-7.7,20.38-8.95.19-.03.11-.32-.08-.29-5.82.99-11.44,3.1-16.46,6.21-1.4.87-2.75,1.81-4.05,2.82-.15.12.06.33.21.21h0Z"/>
    <path d="M93.92,167.05c3.11-1.07,6.32-1.83,9.58-2.27.19-.03.11-.31-.08-.29-3.26.44-6.47,1.2-9.58,2.27-.18.06-.1.35.08.29h0Z"/>
    <path d="M75.59,158.04c8.43,2.44,17.15,3.82,25.92,4.12.19,0,.19-.29,0-.3-8.75-.3-17.43-1.68-25.84-4.11-.19-.05-.27.24-.08.29h0Z"/>
    <path d="M79.66,155.17c6.43-.11,12.87-.23,19.3-.34.19,0,.19-.3,0-.3-6.43.11-12.87.23-19.3.34-.19,0-.19.3,0,.3h0Z"/>
    <path d="M72.62,151.41c10.12-.67,20.27-.71,30.39-.12.19.01.19-.29,0-.3-10.12-.59-20.27-.55-30.39.12-.19.01-.19.31,0,.3h0Z"/>
    <path d="M78.82,134.63c8.2,2.34,16.6,3.93,25.09,4.74.19.02.19-.28,0-.3-8.46-.81-16.84-2.39-25.01-4.73-.19-.05-.27.24-.08.29h0Z"/>
    <path d="M82.95,130.64c7.14.71,14.16,2.55,20.73,5.43.18.08.33-.18.15-.26-6.63-2.9-13.68-4.75-20.88-5.47-.19-.02-.19.28,0,.3h0Z"/>
    <path d="M77.38,138.6c7.41,2.3,15.17,3.38,22.93,3.18.19,0,.19-.3,0-.3-7.73.19-15.46-.88-22.85-3.17-.18-.06-.26.23-.08.29h0Z"/>
    <path d="M64.25,130.86c5.58-.46,11.21-.32,16.76.42.19.03.19-.27,0-.3-5.55-.74-11.18-.89-16.76-.42-.19.02-.19.32,0,.3h0Z"/>
    <path d="M76.99,111.55c5.76,3.99,11.59,8.01,18.08,10.74,1.86.78,3.77,1.45,5.73,1.98.19.05.27-.24.08-.29-8.77-2.37-16.35-7.58-23.73-12.69-.16-.11-.31.15-.15.26h0Z"/>
    <path d="M87.5,113.04c4.77,2.77,9.38,5.79,13.81,9.06.16.11.31-.15.15-.26-4.44-3.27-9.05-6.3-13.81-9.06-.17-.1-.32.16-.15.26h0Z"/>
    <path d="M97.1,113.48c3.38,4.46,7.73,8.16,12.68,10.77,1.38.73,2.81,1.37,4.28,1.92.18.07.26-.22.08-.29-5.14-1.95-9.83-5.03-13.68-8.96-1.11-1.13-2.14-2.33-3.1-3.6-.12-.15-.38,0-.26.15h0Z"/>
    <path d="M102.71,115.97c3.48,2.07,6.86,4.32,10.12,6.74.16.12.3-.15.15-.26-3.26-2.42-6.63-4.67-10.12-6.74-.17-.1-.32.16-.15.26h0Z"/>
    <path d="M95.67,103.14c4.76,5.34,10.83,9.21,16.79,13.07,1.72,1.11,3.43,2.23,5.12,3.39.16.11.31-.15.15-.26-5.88-4.03-12.14-7.56-17.56-12.22-1.52-1.3-2.96-2.7-4.29-4.19-.13-.14-.34.07-.21.21h0Z"/>
    <path d="M106.39,107.75c2.3,1.47,4.43,3.2,6.33,5.16.54.56,1.06,1.13,1.56,1.72.13.15.34-.07.21-.21-1.78-2.09-3.79-3.97-6-5.6-.63-.47-1.28-.91-1.95-1.33-.16-.1-.31.16-.15.26h0Z"/>
    <path d="M119.17,88.22c1.58,6.62,4.32,12.96,8.08,18.64,1.05,1.59,2.18,3.12,3.38,4.59.12.15.33-.06.21-.21-4.27-5.26-7.6-11.26-9.81-17.66-.62-1.79-1.14-3.6-1.58-5.44-.04-.19-.33-.11-.29.08h0Z"/>
    <path d="M121.01,102.77c1.67,3.92,3.39,7.83,5.17,11.7.08.18.34.02.26-.15-1.78-3.88-3.5-7.78-5.17-11.7-.08-.18-.33-.02-.26.15h0Z"/>
    <path d="M114.07,99.01c2.45,6.07,5.43,11.91,8.9,17.47.1.16.36.01.26-.15-3.45-5.53-6.42-11.35-8.86-17.39-.07-.18-.36-.1-.29.08h0Z"/>
    <path d="M109.65,82.37c1.2,3.17,3.63,5.63,5.32,8.52,1.83,3.12,3.07,6.54,4.29,9.93.07.18.36.1.29-.08-1.2-3.31-2.4-6.65-4.16-9.71s-4.23-5.5-5.46-8.73c-.07-.18-.36-.1-.29.08h0Z"/>
    <path d="M108.19,86.09c.43,4.02,1.68,7.93,3.67,11.45.1.17.35.02.26-.15-1.96-3.47-3.21-7.33-3.63-11.3-.02-.19-.32-.19-.3,0h0Z"/>
  </g>
  <g class="cls-13">
    <g>
      <rect class="cls-14" x="252" y="357.11" width="274.52" height="7.79" rx="3.89" ry="3.89"/>
      <path class="cls-14" d="M265.99,358.38s33.22.75,36.78,0,15.79-2.82,19.39-4.82c4.34-2.41,9.38-.07,9.38,4.63"/>
      <g>
        <line class="cls-2" x1="253.36" y1="364.49" x2="339.85" y2="364.49"/>
        <path class="cls-2" d="M265.23,357.11s31.94.33,42.52,0c3.64-.11,10.82-1.41,14.42-3.41,4.34-2.41,9.38-.07,9.38,4.63"/>
      </g>
    </g>
  </g>
</svg>