<?xml version="1.0" encoding="UTF-8"?>
<svg id="Layer_1" data-name="Layer 1" xmlns="http://www.w3.org/2000/svg" viewBox="0 0 289.13 430.87">
  <defs>
    <style>
      .cls-1 {
        fill: none;
      }

      .cls-2 {
        fill: #fffae6;
      }

      .cls-3 {
        font-family: SUIT-Regular-KSCpc-EUC-H, SUIT;
        font-size: 14px;
      }

      .cls-4 {
        fill: #c5d190;
      }

      .cls-5 {
        fill: #fffbf0;
      }

      .cls-6 {
        fill: #f9f1ac;
      }

      .cls-7 {
        font-family: 'IM_FELL_Double_Pica_SC', 'IM FELL Double Pica SC';
        font-size: 24px;
      }

      .cls-8 {
        fill: #f9f1b7;
      }

      .cls-9 {
        letter-spacing: -.03em;
      }
    </style>
  </defs>
  <g>
    <text class="cls-7" transform="translate(67.4 395.79)"><tspan x="0" y="0">WHITE LI</tspan><tspan class="cls-9" x="121.02" y="0">L</tspan><tspan x="137.6" y="0">Y</tspan></text>
    <text class="cls-3" transform="translate(105.76 418.59)"><tspan x="0" y="0">흰 백합 · 화남</tspan></text>
  </g>
  <g>
    <g>
      <path class="cls-2" d="M144.06,208.11s-17.57-3.73-22.71-10.73c-5.13-7-10.89-9.7-19.6-3.14,0,0-3.65,1.16-1.01-2.67,0,0,2.55-1.91,3.09-3.37s1.18-3.73,2.73-5.82,9.74-6.64,14.56-7.55,17.38-4.73,28.76,3.82c0,0-3.19-17.75-2.09-21.93,1.09-4.19,3.37-9.74,3.46-11.38s-1.37-5.01-.36-6.55,4.64-1.27,7.46-.82,9.1,3.09,11.1,5.28,4.19,7.19,6.1,8.56c1.91,1.37,8.83,6.19,10.01,13.83l1.18,7.65s2-6.92,6.37-10.19,11.29-8.83,15.56-10.28c4.28-1.46,9.37-1.73,13.47.46,4.1,2.18,5.64,3.09,9.47,1.91,3.82-1.18,3.64.91.18,3.46,0,0-1.82,2.91-2.18,8.37-.36,5.46-7.65,15.38-9.92,18.02-2.28,2.64-9.74,9.22-9.74,9.22,0,0,8.01-2.03,12.29.52,4.28,2.55,8.74,3.64,11.83,4.46s6.55,4.86,8.19,8.89c1.64,4.03,2.91,7.94,3.37,10.49.46,2.55,3.55,6.46,3.09,9.37-.46,2.91-2.37,5.82-3.19,6.01s-1.37-4.55-.91-7.37c0,0-1.18-2.28-5.64-3.37s-9.01-2.82-11.65-1.91-7.92,3.64-16.93.18c0,0,6.46,12.01,4.55,21.66-1.91,9.65-2.28,8.65-4.28,11.92-2,3.28-3.55,9.01-6.37,8.28-2.82-.73.36-3-3.37-7.19-3.73-4.19-3.82-4.82-5.28-9.1-1.46-4.28-6.46-6.1-10.19-7.37s-9.47-10.83-9.47-10.83c0,0-7.19,13.83-11.01,17.84-3.82,4-7.74,11.29-10.1,16.84-2.37,5.55-11.83,22.21-11.83,22.21,0,0,9.92-8.37,12.2-10.38,2.28-2,9.74-12.65,12.01-14.38s7.83-7.28,14.11-7.46c6.28-.18,7.19,1.37,6.64,1.73-.55.36-5.28.46-6.83,1.64s-6.74,3.91-8.56,5.1-6.19,8.83-8.37,10.38-9,5.37-12.37,8.56-11.38,7.19-21.39,31.76c0,0,8.83-11.1,14.11-14.02,5.28-2.91,5.01-6.01,12.65-12.83,7.65-6.83,10.83-9.47,18.57-11.83,7.74-2.37,21.39-3.09,26.03-2.18,4.64.91,10.92,3.91,10.38,5.01s-4.46-.91-8.37-.09-8.28,1.37-13.47,6.28c-5.19,4.91-18.57,16.38-23.57,17.38s-12.56,1.09-16.29,2.37-14.65,6.83-19.48,14.93c-4.82,8.1-18.93,39.23-22.21,46.24,0,0,7.55-24.85,8.46-30.76.91-5.92,3.55-27.67-2.46-36.22,0,0-4.37-8.92-8.83-13.02-4.46-4.1-9.37-14.11-10.19-25.58-.82-11.47-2.55-19.11-7.55-23.48-5.01-4.37-13.11-5.73-18.38-2.64,0,0-3.46.09,4.28-4.91,7.74-5.01,22.48,4,25.21,5.73,2.73,1.73,9.74,3.64,15.84,14.74,6.1,11.1,8.92,12.29,9.56,23.03.64,10.74-2.73,29.94-3,32.86-.27,2.91-1.18,24.3-1.64,27.76,0,0,7.37-19.57,9.37-23.03,2-3.46,12.65-29.4,17.47-36.5,4.82-7.1,10.83-23.12,10.83-23.12,0,0,2-9.65,2.82-13.29,0,0-5.91,7.74-8.73,8.83-2.83,1.09-11.29,4.82-14.84,10.65-3.55,5.82-5.64,8.01-6.74,4.73-1.09-3.28-.82-5.28-2.28-7.74-1.46-2.46-2.46-11.38-.64-18.02,1.82-6.64,3.37-11.01,4.37-13.93,1-2.91,4.72-8.52,12.28-11.95Z"/>
      <path class="cls-1" d="M170.22,310.15l.58,4.43c.36,2.79,2.52,5.01,5.31,5.45h0,0c-2.76.32-4.94,2.47-5.29,5.22l-.59,4.65-.59-4.65c-.35-2.75-2.53-4.91-5.29-5.22h0,0c2.78-.44,4.94-2.66,5.31-5.45l.58-4.43Z"/>
      <path class="cls-1" d="M77.79,88.87l1.12,8.58c.41,3.15,2.85,5.65,5.98,6.15l1.85.29-1.8.21c-3.13.36-5.62,2.81-6.02,5.94l-1.13,8.87-1.13-8.87c-.4-3.13-2.88-5.58-6.02-5.94l-1.8-.21,1.85-.29c3.14-.49,5.57-3,5.98-6.15l1.12-8.58Z"/>
      <path class="cls-1" d="M245.98,160.08l1.12,8.57c.41,3.15,2.85,5.65,5.98,6.15l1.84.29-1.79.21c-3.13.36-5.62,2.81-6.02,5.94l-1.13,8.86-1.13-8.86c-.4-3.13-2.88-5.58-6.02-5.94l-1.79-.21,1.84-.29c3.14-.49,5.57-3,5.98-6.15l1.12-8.57Z"/>
      <circle class="cls-1" cx="148.58" cy="323.7" r="1.34"/>
      <circle class="cls-1" cx="136.36" cy="270.8" r="1.34"/>
      <circle class="cls-1" cx="112.15" cy="208.17" r="1.34"/>
      <circle class="cls-1" cx="121.24" cy="217.87" r="1.34"/>
      <circle class="cls-1" cx="116.49" cy="158.17" r="1.34"/>
      <circle class="cls-1" cx="104.3" cy="148.84" r="1.01"/>
      <circle class="cls-1" cx="96.96" cy="109.16" r="1.01"/>
      <circle class="cls-1" cx="151.19" cy="87.14" r="1.01"/>
      <circle class="cls-1" cx="82.05" cy="156.14" r=".69"/>
      <circle class="cls-1" cx="96.44" cy="96.31" r=".69"/>
      <circle class="cls-1" cx="152.59" cy="48.1" r=".69"/>
      <circle class="cls-1" cx="98.14" cy="47.65" r=".69"/>
      <circle class="cls-1" cx="146.51" cy="19.76" r="1.11"/>
      <circle class="cls-1" cx="140.91" cy="32.77" r=".73"/>
      <circle class="cls-1" cx="149.65" cy="10.28" r=".73"/>
      <circle class="cls-1" cx="140.91" cy="12.35" r=".73"/>
      <circle class="cls-1" cx="131.45" cy="279.21" r=".94"/>
      <circle class="cls-1" cx="116.93" cy="223.78" r=".94"/>
      <circle class="cls-1" cx="141.83" cy="332.96" r=".89"/>
      <circle class="cls-1" cx="184.36" cy="312.62" r=".89"/>
      <path class="cls-1" d="M144.06,208.11s11.89-5.81,23.69,6.11c-4.74-9.48-17.86-35.57-17.86-35.57"/>
      <path class="cls-1" d="M176.02,228.89s-1.29-3.17-1.36-9.54c-1.2,9.01-14.02,16.19-14.02,16.19"/>
      <path class="cls-1" d="M210.42,221.52s-9.25-12.71-24.66-8.88"/>
      <path class="cls-2" d="M176.4,152.4s5.6-16.56,7.98-22.17c2.38-5.61,7.6-20.43,8.74-23.28,1.14-2.85,0-10.07-.19-11.69s.67-10.64,3.04-10.83,4.47,1.52,6.65,4.94,2.57,8.74,2.57,8.74c0,0,4.56-5.8,7.98-5.7s7.13,1.43,7.51,6.56c.38,5.13-.1,8.46-3.52,11.5,0,0,6.27-.29,10.36,2.19,4.09,2.47,5.42,4.28,2.28,6.56s-6.46,5.61-10.36,5.7c0,0,6.18,5.51,6.37,7.98.19,2.47-.48,3.52-3.8,1.71s-7.22-4.85-15.87-3.52-12.26,3.14-18.24,9.12c-5.99,5.99-9.07,14.16-9.07,14.16"/>
      <path class="cls-1" d="M192.36,133.63c5.93-6.29,10.8-7.36,14.24-9.61,3.44-2.25,3.2-6.41,3.2-10.68s-2.1-9.61-3.8-9.61c-2.6,0-3.2,5.46-4.98,7.36-1.78,1.9-4.51,5.46-4.51,5.46l-5.19,8.37"/>
      <path class="cls-1" d="M219.43,124.92s-5.57-2.14-12.84-.89"/>
      <path class="cls-2" d="M173.34,149.1s1.85-10.56,3.05-14.72,5.59-30.72,6.03-32.8c.44-2.08,1.65-14.81-5.05-18.43-6.69-3.62-6.8-2.85-6.47-1.21s1.43,3.07,1.43,3.07c0,0-4.06-5.05-5.71-4.45s-2.74,1.81-3.07,5.76c-.33,3.95-2.08,7.9,2.19,12.73,4.28,4.83,7.02,9,8.23,18.54s2.52,6.47.44,15.14c-2.08,8.67-2.41,9.44-2.41,9.44,0,0-3.95-19.1-4.06-22.77s-2.52-13.44-8.89-14.31c-6.36-.88-11.41,1.32-12.07,3.18-.66,1.87-1.32,9.55,3.07,12.07,4.39,2.52,9.65,3.18,11.63,5.38s4.61,6.74,5.27,7.92,3.86,6.78,3.47,10.84"/>
      <path class="cls-1" d="M172.33,85.01s7.95,5.87,7.95,15.47"/>
      <path class="cls-1" d="M146.99,108.27s14.95-7.24,20.78,20.38"/>
      <path class="cls-1" d="M110.71,179.24s-10.5-1.19-13.21-11.04c-2.72-9.85-2.38-14.49-7.24-17.09-4.87-2.6-10.19-3.4-15.4-11.09-5.21-7.7-5.55-7.47-9.06-9.4-3.51-1.92-6.79-3.51-1.81-2.49,4.98,1.02,13.47,1.92,20.94,10.64,7.47,8.72,7.7,10.41,12.57,11.43,4.87,1.02,9.51,3.85,11.21,10.64,1.7,6.79,9.62,4.41,12.9,6.79,3.28,2.38,5,3.2,6.91,5.84"/>
      <path class="cls-1" d="M146.99,176.74s-4.46-12.01-18.46-21.36c-14-9.35-14.09-16.84-15.96-21.27-1.87-4.43-7.82-14.65-12.6-16.08,0,0-.23-2.59,8.17,2.19,8.4,4.78,15.52,11.67,19.13,17.39,3.62,5.71,9.8,15.98,11.55,17.49,1.75,1.52,7.65,13.82,10.01,16.88"/>
      <path class="cls-2" d="M148.82,153.3s-12.66-30.89-14.31-37.51c-1.65-6.61-.26-22.79,1.6-28.05,1.86-5.26,7.58-13.77,8.2-23.21.62-9.44,9.6-34.82,17.8-36.99,0,0,.61-4.7-6.89,2.64-7.5,7.34-13.28,13.61-14.66,20.34s-1.39,8.02-1.39,8.02c0,0,0,6.04.2,8.22s-2.18,8.81-4.36,12.48c-2.18,3.66-4.36,19.41-3.07,27.52,0,0-4.16-13.27-3.66-27.03.5-13.76,4.75-18.71,5.45-21.19s2.08-7.43,0-14.75c-2.08-7.33-9.6-21.29-14.06-23.66-4.46-2.38-5.05,1.78-5.74,4.16s-2.48,9.21-2.57,15.74-.1,13.07,3.37,18.71c3.47,5.64,8.91,9.5,9.6,16.14.69,6.63,1.49,17.92,2.57,22.77,1.09,4.85,8.91,32.08,13.86,41.58,0,0-14.46-15.2-16.83-21.21-2.38-6.01-6.44-12.15-7.13-15.52-.69-3.37-3.76-12-4.06-16.15s.69-15.04-3.96-21.58c-4.65-6.53-10.3-12.67-12.38-11.49-2.08,1.19-.59,4.36-.59,4.36,0,0-8.12-11.09-22.87-13.56,0,0-4.26-.79-.79,4.95,3.47,5.74,4.65,17.92,6.14,22.38,1.49,4.46,4.16,10.78,14.46,14.94,10.3,4.17,12.77,6.84,13.76,8.82.99,1.98,2.18,5.82,7.62,9.8,0,0,4.65,7.23,6.24,11.09,1.58,3.86,9.8,16.24,15.94,23.07,6.14,6.83,9.28,12.08,11.27,20.49"/>
      <path class="cls-1" d="M220.28,133.63s-2.53-10.41-20.37-3.91"/>
      <path class="cls-1" d="M209.23,120.41s4.76-2.51,7.92-2.96"/>
      <path class="cls-1" d="M218.53,99.07s.26,8.83-8.73,14.28c3.89-2.71,7.36-2.87,7.36-2.87"/>
      <path class="cls-1" d="M214.85,100.48s-3.42,8.06-5.05,9.51"/>
      <path class="cls-1" d="M205.18,98.13s-.35,4.1-1.23,7.11"/>
      <path class="cls-1" d="M195.96,84.44s1.98,14.46.76,19.74"/>
      <path class="cls-1" d="M197.86,86.48s6.39,10.29,5.19,20.58"/>
      <path class="cls-1" d="M175.93,96.31s3.49,12.17,2.27,21.72"/>
      <path class="cls-1" d="M167,93.14s9.19,11.53,10.2,23.8"/>
      <path class="cls-1" d="M167.41,86s3.68,2.7,4.93,6.75"/>
      <path class="cls-1" d="M117.45,19.43s10.47,14.89,10.11,44.52"/>
      <path class="cls-1" d="M117.45,29.32s-2.73,22.49,5.06,36.17"/>
      <path class="cls-1" d="M131.14,42.41s2.38,6.54-1.78,20.82"/>
      <path class="cls-1" d="M114.48,47.41s2.34,11.78,5.27,15.82"/>
      <path class="cls-1" d="M118.53,25.4s1.39,7.5,1.23,9.87"/>
      <path class="cls-1" d="M95.81,57.66s10.82,15.57,13.56,24.85"/>
      <path class="cls-1" d="M70.96,44.76s6.04,4.91,8.3,10.56c2.26,5.65,6.9,16,10.83,20.4,3.93,4.4,14.16,12.25,16.18,15.35,2.02,3.09,5.83,7.97,5.83,7.97"/>
      <path class="cls-1" d="M84.86,54.19s11.43,11.54,17.73,23.08c6.3,11.54,9.51,18.56,9.51,18.56"/>
      <path class="cls-1" d="M81.41,71.9s7.24,11.68,17.97,15.72"/>
      <path class="cls-1" d="M105.73,120.44s10.15,7.62,14.02,14.24,4.64,10.6,10.38,16.45c5.74,5.85,9.82,10.93,9.82,10.93"/>
      <path class="cls-1" d="M110.26,125.52s4.53,6.29,6.84,9.49c2.32,3.2,2.54,5.63,4.3,7.51"/>
      <path class="cls-1" d="M117.83,175.8s-8.12-3.26-12.76-10.99c-4.64-7.73-8.17-12.14-12.03-14.46-3.86-2.32-10.82-9.71-12.36-11.92"/>
      <path class="cls-1" d="M113.68,177.62s-11.31-5.3-14.43-13.02"/>
      <path class="cls-1" d="M123.47,174.34s-10.23-3.68-14.76-9.75-3.37-8.94-8.75-11.81"/>
      <path class="cls-1" d="M212.24,276.86s-12.35-5.05-27.53,1.41c-15.18,6.45-39.13,21.97-46.8,28.6"/>
      <path class="cls-1" d="M185.78,280.53s-21.21,11.28-28.23,12.51"/>
      <path class="cls-1" d="M186.74,273.84s-16.85,5.98-25.22,14.1l-5.29,5.98"/>
      <path class="cls-1" d="M171.66,293.05s-10.44.94-16,3.73c-5.56,2.78-10.09,4.4-10.09,4.4"/>
      <path class="cls-1" d="M84.45,229.39s9.75.75,18.37,15.62l5.96,10.28c1.79,3.09,3.2,6.37,4.19,9.8,2.12,7.3,5.74,20.08,6.09,23.42.5,4.75,1,12.66,1,12.66"/>
      <path class="cls-1" d="M186.76,173.28s-.07,15.77-7.93,26.63l-1.59,2.29s1.79-7.33,2.74-9.55,3.08-7.19,1.03-7.79-2.82,6.42-3.42,9.39-4.96,13.21-4.96,13.21c0,0,1.27-19.06.8-23.33-.47-4.27-4.31-41.36-22.51-45.33"/>
      <path class="cls-1" d="M167.75,211.59s-.69-6.22-3.63-11.95c-2.94-5.74-.75-5.81-.75-5.81,4.71.2,5.45,18.09,5.45,18.09.95-6.16-.95-20.96-2.59-22.39s-4.1-6.83-4.1-9.49,1.43-1.43,3.76,1.16c1.44,1.61,1.81,4.29,1.88,6.08.04,1.05.23,2.09.63,3.07,1.78,4.45,1.93,15.03,1.93,15.03"/>
      <path class="cls-1" d="M181.01,196.44s6.15-5.88,7.75-8.91,3.48-5.36,4.82-3.75c1.34,1.61.09,4.46-1.79,6.07-1.88,1.61-10.09,11.61-13.22,16.08,0,0,5.55-4.46,8.18-7.59s7-1.79,3.79,1.07c-3.21,2.86-6.61,4.02-8.57,5.8-1.96,1.79-7.14,9.55-7.14,9.55,0,0,5.37-3.23,10.1-4.6,2.8-.82,25.04-15.91,25.04-15.91"/>
      <path class="cls-1" d="M172.61,207.45s-.2,4.72-.6,6.77"/>
      <path class="cls-1" d="M166.9,216.04s-9.13-2.14-17.28,7.24-11.85,16.05-14.15,22.3c-2.3,6.25-4.06,15.64-4.06,15.64l7.51-14.98"/>
      <path class="cls-1" d="M147.07,232.5s5.9-14.81,20.69-14.73"/>
      <line class="cls-1" x1="150.52" y1="236.12" x2="157.41" y2="226.74"/>
      <path class="cls-1" d="M138.51,223.78s7.74-10.7,18.19-11.86c7.03-.78,10.2,2.84,10.2,2.84"/>
      <path class="cls-1" d="M202.86,225.84s-8.64-11.93-21.23-10.7"/>
      <path class="cls-1" d="M209.53,250.11s1.56-8.89-2.47-13.99"/>
      <path class="cls-1" d="M202.53,242.3s3.21,6.83,1.79,21.09c0,0,12.61-27.85-22.69-45.59"/>
      <path class="cls-1" d="M178.32,218.43s4.05,3.08,5.94,7.79"/>
      <path class="cls-1" d="M185.76,211.09s11.63-6.55,22.82-7.1c11.19-.55,20.88.37,28.11,6.83,7.23,6.47,10.17,13.22,10.44,14.66s-.07,6.62-1.57,8.5"/>
      <path class="cls-1" d="M243.3,220.44s-3.89-5.19-8.87-7.64c-4.98-2.46-9.82-3.82-21.76-5.35-11.94-1.53-25.45,3.72-25.45,3.72,0,0,13.17-2.72,24.36.75"/>
      <path class="cls-1" d="M185.76,211.09s16.61-11.76,29.5-10.68"/>
      <path class="cls-1" d="M191.32,183.87s7.98-10.65,9.81-12.09"/>
      <path class="cls-1" d="M193.58,183.77s6.88-7.66,10.28-9.16"/>
      <path class="cls-1" d="M194.56,171.78s7-9.87,9.65-11.22"/>
      <path class="cls-1" d="M208.11,173.21s4.8-5.65,8.35-7.4c3.55-1.75,7.75-3.3,10.95-5.5,3.2-2.2,6.73-5.32,6.73-5.32-.99.64-1.89,1.14-2.7,1.54-1.82.9-3.81,1.32-5.84,1.46-8.39.59-15.81,6.72-15.81,6.72"/>
      <path class="cls-1" d="M177.21,164.59s.31,15-1.46,22.94"/>
      <path class="cls-1" d="M158.41,158.91s4.2,6.27,7.83,15.43"/>
      <path class="cls-1" d="M152.7,169.04s1.96,9.3,3.2,12.12"/>
      <path class="cls-1" d="M99.96,194.16s12.16-14.15,31.44-5.8"/>
      <path class="cls-1" d="M103.84,188.21s13.52-9.3,29.08-2.48"/>
      <path class="cls-1" d="M122.79,194.24s6.27,3.42,10.76,4.05"/>
      <path class="cls-1" d="M133.55,179.24s7.18.36,15.6,9.65c8.42,9.3,18.6,25.33,18.6,25.33"/>
      <path class="cls-1" d="M136.58,187.53s6.16.68,14.07,7.31c4.83,4.06,11,12.6,11,12.6"/>
      <path class="cls-1" d="M144.06,199s10.95,4.12,15.56,7.83"/>
      <path class="cls-1" d="M102.71,261.23s7.8,15.06,10.47,22.66c2.67,7.6,5.03,14.99,5.03,14.99"/>
      <path class="cls-1" d="M121.09,267.25s1.14,15.91,0,23.93"/>
      <path class="cls-1" d="M112.15,255.85s5.75,16.64,6.57,22.8"/>
      <path class="cls-1" d="M114.52,254.82s-5.44-12.63-13.14-19.29"/>
      <path class="cls-1" d="M107.33,260.47s-8.23-13.86-14.08-17.66"/>
      <path class="cls-1" d="M98.8,258.83s8.32,21.98,11.66,26.39"/>
      <path class="cls-1" d="M109.79,268.58s5.65,14.84,7.39,20.98"/>
      <path class="cls-1" d="M69.27,232.08s3.01-2.98,9.75-2.98"/>
      <path class="cls-1" d="M191.32,196.86s10.12-5.71,12.54-7.55"/>
      <path class="cls-1" d="M203.95,113.83s-12.31,16.84-13.69,18.96"/>
      <line class="cls-1" x1="197.12" y1="107.17" x2="192.36" y2="115.21"/>
      <path class="cls-1" d="M193.58,116.16s-9.58,22.03-11.48,25.63"/>
      <path class="cls-1" d="M234.75,235.53s-6.45,5.07-6.45,7.58,1.76,4.76-.88,7.66c-2.64,2.91-9.82,6.06-9.82,9.68s3.08,12.41,2.49,15.49c-.59,3.08-4.54,9.5-12.31,10.83-7.77,1.33-12.01,4.74-12.75,7.14-.73,2.4.65,5.62.05,8.03s-4.73,6.14-4.73,6.14c0,0,6.04-4.2,7.15-6.93,1.11-2.73-1.71-5.11.1-7.24,1.81-2.13,11.58-2.54,16.51-5.76,4.93-3.22,9.36-8.86,8.56-15.2-.81-6.34-3.82-9.6-2.72-11.74s5.33-3.96,8.96-8.49c3.62-4.53,1.02-6.34,1.41-9.62.33-2.71,2.02-4.56,4.43-7.58Z"/>
      <path class="cls-1" d="M90.38,173.94s2.58,1.27,2.33,3.67-.83,6.4-3.08,9.48l-2.25,3.08s-2.08,3.58-1.08,5.66c1,2.08,2,3.41,3.83,4.16s2.25,3.75,1,5.91-2.5,8.66.83,11.32c0,0-1.66-4.99-1-6.74s3-6.66,2.25-9.07c-.75-2.41-4.9-3.16-5.24-5.83-.49-3.87,2.98-5.08,4.25-8.24,1.27-3.16,2.63-8.47,1.85-10.42s-3.68-2.98-3.68-2.98Z"/>
      <path class="cls-1" d="M89.76,113.16s-2.76,2.55,0,8.72c2.76,6.17,6.02,4.75,8.57,7.58,0,0-.86-1.84-4.32-3.94s-4.25-6.76-4.25-12.36Z"/>
      <path class="cls-1" d="M146.99,133.63s-.98-4.82-5.45-10.21c-4.47-5.39-5.94-11.2-3.98-17.14,1.96-5.94,6.06-6.61,7.35-9.37,1.29-2.75.18-8.62-1.04-12.48-1.22-3.86,2.33-8.52,5.2-11.09,2.88-2.57,9.18-7.1,17.08-8.39,0,0-15.8,6.06-19.16,12.12s.13,12.06,0,15.06-.37,5.94-4.9,10.04c-4.53,4.1-3.37,10.63-2.94,12.63s3.73,6.29,5.14,9.23c1.41,2.94,2.7,9.6,2.7,9.6Z"/>
      <path class="cls-1" d="M187.84,157.97s4.3-8.58,10.24-11.51c5.95-2.94,9.04-3.55,14.29-3.4s6.64-1.7,6.64-1.7c0,0-.36,2.47-6.01,2.63s-10.56,1-14.29,3.71c-3.73,2.7-5.58,4.4-6.51,5.41-.93,1-4.37,4.87-4.37,4.87Z"/>
      <path class="cls-1" d="M168.33,216.53s4.28,2.67,10.62.19"/>
      <path class="cls-1" d="M114.13,104.99s1.93.89,3.05-1.17"/>
      <path class="cls-1" d="M124.32,74.89s1.52,1.78,4.3.12"/>
      <path class="cls-1" d="M157.81,248.82s.2,3.73,3.84,1.96"/>
      <path class="cls-1" d="M175.51,126.81s1.04,1.54,2.46,0"/>
      <path class="cls-1" d="M166.96,133.63s1.92.74,3.18-.84"/>
      <path class="cls-1" d="M179.81,142.53s-.03,3.15,4.34,2.14"/>
      <path class="cls-5" d="M234.42,235.53s-6.45,5.07-6.45,7.58,1.76,4.76-.88,7.66c-2.64,2.91-9.82,6.06-9.82,9.68s3.08,12.41,2.49,15.49c-.59,3.08-4.54,9.5-12.31,10.83-7.77,1.33-12.01,4.74-12.75,7.14-.73,2.4.65,5.62.05,8.03s-4.73,6.14-4.73,6.14c0,0,6.04-4.2,7.15-6.93,1.11-2.73-1.71-5.11.1-7.24,1.81-2.13,11.58-2.54,16.51-5.76,4.93-3.22,9.36-8.86,8.56-15.2-.81-6.34-3.82-9.6-2.72-11.74s5.33-3.96,8.96-8.49c3.62-4.53,1.02-6.34,1.41-9.62.33-2.71,2.02-4.56,4.43-7.58Z"/>
      <path class="cls-5" d="M90.06,173.94s2.58,1.27,2.33,3.67c-.25,2.4-.83,6.4-3.08,9.48l-2.25,3.08s-2.08,3.58-1.08,5.66c1,2.08,2,3.41,3.83,4.16s2.25,3.75,1,5.91c-1.25,2.16-2.5,8.66.83,11.32,0,0-1.66-4.99-1-6.74s3-6.66,2.25-9.07-4.9-3.16-5.24-5.83c-.49-3.87,2.98-5.08,4.25-8.24s2.63-8.47,1.85-10.42c-.78-1.95-3.68-2.98-3.68-2.98Z"/>
      <path class="cls-5" d="M89.43,113.16s-2.76,2.55,0,8.72,6.02,4.75,8.57,7.58c0,0-.86-1.84-4.32-3.94s-4.25-6.76-4.25-12.36Z"/>
      <path class="cls-5" d="M146.67,133.63s-.98-4.82-5.45-10.21c-4.47-5.39-5.94-11.2-3.98-17.14,1.96-5.94,6.06-6.61,7.35-9.37,1.29-2.75.18-8.62-1.04-12.48-1.22-3.86,2.33-8.52,5.2-11.09s9.18-7.1,17.08-8.39c0,0-15.8,6.06-19.16,12.12-3.36,6.06.13,12.06,0,15.06-.13,3-.37,5.94-4.9,10.04s-3.37,10.63-2.94,12.63,3.73,6.29,5.14,9.23c1.41,2.94,2.7,9.6,2.7,9.6Z"/>
      <path class="cls-5" d="M187.52,157.97s4.3-8.58,10.24-11.51c5.95-2.94,9.04-3.55,14.29-3.4s6.64-1.7,6.64-1.7c0,0-.36,2.47-6.01,2.63s-10.56,1-14.29,3.71c-3.73,2.7-5.58,4.4-6.51,5.41s-4.37,4.87-4.37,4.87Z"/>
      <path class="cls-6" d="M169.9,310.15l.58,4.43c.36,2.79,2.52,5.01,5.31,5.45h0,0c-2.76.32-4.94,2.47-5.29,5.22l-.59,4.65-.59-4.65c-.35-2.75-2.53-4.91-5.29-5.22h0,0c2.78-.44,4.94-2.66,5.31-5.45l.58-4.43Z"/>
      <path class="cls-6" d="M77.46,88.87l1.12,8.58c.41,3.15,2.85,5.65,5.98,6.15l1.85.29-1.8.21c-3.13.36-5.62,2.81-6.02,5.94l-1.13,8.87-1.13-8.87c-.4-3.13-2.88-5.58-6.02-5.94l-1.8-.21,1.85-.29c3.14-.49,5.57-3,5.98-6.15l1.12-8.58Z"/>
      <path class="cls-6" d="M245.65,160.08l1.12,8.57c.41,3.15,2.85,5.65,5.98,6.15l1.84.29-1.79.21c-3.13.36-5.62,2.81-6.02,5.94l-1.13,8.86-1.13-8.86c-.4-3.13-2.88-5.58-6.02-5.94l-1.79-.21,1.84-.29c3.14-.49,5.57-3,5.98-6.15l1.12-8.57Z"/>
    </g>
    <path class="cls-4" d="M154.69,263.35c-.25.58-.57,1.28-.96,2.07-.81,1.66-1.87,3.72-3.02,5.88-.33.62-.67,1.25-1.01,1.88-3.3,6.12-6.85,12.38-6.85,12.38,0,0,9.92-8.37,12.2-10.38,2.28-2,9.74-12.65,12.01-14.38s7.83-7.28,14.11-7.46c6.28-.18,7.19,1.37,6.64,1.73s-5.28.46-6.83,1.64-6.74,3.91-8.56,5.1-6.19,8.83-8.37,10.38c-2.18,1.55-9,5.37-12.37,8.56s-11.38,7.19-21.39,31.76c0,0,8.83-11.1,14.11-14.02,5.28-2.91,5.01-6.01,12.65-12.83,7.65-6.83,10.83-9.47,18.57-11.83,7.74-2.37,21.39-3.09,26.03-2.18,4.64.91,10.92,3.91,10.38,5.01s-4.46-.91-8.37-.09c-3.91.82-8.28,1.37-13.47,6.28-5.19,4.91-18.57,16.38-23.57,17.38-5.01,1-12.56,1.09-16.29,2.37-3.73,1.27-14.65,6.83-19.48,14.93-4.82,8.1-18.93,39.23-22.21,46.24,0,0,7.55-24.85,8.46-30.76.91-5.92,3.55-27.67-2.46-36.22,0,0-4.37-8.92-8.83-13.02-4.46-4.1-9.37-14.11-10.19-25.58-.82-11.47-2.55-19.11-7.55-23.48-5.01-4.37-13.11-5.73-18.38-2.64,0,0-3.46.09,4.28-4.91,7.74-5.01,22.48,4,25.21,5.73,2.73,1.73,9.74,3.64,15.84,14.74,6.1,11.1,8.92,12.29,9.56,23.03.64,10.74-2.73,29.94-3,32.86-.27,2.91-1.18,24.3-1.64,27.76,0,0,7.37-19.57,9.37-23.03,2-3.46,12.65-29.4,17.47-36.5l1.96-2.98,1.37-2.76,2.11-4.32,1.24-2.84,1.05-2.26,1.66-3.95.84-1.92.47-1.37.61,1.08,1.03.82,1.45-.11.71-.24-1.11,2.08-1.34,1.84-2.26,4.42"/>
    <path class="cls-8" d="M174.64,214.57l1.41-2.25,1.69-1.97.95-1.61,1.71-1.95,1.07-1.44,1.78-1.21,1.75-1.18,2.65-1.58,1.81-1.21,1.28-1.18.6-.97.07-.84-.54-.47-.87-.24-1.18.1-1.65.71-.71,1.11-2.55,2.55-1.78,1.65-1.31,1.21-1.38,1.11-.3-.4.87-1.31,1.04-1.11,1.04-1.24,1.24-1.68,2.59-2.95,3.26-3.96,1.75-2.08,1.95-1.71.77-2.22.07-1.58-.5-1.04-1.04-.37-1.01.44-1.48,1.58-.77,1.65-1.68,2.52s-1.58,1.71-1.61,1.81-3.69,4.16-3.69,4.16l-.87.77-3.46,5.14-.47.67.71-3.46.87-3.39.77-2.15.97-2.08.74-2.12.34-1.91-.1-1.31-.54-.64-.64-.1-.57.47-.6.97-.6,1.71-.44,2.45-.54,2.69s-.34,1.71-.34,1.81-1.38,3.83-1.38,3.83l-.6,1.88-.74,1.98-.94,2.15-.81,1.48-.37,1.09-2.26-1.96.03.28.05-2.14-.56-5.27-.4-4.37-.64-2.15-.62-1.96-.42-2.1-.17-2.13-1.03-3.47-.78-1.01s-.87-.84-.95-.92l-1.29-1.29-.73-.34-.59.39-.34,1.17.42,1.62s.48,1.68.5,1.76.73,1.96.73,1.96l1.06,1.76.64,1.4.89.87.7,1.26s.25.84.31.98.95,4.39.95,4.39l.34,2.71.28,3.05.31,3.97.06,2.43-.36,2.15-.34-1.73-.28-3.66-.48-2.49-.34-2.18s-.53-1.54-.53-1.68-.62-1.87-.62-1.87l-.7-1.45-1.37-1.45-.89-.11-.7.73-.06,1.23.7,2.01.92,1.71,1.34,3.16.84,2.52.36,1.62.5,1.79.34,1.15.17,1.12.08.75-1.43.03.83,1.62.67,1.5s1.58.71,2.84.95,3.76.05,4.29-1.08Z"/>
    <path class="cls-4" d="M113.89,105.15l2.07,3.44,2.41,4.32,1.56,3.09,1.18,2.33,1.48,2.43,3.61,5.59,1.48,2.16,2.86,4.25,4.25,5.02,3.74,4.31,1.75,2.36,1.58,2.16,1.38,2.36,1.21,2.33,1.18,2.9.57,1.85.74,2.26.27.74.17-1.65.47-1.82.61-1.82.03-.61-1.15-2.66-.94-2.16-2.36-5.73-1.52-4.28-1.75-4.18-2.29-6.1-1.38-3.47-1.85-5.36-1.15-3.24-.4-3.1-.27-3.64-.07-3.84.17-2.49.2-3.98.27-2.19.17-1.69.54-2.66.61-3.37.77-2.15.88-2.06.78-1.31,1.08-2.43.71-1.79.84-1.72.67-1.35,1.19-3.56,1.03-3.03.53-2.95.12-2.17.66-4.35.62-2.67.86-3.2.49-1.97,1.72-4.76.94-2.75,1.27-2.87,1.22-2.16,1.16-2.43,1.52-2.62,1.64-2.34,1.48-1.85,1.76-1.64,1.72-1.07.73-.38-.12-.89-.66-.45-1.27.25-1.48.82-2.54,2.21-2.3,2.17-5.78,6.6-2.26,2.58-2.21,2.95-2.21,4.68-1.12,4.74-.87,5.01-.07,4.66.04,2.46.11,2.63-.96,3.68-1.86,4.87-1.86,3.77-1.13,3.74-.91,4.22s-.7,4.51-.7,4.64-.35,6.54-.35,6.75-.04,5.49-.04,5.49l-2-9.16-.83-5.79-.21-3.98-.25-3.53v-3.03l.37-4.35-.62.29-2.21.29-1.03-.37-.39-.25.46,4.77.39,4.4.7,6.92.78,5.57.57,2.13.85,3.03.67,3.11,1.13,3.74,1.85,5.59,1.48,4.7,1.55,4.79,1.18,3.66,1,2.72,1.55,4.29,2.16,4.43-3.12-2.95-5.25-5.99-4.1-5.13-3.44-5.33-1.15-2.54-2.21-4.55-1.85-3.57-1.35-2.67-.98-2.37-.58.81-.83.42-1.13.09-.43-.05Z"/>
    <path class="cls-4" d="M148.57,172.2l-1.97-2.96-2.47-4.75-2.84-5.21-2.12-3.35-1.72-2.06-5.16-7.74-2.96-4.56-2.52-4.25-3.01-3.98-2.96-3.01-4.16-3.94-4.34-3.32s-2.43-1.59-2.57-1.68-3.41-1.9-3.41-1.9l-2.61-1.42-1.81-.62-1.73-.13-.71.49,1.37.8,2.91,2.07,2.67,3.26,2.58,3.81,2.81,4.89s1.33,3.98,1.37,4.16.8,2.88.8,2.88l1.99,3.54,2.79,3.98,2.21,2.48s3.32,2.52,3.41,2.66,4.03,3.05,4.03,3.05l2.74,1.86,4.96,4.38,2.66,2.96,4.47,5.71s1.46,2.61,1.55,2.74,1.46,2.61,1.46,2.61l.62,1.37,2.64,1.4-.8-5.33-.18-.9Z"/>
    <path class="cls-4" d="M128.1,173.36l-2.23-2.23-3.13-2.31-1.74-1.34-1.47-.65-4.05-.65-2.76-.56-2.37-1.47-1.51-1.51-.6-2.37-.91-2.41-1.21-2.03-1.98-2.37-2.67-1.77-2.54-1.16-2.63-.65-1.68-.43-2.24-1.55-1.68-1.81-2.41-2.93-2.67-3.15-2.11-2.41-2.59-2.37-2.41-1.94-2.99-1.65s-2.37-1.12-2.63-1.17-4.21-1.4-4.21-1.4l-2.53-.33-2.17-.56-1.79-.15-.94-.1.59.62,3.04,1.55s2.09,1.35,2.19,1.38,2.04,1.3,2.04,1.3l1.25,1.35,1.48,2.12,2.97,4.16s.78.97.83,1.05,1.63,1.94,1.63,1.94l2.32,2.19,5.66,3.52s3.01,1.22,3.39,1.4,3.42,1.94,3.42,1.94l.82,1.28,1.99,4.16.39,2.39s.66,1.9.69,1.97.28,2.14.28,2.14l.94,3.72,1.12,2.5,1.2,2.35,2.19,2.3,3.06,2.07s2.19.92,2.32.99,3.06.99,3.06.99l17.98-5.93Z"/>
    <path class="cls-4" d="M166.68,133.77l.79,1.55,1.19,2.44.79,2.01s.33,1.12.33,1.25.36,2.57.36,2.57l-.07.69.63,1.15,1.09,1.78.96,1.61.43.43.07-1.19.46-1.94.43-3.16.53-2.6.49-2.27.53-1.81.89-3.89.53-2.57.43-2.31.07-.69-.69.53h-.72l-.86-.33s-.3,1.48-.33,1.81-.69,3.16-.69,3.16l-.56,2.77-.43,1.65-.72,2.41-.26,2.08-.63.63-.92-3.53-.66-3.79-.23-1.38-.66.72-1.05.33-1.48-.1Z"/>
    <polygon class="cls-4" points="179.41 142.81 180.02 144.01 181 144.73 182.33 144.86 183.54 144.79 183.41 145.28 182.14 147.23 181.23 148.86 180.22 150.75 179.37 152.44 178.69 153.71 178.49 154.49 177.39 153.38 176.12 152.54 176.18 151.95 177.03 149.51 178.01 147.04 178.79 144.43 179.41 142.81"/>
    <g>
      <path d="M168.14,310.12c.35,1.8.42,4.57,1.15,6.2.84,1.87,2.66,3.25,4.68,3.56,0,0,.05,0,.05,0h.01c0-.05,0,.47,0,.25-2.07.24-3.94,1.66-4.72,3.58-.64,1.66-.67,4.4-.97,6.19,0,.11-.11.2-.22.19-.09-.01-.16-.09-.17-.17-.32-1.68-.46-4.71-1.05-6.16-.78-1.89-2.63-3.27-4.66-3.49,0,.44-.02-.6-.01-.5,0,0,0,0,0,0,0,0,.05,0,.05,0,2-.29,3.79-1.63,4.63-3.47.77-1.85.84-4.2,1.23-6.17h0ZM168.14,310.17c-.35,2.16-.11,4.19-.94,6.25-.82,1.94-2.66,3.42-4.74,3.81,0,0-.1.02-.1.02h-.05s0,.01,0,.01c0,.11-.02-.93,0-.49,2.78.28,5.15,2.61,5.49,5.38.14,1.01.44,3.67.56,4.72,0,0-.4,0-.4,0h0c.34-1.89.37-4.5,1.07-6.28.85-2.01,2.82-3.47,4.98-3.7.02-.22,0,.29,0,.24-.09-.02-.26-.06-.36-.07-3.16-.62-5.11-3.7-5.14-6.76,0,0-.36-3.13-.36-3.13h0Z"/>
      <path d="M75.71,88.84c.23,1.66.79,5.74,1.01,7.34.1,3.3,2.2,6.46,5.53,7.19.79.17,1.62.26,2.42.39.07.01.11.08.1.14-.42.3-1.91.22-2.55.43-2.38.51-4.41,2.41-5.03,4.77-.32,1.37-.47,3.46-.68,4.89,0,0-.61,4.93-.61,4.93,0,.11-.11.2-.23.19-.09-.01-.16-.09-.17-.17-.23-1.66-.79-5.78-.99-7.38-.16-4.7-3.18-7.33-7.79-7.41-.14-.02-.23-.14-.22-.28.01-.11.1-.2.21-.22.8-.13,1.65-.22,2.42-.38,3.3-.72,5.36-3.82,5.48-7.1.33-2.35.78-5.01,1.09-7.32h0ZM75.71,88.89c-.48,3.25-.55,6.58-1.22,9.78-.95,3.47-4.3,5.23-7.69,5.46,0,0-.01-.49-.01-.49,1.65.17,3.43.32,4.85,1.31,1.44.93,2.53,2.4,2.98,4.06.35,1.46.49,3.47.71,4.95,0,0,.58,4.93.58,4.93h-.4v-.02s.65-4.92.65-4.92c.23-1.48.37-3.48.73-4.93.45-1.64,1.53-3.08,2.96-3.98,1.41-.98,3.16-1.11,4.8-1.27,0,0,0,.25,0,.25-4.6-.29-7.86-3.07-8.03-7.79-.19-1.58-.7-5.71-.9-7.33h0Z"/>
      <path d="M243.9,160.05c.23,1.66.79,5.73,1.01,7.33.11,3.29,2.2,6.45,5.52,7.18.78.17,1.61.26,2.42.39.07.01.11.08.1.14-.43.3-1.9.22-2.55.43-2.38.51-4.4,2.4-5.02,4.76-.32,1.37-.47,3.46-.68,4.88,0,0-.61,4.92-.61,4.92,0,.11-.11.2-.22.19-.09-.01-.16-.09-.17-.17-.23-1.66-.79-5.78-.99-7.37-.16-4.69-3.18-7.32-7.78-7.41-.14-.02-.23-.14-.22-.28.01-.11.1-.2.21-.22.8-.13,1.65-.22,2.41-.38,3.29-.72,5.35-3.82,5.48-7.09.33-2.34.78-5,1.09-7.31h0ZM243.9,160.1c-.48,3.25-.55,6.57-1.22,9.77-.92,3.44-4.33,5.24-7.68,5.46,0,0-.01-.49-.01-.49,1.64.17,3.43.32,4.84,1.31,2.27,1.37,3.24,4.01,3.37,6.53.21,1.59.7,5.75.89,7.39,0,0-.4,0-.4,0v-.02s.65-4.91.65-4.91c.23-1.48.37-3.48.73-4.92.45-1.63,1.53-3.07,2.95-3.98,1.41-.97,3.16-1.11,4.79-1.27,0,0,0,.25,0,.25-4.55-.26-7.88-3.11-8.02-7.78-.19-1.57-.7-5.7-.89-7.32h0Z"/>
      <path d="M147.86,323.7c-.06,1.9-2.78,1.95-2.9,0-.02-2.06,2.94-2.12,2.9,0h0ZM147.81,323.7c-.06-1.43-2.38-1.44-2.45,0-.05,1.57,2.44,1.63,2.45,0h0Z"/>
      <path d="M135.64,270.8c-.06,1.9-2.78,1.95-2.9,0-.02-2.06,2.94-2.12,2.9,0h0ZM135.59,270.8c-.06-1.43-2.38-1.44-2.45,0-.05,1.57,2.44,1.63,2.45,0h0Z"/>
      <path d="M111.43,208.17c-.06,1.9-2.78,1.95-2.9,0-.02-2.06,2.94-2.12,2.9,0h0ZM111.38,208.17c-.06-1.43-2.38-1.44-2.45,0-.05,1.57,2.44,1.63,2.45,0h0Z"/>
      <path d="M120.52,217.87c-.06,1.9-2.78,1.95-2.9,0-.02-2.06,2.94-2.12,2.9,0h0ZM120.47,217.87c-.06-1.43-2.38-1.44-2.45,0-.05,1.57,2.44,1.63,2.45,0h0Z"/>
      <path d="M115.77,158.17c-.06,1.9-2.78,1.95-2.9,0-.02-2.06,2.94-2.12,2.9,0h0ZM115.72,158.17c-.06-1.43-2.38-1.44-2.45,0-.05,1.57,2.44,1.63,2.45,0h0Z"/>
      <path d="M103.25,148.84c-.04,1.47-2.14,1.52-2.24,0-.03-1.63,2.3-1.69,2.24,0h0ZM103.2,148.84c-.06-1.01-1.72-1.01-1.79,0-.07,1.14,1.8,1.2,1.79,0h0Z"/>
      <path d="M95.91,109.16c-.05,1.47-2.13,1.52-2.24,0-.03-1.63,2.3-1.69,2.24,0h0ZM95.86,109.16c-.06-1.01-1.72-1.01-1.79,0-.06,1.14,1.79,1.2,1.79,0h0Z"/>
      <path d="M150.15,87.14c-.04,1.47-2.13,1.52-2.24,0-.03-1.63,2.3-1.69,2.24,0h0ZM150.1,87.14c-.06-1.01-1.72-1.01-1.79,0-.06,1.14,1.79,1.2,1.79,0h0Z"/>
      <path d="M80.68,156.14c-.02,1.04-1.51,1.09-1.6,0-.04-1.2,1.68-1.27,1.6,0h0ZM80.63,156.14c-.05-.61-1.07-.59-1.15,0-.08.71,1.17.78,1.15,0h0Z"/>
      <path d="M95.07,96.31c-.02,1.04-1.51,1.09-1.6,0-.04-1.2,1.68-1.27,1.6,0h0ZM95.02,96.31c-.05-.61-1.07-.59-1.15,0-.08.71,1.17.78,1.15,0h0Z"/>
      <path d="M151.22,48.1c-.02,1.04-1.51,1.09-1.6,0-.04-1.2,1.68-1.27,1.6,0h0ZM151.17,48.1c-.05-.61-1.07-.59-1.15,0-.08.71,1.17.78,1.15,0h0Z"/>
      <path d="M96.77,47.65c-.02,1.04-1.51,1.09-1.6,0-.04-1.2,1.68-1.27,1.6,0h0ZM96.72,47.65c-.05-.61-1.07-.59-1.15,0-.08.71,1.17.78,1.15,0h0Z"/>
      <path d="M145.57,19.76c-.05,1.61-2.34,1.65-2.45,0-.03-1.77,2.51-1.83,2.45,0h0ZM145.52,19.76c-.06-1.15-1.93-1.15-2,0-.06,1.28,2,1.34,2,0h0Z"/>
      <path d="M139.58,32.77c-.04,1.11-1.59,1.15-1.69,0-.04-1.26,1.77-1.33,1.69,0h0ZM139.53,32.77c-.06-.67-1.16-.65-1.24,0-.07.77,1.25.84,1.24,0h0Z"/>
      <path d="M130.33,279.21c-.04,1.38-1.99,1.42-2.1,0-.03-1.53,2.16-1.59,2.1,0h0ZM130.28,279.21c-.06-.92-1.57-.91-1.65,0-.07,1.04,1.66,1.1,1.65,0h0Z"/>
      <path d="M115.81,223.78c-.04,1.38-1.99,1.42-2.1,0-.03-1.53,2.16-1.59,2.1,0h0ZM115.76,223.78c-.06-.92-1.57-.91-1.65,0-.07,1.04,1.66,1.1,1.65,0h0Z"/>
      <path d="M140.66,332.96c-.04,1.31-1.89,1.35-2,0-.04-1.47,2.07-1.53,2,0h0ZM140.61,332.96c-.06-.86-1.47-.85-1.55,0-.07.98,1.56,1.04,1.55,0h0Z"/>
      <path d="M183.19,312.62c-.04,1.31-1.89,1.35-2,0-.04-1.47,2.07-1.53,2,0h0ZM183.14,312.62c-.06-.86-1.47-.85-1.55,0-.07.98,1.56,1.04,1.55,0h0Z"/>
      <path d="M141.96,208.12c-3.91-.85-7.82-2.07-11.58-3.54-3.72-1.53-7.49-3.3-10.32-6.24-5.96-8.12-11.71-10.56-20.37-4.06-2.67.75-2.26-1.1-1.05-2.73,1.38-1.12,2.87-2.32,3.35-4.1.92-2.87,2.32-5.72,5.04-7.24,4.03-2.59,8.44-4.81,13.19-5.66,9.28-2.38,19.79-2.02,27.62,4.07-.9-3.53-1.32-8.04-1.87-11.91-.33-3-.68-6.03-.48-9.06.73-3.97,2.52-7.66,3.49-11.57.74-2.65-2.51-6.95,1.14-8.23,3.98-.87,8.14.34,11.77,1.95,1.83.84,3.67,1.74,5.19,3.1,2.88,2.83,3.84,7.28,7.31,9.51,4.9,3.52,8.92,8.72,9.41,14.91,0,0,.93,5.98.93,5.98h-.16c.79-2.49,1.89-4.87,3.38-7.01,1.43-2.2,3.63-3.7,5.69-5.26,6.1-4.58,12.65-10.11,20.79-9.38,4.05,0,7.17,2.9,10.91,3.86,1.26.24,2.56.07,3.79-.3.93-.24,1.95-.66,2.91-.3.36.15.45.61.34.95-.5,1.26-1.6,2.07-2.63,2.88-1.78,3-1.82,6.86-2.52,10.3-1.02,3.46-2.89,6.57-4.81,9.59-1.98,2.98-4.03,5.96-6.62,8.45-2.56,2.51-5.21,4.91-7.89,7.29,0,0-.1-.19-.1-.19,3.71-.79,7.73-1.29,11.38.05,3.36,1.84,6.83,3.4,10.56,4.33,1.14.33,3.33.76,4.31,1.57,5.8,4.06,7.71,11.44,9.46,17.93.56,3.73,4.11,6.93,3.02,10.88-.56,1.87-1.34,4.07-3.04,5.19-1.48.14-1.38-6.34-1.12-7.5-.64-.91-2.12-2.03-3.46-2.54-1.37-.58-2.86-.84-4.31-1.26-2.85-.7-5.81-1.87-8.77-1.48-2.83.92-5.7,2.09-8.75,2.03-3.03.05-6.03-.64-8.85-1.7l.17-.19c3.35,6.89,6.01,14.78,4.42,22.49-.76,3.79-1.43,7.77-3.92,10.87-1.72,2.17-3.43,9.63-6.91,8.66-1.26-.25-1.33-1.41-1.31-2.46.04-4.14-4.23-6.26-5.76-9.77-.88-1.72-1.21-3.71-2.13-5.39-1.48-2.52-4.17-3.95-6.81-5.02-1.81-.7-3.8-1.19-5.17-2.64-2.83-2.7-5.01-5.95-7.08-9.24,0,0,.27,0,.27,0-2.57,4.85-5.23,9.67-8.27,14.26-1.44,2.34-3.49,4.25-5.11,6.46-3.22,4.43-5.73,9.35-7.91,14.37-3.51,7.47-7.64,14.61-11.65,21.81,0,0-.25-.21-.25-.21,2.34-1.98,7.95-6.78,10.19-8.68,5.88-4.62,9.04-11.86,14.74-16.67,3.38-2.84,7.07-5.79,11.53-6.69,2.23-.39,4.51-.33,6.73.08.72.19,1.52.32,2.09,1.02.15.2.14.61-.13.73-.23.12-.4.13-.6.17-1.1.19-2.22.29-3.31.49-1.5.18-2.8.8-3.99,1.7-2.5,1.58-5.23,2.9-7.66,4.53-3.19,3.08-4.91,7.54-8.41,10.38-4.35,2.86-8.94,5.36-12.75,8.95-5.31,4.07-9.61,9.31-12.93,15.11-3.03,5.11-5.52,10.52-7.77,16.02,0,0-.34-.2-.34-.2,4.8-5.94,9.97-11.71,16.56-15.69,1.93-1.62,3.29-3.81,4.94-5.75,3.27-3.93,7.22-7.21,11.12-10.49,3.91-3.31,8.57-5.7,13.51-7.02,4.94-1.34,10.04-1.91,15.12-2.23,2.55-.14,5.1-.2,7.66-.05,4.46.32,8.92,1.86,12.59,4.41.24.23.53.43.62.9.03.26-.17.48-.33.58-1.45.46-2.97-.29-4.37-.34-3.75-.4-7.59.72-11.03,2.06-2.31,1.01-4.37,2.52-6.21,4.25-6.6,5.97-13.3,12.03-21.08,16.42-1.13.6-2.41,1.04-3.67,1.2-4.99.87-10.2.76-15.07,2.13-7,2.73-13.66,7.11-18.28,13.1-4.16,6.35-7.12,13.49-10.5,20.29-4.37,9.19-8.6,18.45-12.87,27.69-.05.12-.19.17-.31.11-.11-.05-.16-.17-.12-.28,1.66-5.49,3.28-10.99,4.84-16.51,1.48-5.52,3.27-11.01,3.95-16.7,1.05-9.77,2.6-25.03-2.79-33.61-1.67-3.28-3.53-6.49-5.72-9.45-2.19-2.99-5.26-5.27-7.03-8.59-3.82-6.42-5.82-13.79-6.34-21.19-.28-3.68-.67-7.37-1.44-10.97-.78-3.58-1.99-7.15-4.28-10.01-4.59-5.5-13.38-7.91-19.82-4.39-.49.13-1.24-.24-1.1-.84.12-.48.4-.75.65-1.05,2.72-2.53,6.04-4.99,9.91-4.94,7.57.04,14.53,3.93,20.81,7.71,9.53,4.3,13.1,10.64,17.96,19.29,1.52,2.56,3.2,5.03,4.47,7.76,1.27,2.73,1.86,5.73,2.13,8.7.89,11.93-1.64,23.81-2.97,35.6-.5,8.61-.87,18.22-1.58,26.79,0,0-.29-.07-.29-.07,2.71-7.08,5.39-14.17,8.44-21.11,4.92-9.76,9.42-21.17,14.33-30.94,1.62-3.43,3.61-6.68,5.61-9.88,3.72-6.59,6.6-13.64,9.35-20.68-.02.07,2.83-13.29,2.83-13.27,0,0,.15.07.15.07-1.93,2.47-3.95,4.89-6.24,7.03-.78.7-1.58,1.4-2.56,1.82-3.86,1.54-7.6,3.52-10.81,6.18-3.44,2.55-4.91,6.68-7.76,9.75-2.46,2.57-3.16-.65-3.64-2.72-.23-1.02-.39-2.05-.65-3.06-.53-2.02-1.86-3.76-2.09-5.88-.9-5.13-.81-10.51.64-15.53,1.12-4.02,2.38-8.01,3.75-11.95,1.85-6.03,7.12-10.57,12.69-13.11h0ZM142.01,208.11c-5.61,2.65-10.81,7.06-12.68,13.14-1.37,3.95-2.62,7.93-3.73,11.95-1.44,5.01-1.52,10.37-.62,15.49.23,2.13,1.56,3.84,2.09,5.87.26,1.02.42,2.05.65,3.06.48,1.89,1.06,5.18,3.44,2.66,1.43-1.51,2.52-3.31,3.62-5.08,3.37-5.38,9.28-8.53,14.98-10.91,3.61-2.04,6.09-5.68,8.72-8.82.05-.07.17-.01.15.07,0,.01-2.81,13.29-2.82,13.3-2.74,7.06-5.61,14.11-9.33,20.72-2.01,3.23-3.97,6.43-5.59,9.88-4.9,9.77-9.38,21.2-14.29,30.95-3.04,6.93-5.71,14.03-8.41,21.11-.05.16-.31.1-.29-.07.7-8.51,1.05-18.17,1.55-26.77,1.01-8.84,2.62-17.74,3.02-26.64.24-5.87.28-12.05-2.2-17.48-2.58-4.96-6.12-10.41-8.99-15.41-3.18-5.08-7.84-8.94-13.29-11.42-6.78-4.01-16.97-9.9-24.83-6.69-1.9,1.03-3.78,2.36-5.34,3.87-.22.26-.48.56-.53.82-.04.28.31.3.52.31,0,0-.11.03-.11.03,6.7-3.64,15.66-1.19,20.44,4.5,2.37,2.96,3.59,6.61,4.38,10.22.78,3.64,1.17,7.34,1.45,11.04.51,7.34,2.5,14.65,6.27,20.98,1.77,3.32,4.82,5.55,7,8.55,2.17,2.95,4.17,6.35,5.75,9.49,3.2,4.94,3.55,11.01,3.83,16.71.12,5.75-.26,11.5-.99,17.2-.69,5.72-2.48,11.22-3.97,16.76-1.57,5.52-3.19,11.03-4.85,16.52l-.43-.17c6.43-13.85,12.69-27.79,19.6-41.41,1.2-2.25,2.3-4.55,3.83-6.64,4.69-6.08,11.39-10.48,18.5-13.26,4.95-1.39,10.11-1.27,15.14-2.14,4.9-.89,8.99-4.73,12.96-7.58,3.99-3.15,7.86-6.46,11.57-9.93,3.66-3.71,8.67-5.6,13.72-6.37,1.28-.24,2.59-.22,3.87-.06,1.15.08,5.61,1.27,3.76-.4-3.58-2.48-8-4.01-12.34-4.31-2.53-.15-5.07-.09-7.61.05-7.55.49-15.3,1.46-22.11,4.93-4.52,2.33-8.26,5.88-12.06,9.21-1.9,1.68-3.68,3.5-5.3,5.44-1.64,1.92-3,4.13-5,5.8-6.62,4.02-11.67,9.64-16.51,15.63-.13.17-.43,0-.34-.2,2.26-5.51,4.75-10.94,7.8-16.07,3.01-5.13,6.65-10,11.31-13.77,0,0,1.71-1.43,1.71-1.43,3.8-3.58,8.45-6.12,12.78-8.97,2.3-1.8,3.77-4.56,5.53-6.87.89-1.2,1.7-2.44,2.85-3.48,1.25-.88,2.56-1.55,3.85-2.3,1.61-.93,3.24-1.8,4.77-2.86.9-.7,2.11-.92,3.2-1.14,1.24-.26,2.57-.28,3.78-.62.09-.05.08-.11.01-.24-.38-.48-1.17-.7-1.86-.86-7.12-1.57-12.82,1.99-17.96,6.53-2.36,1.81-4.03,4.33-5.9,6.61-2.79,3.46-5.28,7.32-8.83,10.05,0,0-3.4,2.89-3.4,2.89,0,0-6.8,5.78-6.8,5.78-.07.06-.18.05-.24-.02,3.69-7.28,8.21-14.44,11.62-21.96,2.18-5.04,4.71-9.98,7.95-14.43,5.5-6.17,9.53-13.38,13.36-20.67.05-.1.21-.11.27,0,2.04,3.25,4.23,6.51,7.02,9.17,1.38,1.45,3.28,1.87,5.08,2.58,3.65,1.33,7.18,3.87,8.04,7.87.59,1.84,1.37,3.6,2.6,5.1,1.76,2.26,4.35,4.33,4.23,7.47-.01.93-.01,1.98,1.1,2.19,3.16.9,4.93-6.52,6.58-8.54,2.56-3.03,3.05-7.02,3.88-10.77,1.59-7.63-1.07-15.49-4.38-22.31-.07-.1.06-.24.17-.19,4.17,1.6,8.81,2.28,13.17,1.06,1.48-.35,2.81-1.03,4.29-1.4,3.05-.41,5.98.77,8.89,1.49,1.44.42,2.93.68,4.34,1.28,1.38.62,2.83,1.43,3.62,2.81-.23,1.5-.2,3.04-.05,4.55.09.75.19,1.51.44,2.21.23,1.03.95.05,1.37-.46,1.69-2.43,2.89-5.66,1.43-8.48-.57-1.41-1.31-2.75-1.91-4.17-.62-1.42-.72-2.97-1.19-4.44-2.1-6.89-4.88-15.81-13.05-17.12-3.72-.93-7.24-2.51-10.58-4.34-3.59-1.31-7.57-.82-11.24-.04-.11.04-.18-.12-.1-.19,2.67-2.37,5.33-4.77,7.88-7.27,2.58-2.48,4.62-5.44,6.59-8.41,1.91-3,3.78-6.1,4.79-9.53.72-3.5.69-7.23,2.59-10.4,1.53-1.1,4.13-3.69,1.42-3.61-1.9.28-3.78,1.19-5.75.72-2.58-.51-4.67-2.27-7.11-3.11-6.29-2.13-13.03.17-18.17,4-2.14,1.46-4.21,3.01-6.28,4.58-2.06,1.56-4.23,3.02-5.66,5.22-1.47,2.12-2.57,4.5-3.36,6.95-.02.08-.15.07-.16-.01,0,0-.92-5.98-.92-5.98-.49-6.15-4.46-11.3-9.35-14.81-.83-.57-1.65-1.21-2.22-2.05-1.82-2.4-3-5.3-5.09-7.47-3.9-3.06-8.89-5.04-13.86-5.29-4.4-.19-5.28,1.17-4.22,5.38.18.97.48,2.01.19,3.01-.98,3.9-2.76,7.6-3.5,11.56-.3,7.05,1.28,14.15,2.2,21.05-7.91-6.06-18.21-6.46-27.58-4.07-4.74.84-9.14,3.05-13.17,5.64-2.71,1.53-4.1,4.34-5.01,7.2-.47,1.79-2,3.02-3.38,4.13-1.01,1.44-1.75,3.34.98,2.6,8.64-6.47,14.42-4.11,20.44,4.09,5.87,5.64,14.2,7.79,21.9,9.82h0Z"/>
      <path d="M141.97,208.09c5.01-2.13,10.93-1.86,15.85.4,2.99,1.29,5.64,3.38,7.97,5.61,0,0-.27.19-.27.19-5.3-10.46-12.88-25.19-17.72-35.67,5.49,10.08,12.81,25.07,18.02,35.52.08.16-.14.33-.27.19-6.36-6.48-14.96-9.49-23.58-6.25h0Z"/>
      <path d="M173.91,228.9c-1.08-3.06-1.38-6.33-1.48-9.55,0,0,.28.02.28.02-1.33,7.44-7.87,12.72-14.15,16.19,5.55-4.07,12.48-8.86,13.87-16.23.02-.17.29-.16.28.02-.03,3.18.37,6.63,1.19,9.56h0Z"/>
      <path d="M208.32,221.53c-5.82-7.29-15.52-10.78-24.64-8.87-.03,0-.04-.04-.01-.05,9.01-2.92,19.33,1.6,24.65,8.92h0Z"/>
      <path d="M174.29,152.4c4.62-14.25,10.41-28.06,15.41-42.18,0,0,.97-2.63.97-2.63,1.12-2.6.72-5.51.53-8.26-.6-3.73-.67-7.5.32-11.18.43-1.4.85-3.88,2.71-3.86,2.23,0,3.98,1.68,5.25,3.33,2.42,2.95,3.42,6.76,3.78,10.49,0,0-.3-.09-.3-.09,2.25-2.5,4.92-5.86,8.61-5.75,3.86.08,7.03,2.6,7.19,6.59.47,4.2-.05,8.95-3.56,11.78,0,0-.15-.37-.15-.37,2.68-.05,5.36.24,7.92,1.06,2.43.92,5.15,2.31,6.51,4.61.65,1.46-.64,2.76-1.73,3.52-3.17,2.3-6.24,5.5-10.4,5.69,0,0,.15-.41.15-.41,2.17,2.04,4.36,4.08,5.92,6.66.4.64.61,1.49.57,2.23.08,3.71-3.56,1.61-5.34.53-2.51-1.51-5.21-2.72-8.15-3.04-5.71-.48-11.94.69-17.09,3.23-7.67,4.43-13.26,11.93-16.65,20.02,0,.03-.06.01-.05-.02,3.29-8.19,8.83-15.77,16.55-20.27,2.62-1.44,5.52-2.23,8.43-2.78,2.89-.56,5.89-.97,8.86-.6,2.98.3,5.79,1.53,8.33,3.05,1.43.76,4.74,3.02,4.61-.12.03-.74-.13-1.36-.5-1.99-1.48-2.49-3.7-4.56-5.8-6.54-.16-.14-.05-.41.15-.41,2.6-.08,4.91-1.6,6.99-3.16,1.05-.79,2.08-1.63,3.15-2.42.95-.69,2.12-1.72,1.58-2.98-3.02-4.36-8.99-5.49-13.99-5.43-.2.01-.29-.24-.15-.37,1.02-.93,1.94-1.99,2.52-3.25,1.22-2.52,1.12-5.44.92-8.18-.13-1.36-.5-2.75-1.36-3.81-1.67-2.07-4.94-2.96-7.45-2.16-2.55,1.07-4.56,3.23-6.33,5.32-.09.12-.29.05-.3-.09-.38-3.66-1.28-7.45-3.69-10.33-1.25-1.61-2.89-3.22-5.01-3.23-.73-.07-1.16.44-1.5,1.04-1.23,2.49-1.52,5.37-1.75,8.12-.14,1.87.35,3.7.47,5.56.19,2.76.57,5.75-.57,8.36,0,0-.98,2.63-.98,2.63-5.08,14.02-10.86,28.11-15.6,42.1h0Z"/>
      <path d="M190.25,133.62c1.6-1.71,3.35-3.27,5.26-4.63,2.83-2.09,6.2-3.3,9.11-5.21,3.04-2.12,2.92-6.15,2.9-9.5.07-2.33-.33-4.64-1.12-6.81-.7-1.84-2.18-5.2-4.14-2.39-1.33,1.92-1.63,4.4-3.2,6.24-1.58,1.7-3.05,3.52-4.5,5.34-1.72,2.62-3.55,5.77-5.35,8.25,2.85-4.87,5.6-9.79,9.49-13.93,1.92-2.05,1.85-6.09,4.61-7.38,2.04-.5,2.88,2.29,3.49,3.72.78,2.23,1.17,4.61,1.08,6.96-.03,2.32.05,4.75-.89,6.97-.88,2.31-3.22,3.45-5.3,4.46-4.26,1.88-8.29,4.71-11.45,7.92h0Z"/>
      <path d="M217.34,124.94c-4.16-1.35-8.58-1.05-12.85-.91,4.09-1.21,9.06-.59,12.85.91h0Z"/>
      <path d="M171.24,149.1c1.04-6.62,2.71-13.1,4.09-19.64,1.25-6.57,2.37-13.17,3.51-19.76l.85-4.95c1.03-4.86,1.38-10.02.11-14.87-.78-3.28-2.86-6.1-6.03-7.4-1.45-.67-2.95-1.67-4.56-1.77-.37.03-.36.46-.3.86.18,1.22.75,2.36,1.46,3.35.11.16-.11.31-.23.18-1.47-1.62-2.96-3.67-5.08-4.4-.71-.1-1.38.44-1.88.89-1.93,2.33-1.44,5.9-2.06,8.74-.46,3.05.44,6.13,2.52,8.41,2.03,2.3,3.99,4.73,5.36,7.52,2.11,4.16,2.79,8.82,3.4,13.39.27,2.3,1.1,4.5,1.24,6.82-.02,2.34-.72,4.59-1.21,6.84-.74,3-1.41,5.95-2.29,8.96-.06.21-.4.19-.42-.04-1.61-8.27-3.56-16.59-4.33-24.98-.94-4.77-3.09-10.91-8.47-11.91-3.33-.51-11.68-.17-12.09,4.17-1.41,12.64,5.66,10.85,13.99,15.4,2.44,2.07,3.88,5.04,5.56,7.71,1.06,1.83,2.05,3.71,2.81,5.69.72,1.96,1.43,4.12,1.17,6.21.13-4.25-2.03-8.22-4.1-11.83-1.68-2.62-3.15-5.6-5.55-7.61-4.2-2.79-11.18-2.61-13.45-7.75-1.15-2.97-1.41-6.46-.34-9.47.65-.96,1.64-1.49,2.61-1.93,2.98-1.27,6.28-1.46,9.46-1.07,3.36.46,5.64,3.31,6.99,6.2.89,1.94,1.53,4,1.89,6.1.33,4.25,1.08,8.36,1.85,12.53.77,4.15,1.59,8.3,2.44,12.44,0,0-.42-.04-.42-.04,1.28-5.1,3.04-10.35,3.5-15.62-.14-2.27-.97-4.49-1.23-6.76-.6-4.54-1.26-9.15-3.34-13.28-1.34-2.75-3.26-5.15-5.29-7.46-2.12-2.32-3.06-5.57-2.58-8.67.65-2.96.13-6.47,2.17-8.92.57-.53,1.36-1.09,2.16-.97,2.26.76,3.71,2.83,5.25,4.52,0,0-.23.18-.23.18-.63-.82-2.49-4.28-.98-4.66,1.72.07,3.2,1.11,4.73,1.81,6.75,2.8,7.29,11.25,6.8,17.58-1.58,9.86-3.41,19.84-5.25,29.65-1.53,6.93-2.91,12.61-4.2,19.62h0Z"/>
      <path d="M170.27,84.99c4.66,3.64,8.43,9.37,7.96,15.49,0,.03-.05.03-.05,0-.44-5.97-3.5-11.69-7.91-15.49h0Z"/>
      <path d="M144.9,108.25c9.24-3.68,15.95,4.32,18.72,12.29.94,2.61,1.58,5.41,2.09,8.12-.87-2.46-1.51-5.4-2.56-7.94-2.9-8.11-8.88-15.65-18.26-12.46h0Z"/>
      <path d="M108.63,179.26c-4.92-.76-9.73-3.57-12.08-8.07-1.52-2.99-2.02-6.37-2.85-9.59-1.24-5.61-2.08-9.42-7.99-11.55-4.65-1.85-9.14-4.5-12.12-8.64-1.98-2.67-3.67-5.59-5.96-8-2.25-2.23-5.69-3.19-8.22-5.08-1.07-1.24,1.92-.5,2.42-.42,4.09.76,8.29,1.57,12.03,3.5,3.01,1.5,5.75,3.54,8.05,5.99,3.49,3.55,6.11,8.01,9.94,11.15,1.36.97,2.99,1.25,4.6,1.64,3.25.85,6.35,2.75,8.2,5.62,2.1,2.6,1.65,6.73,4.57,8.65,3.51,2.32,8.46.99,11.65,4.02,1.94,1.38,4.33,2.96,5.57,5.02-1.41-1.95-3.66-3.54-5.68-4.87-.69-.46-1.35-1-2.09-1.34-4.67-1.65-10.95-.34-12.35-6.77-.44-1.59-1.1-3.12-2.02-4.48-2.3-3.62-6.41-5.14-10.43-5.98-2.52-.69-4.29-2.8-5.87-4.7-8.24-10.48-12.61-14.85-26.26-17.06-.7-.13-1.4-.3-2.11-.29-.09-.02-.17.09-.09-.05,2.45,1.92,6.01,2.9,8.31,5.22,2.31,2.45,3.99,5.37,5.96,8.06,2.95,4.13,7.33,6.73,11.97,8.6,5.95,2.17,6.85,6.09,8.06,11.74.81,3.21,1.29,6.59,2.79,9.57,2.27,4.55,7.27,7.25,11.97,8.13h0Z"/>
      <path d="M144.88,176.75c-2.52-5.87-6.53-11.05-11.14-15.43-4.58-4.5-10.46-7.38-14.98-11.95-2.29-2.25-4.26-4.84-5.68-7.73-1.44-2.87-1.98-6.09-3.44-8.94-1.41-2.86-3.04-5.61-4.92-8.18-1.87-2.45-3.95-5.18-6.9-6.28-.08-.02-.14-.09-.14-.17.06-1.12,1.49-.97,2.24-.79,10.41,3.57,21.39,13.02,26.9,22.51,3.03,4.65,6.79,11.67,10.48,15.75,3.54,5.3,6.02,11.2,9.45,16.49-3.65-5.13-6.14-11.12-9.7-16.29-3.71-4.01-7.58-11.09-10.65-15.69-3.14-5.49-7.51-10.14-12.41-14.1-4.31-3.33-8.93-6.64-14.16-8.28-.55-.14-1.63-.3-1.75.36,0,0-.14-.17-.14-.17,3.11,1.17,5.16,3.91,7.08,6.45,1.88,2.6,3.51,5.37,4.92,8.26,1.45,2.87,1.97,6.09,3.4,8.96,1.39,2.87,3.33,5.44,5.59,7.68,4.49,4.58,10.36,7.5,14.91,12.02,4.53,4.39,8.78,9.77,11.03,15.54h0Z"/>
      <path d="M146.72,153.31c-4.25-10.46-8.49-20.93-12.38-31.54-.7-2-1.43-3.99-1.97-6.04-.75-3.46-.77-7.03-.69-10.55.22-5.63.63-11.32,2.09-16.79,1.86-5.34,4.95-10.16,6.66-15.56,1.95-5.35,1.61-11.16,3.29-16.58,2.28-8.14,5.27-16.22,10-23.27,1.54-2.16,3.87-4.97,6.22-5.45.12-2.79-3.03-.51-4.07.36-4.33,3.78-8.38,7.97-11.99,12.44-5.78,6.65-6.96,15.91-6.56,24.4-.03.89.2,2.02.08,2.9-.6,3.84-2.13,7.44-3.89,10.88-1.03,1.64-1.55,3.48-1.99,5.35-.85,3.74-1.36,7.57-1.66,11.4-.27,3.83-.39,7.7.15,11.49.03.16-.23.24-.28.07-3.65-13.28-5.58-27.82-1.3-41.18.73-2.21,1.8-4.3,2.78-6.37.78-2.13,1.21-4.44,1.34-6.73.37-9.33-4.54-17.92-9.22-25.66-1.67-2.6-6.84-10.07-9.99-6.15-1.11,1.95-1.45,4.37-2.08,6.53-1.07,4.49-1.8,9.08-1.8,13.7-.17,6.84.31,14.16,4.73,19.72,3.4,4.56,8.09,8.92,8.34,15,.22,2.2.76,8.1.98,10.38.49,4.59.82,9.23,2.05,13.69,2.41,8.93,5.12,17.8,8.14,26.55,1.54,4.36,3.13,8.72,5.18,12.85.06.11.01.25-.1.3-.09.04-.2.02-.26-.05-3.02-3.2-5.95-6.48-8.79-9.84-2.8-3.41-5.69-6.77-7.74-10.71-2.01-5.14-5.01-9.78-7.08-14.9-1.36-5.35-3.21-10.52-4.27-15.96-.39-1.89-.24-4.67-.31-6.61-.09-4.37-.41-8.81-1.96-12.89-.75-2.05-2-3.83-3.34-5.57-1.99-2.61-4.07-5.17-6.49-7.38-1.13-.89-2.49-2.37-4-2.06-1.5.76-1.16,2.75-.58,4.08.13.26-.26.45-.41.24-5.6-6.93-13.75-11.9-22.57-13.47-1-.25-2.25.16-2.04,1.4.12,1.05.65,2.08,1.2,3.03,1.17,1.96,1.91,4.12,2.55,6.29,1.25,4.35,1.97,8.81,2.89,13.2,1.19,6.65,5.06,12.76,11.07,16,3.91,2.21,8.3,3.5,12.18,5.81,1.95,1.13,3.92,2.39,5.23,4.27,1.15,1.96,1.84,4.1,3.26,5.9,1.33,1.82,3.01,3.35,4.81,4.71,3,4.48,5.35,9.32,7.78,14.12,4.11,6.92,8.76,13.56,14.01,19.67,3.59,3.99,6.97,8.28,9.1,13.25,1.07,2.47,1.93,5.09,2.48,7.69-.7-2.57-1.42-5.22-2.54-7.67-3.14-7.55-9.45-12.99-14.19-19.48-3.22-4.31-6.28-8.74-9.01-13.38-2.44-4.79-4.79-9.62-7.81-14.09-1.67-1.2-3.52-2.9-4.82-4.69-1.42-1.77-2.16-3.98-3.28-5.89-5.87-7.08-16.58-7.25-22.73-14.09-6.59-6.73-6.17-16.76-8.82-25.22-.64-2.15-1.38-4.28-2.53-6.19-.56-.98-1.12-2-1.27-3.2-.18-1.51,1.21-2.15,2.52-1.83,8.93,1.57,17.16,6.55,22.88,13.59l-.41.24c-.68-1.49-.98-3.87.82-4.73.65-.26,1.28-.04,1.79.19,2.03,1.02,3.55,2.68,5.08,4.29,8.86,9.57,9.6,14.44,9.63,27.15.09,5.5,2.31,10.67,3.65,15.96,1.09,5.44,4.41,9.98,6.58,15.01,1.91,5.18,5.51,9.42,8.99,13.63,2.83,3.35,5.76,6.63,8.77,9.83,0,0-.36.26-.36.26-2.07-4.17-3.66-8.54-5.2-12.91-3.02-8.77-5.73-17.63-8.13-26.59-1.72-6.49-1.98-14-2.7-20.68-.23-2-.32-4.93-.95-6.82-1.42-4.45-4.95-7.73-7.64-11.43-2.88-3.71-4.32-8.35-4.63-13-.64-8.12.21-16.31,2.56-24.11.5-2.18,1.57-5.36,4.47-4.41,5.67,1.74,11.44,14.24,13.84,19.58,2.81,6.35,3.89,13.76,1.41,20.41-1,2.11-2.05,4.15-2.78,6.35-2.95,8.79-2.82,18.33-1.6,27.43.64,4.58,1.57,9.13,2.87,13.56l-.28.07c-.54-3.84-.42-7.72-.15-11.56.65-5.67.93-11.75,3.7-16.86,1.73-3.38,3.27-7.01,3.86-10.78.12-.83-.1-2.02-.08-2.87,0,0-.06-2.89-.06-2.89-.27-3.84.63-7.73,1.4-11.45.84-3.81,2.95-7.18,5.3-10.21,2.38-3.04,5.08-5.8,7.8-8.52,2.09-1.98,4.05-4.25,6.69-5.49.44-.18,1-.32,1.48-.02.45.35.49.93.46,1.41-1.29.52-2.56,1.25-3.57,2.31-2.99,3-5.02,6.8-6.87,10.57-2.41,5.1-4.35,10.42-5.82,15.87-1.69,5.42-1.36,11.23-3.31,16.58-1.71,5.4-4.81,10.23-6.67,15.55-.78,2.71-1.16,5.52-1.5,8.31-.61,6.28-1.14,12.73.08,18.97,3.94,12.76,9.55,25.27,14.26,37.6h0Z"/>
      <path d="M218.17,133.64c-2.63-7.13-11.56-6.3-17.54-4.64-.93.24-1.89.57-2.83.73.85-.41,1.82-.72,2.73-1.07,5.91-2.16,15.56-2.16,17.64,4.98h0Z"/>
      <path d="M207.14,120.39c2.43-1.24,5.21-3.09,7.93-2.91-.99.36-2.99,1.04-3.99,1.36-1.3.41-2.77,1.18-3.94,1.55h0Z"/>
      <path d="M216.47,99.06c-.03,5.94-3.62,11.46-8.63,14.49-.27.19-.56-.25-.27-.42,2.19-1.5,4.86-2.65,7.52-2.67-1.29.25-2.6.63-3.81,1.16-1.21.52-2.35,1.18-3.43,1.91l-.27-.42c1.2-.79,2.4-1.59,3.44-2.6,3.22-2.9,5.16-7.32,5.45-11.47h0Z"/>
      <path d="M212.79,100.49c-.64,1.68-1.34,3.35-2.1,4.99-.77,1.61-1.53,3.46-3,4.52,1.85-2.95,3.51-6.56,5.09-9.51h0Z"/>
      <path d="M203.12,98.13c-.2,2.37-.09,5.02-1.27,7.12.18-2.35.87-4.93,1.27-7.12h0Z"/>
      <path d="M193.91,84.44c.5,3.27.89,6.55,1.15,9.85.23,3.27.54,6.76-.42,9.92.51-6.52-.23-13.39-.73-19.77h0Z"/>
      <path d="M195.8,86.47c3.57,6.12,6.4,13.4,5.19,20.59,0,.03-.05.02-.05,0,.29-7.16-1.85-14.44-5.14-20.59h0Z"/>
      <path d="M173.88,96.3c1.85,7,3.6,14.53,2.25,21.75.3-7.26-.63-14.81-2.25-21.75h0Z"/>
      <path d="M164.94,93.13c5.2,6.9,9.8,15,10.21,23.81,0,.03-.05.03-.05,0-1.29-8.62-5.24-16.86-10.16-23.81h0Z"/>
      <path d="M165.34,85.98c2.19,1.66,4.61,3.93,4.91,6.79-1.28-2.47-2.92-4.99-4.91-6.79h0Z"/>
      <path d="M115.39,19.41c8.01,13.24,10.57,29.25,10.12,44.53-.24-1.73-.14-3.9-.26-5.77-.79-13.31-3.11-27.23-9.86-38.76h0Z"/>
      <path d="M115.4,29.33c-.94,12.17-.27,24.98,5.06,36.15.02.03-.03.05-.04.02-3.23-5.32-4.62-11.54-5.22-17.68-.54-6.09-.62-12.58.21-18.5h0Z"/>
      <path d="M129.08,42.4c1.72,6.85.49,14.25-1.78,20.84-.01-.72.36-1.77.5-2.6,1.24-5.92,2.56-12.36,1.28-18.24h0Z"/>
      <path d="M112.42,47.4c1.3,5.41,2.82,10.86,5.26,15.85-1.84-2.12-2.67-4.99-3.44-7.66-.7-2.65-1.51-5.61-1.82-8.19h0Z"/>
      <path d="M116.47,25.39c.54,3.19,1.81,6.76,1.18,9.88-.43-3.2-.87-6.81-1.18-9.88h0Z"/>
      <path d="M93.75,57.65c5.23,7.81,10.97,15.7,13.56,24.85,0,.03-.04.04-.05.01-3.41-8.78-8.59-17.05-13.51-24.87h0Z"/>
      <path d="M68.9,44.74c3.26,2.79,6.28,6.05,8.12,9.97,1.63,3.86,3.44,8.06,5.37,11.74,2.53,5.22,5.81,9.85,10.35,13.51,3.66,3.45,9.61,7.8,12.29,12.07,1.55,2.36,3.5,4.79,4.97,7.03-2.85-3.21-4.96-7.06-7.96-10.13-3.6-3.45-9.24-8.04-12.77-11.57-5.08-5.16-7.84-12.09-10.79-18.59,0,0-1.64-3.98-1.64-3.98-1.72-3.93-4.96-7.26-7.94-10.05h0Z"/>
      <path d="M82.79,54.17c5.82,5.98,11.24,12.38,15.76,19.41,4.37,7.12,8.09,14.61,11.49,22.24.01.03-.03.05-.05.02-3.77-7.27-7.63-14.98-11.78-22.04-4.36-7.05-9.96-13.61-15.42-19.63h0Z"/>
      <path d="M79.34,71.89c4.54,6.63,10.65,12.27,17.95,15.71.03.01.01.06-.02.05-7.69-2.55-13.8-9.19-17.94-15.76h0Z"/>
      <path d="M103.67,120.42c5.31,4.17,10.71,8.61,14.29,14.43,2.32,3.88,3.99,8.15,6.64,11.81,4.13,5.36,9.29,9.9,13.3,15.38.02.02-.02.06-.04.03-4.31-5.28-9.58-9.78-13.66-15.13-2.62-3.73-4.23-8.01-6.52-11.93-3.43-5.83-9.02-10.37-14-14.59h0Z"/>
      <path d="M108.2,125.5c2.01,2.93,7.45,9.36,8.87,12.48.69,1.57,1.28,3.19,2.28,4.55-1.33-1.1-1.94-2.87-2.73-4.33-.74-1.52-1.64-2.91-2.64-4.3.04-.02-5.98-8.45-5.78-8.4h0Z"/>
      <path d="M115.74,175.82c-4.07-1.79-7.75-4.49-10.65-7.88-2.81-3.46-4.73-7.52-7.54-10.98-1.35-1.75-2.83-3.41-4.51-4.82-1.7-1.4-3.73-2.44-5.36-3.95-3.3-2.99-6.47-6.15-9.1-9.75-.02-.03.02-.05.04-.03,2.85,3.39,6.01,6.54,9.38,9.4,1.65,1.53,3.63,2.52,5.35,3.95,1.71,1.47,3.17,3.17,4.51,4.95,2.77,3.49,4.67,7.59,7.41,11.06,2.76,3.43,6.66,6.16,10.46,8.04h0Z"/>
      <path d="M111.59,177.64c-5.74-2.91-12.11-6.69-14.44-13.04,0-.03.03-.05.05-.02,3.1,5.85,8.88,9.96,14.4,13.06h0Z"/>
      <path d="M121.38,174.37c-6.33-2.42-12.82-5.85-16.45-11.83-1.52-2.27-2.27-5.02-3.94-7.16-.83-1.07-2.01-1.86-3.13-2.61,1.25.51,2.45,1.35,3.39,2.38,2.55,3.23,3.63,7.39,6.46,10.44,3.65,4.04,8.89,6.67,13.67,8.78h0Z"/>
      <path d="M210.15,276.88c-14.36-4.8-27,.43-39.44,7.48-6.06,3.35-11.99,6.93-17.82,10.66-5.84,3.64-11.73,7.73-17.08,11.82,5.24-4.55,11.04-8.4,16.81-12.24,8.76-5.61,17.77-10.87,27.2-15.27,9.25-4.5,20.7-6.06,30.33-2.46h0Z"/>
      <path d="M183.71,280.55c-4.53,2.47-9.12,4.83-13.77,7.07-4.66,2.19-9.37,4.54-14.47,5.44-.03,0-.04-.04,0-.05,9.78-3.08,19.14-8.15,28.25-12.47h0Z"/>
      <path d="M184.66,273.86c-8.93,3.54-17.88,7.75-25.07,14.25-1.72,1.9-3.6,3.94-5.43,5.83-.02.02-.06,0-.04-.03,1.68-2.07,3.4-4.11,5.15-6.13,7.12-6.55,16.52-10.73,25.39-13.92h0Z"/>
      <path d="M169.58,293.07c-4.53.56-9.08,1.35-13.4,2.85-4.23,1.75-8.25,4.04-12.68,5.27-.03,0-.05-.04-.02-.05,4.27-1.75,8.24-3.99,12.57-5.6,4.33-1.36,9.15-2.22,13.53-2.47h0Z"/>
      <path d="M82.37,229.36c10.84,2.09,16.88,12.58,21.91,21.42,1.74,3.04,3.67,6.01,5.04,9.28,1.43,3.24,2.27,6.68,3.28,10.04,1.43,5.08,2.89,10.15,4.02,15.3,1.03,5.17,1,10.57,1.38,15.79-.79-6.95-.87-14.06-3.08-20.8-1.92-6.73-3.42-13.67-5.96-20.18-1.33-3.24-3.22-6.21-4.95-9.27-4.92-8.91-11.02-19.34-21.62-21.58h0Z"/>
      <path d="M184.7,173.28c-.25,7.72-1.86,15.49-5.3,22.44-1.18,2.31-2.7,4.41-4.16,6.53-.03.05-.1.06-.15.03.7-3.48,1.66-7.1,2.99-10.45.49-1.32,2.97-6.76.44-6.84-.36.09-.64.47-.85.84-1.36,2.83-1.42,6.07-2.17,9.1-1.3,4.31-3.08,8.44-4.79,12.6-.04.1-.16.15-.26.11-.08-.03-.12-.11-.12-.2.39-6.38.76-12.76.87-19.15.07-6.38-1.25-12.69-2.56-18.91-2.74-11.27-7.31-27.15-19.85-30.6,16.44,3.27,22.68,35.2,22.86,49.51-.12,6.4-.51,12.79-.92,19.17l-.38-.09c1.72-4.13,3.51-8.25,4.82-12.53.62-2.61.83-5.32,1.7-7.9.34-.84.6-1.89,1.58-2.24,3.1,0,.45,5.73-.12,7.23-1.4,3.29-2.15,6.84-3.07,10.29,0,0-.19-.09-.19-.09,6.44-8.15,9.15-18.77,9.63-28.86h0Z"/>
      <path d="M165.65,211.59c-.44-3.13-1.26-6.22-2.42-9.16-.46-1.74-4.59-7.78-1.94-8.7,4.62.69,5.29,14.27,5.62,18.18,0,0-.32-.02-.32-.02.35-2.62.25-5.3.1-7.96-.28-3.97-.73-7.97-1.7-11.83-.25-.83-.43-1.73-.99-2.4-1.29-1.26-2.08-2.92-2.8-4.53-.75-1.87-1.57-3.86-1.33-5.93.06-.4.27-.92.78-.94,1.16.16,1.78,1.14,2.55,1.85,1.52,1.39,2.36,3.43,2.56,5.44.18,1.32.08,2.66.48,3.94.98,2.48,1.37,5.2,1.64,7.84.25,2.66.42,5.39.38,8.03-.38-5.26-.44-10.76-2.37-15.76-.67-2.53-.24-5.41-1.78-7.66-.75-1-1.73-2.02-2.7-2.82-.24-.19-.54-.35-.73-.35-.6.3-.32,1.81-.24,2.43.69,3,1.95,6.08,4.07,8.35,1.99,4.45,2.08,9.54,2.54,14.34.14,2.67.22,5.36-.15,8.03-.01.09-.09.15-.18.14-.08-.01-.14-.08-.14-.16-.47-5.6-.59-11.7-3.4-16.71-.49-.84-2.19-2.08-2.53-.55-.16,2.79,1.85,5.15,2.7,7.72,1.09,2.91,2.08,6.24,2.3,9.2h0Z"/>
      <path d="M178.91,196.42c2.72-2.74,5.58-5.48,7.63-8.77.97-1.61,1.82-3.71,3.69-4.43.51-.15,1.05.14,1.36.53.99,1.22.51,2.98-.2,4.21-.48.86-1.17,1.6-1.9,2.24-2.04,2.07-3.87,4.36-5.73,6.59-2.45,3.01-4.89,6.06-7.13,9.22l-.23-.21c2.67-2.21,5.31-4.49,7.65-7.03,1.03-1.33,2.66-2.67,4.57-2.37,4.22,1.49-4.1,6.08-5.56,6.94-4.61,2.34-7.11,7.5-10.11,11.56,0,0-.33-.35-.33-.35,2.96-1.71,6.02-3.25,9.27-4.34.85-.24,1.57-.52,2.32-.95,8.13-4.6,15.83-10.03,23.69-15.03-7.65,5.33-15.42,10.68-23.48,15.42-.73.43-1.59.78-2.38,1-3.19,1.11-6.25,2.62-9.17,4.32-.21.13-.48-.14-.33-.35,2.55-3.49,4.69-7.49,8.06-10.28,1.12-.95,11.8-6.17,7.94-7.56-1.71-.28-3.19.95-4.22,2.23-2.38,2.56-5.03,4.82-7.72,7.03-.07.06-.17.05-.22-.02,1.94-3.29,4.8-6.32,7.18-9.4,1.88-2.24,3.72-4.51,5.79-6.58.74-.64,1.4-1.33,1.87-2.18.48-.82.81-1.77.74-2.72-.2-1.76-1.59-2.44-2.87-1.03-1.03,1.03-1.74,2.32-2.44,3.59-2.08,3.23-5.03,6.23-7.74,8.71h0Z"/>
      <path d="M170.55,207.45c-.1,2.2.32,4.83-.65,6.77-.06-1.15.04-2.26.22-3.39,0,0,.38-3.38.38-3.38,0-.03.05-.03.05,0h0Z"/>
      <path d="M164.81,216.07c-11.48-1.68-18.41,8.18-24.29,16.41-6.19,8.47-9,18.63-10.98,28.78,0,0-.42-.14-.42-.14,2.58-4.95,5.06-10.02,7.72-14.9-2.32,5.06-4.9,10.07-7.33,15.1-.05.11-.19.16-.3.1-.09-.04-.14-.15-.12-.24.46-2.56,1.03-5.1,1.66-7.62,2.22-10.25,7.47-19.53,14.23-27.46,1.67-1.98,3.3-4.04,5.33-5.69,3.89-3.31,9.57-5.36,14.49-4.34h0Z"/>
      <path d="M144.96,232.49c3.47-8.2,11.36-15.4,20.71-14.75.03,0,.03.05,0,.05-9.36.36-16.85,6.6-20.71,14.7h0Z"/>
      <path d="M148.42,236.11c2.27-3.14,4.21-6.63,6.92-9.38-1.85,3.34-4.6,6.52-6.92,9.38h0Z"/>
      <path d="M136.41,223.77c4.97-6.45,12.29-12.45,20.85-12.19,2.78.16,5.66,1.1,7.58,3.16.02.02-.02.06-.04.03-4.31-3.65-10.6-3.19-15.55-1.19-5.08,2.11-9.43,6.13-12.84,10.18h0Z"/>
      <path d="M200.76,225.85c-5.12-6.38-12.87-10.97-21.21-10.69-.03,0-.04-.05,0-.05,8.38-1.29,16.56,4.35,21.21,10.74h0Z"/>
      <path d="M207.42,250.11c.58-4.78-.03-9.81-2.46-14,3.38,3.58,3.28,9.59,2.46,14h0Z"/>
      <path d="M200.47,242.29c2.54,6.68,2.46,14.08,1.9,21.11,0,0-.25-.07-.25-.07,1.71-4.34,2.35-9.11,2.05-13.76-.79-14.7-12.45-25.42-24.61-31.8,12.73,5.88,24.33,17.02,24.98,31.78.26,4.71-.41,9.5-2.18,13.89-.03.07-.1.1-.17.07-.06-.02-.09-.08-.08-.14.68-6.98.66-14.53-1.64-21.09h0Z"/>
      <path d="M176.26,218.41c2.54,2.01,5.21,4.59,5.93,7.83-1.66-2.79-3.6-5.71-5.93-7.83h0Z"/>
      <path d="M183.66,211.07c5.93-3.17,12.3-5.65,18.95-6.78,6.68-.85,13.54-.91,20.15.46,10.13,1.97,17.93,10.3,22.01,19.44.72,1.58.49,3.37.3,5.04-.28,1.63-.56,3.48-1.62,4.77.89-1.41,1.22-3.14,1.4-4.8.14-1.64.36-3.36-.37-4.9-1.32-3.07-3.25-5.86-5.38-8.43-4.2-5.23-9.76-9.4-16.43-10.74-6.53-1.4-13.41-1.4-20.02-.6-6.62.99-13.16,3.64-18.99,6.54h0Z"/>
      <path d="M241.2,220.46c-3.1-3.95-7.11-7.2-11.87-8.9-7.03-2.58-14.64-3.62-22.08-4.17-7.5-.17-14.98,1.52-22.02,4.01,0,0-.14-.48-.14-.48,8.06-1.37,16.62-1.51,24.43,1.01-7.9-2.11-16.32-1.95-24.34-.52-.28.06-.42-.38-.13-.48,7.11-2.54,14.64-4.13,22.21-3.91,7.49.61,15.07,1.69,22.14,4.36,4.68,1.74,8.99,5.15,11.8,9.08h0Z"/>
      <path d="M183.66,211.07c8.54-5.65,18.94-11.63,29.52-10.69.03,0,.03.05,0,.05-10.68.01-20.78,5.22-29.52,10.64h0Z"/>
      <path d="M189.22,183.85c1.5-2.12,3.04-4.22,4.61-6.29,1.56-2,3.2-4.43,5.23-5.77-1.68,1.97-3.22,4.06-4.92,6.02-.04-.03-4.91,6.25-4.92,6.04h0Z"/>
      <path d="M191.48,183.75c3.04-3.23,6.13-7.5,10.32-9.15-3.72,2.61-7.14,6.1-10.32,9.15h0Z"/>
      <path d="M192.45,171.76c1.39-2.06,2.83-4.07,4.35-6.03,1.53-1.91,3.09-4.13,5.34-5.18-.94.79-1.79,1.7-2.59,2.65-2.41,2.61-4.94,5.95-7.1,8.56h0Z"/>
      <path d="M206.01,173.2c1.75-2.02,3.6-3.97,5.67-5.67,2.04-1.79,4.63-2.7,7.02-3.85,4.97-2.05,9.25-5.28,13.22-8.85,0,0,.26.35.26.35-.97.55-1.92,1.13-2.91,1.67-3.04,1.57-6.53,1.19-9.74,2.09-4.26,1.03-8.34,3.39-11.82,5.77,3.87-3.14,8.43-5.57,13.33-6.61,1.62-.35,3.33-.32,4.93-.67,2.19-.37,4.07-1.52,5.97-2.6.21-.15.47.18.26.35-4.03,3.53-8.4,6.76-13.4,8.76-2.42,1.13-4.99,1.99-7.03,3.74-2.09,1.6-4.02,3.79-5.77,5.55h0Z"/>
      <path d="M175.15,164.59c.06,7.63.53,15.56-1.49,22.96.99-7.55,1.34-15.49,1.49-22.96h0Z"/>
      <path d="M156.35,158.9c3.09,4.79,6.3,10.04,7.78,15.45-2.48-5.07-4.97-10.72-7.78-15.45h0Z"/>
      <path d="M150.65,169.04c.96,4.07,2.24,8.1,3.19,12.14-1.9-3.54-2.51-8.33-3.19-12.14h0Z"/>
      <path d="M97.86,194.15c7.83-8.64,21.15-11.15,31.48-5.77,0,.01-.02.02-.03.01l-2.03-.66c-10.43-3.71-21.66-1.38-29.42,6.42h0Z"/>
      <path d="M101.75,188.19c8.5-5.45,19.9-7.08,29.11-2.48.03.01,0,.06-.02.05-9.45-3.72-20.52-2.71-29.09,2.44h0Z"/>
      <path d="M120.72,194.22c3.44,1.73,7.13,2.91,10.77,4.08-3.81-.11-7.66-2.26-10.77-4.08h0Z"/>
      <path d="M131.47,179.21c8.49,1.27,14.73,8.07,19.87,14.43,5.27,6.5,10.02,13.41,14.35,20.57.02.03-.03.05-.04.03-4.74-6.88-9.5-13.75-14.62-20.35-5-6.44-11.32-13.19-19.55-14.68h0Z"/>
      <path d="M134.5,187.51c10.98,2.14,19.13,10.98,25.09,19.93.02.02-.02.05-.04.03-6.68-8.39-14.17-17.56-25.04-19.95h0Z"/>
      <path d="M141.99,198.98c5.36,2.12,11.25,3.95,15.57,7.87-4.89-3.04-10.42-5.6-15.57-7.87h0Z"/>
      <path d="M100.65,261.21c3.9,7.54,7.87,15.1,10.85,23.08,1.59,4.68,3.29,9.86,4.66,14.58,0,.03-.04.05-.05.02-2.51-6.32-4.34-12.89-6.87-19.18-2.56-6.24-5.78-12.52-8.59-18.49h0Z"/>
      <path d="M119.03,267.24c.48,7.93,1.45,16.11-.03,23.95.43-7.91.29-16.17.03-23.95h0Z"/>
      <path d="M110.1,255.84c2.48,7.48,5.71,14.97,6.55,22.83-1.83-7.5-4.36-15.56-6.55-22.83h0Z"/>
      <path d="M112.41,254.83c-3.36-7.06-7.67-13.68-13.14-19.28-.02-.02,0-.06.03-.04,6.1,4.9,10.12,12.38,13.11,19.31h0Z"/>
      <path d="M105.22,260.48c-4.1-6.31-8.42-12.7-14.07-17.69,3.3,1.88,5.7,5.1,7.93,8.13,2.16,3.05,4.47,6.39,6.14,9.56h0Z"/>
      <path d="M96.75,258.82c3.66,8.88,7.12,17.91,11.65,26.39.02.02-.02.05-.04.03-2.86-3.9-4.61-8.48-6.46-12.92-1.75-4.43-3.71-9.11-5.15-13.5h0Z"/>
      <path d="M107.73,268.57c2.58,6.88,5.86,13.91,7.35,20.99-1.15-3.08-2.7-7.4-3.7-10.48.05-.01-3.83-10.61-3.64-10.51h0Z"/>
      <path d="M67.17,232.06c2.59-2.26,6.39-3.51,9.79-2.96-3.35.51-7.1.92-9.79,2.96h0Z"/>
      <path d="M189.22,196.83c3.64-2.18,8.87-5.53,12.54-7.55-1.59,1.64-4.01,2.89-6.08,4.08-2.11,1.13-4.4,2.55-6.46,3.47h0Z"/>
      <path d="M201.88,113.84c-4.03,5.61-9.31,13.79-13.72,18.97,3.5-5.7,9.71-13.67,13.72-18.97h0Z"/>
      <path d="M195.06,107.18c-1.56,2.69-2.77,5.7-4.8,8.04,1.12-2.85,3.16-5.63,4.8-8.04h0Z"/>
      <path d="M191.52,116.17c-3.75,8.51-6.99,17.64-11.53,25.61,3.1-7.31,8.16-18.49,11.53-25.61h0Z"/>
      <path d="M232.65,235.55c-2.2,1.93-4.69,3.9-6.11,6.54-.46.91-.21,1.96-.02,2.92.55,1.95.47,4.18-1.03,5.7-2.08,2.22-4.81,3.62-7.1,5.59-1.48,1.23-3.08,2.87-2.72,4.96.45,4.99,2.82,9.81,2.45,14.85-1.61,5.97-7.29,10.2-13.28,11-3.84.81-7.86,2.18-10.61,5.08-1.5,1.48-1.42,3.59-1.12,5.53.12.99.28,2,.25,3.03-.13,3.15-2.9,5.39-4.93,7.49,0,0-.25-.31-.25-.31,2.62-2.08,6-4.14,7.23-7.38.34-1.52-.43-2.86-.66-4.39-.49-3.74,4.46-3.95,7.02-4.74,3.87-.95,7.97-1.72,11.2-4.19,7.51-5.65,9.23-12.56,5.55-21.15-.48-1.43-1.31-2.93-.97-4.5,1.07-2.4,3.73-3.53,5.53-5.25,12.06-10.3-.95-9.55,9.59-20.78h0ZM232.68,235.52c-1.77,2.44-4.13,4.68-4.37,7.81-.18,2.02.98,4,.44,6.04-.82,3-3.27,5.2-5.49,7.21-1.77,1.71-4.33,2.84-5.37,5.1-.28,1.47.52,2.88.99,4.26,3.84,8.84,2.08,15.86-5.66,21.68-3.29,2.5-7.46,3.3-11.38,4.24-2.31.76-7.15.88-6.69,4.25,1.12,4.01,1.19,5.27-2.03,8.3-1.48,1.41-3.08,2.67-4.74,3.85-.19.14-.44-.15-.25-.31,1.97-2.03,4.68-4.18,4.83-7.2.03-.98-.12-1.97-.24-2.97-.32-1.98-.33-4.3,1.22-5.8,2.83-2.98,6.89-4.34,10.81-5.16,5.89-.76,11.5-4.91,13.1-10.75.37-4.99-1.96-9.82-2.39-14.78-.36-2.14,1.28-3.85,2.8-5.1,2.29-1.95,5.04-3.37,7.11-5.55,1.49-1.5,1.57-3.66,1.03-5.6-.18-.97-.44-2.04.04-2.98.45-.91,1.1-1.7,1.76-2.45,1.38-1.48,2.83-2.83,4.46-4.09h0Z"/>
      <path d="M88.32,173.95c1.31.64,2.54,2.07,2.35,3.68-.15,1.54-.39,3.07-.79,4.56-.69,3.05-2.7,5.6-4.49,8.03-.82,1.61-1.7,3.55-1.13,5.36.73,1.69,1.84,3.41,3.58,4.16,2.75,1.03,2.36,4.77,1.07,6.82-.92,2.3-1.26,4.95-.73,7.38.29,1.2.87,2.35,1.83,3.13l-.31.22c-.32-.99-.6-1.99-.83-3.01-.32-1.5-.65-3.22.12-4.67.56-1.39,1.18-2.91,1.57-4.34.54-1.87.95-4.13-.9-5.41-.77-.65-1.67-1.16-2.49-1.84-1.89-1.27-1.99-4.06-.79-5.87,1.1-1.77,2.86-3.01,3.61-4.97.38-.95.72-1.92,1.01-2.91.6-2.41,1.57-5.06.8-7.5-.67-1.38-2.17-2.2-3.48-2.82h0ZM88.28,173.93c1.49.52,2.92,1.36,3.7,2.76.24.48.32,1.02.34,1.54,0,3.14-.92,6.17-1.98,9.09-.72,1.99-2.5,3.33-3.55,5.07-1.03,1.67-1.02,4.04.71,5.25,1.15.99,2.73,1.68,3.57,3.05.84,1.45.35,3.23-.03,4.71-.41,1.46-1.05,2.98-1.62,4.38-1.1,2.33.06,5.04.66,7.38.06.18-.17.34-.31.21-3.53-3.27-2.23-8.86-.38-12.66.52-1.67.22-4.08-1.66-4.71-1.2-.54-2.15-1.52-2.81-2.62-2.87-3.83.8-7.91,3.02-11.01,1.65-2.61,2.32-5.71,2.65-8.75.18-1.61-.98-2.91-2.31-3.69h0Z"/>
      <path d="M87.67,113.18c-2.6,3.63-.34,8.8,2.19,11.89,1.75,2.06,4.75,2.24,6.55,4.25,0,0-.34.23-.34.23-1.22-2.12-3.59-3.18-5.44-4.71-3-3-3.08-7.7-2.96-11.65h0ZM87.69,113.13c.27,3.94.36,8.38,3.28,11.34,1.88,1.52,4.23,2.63,5.47,4.9.13.21-.19.43-.34.23-1.69-1.95-4.78-2.24-6.46-4.33-2.48-3.03-4.8-8.71-1.95-12.13h0Z"/>
      <path d="M144.91,133.66c-.98-3.55-2.76-6.74-5.01-9.59-4.95-5.42-7.21-13.43-3.51-20.16,3.74-6.32,8.13-4.26,6.6-13.66-.21-2.71-1.66-5.41-1.59-8.01.61-4.62,4.22-8.2,7.76-10.89,4.38-3.26,9.45-5.68,14.86-6.59.11-.02.21.06.23.17.02.1-.04.19-.13.22-3.25,1.29-6.43,2.77-9.5,4.44-6.45,3.51-12.25,7.53-10.76,15.79.31,2.57,1.52,5.16,1.22,7.81-.09,2.69-1.26,5.3-3.07,7.25-1.12,1.34-2.61,2.34-3.52,3.85-.94,1.44-1.45,3.14-1.63,4.86-.18,1.72-.07,3.48.25,5.18.85,3.39,3.45,6.05,4.94,9.18,1.51,3.22,2.17,6.66,2.84,10.15h0ZM144.9,133.61c-.82-3.33-1.47-6.9-3.03-10-1.54-3.13-4.17-5.8-5.05-9.23-.34-1.73-.48-3.51-.3-5.28.23-2.66,1.36-5.28,3.36-7.1,2.59-2.28,4.65-5.32,4.73-8.86.29-2.66-.89-5.08-1.19-7.71-1.49-8.49,4.36-12.64,11.02-16.24,3.1-1.67,6.29-3.15,9.56-4.44,0,0,.1.39.1.39-5.34.88-10.38,3.26-14.72,6.47-3.49,2.63-7.05,6.12-7.67,10.64-.07,2.56,1.35,5.27,1.56,7.94,1.49,9.57-2.84,7.45-6.69,13.8-3.7,6.66-1.48,14.59,3.41,20,2.19,2.84,4.09,6.11,4.92,9.6h0Z"/>
      <path d="M185.74,157.99c2.19-4.17,4.96-8.14,8.87-10.84,4.04-2.39,8.59-4.19,13.33-4.26,2.95-.12,6.47.45,8.84-1.65.11-.18.42-.07.36.15-.23.9-.92,1.42-1.61,1.82-2.11,1.14-4.6.95-6.87,1.13-4.57.29-9.19,1.3-12.83,4.2-3.83,2.58-7,6.08-10.08,9.45h0ZM185.77,157.95c3.96-4.73,8.15-9.44,13.78-12.18,2.88-1.23,6-1.71,9.08-1.92,2.28-.17,4.64.06,6.7-1.01.63-.34,1.25-.88,1.41-1.5,0,0,.36.15.36.15-.61.65-1.35.96-2.11,1.22-3.81,1.13-7.84-.02-11.66,1.07-3,.75-5.94,1.99-8.61,3.55-3.9,2.59-6.68,6.63-8.95,10.63h0Z"/>
      <path d="M166.26,216.51c3.34,1.72,7.16.96,10.62.2-3.1,1.82-7.74,1.66-10.62-.2h0Z"/>
      <path d="M112.05,104.96c1.27.41,2.13-.41,3.02-1.16.02-.01.05,0,.04.02-.06.68-.58,1.24-1.24,1.39-.64.2-1.31.09-1.85-.2-.03-.01,0-.05.02-.05h0Z"/>
      <path d="M122.26,74.87c1.28,1.14,2.83.45,4.27.12.02,0,.04.02.03.04-.54.63-1.38.95-2.2.88-.82-.03-1.63-.38-2.13-1.01-.02-.02.02-.05.04-.03h0Z"/>
      <path d="M155.76,248.82c.35,1.88,1.35,2.47,3.13,2.06.15-.02.7-.19.69-.07-1.83,1.65-4.07.13-3.82-1.98h0Z"/>
      <path d="M173.45,126.8c.34.33.79.56,1.19.49.44-.13.75-.36,1.23-.5.02,0,.04.01.04.03-.14.56-.68.93-1.25.86-.59-.03-1.01-.44-1.25-.87-.01-.03.02-.05.04-.03h0Z"/>
      <path d="M164.88,133.61c1.21.3,2.14-.29,3.15-.83.02-.01.05,0,.04.03-.17.64-.78,1.07-1.42,1.11-.33.14-1.89-.12-1.77-.31h0Z"/>
      <path d="M177.75,142.53c.16,1.56,1.53,2.18,2.91,2.09.29.06,1.33-.08,1.41.08-1.28.72-3.17.53-4.01-.77-.26-.43-.38-.91-.36-1.39,0-.03.05-.03.05,0h0Z"/>
    </g>
  </g>
</svg>