<?xml version="1.0" encoding="UTF-8"?>
<svg id="Layer_1" data-name="Layer 1" xmlns="http://www.w3.org/2000/svg" xmlns:xlink="http://www.w3.org/1999/xlink" viewBox="0 0 289.13 430.87">
  <defs>
    <style>
      .cls-1, .cls-2 {
        fill: none;
      }

      .cls-3, .cls-4 {
        fill: #fffae6;
      }

      .cls-5 {
        font-family: SUIT-Regular-KSCpc-EUC-H, SUIT;
      }

      .cls-5, .cls-6 {
        font-size: 14px;
      }

      .cls-7, .cls-8 {
        fill: #c5d190;
      }

      .cls-9 {
        fill: #f9f1b7;
      }

      .cls-9, .cls-8, .cls-10, .cls-11, .cls-2, .cls-12, .cls-4 {
        stroke: #000;
      }

      .cls-9, .cls-8, .cls-10, .cls-11, .cls-4 {
        stroke-miterlimit: 10;
      }

      .cls-9, .cls-8, .cls-11, .cls-2, .cls-12, .cls-4 {
        stroke-width: .5px;
      }

      .cls-10 {
        fill: #fffdf5;
      }

      .cls-13 {
        clip-path: url(#clippath-1);
      }

      .cls-11 {
        fill: #f4f9fd;
      }

      .cls-14 {
        fill: #fff;
      }

      .cls-6 {
        font-family: 'IM_FELL_Double_Pica_SC', 'IM FELL Double Pica SC';
      }

      .cls-2, .cls-12 {
        stroke-linecap: round;
        stroke-linejoin: round;
      }

      .cls-12 {
        fill: #f9f1ac;
      }

      .cls-15 {
        letter-spacing: -.03em;
      }

      .cls-16 {
        clip-path: url(#clippath);
      }
    </style>
    <clipPath id="clippath">
      <rect class="cls-1" x="-304.37" y="35.22" width="261.08" height="360.43" rx="30" ry="30"/>
    </clipPath>
    <clipPath id="clippath-1">
      <rect class="cls-1" x="14.03" y="35.22" width="261.08" height="360.43" rx="30" ry="30"/>
    </clipPath>
  </defs>
  <rect class="cls-10" width="289.13" height="430.87"/>
  <rect class="cls-11" x="14.03" y="35.22" width="261.08" height="360.43" rx="30" ry="30"/>
  <text class="cls-6" transform="translate(99.18 23.6)"><tspan x="0" y="0">WHITE LI</tspan><tspan class="cls-15" x="70.59" y="0">L</tspan><tspan x="80.27" y="0">Y</tspan></text>
  <text class="cls-5" transform="translate(107.27 418.65)"><tspan x="0" y="0">흰 백합 · 화남</tspan></text>
  <g class="cls-16">
    <g>
      <rect class="cls-14" x="-268.79" y="113.89" width="270.96" height="12.98" rx="6.43" ry="6.43"/>
      <line class="cls-2" x1="-123.43" y1="120.19" x2="1.74" y2="120.19"/>
    </g>
  </g>
  <g class="cls-13">
    <g>
      <rect class="cls-14" x="93.71" y="106.79" width="274.52" height="7.79" rx="3.89" ry="3.89"/>
      <g>
        <path class="cls-14" d="M107.7,108.06s33.22.75,36.78,0,15.79-2.82,19.39-4.82c4.34-2.41,9.38-.07,9.38,4.63"/>
        <path class="cls-14" d="M163.87,103.24s-3.29-14.2,13.18-14.2c0,0,12.45-1.37,12.45,12.9,0,0,.27-4.83,5.27-4.83s5.81,3.47,5.81,7"/>
        <path class="cls-14" d="M227.89,91.59v-2.59c0-11.11-10.26-20.12-22.92-20.12s-22.92,9.01-22.92,20.12"/>
        <path class="cls-14" d="M218.62,104.61c.81-3.35,3.45-5.8,6.58-5.8,3.78,0,6.84,3.57,6.84,7.98v1.03"/>
        <path class="cls-14" d="M212.65,107.84c0-2.06,1.88-3.72,4.2-3.72s4.2,1.67,4.2,3.72"/>
        <path class="cls-14" d="M227.62,85.9c2.39-2.39,5.89-3.9,9.8-3.9,7.19,0,13.02,5.12,13.02,11.43v3.9"/>
        <path class="cls-14" d="M232.03,105.98s21.25,2.34,29.17-1.85v-2.92c0-4.72-4.36-8.55-9.74-8.55-.37,0-.73.02-1.08.05"/>
        <circle class="cls-14" cx="266.64" cy="89.67" r="2.51"/>
        <circle class="cls-14" cx="170.74" cy="77.14" r="2.51"/>
        <path class="cls-14" d="M205.84,74.62s3.28-.23,4.68.43"/>
        <path class="cls-14" d="M214.05,76.69s6.97,3.7,7.47,10.46"/>
        <path class="cls-14" d="M139.48,108.34h178.82v-1.71h-19.64l-6.02-3.32-6.71,1.13-24.73-.3s5.37-6.8,13.32-6.8,11.41,7.1,11.41,7.1c0,0,1.11-3.55,5.74-3.55s6.98,5.75,6.98,5.75h12.58"/>
        <polygon class="cls-14" points="144.48 108.06 159.03 106.63 168.23 100.34 175.98 92.18 188.04 87.15 216.14 85.68 242.4 87.15 257.37 101.71 261.21 104.13 277.83 102.02 285.94 104.44 291.68 100.89 296.31 104.12 298.66 106.63 296.92 108.06 144.48 108.06"/>
      </g>
      <g>
        <line class="cls-2" x1="95.06" y1="114.17" x2="181.55" y2="114.17"/>
        <line class="cls-2" x1="189.76" y1="114.17" x2="193.84" y2="114.17"/>
        <line class="cls-2" x1="199.35" y1="114.17" x2="275.61" y2="114.17"/>
        <line class="cls-2" x1="280.5" y1="114.17" x2="340.95" y2="114.17"/>
        <path class="cls-2" d="M106.93,106.79s31.94.33,42.52,0c3.64-.11,10.82-1.41,14.42-3.41,4.34-2.41,9.38-.07,9.38,4.63"/>
        <path class="cls-2" d="M163.87,103.37s-3.29-14.2,13.18-14.2c0,0,12.45-1.37,12.45,12.9,0,0,.27-4.83,5.27-4.83s5.81,3.47,5.81,7"/>
        <path class="cls-2" d="M182.04,89.14c0-11.11,10.26-20.12,22.92-20.12s22.92,9.01,22.92,20.12v2.59"/>
        <path class="cls-2" d="M218.62,104.74c.81-3.35,3.45-5.8,6.58-5.8,3.78,0,6.84,3.57,6.84,7.98v1.03"/>
        <path class="cls-2" d="M212.65,107.98c0-2.06,1.88-3.72,4.2-3.72s4.2,1.67,4.2,3.72"/>
        <path class="cls-2" d="M227.62,86.04c2.39-2.39,5.89-3.9,9.8-3.9,7.19,0,13.02,5.12,13.02,11.43v3.9"/>
        <path class="cls-2" d="M232.03,106.11s21.25,2.34,29.17-1.85v-2.92c0-4.72-4.36-8.55-9.74-8.55-.37,0-.73.02-1.08.05"/>
        <path class="cls-2" d="M261.21,104.27s5.37-6.8,13.32-6.8,11.41,7.1,11.41,7.1c0,0,1.11-3.55,5.74-3.55s6.98,5.75,6.98,5.75h12.58"/>
        <circle class="cls-2" cx="266.64" cy="89.8" r="2.51"/>
        <circle class="cls-2" cx="170.74" cy="77.27" r="2.51"/>
        <path class="cls-2" d="M205.84,74.76s3.28-.23,4.68.43"/>
        <path class="cls-2" d="M214.05,76.83s6.97,3.7,7.47,10.46"/>
      </g>
    </g>
    <g>
      <rect class="cls-14" x="-75.27" y="346.83" width="274.52" height="7.79" rx="3.89" ry="3.89"/>
      <g>
        <path class="cls-14" d="M-61.28,348.1s33.22.75,36.78,0,15.79-2.82,19.39-4.82c4.34-2.41,9.38-.07,9.38,4.63"/>
        <path class="cls-14" d="M-5.11,343.28s-3.29-14.2,13.18-14.2c0,0,12.45-1.37,12.45,12.9,0,0,.27-4.83,5.27-4.83s5.81,3.47,5.81,7"/>
        <path class="cls-14" d="M58.91,331.64v-2.59c0-11.11-10.26-20.12-22.92-20.12s-22.92,9.01-22.92,20.12"/>
        <path class="cls-14" d="M49.64,344.65c.81-3.35,3.45-5.8,6.58-5.8,3.78,0,6.84,3.57,6.84,7.98v1.03"/>
        <path class="cls-14" d="M43.67,347.89c0-2.06,1.88-3.72,4.2-3.72s4.2,1.67,4.2,3.72"/>
        <path class="cls-14" d="M58.64,325.95c2.39-2.39,5.89-3.9,9.8-3.9,7.19,0,13.02,5.12,13.02,11.43v3.9"/>
        <path class="cls-14" d="M63.05,346.02s21.25,2.34,29.17-1.85v-2.92c0-4.72-4.36-8.55-9.74-8.55-.37,0-.73.02-1.08.05"/>
        <circle class="cls-14" cx="159.45" cy="345.32" r="2.51"/>
        <circle class="cls-14" cx="97.66" cy="329.71" r="2.51"/>
        <circle class="cls-14" cx="1.76" cy="317.18" r="2.51"/>
        <path class="cls-14" d="M36.86,314.67s3.28-.23,4.68.43"/>
        <path class="cls-14" d="M45.07,316.74s6.97,3.7,7.47,10.46"/>
        <path class="cls-14" d="M-29.5,348.39h178.82v-1.71h-19.64l-6.02-3.32-6.71,1.13-24.73-.3s5.37-6.8,13.32-6.8,11.41,7.1,11.41,7.1c0,0,1.11-3.55,5.74-3.55s6.98,5.75,6.98,5.75h12.58"/>
        <polygon class="cls-14" points="-24.5 348.1 -9.95 346.68 -.75 340.38 7 332.23 19.06 327.2 47.16 325.72 73.42 327.2 88.39 341.76 92.23 344.18 108.85 342.06 116.96 344.48 122.7 340.93 127.33 344.16 129.68 346.68 127.94 348.1 -24.5 348.1"/>
      </g>
      <g>
        <line class="cls-2" x1="-73.92" y1="354.21" x2="12.57" y2="354.21"/>
        <line class="cls-2" x1="20.78" y1="354.21" x2="24.86" y2="354.21"/>
        <line class="cls-2" x1="175.89" y1="354.21" x2="179.97" y2="354.21"/>
        <line class="cls-2" x1="184.09" y1="354.21" x2="197.82" y2="354.21"/>
        <line class="cls-2" x1="30.37" y1="354.21" x2="106.63" y2="354.21"/>
        <line class="cls-2" x1="111.52" y1="354.21" x2="171.97" y2="354.21"/>
        <path class="cls-2" d="M-62.04,346.83s31.94.33,42.52,0c3.64-.11,10.82-1.41,14.42-3.41,4.34-2.41,9.38-.07,9.38,4.63"/>
        <path class="cls-2" d="M-5.11,343.42s-3.29-14.2,13.18-14.2c0,0,12.45-1.37,12.45,12.9,0,0,.27-4.83,5.27-4.83s5.81,3.47,5.81,7"/>
        <path class="cls-2" d="M13.06,329.19c0-11.11,10.26-20.12,22.92-20.12s22.92,9.01,22.92,20.12v2.59"/>
        <path class="cls-2" d="M49.64,344.79c.81-3.35,3.45-5.8,6.58-5.8,3.78,0,6.84,3.57,6.84,7.98v1.03"/>
        <path class="cls-2" d="M43.67,348.02c0-2.06,1.88-3.72,4.2-3.72s4.2,1.67,4.2,3.72"/>
        <path class="cls-2" d="M58.64,326.08c2.39-2.39,5.89-3.9,9.8-3.9,7.19,0,13.02,5.12,13.02,11.43v3.9"/>
        <path class="cls-2" d="M63.05,346.16s21.25,2.34,29.17-1.85v-2.92c0-4.72-4.36-8.55-9.74-8.55-.37,0-.73.02-1.08.05"/>
        <path class="cls-2" d="M92.23,344.32s5.37-6.8,13.32-6.8,11.41,7.1,11.41,7.1c0,0,1.11-3.55,5.74-3.55s6.98,5.75,6.98,5.75h12.58"/>
        <line class="cls-2" x1="145.03" y1="346.81" x2="149.32" y2="346.81"/>
        <circle class="cls-2" cx="159.45" cy="345.46" r="2.51"/>
        <circle class="cls-2" cx="97.66" cy="329.85" r="2.51"/>
        <circle class="cls-2" cx="1.76" cy="317.32" r="2.51"/>
        <path class="cls-2" d="M36.86,314.8s3.28-.23,4.68.43"/>
        <path class="cls-2" d="M45.07,316.87s6.97,3.7,7.47,10.46"/>
      </g>
    </g>
  </g>
  <g>
    <g>
      <path class="cls-8" d="M134.84,359.52h0c3.41,0,6.23-2.62,6.53-6.01.76-8.72,3.73-25.24,15.06-38.21,16.16-18.5,19.35-25.73,28.71-31.26,9.36-5.53,15.52-17.01,34.87-11.06,19.35,5.95,14.46,8.29,17.65,6.59,3.19-1.7-10.84-21.69-28.49-22.11s-24.88-3.4-40.19,11.69c-15.31,15.1-26.57,32.96-30.4,53.37,0,0,.55-26.79,4.95-40.61,4.4-13.82,21.24-48.56,24.09-49.48l-6.08,1.42s-10.21,8.93-16.59,29.56c0,0-.63-45.72-6.37-51.24l-8.3-3.61s9.16,10.21,8.3,32.75-6.6,75.49-6.6,75.49c0,0-14.25-61.24-36.57-75.06-22.33-13.82-37.64-25.52-43.59-25.73-5.95-.21.85,5.68,1.91,6.98,1.06,1.31,14.46,18.32,17.22,20.45,2.76,2.13,31.26,40.61,31.26,40.61,0,0,27.22,36.79,27.64,56.14,0,0-27.22-66.55-83.57-62.51,0,0-4.25,1.7,8.72,8.51,12.97,6.8,33.6,28.07,36.79,29.34s19.99,17.86,22.75,19.56c2.34,1.44,10.77,12.78,14.34,20.62,1.06,2.34,3.39,3.84,5.96,3.84Z"/>
      <path class="cls-4" d="M118.13,187.2s14.52,31.9,19.71,30.99c5.19-.91,6.22-12.32,5.45-18.41-.78-6.09-2.72-21.78-1.82-25.29.91-3.5-27.88,8.17-27.88,8.17l4.54,4.54Z"/>
      <path class="cls-4" d="M31.82,176.04s-.79-12.84,11.41-20.92c12.2-8.08,24.25-11.89,42.94-4.44,18.7,7.45,23.14,12.04,23.14,12.04l-10.62,13.31s-29.44-.52-42.98-3.88c-3.29-.82-6.75-.8-9.99.19s-7.32,2.73-9.47,5.43c-4.28,5.39-4.44-1.74-4.44-1.74Z"/>
      <path class="cls-4" d="M222.02,176.07s8.22-19.27,5.12-21.68c-3.1-2.41-5.51,7.22-6.2,8.86s-6.71,16.56-6.71,16.56l7.78-3.73Z"/>
      <path class="cls-4" d="M181.36,169.53s18.18-20.1,18.6-22.84c.42-2.74,1.48-14.15,5.92-14.36s9.3,2.11,10.78,11.2c0,0,3.2,23.08-1.15,31.41,0,0,29.39-10.44,33.91-1.1,5.04,10.43-35.93,47.68-41.63,49.16-5.71,1.48-24.09,8.88-27.69,10.99-3.59,2.11-15.43,7.61-19.66,5.49s-2.11-6.55-1.9-10.78c.21-4.23,6.13-12.68,8.03-17.33,1.9-4.65,8.67-33.18,8.67-33.18,0,0,2.64-8.22,6.13-8.66Z"/>
      <path class="cls-4" d="M165.75,235.22s10.38-16.77,20.04-19.62c9.67-2.84,13.22-12.65,19.47-13.79,6.25-1.14,26.01-.85,33.26,1.99,7.25,2.84,16.91,11.37,18.34,18.76,1.42,7.39-.57,21.89-3.55,22.17s-6.11-8.1-9.24-9.1c-3.13-.99-7.11-5.4-12.79-5.12-5.69.28-13.08-3.27-16.2-5.83-3.13-2.56-11.51-7.16-14.64-6.49-3.13.67-8.67-2.22-17.34,4.76-8.67,6.99-13.79,11.82-13.79,11.82"/>
      <path class="cls-4" d="M215.5,174.94s-10.88,25.78-24.24,34.98"/>
      <path class="cls-4" d="M112.07,111.18s-4.33-25.95,15.08-36.56c0,0,2.97-.23,3.89,2.06,0,0,3.66-7.32,9.15-4.8,0,0,1.83-.46,0,13.26,0,0,8.23,12.81,7.32,17.84-.91,5.03-6.17,13.72-6.17,13.72,0,0,16.69-28.81,53.28-25.84,0,0,16.46,2.97,7.09,10.29s-9.15,4.34-13.72,14.63c-4.57,10.29-13.72,31.56-20.81,34.07,0,0,21.04-3.43,28.58,21.49,0,0,3.2,10.75-5.49,21.72,0,0-.23,5.26-1.83,5.49s-1.37-7.55-11.43-13.49c-10.06-5.95-23.47-9.22-35.21-5.95-9.7,2.71-10.21-2.88-10.21-2.88h-10.13l-12.37-9.89c-38.39-9.02-47.34-52.26-47.34-52.26,0,0-5.93-10.26-.8-16.99,5.13-6.73,10.42-7.53,20.2-5.77s28.53,17.47,28.53,17.47l2.4,2.38Z"/>
      <g>
        <path class="cls-7" d="M142.53,330.85c.17-7.65,3.58-14.82,7.24-21.54,4.55-8.36,9.64-16.48,15.89-23.66,6.26-7.17,13.74-13.39,22.36-17.43"/>
        <path d="M142.68,330.85c.14-5.39,1.87-10.56,4.13-15.42s4.86-9.41,7.6-13.91c5.38-8.84,11.71-17.22,19.61-23.97,4.28-3.65,8.99-6.8,14.08-9.19.17-.08.02-.34-.15-.26-9.14,4.29-16.95,10.97-23.43,18.65-3.46,4.11-6.57,8.52-9.42,13.07-2.86,4.57-5.56,9.28-7.92,14.13-2.59,5.29-4.65,10.95-4.8,16.9,0,.19.29.19.3,0h0Z"/>
      </g>
      <g>
        <path class="cls-7" d="M151.87,314.49c6.32-13.12,16.91-23.69,28.16-32.95,5.51-4.54,11.34-8.89,18.06-11.31"/>
        <path d="M151.99,314.56c3.62-7.49,8.64-14.19,14.34-20.22,2.85-3.01,5.86-5.87,8.98-8.61s6.56-5.64,10.04-8.2c3.94-2.91,8.15-5.49,12.77-7.17.18-.07.1-.36-.08-.29-8.12,2.95-14.96,8.56-21.43,14.13-6.36,5.47-12.38,11.39-17.44,18.11-2.85,3.79-5.38,7.82-7.44,12.09-.08.17.17.33.26.15h0Z"/>
      </g>
      <g>
        <path class="cls-7" d="M189.11,265.71c8.65-3,18.08-3.71,27.09-2.04"/>
        <path d="M189.15,265.86c8.65-2.98,18.01-3.69,27.01-2.04.19.03.27-.25.08-.29-9.05-1.66-18.46-.96-27.17,2.04-.18.06-.1.35.08.29h0Z"/>
      </g>
      <g>
        <path class="cls-7" d="M69.06,288.35c9.98,3.15,17.91,10.75,24.61,18.78"/>
        <path d="M69.02,288.5c7.84,2.5,14.41,7.73,20.01,13.63,1.57,1.65,3.07,3.37,4.53,5.12.12.15.34-.06.21-.21-5.24-6.28-11.16-12.28-18.44-16.18-2-1.07-4.08-1.96-6.24-2.64-.18-.06-.26.23-.08.29h0Z"/>
      </g>
      <g>
        <path class="cls-7" d="M99.64,309.98c5.88,5.67,11.52,11.57,16.92,17.7"/>
        <path d="M99.54,310.08c4.57,4.41,9,8.96,13.28,13.65,1.22,1.34,2.43,2.69,3.63,4.05.13.15.34-.07.21-.21-4.2-4.77-8.54-9.4-13.03-13.89-1.28-1.28-2.58-2.55-3.88-3.81-.14-.13-.35.08-.21.21h0Z"/>
      </g>
      <g>
        <path class="cls-7" d="M99.49,318.28c9.57,3.8,16.79,11.72,23.66,19.38"/>
        <path d="M99.45,318.43c7.5,3,13.56,8.53,19.02,14.33,1.55,1.65,3.06,3.33,4.57,5.01.13.14.34-.07.21-.21-5.36-5.98-10.86-12.08-17.74-16.37-1.9-1.19-3.9-2.21-5.99-3.05-.18-.07-.26.22-.08.29h0Z"/>
      </g>
      <g>
        <path class="cls-7" d="M94.49,300.59c1.88,1.84,4.4,2.89,6.41,4.6,2.95,2.51,4.63,6.31,7.71,8.67"/>
        <path d="M94.38,300.7c1.9,1.85,4.4,2.89,6.41,4.6,1.89,1.61,3.24,3.71,4.77,5.64.88,1.11,1.82,2.16,2.94,3.03.15.12.36-.09.21-.21-1.99-1.54-3.39-3.65-4.92-5.62-.75-.97-1.54-1.92-2.45-2.75s-2-1.55-3.07-2.22c-1.28-.81-2.58-1.61-3.68-2.68-.14-.13-.35.08-.21.21h0Z"/>
      </g>
      <g>
        <path class="cls-7" d="M72.88,232.62c3.91,2.42,7.85,4.87,11.13,8.09,1.52,1.49,2.88,3.12,4.22,4.77,13.29,16.45,24.11,34.9,31.99,54.53"/>
        <path d="M72.8,232.75c4.68,2.9,9.28,5.88,12.97,10.04,3.65,4.11,6.95,8.58,10.13,13.06,6.22,8.74,11.78,17.94,16.62,27.51,2.76,5.45,5.27,11.03,7.55,16.69.07.18.36.1.29-.08-4.04-10.07-8.85-19.83-14.37-29.16-5.53-9.35-11.75-18.35-18.7-26.71-1.97-2.37-4.11-4.53-6.56-6.42-2.47-1.9-5.13-3.55-7.77-5.19-.16-.1-.32.16-.15.26h0Z"/>
      </g>
      <g>
        <path class="cls-7" d="M107.9,264.43c7.17,12.98,14.39,26.08,18.67,40.27"/>
        <path d="M107.77,264.51c5.59,10.12,11.21,20.29,15.45,31.07,1.19,3.01,2.26,6.07,3.2,9.17.06.18.35.11.29-.08-3.35-11.08-8.47-21.5-13.95-31.66-1.56-2.89-3.15-5.77-4.74-8.65-.09-.17-.35-.02-.26.15h0Z"/>
      </g>
      <g>
        <path class="cls-7" d="M67.74,234.23c9.04,5.76,16.51,13.95,21.42,23.47"/>
        <path d="M67.67,234.36c7.05,4.51,13.14,10.47,17.81,17.41,1.3,1.93,2.48,3.94,3.55,6.01.09.17.35.02.26-.15-3.87-7.46-9.27-14.11-15.79-19.42-1.82-1.48-3.72-2.85-5.69-4.11-.16-.1-.31.16-.15.26h0Z"/>
      </g>
      <g>
        <path class="cls-7" d="M122.8,306.69c2.53,3.5,4.04,7.61,5.51,11.67.82,2.27,1.65,4.53,2.47,6.8"/>
        <path d="M122.67,306.76c1.91,2.66,3.25,5.66,4.41,8.71,1.23,3.22,2.37,6.48,3.55,9.73.07.18.36.1.29-.08-1.2-3.3-2.35-6.61-3.61-9.88-1.16-3.02-2.49-5.99-4.38-8.63-.11-.16-.37,0-.26.15h0Z"/>
      </g>
      <path class="cls-8" d="M131.97,316.78s.04,28.73,1,38.28"/>
      <path class="cls-8" d="M138.57,322.52s-1.47,20.7-.75,27.26"/>
      <path class="cls-4" d="M112.07,111.18s14.34,9.27,17.68,46.5"/>
      <path class="cls-4" d="M167.17,149.85s-25.42,17.24-32.29,20.23"/>
      <g>
        <path class="cls-3" d="M194.42,97.81c-2.3.16-4.46,1.11-6.54,2.1-3.5,1.66-6.95,3.47-10.15,5.65-5.34,3.63-9.93,8.24-14.48,12.82-3.43,3.44-6.89,6.93-9.37,11.11-1.33,2.23-2.35,4.62-3.37,7.01-3.76,8.77-7.51,17.54-11.27,26.31"/>
        <path d="M194.42,97.66c-2.74.22-5.23,1.44-7.66,2.62-2.58,1.25-5.12,2.6-7.55,4.13-4.79,3.02-8.99,6.83-13,10.79-3.9,3.84-7.99,7.67-11.14,12.17-1.64,2.35-2.9,4.9-4.04,7.52-1.25,2.86-2.46,5.74-3.69,8.61-2.74,6.41-5.49,12.81-8.23,19.22-.08.18.18.33.26.15,2.4-5.6,4.8-11.21,7.2-16.81,1.19-2.78,2.38-5.57,3.58-8.35s2.26-5.42,3.74-7.95c2.76-4.73,6.76-8.57,10.59-12.41,3.98-3.99,8.04-7.96,12.67-11.21,2.6-1.82,5.36-3.39,8.2-4.82s5.84-3.1,9.08-3.36c.19-.02.19-.32,0-.3h0Z"/>
      </g>
      <g>
        <path class="cls-3" d="M135.39,79.63c-.07,7.26.67,14.53,2.19,21.64"/>
        <path d="M135.24,79.63c-.06,7.28.68,14.55,2.19,21.68.04.19.33.11.29-.08-1.51-7.1-2.24-14.34-2.18-21.6,0-.19-.3-.19-.3,0h0Z"/>
      </g>
      <g>
        <path class="cls-3" d="M128.39,83.17c-.65,4.24-1.29,8.47-1.94,12.71"/>
        <path d="M128.24,83.13c-.65,4.24-1.29,8.47-1.94,12.71-.03.19.26.27.29.08.65-4.24,1.29-8.47,1.94-12.71.03-.19-.26-.27-.29-.08h0Z"/>
      </g>
      <g>
        <path class="cls-3" d="M121.24,96.84c-.41,7.08-.43,14.19-.06,21.28"/>
        <path d="M121.09,96.84c-.41,7.09-.43,14.19-.06,21.28,0,.19.31.19.3,0-.37-7.09-.35-14.19.06-21.28.01-.19-.29-.19-.3,0h0Z"/>
      </g>
      <g>
        <path class="cls-3" d="M124.24,100.51c-.57,6.44-.55,12.93.06,19.37"/>
        <path d="M124.09,100.51c-.56,6.44-.54,12.93.06,19.37.02.19.32.19.3,0-.6-6.44-.62-12.93-.06-19.37.02-.19-.28-.19-.3,0h0Z"/>
      </g>
      <g>
        <path class="cls-3" d="M136.23,109.3c-.03,4.83-.07,9.66-.1,14.5"/>
        <path d="M136.08,109.3c-.03,4.83-.07,9.66-.1,14.5,0,.19.3.19.3,0,.03-4.83.07-9.66.1-14.5,0-.19-.3-.19-.3,0h0Z"/>
      </g>
      <g>
        <path class="cls-3" d="M127.12,127.74c.35,2.43.7,4.86,1.05,7.29.17,1.22.35,2.45.21,3.68"/>
        <path d="M126.98,127.78c.26,1.82.52,3.65.79,5.47.26,1.79.66,3.64.47,5.46-.02.19.28.19.3,0,.19-1.81-.21-3.65-.46-5.43-.27-1.86-.53-3.72-.8-5.58-.03-.19-.32-.11-.29.08h0Z"/>
      </g>
      <g>
        <path class="cls-3" d="M131.15,130.04c1.27,7.23-.32,14.71.65,21.98"/>
        <path d="M131,130.08c1.25,7.27-.3,14.66.64,21.95.02.19.32.19.3,0-.95-7.32.6-14.73-.66-22.02-.03-.19-.32-.11-.29.08h0Z"/>
      </g>
      <g>
        <path class="cls-3" d="M129.71,140.74c-.26,6.03.1,12.08,1.08,18.03"/>
        <path d="M129.56,140.74c-.26,6.04.11,12.1,1.09,18.07.03.19.32.11.29-.08-.97-5.94-1.33-11.98-1.08-17.99,0-.19-.29-.19-.3,0h0Z"/>
      </g>
      <g>
        <path class="cls-3" d="M134.03,146.43c-.07,4.39-.38,8.78-.93,13.13"/>
        <path d="M133.88,146.43c-.07,4.39-.38,8.77-.93,13.13-.02.19.28.19.3,0,.55-4.36.87-8.74.93-13.13,0-.19-.3-.19-.3,0h0Z"/>
      </g>
      <g>
        <path class="cls-3" d="M136.72,146.7c.02,5.56-.21,11.12-.7,16.66"/>
        <path d="M136.57,146.7c.02,5.56-.22,11.12-.7,16.66-.02.19.28.19.3,0,.48-5.54.71-11.1.7-16.66,0-.19-.3-.19-.3,0h0Z"/>
      </g>
      <g>
        <path class="cls-3" d="M122,141.34c1.54,7.36,3.11,14.82,6.5,21.53"/>
        <path d="M121.85,141.38c1.54,7.36,3.12,14.81,6.52,21.57.09.17.35.02.26-.15-3.38-6.74-4.95-14.17-6.49-21.5-.04-.19-.33-.11-.29.08h0Z"/>
      </g>
      <g>
        <path class="cls-3" d="M114.79,129.33c2.99,11.24,6.01,22.56,11.09,33.02"/>
        <path d="M114.65,129.37c2.35,8.82,4.7,17.67,8.08,26.17.93,2.33,1.93,4.63,3.02,6.89.08.17.34.02.26-.15-3.94-8.15-6.65-16.81-9.06-25.52-.69-2.49-1.35-4.98-2.01-7.47-.05-.19-.34-.11-.29.08h0Z"/>
      </g>
      <g>
        <path class="cls-3" d="M111.41,142.34c4.13,7.12,8.72,13.98,13.73,20.52"/>
        <path d="M111.28,142.41c4.14,7.12,8.72,13.98,13.73,20.52.12.15.38,0,.26-.15-5.01-6.54-9.6-13.4-13.73-20.52-.1-.17-.36-.02-.26.15h0Z"/>
      </g>
      <g>
        <path class="cls-3" d="M104.88,153.05c5.57,5.9,11.82,11.14,18.59,15.6"/>
        <path d="M104.77,153.16c4.33,4.58,9.07,8.77,14.15,12.51,1.46,1.08,2.96,2.11,4.47,3.11.16.11.31-.15.15-.26-5.27-3.47-10.22-7.41-14.78-11.77-1.29-1.24-2.55-2.51-3.78-3.81-.13-.14-.34.07-.21.21h0Z"/>
      </g>
      <g>
        <path class="cls-3" d="M106.93,148.41c4.41,4.27,8.82,8.54,13.24,12.82,2.2,2.13,4.67,4.38,7.72,4.54"/>
        <path d="M106.82,148.52c2.86,2.77,5.72,5.53,8.57,8.3,1.4,1.36,2.81,2.72,4.21,4.08,1.15,1.12,2.3,2.24,3.61,3.18,1.39,1,2.95,1.73,4.67,1.84.19.01.19-.29,0-.3-3.28-.22-5.76-2.7-7.99-4.86-2.73-2.65-5.46-5.29-8.2-7.94-1.55-1.5-3.11-3.01-4.66-4.51-.14-.13-.35.08-.21.21h0Z"/>
      </g>
      <g>
        <path class="cls-3" d="M141.94,161.51c2.34-4.79,7.12-7.81,11.25-11.18,2.8-2.29,5.39-4.82,7.96-7.36,2.25-2.22,4.51-4.43,6.76-6.65"/>
        <path d="M142.07,161.58c1.92-3.86,5.35-6.55,8.68-9.14,3.83-2.97,7.33-6.24,10.78-9.63,2.17-2.13,4.33-4.26,6.5-6.39.14-.14-.07-.35-.21-.21-3.77,3.7-7.47,7.49-11.35,11.07-1.75,1.61-3.58,3.13-5.46,4.59-1.68,1.31-3.38,2.61-4.94,4.07-1.7,1.6-3.21,3.4-4.26,5.5-.09.17.17.32.26.15h0Z"/>
      </g>
      <g>
        <path class="cls-3" d="M149.87,145.38c2.92-1.63,5.19-4.2,7.39-6.72,7.4-8.47,14.86-17.03,20.3-26.88"/>
        <path d="M149.94,145.51c2.38-1.35,4.33-3.27,6.14-5.29s3.74-4.26,5.59-6.41c3.75-4.36,7.41-8.81,10.72-13.53,1.91-2.72,3.69-5.52,5.29-8.42.09-.17-.17-.32-.26-.15-5.56,10.04-13.16,18.74-20.7,27.33-2.05,2.34-4.2,4.66-6.94,6.21-.17.1-.02.35.15.26h0Z"/>
      </g>
      <g>
        <path class="cls-3" d="M185.28,109.01c-2.85,7.58-6.8,14.76-11.67,21.23"/>
        <path d="M185.13,108.97c-2.86,7.57-6.79,14.72-11.65,21.2-.12.15.14.3.26.15,3.82-5.09,7.07-10.6,9.68-16.41.72-1.6,1.38-3.22,2-4.86.07-.18-.22-.26-.29-.08h0Z"/>
      </g>
      <g>
        <path class="cls-3" d="M151.51,122.93c-2.34,1.8-3.26,4.84-4.05,7.69-.78,2.8-1.56,5.6-2.34,8.4-1.24,4.45-2.49,8.94-4.6,13.05"/>
        <path d="M151.4,122.82c-2.82,2.24-3.61,6.02-4.52,9.31-1.2,4.32-2.31,8.68-3.69,12.94-.77,2.37-1.66,4.69-2.79,6.91-.09.17.17.32.26.15,1.89-3.73,3.11-7.73,4.24-11.75.61-2.16,1.21-4.33,1.81-6.5.54-1.93,1.02-3.9,1.68-5.8.67-1.93,1.61-3.78,3.23-5.07.15-.12-.06-.33-.21-.21h0Z"/>
      </g>
      <g>
        <path class="cls-3" d="M63.23,96.48c6.51,3.56,10.92,9.93,15.08,16.08"/>
        <path d="M63.16,96.61c5.11,2.81,8.93,7.35,12.27,12.03.94,1.32,1.85,2.65,2.75,3.99.11.16.37,0,.26-.15-3.26-4.81-6.61-9.73-11.15-13.43-1.25-1.01-2.57-1.92-3.98-2.7-.17-.09-.32.17-.15.26h0Z"/>
      </g>
      <g>
        <path class="cls-3" d="M82.23,114.87c3.92,4.93,8.15,9.63,12.65,14.05"/>
        <path d="M82.12,114.97c3.06,3.85,6.3,7.55,9.71,11.09.96,1,1.94,1.99,2.93,2.96.14.14.35-.08.21-.21-3.51-3.45-6.85-7.06-10.01-10.82-.89-1.06-1.77-2.14-2.64-3.23-.12-.15-.33.06-.21.21h0Z"/>
      </g>
      <g>
        <path class="cls-3" d="M91.78,109.14c2.91,5.83,6.4,11.37,10.4,16.51"/>
        <path d="M91.65,109.21c2.28,4.56,4.91,8.95,7.87,13.11.83,1.16,1.68,2.31,2.55,3.43.12.15.33-.06.21-.21-3.99-5.14-7.46-10.66-10.37-16.48-.09-.17-.35-.02-.26.15h0Z"/>
      </g>
      <g>
        <path class="cls-3" d="M87.87,98.23c8.79,5.93,17.15,12.49,24.99,19.62"/>
        <path d="M87.79,98.36c6.84,4.62,13.42,9.61,19.69,14.96,1.78,1.52,3.53,3.06,5.27,4.63.14.13.36-.08.21-.21-6.1-5.53-12.5-10.73-19.18-15.56-1.93-1.39-3.88-2.75-5.85-4.08-.16-.11-.31.15-.15.26h0Z"/>
      </g>
      <g>
        <path class="cls-3" d="M69.41,122.89c2.24,6.55,7.82,11.29,11.91,16.88"/>
        <path d="M69.27,122.93c1.77,5.13,5.53,9.15,8.97,13.21,1.02,1.21,2.02,2.43,2.96,3.71.11.15.37,0,.26-.15-3.18-4.33-7.17-8.06-9.94-12.7-.79-1.32-1.45-2.7-1.96-4.15-.06-.18-.35-.1-.29.08h0Z"/>
      </g>
      <g>
        <path class="cls-3" d="M83.33,138.3c2.74,4.39,6.37,8.22,10.61,11.19"/>
        <path d="M83.2,138.37c2.16,3.45,4.85,6.55,7.97,9.17.87.73,1.77,1.42,2.69,2.07.16.11.31-.15.15-.26-3.28-2.31-6.2-5.13-8.62-8.33-.68-.91-1.33-1.84-1.93-2.8-.1-.16-.36-.01-.26.15h0Z"/>
      </g>
      <g>
        <path class="cls-3" d="M73.89,111.73c2.93,8.28,7.66,15.93,13.76,22.25"/>
        <path d="M73.74,111.77c2.3,6.46,5.66,12.53,9.92,17.9,1.22,1.53,2.51,3.01,3.87,4.42.13.14.35-.07.21-.21-4.71-4.89-8.59-10.55-11.47-16.7-.84-1.79-1.59-3.63-2.25-5.49-.06-.18-.35-.1-.29.08h0Z"/>
      </g>
      <path d="M64.09,102.68c.19,0,.19-.3,0-.3s-.19.3,0,.3h0Z"/>
      <g>
        <path class="cls-3" d="M64.15,102.49c1.83,2.64,3.18,5.61,3.96,8.72"/>
        <path d="M64.02,102.56c1.82,2.64,3.16,5.58,3.94,8.69.05.19.34.11.29-.08-.79-3.13-2.14-6.1-3.97-8.76-.11-.16-.37,0-.26.15h0Z"/>
      </g>
      <path d="M68.29,111.62c.19,0,.19-.3,0-.3s-.19.3,0,.3h0Z"/>
      <g>
        <path class="cls-3" d="M75.39,94.78c5.72,2.49,9.75,7.67,13.43,12.71"/>
        <path d="M75.31,94.91c4.45,1.95,7.88,5.53,10.84,9.29.87,1.1,1.71,2.23,2.53,3.37.11.15.37,0,.26-.15-2.87-3.92-5.89-7.9-9.9-10.73-1.13-.79-2.32-1.48-3.58-2.03-.18-.08-.33.18-.15.26h0Z"/>
      </g>
      <g>
        <path class="cls-3" d="M144.58,167c6.66-.96,13.54-1.28,20.03.47,6.5,1.75,12.6,5.79,15.65,11.78"/>
        <path d="M144.62,167.14c10.47-1.5,22.21-1.28,30.63,6.02,2,1.74,3.68,3.81,4.89,6.17.09.17.35.02.26-.15-2.18-4.24-5.85-7.51-10.05-9.66-4.84-2.48-10.29-3.42-15.68-3.45-3.39-.02-6.77.31-10.12.79-.19.03-.11.32.08.29h0Z"/>
      </g>
      <g>
        <path class="cls-3" d="M177.9,169.75c2.15,1.65,4.35,3.36,5.77,5.66.33.53.61,1.08.89,1.64.79,1.55,1.57,3.1,2.36,4.66"/>
        <path d="M177.82,169.88c1.47,1.13,2.95,2.27,4.2,3.64.64.69,1.21,1.44,1.68,2.26.51.89.95,1.82,1.41,2.73.55,1.09,1.11,2.19,1.66,3.28.09.17.35.02.26-.15-.97-1.92-1.89-3.89-2.94-5.77-.92-1.66-2.23-3.04-3.66-4.27-.8-.68-1.63-1.33-2.46-1.97-.15-.12-.3.14-.15.26h0Z"/>
      </g>
      <g>
        <path class="cls-3" d="M188.29,176.14c1.79,4.27,3.61,8.66,3.66,13.29"/>
        <path d="M188.14,176.18c1.77,4.23,3.59,8.59,3.66,13.25,0,.19.3.19.3,0-.07-4.68-1.88-9.07-3.67-13.33-.07-.18-.36-.1-.29.08h0Z"/>
      </g>
      <g>
        <path class="cls-3" d="M181.9,165.08c2.27.5,3.9,2.46,5.18,4.41,1.48,2.24,2.77,4.63,3.49,7.22"/>
        <path d="M181.86,165.23c1.8.41,3.17,1.73,4.26,3.15,1.19,1.56,2.21,3.28,3.05,5.04.51,1.07.94,2.18,1.26,3.33.05.19.34.11.29-.08-.58-2.06-1.51-4.01-2.61-5.84-.98-1.63-2.06-3.32-3.54-4.54-.77-.64-1.65-1.12-2.63-1.35-.19-.04-.27.25-.08.29h0Z"/>
      </g>
      <g>
        <path class="cls-3" d="M149.7,161.61c7.89-1.13,15.98-.8,23.75.97"/>
        <path d="M149.74,161.75c7.87-1.12,15.91-.78,23.67.97.19.04.27-.25.08-.29-7.81-1.77-15.9-2.09-23.83-.97-.19.03-.11.32.08.29h0Z"/>
      </g>
      <g>
        <path class="cls-3" d="M159.04,157.78c2.5-.63,5.23-.36,7.56.76"/>
        <path d="M159.08,157.92c2.47-.62,5.14-.35,7.44.75.17.08.33-.18.15-.26-2.38-1.14-5.12-1.42-7.67-.78-.19.05-.11.34.08.29h0Z"/>
      </g>
      <g>
        <path class="cls-3" d="M165.76,155.37c3.76-.97,7.84-.61,11.37,1"/>
        <path d="M165.8,155.51c3.73-.95,7.75-.6,11.25.99.17.08.33-.18.15-.26-3.58-1.62-7.67-1.99-11.48-1.02-.19.05-.11.34.08.29h0Z"/>
      </g>
      <g>
        <path class="cls-3" d="M32.34,175.23c6.86-9.72,18.63-15.77,30.53-15.69"/>
        <path d="M32.47,175.3c5.34-7.53,13.59-12.85,22.6-14.8,2.56-.55,5.18-.83,7.8-.82.19,0,.19-.3,0-.3-9.32-.04-18.51,3.59-25.4,9.84-1.96,1.78-3.72,3.77-5.25,5.93-.11.16.15.31.26.15h0Z"/>
      </g>
      <g>
        <path class="cls-3" d="M66.27,159.73c8.65-1.63,17.76-.77,25.96,2.44"/>
        <path d="M66.31,159.88c8.65-1.6,17.67-.75,25.88,2.44.18.07.26-.22.08-.29-8.25-3.21-17.33-4.06-26.04-2.44-.19.04-.11.32.08.29h0Z"/>
      </g>
      <g>
        <path class="cls-3" d="M74.24,166.15c5.95-.21,11.91.11,17.81.94"/>
        <path d="M74.24,166.3c5.94-.2,11.89.11,17.77.93.19.03.27-.26.08-.29-5.91-.83-11.88-1.15-17.85-.94-.19,0-.19.31,0,.3h0Z"/>
      </g>
      <g>
        <path class="cls-3" d="M49.95,166.72c1.29-.45,2.67-.57,4.04-.64,4.42-.25,8.86-.11,13.26.4"/>
        <path d="M49.99,166.87c1.35-.45,2.76-.57,4.17-.65s2.89-.12,4.34-.11c2.92,0,5.85.19,8.75.53.19.02.19-.28,0-.3-2.96-.35-5.94-.52-8.92-.53-1.47,0-2.95.04-4.42.13-1.35.08-2.71.21-4,.64-.18.06-.1.35.08.29h0Z"/>
      </g>
      <g>
        <path class="cls-3" d="M62.6,153.33c7.69-1.18,15.62-.84,23.18,1"/>
        <path d="M62.64,153.47c7.68-1.16,15.55-.82,23.1,1,.19.05.27-.24.08-.29-7.61-1.83-15.52-2.17-23.26-1-.19.03-.11.32.08.29h0Z"/>
      </g>
      <g>
        <path class="cls-3" d="M192.89,214.19c11.66-.43,23.37.41,34.85,2.52,3.11.57,6.25,1.25,9.06,2.71,2.34,1.22,4.37,2.95,6.3,4.75,2.96,2.77,5.72,5.74,8.25,8.9"/>
        <path d="M192.89,214.34c8.61-.31,17.23.06,25.78,1.12,4.21.52,8.46,1.12,12.58,2.13,1.96.48,3.89,1.11,5.67,2.06s3.36,2.19,4.86,3.51c3.44,3.04,6.59,6.44,9.47,10.02.12.15.33-.06.21-.21-2.63-3.27-5.49-6.35-8.57-9.2-1.41-1.3-2.88-2.55-4.49-3.59s-3.37-1.8-5.21-2.37c-4.05-1.24-8.35-1.81-12.53-2.39s-8.54-1-12.83-1.24c-4.97-.28-9.95-.32-14.93-.14-.19,0-.19.31,0,.3h0Z"/>
      </g>
      <g>
        <path class="cls-3" d="M198.65,211.13c13.29-3.91,27.48-4.78,41.15-2.51"/>
        <path d="M198.69,211.27c10.32-3.02,21.16-4.24,31.89-3.56,3.07.19,6.14.54,9.17,1.04.19.03.27-.26.08-.29-10.66-1.75-21.59-1.64-32.21.35-3.04.57-6.05,1.29-9.02,2.16-.18.05-.11.34.08.29h0Z"/>
      </g>
      <path d="M176.59,226.13c1.5-1.12,3-2.23,4.5-3.35,1.38-1.03,2.74-2.11,4.21-3.01,2.89-1.76,6.4-2.37,9.71-2.8,6.26-.81,12.7-.39,18.76,1.4,3.4,1,6.65,2.44,9.67,4.31.16.1.32-.16.15-.26-5.43-3.36-11.64-5.31-17.99-5.93-3.21-.31-6.45-.28-9.65.07s-6.5.84-9.38,2.19c-1.83.85-3.43,2.14-5.04,3.34-1.7,1.26-3.39,2.52-5.09,3.79-.15.11,0,.37.15.26h0Z"/>
      <g>
        <path class="cls-3" d="M233.68,193.99c-4.13,2.01-8.17,4.19-12.12,6.53"/>
        <path d="M233.61,193.86c-4.13,2.01-8.17,4.19-12.12,6.53-.17.1-.02.36.15.26,3.95-2.35,7.99-4.53,12.12-6.53.17-.08.02-.34-.15-.26h0Z"/>
      </g>
      <g>
        <path class="cls-3" d="M247.17,174.08c-3.29,2.98-7.44,4.78-11.52,6.54-2.03.87-4.07,1.75-6.1,2.62"/>
        <path d="M247.07,173.98c-2.38,2.14-5.2,3.68-8.08,5.01-3.13,1.45-6.33,2.76-9.5,4.12-.18.08-.02.33.15.26,3.22-1.38,6.47-2.71,9.64-4.19,2.86-1.33,5.65-2.87,8.01-5,.14-.13-.07-.34-.21-.21h0Z"/>
      </g>
      <g>
        <path class="cls-3" d="M204.85,198.08c2.71-3.66,6.25-6.72,10.27-8.87"/>
        <path d="M204.98,198.15c2.11-2.83,4.7-5.3,7.64-7.27.83-.56,1.7-1.07,2.58-1.55.17-.09.02-.35-.15-.26-3.16,1.7-6.02,3.93-8.42,6.6-.67.74-1.31,1.52-1.9,2.33-.12.16.15.3.26.15h0Z"/>
      </g>
      <g>
        <path class="cls-3" d="M207.14,197.9c3.1-1.95,6.02-4.19,8.7-6.7"/>
        <path d="M207.21,198.03c2.42-1.52,4.72-3.22,6.89-5.07.63-.54,1.24-1.09,1.84-1.65.14-.13-.07-.34-.21-.21-2.08,1.94-4.3,3.73-6.64,5.34-.67.46-1.34.9-2.03,1.34-.16.1-.01.36.15.26h0Z"/>
      </g>
      <g>
        <path class="cls-3" d="M206.97,199.89c8.11-3.95,16.12-8.12,24-12.51"/>
        <path d="M207.04,200.02c8.11-3.95,16.11-8.12,24-12.51.17-.09.02-.35-.15-.26-7.88,4.39-15.89,8.56-24,12.51-.17.08-.02.34.15.26h0Z"/>
      </g>
      <g>
        <path class="cls-3" d="M166.2,228.75c3.16-3.22,6.33-6.44,9.49-9.66,2.32-2.36,4.66-4.75,6.39-7.57"/>
        <path d="M166.31,228.86c2.24-2.28,4.49-4.56,6.73-6.85,2.12-2.15,4.3-4.26,6.28-6.54,1.06-1.22,2.05-2.5,2.9-3.87.1-.16-.16-.32-.26-.15-1.54,2.48-3.52,4.62-5.55,6.7-2.17,2.22-4.35,4.43-6.52,6.64l-3.79,3.85c-.14.14.08.35.21.21h0Z"/>
      </g>
      <g>
        <path class="cls-3" d="M175.01,214.07c2.4-3.83,5.25-7.38,8.47-10.55"/>
        <path d="M175.14,214.15c1.87-2.97,4-5.78,6.37-8.37.67-.73,1.36-1.45,2.07-2.15.14-.14-.07-.35-.21-.21-2.51,2.47-4.79,5.17-6.81,8.05-.58.83-1.14,1.67-1.68,2.53-.1.16.16.31.26.15h0Z"/>
      </g>
      <g>
        <path class="cls-3" d="M162.45,232.01c2.38-4.04,4.76-8.09,7.15-12.13.99-1.67,1.97-3.35,2.81-5.1,2.25-4.69,3.51-10.01,7.01-13.86"/>
        <path d="M162.58,232.09c2.56-4.35,5.13-8.68,7.68-13.04,1.17-1.99,2.25-4.02,3.16-6.15.81-1.91,1.53-3.86,2.37-5.76.97-2.2,2.13-4.32,3.75-6.12.13-.14-.08-.36-.21-.21-2.78,3.1-4.17,7.05-5.71,10.84-1.82,4.48-4.39,8.57-6.84,12.72-1.48,2.52-2.97,5.04-4.45,7.56-.1.17.16.32.26.15h0Z"/>
      </g>
      <g>
        <path class="cls-3" d="M161.81,230.61c.38-5.58,2.32-11.05,5.55-15.61,3.07-4.35,7.35-8.04,8.92-13.12"/>
        <path d="M161.96,230.61c.32-4.49,1.62-8.88,3.81-12.81,2.04-3.66,4.99-6.62,7.47-9.97,1.34-1.81,2.5-3.76,3.19-5.92.06-.18-.23-.26-.29-.08-1.3,4.09-4.28,7.25-6.93,10.51-2.71,3.32-4.88,6.95-6.18,11.06-.74,2.34-1.19,4.76-1.37,7.21-.01.19.29.19.3,0h0Z"/>
      </g>
      <g>
        <path class="cls-3" d="M169.91,207.72c1.67-6.79,6.87-12.35,8.21-19.21"/>
        <path d="M170.05,207.76c1.34-5.33,4.73-9.79,6.83-14.8.6-1.42,1.08-2.89,1.39-4.41.04-.19-.25-.27-.29-.08-1.09,5.44-4.48,9.96-6.71,14.94-.62,1.38-1.14,2.8-1.51,4.26-.05.19.24.27.29.08h0Z"/>
      </g>
      <g>
        <path class="cls-3" d="M183.32,213.23c1-3.82,3.74-6.9,6.4-9.82,1.5-1.65,3-3.3,4.49-4.95"/>
        <path d="M183.47,213.27c1.22-4.54,4.76-7.99,7.82-11.37,1.01-1.11,2.02-2.23,3.03-3.34.13-.14-.08-.36-.21-.21-1.77,1.96-3.56,3.9-5.32,5.87-1.52,1.7-3,3.46-4.13,5.45-.63,1.11-1.14,2.29-1.47,3.52-.05.19.24.27.29.08h0Z"/>
      </g>
      <g>
        <path class="cls-3" d="M179.69,198.57c1.34-2.58,2.2-5.4,2.52-8.28"/>
        <path d="M179.82,198.65c1.35-2.61,2.21-5.44,2.54-8.36.02-.19-.28-.19-.3,0-.32,2.86-1.17,5.65-2.5,8.21-.09.17.17.32.26.15h0Z"/>
      </g>
      <g>
        <path class="cls-3" d="M189.36,201.69c3.98-5.4,7.98-10.81,11.19-16.7,3.21-5.89,5.63-12.3,6.23-18.98.18-2.04.19-4.09.39-6.13.65-6.77,3.3-13.46,2.32-20.19"/>
        <path d="M189.49,201.77c5.21-7.05,10.47-14.19,13.92-22.3,1.61-3.8,2.82-7.79,3.36-11.89.3-2.27.32-4.56.49-6.84s.57-4.55,1.02-6.8c.94-4.7,2.04-9.47,1.37-14.29-.03-.19-.32-.11-.29.08.61,4.4-.29,8.79-1.16,13.09-.42,2.07-.83,4.15-1.08,6.25-.26,2.22-.27,4.46-.46,6.69-.72,8.62-4.45,16.66-9.03,23.88-2.61,4.12-5.51,8.05-8.4,11.97-.11.16.15.31.26.15h0Z"/>
      </g>
      <g>
        <path class="cls-3" d="M211.66,158.52c-.75,7.28-2.27,14.47-3.79,21.63"/>
        <path d="M211.51,158.52c-.76,7.28-2.27,14.44-3.78,21.59-.04.19.25.27.29.08,1.52-7.17,3.04-14.37,3.79-21.67.02-.19-.28-.19-.3,0h0Z"/>
      </g>
      <g>
        <path class="cls-3" d="M205.94,184.43c-2.16,4.43-4.56,8.74-7.18,12.91-1.01,1.61-2.07,3.22-3.46,4.53"/>
        <path d="M205.81,184.35c-1.52,3.11-3.16,6.16-4.9,9.14-.86,1.47-1.74,2.92-2.65,4.35s-1.86,2.76-3.06,3.91c-.14.13.07.35.21.21,1.17-1.12,2.11-2.42,2.98-3.78.93-1.44,1.82-2.92,2.7-4.4,1.78-3.03,3.44-6.13,4.99-9.29.08-.17-.17-.32-.26-.15h0Z"/>
      </g>
      <g>
        <path class="cls-3" d="M206.15,140.86c-2.8,5.51-3.34,11.91-5.88,17.54-1.46,3.23-3.6,6.31-3.79,9.85"/>
        <path d="M206.02,140.79c-1.73,3.45-2.62,7.2-3.63,10.9-.51,1.88-1.07,3.75-1.79,5.56-.73,1.83-1.7,3.54-2.55,5.31s-1.58,3.68-1.71,5.7c-.01.19.29.19.3,0,.25-3.81,2.6-6.98,4.04-10.4,1.45-3.44,2.23-7.11,3.27-10.68.62-2.14,1.34-4.25,2.34-6.24.09-.17-.17-.32-.26-.15h0Z"/>
      </g>
      <g>
        <path class="cls-3" d="M204.53,155.91c-1.1,9.61-3.61,19.05-7.42,27.93"/>
        <path d="M204.38,155.91c-1.11,9.58-3.61,18.99-7.4,27.86-.08.18.18.33.26.15,3.81-8.92,6.32-18.37,7.44-28.01.02-.19-.28-.19-.3,0h0Z"/>
      </g>
      <g>
        <path class="cls-3" d="M212.55,147.43c2.88,9.09,3.05,19.03.48,28.21"/>
        <path d="M212.4,147.47c2.86,9.1,3.02,18.94.48,28.13-.05.19.24.27.29.08,2.56-9.24,2.39-19.14-.48-28.29-.06-.18-.35-.11-.29.08h0Z"/>
      </g>
      <ellipse class="cls-9" cx="219.22" cy="184.43" rx="5.82" ry="2.75" transform="translate(-63.21 232.42) rotate(-49.72)"/>
      <ellipse class="cls-9" cx="220.64" cy="194.55" rx="4.72" ry="2.23" transform="translate(-70.43 237.09) rotate(-49.72)"/>
      <ellipse class="cls-9" cx="98.81" cy="144.03" rx="2.44" ry="7.47" transform="translate(-58.77 68.7) rotate(-30)"/>
      <ellipse class="cls-9" cx="108.65" cy="130.88" rx="2.93" ry="9.86" transform="translate(-25.9 26.8) rotate(-12.58)"/>
      <ellipse class="cls-9" cx="129.75" cy="114.61" rx="3.12" ry="8.8" transform="translate(-6.45 7.74) rotate(-3.33)"/>
      <path class="cls-4" d="M141.33,116.69s-6.74,10.04-6.44,26.03"/>
      <ellipse class="cls-9" cx="138.39" cy="132.1" rx="10.79" ry="3.28" transform="translate(.23 264.44) rotate(-87.44)"/>
      <ellipse class="cls-9" cx="121.17" cy="130.88" rx="2.64" ry="8.3" transform="translate(-15.21 15.93) rotate(-7.08)"/>
      <path class="cls-4" d="M105.02,164.6c-10.63-1.07-20.51,5.44-20.51,5.44-8.06,3.98-13.19,15.07-11.51,27.73,1.67,12.66,7.01,20.93,12.14,25.64,5.13,4.71,11.3,1.05,12.35-.52,1.05-1.57.84-15.49,6.8-18.94,5.96-3.45,18.63-14.13,22.92-17.37,4.29-3.24,18.64-15.56,6.75-18.23,0,0-7.85-.36-12.67,2.9,0,0-9.1-5.92-16.26-6.64Z"/>
      <g>
        <path class="cls-3" d="M88.34,214.62c-1.3-2.91-1.5-6.22-1.11-9.38.39-3.16,1.35-6.23,2.31-9.27.52-1.67,1.06-3.36,1.97-4.86.78-1.28,1.82-2.39,2.88-3.45,6.1-6.05,13.43-10.87,21.42-14.05"/>
        <path d="M88.47,214.54c-1.51-3.48-1.5-7.36-.82-11.04.34-1.84.85-3.65,1.39-5.44.54-1.78,1.04-3.62,1.79-5.33,1.37-3.14,4.09-5.51,6.62-7.73s5.3-4.26,8.18-6.07c3.24-2.03,6.66-3.76,10.21-5.19.18-.07.1-.36-.08-.29-6.49,2.61-12.54,6.25-17.87,10.78-1.35,1.15-2.66,2.36-3.91,3.62-1.23,1.24-2.35,2.56-3.13,4.13s-1.29,3.37-1.82,5.08c-.59,1.9-1.16,3.82-1.56,5.77-.81,3.94-.9,8.11.73,11.85.08.18.34.02.26-.15h0Z"/>
      </g>
      <g>
        <path class="cls-3" d="M95.43,211.62c-.78-4.86.37-9.88,2.42-14.37,2.05-4.48,4.95-8.51,7.87-12.48,2.35-3.19,4.77-6.42,8.02-8.68"/>
        <path d="M95.58,211.58c-1.69-10.96,5.66-20.81,11.96-28.98,1.83-2.37,3.82-4.64,6.28-6.37.16-.11,0-.37-.15-.26-4.33,3.05-7.4,7.69-10.42,11.96-3.2,4.52-6.15,9.36-7.49,14.79-.72,2.93-.94,5.96-.48,8.94.03.19.32.11.29-.08h0Z"/>
      </g>
      <g>
        <path class="cls-3" d="M108.96,185.95c.99-1.71,2.14-3.33,3.43-4.83"/>
        <path d="M109.09,186.03c.77-1.32,1.62-2.59,2.57-3.79.27-.34.55-.68.83-1.01.13-.15-.09-.36-.21-.21-1.01,1.17-1.93,2.42-2.76,3.73-.24.37-.47.75-.69,1.14-.1.17.16.32.26.15h0Z"/>
      </g>
      <g>
        <path class="cls-3" d="M113.65,185.03c-.16-2.02.66-4.01,1.87-5.63,1.21-1.62,2.78-2.92,4.34-4.21,1.48-1.22,2.96-2.44,4.46-3.64"/>
        <path d="M113.8,185.03c-.34-4.81,4.09-8.03,7.38-10.74,1.08-.89,2.16-1.77,3.25-2.64.15-.12-.06-.33-.21-.21-1.97,1.56-3.93,3.15-5.83,4.79-1.71,1.47-3.34,3.13-4.24,5.23-.48,1.13-.74,2.34-.65,3.57.01.19.31.19.3,0h0Z"/>
      </g>
      <g>
        <path class="cls-3" d="M117.29,188.38c5.08-3.7,9.36-8.49,12.47-13.94"/>
        <path d="M117.37,188.51c3.96-2.89,7.44-6.43,10.27-10.44.81-1.15,1.56-2.34,2.26-3.56.1-.17-.16-.32-.26-.15-2.42,4.23-5.52,8.05-9.17,11.27-1.04.92-2.13,1.79-3.25,2.62-.15.11,0,.37.15.26h0Z"/>
      </g>
      <g>
        <path class="cls-3" d="M82.42,202.85c1.64-6.94,3.47-14.25,8.45-19.35,3.59-3.68,8.47-5.82,13.38-7.34"/>
        <path d="M82.56,202.89c1.07-4.54,2.18-9.14,4.27-13.34,1.04-2.08,2.33-4.04,3.93-5.73,1.68-1.77,3.68-3.21,5.82-4.38,2.44-1.33,5.05-2.31,7.7-3.14.18-.06.11-.35-.08-.29-4.64,1.45-9.28,3.42-12.86,6.8-3.43,3.24-5.51,7.57-6.95,12.01-.85,2.63-1.5,5.31-2.13,8-.04.19.24.27.29.08h0Z"/>
      </g>
      <g>
        <path class="cls-3" d="M84.16,182.76c6.26-7.35,16.4-11.21,25.96-9.88"/>
        <path d="M84.27,182.86c4.88-5.68,12-9.28,19.45-9.97,2.12-.2,4.25-.15,6.36.13.19.03.27-.26.08-.29-7.54-1.02-15.36,1.06-21.46,5.59-1.71,1.26-3.26,2.71-4.65,4.33-.13.15.09.36.21.21h0Z"/>
      </g>
      <g>
        <path class="cls-3" d="M95.05,171.73c4.12-1.75,8.72-2.36,13.15-1.73"/>
        <path d="M95.13,171.86c4.09-1.73,8.64-2.33,13.04-1.71.19.03.27-.26.08-.29-4.49-.63-9.09-.02-13.27,1.74-.18.07-.02.33.15.26h0Z"/>
      </g>
      <g>
        <path class="cls-3" d="M84.97,213.39c.55,3.9,2.69,7.36,4.78,10.69"/>
        <path d="M84.82,213.43c.57,3.95,2.71,7.41,4.79,10.73.1.16.36.01.26-.15-2.07-3.3-4.2-6.73-4.76-10.66-.03-.19-.32-.11-.29.08h0Z"/>
      </g>
      <g>
        <path class="cls-3" d="M80.91,186.37c-1.6,2.05-2.42,4.7-2.26,7.29"/>
        <path d="M80.8,186.26c-1.26,1.63-2.05,3.59-2.27,5.63-.06.59-.07,1.18-.04,1.76.01.19.31.19.3,0-.15-2.56.64-5.16,2.22-7.19.12-.15-.09-.36-.21-.21h0Z"/>
      </g>
    </g>
    <path d="M172.54,233.3c7.61-5.6,15.78-10.42,24.37-14.36.18-.08.02-.34-.15-.26-8.59,3.94-16.76,8.75-24.37,14.36-.15.11,0,.37.15.26h0Z"/>
    <path d="M175.39,233.27c6.42-4.35,13.5-7.57,20.67-10.49,2.05-.83,4.1-1.64,6.15-2.45.18-.07.1-.36-.08-.29-7.19,2.83-14.41,5.68-21.17,9.45-1.96,1.09-3.87,2.26-5.72,3.52-.16.11,0,.37.15.26h0Z"/>
    <path d="M130.48,187.64c3.69,8.26,6.75,16.8,9.14,25.52.05.19.34.11.29-.08-2.4-8.75-5.46-17.31-9.17-25.59-.08-.18-.34-.02-.26.15h0Z"/>
    <path d="M132.24,186c1.99,1.97,2.98,4.64,3.68,7.3.8,3.05,1.44,6.16,2.14,9.24.04.19.33.11.29-.08-.72-3.17-1.36-6.37-2.21-9.5-.71-2.62-1.73-5.23-3.69-7.17-.14-.14-.35.08-.21.21h0Z"/>
    <path d="M135.92,183.48c1.75,5.65,3.16,11.4,4.22,17.22.03.19.32.11.29-.08-1.06-5.82-2.47-11.57-4.22-17.22-.06-.18-.35-.11-.29.08h0Z"/>
    <path d="M126.6,188.83c.81,2.25,1.65,4.48,2.52,6.7.43,1.09.86,2.18,1.31,3.27.36.88.73,1.78,1.45,2.43.14.13.36-.08.21-.21-.78-.69-1.13-1.7-1.51-2.64-.43-1.05-.85-2.1-1.26-3.16-.84-2.15-1.65-4.31-2.43-6.48-.06-.18-.35-.1-.29.08h0Z"/>
    <path d="M125.12,192.82c2.44,5.66,5.47,11.05,9.03,16.08.11.16.37,0,.26-.15-3.56-5.03-6.59-10.42-9.03-16.08-.08-.18-.33-.02-.26.15h0Z"/>
    <path d="M132.86,203.55c1.38,2.27,2.76,4.54,4.14,6.82.1.16.36.01.26-.15-1.38-2.27-2.76-4.54-4.14-6.82-.1-.16-.36-.01-.26.15h0Z"/>
  </g>
  <g>
    <path class="cls-12" d="M17.76,4.7l.43.83c2.53,4.84,5.79,9.26,9.66,13.1l.05.05-.05.05c-3.87,3.85-7.13,8.27-9.66,13.1l-.43.83-.43-.83c-2.53-4.84-5.79-9.26-9.66-13.1l-.05-.05.05-.05c3.87-3.85,7.13-8.27,9.66-13.1l.43-.83Z"/>
    <path class="cls-12" d="M44.53,10.09l.24.47c1.57,3,3.59,5.74,5.99,8.12h0s0,0,0,0c-2.4,2.38-4.42,5.12-5.99,8.12l-.24.47-.24-.47c-1.57-3-3.59-5.74-5.99-8.12h0s0,0,0,0c2.4-2.38,4.42-5.12,5.99-8.12l.24-.47Z"/>
    <path class="cls-12" d="M17.76,398.2l.43.83c2.53,4.84,5.79,9.26,9.66,13.1l.05.05-.05.05c-3.87,3.85-7.13,8.27-9.66,13.1l-.43.83-.43-.83c-2.53-4.84-5.79-9.26-9.66-13.1l-.05-.05.05-.05c3.87-3.85,7.13-8.27,9.66-13.1l.43-.83Z"/>
    <path class="cls-12" d="M44.53,403.6l.24.47c1.57,3,3.59,5.74,5.99,8.12h0s0,0,0,0c-2.4,2.38-4.42,5.12-5.99,8.12l-.24.47-.24-.47c-1.57-3-3.59-5.74-5.99-8.12h0s0,0,0,0c2.4-2.38,4.42-5.12,5.99-8.12l.24-.47Z"/>
    <path class="cls-12" d="M271.38,4.7l-.43.83c-2.53,4.84-5.79,9.26-9.66,13.1l-.05.05.05.05c3.87,3.85,7.13,8.27,9.66,13.1l.43.83.43-.83c2.53-4.84,5.79-9.26,9.66-13.1l.05-.05-.05-.05c-3.87-3.85-7.13-8.27-9.66-13.1l-.43-.83Z"/>
    <path class="cls-12" d="M244.6,10.09l-.24.47c-1.57,3-3.59,5.74-5.99,8.12h0s0,0,0,0c2.4,2.38,4.42,5.12,5.99,8.12l.24.47.24-.47c1.57-3,3.59-5.74,5.99-8.12h0s0,0,0,0c-2.4-2.38-4.42-5.12-5.99-8.12l-.24-.47Z"/>
    <path class="cls-12" d="M271.38,398.2l-.43.83c-2.53,4.84-5.79,9.26-9.66,13.1l-.05.05.05.05c3.87,3.85,7.13,8.27,9.66,13.1l.43.83.43-.83c2.53-4.84,5.79-9.26,9.66-13.1l.05-.05-.05-.05c-3.87-3.85-7.13-8.27-9.66-13.1l-.43-.83Z"/>
    <path class="cls-12" d="M244.6,403.6l-.24.47c-1.57,3-3.59,5.74-5.99,8.12h0s0,0,0,0c2.4,2.38,4.42,5.12,5.99,8.12l.24.47.24-.47c1.57-3,3.59-5.74,5.99-8.12h0s0,0,0,0c-2.4-2.38-4.42-5.12-5.99-8.12l-.24-.47Z"/>
  </g>
</svg>