<?xml version="1.0" encoding="UTF-8"?>
<svg id="Layer_1" data-name="Layer 1" xmlns="http://www.w3.org/2000/svg" xmlns:xlink="http://www.w3.org/1999/xlink" viewBox="0 0 289.13 430.87">
  <defs>
    <style>
      .cls-1, .cls-2, .cls-3 {
        fill: none;
      }

      .cls-4, .cls-5 {
        fill: #fff8dc;
      }

      .cls-4, .cls-5, .cls-6, .cls-7, .cls-2 {
        stroke-miterlimit: 10;
      }

      .cls-4, .cls-5, .cls-6, .cls-7, .cls-2, .cls-3, .cls-8 {
        stroke: #000;
      }

      .cls-4, .cls-6, .cls-7, .cls-2, .cls-3, .cls-8 {
        stroke-width: .5px;
      }

      .cls-9 {
        font-family: Pretendard-Regular-KSCpc-EUC-H, Pretendard;
      }

      .cls-9, .cls-10 {
        font-size: 14px;
      }

      .cls-6 {
        fill: #d3e29a;
      }

      .cls-11 {
        clip-path: url(#clippath-1);
      }

      .cls-12 {
        clip-path: url(#clippath-2);
      }

      .cls-7 {
        fill: #f4f9fd;
      }

      .cls-13 {
        fill: #fff;
      }

      .cls-10 {
        font-family: 'IM_FELL_Double_Pica_SC', 'IM FELL Double Pica SC';
      }

      .cls-3, .cls-8 {
        stroke-linecap: round;
        stroke-linejoin: round;
      }

      .cls-8 {
        fill: #f9f1ac;
      }

      .cls-14 {
        clip-path: url(#clippath);
      }
    </style>
    <clipPath id="clippath">
      <rect class="cls-1" x="-299.61" y="35.22" width="261.08" height="360.43" rx="30" ry="30"/>
    </clipPath>
    <clipPath id="clippath-1">
      <rect class="cls-1" x="14.03" y="35.22" width="261.08" height="360.43" rx="30" ry="30"/>
    </clipPath>
    <clipPath id="clippath-2">
      <rect class="cls-1" x="323.16" y="35.22" width="261.08" height="360.43" rx="30" ry="30"/>
    </clipPath>
  </defs>
  <rect class="cls-5" y="0" width="289.13" height="430.87"/>
  <rect class="cls-7" x="14.03" y="35.22" width="261.08" height="360.43" rx="30" ry="30"/>
  <text class="cls-10" transform="translate(90.25 23.6)"><tspan x="0" y="0">WHITE TULIPS</tspan></text>
  <text class="cls-9" transform="translate(107.27 415.46)"><tspan x="0" y="0">흰 튤립 · 불안</tspan></text>
  <path class="cls-8" d="M16.59,5.73l.43.83c2.53,4.84,5.79,9.26,9.66,13.1l.05.05-.05.05c-3.87,3.85-7.13,8.27-9.66,13.1l-.43.83-.43-.83c-2.53-4.84-5.79-9.26-9.66-13.1l-.05-.05.05-.05c3.87-3.85,7.13-8.27,9.66-13.1l.43-.83Z"/>
  <path class="cls-8" d="M273.32,5.73l.43.83c2.53,4.84,5.79,9.26,9.66,13.1l.05.05-.05.05c-3.87,3.85-7.13,8.27-9.66,13.1l-.43.83-.43-.83c-2.53-4.84-5.79-9.26-9.66-13.1l-.05-.05.05-.05c3.87-3.85,7.13-8.27,9.66-13.1l.43-.83Z"/>
  <path class="cls-8" d="M209.35,11.12l.24.47c1.57,3,3.59,5.74,5.99,8.12h0s0,0,0,0c-2.4,2.38-4.42,5.12-5.99,8.12l-.24.47-.24-.47c-1.57-3-3.59-5.74-5.99-8.12h0s0,0,0,0c2.4-2.38,4.42-5.12,5.99-8.12l.24-.47Z"/>
  <path class="cls-8" d="M80.94,11.12l.24.47c1.57,3,3.59,5.74,5.99,8.12h0s0,0,0,0c-2.4,2.38-4.42,5.12-5.99,8.12l-.24.47-.24-.47c-1.57-3-3.59-5.74-5.99-8.12h0s0,0,0,0c2.4-2.38,4.42-5.12,5.99-8.12l.24-.47Z"/>
  <path class="cls-8" d="M16.59,397.53l.43.83c2.53,4.84,5.79,9.26,9.66,13.1l.05.05-.05.05c-3.87,3.85-7.13,8.27-9.66,13.1l-.43.83-.43-.83c-2.53-4.84-5.79-9.26-9.66-13.1l-.05-.05.05-.05c3.87-3.85,7.13-8.27,9.66-13.1l.43-.83Z"/>
  <path class="cls-8" d="M273.32,397.53l.43.83c2.53,4.84,5.79,9.26,9.66,13.1l.05.05-.05.05c-3.87,3.85-7.13,8.27-9.66,13.1l-.43.83-.43-.83c-2.53-4.84-5.79-9.26-9.66-13.1l-.05-.05.05-.05c3.87-3.85,7.13-8.27,9.66-13.1l.43-.83Z"/>
  <path class="cls-8" d="M206.2,402.92l.24.47c1.57,3,3.59,5.74,5.99,8.12h0s0,0,0,0c-2.4,2.38-4.42,5.12-5.99,8.12l-.24.47-.24-.47c-1.57-3-3.59-5.74-5.99-8.12h0s0,0,0,0c2.4-2.38,4.42-5.12,5.99-8.12l.24-.47Z"/>
  <path class="cls-8" d="M82.77,402.92l.24.47c1.57,3,3.59,5.74,5.99,8.12h0s0,0,0,0c-2.4,2.38-4.42,5.12-5.99,8.12l-.24.47-.24-.47c-1.57-3-3.59-5.74-5.99-8.12h0s0,0,0,0c2.4-2.38,4.42-5.12,5.99-8.12l.24-.47Z"/>
  <g class="cls-14">
    <g>
      <rect class="cls-13" x="-197.39" y="340.69" width="273.51" height="17.97" rx="8.99" ry="8.99"/>
      <g>
        <path class="cls-13" d="M-141.98,336.95c-1.47-2.64-4.28-4.43-7.52-4.43-4.74,0-8.59,3.85-8.59,8.59v5.05H37.32l-.21-6.77-18.8-2.26-9.19-14.17-19.5.7-12.8,8.81-9.58-9.51-7.34-2.4-8.85-1.11-12.16-15.64-12.52-1.87-13.47,12.15-7.87,8.51-12.55-5.41-6.34,1.08-7.62,4.62-19.03,6.88-1.47,7.16Z"/>
        <path class="cls-13" d="M-21.87,333.91c0-8.95,8.99-16.21,20.09-16.21s20.09,7.26,20.09,16.21v5.61"/>
        <path class="cls-13" d="M18.31,339.4c0-3.82,4.21-6.91,9.4-6.91s9.4,3.1,9.4,6.91v2.4h21.04"/>
        <circle class="cls-13" cx="-1.48" cy="342.97" r="2.75"/>
        <path class="cls-13" d="M8.11,326.77c2.16,2.01,4.09,5.05,4.6,9.61"/>
        <path class="cls-13" d="M.8,322.98s1.74.28,3.9,1.4"/>
      </g>
      <g>
        <line class="cls-3" x1="62.61" y1="340.99" x2="70.19" y2="340.99"/>
        <line class="cls-3" x1="-165.91" y1="357.86" x2="29.78" y2="357.86"/>
        <line class="cls-3" x1="-97.12" y1="350.23" x2="6.61" y2="350.23"/>
        <line class="cls-3" x1="13.94" y1="350.23" x2="19.55" y2="350.23"/>
        <line class="cls-3" x1="24.16" y1="350.23" x2="75.41" y2="350.23"/>
        <path class="cls-3" d="M-21.87,333.1c0-8.95,8.99-16.21,20.09-16.21s20.09,7.26,20.09,16.21v5.61"/>
        <path class="cls-3" d="M18.31,338.6c0-3.82,4.21-6.91,9.4-6.91s9.4,3.1,9.4,6.91v2.4h21.04"/>
        <circle class="cls-3" cx="-1.48" cy="342.16" r="2.75"/>
        <path class="cls-3" d="M8.11,325.96c2.16,2.01,4.09,5.05,4.6,9.61"/>
        <path class="cls-3" d="M.8,322.17s1.74.28,3.9,1.4"/>
      </g>
    </g>
  </g>
  <g class="cls-11">
    <g>
      <rect class="cls-13" x="75.43" y="158.86" width="280.56" height="10.6" rx="5.3" ry="5.3"/>
      <g>
        <path class="cls-13" d="M277.22,130.1v-12.27c0-22.82-18.5-41.32-41.32-41.32s-41.32,18.5-41.32,41.32"/>
        <path class="cls-13" d="M158.76,134.54c3.56-11.14,13.32-19.14,24.81-19.14,12.78,0,23.43,9.9,25.77,23"/>
        <path class="cls-13" d="M138.59,147.88c0-8.44,5.93-15.28,13.24-15.28,6.18,0,11.36,4.88,12.83,11.49"/>
        <path class="cls-13" d="M211.72,140.45c2.77-2.91,6.55-4.7,10.73-4.7,8.48,0,15.35,7.4,15.35,16.53"/>
        <path class="cls-13" d="M110.02,162.53h211.42v-3.26l-20.39-16.95c0-8.61-6.48-15.59-14.48-15.59s-14.48,6.98-14.48,15.59"/>
        <path class="cls-13" d="M202.62,143.43c0-2.77,2.17-5.02,4.86-5.02s4.86,2.25,4.86,5.02"/>
        <path class="cls-13" d="M151.18,155.44c0-2.77-2.17-5.02-4.86-5.02-1.51,0-2.86.71-3.75,1.83"/>
        <path class="cls-13" d="M160.39,150.42c0-3.86,3.8-6.99,8.49-6.99s8.49,3.13,8.49,6.99"/>
        <path class="cls-13" d="M98.72,162.53h11.3v-2.61c0-8.44,7.75-15.28,17.32-15.28,6.48,0,12.13,3.14,15.1,7.8,1.41,2.21,2.22,4.76,2.22,7.48"/>
        <path class="cls-13" d="M185.86,122.72s5.1,0,7.27,2.22"/>
        <path class="cls-13" d="M195.48,126.91s3.6,2.54,4.82,8.84"/>
        <path class="cls-13" d="M246.56,86.36s5.92,1.57,8.49,4.57"/>
        <path class="cls-13" d="M258.11,93.21s13.41,10.84,8.99,31.18"/>
        <circle class="cls-13" cx="255.3" cy="152.37" r="2.98"/>
        <circle class="cls-13" cx="131.77" cy="135.74" r="3.08"/>
        <circle class="cls-13" cx="208.64" cy="108.8" r="2.4"/>
      </g>
      <path class="cls-13" d="M303.92,156.93l-26.7-26.83-33.48-14.7s-28.57.28-32.7,0-12.53-2.45-12.53-2.45l-12.64,13.78-15.77,5.19-25.44,6.91-11.11,16.61-23.52,7.1"/>
      <g>
        <path class="cls-3" d="M194.59,117.42c0-22.82,18.5-41.32,41.32-41.32s41.32,18.5,41.32,41.32v12.27"/>
        <path class="cls-3" d="M158.76,134.13c3.56-11.14,13.32-19.14,24.81-19.14,12.78,0,23.43,9.9,25.77,23"/>
        <path class="cls-3" d="M138.59,147.47c0-8.44,5.93-15.28,13.24-15.28,6.18,0,11.36,4.88,12.83,11.49"/>
        <path class="cls-3" d="M211.72,140.04c2.77-2.91,6.55-4.7,10.73-4.7,8.48,0,15.35,7.4,15.35,16.53"/>
        <path class="cls-3" d="M272.1,141.91c0-8.61,6.48-15.59,14.48-15.59s14.48,6.98,14.48,15.59"/>
        <path class="cls-3" d="M202.62,143.01c0-2.77,2.17-5.02,4.86-5.02s4.86,2.25,4.86,5.02"/>
        <path class="cls-3" d="M151.18,155.02c0-2.77-2.17-5.02-4.86-5.02-1.51,0-2.86.71-3.75,1.83"/>
        <path class="cls-3" d="M160.39,150c0-3.86,3.8-6.99,8.49-6.99s8.49,3.13,8.49,6.99"/>
        <line class="cls-3" x1="198.51" y1="162.12" x2="292.05" y2="162.12"/>
        <line class="cls-3" x1="124.37" y1="162.12" x2="181.56" y2="162.12"/>
        <path class="cls-3" d="M98.72,158.86h11.3v.65c0-8.44,7.75-15.28,17.32-15.28,6.48,0,12.13,3.14,15.1,7.8,1.41,2.21,2.22,4.76,2.22,7.48"/>
        <line class="cls-3" x1="87.18" y1="158.86" x2="94.49" y2="158.86"/>
        <line class="cls-3" x1="187.33" y1="162.12" x2="191.33" y2="162.12"/>
        <path class="cls-3" d="M185.86,122.3s5.1,0,7.27,2.22"/>
        <path class="cls-3" d="M195.48,126.49s3.6,2.54,4.82,8.84"/>
        <path class="cls-3" d="M246.56,85.95s5.92,1.57,8.49,4.57"/>
        <path class="cls-3" d="M258.11,92.8s13.41,10.84,8.99,31.18"/>
        <line class="cls-3" x1="80.01" y1="169.33" x2="219.02" y2="169.33"/>
        <line class="cls-3" x1="225.27" y1="169.33" x2="252.9" y2="169.33"/>
        <line class="cls-3" x1="256.97" y1="169.33" x2="261.63" y2="169.33"/>
        <line class="cls-3" x1="267.01" y1="169.33" x2="351.05" y2="169.33"/>
        <circle class="cls-3" cx="255.3" cy="151.95" r="2.98"/>
        <circle class="cls-3" cx="131.77" cy="135.33" r="3.08"/>
        <circle class="cls-3" cx="208.64" cy="108.39" r="2.4"/>
      </g>
    </g>
    <g>
      <rect class="cls-13" x="-100.69" y="330.11" width="280.56" height="10.6" rx="5.3" ry="5.3"/>
      <g>
        <path class="cls-13" d="M101.11,301.35v-12.27c0-22.82-18.5-41.32-41.32-41.32s-41.32,18.5-41.32,41.32"/>
        <path class="cls-13" d="M-17.36,305.79c3.56-11.14,13.32-19.14,24.81-19.14,12.78,0,23.43,9.9,25.77,23"/>
        <path class="cls-13" d="M35.61,311.7c2.77-2.91,6.55-4.7,10.73-4.7,8.48,0,15.35,7.4,15.35,16.53"/>
        <path class="cls-13" d="M-66.09,333.78h211.42v-3.26l-20.39-16.95c0-8.61-6.48-15.59-14.48-15.59s-14.48,6.98-14.48,15.59"/>
        <path class="cls-13" d="M117.58,330.52c0-10.26,6.26-18.57,13.97-18.57s13.97,8.31,13.97,18.57h11.97"/>
        <path class="cls-13" d="M26.5,314.67c0-2.77,2.17-5.02,4.86-5.02s4.86,2.25,4.86,5.02"/>
        <path class="cls-13" d="M-15.72,321.66c0-3.86,3.8-6.99,8.49-6.99s8.49,3.13,8.49,6.99"/>
        <path class="cls-13" d="M9.75,293.97s5.1,0,7.27,2.22"/>
        <path class="cls-13" d="M19.37,298.15s3.6,2.54,4.82,8.84"/>
        <path class="cls-13" d="M70.44,257.61s5.92,1.57,8.49,4.57"/>
        <path class="cls-13" d="M82,264.46s13.41,10.84,8.99,31.18"/>
        <circle class="cls-13" cx="79.18" cy="323.62" r="2.98"/>
        <circle class="cls-13" cx="146.83" cy="285.69" r="4.05"/>
        <circle class="cls-13" cx="131.4" cy="300.77" r="2.4"/>
        <circle class="cls-13" cx="32.53" cy="280.05" r="2.4"/>
      </g>
      <path class="cls-13" d="M127.81,328.18l-26.7-26.83-33.48-14.7s-28.57.28-32.7,0-12.53-2.45-12.53-2.45l-12.64,13.78-15.77,5.19-25.44,6.91-11.11,16.61-23.52,7.1"/>
      <g>
        <path class="cls-3" d="M18.47,288.67c0-22.82,18.5-41.32,41.32-41.32s41.32,18.5,41.32,41.32v12.27"/>
        <path class="cls-3" d="M-17.36,305.38c3.56-11.14,13.32-19.14,24.81-19.14,12.78,0,23.43,9.9,25.77,23"/>
        <path class="cls-3" d="M35.61,311.28c2.77-2.91,6.55-4.7,10.73-4.7,8.48,0,15.35,7.4,15.35,16.53"/>
        <path class="cls-3" d="M95.98,313.16c0-8.61,6.48-15.59,14.48-15.59s14.48,6.98,14.48,15.59"/>
        <path class="cls-3" d="M117.58,330.11c0-10.26,6.26-18.57,13.97-18.57s13.97,8.31,13.97,18.57h11.97"/>
        <path class="cls-3" d="M26.5,314.26c0-2.77,2.17-5.02,4.86-5.02s4.86,2.25,4.86,5.02"/>
        <path class="cls-3" d="M-15.72,321.25c0-3.86,3.8-6.99,8.49-6.99s8.49,3.13,8.49,6.99"/>
        <line class="cls-3" x1="161.67" y1="330.11" x2="169.22" y2="330.11"/>
        <line class="cls-3" x1="22.39" y1="333.37" x2="115.94" y2="333.37"/>
        <line class="cls-3" x1="-51.74" y1="333.37" x2="5.45" y2="333.37"/>
        <line class="cls-3" x1="11.21" y1="333.37" x2="15.22" y2="333.37"/>
        <path class="cls-3" d="M9.75,293.55s5.1,0,7.27,2.22"/>
        <path class="cls-3" d="M19.37,297.74s3.6,2.54,4.82,8.84"/>
        <path class="cls-3" d="M70.44,257.2s5.92,1.57,8.49,4.57"/>
        <path class="cls-3" d="M82,264.04s13.41,10.84,8.99,31.18"/>
        <line class="cls-3" x1="-96.1" y1="340.58" x2="42.91" y2="340.58"/>
        <line class="cls-3" x1="49.16" y1="340.58" x2="76.79" y2="340.58"/>
        <line class="cls-3" x1="80.86" y1="340.58" x2="85.51" y2="340.58"/>
        <line class="cls-3" x1="90.89" y1="340.58" x2="174.94" y2="340.58"/>
        <circle class="cls-3" cx="79.18" cy="323.2" r="2.98"/>
        <circle class="cls-3" cx="146.83" cy="285.28" r="4.05"/>
        <circle class="cls-3" cx="131.4" cy="300.36" r="2.4"/>
        <circle class="cls-3" cx="32.53" cy="279.63" r="2.4"/>
      </g>
    </g>
  </g>
  <g>
    <g>
      <path class="cls-4" d="M197.04,112.71s6.79-15.47,16.46-11.98c9.67,3.49,11.03,24.82,11.03,24.82l-22.06,8.2-5.43-21.04Z"/>
      <path class="cls-4" d="M178.2,117.81s6.62-21.04,17.99-19.69c11.37,1.36,11.37,34.79,11.37,34.79l-20.02,19.01-11.18-12.34,1.84-21.77Z"/>
      <path class="cls-6" d="M155.38,346.42h0c1.91,0,3.63-1.15,4.35-2.92,3-7.38,10.98-26.37,14.49-29.01,4.37-3.28,32.78-33.51,39.71-59.38,6.07-22.69,24.48-75.95,32.6-92.61.83-1.71-.94-3.5-2.66-2.68-6.04,2.85-16.12,9.55-24.84,24.62-13.48,23.31-24.77,37.52-31.69,53.55-6.92,16.03-15.3,24.04-15.3,24.04,0,0,8.74-71.42,15.66-81.43l-8.51-2.56s-7.16,30.44-11.53,51.2c-4.05,19.26-16.88,88.73-16.98,112.48-.01,2.59,2.1,4.69,4.7,4.69Z"/>
      <path class="cls-6" d="M131.61,346.42h0c-2.35,0-4.4-1.59-4.99-3.86-2.21-8.51-9.68-29.65-32.29-48.97-29.15-24.9-28.85-77.73-36.44-91.7-5.43-9.99-11.95-21.38-15.22-27.06-.87-1.5.47-3.33,2.16-2.94,8.13,1.88,26.48,8.96,42.1,35.46,20.76,35.22,36.24,75.91,36.24,75.91,0,0-8.92-90.29-20.52-106.57l13.2-4.77s2.41,7.9,11.6,74.45c0,0,10.49-72.45,21.22-72.12,5.96.19,16.4,71.66,7.89,95.65-7.67,21.65-17.57,56.4-19.87,72.12-.37,2.53-2.54,4.4-5.09,4.4Z"/>
      <path class="cls-4" d="M72.05,117.46s-3.45-26.54,11.01-27.34c14.46-.8,19.11,17.38,19.11,17.38l-11.15,17.38-18.98-7.43Z"/>
      <path class="cls-4" d="M95.94,105.78s.12-19.84,11.52-21.23c14.69-1.8,22.45,20.44,22.45,20.44l-14.33,20.57-19.64-19.77Z"/>
      <path class="cls-4" d="M116.64,123.96s2.92-35.56,16.32-37.42c13.4-1.86,14.33,39.41,14.07,42.73s3.32,37.95-22.69,46.44-14.2-22.96-14.2-22.96l6.5-28.8Z"/>
      <path class="cls-4" d="M81.21,123.03s-13-26.27-23.36-23.49c0,0-4.64.4.53,17.38s.66,24.28,7.83,38.62c7.17,14.33,19.64,28.26,38.35,23.22l-23.36-55.73Z"/>
      <path class="cls-4" d="M183.88,156.29s5.93-57.71-9.43-55.55c-18.65,2.63-13.68,59.67-12.58,65.4,1.47,7.69,7.38,21.19,23.18,21.5,15.81.3-1.17-31.35-1.17-31.35Z"/>
      <path class="cls-4" d="M179.68,186.87s-12.57-25.34,10.49-49.03c23.06-23.69,27.46-29.35,35.01-25.78,7.55,3.56,5.66,29.35,3.77,39.41-1.89,10.06-9.93,32.98-28.09,36.47-7.39,1.42-11.41.79-21.18-1.07Z"/>
      <path class="cls-4" d="M116.8,177.73c-2.12,1.6-8.08,2.86-10.7,2.48-2.77-.4-4.54-.61-6.72-.61-3.64,0-21.54-10.35-22.38-35.25-.84-24.9,3.64-40.57,13.99-41.96,10.35-1.4,15.04,2.6,17.69,6.45,2.65,3.85,14.33,18.18,17.25,27.73s1.46,28.53-2.52,33.97c-2.47,3.37-4.08,5.29-6.6,7.19Z"/>
    </g>
    <path class="cls-2" d="M172.03,262.04s-8.92,55.03-9.92,59.04"/>
    <path class="cls-2" d="M123.18,283.26s5.75,56.46,6.25,59.67"/>
    <path class="cls-2" d="M127.46,246.37s8.38,67.68,8.58,77.51"/>
    <path d="M212.12,208.56c-.47,6.03-2.39,11.89-4.6,17.48-2.37,6-5.19,11.8-7.94,17.63-1.25,2.65-2.48,5.31-3.62,8.01-1.35,3.19-2.54,6.43-3.79,9.66s-2.66,6.69-4.3,9.89-3.59,6.13-5.58,9.09c-2.19,3.26-4.36,6.52-6.12,10.04s-3.12,7.1-4.16,10.84c-.05.19.24.27.29.08.96-3.46,2.22-6.82,3.78-10.05s3.45-6.24,5.43-9.21,4.02-5.89,5.75-9,3.07-6.22,4.36-9.44,2.52-6.62,3.85-9.9c1.15-2.84,2.41-5.63,3.71-8.4,2.67-5.71,5.45-11.38,7.86-17.21,2.57-6.22,4.86-12.74,5.4-19.5.02-.19-.28-.19-.3,0h0Z"/>
    <path d="M205.51,255.27c-3.38,12.68-12.06,22.88-19.38,33.45-2.11,3.04-4.13,6.14-5.92,9.38-.09.17.17.32.26.15,6.37-11.46,15.54-21.14,21.45-32.87,1.62-3.21,2.95-6.56,3.88-10.03.05-.19-.24-.27-.29-.08h0Z"/>
    <path d="M224.54,188.72c-.7,8.37-2.87,16.6-5.25,24.62-2.19,7.37-4.66,14.67-7.12,21.96-1.56,4.63-3.28,9.22-5.57,13.55-.09.17.17.32.26.15,3.7-6.99,5.91-14.62,8.41-22.09,2.72-8.12,5.35-16.29,7.29-24.64,1.04-4.46,1.89-8.98,2.27-13.55.02-.19-.28-.19-.3,0h0Z"/>
    <path d="M191.66,244.71c-5.03,9.22-9.73,18.71-13.65,28.46-.98,2.44-1.91,4.91-2.68,7.42-.06.19.23.26.29.08,1.47-4.81,3.46-9.47,5.51-14.06,2.23-4.98,4.61-9.9,7.1-14.76,1.2-2.35,2.43-4.68,3.69-7,.09-.17-.17-.32-.26-.15h0Z"/>
    <path d="M54.43,184.36c8.49,12.35,16.64,24.94,24.42,37.75,2.18,3.58,4.32,7.18,6.44,10.8.1.17.36.02.26-.15-7.58-12.93-15.52-25.65-23.82-38.14-2.32-3.49-4.67-6.96-7.04-10.41-.11-.16-.37,0-.26.15h0Z"/>
    <path d="M86.65,240.63c2.58,5.64,5.17,11.28,7.75,16.92s5.01,11.22,7.72,16.74c2.57,5.25,5.47,10.33,8.29,15.44,1.41,2.56,2.82,5.13,4.14,7.75,1.18,2.33,2.17,4.73,3.15,7.15,1.09,2.72,2.2,5.43,3.27,8.17s2.31,5.51,3.99,8c.11.16.37,0,.26-.15-1.57-2.31-2.74-4.83-3.77-7.43s-1.93-4.93-2.94-7.38c-.91-2.21-1.77-4.45-2.78-6.62-1.23-2.64-2.64-5.21-4.03-7.77-2.8-5.13-5.72-10.19-8.37-15.41s-5.16-10.98-7.68-16.49c-2.91-6.36-5.82-12.72-8.74-19.07-.08-.18-.34-.02-.26.15h0Z"/>
    <path d="M83.06,257.68c4.2,9.95,9.49,19.43,15.8,28.2,1.74,2.43,3.56,4.8,5.45,7.11.12.15.33-.06.21-.21-6.74-8.26-12.56-17.26-17.32-26.8-1.37-2.75-2.65-5.54-3.85-8.38-.07-.18-.36-.1-.29.08h0Z"/>
    <path d="M88.72,223.28c5.77,12.14,11.62,24.23,17.57,36.28,1.68,3.4,3.36,6.8,5.05,10.19.09.17.34.02.26-.15-5.99-12.03-11.9-24.1-17.72-36.21-1.64-3.42-3.28-6.84-4.9-10.27-.08-.17-.34-.02-.26.15h0Z"/>
    <path d="M65.89,217.12c4.09,8.56,7.79,17.31,11.86,25.88,1.31,2.76,2.62,5.52,4.01,8.24.09.17.35.02.26-.15-4.39-8.63-8.23-17.52-12.23-26.32-1.19-2.61-2.4-5.21-3.63-7.8-.08-.17-.34-.02-.26.15h0Z"/>
    <path d="M144.42,201.66c-.18,11.96-1.05,23.9-2.29,35.79-.63,5.99-1.35,11.97-2.12,17.95-.71,5.46-1.42,10.9-2.5,16.29-1.23,6.12-1.73,12.35-2.64,18.52-.03.19.26.27.29.08.81-5.53,1.31-11.1,2.28-16.6.46-2.63,1.06-5.24,1.47-7.88s.73-5.3,1.08-7.96c1.58-11.94,2.96-23.91,3.83-35.93.49-6.74.8-13.5.91-20.26,0-.19-.3-.19-.3,0h0Z"/>
    <path d="M147.61,257.1c-1.79,11.87-3.87,23.7-6.24,35.47-.67,3.3-1.36,6.6-2.07,9.9-.04.19.25.27.29.08,2.54-11.73,4.78-23.53,6.74-35.38.55-3.33,1.07-6.66,1.58-9.99.03-.19-.26-.27-.29-.08h0Z"/>
    <path d="M150.54,212.56c.82,10.6-.04,21.31-.83,31.88-.21,2.86-.44,5.72-.65,8.58-.01.19.29.19.3,0,.77-10.61,1.76-21.23,1.77-31.88,0-2.86-.08-5.72-.3-8.58-.01-.19-.31-.19-.3,0h0Z"/>
    <path d="M137.68,220.66c-1.44,10.19-2.55,20.44-3.3,30.7-.22,2.92-.4,5.85-.56,8.78-.01.19.29.19.3,0,.56-10.23,1.45-20.43,2.69-30.6.36-2.94.75-5.87,1.16-8.8.03-.19-.26-.27-.29-.08h0Z"/>
    <path d="M220.64,119.32c-1.41,9.57-3.68,19-6.27,28.32-1.24,4.46-2.56,8.9-3.95,13.31s-2.73,9.28-5.38,13.32c-2.87,4.38-6.87,7.86-10.79,11.27-.15.13.07.34.21.21,3.47-3.02,6.97-6.08,9.75-9.78,2.92-3.89,4.41-8.37,5.87-12.95,2.9-9.08,5.55-18.26,7.72-27.55,1.24-5.32,2.33-10.68,3.12-16.08.03-.19-.26-.27-.29-.08h0Z"/>
    <path d="M224.38,132.61c-.92,6.91-1.65,13.85-3,20.69-.64,3.25-1.44,6.47-2.61,9.57-1.35,3.57-3,7.04-5.01,10.28-2.27,3.67-5.01,7.05-8.24,9.93-.14.13.07.34.21.21,5.69-5.09,9.82-11.68,12.68-18.71,2.69-6.61,3.83-13.69,4.8-20.72.52-3.75.96-7.51,1.46-11.26.03-.19-.27-.19-.3,0h0Z"/>
    <path d="M210.64,127.41c-.61,6.77-1.91,13.5-3.58,20.08-1.86,7.34-4.21,14.63-7.53,21.45-1.63,3.34-3.5,6.6-5.87,9.47-.12.15.09.36.21.21,4.4-5.34,7.27-11.89,9.6-18.35,2.61-7.21,4.55-14.68,5.95-22.22.65-3.53,1.19-7.08,1.51-10.65.02-.19-.28-.19-.3,0h0Z"/>
    <path d="M200.39,137.22c-1.65,4.37-2.87,8.9-3.94,13.44-1.13,4.8-2.06,9.65-2.8,14.52-.36,2.33-.67,4.67-.92,7.02-.02.19.28.19.3,0,.97-9.33,2.76-18.67,5.31-27.7.69-2.43,1.45-4.84,2.34-7.21.07-.18-.22-.26-.29-.08h0Z"/>
    <path d="M190.54,146.58c-1.6,5.05-2.81,10.21-3.5,15.46-.61,4.62-.81,9.27-.97,13.91-.1,2.83-.19,5.66-.34,8.49-.01.19.29.19.3,0,.5-9.57.39-19.17,2.37-28.6.65-3.1,1.48-6.17,2.44-9.19.06-.18-.23-.26-.29-.08h0Z"/>
    <path d="M174.29,120.21c-.86,7.84-1.66,15.69-2.03,23.57-.37,7.92-.31,15.88.63,23.75.52,4.31,1.3,8.59,2.43,12.78.05.19.34.11.29-.08-2.04-7.58-2.95-15.41-3.19-23.24s.17-15.78.84-23.64c.38-4.39.84-8.77,1.32-13.14.02-.19-.28-.19-.3,0h0Z"/>
    <path d="M165.53,129.2c-1.58,11.88-.83,23.99,1.07,35.79.54,3.37,1.18,6.72,1.91,10.06.04.19.33.11.29-.08-2.54-11.75-4.13-23.79-3.76-35.83.1-3.32.36-6.64.8-9.94.03-.19-.27-.19-.3,0h0Z"/>
    <path d="M171.99,108.88c-1.02,3.3-1.51,6.74-1.87,10.17s-.58,6.76-.47,10.17c.06,2,.15,4,.14,6,0,.19.3.19.3,0,.02-4.42-.33-8.79.05-13.2s.83-8.83,2.14-13.06c.06-.18-.23-.26-.29-.08h0Z"/>
    <path d="M178.99,124.63c-.15,3.9-.34,7.8-.28,11.7.04,2.77.27,5.52.51,8.27s.45,5.25.66,7.87c.02.19.32.19.3,0-.53-6.71-1.29-13.38-1.14-20.12.06-2.58.16-5.16.26-7.73,0-.19-.29-.19-.3,0h0Z"/>
    <path d="M193.08,117.28c-1.78,6.44-2.63,13.12-2.52,19.8,0,.19.3.19.3,0-.11-6.66.73-13.31,2.51-19.72.05-.19-.24-.27-.29-.08h0Z"/>
    <path d="M197.55,104.03c1.21,7.74.98,15.67-.66,23.34-.04.19.25.27.29.08,1.65-7.72,1.87-15.7.66-23.5-.03-.19-.32-.11-.29.08h0Z"/>
    <path d="M191.26,107.16c-2.6,6.14-4.18,12.68-4.67,19.33-.01.19.29.19.3,0,.48-6.6,2.04-13.09,4.62-19.18.07-.18-.18-.33-.26-.15h0Z"/>
    <path d="M209.73,104.86c-.45,2.87-1.04,5.72-1.77,8.54-.05.19.24.27.29.08.72-2.82,1.31-5.66,1.77-8.54.03-.19-.26-.27-.29-.08h0Z"/>
    <path d="M212.07,107.26c.15,2.93-.02,5.87-.51,8.76-.03.19.26.27.29.08.5-2.92.67-5.89.52-8.84,0-.19-.31-.19-.3,0h0Z"/>
    <path d="M93.72,111.66c.92,8.07,2.13,16.1,3.61,24.08s3.27,15.96,5.33,23.84c1.17,4.46,2.42,8.9,3.77,13.32.06.18.35.11.29-.08-2.36-7.75-4.45-15.59-6.26-23.49s-3.34-15.86-4.58-23.87c-.71-4.59-1.33-9.19-1.86-13.8-.02-.19-.32-.19-.3,0h0Z"/>
    <path d="M108.6,149.43c2.46,7.32,3.46,15.07,2.94,22.77-.01.19.29.19.3,0,.53-7.73-.48-15.51-2.95-22.85-.06-.18-.35-.1-.29.08h0Z"/>
    <path d="M112.49,131.25c3.16,10.04,4.53,20.62,4.03,31.13-.15,3.03-.45,6.04-.9,9.04-.03.19.26.27.29.08,1.58-10.45,1.3-21.15-.83-31.5-.61-2.98-1.38-5.93-2.3-8.83-.06-.18-.35-.11-.29.08h0Z"/>
    <path d="M122.16,146.66c1.28,7.15.56,14.58-2.05,21.36-.07.18.22.26.29.08,2.63-6.83,3.34-14.32,2.05-21.52-.03-.19-.32-.11-.29.08h0Z"/>
    <path d="M88.18,142.94c1.97,9.71,4.06,19.8,9.95,28.02,1.49,2.07,3.19,3.98,5.13,5.65.15.13.36-.09.21-.21-7.37-6.34-10.91-15.72-13.14-24.93-.69-2.85-1.27-5.73-1.86-8.6-.04-.19-.33-.11-.29.08h0Z"/>
    <path d="M81.58,141.35c1.62,9.69,5.45,18.98,11.11,27.01,1.57,2.23,3.28,4.35,5.12,6.37.13.14.34-.07.21-.21-6.59-7.24-11.51-15.95-14.32-25.33-.78-2.6-1.39-5.25-1.84-7.92-.03-.19-.32-.11-.29.08h0Z"/>
    <path d="M86.78,118.35c.16,7.98,3.07,15.6,5.51,23.09.73,2.24,1.47,4.49,2.2,6.73.06.18.35.1.29-.08-1.61-4.94-3.27-9.86-4.82-14.82s-2.78-9.82-2.88-14.93c0-.19-.3-.19-.3,0h0Z"/>
    <path d="M100.97,118.55c2.75,8.22,4.57,16.73,5.44,25.36.02.19.32.19.3,0-.87-8.65-2.7-17.19-5.45-25.44-.06-.18-.35-.1-.29.08h0Z"/>
    <path d="M138.81,108.92c.64,8.03,1.28,16.12.68,24.17s-2.64,15.47-5.84,22.7c-1.72,3.89-3.7,7.65-5.8,11.33-.1.17.16.32.26.15,3.78-6.61,7.17-13.5,9.32-20.83s2.78-15.65,2.56-23.62c-.13-4.65-.5-9.28-.87-13.91-.02-.19-.32-.19-.3,0h0Z"/>
    <path d="M141.28,144.01c-1.05,8.16-4.93,15.56-8.73,22.73-.09.17.17.32.26.15,3.82-7.23,7.71-14.66,8.77-22.88.02-.19-.28-.19-.3,0h0Z"/>
    <path d="M132,109.46c-.78,12.54.57,25.12-.5,37.65-.3,3.58-.82,7.14-1.62,10.64-.04.19.25.27.29.08,2.84-12.34,1.93-25.06,1.87-37.6-.02-3.59.04-7.18.26-10.76.01-.19-.29-.19-.3,0h0Z"/>
    <path d="M125.84,105.07c.62,7.85.54,15.75-.22,23.59-.02.19.28.19.3,0,.77-7.84.84-15.74.22-23.59-.02-.19-.32-.19-.3,0h0Z"/>
    <path d="M134.1,95.78c1.88,8.48,1.6,17.12,2.04,25.74,0,.19.31.19.3,0-.45-8.65-.17-17.31-2.05-25.82-.04-.19-.33-.11-.29.08h0Z"/>
    <path d="M65.8,114.19c2.06,4.27,3.81,8.69,5.22,13.22.67,2.14,1.19,4.32,1.8,6.47.55,1.94,1.25,3.86,2.48,5.48.12.15.38,0,.26-.15-1.3-1.72-2-3.75-2.56-5.81-.59-2.18-1.15-4.36-1.83-6.51-1.39-4.4-3.1-8.69-5.11-12.84-.08-.17-.34-.02-.26.15h0Z"/>
    <path d="M64.27,118.6c1.83,5.49,3.66,10.99,5.49,16.48.91,2.75,1.83,5.49,2.74,8.24.62,1.86,1.19,3.75,2.01,5.53.94,2.03,2.02,3.98,3,5.99.08.17.34.02.26-.15-.89-1.81-1.84-3.59-2.72-5.41-.84-1.72-1.42-3.52-2.02-5.34-1.8-5.42-3.61-10.83-5.41-16.25-1.02-3.06-2.04-6.12-3.06-9.18-.06-.18-.35-.1-.29.08h0Z"/>
    <path d="M67.06,145.37c3.35,7.07,6.77,14.23,11.69,20.37,1.39,1.74,2.9,3.37,4.54,4.88.14.13.35-.08.21-.21-5.8-5.35-9.81-12.23-13.3-19.22-.99-1.98-1.94-3.97-2.88-5.97-.08-.17-.34-.02-.26.15h0Z"/>
    <path d="M78.2,98.28c.65,3.63,1.85,7.15,3.55,10.43.09.17.35.02.26-.15-1.69-3.25-2.87-6.75-3.51-10.35-.03-.19-.32-.11-.29.08h0Z"/>
    <path d="M84.29,94.02c1.07,1.89,1.84,3.94,2.28,6.07.04.19.33.11.29-.08-.44-2.15-1.22-4.23-2.31-6.15-.1-.17-.35-.02-.26.15h0Z"/>
    <path d="M105.76,95.76c.06,4.03.85,8.03,2.32,11.77.07.18.36.1.29-.08-1.47-3.72-2.26-7.69-2.31-11.69,0-.19-.3-.19-.3,0h0Z"/>
    <path d="M110.2,92.13c2.64,5.85,4.15,12.17,4.46,18.58,0,.19.31.19.3,0-.31-6.46-1.84-12.83-4.5-18.73-.08-.18-.34-.02-.26.15h0Z"/>
    <path d="M115.92,94.83c1.24,3.03,1.98,6.24,2.18,9.51.01.19.31.19.3,0-.2-3.29-.94-6.54-2.19-9.59-.07-.18-.36-.1-.29.08h0Z"/>
  </g>
  <g class="cls-12">
    <g>
      <rect class="cls-13" x="240.44" y="338.57" width="270.96" height="12.98" rx="6.43" ry="6.43"/>
      <g>
        <path class="cls-13" d="M266.34,344.86h55.62s-.09-5.54,8.74-5.54l18.31,5.54"/>
        <path class="cls-13" d="M466.49,338.64h-16.78c0-.63-.14-1.35-.36-2.09-1.58-5.36-6.47-9.18-12.06-9.24-.06,0-.12,0-.19,0-6.22,0-10.57,3.71-10.57,3.71l23.18,7.62-120.59.67h-43.34l14.58-6.73,21.83-2.26,35.01-7.22c-1.62-15.07-17.95-14.8-17.95-14.8-20.12.45-17.05,22.02-17.05,22.02-.72-3.52-3.07-8.93-12.63-8.12-9.56.81-9.2,10.38-9.2,10.38-12.27-5.86-14.58,6.73-14.58,6.73h-26.34"/>
        <polygon class="cls-13" points="449.71 338.64 397.96 320.23 357.2 310.67 340.92 315.62 322.19 330.33 302.96 328.33 300.35 332.59 287.74 336.42 285.78 339.32 449.71 338.64"/>
      </g>
      <g>
        <line class="cls-3" x1="244.62" y1="339.32" x2="253.61" y2="339.32"/>
        <path class="cls-3" d="M357.2,323.12c-1.62-15.07-17.95-14.8-17.95-14.8-20.12.45-17.05,22.02-17.05,22.02-.72-3.52-3.07-8.93-12.63-8.12-9.56.81-9.2,10.38-9.2,10.38-12.27-5.86-14.58,6.73-14.58,6.73h-26.34"/>
        <path class="cls-3" d="M266.34,344.87h55.62s-.09-5.54,8.74-5.54"/>
      </g>
    </g>
  </g>
</svg>