<?xml version="1.0" encoding="UTF-8"?>
<svg id="Layer_1" data-name="Layer 1" xmlns="http://www.w3.org/2000/svg" viewBox="0 0 289.13 430.87">
  <defs>
    <style>
      .cls-1 {
        fill: none;
      }

      .cls-2 {
        fill: #fff8c5;
      }

      .cls-3 {
        font-family: SUIT-Regular-KSCpc-EUC-H, SUIT;
        font-size: 14px;
      }

      .cls-4 {
        fill: #d3e29a;
      }

      .cls-5 {
        fill: #f9f1ac;
      }

      .cls-6 {
        font-family: 'IM_FELL_Double_Pica_SC', 'IM FELL Double Pica SC';
        font-size: 24px;
      }

      .cls-7 {
        fill: #fff8dc;
      }
    </style>
  </defs>
  <g>
    <text class="cls-6" transform="translate(51.44 396.2)"><tspan x="0" y="0">WHITE TULIPS</tspan></text>
    <text class="cls-3" transform="translate(105.76 417.59)"><tspan x="0" y="0">흰 튤립 · 불안</tspan></text>
  </g>
  <g>
    <g>
      <path class="cls-1" d="M256.27,176.6l1.79,13.76c.41,3.15,2.85,5.65,5.98,6.15l4.5.71-4.22.48c-3.27.38-5.87,2.94-6.28,6.21l-1.77,13.92-1.77-13.92c-.42-3.27-3.01-5.83-6.28-6.21l-4.22-.48,4.5-.71c3.14-.49,5.57-3,5.98-6.15l1.79-13.76Z"/>
      <path class="cls-1" d="M209.38,256.27l2.46,18.92c.41,3.15,2.85,5.65,5.98,6.15l7.16,1.13-6.87.79c-3.27.38-5.87,2.94-6.28,6.21l-2.45,19.2-2.45-19.2c-.42-3.27-3.01-5.83-6.28-6.21l-6.87-.79,7.16-1.13c3.14-.49,5.57-3,5.98-6.15l2.46-18.92Z"/>
      <path class="cls-1" d="M96.08,266.84l.62,4.73c.32,2.46,2.22,4.41,4.67,4.79l.43.07-.43.05c-2.42.28-4.34,2.18-4.65,4.6l-.63,4.95-.63-4.95c-.31-2.42-2.23-4.32-4.65-4.6l-.43-.05.43-.07c2.45-.39,4.35-2.34,4.67-4.79l.62-4.73Z"/>
      <path class="cls-1" d="M145.08,160.66l.97,7.44c.32,2.46,2.22,4.41,4.67,4.79l1.82.29-1.82.21c-2.42.28-4.34,2.18-4.65,4.6l-.98,7.72-.98-7.72c-.31-2.42-2.23-4.32-4.65-4.6l-1.82-.21,1.82-.29c2.45-.39,4.35-2.34,4.67-4.79l.97-7.44Z"/>
      <circle class="cls-1" cx="182.84" cy="316.42" r="1.61"/>
      <circle class="cls-1" cx="136.01" cy="261.83" r="1.61"/>
      <circle class="cls-1" cx="66.59" cy="179.5" r="2.07"/>
      <circle class="cls-1" cx="57.21" cy="162.2" r="2.07"/>
      <circle class="cls-1" cx="46.73" cy="175.45" r="1.53"/>
      <circle class="cls-1" cx="113.38" cy="295.26" r="1.21"/>
      <circle class="cls-1" cx="111.58" cy="226.64" r="1.21"/>
      <circle class="cls-1" cx="170.69" cy="219.6" r="1.21"/>
      <circle class="cls-1" cx="177.48" cy="210.6" r="1.21"/>
      <circle class="cls-1" cx="144.38" cy="200.67" r="1.04"/>
      <circle class="cls-1" cx="224.71" cy="248.31" r=".94"/>
      <circle class="cls-1" cx="48.81" cy="124.97" r=".94"/>
      <circle class="cls-1" cx="138.56" cy="90.17" r=".94"/>
      <circle class="cls-1" cx="139.79" cy="142.52" r="1.23"/>
      <circle class="cls-1" cx="141.15" cy="71.4" r=".94"/>
      <circle class="cls-1" cx="160.69" cy="58.84" r=".94"/>
      <circle class="cls-1" cx="152" cy="50.7" r=".75"/>
      <circle class="cls-1" cx="146.44" cy="71.4" r="1.97"/>
      <path class="cls-7" d="M174.23,186.05c3.33-.41,4.88-3.7,11.77-2.72,6.48.92,14.67-.36,18.34-1.43,3.67-1.07,6.17-3.04,7.6-3.76s4.11-1.79,5.64.63c1.52,2.42,5.19,4.74,8.32,5.19s4.29,1.16,6.08,2.77,1.7,5.81,3.67,7.51,2.95.45,3.67-.72,2.06-5.9,3.76-9.03,2.06-5.72,1.61-9.93-6.53-8.5-6.53-8.5c3.49.36,8.23-2.33,11.9-6.17,3.67-3.85,6.8-4.65,9.57-6.44,2.77-1.79,8.59-1.16,11.54-1.25,2.95-.09,5.19-1.16,5.55-2.95s-3.13-4.11-5.19-5.81-8.32-2.86-10.91-4.92c-2.59-2.06-8.68-4.83-11.99-5.64-3.31-.81-9.66-.27-9.66-.27,6.71-4.83,7.51-11.36,8.05-14.4s.45-11.9.36-14.4,1.79-5.46,2.77-9.48-.18-5.01-1.7-5.28-7.78,3.4-10.2,4.38-7.25-.36-14.13,2.15c-6.89,2.5-10.82,9.93-10.82,9.93.45-9.48-3.22-17.17-4.47-19.5s-.65-3.59-.78-7.04c-.12-3.45-4.43-5.54-5.67-6.41-1.23-.86-.62-4.43-2.83-5.17s-6.9,3.33-8.38,5.05-8.5,9.61-12.44,13.55-5.54,12.44-5.54,12.44c0,0-4.19-7.51-6.53-11.33s-5.42-3.33-8.37-3.2c-2.95.12-3.09-1.97-4.69-1.23s-4.07,7.76-2.03,9.24c2.04,1.48,3.14,9.49,4.86,14.41,1.72,4.93-.49,15.15-2.83,24.51-2.34,9.36-4.19,19.09,3.57,30.06,7.76,10.96,8.61,19.68,8.61,19.68,0,0-.47,6.59,8.46,5.49Z"/>
      <path class="cls-1" d="M175.99,168.67s12.66-13.6,28.29-11.99c15.63,1.61,17.39-.12,24.84,5.93,0,0,2.74,3.21,9.04,3.46"/>
      <path class="cls-1" d="M182,166.37s26.21-16.1,33.43,10.94"/>
      <path class="cls-1" d="M179.16,157.99s10.46-17.33,10.46-23.2-1.37-13.98,2.87-16.6c3.94-2.43,2.82,10.2-.55,15.81-.54.9-1.03,1.84-1.36,2.84-.63,1.93-1.71,5.1-2.62,7.09-1.03,2.27-3.5,10.14-3.75,10.86s-6.2,11.97-6.2,11.97"/>
      <path class="cls-1" d="M179.73,165.3s12.66-18.36,14.33-22.25c1.67-3.89,7.45-14.04,9.83-13.48,2.38.56,1.11,6.03-1.43,9.04s-6.23,6.03-7.36,7.61-11.67,16.38-11.67,16.38"/>
      <path class="cls-1" d="M185.96,159.06s5.24-3.17,7.7-6.02,9.98-12.05,11.49-11.34-1.9,6.52-3.48,7.69-5.79,4.04-7.3,5.31-4.36,4.36-4.36,4.36"/>
      <path class="cls-1" d="M213.29,105.51s-1.33,14.47-8.19,25.68"/>
      <path class="cls-4" d="M165.77,180.56s-2.33,11.09-5.09,15.7-7.72,19.23-9.44,24.76c-1.73,5.53-3.11,21.88-3.34,25.22,0,0-6.99-27.85-8.76-32.04-1.77-4.2-7.18-19.22-6.52-30.05.66-10.83,1.44-25.08.99-28.84s-5.08-27.62-6.74-32.7-3.98-19.89-4.09-26.3c-.11-6.41-.33-16.57,6.63-31.05,0,0,5.68-15.43,6.32-17.94.64-2.5,4.31-8.62,5.3-8.91,0,0-.12-1.16-2.39,0-2.27,1.16-3.26,2.91-4.13,5.12s-3.96,8.85-5.42,10.89-10.71,17.8-12.47,21.33-6.55,16.11-7.58,20.82-2.35,16.18-1.69,22.73c.66,6.55,2.5,16.04,6.47,21.48s6.47,8.39,7.58,12.36,1.84,8.61,1.62,11.7.22,10.45.44,11.99c0,0-7.76-15.68-9.19-19.29-1.43-3.61-7.67-19.18-8.73-22.64-1.05-3.46-5.12-19.26-5.64-23.4,0,0-2.2,3.29-5.67,1.56,0,0,4.28,13.54,5.09,16.49s8.04,22.7,9.16,25.04,10.89,23.71,13.03,27.79c2.14,4.07,5.5,12.22,5.5,12.22,0,0-18.32-23.21-20.05-25.55s-3.66-5.29-3.66-5.29c0,0,.2,3.87-4.38,4.68,0,0,7.02,5.8,10.28,9.98,3.26,4.17,14.35,17.61,16.08,20.87s8.55,14.56,10.59,20.76,6.11,15.57,7.13,22.09,2.34,13.95,2.54,22.7c.2,8.75,1.32,17.71,1.83,20.46s1.22,9.87,2.24,13.84,4.48,15.17,4.48,15.17c0,0-12.42-23.11-15.17-27.79-2.75-4.68-14.15-22.5-21.78-30.03-7.63-7.53-25.06-25.47-26.33-28.7s-5-16.46-5-16.46c0,0-1.86,2.35-5.29,1.76,0,0,4.12,5.78,6.08,13.42,0,0-9.11-5.88-12.25-6.27,0,0,1.37,2.94-.88,3.63,0,0,10.49,4.51,13.62,6.96s21.26,20.97,21.26,20.97c0,0-14.99-8.72-17.25-9.31,0,0,2.74,3.04,0,4.9,0,0,7.84,1.57,13.03,5.39,5.19,3.82,14.99,10.88,21.36,19.79,6.37,8.92,12.74,20.48,15.97,25.97,3.23,5.49,7.74,14.21,9.51,17.34s7.15,14.89,9.7,19.11c2.55,4.21,8.82,15.78,12.05,19.5s9.51,10.19,9.51,10.19c0,0-10.58-16.17-13.23-23.13s-7.55-17.83-5.98-30.28,4.02-19.3,8.04-24.99c4.02-5.68,11.51-14.47,14.16-21.86s5.85-24.25,6.55-26.89,3.07-11.43,5.85-14.91,10.73-12.96,11.84-14.49c1.11-1.53,5.38-11.01,3.12-12.22-2.26-1.22-1.31,2.79-6.7,6.7-5.4,3.92-14.1,9.66-18.8,13.06-4.7,3.39-12.01,9.57-15.75,15.41-3.74,5.83-8.36,15.84-9.84,20.71-1.48,4.87-3.83,13.84-4.53,18.19-.7,4.35-.96,16.28-1.04,19.67s0,12.53,1.22,18.97,3.31,14.36,3.31,14.36c0,0-4.26-10.62-5.83-20.98s-3.48-20.54-3.66-31.33c-.17-10.79.17-23.06,1.31-30.2,1.13-7.14,4-21.32,6.88-28.37,2.87-7.05,5.66-16.01,9.75-20.54,4.09-4.53,6.22-5.68,6.22-5.68l-4.8.16-2.54-1.06-1.39-1.75-.6-2.66Z"/>
      <path class="cls-4" d="M187.9,254.89s9.61-12.03,13.87-18.02,11.98-12.1,18.21-13.14c6.22-1.04,16.94-6.34,17.29-5.88s-1.27,1.84-3.8,4.38c-2.54,2.54-7.38,9.56-9.33,11.87-1.96,2.3-7.61,5.42-12.68,7.14-5.07,1.73-11.29,3.57-13.83,6.11s-8.17,6.51-11.57,14.47"/>
      <path class="cls-4" d="M91.09,247.37s-10.12-2.19-20.75,3.39-18.42,11.78-24.71,12.76c-6.29.97-10.81-.18-12.22-1.95-1.42-1.77,3.9.53,7.88-.89s7.8-3.45,14.62-10.19c6.82-6.73,12.67-10.63,17.89-10.81,5.23-.18,11.92.16,17.3,2.78l1.34,1.89.04,1.82-1.38,1.19Z"/>
      <path class="cls-7" d="M73.45,223.85s-8.61-1.17-11.89,1.4c-3.28,2.57-8.15,8.33-11.07,9.92-2.92,1.59-9.3,4.07-11.25,2.04-1.95-2.04-2.83-4-1.06-6.43s5.05-6.86,8.06-7.75,5.26-1.68,9.1-1.59c3.84.09,10.13,0,10.13,0,0,0-11.87-2.83-14.44-7.97s-3.9-6.91-1.95-7.88c1.95-.97,5.76-1.51,8.95-.53s9.21,6.64,10.72,8.95c1.51,2.3,3.83,5.1,5.59,6.23"/>
      <path class="cls-7" d="M85.8,211.31s-2.09-4.93-1.64-8.74c.44-3.81-.18-10.98-1.95-13.11-1.77-2.13-4.25-5.49-6.73-4.34-2.48,1.15-2.39,2.48-4.52,3.81-2.13,1.33-4.25,2.13-4.34,5.31s-.09,6.02,1.77,8.33c1.1,1.36,2.21,2.54,3.38,3.63,1.3,1.22,2.77,2.25,4.3,3.16s3.53,2.27,4.43,3.71"/>
      <path class="cls-7" d="M98.91,168.43s-2.19-3.04-9.51-4.68c-7.32-1.65-10.31-4.86-13.21-6.9-2.9-2.03-7.81-15.05-8.9-19.66-1.08-4.61-2.98-18.58-2.98-21.56s1.49-5.83,4.34-6.65,7.73,6.37,10.71,8.81c2.98,2.44,11.93,12.34,16.54,18.71s5.02,13.97,5.02,18.04,2.36,9.2,2.36,9.2l-.17,1.48-.55,1.45-.98.74-2.69,1.01Z"/>
      <path class="cls-7" d="M94.23,113.06c-.92-2.93-4.16-6.43-6.48-9.08-2.32-2.65-7.61-5.79-11.83-6.95-4.22-1.16-9.35-5.71-12.16-9.85s-5.38-11.67-6.45-17.21-.49-17.75-.13-20.83.15-16.29.15-17.91-.51-4.18.37-6.24,5.06,1.83,5.06,1.83c14.75,6.24,29.14,28.04,29.14,28.04-1.03-2.64-.59-15.71-.37-17.91s1.1-8.88,2.2-10.94c1.1-2.06,2.35,1.03,3.38,3.67s6.33,10.22,9.86,16.75c3.53,6.53,5.47,13.77,5.65,20.86.18,7.09-2.29,14.44-5.47,18.85-3.18,4.41-6,9.53-7.25,13.41s0,11.94,0,11.94l-.94,1.31-2.15.74-1.66-.15-.91-.34Z"/>
      <path class="cls-7" d="M55.78,148.36s-15.44,4.78-17.18-2.5c0,0-2.2-4.7,5.23-5.54,0,0-7.13-7.66-4.17-9.78,2.96-2.12,6.6-2.2,10.92,0s5.69,5.69,6.45,7.81,1.21,4.78,4.47,7.89c3.26,3.11,5.84,5.23,7.81,6.52,1.97,1.29,4.4,5,4.7,7.51s1.74,7.58,5.08,9.4,9.4,2.65,11.15,4.78c1.74,2.12,3.41,4.32,3.49,8.8s.15,6.52,1.9,8.57,2.73,3.34,5.69.76c2.96-2.58,5-1.28,5.2,3.4.2,4.68-1.06,7.53-.44,9.68s1.92,5.46,5.69,6.62c3.77,1.15,9.31.85,10.93,2.23s5.23,3.77,5,9.62-2.39,6.54-1.23,9.54c1.15,3,4.69,4.39,5.15,6.08s.46,4.69.62,6.23,1.38,4.66,2.85,5.79c0,0-3.08-1.02-3.77-5.1s.62-4.62-.69-6.54c-1.31-1.92-5-4.15-5.23-5.54s-.31-6,.31-8.39.15-6-1.31-7.69-3.15-3.54-9.85-3.85c-6.69-.31-9.69-6.54-10-8.08s.92-13.77-.46-13.85-1.1-.16-2.6,1.13-2.21,1.71-4,1.21-3.79-2.71-4.29-5.22-.86-10.22-2.07-11.72c-1.21-1.5-1.86-3.43-7.29-5.07s-9.57-3.86-10.57-6.86c-1-3-1.17-10.29-6.66-12.72-5.49-2.43-10.81-5.13-10.81-5.13Z"/>
      <path class="cls-1" d="M55.78,148.36s4.18-1.85,3.41-4.87"/>
      <path class="cls-1" d="M57.69,24.99s5.44,8.47,6.62,12.9,2.08,20.07,2.08,25.63,1.5,15.03,6.01,20.75,15.94,14.88,20.9,23c1.58,2.58,2.71,6.28,2.71,6.28"/>
      <path class="cls-1" d="M91.89,54.87s5.72,8.89,6,16.71.28,14.35-1.14,19.19c-1.42,4.83-.02,13.26,1.98,21.91"/>
      <path class="cls-1" d="M94.39,25.37s6.29,14.85,8.18,21.63c1.89,6.78,4.33,16.35,4.33,22.28s-.47,12.62-3.86,18.77-4.61,7.35-4.96,10.79"/>
      <path class="cls-1" d="M97.55,113.32l-3.64-14.63c-.62-2.51-.9-5.1-.79-7.68.38-8.62-1.57-15.02-5.55-26.03-4.49-12.43-18.64-28.69-18.64-28.69"/>
      <path class="cls-1" d="M80.23,65.22s9.75,24.23,10.96,28.57"/>
      <path class="cls-1" d="M87.68,74.81s4.8,13.45,5.43,18.3"/>
      <path class="cls-1" d="M77.89,87.58s9.64,9.08,11.18,11.43,4.13,4.46,5.67,8.51"/>
      <path class="cls-1" d="M61.45,65.22s.51,12.29,5.7,19.93"/>
      <path class="cls-1" d="M48.47,137.44s4.18,2.59,6.29,5.79"/>
      <path class="cls-1" d="M75.7,200.21s2.98,9,8.11,12.51"/>
      <path class="cls-1" d="M71.98,188.16s.88,5.85,2.35,8.31"/>
      <path class="cls-1" d="M58.81,213.08s11.6,8.61,15.93,8.83"/>
      <path class="cls-1" d="M48.3,206.26s10.52.39,18.48,9.27"/>
      <path class="cls-1" d="M43.11,232.21s9.83-8.54,16.27-8.88"/>
      <path class="cls-1" d="M52.74,255.98s14.55-19.12,35.07-11.66"/>
      <path class="cls-1" d="M44.56,261.4s11.4-3.37,22.21-13.09"/>
      <path class="cls-1" d="M211.68,195.7s-.29,8.87-13.41,18.73c-13.12,9.86-18.15,16.87-20.62,20.52-2.47,3.65-8.09,14.11-10.85,21.6-2.76,7.5-5.03,17.66-6.12,23.08-1.09,5.43-1.57,19.02-1.57,23.91s1.47,11.09,1.47,11.09"/>
      <path class="cls-1" d="M179.19,242.02s-10.5,13.01-13.45,25.72c-2.96,12.71-5.05,27.92-5.05,27.92"/>
      <path class="cls-1" d="M194.52,221.32s-5.34,9.05-6.83,16.03c-1.48,6.97-1.17,11.89-2.29,17.82s-3.35,12.3-7.05,17.35c-3.71,5.05-10.98,15.88-10.98,15.88"/>
      <path class="cls-1" d="M180.94,256.8s-5.1,13.15-8.96,18.47-7.14,12.58-8.05,15.3-1.7,10.54-1.81,12.81l-.11,2.27"/>
      <path class="cls-1" d="M229.7,222.66s-7.86,8.76-13.55,11.65c-5.69,2.89-6.59,1.81-11.56,5.51-4.97,3.7-7.32,5.42-7.32,5.42"/>
      <path class="cls-1" d="M209.38,232.42s6.77-4.52,10.66-5.78"/>
      <path class="cls-1" d="M68.65,108.98s.57,6.15,3.33,11.43c2.76,5.28,4.18,9.34,5.91,15.7s5.6,14.35,8.94,17.46c3.34,3.11,7.1,7.49,15.98,12.21"/>
      <path class="cls-1" d="M86.68,128.26s4.21,5.4,6.76,10.42c2.55,5.02,4.91,11.38,5.29,14.76.38,3.38.78,6.23.78,6.23"/>
      <path class="cls-1" d="M90.99,141.67s3.96,8.52,5.02,11.37,2.01,6.63,2.01,6.63"/>
      <path class="cls-1" d="M76.19,150.67s6.56,8.84,14.8,10.95"/>
      <path class="cls-1" d="M124.06,152.38c-.32-2.89-7.06-13.32-9.14-17.17s-4.49-10.27-4.33-18.93c.16-8.66,3.21-17.65,4.49-23.18,1.28-5.53,7.06-21.26,7.06-21.26,0,0,5.55-13.13,9.37-18.15"/>
      <path class="cls-1" d="M115.59,104.45s-.84,10,0,15.66,3.53,15.18,5.44,19.15c1.91,3.98,4.8,7.11,5.04,17.95.24,10.84-1.2,12.05,0,21.32s3.37,15.42,3.37,15.42c0,0,1.42,6.99,3.35,11.61,1.93,4.62,9.12,24.27,9.12,24.27,0,0,5.7,20.19,5.94,27.91"/>
      <path class="cls-1" d="M119.36,114.48s2.98,11.04,6.62,20.61c2.63,6.9,1.03,16.4,2.19,21.05s1.93,15.68,1.35,23.03,2.01,16.53,2.01,16.53"/>
      <path class="cls-1" d="M160.69,94.11s4.57,5.32,4.51,12.76"/>
      <path class="cls-1" d="M166.03,109.9s1.04,11.49-1.01,16.21c-2.06,4.72-5.32,10.77-4.84,16.94.48,6.17,2.47,18,4.14,22.25s4.64,9.24,3.97,12.96-2.25,4.11-2.25,4.11c8.2-1.03,9.77-14.74,13.13-24.39,3.36-9.64-.58-16.95-2.67-22.35-2.09-5.41-2.15-9.06-.39-17.68s-2.91-19.53-2.91-19.53"/>
      <path class="cls-1" d="M171.31,140.4s-3.39,3.14-3.27,8.22,1.09,8.72.73,12.04c-.36,3.32-.73,8.01-.73,8.01"/>
      <path class="cls-1" d="M156.67,136.16s-2.06,11.68,2.06,21.21c4.11,9.53,5.57,10.22,7.38,16.3"/>
      <path class="cls-1" d="M162.5,87.59s7.96,9.63,9.19,16.86"/>
      <path class="cls-1" d="M208.39,157.05s23.49-14.05,31.5-15.39"/>
      <path class="cls-1" d="M226.68,158.27s7.56,1.18,19.12-4.83"/>
      <path class="cls-1" d="M248.99,152.53s15.48-5.55,27.72-3.28"/>
      <path class="cls-1" d="M222.4,143.61s-7.37,5.75-11.84,7.83c-3.35,1.56-11.26,3.3-15.46,5.93,0,0,24.77-22.67,43.86-24.76"/>
      <path class="cls-1" d="M225.03,142.32s9.9-4.11,17.35-3.64"/>
      <path class="cls-1" d="M223.14,155s19.71-10.56,34.23-9.24"/>
      <path class="cls-1" d="M221.29,168.67s-8-10.48-18.78-12.11"/>
      <path class="cls-1" d="M233.7,177.31s-5.64-18.25-19.94-17.87"/>
      <path class="cls-1" d="M234.83,171.79s-1.71-5.15-5.71-9.18"/>
      <path class="cls-1" d="M236.24,177.9s2.26,11.36,1.35,17.15"/>
      <path class="cls-1" d="M215.94,169.46s4.92,8.95,12.23,11.64"/>
      <path class="cls-1" d="M167.59,184.75s10.72-9.97,14.41-11.09"/>
      <path class="cls-1" d="M172.98,176.6s10.52-11.36,17.73-12.35"/>
      <path class="cls-1" d="M213.77,172.51s-4.38,1.46-7.66,3.43-5.79,3.5-12.45,3.82c-6.66.33-11.14-.87-15.18,0-4.04.87-8.8,3.11-8.8,3.11"/>
      <path class="cls-1" d="M192.44,173.67s-12.17,4.5-15.58,6.5"/>
      <path class="cls-1" d="M194.98,173.12s9.03-3.69,17.18-3.66"/>
      <path class="cls-1" d="M191.72,176.6s13.51-4.05,16.03-4.81"/>
      <path class="cls-1" d="M239.88,102.01s-9.94,16.78-16.15,23.7"/>
      <path class="cls-1" d="M220.31,129.55s-11.42,11.38-14.81,13.25"/>
      <path class="cls-1" d="M249.1,89.23s-6.65,5.72-10.44,8.44c-3.79,2.72-9.94,7.65-12.87,11.08-2.93,3.43-7.45,7.28-9.51,11.23-2.99,5.73-5.36,12.64-5.36,12.64"/>
      <path class="cls-1" d="M243.23,108.82s7.02-17.46,6.87-18.78"/>
      <path class="cls-1" d="M221.5,135.2s13.01-11.87,15.8-18.52"/>
      <path class="cls-1" d="M239.88,125.19s3.42-4.86,3.99-8.94"/>
      <path class="cls-1" d="M224.21,113.86s-5.57,7.76-7.18,10.62"/>
      <line class="cls-1" x1="211.84" y1="135.2" x2="217.85" y2="127.76"/>
      <path class="cls-1" d="M210.92,125.94s-5.1,13.94-8.41,17.33"/>
      <path class="cls-1" d="M195.11,82.52s-19.95,25.01-16.63,52.68"/>
      <path class="cls-1" d="M199.65,107.53s-2.27,9.15-4.55,14.24"/>
      <path class="cls-1" d="M201.06,119.17s-4.23,10.62-5.32,13.44"/>
      <line class="cls-1" x1="192.96" y1="135.61" x2="189.4" y2="142.8"/>
      <path class="cls-1" d="M190.2,143.27s-3.51,7.96-5.59,10.17"/>
      <path class="cls-1" d="M191.18,98.43c-3.93,11.4-10.57,43-10.92,49"/>
      <line class="cls-1" x1="186.79" y1="135.2" x2="182" y2="153.04"/>
      <path class="cls-1" d="M31.11,78.14s-.94,3.47,0,5.21,2.91,3.12,3.19,5.86.94,5.67,4.5,7.87c3.56,2.2,5.07,2.2,6,2.2s4.85-.18,6.04,1.83.72,6.32,1.47,8.33.75,3.11,4.03,5.03c3.28,1.92,4.95,3.48,5.1,4.76,0,0,1.1-4.1-4.75-6.56,0,0-2.59-1.44-2.7-6.73s-.87-6.23-2.71-7.26c-1.84-1.03-4.23-1.78-7.13-1.66s-6.96-2.23-7.33-4.64-.99-5.62-2.35-7.24-3.71-1.36-3.37-7.01Z"/>
      <path class="cls-7" d="M31.23,78.14s-.94,3.47,0,5.21,2.91,3.12,3.19,5.86.94,5.67,4.5,7.87c3.56,2.2,5.07,2.2,6,2.2s4.85-.18,6.04,1.83.72,6.32,1.47,8.33.75,3.11,4.03,5.03c3.28,1.92,4.95,3.48,5.1,4.76,0,0,1.1-4.1-4.75-6.56,0,0-2.59-1.44-2.7-6.73s-.87-6.23-2.71-7.26c-1.84-1.03-4.23-1.78-7.13-1.66s-6.96-2.23-7.33-4.64-.99-5.62-2.35-7.24-3.71-1.36-3.37-7.01Z"/>
      <path class="cls-5" d="M256.39,176.6l1.79,13.76c.41,3.15,2.85,5.65,5.98,6.15l4.5.71-4.22.48c-3.27.38-5.87,2.94-6.28,6.21l-1.77,13.92-1.77-13.92c-.42-3.27-3.01-5.83-6.28-6.21l-4.22-.48,4.5-.71c3.14-.49,5.57-3,5.98-6.15l1.79-13.76Z"/>
      <path class="cls-5" d="M209.5,256.27l2.46,18.92c.41,3.15,2.85,5.65,5.98,6.15l7.16,1.13-6.87.79c-3.27.38-5.87,2.94-6.28,6.21l-2.45,19.2-2.45-19.2c-.42-3.27-3.01-5.83-6.28-6.21l-6.87-.79,7.16-1.13c3.14-.49,5.57-3,5.98-6.15l2.46-18.92Z"/>
      <path class="cls-5" d="M96.2,266.84l.62,4.73c.32,2.46,2.22,4.41,4.67,4.79l.43.07-.43.05c-2.42.28-4.34,2.18-4.65,4.6l-.63,4.95-.63-4.95c-.31-2.42-2.23-4.32-4.65-4.6l-.43-.05.43-.07c2.45-.39,4.35-2.34,4.67-4.79l.62-4.73Z"/>
      <path class="cls-5" d="M145.2,160.66l.97,7.44c.32,2.46,2.22,4.41,4.67,4.79l1.82.29-1.82.21c-2.42.28-4.34,2.18-4.65,4.6l-.98,7.72-.98-7.72c-.31-2.42-2.23-4.32-4.65-4.6l-1.82-.21,1.82-.29c2.45-.39,4.35-2.34,4.67-4.79l.97-7.44Z"/>
    </g>
    <g>
      <path d="M254.48,176.57l1.86,13.71c.38,3.55,3.56,6.1,7.03,6.28,0,0,3.41.53,3.41.53.14.02.14.23,0,.25,0,0-3.45.41-3.45.41-3.48.09-6.6,2.81-6.92,6.31,0,0-1.72,13.78-1.72,13.78,0,.11-.11.2-.23.19-.09-.01-.16-.09-.17-.17-.62-4.59-1.23-9.18-1.8-13.78-.24-2.24-1.62-4.3-3.61-5.35-1.73-1-4.74-.95-6.69-1.26-.28-.02-.29-.46-.01-.49,0,0,3.42-.52,3.42-.52,3.43-.16,6.57-2.66,6.96-6.18,0,0,1.94-13.7,1.94-13.7h0ZM254.48,176.62l-1.63,13.69c-.34,3.65-3.63,6.37-7.21,6.58,0,0-3.41.56-3.41.56v-.49s3.44.4,3.44.4c3.62.08,6.96,2.98,7.29,6.65.6,4.59,1.16,9.19,1.71,13.79h-.4s1.79-13.79,1.8-13.79c.34-3.63,3.63-6.46,7.22-6.53,0,0,3.45-.39,3.45-.39v.25c-1.25-.2-3.93-.61-5.12-.85-2.86-.69-5.12-3.26-5.43-6.17,0,0-1.71-13.68-1.71-13.68h0Z"/>
      <path d="M207.59,256.25l2.37,17.62c.06,3.76,2.81,7.19,6.67,7.46,1.42.22,5.12.79,6.58,1.02.13.02.14.23,0,.25,0,0-4.44.52-4.44.52-2.94.17-6.06.85-7.61,3.61-.81,1.27-.98,2.74-1.15,4.21,0,0-2.22,17.75-2.22,17.75,0,.11-.11.21-.23.19-.09-.01-.16-.09-.17-.17-.79-5.91-1.56-11.83-2.31-17.75-.11-2.92-1.53-5.83-4.36-6.94-1.32-.58-2.84-.57-4.32-.78l-4.44-.51c-.14-.02-.24-.14-.22-.27.01-.11.1-.2.21-.22,0,0,4.39-.67,4.39-.67,1.28-.22,3.12-.36,4.3-.84,2.84-1.06,4.37-3.93,4.5-6.86,0,0,2.45-17.61,2.45-17.61h0ZM207.59,256.3c-.19,1.26-2.25,19.23-2.48,19.82-.71,3-3.48,5.25-6.51,5.53,0,0-2.19.36-2.19.36l-4.38.71v-.49s4.43.51,4.43.51c1.35.18,3.21.25,4.45.81,2.99,1.16,4.56,4.27,4.66,7.34.76,5.92,1.5,11.84,2.22,17.76h-.4v-.02c.2-1.28,2.44-19.34,2.64-19.97,1.04-4.26,4.73-5.68,8.71-5.81,0,0,4.44-.5,4.44-.5v.25c-1.49-.24-5.15-.83-6.58-1.06-3.92-.29-6.75-3.81-6.79-7.64,0,0-2.22-17.6-2.22-17.6h0Z"/>
      <path d="M94.29,266.82c.34,1.79.45,4.43,1.05,6.1.77,1.92,2.64,3.22,4.69,3.4.07,0,.12.07.11.14,0,.06-.06.11-.11.11-1.03.08-2.01.4-2.84,1-1.25.9-2.01,2.33-2.13,3.85,0,0-.19,1.55-.19,1.55,0,0-.37,3.1-.38,3.1-.02.23-.37.23-.4,0,0,0-.44-3.09-.44-3.09l-.2-1.55c-.17-2.57-2.34-4.64-4.91-4.74-.14,0-.24-.13-.23-.26,0-.12.1-.22.22-.23,5.29-.63,5.03-5.26,5.75-9.38h0ZM94.29,266.87c-.19,1.52-.29,3.11-.46,4.6-.21,2.7-2.54,4.96-5.21,5.22,0,0-.01-.49-.01-.49,2.75.09,5.18,2.42,5.34,5.17,0,0,.2,1.55.2,1.55l.35,3.1s-.4,0-.4,0c0,0,0-.01,0-.01.14-1.04.49-3.63.62-4.63.18-2.72,2.57-4.98,5.28-5.05,0,0,0,.25,0,.25-2.09-.21-4.04-1.61-4.79-3.59-.59-1.74-.62-4.29-.91-6.11h0Z"/>
      <path d="M143.29,160.64l.57,4.09c.38,2.64.39,5.8,3,7.29,1.14.77,2.56.83,3.91,1.05.07.01.11.08.1.14,0,.06-.05.1-.11.1-1.37.19-2.8.19-3.94.97-1.15.71-1.99,1.89-2.29,3.21-.36,2.36-.73,5.84-1.05,8.25-.02.22-.37.23-.4,0-.36-2.41-.77-5.88-1.13-8.23-.44-1.95-2.13-3.53-4.11-3.83-.66-.1-1.37-.16-2.06-.25-.14-.02-.24-.14-.22-.27.01-.11.1-.2.21-.22.68-.1,1.37-.19,2.03-.31,1.97-.35,3.66-1.89,4.19-3.83.49-2.62.88-5.54,1.28-8.17h0ZM143.29,160.69c-.26,2.01-.44,4.17-.67,6.16-.12,4.19-2.73,6.28-6.75,6.58,0,0-.01-.49-.01-.49,6,.28,6.7,3.39,7.15,8.61,0,0,.48,4.14.48,4.14h-.4,0s.54-4.14.54-4.14c.47-5.18,1.15-8.24,7.1-8.48,0,0,0,.25,0,.25-5.68-.51-6.59-3.43-6.94-8.52,0,0-.5-4.11-.5-4.11h0Z"/>
      <path d="M182.69,316.42c-.07,2.26-3.32,2.31-3.44,0,0-2.43,3.46-2.49,3.44,0h0ZM182.64,316.42c-.07-1.79-2.91-1.8-2.99,0-.04,1.95,2.99,1.97,2.99,0h0Z"/>
      <path d="M135.85,261.83c-.07,2.26-3.32,2.31-3.44,0,0-2.43,3.46-2.49,3.44,0h0ZM135.8,261.83c-.07-1.79-2.91-1.8-2.99,0-.04,1.95,2.99,1.97,2.99,0h0Z"/>
      <path d="M66.89,179.5c-.1,2.87-4.2,2.92-4.36,0,.02-3.04,4.37-3.06,4.36,0h0ZM66.84,179.5c-.1-2.39-3.81-2.41-3.91,0,0,2.56,3.87,2.58,3.91,0h0Z"/>
      <path d="M57.51,162.2c-.1,2.87-4.2,2.92-4.36,0,.02-3.04,4.37-3.06,4.36,0h0ZM57.46,162.2c-.1-2.39-3.81-2.41-3.91,0,0,2.56,3.87,2.58,3.91,0h0Z"/>
      <path d="M46.5,175.45c-.06,2.16-3.17,2.21-3.29,0,0-2.33,3.31-2.39,3.29,0h0ZM46.45,175.45c-.06-1.68-2.78-1.69-2.84,0-.04,1.85,2.84,1.87,2.84,0h0Z"/>
      <path d="M112.82,295.26c-.05,1.74-2.54,1.79-2.65,0-.02-1.9,2.7-1.96,2.65,0h0ZM112.77,295.26c-.06-1.28-2.14-1.28-2.2,0-.05,1.41,2.2,1.47,2.2,0h0Z"/>
      <path d="M111.03,226.64c-.05,1.74-2.54,1.79-2.65,0-.02-1.9,2.7-1.96,2.65,0h0ZM110.98,226.64c-.06-1.28-2.14-1.28-2.2,0-.05,1.41,2.2,1.47,2.2,0h0Z"/>
      <path d="M170.14,219.6c-.05,1.74-2.54,1.79-2.65,0-.02-1.9,2.7-1.96,2.65,0h0ZM170.09,219.6c-.06-1.28-2.14-1.28-2.2,0-.05,1.41,2.2,1.47,2.2,0h0Z"/>
      <path d="M176.93,210.6c-.05,1.74-2.54,1.79-2.65,0-.02-1.9,2.7-1.96,2.65,0h0ZM176.88,210.6c-.06-1.28-2.14-1.28-2.2,0-.05,1.41,2.2,1.47,2.2,0h0Z"/>
      <path d="M143.65,200.67c-.05,1.51-2.19,1.55-2.3,0-.03-1.67,2.36-1.72,2.3,0h0ZM143.6,200.67c-.06-1.05-1.77-1.05-1.85,0-.06,1.18,1.85,1.24,1.85,0h0Z"/>
      <path d="M223.89,248.31c-.04,1.39-2.01,1.43-2.11,0-.03-1.55,2.18-1.61,2.11,0h0ZM223.84,248.31c-.06-.93-1.59-.93-1.66,0-.07,1.05,1.68,1.11,1.66,0h0Z"/>
      <path d="M47.99,124.97c-.04,1.39-2.01,1.43-2.11,0-.03-1.54,2.18-1.61,2.11,0h0ZM47.94,124.97c-.06-.93-1.59-.93-1.67,0-.07,1.05,1.68,1.11,1.67,0h0Z"/>
      <path d="M137.74,90.17c-.04,1.39-2.01,1.43-2.11,0-.03-1.55,2.18-1.61,2.11,0h0ZM137.69,90.17c-.06-.93-1.59-.93-1.66,0-.07,1.05,1.68,1.11,1.66,0h0Z"/>
      <path d="M139.25,142.52c-.05,1.76-2.57,1.81-2.68,0-.02-1.92,2.73-1.98,2.68,0h0ZM139.2,142.52c-.06-1.29-2.16-1.3-2.23,0-.05,1.43,2.23,1.49,2.23,0h0Z"/>
      <path d="M140.32,71.4c-.04,1.39-2.01,1.43-2.12,0-.03-1.54,2.18-1.61,2.12,0h0ZM140.27,71.4c-.06-.93-1.59-.93-1.67,0-.07,1.05,1.68,1.11,1.67,0h0Z"/>
      <path d="M159.86,58.84c-.04,1.39-2.01,1.43-2.11,0-.03-1.55,2.18-1.6,2.11,0h0ZM159.81,58.84c-.06-.93-1.59-.93-1.66,0-.07,1.05,1.68,1.11,1.66,0h0Z"/>
      <path d="M150.98,50.7c-.04,1.13-1.62,1.17-1.72,0-.04-1.29,1.8-1.35,1.72,0h0ZM150.93,50.7c-.06-.69-1.19-.67-1.27,0-.07.8,1.29.86,1.27,0h0Z"/>
      <path d="M146.65,71.4c-.1,2.75-4.02,2.79-4.17,0,.02-2.92,4.19-2.94,4.17,0h0ZM146.6,71.4c-.1-2.27-3.62-2.28-3.72,0-.01,2.43,3.69,2.45,3.72,0h0Z"/>
      <path d="M172.44,186.02c1.1-.14,2.12-.64,3.09-1.16,1.93-1.1,4.11-1.79,6.36-1.75,5.52.6,11.09.7,16.57-.36,2.18-.39,4.37-.85,6.39-1.76,2.07-.84,3.83-2.23,5.85-3.18,2.56-1.15,4.26-.72,5.71,1.68,2.16,2.52,5.3,4.15,8.6,4.53,2.21.34,4.31,1.46,5.73,3.21,1.24,1.88,1.31,4.26,2.51,6.14,1.74,2.39,3.6,2.01,4.65-.83,1.17-3.11,2.27-6.28,3.86-9.21,1.4-2.99,1.5-6.53.84-9.72-1.06-3.16-3.72-5.5-6.29-7.48-.09-.06-.03-.21.07-.2,5.64.21,9.84-4.3,13.63-7.87,2.07-1.8,4.58-2.94,6.96-4.26.76-.46,1.56-.98,2.46-1.21,4.37-1.38,9.16.37,13.42-1.28,1.76-.79,2.72-2.47,1.12-4.08-.97-1.14-2.88-2.57-4.08-3.53-2.15-1.66-4.93-2.17-7.41-3.2-1.72-.59-3.34-1.54-4.76-2.63-3.04-1.92-6.37-3.44-9.79-4.56-3.45-1.07-7.17-.77-10.73-.57-.17.02-.24-.21-.11-.3,8.11-5.5,8.6-15.91,8.39-24.82,0,0-.04-2.75-.04-2.75-.33-2.8,1.09-5.46,1.96-8.02,1.04-2.77,2.72-9.23-2.5-7.25-3,1.15-5.74,2.94-8.74,4.1-2.27.53-4.63.24-6.9.51-7.78.52-13.75,4.62-17.55,11.35-.1.21-.41.1-.4-.11.31-7.04-1.56-14.03-4.87-20.28-.34-.85-.44-1.79-.43-2.68.41-5.31-.47-6.69-5.05-9.48-2.14-1.04-.97-4.53-3.19-5.43-.73-.26-1.61.04-2.37.38-2.33,1.17-4.38,2.92-6.09,4.87-2.33,2.66-4.69,5.28-7.08,7.89-2.27,2.68-5.11,4.9-6.99,7.87-1.76,3.01-2.85,6.42-3.58,9.83-.03.13-.16.22-.29.19-.07-.01-.13-.06-.16-.12,0,0-4.09-7.1-4.09-7.1-2.98-5.08-3.59-8.06-10.47-7.32-.7.03-1.44-.03-2.11-.33-1.25-.55-2.14-1.89-3.24-.31-.78,1.06-1.26,2.36-1.63,3.64-.34,1.42-.71,3.03,0,4.32,0,0,.31.32.31.32.13.13.28.25.4.39.55.7.89,1.53,1.19,2.34,1.36,3.9,1.98,7.96,3.31,11.85,1.16,4.01.39,8.25-.2,12.28-.91,5.4-2.37,10.69-3.59,16.01-1.92,7.94-1.61,16.65,2.82,23.72,1.41,2.33,3.07,4.53,4.42,6.91,2.71,4.73,4.94,9.86,5.75,15.29-.04,4.73,4.4,6.05,8.41,5.47h0ZM172.44,186.07c-4.04.58-8.52-.7-8.51-5.51-.83-5.4-3.07-10.52-5.79-15.22-1.36-2.37-3.02-4.55-4.44-6.89-4.48-7.09-4.82-15.89-2.92-23.86,1.21-5.34,2.64-10.62,3.53-16.01.56-3.98,1.32-8.19.17-12.12-1.34-3.87-1.99-7.98-3.35-11.83-.29-.79-.62-1.55-1.13-2.21-.1-.12-.22-.21-.33-.33,0,0-.4-.41-.4-.41-.84-1.44-.42-3.21-.08-4.67.53-1.62,1.04-3.52,2.53-4.57,1.11-.6,2.09.58,2.96.92,1.19.52,2.58.17,3.97.2,5.38-.25,6.55,3.81,8.86,7.63,0,0,4.1,7.11,4.1,7.11,0,0-.45.07-.45.07.75-3.47,1.84-6.89,3.65-9.99,1.9-3.01,4.77-5.24,7.06-7.94,2.39-2.6,4.76-5.22,7.08-7.87,1.77-2.01,3.85-3.78,6.25-4.98.81-.35,1.75-.73,2.73-.39,1.91.77,1.73,3.14,2.42,4.66.17.41.49.58.86.81,0,0,1.12.71,1.12.71,2.26,1.39,4.48,3.65,4.18,6.51.04,1.77-.3,3.57.34,5.17,3.29,6.21,5.21,13.34,4.88,20.45l-.4-.11c5.51-9.54,12.9-11.83,23.39-11.82,1.84-.11,3.39-1.2,5.03-1.96,1.64-.82,3.28-1.67,5.01-2.35,1.3-.63,3.17-.61,3.85.89.22.45.28.94.3,1.41-.06,3.82-2.06,7.12-2.96,10.62-.37,1.47-.05,3.9-.12,5.46.01,7.24.11,15.25-4.55,21.25-1.14,1.47-2.5,2.75-4,3.83l-.11-.3c3.61-.19,7.34-.49,10.85.6,3.46,1.14,6.79,2.65,9.86,4.6,1.47,1.12,2.96,2,4.7,2.6,2.49,1.04,5.31,1.56,7.48,3.26,1.12.94,3.18,2.4,4.12,3.57,1.64,1.68.8,3.64-1.22,4.5-2.55,1.14-5.42.63-8.11.71-1.8.01-3.63.09-5.35.57-1.7.54-3.17,1.73-4.8,2.46-5.07,2.26-7.98,7.38-13.04,9.65-1.64.76-3.44,1.37-5.3,1.19,0,0,.07-.2.07-.2,2.61,2.02,5.28,4.38,6.36,7.6.67,3.26.56,6.79-.86,9.85-1.03,1.98-1.95,3.97-2.7,6.08-.88,2.04-1.82,7.16-4.93,5.17-2.44-1.67-2.15-5.08-3.68-7.34-.66-.85-1.59-1.54-2.51-2.11-1.93-1.18-4.3-.98-6.36-1.84-2.06-.83-3.99-2.09-5.43-3.8-.67-.86-1.21-1.92-2.37-2.15-2.24-.47-4.25,1.06-6.08,2.13-2.84,1.78-6.09,2.78-9.38,3.29-5.49,1.04-11.07.95-16.59.33-2.24-.05-4.4.64-6.33,1.73-.98.52-2,1.01-3.11,1.16h0Z"/>
      <path d="M174.18,168.65c5.09-5.11,11.36-9.27,18.34-11.21,4.68-1.47,9.6-1.04,14.4-.58,4.26.41,10.34.22,14.38,1.71,2.3.89,4.28,2.37,6.13,3.9,2.3,2.39,5.76,3.3,8.95,3.6-3.23.03-6.91-1.06-9.17-3.32-1.88-1.49-3.86-2.88-6.09-3.7-4.53-1.54-9.51-1.2-14.24-1.75-4.76-.51-9.63-.98-14.29.44-6.97,1.81-13.34,6.12-18.42,10.93h0Z"/>
      <path d="M180.19,166.35c8.7-5.25,22.19-8.09,29.19,1.27,2.12,2.88,3.57,6.28,4.26,9.71-1.1-3.32-2.47-6.66-4.66-9.4-7.01-9.33-20.08-6.36-28.79-1.58h0Z"/>
      <g>
        <path class="cls-2" d="M177.36,157.99s10.46-17.33,10.46-23.2-1.37-13.98,2.87-16.6c3.94-2.43,2.82,10.2-.55,15.81-.54.9-1.03,1.84-1.36,2.84-.63,1.93-1.71,5.1-2.62,7.09-1.03,2.27-3.5,10.14-3.75,10.86s-6.2,11.97-6.2,11.97l-1.64,1.4.52-2.36.72-2.76,1.55-5.04"/>
        <path d="M177.34,157.98c2.05-3.48,4-7.03,5.81-10.65,1.88-4.06,4.23-8.19,4.55-12.72,0-4.48-.85-9.28.61-13.61,1.84-4.1,5.07-4.81,5.06.66.08,5.13-1.57,10.09-4.08,14.5-1.89,5.72-4.38,11.32-6.11,17.12-.26.84-.7,2.1-1.15,2.84-1.88,3.61-3.78,7.2-5.72,10.77,0,0-1.65,1.39-1.65,1.39-.09.09-.26,0-.23-.14,0,0,.59-2.57.59-2.57,0,0,.69-2.55.69-2.55.03-.02,1.58-5.07,1.65-5.04.06.02-1.48,5.05-1.47,5.09,0,0-.64,2.55-.64,2.55l-.56,2.57-.23-.14,1.63-1.41-.04.04c2.05-4.04,4.26-8.04,6.16-12.14.28-.9,1.1-3.4,1.41-4.32,1.53-4.83,3.64-9.44,5.22-14.26,1.41-2.7,2.86-5.31,3.43-8.35.55-2.86,1.24-6.06.22-8.85-1.11-2.11-3.49,1.1-3.9,2.34-1.46,4.27-.63,9.06-.67,13.5-.34,4.58-2.74,8.71-4.66,12.79-1.85,3.53-3.83,7.37-5.93,10.58h0Z"/>
      </g>
      <g>
        <path class="cls-2" d="M177.93,165.3s12.66-18.36,14.33-22.25c1.67-3.89,7.45-14.04,9.83-13.48,2.38.56,1.11,6.03-1.43,9.04s-6.23,6.03-7.36,7.61c-1.13,1.59-11.67,16.38-11.67,16.38"/>
        <path d="M177.91,165.29c3.95-5.83,7.88-11.68,11.59-17.66,2.85-4.47,4.64-9.49,7.75-13.81,1.12-1.44,4.15-6.49,6.01-3.53,1.61,6.62-5.26,11.11-9.12,15.32-4.25,5.54-8.25,11.46-12.52,17.01,1.91-2.93,4.01-5.82,6.01-8.72,1.81-2.5,4.23-6.25,6.13-8.63,3.51-3.82,8.36-6.93,9.26-12.33.17-1.13.29-2.76-.99-3.17-.33-.06-.73.12-1.07.36-1.37,1.01-2.41,2.48-3.42,3.9-3.13,4.28-4.97,9.32-7.83,13.74-3.79,5.88-7.79,11.98-11.81,17.52h0Z"/>
      </g>
      <g>
        <path class="cls-2" d="M182.04,162.04l2.13-2.98s5.24-3.17,7.7-6.02c2.46-2.85,9.98-12.05,11.49-11.34s-1.9,6.52-3.48,7.69-5.79,4.04-7.3,5.31-4.27,4.15-4.27,4.15c0,0-5.16,2.54-6.28,3.18Z"/>
        <path d="M182.02,162.06s2.1-3.03,2.12-3.03c3.55-2.2,6.86-4.79,9.39-8.14,2.03-2.39,4.05-4.79,6.28-7.01.97-.88,1.89-1.98,3.2-2.39,2.18.04-.06,4.11-.6,5.03-.79,1.34-1.75,2.76-3.1,3.6,0,0-1.28.91-1.28.91-1.7,1.21-3.41,2.41-5.06,3.66-1.61,1.31-3.08,2.84-4.58,4.31,0,0-6.36,3.06-6.36,3.06h0ZM182.06,162.02l6.19-3.3c1.23-1.33,2.89-3.06,4.43-4.39,2.38-2,5.16-3.58,7.52-5.57,1.35-1.5,2.47-3.35,3.14-5.25.15-.53.48-1.64-.27-1.64-2.08.9-3.57,2.9-5.19,4.49-1.42,1.53-2.79,3.1-4.15,4.69-2.58,3.33-5.95,5.9-9.54,8.05.05-.06-2.14,2.92-2.14,2.92h0Z"/>
      </g>
      <path d="M211.52,105.51c-1.02,8.93-3.14,18.12-8.19,25.69-.02.03-.06,0-.04-.03,4.23-7.95,6.97-16.9,8.23-25.66h0Z"/>
      <path d="M164.01,180.56c-1.31,5.53-2.56,11.23-5.38,16.22-2.63,5.07-4.45,10.52-6.38,15.89-.94,2.7-1.85,5.41-2.7,8.13-2.15,8.29-2.62,16.94-3.4,25.44,0,.05-.07.05-.08,0-2.38-9.35-4.75-18.7-7.44-27.96-.54-1.86-1.13-3.68-1.89-5.46-2.73-7.21-4.9-14.69-5.78-22.37-.46-3.85-.11-7.71.12-11.57.37-7.7,1-15.42.71-23.12-1.06-7.51-2.77-15.31-4.29-22.74-.83-3.77-1.6-7.55-2.74-11.24-2.69-11.22-4.54-22.86-3.63-34.42.68-7.7,3.07-15.23,6.4-22.14,2.09-5.77,4.25-11.53,6.15-17.37.63-2.39,1.89-4.56,3.17-6.65.72-1.02,1.26-2.17,2.35-2.88,0,0-.07.1-.07.1-.05-.34-.48-.49-.84-.42-2.79.58-4.61,3.04-5.52,5.62-1.22,2.94-2.59,5.81-4.07,8.63-4.17,6.68-8.25,13.64-12.14,20.5-2.42,4.12-4.05,8.61-5.73,13.06-2.29,5.94-4.13,12.02-4.66,18.39-.67,6.3-1.14,12.7-.02,18.97,1.03,6.19,2.45,12.62,6.15,17.8,1.86,2.57,3.86,5.05,5.5,7.79,3.15,5.56,3.74,12.29,3.48,18.55.04,3.17.18,6.36.5,9.5.02.15-.19.19-.24.07-2.57-5.21-5.13-10.43-7.59-15.69-3.42-7.66-6.69-16.47-9.67-24.3-.96-2.53-1.71-5.8-2.42-8.38-1.41-5.64-2.94-11.25-3.91-17,0,0,.26.06.26.06-.66.89-1.55,1.61-2.62,1.94-1.06.36-2.24.14-3.23-.33,0,0,.2-.17.2-.17,4.18,13.9,8.78,28.2,14.29,41.58,0,0,9.27,19.96,9.27,19.96,3.11,6.64,6.52,13.15,9.23,19.97.08.17-.17.3-.27.16,0,0-12.02-15.31-12.02-15.31-3.5-4.45-8.65-10.84-11.71-15.54,0,0,.3-.1.3-.1.02,1.85-1.11,3.59-2.8,4.32-.54.26-1.13.41-1.71.53,0,0,.08-.29.08-.29,2.57,2.16,5.06,4.39,7.42,6.78,2.05,1.99,4.62,5.44,6.46,7.69,3.69,4.7,9,10.99,12.24,15.92,3.26,5.84,6.7,11.6,9.47,17.71,1.39,3.05,2.28,6.29,3.51,9.41,1.72,4.71,3.55,9.41,4.67,14.32.94,4.94,1.65,9.9,2.25,14.9.84,6.66.58,13.38,1.28,20.03.3,3.33.65,6.66,1.2,9.94.87,4.95,1.15,9.98,2.5,14.81,1,3.41,3.26,11.01,4.26,14.42.07.21-.26.35-.36.15,0,0-14.98-27.43-14.98-27.43-5.37-8.9-11.21-17.57-17.75-25.66-2.84-3.46-7.57-8.06-10.77-11.29-3.65-3.72-7.25-7.48-10.8-11.3-3.03-3.42-6.35-6.64-8.82-10.51-2.14-5.46-3.5-11.21-5.19-16.83,0,0,.37.07.37.07-1.35,1.55-3.5,2.2-5.49,1.84,0,0,.21-.33.21-.33,1.4,2.06,2.58,4.24,3.61,6.5,1.03,2.25,1.87,4.6,2.5,7,.06.18-.18.34-.32.23-3.88-2.31-7.77-5.08-12.16-6.24,0,0,.22-.3.22-.3.64,1.32.73,3.46-1.01,3.92,0,0,.02-.4.02-.4,3.46,1.51,6.88,3.08,10.22,4.86,3.44,1.64,6.08,4.49,8.79,7.11,5.38,5.27,10.67,10.63,15.95,16.01.09.09.08.23,0,.31-.07.07-.18.08-.27.03-4.24-2.45-8.5-4.89-12.82-7.19-1.44-.74-2.9-1.56-4.37-2.09,0,0,.22-.37.22-.37,1.37,1.47,1.94,4.02-.04,5.23,0,0-.08-.41-.08-.41,4.64,1.07,9.26,2.67,13.17,5.46,0,0,3.82,2.83,3.82,2.83,5.05,3.83,9.94,7.94,14.14,12.72,4.19,4.79,7.48,10.25,10.83,15.64,6.58,10.84,12.73,21.92,18.69,33.11,2.88,5.65,5.49,11.43,8.52,16.98,4.09,6.75,7.61,13.91,12.4,20.19,2.65,2.98,7.09,7.56,9.7,10.42,0,0-.38.3-.38.3-3.8-5.9-7.52-11.85-10.84-18.05-1.45-2.51-3.12-6.89-4.18-9.67-2.52-6.55-4.47-13.44-4.52-20.51-.07-3.54.48-7.04,1.05-10.49,1.16-6.91,3.07-13.91,7.17-19.7,6.06-8.5,13.45-16.5,15.81-26.93,3.36-11.47,4.34-24.68,9.91-35.4,2.02-3.08,7.54-9.37,9.86-12.34,2.36-2.67,4.35-5.41,5.45-8.83.52-1.56,2.47-6.36.38-6.98-.86-.24-1.18.94-1.56,1.53-1.54,3.27-4.55,5.4-7.44,7.36-11.17,7.95-24.26,15.16-31.95,26.83-3.63,5.97-6.69,12.34-9.1,18.89-2.06,6.67-3.95,13.48-5.09,20.36-.7,6.96-.82,14-.95,20.99.03,5.25.24,10.52,1.05,15.71.92,5.17,2.17,10.29,3.47,15.37.04.12-.15.18-.19.06-3.3-8.41-5.46-17.21-6.62-26.16-1.4-8.9-2.78-17.84-2.85-26.87-.08-9.01,0-18.04.99-27.01,1.25-8.92,3.15-17.77,5.67-26.42.85-2.89,2.06-5.65,3.12-8.45,2.22-5.54,4.08-11.42,7.85-16.15,2-2.22,4.09-4.54,6.63-6.11-2.45,1.69-4.62,3.89-6.58,6.14-3.76,4.72-5.61,10.6-7.82,16.14-3.53,8.31-5.57,17.13-7.28,25.97-2.48,11.78-2.52,23.88-2.43,35.87.19,12.01,2.36,23.91,4.35,35.72,1.24,5.87,3.01,11.63,5.16,17.23,0,0-.19.06-.19.06-1.69-6.8-3.55-13.61-4.13-20.62-.63-7-.44-14.03-.17-21.03.09-7.03.94-14.03,2.88-20.8,2.35-10.28,6.47-20.09,11.97-29.09,5.8-8.9,14.71-15.11,23.35-20.99,2.77-2.02,10.31-6.88,12.85-9.1,1.3-1.15,2.33-2.56,3.13-4.11.34-.58.58-1.29,1.22-1.66.46-.22,1.02-.02,1.42.28.54.51.56,1.33.53,2-.41,3.54-1.87,6.81-3.52,9.94-1.04,1.45-2.2,2.74-3.29,4.12-2.29,2.99-7.88,9.27-9.82,12.31-2.47,4.61-3.9,9.74-5.14,14.8-1.31,6.01-3.07,14.65-4.69,20.51-2.34,10.47-9.8,18.61-15.84,27.09-4.05,5.72-5.92,12.64-7.07,19.51-.56,3.45-1.12,6.92-1.04,10.41.05,7.01,1.99,13.84,4.49,20.34,3.45,9.9,9.38,18.83,14.96,27.63.17.22-.19.52-.38.3-3.85-4.36-9.53-9.5-12.48-14.35-3.43-5.35-6.44-10.92-9.68-16.37-5.82-11.28-11.26-22.69-17.6-33.68-6.46-10.84-12.25-22.26-20.37-31.97-4.17-4.74-9.03-8.84-14.07-12.66-2.55-1.88-4.99-3.93-7.87-5.21-2.84-1.34-5.87-2.33-8.93-3.01-.18-.04-.24-.3-.08-.41,1.78-1.11,1.12-3.27-.06-4.59-.15-.16.05-.42.24-.34,6.04,2.61,11.57,6.14,17.3,9.33,0,0-.27.35-.27.35-5.28-5.37-10.57-10.73-15.94-16-2.73-2.59-5.25-5.43-8.69-7.04-3.31-1.77-6.74-3.34-10.18-4.85-.18-.07-.17-.35.02-.41.3-.11.6-.25.79-.49.62-.82.31-1.97-.05-2.85-.22-.89,3.18.73,3.54.88,3.13,1.5,6.1,3.28,9.03,5.14,0,0-.32.23-.32.23-1.25-4.73-3.32-9.29-6.04-13.35-.11-.15.03-.37.21-.33.93.15,1.89.11,2.78-.19.89-.29,1.72-.82,2.32-1.51.08-.09.21-.1.3-.02,1.78,5.58,3.07,11.41,5.23,16.86,2.44,3.8,5.75,7.03,8.75,10.41,3.54,3.82,7.15,7.58,10.79,11.3,3.18,3.28,7.98,7.78,10.79,11.32,6.56,8.12,12.4,16.79,17.78,25.72,0,0,14.97,27.45,14.97,27.45l-.36.15s-2.84-9.63-2.84-9.63c-.89-2.96-2.08-6.73-2.47-9.73-.93-6.64-2.09-13.23-2.65-19.9-.69-6.67-.44-13.39-1.27-20.02-.36-3.32-.87-6.62-1.39-9.93-.8-6.67-3.17-12.95-5.5-19.21-1.22-3.11-2.11-6.35-3.49-9.39-2.76-6.08-6.19-11.84-9.45-17.67-4.3-6.4-10.58-13.7-15.34-19.81-3.09-3.95-6.89-7.26-10.69-10.51-.07-.06-.08-.16-.02-.23,2.29-.41,4.39-2.06,4.34-4.57,0-.09.07-.17.16-.17,6.33,8.98,16.98,22.05,23.84,30.91,0,0-.27.16-.27.16-2.72-6.82-6.11-13.32-9.22-19.96,0,0-9.26-19.96-9.26-19.96-2.8-6.8-5.22-13.71-7.7-20.63-2.16-6.16-4.59-14.74-6.59-21-.04-.11.09-.22.19-.17.93.45,2.02.66,3.02.32.99-.3,1.86-1,2.47-1.83.05-.06.13-.08.2-.03.55,2.85,1.14,5.76,1.85,8.61.95,4.04,2.14,8.62,3.22,12.66,1.11,4.21,2.85,8.22,4.39,12.29,1.97,4.85,4.37,11.5,6.56,16.14,2.46,5.26,5.02,10.48,7.59,15.69l-.24.07c-.33-3.18-.46-6.35-.5-9.53.11-3.19.16-6.33-.49-9.47-.59-3.1-1.24-6.27-2.94-8.96-1.63-2.71-3.63-5.2-5.49-7.78-1.89-2.58-3.15-5.57-4.09-8.6-2.92-9.15-3.31-18.87-2.06-28.34.39-3.15.76-6.32,1.63-9.4,1.83-6.1,4.07-12.05,6.58-17.89,1.2-2.79,3.15-5.74,4.57-8.37,3.17-5.5,6.43-10.97,9.79-16.35,1.48-2.8,2.85-5.68,4.07-8.6.58-1.47,1.3-2.96,2.51-4.05.9-.8,1.97-1.47,3.17-1.68.38-.07.96.07,1.05.59-.92.74-1.66,1.86-2.31,2.9-2.11,3.07-3.19,6.6-4.32,10.11-1.62,4.64-3.3,9.26-4.99,13.88-3.34,6.94-5.72,14.41-6.41,22.1-.92,11.53.93,23.17,3.6,34.36,1.15,3.69,1.92,7.48,2.74,11.25,1.17,5.42,2.35,11.55,3.37,17.04,1.34,5.68,1.03,11.52.78,17.3-.16,3.86-.37,7.71-.59,11.56-.83,7.71-.05,15.44,2.07,22.89,1.92,7.49,5.25,14.51,7.04,22.04,1.94,7.4,4.16,15.11,5.76,22.41.79-8.51,1.27-17.16,3.42-25.46.86-2.72,1.77-5.43,2.71-8.13,1.93-5.37,3.76-10.82,6.39-15.9,2.86-4.92,4.02-10.89,5.43-16.19h0Z"/>
      <path d="M186.09,254.88c4.28-5.42,8.63-10.98,12.72-16.54,3.92-5.73,9.18-10.74,15.58-13.6,2.56-1.14,5.4-1.31,8.04-2.26,4.33-1.33,8.41-3.35,12.7-4.81.1-.02.17-.05.35-.02.17.06.18.15.21.22.03.08.01.14.02.21-.29.9-1.1,1.46-1.69,2.12-2.03,1.93-3.88,3.95-5.54,6.2-1.02,1.3-5.3,7.24-6.36,8.31-3.65,3.3-8.28,5.32-12.87,6.95-5.18,1.81-10.9,3.05-14.77,7.19-4.24,3.6-7.95,7.92-10.22,13.01,2.02-5.21,5.83-9.59,10.01-13.25,3.87-4.22,9.64-5.55,14.83-7.42,2.63-.87,5.17-1.99,7.6-3.31,2.4-1.36,4.83-2.79,6.39-5.09,1.75-2.31,5.81-7.8,7.7-9.9,1.41-1.7,3.4-2.98,4.54-4.85-3.87,1.22-8.54,3.49-12.8,4.76-2.62.93-5.46,1.09-8.02,2.21-6.36,2.81-11.62,7.76-15.55,13.43,0,0-2.51,3.34-2.51,3.34-3.39,4.35-6.89,9.01-10.35,13.1h0Z"/>
      <path d="M89.29,247.4c-11.63-1.92-20.39,2.77-29.88,8.72-4.6,2.69-9.05,5.8-14.23,7.28-3.94.82-11.25,1.51-13.95-2.05-.31-.84.93-.68,1.38-.65,2.64.3,5.35.57,7.77-.59,7.62-2.85,12.68-9.52,18.79-14.54,3.12-2.49,6.56-4.85,10.52-5.75,6.56-.85,13.59-.19,19.63,2.63-5.93-2.45-13.08-3.23-19.54-2.27-3.88.93-7.22,3.29-10.28,5.78-6.6,5.47-12.21,12.92-20.88,15.2-2.3.56-4.69-.08-6.96-.06-.07.01-.09.04-.08.03,0-.03,0,.02.02.07,2.71,3.32,9.69,2.66,13.51,1.9,7.65-2.34,14.05-7.54,21.11-11.18,6.83-4.01,15.39-6.04,23.08-4.51h0Z"/>
      <path d="M71.66,223.88c-4.61-.4-10.15-.88-13.53,2.89-2.97,2.7-5.56,5.84-8.84,8.17-2.78,1.6-5.86,2.86-9.08,3.15-.8.04-1.67-.01-2.41-.45-1.25-1.04-2.36-2.45-2.49-4.12-.11-1.72,1.14-3.04,2.08-4.33,1.99-2.48,4.02-5.3,7.17-6.37,3.05-1,6.27-1.75,9.5-1.58,0,0,9.62-.03,9.62-.03l-.05.45c-4.63-1.26-9.37-2.79-13.03-6.04-1.78-1.73-2.54-4.09-3.69-6.22-.46-1.07-1.34-2.6-.32-3.62,1.04-.81,2.24-1.01,3.47-1.26,2.39-.35,4.93-.29,7.16.74,2.17,1.11,4.02,2.68,5.8,4.28,3.81,3.03,5.59,7.86,9.54,10.67-1.93-1.09-3.57-3.3-4.99-5.13-2.68-3.88-6.41-7.21-10.51-9.49-2.68-1.16-5.88-1.05-8.64-.21-1.09.35-2.19.84-1.71,2.18.53,1.68,1.49,3.23,2.26,4.82,2.46,5.34,9.54,7.25,14.76,8.82.26.05.22.46-.05.45,0,0-9.64-.02-9.64-.02-3.23-.18-6.33.54-9.39,1.52-3.02,1.01-5.08,3.81-7.02,6.22-.9,1.24-2.13,2.5-2.03,4.13.1,1.54,1.21,2.93,2.34,3.91.66.39,1.48.46,2.26.42,3.16-.27,6.24-1.51,8.98-3.06,3.95-2.77,6.9-6.71,10.71-9.65,3.4-2.05,8.15-1.7,11.78-1.23h0Z"/>
      <path d="M83.98,211.32c-1.05-2.67-1.88-5.52-1.72-8.42.28-2.86.13-5.75-.33-8.58-.35-2.14-.91-4.22-2.48-5.78-2.72-3.34-5.12-5.15-8.33-1.07-1.3,1.76-3.66,2.34-5.07,3.96-1.39,1.66-.96,4.04-.96,6.06.01,2.97,1.75,5.32,3.76,7.33.99,1.04,2.02,2.02,3.17,2.88,2.18,1.71,5.35,2.98,6.67,5.39-1.7-2.39-4.55-3.43-6.86-5.13-1.77-1.27-3.32-2.81-4.76-4.44-2.19-2.11-2.65-5.27-2.53-8.17-.02-1.44.09-3.09,1.14-4.22.98-1.13,2.37-1.72,3.57-2.51,1.79-1.21,2.77-3.5,5.15-3.88,1.56-.17,2.82.96,3.84,1.98.98,1.09,1.97,2.12,2.74,3.38,1.72,4,1.77,8.54,1.43,12.81-.26,2.84.76,5.88,1.57,8.41h0Z"/>
      <path d="M101.47,163.76c-1.2-2.78-2.19-5.71-2.37-8.76-.01-3.04-.23-6.07-.92-9.03-.66-2.95-1.8-5.81-3.43-8.35-5.33-7.33-11.33-14.3-18.06-20.4-2.9-2.66-5.05-6.31-8.67-7.99-2-.48-3.83,1.39-4.6,3.08-1.27,2.79-.42,5.94-.18,8.87.83,5.98,1.44,12.09,3.04,17.9,1.89,5.69,3.88,11.55,7.24,16.56.74,1.08,2.43,2.04,3.42,2.9,2.38,1.87,5.03,3.37,7.91,4.31,4.25,1.29,9.26,2.04,12.28,5.6-4.35-4.6-11.33-4.09-16.58-7.12-1.35-.72-2.62-1.58-3.83-2.5-1.04-.9-2.71-1.8-3.52-2.94-1.83-2.47-3.04-5.29-4.27-8.09-1.71-4.22-3.39-8.53-4.17-13.04-.81-4.49-1.43-9.01-1.97-13.53-.24-3.01-1.07-6.21.26-9.09.85-1.85,2.88-3.84,5.08-3.27,3.7,1.69,5.9,5.45,8.78,8.11,6.71,6.14,12.7,13.14,18,20.53,3.32,5.17,4.34,11.44,4.29,17.49.1,3.01,1.3,6.11,2.27,8.76h0Z"/>
      <path d="M98.08,111.5c-.47-3.82-.96-7.77-.12-11.57,1.12-3.72,3.04-7.14,5.06-10.44,1.34-2.21,3.03-4.2,4.15-6.52,2.29-4.61,3.53-9.75,3.56-14.9.08-10.46-4.27-20.21-9.93-28.8-1.96-3.33-4.34-6.47-5.84-10.06-1.03-2.45-2.36-6.17-3.56-1.22-1.89,7.51-1.94,15.34-1.65,23.04.09,1.28.16,2.6.53,3.78.03.1-.02.2-.12.23-8.06-10.62-16.78-22.2-29.28-28.01-1.24-.96-2.66-2.45-4.3-2.37-.23.04-.36.22-.48.42-.97,2.4-.19,5.04-.33,7.62.05,4.61.1,9.22,0,13.84-.48,9.12-1.61,18.51.9,27.43,1.23,4.4,2.76,8.82,5.17,12.72,3.18,4.65,7.63,8.96,13.18,10.5,5.54,1.81,10.33,5.35,13.8,10.02,1.43,1.79,2.9,3.64,3.65,5.84.01.03-.04.05-.05.02-.76-2.18-2.23-4.02-3.67-5.8-1.51-1.72-2.92-3.59-4.73-5.01-1.8-1.42-3.79-2.61-5.87-3.6-2.05-1.08-4.38-1.44-6.45-2.48-6.17-3.28-10.82-9.01-13.22-15.53-1.65-4.31-3.09-8.76-3.56-13.38-.62-6.91-.1-13.84.37-20.74.11-4.6.06-9.21.02-13.82-.07-5.4-1.29-12.27,5.73-6.08,6.29,2.81,11.55,7.38,16.32,12.25,4.75,4.91,9.03,10.25,12.89,15.89,0,0-.33.17-.33.17-.69-2.56-.57-5.15-.65-7.76-.05-6.46.19-12.98,1.82-19.27,1.31-5.19,3.03-1.75,4.14,1.2,1.48,3.57,3.84,6.7,5.79,10.03,5.66,8.62,10,18.45,9.88,28.95-.04,5.18-1.3,10.34-3.62,14.96-2.53,4.5-5.87,8.5-7.88,13.31-2.54,4.64-1.83,10.27-1.33,15.16h0Z"/>
      <path d="M53.99,148.39c-4.7,1.19-12.09,3.09-16.09-.43-1.03-1.15-1.62-2.8-1.36-4.34.44-1.99,2.56-2.84,4.37-3.18,0,0,1.13-.18,1.13-.18l-.03.09c-1.76-2.08-7.24-8.15-3.76-10.15,1.68-1.12,3.78-1.54,5.77-1.3,6.92,1.08,10.37,5.32,12.12,11.78,1.73,4.76,6.17,7.76,9.92,10.89,2.6,1.59,4.65,3.91,5.77,6.76,1.06,3.75,1.42,8.05,4.74,10.66,3.29,2.22,7.53,2.46,11.04,4.53,1.61,1.2,2.73,3.03,3.57,4.84,1.68,3.72.26,8.05,1.78,11.76.39.9,1.05,1.64,1.71,2.38.64.73,1.43,1.48,2.38,1.31,1.46-.24,2.44-1.66,3.74-2.31,1.63-.97,3.19-.07,3.67,1.67.85,2.93.41,6.04.03,9-.4,1.99-.1,3.91.83,5.71,1.68,4.02,6.02,4.79,9.92,5.11,1.98.32,4.13.19,5.87,1.41,1.55,1.23,3.11,2.64,3.99,4.5,1.38,2.78,1.18,6,.53,8.94-.4,1.9-1.61,3.75-.77,5.68.69,1.87,2.36,3.1,3.83,4.39.8.63,1.48,1.6,1.54,2.63.5,3.87.05,8.23,3.22,11.06.19.14,0,.47-.22.37-1.56-.63-2.73-1.92-3.37-3.41-1.01-2.21-.68-4.76-.67-7.06-.61-2.28-2.99-3.47-4.56-5.12-.44-.43-.89-.88-1.16-1.45-.28-1-.22-2.02-.26-3.03-.1-2.36.27-4.78.69-7.08.15-2.24-.19-4.81-1.76-6.49-2.02-2.5-5.31-3.14-8.37-3.37-1.57-.07-3.24-.25-4.7-.91-2.97-1.3-5.28-3.89-6.4-6.92-.42-1.33-.09-3.4-.09-4.8.1-2.36.23-4.72.15-7.08-.05-.76-.07-1.62-.35-2.22-1.26-.74-2.36,1.04-3.68,1.85-1.38,1.02-3.35.53-4.62-.46-4.1-3.14-2.92-8.88-3.97-13.35-.24-1.15-.39-2.32-1.18-3.23-2.81-4.69-8.9-4.59-13.2-7.21-1.37-.78-2.72-1.71-3.64-3.04-.94-1.32-1.08-2.98-1.44-4.51-.74-3.76-2.17-7.97-5.97-9.6-1.61-.8-8.97-4.26-10.68-5.1h0ZM53.99,148.34c2.48,1.18,9.49,4.42,11.78,5.6,3.9,2.43,4.6,7.3,5.54,11.42.47,2.39,2.48,3.97,4.51,5.09,2.76,1.59,5.88,2.23,8.81,3.43,2.23.92,4.05,2.7,5.16,4.83.8,2.26.94,4.67,1.25,7.02.29,3.06.54,6.47,3.25,8.4,1.16.89,2.91,1.37,4.17.43,1.17-.66,2.03-2.35,3.57-2.05.11.01.17,0,.32.03.19.04.29.18.35.28.62,1.54.4,3.19.46,4.8-.02,2.29-.16,4.8-.23,7.11.01.79-.1,1.59.17,2.26,1.08,2.86,3.32,5.39,6.14,6.62,1.44.64,2.96.8,4.54.87,3.14.22,6.61.96,8.69,3.54,2.22,2.47,2.19,6.17,1.45,9.19-.33,2.31-.36,4.7-.16,7.03,0,.73.62,1.27,1.16,1.82,1.13,1.08,2.4,2.03,3.5,3.22.53.6,1.05,1.29,1.19,2.16.11.86-.08,1.63-.09,2.41-.03,1.53.12,3.13.72,4.55.59,1.4,1.72,2.62,3.1,3.17,0,0-.2.38-.2.38-1.57-1.39-2.33-3.37-2.83-5.35-.44-2.45.03-5.06-.95-7.31-1.55-1.91-4.06-3.14-4.92-5.61-.89-2,.33-4,.76-5.92.63-2.83.83-6.01-.49-8.66-.84-1.79-2.33-3.14-3.89-4.38-1.57-1.11-3.79-1.03-5.66-1.33-4.04-.35-8.43-1.15-10.2-5.33-.95-1.81-1.27-3.92-.86-5.91.39-2.92.82-5.98,0-8.84-.28-.91-.91-1.82-1.86-1.84-2.11.01-3.13,2.38-5.19,2.7-1.1.19-2-.66-2.66-1.41-4.08-3.72-1.54-9.7-3.53-14.25-.8-1.74-1.92-3.57-3.45-4.71-3.41-2.02-7.65-2.26-11.05-4.55-3.36-2.66-3.75-6.97-4.8-10.78-1.09-2.81-3.13-5.1-5.68-6.67-3.77-3.15-8.23-6.2-9.96-11-.66-1.89-1.18-3.83-2.22-5.53-2.01-3.45-5.85-5.6-9.73-6.16-1.96-.25-4.02.16-5.68,1.26-3.42,1.86,2.22,8.12,3.77,9.96.03.03,0,.09-.03.09,0,0-1.12.17-1.12.17-2.67.41-5.32,2.27-4.08,5.29.19.77.56,1.49,1.11,2.06,3.97,3.5,11.36,1.61,16.03.44h0Z"/>
      <path d="M55.92,24.98c2.22,3.53,4.38,7.13,6.01,10.98,1.54,3.92,1.57,8.21,2.04,12.34,1.38,12.1-.94,25.9,7.09,36.12,5.44,6.3,11.99,11.65,17.23,18.16,2.69,3.21,4.89,6.94,5.93,10.99-1.31-3.97-3.41-7.63-6.18-10.79-5.37-6.42-11.92-11.68-17.37-18.05-5.22-6.75-6.31-15.65-6.29-23.91-.2-6.25-.55-12.51-1.26-18.73-.37-6.34-4.26-11.89-7.21-17.12h0Z"/>
      <path d="M90.12,54.85c4.02,6.33,6.57,13.5,6.27,21.07.07,4.95.14,9.99-1.16,14.82-1.62,7.25.48,14.75,1.74,21.93-.72-2.18-1.2-4.86-1.69-7.24-.86-4.86-1.79-9.93-.52-14.83.7-2.35.99-4.81,1.17-7.27.19-4.91.38-9.93-.3-14.79-.88-4.83-3.18-9.56-5.5-13.69h0Z"/>
      <path d="M92.62,25.36c3.73,8.89,7.56,17.83,9.82,27.23,1.55,6.23,3.15,12.61,2.89,19.08-.12,4.83-.78,9.76-2.79,14.21-1.34,2.95-3.17,5.61-4.71,8.44-.82,1.39-1.32,2.97-1.55,4.54.02-1.59.62-3.22,1.34-4.65,1.48-2.85,3.27-5.56,4.53-8.5,1.86-4.44,2.54-9.26,2.67-14.06.33-6.44-1.21-12.76-2.71-18.99-2.13-9.39-6.08-18.51-9.51-27.31h0Z"/>
      <path d="M67.15,36.28c7.79,9.36,15.57,19.25,19.6,30.89,1.76,4.95,3.51,9.94,4.35,15.16.62,3.46.51,7.03.46,10.5-.05,3.08,1.11,7.27,1.82,10.27.8,3.41,1.69,6.85,2.39,10.25-1.38-4.82-2.72-10.35-4-15.26-1.33-5.15-.13-10.5-1.15-15.68-1.13-6.87-3.51-13.54-6.07-20-4.31-9.53-10.97-18.12-17.39-26.12h0Z"/>
      <path d="M78.46,65.21c3.76,9.47,8.23,18.79,10.94,28.6-3.13-8.03-7.97-20.53-10.94-28.6h0Z"/>
      <path d="M85.91,74.8c2.02,5.94,4.91,12.12,5.38,18.31-1.51-6.03-3.63-12.5-5.38-18.31h0Z"/>
      <path d="M76.12,87.56c4.84,4.45,9.72,8.89,13.64,14.21,1.36,1.72,2.59,3.63,3.22,5.74,0,.03-.04.05-.05.02-1.31-3.08-3.65-5.39-5.61-8.03-3.17-4.38-7.64-8.08-11.2-11.94h0Z"/>
      <path d="M59.68,65.22c.59,6.92,2.34,13.8,5.7,19.92.02.02-.02.05-.04.03-4.17-5.61-5.38-13.27-5.66-19.95h0Z"/>
      <path d="M42.04,140.3c5.28.31,11.29,1.51,14.8,5.82.02.02-.01.05-.04.03-4.06-3.58-9.61-5.28-14.76-5.86h0Z"/>
      <path d="M46.69,137.41c2.37,1.51,5.15,3.17,6.29,5.84-1.96-2.03-4.13-4.2-6.29-5.84h0Z"/>
      <path d="M73.93,200.2c1.8,4.68,4.43,9.12,8.11,12.54-4.3-2.47-6.71-8.13-8.11-12.54h0Z"/>
      <path d="M70.22,188.15c.54,2.8,1.51,5.64,2.33,8.33-.99-1.09-1.39-2.62-1.68-4.03-.26-1.38-.67-3.04-.65-4.3h0Z"/>
      <path d="M57.04,213.06c5.04,3.33,10.15,7.04,15.94,8.85-3.09-.09-5.87-1.98-8.45-3.54-2.52-1.65-5.31-3.45-7.49-5.31h0Z"/>
      <path d="M46.51,206.24c7.01.52,14.09,3.7,18.49,9.28.02.02-.02.06-.04.03-5-4.9-11.58-8.54-18.46-9.32h0Z"/>
      <path d="M41.3,232.19c2.35-2.07,4.84-3.99,7.51-5.65,2.62-1.64,5.65-3.3,8.8-3.21-6.1,1.28-11.51,5.29-16.31,8.86h0Z"/>
      <path d="M50.93,255.96c8.05-10.22,22.41-17.16,35.1-11.66.03.01.01.06-.02.05-13.29-4.49-26.44,1.52-35.08,11.62h0Z"/>
      <path d="M42.77,261.37c8.2-2.83,15.44-7.75,22.2-13.08.02-.02.06.02.03.04-6.13,6.02-14.19,10.58-22.24,13.05h0Z"/>
      <path d="M209.92,195.7c-1.84,11.84-13.25,18.07-21.44,25.39-4.23,3.76-8.2,7.86-11.47,12.48-3.25,4.64-5.79,9.74-8.26,14.82-2.48,5.1-4.46,10.41-5.94,15.88-1.52,5.45-2.82,10.99-3.86,16.54-.83,5.59-1.09,11.28-1.34,16.93-.38,5.68-.02,11.38,1.19,16.92-1.48-5.48-1.81-11.25-1.51-16.93.19-5.68.39-11.36,1.17-17,2.19-11.14,4.84-22.31,9.94-32.51,2.51-5.09,5.08-10.19,8.36-14.83,3.31-4.64,7.31-8.72,11.57-12.48,4.19-3.83,9.04-6.88,13.12-10.82,4.01-3.88,7.62-8.91,8.49-14.38h0Z"/>
      <path d="M177.42,242.04c-4.35,5.72-8.12,11.92-10.92,18.54-1.89,4.43-2.83,9.14-3.73,13.84-1.4,7.06-2.64,14.15-3.84,21.25,0,.03-.05.02-.05,0,.53-4.78,1.3-9.52,2.06-14.26,1.36-7.06,2.43-14.29,5.26-20.95,2.88-6.54,6.79-13.01,11.22-18.41h0Z"/>
      <path d="M192.75,221.33c-2.94,5.34-5.74,10.93-6.91,16.95-1.23,6.01-.98,12.22-2.31,18.26-.63,3.01-1.52,5.98-2.7,8.83-1.19,2.85-2.75,5.55-4.58,8.02-3.55,5-7.04,10.04-10.65,15.01-.02.03-.06,0-.04-.03,3.37-5.13,6.86-10.18,10.29-15.27,3.68-4.89,5.97-10.69,7.3-16.64,1.37-5.97,1.17-12.19,2.46-18.22,1.25-5.97,4.11-11.83,7.15-16.9h0Z"/>
      <path d="M179.17,256.81c-2.46,6.16-4.92,12.39-8.48,18.02-2.56,3.61-4.7,7.48-6.52,11.51-3.03,5.97-3.31,12.74-3.92,19.31-.12-.93.04-2.25.04-3.32.24-3.32.56-6.63,1.14-9.91,1.66-6.44,5.25-12.32,8.99-17.76,3.63-5.5,6.15-11.97,8.75-17.84h0Z"/>
      <path d="M227.93,222.68c-4.52,4.82-9.17,9.92-15.3,12.68-1.52.71-3.13,1.22-4.66,1.8-4.6,1.89-8.26,5.49-12.46,8.11-.02.02-.05-.02-.03-.04,2.59-2.09,5.23-4.11,7.9-6.11,2.65-2.11,6.05-2.84,9.1-4.11,6.11-2.58,10.91-7.86,15.47-12.32h0Z"/>
      <path d="M207.57,232.4c3.36-2.18,6.72-4.93,10.69-5.76-3.51,1.77-7.4,3.87-10.69,5.76h0Z"/>
      <path d="M66.88,108.98c.53,4.26,1.74,8.45,3.82,12.21,2,3.82,3.54,7.86,4.74,12,1.83,6.8,4.41,13.78,8.89,19.28,2.98,3.02,6.07,6.1,9.49,8.64,2.23,1.73,4.93,3.24,7.19,4.69-6.47-3.14-12.11-7.81-17.05-13-4.55-5.56-7.02-12.65-8.83-19.52-1.17-4.13-2.66-8.17-4.61-12-1.98-3.75-3.35-8.22-3.64-12.3h0Z"/>
      <path d="M84.91,128.24c7.11,8.99,12.6,19.77,12.84,31.42,0,.03-.04.04-.05,0-.55-2.8-.76-5.71-1.44-8.46-2.12-8.31-6.37-16.2-11.35-22.96h0Z"/>
      <path d="M89.22,141.66c2.7,5.83,6.11,11.6,7.02,18.03-1.91-6.12-4.58-12.26-7.02-18.03h0Z"/>
      <path d="M74.42,150.65c3.93,4.79,8.94,8.78,14.78,10.94.03,0,.02.05-.01.05-6.15-1.24-11.25-6.23-14.77-10.99h0Z"/>
      <path d="M122.24,152.38c-2.69-8.39-9.41-14.99-11.88-23.51-3.46-10.71-1.06-22.03,1.88-32.56,2.04-8.57,5.03-16.9,8.17-25.14,2.76-5.98,5.39-12.2,9.32-17.49-4.71,7.39-8.33,15.55-11.16,23.86-2.21,6.23-4.34,12.45-5.89,18.89-3,10.46-5.45,21.7-2.07,32.38,1.85,6.38,5.99,11.72,9.04,17.54.94,1.91,2.36,4.05,2.6,6.04h0Z"/>
      <path d="M113.83,104.45c-.28,3.81-.43,7.63-.31,11.45.36,7.61,2.67,15.08,5.32,22.17,1.54,3.47,3.8,6.7,4.57,10.5,2.63,11.33-.93,22.92,1.73,34.23.67,3.76,1.53,7.5,2.73,11.12.67,3.09,1.45,6.16,2.45,9.15,3.24,8.61,6.83,18.12,9.99,26.71,1.26,4.6,2.42,9.23,3.48,13.88.99,4.65,2.12,9.38,2.28,14.12-.38-4.73-1.47-9.43-2.54-14.06-1.09-4.61-2.32-9.31-3.59-13.81-3.28-8.53-6.84-18.08-10.05-26.7-1.01-3.02-1.78-6.1-2.44-9.21-1.16-3.5-2.05-7.41-2.7-11.14-.64-3.77-1.16-7.58-1.12-11.43.3-7.59,1.26-15.32-.47-22.8-.77-3.8-2.99-6.98-4.51-10.47-2.63-7.14-4.89-14.61-5.22-22.26-.06-3.78-.02-7.85.41-11.45h0Z"/>
      <path d="M117.59,114.48c1.88,6.63,3.95,13.22,6.38,19.67,2.75,6.47,1.66,13.68,2.35,20.47,1.51,6.72,1.92,13.7,1.85,20.6-.63,6.89-.15,13.77,1.61,20.48,0,.03-.04.04-.05.01-2.03-6.64-2.55-13.61-2.06-20.5.1-6.89-.37-13.79-1.74-20.54-.64-6.84.51-13.93-2.18-20.43-2.3-6.45-4.53-13.26-6.14-19.76h0Z"/>
      <path d="M158.91,94.09c2.85,3.52,5.07,8.2,4.49,12.8-.47-4.51-1.86-9.2-4.49-12.8h0Z"/>
      <path d="M164.26,109.9c.33,4.69.55,9.47-.33,14.11-1.24,4.54-3.99,8.57-4.93,13.23-1.41,6.17.43,12.51,1.32,18.63.6,3.08,1.21,6.18,2.25,9.12,1.12,2.92,2.65,5.69,3.59,8.72.77,2.26.83,4.82-.23,7.02-.35.72-.78,1.46-1.65,1.82,0,0-.07-.37-.07-.37,8.54-1.26,10.05-16.65,12.66-23.44,2.02-5.26,2.01-11.09.14-16.41-1.13-3.55-2.97-6.9-3.75-10.64-1.3-5.67.76-11.24,1.25-16.81.23-5.64-1.2-11.25-3.14-16.48,2.16,5.15,3.58,10.85,3.42,16.5-.44,5.55-2.45,11.14-1.12,16.71.78,3.64,2.67,6.96,3.8,10.58,1.19,3.58,1.74,7.44,1.21,11.21-.51,3.75-2.11,7.22-3.01,10.88-2.01,6.21-3.72,17.04-11.42,18.29-.21.03-.29-.29-.09-.36.63-.24,1.12-.94,1.44-1.62,2.45-5.32-1.61-10.54-3.32-15.48-2.3-7.52-3.49-15.38-4.06-23.21,0-4.78,1.96-9.26,3.9-13.52,3.06-5.6,2.28-12.47,2.13-18.47h0Z"/>
      <path d="M169.53,140.42c-4.72,4.67-2.77,11.48-2.27,17.32.16,3.67-.55,7.3-.99,10.93,0,.03-.05.03-.05,0,.13-4.87.97-9.65.24-14.52-.2-2.43-.54-4.87-.24-7.32.38-2.35,1.6-4.96,3.31-6.41h0Z"/>
      <path d="M154.9,136.16c-.84,6.47-.58,13.24,1.56,19.44,1.77,4.6,4.22,8.9,6.29,13.37.64,1.52,1.24,3.13,1.56,4.72-.59-1.52-1.14-3.11-1.88-4.57-2.28-4.38-4.68-8.71-6.35-13.38-2.03-6.22-2.31-13.31-1.19-19.57h0Z"/>
      <path d="M160.73,87.57c3.9,4.99,8.37,10.45,9.17,16.9-1.82-6.15-5.51-11.86-9.17-16.9h0Z"/>
      <path d="M206.58,157.03c5.01-3.05,10.09-5.96,15.27-8.72,5.19-2.67,10.44-5.6,16.24-6.67.03,0,.04.04,0,.05-5.64,1.58-10.8,4.45-16.06,6.97-5.19,2.61-10.48,5.67-15.45,8.37h0Z"/>
      <path d="M224.89,158.24c6.7.44,13.04-2.32,19.1-4.82.03-.01.05.03.02.04-5.62,3.35-12.72,5.52-19.13,4.78h0Z"/>
      <path d="M247.19,152.51c8.82-2.91,18.47-5.27,27.74-3.28.03,0,.02.05,0,.05-9.31-1.08-18.95.61-27.73,3.23h0Z"/>
      <path d="M220.63,143.63c-4.1,3.07-8.17,6.32-12.91,8.36-4.77,1.84-9.9,2.89-14.31,5.51-.15.1-.35-.13-.2-.26,6.36-5.65,13.13-10.87,20.37-15.35,7.17-4.34,15.28-8.48,23.59-9.26-12.65,2.1-23.63,9.49-33.85,16.85-3.4,2.54-6.73,5.19-9.9,8.01,0,0-.2-.26-.2-.26,4.48-2.62,9.61-3.64,14.42-5.43,4.71-1.91,8.95-5.39,12.98-8.17h0Z"/>
      <path d="M223.22,142.3c5.46-2.13,11.45-4.4,17.38-3.61-5.9.26-11.94,1.72-17.38,3.61h0Z"/>
      <path d="M221.34,154.98c5.29-2.79,10.83-5.13,16.53-6.93,5.69-1.79,11.73-3.03,17.71-2.32.03,0,.03.05,0,.05-11.97-.22-23.7,4.25-34.24,9.2h0Z"/>
      <path d="M219.48,168.68c-4.88-5.77-11.36-10.35-18.77-12.1-.03,0-.02-.05,0-.05,7.63.8,14.32,6.4,18.76,12.15h0Z"/>
      <path d="M231.89,177.32c-3.09-8.67-9.92-17.67-19.91-17.85-.03,0-.03-.05,0-.05,10.18-.84,17.3,9.35,19.91,17.9h0Z"/>
      <path d="M233.02,171.79c-1.3-3.42-3.62-6.28-5.7-9.21,2.85,2.17,4.74,5.96,5.7,9.21h0Z"/>
      <path d="M234.47,177.9c1,5.6,2.54,11.54,1.32,17.18.16-5.69-.56-11.67-1.32-17.18h0Z"/>
      <path d="M214.17,169.45c2.99,4.84,7.1,9.07,12.22,11.63.03.01.01.06-.02.05-5.53-1.68-9.63-6.93-12.2-11.68h0Z"/>
      <path d="M165.78,184.74c2.19-2.11,4.44-4.16,6.77-6.13,2.33-1.9,4.74-4.13,7.68-4.94-5.2,3-9.89,7.39-14.45,11.07h0Z"/>
      <path d="M171.17,176.58c2.47-2.69,5.12-5.22,7.99-7.5,2.84-2.24,6.05-4.49,9.75-4.86.03,0,.04.04,0,.05-6.99,2.05-12.63,7.58-17.75,12.31h0Z"/>
      <path d="M211.98,172.53c-3.68,1.22-7.01,3.11-10.34,5.07-5.22,2.73-11.32,2.54-17.04,2.28-3.85-.34-7.65-.36-11.31,1-1.83.57-3.66,1.33-5.43,1.99,1.67-.91,3.52-1.63,5.33-2.29,5.46-2.39,11.5-.88,17.19-.98,3.81-.05,7.73-.45,11.15-2.23,3.3-1.82,6.9-3.91,10.45-4.85h0Z"/>
      <path d="M190.66,173.69c-5.24,2.06-10.41,4.39-15.61,6.48,2.29-1.64,5.02-2.64,7.65-3.65,2.6-.94,5.44-2.13,7.96-2.84h0Z"/>
      <path d="M193.18,173.1c5.43-2.1,11.33-4.14,17.21-3.64-5.8.54-11.81,1.77-17.21,3.64h0Z"/>
      <path d="M189.92,176.57c4.73-1.43,11.28-3.94,16.06-4.79-2.55,1.11-5.29,1.86-7.98,2.6-.01-.05-8.19,2.37-8.08,2.19h0Z"/>
      <path d="M238.11,102.02c-4.95,8.14-9.58,16.79-16.19,23.71,5.77-7.54,11.14-15.81,16.19-23.71h0Z"/>
      <path d="M218.54,129.57c-2.31,2.39-4.66,4.73-7.06,7.02-2.41,2.26-4.83,4.74-7.79,6.22,5.03-4.06,10.15-9.02,14.85-13.25h0Z"/>
      <path d="M247.32,89.25c-7.23,6.63-15.76,11.79-22.53,18.91-1.58,1.87-3.31,3.65-4.99,5.43-5.43,5.15-7.93,12.24-10.66,19.04,0,.03-.06.01-.05-.02,1.54-4.68,3.33-9.26,5.66-13.62,2.67-4.24,6.56-7.36,9.73-11.09,6.87-7.02,15.53-12.33,22.82-18.64h0Z"/>
      <path d="M241.42,108.81c2-5.53,5.05-13.29,6.87-18.77-.23,3.16-1.87,6.48-3.01,9.54-1.26,3.03-2.5,6.41-3.86,9.24h0Z"/>
      <path d="M219.69,135.18c5.75-5.7,11.65-11.5,15.8-18.51.01-.03.06,0,.05.02-1.48,3.84-4.31,6.98-7.06,9.97-2.78,2.92-5.79,6.05-8.78,8.52h0Z"/>
      <path d="M238.07,125.18c1.78-2.78,2.95-5.87,4.02-8.94-.01,3.26-2.19,6.54-4.02,8.94h0Z"/>
      <path d="M222.44,113.87c-2.13,3.13-4.89,7.66-7.18,10.62.63-1.89,2.1-3.8,3.31-5.5,1.26-1.67,2.57-3.67,3.87-5.12h0Z"/>
      <path d="M210.03,135.18c1.97-2.49,3.64-5.36,6.04-7.43-1.57,2.71-4.02,5.23-6.04,7.43h0Z"/>
      <path d="M209.15,125.95c-1.06,3.05-2.22,6.06-3.49,9.02-1.31,2.92-2.59,6.11-4.96,8.31,3.54-5.3,5.95-11.64,8.45-17.33h0Z"/>
      <path d="M193.33,82.53c-10.97,15.1-18.14,33.8-16.62,52.67,0,.03-.05.04-.05,0-.12-1.3-.41-4.04-.47-5.29-.15-7.65,1.15-15.4,3.77-22.59,3.15-8.81,7.65-17.56,13.37-24.8h0Z"/>
      <path d="M197.88,107.54c-1.23,4.75-2.13,10.07-4.59,14.23.56-1.78,1.74-5.33,2.36-7.09.81-2.31,1.46-4.97,2.23-7.14h0Z"/>
      <path d="M199.3,119.17c-1.56,3.97-3.3,9.79-5.35,13.45.57-2.33,1.53-4.6,2.48-6.81.04.02,2.8-6.84,2.87-6.64h0Z"/>
      <path d="M191.19,135.63c-1.15,2.4-1.94,5.11-3.6,7.19.71-2.53,2.34-5.06,3.6-7.19h0Z"/>
      <path d="M188.43,143.28c-1.57,3.37-2.86,7.73-5.63,10.15,2.02-3.18,3.9-6.96,5.63-10.15h0Z"/>
      <path d="M189.41,98.43c-2.54,7.98-4.33,16.18-6.14,24.35-1.65,8.2-3.58,16.37-4.78,24.65,0,.03-.05.03-.05,0,.71-8.35,2.61-16.56,4.44-24.73,1.93-8.09,3.78-16.56,6.53-24.26h0Z"/>
      <path d="M185.02,135.21c-1.41,5.27-2.91,12.85-4.83,17.86.47-3.03,1.35-6.04,2.21-8.99.05.02,2.52-9.05,2.61-8.86h0Z"/>
      <path d="M29.32,78.16c-.3,1.65-.71,3.6.06,5.19.89,1.54,2.31,2.74,2.89,4.47.59,2.26.53,4.78,2.07,6.7,1.39,1.92,3.59,3.07,5.71,4.01,1.09.46,2.24.69,3.43.61,7.82-.24,6,4.32,7.09,9.86.4,1.09.68,2.29,1.39,3.18,2.22,2.69,6.8,3.38,7.91,7.01,0,0-.39-.03-.39-.03.13-.66.07-1.39-.13-2.06-.63-2.09-2.59-3.42-4.51-4.24-3.7-2.65-2.37-7.63-3.32-11.43-.39-2-2.49-2.83-4.29-3.51-1.91-.72-3.92-.64-5.92-.75-2.48-.45-5.13-1.76-6.23-4.14-.42-1.49-.48-2.98-.93-4.46-.47-2.02-1.44-3.7-3.25-4.81-1.66-1.32-1.73-3.71-1.56-5.63h0ZM29.32,78.11c-.01,1.96-.02,4.24,1.68,5.52,1.83,1.04,2.92,2.87,3.4,4.88.69,1.84.35,4.12,1.77,5.61,1.7,1.76,4.19,2.81,6.65,2.65,2.57-.06,5.15.63,7.33,2,3.66,2.59,1.33,7.92,3.14,11.43.36.86,1.04,1.81,1.7,2.24,2.72,1.1,5.48,3.6,4.85,6.83-.05.21-.38.2-.39-.03-.61-2.19-3.16-3.41-4.96-4.61-5.36-2.67-4.1-7.83-5.19-12.59-.98-3.24-5.02-2.4-7.63-2.77-2.84-.76-5.68-2.29-7.48-4.66-1.54-1.95-1.47-4.48-2.04-6.76-.55-1.71-1.98-2.93-2.85-4.47-.75-1.67-.41-3.55.03-5.28h0Z"/>
    </g>
  </g>
</svg>