<?xml version="1.0" encoding="UTF-8"?>
<svg id="Layer_1" data-name="Layer 1" xmlns="http://www.w3.org/2000/svg" viewBox="0 0 800 908">
  <defs>
    <style>
      .cls-1 {
        fill: #fffcf5;
      }

      .cls-1, .cls-2, .cls-3, .cls-4 {
        stroke: #000;
        stroke-miterlimit: 10;
      }

      .cls-2 {
        fill: none;
      }

      .cls-3 {
        fill: #fafff5;
      }

      .cls-4 {
        fill: #ddd4c3;
      }
    </style>
  </defs>
  <path class="cls-3" d="M44.65.59h754.75v906.86H44.65c-24.68,0-44.72-20.04-44.72-44.72V45.32C-.07,20.63,19.97.59,44.65.59Z" transform="translate(799.34 908.05) rotate(180)"/>
  <polygon class="cls-1" points="758.91 65.55 758.91 842.45 -.07 842.45 -.07 829.91 -.07 804.76 -.07 794.29 -.07 751.78 -.07 741.3 -.07 698.8 -.07 688.32 -.07 645.81 -.07 635.33 -.07 274.92 -.07 264.44 -.07 221.94 -.07 211.46 -.07 168.95 -.07 158.48 -.07 115.97 -.07 105.49 -.07 89.91 -.07 65.55 758.91 65.55"/>
  <polygon class="cls-1" points="743.05 65.55 743.05 842.45 -.07 842.45 -.07 829.91 -.07 804.76 -.07 794.29 -.07 751.78 -.07 741.3 -.07 698.8 -.07 688.32 -.07 645.81 -.07 635.33 -.07 274.92 -.07 264.44 -.07 221.94 -.07 211.46 -.07 168.95 -.07 158.48 -.07 115.97 -.07 105.49 -.07 89.91 -.07 65.55 743.05 65.55"/>
  <polygon class="cls-1" points="727.8 65.55 727.8 842.45 -.07 842.45 -.07 829.91 -.07 804.76 -.07 794.29 -.07 751.78 -.07 741.3 -.07 698.8 -.07 688.32 -.07 645.81 -.07 635.33 -.07 274.92 -.07 264.44 -.07 221.94 -.07 211.46 -.07 168.95 -.07 158.48 -.07 115.97 -.07 105.49 -.07 89.91 -.07 65.55 727.8 65.55"/>
  <polygon class="cls-1" points="713.64 65.55 713.64 842.45 -.07 842.45 -.07 829.91 -.07 804.76 -.07 794.29 -.07 751.78 -.07 741.3 -.07 698.8 -.07 688.32 -.07 645.81 -.07 635.33 -.07 274.92 -.07 264.44 -.07 221.94 -.07 211.46 -.07 168.95 -.07 158.48 -.07 115.97 -.07 105.49 -.07 89.91 -.07 65.55 713.64 65.55"/>
  <path class="cls-2" d="M-.07,73.87v11.7"/>
  <g>
    <path class="cls-4" d="M41.98,116.44c4.58,0,8.3-3.71,8.3-8.3s-3.71-8.3-8.3-8.3c0,0-2.97-2.2-8.33-4.79,2.41-1.53,5.26-2.44,8.33-2.44,8.58,0,15.53,6.95,15.53,15.53s-6.95,15.53-15.53,15.53-15.53-6.95-15.53-15.53c0-.42.03-.84.06-1.25,2.82,1.05,5.3,2.14,7.4,3.17.87,3.66,4.14,6.38,8.07,6.38Z"/>
    <path class="cls-3" d="M33.65,95.06c5.36,2.6,8.33,4.79,8.33,4.79,4.58,0,8.3,3.71,8.3,8.3s-3.71,8.3-8.3,8.3c-3.92,0-7.2-2.72-8.07-6.38-2.1-1.03-4.58-2.12-7.4-3.17-6.95-2.58-15.98-4.89-26.58-5.26v-14.89c14.73.52,26.43,4.79,33.72,8.31Z"/>
    <path class="cls-4" d="M57.5,183.44c0,8.58-6.95,15.53-15.53,15.53s-15.53-6.95-15.53-15.53c0-.42.03-.84.06-1.25,2.82,1.05,5.3,2.14,7.4,3.17.87,3.66,4.14,6.38,8.07,6.38,4.58,0,8.3-3.71,8.3-8.3s-3.71-8.3-8.3-8.3c0,0-2.97-2.2-8.33-4.79,2.41-1.54,5.26-2.44,8.33-2.44,8.58,0,15.53,6.95,15.53,15.53Z"/>
    <path class="cls-2" d="M-.07,162.03v14.89"/>
    <path class="cls-3" d="M33.65,170.35c5.36,2.6,8.33,4.79,8.33,4.79,4.58,0,8.3,3.71,8.3,8.3s-3.71,8.3-8.3,8.3c-3.92,0-7.2-2.72-8.07-6.38-2.1-1.03-4.58-2.12-7.4-3.17-6.95-2.58-15.98-4.89-26.58-5.26v-14.89c14.73.52,26.43,4.79,33.72,8.31Z"/>
    <path class="cls-4" d="M41.98,267.03c4.58,0,8.3-3.71,8.3-8.3s-3.71-8.3-8.3-8.3c0,0-2.97-2.2-8.33-4.79,2.41-1.54,5.26-2.44,8.33-2.44,8.58,0,15.53,6.95,15.53,15.53s-6.95,15.53-15.53,15.53-15.53-6.95-15.53-15.53c0-.42.03-.84.06-1.25,2.82,1.05,5.3,2.14,7.4,3.17.87,3.66,4.14,6.38,8.07,6.38Z"/>
    <path class="cls-2" d="M-.07,237.32v14.89"/>
    <path class="cls-3" d="M33.65,245.64c5.36,2.6,8.33,4.79,8.33,4.79,4.58,0,8.3,3.71,8.3,8.3s-3.71,8.3-8.3,8.3c-3.92,0-7.2-2.72-8.07-6.38-2.1-1.03-4.58-2.12-7.4-3.17-6.95-2.58-15.98-4.89-26.58-5.26v-14.89c14.73.52,26.43,4.79,33.72,8.31Z"/>
    <path class="cls-4" d="M41.98,342.32c4.58,0,8.3-3.71,8.3-8.3s-3.71-8.3-8.3-8.3c0,0-2.97-2.2-8.33-4.79,2.41-1.53,5.26-2.44,8.33-2.44,8.58,0,15.53,6.95,15.53,15.53s-6.95,15.53-15.53,15.53-15.53-6.95-15.53-15.53c0-.42.03-.84.06-1.25,2.82,1.05,5.3,2.14,7.4,3.17.87,3.66,4.14,6.38,8.07,6.38Z"/>
    <path class="cls-2" d="M-.07,312.61v14.89"/>
    <path class="cls-3" d="M33.65,320.93c5.36,2.6,8.33,4.79,8.33,4.79,4.58,0,8.3,3.71,8.3,8.3s-3.71,8.3-8.3,8.3c-3.92,0-7.2-2.72-8.07-6.38-2.1-1.03-4.58-2.12-7.4-3.17-6.95-2.58-15.98-4.89-26.58-5.26v-14.89c14.73.52,26.43,4.79,33.72,8.31Z"/>
  </g>
  <g>
    <path class="cls-4" d="M41.98,572.7c4.58,0,8.3-3.71,8.3-8.3s-3.71-8.3-8.3-8.3c0,0-2.97-2.2-8.33-4.79,2.41-1.53,5.26-2.44,8.33-2.44,8.58,0,15.53,6.95,15.53,15.53s-6.95,15.53-15.53,15.53-15.53-6.95-15.53-15.53c0-.42.03-.84.06-1.25,2.82,1.05,5.3,2.14,7.4,3.17.87,3.66,4.14,6.38,8.07,6.38Z"/>
    <path class="cls-3" d="M33.65,551.31c5.36,2.6,8.33,4.79,8.33,4.79,4.58,0,8.3,3.71,8.3,8.3s-3.71,8.3-8.3,8.3c-3.92,0-7.2-2.72-8.07-6.38-2.1-1.03-4.58-2.12-7.4-3.17-6.95-2.58-15.98-4.89-26.58-5.26v-14.89c14.73.52,26.43,4.79,33.72,8.31Z"/>
    <path class="cls-4" d="M57.5,639.69c0,8.58-6.95,15.53-15.53,15.53s-15.53-6.95-15.53-15.53c0-.42.03-.84.06-1.25,2.82,1.05,5.3,2.14,7.4,3.17.87,3.66,4.14,6.38,8.07,6.38,4.58,0,8.3-3.71,8.3-8.3s-3.71-8.3-8.3-8.3c0,0-2.97-2.2-8.33-4.79,2.41-1.54,5.26-2.44,8.33-2.44,8.58,0,15.53,6.95,15.53,15.53Z"/>
    <path class="cls-2" d="M-.07,618.29v14.89"/>
    <path class="cls-3" d="M33.65,626.6c5.36,2.6,8.33,4.79,8.33,4.79,4.58,0,8.3,3.71,8.3,8.3s-3.71,8.3-8.3,8.3c-3.92,0-7.2-2.72-8.07-6.38-2.1-1.03-4.58-2.12-7.4-3.17-6.95-2.58-15.98-4.89-26.58-5.26v-14.89c14.73.52,26.43,4.79,33.72,8.31Z"/>
    <path class="cls-4" d="M41.98,723.28c4.58,0,8.3-3.71,8.3-8.3s-3.71-8.3-8.3-8.3c0,0-2.97-2.2-8.33-4.79,2.41-1.54,5.26-2.44,8.33-2.44,8.58,0,15.53,6.95,15.53,15.53s-6.95,15.53-15.53,15.53-15.53-6.95-15.53-15.53c0-.42.03-.84.06-1.25,2.82,1.05,5.3,2.14,7.4,3.17.87,3.66,4.14,6.38,8.07,6.38Z"/>
    <path class="cls-2" d="M-.07,693.58v14.89"/>
    <path class="cls-3" d="M33.65,701.89c5.36,2.6,8.33,4.79,8.33,4.79,4.58,0,8.3,3.71,8.3,8.3s-3.71,8.3-8.3,8.3c-3.92,0-7.2-2.72-8.07-6.38-2.1-1.03-4.58-2.12-7.4-3.17-6.95-2.58-15.98-4.89-26.58-5.26v-14.89c14.73.52,26.43,4.79,33.72,8.31Z"/>
    <path class="cls-4" d="M41.98,798.57c4.58,0,8.3-3.71,8.3-8.3s-3.71-8.3-8.3-8.3c0,0-2.97-2.2-8.33-4.79,2.41-1.53,5.26-2.44,8.33-2.44,8.58,0,15.53,6.95,15.53,15.53s-6.95,15.53-15.53,15.53-15.53-6.95-15.53-15.53c0-.42.03-.84.06-1.25,2.82,1.05,5.3,2.14,7.4,3.17.87,3.66,4.14,6.38,8.07,6.38Z"/>
    <path class="cls-2" d="M-.07,768.87v14.89"/>
    <path class="cls-3" d="M33.65,777.18c5.36,2.6,8.33,4.79,8.33,4.79,4.58,0,8.3,3.71,8.3,8.3s-3.71,8.3-8.3,8.3c-3.92,0-7.2-2.72-8.07-6.38-2.1-1.03-4.58-2.12-7.4-3.17-6.95-2.58-15.98-4.89-26.58-5.26v-14.89c14.73.52,26.43,4.79,33.72,8.31Z"/>
  </g>
</svg>