<?xml version="1.0" encoding="UTF-8"?>
<svg id="Layer_1" data-name="Layer 1" xmlns="http://www.w3.org/2000/svg" viewBox="0 0 1598.94 906.86">
  <defs>
    <style>
      .cls-1 {
        stroke-dasharray: 16.02 16.02;
      }

      .cls-1, .cls-2, .cls-3, .cls-4, .cls-5, .cls-6 {
        fill: none;
        stroke-linecap: round;
        stroke-linejoin: round;
        stroke-width: 2px;
      }

      .cls-1, .cls-2, .cls-5 {
        stroke: #333;
      }

      .cls-7 {
        fill: #f2f2f2;
      }

      .cls-7, .cls-8, .cls-9, .cls-10, .cls-11 {
        stroke: #000;
        stroke-miterlimit: 10;
      }

      .cls-8 {
        fill: #eef5ff;
      }

      .cls-3 {
        stroke-dasharray: 15;
      }

      .cls-3, .cls-4, .cls-6 {
        stroke: #acb9cc;
      }

      .cls-9 {
        fill: #fff;
      }

      .cls-5 {
        stroke-dasharray: 16;
      }

      .cls-6 {
        stroke-dasharray: 15.06 15.06;
      }

      .cls-10 {
        fill: #f9f2f2;
      }

      .cls-11 {
        fill: #ddd4c3;
      }
    </style>
  </defs>
  <g>
    <path class="cls-8" d="M798.8,3.6h742.49c28.7,0,51.97,25.74,51.97,57.49v784.67c0,31.75-23.27,57.49-51.97,57.49h-742.49"/>
    <g>
      <line class="cls-2" x1="805.92" y1="833.26" x2="805.92" y2="825.26"/>
      <polyline class="cls-1" points="805.92 809.25 805.92 785.82 805.92 774.12 805.92 726.68 805.92 714.98 805.92 667.53 805.92 655.84 805.92 253.54 805.92 241.84 805.92 194.4 805.92 182.7 805.92 135.25 805.92 123.56 805.92 80.42"/>
      <line class="cls-2" x1="805.92" y1="72.41" x2="805.92" y2="64.41"/>
    </g>
    <g>
      <line class="cls-4" x1="805.92" y1="19.83" x2="813.42" y2="19.83"/>
      <path class="cls-6" d="M828.48,19.83h691.01c27.58,0,49.94,24.81,49.94,55.41v756.36c0,30.6-22.36,55.41-49.94,55.41h-698.54"/>
      <line class="cls-4" x1="813.42" y1="887.03" x2="805.92" y2="887.03"/>
    </g>
    <rect class="cls-9" x="805.28" y="47.87" width="729.89" height="811.17"/>
    <g>
      <path class="cls-11" d="M840.85,115.87c4.58,0,8.3-3.71,8.3-8.3s-3.71-8.3-8.3-8.3c0,0-2.97-2.2-8.33-4.79,2.41-1.53,5.26-2.44,8.33-2.44,8.58,0,15.53,6.95,15.53,15.53s-6.95,15.53-15.53,15.53-15.53-6.95-15.53-15.53c0-.42.03-.84.06-1.25,2.82,1.05,5.3,2.14,7.4,3.17.87,3.66,4.14,6.38,8.07,6.38Z"/>
      <path class="cls-7" d="M832.52,94.49c5.36,2.6,8.33,4.79,8.33,4.79,4.58,0,8.3,3.71,8.3,8.3s-3.71,8.3-8.3,8.3c-3.92,0-7.2-2.72-8.07-6.38-2.1-1.03-4.58-2.12-7.4-3.17-6.95-2.58-15.98-4.89-26.58-5.26v-14.89c14.73.52,26.43,4.79,33.72,8.31Z"/>
      <path class="cls-11" d="M856.37,182.87c0,8.58-6.95,15.53-15.53,15.53s-15.53-6.95-15.53-15.53c0-.42.03-.84.06-1.25,2.82,1.05,5.3,2.14,7.4,3.17.87,3.66,4.14,6.38,8.07,6.38,4.58,0,8.3-3.71,8.3-8.3s-3.71-8.3-8.3-8.3c0,0-2.97-2.2-8.33-4.79,2.41-1.54,5.26-2.44,8.33-2.44,8.58,0,15.53,6.95,15.53,15.53Z"/>
      <line class="cls-7" x1="798.8" y1="161.46" x2="798.8" y2="176.35"/>
      <path class="cls-7" d="M832.52,169.78c5.36,2.6,8.33,4.79,8.33,4.79,4.58,0,8.3,3.71,8.3,8.3s-3.71,8.3-8.3,8.3c-3.92,0-7.2-2.72-8.07-6.38-2.1-1.03-4.58-2.12-7.4-3.17-6.95-2.58-15.98-4.89-26.58-5.26v-14.89c14.73.52,26.43,4.79,33.72,8.31Z"/>
      <path class="cls-11" d="M840.85,266.45c4.58,0,8.3-3.71,8.3-8.3s-3.71-8.3-8.3-8.3c0,0-2.97-2.2-8.33-4.79,2.41-1.54,5.26-2.44,8.33-2.44,8.58,0,15.53,6.95,15.53,15.53s-6.95,15.53-15.53,15.53-15.53-6.95-15.53-15.53c0-.42.03-.84.06-1.25,2.82,1.05,5.3,2.14,7.4,3.17.87,3.66,4.14,6.38,8.07,6.38Z"/>
      <line class="cls-7" x1="798.8" y1="236.75" x2="798.8" y2="251.64"/>
      <path class="cls-7" d="M832.52,245.07c5.36,2.6,8.33,4.79,8.33,4.79,4.58,0,8.3,3.71,8.3,8.3s-3.71,8.3-8.3,8.3c-3.92,0-7.2-2.72-8.07-6.38-2.1-1.03-4.58-2.12-7.4-3.17-6.95-2.58-15.98-4.89-26.58-5.26v-14.89c14.73.52,26.43,4.79,33.72,8.31Z"/>
      <path class="cls-11" d="M840.85,341.75c4.58,0,8.3-3.71,8.3-8.3s-3.71-8.3-8.3-8.3c0,0-2.97-2.2-8.33-4.79,2.41-1.53,5.26-2.44,8.33-2.44,8.58,0,15.53,6.95,15.53,15.53s-6.95,15.53-15.53,15.53-15.53-6.95-15.53-15.53c0-.42.03-.84.06-1.25,2.82,1.05,5.3,2.14,7.4,3.17.87,3.66,4.14,6.38,8.07,6.38Z"/>
      <line class="cls-7" x1="798.8" y1="312.04" x2="798.8" y2="326.93"/>
      <path class="cls-7" d="M832.52,320.36c5.36,2.6,8.33,4.79,8.33,4.79,4.58,0,8.3,3.71,8.3,8.3s-3.71,8.3-8.3,8.3c-3.92,0-7.2-2.72-8.07-6.38-2.1-1.03-4.58-2.12-7.4-3.17-6.95-2.58-15.98-4.89-26.58-5.26v-14.89c14.73.52,26.43,4.79,33.72,8.31Z"/>
    </g>
    <g>
      <path class="cls-11" d="M840.85,572.13c4.58,0,8.3-3.71,8.3-8.3s-3.71-8.3-8.3-8.3c0,0-2.97-2.2-8.33-4.79,2.41-1.53,5.26-2.44,8.33-2.44,8.58,0,15.53,6.95,15.53,15.53s-6.95,15.53-15.53,15.53-15.53-6.95-15.53-15.53c0-.42.03-.84.06-1.25,2.82,1.05,5.3,2.14,7.4,3.17.87,3.66,4.14,6.38,8.07,6.38Z"/>
      <path class="cls-7" d="M832.52,550.74c5.36,2.6,8.33,4.79,8.33,4.79,4.58,0,8.3,3.71,8.3,8.3s-3.71,8.3-8.3,8.3c-3.92,0-7.2-2.72-8.07-6.38-2.1-1.03-4.58-2.12-7.4-3.17-6.95-2.58-15.98-4.89-26.58-5.26v-14.89c14.73.52,26.43,4.79,33.72,8.31Z"/>
      <path class="cls-11" d="M856.37,639.12c0,8.58-6.95,15.53-15.53,15.53s-15.53-6.95-15.53-15.53c0-.42.03-.84.06-1.25,2.82,1.05,5.3,2.14,7.4,3.17.87,3.66,4.14,6.38,8.07,6.38,4.58,0,8.3-3.71,8.3-8.3s-3.71-8.3-8.3-8.3c0,0-2.97-2.2-8.33-4.79,2.41-1.54,5.26-2.44,8.33-2.44,8.58,0,15.53,6.95,15.53,15.53Z"/>
      <line class="cls-7" x1="798.8" y1="617.72" x2="798.8" y2="632.61"/>
      <path class="cls-7" d="M832.52,626.03c5.36,2.6,8.33,4.79,8.33,4.79,4.58,0,8.3,3.71,8.3,8.3s-3.71,8.3-8.3,8.3c-3.92,0-7.2-2.72-8.07-6.38-2.1-1.03-4.58-2.12-7.4-3.17-6.95-2.58-15.98-4.89-26.58-5.26v-14.89c14.73.52,26.43,4.79,33.72,8.31Z"/>
      <path class="cls-11" d="M840.85,722.71c4.58,0,8.3-3.71,8.3-8.3s-3.71-8.3-8.3-8.3c0,0-2.97-2.2-8.33-4.79,2.41-1.54,5.26-2.44,8.33-2.44,8.58,0,15.53,6.95,15.53,15.53s-6.95,15.53-15.53,15.53-15.53-6.95-15.53-15.53c0-.42.03-.84.06-1.25,2.82,1.05,5.3,2.14,7.4,3.17.87,3.66,4.14,6.38,8.07,6.38Z"/>
      <line class="cls-7" x1="798.8" y1="693.01" x2="798.8" y2="707.9"/>
      <path class="cls-7" d="M832.52,701.32c5.36,2.6,8.33,4.79,8.33,4.79,4.58,0,8.3,3.71,8.3,8.3s-3.71,8.3-8.3,8.3c-3.92,0-7.2-2.72-8.07-6.38-2.1-1.03-4.58-2.12-7.4-3.17-6.95-2.58-15.98-4.89-26.58-5.26v-14.89c14.73.52,26.43,4.79,33.72,8.31Z"/>
      <path class="cls-11" d="M840.85,798c4.58,0,8.3-3.71,8.3-8.3s-3.71-8.3-8.3-8.3c0,0-2.97-2.2-8.33-4.79,2.41-1.53,5.26-2.44,8.33-2.44,8.58,0,15.53,6.95,15.53,15.53s-6.95,15.53-15.53,15.53-15.53-6.95-15.53-15.53c0-.42.03-.84.06-1.25,2.82,1.05,5.3,2.14,7.4,3.17.87,3.66,4.14,6.38,8.07,6.38Z"/>
      <line class="cls-7" x1="798.8" y1="768.3" x2="798.8" y2="783.19"/>
      <path class="cls-7" d="M832.52,776.61c5.36,2.6,8.33,4.79,8.33,4.79,4.58,0,8.3,3.71,8.3,8.3s-3.71,8.3-8.3,8.3c-3.92,0-7.2-2.72-8.07-6.38-2.1-1.03-4.58-2.12-7.4-3.17-6.95-2.58-15.98-4.89-26.58-5.26v-14.89c14.73.52,26.43,4.79,33.72,8.31Z"/>
    </g>
  </g>
  <g>
    <path class="cls-8" d="M800.13,3.6H57.64C28.94,3.6,5.67,29.34,5.67,61.09v784.67c0,31.75,23.27,57.49,51.97,57.49h742.49"/>
    <polyline class="cls-5" points="789.86 844.96 789.86 833.26 789.86 785.82 789.86 774.12 789.86 726.68 789.86 714.98 789.86 667.53 789.86 655.84 789.86 253.54 789.86 241.84 789.86 194.4 789.86 182.7 789.86 135.25 789.86 123.56 789.86 76.11 789.86 64.41"/>
    <path class="cls-3" d="M789.86,19.83H78.41c-27.5,0-49.79,24.81-49.79,55.41v756.36c0,30.6,22.29,55.41,49.79,55.41h711.45"/>
    <g>
      <path class="cls-10" d="M48.55,67.02h72.25v43.36H48.55c-4.85,0-8.79-3.94-8.79-8.79v-25.78c0-4.85,3.94-8.79,8.79-8.79Z"/>
      <path class="cls-10" d="M48.55,132.72h72.25v43.36H48.55c-4.85,0-8.79-3.94-8.79-8.79v-25.78c0-4.85,3.94-8.79,8.79-8.79Z"/>
      <path class="cls-10" d="M48.55,198.42h72.25v43.36H48.55c-4.85,0-8.79-3.94-8.79-8.79v-25.78c0-4.85,3.94-8.79,8.79-8.79Z"/>
      <path class="cls-10" d="M48.55,264.12h72.25v43.36H48.55c-4.85,0-8.79-3.94-8.79-8.79v-25.78c0-4.85,3.94-8.79,8.79-8.79Z"/>
      <path class="cls-10" d="M48.55,329.82h72.25v43.36H48.55c-4.85,0-8.79-3.94-8.79-8.79v-25.78c0-4.85,3.94-8.79,8.79-8.79Z"/>
      <path class="cls-10" d="M48.55,395.51h72.25v43.36H48.55c-4.85,0-8.79-3.94-8.79-8.79v-25.78c0-4.85,3.94-8.79,8.79-8.79Z"/>
      <path class="cls-10" d="M48.55,461.21h72.25v43.36H48.55c-4.85,0-8.79-3.94-8.79-8.79v-25.78c0-4.85,3.94-8.79,8.79-8.79Z"/>
      <path class="cls-10" d="M48.55,526.91h72.25v43.36H48.55c-4.85,0-8.79-3.94-8.79-8.79v-25.78c0-4.85,3.94-8.79,8.79-8.79Z"/>
      <path class="cls-10" d="M48.55,592.61h72.25v43.36H48.55c-4.85,0-8.79-3.94-8.79-8.79v-25.78c0-4.85,3.94-8.79,8.79-8.79Z"/>
      <path class="cls-10" d="M48.55,658.31h72.25v43.36H48.55c-4.85,0-8.79-3.94-8.79-8.79v-25.78c0-4.85,3.94-8.79,8.79-8.79Z"/>
      <path class="cls-10" d="M48.55,724.01h72.25v43.36H48.55c-4.85,0-8.79-3.94-8.79-8.79v-25.78c0-4.85,3.94-8.79,8.79-8.79Z"/>
      <path class="cls-10" d="M48.55,789.71h72.25v43.36H48.55c-4.85,0-8.79-3.94-8.79-8.79v-25.78c0-4.85,3.94-8.79,8.79-8.79Z"/>
    </g>
    <rect class="cls-9" x="61.35" y="48.1" width="729.89" height="811.17"/>
    <g>
      <path class="cls-11" d="M758.09,115.87c-4.58,0-8.3-3.71-8.3-8.3s3.71-8.3,8.3-8.3c0,0,2.97-2.2,8.33-4.79-2.41-1.53-5.26-2.44-8.33-2.44-8.58,0-15.53,6.95-15.53,15.53s6.95,15.53,15.53,15.53,15.53-6.95,15.53-15.53c0-.42-.03-.84-.06-1.25-2.82,1.05-5.3,2.14-7.4,3.17-.87,3.66-4.14,6.38-8.07,6.38Z"/>
      <path class="cls-7" d="M766.42,94.49c-5.36,2.6-8.33,4.79-8.33,4.79-4.58,0-8.3,3.71-8.3,8.3s3.71,8.3,8.3,8.3c3.92,0,7.2-2.72,8.07-6.38,2.1-1.03,4.58-2.12,7.4-3.17,6.95-2.58,15.98-4.89,26.58-5.26v-14.89c-14.73.52-26.43,4.79-33.72,8.31Z"/>
      <path class="cls-11" d="M742.56,182.87c0,8.58,6.95,15.53,15.53,15.53s15.53-6.95,15.53-15.53c0-.42-.03-.84-.06-1.25-2.82,1.05-5.3,2.14-7.4,3.17-.87,3.66-4.14,6.38-8.07,6.38-4.58,0-8.3-3.71-8.3-8.3s3.71-8.3,8.3-8.3c0,0,2.97-2.2,8.33-4.79-2.41-1.54-5.26-2.44-8.33-2.44-8.58,0-15.53,6.95-15.53,15.53Z"/>
      <line class="cls-7" x1="800.13" y1="161.46" x2="800.13" y2="176.35"/>
      <path class="cls-7" d="M766.42,169.78c-5.36,2.6-8.33,4.79-8.33,4.79-4.58,0-8.3,3.71-8.3,8.3s3.71,8.3,8.3,8.3c3.92,0,7.2-2.72,8.07-6.38,2.1-1.03,4.58-2.12,7.4-3.17,6.95-2.58,15.98-4.89,26.58-5.26v-14.89c-14.73.52-26.43,4.79-33.72,8.31Z"/>
      <path class="cls-11" d="M758.09,266.45c-4.58,0-8.3-3.71-8.3-8.3s3.71-8.3,8.3-8.3c0,0,2.97-2.2,8.33-4.79-2.41-1.54-5.26-2.44-8.33-2.44-8.58,0-15.53,6.95-15.53,15.53s6.95,15.53,15.53,15.53,15.53-6.95,15.53-15.53c0-.42-.03-.84-.06-1.25-2.82,1.05-5.3,2.14-7.4,3.17-.87,3.66-4.14,6.38-8.07,6.38Z"/>
      <line class="cls-7" x1="800.13" y1="236.75" x2="800.13" y2="251.64"/>
      <path class="cls-7" d="M766.42,245.07c-5.36,2.6-8.33,4.79-8.33,4.79-4.58,0-8.3,3.71-8.3,8.3s3.71,8.3,8.3,8.3c3.92,0,7.2-2.72,8.07-6.38,2.1-1.03,4.58-2.12,7.4-3.17,6.95-2.58,15.98-4.89,26.58-5.26v-14.89c-14.73.52-26.43,4.79-33.72,8.31Z"/>
      <path class="cls-11" d="M758.09,341.75c-4.58,0-8.3-3.71-8.3-8.3s3.71-8.3,8.3-8.3c0,0,2.97-2.2,8.33-4.79-2.41-1.53-5.26-2.44-8.33-2.44-8.58,0-15.53,6.95-15.53,15.53s6.95,15.53,15.53,15.53,15.53-6.95,15.53-15.53c0-.42-.03-.84-.06-1.25-2.82,1.05-5.3,2.14-7.4,3.17-.87,3.66-4.14,6.38-8.07,6.38Z"/>
      <line class="cls-7" x1="800.13" y1="312.04" x2="800.13" y2="326.93"/>
      <path class="cls-7" d="M766.42,320.36c-5.36,2.6-8.33,4.79-8.33,4.79-4.58,0-8.3,3.71-8.3,8.3s3.71,8.3,8.3,8.3c3.92,0,7.2-2.72,8.07-6.38,2.1-1.03,4.58-2.12,7.4-3.17,6.95-2.58,15.98-4.89,26.58-5.26v-14.89c-14.73.52-26.43,4.79-33.72,8.31Z"/>
    </g>
    <g>
      <path class="cls-11" d="M758.09,572.13c-4.58,0-8.3-3.71-8.3-8.3s3.71-8.3,8.3-8.3c0,0,2.97-2.2,8.33-4.79-2.41-1.53-5.26-2.44-8.33-2.44-8.58,0-15.53,6.95-15.53,15.53s6.95,15.53,15.53,15.53,15.53-6.95,15.53-15.53c0-.42-.03-.84-.06-1.25-2.82,1.05-5.3,2.14-7.4,3.17-.87,3.66-4.14,6.38-8.07,6.38Z"/>
      <path class="cls-7" d="M766.42,550.74c-5.36,2.6-8.33,4.79-8.33,4.79-4.58,0-8.3,3.71-8.3,8.3s3.71,8.3,8.3,8.3c3.92,0,7.2-2.72,8.07-6.38,2.1-1.03,4.58-2.12,7.4-3.17,6.95-2.58,15.98-4.89,26.58-5.26v-14.89c-14.73.52-26.43,4.79-33.72,8.31Z"/>
      <path class="cls-11" d="M742.56,639.12c0,8.58,6.95,15.53,15.53,15.53s15.53-6.95,15.53-15.53c0-.42-.03-.84-.06-1.25-2.82,1.05-5.3,2.14-7.4,3.17-.87,3.66-4.14,6.38-8.07,6.38-4.58,0-8.3-3.71-8.3-8.3s3.71-8.3,8.3-8.3c0,0,2.97-2.2,8.33-4.79-2.41-1.54-5.26-2.44-8.33-2.44-8.58,0-15.53,6.95-15.53,15.53Z"/>
      <line class="cls-7" x1="800.13" y1="617.72" x2="800.13" y2="632.61"/>
      <path class="cls-7" d="M766.42,626.03c-5.36,2.6-8.33,4.79-8.33,4.79-4.58,0-8.3,3.71-8.3,8.3s3.71,8.3,8.3,8.3c3.92,0,7.2-2.72,8.07-6.38,2.1-1.03,4.58-2.12,7.4-3.17,6.95-2.58,15.98-4.89,26.58-5.26v-14.89c-14.73.52-26.43,4.79-33.72,8.31Z"/>
      <path class="cls-11" d="M758.09,722.71c-4.58,0-8.3-3.71-8.3-8.3s3.71-8.3,8.3-8.3c0,0,2.97-2.2,8.33-4.79-2.41-1.54-5.26-2.44-8.33-2.44-8.58,0-15.53,6.95-15.53,15.53s6.95,15.53,15.53,15.53,15.53-6.95,15.53-15.53c0-.42-.03-.84-.06-1.25-2.82,1.05-5.3,2.14-7.4,3.17-.87,3.66-4.14,6.38-8.07,6.38Z"/>
      <line class="cls-7" x1="800.13" y1="693.01" x2="800.13" y2="707.9"/>
      <path class="cls-7" d="M766.42,701.32c-5.36,2.6-8.33,4.79-8.33,4.79-4.58,0-8.3,3.71-8.3,8.3s3.71,8.3,8.3,8.3c3.92,0,7.2-2.72,8.07-6.38,2.1-1.03,4.58-2.12,7.4-3.17,6.95-2.58,15.98-4.89,26.58-5.26v-14.89c-14.73.52-26.43,4.79-33.72,8.31Z"/>
      <path class="cls-11" d="M758.09,798c-4.58,0-8.3-3.71-8.3-8.3s3.71-8.3,8.3-8.3c0,0,2.97-2.2,8.33-4.79-2.41-1.53-5.26-2.44-8.33-2.44-8.58,0-15.53,6.95-15.53,15.53s6.95,15.53,15.53,15.53,15.53-6.95,15.53-15.53c0-.42-.03-.84-.06-1.25-2.82,1.05-5.3,2.14-7.4,3.17-.87,3.66-4.14,6.38-8.07,6.38Z"/>
      <line class="cls-7" x1="800.13" y1="768.3" x2="800.13" y2="783.19"/>
      <path class="cls-7" d="M766.42,776.61c-5.36,2.6-8.33,4.79-8.33,4.79-4.58,0-8.3,3.71-8.3,8.3s3.71,8.3,8.3,8.3c3.92,0,7.2-2.72,8.07-6.38,2.1-1.03,4.58-2.12,7.4-3.17,6.95-2.58,15.98-4.89,26.58-5.26v-14.89c-14.73.52-26.43,4.79-33.72,8.31Z"/>
    </g>
  </g>
</svg>