<?xml version="1.0" encoding="UTF-8"?>
<svg id="Layer_1" data-name="Layer 1" xmlns="http://www.w3.org/2000/svg" viewBox="0 0 1598.94 906.86">
  <defs>
    <style>
      .cls-1 {
        fill: none;
        stroke: #000;
        stroke-miterlimit: 10;
      }
    </style>
  </defs>
  <path class="cls-1" d="M799.47,73.27v11.7"/>
  <g>
    <path class="cls-1" d="M757.43,115.85c-4.58,0-8.3-3.71-8.3-8.3s3.71-8.3,8.3-8.3c0,0,2.97-2.2,8.33-4.79-2.41-1.53-5.26-2.44-8.33-2.44-8.58,0-15.53,6.95-15.53,15.53s6.95,15.53,15.53,15.53,15.53-6.95,15.53-15.53c0-.42-.03-.84-.06-1.25-2.82,1.05-5.3,2.14-7.4,3.17-.87,3.66-4.14,6.38-8.07,6.38Z"/>
    <path class="cls-1" d="M765.75,94.46c-5.36,2.6-8.33,4.79-8.33,4.79-4.58,0-8.3,3.71-8.3,8.3s3.71,8.3,8.3,8.3c3.92,0,7.2-2.72,8.07-6.38,2.1-1.03,4.58-2.12,7.4-3.17,6.95-2.58,15.98-4.89,26.58-5.26v-14.89c-14.73.52-26.43,4.79-33.72,8.31Z"/>
    <path class="cls-1" d="M741.9,182.84c0,8.58,6.95,15.53,15.53,15.53s15.53-6.95,15.53-15.53c0-.42-.03-.84-.06-1.25-2.82,1.05-5.3,2.14-7.4,3.17-.87,3.66-4.14,6.38-8.07,6.38-4.58,0-8.3-3.71-8.3-8.3s3.71-8.3,8.3-8.3c0,0,2.97-2.2,8.33-4.79-2.41-1.54-5.26-2.44-8.33-2.44-8.58,0-15.53,6.95-15.53,15.53Z"/>
    <path class="cls-1" d="M799.47,161.44v14.89"/>
    <path class="cls-1" d="M765.75,169.75c-5.36,2.6-8.33,4.79-8.33,4.79-4.58,0-8.3,3.71-8.3,8.3s3.71,8.3,8.3,8.3c3.92,0,7.2-2.72,8.07-6.38,2.1-1.03,4.58-2.12,7.4-3.17,6.95-2.58,15.98-4.89,26.58-5.26v-14.89c-14.73.52-26.43,4.79-33.72,8.31Z"/>
    <path class="cls-1" d="M757.43,266.43c-4.58,0-8.3-3.71-8.3-8.3s3.71-8.3,8.3-8.3c0,0,2.97-2.2,8.33-4.79-2.41-1.54-5.26-2.44-8.33-2.44-8.58,0-15.53,6.95-15.53,15.53s6.95,15.53,15.53,15.53,15.53-6.95,15.53-15.53c0-.42-.03-.84-.06-1.25-2.82,1.05-5.3,2.14-7.4,3.17-.87,3.66-4.14,6.38-8.07,6.38Z"/>
    <path class="cls-1" d="M799.47,236.73v14.89"/>
    <path class="cls-1" d="M765.75,245.04c-5.36,2.6-8.33,4.79-8.33,4.79-4.58,0-8.3,3.71-8.3,8.3s3.71,8.3,8.3,8.3c3.92,0,7.2-2.72,8.07-6.38,2.1-1.03,4.58-2.12,7.4-3.17,6.95-2.58,15.98-4.89,26.58-5.26v-14.89c-14.73.52-26.43,4.79-33.72,8.31Z"/>
    <path class="cls-1" d="M757.43,341.72c-4.58,0-8.3-3.71-8.3-8.3s3.71-8.3,8.3-8.3c0,0,2.97-2.2,8.33-4.79-2.41-1.53-5.26-2.44-8.33-2.44-8.58,0-15.53,6.95-15.53,15.53s6.95,15.53,15.53,15.53,15.53-6.95,15.53-15.53c0-.42-.03-.84-.06-1.25-2.82,1.05-5.3,2.14-7.4,3.17-.87,3.66-4.14,6.38-8.07,6.38Z"/>
    <path class="cls-1" d="M799.47,312.02v14.89"/>
    <path class="cls-1" d="M765.75,320.33c-5.36,2.6-8.33,4.79-8.33,4.79-4.58,0-8.3,3.71-8.3,8.3s3.71,8.3,8.3,8.3c3.92,0,7.2-2.72,8.07-6.38,2.1-1.03,4.58-2.12,7.4-3.17,6.95-2.58,15.98-4.89,26.58-5.26v-14.89c-14.73.52-26.43,4.79-33.72,8.31Z"/>
  </g>
  <g>
    <path class="cls-1" d="M757.43,572.11c-4.58,0-8.3-3.71-8.3-8.3s3.71-8.3,8.3-8.3c0,0,2.97-2.2,8.33-4.79-2.41-1.53-5.26-2.44-8.33-2.44-8.58,0-15.53,6.95-15.53,15.53s6.95,15.53,15.53,15.53,15.53-6.95,15.53-15.53c0-.42-.03-.84-.06-1.25-2.82,1.05-5.3,2.14-7.4,3.17-.87,3.66-4.14,6.38-8.07,6.38Z"/>
    <path class="cls-1" d="M765.75,550.72c-5.36,2.6-8.33,4.79-8.33,4.79-4.58,0-8.3,3.71-8.3,8.3s3.71,8.3,8.3,8.3c3.92,0,7.2-2.72,8.07-6.38,2.1-1.03,4.58-2.12,7.4-3.17,6.95-2.58,15.98-4.89,26.58-5.26v-14.89c-14.73.52-26.43,4.79-33.72,8.31Z"/>
    <path class="cls-1" d="M741.9,639.1c0,8.58,6.95,15.53,15.53,15.53s15.53-6.95,15.53-15.53c0-.42-.03-.84-.06-1.25-2.82,1.05-5.3,2.14-7.4,3.17-.87,3.66-4.14,6.38-8.07,6.38-4.58,0-8.3-3.71-8.3-8.3s3.71-8.3,8.3-8.3c0,0,2.97-2.2,8.33-4.79-2.41-1.54-5.26-2.44-8.33-2.44-8.58,0-15.53,6.95-15.53,15.53Z"/>
    <path class="cls-1" d="M799.47,617.69v14.89"/>
    <path class="cls-1" d="M765.75,626.01c-5.36,2.6-8.33,4.79-8.33,4.79-4.58,0-8.3,3.71-8.3,8.3s3.71,8.3,8.3,8.3c3.92,0,7.2-2.72,8.07-6.38,2.1-1.03,4.58-2.12,7.4-3.17,6.95-2.58,15.98-4.89,26.58-5.26v-14.89c-14.73.52-26.43,4.79-33.72,8.31Z"/>
    <path class="cls-1" d="M757.43,722.69c-4.58,0-8.3-3.71-8.3-8.3s3.71-8.3,8.3-8.3c0,0,2.97-2.2,8.33-4.79-2.41-1.54-5.26-2.44-8.33-2.44-8.58,0-15.53,6.95-15.53,15.53s6.95,15.53,15.53,15.53,15.53-6.95,15.53-15.53c0-.42-.03-.84-.06-1.25-2.82,1.05-5.3,2.14-7.4,3.17-.87,3.66-4.14,6.38-8.07,6.38Z"/>
    <path class="cls-1" d="M799.47,692.99v14.89"/>
    <path class="cls-1" d="M765.75,701.3c-5.36,2.6-8.33,4.79-8.33,4.79-4.58,0-8.3,3.71-8.3,8.3s3.71,8.3,8.3,8.3c3.92,0,7.2-2.72,8.07-6.38,2.1-1.03,4.58-2.12,7.4-3.17,6.95-2.58,15.98-4.89,26.58-5.26v-14.89c-14.73.52-26.43,4.79-33.72,8.31Z"/>
    <path class="cls-1" d="M757.43,797.98c-4.58,0-8.3-3.71-8.3-8.3s3.71-8.3,8.3-8.3c0,0,2.97-2.2,8.33-4.79-2.41-1.53-5.26-2.44-8.33-2.44-8.58,0-15.53,6.95-15.53,15.53s6.95,15.53,15.53,15.53,15.53-6.95,15.53-15.53c0-.42-.03-.84-.06-1.25-2.82,1.05-5.3,2.14-7.4,3.17-.87,3.66-4.14,6.38-8.07,6.38Z"/>
    <path class="cls-1" d="M799.47,768.28v14.89"/>
    <path class="cls-1" d="M765.75,776.59c-5.36,2.6-8.33,4.79-8.33,4.79-4.58,0-8.3,3.71-8.3,8.3s3.71,8.3,8.3,8.3c3.92,0,7.2-2.72,8.07-6.38,2.1-1.03,4.58-2.12,7.4-3.17,6.95-2.58,15.98-4.89,26.58-5.26v-14.89c-14.73.52-26.43,4.79-33.72,8.31Z"/>
  </g>
  <path class="cls-1" d="M1584.25,114.6v677.61c0,27.42-22.98,49.64-51.33,49.64h-733.45V64.96h733.45c28.35,0,51.33,22.23,51.33,49.64Z"/>
  <path class="cls-1" d="M14.68,114.6v677.61c0,27.42,22.98,49.64,51.33,49.64h733.45V64.96H66.01c-28.35,0-51.33,22.23-51.33,49.64Z"/>
  <path class="cls-1" d="M799.47,73.27v11.7"/>
  <g>
    <path class="cls-1" d="M841.51,115.85c4.58,0,8.3-3.71,8.3-8.3s-3.71-8.3-8.3-8.3c0,0-2.97-2.2-8.33-4.79,2.41-1.53,5.26-2.44,8.33-2.44,8.58,0,15.53,6.95,15.53,15.53s-6.95,15.53-15.53,15.53-15.53-6.95-15.53-15.53c0-.42.03-.84.06-1.25,2.82,1.05,5.3,2.14,7.4,3.17.87,3.66,4.14,6.38,8.07,6.38Z"/>
    <path class="cls-1" d="M833.18,94.46c5.36,2.6,8.33,4.79,8.33,4.79,4.58,0,8.3,3.71,8.3,8.3s-3.71,8.3-8.3,8.3c-3.92,0-7.2-2.72-8.07-6.38-2.1-1.03-4.58-2.12-7.4-3.17-6.95-2.58-15.98-4.89-26.58-5.26v-14.89c14.73.52,26.43,4.79,33.72,8.31Z"/>
    <path class="cls-1" d="M857.04,182.84c0,8.58-6.95,15.53-15.53,15.53s-15.53-6.95-15.53-15.53c0-.42.03-.84.06-1.25,2.82,1.05,5.3,2.14,7.4,3.17.87,3.66,4.14,6.38,8.07,6.38,4.58,0,8.3-3.71,8.3-8.3s-3.71-8.3-8.3-8.3c0,0-2.97-2.2-8.33-4.79,2.41-1.54,5.26-2.44,8.33-2.44,8.58,0,15.53,6.95,15.53,15.53Z"/>
    <path class="cls-1" d="M799.47,161.44v14.89"/>
    <path class="cls-1" d="M833.18,169.75c5.36,2.6,8.33,4.79,8.33,4.79,4.58,0,8.3,3.71,8.3,8.3s-3.71,8.3-8.3,8.3c-3.92,0-7.2-2.72-8.07-6.38-2.1-1.03-4.58-2.12-7.4-3.17-6.95-2.58-15.98-4.89-26.58-5.26v-14.89c14.73.52,26.43,4.79,33.72,8.31Z"/>
    <path class="cls-1" d="M841.51,266.43c4.58,0,8.3-3.71,8.3-8.3s-3.71-8.3-8.3-8.3c0,0-2.97-2.2-8.33-4.79,2.41-1.54,5.26-2.44,8.33-2.44,8.58,0,15.53,6.95,15.53,15.53s-6.95,15.53-15.53,15.53-15.53-6.95-15.53-15.53c0-.42.03-.84.06-1.25,2.82,1.05,5.3,2.14,7.4,3.17.87,3.66,4.14,6.38,8.07,6.38Z"/>
    <path class="cls-1" d="M799.47,236.73v14.89"/>
    <path class="cls-1" d="M833.18,245.04c5.36,2.6,8.33,4.79,8.33,4.79,4.58,0,8.3,3.71,8.3,8.3s-3.71,8.3-8.3,8.3c-3.92,0-7.2-2.72-8.07-6.38-2.1-1.03-4.58-2.12-7.4-3.17-6.95-2.58-15.98-4.89-26.58-5.26v-14.89c14.73.52,26.43,4.79,33.72,8.31Z"/>
    <path class="cls-1" d="M841.51,341.72c4.58,0,8.3-3.71,8.3-8.3s-3.71-8.3-8.3-8.3c0,0-2.97-2.2-8.33-4.79,2.41-1.53,5.26-2.44,8.33-2.44,8.58,0,15.53,6.95,15.53,15.53s-6.95,15.53-15.53,15.53-15.53-6.95-15.53-15.53c0-.42.03-.84.06-1.25,2.82,1.05,5.3,2.14,7.4,3.17.87,3.66,4.14,6.38,8.07,6.38Z"/>
    <path class="cls-1" d="M799.47,312.02v14.89"/>
    <path class="cls-1" d="M833.18,320.33c5.36,2.6,8.33,4.79,8.33,4.79,4.58,0,8.3,3.71,8.3,8.3s-3.71,8.3-8.3,8.3c-3.92,0-7.2-2.72-8.07-6.38-2.1-1.03-4.58-2.12-7.4-3.17-6.95-2.58-15.98-4.89-26.58-5.26v-14.89c14.73.52,26.43,4.79,33.72,8.31Z"/>
  </g>
  <g>
    <path class="cls-1" d="M841.51,572.11c4.58,0,8.3-3.71,8.3-8.3s-3.71-8.3-8.3-8.3c0,0-2.97-2.2-8.33-4.79,2.41-1.53,5.26-2.44,8.33-2.44,8.58,0,15.53,6.95,15.53,15.53s-6.95,15.53-15.53,15.53-15.53-6.95-15.53-15.53c0-.42.03-.84.06-1.25,2.82,1.05,5.3,2.14,7.4,3.17.87,3.66,4.14,6.38,8.07,6.38Z"/>
    <path class="cls-1" d="M833.18,550.72c5.36,2.6,8.33,4.79,8.33,4.79,4.58,0,8.3,3.71,8.3,8.3s-3.71,8.3-8.3,8.3c-3.92,0-7.2-2.72-8.07-6.38-2.1-1.03-4.58-2.12-7.4-3.17-6.95-2.58-15.98-4.89-26.58-5.26v-14.89c14.73.52,26.43,4.79,33.72,8.31Z"/>
    <path class="cls-1" d="M857.04,639.1c0,8.58-6.95,15.53-15.53,15.53s-15.53-6.95-15.53-15.53c0-.42.03-.84.06-1.25,2.82,1.05,5.3,2.14,7.4,3.17.87,3.66,4.14,6.38,8.07,6.38,4.58,0,8.3-3.71,8.3-8.3s-3.71-8.3-8.3-8.3c0,0-2.97-2.2-8.33-4.79,2.41-1.54,5.26-2.44,8.33-2.44,8.58,0,15.53,6.95,15.53,15.53Z"/>
    <path class="cls-1" d="M799.47,617.69v14.89"/>
    <path class="cls-1" d="M833.18,626.01c5.36,2.6,8.33,4.79,8.33,4.79,4.58,0,8.3,3.71,8.3,8.3s-3.71,8.3-8.3,8.3c-3.92,0-7.2-2.72-8.07-6.38-2.1-1.03-4.58-2.12-7.4-3.17-6.95-2.58-15.98-4.89-26.58-5.26v-14.89c14.73.52,26.43,4.79,33.72,8.31Z"/>
    <path class="cls-1" d="M841.51,722.69c4.58,0,8.3-3.71,8.3-8.3s-3.71-8.3-8.3-8.3c0,0-2.97-2.2-8.33-4.79,2.41-1.54,5.26-2.44,8.33-2.44,8.58,0,15.53,6.95,15.53,15.53s-6.95,15.53-15.53,15.53-15.53-6.95-15.53-15.53c0-.42.03-.84.06-1.25,2.82,1.05,5.3,2.14,7.4,3.17.87,3.66,4.14,6.38,8.07,6.38Z"/>
    <path class="cls-1" d="M799.47,692.99v14.89"/>
    <path class="cls-1" d="M833.18,701.3c5.36,2.6,8.33,4.79,8.33,4.79,4.58,0,8.3,3.71,8.3,8.3s-3.71,8.3-8.3,8.3c-3.92,0-7.2-2.72-8.07-6.38-2.1-1.03-4.58-2.12-7.4-3.17-6.95-2.58-15.98-4.89-26.58-5.26v-14.89c14.73.52,26.43,4.79,33.72,8.31Z"/>
    <path class="cls-1" d="M841.51,797.98c4.58,0,8.3-3.71,8.3-8.3s-3.71-8.3-8.3-8.3c0,0-2.97-2.2-8.33-4.79,2.41-1.53,5.26-2.44,8.33-2.44,8.58,0,15.53,6.95,15.53,15.53s-6.95,15.53-15.53,15.53-15.53-6.95-15.53-15.53c0-.42.03-.84.06-1.25,2.82,1.05,5.3,2.14,7.4,3.17.87,3.66,4.14,6.38,8.07,6.38Z"/>
    <path class="cls-1" d="M799.47,768.28v14.89"/>
    <path class="cls-1" d="M833.18,776.59c5.36,2.6,8.33,4.79,8.33,4.79,4.58,0,8.3,3.71,8.3,8.3s-3.71,8.3-8.3,8.3c-3.92,0-7.2-2.72-8.07-6.38-2.1-1.03-4.58-2.12-7.4-3.17-6.95-2.58-15.98-4.89-26.58-5.26v-14.89c14.73.52,26.43,4.79,33.72,8.31Z"/>
  </g>
</svg>