<?xml version="1.0" encoding="UTF-8"?>
<svg id="Layer_1" data-name="Layer 1" xmlns="http://www.w3.org/2000/svg" viewBox="0 0 800 908">
  <defs>
    <style>
      .cls-1 {
        fill: #fffcf5;
      }

      .cls-1, .cls-2, .cls-3, .cls-4 {
        stroke: #000;
        stroke-miterlimit: 10;
      }

      .cls-2 {
        fill: none;
      }

      .cls-3 {
        fill: #fafff5;
      }

      .cls-4 {
        fill: #ddd4c3;
      }
    </style>
  </defs>
  <path class="cls-3" d="M45.25.59h754.75v906.86H45.25c-24.68,0-44.72-20.04-44.72-44.72V45.32C.53,20.63,20.57.59,45.25.59Z"/>
  <polygon class="cls-1" points="41.02 65.55 41.02 842.45 800 842.45 800 829.91 800 804.76 800 794.29 800 751.78 800 741.3 800 698.8 800 688.32 800 645.81 800 635.33 800 274.92 800 264.44 800 221.94 800 211.46 800 168.95 800 158.48 800 115.97 800 105.49 800 89.91 800 65.55 41.02 65.55"/>
  <polygon class="cls-1" points="56.88 65.55 56.88 842.45 800 842.45 800 829.91 800 804.76 800 794.29 800 751.78 800 741.3 800 698.8 800 688.32 800 645.81 800 635.33 800 274.92 800 264.44 800 221.94 800 211.46 800 168.95 800 158.48 800 115.97 800 105.49 800 89.91 800 65.55 56.88 65.55"/>
  <polygon class="cls-1" points="72.13 65.55 72.13 842.45 800 842.45 800 829.91 800 804.76 800 794.29 800 751.78 800 741.3 800 698.8 800 688.32 800 645.81 800 635.33 800 274.92 800 264.44 800 221.94 800 211.46 800 168.95 800 158.48 800 115.97 800 105.49 800 89.91 800 65.55 72.13 65.55"/>
  <polygon class="cls-1" points="86.29 65.55 86.29 842.45 800 842.45 800 829.91 800 804.76 800 794.29 800 751.78 800 741.3 800 698.8 800 688.32 800 645.81 800 635.33 800 274.92 800 264.44 800 221.94 800 211.46 800 168.95 800 158.48 800 115.97 800 105.49 800 89.91 800 65.55 86.29 65.55"/>
  <path class="cls-2" d="M800,73.87v11.7"/>
  <g>
    <path class="cls-4" d="M757.96,116.44c-4.58,0-8.3-3.71-8.3-8.3s3.71-8.3,8.3-8.3c0,0,2.97-2.2,8.33-4.79-2.41-1.53-5.26-2.44-8.33-2.44-8.58,0-15.53,6.95-15.53,15.53s6.95,15.53,15.53,15.53,15.53-6.95,15.53-15.53c0-.42-.03-.84-.06-1.25-2.82,1.05-5.3,2.14-7.4,3.17-.87,3.66-4.14,6.38-8.07,6.38Z"/>
    <path class="cls-3" d="M766.28,95.06c-5.36,2.6-8.33,4.79-8.33,4.79-4.58,0-8.3,3.71-8.3,8.3s3.71,8.3,8.3,8.3c3.92,0,7.2-2.72,8.07-6.38,2.1-1.03,4.58-2.12,7.4-3.17,6.95-2.58,15.98-4.89,26.58-5.26v-14.89c-14.73.52-26.43,4.79-33.72,8.31Z"/>
    <path class="cls-4" d="M742.43,183.44c0,8.58,6.95,15.53,15.53,15.53s15.53-6.95,15.53-15.53c0-.42-.03-.84-.06-1.25-2.82,1.05-5.3,2.14-7.4,3.17-.87,3.66-4.14,6.38-8.07,6.38-4.58,0-8.3-3.71-8.3-8.3s3.71-8.3,8.3-8.3c0,0,2.97-2.2,8.33-4.79-2.41-1.54-5.26-2.44-8.33-2.44-8.58,0-15.53,6.95-15.53,15.53Z"/>
    <path class="cls-2" d="M800,162.03v14.89"/>
    <path class="cls-3" d="M766.28,170.35c-5.36,2.6-8.33,4.79-8.33,4.79-4.58,0-8.3,3.71-8.3,8.3s3.71,8.3,8.3,8.3c3.92,0,7.2-2.72,8.07-6.38,2.1-1.03,4.58-2.12,7.4-3.17,6.95-2.58,15.98-4.89,26.58-5.26v-14.89c-14.73.52-26.43,4.79-33.72,8.31Z"/>
    <path class="cls-4" d="M757.96,267.03c-4.58,0-8.3-3.71-8.3-8.3s3.71-8.3,8.3-8.3c0,0,2.97-2.2,8.33-4.79-2.41-1.54-5.26-2.44-8.33-2.44-8.58,0-15.53,6.95-15.53,15.53s6.95,15.53,15.53,15.53,15.53-6.95,15.53-15.53c0-.42-.03-.84-.06-1.25-2.82,1.05-5.3,2.14-7.4,3.17-.87,3.66-4.14,6.38-8.07,6.38Z"/>
    <path class="cls-2" d="M800,237.32v14.89"/>
    <path class="cls-3" d="M766.28,245.64c-5.36,2.6-8.33,4.79-8.33,4.79-4.58,0-8.3,3.71-8.3,8.3s3.71,8.3,8.3,8.3c3.92,0,7.2-2.72,8.07-6.38,2.1-1.03,4.58-2.12,7.4-3.17,6.95-2.58,15.98-4.89,26.58-5.26v-14.89c-14.73.52-26.43,4.79-33.72,8.31Z"/>
    <path class="cls-4" d="M757.96,342.32c-4.58,0-8.3-3.71-8.3-8.3s3.71-8.3,8.3-8.3c0,0,2.97-2.2,8.33-4.79-2.41-1.53-5.26-2.44-8.33-2.44-8.58,0-15.53,6.95-15.53,15.53s6.95,15.53,15.53,15.53,15.53-6.95,15.53-15.53c0-.42-.03-.84-.06-1.25-2.82,1.05-5.3,2.14-7.4,3.17-.87,3.66-4.14,6.38-8.07,6.38Z"/>
    <path class="cls-2" d="M800,312.61v14.89"/>
    <path class="cls-3" d="M766.28,320.93c-5.36,2.6-8.33,4.79-8.33,4.79-4.58,0-8.3,3.71-8.3,8.3s3.71,8.3,8.3,8.3c3.92,0,7.2-2.72,8.07-6.38,2.1-1.03,4.58-2.12,7.4-3.17,6.95-2.58,15.98-4.89,26.58-5.26v-14.89c-14.73.52-26.43,4.79-33.72,8.31Z"/>
  </g>
  <g>
    <path class="cls-4" d="M757.96,572.7c-4.58,0-8.3-3.71-8.3-8.3s3.71-8.3,8.3-8.3c0,0,2.97-2.2,8.33-4.79-2.41-1.53-5.26-2.44-8.33-2.44-8.58,0-15.53,6.95-15.53,15.53s6.95,15.53,15.53,15.53,15.53-6.95,15.53-15.53c0-.42-.03-.84-.06-1.25-2.82,1.05-5.3,2.14-7.4,3.17-.87,3.66-4.14,6.38-8.07,6.38Z"/>
    <path class="cls-3" d="M766.28,551.31c-5.36,2.6-8.33,4.79-8.33,4.79-4.58,0-8.3,3.71-8.3,8.3s3.71,8.3,8.3,8.3c3.92,0,7.2-2.72,8.07-6.38,2.1-1.03,4.58-2.12,7.4-3.17,6.95-2.58,15.98-4.89,26.58-5.26v-14.89c-14.73.52-26.43,4.79-33.72,8.31Z"/>
    <path class="cls-4" d="M742.43,639.69c0,8.58,6.95,15.53,15.53,15.53s15.53-6.95,15.53-15.53c0-.42-.03-.84-.06-1.25-2.82,1.05-5.3,2.14-7.4,3.17-.87,3.66-4.14,6.38-8.07,6.38-4.58,0-8.3-3.71-8.3-8.3s3.71-8.3,8.3-8.3c0,0,2.97-2.2,8.33-4.79-2.41-1.54-5.26-2.44-8.33-2.44-8.58,0-15.53,6.95-15.53,15.53Z"/>
    <path class="cls-2" d="M800,618.29v14.89"/>
    <path class="cls-3" d="M766.28,626.6c-5.36,2.6-8.33,4.79-8.33,4.79-4.58,0-8.3,3.71-8.3,8.3s3.71,8.3,8.3,8.3c3.92,0,7.2-2.72,8.07-6.38,2.1-1.03,4.58-2.12,7.4-3.17,6.95-2.58,15.98-4.89,26.58-5.26v-14.89c-14.73.52-26.43,4.79-33.72,8.31Z"/>
    <path class="cls-4" d="M757.96,723.28c-4.58,0-8.3-3.71-8.3-8.3s3.71-8.3,8.3-8.3c0,0,2.97-2.2,8.33-4.79-2.41-1.54-5.26-2.44-8.33-2.44-8.58,0-15.53,6.95-15.53,15.53s6.95,15.53,15.53,15.53,15.53-6.95,15.53-15.53c0-.42-.03-.84-.06-1.25-2.82,1.05-5.3,2.14-7.4,3.17-.87,3.66-4.14,6.38-8.07,6.38Z"/>
    <path class="cls-2" d="M800,693.58v14.89"/>
    <path class="cls-3" d="M766.28,701.89c-5.36,2.6-8.33,4.79-8.33,4.79-4.58,0-8.3,3.71-8.3,8.3s3.71,8.3,8.3,8.3c3.92,0,7.2-2.72,8.07-6.38,2.1-1.03,4.58-2.12,7.4-3.17,6.95-2.58,15.98-4.89,26.58-5.26v-14.89c-14.73.52-26.43,4.79-33.72,8.31Z"/>
    <path class="cls-4" d="M757.96,798.57c-4.58,0-8.3-3.71-8.3-8.3s3.71-8.3,8.3-8.3c0,0,2.97-2.2,8.33-4.79-2.41-1.53-5.26-2.44-8.33-2.44-8.58,0-15.53,6.95-15.53,15.53s6.95,15.53,15.53,15.53,15.53-6.95,15.53-15.53c0-.42-.03-.84-.06-1.25-2.82,1.05-5.3,2.14-7.4,3.17-.87,3.66-4.14,6.38-8.07,6.38Z"/>
    <path class="cls-2" d="M800,768.87v14.89"/>
    <path class="cls-3" d="M766.28,777.18c-5.36,2.6-8.33,4.79-8.33,4.79-4.58,0-8.3,3.71-8.3,8.3s3.71,8.3,8.3,8.3c3.92,0,7.2-2.72,8.07-6.38,2.1-1.03,4.58-2.12,7.4-3.17,6.95-2.58,15.98-4.89,26.58-5.26v-14.89c-14.73.52-26.43,4.79-33.72,8.31Z"/>
  </g>
</svg>