<?xml version="1.0" encoding="UTF-8"?>
<svg id="Layer_1" data-name="Layer 1" xmlns="http://www.w3.org/2000/svg" viewBox="0 0 289.13 327.16">
  <defs>
    <style>
      .cls-1 {
        fill: #e19398;
      }

      .cls-1, .cls-2, .cls-3, .cls-4, .cls-5, .cls-6, .cls-7, .cls-8, .cls-9, .cls-10, .cls-11 {
        stroke-width: .3px;
      }

      .cls-1, .cls-2, .cls-3, .cls-5, .cls-6, .cls-7, .cls-8, .cls-10 {
        stroke: #221f20;
        stroke-miterlimit: 10;
      }

      .cls-2, .cls-12, .cls-9 {
        fill: #f9f1ac;
      }

      .cls-3 {
        fill: #e9da83;
      }

      .cls-4 {
        fill: #fff0f0;
      }

      .cls-4, .cls-12, .cls-9, .cls-11 {
        stroke: #000;
        stroke-linecap: round;
        stroke-linejoin: round;
      }

      .cls-5 {
        fill: #d7e7c3;
      }

      .cls-6 {
        fill: #c3d7a3;
      }

      .cls-7 {
        fill: none;
      }

      .cls-8 {
        fill: #ebabab;
      }

      .cls-12 {
        stroke-width: .22px;
      }

      .cls-10 {
        fill: #e4a7b0;
      }

      .cls-11 {
        fill: #fff;
      }
    </style>
  </defs>
  <g>
    <path class="cls-6" d="M144.04,237.6c.17-21.57-10.43-33.29-8.57-45.86,0,0-4.31-14.69-10.78-17.79l7.68-2.02,7.55,15.5,9.5,37.26-5.37,12.92Z"/>
    <path class="cls-5" d="M149.42,209.97s-5.27-23.78-12.64-31.01c0,0-4.06-6.77-4.06-9.48l-2.18,2.08s4.5,5.27,4.83,8.67c.33,3.4-2.3,10.32-1.98,12.51.33,2.2,7.24,8.67,8.34,11.96,1.1,3.29,5.27,19.97,5.27,19.97l2.42-14.71Z"/>
    <path class="cls-6" d="M117.23,212.75c-.15-.25-.53-.07-.44.2.48,1.44,1.75,3.58,4.87,6.49,6.59,6.14,2.33,21.21,2.33,21.21-3.82,3.7-2.03,11.75-.68,13.84,1.35,2.1,6.59,2.7,7.94,3.3s6.35,9.4,11.38,8.24c0,0,5.99-12.58-9.89-20.22,0,0-3.86-4.63-4.29-8.22-.11-.89.27-1.77.94-2.38,2.2-2,7.4-7.71-1.29-10.52,0,0,.45-8.09-6.44-9.14,0,0-3.15-.69-4.43-2.8Z"/>
    <path class="cls-6" d="M112.63,226.39s-2.64,6.91.94,21.73c0,0,2.14,14.51,1.15,23.14-2.79,24.4,6.01,31.3,6.01,31.3l-2.08-24.72s3.4-30.57-1.87-38.47c0,0-3.74-5.58-4.15-12.99Z"/>
    <path class="cls-6" d="M137.06,270.67s-6.94-56.17-6.52-59.77c.42-3.6-2.43-9.59-2.73-12.73-.3-3.15-.6-10.74-2.1-12.26-1.5-1.52-6.29-6.01-7.49-5.86l3.74-4.94s3.11,3.15,5.67,9.59c2.56,6.44,7.15,25.91,7.25,30.86.1,4.94,5.94,50.78,5.94,50.78l-3.78,4.34Z"/>
    <path class="cls-6" d="M150.26,229.45s4.7-9.68,8.99-14.72c1.41-1.65,2.18-3.74,2.22-5.91.09-5.24-.95-12.13,1.39-13.62,4.16-2.64,7.41-4.6,9.34-6.23,1.93-1.63,2.96-3.56,4.3-2.96s-1.63,3.73-3.11,7.57c-1.48,3.84.15,8.03-3.56,14.09-3.71,6.06-1.08,16.05-1.48,18.21-1.33,7.13-7.12,8.94-8.31,12.8-1.19,3.85-4.61,9.44-4.61,9.44l-9.32-3.85,4.15-14.82Z"/>
    <path class="cls-3" d="M216.61,104.21s-3.68-.84-1.9-7.14c0,0-7.13-4.28-2.26-10.59,0,0,2.45-2.38,3.6,0,0,0,3.92,0,4.02,4.16,0,0,2.25,4.76,2.01,7.85,0,0,1.39-2.84.86-5.54s.78-4.57,5.03-1.57c0,0,.14,1.15.88.95s-.3-2.22.67-2.37,2.77-.42,3.22,2.37-.45,4.89,0,5.86.45,3.9-1.27,5.21c0,0,4.27-2.21,6.29-1.91,0,0,2.62-4.72,3.82-4.27,0,0,1.27.15,0,2.4,0,0,2.92.9-5.99,11.98,0,0,3.6-.82,6.56-.52,0,0,2.73-6.37,4.15-5.99,1.42.37,2.1,2.62-2.32,10.26,0,0-1.05,2.22-2.62,2.83,0,0,4.4-.59,6.02-3.88,0,0,.57-3.3,2.74-1.05,0,0,5.62-1.2,2.62,3.75,0,0,1.2,1.95-2.47,4.04,0,0,5.99-.86,5.92.92s-.45,3.43-2.85,3.95c0,0-1.12,2.7-4.19,2.77,0,0,1.8,1.87,6.52,1.95,0,0,1.42.07-1.72,4.79,0,0,.07.9,3.15,1.2,0,0,.75,1.65-3.82,3,0,0-2.17,1.5-4.49,1.2,0,0-1.35-.07-2.02.9,0,0-.97,1.2-3.15-1.65,0,0,.22,1.2-.82,1.27s-1.05-1.35-2.1-1.5c-1.05-.15-2.7,1.42-4.42-2.02,0,0-1.72-5.21-.3-6.28l-10.05-5.98-3.27-5.4-2.54-7.93-4.07-4.17.56-3.85Z"/>
    <path class="cls-2" d="M238.07,136.89c-.7-.47-1.26-1.11-1.73-1.81-.98-1.47-4.27-4.54-13.54-1.08-5.88,2.2-12.62,9.44-12.62,9.44,0,0,7.86,0,11.25,1.54,3.39,1.54,5.86.77,8.02,2.31,0,0,4.47-.31,5.4.92,0,0,5.86-5.4,7.86-3.7s-4.01,6.17-5.86,6.17c0,0-4.62,8.17-13.72,8.94,0,0,5.55,5.09,6.78,8.17,0,0,5.7,4.78,5.24,8.63-.46,3.85-8.79,6.63-18.04.77,0,0-11.56-2.62-13.56-9.25,0,0-1.39-3.85-4.16-5.86s-2.47-6.63-4.01-8.17c-1.54-1.54-10.64-.92-14.95,1.08-4.32,2-4.32,3.08-4.32,3.08l-5.24-12.33s5.7-8.63,6.78-8.94l-.15,2.93s2.47-3.39,3.24-3.24c0,0-8.79-2.16-9.87-5.7,0,0-5.7-2.31-6.94-5.55-1.23-3.24-.77-5.7-3.24-8.48s-5.55-6.63-4.32-9.25,2.88-4.79,2.88-4.79c0,0-1.14-2.74.23-3.31s3.77-.68,3.77-.68c0,0,1.03-1.6,2.85,0,1.83,1.6,6.05,7.87,7.87,16.66,0,0,4.12,10.83,7.73,11.71,0,0-1.32-12.77-2.38-15.33s-3.26-9.34.44-15.42c0,0-.7-5.73.97-7.84,1.67-2.11,8.1-6.34,10.92-5.99s5.46-1.41,6.34,6.17c0,0,.26,3.88-4.58,8.02,0,0-2.91,12.69-5.29,17.71,0,0,1.94,9.07.62,15.77,0,0,27.31-23.08,27.84-25.99l.84.39,2.09,5.46,3.7-4.36s1.74,7.51,0,13.01c0,0,3.05,6.37,4.57,6.16s-.22-10.23,1.96-9.8,4.14,4.36,1.52,11.32c0,0,1.96,2.61,4.79,3.27,0,0,3.01-.19,2.47,1.42-.54,1.62-1.69.86-1,1.97s3.46,3.19,5.54,2.96c2.08-.23,3.46-1.69,4.31-1.23s-.85,3.46-3.16,3.46c-1.91,0-4.03.11-6.18-1.34Z"/>
    <path class="cls-7" d="M177.59,152.58s8.11-7.06,20.41-2.58c12.3,4.48,25.13,9.63,25.13,9.63"/>
    <path class="cls-7" d="M196.86,149.62s5.15-.64,13.32-6.17"/>
    <path class="cls-7" d="M187.34,136.93s11.23-11.02,14.39-12.45,10.72-8.27,10.72-8.27"/>
    <path class="cls-7" d="M177.5,139.75s-.48,5.08-2.32,6.78-.85,3.35-.85,3.35c0,0,13.59-10.51,6.41-13.37"/>
    <path class="cls-7" d="M184.63,137.49s4.64-.47-10.03-14.29c0,0-6.25-6.53-6.34-9.94-.09-3.41-1.89-7.57-1.89-7.57"/>
    <polyline class="cls-7" points="181.73 127.11 185.86 133.04 188.77 130.19"/>
    <path class="cls-7" d="M185.95,128.68s.09-9.66-2.56-16.94,1.93-19.41,1.93-19.41"/>
    <path class="cls-7" d="M189.83,94.13s-4.27,9.55-2.49,18.55"/>
    <line class="cls-7" x1="216.05" y1="120.16" x2="220.12" y2="116.21"/>
    <line class="cls-7" x1="220.69" y1="120.64" x2="219.46" y2="123.29"/>
    <path class="cls-7" d="M217.38,128.02s4.92-1.52,6.72-3.12"/>
    <path class="cls-7" d="M208.57,138.72s3.69-2.93,7.95-4.64c4.26-1.7,11.45-5.4,11.45-5.4"/>
    <path class="cls-7" d="M227.98,95.73s1.15,4.26-1.06,8.42"/>
    <path class="cls-7" d="M226.92,109.38s1.77-4.43,3.55-4.7"/>
    <path class="cls-7" d="M234.4,111.79s2.61-2.79,4.26-3.09"/>
    <path class="cls-7" d="M241.32,121.01s2.75-.29,4.61-.63c1.86-.34,3.99,1.15,6.74.32"/>
    <path class="cls-7" d="M218.28,104.15s-1.33-2.83,1.18-5.23c0,0,.98-6.12-5.13-10.29"/>
    <path class="cls-5" d="M151.77,187.94h3.83s.21-6.15,1.56-8.05c1.72-2.41,1.33-4.87,2.21-7.82.56-1.89,1.85-3.49,3.57-4.45,5.57-3.11,17.7-10.75,14.06-16.54-4.69-7.44-9.67-3.45-9.67-3.45,0,0-8.56,8.98-11.18,15.19-2.62,6.21-4.06,11.18-4.38,13.67s0,11.46,0,11.46Z"/>
    <g>
      <path class="cls-8" d="M119.15,156.46s13.43-5.44,18.72-2.61c5.29,2.83,9.82,9.58,10.31,13.26,0,0-1.55,9.27-6.67,12.48-5.12,3.21-23.71.49-26.5-1.01s-10.74-5.74-10.74-5.74l2.24-13.04,12.64-3.34Z"/>
      <path class="cls-8" d="M102.66,163.43s3.61-14.12-.91-22.51c0,0,2.55-7.53-6.98-12.88,0,0-8.11-7.48-15.63-8.35,0,0-5.13-3.27-5.05-.34.08,2.93,2.98,4.22,2.09,7.42-.89,3.2-3.29,7.69.78,9.87s3.29,5.69,4.87,9.43,10.48,6.65,11.96,9.54,4.22,10.13,4.22,10.13l4.64-2.3Z"/>
      <path class="cls-8" d="M102.13,149.26s2.16-9.03,5.66-12.21c3.51-3.17,3.72-7.74,5.06-10.64,1.34-2.89,6.74-5.23,10.95-4.96,0,0,4.09-3.4,5.63-2.4,1.54,1-.48,4.07.32,5.76.8,1.69,4.48,2.58,2.89,8.39,0,0,1.69,1.08-1.47,8.05-3.16,6.97-2.08,10.25-7.28,14.32-5.2,4.07-18.75,8.9-18.75,8.9l-5.37-2.69,2.35-12.53Z"/>
      <path class="cls-8" d="M108.62,173.55s7.9,2.3,12.22,8.76c0,0,16.75,6.29,9.41,18.67l.35,3.44s1.04,7.04-2.09,11.13-4.26-2.28-6.18-3.3-16.13-5.2-17.93-11.03c-1.8-5.83-2.28-12.94-2.28-12.94,0,0-5.58,16.31-11.04,16.27-5.46-.04-9.01.23-10.8,2.88-1.79,2.65-1.77,9.33-8.35,10.32-6.58.99-7.67.95-7.89-.07-.22-1.02,3.74-4.85,3.67-6.87s-3.23-3.89-.76-7.8c2.47-3.91,6.39-10.28,6.73-12.63.33-2.35,9.67-6.73,12.11-6.69,2.44.04,4.41-7.19,4.41-7.19l10.47,2.35,7.94-5.31Z"/>
      <path class="cls-8" d="M90.09,173.28s-13.81,5.26-22.49,2.23-15.4-7.96-19-8.95c-3.61-.99,5.74-5.81,11.65-8.43,5.91-2.62,7.49-6.88,15.53-6.62,4.81.16,21.41,8.76,22.83,10.32l-8.52,11.45Z"/>
      <path class="cls-8" d="M122.92,139.06s-9.29,17.62-14.55,21.94"/>
      <path class="cls-8" d="M107.44,166.69s21.16-1.6,22.88-3.23"/>
      <path class="cls-8" d="M137.43,170.22s-17.34,6.06-27.82,1.13"/>
      <path class="cls-8" d="M95.19,145.55s4.32,7.22,4.28,9.15"/>
      <path class="cls-8" d="M119.33,195.1s.42-10.8-14.41-16.31"/>
      <path class="cls-8" d="M93.9,183.39s2.04,2.7-3.47,5.61c-5.51,2.91-12.53,6.82-14.55,11.66"/>
      <path class="cls-8" d="M64.89,163.44s11.91-2.67,19.48,2.35"/>
      <path class="cls-8" d="M100.64,181.09s1.85,1.31,1.49,7.2"/>
      <path class="cls-1" d="M83.54,168.32s.87-5.28,7.42-5.68c6.55-.4,9.34-2.83,12.93-.46,3.59,2.36,5.32,6.04,4.64,9.86-.68,3.82-2.15,8.82-13.02,11.13l-3.37-9.23-8.6-5.61Z"/>
      <path class="cls-10" d="M89.68,174.77s-9.51-3.24-7.41-6.11,6.62-4.76,10.09-2.18c0,0,2.78-2.23,4.58-.55s-.75,3.24.28,4.32c1.03,1.08,2.24-.13,3.14,1.06s-.62,2.12-.76,4.29c-.13,2.17.77,4.48-1.14,5.79-1.91,1.31-3.58,3.3-7.44.46s0-4.21-1.34-7.08Z"/>
    </g>
    <path class="cls-6" d="M151.77,187.94s-11.54,74.12-11.84,76.32c-.29,2.2,7.77-.73,10.56-23.31,2.79-22.58,5.86-55.27,4.69-57.62l-3.41,4.61Z"/>
    <g>
      <path class="cls-6" d="M120.38,306.01c-.41,3.33-.72,6.14-.38,7.08.11.31.22.76.34,1.33.27-1.07.58-2.07.92-2.98-.3-1.76-.6-3.58-.88-5.42Z"/>
      <path class="cls-6" d="M143.72,280.18s-.98,2.82.97,15.48l1.76-17.81c-.69.92-1.57,1.7-2.73,2.33Z"/>
      <g>
        <path class="cls-6" d="M120.38,306.01c-.41,3.33-.72,6.14-.38,7.08.11.31.22.76.34,1.33.27-1.07.58-2.07.92-2.98-.3-1.76-.6-3.58-.88-5.42Z"/>
        <path class="cls-6" d="M119.34,324.25c.03-3.71.42-7.55,1-9.84-.62,2.43-1.02,6.21-1,9.84Z"/>
        <path class="cls-6" d="M143.04,312.43l-1.53,15.49h4.07c-.67-4.31-1.58-10.7-2.54-15.49Z"/>
        <path class="cls-6" d="M153.52,327.92l.75-3.95s.93-2.59,2.2-6.25c.51-12.94-5.83-24.04-6.5-23.55-.95.69.72,17.98,0,20.49-.26.89-.52,3.18-.76,5.75l1,7.5h3.31Z"/>
        <path class="cls-6" d="M135.54,326.6l-.13,1.31h6.09l1.53-15.49c-1.86-9.27-3.88-19.94-4.66-26l-4.55,30.37s.03.06.04.08c1.42,3.03,2,6.39,1.68,9.72Z"/>
        <path class="cls-6" d="M153.61,327.92h8.5c1.96-8.51,4.61-27.41,5.27-31.23.92-5.33-3.17-10.97-4-10.98-.91-.01,0,3.87,0,8.44,0,3.11-4.22,15.79-6.92,23.58-1.27,3.66-2.2,6.25-2.2,6.25l-.66,3.95Z"/>
        <polygon class="cls-6" points="154.27 323.97 153.52 327.92 153.61 327.92 154.27 323.97"/>
        <path class="cls-6" d="M119.34,324.25c-.02-3.64.38-7.41,1-9.84-.11-.56,1.69-1.68,1.58-1.98-.34-.94.92-2.76-.29-5.88-.91-2.35-2.43-7.44-2.99-10.06-.08-.36-1.78-5.89-2.1-5.42-5.09,7.69-8.09,21.51-4.76,36.85h7.66c-.08-1.16-.12-2.41-.11-3.66Z"/>
        <path class="cls-6" d="M133.87,316.88l-.04-.08c-2.85-6.07-7.62-16.14-9.06-18.67-1.76-3.1-3.99-15.06-4.64-18.74-.05-.31-.49-.34-.58-.04-.86,2.7-1.03,6.83-.8,11.57.16,2.86.59,4.74.59,5.11,0,2.85,0,5.04,1.04,9.97.28,1.84.58,3.66.88,5.42,1.33-3.6,1.05,8.49,1.98,8.74,2.3.64.64-6.87.64,1.97,0,.96,3.28,3.39,2.44,5.77h9.1l.13-1.35c.32-3.32-.26-6.67-1.68-9.68Z"/>
        <path class="cls-6" d="M163.41,237.14c-11.5,2.51-18.7,15.95-21.24,21.56-.73,1.61-1.6,3.14-2.61,4.59-9.64,13.8-1.39,18.36-1.39,18.36-.24.41-.14,2.17.2,4.78.78,6.06,2.81,16.73,4.66,26,.96,4.78,1.87,11.18,2.54,15.49h4.55l-.92-7.5-2.82-15.29c-.72-3.65-1.27-6.78-1.68-9.47-1.96-12.65-.97-15.48-.97-15.48,1.17-.63,2.04-1.42,2.73-2.33,2.66-3.53,3.77-8.68,5.59-16.57,2.3-9.93,9.07-14.21,9.07-14.21,17.64-8.93,19.09-18.45,19.09-18.45-6.65,6.15-16.79,8.51-16.79,8.51Z"/>
        <polygon class="cls-6" points="150.21 327.92 149.2 320.42 150.13 327.92 150.21 327.92"/>
        <path class="cls-6" d="M119.34,324.25c0,1.26.02,2.5.11,3.66h.07c-.12-1.16-.17-2.4-.18-3.66Z"/>
        <path class="cls-6" d="M125.4,305.09c-.82-.52-2.8,2.74-4.13,6.34-.34.91-.65,1.91-.92,2.98-.58,2.29-.98,6.13-1,9.84,0,1.26.06,2.5.18,3.66h6.8c.85-2.38.83-5.68.83-6.64,0-8.85-1.02-15.73-1.75-16.19Z"/>
        <path class="cls-6" d="M140.68,311.61c.9.72,3.19,1.46,4.8,4.12.41.67.79,1.41,1.12,2.2.71,1.7,1.19,4.53,1.22,7.27,0,.93-.07,1.85-.22,2.71h-8.27c1.46-5.05,1.46-8.09,1.46-8.8,0-6.54-1.86-8.91-.12-7.51Z"/>
        <path class="cls-6" d="M156.47,317.72c.51-12.94-5.9-24.51-6.5-23.55-.94,1.48.72,17.98,0,20.49"/>
      </g>
    </g>
  </g>
  <g>
    <g>
      <path class="cls-4" d="M246.52,211.19s-14.52-6.04-17.66-2.29c0,0,4.07,2.07,4.51,2.94s1.57,4.05,3.41,3.72,8.59-2.27,8.59-2.27c0,0-6.11,3.7-4.37,5.46,0,0,1.4.47,2.25,2.13s1.5,2.9,3.05,2.37c2.04-.69.74-10.83.74-10.83l-.52-1.22Z"/>
      <path class="cls-4" d="M247.3,212.94s-15.38-5.54-18.91-1.63c0,0,4.3,1.93,4.74,2.79s1.53,4.02,3.53,3.62,8.71-4.42,8.71-4.42c0,0-6.1,5.77-4.3,7.47,0,0,1.49.42,2.34,2.06s1.5,2.86,3.19,2.27c2.22-.78,1.21-10.95,1.21-10.95l-.52-1.21Z"/>
      <path class="cls-4" d="M246.51,211.2s-2.51-6.63-5.9-4.25"/>
      <path class="cls-4" d="M246.52,211.19s5.14-14.86,10.04-14.72c0,0-1.16,4.41-.8,5.32s1.98,3.86.51,5.02-7.41,4.91-7.41,4.91c0,0,6.83-2.1,6.99.36,0,0-.59,1.36.09,3.1s1.17,3.04-.26,3.85c-1.88,1.07-8.59-6.65-8.59-6.65l-.56-1.2Z"/>
      <path class="cls-4" d="M247.3,212.94s6.09-15.17,11.35-15.21c0,0-1.41,4.49-1.06,5.39s1.99,3.82.36,5.04-9.1,3.57-9.1,3.57c0,0,8.36-.72,8.44,1.76,0,0-.68,1.39-.02,3.12s1.14,3.02-.43,3.89c-2.06,1.15-8.98-6.37-8.98-6.37l-.56-1.19Z"/>
      <path class="cls-4" d="M246.53,211.19s-3.28-6.28.75-7.23"/>
      <line class="cls-4" x1="246.57" y1="211.3" x2="248.92" y2="216.55"/>
    </g>
    <polygon class="cls-4" points="246.68 196.35 248.11 198.45 250.57 197.84 248.48 199.27 249.09 201.73 247.66 199.63 245.2 200.25 247.29 198.81 246.68 196.35"/>
  </g>
  <g>
    <path class="cls-4" d="M46.73,125.84s6.59-19.18-1.48-24.21c0,0-1.7-.07-1.85,3.63s-4,6-4,6c0,0-3.55-5.33-4.96-.44,0,0-1.67,2.41-4.3,4.42,0,0-2.75,3.32.82,6.56,0,0-4.55.94-5,6.35-.45,5.41,1.89,6.64,5.12,6.03,0,0,2.79,3.85,11.07-3.73,0,0,3.17-2.18,4.58-4.6Z"/>
    <path class="cls-4" d="M39.4,111.26s5.11,6.02,3.89,14.56c-.08.58-.76.86-1.22.5-2.69-2.14-9.43-8.57-2.67-15.06Z"/>
    <path class="cls-4" d="M30.96,121.79s4.88.32,9.17,4.63c.08.08,0,.22-.11.19-1.3-.36-5.62-1.71-9.07-4.82Z"/>
    <path class="cls-4" d="M31.08,134.17s-.49-6.23,1.53-9.08c.15-.21-.11-.47-.35-.38-1.31.55-4.42,3.03-1.19,9.46Z"/>
    <path class="cls-4" d="M46.73,125.84s4.46-4.7,5.7-2.31c0,0,.32,1.34-.9,1.89"/>
    <path class="cls-4" d="M46.01,126.88s-2.1,7.9-3.75,7.8.55-3.44.55-3.44l3.2-4.35Z"/>
    <circle class="cls-4" cx="50.13" cy="134.04" r=".97"/>
    <circle class="cls-4" cx="26.8" cy="106.54" r="1.48"/>
    <circle class="cls-4" cx="25.83" cy="110.68" r=".58"/>
  </g>
  <g>
    <polygon class="cls-9" points="260.71 139.51 262.74 152.88 270.36 153.89 262.74 154.9 260.71 168.27 258.68 154.9 251.06 153.89 258.68 152.88 260.71 139.51"/>
    <polygon class="cls-9" points="267.67 162.86 268.23 165.08 270.36 165.75 268.23 166.42 267.67 168.64 267.1 166.42 264.97 165.75 267.1 165.08 267.67 162.86"/>
    <polygon class="cls-9" points="253.3 144.73 253.86 146.95 255.99 147.62 253.86 148.29 253.3 150.52 252.73 148.29 250.6 147.62 252.73 146.95 253.3 144.73"/>
    <circle class="cls-9" cx="271.76" cy="160.49" r=".88"/>
    <circle class="cls-9" cx="272.9" cy="158.23" r=".56"/>
    <circle class="cls-9" cx="257.57" cy="164.62" r=".56"/>
    <circle class="cls-9" cx="255.87" cy="166.06" r=".56"/>
    <circle class="cls-9" cx="257.67" cy="166.61" r=".56"/>
  </g>
  <g>
    <polygon class="cls-12" points="25.49 183.06 26.07 185.37 28.28 186.06 26.07 186.76 25.49 189.07 24.9 186.76 22.69 186.06 24.9 185.37 25.49 183.06"/>
    <polygon class="cls-12" points="37.2 194.31 37.78 196.62 39.99 197.31 37.78 198.01 37.2 200.32 36.61 198.01 34.4 197.31 36.61 196.62 37.2 194.31"/>
    <circle class="cls-12" cx="28.92" cy="184.29" r=".58"/>
    <circle class="cls-12" cx="27.95" cy="197.89" r=".71"/>
    <circle class="cls-12" cx="26.16" cy="197.44" r=".44"/>
    <circle class="cls-12" cx="27.05" cy="195.86" r=".44"/>
    <circle class="cls-12" cx="29.3" cy="182.7" r=".36"/>
    <polygon class="cls-12" points="33.85 192.44 39.33 191.39 33.83 190.33 35.73 187.38 33.07 189.09 31.72 182.96 30.37 189.06 27.69 187.36 29.57 190.33 24.1 191.39 29.62 192.45 27.91 195.19 30.36 193.67 31.72 199.81 33.06 193.71 35.74 195.42 33.85 192.44"/>
  </g>
  <circle class="cls-11" cx="273.05" cy="112.19" r="1.64"/>
  <circle class="cls-11" cx="267.71" cy="117.16" r="1.45"/>
  <circle class="cls-11" cx="275.55" cy="119.24" r="1.45"/>
  <circle class="cls-11" cx="18.5" cy="199.34" r="1.5"/>
  <circle class="cls-11" cx="251.7" cy="229.65" r="1.64"/>
  <circle class="cls-11" cx="18.5" cy="208.12" r="1.45"/>
  <circle class="cls-11" cx="69.86" cy="254.03" r="1.45"/>
  <circle class="cls-11" cx="81.5" cy="252.58" r="1.45"/>
  <circle class="cls-11" cx="75.9" cy="243.93" r="1.45"/>
  <circle class="cls-11" cx="68.27" cy="115.62" r="1.45"/>
  <circle class="cls-11" cx="79.91" cy="114.17" r="1.45"/>
  <circle class="cls-11" cx="85.08" cy="74.33" r="1.45"/>
  <circle class="cls-11" cx="57.83" cy="49.68" r="1.45"/>
  <circle class="cls-11" cx="203.52" cy="30.16" r="1.45"/>
  <circle class="cls-11" cx="74.31" cy="105.52" r="1.45"/>
  <circle class="cls-11" cx="51.52" cy="61.18" r="1.45"/>
  <circle class="cls-11" cx="219.52" cy="53.14" r="1.45"/>
  <circle class="cls-11" cx="248.92" cy="238.45" r="1.45"/>
  <circle class="cls-11" cx="238.62" cy="247.53" r="1.45"/>
  <circle class="cls-11" cx="26.8" cy="206.67" r="1.45"/>
</svg>