<svg width="234" height="234" viewBox="0 0 234 234" fill="none" xmlns="http://www.w3.org/2000/svg">
<path d="M166.332 89.7927C166.332 89.7927 197.444 77.1902 209.703 83.7443C221.961 90.2984 232.46 105.935 233.593 114.472C233.593 114.472 229.992 135.934 218.138 143.379C206.284 150.823 163.197 144.511 156.724 141.052C150.251 137.593 131.842 127.762 131.842 127.762L137.041 97.5403L166.312 89.7927H166.332Z" fill="#EBABAB" stroke="black" stroke-width="0.505719" stroke-miterlimit="10"/>
<path d="M141.937 129.38C141.937 129.38 160.244 134.72 170.257 149.69C170.257 149.69 209.076 164.254 192.063 192.959L192.873 200.929C192.873 200.929 195.28 217.233 188.018 226.721C180.756 236.208 178.126 221.441 173.716 219.074C169.306 216.707 136.333 207.038 132.166 193.525C127.999 180.012 126.886 163.546 126.886 163.546C126.886 163.546 113.96 201.334 101.297 201.253C88.6338 201.172 80.421 201.779 76.2538 207.928C72.1069 214.057 72.1474 229.553 56.8949 231.838C41.6425 234.124 39.1341 234.043 38.6081 231.677C38.0822 229.31 47.2863 220.429 47.1244 215.757C46.9626 211.084 39.6398 206.735 45.3645 197.692C51.0893 188.63 60.172 173.863 60.9609 168.421C61.7498 162.98 83.3744 152.825 89.0182 152.926C94.662 153.027 99.2539 136.258 99.2539 136.258L123.508 141.699L141.916 129.4L141.937 129.38Z" fill="#EBABAB" stroke="black" stroke-width="0.505719" stroke-miterlimit="10"/>
<path d="M99.0111 128.773C99.0111 128.773 67.0093 140.951 46.9019 133.931C26.7945 126.912 11.2184 115.483 2.86391 113.197C-5.49056 110.911 16.1542 99.7448 29.8693 93.6762C43.5844 87.6076 47.2256 77.7157 65.8562 78.3226C77.0023 78.6867 115.477 98.612 118.754 102.233L99.0111 128.753V128.773Z" fill="#EBABAB" stroke="black" stroke-width="0.505719" stroke-miterlimit="10"/>
<path d="M126.886 73.104C126.886 73.104 131.883 52.1672 140.015 44.8242C148.147 37.461 148.632 26.8813 151.727 20.1856C154.822 13.4899 167.364 8.06859 177.094 8.69568C177.094 8.69568 186.561 0.80647 190.142 3.13278C193.722 5.45908 189.049 12.5594 190.89 16.4837C192.751 20.3879 201.288 22.4512 197.586 35.9236C197.586 35.9236 201.51 38.4319 194.187 54.5745C186.865 70.717 189.373 78.323 177.337 87.7496C165.301 97.1762 133.886 108.383 133.886 108.383L121.445 102.152L126.886 73.104Z" fill="#EBABAB" stroke="black" stroke-width="0.505719" stroke-miterlimit="10"/>
<path d="M175.071 49.4561C175.071 49.4561 153.548 90.2979 141.35 100.291Z" fill="#EBABAB"/>
<path d="M175.071 49.4561C175.071 49.4561 153.548 90.2979 141.35 100.291" stroke="black" stroke-width="0.505719" stroke-miterlimit="10"/>
<path d="M139.206 113.48C139.206 113.48 188.24 109.778 192.225 105.996" stroke="black" stroke-width="0.505719" stroke-miterlimit="10"/>
<path d="M208.691 121.652C208.691 121.652 168.497 135.691 144.222 124.262" stroke="black" stroke-width="0.505719" stroke-miterlimit="10"/>
<path d="M128.12 105.955C128.12 105.955 136.495 73.2451 126.017 53.8053C126.017 53.8053 131.923 36.3681 109.854 23.9679C109.854 23.9679 91.0613 6.63187 73.6444 4.609C73.6444 4.609 61.7498 -2.95655 61.9521 3.82008C62.1544 10.5967 68.8501 13.5906 66.807 20.9943C64.7639 28.398 59.201 38.8158 68.6276 43.8528C78.0542 48.8897 76.2539 57.0419 79.9153 65.6998C83.5767 74.3577 104.21 81.1141 107.629 87.8098C111.068 94.5055 117.399 111.275 117.399 111.275L128.141 105.955H128.12Z" fill="#EBABAB" stroke="black" stroke-width="0.505719" stroke-miterlimit="10"/>
<path d="M110.825 64.5063C110.825 64.5063 120.838 81.2355 120.737 85.7061" stroke="black" stroke-width="0.505719" stroke-miterlimit="10"/>
<path d="M166.757 179.325C166.757 179.325 167.728 154.282 133.36 141.538" stroke="black" stroke-width="0.505719" stroke-miterlimit="10"/>
<path d="M107.831 152.178C107.831 152.178 112.564 158.428 99.8001 165.165C87.0357 171.901 70.7718 180.963 66.0787 192.17" stroke="black" stroke-width="0.505719" stroke-miterlimit="10"/>
<path d="M40.6107 105.955C40.6107 105.955 68.2027 99.7651 85.7411 111.397" stroke="black" stroke-width="0.505719" stroke-miterlimit="10"/>
<path d="M123.448 146.857C123.448 146.857 127.736 149.892 126.907 163.546" stroke="black" stroke-width="0.505719" stroke-miterlimit="10"/>
<path d="M83.8193 117.284C83.8193 117.284 85.822 105.045 101.014 104.115C116.206 103.184 122.659 97.5606 130.973 103.043C139.287 108.525 143.292 117.041 141.734 125.881C140.177 134.721 136.758 146.312 111.553 151.673L103.745 130.291L83.8193 117.284Z" fill="#E19398" stroke="black" stroke-width="0.505719" stroke-miterlimit="10"/>
<path d="M98.0402 132.212C98.0402 132.212 76.0111 124.707 80.866 118.052C85.7209 111.397 96.2196 107.007 104.25 112.995C104.25 112.995 110.683 107.836 114.871 111.72C119.058 115.604 113.131 119.225 115.518 121.733C117.905 124.242 120.717 121.43 122.8 124.181C124.884 126.932 121.344 129.097 121.04 134.113C120.737 139.13 122.82 144.511 118.411 147.525C114.001 150.539 110.117 155.172 101.155 148.577C92.1941 141.982 101.155 138.807 98.0402 132.171V132.212Z" fill="#E38895" stroke="black" stroke-width="0.505719" stroke-miterlimit="10"/>
</svg>
